<svg xmlns="http://www.w3.org/2000/svg" xmlns:xlink="http://www.w3.org/1999/xlink" contentStyleType="text/css" data-diagram-type="CLASS" height="475px" preserveAspectRatio="none" style="width:1180px;height:475px;background:#FFFFFF;" version="1.1" viewBox="0 0 1180 475" width="1180px" zoomAndPan="magnify"><defs/><g><!--class Dokument--><g class="entity" data-entity="Dokument" data-source-line="1" data-uid="ent0002" id="entity_Dokument"><rect fill="#F1F1F1" height="146.9297" rx="2.5" ry="2.5" style="stroke:#181818;stroke-width:0.5;" width="333.0908" x="80.23" y="164.47"/><ellipse cx="207.1494" cy="180.47" fill="#ADD1B2" rx="11" ry="11" style="stroke:#181818;stroke-width:1;"/><path d="M209.6226,186.6131 Q209.0415,186.9119 208.4024,187.0613 Q207.7632,187.2107 207.0576,187.2107 Q204.5508,187.2107 203.231,185.5589 Q201.9112,183.907 201.9112,180.7859 Q201.9112,177.6565 203.231,176.0047 Q204.5508,174.3528 207.0576,174.3528 Q207.7632,174.3528 208.4107,174.5022 Q209.0581,174.6516 209.6226,174.9505 L209.6226,177.6731 Q208.9917,177.0921 208.3982,176.8223 Q207.8047,176.5525 207.1738,176.5525 Q205.8291,176.5525 205.1443,177.6192 Q204.4595,178.6858 204.4595,180.7859 Q204.4595,182.8777 205.1443,183.9444 Q205.8291,185.011 207.1738,185.011 Q207.8047,185.011 208.3982,184.7412 Q208.9917,184.4715 209.6226,183.8904 Z " fill="#000000"/><text fill="#000000" font-family="sans-serif" font-size="14" lengthAdjust="spacing" textLength="70.752" x="227.6494" y="185.761">Dokument</text><line style="stroke:#181818;stroke-width:0.5;" x1="81.23" x2="412.3208" y1="196.47" y2="196.47"/><ellipse cx="91.23" cy="210.2141" fill="none" rx="3" ry="3" style="stroke:#038048;stroke-width:1;"/><text fill="#000000" font-family="sans-serif" font-size="14" lengthAdjust="spacing" textLength="80.0283" x="100.23" y="214.0052">tittel: string</text><ellipse cx="91.23" cy="226.7024" fill="none" rx="3" ry="3" style="stroke:#038048;stroke-width:1;"/><text fill="#000000" font-family="sans-serif" font-size="14" lengthAdjust="spacing" textLength="207.0127" x="100.23" y="230.4934">dokumenttype: Dokumenttype</text><ellipse cx="91.23" cy="243.1907" fill="none" rx="3" ry="3" style="stroke:#038048;stroke-width:1;"/><text fill="#000000" font-family="sans-serif" font-size="14" lengthAdjust="spacing" textLength="307.0908" x="100.23" y="246.9817">referanseDokumentfil: ReferanseDokumentfil</text><ellipse cx="91.23" cy="259.679" fill="none" rx="3" ry="3" style="stroke:#038048;stroke-width:1;"/><text fill="#000000" font-family="sans-serif" font-size="14" lengthAdjust="spacing" textLength="115.5752" x="100.23" y="263.47">mimetype: string</text><ellipse cx="91.23" cy="276.1673" fill="none" rx="3" ry="3" style="stroke:#038048;stroke-width:1;"/><text fill="#000000" font-family="sans-serif" font-size="14" lengthAdjust="spacing" textLength="145.0313" x="100.23" y="279.9583">dokumentsdato: date</text><ellipse cx="91.23" cy="292.6555" fill="none" rx="3" ry="3" style="stroke:#038048;stroke-width:1;"/><text fill="#000000" font-family="sans-serif" font-size="14" lengthAdjust="spacing" textLength="113.7158" x="100.23" y="296.4466">arkivnavn: string</text><line style="stroke:#181818;stroke-width:0.5;" x1="81.23" x2="412.3208" y1="303.3997" y2="303.3997"/></g><!--class Dokumenttype--><g class="entity" data-entity="Dokumenttype" data-source-line="10" data-uid="ent0003" id="entity_Dokumenttype"><rect fill="#F1F1F1" height="89.5977" rx="2.5" ry="2.5" style="stroke:#181818;stroke-width:0.5;" width="183.5547" x="7" y="375.33"/><ellipse cx="45.2383" cy="395.6405" fill="#ADD1B2" rx="11" ry="11" style="stroke:#181818;stroke-width:1;"/><path d="M47.7114,401.7836 Q47.1304,402.0824 46.4912,402.2319 Q45.8521,402.3813 45.1465,402.3813 Q42.6396,402.3813 41.3198,400.7294 Q40,399.0776 40,395.9565 Q40,392.8271 41.3198,391.1752 Q42.6396,389.5234 45.1465,389.5234 Q45.8521,389.5234 46.4995,389.6728 Q47.147,389.8222 47.7114,390.121 L47.7114,392.8437 Q47.0806,392.2626 46.4871,391.9928 Q45.8936,391.7231 45.2627,391.7231 Q43.918,391.7231 43.2332,392.7897 Q42.5483,393.8564 42.5483,395.9565 Q42.5483,398.0483 43.2332,399.1149 Q43.918,400.1816 45.2627,400.1816 Q45.8936,400.1816 46.4871,399.9118 Q47.0806,399.642 47.7114,399.061 Z " fill="#000000"/><text fill="#000000" font-family="sans-serif" font-size="12" font-style="italic" lengthAdjust="spacing" textLength="42.0176" x="93.3506" y="391.9316">&#171;Kode&#187;</text><text fill="#000000" font-family="sans-serif" font-size="14" lengthAdjust="spacing" textLength="99.9141" x="64.4023" y="407.998">Dokumenttype</text><line style="stroke:#181818;stroke-width:0.5;" x1="8" x2="189.5547" y1="415.9511" y2="415.9511"/><ellipse cx="18" cy="429.6952" fill="none" rx="3" ry="3" style="stroke:#038048;stroke-width:1;"/><text fill="#000000" font-family="sans-serif" font-size="14" lengthAdjust="spacing" textLength="115.4521" x="27" y="433.4863">kodeverdi: string</text><ellipse cx="18" cy="446.1835" fill="none" rx="3" ry="3" style="stroke:#038048;stroke-width:1;"/><text fill="#000000" font-family="sans-serif" font-size="14" lengthAdjust="spacing" textLength="157.5547" x="27" y="449.9745">kodebeskrivelse: string</text><line style="stroke:#181818;stroke-width:0.5;" x1="8" x2="189.5547" y1="456.9277" y2="456.9277"/></g><!--class ReferanseDokumentfil--><g class="entity" data-entity="ReferanseDokumentfil" data-source-line="11" data-uid="ent0005" id="entity_ReferanseDokumentfil"><rect fill="#F1F1F1" height="80.9766" rx="2.5" ry="2.5" style="stroke:#181818;stroke-width:0.5;" width="182.6777" x="225.44" y="379.64"/><ellipse cx="240.44" cy="395.64" fill="#ADD1B2" rx="11" ry="11" style="stroke:#181818;stroke-width:1;"/><path d="M242.9131,401.7831 Q242.3321,402.0819 241.6929,402.2313 Q241.0538,402.3807 240.3482,402.3807 Q237.8414,402.3807 236.5215,400.7289 Q235.2017,399.077 235.2017,395.9559 Q235.2017,392.8265 236.5215,391.1747 Q237.8414,389.5228 240.3482,389.5228 Q241.0538,389.5228 241.7012,389.6722 Q242.3487,389.8216 242.9131,390.1205 L242.9131,392.8431 Q242.2823,392.2621 241.6888,391.9923 Q241.0953,391.7225 240.4644,391.7225 Q239.1197,391.7225 238.4349,392.7892 Q237.7501,393.8558 237.7501,395.9559 Q237.7501,398.0477 238.4349,399.1144 Q239.1197,400.181 240.4644,400.181 Q241.0953,400.181 241.6888,399.9112 Q242.2823,399.6415 242.9131,399.0604 Z " fill="#000000"/><text fill="#000000" font-family="sans-serif" font-size="14" lengthAdjust="spacing" textLength="150.6777" x="254.44" y="400.931">ReferanseDokumentfil</text><line style="stroke:#181818;stroke-width:0.5;" x1="226.44" x2="407.1177" y1="411.64" y2="411.64"/><ellipse cx="236.44" cy="425.3841" fill="none" rx="3" ry="3" style="stroke:#038048;stroke-width:1;"/><text fill="#000000" font-family="sans-serif" font-size="14" lengthAdjust="spacing" textLength="61.2842" x="245.44" y="429.1752">id: string</text><ellipse cx="236.44" cy="441.8724" fill="none" rx="3" ry="3" style="stroke:#038048;stroke-width:1;"/><text fill="#000000" font-family="sans-serif" font-size="14" lengthAdjust="spacing" textLength="66.8896" x="245.44" y="445.6634">url: string</text><line style="stroke:#181818;stroke-width:0.5;" x1="226.44" x2="407.1177" y1="452.6166" y2="452.6166"/></g><!--class NasjonalArealplanId--><g class="entity" data-entity="NasjonalArealplanId" data-source-line="1" data-uid="ent0007" id="entity_NasjonalArealplanId"><rect fill="#F1F1F1" height="80.9766" rx="2.5" ry="2.5" style="stroke:#181818;stroke-width:0.5;" width="290.3047" x="448.62" y="197.44"/><ellipse cx="521.7098" cy="213.44" fill="#ADD1B2" rx="11" ry="11" style="stroke:#181818;stroke-width:1;"/><path d="M524.183,219.5831 Q523.6019,219.8819 522.9628,220.0313 Q522.3236,220.1807 521.618,220.1807 Q519.1112,220.1807 517.7914,218.5289 Q516.4716,216.877 516.4716,213.7559 Q516.4716,210.6265 517.7914,208.9747 Q519.1112,207.3228 521.618,207.3228 Q522.3236,207.3228 522.9711,207.4722 Q523.6185,207.6216 524.183,207.9205 L524.183,210.6431 Q523.5521,210.0621 522.9586,209.7923 Q522.3651,209.5225 521.7343,209.5225 Q520.3895,209.5225 519.7047,210.5892 Q519.0199,211.6558 519.0199,213.7559 Q519.0199,215.8477 519.7047,216.9144 Q520.3895,217.981 521.7343,217.981 Q522.3651,217.981 522.9586,217.7112 Q523.5521,217.4415 524.183,216.8604 Z " fill="#000000"/><text fill="#000000" font-family="sans-serif" font-size="14" lengthAdjust="spacing" textLength="135.625" x="542.2098" y="218.731">NasjonalArealplanId</text><line style="stroke:#181818;stroke-width:0.5;" x1="449.62" x2="737.9247" y1="229.44" y2="229.44"/><ellipse cx="459.62" cy="243.1841" fill="none" rx="3" ry="3" style="stroke:#038048;stroke-width:1;"/><text fill="#000000" font-family="sans-serif" font-size="14" lengthAdjust="spacing" textLength="264.3047" x="468.62" y="246.9752">administrativEnhet: AdministrativEnhet</text><ellipse cx="459.62" cy="259.6724" fill="none" rx="3" ry="3" style="stroke:#038048;stroke-width:1;"/><text fill="#000000" font-family="sans-serif" font-size="14" lengthAdjust="spacing" textLength="170.126" x="468.62" y="263.4634">planidentifikasjon: string</text><line style="stroke:#181818;stroke-width:0.5;" x1="449.62" x2="737.9247" y1="270.4166" y2="270.4166"/></g><!--class AdministrativEnhet--><g class="entity" data-entity="AdministrativEnhet" data-source-line="6" data-uid="ent0008" id="entity_AdministrativEnhet"><rect fill="#F1F1F1" height="97.4648" rx="2.5" ry="2.5" style="stroke:#181818;stroke-width:0.5;" width="160.6865" x="513.43" y="371.4"/><ellipse cx="528.43" cy="387.4" fill="#EB937F" rx="11" ry="11" style="stroke:#181818;stroke-width:1;"/><path d="M532.0443,393.9 L524.3245,393.9 L524.3245,381.5069 L532.0443,381.5069 L532.0443,383.6651 L526.7733,383.6651 L526.7733,386.338 L531.5462,386.338 L531.5462,388.4962 L526.7733,388.4962 L526.7733,391.7418 L532.0443,391.7418 Z " fill="#000000"/><text fill="#000000" font-family="sans-serif" font-size="14" lengthAdjust="spacing" textLength="128.6865" x="542.43" y="392.691">AdministrativEnhet</text><line style="stroke:#181818;stroke-width:0.5;" x1="514.43" x2="673.1165" y1="403.4" y2="403.4"/><text fill="#000000" font-family="sans-serif" font-size="14" lengthAdjust="spacing" textLength="125.1455" x="519.43" y="420.9352">kommunenummer</text><text fill="#000000" font-family="sans-serif" font-size="14" lengthAdjust="spacing" textLength="96.6738" x="519.43" y="437.4234">fylkesnummer</text><text fill="#000000" font-family="sans-serif" font-size="14" lengthAdjust="spacing" textLength="69.8086" x="519.43" y="453.9117">landskode</text><line style="stroke:#181818;stroke-width:0.5;" x1="514.43" x2="673.1165" y1="460.8648" y2="460.8648"/></g><!--class RegistrerPlanforslag--><g class="entity" data-entity="RegistrerPlanforslag" data-source-line="4" data-uid="ent0010" id="entity_RegistrerPlanforslag"><rect fill="#F1F1F1" height="97.4648" rx="2.5" ry="2.5" style="stroke:#181818;stroke-width:0.5;" width="304.4551" x="396.55" y="7"/><ellipse cx="476.3356" cy="23" fill="#ADD1B2" rx="11" ry="11" style="stroke:#181818;stroke-width:1;"/><path d="M478.8088,29.1431 Q478.2277,29.4419 477.5886,29.5913 Q476.9494,29.7407 476.2438,29.7407 Q473.737,29.7407 472.4172,28.0889 Q471.0974,26.437 471.0974,23.3159 Q471.0974,20.1865 472.4172,18.5347 Q473.737,16.8828 476.2438,16.8828 Q476.9494,16.8828 477.5969,17.0322 Q478.2443,17.1816 478.8088,17.4805 L478.8088,20.2031 Q478.1779,19.6221 477.5844,19.3523 Q476.9909,19.0825 476.3601,19.0825 Q475.0153,19.0825 474.3305,20.1492 Q473.6457,21.2158 473.6457,23.3159 Q473.6457,25.4077 474.3305,26.4744 Q475.0153,27.541 476.3601,27.541 Q476.9909,27.541 477.5844,27.2712 Q478.1779,27.0015 478.8088,26.4204 Z " fill="#000000"/><text fill="#000000" font-family="sans-serif" font-size="14" lengthAdjust="spacing" textLength="136.3838" x="496.8356" y="28.291">RegistrerPlanforslag</text><line style="stroke:#181818;stroke-width:0.5;" x1="397.55" x2="700.0051" y1="39" y2="39"/><ellipse cx="407.55" cy="52.7441" fill="none" rx="3" ry="3" style="stroke:#038048;stroke-width:1;"/><text fill="#000000" font-family="sans-serif" font-size="14" lengthAdjust="spacing" textLength="278.4551" x="416.55" y="56.5352">nasjonalArealplanId: NasjonalArealplanId</text><ellipse cx="407.55" cy="69.2324" fill="none" rx="3" ry="3" style="stroke:#038048;stroke-width:1;"/><text fill="#000000" font-family="sans-serif" font-size="14" lengthAdjust="spacing" textLength="200.6006" x="416.55" y="73.0234">plandokumenter: Dokument[]</text><ellipse cx="407.55" cy="85.7207" fill="none" rx="3" ry="3" style="stroke:#038048;stroke-width:1;"/><text fill="#000000" font-family="sans-serif" font-size="14" lengthAdjust="spacing" textLength="137.7715" x="416.55" y="89.5117">alternativ: Alternativ</text><line style="stroke:#181818;stroke-width:0.5;" x1="397.55" x2="700.0051" y1="96.4648" y2="96.4648"/></g><!--class Alternativ--><g class="entity" data-entity="Alternativ" data-source-line="10" data-uid="ent0011" id="entity_Alternativ"><rect fill="#F1F1F1" height="97.4648" rx="2.5" ry="2.5" style="stroke:#181818;stroke-width:0.5;" width="97.4199" x="862.07" y="189.2"/><ellipse cx="877.07" cy="205.2" fill="#ADD1B2" rx="11" ry="11" style="stroke:#181818;stroke-width:1;"/><path d="M879.5431,211.3431 Q878.9621,211.6419 878.3229,211.7913 Q877.6838,211.9407 876.9782,211.9407 Q874.4714,211.9407 873.1515,210.2889 Q871.8317,208.637 871.8317,205.5159 Q871.8317,202.3865 873.1515,200.7347 Q874.4714,199.0828 876.9782,199.0828 Q877.6838,199.0828 878.3312,199.2322 Q878.9787,199.3816 879.5431,199.6805 L879.5431,202.4031 Q878.9123,201.8221 878.3188,201.5523 Q877.7253,201.2825 877.0944,201.2825 Q875.7497,201.2825 875.0649,202.3492 Q874.3801,203.4158 874.3801,205.5159 Q874.3801,207.6077 875.0649,208.6744 Q875.7497,209.741 877.0944,209.741 Q877.7253,209.741 878.3188,209.4712 Q878.9123,209.2015 879.5431,208.6204 Z " fill="#000000"/><text fill="#000000" font-family="sans-serif" font-size="14" lengthAdjust="spacing" textLength="65.4199" x="891.07" y="210.491">Alternativ</text><line style="stroke:#181818;stroke-width:0.5;" x1="863.07" x2="958.4899" y1="221.2" y2="221.2"/><text fill="#000000" font-family="sans-serif" font-size="14" lengthAdjust="spacing" textLength="80.7803" x="868.07" y="238.7352">navn: string</text><text fill="#000000" font-family="sans-serif" font-size="14" lengthAdjust="spacing" textLength="61.2842" x="868.07" y="255.2234">id: string</text><text fill="#000000" font-family="sans-serif" font-size="14" lengthAdjust="spacing" textLength="76.2891" x="868.07" y="271.7117">versjon: int</text><line style="stroke:#181818;stroke-width:0.5;" x1="863.07" x2="958.4899" y1="278.6648" y2="278.6648"/></g><g class="entity" data-entity="GMN12" data-source-line="17" data-uid="ent0013" id="entity_GMN12"><path d="M736.46,20.11 L736.46,91.3522 A0,0 0 0 0 736.46,91.3522 L942.29,91.3522 L922.48,189.01 L950.29,91.3522 L1173.1045,91.3522 A0,0 0 0 0 1173.1045,91.3522 L1173.1045,30.11 L1163.1045,20.11 L736.46,20.11 A0,0 0 0 0 736.46,20.11" fill="#FEFFDD" style="stroke:#181818;stroke-width:0.5;"/><path d="M1163.1045,20.11 L1163.1045,30.11 L1173.1045,30.11 L1163.1045,20.11" fill="#FEFFDD" style="stroke:#181818;stroke-width:0.5;"/><text fill="#000000" font-family="sans-serif" font-size="13" lengthAdjust="spacing" textLength="331.2651" x="742.46" y="37.6784">Vi har ikke Alternativ som noen entitet andre steder.</text><text fill="#000000" font-family="sans-serif" font-size="13" lengthAdjust="spacing" textLength="415.6445" x="742.46" y="52.9889">Bortsett fra "alternativFinnes" som boolean for Arealplan objektet.</text><text fill="#000000" font-family="sans-serif" font-size="13" lengthAdjust="spacing" textLength="365.9487" x="742.46" y="68.2995">Burde det v&#230;re noe man registrerer andre steder enn her?</text><text fill="#000000" font-family="sans-serif" font-size="13" lengthAdjust="spacing" textLength="336.1211" x="742.46" y="83.61">B&#248;r det ha en id som man f&#229;r tilbake fra Planregister?</text></g><!--link Dokument to Dokumenttype--><g class="link" data-entity-1="Dokument" data-entity-2="Dokumenttype" data-source-line="10" data-uid="lnk4" id="link_Dokument_Dokumenttype"><path codeLine="10" d="M187.01,311.7 C169.44,333.1 150.76,355.84 135.13,374.87" fill="none" id="Dokument-Dokumenttype" style="stroke:#181818;stroke-width:1;"/></g><!--link Dokument to ReferanseDokumentfil--><g class="link" data-entity-1="Dokument" data-entity-2="ReferanseDokumentfil" data-source-line="11" data-uid="lnk6" id="link_Dokument_ReferanseDokumentfil"><path codeLine="11" d="M275.05,311.7 C284,334.76 293.57,359.38 301.28,379.23" fill="none" id="Dokument-ReferanseDokumentfil" style="stroke:#181818;stroke-width:1;"/></g><!--link NasjonalArealplanId to AdministrativEnhet--><g class="link" data-entity-1="NasjonalArealplanId" data-entity-2="AdministrativEnhet" data-source-line="6" data-uid="lnk9" id="link_NasjonalArealplanId_AdministrativEnhet"><path codeLine="6" d="M593.78,278.48 C593.78,305.72 593.78,342.09 593.78,371.02" fill="none" id="NasjonalArealplanId-AdministrativEnhet" style="stroke:#181818;stroke-width:1;"/></g><!--link RegistrerPlanforslag to NasjonalArealplanId--><g class="link" data-entity-1="RegistrerPlanforslag" data-entity-2="NasjonalArealplanId" data-source-line="23" data-uid="lnk15" id="link_RegistrerPlanforslag_NasjonalArealplanId"><path codeLine="23" d="M560.72,104.55 C567.93,133.43 577.02,169.81 583.84,197.12" fill="none" id="RegistrerPlanforslag-NasjonalArealplanId" style="stroke:#181818;stroke-width:1;"/></g><!--link RegistrerPlanforslag to Dokument--><g class="link" data-entity-1="RegistrerPlanforslag" data-entity-2="Dokument" data-source-line="24" data-uid="lnk16" id="link_RegistrerPlanforslag_Dokument"><path codeLine="24" d="M468.24,104.79 C437.75,122.98 402.32,144.12 368.86,164.09" fill="none" id="RegistrerPlanforslag-Dokument" style="stroke:#181818;stroke-width:1;"/></g><!--link RegistrerPlanforslag to Alternativ--><g class="link" data-entity-1="RegistrerPlanforslag" data-entity-2="Alternativ" data-source-line="25" data-uid="lnk17" id="link_RegistrerPlanforslag_Alternativ"><path codeLine="25" d="M645.31,104.79 C715.06,139.5 806.37,184.96 861.7,212.5" fill="none" id="RegistrerPlanforslag-Alternativ" style="stroke:#181818;stroke-width:1;"/></g><!--SRC=[ZL6xJiD04Epz5PkqA6U9qWqAGaWq257G88fDRfqSlkn5UnStYC-1Rw3FZx5dntc8HCA5jRUFcTcTaUEvtrW2KnfJSZ1DDBNJtzeZc_RQrEGzHMD3iraHft88p7fJZFuvp1ZV0wD78VIvvcnv9fSXYxd76E6P5Yuc8NdIIXqaUbp0Hm7wNGsJqs7omLRm-3VPT-Tuq4nImTqkVdthw-WrpPXSMy5q7nUVWv93RiVFs785AixneaiuU_9iIRAK2Xod3CCX4QImXb0VWtMzBmwMAE2QXevhCQo00p6eJfSeWQuWf2HaIKm_UXiaHKe9Qa4O7xQuTymKnnt6B0HFoA07XFrX8CpUgL5Kq-DiH0sqIj9klvL4UM6bNJ8uG792hveObYGtEndR7-ccbwWLlKL7d07gxPT0Sdw6kbmMcQtiKRjfOWlvDaLnrkp9vAodbte7Moys77dx2m00]--></g></svg>