<svg xmlns="http://www.w3.org/2000/svg" xmlns:xlink="http://www.w3.org/1999/xlink" contentStyleType="text/css" height="459px" preserveAspectRatio="none" style="width:749px;height:459px;background:#FFFFFF;" version="1.1" viewBox="0 0 749 459" width="749px" zoomAndPan="magnify"><defs/><g><!--class Dokument--><g id="elem_Dokument"><rect codeLine="1" fill="#F1F1F1" height="146.9297" id="Dokument" rx="2.5" ry="2.5" style="stroke:#181818;stroke-width:0.5;" width="335" x="79.5" y="147.98"/><ellipse cx="207.25" cy="163.98" fill="#ADD1B2" rx="11" ry="11" style="stroke:#181818;stroke-width:1.0;"/><path d="M209.7231,170.1231 Q209.1421,170.4219 208.5029,170.5713 Q207.8638,170.7207 207.1582,170.7207 Q204.6514,170.7207 203.3315,169.0689 Q202.0117,167.417 202.0117,164.2959 Q202.0117,161.1665 203.3315,159.5147 Q204.6514,157.8628 207.1582,157.8628 Q207.8638,157.8628 208.5112,158.0122 Q209.1587,158.1616 209.7231,158.4605 L209.7231,161.1831 Q209.0923,160.6021 208.4988,160.3323 Q207.9053,160.0625 207.2744,160.0625 Q205.9297,160.0625 205.2449,161.1292 Q204.5601,162.1958 204.5601,164.2959 Q204.5601,166.3877 205.2449,167.4544 Q205.9297,168.521 207.2744,168.521 Q207.9053,168.521 208.4988,168.2512 Q209.0923,167.9815 209.7231,167.4004 Z " fill="#000000"/><text fill="#000000" font-family="sans-serif" font-size="14" lengthAdjust="spacing" textLength="71" x="227.75" y="169.271">Dokument</text><line style="stroke:#181818;stroke-width:0.5;" x1="80.5" x2="413.5" y1="179.98" y2="179.98"/><ellipse cx="90.5" cy="193.7241" fill="none" rx="3" ry="3" style="stroke:#038048;stroke-width:1.0;"/><text fill="#000000" font-family="sans-serif" font-size="14" lengthAdjust="spacing" textLength="79" x="99.5" y="197.5152">tittel: string</text><ellipse cx="90.5" cy="210.2124" fill="none" rx="3" ry="3" style="stroke:#038048;stroke-width:1.0;"/><text fill="#000000" font-family="sans-serif" font-size="14" lengthAdjust="spacing" textLength="207" x="99.5" y="214.0034">dokumenttype: Dokumenttype</text><ellipse cx="90.5" cy="226.7007" fill="none" rx="3" ry="3" style="stroke:#038048;stroke-width:1.0;"/><text fill="#000000" font-family="sans-serif" font-size="14" lengthAdjust="spacing" textLength="309" x="99.5" y="230.4917">referanseDokumentfil: ReferanseDokumentfil</text><ellipse cx="90.5" cy="243.189" fill="none" rx="3" ry="3" style="stroke:#038048;stroke-width:1.0;"/><text fill="#000000" font-family="sans-serif" font-size="14" lengthAdjust="spacing" textLength="115" x="99.5" y="246.98">mimetype: string</text><ellipse cx="90.5" cy="259.6773" fill="none" rx="3" ry="3" style="stroke:#038048;stroke-width:1.0;"/><text fill="#000000" font-family="sans-serif" font-size="14" lengthAdjust="spacing" textLength="146" x="99.5" y="263.4683">dokumentsdato: date</text><ellipse cx="90.5" cy="276.1655" fill="none" rx="3" ry="3" style="stroke:#038048;stroke-width:1.0;"/><text fill="#000000" font-family="sans-serif" font-size="14" lengthAdjust="spacing" textLength="114" x="99.5" y="279.9566">arkivnavn: string</text><line style="stroke:#181818;stroke-width:0.5;" x1="80.5" x2="413.5" y1="286.9097" y2="286.9097"/></g><!--class Dokumenttype--><g id="elem_Dokumenttype"><rect codeLine="13" fill="#F1F1F1" height="89.5977" id="Dokumenttype" rx="2.5" ry="2.5" style="stroke:#181818;stroke-width:0.5;" width="184" x="7" y="358.84"/><ellipse cx="45.4" cy="379.1505" fill="#ADD1B2" rx="11" ry="11" style="stroke:#181818;stroke-width:1.0;"/><path d="M47.8731,385.2936 Q47.2921,385.5924 46.6529,385.7419 Q46.0138,385.8913 45.3082,385.8913 Q42.8014,385.8913 41.4815,384.2394 Q40.1617,382.5876 40.1617,379.4665 Q40.1617,376.3371 41.4815,374.6852 Q42.8014,373.0334 45.3082,373.0334 Q46.0138,373.0334 46.6612,373.1828 Q47.3087,373.3322 47.8731,373.631 L47.8731,376.3537 Q47.2423,375.7726 46.6488,375.5028 Q46.0553,375.2331 45.4244,375.2331 Q44.0797,375.2331 43.3949,376.2997 Q42.7101,377.3664 42.7101,379.4665 Q42.7101,381.5583 43.3949,382.6249 Q44.0797,383.6916 45.4244,383.6916 Q46.0553,383.6916 46.6488,383.4218 Q47.2423,383.152 47.8731,382.571 Z " fill="#000000"/><text fill="#000000" font-family="sans-serif" font-size="12" font-style="italic" lengthAdjust="spacing" textLength="42" x="93.6" y="375.4416">&#171;Kode&#187;</text><text fill="#000000" font-family="sans-serif" font-size="14" lengthAdjust="spacing" textLength="100" x="64.6" y="391.508">Dokumenttype</text><line style="stroke:#181818;stroke-width:0.5;" x1="8" x2="190" y1="399.4611" y2="399.4611"/><ellipse cx="18" cy="413.2052" fill="none" rx="3" ry="3" style="stroke:#038048;stroke-width:1.0;"/><text fill="#000000" font-family="sans-serif" font-size="14" lengthAdjust="spacing" textLength="116" x="27" y="416.9963">kodeverdi: string</text><ellipse cx="18" cy="429.6935" fill="none" rx="3" ry="3" style="stroke:#038048;stroke-width:1.0;"/><text fill="#000000" font-family="sans-serif" font-size="14" lengthAdjust="spacing" textLength="158" x="27" y="433.4845">kodebeskrivelse: string</text><line style="stroke:#181818;stroke-width:0.5;" x1="8" x2="190" y1="440.4377" y2="440.4377"/></g><!--class ReferanseDokumentfil--><g id="elem_ReferanseDokumentfil"><rect codeLine="18" fill="#F1F1F1" height="80.9766" id="ReferanseDokumentfil" rx="2.5" ry="2.5" style="stroke:#181818;stroke-width:0.5;" width="184" x="226" y="363.15"/><ellipse cx="241" cy="379.15" fill="#ADD1B2" rx="11" ry="11" style="stroke:#181818;stroke-width:1.0;"/><path d="M243.4731,385.2931 Q242.8921,385.5919 242.2529,385.7413 Q241.6138,385.8907 240.9082,385.8907 Q238.4014,385.8907 237.0815,384.2389 Q235.7617,382.587 235.7617,379.4659 Q235.7617,376.3365 237.0815,374.6847 Q238.4014,373.0328 240.9082,373.0328 Q241.6138,373.0328 242.2612,373.1822 Q242.9087,373.3316 243.4731,373.6305 L243.4731,376.3531 Q242.8423,375.7721 242.2488,375.5023 Q241.6553,375.2325 241.0244,375.2325 Q239.6797,375.2325 238.9949,376.2992 Q238.3101,377.3658 238.3101,379.4659 Q238.3101,381.5577 238.9949,382.6244 Q239.6797,383.691 241.0244,383.691 Q241.6553,383.691 242.2488,383.4212 Q242.8423,383.1515 243.4731,382.5704 Z " fill="#000000"/><text fill="#000000" font-family="sans-serif" font-size="14" lengthAdjust="spacing" textLength="152" x="255" y="384.441">ReferanseDokumentfil</text><line style="stroke:#181818;stroke-width:0.5;" x1="227" x2="409" y1="395.15" y2="395.15"/><ellipse cx="237" cy="408.8941" fill="none" rx="3" ry="3" style="stroke:#038048;stroke-width:1.0;"/><text fill="#000000" font-family="sans-serif" font-size="14" lengthAdjust="spacing" textLength="61" x="246" y="412.6852">id: string</text><ellipse cx="237" cy="425.3824" fill="none" rx="3" ry="3" style="stroke:#038048;stroke-width:1.0;"/><text fill="#000000" font-family="sans-serif" font-size="14" lengthAdjust="spacing" textLength="67" x="246" y="429.1734">url: string</text><line style="stroke:#181818;stroke-width:0.5;" x1="227" x2="409" y1="436.1266" y2="436.1266"/></g><!--class NasjonalArealplanId--><g id="elem_NasjonalArealplanId"><rect codeLine="1" fill="#F1F1F1" height="80.9766" id="NasjonalArealplanId" rx="2.5" ry="2.5" style="stroke:#181818;stroke-width:0.5;" width="292" x="450" y="180.95"/><ellipse cx="522.75" cy="196.95" fill="#ADD1B2" rx="11" ry="11" style="stroke:#181818;stroke-width:1.0;"/><path d="M525.2231,203.0931 Q524.6421,203.3919 524.0029,203.5413 Q523.3638,203.6907 522.6582,203.6907 Q520.1514,203.6907 518.8315,202.0389 Q517.5117,200.387 517.5117,197.2659 Q517.5117,194.1365 518.8315,192.4847 Q520.1514,190.8328 522.6582,190.8328 Q523.3638,190.8328 524.0112,190.9822 Q524.6587,191.1316 525.2231,191.4305 L525.2231,194.1531 Q524.5923,193.5721 523.9988,193.3023 Q523.4053,193.0325 522.7744,193.0325 Q521.4297,193.0325 520.7449,194.0992 Q520.0601,195.1658 520.0601,197.2659 Q520.0601,199.3577 520.7449,200.4244 Q521.4297,201.491 522.7744,201.491 Q523.4053,201.491 523.9988,201.2212 Q524.5923,200.9515 525.2231,200.3704 Z " fill="#000000"/><text fill="#000000" font-family="sans-serif" font-size="14" lengthAdjust="spacing" textLength="138" x="543.25" y="202.241">NasjonalArealplanId</text><line style="stroke:#181818;stroke-width:0.5;" x1="451" x2="741" y1="212.95" y2="212.95"/><ellipse cx="461" cy="226.6941" fill="none" rx="3" ry="3" style="stroke:#038048;stroke-width:1.0;"/><text fill="#000000" font-family="sans-serif" font-size="14" lengthAdjust="spacing" textLength="266" x="470" y="230.4852">administrativEnhet: AdministrativEnhet</text><ellipse cx="461" cy="243.1824" fill="none" rx="3" ry="3" style="stroke:#038048;stroke-width:1.0;"/><text fill="#000000" font-family="sans-serif" font-size="14" lengthAdjust="spacing" textLength="171" x="470" y="246.9734">planidentifikasjon: string</text><line style="stroke:#181818;stroke-width:0.5;" x1="451" x2="741" y1="253.9266" y2="253.9266"/></g><!--class AdministrativEnhet--><g id="elem_AdministrativEnhet"><rect codeLine="8" fill="#F1F1F1" height="97.4648" id="AdministrativEnhet" rx="2.5" ry="2.5" style="stroke:#181818;stroke-width:0.5;" width="162" x="515" y="354.91"/><ellipse cx="530" cy="370.91" fill="#EB937F" rx="11" ry="11" style="stroke:#181818;stroke-width:1.0;"/><path d="M533.6143,377.41 L525.8945,377.41 L525.8945,365.0169 L533.6143,365.0169 L533.6143,367.1751 L528.3433,367.1751 L528.3433,369.848 L533.1162,369.848 L533.1162,372.0062 L528.3433,372.0062 L528.3433,375.2518 L533.6143,375.2518 Z " fill="#000000"/><text fill="#000000" font-family="sans-serif" font-size="14" lengthAdjust="spacing" textLength="130" x="544" y="376.201">AdministrativEnhet</text><line style="stroke:#181818;stroke-width:0.5;" x1="516" x2="676" y1="386.91" y2="386.91"/><text fill="#000000" font-family="sans-serif" font-size="14" lengthAdjust="spacing" textLength="127" x="521" y="404.4452">kommunenummer</text><text fill="#000000" font-family="sans-serif" font-size="14" lengthAdjust="spacing" textLength="97" x="521" y="420.9334">fylkesnummer</text><text fill="#000000" font-family="sans-serif" font-size="14" lengthAdjust="spacing" textLength="71" x="521" y="437.4217">landskode</text><line style="stroke:#181818;stroke-width:0.5;" x1="516" x2="676" y1="444.3748" y2="444.3748"/></g><!--class RegistrerGjeldendePlandokumenter--><g id="elem_RegistrerGjeldendePlandokumenter"><rect codeLine="4" fill="#F1F1F1" height="80.9766" id="RegistrerGjeldendePlandokumenter" rx="2.5" ry="2.5" style="stroke:#181818;stroke-width:0.5;" width="309" x="266.5" y="7"/><ellipse cx="296.35" cy="23" fill="#ADD1B2" rx="11" ry="11" style="stroke:#181818;stroke-width:1.0;"/><path d="M298.8231,29.1431 Q298.2421,29.4419 297.6029,29.5913 Q296.9638,29.7407 296.2582,29.7407 Q293.7514,29.7407 292.4315,28.0889 Q291.1117,26.437 291.1117,23.3159 Q291.1117,20.1865 292.4315,18.5347 Q293.7514,16.8828 296.2582,16.8828 Q296.9638,16.8828 297.6112,17.0322 Q298.2587,17.1816 298.8231,17.4805 L298.8231,20.2031 Q298.1923,19.6221 297.5988,19.3523 Q297.0053,19.0825 296.3744,19.0825 Q295.0297,19.0825 294.3449,20.1492 Q293.6601,21.2158 293.6601,23.3159 Q293.6601,25.4077 294.3449,26.4744 Q295.0297,27.541 296.3744,27.541 Q297.0053,27.541 297.5988,27.2712 Q298.1923,27.0015 298.8231,26.4204 Z " fill="#000000"/><text fill="#000000" font-family="sans-serif" font-size="14" lengthAdjust="spacing" textLength="244" x="313.65" y="28.291">RegistrerGjeldendePlandokumenter</text><line style="stroke:#181818;stroke-width:0.5;" x1="267.5" x2="574.5" y1="39" y2="39"/><ellipse cx="277.5" cy="52.7441" fill="none" rx="3" ry="3" style="stroke:#038048;stroke-width:1.0;"/><text fill="#000000" font-family="sans-serif" font-size="14" lengthAdjust="spacing" textLength="283" x="286.5" y="56.5352">nasjonalArealplanId: NasjonalArealplanId</text><ellipse cx="277.5" cy="69.2324" fill="none" rx="3" ry="3" style="stroke:#038048;stroke-width:1.0;"/><text fill="#000000" font-family="sans-serif" font-size="14" lengthAdjust="spacing" textLength="203" x="286.5" y="73.0234">plandokumenter: Dokument[]</text><line style="stroke:#181818;stroke-width:0.5;" x1="267.5" x2="574.5" y1="79.9766" y2="79.9766"/></g><!--link Dokument to Dokumenttype--><g id="link_Dokument_Dokumenttype"><path codeLine="10" d="M187.23,295.21 C169.66,316.61 150.98,339.35 135.35,358.38 " fill="none" id="Dokument-Dokumenttype" style="stroke:#181818;stroke-width:1.0;"/></g><!--link Dokument to ReferanseDokumentfil--><g id="link_Dokument_ReferanseDokumentfil"><path codeLine="11" d="M275.67,295.21 C284.76,318.27 294.46,342.89 302.28,362.74 " fill="none" id="Dokument-ReferanseDokumentfil" style="stroke:#181818;stroke-width:1.0;"/></g><!--link NasjonalArealplanId to AdministrativEnhet--><g id="link_NasjonalArealplanId_AdministrativEnhet"><path codeLine="6" d="M596,261.99 C596,289.23 596,325.6 596,354.53 " fill="none" id="NasjonalArealplanId-AdministrativEnhet" style="stroke:#181818;stroke-width:1.0;"/></g><!--link RegistrerGjeldendePlandokumenter to NasjonalArealplanId--><g id="link_RegistrerGjeldendePlandokumenter_NasjonalArealplanId"><path codeLine="9" d="M461.59,88.37 C489.76,116.05 527.14,152.78 555.33,180.48 " fill="none" id="RegistrerGjeldendePlandokumenter-NasjonalArealplanId" style="stroke:#181818;stroke-width:1.0;"/></g><!--link RegistrerGjeldendePlandokumenter to Dokument--><g id="link_RegistrerGjeldendePlandokumenter_Dokument"><path codeLine="10" d="M380.64,88.37 C362.77,106.03 341.18,127.37 320.6,147.7 " fill="none" id="RegistrerGjeldendePlandokumenter-Dokument" style="stroke:#181818;stroke-width:1.0;"/></g><!--SRC=[ZOqn2y8m48Nt-nNfBBs0OpT141SHLt48pLNIdfUID2xYVxT5CuW5UyDnl7llUuMJcfCbXHfHYySkOkF6rRCHlA-n8MQAQ7sNRYI3pWVs2Og5OJ6nzMBO138y_PpLCzg4X9fDZEf4LnU7G67N4biIIyVHahifg0UeSLQPiicKlQtKuLTyk_ilHgMsd_jyWIV0tywod4KloUKcU040]--></g></svg>