<?xml version="1.0" encoding="us-ascii" standalone="no"?><svg xmlns="http://www.w3.org/2000/svg" xmlns:xlink="http://www.w3.org/1999/xlink" contentStyleType="text/css" height="186px" preserveAspectRatio="none" style="width:799px;height:186px;background:#FFFFFF;" version="1.1" viewBox="0 0 799 186" width="799px" zoomAndPan="magnify"><defs/><g><!--class HentGjeldendePlandokumenterResultat--><g id="elem_HentGjeldendePlandokumenterResultat"><rect codeLine="2" fill="#F1F1F1" height="64.4883" id="HentGjeldendePlandokumenterResultat" rx="2.5" ry="2.5" style="stroke:#181818;stroke-width:0.5;" width="301" x="7" y="7"/><ellipse cx="22" cy="23" fill="#ADD1B2" rx="11" ry="11" style="stroke:#181818;stroke-width:1.0;"/><path d="M24.4731,29.1431 Q23.8921,29.4419 23.2529,29.5913 Q22.6138,29.7407 21.9082,29.7407 Q19.4014,29.7407 18.0815,28.0889 Q16.7617,26.437 16.7617,23.3159 Q16.7617,20.1865 18.0815,18.5347 Q19.4014,16.8828 21.9082,16.8828 Q22.6138,16.8828 23.2612,17.0322 Q23.9087,17.1816 24.4731,17.4805 L24.4731,20.2031 Q23.8423,19.6221 23.2488,19.3523 Q22.6553,19.0825 22.0244,19.0825 Q20.6797,19.0825 19.9949,20.1492 Q19.3101,21.2158 19.3101,23.3159 Q19.3101,25.4077 19.9949,26.4744 Q20.6797,27.541 22.0244,27.541 Q22.6553,27.541 23.2488,27.2712 Q23.8423,27.0015 24.4731,26.4204 Z " fill="#000000"/><text fill="#000000" font-family="sans-serif" font-size="14" lengthAdjust="spacing" textLength="269" x="36" y="28.291">HentGjeldendePlandokumenterResultat</text><line style="stroke:#181818;stroke-width:0.5;" x1="8" x2="307" y1="39" y2="39"/><ellipse cx="18" cy="52.7441" fill="none" rx="3" ry="3" style="stroke:#038048;stroke-width:1.0;"/><text fill="#000000" font-family="sans-serif" font-size="14" lengthAdjust="spacing" textLength="203" x="27" y="56.5352">plandokumenter: Dokument[]</text><line style="stroke:#181818;stroke-width:0.5;" x1="8" x2="307" y1="63.4883" y2="63.4883"/></g><!--class Dokument--><g id="elem_Dokument"><rect fill="#F1F1F1" height="48" id="Dokument" rx="2.5" ry="2.5" style="stroke:#181818;stroke-width:0.5;" width="103" x="311" y="131.49"/><ellipse cx="326" cy="147.49" fill="#ADD1B2" rx="11" ry="11" style="stroke:#181818;stroke-width:1.0;"/><path d="M328.4731,153.6331 Q327.8921,153.9319 327.2529,154.0813 Q326.6138,154.2307 325.9082,154.2307 Q323.4014,154.2307 322.0815,152.5789 Q320.7617,150.927 320.7617,147.8059 Q320.7617,144.6765 322.0815,143.0247 Q323.4014,141.3728 325.9082,141.3728 Q326.6138,141.3728 327.2612,141.5222 Q327.9087,141.6716 328.4731,141.9705 L328.4731,144.6931 Q327.8423,144.1121 327.2488,143.8423 Q326.6553,143.5725 326.0244,143.5725 Q324.6797,143.5725 323.9949,144.6392 Q323.3101,145.7058 323.3101,147.8059 Q323.3101,149.8977 323.9949,150.9644 Q324.6797,152.031 326.0244,152.031 Q326.6553,152.031 327.2488,151.7612 Q327.8423,151.4915 328.4731,150.9104 Z " fill="#000000"/><text fill="#000000" font-family="sans-serif" font-size="14" lengthAdjust="spacing" textLength="71" x="340" y="152.781">Dokument</text><line style="stroke:#181818;stroke-width:0.5;" x1="312" x2="413" y1="163.49" y2="163.49"/><line style="stroke:#181818;stroke-width:0.5;" x1="312" x2="413" y1="171.49" y2="171.49"/></g><g id="elem_GMN5"><path d="M343,26.59 L343,51.9005 A0,0 0 0 0 343,51.9005 L541.95,51.9005 L404.67,130.99 L549.95,51.9005 L792,51.9005 A0,0 0 0 0 792,51.9005 L792,36.59 L782,26.59 L343,26.59 A0,0 0 0 0 343,26.59 " fill="#FEFFDD" style="stroke:#181818;stroke-width:0.5;"/><path d="M782,26.59 L782,36.59 L792,36.59 L782,26.59 " fill="#FEFFDD" style="stroke:#181818;stroke-width:0.5;"/><text fill="#000000" font-family="sans-serif" font-size="13" lengthAdjust="spacing" textLength="428" x="349" y="44.1584">Se detaljer i diagram for skjema 'no.ks.fiks.plan.v2.felles.dokument'</text></g><!--link HentGjeldendePlandokumenterResultat to Dokument--><g id="link_HentGjeldendePlandokumenterResultat_Dokument"><path codeLine="6" d="M214.33,71.92 C247.98,90.67 289.89,114.03 320.54,131.11 " fill="none" id="HentGjeldendePlandokumenterResultat-Dokument" style="stroke:#181818;stroke-width:1.0;"/></g><!--SRC=[ZKun3i8m4Dll5Tuwe6PWx8m48u8HTJYH2sfoJQeaPK7ydI919JOyM9Ojt_cgN0eE4klUYrg9LexAqQOmZuif-IHbrieL3yA2pVIJTjXzzAMd9z4_XzfsBH75L0KrJKXkTT7XBB1IMRra3B03tpAFS2cZ12yZeud9X6BSiD1xahblZHDLAURxig4N]--></g></svg>