<svg xmlns="http://www.w3.org/2000/svg" xmlns:xlink="http://www.w3.org/1999/xlink" contentStyleType="text/css" height="435px" preserveAspectRatio="none" style="width:417px;height:435px;background:#FFFFFF;" version="1.1" viewBox="0 0 417 435" width="417px" zoomAndPan="magnify"><defs/><g><!--class Dokument--><g id="elem_Dokument"><rect codeLine="1" fill="#F1F1F1" height="146.9297" id="Dokument" rx="2.5" ry="2.5" style="stroke:#181818;stroke-width:0.5;" width="335" x="40.5" y="131.49"/><ellipse cx="168.25" cy="147.49" fill="#ADD1B2" rx="11" ry="11" style="stroke:#181818;stroke-width:1.0;"/><path d="M170.7231,153.6331 Q170.1421,153.9319 169.5029,154.0813 Q168.8638,154.2307 168.1582,154.2307 Q165.6514,154.2307 164.3315,152.5789 Q163.0117,150.927 163.0117,147.8059 Q163.0117,144.6765 164.3315,143.0247 Q165.6514,141.3728 168.1582,141.3728 Q168.8638,141.3728 169.5112,141.5222 Q170.1587,141.6716 170.7231,141.9705 L170.7231,144.6931 Q170.0923,144.1121 169.4988,143.8423 Q168.9053,143.5725 168.2744,143.5725 Q166.9297,143.5725 166.2449,144.6392 Q165.5601,145.7058 165.5601,147.8059 Q165.5601,149.8977 166.2449,150.9644 Q166.9297,152.031 168.2744,152.031 Q168.9053,152.031 169.4988,151.7612 Q170.0923,151.4915 170.7231,150.9104 Z " fill="#000000"/><text fill="#000000" font-family="sans-serif" font-size="14" lengthAdjust="spacing" textLength="71" x="188.75" y="152.781">Dokument</text><line style="stroke:#181818;stroke-width:0.5;" x1="41.5" x2="374.5" y1="163.49" y2="163.49"/><ellipse cx="51.5" cy="177.2341" fill="none" rx="3" ry="3" style="stroke:#038048;stroke-width:1.0;"/><text fill="#000000" font-family="sans-serif" font-size="14" lengthAdjust="spacing" textLength="79" x="60.5" y="181.0252">tittel: string</text><ellipse cx="51.5" cy="193.7224" fill="none" rx="3" ry="3" style="stroke:#038048;stroke-width:1.0;"/><text fill="#000000" font-family="sans-serif" font-size="14" lengthAdjust="spacing" textLength="207" x="60.5" y="197.5134">dokumenttype: Dokumenttype</text><ellipse cx="51.5" cy="210.2107" fill="none" rx="3" ry="3" style="stroke:#038048;stroke-width:1.0;"/><text fill="#000000" font-family="sans-serif" font-size="14" lengthAdjust="spacing" textLength="309" x="60.5" y="214.0017">referanseDokumentfil: ReferanseDokumentfil</text><ellipse cx="51.5" cy="226.699" fill="none" rx="3" ry="3" style="stroke:#038048;stroke-width:1.0;"/><text fill="#000000" font-family="sans-serif" font-size="14" lengthAdjust="spacing" textLength="115" x="60.5" y="230.49">mimetype: string</text><ellipse cx="51.5" cy="243.1873" fill="none" rx="3" ry="3" style="stroke:#038048;stroke-width:1.0;"/><text fill="#000000" font-family="sans-serif" font-size="14" lengthAdjust="spacing" textLength="146" x="60.5" y="246.9783">dokumentsdato: date</text><ellipse cx="51.5" cy="259.6755" fill="none" rx="3" ry="3" style="stroke:#038048;stroke-width:1.0;"/><text fill="#000000" font-family="sans-serif" font-size="14" lengthAdjust="spacing" textLength="114" x="60.5" y="263.4666">arkivnavn: string</text><line style="stroke:#181818;stroke-width:0.5;" x1="41.5" x2="374.5" y1="270.4197" y2="270.4197"/></g><!--class Dokumenttype--><g id="elem_Dokumenttype"><rect codeLine="13" fill="#F1F1F1" height="89.5977" id="Dokumenttype" rx="2.5" ry="2.5" style="stroke:#181818;stroke-width:0.5;" width="184" x="7" y="338.42"/><ellipse cx="45.4" cy="358.7305" fill="#ADD1B2" rx="11" ry="11" style="stroke:#181818;stroke-width:1.0;"/><path d="M47.8731,364.8736 Q47.2921,365.1724 46.6529,365.3219 Q46.0138,365.4713 45.3082,365.4713 Q42.8014,365.4713 41.4815,363.8194 Q40.1617,362.1676 40.1617,359.0465 Q40.1617,355.9171 41.4815,354.2652 Q42.8014,352.6134 45.3082,352.6134 Q46.0138,352.6134 46.6612,352.7628 Q47.3087,352.9122 47.8731,353.211 L47.8731,355.9337 Q47.2423,355.3526 46.6488,355.0828 Q46.0553,354.8131 45.4244,354.8131 Q44.0797,354.8131 43.3949,355.8797 Q42.7101,356.9464 42.7101,359.0465 Q42.7101,361.1383 43.3949,362.2049 Q44.0797,363.2716 45.4244,363.2716 Q46.0553,363.2716 46.6488,363.0018 Q47.2423,362.732 47.8731,362.151 Z " fill="#000000"/><text fill="#000000" font-family="sans-serif" font-size="12" font-style="italic" lengthAdjust="spacing" textLength="42" x="93.6" y="355.0216">&#171;Kode&#187;</text><text fill="#000000" font-family="sans-serif" font-size="14" lengthAdjust="spacing" textLength="100" x="64.6" y="371.088">Dokumenttype</text><line style="stroke:#181818;stroke-width:0.5;" x1="8" x2="190" y1="379.0411" y2="379.0411"/><ellipse cx="18" cy="392.7852" fill="none" rx="3" ry="3" style="stroke:#038048;stroke-width:1.0;"/><text fill="#000000" font-family="sans-serif" font-size="14" lengthAdjust="spacing" textLength="116" x="27" y="396.5762">kodeverdi: string</text><ellipse cx="18" cy="409.2735" fill="none" rx="3" ry="3" style="stroke:#038048;stroke-width:1.0;"/><text fill="#000000" font-family="sans-serif" font-size="14" lengthAdjust="spacing" textLength="158" x="27" y="413.0645">kodebeskrivelse: string</text><line style="stroke:#181818;stroke-width:0.5;" x1="8" x2="190" y1="420.0177" y2="420.0177"/></g><!--class ReferanseDokumentfil--><g id="elem_ReferanseDokumentfil"><rect codeLine="18" fill="#F1F1F1" height="80.9766" id="ReferanseDokumentfil" rx="2.5" ry="2.5" style="stroke:#181818;stroke-width:0.5;" width="184" x="226" y="342.73"/><ellipse cx="241" cy="358.73" fill="#ADD1B2" rx="11" ry="11" style="stroke:#181818;stroke-width:1.0;"/><path d="M243.4731,364.8731 Q242.8921,365.1719 242.2529,365.3213 Q241.6138,365.4707 240.9082,365.4707 Q238.4014,365.4707 237.0815,363.8189 Q235.7617,362.167 235.7617,359.0459 Q235.7617,355.9165 237.0815,354.2647 Q238.4014,352.6128 240.9082,352.6128 Q241.6138,352.6128 242.2612,352.7622 Q242.9087,352.9116 243.4731,353.2105 L243.4731,355.9331 Q242.8423,355.3521 242.2488,355.0823 Q241.6553,354.8125 241.0244,354.8125 Q239.6797,354.8125 238.9949,355.8792 Q238.3101,356.9458 238.3101,359.0459 Q238.3101,361.1377 238.9949,362.2044 Q239.6797,363.271 241.0244,363.271 Q241.6553,363.271 242.2488,363.0012 Q242.8423,362.7315 243.4731,362.1504 Z " fill="#000000"/><text fill="#000000" font-family="sans-serif" font-size="14" lengthAdjust="spacing" textLength="152" x="255" y="364.021">ReferanseDokumentfil</text><line style="stroke:#181818;stroke-width:0.5;" x1="227" x2="409" y1="374.73" y2="374.73"/><ellipse cx="237" cy="388.4741" fill="none" rx="3" ry="3" style="stroke:#038048;stroke-width:1.0;"/><text fill="#000000" font-family="sans-serif" font-size="14" lengthAdjust="spacing" textLength="61" x="246" y="392.2652">id: string</text><ellipse cx="237" cy="404.9624" fill="none" rx="3" ry="3" style="stroke:#038048;stroke-width:1.0;"/><text fill="#000000" font-family="sans-serif" font-size="14" lengthAdjust="spacing" textLength="67" x="246" y="408.7534">url: string</text><line style="stroke:#181818;stroke-width:0.5;" x1="227" x2="409" y1="415.7066" y2="415.7066"/></g><!--class HentGjeldendePlandokumenterResultat--><g id="elem_HentGjeldendePlandokumenterResultat"><rect codeLine="3" fill="#F1F1F1" height="64.4883" id="HentGjeldendePlandokumenterResultat" rx="2.5" ry="2.5" style="stroke:#181818;stroke-width:0.5;" width="301" x="57.5" y="7"/><ellipse cx="72.5" cy="23" fill="#ADD1B2" rx="11" ry="11" style="stroke:#181818;stroke-width:1.0;"/><path d="M74.9731,29.1431 Q74.3921,29.4419 73.7529,29.5913 Q73.1138,29.7407 72.4082,29.7407 Q69.9014,29.7407 68.5815,28.0889 Q67.2617,26.437 67.2617,23.3159 Q67.2617,20.1865 68.5815,18.5347 Q69.9014,16.8828 72.4082,16.8828 Q73.1138,16.8828 73.7612,17.0322 Q74.4087,17.1816 74.9731,17.4805 L74.9731,20.2031 Q74.3423,19.6221 73.7488,19.3523 Q73.1553,19.0825 72.5244,19.0825 Q71.1797,19.0825 70.4949,20.1492 Q69.8101,21.2158 69.8101,23.3159 Q69.8101,25.4077 70.4949,26.4744 Q71.1797,27.541 72.5244,27.541 Q73.1553,27.541 73.7488,27.2712 Q74.3423,27.0015 74.9731,26.4204 Z " fill="#000000"/><text fill="#000000" font-family="sans-serif" font-size="14" lengthAdjust="spacing" textLength="269" x="86.5" y="28.291">HentGjeldendePlandokumenterResultat</text><line style="stroke:#181818;stroke-width:0.5;" x1="58.5" x2="357.5" y1="39" y2="39"/><ellipse cx="68.5" cy="52.7441" fill="none" rx="3" ry="3" style="stroke:#038048;stroke-width:1.0;"/><text fill="#000000" font-family="sans-serif" font-size="14" lengthAdjust="spacing" textLength="203" x="77.5" y="56.5352">plandokumenter: Dokument[]</text><line style="stroke:#181818;stroke-width:0.5;" x1="58.5" x2="357.5" y1="63.4883" y2="63.4883"/></g><!--link Dokument to Dokumenttype--><g id="link_Dokument_Dokumenttype"><path codeLine="10" d="M163.04,278.67 C150.6,298.77 137.49,319.98 126.39,337.93 " fill="none" id="Dokument-Dokumenttype" style="stroke:#181818;stroke-width:1.0;"/></g><!--link Dokument to ReferanseDokumentfil--><g id="link_Dokument_ReferanseDokumentfil"><path codeLine="11" d="M253.38,278.67 C266.99,300.48 281.41,323.59 293.17,342.43 " fill="none" id="Dokument-ReferanseDokumentfil" style="stroke:#181818;stroke-width:1.0;"/></g><!--link HentGjeldendePlandokumenterResultat to Dokument--><g id="link_HentGjeldendePlandokumenterResultat_Dokument"><path codeLine="7" d="M208,71.81 C208,88.72 208,110.31 208,131.11 " fill="none" id="HentGjeldendePlandokumenterResultat-Dokument" style="stroke:#181818;stroke-width:1.0;"/></g><!--SRC=[ZKox2W8n4EptAzPQRWAMreAMOYiMuR87vwrxmKrin7ytXIVOESKmmpnMe_LQap0246p6v1Z6HbcZuR718AhYIFDKRs8bB0Av4lKQtVdGxFugciII7DjkwSZz95wrnC9FuePr_actlFleyuLUHFySTTrtH6y0]--></g></svg>