<svg xmlns="http://www.w3.org/2000/svg" xmlns:xlink="http://www.w3.org/1999/xlink" contentStyleType="text/css" data-diagram-type="CLASS" height="235px" preserveAspectRatio="none" style="width:197px;height:235px;background:#FFFFFF;" version="1.1" viewBox="0 0 197 235" width="197px" zoomAndPan="magnify"><defs/><g><!--class HentKodelisteResultat--><g class="entity" data-entity="HentKodelisteResultat" data-source-line="2" data-uid="ent0002" id="entity_HentKodelisteResultat"><rect fill="#F1F1F1" height="80.9766" rx="2.5" ry="2.5" style="stroke:#181818;stroke-width:0.5;" width="181.3584" x="8.1" y="7"/><ellipse cx="23.1" cy="23" fill="#ADD1B2" rx="11" ry="11" style="stroke:#181818;stroke-width:1;"/><path d="M25.5731,29.1431 Q24.9921,29.4419 24.3529,29.5913 Q23.7138,29.7407 23.0082,29.7407 Q20.5014,29.7407 19.1815,28.0889 Q17.8617,26.437 17.8617,23.3159 Q17.8617,20.1865 19.1815,18.5347 Q20.5014,16.8828 23.0082,16.8828 Q23.7138,16.8828 24.3612,17.0322 Q25.0087,17.1816 25.5731,17.4805 L25.5731,20.2031 Q24.9423,19.6221 24.3488,19.3523 Q23.7553,19.0825 23.1244,19.0825 Q21.7797,19.0825 21.0949,20.1492 Q20.4101,21.2158 20.4101,23.3159 Q20.4101,25.4077 21.0949,26.4744 Q21.7797,27.541 23.1244,27.541 Q23.7553,27.541 24.3488,27.2712 Q24.9423,27.0015 25.5731,26.4204 Z " fill="#000000"/><text fill="#000000" font-family="sans-serif" font-size="14" lengthAdjust="spacing" textLength="149.3584" x="37.1" y="28.291">HentKodelisteResultat</text><line style="stroke:#181818;stroke-width:0.5;" x1="9.1" x2="188.4584" y1="39" y2="39"/><ellipse cx="19.1" cy="52.7441" fill="none" rx="3" ry="3" style="stroke:#038048;stroke-width:1;"/><text fill="#000000" font-family="sans-serif" font-size="14" lengthAdjust="spacing" textLength="80.7803" x="28.1" y="56.5352">navn: string</text><ellipse cx="19.1" cy="69.2324" fill="none" rx="3" ry="3" style="stroke:#038048;stroke-width:1;"/><text fill="#000000" font-family="sans-serif" font-size="14" lengthAdjust="spacing" textLength="91.4375" x="28.1" y="73.0234">koder: Kode[]</text><line style="stroke:#181818;stroke-width:0.5;" x1="9.1" x2="188.4584" y1="79.9766" y2="79.9766"/></g><!--class Kode--><g class="entity" data-entity="Kode" data-source-line="7" data-uid="ent0003" id="entity_Kode"><rect fill="#F1F1F1" height="80.9766" rx="2.5" ry="2.5" style="stroke:#181818;stroke-width:0.5;" width="183.5547" x="7" y="147.97"/><ellipse cx="77.3521" cy="163.97" fill="#ADD1B2" rx="11" ry="11" style="stroke:#181818;stroke-width:1;"/><path d="M79.8252,170.1131 Q79.2441,170.4119 78.605,170.5613 Q77.9658,170.7107 77.2603,170.7107 Q74.7534,170.7107 73.4336,169.0589 Q72.1138,167.407 72.1138,164.2859 Q72.1138,161.1565 73.4336,159.5047 Q74.7534,157.8528 77.2603,157.8528 Q77.9658,157.8528 78.6133,158.0022 Q79.2607,158.1516 79.8252,158.4505 L79.8252,161.1731 Q79.1943,160.5921 78.6008,160.3223 Q78.0073,160.0525 77.3765,160.0525 Q76.0317,160.0525 75.3469,161.1192 Q74.6621,162.1858 74.6621,164.2859 Q74.6621,166.3777 75.3469,167.4444 Q76.0317,168.511 77.3765,168.511 Q78.0073,168.511 78.6008,168.2412 Q79.1943,167.9715 79.8252,167.3904 Z " fill="#000000"/><text fill="#000000" font-family="sans-serif" font-size="14" lengthAdjust="spacing" textLength="34.3506" x="97.8521" y="169.261">Kode</text><line style="stroke:#181818;stroke-width:0.5;" x1="8" x2="189.5547" y1="179.97" y2="179.97"/><ellipse cx="18" cy="193.7141" fill="none" rx="3" ry="3" style="stroke:#038048;stroke-width:1;"/><text fill="#000000" font-family="sans-serif" font-size="14" lengthAdjust="spacing" textLength="115.4521" x="27" y="197.5052">kodeverdi: string</text><ellipse cx="18" cy="210.2024" fill="none" rx="3" ry="3" style="stroke:#038048;stroke-width:1;"/><text fill="#000000" font-family="sans-serif" font-size="14" lengthAdjust="spacing" textLength="157.5547" x="27" y="213.9934">kodebeskrivelse: string</text><line style="stroke:#181818;stroke-width:0.5;" x1="8" x2="189.5547" y1="220.9466" y2="220.9466"/></g><!--link HentKodelisteResultat to Kode--><g class="link" data-entity-1="HentKodelisteResultat" data-entity-2="Kode" data-source-line="7" data-uid="lnk4" id="link_HentKodelisteResultat_Kode"><path codeLine="7" d="M98.78,88.31 C98.78,106.92 98.78,129.02 98.78,147.63" fill="none" id="HentKodelisteResultat-Kode" style="stroke:#181818;stroke-width:1;"/></g><!--SRC=[Iyv9B2vMy4ZDA_7EJqdDoImkIGrABIxDAKaiKQZcKW02xRp4iZmhXUAIeioyT8X8Db1faPK2I4TqB5Sj5nTs_RgwO2LSNCbWIq1ic9aW4yfIYr8oCGrEIYtEBieiIyqfJeLBrd810000]--></g></svg>