<?xml version="1.0" encoding="us-ascii" standalone="no"?><svg xmlns="http://www.w3.org/2000/svg" xmlns:xlink="http://www.w3.org/1999/xlink" contentStyleType="text/css" height="239px" preserveAspectRatio="none" style="width:739px;height:239px;background:#FFFFFF;" version="1.1" viewBox="0 0 739 239" width="739px" zoomAndPan="magnify"><defs/><g><rect fill="#F1F1F1" height="81.9531" rx="5" ry="5" style="stroke:#F1F1F1;stroke-width:1.5;" width="249" x="10" y="46.5"/><text fill="#000000" font-family="sans-serif" font-size="14" font-weight="bold" lengthAdjust="spacing" textLength="101" x="15" y="62.0352">protokollnavn</text><text fill="#000000" font-family="sans-serif" font-size="14" lengthAdjust="spacing" textLength="99" x="126" y="62.0352">no.ks.fiks.plan</text><line style="stroke:#000000;stroke-width:1.0;" x1="121" x2="121" y1="46.5" y2="66.9883"/><line style="stroke:#000000;stroke-width:1.0;" x1="10" x2="259" y1="66.9883" y2="66.9883"/><text fill="#000000" font-family="sans-serif" font-size="14" font-weight="bold" lengthAdjust="spacing" textLength="34" x="15" y="82.5234">navn</text><text fill="#000000" font-family="sans-serif" font-size="14" lengthAdjust="spacing" textLength="128" x="126" y="82.5234">koordinatsystemer</text><line style="stroke:#000000;stroke-width:1.0;" x1="121" x2="121" y1="66.9883" y2="87.4766"/><line style="stroke:#000000;stroke-width:1.0;" x1="10" x2="259" y1="87.4766" y2="87.4766"/><text fill="#000000" font-family="sans-serif" font-size="14" font-weight="bold" lengthAdjust="spacing" textLength="53" x="15" y="103.0117">versjon</text><text fill="#000000" font-family="sans-serif" font-size="14" lengthAdjust="spacing" textLength="16" x="126" y="103.0117">v2</text><line style="stroke:#000000;stroke-width:1.0;" x1="121" x2="121" y1="87.4766" y2="107.9648"/><line style="stroke:#000000;stroke-width:1.0;" x1="10" x2="259" y1="107.9648" y2="107.9648"/><text fill="#000000" font-family="sans-serif" font-size="14" font-weight="bold" lengthAdjust="spacing" textLength="67" x="15" y="123.5">kodeliste</text><text fill="#000000" font-family="sans-serif" font-size="14" lengthAdjust="spacing" textLength="12" x="126" y="123.5">&#160;&#160;&#160;</text><line style="stroke:#000000;stroke-width:1.0;" x1="121" x2="121" y1="107.9648" y2="128.4531"/><rect fill="none" height="81.9531" rx="5" ry="5" style="stroke:#000000;stroke-width:1.5;" width="249" x="10" y="46.5"/><rect fill="#F1F1F1" height="81.9531" rx="5" ry="5" style="stroke:#F1F1F1;stroke-width:1.5;" width="22" x="296" y="77.5"/><text fill="#000000" font-family="sans-serif" font-size="14" lengthAdjust="spacing" textLength="12" x="301" y="93.0352">&#160;&#160;&#160;</text><line style="stroke:#000000;stroke-width:1.0;" x1="296" x2="318" y1="97.9883" y2="97.9883"/><text fill="#000000" font-family="sans-serif" font-size="14" lengthAdjust="spacing" textLength="12" x="301" y="113.5234">&#160;&#160;&#160;</text><line style="stroke:#000000;stroke-width:1.0;" x1="296" x2="318" y1="118.4766" y2="118.4766"/><text fill="#000000" font-family="sans-serif" font-size="14" lengthAdjust="spacing" textLength="12" x="301" y="134.0117">&#160;&#160;&#160;</text><line style="stroke:#000000;stroke-width:1.0;" x1="296" x2="318" y1="138.9648" y2="138.9648"/><text fill="#000000" font-family="sans-serif" font-size="14" lengthAdjust="spacing" textLength="12" x="301" y="154.5">&#160;&#160;&#160;</text><rect fill="none" height="81.9531" rx="5" ry="5" style="stroke:#000000;stroke-width:1.5;" width="22" x="296" y="77.5"/><rect fill="#F1F1F1" height="40.9766" rx="5" ry="5" style="stroke:#F1F1F1;stroke-width:1.5;" width="292" x="395" y="10"/><text fill="#000000" font-family="sans-serif" font-size="14" font-weight="bold" lengthAdjust="spacing" textLength="71" x="400" y="25.5352">kodeverdi</text><text fill="#000000" font-family="sans-serif" font-size="14" lengthAdjust="spacing" textLength="83" x="527" y="25.5352">EPSG:25832</text><line style="stroke:#000000;stroke-width:1.0;" x1="522" x2="522" y1="10" y2="30.4883"/><line style="stroke:#000000;stroke-width:1.0;" x1="395" x2="687" y1="30.4883" y2="30.4883"/><text fill="#000000" font-family="sans-serif" font-size="14" font-weight="bold" lengthAdjust="spacing" textLength="117" x="400" y="46.0234">kodebeskrivelse</text><text fill="#000000" font-family="sans-serif" font-size="14" lengthAdjust="spacing" textLength="155" x="527" y="46.0234">EUREF89 UTM sone 32</text><line style="stroke:#000000;stroke-width:1.0;" x1="522" x2="522" y1="30.4883" y2="50.9766"/><rect fill="none" height="40.9766" rx="5" ry="5" style="stroke:#000000;stroke-width:1.5;" width="292" x="395" y="10"/><rect fill="#F1F1F1" height="40.9766" rx="5" ry="5" style="stroke:#F1F1F1;stroke-width:1.5;" width="292" x="395" y="69"/><text fill="#000000" font-family="sans-serif" font-size="14" font-weight="bold" lengthAdjust="spacing" textLength="71" x="400" y="84.5352">kodeverdi</text><text fill="#000000" font-family="sans-serif" font-size="14" lengthAdjust="spacing" textLength="83" x="527" y="84.5352">EPSG:25833</text><line style="stroke:#000000;stroke-width:1.0;" x1="522" x2="522" y1="69" y2="89.4883"/><line style="stroke:#000000;stroke-width:1.0;" x1="395" x2="687" y1="89.4883" y2="89.4883"/><text fill="#000000" font-family="sans-serif" font-size="14" font-weight="bold" lengthAdjust="spacing" textLength="117" x="400" y="105.0234">kodebeskrivelse</text><text fill="#000000" font-family="sans-serif" font-size="14" lengthAdjust="spacing" textLength="155" x="527" y="105.0234">EUREF89 UTM sone 33</text><line style="stroke:#000000;stroke-width:1.0;" x1="522" x2="522" y1="89.4883" y2="109.9766"/><rect fill="none" height="40.9766" rx="5" ry="5" style="stroke:#000000;stroke-width:1.5;" width="292" x="395" y="69"/><rect fill="#F1F1F1" height="40.9766" rx="5" ry="5" style="stroke:#F1F1F1;stroke-width:1.5;" width="292" x="395" y="128"/><text fill="#000000" font-family="sans-serif" font-size="14" font-weight="bold" lengthAdjust="spacing" textLength="71" x="400" y="143.5352">kodeverdi</text><text fill="#000000" font-family="sans-serif" font-size="14" lengthAdjust="spacing" textLength="83" x="527" y="143.5352">EPSG:25835</text><line style="stroke:#000000;stroke-width:1.0;" x1="522" x2="522" y1="128" y2="148.4883"/><line style="stroke:#000000;stroke-width:1.0;" x1="395" x2="687" y1="148.4883" y2="148.4883"/><text fill="#000000" font-family="sans-serif" font-size="14" font-weight="bold" lengthAdjust="spacing" textLength="117" x="400" y="164.0234">kodebeskrivelse</text><text fill="#000000" font-family="sans-serif" font-size="14" lengthAdjust="spacing" textLength="155" x="527" y="164.0234">EUREF89 UTM sone 35</text><line style="stroke:#000000;stroke-width:1.0;" x1="522" x2="522" y1="148.4883" y2="168.9766"/><rect fill="none" height="40.9766" rx="5" ry="5" style="stroke:#000000;stroke-width:1.5;" width="292" x="395" y="128"/><rect fill="#F1F1F1" height="40.9766" rx="5" ry="5" style="stroke:#F1F1F1;stroke-width:1.5;" width="372" x="355" y="187"/><text fill="#000000" font-family="sans-serif" font-size="14" font-weight="bold" lengthAdjust="spacing" textLength="71" x="360" y="202.5352">kodeverdi</text><text fill="#000000" font-family="sans-serif" font-size="14" lengthAdjust="spacing" textLength="74" x="487" y="202.5352">EPSG:4258</text><line style="stroke:#000000;stroke-width:1.0;" x1="482" x2="482" y1="187" y2="207.4883"/><line style="stroke:#000000;stroke-width:1.0;" x1="355" x2="727" y1="207.4883" y2="207.4883"/><text fill="#000000" font-family="sans-serif" font-size="14" font-weight="bold" lengthAdjust="spacing" textLength="117" x="360" y="223.0234">kodebeskrivelse</text><text fill="#000000" font-family="sans-serif" font-size="14" lengthAdjust="spacing" textLength="235" x="487" y="223.0234">EUREF 89 Geografisk (ETRS 89) 2d</text><line style="stroke:#000000;stroke-width:1.0;" x1="482" x2="482" y1="207.4883" y2="227.9766"/><rect fill="none" height="40.9766" rx="5" ry="5" style="stroke:#000000;stroke-width:1.5;" width="372" x="355" y="187"/><path d="M306,87.5 L319,87.5 C339.2698,87.5 336.3945,67.5437 355,59.5 C365.431,54.9904 376.4612,51.1712 387.734,47.9381 " fill="none" style="stroke:#000000;stroke-width:1.0;stroke-dasharray:3.0,3.0;"/><path d="M388.5506,50.9137 L389.9657,47.3257 L386.9174,44.9625 L395.173,45.8967 L388.5506,50.9137 " fill="#000000" style="stroke:#000000;stroke-width:1.0;"/><ellipse cx="306" cy="87.5" fill="#000000" rx="3" ry="3" style="stroke:#000000;stroke-width:1.0;"/><path d="M306,108.5 L319,108.5 C341.1927,108.5 364.5906,107.5415 387.5327,106.055 " fill="none" style="stroke:#000000;stroke-width:1.0;stroke-dasharray:3.0,3.0;"/><path d="M387.7422,109.1592 L389.8608,105.8979 L387.3232,102.9508 L395.2931,105.5313 L387.7422,109.1592 " fill="#000000" style="stroke:#000000;stroke-width:1.0;"/><ellipse cx="306" cy="108.5" fill="#000000" rx="3" ry="3" style="stroke:#000000;stroke-width:1.0;"/><path d="M306,128.5 L319,128.5 C341.2015,128.5 364.6042,129.509 387.5485,131.0737 " fill="none" style="stroke:#000000;stroke-width:1.0;stroke-dasharray:3.0,3.0;"/><path d="M387.3279,134.1782 L389.8768,131.2391 L387.769,127.9693 L395.3096,131.625 L387.3279,134.1782 " fill="#000000" style="stroke:#000000;stroke-width:1.0;"/><ellipse cx="306" cy="128.5" fill="#000000" rx="3" ry="3" style="stroke:#000000;stroke-width:1.0;"/><path d="M306,149.5 L319,149.5 C339.5456,149.5 336.2116,170.1861 355,178.5 C359.7064,180.5826 364.5379,182.5186 369.4612,184.3182 " fill="none" style="stroke:#000000;stroke-width:1.0;stroke-dasharray:3.0,3.0;"/><path d="M368.4451,187.2282 L371.6437,185.0802 L370.4773,181.4082 L376.7361,186.8584 L368.4451,187.2282 " fill="#000000" style="stroke:#000000;stroke-width:1.0;"/><ellipse cx="306" cy="149.5" fill="#000000" rx="3" ry="3" style="stroke:#000000;stroke-width:1.0;"/><path d="M247,118.5 L260,118.5 C269.4213,118.5 279.9164,118.5 288.5483,118.5 " fill="none" style="stroke:#000000;stroke-width:1.0;stroke-dasharray:3.0,3.0;"/><path d="M288.5483,121.5437 L290.8311,118.5 L288.5483,115.4563 L296.1575,118.5 L288.5483,121.5437 " fill="#000000" style="stroke:#000000;stroke-width:1.0;"/><ellipse cx="247" cy="118.5" fill="#000000" rx="3" ry="3" style="stroke:#000000;stroke-width:1.0;"/><!--SRC=[bP8nRy8m48Lt_ufJ9f00GG9LcWaL0X8b1H5WgJeOSaGcmKQs4maX_dkF0EqAomtltljyzhblBDTsRvHaPmRW7BMoAbDvBdafdG0SgLgPQUq4bMFEfTEukXxDJ2cT2CcjEHcB1zItTedQx5NbADsRbAa4Sq4c4hz903XNzTwYH28Se40uZyU1s_EzM_3FiK6JQL5YRl3cMot2aVyEgsK4D3q21Ih_fV4KtdiLxxs4xxsAxpsDxnB_2JeGVemgrNmdJ0QrSBc8IQk3czoFelh3BgoFCga-09lJWkqgci9rWK99wBJSjkkr_5fSI8Zu2TmETDg1vmVjDWp2U0dNVftLnlCftQFGMuI4jgp5fh04gBC9Bpai2cd50GEO7L5EXfyF0K9P2gta0QLbatNqRtZhDZ-4XHWrZGBhY0rnnulSKcAhwCUb0JtTgEcpAPTfmLDYesG3HLnz2k1hzWi0]--></g></svg>