<svg xmlns="http://www.w3.org/2000/svg" xmlns:xlink="http://www.w3.org/1999/xlink" contentStyleType="text/css" data-diagram-type="JSON" height="239px" preserveAspectRatio="none" style="width:736px;height:239px;background:#FFFFFF;" version="1.1" viewBox="0 0 736 239" width="736px" zoomAndPan="magnify"><defs/><g><rect fill="#F1F1F1" height="81.9531" rx="5" ry="5" style="stroke:#F1F1F1;stroke-width:1.5;" width="247.876" x="10" y="46.5"/><text fill="#000000" font-family="sans-serif" font-size="14" font-weight="bold" lengthAdjust="spacing" textLength="101.0283" x="15" y="62.0352">protokollnavn</text><text fill="#000000" font-family="sans-serif" font-size="14" lengthAdjust="spacing" textLength="99.6885" x="126.0283" y="62.0352">no.ks.fiks.plan</text><line style="stroke:#000000;stroke-width:1;" x1="121.0283" x2="121.0283" y1="46.5" y2="66.9883"/><line style="stroke:#000000;stroke-width:1;" x1="10" x2="257.876" y1="66.9883" y2="66.9883"/><text fill="#000000" font-family="sans-serif" font-size="14" font-weight="bold" lengthAdjust="spacing" textLength="34.9248" x="15" y="82.5234">navn</text><text fill="#000000" font-family="sans-serif" font-size="14" lengthAdjust="spacing" textLength="126.8477" x="126.0283" y="82.5234">koordinatsystemer</text><line style="stroke:#000000;stroke-width:1;" x1="121.0283" x2="121.0283" y1="66.9883" y2="87.4766"/><line style="stroke:#000000;stroke-width:1;" x1="10" x2="257.876" y1="87.4766" y2="87.4766"/><text fill="#000000" font-family="sans-serif" font-size="14" font-weight="bold" lengthAdjust="spacing" textLength="53.5869" x="15" y="103.0117">versjon</text><text fill="#000000" font-family="sans-serif" font-size="14" lengthAdjust="spacing" textLength="16.0986" x="126.0283" y="103.0117">v2</text><line style="stroke:#000000;stroke-width:1;" x1="121.0283" x2="121.0283" y1="87.4766" y2="107.9648"/><line style="stroke:#000000;stroke-width:1;" x1="10" x2="257.876" y1="107.9648" y2="107.9648"/><text fill="#000000" font-family="sans-serif" font-size="14" font-weight="bold" lengthAdjust="spacing" textLength="66.1787" x="15" y="123.5">kodeliste</text><text fill="#000000" font-family="sans-serif" font-size="14" lengthAdjust="spacing" textLength="13.2891" x="126.0283" y="123.5">&#160;&#160;&#160;</text><line style="stroke:#000000;stroke-width:1;" x1="121.0283" x2="121.0283" y1="107.9648" y2="128.4531"/><rect fill="none" height="81.9531" rx="5" ry="5" style="stroke:#000000;stroke-width:1.5;" width="247.876" x="10" y="46.5"/><rect fill="#F1F1F1" height="81.9531" rx="5" ry="5" style="stroke:#F1F1F1;stroke-width:1.5;" width="23.2891" x="295" y="77.5"/><text fill="#000000" font-family="sans-serif" font-size="14" lengthAdjust="spacing" textLength="13.2891" x="300" y="93.0352">&#160;&#160;&#160;</text><line style="stroke:#000000;stroke-width:1;" x1="295" x2="318.2891" y1="97.9883" y2="97.9883"/><text fill="#000000" font-family="sans-serif" font-size="14" lengthAdjust="spacing" textLength="13.2891" x="300" y="113.5234">&#160;&#160;&#160;</text><line style="stroke:#000000;stroke-width:1;" x1="295" x2="318.2891" y1="118.4766" y2="118.4766"/><text fill="#000000" font-family="sans-serif" font-size="14" lengthAdjust="spacing" textLength="13.2891" x="300" y="134.0117">&#160;&#160;&#160;</text><line style="stroke:#000000;stroke-width:1;" x1="295" x2="318.2891" y1="138.9648" y2="138.9648"/><text fill="#000000" font-family="sans-serif" font-size="14" lengthAdjust="spacing" textLength="13.2891" x="300" y="154.5">&#160;&#160;&#160;</text><rect fill="none" height="81.9531" rx="5" ry="5" style="stroke:#000000;stroke-width:1.5;" width="23.2891" x="295" y="77.5"/><rect fill="#F1F1F1" height="40.9766" rx="5" ry="5" style="stroke:#F1F1F1;stroke-width:1.5;" width="290.4023" x="394.5" y="10"/><text fill="#000000" font-family="sans-serif" font-size="14" font-weight="bold" lengthAdjust="spacing" textLength="71.9824" x="399.5" y="25.5352">kodeverdi</text><text fill="#000000" font-family="sans-serif" font-size="14" lengthAdjust="spacing" textLength="81.6758" x="527.1328" y="25.5352">EPSG:25832</text><line style="stroke:#000000;stroke-width:1;" x1="522.1328" x2="522.1328" y1="10" y2="30.4883"/><line style="stroke:#000000;stroke-width:1;" x1="394.5" x2="684.9023" y1="30.4883" y2="30.4883"/><text fill="#000000" font-family="sans-serif" font-size="14" font-weight="bold" lengthAdjust="spacing" textLength="117.6328" x="399.5" y="46.0234">kodebeskrivelse</text><text fill="#000000" font-family="sans-serif" font-size="14" lengthAdjust="spacing" textLength="152.7695" x="527.1328" y="46.0234">EUREF89 UTM sone 32</text><line style="stroke:#000000;stroke-width:1;" x1="522.1328" x2="522.1328" y1="30.4883" y2="50.9766"/><rect fill="none" height="40.9766" rx="5" ry="5" style="stroke:#000000;stroke-width:1.5;" width="290.4023" x="394.5" y="10"/><rect fill="#F1F1F1" height="40.9766" rx="5" ry="5" style="stroke:#F1F1F1;stroke-width:1.5;" width="290.4023" x="394.5" y="69"/><text fill="#000000" font-family="sans-serif" font-size="14" font-weight="bold" lengthAdjust="spacing" textLength="71.9824" x="399.5" y="84.5352">kodeverdi</text><text fill="#000000" font-family="sans-serif" font-size="14" lengthAdjust="spacing" textLength="81.6758" x="527.1328" y="84.5352">EPSG:25833</text><line style="stroke:#000000;stroke-width:1;" x1="522.1328" x2="522.1328" y1="69" y2="89.4883"/><line style="stroke:#000000;stroke-width:1;" x1="394.5" x2="684.9023" y1="89.4883" y2="89.4883"/><text fill="#000000" font-family="sans-serif" font-size="14" font-weight="bold" lengthAdjust="spacing" textLength="117.6328" x="399.5" y="105.0234">kodebeskrivelse</text><text fill="#000000" font-family="sans-serif" font-size="14" lengthAdjust="spacing" textLength="152.7695" x="527.1328" y="105.0234">EUREF89 UTM sone 33</text><line style="stroke:#000000;stroke-width:1;" x1="522.1328" x2="522.1328" y1="89.4883" y2="109.9766"/><rect fill="none" height="40.9766" rx="5" ry="5" style="stroke:#000000;stroke-width:1.5;" width="290.4023" x="394.5" y="69"/><rect fill="#F1F1F1" height="40.9766" rx="5" ry="5" style="stroke:#F1F1F1;stroke-width:1.5;" width="290.4023" x="394.5" y="128"/><text fill="#000000" font-family="sans-serif" font-size="14" font-weight="bold" lengthAdjust="spacing" textLength="71.9824" x="399.5" y="143.5352">kodeverdi</text><text fill="#000000" font-family="sans-serif" font-size="14" lengthAdjust="spacing" textLength="81.6758" x="527.1328" y="143.5352">EPSG:25835</text><line style="stroke:#000000;stroke-width:1;" x1="522.1328" x2="522.1328" y1="128" y2="148.4883"/><line style="stroke:#000000;stroke-width:1;" x1="394.5" x2="684.9023" y1="148.4883" y2="148.4883"/><text fill="#000000" font-family="sans-serif" font-size="14" font-weight="bold" lengthAdjust="spacing" textLength="117.6328" x="399.5" y="164.0234">kodebeskrivelse</text><text fill="#000000" font-family="sans-serif" font-size="14" lengthAdjust="spacing" textLength="152.7695" x="527.1328" y="164.0234">EUREF89 UTM sone 35</text><line style="stroke:#000000;stroke-width:1;" x1="522.1328" x2="522.1328" y1="148.4883" y2="168.9766"/><rect fill="none" height="40.9766" rx="5" ry="5" style="stroke:#000000;stroke-width:1.5;" width="290.4023" x="394.5" y="128"/><rect fill="#F1F1F1" height="40.9766" rx="5" ry="5" style="stroke:#F1F1F1;stroke-width:1.5;" width="369.248" x="355" y="187"/><text fill="#000000" font-family="sans-serif" font-size="14" font-weight="bold" lengthAdjust="spacing" textLength="71.9824" x="360" y="202.5352">kodeverdi</text><text fill="#000000" font-family="sans-serif" font-size="14" lengthAdjust="spacing" textLength="72.8232" x="487.6328" y="202.5352">EPSG:4258</text><line style="stroke:#000000;stroke-width:1;" x1="482.6328" x2="482.6328" y1="187" y2="207.4883"/><line style="stroke:#000000;stroke-width:1;" x1="355" x2="724.248" y1="207.4883" y2="207.4883"/><text fill="#000000" font-family="sans-serif" font-size="14" font-weight="bold" lengthAdjust="spacing" textLength="117.6328" x="360" y="223.0234">kodebeskrivelse</text><text fill="#000000" font-family="sans-serif" font-size="14" lengthAdjust="spacing" textLength="231.6152" x="487.6328" y="223.0234">EUREF 89 Geografisk (ETRS 89) 2d</text><line style="stroke:#000000;stroke-width:1;" x1="482.6328" x2="482.6328" y1="207.4883" y2="227.9766"/><rect fill="none" height="40.9766" rx="5" ry="5" style="stroke:#000000;stroke-width:1.5;" width="369.248" x="355" y="187"/><path d="M306,87.5 L319,87.5 C339.2698,87.5 336.3995,67.5552 355,59.5 C365.3459,55.0196 376.2863,51.2216 387.4676,48.0034" fill="none" style="stroke:#000000;stroke-width:1;stroke-dasharray:3.0,3.0;"/><path d="M388.2806,50.9548 L389.6812,47.3936 L386.6546,45.0519 L394.8462,45.9709 L388.2806,50.9548" fill="#000000" style="stroke:#000000;stroke-width:1;"/><ellipse cx="306" cy="87.5" fill="#000000" rx="3" ry="3" style="stroke:#000000;stroke-width:1;"/><path d="M306,108.5 L319,108.5 C341.0436,108.5 364.2836,107.5415 387.0706,106.055" fill="none" style="stroke:#000000;stroke-width:1;stroke-dasharray:3.0,3.0;"/><path d="M387.28,109.1382 L389.383,105.8979 L386.8611,102.9718 L394.7785,105.5313 L387.28,109.1382" fill="#000000" style="stroke:#000000;stroke-width:1;"/><ellipse cx="306" cy="108.5" fill="#000000" rx="3" ry="3" style="stroke:#000000;stroke-width:1;"/><path d="M306,128.5 L319,128.5 C341.0524,128.5 364.2973,129.509 387.0864,131.0737" fill="none" style="stroke:#000000;stroke-width:1;stroke-dasharray:3.0,3.0;"/><path d="M386.8659,134.1572 L389.399,131.2391 L387.307,127.9902 L394.7951,131.625 L386.8659,134.1572" fill="#000000" style="stroke:#000000;stroke-width:1;"/><ellipse cx="306" cy="128.5" fill="#000000" rx="3" ry="3" style="stroke:#000000;stroke-width:1;"/><path d="M306,149.5 L319,149.5 C339.5456,149.5 336.2168,170.1745 355,178.5 C359.7673,180.6131 364.6641,182.575 369.6551,184.3965" fill="none" style="stroke:#000000;stroke-width:1;stroke-dasharray:3.0,3.0;"/><path d="M368.6273,187.3468 L371.8678,185.1673 L370.6828,181.4462 L377.0308,186.9658 L368.6273,187.3468" fill="#000000" style="stroke:#000000;stroke-width:1;"/><ellipse cx="306" cy="149.5" fill="#000000" rx="3" ry="3" style="stroke:#000000;stroke-width:1;"/><path d="M246,118.5 L259,118.5 C268.399,118.5 278.8552,118.5 287.5144,118.5" fill="none" style="stroke:#000000;stroke-width:1;stroke-dasharray:3.0,3.0;"/><path d="M287.5144,121.5633 L289.8119,118.5 L287.5144,115.4367 L295.1727,118.5 L287.5144,121.5633" fill="#000000" style="stroke:#000000;stroke-width:1;"/><ellipse cx="246" cy="118.5" fill="#000000" rx="3" ry="3" style="stroke:#000000;stroke-width:1;"/><!--SRC=[bP8_Ry8m4CLtVufJ9f00GK8epOGA0OcIWlYtL1qCEIAJO2FRYOGGtxr7W7Q5vOPtx_ryzhbdBDTsRvHaPmRW7BMoAbLP9daXdG0SgHgfQUm4bMF6fLExkXxDL2aT2ycjEHcB1zItTe7Qx5NfADoRbAeOCq4c4hz903YNzTwYH2mSe40uMum2r-zwj-2VOuCcrQB0pE3Djvg7m-uxh9OHqFG852ZzbzfJUEzLlFSItdyLxp-DRnF_2JeGVeGgqNmdJ0gLS3bVa5O5DxuVHVM7NLWFPLn-03QZ1TjLD87h0eMIq6guJTTlk9LbZZ3c4fflqEe6dXzu7UY7IxYsgwmocate6hdU8iIqP2qskQLybOrvmM6UIoiE6C3qY78y-7m84Cf2Q2KFA2qRhwD_GwTT_n0M5gXf4bX7R80xdcUM4bj57ou9wEM6zIwRS9daF24sIjPNnDMd0Bwclm00]--></g></svg>