<?xml version="1.0" encoding="us-ascii" standalone="no"?><svg xmlns="http://www.w3.org/2000/svg" xmlns:xlink="http://www.w3.org/1999/xlink" contentStyleType="text/css" height="393px" preserveAspectRatio="none" style="width:487px;height:393px;background:#FFFFFF;" version="1.1" viewBox="0 0 487 393" width="487px" zoomAndPan="magnify"><defs/><g><rect fill="none" height="258.0176" style="stroke:#000000;stroke-width:1.5;" width="470" x="10" y="82.7988"/><line style="stroke:#181818;stroke-width:0.5;stroke-dasharray:5.0,5.0;" x1="63" x2="63" y1="36.4883" y2="100.1094"/><line style="stroke:#A80036;stroke-width:1.0;stroke-dasharray:1.0,4.0;" x1="63" x2="63" y1="100.1094" y2="141.0645"/><line style="stroke:#181818;stroke-width:0.5;stroke-dasharray:5.0,5.0;" x1="63" x2="63" y1="141.0645" y2="185.3301"/><line style="stroke:#A80036;stroke-width:1.0;stroke-dasharray:1.0,4.0;" x1="63" x2="63" y1="185.3301" y2="226.2852"/><line style="stroke:#181818;stroke-width:0.5;stroke-dasharray:5.0,5.0;" x1="63" x2="63" y1="226.2852" y2="270.5508"/><line style="stroke:#A80036;stroke-width:1.0;stroke-dasharray:1.0,4.0;" x1="63" x2="63" y1="270.5508" y2="311.5059"/><line style="stroke:#181818;stroke-width:0.5;stroke-dasharray:5.0,5.0;" x1="63" x2="63" y1="311.5059" y2="357.8164"/><line style="stroke:#181818;stroke-width:0.5;stroke-dasharray:5.0,5.0;" x1="422" x2="422" y1="36.4883" y2="100.1094"/><line style="stroke:#A80036;stroke-width:1.0;stroke-dasharray:1.0,4.0;" x1="422" x2="422" y1="100.1094" y2="141.0645"/><line style="stroke:#181818;stroke-width:0.5;stroke-dasharray:5.0,5.0;" x1="422" x2="422" y1="141.0645" y2="185.3301"/><line style="stroke:#A80036;stroke-width:1.0;stroke-dasharray:1.0,4.0;" x1="422" x2="422" y1="185.3301" y2="226.2852"/><line style="stroke:#181818;stroke-width:0.5;stroke-dasharray:5.0,5.0;" x1="422" x2="422" y1="226.2852" y2="270.5508"/><line style="stroke:#A80036;stroke-width:1.0;stroke-dasharray:1.0,4.0;" x1="422" x2="422" y1="270.5508" y2="311.5059"/><line style="stroke:#181818;stroke-width:0.5;stroke-dasharray:5.0,5.0;" x1="422" x2="422" y1="311.5059" y2="357.8164"/><rect fill="#E2E2F0" height="30.4883" rx="2.5" ry="2.5" style="stroke:#181818;stroke-width:0.5;" width="86" x="20" y="5"/><text fill="#000000" font-family="sans-serif" font-size="14" lengthAdjust="spacing" textLength="72" x="27" y="25.5352">Fagsystem</text><rect fill="#E2E2F0" height="30.4883" rx="2.5" ry="2.5" style="stroke:#181818;stroke-width:0.5;" width="86" x="20" y="356.8164"/><text fill="#000000" font-family="sans-serif" font-size="14" lengthAdjust="spacing" textLength="72" x="27" y="377.3516">Fagsystem</text><rect fill="#E2E2F0" height="30.4883" rx="2.5" ry="2.5" style="stroke:#181818;stroke-width:0.5;" width="96" x="374" y="5"/><text fill="#000000" font-family="sans-serif" font-size="14" lengthAdjust="spacing" textLength="82" x="381" y="25.5352">Planregister</text><rect fill="#E2E2F0" height="30.4883" rx="2.5" ry="2.5" style="stroke:#181818;stroke-width:0.5;" width="96" x="374" y="356.8164"/><text fill="#000000" font-family="sans-serif" font-size="14" lengthAdjust="spacing" textLength="82" x="381" y="377.3516">Planregister</text><polygon fill="#181818" points="410,63.7988,420,67.7988,410,71.7988,414,67.7988" style="stroke:#181818;stroke-width:1.0;"/><line style="stroke:#181818;stroke-width:1.0;" x1="63" x2="416" y1="67.7988" y2="67.7988"/><text fill="#000000" font-family="sans-serif" font-size="13" lengthAdjust="spacing" textLength="335" x="70" y="63.0566">no.ks.fiks.plan.v2.innsyn.arealplaner.finn.for.adresse</text><path d="M10,82.7988 L72,82.7988 L72,90.1094 L62,100.1094 L10,100.1094 L10,82.7988 " fill="#EEEEEE" style="stroke:#000000;stroke-width:1.5;"/><rect fill="none" height="258.0176" style="stroke:#000000;stroke-width:1.5;" width="470" x="10" y="82.7988"/><text fill="#000000" font-family="sans-serif" font-size="13" font-weight="bold" lengthAdjust="spacing" textLength="17" x="25" y="96.3672">alt</text><text fill="#000000" font-family="sans-serif" font-size="11" font-weight="bold" lengthAdjust="spacing" textLength="116" x="87" y="95.4336">[Finn arealplaner ok]</text><text fill="#000000" font-family="sans-serif" font-size="11" lengthAdjust="spacing" textLength="160" x="162.5" y="124.7441">resultat-melding med innhold</text><polygon fill="#181818" points="74,158.375,64,162.375,74,166.375,70,162.375" style="stroke:#181818;stroke-width:1.0;"/><line style="stroke:#181818;stroke-width:1.0;" x1="68" x2="421" y1="162.375" y2="162.375"/><text fill="#000000" font-family="sans-serif" font-size="13" lengthAdjust="spacing" textLength="313" x="80" y="157.6328">no.ks.fiks.plan.v2.innsyn.arealplaner.finn.resultat</text><line style="stroke:#000000;stroke-width:1.0;stroke-dasharray:2.0,2.0;" x1="10" x2="480" y1="171.375" y2="171.375"/><text fill="#000000" font-family="sans-serif" font-size="11" font-weight="bold" lengthAdjust="spacing" textLength="219" x="15" y="182.0098">[Feil: finn-meldingen var ikke korrekt]</text><text fill="#000000" font-family="sans-serif" font-size="11" lengthAdjust="spacing" textLength="135" x="175" y="209.9648">feil-melding med innhold</text><polygon fill="#181818" points="74,243.5957,64,247.5957,74,251.5957,70,247.5957" style="stroke:#181818;stroke-width:1.0;"/><line style="stroke:#181818;stroke-width:1.0;" x1="68" x2="421" y1="247.5957" y2="247.5957"/><text fill="#000000" font-family="sans-serif" font-size="13" lengthAdjust="spacing" textLength="317" x="80" y="242.8535">no.ks.fiks.plan.v2.feilmelding.ugyldigforespoersel</text><line style="stroke:#000000;stroke-width:1.0;stroke-dasharray:2.0,2.0;" x1="10" x2="480" y1="256.5957" y2="256.5957"/><text fill="#000000" font-family="sans-serif" font-size="11" font-weight="bold" lengthAdjust="spacing" textLength="187" x="15" y="267.2305">[Feil: planregister fikk serverfeil]</text><text fill="#000000" font-family="sans-serif" font-size="11" lengthAdjust="spacing" textLength="135" x="175" y="295.1855">feil-melding med innhold</text><polygon fill="#181818" points="74,328.8164,64,332.8164,74,336.8164,70,332.8164" style="stroke:#181818;stroke-width:1.0;"/><line style="stroke:#181818;stroke-width:1.0;" x1="68" x2="421" y1="332.8164" y2="332.8164"/><text fill="#000000" font-family="sans-serif" font-size="13" lengthAdjust="spacing" textLength="250" x="80" y="328.0742">no.ks.fiks.plan.v2.feilmelding.serverfeil</text><!--SRC=[jP31QiGm34Jl_WhzG7JeSIazvjnVC7YI6ZjoaBo1_7rbw9RiTMalmj8CCm_FSRNJEZQQFkYpHb6isNUzaJGknalsiRl0nnjd4Jk5eoBMSOEwBi9BKuv9OOOGOkqq-vKkDcebCBCxxhN7FcseASjA6nAvzQlLv788yo_E-_GwpgCc15G3pSZrHaDvz4BeY4gv551fgYXzu2rk_2Eq4VMJnFVrzCVgdmJR6zHGdyZsIvXZba86FQ0Zun-nBYK1ahu1]--></g></svg>