<svg xmlns="http://www.w3.org/2000/svg" xmlns:xlink="http://www.w3.org/1999/xlink" contentStyleType="text/css" data-diagram-type="CLASS" height="393px" preserveAspectRatio="none" style="width:563px;height:393px;background:#FFFFFF;" version="1.1" viewBox="0 0 563 393" width="563px" zoomAndPan="magnify"><defs/><g><!--class Saksnummer--><g class="entity" data-entity="Saksnummer" data-source-line="2" data-uid="ent0002" id="entity_Saksnummer"><rect fill="#F1F1F1" height="80.9766" rx="2.5" ry="2.5" style="stroke:#181818;stroke-width:0.5;" width="224.1123" x="7" y="147.98"/><ellipse cx="70.9878" cy="163.98" fill="#ADD1B2" rx="11" ry="11" style="stroke:#181818;stroke-width:1;"/><path d="M73.4609,170.1231 Q72.8799,170.4219 72.2407,170.5713 Q71.6016,170.7207 70.896,170.7207 Q68.3892,170.7207 67.0693,169.0689 Q65.7495,167.417 65.7495,164.2959 Q65.7495,161.1665 67.0693,159.5147 Q68.3892,157.8628 70.896,157.8628 Q71.6016,157.8628 72.249,158.0122 Q72.8965,158.1616 73.4609,158.4605 L73.4609,161.1831 Q72.8301,160.6021 72.2366,160.3323 Q71.6431,160.0625 71.0122,160.0625 Q69.6675,160.0625 68.9827,161.1292 Q68.2979,162.1958 68.2979,164.2959 Q68.2979,166.3877 68.9827,167.4544 Q69.6675,168.521 71.0122,168.521 Q71.6431,168.521 72.2366,168.2512 Q72.8301,167.9815 73.4609,167.4004 Z " fill="#000000"/><text fill="#000000" font-family="sans-serif" font-size="14" lengthAdjust="spacing" textLength="87.6367" x="91.4878" y="169.271">Saksnummer</text><line style="stroke:#181818;stroke-width:0.5;" x1="8" x2="230.1123" y1="179.98" y2="179.98"/><ellipse cx="18" cy="193.7241" fill="none" rx="3" ry="3" style="stroke:#038048;stroke-width:1;"/><text fill="#000000" font-family="sans-serif" font-size="14" lengthAdjust="spacing" textLength="108.2676" x="27" y="197.5152">saksaar: integer</text><ellipse cx="18" cy="210.2124" fill="none" rx="3" ry="3" style="stroke:#038048;stroke-width:1;"/><text fill="#000000" font-family="sans-serif" font-size="14" lengthAdjust="spacing" textLength="198.1123" x="27" y="214.0034">sakssekvensnummer: integer</text><line style="stroke:#181818;stroke-width:0.5;" x1="8" x2="230.1123" y1="220.9566" y2="220.9566"/></g><!--class NasjonalArealplanId--><g class="entity" data-entity="NasjonalArealplanId" data-source-line="1" data-uid="ent0003" id="entity_NasjonalArealplanId"><rect fill="#F1F1F1" height="80.9766" rx="2.5" ry="2.5" style="stroke:#181818;stroke-width:0.5;" width="290.3047" x="265.9" y="147.98"/><ellipse cx="338.9898" cy="163.98" fill="#ADD1B2" rx="11" ry="11" style="stroke:#181818;stroke-width:1;"/><path d="M341.463,170.1231 Q340.8819,170.4219 340.2428,170.5713 Q339.6036,170.7207 338.898,170.7207 Q336.3912,170.7207 335.0714,169.0689 Q333.7516,167.417 333.7516,164.2959 Q333.7516,161.1665 335.0714,159.5147 Q336.3912,157.8628 338.898,157.8628 Q339.6036,157.8628 340.2511,158.0122 Q340.8985,158.1616 341.463,158.4605 L341.463,161.1831 Q340.8321,160.6021 340.2386,160.3323 Q339.6451,160.0625 339.0143,160.0625 Q337.6695,160.0625 336.9847,161.1292 Q336.2999,162.1958 336.2999,164.2959 Q336.2999,166.3877 336.9847,167.4544 Q337.6695,168.521 339.0143,168.521 Q339.6451,168.521 340.2386,168.2512 Q340.8321,167.9815 341.463,167.4004 Z " fill="#000000"/><text fill="#000000" font-family="sans-serif" font-size="14" lengthAdjust="spacing" textLength="135.625" x="359.4898" y="169.271">NasjonalArealplanId</text><line style="stroke:#181818;stroke-width:0.5;" x1="266.9" x2="555.2047" y1="179.98" y2="179.98"/><ellipse cx="276.9" cy="193.7241" fill="none" rx="3" ry="3" style="stroke:#038048;stroke-width:1;"/><text fill="#000000" font-family="sans-serif" font-size="14" lengthAdjust="spacing" textLength="264.3047" x="285.9" y="197.5152">administrativEnhet: AdministrativEnhet</text><ellipse cx="276.9" cy="210.2124" fill="none" rx="3" ry="3" style="stroke:#038048;stroke-width:1;"/><text fill="#000000" font-family="sans-serif" font-size="14" lengthAdjust="spacing" textLength="170.126" x="285.9" y="214.0034">planidentifikasjon: string</text><line style="stroke:#181818;stroke-width:0.5;" x1="266.9" x2="555.2047" y1="220.9566" y2="220.9566"/></g><!--class AdministrativEnhet--><g class="entity" data-entity="AdministrativEnhet" data-source-line="6" data-uid="ent0004" id="entity_AdministrativEnhet"><rect fill="#F1F1F1" height="97.4648" rx="2.5" ry="2.5" style="stroke:#181818;stroke-width:0.5;" width="160.6865" x="330.71" y="288.96"/><ellipse cx="345.71" cy="304.96" fill="#EB937F" rx="11" ry="11" style="stroke:#181818;stroke-width:1;"/><path d="M349.3243,311.46 L341.6045,311.46 L341.6045,299.0669 L349.3243,299.0669 L349.3243,301.2251 L344.0533,301.2251 L344.0533,303.898 L348.8262,303.898 L348.8262,306.0562 L344.0533,306.0562 L344.0533,309.3018 L349.3243,309.3018 Z " fill="#000000"/><text fill="#000000" font-family="sans-serif" font-size="14" lengthAdjust="spacing" textLength="128.6865" x="359.71" y="310.251">AdministrativEnhet</text><line style="stroke:#181818;stroke-width:0.5;" x1="331.71" x2="490.3965" y1="320.96" y2="320.96"/><text fill="#000000" font-family="sans-serif" font-size="14" lengthAdjust="spacing" textLength="125.1455" x="336.71" y="338.4952">kommunenummer</text><text fill="#000000" font-family="sans-serif" font-size="14" lengthAdjust="spacing" textLength="96.6738" x="336.71" y="354.9834">fylkesnummer</text><text fill="#000000" font-family="sans-serif" font-size="14" lengthAdjust="spacing" textLength="69.8086" x="336.71" y="371.4717">landskode</text><line style="stroke:#181818;stroke-width:0.5;" x1="331.71" x2="490.3965" y1="378.4248" y2="378.4248"/></g><!--class OpprettArealplanKvittering--><g class="entity" data-entity="OpprettArealplanKvittering" data-source-line="4" data-uid="ent0006" id="entity_OpprettArealplanKvittering"><rect fill="#F1F1F1" height="80.9766" rx="2.5" ry="2.5" style="stroke:#181818;stroke-width:0.5;" width="304.4551" x="112.83" y="7"/><ellipse cx="169.4862" cy="23" fill="#ADD1B2" rx="11" ry="11" style="stroke:#181818;stroke-width:1;"/><path d="M171.9594,29.1431 Q171.3783,29.4419 170.7392,29.5913 Q170.1,29.7407 169.3945,29.7407 Q166.8876,29.7407 165.5678,28.0889 Q164.248,26.437 164.248,23.3159 Q164.248,20.1865 165.5678,18.5347 Q166.8876,16.8828 169.3945,16.8828 Q170.1,16.8828 170.7475,17.0322 Q171.3949,17.1816 171.9594,17.4805 L171.9594,20.2031 Q171.3285,19.6221 170.735,19.3523 Q170.1415,19.0825 169.5107,19.0825 Q168.1659,19.0825 167.4811,20.1492 Q166.7963,21.2158 166.7963,23.3159 Q166.7963,25.4077 167.4811,26.4744 Q168.1659,27.541 169.5107,27.541 Q170.1415,27.541 170.735,27.2712 Q171.3285,27.0015 171.9594,26.4204 Z " fill="#000000"/><text fill="#000000" font-family="sans-serif" font-size="14" lengthAdjust="spacing" textLength="182.6426" x="189.9862" y="28.291">OpprettArealplanKvittering</text><line style="stroke:#181818;stroke-width:0.5;" x1="113.83" x2="416.2851" y1="39" y2="39"/><ellipse cx="123.83" cy="52.7441" fill="none" rx="3" ry="3" style="stroke:#038048;stroke-width:1;"/><text fill="#000000" font-family="sans-serif" font-size="14" lengthAdjust="spacing" textLength="278.4551" x="132.83" y="56.5352">nasjonalArealplanId: NasjonalArealplanId</text><ellipse cx="123.83" cy="69.2324" fill="none" rx="3" ry="3" style="stroke:#038048;stroke-width:1;"/><text fill="#000000" font-family="sans-serif" font-size="14" lengthAdjust="spacing" textLength="183.7295" x="132.83" y="73.0234">saksnummer: Saksnummer</text><line style="stroke:#181818;stroke-width:0.5;" x1="113.83" x2="416.2851" y1="79.9766" y2="79.9766"/></g><!--link NasjonalArealplanId to AdministrativEnhet--><g class="link" data-entity-1="NasjonalArealplanId" data-entity-2="AdministrativEnhet" data-source-line="6" data-uid="lnk5" id="link_NasjonalArealplanId_AdministrativEnhet"><path codeLine="6" d="M411.06,229.31 C411.06,247.62 411.06,269.48 411.06,288.69" fill="none" id="NasjonalArealplanId-AdministrativEnhet" style="stroke:#181818;stroke-width:1;"/></g><!--link OpprettArealplanKvittering to NasjonalArealplanId--><g class="link" data-entity-1="OpprettArealplanKvittering" data-entity-2="NasjonalArealplanId" data-source-line="9" data-uid="lnk7" id="link_OpprettArealplanKvittering_NasjonalArealplanId"><path codeLine="9" d="M306.89,88.32 C326.44,106.92 349.66,129.03 369.21,147.64" fill="none" id="OpprettArealplanKvittering-NasjonalArealplanId" style="stroke:#181818;stroke-width:1;"/></g><!--link OpprettArealplanKvittering to Saksnummer--><g class="link" data-entity-1="OpprettArealplanKvittering" data-entity-2="Saksnummer" data-source-line="10" data-uid="lnk8" id="link_OpprettArealplanKvittering_Saksnummer"><path codeLine="10" d="M223.22,88.32 C203.67,106.92 180.45,129.03 160.9,147.64" fill="none" id="OpprettArealplanKvittering-Saksnummer" style="stroke:#181818;stroke-width:1;"/></g><!--SRC=[ZKwz2i903DxlAQwpD0UEtHn5qC4d26sKisbwNAvTn7UtHTeAbcA6yF7z9PcNahkAB3W09otK2ZS_hC0eqE_XHioae5YhT4r3qIqGGcUoFmi4zT4ACaP27ZLVkHLkh3GbewgzX10ffSCaddgV4aKlT_iqTfZTb9yjnwgmvr_ourx-BknrnkPbpCQbF5yjt4vyjRy1]--></g></svg>