<?xml version="1.0" encoding="us-ascii" standalone="no"?><svg xmlns="http://www.w3.org/2000/svg" xmlns:xlink="http://www.w3.org/1999/xlink" contentStyleType="text/css" height="202px" preserveAspectRatio="none" style="width:1365px;height:202px;background:#FFFFFF;" version="1.1" viewBox="0 0 1365 202" width="1365px" zoomAndPan="magnify"><defs/><g><!--class OpprettArealplanKvittering--><g id="elem_OpprettArealplanKvittering"><rect codeLine="2" fill="#F1F1F1" height="80.9766" id="OpprettArealplanKvittering" rx="2.5" ry="2.5" style="stroke:#181818;stroke-width:0.5;" width="309" x="548" y="7"/><ellipse cx="605.75" cy="23" fill="#ADD1B2" rx="11" ry="11" style="stroke:#181818;stroke-width:1.0;"/><path d="M608.2231,29.1431 Q607.6421,29.4419 607.0029,29.5913 Q606.3638,29.7407 605.6582,29.7407 Q603.1514,29.7407 601.8315,28.0889 Q600.5117,26.437 600.5117,23.3159 Q600.5117,20.1865 601.8315,18.5347 Q603.1514,16.8828 605.6582,16.8828 Q606.3638,16.8828 607.0112,17.0322 Q607.6587,17.1816 608.2231,17.4805 L608.2231,20.2031 Q607.5923,19.6221 606.9988,19.3523 Q606.4053,19.0825 605.7744,19.0825 Q604.4297,19.0825 603.7449,20.1492 Q603.0601,21.2158 603.0601,23.3159 Q603.0601,25.4077 603.7449,26.4744 Q604.4297,27.541 605.7744,27.541 Q606.4053,27.541 606.9988,27.2712 Q607.5923,27.0015 608.2231,26.4204 Z " fill="#000000"/><text fill="#000000" font-family="sans-serif" font-size="14" lengthAdjust="spacing" textLength="185" x="626.25" y="28.291">OpprettArealplanKvittering</text><line style="stroke:#181818;stroke-width:0.5;" x1="549" x2="856" y1="39" y2="39"/><ellipse cx="559" cy="52.7441" fill="none" rx="3" ry="3" style="stroke:#038048;stroke-width:1.0;"/><text fill="#000000" font-family="sans-serif" font-size="14" lengthAdjust="spacing" textLength="283" x="568" y="56.5352">nasjonalArealplanId: NasjonalArealplanId</text><ellipse cx="559" cy="69.2324" fill="none" rx="3" ry="3" style="stroke:#038048;stroke-width:1.0;"/><text fill="#000000" font-family="sans-serif" font-size="14" lengthAdjust="spacing" textLength="185" x="568" y="73.0234">saksnummer: Saksnummer</text><line style="stroke:#181818;stroke-width:0.5;" x1="549" x2="856" y1="79.9766" y2="79.9766"/></g><!--class NasjonalArealplanId--><g id="elem_NasjonalArealplanId"><rect fill="#F1F1F1" height="48" id="NasjonalArealplanId" rx="2.5" ry="2.5" style="stroke:#181818;stroke-width:0.5;" width="170" x="461.5" y="147.98"/><ellipse cx="476.5" cy="163.98" fill="#ADD1B2" rx="11" ry="11" style="stroke:#181818;stroke-width:1.0;"/><path d="M478.9731,170.1231 Q478.3921,170.4219 477.7529,170.5713 Q477.1138,170.7207 476.4082,170.7207 Q473.9014,170.7207 472.5815,169.0689 Q471.2617,167.417 471.2617,164.2959 Q471.2617,161.1665 472.5815,159.5147 Q473.9014,157.8628 476.4082,157.8628 Q477.1138,157.8628 477.7612,158.0122 Q478.4087,158.1616 478.9731,158.4605 L478.9731,161.1831 Q478.3423,160.6021 477.7488,160.3323 Q477.1553,160.0625 476.5244,160.0625 Q475.1797,160.0625 474.4949,161.1292 Q473.8101,162.1958 473.8101,164.2959 Q473.8101,166.3877 474.4949,167.4544 Q475.1797,168.521 476.5244,168.521 Q477.1553,168.521 477.7488,168.2512 Q478.3423,167.9815 478.9731,167.4004 Z " fill="#000000"/><text fill="#000000" font-family="sans-serif" font-size="14" lengthAdjust="spacing" textLength="138" x="490.5" y="169.271">NasjonalArealplanId</text><line style="stroke:#181818;stroke-width:0.5;" x1="462.5" x2="630.5" y1="179.98" y2="179.98"/><line style="stroke:#181818;stroke-width:0.5;" x1="462.5" x2="630.5" y1="187.98" y2="187.98"/></g><!--class Saksnummer--><g id="elem_Saksnummer"><rect fill="#F1F1F1" height="48" id="Saksnummer" rx="2.5" ry="2.5" style="stroke:#181818;stroke-width:0.5;" width="121" x="798" y="147.98"/><ellipse cx="813" cy="163.98" fill="#ADD1B2" rx="11" ry="11" style="stroke:#181818;stroke-width:1.0;"/><path d="M815.4731,170.1231 Q814.8921,170.4219 814.2529,170.5713 Q813.6138,170.7207 812.9082,170.7207 Q810.4014,170.7207 809.0815,169.0689 Q807.7617,167.417 807.7617,164.2959 Q807.7617,161.1665 809.0815,159.5147 Q810.4014,157.8628 812.9082,157.8628 Q813.6138,157.8628 814.2612,158.0122 Q814.9087,158.1616 815.4731,158.4605 L815.4731,161.1831 Q814.8423,160.6021 814.2488,160.3323 Q813.6553,160.0625 813.0244,160.0625 Q811.6797,160.0625 810.9949,161.1292 Q810.3101,162.1958 810.3101,164.2959 Q810.3101,166.3877 810.9949,167.4544 Q811.6797,168.521 813.0244,168.521 Q813.6553,168.521 814.2488,168.2512 Q814.8423,167.9815 815.4731,167.4004 Z " fill="#000000"/><text fill="#000000" font-family="sans-serif" font-size="14" lengthAdjust="spacing" textLength="89" x="827" y="169.271">Saksnummer</text><line style="stroke:#181818;stroke-width:0.5;" x1="799" x2="918" y1="179.98" y2="179.98"/><line style="stroke:#181818;stroke-width:0.5;" x1="799" x2="918" y1="187.98" y2="187.98"/></g><g id="elem_GMN7"><path d="M6,34.84 L6,60.1505 A0,0 0 0 0 6,60.1505 L283.8,60.1505 L491.57,147.53 L291.8,60.1505 L513,60.1505 A0,0 0 0 0 513,60.1505 L513,44.84 L503,34.84 L6,34.84 A0,0 0 0 0 6,34.84 " fill="#FEFFDD" style="stroke:#181818;stroke-width:0.5;"/><path d="M503,34.84 L503,44.84 L513,44.84 L503,34.84 " fill="#FEFFDD" style="stroke:#181818;stroke-width:0.5;"/><text fill="#000000" font-family="sans-serif" font-size="13" lengthAdjust="spacing" textLength="486" x="12" y="52.4084">Se detaljer i diagram for skjema 'no.ks.fiks.plan.v2.felles.nasjonalarealplanid'</text></g><g id="elem_GMN10"><path d="M892.5,34.84 L892.5,60.1505 A0,0 0 0 0 892.5,60.1505 L1095.41,60.1505 L909.72,147.48 L1103.41,60.1505 L1358.5,60.1505 A0,0 0 0 0 1358.5,60.1505 L1358.5,44.84 L1348.5,34.84 L892.5,34.84 A0,0 0 0 0 892.5,34.84 " fill="#FEFFDD" style="stroke:#181818;stroke-width:0.5;"/><path d="M1348.5,34.84 L1348.5,44.84 L1358.5,44.84 L1348.5,34.84 " fill="#FEFFDD" style="stroke:#181818;stroke-width:0.5;"/><text fill="#000000" font-family="sans-serif" font-size="13" lengthAdjust="spacing" textLength="445" x="898.5" y="52.4084">Se detaljer i diagram for skjema 'no.ks.fiks.plan.v2.felles.saksnummer'</text></g><!--link OpprettArealplanKvittering to NasjonalArealplanId--><g id="link_OpprettArealplanKvittering_NasjonalArealplanId"><path codeLine="7" d="M651.85,88.26 C626.76,107.96 597.35,131.05 575.99,147.83 " fill="none" id="OpprettArealplanKvittering-NasjonalArealplanId" style="stroke:#181818;stroke-width:1.0;"/></g><!--link OpprettArealplanKvittering to Saksnummer--><g id="link_OpprettArealplanKvittering_Saksnummer"><path codeLine="8" d="M753.15,88.26 C778.24,107.96 807.65,131.05 829.01,147.83 " fill="none" id="OpprettArealplanKvittering-Saksnummer" style="stroke:#181818;stroke-width:1.0;"/></g><!--SRC=[fL2z2i903DxlAR9raDxWsCrH11ryWk3bohNtHt9s4T_TYhHLb2vc225yVtmNZo9mofcfb1qJ-kmn7WPN2h6BBTmKZBE9A5sAw6V8tZHm_7w-q8Azn6i8n0sSvrlTbLfngkkVWkkCDtKLKo4eAKEolvHWp49WgA3lYC61STWo1h29GVgE0a8La-v5MpUk9qiFMst9Un8zDO2JeZFLX-KIvK-dfRrAFG00]--></g></svg>