<svg xmlns="http://www.w3.org/2000/svg" xmlns:xlink="http://www.w3.org/1999/xlink" contentStyleType="text/css" data-diagram-type="CLASS" height="913px" preserveAspectRatio="none" style="width:2127px;height:913px;background:#FFFFFF;" version="1.1" viewBox="0 0 2127 913" width="2127px" zoomAndPan="magnify"><defs/><g><!--class NasjonalArealplanId--><g class="entity" data-entity="NasjonalArealplanId" data-source-line="1" data-uid="ent0002" id="entity_NasjonalArealplanId"><rect fill="#F1F1F1" height="80.9766" rx="2.5" ry="2.5" style="stroke:#181818;stroke-width:0.5;" width="290.3047" x="7" y="635.2"/><ellipse cx="80.0898" cy="651.2" fill="#ADD1B2" rx="11" ry="11" style="stroke:#181818;stroke-width:1;"/><path d="M82.563,657.3431 Q81.9819,657.6419 81.3428,657.7913 Q80.7036,657.9407 79.998,657.9407 Q77.4912,657.9407 76.1714,656.2889 Q74.8516,654.637 74.8516,651.5159 Q74.8516,648.3865 76.1714,646.7347 Q77.4912,645.0828 79.998,645.0828 Q80.7036,645.0828 81.3511,645.2322 Q81.9985,645.3816 82.563,645.6805 L82.563,648.4031 Q81.9321,647.8221 81.3386,647.5523 Q80.7451,647.2825 80.1143,647.2825 Q78.7695,647.2825 78.0847,648.3492 Q77.3999,649.4158 77.3999,651.5159 Q77.3999,653.6077 78.0847,654.6744 Q78.7695,655.741 80.1143,655.741 Q80.7451,655.741 81.3386,655.4712 Q81.9321,655.2015 82.563,654.6204 Z " fill="#000000"/><text fill="#000000" font-family="sans-serif" font-size="14" lengthAdjust="spacing" textLength="135.625" x="100.5898" y="656.491">NasjonalArealplanId</text><line style="stroke:#181818;stroke-width:0.5;" x1="8" x2="296.3047" y1="667.2" y2="667.2"/><ellipse cx="18" cy="680.9441" fill="none" rx="3" ry="3" style="stroke:#038048;stroke-width:1;"/><text fill="#000000" font-family="sans-serif" font-size="14" lengthAdjust="spacing" textLength="264.3047" x="27" y="684.7352">administrativEnhet: AdministrativEnhet</text><ellipse cx="18" cy="697.4324" fill="none" rx="3" ry="3" style="stroke:#038048;stroke-width:1;"/><text fill="#000000" font-family="sans-serif" font-size="14" lengthAdjust="spacing" textLength="170.126" x="27" y="701.2234">planidentifikasjon: string</text><line style="stroke:#181818;stroke-width:0.5;" x1="8" x2="296.3047" y1="708.1766" y2="708.1766"/></g><!--class AdministrativEnhet--><g class="entity" data-entity="AdministrativEnhet" data-source-line="6" data-uid="ent0003" id="entity_AdministrativEnhet"><rect fill="#F1F1F1" height="97.4648" rx="2.5" ry="2.5" style="stroke:#181818;stroke-width:0.5;" width="160.6865" x="71.81" y="809.16"/><ellipse cx="86.81" cy="825.16" fill="#EB937F" rx="11" ry="11" style="stroke:#181818;stroke-width:1;"/><path d="M90.4243,831.66 L82.7045,831.66 L82.7045,819.2669 L90.4243,819.2669 L90.4243,821.4251 L85.1533,821.4251 L85.1533,824.098 L89.9262,824.098 L89.9262,826.2562 L85.1533,826.2562 L85.1533,829.5018 L90.4243,829.5018 Z " fill="#000000"/><text fill="#000000" font-family="sans-serif" font-size="14" lengthAdjust="spacing" textLength="128.6865" x="100.81" y="830.451">AdministrativEnhet</text><line style="stroke:#181818;stroke-width:0.5;" x1="72.81" x2="231.4965" y1="841.16" y2="841.16"/><text fill="#000000" font-family="sans-serif" font-size="14" lengthAdjust="spacing" textLength="125.1455" x="77.81" y="858.6952">kommunenummer</text><text fill="#000000" font-family="sans-serif" font-size="14" lengthAdjust="spacing" textLength="96.6738" x="77.81" y="875.1834">fylkesnummer</text><text fill="#000000" font-family="sans-serif" font-size="14" lengthAdjust="spacing" textLength="69.8086" x="77.81" y="891.6717">landskode</text><line style="stroke:#181818;stroke-width:0.5;" x1="72.81" x2="231.4965" y1="898.6248" y2="898.6248"/></g><!--class Posisjon--><g class="entity" data-entity="Posisjon" data-source-line="1" data-uid="ent0005" id="entity_Posisjon"><rect fill="#F1F1F1" height="97.4648" rx="2.5" ry="2.5" style="stroke:#181818;stroke-width:0.5;" width="262.4551" x="331.92" y="626.96"/><ellipse cx="430.795" cy="642.96" fill="#ADD1B2" rx="11" ry="11" style="stroke:#181818;stroke-width:1;"/><path d="M433.2681,649.1031 Q432.6871,649.4019 432.0479,649.5513 Q431.4088,649.7007 430.7032,649.7007 Q428.1964,649.7007 426.8765,648.0489 Q425.5567,646.397 425.5567,643.2759 Q425.5567,640.1465 426.8765,638.4947 Q428.1964,636.8428 430.7032,636.8428 Q431.4088,636.8428 432.0562,636.9922 Q432.7037,637.1416 433.2681,637.4405 L433.2681,640.1631 Q432.6373,639.5821 432.0438,639.3123 Q431.4503,639.0425 430.8194,639.0425 Q429.4747,639.0425 428.7899,640.1092 Q428.1051,641.1758 428.1051,643.2759 Q428.1051,645.3677 428.7899,646.4344 Q429.4747,647.501 430.8194,647.501 Q431.4503,647.501 432.0438,647.2312 Q432.6373,646.9615 433.2681,646.3804 Z " fill="#000000"/><text fill="#000000" font-family="sans-serif" font-size="14" lengthAdjust="spacing" textLength="56.2051" x="451.295" y="648.251">Posisjon</text><line style="stroke:#181818;stroke-width:0.5;" x1="332.92" x2="593.3751" y1="658.96" y2="658.96"/><ellipse cx="342.92" cy="672.7041" fill="none" rx="3" ry="3" style="stroke:#038048;stroke-width:1;"/><text fill="#000000" font-family="sans-serif" font-size="14" lengthAdjust="spacing" textLength="127.0049" x="351.92" y="676.4952">type: PosisjonType</text><ellipse cx="342.92" cy="689.1924" fill="none" rx="3" ry="3" style="stroke:#038048;stroke-width:1;"/><text fill="#000000" font-family="sans-serif" font-size="14" lengthAdjust="spacing" textLength="149.9053" x="351.92" y="692.9834">koordinater: number[]</text><ellipse cx="342.92" cy="705.6807" fill="none" rx="3" ry="3" style="stroke:#038048;stroke-width:1;"/><text fill="#000000" font-family="sans-serif" font-size="14" lengthAdjust="spacing" textLength="236.4551" x="351.92" y="709.4717">koordinatsystem: Koordinatsystem</text><line style="stroke:#181818;stroke-width:0.5;" x1="332.92" x2="593.3751" y1="716.4248" y2="716.4248"/></g><!--class Koordinatsystem--><g class="entity" data-entity="Koordinatsystem" data-source-line="7" data-uid="ent0006" id="entity_Koordinatsystem"><rect fill="#F1F1F1" height="89.5977" rx="2.5" ry="2.5" style="stroke:#181818;stroke-width:0.5;" width="183.5547" x="319.38" y="813.09"/><ellipse cx="351.1552" cy="833.4005" fill="#ADD1B2" rx="11" ry="11" style="stroke:#181818;stroke-width:1;"/><path d="M353.6284,839.5436 Q353.0473,839.8424 352.4082,839.9919 Q351.769,840.1413 351.0634,840.1413 Q348.5566,840.1413 347.2368,838.4894 Q345.917,836.8376 345.917,833.7165 Q345.917,830.5871 347.2368,828.9352 Q348.5566,827.2834 351.0634,827.2834 Q351.769,827.2834 352.4165,827.4328 Q353.0639,827.5822 353.6284,827.881 L353.6284,830.6037 Q352.9975,830.0226 352.404,829.7528 Q351.8105,829.4831 351.1797,829.4831 Q349.8349,829.4831 349.1501,830.5497 Q348.4653,831.6164 348.4653,833.7165 Q348.4653,835.8083 349.1501,836.8749 Q349.8349,837.9416 351.1797,837.9416 Q351.8105,837.9416 352.404,837.6718 Q352.9975,837.402 353.6284,836.821 Z " fill="#000000"/><text fill="#000000" font-family="sans-serif" font-size="12" font-style="italic" lengthAdjust="spacing" textLength="42.0176" x="405.0125" y="829.6916">&#171;Kode&#187;</text><text fill="#000000" font-family="sans-serif" font-size="14" lengthAdjust="spacing" textLength="114.2764" x="368.8831" y="845.758">Koordinatsystem</text><line style="stroke:#181818;stroke-width:0.5;" x1="320.38" x2="501.9347" y1="853.7111" y2="853.7111"/><ellipse cx="330.38" cy="867.4552" fill="none" rx="3" ry="3" style="stroke:#038048;stroke-width:1;"/><text fill="#000000" font-family="sans-serif" font-size="14" lengthAdjust="spacing" textLength="115.4521" x="339.38" y="871.2463">kodeverdi: string</text><ellipse cx="330.38" cy="883.9435" fill="none" rx="3" ry="3" style="stroke:#038048;stroke-width:1;"/><text fill="#000000" font-family="sans-serif" font-size="14" lengthAdjust="spacing" textLength="157.5547" x="339.38" y="887.7345">kodebeskrivelse: string</text><line style="stroke:#181818;stroke-width:0.5;" x1="320.38" x2="501.9347" y1="894.6877" y2="894.6877"/></g><!--class PosisjonType--><g class="entity" data-entity="PosisjonType" data-source-line="8" data-uid="ent0008" id="entity_PosisjonType"><rect fill="#F1F1F1" height="64.4883" rx="2.5" ry="2.5" style="stroke:#181818;stroke-width:0.5;" width="120.9834" x="537.66" y="825.64"/><ellipse cx="552.66" cy="841.64" fill="#EB937F" rx="11" ry="11" style="stroke:#181818;stroke-width:1;"/><path d="M556.2743,848.14 L548.5545,848.14 L548.5545,835.7469 L556.2743,835.7469 L556.2743,837.9051 L551.0033,837.9051 L551.0033,840.578 L555.7762,840.578 L555.7762,842.7362 L551.0033,842.7362 L551.0033,845.9818 L556.2743,845.9818 Z " fill="#000000"/><text fill="#000000" font-family="sans-serif" font-size="14" lengthAdjust="spacing" textLength="88.9834" x="566.66" y="846.931">PosisjonType</text><line style="stroke:#181818;stroke-width:0.5;" x1="538.66" x2="657.6434" y1="857.64" y2="857.64"/><text fill="#000000" font-family="sans-serif" font-size="14" lengthAdjust="spacing" textLength="34.3096" x="543.66" y="875.1752">Point</text><line style="stroke:#181818;stroke-width:0.5;" x1="538.66" x2="657.6434" y1="882.1283" y2="882.1283"/></g><!--class Saksnummer--><g class="entity" data-entity="Saksnummer" data-source-line="2" data-uid="ent0010" id="entity_Saksnummer"><rect fill="#F1F1F1" height="80.9766" rx="2.5" ry="2.5" style="stroke:#181818;stroke-width:0.5;" width="224.1123" x="629.1" y="635.2"/><ellipse cx="693.0878" cy="651.2" fill="#ADD1B2" rx="11" ry="11" style="stroke:#181818;stroke-width:1;"/><path d="M695.5609,657.3431 Q694.9799,657.6419 694.3407,657.7913 Q693.7016,657.9407 692.996,657.9407 Q690.4892,657.9407 689.1693,656.2889 Q687.8495,654.637 687.8495,651.5159 Q687.8495,648.3865 689.1693,646.7347 Q690.4892,645.0828 692.996,645.0828 Q693.7016,645.0828 694.349,645.2322 Q694.9965,645.3816 695.5609,645.6805 L695.5609,648.4031 Q694.9301,647.8221 694.3366,647.5523 Q693.7431,647.2825 693.1122,647.2825 Q691.7675,647.2825 691.0827,648.3492 Q690.3979,649.4158 690.3979,651.5159 Q690.3979,653.6077 691.0827,654.6744 Q691.7675,655.741 693.1122,655.741 Q693.7431,655.741 694.3366,655.4712 Q694.9301,655.2015 695.5609,654.6204 Z " fill="#000000"/><text fill="#000000" font-family="sans-serif" font-size="14" lengthAdjust="spacing" textLength="87.6367" x="713.5878" y="656.491">Saksnummer</text><line style="stroke:#181818;stroke-width:0.5;" x1="630.1" x2="852.2123" y1="667.2" y2="667.2"/><ellipse cx="640.1" cy="680.9441" fill="none" rx="3" ry="3" style="stroke:#038048;stroke-width:1;"/><text fill="#000000" font-family="sans-serif" font-size="14" lengthAdjust="spacing" textLength="108.2676" x="649.1" y="684.7352">saksaar: integer</text><ellipse cx="640.1" cy="697.4324" fill="none" rx="3" ry="3" style="stroke:#038048;stroke-width:1;"/><text fill="#000000" font-family="sans-serif" font-size="14" lengthAdjust="spacing" textLength="198.1123" x="649.1" y="701.2234">sakssekvensnummer: integer</text><line style="stroke:#181818;stroke-width:0.5;" x1="630.1" x2="852.2123" y1="708.1766" y2="708.1766"/></g><!--class Dokument--><g class="entity" data-entity="Dokument" data-source-line="1" data-uid="ent0011" id="entity_Dokument"><rect fill="#F1F1F1" height="146.9297" rx="2.5" ry="2.5" style="stroke:#181818;stroke-width:0.5;" width="333.0908" x="1556.61" y="602.23"/><ellipse cx="1683.5294" cy="618.23" fill="#ADD1B2" rx="11" ry="11" style="stroke:#181818;stroke-width:1;"/><path d="M1686.0026,624.3731 Q1685.4215,624.6719 1684.7824,624.8213 Q1684.1432,624.9707 1683.4376,624.9707 Q1680.9308,624.9707 1679.611,623.3189 Q1678.2912,621.667 1678.2912,618.5459 Q1678.2912,615.4165 1679.611,613.7647 Q1680.9308,612.1128 1683.4376,612.1128 Q1684.1432,612.1128 1684.7907,612.2622 Q1685.4381,612.4116 1686.0026,612.7105 L1686.0026,615.4331 Q1685.3717,614.8521 1684.7782,614.5823 Q1684.1847,614.3125 1683.5538,614.3125 Q1682.2091,614.3125 1681.5243,615.3792 Q1680.8395,616.4458 1680.8395,618.5459 Q1680.8395,620.6377 1681.5243,621.7044 Q1682.2091,622.771 1683.5538,622.771 Q1684.1847,622.771 1684.7782,622.5012 Q1685.3717,622.2315 1686.0026,621.6504 Z " fill="#000000"/><text fill="#000000" font-family="sans-serif" font-size="14" lengthAdjust="spacing" textLength="70.752" x="1704.0294" y="623.521">Dokument</text><line style="stroke:#181818;stroke-width:0.5;" x1="1557.61" x2="1888.7008" y1="634.23" y2="634.23"/><ellipse cx="1567.61" cy="647.9741" fill="none" rx="3" ry="3" style="stroke:#038048;stroke-width:1;"/><text fill="#000000" font-family="sans-serif" font-size="14" lengthAdjust="spacing" textLength="80.0283" x="1576.61" y="651.7652">tittel: string</text><ellipse cx="1567.61" cy="664.4624" fill="none" rx="3" ry="3" style="stroke:#038048;stroke-width:1;"/><text fill="#000000" font-family="sans-serif" font-size="14" lengthAdjust="spacing" textLength="207.0127" x="1576.61" y="668.2534">dokumenttype: Dokumenttype</text><ellipse cx="1567.61" cy="680.9507" fill="none" rx="3" ry="3" style="stroke:#038048;stroke-width:1;"/><text fill="#000000" font-family="sans-serif" font-size="14" lengthAdjust="spacing" textLength="307.0908" x="1576.61" y="684.7417">referanseDokumentfil: ReferanseDokumentfil</text><ellipse cx="1567.61" cy="697.439" fill="none" rx="3" ry="3" style="stroke:#038048;stroke-width:1;"/><text fill="#000000" font-family="sans-serif" font-size="14" lengthAdjust="spacing" textLength="115.5752" x="1576.61" y="701.23">mimetype: string</text><ellipse cx="1567.61" cy="713.9273" fill="none" rx="3" ry="3" style="stroke:#038048;stroke-width:1;"/><text fill="#000000" font-family="sans-serif" font-size="14" lengthAdjust="spacing" textLength="145.0313" x="1576.61" y="717.7183">dokumentsdato: date</text><ellipse cx="1567.61" cy="730.4155" fill="none" rx="3" ry="3" style="stroke:#038048;stroke-width:1;"/><text fill="#000000" font-family="sans-serif" font-size="14" lengthAdjust="spacing" textLength="113.7158" x="1576.61" y="734.2066">arkivnavn: string</text><line style="stroke:#181818;stroke-width:0.5;" x1="1557.61" x2="1888.7008" y1="741.1597" y2="741.1597"/></g><!--class Dokumenttype--><g class="entity" data-entity="Dokumenttype" data-source-line="10" data-uid="ent0012" id="entity_Dokumenttype"><rect fill="#F1F1F1" height="89.5977" rx="2.5" ry="2.5" style="stroke:#181818;stroke-width:0.5;" width="183.5547" x="1522.38" y="813.09"/><ellipse cx="1560.6183" cy="833.4005" fill="#ADD1B2" rx="11" ry="11" style="stroke:#181818;stroke-width:1;"/><path d="M1563.0914,839.5436 Q1562.5104,839.8424 1561.8712,839.9919 Q1561.2321,840.1413 1560.5265,840.1413 Q1558.0196,840.1413 1556.6998,838.4894 Q1555.38,836.8376 1555.38,833.7165 Q1555.38,830.5871 1556.6998,828.9352 Q1558.0196,827.2834 1560.5265,827.2834 Q1561.2321,827.2834 1561.8795,827.4328 Q1562.527,827.5822 1563.0914,827.881 L1563.0914,830.6037 Q1562.4606,830.0226 1561.8671,829.7528 Q1561.2736,829.4831 1560.6427,829.4831 Q1559.298,829.4831 1558.6132,830.5497 Q1557.9283,831.6164 1557.9283,833.7165 Q1557.9283,835.8083 1558.6132,836.8749 Q1559.298,837.9416 1560.6427,837.9416 Q1561.2736,837.9416 1561.8671,837.6718 Q1562.4606,837.402 1563.0914,836.821 Z " fill="#000000"/><text fill="#000000" font-family="sans-serif" font-size="12" font-style="italic" lengthAdjust="spacing" textLength="42.0176" x="1608.7306" y="829.6916">&#171;Kode&#187;</text><text fill="#000000" font-family="sans-serif" font-size="14" lengthAdjust="spacing" textLength="99.9141" x="1579.7823" y="845.758">Dokumenttype</text><line style="stroke:#181818;stroke-width:0.5;" x1="1523.38" x2="1704.9347" y1="853.7111" y2="853.7111"/><ellipse cx="1533.38" cy="867.4552" fill="none" rx="3" ry="3" style="stroke:#038048;stroke-width:1;"/><text fill="#000000" font-family="sans-serif" font-size="14" lengthAdjust="spacing" textLength="115.4521" x="1542.38" y="871.2463">kodeverdi: string</text><ellipse cx="1533.38" cy="883.9435" fill="none" rx="3" ry="3" style="stroke:#038048;stroke-width:1;"/><text fill="#000000" font-family="sans-serif" font-size="14" lengthAdjust="spacing" textLength="157.5547" x="1542.38" y="887.7345">kodebeskrivelse: string</text><line style="stroke:#181818;stroke-width:0.5;" x1="1523.38" x2="1704.9347" y1="894.6877" y2="894.6877"/></g><!--class ReferanseDokumentfil--><g class="entity" data-entity="ReferanseDokumentfil" data-source-line="11" data-uid="ent0014" id="entity_ReferanseDokumentfil"><rect fill="#F1F1F1" height="80.9766" rx="2.5" ry="2.5" style="stroke:#181818;stroke-width:0.5;" width="182.6777" x="1740.81" y="817.4"/><ellipse cx="1755.81" cy="833.4" fill="#ADD1B2" rx="11" ry="11" style="stroke:#181818;stroke-width:1;"/><path d="M1758.2831,839.5431 Q1757.7021,839.8419 1757.0629,839.9913 Q1756.4238,840.1407 1755.7182,840.1407 Q1753.2114,840.1407 1751.8915,838.4889 Q1750.5717,836.837 1750.5717,833.7159 Q1750.5717,830.5865 1751.8915,828.9347 Q1753.2114,827.2828 1755.7182,827.2828 Q1756.4238,827.2828 1757.0712,827.4322 Q1757.7187,827.5816 1758.2831,827.8805 L1758.2831,830.6031 Q1757.6523,830.0221 1757.0588,829.7523 Q1756.4653,829.4825 1755.8344,829.4825 Q1754.4897,829.4825 1753.8049,830.5492 Q1753.1201,831.6158 1753.1201,833.7159 Q1753.1201,835.8077 1753.8049,836.8744 Q1754.4897,837.941 1755.8344,837.941 Q1756.4653,837.941 1757.0588,837.6712 Q1757.6523,837.4015 1758.2831,836.8204 Z " fill="#000000"/><text fill="#000000" font-family="sans-serif" font-size="14" lengthAdjust="spacing" textLength="150.6777" x="1769.81" y="838.691">ReferanseDokumentfil</text><line style="stroke:#181818;stroke-width:0.5;" x1="1741.81" x2="1922.4877" y1="849.4" y2="849.4"/><ellipse cx="1751.81" cy="863.1441" fill="none" rx="3" ry="3" style="stroke:#038048;stroke-width:1;"/><text fill="#000000" font-family="sans-serif" font-size="14" lengthAdjust="spacing" textLength="61.2842" x="1760.81" y="866.9352">id: string</text><ellipse cx="1751.81" cy="879.6324" fill="none" rx="3" ry="3" style="stroke:#038048;stroke-width:1;"/><text fill="#000000" font-family="sans-serif" font-size="14" lengthAdjust="spacing" textLength="66.8896" x="1760.81" y="883.4234">url: string</text><line style="stroke:#181818;stroke-width:0.5;" x1="1741.81" x2="1922.4877" y1="890.3766" y2="890.3766"/></g><!--class Dispensasjon--><g class="entity" data-entity="Dispensasjon" data-source-line="6" data-uid="ent0016" id="entity_Dispensasjon"><rect fill="#F1F1F1" height="311.8125" rx="2.5" ry="2.5" style="stroke:#181818;stroke-width:0.5;" width="360.6943" x="897.81" y="230.41"/><ellipse cx="1028.6464" cy="246.41" fill="#ADD1B2" rx="11" ry="11" style="stroke:#181818;stroke-width:1;"/><path d="M1031.1196,252.5531 Q1030.5385,252.8519 1029.8994,253.0013 Q1029.2602,253.1507 1028.5546,253.1507 Q1026.0478,253.1507 1024.728,251.4989 Q1023.4081,249.847 1023.4081,246.7259 Q1023.4081,243.5965 1024.728,241.9447 Q1026.0478,240.2928 1028.5546,240.2928 Q1029.2602,240.2928 1029.9077,240.4422 Q1030.5551,240.5916 1031.1196,240.8905 L1031.1196,243.6131 Q1030.4887,243.0321 1029.8952,242.7623 Q1029.3017,242.4925 1028.6708,242.4925 Q1027.3261,242.4925 1026.6413,243.5592 Q1025.9565,244.6258 1025.9565,246.7259 Q1025.9565,248.8177 1026.6413,249.8844 Q1027.3261,250.951 1028.6708,250.951 Q1029.3017,250.951 1029.8952,250.6812 Q1030.4887,250.4115 1031.1196,249.8304 Z " fill="#000000"/><text fill="#000000" font-family="sans-serif" font-size="14" lengthAdjust="spacing" textLength="90.5215" x="1049.1464" y="251.701">Dispensasjon</text><line style="stroke:#181818;stroke-width:0.5;" x1="898.81" x2="1257.5043" y1="262.41" y2="262.41"/><ellipse cx="908.81" cy="276.1541" fill="none" rx="3" ry="3" style="stroke:#038048;stroke-width:1;"/><text fill="#000000" font-family="sans-serif" font-size="14" lengthAdjust="spacing" textLength="140.8477" x="917.81" y="279.9452">identifikasjon: string</text><ellipse cx="908.81" cy="292.6424" fill="none" rx="3" ry="3" style="stroke:#038048;stroke-width:1;"/><text fill="#000000" font-family="sans-serif" font-size="14" lengthAdjust="spacing" textLength="246.5518" x="917.81" y="296.4334">dispensasjontype: Dispensasjontype</text><ellipse cx="908.81" cy="309.1307" fill="none" rx="3" ry="3" style="stroke:#038048;stroke-width:1;"/><text fill="#000000" font-family="sans-serif" font-size="14" lengthAdjust="spacing" textLength="334.6943" x="917.81" y="312.9217">dispensasjonFraLovverk: DispensasjonFraLovverk</text><ellipse cx="908.81" cy="325.619" fill="none" rx="3" ry="3" style="stroke:#038048;stroke-width:1;"/><text fill="#000000" font-family="sans-serif" font-size="14" lengthAdjust="spacing" textLength="158.2383" x="917.81" y="329.41">dispensasjonFra: string</text><ellipse cx="908.81" cy="342.1073" fill="none" rx="3" ry="3" style="stroke:#038048;stroke-width:1;"/><text fill="#000000" font-family="sans-serif" font-size="14" lengthAdjust="spacing" textLength="278.4551" x="917.81" y="345.8983">nasjonalArealplanId: NasjonalArealplanId</text><ellipse cx="908.81" cy="358.5955" fill="none" rx="3" ry="3" style="stroke:#038048;stroke-width:1;"/><text fill="#000000" font-family="sans-serif" font-size="14" lengthAdjust="spacing" textLength="132.3438" x="917.81" y="362.3866">begrunnelse: string</text><ellipse cx="908.81" cy="375.0838" fill="none" rx="3" ry="3" style="stroke:#038048;stroke-width:1;"/><text fill="#000000" font-family="sans-serif" font-size="14" lengthAdjust="spacing" textLength="125.3916" x="917.81" y="378.8748">vedtaksdato:  date</text><ellipse cx="908.81" cy="391.5721" fill="none" rx="3" ry="3" style="stroke:#038048;stroke-width:1;"/><text fill="#000000" font-family="sans-serif" font-size="14" lengthAdjust="spacing" textLength="122.3428" x="917.81" y="395.3631">posisjon: Posisjon</text><ellipse cx="908.81" cy="408.0604" fill="none" rx="3" ry="3" style="stroke:#038048;stroke-width:1;"/><text fill="#000000" font-family="sans-serif" font-size="14" lengthAdjust="spacing" textLength="181.6924" x="917.81" y="411.8514">vertikalnivaa: Vertikalnivaa</text><ellipse cx="908.81" cy="424.5487" fill="none" rx="3" ry="3" style="stroke:#038048;stroke-width:1;"/><text fill="#000000" font-family="sans-serif" font-size="14" lengthAdjust="spacing" textLength="124.1611" x="917.81" y="428.3397">beskrivelse: string</text><ellipse cx="908.81" cy="441.037" fill="none" rx="3" ry="3" style="stroke:#038048;stroke-width:1;"/><text fill="#000000" font-family="sans-serif" font-size="14" lengthAdjust="spacing" textLength="212.1875" x="917.81" y="444.828">innvilgetDispensasjon: boolean</text><ellipse cx="908.81" cy="457.5252" fill="none" rx="3" ry="3" style="stroke:#038048;stroke-width:1;"/><text fill="#000000" font-family="sans-serif" font-size="14" lengthAdjust="spacing" textLength="183.7295" x="917.81" y="461.3162">saksnummer: Saksnummer</text><ellipse cx="908.81" cy="474.0135" fill="none" rx="3" ry="3" style="stroke:#038048;stroke-width:1;"/><text fill="#000000" font-family="sans-serif" font-size="14" lengthAdjust="spacing" textLength="187.1406" x="917.81" y="477.8045">varigDispensasjon: boolean</text><ellipse cx="908.81" cy="490.5018" fill="none" rx="3" ry="3" style="stroke:#038048;stroke-width:1;"/><text fill="#000000" font-family="sans-serif" font-size="14" lengthAdjust="spacing" textLength="114.6113" x="917.81" y="494.2928">varighetFra: date</text><ellipse cx="908.81" cy="506.9901" fill="none" rx="3" ry="3" style="stroke:#038048;stroke-width:1;"/><text fill="#000000" font-family="sans-serif" font-size="14" lengthAdjust="spacing" textLength="110.5918" x="917.81" y="510.7811">varighetTil: date</text><ellipse cx="908.81" cy="523.4784" fill="none" rx="3" ry="3" style="stroke:#038048;stroke-width:1;"/><text fill="#000000" font-family="sans-serif" font-size="14" lengthAdjust="spacing" textLength="200.6006" x="917.81" y="527.2694">plandokumenter: Dokument[]</text><line style="stroke:#181818;stroke-width:0.5;" x1="898.81" x2="1257.5043" y1="534.2225" y2="534.2225"/></g><path d="M427.35,328.04 L427.35,383.9716 A0,0 0 0 0 427.35,383.9716 L862.9535,383.9716 A0,0 0 0 0 862.9535,383.9716 L862.9535,360.0058 L901.81,291.1424 L862.9535,352.0058 L862.9535,338.04 L852.9535,328.04 L427.35,328.04 A0,0 0 0 0 427.35,328.04" fill="#FEFFDD" style="stroke:#181818;stroke-width:0.5;"/><path d="M852.9535,328.04 L852.9535,338.04 L862.9535,338.04 L852.9535,328.04" fill="#FEFFDD" style="stroke:#181818;stroke-width:0.5;"/><text fill="#000000" font-family="sans-serif" font-size="13" lengthAdjust="spacing" textLength="274.9995" x="433.35" y="345.6084">dispensasjontype er hentet fra Planregister.</text><text fill="#000000" font-family="sans-serif" font-size="13" lengthAdjust="spacing" textLength="414.6035" x="433.35" y="360.9189">Denne kodelisten er gyldig kun n&#229;r man dispenserer fra arealplan</text><text fill="#000000" font-family="sans-serif" font-size="13" lengthAdjust="spacing" textLength="226.751" x="433.35" y="376.2295">I SOSI 4.5 heter denne dispensasjon</text><path d="M427.35,393.9716 L427.35,434.5927 A0,0 0 0 0 427.35,434.5927 L850.9311,434.5927 A0,0 0 0 0 850.9311,434.5927 L850.9311,418.2822 L901.81,307.6307 L850.9311,410.2822 L850.9311,403.9716 L840.9311,393.9716 L427.35,393.9716 A0,0 0 0 0 427.35,393.9716" fill="#FEFFDD" style="stroke:#181818;stroke-width:0.5;"/><path d="M840.9311,393.9716 L840.9311,403.9716 L850.9311,403.9716 L840.9311,393.9716" fill="#FEFFDD" style="stroke:#181818;stroke-width:0.5;"/><text fill="#000000" font-family="sans-serif" font-size="13" lengthAdjust="spacing" textLength="402.5811" x="433.35" y="411.54">dispensasajonFraLovverk: se kodelisten dispensasjonfralovverk.</text><text fill="#000000" font-family="sans-serif" font-size="13" lengthAdjust="spacing" textLength="354.6436" x="433.35" y="426.8505">Opprinnelig hentet fra eByggesak. Finnes ikke i SOSI 4.5</text><g class="entity" data-entity="GMN19" data-source-line="37" data-uid="ent0020" id="entity_GMN19"><path d="M805.54,22.46 L805.54,154.9444 A0,0 0 0 0 805.54,154.9444 L1074.15,154.9444 L1078.15,230.1 L1082.15,154.9444 L1350.7612,154.9444 A0,0 0 0 0 1350.7612,154.9444 L1350.7612,32.46 L1340.7612,22.46 L805.54,22.46 A0,0 0 0 0 805.54,22.46" fill="#FEFFDD" style="stroke:#181818;stroke-width:0.5;"/><path d="M1340.7612,22.46 L1340.7612,32.46 L1350.7612,32.46 L1340.7612,22.46" fill="#FEFFDD" style="stroke:#181818;stroke-width:0.5;"/><text fill="#000000" font-family="sans-serif" font-size="13" lengthAdjust="spacing" textLength="106.082" x="811.54" y="40.0284">dispensasjonFra:</text><text fill="#000000" font-family="sans-serif" font-size="13" lengthAdjust="spacing" textLength="182.749" x="811.54" y="55.3389">Hentet fra SOSI 4.5 (dispFra):</text><text fill="#000000" font-family="sans-serif" font-size="13" lengthAdjust="spacing" textLength="341.98" x="811.54" y="70.6495">&#8221;dispFra&#8221; skal ha verdi dersom dispensasjonen gjelder</text><text fill="#000000" font-family="sans-serif" font-size="13" lengthAdjust="spacing" textLength="231.1436" x="811.54" y="85.96">&#8217;Arealbruk kommune(del)plan=140&#8217;,</text><text fill="#000000" font-family="sans-serif" font-size="13" lengthAdjust="spacing" textLength="261.2822" x="811.54" y="101.2705">&#8217;Regulerings/bebyggelsesplan=160&#8217; eller</text><text fill="#000000" font-family="sans-serif" font-size="13" lengthAdjust="spacing" textLength="126.1216" x="811.54" y="116.5811">&#8217;Hensynssone=170&#8217;</text><text fill="#000000" font-family="sans-serif" font-size="13" lengthAdjust="spacing" textLength="524.2212" x="811.54" y="131.8916">dispensasjonFra kan inneholde en utvidet beskrivelse om hva det er dispensert fra,</text><text fill="#000000" font-family="sans-serif" font-size="13" lengthAdjust="spacing" textLength="139.8706" x="811.54" y="147.2022">f.eks. lovparagraf osv.</text></g><!--class DispensasjonType--><g class="entity" data-entity="DispensasjonType" data-source-line="47" data-uid="ent0022" id="entity_DispensasjonType"><rect fill="#F1F1F1" height="89.5977" rx="2.5" ry="2.5" style="stroke:#181818;stroke-width:0.5;" width="183.5547" x="888.38" y="630.89"/><ellipse cx="916.0947" cy="651.2005" fill="#ADD1B2" rx="11" ry="11" style="stroke:#181818;stroke-width:1;"/><path d="M918.5678,657.3436 Q917.9868,657.6424 917.3476,657.7919 Q916.7085,657.9413 916.0029,657.9413 Q913.4961,657.9413 912.1762,656.2894 Q910.8564,654.6376 910.8564,651.5165 Q910.8564,648.3871 912.1762,646.7352 Q913.4961,645.0834 916.0029,645.0834 Q916.7085,645.0834 917.3559,645.2328 Q918.0034,645.3822 918.5678,645.681 L918.5678,648.4037 Q917.937,647.8226 917.3435,647.5528 Q916.75,647.2831 916.1191,647.2831 Q914.7744,647.2831 914.0896,648.3497 Q913.4048,649.4164 913.4048,651.5165 Q913.4048,653.6083 914.0896,654.6749 Q914.7744,655.7416 916.1191,655.7416 Q916.75,655.7416 917.3435,655.4718 Q917.937,655.202 918.5678,654.621 Z " fill="#000000"/><text fill="#000000" font-family="sans-serif" font-size="12" font-style="italic" lengthAdjust="spacing" textLength="42.0176" x="973.5613" y="647.4916">&#171;Kode&#187;</text><text fill="#000000" font-family="sans-serif" font-size="14" lengthAdjust="spacing" textLength="123.2998" x="932.9202" y="663.558">DispensasjonType</text><line style="stroke:#181818;stroke-width:0.5;" x1="889.38" x2="1070.9347" y1="671.5111" y2="671.5111"/><ellipse cx="899.38" cy="685.2552" fill="none" rx="3" ry="3" style="stroke:#038048;stroke-width:1;"/><text fill="#000000" font-family="sans-serif" font-size="14" lengthAdjust="spacing" textLength="115.4521" x="908.38" y="689.0463">kodeverdi: string</text><ellipse cx="899.38" cy="701.7435" fill="none" rx="3" ry="3" style="stroke:#038048;stroke-width:1;"/><text fill="#000000" font-family="sans-serif" font-size="14" lengthAdjust="spacing" textLength="157.5547" x="908.38" y="705.5345">kodebeskrivelse: string</text><line style="stroke:#181818;stroke-width:0.5;" x1="889.38" x2="1070.9347" y1="712.4877" y2="712.4877"/></g><!--class DispensasjonFraLovverk--><g class="entity" data-entity="DispensasjonFraLovverk" data-source-line="48" data-uid="ent0024" id="entity_DispensasjonFraLovverk"><rect fill="#F1F1F1" height="89.5977" rx="2.5" ry="2.5" style="stroke:#181818;stroke-width:0.5;" width="195.7549" x="1107.27" y="630.89"/><ellipse cx="1122.27" cy="651.2005" fill="#ADD1B2" rx="11" ry="11" style="stroke:#181818;stroke-width:1;"/><path d="M1124.7431,657.3436 Q1124.1621,657.6424 1123.5229,657.7919 Q1122.8838,657.9413 1122.1782,657.9413 Q1119.6714,657.9413 1118.3515,656.2894 Q1117.0317,654.6376 1117.0317,651.5165 Q1117.0317,648.3871 1118.3515,646.7352 Q1119.6714,645.0834 1122.1782,645.0834 Q1122.8838,645.0834 1123.5312,645.2328 Q1124.1787,645.3822 1124.7431,645.681 L1124.7431,648.4037 Q1124.1123,647.8226 1123.5188,647.5528 Q1122.9253,647.2831 1122.2944,647.2831 Q1120.9497,647.2831 1120.2649,648.3497 Q1119.5801,649.4164 1119.5801,651.5165 Q1119.5801,653.6083 1120.2649,654.6749 Q1120.9497,655.7416 1122.2944,655.7416 Q1122.9253,655.7416 1123.5188,655.4718 Q1124.1123,655.202 1124.7431,654.621 Z " fill="#000000"/><text fill="#000000" font-family="sans-serif" font-size="12" font-style="italic" lengthAdjust="spacing" textLength="42.0176" x="1197.1387" y="647.4916">&#171;Kode&#187;</text><text fill="#000000" font-family="sans-serif" font-size="14" lengthAdjust="spacing" textLength="163.7549" x="1136.27" y="663.558">DispensasjonFraLovverk</text><line style="stroke:#181818;stroke-width:0.5;" x1="1108.27" x2="1302.0249" y1="671.5111" y2="671.5111"/><ellipse cx="1118.27" cy="685.2552" fill="none" rx="3" ry="3" style="stroke:#038048;stroke-width:1;"/><text fill="#000000" font-family="sans-serif" font-size="14" lengthAdjust="spacing" textLength="115.4521" x="1127.27" y="689.0463">kodeverdi: string</text><ellipse cx="1118.27" cy="701.7435" fill="none" rx="3" ry="3" style="stroke:#038048;stroke-width:1;"/><text fill="#000000" font-family="sans-serif" font-size="14" lengthAdjust="spacing" textLength="157.5547" x="1127.27" y="705.5345">kodebeskrivelse: string</text><line style="stroke:#181818;stroke-width:0.5;" x1="1108.27" x2="1302.0249" y1="712.4877" y2="712.4877"/></g><!--class Vertikalnivaa--><g class="entity" data-entity="Vertikalnivaa" data-source-line="49" data-uid="ent0026" id="entity_Vertikalnivaa"><rect fill="#F1F1F1" height="89.5977" rx="2.5" ry="2.5" style="stroke:#181818;stroke-width:0.5;" width="183.5547" x="1338.38" y="630.89"/><ellipse cx="1382.2631" cy="651.2005" fill="#ADD1B2" rx="11" ry="11" style="stroke:#181818;stroke-width:1;"/><path d="M1384.7362,657.3436 Q1384.1551,657.6424 1383.516,657.7919 Q1382.8768,657.9413 1382.1713,657.9413 Q1379.6644,657.9413 1378.3446,656.2894 Q1377.0248,654.6376 1377.0248,651.5165 Q1377.0248,648.3871 1378.3446,646.7352 Q1379.6644,645.0834 1382.1713,645.0834 Q1382.8768,645.0834 1383.5243,645.2328 Q1384.1717,645.3822 1384.7362,645.681 L1384.7362,648.4037 Q1384.1053,647.8226 1383.5118,647.5528 Q1382.9183,647.2831 1382.2875,647.2831 Q1380.9427,647.2831 1380.2579,648.3497 Q1379.5731,649.4164 1379.5731,651.5165 Q1379.5731,653.6083 1380.2579,654.6749 Q1380.9427,655.7416 1382.2875,655.7416 Q1382.9183,655.7416 1383.5118,655.4718 Q1384.1053,655.202 1384.7362,654.621 Z " fill="#000000"/><text fill="#000000" font-family="sans-serif" font-size="12" font-style="italic" lengthAdjust="spacing" textLength="42.0176" x="1425.3578" y="647.4916">&#171;Kode&#187;</text><text fill="#000000" font-family="sans-serif" font-size="14" lengthAdjust="spacing" textLength="87.3701" x="1402.6815" y="663.558">Vertikalnivaa</text><line style="stroke:#181818;stroke-width:0.5;" x1="1339.38" x2="1520.9347" y1="671.5111" y2="671.5111"/><ellipse cx="1349.38" cy="685.2552" fill="none" rx="3" ry="3" style="stroke:#038048;stroke-width:1;"/><text fill="#000000" font-family="sans-serif" font-size="14" lengthAdjust="spacing" textLength="115.4521" x="1358.38" y="689.0463">kodeverdi: string</text><ellipse cx="1349.38" cy="701.7435" fill="none" rx="3" ry="3" style="stroke:#038048;stroke-width:1;"/><text fill="#000000" font-family="sans-serif" font-size="14" lengthAdjust="spacing" textLength="157.5547" x="1358.38" y="705.5345">kodebeskrivelse: string</text><line style="stroke:#181818;stroke-width:0.5;" x1="1339.38" x2="1520.9347" y1="712.4877" y2="712.4877"/></g><!--class OppdaterDispensasjon--><g class="entity" data-entity="OppdaterDispensasjon" data-source-line="4" data-uid="ent0032" id="entity_OppdaterDispensasjon"><rect fill="#F1F1F1" height="163.418" rx="2.5" ry="2.5" style="stroke:#181818;stroke-width:0.5;" width="415.2725" x="1499.52" y="7"/><ellipse cx="1625.7422" cy="23" fill="#ADD1B2" rx="11" ry="11" style="stroke:#181818;stroke-width:1;"/><path d="M1628.2153,29.1431 Q1627.6343,29.4419 1626.9951,29.5913 Q1626.3559,29.7407 1625.6504,29.7407 Q1623.1435,29.7407 1621.8237,28.0889 Q1620.5039,26.437 1620.5039,23.3159 Q1620.5039,20.1865 1621.8237,18.5347 Q1623.1435,16.8828 1625.6504,16.8828 Q1626.3559,16.8828 1627.0034,17.0322 Q1627.6509,17.1816 1628.2153,17.4805 L1628.2153,20.2031 Q1627.5845,19.6221 1626.9909,19.3523 Q1626.3974,19.0825 1625.7666,19.0825 Q1624.4219,19.0825 1623.737,20.1492 Q1623.0522,21.2158 1623.0522,23.3159 Q1623.0522,25.4077 1623.737,26.4744 Q1624.4219,27.541 1625.7666,27.541 Q1626.3974,27.541 1626.9909,27.2712 Q1627.5845,27.0015 1628.2153,26.4204 Z " fill="#000000"/><text fill="#000000" font-family="sans-serif" font-size="14" lengthAdjust="spacing" textLength="154.3281" x="1646.2422" y="28.291">OppdaterDispensasjon</text><line style="stroke:#181818;stroke-width:0.5;" x1="1500.52" x2="1913.7925" y1="39" y2="39"/><ellipse cx="1510.52" cy="52.7441" fill="none" rx="3" ry="3" style="stroke:#038048;stroke-width:1;"/><text fill="#000000" font-family="sans-serif" font-size="14" lengthAdjust="spacing" textLength="188.2275" x="1519.52" y="56.5352">dispensasjon: Dispensasjon</text><ellipse cx="1510.52" cy="69.2324" fill="none" rx="3" ry="3" style="stroke:#038048;stroke-width:1;"/><text fill="#000000" font-family="sans-serif" font-size="14" lengthAdjust="spacing" textLength="190.791" x="1519.52" y="73.0234">opphevIdentifikasjon: string</text><ellipse cx="1510.52" cy="85.7207" fill="none" rx="3" ry="3" style="stroke:#038048;stroke-width:1;"/><text fill="#000000" font-family="sans-serif" font-size="14" lengthAdjust="spacing" textLength="132.3438" x="1519.52" y="89.5117">begrunnelse: string</text><ellipse cx="1510.52" cy="102.209" fill="none" rx="3" ry="3" style="stroke:#038048;stroke-width:1;"/><text fill="#000000" font-family="sans-serif" font-size="14" lengthAdjust="spacing" textLength="389.2725" x="1519.52" y="106">referanseKlageSaksnummer: ReferanseKlageSaksnummer</text><ellipse cx="1510.52" cy="118.6973" fill="none" rx="3" ry="3" style="stroke:#038048;stroke-width:1;"/><text fill="#000000" font-family="sans-serif" font-size="14" lengthAdjust="spacing" textLength="200.6006" x="1519.52" y="122.4883">plandokumenter: Dokument[]</text><ellipse cx="1510.52" cy="135.1855" fill="none" rx="3" ry="3" style="stroke:#038048;stroke-width:1;"/><text fill="#000000" font-family="sans-serif" font-size="14" lengthAdjust="spacing" textLength="239.8662" x="1519.52" y="138.9766">forslagstillertype: Forslagstillertype</text><ellipse cx="1510.52" cy="151.6738" fill="none" rx="3" ry="3" style="stroke:#038048;stroke-width:1;"/><text fill="#000000" font-family="sans-serif" font-size="14" lengthAdjust="spacing" textLength="141.8799" x="1519.52" y="155.4648">vedlegg: Dokument[]</text><line style="stroke:#181818;stroke-width:0.5;" x1="1500.52" x2="1913.7925" y1="162.418" y2="162.418"/></g><!--class ReferanseKlageSaksnummer--><g class="entity" data-entity="ReferanseKlageSaksnummer" data-source-line="14" data-uid="ent0033" id="entity_ReferanseKlageSaksnummer"><rect fill="#F1F1F1" height="80.9766" rx="2.5" ry="2.5" style="stroke:#181818;stroke-width:0.5;" width="224.1123" x="1678.1" y="345.83"/><ellipse cx="1693.2547" cy="361.83" fill="#ADD1B2" rx="11" ry="11" style="stroke:#181818;stroke-width:1;"/><path d="M1695.7278,367.9731 Q1695.1468,368.2719 1694.5076,368.4213 Q1693.8685,368.5707 1693.1629,368.5707 Q1690.6561,368.5707 1689.3362,366.9189 Q1688.0164,365.267 1688.0164,362.1459 Q1688.0164,359.0165 1689.3362,357.3647 Q1690.6561,355.7128 1693.1629,355.7128 Q1693.8685,355.7128 1694.5159,355.8622 Q1695.1634,356.0116 1695.7278,356.3105 L1695.7278,359.0331 Q1695.097,358.4521 1694.5035,358.1823 Q1693.91,357.9125 1693.2791,357.9125 Q1691.9344,357.9125 1691.2496,358.9792 Q1690.5647,360.0458 1690.5647,362.1459 Q1690.5647,364.2377 1691.2496,365.3044 Q1691.9344,366.371 1693.2791,366.371 Q1693.91,366.371 1694.5035,366.1012 Q1695.097,365.8315 1695.7278,365.2504 Z " fill="#000000"/><text fill="#000000" font-family="sans-serif" font-size="14" lengthAdjust="spacing" textLength="191.7686" x="1707.2891" y="367.121">ReferanseKlageSaksnummer</text><line style="stroke:#181818;stroke-width:0.5;" x1="1679.1" x2="1901.2123" y1="377.83" y2="377.83"/><ellipse cx="1689.1" cy="391.5741" fill="none" rx="3" ry="3" style="stroke:#038048;stroke-width:1;"/><text fill="#000000" font-family="sans-serif" font-size="14" lengthAdjust="spacing" textLength="108.2676" x="1698.1" y="395.3652">saksaar: integer</text><ellipse cx="1689.1" cy="408.0624" fill="none" rx="3" ry="3" style="stroke:#038048;stroke-width:1;"/><text fill="#000000" font-family="sans-serif" font-size="14" lengthAdjust="spacing" textLength="198.1123" x="1698.1" y="411.8534">sakssekvensnummer: integer</text><line style="stroke:#181818;stroke-width:0.5;" x1="1679.1" x2="1901.2123" y1="418.8066" y2="418.8066"/></g><!--class ForslagstillerType--><g class="entity" data-entity="ForslagstillerType" data-source-line="19" data-uid="ent0034" id="entity_ForslagstillerType"><rect fill="#F1F1F1" height="89.5977" rx="2.5" ry="2.5" style="stroke:#181818;stroke-width:0.5;" width="183.5547" x="1937.38" y="341.52"/><ellipse cx="1966.4451" cy="361.8305" fill="#ADD1B2" rx="11" ry="11" style="stroke:#181818;stroke-width:1;"/><path d="M1968.9183,367.9736 Q1968.3372,368.2724 1967.6981,368.4219 Q1967.0589,368.5713 1966.3533,368.5713 Q1963.8465,368.5713 1962.5267,366.9194 Q1961.2069,365.2676 1961.2069,362.1465 Q1961.2069,359.0171 1962.5267,357.3652 Q1963.8465,355.7134 1966.3533,355.7134 Q1967.0589,355.7134 1967.7064,355.8628 Q1968.3538,356.0122 1968.9183,356.311 L1968.9183,359.0337 Q1968.2874,358.4526 1967.6939,358.1828 Q1967.1004,357.9131 1966.4696,357.9131 Q1965.1248,357.9131 1964.44,358.9797 Q1963.7552,360.0464 1963.7552,362.1465 Q1963.7552,364.2383 1964.44,365.3049 Q1965.1248,366.3716 1966.4696,366.3716 Q1967.1004,366.3716 1967.6939,366.1018 Q1968.2874,365.832 1968.9183,365.251 Z " fill="#000000"/><text fill="#000000" font-family="sans-serif" font-size="12" font-style="italic" lengthAdjust="spacing" textLength="42.0176" x="2022.7113" y="358.1216">&#171;Kode&#187;</text><text fill="#000000" font-family="sans-serif" font-size="14" lengthAdjust="spacing" textLength="120.2988" x="1983.5707" y="374.188">ForslagstillerType</text><line style="stroke:#181818;stroke-width:0.5;" x1="1938.38" x2="2119.9347" y1="382.1411" y2="382.1411"/><ellipse cx="1948.38" cy="395.8852" fill="none" rx="3" ry="3" style="stroke:#038048;stroke-width:1;"/><text fill="#000000" font-family="sans-serif" font-size="14" lengthAdjust="spacing" textLength="115.4521" x="1957.38" y="399.6763">kodeverdi: string</text><ellipse cx="1948.38" cy="412.3735" fill="none" rx="3" ry="3" style="stroke:#038048;stroke-width:1;"/><text fill="#000000" font-family="sans-serif" font-size="14" lengthAdjust="spacing" textLength="157.5547" x="1957.38" y="416.1645">kodebeskrivelse: string</text><line style="stroke:#181818;stroke-width:0.5;" x1="1938.38" x2="2119.9347" y1="423.1177" y2="423.1177"/></g><!--link NasjonalArealplanId to AdministrativEnhet--><g class="link" data-entity-1="NasjonalArealplanId" data-entity-2="AdministrativEnhet" data-source-line="6" data-uid="lnk4" id="link_NasjonalArealplanId_AdministrativEnhet"><path codeLine="6" d="M152.15,716.24 C152.15,743.48 152.15,779.85 152.15,808.78" fill="none" id="NasjonalArealplanId-AdministrativEnhet" style="stroke:#181818;stroke-width:1;"/></g><!--link Posisjon to Koordinatsystem--><g class="link" data-entity-1="Posisjon" data-entity-2="Koordinatsystem" data-source-line="7" data-uid="lnk7" id="link_Posisjon_Koordinatsystem"><path codeLine="7" d="M449.35,724.51 C441.44,751.93 431.58,786.11 423.86,812.87" fill="none" id="Posisjon-Koordinatsystem" style="stroke:#181818;stroke-width:1;"/></g><!--link Posisjon to PosisjonType--><g class="link" data-entity-1="Posisjon" data-entity-2="PosisjonType" data-source-line="8" data-uid="lnk9" id="link_Posisjon_PosisjonType"><path codeLine="8" d="M498.98,724.51 C522.88,756.41 553.64,797.47 574.52,825.34" fill="none" id="Posisjon-PosisjonType" style="stroke:#181818;stroke-width:1;"/></g><!--link Dokument to Dokumenttype--><g class="link" data-entity-1="Dokument" data-entity-2="Dokumenttype" data-source-line="10" data-uid="lnk13" id="link_Dokument_Dokumenttype"><path codeLine="10" d="M1679.13,749.46 C1666.19,770.86 1652.43,793.6 1640.92,812.63" fill="none" id="Dokument-Dokumenttype" style="stroke:#181818;stroke-width:1;"/></g><!--link Dokument to ReferanseDokumentfil--><g class="link" data-entity-1="Dokument" data-entity-2="ReferanseDokumentfil" data-source-line="11" data-uid="lnk15" id="link_Dokument_ReferanseDokumentfil"><path codeLine="11" d="M1767.17,749.46 C1781.12,772.52 1796.01,797.14 1808.02,816.99" fill="none" id="Dokument-ReferanseDokumentfil" style="stroke:#181818;stroke-width:1;"/></g><!--link Dispensasjon to DispensasjonType--><g class="link" data-entity-1="Dispensasjon" data-entity-2="DispensasjonType" data-source-line="47" data-uid="lnk23" id="link_Dispensasjon_DispensasjonType"><path codeLine="47" d="M1025.28,542.36 C1014.25,574.7 1003.48,606.27 995.24,630.46" fill="none" id="Dispensasjon-DispensasjonType" style="stroke:#181818;stroke-width:1;"/></g><!--link Dispensasjon to DispensasjonFraLovverk--><g class="link" data-entity-1="Dispensasjon" data-entity-2="DispensasjonFraLovverk" data-source-line="48" data-uid="lnk25" id="link_Dispensasjon_DispensasjonFraLovverk"><path codeLine="48" d="M1146.67,542.36 C1160.96,574.7 1174.92,606.27 1185.61,630.46" fill="none" id="Dispensasjon-DispensasjonFraLovverk" style="stroke:#181818;stroke-width:1;"/></g><!--link Dispensasjon to Vertikalnivaa--><g class="link" data-entity-1="Dispensasjon" data-entity-2="Vertikalnivaa" data-source-line="49" data-uid="lnk27" id="link_Dispensasjon_Vertikalnivaa"><path codeLine="49" d="M1258.79,534.79 C1301.67,569.8 1344.18,604.5 1376.13,630.59" fill="none" id="Dispensasjon-Vertikalnivaa" style="stroke:#181818;stroke-width:1;"/></g><!--link Dispensasjon to NasjonalArealplanId--><g class="link" data-entity-1="Dispensasjon" data-entity-2="NasjonalArealplanId" data-source-line="50" data-uid="lnk28" id="link_Dispensasjon_NasjonalArealplanId"><path codeLine="50" d="M897.35,534.59 C891.65,537.34 885.92,539.89 880.15,542.23 C645.68,637.17 558.41,536.43 314.15,602.23 C285.15,610.04 254.74,622.41 228.2,634.74" fill="none" id="Dispensasjon-NasjonalArealplanId" style="stroke:#181818;stroke-width:1;"/></g><!--link Dispensasjon to Posisjon--><g class="link" data-entity-1="Dispensasjon" data-entity-2="Posisjon" data-source-line="51" data-uid="lnk29" id="link_Dispensasjon_Posisjon"><path codeLine="51" d="M897.55,533.41 C891.78,536.52 885.97,539.47 880.15,542.23 C769.41,594.59 726.74,561.68 611.15,602.23 C591.85,609 571.78,617.64 552.89,626.58" fill="none" id="Dispensasjon-Posisjon" style="stroke:#181818;stroke-width:1;"/></g><!--link Dispensasjon to Saksnummer--><g class="link" data-entity-1="Dispensasjon" data-entity-2="Saksnummer" data-source-line="52" data-uid="lnk30" id="link_Dispensasjon_Saksnummer"><path codeLine="52" d="M897.32,541.52 C856.72,576.14 817.09,609.94 787.9,634.82" fill="none" id="Dispensasjon-Saksnummer" style="stroke:#181818;stroke-width:1;"/></g><!--link Dispensasjon to Dokument--><g class="link" data-entity-1="Dispensasjon" data-entity-2="Dokument" data-source-line="53" data-uid="lnk31" id="link_Dispensasjon_Dokument"><path codeLine="53" d="M1258.68,467.75 C1353.06,509.8 1467.71,560.88 1559.49,601.77" fill="none" id="Dispensasjon-Dokument" style="stroke:#181818;stroke-width:1;"/></g><!--link OppdaterDispensasjon to ForslagstillerType--><g class="link" data-entity-1="OppdaterDispensasjon" data-entity-2="ForslagstillerType" data-source-line="24" data-uid="lnk35" id="link_OppdaterDispensasjon_ForslagstillerType"><path codeLine="24" d="M1846.4,170.77 C1872.26,188.78 1898.05,208.95 1920.15,230.41 C1954.12,263.4 1984.37,308.29 2004.33,341.26" fill="none" id="OppdaterDispensasjon-ForslagstillerType" style="stroke:#181818;stroke-width:1;"/></g><!--link OppdaterDispensasjon to Dispensasjon--><g class="link" data-entity-1="OppdaterDispensasjon" data-entity-2="Dispensasjon" data-source-line="25" data-uid="lnk36" id="link_OppdaterDispensasjon_Dispensasjon"><path codeLine="25" d="M1534.44,170.87 C1448.89,211.08 1345.62,259.62 1258.98,300.33" fill="none" id="OppdaterDispensasjon-Dispensasjon" style="stroke:#181818;stroke-width:1;"/></g><!--link OppdaterDispensasjon to Dokument--><g class="link" data-entity-1="OppdaterDispensasjon" data-entity-2="Dokument" data-source-line="26" data-uid="lnk37" id="link_OppdaterDispensasjon_Dokument"><path codeLine="26" d="M1675.14,170.8 C1668.93,190.04 1663.36,210.71 1660.15,230.41 C1637.91,367.2 1629.64,407.04 1660.15,542.23 C1664.69,562.35 1672.67,583 1681.45,601.83" fill="none" id="OppdaterDispensasjon-Dokument" style="stroke:#181818;stroke-width:1;"/></g><!--link OppdaterDispensasjon to ReferanseKlageSaksnummer--><g class="link" data-entity-1="OppdaterDispensasjon" data-entity-2="ReferanseKlageSaksnummer" data-source-line="27" data-uid="lnk38" id="link_OppdaterDispensasjon_ReferanseKlageSaksnummer"><path codeLine="27" d="M1729.94,170.87 C1745.88,227.62 1766.46,300.94 1778.97,345.48" fill="none" id="OppdaterDispensasjon-ReferanseKlageSaksnummer" style="stroke:#181818;stroke-width:1;"/></g><!--SRC=[ZL71QWCX4BtlLvXpYGizXf1JA9GS0crlfGSJPwtLLN5sXLBwxvrbrxBI2FKWElFcpPit6-skTfJ0UCjvwpmto3jDLx32yNJFEx0Ma4kD0HmA_F2kNNzu69lDVqcy6NjmGviVKt5pjGAHdKEGOe1uN76phuRHkLltsx4rOixx4DuXFKfYrDHtmU4GjLCpuW8gZiw1HIWJ4Jg8mY6Sh53mB0owiUyXxjXJ9JFNJPFbAIRqSNc_litvpaUaEXmqJHw7pq1z7_x4Pcm2QK6fWkGx-rAJaRr1YWX12ZG9KLdU54KmYNpAy-JyBtCfvuNaiFt-v2KS3WkteK-2A7NfsHI-09geKs4eCT_SudPxerSLMgot2bgSgWAgs_i1]--></g></svg>