<svg xmlns="http://www.w3.org/2000/svg" xmlns:xlink="http://www.w3.org/1999/xlink" contentStyleType="text/css" height="913px" preserveAspectRatio="none" style="width:2140px;height:913px;background:#FFFFFF;" version="1.1" viewBox="0 0 2140 913" width="2140px" zoomAndPan="magnify"><defs/><g><!--class NasjonalArealplanId--><g id="elem_NasjonalArealplanId"><rect codeLine="1" fill="#F1F1F1" height="80.9766" id="NasjonalArealplanId" rx="2.5" ry="2.5" style="stroke:#181818;stroke-width:0.5;" width="292" x="7" y="635.2"/><ellipse cx="79.75" cy="651.2" fill="#ADD1B2" rx="11" ry="11" style="stroke:#181818;stroke-width:1.0;"/><path d="M82.2231,657.3431 Q81.6421,657.6419 81.0029,657.7913 Q80.3638,657.9407 79.6582,657.9407 Q77.1514,657.9407 75.8315,656.2889 Q74.5117,654.637 74.5117,651.5159 Q74.5117,648.3865 75.8315,646.7347 Q77.1514,645.0828 79.6582,645.0828 Q80.3638,645.0828 81.0112,645.2322 Q81.6587,645.3816 82.2231,645.6805 L82.2231,648.4031 Q81.5923,647.8221 80.9988,647.5523 Q80.4053,647.2825 79.7744,647.2825 Q78.4297,647.2825 77.7449,648.3492 Q77.0601,649.4158 77.0601,651.5159 Q77.0601,653.6077 77.7449,654.6744 Q78.4297,655.741 79.7744,655.741 Q80.4053,655.741 80.9988,655.4712 Q81.5923,655.2015 82.2231,654.6204 Z " fill="#000000"/><text fill="#000000" font-family="sans-serif" font-size="14" lengthAdjust="spacing" textLength="138" x="100.25" y="656.491">NasjonalArealplanId</text><line style="stroke:#181818;stroke-width:0.5;" x1="8" x2="298" y1="667.2" y2="667.2"/><ellipse cx="18" cy="680.9441" fill="none" rx="3" ry="3" style="stroke:#038048;stroke-width:1.0;"/><text fill="#000000" font-family="sans-serif" font-size="14" lengthAdjust="spacing" textLength="266" x="27" y="684.7352">administrativEnhet: AdministrativEnhet</text><ellipse cx="18" cy="697.4324" fill="none" rx="3" ry="3" style="stroke:#038048;stroke-width:1.0;"/><text fill="#000000" font-family="sans-serif" font-size="14" lengthAdjust="spacing" textLength="171" x="27" y="701.2234">planidentifikasjon: string</text><line style="stroke:#181818;stroke-width:0.5;" x1="8" x2="298" y1="708.1766" y2="708.1766"/></g><!--class AdministrativEnhet--><g id="elem_AdministrativEnhet"><rect codeLine="8" fill="#F1F1F1" height="97.4648" id="AdministrativEnhet" rx="2.5" ry="2.5" style="stroke:#181818;stroke-width:0.5;" width="162" x="72" y="809.16"/><ellipse cx="87" cy="825.16" fill="#EB937F" rx="11" ry="11" style="stroke:#181818;stroke-width:1.0;"/><path d="M90.6143,831.66 L82.8945,831.66 L82.8945,819.2669 L90.6143,819.2669 L90.6143,821.4251 L85.3433,821.4251 L85.3433,824.098 L90.1162,824.098 L90.1162,826.2562 L85.3433,826.2562 L85.3433,829.5018 L90.6143,829.5018 Z " fill="#000000"/><text fill="#000000" font-family="sans-serif" font-size="14" lengthAdjust="spacing" textLength="130" x="101" y="830.451">AdministrativEnhet</text><line style="stroke:#181818;stroke-width:0.5;" x1="73" x2="233" y1="841.16" y2="841.16"/><text fill="#000000" font-family="sans-serif" font-size="14" lengthAdjust="spacing" textLength="127" x="78" y="858.6952">kommunenummer</text><text fill="#000000" font-family="sans-serif" font-size="14" lengthAdjust="spacing" textLength="97" x="78" y="875.1834">fylkesnummer</text><text fill="#000000" font-family="sans-serif" font-size="14" lengthAdjust="spacing" textLength="71" x="78" y="891.6717">landskode</text><line style="stroke:#181818;stroke-width:0.5;" x1="73" x2="233" y1="898.6248" y2="898.6248"/></g><!--class Posisjon--><g id="elem_Posisjon"><rect codeLine="1" fill="#F1F1F1" height="97.4648" id="Posisjon" rx="2.5" ry="2.5" style="stroke:#181818;stroke-width:0.5;" width="263" x="334.5" y="626.96"/><ellipse cx="433.25" cy="642.96" fill="#ADD1B2" rx="11" ry="11" style="stroke:#181818;stroke-width:1.0;"/><path d="M435.7231,649.1031 Q435.1421,649.4019 434.5029,649.5513 Q433.8638,649.7007 433.1582,649.7007 Q430.6514,649.7007 429.3315,648.0489 Q428.0117,646.397 428.0117,643.2759 Q428.0117,640.1465 429.3315,638.4947 Q430.6514,636.8428 433.1582,636.8428 Q433.8638,636.8428 434.5112,636.9922 Q435.1587,637.1416 435.7231,637.4405 L435.7231,640.1631 Q435.0923,639.5821 434.4988,639.3123 Q433.9053,639.0425 433.2744,639.0425 Q431.9297,639.0425 431.2449,640.1092 Q430.5601,641.1758 430.5601,643.2759 Q430.5601,645.3677 431.2449,646.4344 Q431.9297,647.501 433.2744,647.501 Q433.9053,647.501 434.4988,647.2312 Q435.0923,646.9615 435.7231,646.3804 Z " fill="#000000"/><text fill="#000000" font-family="sans-serif" font-size="14" lengthAdjust="spacing" textLength="57" x="453.75" y="648.251">Posisjon</text><line style="stroke:#181818;stroke-width:0.5;" x1="335.5" x2="596.5" y1="658.96" y2="658.96"/><ellipse cx="345.5" cy="672.7041" fill="none" rx="3" ry="3" style="stroke:#038048;stroke-width:1.0;"/><text fill="#000000" font-family="sans-serif" font-size="14" lengthAdjust="spacing" textLength="127" x="354.5" y="676.4952">type: PosisjonType</text><ellipse cx="345.5" cy="689.1924" fill="none" rx="3" ry="3" style="stroke:#038048;stroke-width:1.0;"/><text fill="#000000" font-family="sans-serif" font-size="14" lengthAdjust="spacing" textLength="153" x="354.5" y="692.9834">koordinater: number[]</text><ellipse cx="345.5" cy="705.6807" fill="none" rx="3" ry="3" style="stroke:#038048;stroke-width:1.0;"/><text fill="#000000" font-family="sans-serif" font-size="14" lengthAdjust="spacing" textLength="237" x="354.5" y="709.4717">koordinatsystem: Koordinatsystem</text><line style="stroke:#181818;stroke-width:0.5;" x1="335.5" x2="596.5" y1="716.4248" y2="716.4248"/></g><!--class Koordinatsystem--><g id="elem_Koordinatsystem"><rect codeLine="10" fill="#F1F1F1" height="89.5977" id="Koordinatsystem" rx="2.5" ry="2.5" style="stroke:#181818;stroke-width:0.5;" width="184" x="322" y="813.09"/><ellipse cx="353.65" cy="833.4005" fill="#ADD1B2" rx="11" ry="11" style="stroke:#181818;stroke-width:1.0;"/><path d="M356.1231,839.5436 Q355.5421,839.8424 354.9029,839.9919 Q354.2638,840.1413 353.5582,840.1413 Q351.0514,840.1413 349.7315,838.4894 Q348.4117,836.8376 348.4117,833.7165 Q348.4117,830.5871 349.7315,828.9352 Q351.0514,827.2834 353.5582,827.2834 Q354.2638,827.2834 354.9112,827.4328 Q355.5587,827.5822 356.1231,827.881 L356.1231,830.6037 Q355.4923,830.0226 354.8988,829.7528 Q354.3053,829.4831 353.6744,829.4831 Q352.3297,829.4831 351.6449,830.5497 Q350.9601,831.6164 350.9601,833.7165 Q350.9601,835.8083 351.6449,836.8749 Q352.3297,837.9416 353.6744,837.9416 Q354.3053,837.9416 354.8988,837.6718 Q355.4923,837.402 356.1231,836.821 Z " fill="#000000"/><text fill="#000000" font-family="sans-serif" font-size="12" font-style="italic" lengthAdjust="spacing" textLength="42" x="407.85" y="829.6916">&#171;Kode&#187;</text><text fill="#000000" font-family="sans-serif" font-size="14" lengthAdjust="spacing" textLength="115" x="371.35" y="845.758">Koordinatsystem</text><line style="stroke:#181818;stroke-width:0.5;" x1="323" x2="505" y1="853.7111" y2="853.7111"/><ellipse cx="333" cy="867.4552" fill="none" rx="3" ry="3" style="stroke:#038048;stroke-width:1.0;"/><text fill="#000000" font-family="sans-serif" font-size="14" lengthAdjust="spacing" textLength="116" x="342" y="871.2463">kodeverdi: string</text><ellipse cx="333" cy="883.9435" fill="none" rx="3" ry="3" style="stroke:#038048;stroke-width:1.0;"/><text fill="#000000" font-family="sans-serif" font-size="14" lengthAdjust="spacing" textLength="158" x="342" y="887.7345">kodebeskrivelse: string</text><line style="stroke:#181818;stroke-width:0.5;" x1="323" x2="505" y1="894.6877" y2="894.6877"/></g><!--class PosisjonType--><g id="elem_PosisjonType"><rect codeLine="15" fill="#F1F1F1" height="64.4883" id="PosisjonType" rx="2.5" ry="2.5" style="stroke:#181818;stroke-width:0.5;" width="122" x="541" y="825.64"/><ellipse cx="556" cy="841.64" fill="#EB937F" rx="11" ry="11" style="stroke:#181818;stroke-width:1.0;"/><path d="M559.6143,848.14 L551.8945,848.14 L551.8945,835.7469 L559.6143,835.7469 L559.6143,837.9051 L554.3433,837.9051 L554.3433,840.578 L559.1162,840.578 L559.1162,842.7362 L554.3433,842.7362 L554.3433,845.9818 L559.6143,845.9818 Z " fill="#000000"/><text fill="#000000" font-family="sans-serif" font-size="14" lengthAdjust="spacing" textLength="90" x="570" y="846.931">PosisjonType</text><line style="stroke:#181818;stroke-width:0.5;" x1="542" x2="662" y1="857.64" y2="857.64"/><text fill="#000000" font-family="sans-serif" font-size="14" lengthAdjust="spacing" textLength="35" x="547" y="875.1752">Point</text><line style="stroke:#181818;stroke-width:0.5;" x1="542" x2="662" y1="882.1283" y2="882.1283"/></g><!--class Saksnummer--><g id="elem_Saksnummer"><rect codeLine="2" fill="#F1F1F1" height="80.9766" id="Saksnummer" rx="2.5" ry="2.5" style="stroke:#181818;stroke-width:0.5;" width="225" x="632.5" y="635.2"/><ellipse cx="696.25" cy="651.2" fill="#ADD1B2" rx="11" ry="11" style="stroke:#181818;stroke-width:1.0;"/><path d="M698.7231,657.3431 Q698.1421,657.6419 697.5029,657.7913 Q696.8638,657.9407 696.1582,657.9407 Q693.6514,657.9407 692.3315,656.2889 Q691.0117,654.637 691.0117,651.5159 Q691.0117,648.3865 692.3315,646.7347 Q693.6514,645.0828 696.1582,645.0828 Q696.8638,645.0828 697.5112,645.2322 Q698.1587,645.3816 698.7231,645.6805 L698.7231,648.4031 Q698.0923,647.8221 697.4988,647.5523 Q696.9053,647.2825 696.2744,647.2825 Q694.9297,647.2825 694.2449,648.3492 Q693.5601,649.4158 693.5601,651.5159 Q693.5601,653.6077 694.2449,654.6744 Q694.9297,655.741 696.2744,655.741 Q696.9053,655.741 697.4988,655.4712 Q698.0923,655.2015 698.7231,654.6204 Z " fill="#000000"/><text fill="#000000" font-family="sans-serif" font-size="14" lengthAdjust="spacing" textLength="89" x="716.75" y="656.491">Saksnummer</text><line style="stroke:#181818;stroke-width:0.5;" x1="633.5" x2="856.5" y1="667.2" y2="667.2"/><ellipse cx="643.5" cy="680.9441" fill="none" rx="3" ry="3" style="stroke:#038048;stroke-width:1.0;"/><text fill="#000000" font-family="sans-serif" font-size="14" lengthAdjust="spacing" textLength="109" x="652.5" y="684.7352">saksaar: integer</text><ellipse cx="643.5" cy="697.4324" fill="none" rx="3" ry="3" style="stroke:#038048;stroke-width:1.0;"/><text fill="#000000" font-family="sans-serif" font-size="14" lengthAdjust="spacing" textLength="199" x="652.5" y="701.2234">sakssekvensnummer: integer</text><line style="stroke:#181818;stroke-width:0.5;" x1="633.5" x2="856.5" y1="708.1766" y2="708.1766"/></g><!--class Dokument--><g id="elem_Dokument"><rect codeLine="1" fill="#F1F1F1" height="146.9297" id="Dokument" rx="2.5" ry="2.5" style="stroke:#181818;stroke-width:0.5;" width="335" x="1564.5" y="602.23"/><ellipse cx="1692.25" cy="618.23" fill="#ADD1B2" rx="11" ry="11" style="stroke:#181818;stroke-width:1.0;"/><path d="M1694.7231,624.3731 Q1694.1421,624.6719 1693.5029,624.8213 Q1692.8638,624.9707 1692.1582,624.9707 Q1689.6514,624.9707 1688.3315,623.3189 Q1687.0117,621.667 1687.0117,618.5459 Q1687.0117,615.4165 1688.3315,613.7647 Q1689.6514,612.1128 1692.1582,612.1128 Q1692.8638,612.1128 1693.5112,612.2622 Q1694.1587,612.4116 1694.7231,612.7105 L1694.7231,615.4331 Q1694.0923,614.8521 1693.4988,614.5823 Q1692.9053,614.3125 1692.2744,614.3125 Q1690.9297,614.3125 1690.2449,615.3792 Q1689.5601,616.4458 1689.5601,618.5459 Q1689.5601,620.6377 1690.2449,621.7044 Q1690.9297,622.771 1692.2744,622.771 Q1692.9053,622.771 1693.4988,622.5012 Q1694.0923,622.2315 1694.7231,621.6504 Z " fill="#000000"/><text fill="#000000" font-family="sans-serif" font-size="14" lengthAdjust="spacing" textLength="71" x="1712.75" y="623.521">Dokument</text><line style="stroke:#181818;stroke-width:0.5;" x1="1565.5" x2="1898.5" y1="634.23" y2="634.23"/><ellipse cx="1575.5" cy="647.9741" fill="none" rx="3" ry="3" style="stroke:#038048;stroke-width:1.0;"/><text fill="#000000" font-family="sans-serif" font-size="14" lengthAdjust="spacing" textLength="79" x="1584.5" y="651.7652">tittel: string</text><ellipse cx="1575.5" cy="664.4624" fill="none" rx="3" ry="3" style="stroke:#038048;stroke-width:1.0;"/><text fill="#000000" font-family="sans-serif" font-size="14" lengthAdjust="spacing" textLength="207" x="1584.5" y="668.2534">dokumenttype: Dokumenttype</text><ellipse cx="1575.5" cy="680.9507" fill="none" rx="3" ry="3" style="stroke:#038048;stroke-width:1.0;"/><text fill="#000000" font-family="sans-serif" font-size="14" lengthAdjust="spacing" textLength="309" x="1584.5" y="684.7417">referanseDokumentfil: ReferanseDokumentfil</text><ellipse cx="1575.5" cy="697.439" fill="none" rx="3" ry="3" style="stroke:#038048;stroke-width:1.0;"/><text fill="#000000" font-family="sans-serif" font-size="14" lengthAdjust="spacing" textLength="115" x="1584.5" y="701.23">mimetype: string</text><ellipse cx="1575.5" cy="713.9273" fill="none" rx="3" ry="3" style="stroke:#038048;stroke-width:1.0;"/><text fill="#000000" font-family="sans-serif" font-size="14" lengthAdjust="spacing" textLength="146" x="1584.5" y="717.7183">dokumentsdato: date</text><ellipse cx="1575.5" cy="730.4155" fill="none" rx="3" ry="3" style="stroke:#038048;stroke-width:1.0;"/><text fill="#000000" font-family="sans-serif" font-size="14" lengthAdjust="spacing" textLength="114" x="1584.5" y="734.2066">arkivnavn: string</text><line style="stroke:#181818;stroke-width:0.5;" x1="1565.5" x2="1898.5" y1="741.1597" y2="741.1597"/></g><!--class Dokumenttype--><g id="elem_Dokumenttype"><rect codeLine="13" fill="#F1F1F1" height="89.5977" id="Dokumenttype" rx="2.5" ry="2.5" style="stroke:#181818;stroke-width:0.5;" width="184" x="1530" y="813.09"/><ellipse cx="1568.4" cy="833.4005" fill="#ADD1B2" rx="11" ry="11" style="stroke:#181818;stroke-width:1.0;"/><path d="M1570.8731,839.5436 Q1570.2921,839.8424 1569.6529,839.9919 Q1569.0138,840.1413 1568.3082,840.1413 Q1565.8014,840.1413 1564.4815,838.4894 Q1563.1617,836.8376 1563.1617,833.7165 Q1563.1617,830.5871 1564.4815,828.9352 Q1565.8014,827.2834 1568.3082,827.2834 Q1569.0138,827.2834 1569.6612,827.4328 Q1570.3087,827.5822 1570.8731,827.881 L1570.8731,830.6037 Q1570.2423,830.0226 1569.6488,829.7528 Q1569.0553,829.4831 1568.4244,829.4831 Q1567.0797,829.4831 1566.3949,830.5497 Q1565.7101,831.6164 1565.7101,833.7165 Q1565.7101,835.8083 1566.3949,836.8749 Q1567.0797,837.9416 1568.4244,837.9416 Q1569.0553,837.9416 1569.6488,837.6718 Q1570.2423,837.402 1570.8731,836.821 Z " fill="#000000"/><text fill="#000000" font-family="sans-serif" font-size="12" font-style="italic" lengthAdjust="spacing" textLength="42" x="1616.6" y="829.6916">&#171;Kode&#187;</text><text fill="#000000" font-family="sans-serif" font-size="14" lengthAdjust="spacing" textLength="100" x="1587.6" y="845.758">Dokumenttype</text><line style="stroke:#181818;stroke-width:0.5;" x1="1531" x2="1713" y1="853.7111" y2="853.7111"/><ellipse cx="1541" cy="867.4552" fill="none" rx="3" ry="3" style="stroke:#038048;stroke-width:1.0;"/><text fill="#000000" font-family="sans-serif" font-size="14" lengthAdjust="spacing" textLength="116" x="1550" y="871.2463">kodeverdi: string</text><ellipse cx="1541" cy="883.9435" fill="none" rx="3" ry="3" style="stroke:#038048;stroke-width:1.0;"/><text fill="#000000" font-family="sans-serif" font-size="14" lengthAdjust="spacing" textLength="158" x="1550" y="887.7345">kodebeskrivelse: string</text><line style="stroke:#181818;stroke-width:0.5;" x1="1531" x2="1713" y1="894.6877" y2="894.6877"/></g><!--class ReferanseDokumentfil--><g id="elem_ReferanseDokumentfil"><rect codeLine="18" fill="#F1F1F1" height="80.9766" id="ReferanseDokumentfil" rx="2.5" ry="2.5" style="stroke:#181818;stroke-width:0.5;" width="184" x="1749" y="817.4"/><ellipse cx="1764" cy="833.4" fill="#ADD1B2" rx="11" ry="11" style="stroke:#181818;stroke-width:1.0;"/><path d="M1766.4731,839.5431 Q1765.8921,839.8419 1765.2529,839.9913 Q1764.6138,840.1407 1763.9082,840.1407 Q1761.4014,840.1407 1760.0815,838.4889 Q1758.7617,836.837 1758.7617,833.7159 Q1758.7617,830.5865 1760.0815,828.9347 Q1761.4014,827.2828 1763.9082,827.2828 Q1764.6138,827.2828 1765.2612,827.4322 Q1765.9087,827.5816 1766.4731,827.8805 L1766.4731,830.6031 Q1765.8423,830.0221 1765.2488,829.7523 Q1764.6553,829.4825 1764.0244,829.4825 Q1762.6797,829.4825 1761.9949,830.5492 Q1761.3101,831.6158 1761.3101,833.7159 Q1761.3101,835.8077 1761.9949,836.8744 Q1762.6797,837.941 1764.0244,837.941 Q1764.6553,837.941 1765.2488,837.6712 Q1765.8423,837.4015 1766.4731,836.8204 Z " fill="#000000"/><text fill="#000000" font-family="sans-serif" font-size="14" lengthAdjust="spacing" textLength="152" x="1778" y="838.691">ReferanseDokumentfil</text><line style="stroke:#181818;stroke-width:0.5;" x1="1750" x2="1932" y1="849.4" y2="849.4"/><ellipse cx="1760" cy="863.1441" fill="none" rx="3" ry="3" style="stroke:#038048;stroke-width:1.0;"/><text fill="#000000" font-family="sans-serif" font-size="14" lengthAdjust="spacing" textLength="61" x="1769" y="866.9352">id: string</text><ellipse cx="1760" cy="879.6324" fill="none" rx="3" ry="3" style="stroke:#038048;stroke-width:1.0;"/><text fill="#000000" font-family="sans-serif" font-size="14" lengthAdjust="spacing" textLength="67" x="1769" y="883.4234">url: string</text><line style="stroke:#181818;stroke-width:0.5;" x1="1750" x2="1932" y1="890.3766" y2="890.3766"/></g><!--class Dispensasjon--><g id="elem_Dispensasjon"><rect codeLine="6" fill="#F1F1F1" height="311.8125" id="Dispensasjon" rx="2.5" ry="2.5" style="stroke:#181818;stroke-width:0.5;" width="363" x="902.5" y="230.41"/><ellipse cx="1034.25" cy="246.41" fill="#ADD1B2" rx="11" ry="11" style="stroke:#181818;stroke-width:1.0;"/><path d="M1036.7231,252.5531 Q1036.1421,252.8519 1035.5029,253.0013 Q1034.8638,253.1507 1034.1582,253.1507 Q1031.6514,253.1507 1030.3315,251.4989 Q1029.0117,249.847 1029.0117,246.7259 Q1029.0117,243.5965 1030.3315,241.9447 Q1031.6514,240.2928 1034.1582,240.2928 Q1034.8638,240.2928 1035.5112,240.4422 Q1036.1587,240.5916 1036.7231,240.8905 L1036.7231,243.6131 Q1036.0923,243.0321 1035.4988,242.7623 Q1034.9053,242.4925 1034.2744,242.4925 Q1032.9297,242.4925 1032.2449,243.5592 Q1031.5601,244.6258 1031.5601,246.7259 Q1031.5601,248.8177 1032.2449,249.8844 Q1032.9297,250.951 1034.2744,250.951 Q1034.9053,250.951 1035.4988,250.6812 Q1036.0923,250.4115 1036.7231,249.8304 Z " fill="#000000"/><text fill="#000000" font-family="sans-serif" font-size="14" lengthAdjust="spacing" textLength="91" x="1054.75" y="251.701">Dispensasjon</text><line style="stroke:#181818;stroke-width:0.5;" x1="903.5" x2="1264.5" y1="262.41" y2="262.41"/><ellipse cx="913.5" cy="276.1541" fill="none" rx="3" ry="3" style="stroke:#038048;stroke-width:1.0;"/><text fill="#000000" font-family="sans-serif" font-size="14" lengthAdjust="spacing" textLength="141" x="922.5" y="279.9452">identifikasjon: string</text><ellipse cx="913.5" cy="292.6424" fill="none" rx="3" ry="3" style="stroke:#038048;stroke-width:1.0;"/><text fill="#000000" font-family="sans-serif" font-size="14" lengthAdjust="spacing" textLength="247" x="922.5" y="296.4334">dispensasjontype: Dispensasjontype</text><ellipse cx="913.5" cy="309.1307" fill="none" rx="3" ry="3" style="stroke:#038048;stroke-width:1.0;"/><text fill="#000000" font-family="sans-serif" font-size="14" lengthAdjust="spacing" textLength="337" x="922.5" y="312.9217">dispensasjonFraLovverk: DispensasjonFraLovverk</text><ellipse cx="913.5" cy="325.619" fill="none" rx="3" ry="3" style="stroke:#038048;stroke-width:1.0;"/><text fill="#000000" font-family="sans-serif" font-size="14" lengthAdjust="spacing" textLength="160" x="922.5" y="329.41">dispensasjonFra: string</text><ellipse cx="913.5" cy="342.1073" fill="none" rx="3" ry="3" style="stroke:#038048;stroke-width:1.0;"/><text fill="#000000" font-family="sans-serif" font-size="14" lengthAdjust="spacing" textLength="283" x="922.5" y="345.8983">nasjonalArealplanId: NasjonalArealplanId</text><ellipse cx="913.5" cy="358.5955" fill="none" rx="3" ry="3" style="stroke:#038048;stroke-width:1.0;"/><text fill="#000000" font-family="sans-serif" font-size="14" lengthAdjust="spacing" textLength="134" x="922.5" y="362.3866">begrunnelse: string</text><ellipse cx="913.5" cy="375.0838" fill="none" rx="3" ry="3" style="stroke:#038048;stroke-width:1.0;"/><text fill="#000000" font-family="sans-serif" font-size="14" lengthAdjust="spacing" textLength="125" x="922.5" y="378.8748">vedtaksdato:  date</text><ellipse cx="913.5" cy="391.5721" fill="none" rx="3" ry="3" style="stroke:#038048;stroke-width:1.0;"/><text fill="#000000" font-family="sans-serif" font-size="14" lengthAdjust="spacing" textLength="123" x="922.5" y="395.3631">posisjon: Posisjon</text><ellipse cx="913.5" cy="408.0604" fill="none" rx="3" ry="3" style="stroke:#038048;stroke-width:1.0;"/><text fill="#000000" font-family="sans-serif" font-size="14" lengthAdjust="spacing" textLength="182" x="922.5" y="411.8514">vertikalnivaa: Vertikalnivaa</text><ellipse cx="913.5" cy="424.5487" fill="none" rx="3" ry="3" style="stroke:#038048;stroke-width:1.0;"/><text fill="#000000" font-family="sans-serif" font-size="14" lengthAdjust="spacing" textLength="124" x="922.5" y="428.3397">beskrivelse: string</text><ellipse cx="913.5" cy="441.037" fill="none" rx="3" ry="3" style="stroke:#038048;stroke-width:1.0;"/><text fill="#000000" font-family="sans-serif" font-size="14" lengthAdjust="spacing" textLength="214" x="922.5" y="444.828">innvilgetDispensasjon: boolean</text><ellipse cx="913.5" cy="457.5252" fill="none" rx="3" ry="3" style="stroke:#038048;stroke-width:1.0;"/><text fill="#000000" font-family="sans-serif" font-size="14" lengthAdjust="spacing" textLength="185" x="922.5" y="461.3162">saksnummer: Saksnummer</text><ellipse cx="913.5" cy="474.0135" fill="none" rx="3" ry="3" style="stroke:#038048;stroke-width:1.0;"/><text fill="#000000" font-family="sans-serif" font-size="14" lengthAdjust="spacing" textLength="189" x="922.5" y="477.8045">varigDispensasjon: boolean</text><ellipse cx="913.5" cy="490.5018" fill="none" rx="3" ry="3" style="stroke:#038048;stroke-width:1.0;"/><text fill="#000000" font-family="sans-serif" font-size="14" lengthAdjust="spacing" textLength="116" x="922.5" y="494.2928">varighetFra: date</text><ellipse cx="913.5" cy="506.9901" fill="none" rx="3" ry="3" style="stroke:#038048;stroke-width:1.0;"/><text fill="#000000" font-family="sans-serif" font-size="14" lengthAdjust="spacing" textLength="111" x="922.5" y="510.7811">varighetTil: date</text><ellipse cx="913.5" cy="523.4784" fill="none" rx="3" ry="3" style="stroke:#038048;stroke-width:1.0;"/><text fill="#000000" font-family="sans-serif" font-size="14" lengthAdjust="spacing" textLength="203" x="922.5" y="527.2694">plandokumenter: Dokument[]</text><line style="stroke:#181818;stroke-width:0.5;" x1="903.5" x2="1264.5" y1="534.2225" y2="534.2225"/></g><path d="M435,328.04 L435,383.9716 A0,0 0 0 0 435,383.9716 L867,383.9716 A0,0 0 0 0 867,383.9716 L867,360.0058 L906.5,291.1424 L867,352.0058 L867,338.04 L857,328.04 L435,328.04 A0,0 0 0 0 435,328.04 " fill="#FEFFDD" style="stroke:#181818;stroke-width:0.5;"/><path d="M857,328.04 L857,338.04 L867,338.04 L857,328.04 " fill="#FEFFDD" style="stroke:#181818;stroke-width:0.5;"/><text fill="#000000" font-family="sans-serif" font-size="13" lengthAdjust="spacing" textLength="273" x="441" y="345.6084">dispensasjontype er hentet fra Planregister.</text><text fill="#000000" font-family="sans-serif" font-size="13" lengthAdjust="spacing" textLength="411" x="441" y="360.9189">Denne kodelisten er gyldig kun n&#229;r man dispenserer fra arealplan</text><text fill="#000000" font-family="sans-serif" font-size="13" lengthAdjust="spacing" textLength="225" x="441" y="376.2295">I SOSI 4.5 heter denne dispensasjon</text><path d="M435,393.9716 L435,434.5927 A0,0 0 0 0 435,434.5927 L860,434.5927 A0,0 0 0 0 860,434.5927 L860,418.2822 L906.5,307.6307 L860,410.2822 L860,403.9716 L850,393.9716 L435,393.9716 A0,0 0 0 0 435,393.9716 " fill="#FEFFDD" style="stroke:#181818;stroke-width:0.5;"/><path d="M850,393.9716 L850,403.9716 L860,403.9716 L850,393.9716 " fill="#FEFFDD" style="stroke:#181818;stroke-width:0.5;"/><text fill="#000000" font-family="sans-serif" font-size="13" lengthAdjust="spacing" textLength="404" x="441" y="411.54">dispensasajonFraLovverk: se kodelisten dispensasjonfralovverk.</text><text fill="#000000" font-family="sans-serif" font-size="13" lengthAdjust="spacing" textLength="353" x="441" y="426.8505">Opprinnelig hentet fra eByggesak. Finnes ikke i SOSI 4.5</text><g id="elem_GMN19"><path d="M812.5,22.46 L812.5,154.9444 A0,0 0 0 0 812.5,154.9444 L1080,154.9444 L1084,230.1 L1088,154.9444 L1355.5,154.9444 A0,0 0 0 0 1355.5,154.9444 L1355.5,32.46 L1345.5,22.46 L812.5,22.46 A0,0 0 0 0 812.5,22.46 " fill="#FEFFDD" style="stroke:#181818;stroke-width:0.5;"/><path d="M1345.5,22.46 L1345.5,32.46 L1355.5,32.46 L1345.5,22.46 " fill="#FEFFDD" style="stroke:#181818;stroke-width:0.5;"/><text fill="#000000" font-family="sans-serif" font-size="13" lengthAdjust="spacing" textLength="106" x="818.5" y="40.0284">dispensasjonFra:</text><text fill="#000000" font-family="sans-serif" font-size="13" lengthAdjust="spacing" textLength="181" x="818.5" y="55.3389">Hentet fra SOSI 4.5 (dispFra):</text><text fill="#000000" font-family="sans-serif" font-size="13" lengthAdjust="spacing" textLength="340" x="818.5" y="70.6495">&#8221;dispFra&#8221; skal ha verdi dersom dispensasjonen gjelder</text><text fill="#000000" font-family="sans-serif" font-size="13" lengthAdjust="spacing" textLength="228" x="818.5" y="85.96">&#8217;Arealbruk kommune(del)plan=140&#8217;,</text><text fill="#000000" font-family="sans-serif" font-size="13" lengthAdjust="spacing" textLength="259" x="818.5" y="101.2705">&#8217;Regulerings/bebyggelsesplan=160&#8217; eller</text><text fill="#000000" font-family="sans-serif" font-size="13" lengthAdjust="spacing" textLength="126" x="818.5" y="116.5811">&#8217;Hensynssone=170&#8217;</text><text fill="#000000" font-family="sans-serif" font-size="13" lengthAdjust="spacing" textLength="522" x="818.5" y="131.8916">dispensasjonFra kan inneholde en utvidet beskrivelse om hva det er dispensert fra,</text><text fill="#000000" font-family="sans-serif" font-size="13" lengthAdjust="spacing" textLength="140" x="818.5" y="147.2022">f.eks. lovparagraf osv.</text></g><!--class DispensasjonType--><g id="elem_DispensasjonType"><rect codeLine="55" fill="#F1F1F1" height="89.5977" id="DispensasjonType" rx="2.5" ry="2.5" style="stroke:#181818;stroke-width:0.5;" width="184" x="893" y="630.89"/><ellipse cx="920.6" cy="651.2005" fill="#ADD1B2" rx="11" ry="11" style="stroke:#181818;stroke-width:1.0;"/><path d="M923.0731,657.3436 Q922.4921,657.6424 921.8529,657.7919 Q921.2138,657.9413 920.5082,657.9413 Q918.0014,657.9413 916.6815,656.2894 Q915.3617,654.6376 915.3617,651.5165 Q915.3617,648.3871 916.6815,646.7352 Q918.0014,645.0834 920.5082,645.0834 Q921.2138,645.0834 921.8612,645.2328 Q922.5087,645.3822 923.0731,645.681 L923.0731,648.4037 Q922.4423,647.8226 921.8488,647.5528 Q921.2553,647.2831 920.6244,647.2831 Q919.2797,647.2831 918.5949,648.3497 Q917.9101,649.4164 917.9101,651.5165 Q917.9101,653.6083 918.5949,654.6749 Q919.2797,655.7416 920.6244,655.7416 Q921.2553,655.7416 921.8488,655.4718 Q922.4423,655.202 923.0731,654.621 Z " fill="#000000"/><text fill="#000000" font-family="sans-serif" font-size="12" font-style="italic" lengthAdjust="spacing" textLength="42" x="978.4" y="647.4916">&#171;Kode&#187;</text><text fill="#000000" font-family="sans-serif" font-size="14" lengthAdjust="spacing" textLength="124" x="937.4" y="663.558">DispensasjonType</text><line style="stroke:#181818;stroke-width:0.5;" x1="894" x2="1076" y1="671.5111" y2="671.5111"/><ellipse cx="904" cy="685.2552" fill="none" rx="3" ry="3" style="stroke:#038048;stroke-width:1.0;"/><text fill="#000000" font-family="sans-serif" font-size="14" lengthAdjust="spacing" textLength="116" x="913" y="689.0463">kodeverdi: string</text><ellipse cx="904" cy="701.7435" fill="none" rx="3" ry="3" style="stroke:#038048;stroke-width:1.0;"/><text fill="#000000" font-family="sans-serif" font-size="14" lengthAdjust="spacing" textLength="158" x="913" y="705.5345">kodebeskrivelse: string</text><line style="stroke:#181818;stroke-width:0.5;" x1="894" x2="1076" y1="712.4877" y2="712.4877"/></g><!--class DispensasjonFraLovverk--><g id="elem_DispensasjonFraLovverk"><rect codeLine="60" fill="#F1F1F1" height="89.5977" id="DispensasjonFraLovverk" rx="2.5" ry="2.5" style="stroke:#181818;stroke-width:0.5;" width="197" x="1112.5" y="630.89"/><ellipse cx="1127.5" cy="651.2005" fill="#ADD1B2" rx="11" ry="11" style="stroke:#181818;stroke-width:1.0;"/><path d="M1129.9731,657.3436 Q1129.3921,657.6424 1128.7529,657.7919 Q1128.1138,657.9413 1127.4082,657.9413 Q1124.9014,657.9413 1123.5815,656.2894 Q1122.2617,654.6376 1122.2617,651.5165 Q1122.2617,648.3871 1123.5815,646.7352 Q1124.9014,645.0834 1127.4082,645.0834 Q1128.1138,645.0834 1128.7612,645.2328 Q1129.4087,645.3822 1129.9731,645.681 L1129.9731,648.4037 Q1129.3423,647.8226 1128.7488,647.5528 Q1128.1553,647.2831 1127.5244,647.2831 Q1126.1797,647.2831 1125.4949,648.3497 Q1124.8101,649.4164 1124.8101,651.5165 Q1124.8101,653.6083 1125.4949,654.6749 Q1126.1797,655.7416 1127.5244,655.7416 Q1128.1553,655.7416 1128.7488,655.4718 Q1129.3423,655.202 1129.9731,654.621 Z " fill="#000000"/><text fill="#000000" font-family="sans-serif" font-size="12" font-style="italic" lengthAdjust="spacing" textLength="42" x="1203" y="647.4916">&#171;Kode&#187;</text><text fill="#000000" font-family="sans-serif" font-size="14" lengthAdjust="spacing" textLength="165" x="1141.5" y="663.558">DispensasjonFraLovverk</text><line style="stroke:#181818;stroke-width:0.5;" x1="1113.5" x2="1308.5" y1="671.5111" y2="671.5111"/><ellipse cx="1123.5" cy="685.2552" fill="none" rx="3" ry="3" style="stroke:#038048;stroke-width:1.0;"/><text fill="#000000" font-family="sans-serif" font-size="14" lengthAdjust="spacing" textLength="116" x="1132.5" y="689.0463">kodeverdi: string</text><ellipse cx="1123.5" cy="701.7435" fill="none" rx="3" ry="3" style="stroke:#038048;stroke-width:1.0;"/><text fill="#000000" font-family="sans-serif" font-size="14" lengthAdjust="spacing" textLength="158" x="1132.5" y="705.5345">kodebeskrivelse: string</text><line style="stroke:#181818;stroke-width:0.5;" x1="1113.5" x2="1308.5" y1="712.4877" y2="712.4877"/></g><!--class Vertikalnivaa--><g id="elem_Vertikalnivaa"><rect codeLine="65" fill="#F1F1F1" height="89.5977" id="Vertikalnivaa" rx="2.5" ry="2.5" style="stroke:#181818;stroke-width:0.5;" width="184" x="1345" y="630.89"/><ellipse cx="1388.8" cy="651.2005" fill="#ADD1B2" rx="11" ry="11" style="stroke:#181818;stroke-width:1.0;"/><path d="M1391.2731,657.3436 Q1390.6921,657.6424 1390.0529,657.7919 Q1389.4138,657.9413 1388.7082,657.9413 Q1386.2014,657.9413 1384.8815,656.2894 Q1383.5617,654.6376 1383.5617,651.5165 Q1383.5617,648.3871 1384.8815,646.7352 Q1386.2014,645.0834 1388.7082,645.0834 Q1389.4138,645.0834 1390.0612,645.2328 Q1390.7087,645.3822 1391.2731,645.681 L1391.2731,648.4037 Q1390.6423,647.8226 1390.0488,647.5528 Q1389.4553,647.2831 1388.8244,647.2831 Q1387.4797,647.2831 1386.7949,648.3497 Q1386.1101,649.4164 1386.1101,651.5165 Q1386.1101,653.6083 1386.7949,654.6749 Q1387.4797,655.7416 1388.8244,655.7416 Q1389.4553,655.7416 1390.0488,655.4718 Q1390.6423,655.202 1391.2731,654.621 Z " fill="#000000"/><text fill="#000000" font-family="sans-serif" font-size="12" font-style="italic" lengthAdjust="spacing" textLength="42" x="1432.2" y="647.4916">&#171;Kode&#187;</text><text fill="#000000" font-family="sans-serif" font-size="14" lengthAdjust="spacing" textLength="88" x="1409.2" y="663.558">Vertikalnivaa</text><line style="stroke:#181818;stroke-width:0.5;" x1="1346" x2="1528" y1="671.5111" y2="671.5111"/><ellipse cx="1356" cy="685.2552" fill="none" rx="3" ry="3" style="stroke:#038048;stroke-width:1.0;"/><text fill="#000000" font-family="sans-serif" font-size="14" lengthAdjust="spacing" textLength="116" x="1365" y="689.0463">kodeverdi: string</text><ellipse cx="1356" cy="701.7435" fill="none" rx="3" ry="3" style="stroke:#038048;stroke-width:1.0;"/><text fill="#000000" font-family="sans-serif" font-size="14" lengthAdjust="spacing" textLength="158" x="1365" y="705.5345">kodebeskrivelse: string</text><line style="stroke:#181818;stroke-width:0.5;" x1="1346" x2="1528" y1="712.4877" y2="712.4877"/></g><!--class OppdaterDispensasjon--><g id="elem_OppdaterDispensasjon"><rect codeLine="4" fill="#F1F1F1" height="163.418" id="OppdaterDispensasjon" rx="2.5" ry="2.5" style="stroke:#181818;stroke-width:0.5;" width="421" x="1505.5" y="7"/><ellipse cx="1633.75" cy="23" fill="#ADD1B2" rx="11" ry="11" style="stroke:#181818;stroke-width:1.0;"/><path d="M1636.2231,29.1431 Q1635.6421,29.4419 1635.0029,29.5913 Q1634.3638,29.7407 1633.6582,29.7407 Q1631.1514,29.7407 1629.8315,28.0889 Q1628.5117,26.437 1628.5117,23.3159 Q1628.5117,20.1865 1629.8315,18.5347 Q1631.1514,16.8828 1633.6582,16.8828 Q1634.3638,16.8828 1635.0112,17.0322 Q1635.6587,17.1816 1636.2231,17.4805 L1636.2231,20.2031 Q1635.5923,19.6221 1634.9988,19.3523 Q1634.4053,19.0825 1633.7744,19.0825 Q1632.4297,19.0825 1631.7449,20.1492 Q1631.0601,21.2158 1631.0601,23.3159 Q1631.0601,25.4077 1631.7449,26.4744 Q1632.4297,27.541 1633.7744,27.541 Q1634.4053,27.541 1634.9988,27.2712 Q1635.5923,27.0015 1636.2231,26.4204 Z " fill="#000000"/><text fill="#000000" font-family="sans-serif" font-size="14" lengthAdjust="spacing" textLength="156" x="1654.25" y="28.291">OppdaterDispensasjon</text><line style="stroke:#181818;stroke-width:0.5;" x1="1506.5" x2="1925.5" y1="39" y2="39"/><ellipse cx="1516.5" cy="52.7441" fill="none" rx="3" ry="3" style="stroke:#038048;stroke-width:1.0;"/><text fill="#000000" font-family="sans-serif" font-size="14" lengthAdjust="spacing" textLength="189" x="1525.5" y="56.5352">dispensasjon: Dispensasjon</text><ellipse cx="1516.5" cy="69.2324" fill="none" rx="3" ry="3" style="stroke:#038048;stroke-width:1.0;"/><text fill="#000000" font-family="sans-serif" font-size="14" lengthAdjust="spacing" textLength="192" x="1525.5" y="73.0234">opphevIdentifikasjon: string</text><ellipse cx="1516.5" cy="85.7207" fill="none" rx="3" ry="3" style="stroke:#038048;stroke-width:1.0;"/><text fill="#000000" font-family="sans-serif" font-size="14" lengthAdjust="spacing" textLength="134" x="1525.5" y="89.5117">begrunnelse: string</text><ellipse cx="1516.5" cy="102.209" fill="none" rx="3" ry="3" style="stroke:#038048;stroke-width:1.0;"/><text fill="#000000" font-family="sans-serif" font-size="14" lengthAdjust="spacing" textLength="395" x="1525.5" y="106">referanseKlageSaksnummer: ReferanseKlageSaksnummer</text><ellipse cx="1516.5" cy="118.6973" fill="none" rx="3" ry="3" style="stroke:#038048;stroke-width:1.0;"/><text fill="#000000" font-family="sans-serif" font-size="14" lengthAdjust="spacing" textLength="203" x="1525.5" y="122.4883">plandokumenter: Dokument[]</text><ellipse cx="1516.5" cy="135.1855" fill="none" rx="3" ry="3" style="stroke:#038048;stroke-width:1.0;"/><text fill="#000000" font-family="sans-serif" font-size="14" lengthAdjust="spacing" textLength="241" x="1525.5" y="138.9766">forslagstillertype: Forslagstillertype</text><ellipse cx="1516.5" cy="151.6738" fill="none" rx="3" ry="3" style="stroke:#038048;stroke-width:1.0;"/><text fill="#000000" font-family="sans-serif" font-size="14" lengthAdjust="spacing" textLength="143" x="1525.5" y="155.4648">vedlegg: Dokument[]</text><line style="stroke:#181818;stroke-width:0.5;" x1="1506.5" x2="1925.5" y1="162.418" y2="162.418"/></g><!--class ReferanseKlageSaksnummer--><g id="elem_ReferanseKlageSaksnummer"><rect codeLine="14" fill="#F1F1F1" height="80.9766" id="ReferanseKlageSaksnummer" rx="2.5" ry="2.5" style="stroke:#181818;stroke-width:0.5;" width="227" x="1686.5" y="345.83"/><ellipse cx="1701.5" cy="361.83" fill="#ADD1B2" rx="11" ry="11" style="stroke:#181818;stroke-width:1.0;"/><path d="M1703.9731,367.9731 Q1703.3921,368.2719 1702.7529,368.4213 Q1702.1138,368.5707 1701.4082,368.5707 Q1698.9014,368.5707 1697.5815,366.9189 Q1696.2617,365.267 1696.2617,362.1459 Q1696.2617,359.0165 1697.5815,357.3647 Q1698.9014,355.7128 1701.4082,355.7128 Q1702.1138,355.7128 1702.7612,355.8622 Q1703.4087,356.0116 1703.9731,356.3105 L1703.9731,359.0331 Q1703.3423,358.4521 1702.7488,358.1823 Q1702.1553,357.9125 1701.5244,357.9125 Q1700.1797,357.9125 1699.4949,358.9792 Q1698.8101,360.0458 1698.8101,362.1459 Q1698.8101,364.2377 1699.4949,365.3044 Q1700.1797,366.371 1701.5244,366.371 Q1702.1553,366.371 1702.7488,366.1012 Q1703.3423,365.8315 1703.9731,365.2504 Z " fill="#000000"/><text fill="#000000" font-family="sans-serif" font-size="14" lengthAdjust="spacing" textLength="195" x="1715.5" y="367.121">ReferanseKlageSaksnummer</text><line style="stroke:#181818;stroke-width:0.5;" x1="1687.5" x2="1912.5" y1="377.83" y2="377.83"/><ellipse cx="1697.5" cy="391.5741" fill="none" rx="3" ry="3" style="stroke:#038048;stroke-width:1.0;"/><text fill="#000000" font-family="sans-serif" font-size="14" lengthAdjust="spacing" textLength="109" x="1706.5" y="395.3652">saksaar: integer</text><ellipse cx="1697.5" cy="408.0624" fill="none" rx="3" ry="3" style="stroke:#038048;stroke-width:1.0;"/><text fill="#000000" font-family="sans-serif" font-size="14" lengthAdjust="spacing" textLength="199" x="1706.5" y="411.8534">sakssekvensnummer: integer</text><line style="stroke:#181818;stroke-width:0.5;" x1="1687.5" x2="1912.5" y1="418.8066" y2="418.8066"/></g><!--class ForslagstillerType--><g id="elem_ForslagstillerType"><rect codeLine="19" fill="#F1F1F1" height="89.5977" id="ForslagstillerType" rx="2.5" ry="2.5" style="stroke:#181818;stroke-width:0.5;" width="184" x="1949" y="341.52"/><ellipse cx="1977.5" cy="361.8305" fill="#ADD1B2" rx="11" ry="11" style="stroke:#181818;stroke-width:1.0;"/><path d="M1979.9731,367.9736 Q1979.3921,368.2724 1978.7529,368.4219 Q1978.1138,368.5713 1977.4082,368.5713 Q1974.9014,368.5713 1973.5815,366.9194 Q1972.2617,365.2676 1972.2617,362.1465 Q1972.2617,359.0171 1973.5815,357.3652 Q1974.9014,355.7134 1977.4082,355.7134 Q1978.1138,355.7134 1978.7612,355.8628 Q1979.4087,356.0122 1979.9731,356.311 L1979.9731,359.0337 Q1979.3423,358.4526 1978.7488,358.1828 Q1978.1553,357.9131 1977.5244,357.9131 Q1976.1797,357.9131 1975.4949,358.9797 Q1974.8101,360.0464 1974.8101,362.1465 Q1974.8101,364.2383 1975.4949,365.3049 Q1976.1797,366.3716 1977.5244,366.3716 Q1978.1553,366.3716 1978.7488,366.1018 Q1979.3423,365.832 1979.9731,365.251 Z " fill="#000000"/><text fill="#000000" font-family="sans-serif" font-size="12" font-style="italic" lengthAdjust="spacing" textLength="42" x="2034.5" y="358.1216">&#171;Kode&#187;</text><text fill="#000000" font-family="sans-serif" font-size="14" lengthAdjust="spacing" textLength="122" x="1994.5" y="374.188">ForslagstillerType</text><line style="stroke:#181818;stroke-width:0.5;" x1="1950" x2="2132" y1="382.1411" y2="382.1411"/><ellipse cx="1960" cy="395.8852" fill="none" rx="3" ry="3" style="stroke:#038048;stroke-width:1.0;"/><text fill="#000000" font-family="sans-serif" font-size="14" lengthAdjust="spacing" textLength="116" x="1969" y="399.6763">kodeverdi: string</text><ellipse cx="1960" cy="412.3735" fill="none" rx="3" ry="3" style="stroke:#038048;stroke-width:1.0;"/><text fill="#000000" font-family="sans-serif" font-size="14" lengthAdjust="spacing" textLength="158" x="1969" y="416.1645">kodebeskrivelse: string</text><line style="stroke:#181818;stroke-width:0.5;" x1="1950" x2="2132" y1="423.1177" y2="423.1177"/></g><!--link NasjonalArealplanId to AdministrativEnhet--><g id="link_NasjonalArealplanId_AdministrativEnhet"><path codeLine="6" d="M153,716.24 C153,743.48 153,779.85 153,808.78 " fill="none" id="NasjonalArealplanId-AdministrativEnhet" style="stroke:#181818;stroke-width:1.0;"/></g><!--link Posisjon to Koordinatsystem--><g id="link_Posisjon_Koordinatsystem"><path codeLine="7" d="M452.2,724.51 C444.29,751.93 434.42,786.11 426.7,812.87 " fill="none" id="Posisjon-Koordinatsystem" style="stroke:#181818;stroke-width:1.0;"/></g><!--link Posisjon to PosisjonType--><g id="link_Posisjon_PosisjonType"><path codeLine="8" d="M502.09,724.51 C526.17,756.41 557.15,797.47 578.19,825.34 " fill="none" id="Posisjon-PosisjonType" style="stroke:#181818;stroke-width:1.0;"/></g><!--link Dokument to Dokumenttype--><g id="link_Dokument_Dokumenttype"><path codeLine="10" d="M1687.58,749.46 C1674.52,770.86 1660.63,793.6 1649.02,812.63 " fill="none" id="Dokument-Dokumenttype" style="stroke:#181818;stroke-width:1.0;"/></g><!--link Dokument to ReferanseDokumentfil--><g id="link_Dokument_ReferanseDokumentfil"><path codeLine="11" d="M1776.02,749.46 C1789.96,772.52 1804.86,797.14 1816.87,816.99 " fill="none" id="Dokument-ReferanseDokumentfil" style="stroke:#181818;stroke-width:1.0;"/></g><!--link Dispensasjon to DispensasjonType--><g id="link_Dispensasjon_DispensasjonType"><path codeLine="47" d="M1030.59,542.36 C1019.45,574.7 1008.57,606.27 1000.24,630.46 " fill="none" id="Dispensasjon-DispensasjonType" style="stroke:#181818;stroke-width:1.0;"/></g><!--link Dispensasjon to DispensasjonFraLovverk--><g id="link_Dispensasjon_DispensasjonFraLovverk"><path codeLine="48" d="M1152.52,542.36 C1166.81,574.7 1180.76,606.27 1191.45,630.46 " fill="none" id="Dispensasjon-DispensasjonFraLovverk" style="stroke:#181818;stroke-width:1.0;"/></g><!--link Dispensasjon to Vertikalnivaa--><g id="link_Dispensasjon_Vertikalnivaa"><path codeLine="49" d="M1265.93,535.42 C1308.62,570.18 1350.9,604.59 1382.74,630.52 " fill="none" id="Dispensasjon-Vertikalnivaa" style="stroke:#181818;stroke-width:1.0;"/></g><!--link Dispensasjon to NasjonalArealplanId--><g id="link_Dispensasjon_NasjonalArealplanId"><path codeLine="50" d="M902.23,534.16 C896.2,537.07 890.11,539.77 884,542.23 C648.88,636.74 561.84,536.9 317,602.23 C287.68,610.05 256.9,622.43 230.03,634.75 " fill="none" id="Dispensasjon-NasjonalArealplanId" style="stroke:#181818;stroke-width:1.0;"/></g><!--link Dispensasjon to Posisjon--><g id="link_Dispensasjon_Posisjon"><path codeLine="51" d="M902.13,533.09 C896.11,536.32 890.06,539.38 884,542.23 C773.13,594.32 730.64,561.83 615,602.23 C595.58,609.01 575.39,617.65 556.37,626.59 " fill="none" id="Dispensasjon-Posisjon" style="stroke:#181818;stroke-width:1.0;"/></g><!--link Dispensasjon to Saksnummer--><g id="link_Dispensasjon_Saksnummer"><path codeLine="52" d="M902.1,541.52 C861.26,576.14 821.38,609.94 792.03,634.82 " fill="none" id="Dispensasjon-Saksnummer" style="stroke:#181818;stroke-width:1.0;"/></g><!--link Dispensasjon to Dokument--><g id="link_Dispensasjon_Dokument"><path codeLine="53" d="M1265.8,467.94 C1360.51,509.95 1475.46,560.92 1567.51,601.75 " fill="none" id="Dispensasjon-Dokument" style="stroke:#181818;stroke-width:1.0;"/></g><!--link OppdaterDispensasjon to ForslagstillerType--><g id="link_OppdaterDispensasjon_ForslagstillerType"><path codeLine="24" d="M1856.78,170.89 C1882.8,188.86 1908.75,208.99 1931,230.41 C1965.22,263.36 1995.74,308.25 2015.91,341.23 " fill="none" id="OppdaterDispensasjon-ForslagstillerType" style="stroke:#181818;stroke-width:1.0;"/></g><!--link OppdaterDispensasjon to Dispensasjon--><g id="link_OppdaterDispensasjon_Dispensasjon"><path codeLine="25" d="M1542.47,170.87 C1456.59,211.04 1352.96,259.51 1265.97,300.2 " fill="none" id="OppdaterDispensasjon-Dispensasjon" style="stroke:#181818;stroke-width:1.0;"/></g><!--link OppdaterDispensasjon to Dokument--><g id="link_OppdaterDispensasjon_Dokument"><path codeLine="26" d="M1683.99,170.8 C1677.77,190.04 1672.2,210.71 1669,230.41 C1646.76,367.2 1638.49,407.04 1669,542.23 C1673.54,562.35 1681.52,583 1690.3,601.83 " fill="none" id="OppdaterDispensasjon-Dokument" style="stroke:#181818;stroke-width:1.0;"/></g><!--link OppdaterDispensasjon to ReferanseKlageSaksnummer--><g id="link_OppdaterDispensasjon_ReferanseKlageSaksnummer"><path codeLine="27" d="M1739.06,170.87 C1755.19,227.62 1776.02,300.94 1788.68,345.48 " fill="none" id="OppdaterDispensasjon-ReferanseKlageSaksnummer" style="stroke:#181818;stroke-width:1.0;"/></g><!--SRC=[ZL71QWCX4BtlLvXpYGizXf1JA9GS0crlfGSJPwtLLN5sXLBwxvrbrxBI2FKWElFcpPit6-skTfJ0UCjvwpmto3jDLx32yNJFEx0Ma4kD0HmA_F2kNNzu69lDVqcy6NjmGviVKt5pjGAHdKEGOe1uN76phuRHkLltsx4rOixx4DuXFKfYrDHtmU4GjLCpuW8gZiw1HIWJ4Jg8mY6Sh53mB0owiUyXxjXJ9JFNJPFbAIRqSNc_litvpaUaEXmqJHw7pq1z7_x4Pcm2QK6fWkGx-rAJaRr1YWX12ZG9KLdU54KmYNpAy-JyBtCfvuNaiFt-v2KS3WkteK-2A7NfsHI-09geKs4eCT_SudPxerSLMgot2bgSgWAgs_i1]--></g></svg>