<svg xmlns="http://www.w3.org/2000/svg" xmlns:xlink="http://www.w3.org/1999/xlink" contentStyleType="text/css" data-diagram-type="CLASS" height="268px" preserveAspectRatio="none" style="width:289px;height:268px;background:#FFFFFF;" version="1.1" viewBox="0 0 289 268" width="289px" zoomAndPan="magnify"><defs/><g><!--class FinnArealplanerForMatrikkelenhet--><g class="entity" data-entity="FinnArealplanerForMatrikkelenhet" data-source-line="2" data-uid="ent0002" id="entity_FinnArealplanerForMatrikkelenhet"><rect fill="#F1F1F1" height="64.4883" rx="2.5" ry="2.5" style="stroke:#181818;stroke-width:0.5;" width="275.9902" x="7" y="7"/><ellipse cx="28.4024" cy="23" fill="#ADD1B2" rx="11" ry="11" style="stroke:#181818;stroke-width:1;"/><path d="M30.8755,29.1431 Q30.2945,29.4419 29.6553,29.5913 Q29.0162,29.7407 28.3106,29.7407 Q25.8038,29.7407 24.4839,28.0889 Q23.1641,26.437 23.1641,23.3159 Q23.1641,20.1865 24.4839,18.5347 Q25.8038,16.8828 28.3106,16.8828 Q29.0162,16.8828 29.6636,17.0322 Q30.3111,17.1816 30.8755,17.4805 L30.8755,20.2031 Q30.2447,19.6221 29.6512,19.3523 Q29.0577,19.0825 28.4268,19.0825 Q27.0821,19.0825 26.3973,20.1492 Q25.7125,21.2158 25.7125,23.3159 Q25.7125,25.4077 26.3973,26.4744 Q27.0821,27.541 28.4268,27.541 Q29.0577,27.541 29.6512,27.2712 Q30.2447,27.0015 30.8755,26.4204 Z " fill="#000000"/><text fill="#000000" font-family="sans-serif" font-size="14" lengthAdjust="spacing" textLength="229.7627" x="43.8251" y="28.291">FinnArealplanerForMatrikkelenhet</text><line style="stroke:#181818;stroke-width:0.5;" x1="8" x2="281.9902" y1="39" y2="39"/><ellipse cx="18" cy="52.7441" fill="none" rx="3" ry="3" style="stroke:#038048;stroke-width:1;"/><text fill="#000000" font-family="sans-serif" font-size="14" lengthAdjust="spacing" textLength="249.9902" x="27" y="56.5352">matrikkelnummer: Matrikkelnummer</text><line style="stroke:#181818;stroke-width:0.5;" x1="8" x2="281.9902" y1="63.4883" y2="63.4883"/></g><!--class Matrikkelnummer--><g class="entity" data-entity="Matrikkelnummer" data-source-line="6" data-uid="ent0003" id="entity_Matrikkelnummer"><rect fill="#F1F1F1" height="130.4414" rx="2.5" ry="2.5" style="stroke:#181818;stroke-width:0.5;" width="199.5713" x="45.21" y="131.49"/><ellipse cx="81.5903" cy="147.49" fill="#ADD1B2" rx="11" ry="11" style="stroke:#181818;stroke-width:1;"/><path d="M84.0634,153.6331 Q83.4824,153.9319 82.8432,154.0813 Q82.204,154.2307 81.4985,154.2307 Q78.9916,154.2307 77.6718,152.5789 Q76.352,150.927 76.352,147.8059 Q76.352,144.6765 77.6718,143.0247 Q78.9916,141.3728 81.4985,141.3728 Q82.204,141.3728 82.8515,141.5222 Q83.499,141.6716 84.0634,141.9705 L84.0634,144.6931 Q83.4326,144.1121 82.8391,143.8423 Q82.2455,143.5725 81.6147,143.5725 Q80.27,143.5725 79.5851,144.6392 Q78.9003,145.7058 78.9003,147.8059 Q78.9003,149.8977 79.5851,150.9644 Q80.27,152.031 81.6147,152.031 Q82.2455,152.031 82.8391,151.7612 Q83.4326,151.4915 84.0634,150.9104 Z " fill="#000000"/><text fill="#000000" font-family="sans-serif" font-size="14" lengthAdjust="spacing" textLength="120.0596" x="100.3414" y="152.781">Matrikkelnummer</text><line style="stroke:#181818;stroke-width:0.5;" x1="46.21" x2="243.7813" y1="163.49" y2="163.49"/><ellipse cx="56.21" cy="177.2341" fill="none" rx="3" ry="3" style="stroke:#038048;stroke-width:1;"/><text fill="#000000" font-family="sans-serif" font-size="14" lengthAdjust="spacing" textLength="173.5713" x="65.21" y="181.0252">kommunenummer: string</text><ellipse cx="56.21" cy="193.7224" fill="none" rx="3" ry="3" style="stroke:#038048;stroke-width:1;"/><text fill="#000000" font-family="sans-serif" font-size="14" lengthAdjust="spacing" textLength="159.8037" x="65.21" y="197.5134">gaardsnummer: integer</text><ellipse cx="56.21" cy="210.2107" fill="none" rx="3" ry="3" style="stroke:#038048;stroke-width:1;"/><text fill="#000000" font-family="sans-serif" font-size="14" lengthAdjust="spacing" textLength="152.4824" x="65.21" y="214.0017">bruksnummer: integer</text><ellipse cx="56.21" cy="226.699" fill="none" rx="3" ry="3" style="stroke:#038048;stroke-width:1;"/><text fill="#000000" font-family="sans-serif" font-size="14" lengthAdjust="spacing" textLength="147.0547" x="65.21" y="230.49">festenummer: integer</text><ellipse cx="56.21" cy="243.1873" fill="none" rx="3" ry="3" style="stroke:#038048;stroke-width:1;"/><text fill="#000000" font-family="sans-serif" font-size="14" lengthAdjust="spacing" textLength="172.874" x="65.21" y="246.9783">seksjonsnummer: integer</text><line style="stroke:#181818;stroke-width:0.5;" x1="46.21" x2="243.7813" y1="253.9314" y2="253.9314"/></g><!--link FinnArealplanerForMatrikkelenhet to Matrikkelnummer--><g class="link" data-entity-1="FinnArealplanerForMatrikkelenhet" data-entity-2="Matrikkelnummer" data-source-line="14" data-uid="lnk4" id="link_FinnArealplanerForMatrikkelenhet_Matrikkelnummer"><path codeLine="14" d="M145,71.71 C145,88.83 145,110.66 145,131.22" fill="none" id="FinnArealplanerForMatrikkelenhet-Matrikkelnummer" style="stroke:#181818;stroke-width:1;"/></g><!--SRC=[XO-n3i8m34JtV4Lsr1_enjAj7-6M8uGa3hAJ2V7lH4KPe9NmUE_kv5iZgTh9Cvy551-H639bcQc83m4HV4EnJsFRdL9NkQO46UtyBPYNCUlM-0DwGSWfLKQFQpEn-o1791Vjn7E1QuKRMgI6OtA55XmIHT1xvbsiVVXtxJ3iXfat]--></g></svg>