<?xml version="1.0" encoding="us-ascii" standalone="no"?><svg xmlns="http://www.w3.org/2000/svg" xmlns:xlink="http://www.w3.org/1999/xlink" contentStyleType="text/css" height="268px" preserveAspectRatio="none" style="width:291px;height:268px;background:#FFFFFF;" version="1.1" viewBox="0 0 291 268" width="291px" zoomAndPan="magnify"><defs/><g><!--class FinnArealplanerForMatrikkelenhet--><g id="elem_FinnArealplanerForMatrikkelenhet"><rect codeLine="2" fill="#F1F1F1" height="64.4883" id="FinnArealplanerForMatrikkelenhet" rx="2.5" ry="2.5" style="stroke:#181818;stroke-width:0.5;" width="277" x="7" y="7"/><ellipse cx="26.5" cy="23" fill="#ADD1B2" rx="11" ry="11" style="stroke:#181818;stroke-width:1.0;"/><path d="M28.9731,29.1431 Q28.3921,29.4419 27.7529,29.5913 Q27.1138,29.7407 26.4082,29.7407 Q23.9014,29.7407 22.5815,28.0889 Q21.2617,26.437 21.2617,23.3159 Q21.2617,20.1865 22.5815,18.5347 Q23.9014,16.8828 26.4082,16.8828 Q27.1138,16.8828 27.7612,17.0322 Q28.4087,17.1816 28.9731,17.4805 L28.9731,20.2031 Q28.3423,19.6221 27.7488,19.3523 Q27.1553,19.0825 26.5244,19.0825 Q25.1797,19.0825 24.4949,20.1492 Q23.8101,21.2158 23.8101,23.3159 Q23.8101,25.4077 24.4949,26.4744 Q25.1797,27.541 26.5244,27.541 Q27.1553,27.541 27.7488,27.2712 Q28.3423,27.0015 28.9731,26.4204 Z " fill="#000000"/><text fill="#000000" font-family="sans-serif" font-size="14" lengthAdjust="spacing" textLength="235" x="41.5" y="28.291">FinnArealplanerForMatrikkelenhet</text><line style="stroke:#181818;stroke-width:0.5;" x1="8" x2="283" y1="39" y2="39"/><ellipse cx="18" cy="52.7441" fill="none" rx="3" ry="3" style="stroke:#038048;stroke-width:1.0;"/><text fill="#000000" font-family="sans-serif" font-size="14" lengthAdjust="spacing" textLength="251" x="27" y="56.5352">matrikkelnummer: Matrikkelnummer</text><line style="stroke:#181818;stroke-width:0.5;" x1="8" x2="283" y1="63.4883" y2="63.4883"/></g><!--class Matrikkelnummer--><g id="elem_Matrikkelnummer"><rect codeLine="6" fill="#F1F1F1" height="130.4414" id="Matrikkelnummer" rx="2.5" ry="2.5" style="stroke:#181818;stroke-width:0.5;" width="201" x="45" y="131.49"/><ellipse cx="81.6" cy="147.49" fill="#ADD1B2" rx="11" ry="11" style="stroke:#181818;stroke-width:1.0;"/><path d="M84.0731,153.6331 Q83.4921,153.9319 82.8529,154.0813 Q82.2138,154.2307 81.5082,154.2307 Q79.0014,154.2307 77.6815,152.5789 Q76.3617,150.927 76.3617,147.8059 Q76.3617,144.6765 77.6815,143.0247 Q79.0014,141.3728 81.5082,141.3728 Q82.2138,141.3728 82.8612,141.5222 Q83.5087,141.6716 84.0731,141.9705 L84.0731,144.6931 Q83.4423,144.1121 82.8488,143.8423 Q82.2553,143.5725 81.6244,143.5725 Q80.2797,143.5725 79.5949,144.6392 Q78.9101,145.7058 78.9101,147.8059 Q78.9101,149.8977 79.5949,150.9644 Q80.2797,152.031 81.6244,152.031 Q82.2553,152.031 82.8488,151.7612 Q83.4423,151.4915 84.0731,150.9104 Z " fill="#000000"/><text fill="#000000" font-family="sans-serif" font-size="14" lengthAdjust="spacing" textLength="121" x="100.4" y="152.781">Matrikkelnummer</text><line style="stroke:#181818;stroke-width:0.5;" x1="46" x2="245" y1="163.49" y2="163.49"/><ellipse cx="56" cy="177.2341" fill="none" rx="3" ry="3" style="stroke:#038048;stroke-width:1.0;"/><text fill="#000000" font-family="sans-serif" font-size="14" lengthAdjust="spacing" textLength="175" x="65" y="181.0252">kommunenummer: string</text><ellipse cx="56" cy="193.7224" fill="none" rx="3" ry="3" style="stroke:#038048;stroke-width:1.0;"/><text fill="#000000" font-family="sans-serif" font-size="14" lengthAdjust="spacing" textLength="162" x="65" y="197.5134">gaardsnummer: integer</text><ellipse cx="56" cy="210.2107" fill="none" rx="3" ry="3" style="stroke:#038048;stroke-width:1.0;"/><text fill="#000000" font-family="sans-serif" font-size="14" lengthAdjust="spacing" textLength="154" x="65" y="214.0017">bruksnummer: integer</text><ellipse cx="56" cy="226.699" fill="none" rx="3" ry="3" style="stroke:#038048;stroke-width:1.0;"/><text fill="#000000" font-family="sans-serif" font-size="14" lengthAdjust="spacing" textLength="148" x="65" y="230.49">festenummer: integer</text><ellipse cx="56" cy="243.1873" fill="none" rx="3" ry="3" style="stroke:#038048;stroke-width:1.0;"/><text fill="#000000" font-family="sans-serif" font-size="14" lengthAdjust="spacing" textLength="174" x="65" y="246.9783">seksjonsnummer: integer</text><line style="stroke:#181818;stroke-width:0.5;" x1="46" x2="245" y1="253.9314" y2="253.9314"/></g><!--link FinnArealplanerForMatrikkelenhet to Matrikkelnummer--><g id="link_FinnArealplanerForMatrikkelenhet_Matrikkelnummer"><path codeLine="14" d="M145.5,71.71 C145.5,88.83 145.5,110.66 145.5,131.22 " fill="none" id="FinnArealplanerForMatrikkelenhet-Matrikkelnummer" style="stroke:#181818;stroke-width:1.0;"/></g><!--SRC=[XO-n3i8m34JtV4Lsr1_enjAj7-6M8uGa3hAJ2V7lH4KPe9NmUE_kv5iZgTh9Cvy551-H639bcQc83m4HV4EnJsFRdL9NkQO46UtyBPYNCUlM-0DwGSWfLKQFQpEn-o1791Vjn7E1QuKRMgI6OtA55XmIHT1xvbsiVVXtxJ3iXfat]--></g></svg>