<?xml version="1.0" encoding="us-ascii" standalone="no"?><svg xmlns="http://www.w3.org/2000/svg" xmlns:xlink="http://www.w3.org/1999/xlink" contentStyleType="text/css" height="301px" preserveAspectRatio="none" style="width:417px;height:301px;background:#FFFFFF;" version="1.1" viewBox="0 0 417 301" width="417px" zoomAndPan="magnify"><defs/><g><!--class Dokument--><g id="elem_Dokument"><rect codeLine="1" fill="#F1F1F1" height="146.9297" id="Dokument" rx="2.5" ry="2.5" style="stroke:#181818;stroke-width:0.5;" width="335" x="40.5" y="7"/><ellipse cx="168.25" cy="23" fill="#ADD1B2" rx="11" ry="11" style="stroke:#181818;stroke-width:1.0;"/><path d="M170.7231,29.1431 Q170.1421,29.4419 169.5029,29.5913 Q168.8638,29.7407 168.1582,29.7407 Q165.6514,29.7407 164.3315,28.0889 Q163.0117,26.437 163.0117,23.3159 Q163.0117,20.1865 164.3315,18.5347 Q165.6514,16.8828 168.1582,16.8828 Q168.8638,16.8828 169.5112,17.0322 Q170.1587,17.1816 170.7231,17.4805 L170.7231,20.2031 Q170.0923,19.6221 169.4988,19.3523 Q168.9053,19.0825 168.2744,19.0825 Q166.9297,19.0825 166.2449,20.1492 Q165.5601,21.2158 165.5601,23.3159 Q165.5601,25.4077 166.2449,26.4744 Q166.9297,27.541 168.2744,27.541 Q168.9053,27.541 169.4988,27.2712 Q170.0923,27.0015 170.7231,26.4204 Z " fill="#000000"/><text fill="#000000" font-family="sans-serif" font-size="14" lengthAdjust="spacing" textLength="71" x="188.75" y="28.291">Dokument</text><line style="stroke:#181818;stroke-width:0.5;" x1="41.5" x2="374.5" y1="39" y2="39"/><ellipse cx="51.5" cy="52.7441" fill="none" rx="3" ry="3" style="stroke:#038048;stroke-width:1.0;"/><text fill="#000000" font-family="sans-serif" font-size="14" lengthAdjust="spacing" textLength="79" x="60.5" y="56.5352">tittel: string</text><ellipse cx="51.5" cy="69.2324" fill="none" rx="3" ry="3" style="stroke:#038048;stroke-width:1.0;"/><text fill="#000000" font-family="sans-serif" font-size="14" lengthAdjust="spacing" textLength="142" x="60.5" y="73.0234">dokumenttype: Kode</text><ellipse cx="51.5" cy="85.7207" fill="none" rx="3" ry="3" style="stroke:#038048;stroke-width:1.0;"/><text fill="#000000" font-family="sans-serif" font-size="14" lengthAdjust="spacing" textLength="309" x="60.5" y="89.5117">referanseDokumentfil: ReferanseDokumentfil</text><ellipse cx="51.5" cy="102.209" fill="none" rx="3" ry="3" style="stroke:#038048;stroke-width:1.0;"/><text fill="#000000" font-family="sans-serif" font-size="14" lengthAdjust="spacing" textLength="115" x="60.5" y="106">mimetype: string</text><ellipse cx="51.5" cy="118.6973" fill="none" rx="3" ry="3" style="stroke:#038048;stroke-width:1.0;"/><text fill="#000000" font-family="sans-serif" font-size="14" lengthAdjust="spacing" textLength="146" x="60.5" y="122.4883">dokumentsdato: date</text><ellipse cx="51.5" cy="135.1855" fill="none" rx="3" ry="3" style="stroke:#038048;stroke-width:1.0;"/><text fill="#000000" font-family="sans-serif" font-size="14" lengthAdjust="spacing" textLength="114" x="60.5" y="138.9766">arkivnavn: string</text><line style="stroke:#181818;stroke-width:0.5;" x1="41.5" x2="374.5" y1="145.9297" y2="145.9297"/></g><!--class Kode--><g id="elem_Kode"><rect codeLine="13" fill="#F1F1F1" height="80.9766" id="Kode" rx="2.5" ry="2.5" style="stroke:#181818;stroke-width:0.5;" width="184" x="7" y="213.93"/><ellipse cx="77.25" cy="229.93" fill="#ADD1B2" rx="11" ry="11" style="stroke:#181818;stroke-width:1.0;"/><path d="M79.7231,236.0731 Q79.1421,236.3719 78.5029,236.5213 Q77.8638,236.6707 77.1582,236.6707 Q74.6514,236.6707 73.3315,235.0189 Q72.0117,233.367 72.0117,230.2459 Q72.0117,227.1165 73.3315,225.4647 Q74.6514,223.8128 77.1582,223.8128 Q77.8638,223.8128 78.5112,223.9622 Q79.1587,224.1116 79.7231,224.4105 L79.7231,227.1331 Q79.0923,226.5521 78.4988,226.2823 Q77.9053,226.0125 77.2744,226.0125 Q75.9297,226.0125 75.2449,227.0792 Q74.5601,228.1458 74.5601,230.2459 Q74.5601,232.3377 75.2449,233.4044 Q75.9297,234.471 77.2744,234.471 Q77.9053,234.471 78.4988,234.2012 Q79.0923,233.9315 79.7231,233.3504 Z " fill="#000000"/><text fill="#000000" font-family="sans-serif" font-size="14" lengthAdjust="spacing" textLength="35" x="97.75" y="235.221">Kode</text><line style="stroke:#181818;stroke-width:0.5;" x1="8" x2="190" y1="245.93" y2="245.93"/><ellipse cx="18" cy="259.6741" fill="none" rx="3" ry="3" style="stroke:#038048;stroke-width:1.0;"/><text fill="#000000" font-family="sans-serif" font-size="14" lengthAdjust="spacing" textLength="116" x="27" y="263.4652">kodeverdi: string</text><ellipse cx="18" cy="276.1624" fill="none" rx="3" ry="3" style="stroke:#038048;stroke-width:1.0;"/><text fill="#000000" font-family="sans-serif" font-size="14" lengthAdjust="spacing" textLength="158" x="27" y="279.9534">kodebeskrivelse: string</text><line style="stroke:#181818;stroke-width:0.5;" x1="8" x2="190" y1="286.9066" y2="286.9066"/></g><!--class ReferanseDokumentfil--><g id="elem_ReferanseDokumentfil"><rect codeLine="18" fill="#F1F1F1" height="80.9766" id="ReferanseDokumentfil" rx="2.5" ry="2.5" style="stroke:#181818;stroke-width:0.5;" width="184" x="226" y="213.93"/><ellipse cx="241" cy="229.93" fill="#ADD1B2" rx="11" ry="11" style="stroke:#181818;stroke-width:1.0;"/><path d="M243.4731,236.0731 Q242.8921,236.3719 242.2529,236.5213 Q241.6138,236.6707 240.9082,236.6707 Q238.4014,236.6707 237.0815,235.0189 Q235.7617,233.367 235.7617,230.2459 Q235.7617,227.1165 237.0815,225.4647 Q238.4014,223.8128 240.9082,223.8128 Q241.6138,223.8128 242.2612,223.9622 Q242.9087,224.1116 243.4731,224.4105 L243.4731,227.1331 Q242.8423,226.5521 242.2488,226.2823 Q241.6553,226.0125 241.0244,226.0125 Q239.6797,226.0125 238.9949,227.0792 Q238.3101,228.1458 238.3101,230.2459 Q238.3101,232.3377 238.9949,233.4044 Q239.6797,234.471 241.0244,234.471 Q241.6553,234.471 242.2488,234.2012 Q242.8423,233.9315 243.4731,233.3504 Z " fill="#000000"/><text fill="#000000" font-family="sans-serif" font-size="14" lengthAdjust="spacing" textLength="152" x="255" y="235.221">ReferanseDokumentfil</text><line style="stroke:#181818;stroke-width:0.5;" x1="227" x2="409" y1="245.93" y2="245.93"/><ellipse cx="237" cy="259.6741" fill="none" rx="3" ry="3" style="stroke:#038048;stroke-width:1.0;"/><text fill="#000000" font-family="sans-serif" font-size="14" lengthAdjust="spacing" textLength="61" x="246" y="263.4652">id: string</text><ellipse cx="237" cy="276.1624" fill="none" rx="3" ry="3" style="stroke:#038048;stroke-width:1.0;"/><text fill="#000000" font-family="sans-serif" font-size="14" lengthAdjust="spacing" textLength="67" x="246" y="279.9534">url: string</text><line style="stroke:#181818;stroke-width:0.5;" x1="227" x2="409" y1="286.9066" y2="286.9066"/></g><!--link Dokument to Kode--><g id="link_Dokument_Kode"><path codeLine="10" d="M161.77,154.39 C148.89,174.71 135.38,196.03 124.21,213.66 " fill="none" id="Dokument-Kode" style="stroke:#181818;stroke-width:1.0;"/></g><!--link Dokument to ReferanseDokumentfil--><g id="link_Dokument_ReferanseDokumentfil"><path codeLine="11" d="M254.65,154.39 C267.65,174.71 281.29,196.03 292.56,213.66 " fill="none" id="Dokument-ReferanseDokumentfil" style="stroke:#181818;stroke-width:1.0;"/></g><!--SRC=[ROzD2iCW44Rtdi9zoGLSTzTTRs3Zf0p-fCnCX59wzveQGmAw47byllbc39PPNsU_H4YYFqgNSn4KWM0q2s5wLkQsZBnVOFHjTb0vmGHa4qEJJ5X-tZkqvYD6g8wUdPsLsUXoRtfB7dEoEUtvhr9xts6eJOwWErgD_qNNS5lIbtS6SdXkik87i2VC41YEOwkZvszET6VPGk4W-040]--></g></svg>