<?xml version="1.0" encoding="us-ascii" standalone="no"?><svg xmlns="http://www.w3.org/2000/svg" xmlns:xlink="http://www.w3.org/1999/xlink" contentStyleType="text/css" height="144px" preserveAspectRatio="none" style="width:696px;height:144px;background:#FFFFFF;" version="1.1" viewBox="0 0 696 144" width="696px" zoomAndPan="magnify"><defs/><g><rect fill="#F1F1F1" height="81.9531" rx="5" ry="5" style="stroke:#F1F1F1;stroke-width:1.5;" width="246" x="10" y="10"/><text fill="#000000" font-family="sans-serif" font-size="14" font-weight="bold" lengthAdjust="spacing" textLength="101" x="15" y="25.5352">protokollnavn</text><text fill="#000000" font-family="sans-serif" font-size="14" lengthAdjust="spacing" textLength="99" x="126" y="25.5352">no.ks.fiks.plan</text><line style="stroke:#000000;stroke-width:1.0;" x1="121" x2="121" y1="10" y2="30.4883"/><line style="stroke:#000000;stroke-width:1.0;" x1="10" x2="256" y1="30.4883" y2="30.4883"/><text fill="#000000" font-family="sans-serif" font-size="14" font-weight="bold" lengthAdjust="spacing" textLength="34" x="15" y="46.0234">navn</text><text fill="#000000" font-family="sans-serif" font-size="14" lengthAdjust="spacing" textLength="125" x="126" y="46.0234">dokumentstatuser</text><line style="stroke:#000000;stroke-width:1.0;" x1="121" x2="121" y1="30.4883" y2="50.9766"/><line style="stroke:#000000;stroke-width:1.0;" x1="10" x2="256" y1="50.9766" y2="50.9766"/><text fill="#000000" font-family="sans-serif" font-size="14" font-weight="bold" lengthAdjust="spacing" textLength="53" x="15" y="66.5117">versjon</text><text fill="#000000" font-family="sans-serif" font-size="14" lengthAdjust="spacing" textLength="16" x="126" y="66.5117">v2</text><line style="stroke:#000000;stroke-width:1.0;" x1="121" x2="121" y1="50.9766" y2="71.4648"/><line style="stroke:#000000;stroke-width:1.0;" x1="10" x2="256" y1="71.4648" y2="71.4648"/><text fill="#000000" font-family="sans-serif" font-size="14" font-weight="bold" lengthAdjust="spacing" textLength="67" x="15" y="87">kodeliste</text><text fill="#000000" font-family="sans-serif" font-size="14" lengthAdjust="spacing" textLength="12" x="126" y="87">&#160;&#160;&#160;</text><line style="stroke:#000000;stroke-width:1.0;" x1="121" x2="121" y1="71.4648" y2="91.9531"/><rect fill="none" height="81.9531" rx="5" ry="5" style="stroke:#000000;stroke-width:1.5;" width="246" x="10" y="10"/><rect fill="#F1F1F1" height="40.9766" rx="5" ry="5" style="stroke:#F1F1F1;stroke-width:1.5;" width="22" x="293" y="61.5"/><text fill="#000000" font-family="sans-serif" font-size="14" lengthAdjust="spacing" textLength="12" x="298" y="77.0352">&#160;&#160;&#160;</text><line style="stroke:#000000;stroke-width:1.0;" x1="293" x2="315" y1="81.9883" y2="81.9883"/><text fill="#000000" font-family="sans-serif" font-size="14" lengthAdjust="spacing" textLength="12" x="298" y="97.5234">&#160;&#160;&#160;</text><rect fill="none" height="40.9766" rx="5" ry="5" style="stroke:#000000;stroke-width:1.5;" width="22" x="293" y="61.5"/><rect fill="#F1F1F1" height="40.9766" rx="5" ry="5" style="stroke:#F1F1F1;stroke-width:1.5;" width="280" x="378" y="32.5"/><text fill="#000000" font-family="sans-serif" font-size="14" font-weight="bold" lengthAdjust="spacing" textLength="71" x="383" y="48.0352">kodeverdi</text><text fill="#000000" font-family="sans-serif" font-size="14" lengthAdjust="spacing" textLength="69" x="510" y="48.0352">Gjeldende</text><line style="stroke:#000000;stroke-width:1.0;" x1="505" x2="505" y1="32.5" y2="52.9883"/><line style="stroke:#000000;stroke-width:1.0;" x1="378" x2="658" y1="52.9883" y2="52.9883"/><text fill="#000000" font-family="sans-serif" font-size="14" font-weight="bold" lengthAdjust="spacing" textLength="117" x="383" y="68.5234">kodebeskrivelse</text><text fill="#000000" font-family="sans-serif" font-size="14" lengthAdjust="spacing" textLength="143" x="510" y="68.5234">Gjeldende dokument</text><line style="stroke:#000000;stroke-width:1.0;" x1="505" x2="505" y1="52.9883" y2="73.4766"/><rect fill="none" height="40.9766" rx="5" ry="5" style="stroke:#000000;stroke-width:1.5;" width="280" x="378" y="32.5"/><rect fill="#F1F1F1" height="40.9766" rx="5" ry="5" style="stroke:#F1F1F1;stroke-width:1.5;" width="332" x="352" y="91.5"/><text fill="#000000" font-family="sans-serif" font-size="14" font-weight="bold" lengthAdjust="spacing" textLength="71" x="357" y="107.0352">kodeverdi</text><text fill="#000000" font-family="sans-serif" font-size="14" lengthAdjust="spacing" textLength="90" x="484" y="107.0352">Under arbeid</text><line style="stroke:#000000;stroke-width:1.0;" x1="479" x2="479" y1="91.5" y2="111.9883"/><line style="stroke:#000000;stroke-width:1.0;" x1="352" x2="684" y1="111.9883" y2="111.9883"/><text fill="#000000" font-family="sans-serif" font-size="14" font-weight="bold" lengthAdjust="spacing" textLength="117" x="357" y="127.5234">kodebeskrivelse</text><text fill="#000000" font-family="sans-serif" font-size="14" lengthAdjust="spacing" textLength="195" x="484" y="127.5234">Dokumentet er under arbeid</text><line style="stroke:#000000;stroke-width:1.0;" x1="479" x2="479" y1="111.9883" y2="132.4766"/><rect fill="none" height="40.9766" rx="5" ry="5" style="stroke:#000000;stroke-width:1.5;" width="332" x="352" y="91.5"/><path d="M303,72 L316,72 C333.6787,72 352.1915,71.2661 370.5277,70.0868 " fill="none" style="stroke:#000000;stroke-width:1.0;stroke-dasharray:3.0,3.0;"/><path d="M370.7404,73.2247 L372.8811,69.9273 L370.315,66.949 L378.3723,69.555 L370.7404,73.2247 " fill="#000000" style="stroke:#000000;stroke-width:1.0;"/><ellipse cx="303" cy="72" fill="#000000" rx="3" ry="3" style="stroke:#000000;stroke-width:1.0;"/><path d="M303,92 L316,92 C325.362,92 334.9567,92.2164 344.6344,92.6043 " fill="none" style="stroke:#000000;stroke-width:1.0;stroke-dasharray:3.0,3.0;"/><path d="M344.4956,95.7148 L346.9673,92.7083 L344.7732,89.4937 L352.4107,92.9512 L344.4956,95.7148 " fill="#000000" style="stroke:#000000;stroke-width:1.0;"/><ellipse cx="303" cy="92" fill="#000000" rx="3" ry="3" style="stroke:#000000;stroke-width:1.0;"/><path d="M244,82 L257,82 C266.4213,82 276.9164,82 285.5483,82 " fill="none" style="stroke:#000000;stroke-width:1.0;stroke-dasharray:3.0,3.0;"/><path d="M285.5483,85.0437 L287.8311,82 L285.5483,78.9563 L293.1575,82 L285.5483,85.0437 " fill="#000000" style="stroke:#000000;stroke-width:1.0;"/><ellipse cx="244" cy="82" fill="#000000" rx="3" ry="3" style="stroke:#000000;stroke-width:1.0;"/><!--SRC=[VL1BQy904BxlhnXoKj0GOocIarIjO4sL-hYK7bOpofeuA_i8YFZVEqRju-9b3jzhlfckTTAudTKaJW8WE1ZjTAwBWcH9GG81wJ2tuKRnE1IIWiP5TISpdVizakCGvosQArkYiJjT2Shu2kKwmq9PXmn-CW1mgkQDOaUc0c33S8T5XfHXvViHhD3cHfLOMFmlWtk5e9AV6u_25smm8CqALVOultzBHGViy7zzrpqylyHPTBb3zJmnvUUuHJg6o_LA4xJ2E8hROQSsymIfF4BSWbQKj3j9545lC9l3XQ-Bsd0w1gkzMVCn_2AZLjvnG5sCP2dXmvDJUqnWSa0QzT_k00oeL4RJfQKOBTDVmVDJyqKvcA7XAh1CHHytqXUE7MkTATeci9Y_DZjYB6dhvPQpaKHFSwuv9l0- -GO0]--></g></svg>