<?xml version="1.0" encoding="us-ascii" standalone="no"?><svg xmlns="http://www.w3.org/2000/svg" xmlns:xlink="http://www.w3.org/1999/xlink" contentStyleType="text/css" height="261px" preserveAspectRatio="none" style="width:355px;height:261px;background:#FFFFFF;" version="1.1" viewBox="0 0 355 261" width="355px" zoomAndPan="magnify"><defs/><g><!--class Posisjon--><g id="elem_Posisjon"><rect codeLine="1" fill="#F1F1F1" height="97.4648" id="Posisjon" rx="2.5" ry="2.5" style="stroke:#181818;stroke-width:0.5;" width="263" x="61.5" y="7"/><ellipse cx="160.25" cy="23" fill="#ADD1B2" rx="11" ry="11" style="stroke:#181818;stroke-width:1.0;"/><path d="M162.7231,29.1431 Q162.1421,29.4419 161.5029,29.5913 Q160.8638,29.7407 160.1582,29.7407 Q157.6514,29.7407 156.3315,28.0889 Q155.0117,26.437 155.0117,23.3159 Q155.0117,20.1865 156.3315,18.5347 Q157.6514,16.8828 160.1582,16.8828 Q160.8638,16.8828 161.5112,17.0322 Q162.1587,17.1816 162.7231,17.4805 L162.7231,20.2031 Q162.0923,19.6221 161.4988,19.3523 Q160.9053,19.0825 160.2744,19.0825 Q158.9297,19.0825 158.2449,20.1492 Q157.5601,21.2158 157.5601,23.3159 Q157.5601,25.4077 158.2449,26.4744 Q158.9297,27.541 160.2744,27.541 Q160.9053,27.541 161.4988,27.2712 Q162.0923,27.0015 162.7231,26.4204 Z " fill="#000000"/><text fill="#000000" font-family="sans-serif" font-size="14" lengthAdjust="spacing" textLength="57" x="180.75" y="28.291">Posisjon</text><line style="stroke:#181818;stroke-width:0.5;" x1="62.5" x2="323.5" y1="39" y2="39"/><ellipse cx="72.5" cy="52.7441" fill="none" rx="3" ry="3" style="stroke:#038048;stroke-width:1.0;"/><text fill="#000000" font-family="sans-serif" font-size="14" lengthAdjust="spacing" textLength="127" x="81.5" y="56.5352">type: PosisjonType</text><ellipse cx="72.5" cy="69.2324" fill="none" rx="3" ry="3" style="stroke:#038048;stroke-width:1.0;"/><text fill="#000000" font-family="sans-serif" font-size="14" lengthAdjust="spacing" textLength="153" x="81.5" y="73.0234">koordinater: number[]</text><ellipse cx="72.5" cy="85.7207" fill="none" rx="3" ry="3" style="stroke:#038048;stroke-width:1.0;"/><text fill="#000000" font-family="sans-serif" font-size="14" lengthAdjust="spacing" textLength="237" x="81.5" y="89.5117">koordinatsystem: Koordinatsystem</text><line style="stroke:#181818;stroke-width:0.5;" x1="62.5" x2="323.5" y1="96.4648" y2="96.4648"/></g><!--class Koordinatsystem--><g id="elem_Koordinatsystem"><rect codeLine="10" fill="#F1F1F1" height="89.5977" id="Koordinatsystem" rx="2.5" ry="2.5" style="stroke:#181818;stroke-width:0.5;" width="184" x="7" y="164.46"/><ellipse cx="38.65" cy="184.7705" fill="#ADD1B2" rx="11" ry="11" style="stroke:#181818;stroke-width:1.0;"/><path d="M41.1231,190.9136 Q40.5421,191.2124 39.9029,191.3619 Q39.2638,191.5113 38.5582,191.5113 Q36.0514,191.5113 34.7315,189.8594 Q33.4117,188.2076 33.4117,185.0865 Q33.4117,181.9571 34.7315,180.3052 Q36.0514,178.6534 38.5582,178.6534 Q39.2638,178.6534 39.9112,178.8028 Q40.5587,178.9522 41.1231,179.251 L41.1231,181.9737 Q40.4923,181.3926 39.8988,181.1228 Q39.3053,180.8531 38.6744,180.8531 Q37.3297,180.8531 36.6449,181.9197 Q35.9601,182.9864 35.9601,185.0865 Q35.9601,187.1783 36.6449,188.2449 Q37.3297,189.3116 38.6744,189.3116 Q39.3053,189.3116 39.8988,189.0418 Q40.4923,188.772 41.1231,188.191 Z " fill="#000000"/><text fill="#000000" font-family="sans-serif" font-size="12" font-style="italic" lengthAdjust="spacing" textLength="42" x="92.85" y="181.0616">&#171;Kode&#187;</text><text fill="#000000" font-family="sans-serif" font-size="14" lengthAdjust="spacing" textLength="115" x="56.35" y="197.128">Koordinatsystem</text><line style="stroke:#181818;stroke-width:0.5;" x1="8" x2="190" y1="205.0811" y2="205.0811"/><ellipse cx="18" cy="218.8252" fill="none" rx="3" ry="3" style="stroke:#038048;stroke-width:1.0;"/><text fill="#000000" font-family="sans-serif" font-size="14" lengthAdjust="spacing" textLength="116" x="27" y="222.6163">kodeverdi: string</text><ellipse cx="18" cy="235.3135" fill="none" rx="3" ry="3" style="stroke:#038048;stroke-width:1.0;"/><text fill="#000000" font-family="sans-serif" font-size="14" lengthAdjust="spacing" textLength="158" x="27" y="239.1045">kodebeskrivelse: string</text><line style="stroke:#181818;stroke-width:0.5;" x1="8" x2="190" y1="246.0577" y2="246.0577"/></g><!--class PosisjonType--><g id="elem_PosisjonType"><rect codeLine="15" fill="#F1F1F1" height="64.4883" id="PosisjonType" rx="2.5" ry="2.5" style="stroke:#181818;stroke-width:0.5;" width="122" x="226" y="177.02"/><ellipse cx="241" cy="193.02" fill="#EB937F" rx="11" ry="11" style="stroke:#181818;stroke-width:1.0;"/><path d="M244.6143,199.52 L236.8945,199.52 L236.8945,187.1269 L244.6143,187.1269 L244.6143,189.2851 L239.3433,189.2851 L239.3433,191.958 L244.1162,191.958 L244.1162,194.1162 L239.3433,194.1162 L239.3433,197.3618 L244.6143,197.3618 Z " fill="#000000"/><text fill="#000000" font-family="sans-serif" font-size="14" lengthAdjust="spacing" textLength="90" x="255" y="198.311">PosisjonType</text><line style="stroke:#181818;stroke-width:0.5;" x1="227" x2="347" y1="209.02" y2="209.02"/><text fill="#000000" font-family="sans-serif" font-size="14" lengthAdjust="spacing" textLength="35" x="232" y="226.5552">Point</text><line style="stroke:#181818;stroke-width:0.5;" x1="227" x2="347" y1="233.5083" y2="233.5083"/></g><!--link Posisjon to Koordinatsystem--><g id="link_Posisjon_Koordinatsystem"><path codeLine="7" d="M163.26,104.68 C151.48,123.66 138.02,145.36 126.47,163.97 " fill="none" id="Posisjon-Koordinatsystem" style="stroke:#181818;stroke-width:1.0;"/></g><!--link Posisjon to PosisjonType--><g id="link_Posisjon_PosisjonType"><path codeLine="8" d="M222.74,104.68 C237.37,128.26 254.59,156.02 267.52,176.86 " fill="none" id="Posisjon-PosisjonType" style="stroke:#181818;stroke-width:1.0;"/></g><!--SRC=[POyz3i8m38NtdC8xwWMYgXVeqe4DCVJ7gaBQ6DcXKeMuEnQ5G8etV-_9xxcVMX5eI9nSAC3TWCuXhbUqYHvrsxWdui65DY9R2BUvGpwTTvAi4d6sKEV0F8n9CKNn9_zgMR3fNnLtVYZBcWQigazbhzk2Qh4WaLqOlxX3yUmMd0IJg6rG7yYYtgSQSY6guGa0]--></g></svg>