<svg xmlns="http://www.w3.org/2000/svg" xmlns:xlink="http://www.w3.org/1999/xlink" contentStyleType="text/css" data-diagram-type="CLASS" height="261px" preserveAspectRatio="none" style="width:353px;height:261px;background:#FFFFFF;" version="1.1" viewBox="0 0 353 261" width="353px" zoomAndPan="magnify"><defs/><g><!--class Posisjon--><g class="entity" data-entity="Posisjon" data-source-line="1" data-uid="ent0002" id="entity_Posisjon"><rect fill="#F1F1F1" height="97.4648" rx="2.5" ry="2.5" style="stroke:#181818;stroke-width:0.5;" width="262.4551" x="60.55" y="7"/><ellipse cx="159.425" cy="23" fill="#ADD1B2" rx="11" ry="11" style="stroke:#181818;stroke-width:1;"/><path d="M161.8981,29.1431 Q161.3171,29.4419 160.6779,29.5913 Q160.0388,29.7407 159.3332,29.7407 Q156.8264,29.7407 155.5065,28.0889 Q154.1867,26.437 154.1867,23.3159 Q154.1867,20.1865 155.5065,18.5347 Q156.8264,16.8828 159.3332,16.8828 Q160.0388,16.8828 160.6862,17.0322 Q161.3337,17.1816 161.8981,17.4805 L161.8981,20.2031 Q161.2673,19.6221 160.6738,19.3523 Q160.0803,19.0825 159.4494,19.0825 Q158.1047,19.0825 157.4199,20.1492 Q156.7351,21.2158 156.7351,23.3159 Q156.7351,25.4077 157.4199,26.4744 Q158.1047,27.541 159.4494,27.541 Q160.0803,27.541 160.6738,27.2712 Q161.2673,27.0015 161.8981,26.4204 Z " fill="#000000"/><text fill="#000000" font-family="sans-serif" font-size="14" lengthAdjust="spacing" textLength="56.2051" x="179.925" y="28.291">Posisjon</text><line style="stroke:#181818;stroke-width:0.5;" x1="61.55" x2="322.0051" y1="39" y2="39"/><ellipse cx="71.55" cy="52.7441" fill="none" rx="3" ry="3" style="stroke:#038048;stroke-width:1;"/><text fill="#000000" font-family="sans-serif" font-size="14" lengthAdjust="spacing" textLength="127.0049" x="80.55" y="56.5352">type: PosisjonType</text><ellipse cx="71.55" cy="69.2324" fill="none" rx="3" ry="3" style="stroke:#038048;stroke-width:1;"/><text fill="#000000" font-family="sans-serif" font-size="14" lengthAdjust="spacing" textLength="149.9053" x="80.55" y="73.0234">koordinater: number[]</text><ellipse cx="71.55" cy="85.7207" fill="none" rx="3" ry="3" style="stroke:#038048;stroke-width:1;"/><text fill="#000000" font-family="sans-serif" font-size="14" lengthAdjust="spacing" textLength="236.4551" x="80.55" y="89.5117">koordinatsystem: Koordinatsystem</text><line style="stroke:#181818;stroke-width:0.5;" x1="61.55" x2="322.0051" y1="96.4648" y2="96.4648"/></g><!--class Koordinatsystem--><g class="entity" data-entity="Koordinatsystem" data-source-line="7" data-uid="ent0003" id="entity_Koordinatsystem"><rect fill="#F1F1F1" height="89.5977" rx="2.5" ry="2.5" style="stroke:#181818;stroke-width:0.5;" width="183.5547" x="7" y="164.46"/><ellipse cx="38.7752" cy="184.7705" fill="#ADD1B2" rx="11" ry="11" style="stroke:#181818;stroke-width:1;"/><path d="M41.2484,190.9136 Q40.6673,191.2124 40.0282,191.3619 Q39.389,191.5113 38.6834,191.5113 Q36.1766,191.5113 34.8568,189.8594 Q33.537,188.2076 33.537,185.0865 Q33.537,181.9571 34.8568,180.3052 Q36.1766,178.6534 38.6834,178.6534 Q39.389,178.6534 40.0365,178.8028 Q40.6839,178.9522 41.2484,179.251 L41.2484,181.9737 Q40.6175,181.3926 40.024,181.1228 Q39.4305,180.8531 38.7997,180.8531 Q37.4549,180.8531 36.7701,181.9197 Q36.0853,182.9864 36.0853,185.0865 Q36.0853,187.1783 36.7701,188.2449 Q37.4549,189.3116 38.7997,189.3116 Q39.4305,189.3116 40.024,189.0418 Q40.6175,188.772 41.2484,188.191 Z " fill="#000000"/><text fill="#000000" font-family="sans-serif" font-size="12" font-style="italic" lengthAdjust="spacing" textLength="42.0176" x="92.6325" y="181.0616">&#171;Kode&#187;</text><text fill="#000000" font-family="sans-serif" font-size="14" lengthAdjust="spacing" textLength="114.2764" x="56.5031" y="197.128">Koordinatsystem</text><line style="stroke:#181818;stroke-width:0.5;" x1="8" x2="189.5547" y1="205.0811" y2="205.0811"/><ellipse cx="18" cy="218.8252" fill="none" rx="3" ry="3" style="stroke:#038048;stroke-width:1;"/><text fill="#000000" font-family="sans-serif" font-size="14" lengthAdjust="spacing" textLength="115.4521" x="27" y="222.6163">kodeverdi: string</text><ellipse cx="18" cy="235.3135" fill="none" rx="3" ry="3" style="stroke:#038048;stroke-width:1;"/><text fill="#000000" font-family="sans-serif" font-size="14" lengthAdjust="spacing" textLength="157.5547" x="27" y="239.1045">kodebeskrivelse: string</text><line style="stroke:#181818;stroke-width:0.5;" x1="8" x2="189.5547" y1="246.0577" y2="246.0577"/></g><!--class PosisjonType--><g class="entity" data-entity="PosisjonType" data-source-line="8" data-uid="ent0005" id="entity_PosisjonType"><rect fill="#F1F1F1" height="64.4883" rx="2.5" ry="2.5" style="stroke:#181818;stroke-width:0.5;" width="120.9834" x="225.29" y="177.02"/><ellipse cx="240.29" cy="193.02" fill="#EB937F" rx="11" ry="11" style="stroke:#181818;stroke-width:1;"/><path d="M243.9043,199.52 L236.1845,199.52 L236.1845,187.1269 L243.9043,187.1269 L243.9043,189.2851 L238.6333,189.2851 L238.6333,191.958 L243.4062,191.958 L243.4062,194.1162 L238.6333,194.1162 L238.6333,197.3618 L243.9043,197.3618 Z " fill="#000000"/><text fill="#000000" font-family="sans-serif" font-size="14" lengthAdjust="spacing" textLength="88.9834" x="254.29" y="198.311">PosisjonType</text><line style="stroke:#181818;stroke-width:0.5;" x1="226.29" x2="345.2734" y1="209.02" y2="209.02"/><text fill="#000000" font-family="sans-serif" font-size="14" lengthAdjust="spacing" textLength="34.3096" x="231.29" y="226.5552">Point</text><line style="stroke:#181818;stroke-width:0.5;" x1="226.29" x2="345.2734" y1="233.5083" y2="233.5083"/></g><!--link Posisjon to Koordinatsystem--><g class="link" data-entity-1="Posisjon" data-entity-2="Koordinatsystem" data-source-line="7" data-uid="lnk4" id="link_Posisjon_Koordinatsystem"><path codeLine="7" d="M162.35,104.68 C150.7,123.66 137.38,145.36 125.96,163.97" fill="none" id="Posisjon-Koordinatsystem" style="stroke:#181818;stroke-width:1;"/></g><!--link Posisjon to PosisjonType--><g class="link" data-entity-1="Posisjon" data-entity-2="PosisjonType" data-source-line="8" data-uid="lnk6" id="link_Posisjon_PosisjonType"><path codeLine="8" d="M221.52,104.68 C236.15,128.26 253.37,156.02 266.3,176.86" fill="none" id="Posisjon-PosisjonType" style="stroke:#181818;stroke-width:1;"/></g><!--SRC=[POyz3i8m38NtdC8xwWMYgXVeqe4DCVJ7gaBQ6DcXKeMuEnQ5G8etV-_9xxcVMX5eI9nSAC3TWCuXhbUqYHvrsxWdui65DY9R2BUvGpwTTvAi4d6sKEV0F8n9CKNn9_zgMR3fNnLtVYZBcWQigazbhzk2Qh4WaLqOlxX3yUmMd0IJg6rG7yYYtgSQSY6guGa0]--></g></svg>