<svg xmlns="http://www.w3.org/2000/svg" xmlns:xlink="http://www.w3.org/1999/xlink" contentStyleType="text/css" height="475px" preserveAspectRatio="none" style="width:769px;height:475px;background:#FFFFFF;" version="1.1" viewBox="0 0 769 475" width="769px" zoomAndPan="magnify"><defs/><g><rect fill="#F1F1F1" height="81.9531" rx="5" ry="5" style="stroke:#F1F1F1;stroke-width:1.5;" width="220" x="10" y="164.5"/><text fill="#000000" font-family="sans-serif" font-size="14" font-weight="bold" lengthAdjust="spacing" textLength="101" x="15" y="180.0352">protokollnavn</text><text fill="#000000" font-family="sans-serif" font-size="14" lengthAdjust="spacing" textLength="99" x="126" y="180.0352">no.ks.fiks.plan</text><line style="stroke:#000000;stroke-width:1.0;" x1="121" x2="121" y1="164.5" y2="184.9883"/><line style="stroke:#000000;stroke-width:1.0;" x1="10" x2="230" y1="184.9883" y2="184.9883"/><text fill="#000000" font-family="sans-serif" font-size="14" font-weight="bold" lengthAdjust="spacing" textLength="34" x="15" y="200.5234">navn</text><text fill="#000000" font-family="sans-serif" font-size="14" lengthAdjust="spacing" textLength="65" x="126" y="200.5234">plantyper</text><line style="stroke:#000000;stroke-width:1.0;" x1="121" x2="121" y1="184.9883" y2="205.4766"/><line style="stroke:#000000;stroke-width:1.0;" x1="10" x2="230" y1="205.4766" y2="205.4766"/><text fill="#000000" font-family="sans-serif" font-size="14" font-weight="bold" lengthAdjust="spacing" textLength="53" x="15" y="221.0117">versjon</text><text fill="#000000" font-family="sans-serif" font-size="14" lengthAdjust="spacing" textLength="16" x="126" y="221.0117">v2</text><line style="stroke:#000000;stroke-width:1.0;" x1="121" x2="121" y1="205.4766" y2="225.9648"/><line style="stroke:#000000;stroke-width:1.0;" x1="10" x2="230" y1="225.9648" y2="225.9648"/><text fill="#000000" font-family="sans-serif" font-size="14" font-weight="bold" lengthAdjust="spacing" textLength="67" x="15" y="241.5">kodeliste</text><text fill="#000000" font-family="sans-serif" font-size="14" lengthAdjust="spacing" textLength="12" x="126" y="241.5">&#160;&#160;&#160;</text><line style="stroke:#000000;stroke-width:1.0;" x1="121" x2="121" y1="225.9648" y2="246.4531"/><rect fill="none" height="81.9531" rx="5" ry="5" style="stroke:#000000;stroke-width:1.5;" width="220" x="10" y="164.5"/><rect fill="#F1F1F1" height="163.9063" rx="5" ry="5" style="stroke:#F1F1F1;stroke-width:1.5;" width="22" x="267" y="154.5"/><text fill="#000000" font-family="sans-serif" font-size="14" lengthAdjust="spacing" textLength="12" x="272" y="170.0352">&#160;&#160;&#160;</text><line style="stroke:#000000;stroke-width:1.0;" x1="267" x2="289" y1="174.9883" y2="174.9883"/><text fill="#000000" font-family="sans-serif" font-size="14" lengthAdjust="spacing" textLength="12" x="272" y="190.5234">&#160;&#160;&#160;</text><line style="stroke:#000000;stroke-width:1.0;" x1="267" x2="289" y1="195.4766" y2="195.4766"/><text fill="#000000" font-family="sans-serif" font-size="14" lengthAdjust="spacing" textLength="12" x="272" y="211.0117">&#160;&#160;&#160;</text><line style="stroke:#000000;stroke-width:1.0;" x1="267" x2="289" y1="215.9648" y2="215.9648"/><text fill="#000000" font-family="sans-serif" font-size="14" lengthAdjust="spacing" textLength="12" x="272" y="231.5">&#160;&#160;&#160;</text><line style="stroke:#000000;stroke-width:1.0;" x1="267" x2="289" y1="236.4531" y2="236.4531"/><text fill="#000000" font-family="sans-serif" font-size="14" lengthAdjust="spacing" textLength="12" x="272" y="251.9883">&#160;&#160;&#160;</text><line style="stroke:#000000;stroke-width:1.0;" x1="267" x2="289" y1="256.9414" y2="256.9414"/><text fill="#000000" font-family="sans-serif" font-size="14" lengthAdjust="spacing" textLength="12" x="272" y="272.4766">&#160;&#160;&#160;</text><line style="stroke:#000000;stroke-width:1.0;" x1="267" x2="289" y1="277.4297" y2="277.4297"/><text fill="#000000" font-family="sans-serif" font-size="14" lengthAdjust="spacing" textLength="12" x="272" y="292.9648">&#160;&#160;&#160;</text><line style="stroke:#000000;stroke-width:1.0;" x1="267" x2="289" y1="297.918" y2="297.918"/><text fill="#000000" font-family="sans-serif" font-size="14" lengthAdjust="spacing" textLength="12" x="272" y="313.4531">&#160;&#160;&#160;</text><rect fill="none" height="163.9063" rx="5" ry="5" style="stroke:#000000;stroke-width:1.5;" width="22" x="267" y="154.5"/><rect fill="#F1F1F1" height="40.9766" rx="5" ry="5" style="stroke:#F1F1F1;stroke-width:1.5;" width="292" x="395.5" y="10"/><text fill="#000000" font-family="sans-serif" font-size="14" font-weight="bold" lengthAdjust="spacing" textLength="71" x="400.5" y="25.5352">kodeverdi</text><text fill="#000000" font-family="sans-serif" font-size="14" lengthAdjust="spacing" textLength="18" x="527.5" y="25.5352">10</text><line style="stroke:#000000;stroke-width:1.0;" x1="522.5" x2="522.5" y1="10" y2="30.4883"/><line style="stroke:#000000;stroke-width:1.0;" x1="395.5" x2="687.5" y1="30.4883" y2="30.4883"/><text fill="#000000" font-family="sans-serif" font-size="14" font-weight="bold" lengthAdjust="spacing" textLength="117" x="400.5" y="46.0234">kodebeskrivelse</text><text fill="#000000" font-family="sans-serif" font-size="14" lengthAdjust="spacing" textLength="155" x="527.5" y="46.0234">Fylkesplanens arealdel</text><line style="stroke:#000000;stroke-width:1.0;" x1="522.5" x2="522.5" y1="30.4883" y2="50.9766"/><rect fill="none" height="40.9766" rx="5" ry="5" style="stroke:#000000;stroke-width:1.5;" width="292" x="395.5" y="10"/><rect fill="#F1F1F1" height="40.9766" rx="5" ry="5" style="stroke:#F1F1F1;stroke-width:1.5;" width="230" x="426.5" y="69"/><text fill="#000000" font-family="sans-serif" font-size="14" font-weight="bold" lengthAdjust="spacing" textLength="71" x="431.5" y="84.5352">kodeverdi</text><text fill="#000000" font-family="sans-serif" font-size="14" lengthAdjust="spacing" textLength="18" x="558.5" y="84.5352">11</text><line style="stroke:#000000;stroke-width:1.0;" x1="553.5" x2="553.5" y1="69" y2="89.4883"/><line style="stroke:#000000;stroke-width:1.0;" x1="426.5" x2="656.5" y1="89.4883" y2="89.4883"/><text fill="#000000" font-family="sans-serif" font-size="14" font-weight="bold" lengthAdjust="spacing" textLength="117" x="431.5" y="105.0234">kodebeskrivelse</text><text fill="#000000" font-family="sans-serif" font-size="14" lengthAdjust="spacing" textLength="93" x="558.5" y="105.0234">Fylkesdelplan</text><line style="stroke:#000000;stroke-width:1.0;" x1="553.5" x2="553.5" y1="89.4883" y2="109.9766"/><rect fill="none" height="40.9766" rx="5" ry="5" style="stroke:#000000;stroke-width:1.5;" width="230" x="426.5" y="69"/><rect fill="#F1F1F1" height="40.9766" rx="5" ry="5" style="stroke:#F1F1F1;stroke-width:1.5;" width="320" x="381.5" y="128"/><text fill="#000000" font-family="sans-serif" font-size="14" font-weight="bold" lengthAdjust="spacing" textLength="71" x="386.5" y="143.5352">kodeverdi</text><text fill="#000000" font-family="sans-serif" font-size="14" lengthAdjust="spacing" textLength="18" x="513.5" y="143.5352">20</text><line style="stroke:#000000;stroke-width:1.0;" x1="508.5" x2="508.5" y1="128" y2="148.4883"/><line style="stroke:#000000;stroke-width:1.0;" x1="381.5" x2="701.5" y1="148.4883" y2="148.4883"/><text fill="#000000" font-family="sans-serif" font-size="14" font-weight="bold" lengthAdjust="spacing" textLength="117" x="386.5" y="164.0234">kodebeskrivelse</text><text fill="#000000" font-family="sans-serif" font-size="14" lengthAdjust="spacing" textLength="183" x="513.5" y="164.0234">Kommuneplanens arealdel</text><line style="stroke:#000000;stroke-width:1.0;" x1="508.5" x2="508.5" y1="148.4883" y2="168.9766"/><rect fill="none" height="40.9766" rx="5" ry="5" style="stroke:#000000;stroke-width:1.5;" width="320" x="381.5" y="128"/><rect fill="#F1F1F1" height="40.9766" rx="5" ry="5" style="stroke:#F1F1F1;stroke-width:1.5;" width="258" x="412.5" y="187"/><text fill="#000000" font-family="sans-serif" font-size="14" font-weight="bold" lengthAdjust="spacing" textLength="71" x="417.5" y="202.5352">kodeverdi</text><text fill="#000000" font-family="sans-serif" font-size="14" lengthAdjust="spacing" textLength="18" x="544.5" y="202.5352">21</text><line style="stroke:#000000;stroke-width:1.0;" x1="539.5" x2="539.5" y1="187" y2="207.4883"/><line style="stroke:#000000;stroke-width:1.0;" x1="412.5" x2="670.5" y1="207.4883" y2="207.4883"/><text fill="#000000" font-family="sans-serif" font-size="14" font-weight="bold" lengthAdjust="spacing" textLength="117" x="417.5" y="223.0234">kodebeskrivelse</text><text fill="#000000" font-family="sans-serif" font-size="14" lengthAdjust="spacing" textLength="121" x="544.5" y="223.0234">Kommunedelplan</text><line style="stroke:#000000;stroke-width:1.0;" x1="539.5" x2="539.5" y1="207.4883" y2="227.9766"/><rect fill="none" height="40.9766" rx="5" ry="5" style="stroke:#000000;stroke-width:1.5;" width="258" x="412.5" y="187"/><rect fill="#F1F1F1" height="40.9766" rx="5" ry="5" style="stroke:#F1F1F1;stroke-width:1.5;" width="249" x="417" y="246"/><text fill="#000000" font-family="sans-serif" font-size="14" font-weight="bold" lengthAdjust="spacing" textLength="71" x="422" y="261.5352">kodeverdi</text><text fill="#000000" font-family="sans-serif" font-size="14" lengthAdjust="spacing" textLength="18" x="549" y="261.5352">30</text><line style="stroke:#000000;stroke-width:1.0;" x1="544" x2="544" y1="246" y2="266.4883"/><line style="stroke:#000000;stroke-width:1.0;" x1="417" x2="666" y1="266.4883" y2="266.4883"/><text fill="#000000" font-family="sans-serif" font-size="14" font-weight="bold" lengthAdjust="spacing" textLength="117" x="422" y="282.0234">kodebeskrivelse</text><text fill="#000000" font-family="sans-serif" font-size="14" lengthAdjust="spacing" textLength="112" x="549" y="282.0234">Reguleringsplan</text><line style="stroke:#000000;stroke-width:1.0;" x1="544" x2="544" y1="266.4883" y2="286.9766"/><rect fill="none" height="40.9766" rx="5" ry="5" style="stroke:#000000;stroke-width:1.5;" width="249" x="417" y="246"/><rect fill="#F1F1F1" height="40.9766" rx="5" ry="5" style="stroke:#F1F1F1;stroke-width:1.5;" width="387" x="348" y="305"/><text fill="#000000" font-family="sans-serif" font-size="14" font-weight="bold" lengthAdjust="spacing" textLength="71" x="353" y="320.5352">kodeverdi</text><text fill="#000000" font-family="sans-serif" font-size="14" lengthAdjust="spacing" textLength="18" x="480" y="320.5352">31</text><line style="stroke:#000000;stroke-width:1.0;" x1="475" x2="475" y1="305" y2="325.4883"/><line style="stroke:#000000;stroke-width:1.0;" x1="348" x2="735" y1="325.4883" y2="325.4883"/><text fill="#000000" font-family="sans-serif" font-size="14" font-weight="bold" lengthAdjust="spacing" textLength="117" x="353" y="341.0234">kodebeskrivelse</text><text fill="#000000" font-family="sans-serif" font-size="14" lengthAdjust="spacing" textLength="250" x="480" y="341.0234">Mindre vesentlig reguleringsendring</text><line style="stroke:#000000;stroke-width:1.0;" x1="475" x2="475" y1="325.4883" y2="345.9766"/><rect fill="none" height="40.9766" rx="5" ry="5" style="stroke:#000000;stroke-width:1.5;" width="387" x="348" y="305"/><rect fill="#F1F1F1" height="40.9766" rx="5" ry="5" style="stroke:#F1F1F1;stroke-width:1.5;" width="402" x="340.5" y="364"/><text fill="#000000" font-family="sans-serif" font-size="14" font-weight="bold" lengthAdjust="spacing" textLength="71" x="345.5" y="379.5352">kodeverdi</text><text fill="#000000" font-family="sans-serif" font-size="14" lengthAdjust="spacing" textLength="18" x="472.5" y="379.5352">32</text><line style="stroke:#000000;stroke-width:1.0;" x1="467.5" x2="467.5" y1="364" y2="384.4883"/><line style="stroke:#000000;stroke-width:1.0;" x1="340.5" x2="742.5" y1="384.4883" y2="384.4883"/><text fill="#000000" font-family="sans-serif" font-size="14" font-weight="bold" lengthAdjust="spacing" textLength="117" x="345.5" y="400.0234">kodebeskrivelse</text><text fill="#000000" font-family="sans-serif" font-size="14" lengthAdjust="spacing" textLength="265" x="472.5" y="400.0234">Bebyggelsesplan ihht. Reguleringsplan</text><line style="stroke:#000000;stroke-width:1.0;" x1="467.5" x2="467.5" y1="384.4883" y2="404.9766"/><rect fill="none" height="40.9766" rx="5" ry="5" style="stroke:#000000;stroke-width:1.5;" width="402" x="340.5" y="364"/><rect fill="#F1F1F1" height="40.9766" rx="5" ry="5" style="stroke:#F1F1F1;stroke-width:1.5;" width="431" x="326" y="423"/><text fill="#000000" font-family="sans-serif" font-size="14" font-weight="bold" lengthAdjust="spacing" textLength="71" x="331" y="438.5352">kodeverdi</text><text fill="#000000" font-family="sans-serif" font-size="14" lengthAdjust="spacing" textLength="18" x="458" y="438.5352">33</text><line style="stroke:#000000;stroke-width:1.0;" x1="453" x2="453" y1="423" y2="443.4883"/><line style="stroke:#000000;stroke-width:1.0;" x1="326" x2="757" y1="443.4883" y2="443.4883"/><text fill="#000000" font-family="sans-serif" font-size="14" font-weight="bold" lengthAdjust="spacing" textLength="117" x="331" y="459.0234">kodebeskrivelse</text><text fill="#000000" font-family="sans-serif" font-size="14" lengthAdjust="spacing" textLength="294" x="458" y="459.0234">Bebyggelsesplan ihht kommunepl. arealdel</text><line style="stroke:#000000;stroke-width:1.0;" x1="453" x2="453" y1="443.4883" y2="463.9766"/><rect fill="none" height="40.9766" rx="5" ry="5" style="stroke:#000000;stroke-width:1.5;" width="431" x="326" y="423"/><path d="M277,164.5 L290,164.5 C339.3333,164.5 287.8668,90.7992 326,59.5 C343.9295,44.7837 365.6751,35.4696 388.363,29.8102 " fill="none" style="stroke:#000000;stroke-width:1.0;stroke-dasharray:3.0,3.0;"/><path d="M389.0475,32.7685 L390.5817,29.2968 L387.6785,26.852 L395.7587,28.099 L389.0475,32.7685 " fill="#000000" style="stroke:#000000;stroke-width:1.0;"/><ellipse cx="277" cy="164.5" fill="#000000" rx="3" ry="3" style="stroke:#000000;stroke-width:1.0;"/><path d="M277,185.5 L290,185.5 C323.8041,185.5 298.2136,137.7518 326,118.5 C353.0137,99.7836 386.5896,90.4568 419.1162,86.2932 " fill="none" style="stroke:#000000;stroke-width:1.0;stroke-dasharray:3.0,3.0;"/><path d="M419.4778,89.4127 L421.4558,86.022 L418.7546,83.1737 L426.9149,85.3892 L419.4778,89.4127 " fill="#000000" style="stroke:#000000;stroke-width:1.0;"/><ellipse cx="277" cy="185.5" fill="#000000" rx="3" ry="3" style="stroke:#000000;stroke-width:1.0;"/><path d="M277,205.5 L290,205.5 C310,205.5 307.51,186.1236 326,178.5 C341.2586,172.2088 357.5885,167.1921 374.1765,163.1979 " fill="none" style="stroke:#000000;stroke-width:1.0;stroke-dasharray:3.0,3.0;"/><path d="M374.8821,166.2526 L376.4675,162.6687 L373.4709,160.1432 L381.8133,161.4338 L374.8821,166.2526 " fill="#000000" style="stroke:#000000;stroke-width:1.0;"/><ellipse cx="277" cy="205.5" fill="#000000" rx="3" ry="3" style="stroke:#000000;stroke-width:1.0;"/><path d="M277,226.5 L290,226.5 C327.3311,226.5 367.6965,224.3844 404.9145,221.5651 " fill="none" style="stroke:#000000;stroke-width:1.0;stroke-dasharray:3.0,3.0;"/><path d="M405.1592,224.7219 L407.282,221.3816 L404.6697,218.4084 L412.8064,220.9533 L405.1592,224.7219 " fill="#000000" style="stroke:#000000;stroke-width:1.0;"/><ellipse cx="277" cy="226.5" fill="#000000" rx="3" ry="3" style="stroke:#000000;stroke-width:1.0;"/><path d="M277,246.5 L290,246.5 C328.9332,246.5 371.1564,248.9207 409.6681,252.0778 " fill="none" style="stroke:#000000;stroke-width:1.0;stroke-dasharray:3.0,3.0;"/><path d="M409.4118,255.1381 L411.9633,252.27 L409.9244,249.0174 L417.3189,252.7185 L409.4118,255.1381 " fill="#000000" style="stroke:#000000;stroke-width:1.0;"/><ellipse cx="277" cy="246.5" fill="#000000" rx="3" ry="3" style="stroke:#000000;stroke-width:1.0;"/><path d="M277,267.5 L290,267.5 C310.5456,267.5 307.1253,288.3839 326,296.5 C330.9955,298.6481 336.1114,300.6461 341.3182,302.5042 " fill="none" style="stroke:#000000;stroke-width:1.0;stroke-dasharray:3.0,3.0;"/><path d="M340.3391,305.3657 L343.4644,303.2385 L342.2974,299.6427 L348.472,304.9521 L340.3391,305.3657 " fill="#000000" style="stroke:#000000;stroke-width:1.0;"/><ellipse cx="277" cy="267.5" fill="#000000" rx="3" ry="3" style="stroke:#000000;stroke-width:1.0;"/><path d="M277,287.5 L290,287.5 C324.1962,287.5 297.9513,335.9385 326,355.5 C328.6935,357.3785 331.453,359.1627 334.2707,360.8568 " fill="none" style="stroke:#000000;stroke-width:1.0;stroke-dasharray:3.0,3.0;"/><path d="M332.7541,363.5275 L336.2738,361.9942 L335.7873,358.186 L340.9476,364.6482 L332.7541,363.5275 " fill="#000000" style="stroke:#000000;stroke-width:1.0;"/><ellipse cx="277" cy="287.5" fill="#000000" rx="3" ry="3" style="stroke:#000000;stroke-width:1.0;"/><path d="M277,308.5 L290,308.5 C339.754,308.5 287.5874,382.8783 326,414.5 C327.5902,415.8091 329.2107,417.0755 330.8592,418.3005 " fill="none" style="stroke:#000000;stroke-width:1.0;stroke-dasharray:3.0,3.0;"/><path d="M329.0506,420.8981 L332.8075,419.657 L332.6679,415.7028 L337.3534,422.8222 L329.0506,420.8981 " fill="#000000" style="stroke:#000000;stroke-width:1.0;"/><ellipse cx="277" cy="308.5" fill="#000000" rx="3" ry="3" style="stroke:#000000;stroke-width:1.0;"/><path d="M218,236.5 L231,236.5 C240.4213,236.5 250.9164,236.5 259.5483,236.5 " fill="none" style="stroke:#000000;stroke-width:1.0;stroke-dasharray:3.0,3.0;"/><path d="M259.5483,239.5437 L261.8311,236.5 L259.5483,233.4563 L267.1575,236.5 L259.5483,239.5437 " fill="#000000" style="stroke:#000000;stroke-width:1.0;"/><ellipse cx="218" cy="236.5" fill="#000000" rx="3" ry="3" style="stroke:#000000;stroke-width:1.0;"/><!--SRC=[dLDDIyD04BtlhnXogc23YRP8Jk8dr4PBgxs8XwqPuvhjRDdT18Bqlpk9reA7DdgPaFTstdkpovmvBwr_TuR4Xm08LjPuKnYjILOK912G2GiNlYekAoqfE6nERSW6yVKAxHTSeNNlfcMg-0igJ8PQEOyCFZ40yD7MRuexCXK0DqH7RSCFiq1NM5MXTjZorxKkq3M6I0waHQbPEMXRreSxbQCkoYpMpjT1CDuJzTOiboNXVxB6KIVfFuGztXDsYdcfqIhANMV9FI5JHPb5gD0XUQroi5iFP8g_dMpYtJRdkAZplFbjauDwU_CX_6UUuxyRGR5vvF3t0tDz5cjnngEsUoKcpPOyfcDezaCPWYYCZ-AJSD2RbGIfh24UGXGbqI0PdCB5rUm16lv0z6ucOt2cj2y86I-HLOlIiy216CbAmhGahvQOmFqAQNHvkm7WYYfb3Itv-iLedcuF34_wvyh332r7WNagBl5Lbjfpnul9-CuIU7ouxf-AiQIyb3bh8uaBmxgsJk3k_XC0]--></g></svg>