<svg xmlns="http://www.w3.org/2000/svg" xmlns:xlink="http://www.w3.org/1999/xlink" contentStyleType="text/css" data-diagram-type="JSON" height="475px" preserveAspectRatio="none" style="width:769px;height:475px;background:#FFFFFF;" version="1.1" viewBox="0 0 769 475" width="769px" zoomAndPan="magnify"><defs/><g><rect fill="#F1F1F1" height="81.9531" rx="5" ry="5" style="stroke:#F1F1F1;stroke-width:1.5;" width="220.7168" x="10" y="164.5"/><text fill="#000000" font-family="sans-serif" font-size="14" font-weight="bold" lengthAdjust="spacing" textLength="101.0283" x="15" y="180.0352">protokollnavn</text><text fill="#000000" font-family="sans-serif" font-size="14" lengthAdjust="spacing" textLength="99.6885" x="126.0283" y="180.0352">no.ks.fiks.plan</text><line style="stroke:#000000;stroke-width:1;" x1="121.0283" x2="121.0283" y1="164.5" y2="184.9883"/><line style="stroke:#000000;stroke-width:1;" x1="10" x2="230.7168" y1="184.9883" y2="184.9883"/><text fill="#000000" font-family="sans-serif" font-size="14" font-weight="bold" lengthAdjust="spacing" textLength="34.9248" x="15" y="200.5234">navn</text><text fill="#000000" font-family="sans-serif" font-size="14" lengthAdjust="spacing" textLength="64.1689" x="126.0283" y="200.5234">plantyper</text><line style="stroke:#000000;stroke-width:1;" x1="121.0283" x2="121.0283" y1="184.9883" y2="205.4766"/><line style="stroke:#000000;stroke-width:1;" x1="10" x2="230.7168" y1="205.4766" y2="205.4766"/><text fill="#000000" font-family="sans-serif" font-size="14" font-weight="bold" lengthAdjust="spacing" textLength="53.5869" x="15" y="221.0117">versjon</text><text fill="#000000" font-family="sans-serif" font-size="14" lengthAdjust="spacing" textLength="16.0986" x="126.0283" y="221.0117">v2</text><line style="stroke:#000000;stroke-width:1;" x1="121.0283" x2="121.0283" y1="205.4766" y2="225.9648"/><line style="stroke:#000000;stroke-width:1;" x1="10" x2="230.7168" y1="225.9648" y2="225.9648"/><text fill="#000000" font-family="sans-serif" font-size="14" font-weight="bold" lengthAdjust="spacing" textLength="66.1787" x="15" y="241.5">kodeliste</text><text fill="#000000" font-family="sans-serif" font-size="14" lengthAdjust="spacing" textLength="13.2891" x="126.0283" y="241.5">&#160;&#160;&#160;</text><line style="stroke:#000000;stroke-width:1;" x1="121.0283" x2="121.0283" y1="225.9648" y2="246.4531"/><rect fill="none" height="81.9531" rx="5" ry="5" style="stroke:#000000;stroke-width:1.5;" width="220.7168" x="10" y="164.5"/><rect fill="#F1F1F1" height="163.9063" rx="5" ry="5" style="stroke:#F1F1F1;stroke-width:1.5;" width="23.2891" x="268" y="154.5"/><text fill="#000000" font-family="sans-serif" font-size="14" lengthAdjust="spacing" textLength="13.2891" x="273" y="170.0352">&#160;&#160;&#160;</text><line style="stroke:#000000;stroke-width:1;" x1="268" x2="291.2891" y1="174.9883" y2="174.9883"/><text fill="#000000" font-family="sans-serif" font-size="14" lengthAdjust="spacing" textLength="13.2891" x="273" y="190.5234">&#160;&#160;&#160;</text><line style="stroke:#000000;stroke-width:1;" x1="268" x2="291.2891" y1="195.4766" y2="195.4766"/><text fill="#000000" font-family="sans-serif" font-size="14" lengthAdjust="spacing" textLength="13.2891" x="273" y="211.0117">&#160;&#160;&#160;</text><line style="stroke:#000000;stroke-width:1;" x1="268" x2="291.2891" y1="215.9648" y2="215.9648"/><text fill="#000000" font-family="sans-serif" font-size="14" lengthAdjust="spacing" textLength="13.2891" x="273" y="231.5">&#160;&#160;&#160;</text><line style="stroke:#000000;stroke-width:1;" x1="268" x2="291.2891" y1="236.4531" y2="236.4531"/><text fill="#000000" font-family="sans-serif" font-size="14" lengthAdjust="spacing" textLength="13.2891" x="273" y="251.9883">&#160;&#160;&#160;</text><line style="stroke:#000000;stroke-width:1;" x1="268" x2="291.2891" y1="256.9414" y2="256.9414"/><text fill="#000000" font-family="sans-serif" font-size="14" lengthAdjust="spacing" textLength="13.2891" x="273" y="272.4766">&#160;&#160;&#160;</text><line style="stroke:#000000;stroke-width:1;" x1="268" x2="291.2891" y1="277.4297" y2="277.4297"/><text fill="#000000" font-family="sans-serif" font-size="14" lengthAdjust="spacing" textLength="13.2891" x="273" y="292.9648">&#160;&#160;&#160;</text><line style="stroke:#000000;stroke-width:1;" x1="268" x2="291.2891" y1="297.918" y2="297.918"/><text fill="#000000" font-family="sans-serif" font-size="14" lengthAdjust="spacing" textLength="13.2891" x="273" y="313.4531">&#160;&#160;&#160;</text><rect fill="none" height="163.9063" rx="5" ry="5" style="stroke:#000000;stroke-width:1.5;" width="23.2891" x="268" y="154.5"/><rect fill="#F1F1F1" height="40.9766" rx="5" ry="5" style="stroke:#F1F1F1;stroke-width:1.5;" width="290.6484" x="397" y="10"/><text fill="#000000" font-family="sans-serif" font-size="14" font-weight="bold" lengthAdjust="spacing" textLength="71.9824" x="402" y="25.5352">kodeverdi</text><text fill="#000000" font-family="sans-serif" font-size="14" lengthAdjust="spacing" textLength="17.7051" x="529.6328" y="25.5352">10</text><line style="stroke:#000000;stroke-width:1;" x1="524.6328" x2="524.6328" y1="10" y2="30.4883"/><line style="stroke:#000000;stroke-width:1;" x1="397" x2="687.6484" y1="30.4883" y2="30.4883"/><text fill="#000000" font-family="sans-serif" font-size="14" font-weight="bold" lengthAdjust="spacing" textLength="117.6328" x="402" y="46.0234">kodebeskrivelse</text><text fill="#000000" font-family="sans-serif" font-size="14" lengthAdjust="spacing" textLength="153.0156" x="529.6328" y="46.0234">Fylkesplanens arealdel</text><line style="stroke:#000000;stroke-width:1;" x1="524.6328" x2="524.6328" y1="30.4883" y2="50.9766"/><rect fill="none" height="40.9766" rx="5" ry="5" style="stroke:#000000;stroke-width:1.5;" width="290.6484" x="397" y="10"/><rect fill="#F1F1F1" height="40.9766" rx="5" ry="5" style="stroke:#F1F1F1;stroke-width:1.5;" width="229.5557" x="427.5" y="69"/><text fill="#000000" font-family="sans-serif" font-size="14" font-weight="bold" lengthAdjust="spacing" textLength="71.9824" x="432.5" y="84.5352">kodeverdi</text><text fill="#000000" font-family="sans-serif" font-size="14" lengthAdjust="spacing" textLength="17.7051" x="560.1328" y="84.5352">11</text><line style="stroke:#000000;stroke-width:1;" x1="555.1328" x2="555.1328" y1="69" y2="89.4883"/><line style="stroke:#000000;stroke-width:1;" x1="427.5" x2="657.0557" y1="89.4883" y2="89.4883"/><text fill="#000000" font-family="sans-serif" font-size="14" font-weight="bold" lengthAdjust="spacing" textLength="117.6328" x="432.5" y="105.0234">kodebeskrivelse</text><text fill="#000000" font-family="sans-serif" font-size="14" lengthAdjust="spacing" textLength="91.9229" x="560.1328" y="105.0234">Fylkesdelplan</text><line style="stroke:#000000;stroke-width:1;" x1="555.1328" x2="555.1328" y1="89.4883" y2="109.9766"/><rect fill="none" height="40.9766" rx="5" ry="5" style="stroke:#000000;stroke-width:1.5;" width="229.5557" x="427.5" y="69"/><rect fill="#F1F1F1" height="40.9766" rx="5" ry="5" style="stroke:#F1F1F1;stroke-width:1.5;" width="317.7188" x="383.5" y="128"/><text fill="#000000" font-family="sans-serif" font-size="14" font-weight="bold" lengthAdjust="spacing" textLength="71.9824" x="388.5" y="143.5352">kodeverdi</text><text fill="#000000" font-family="sans-serif" font-size="14" lengthAdjust="spacing" textLength="17.7051" x="516.1328" y="143.5352">20</text><line style="stroke:#000000;stroke-width:1;" x1="511.1328" x2="511.1328" y1="128" y2="148.4883"/><line style="stroke:#000000;stroke-width:1;" x1="383.5" x2="701.2188" y1="148.4883" y2="148.4883"/><text fill="#000000" font-family="sans-serif" font-size="14" font-weight="bold" lengthAdjust="spacing" textLength="117.6328" x="388.5" y="164.0234">kodebeskrivelse</text><text fill="#000000" font-family="sans-serif" font-size="14" lengthAdjust="spacing" textLength="180.0859" x="516.1328" y="164.0234">Kommuneplanens arealdel</text><line style="stroke:#000000;stroke-width:1;" x1="511.1328" x2="511.1328" y1="148.4883" y2="168.9766"/><rect fill="none" height="40.9766" rx="5" ry="5" style="stroke:#000000;stroke-width:1.5;" width="317.7188" x="383.5" y="128"/><rect fill="#F1F1F1" height="40.9766" rx="5" ry="5" style="stroke:#F1F1F1;stroke-width:1.5;" width="256.626" x="414" y="187"/><text fill="#000000" font-family="sans-serif" font-size="14" font-weight="bold" lengthAdjust="spacing" textLength="71.9824" x="419" y="202.5352">kodeverdi</text><text fill="#000000" font-family="sans-serif" font-size="14" lengthAdjust="spacing" textLength="17.7051" x="546.6328" y="202.5352">21</text><line style="stroke:#000000;stroke-width:1;" x1="541.6328" x2="541.6328" y1="187" y2="207.4883"/><line style="stroke:#000000;stroke-width:1;" x1="414" x2="670.626" y1="207.4883" y2="207.4883"/><text fill="#000000" font-family="sans-serif" font-size="14" font-weight="bold" lengthAdjust="spacing" textLength="117.6328" x="419" y="223.0234">kodebeskrivelse</text><text fill="#000000" font-family="sans-serif" font-size="14" lengthAdjust="spacing" textLength="118.9932" x="546.6328" y="223.0234">Kommunedelplan</text><line style="stroke:#000000;stroke-width:1;" x1="541.6328" x2="541.6328" y1="207.4883" y2="227.9766"/><rect fill="none" height="40.9766" rx="5" ry="5" style="stroke:#000000;stroke-width:1.5;" width="256.626" x="414" y="187"/><rect fill="#F1F1F1" height="40.9766" rx="5" ry="5" style="stroke:#F1F1F1;stroke-width:1.5;" width="247.1582" x="419" y="246"/><text fill="#000000" font-family="sans-serif" font-size="14" font-weight="bold" lengthAdjust="spacing" textLength="71.9824" x="424" y="261.5352">kodeverdi</text><text fill="#000000" font-family="sans-serif" font-size="14" lengthAdjust="spacing" textLength="17.7051" x="551.6328" y="261.5352">30</text><line style="stroke:#000000;stroke-width:1;" x1="546.6328" x2="546.6328" y1="246" y2="266.4883"/><line style="stroke:#000000;stroke-width:1;" x1="419" x2="666.1582" y1="266.4883" y2="266.4883"/><text fill="#000000" font-family="sans-serif" font-size="14" font-weight="bold" lengthAdjust="spacing" textLength="117.6328" x="424" y="282.0234">kodebeskrivelse</text><text fill="#000000" font-family="sans-serif" font-size="14" lengthAdjust="spacing" textLength="109.5254" x="551.6328" y="282.0234">Reguleringsplan</text><line style="stroke:#000000;stroke-width:1;" x1="546.6328" x2="546.6328" y1="266.4883" y2="286.9766"/><rect fill="none" height="40.9766" rx="5" ry="5" style="stroke:#000000;stroke-width:1.5;" width="247.1582" x="419" y="246"/><rect fill="#F1F1F1" height="40.9766" rx="5" ry="5" style="stroke:#F1F1F1;stroke-width:1.5;" width="383.9727" x="350.5" y="305"/><text fill="#000000" font-family="sans-serif" font-size="14" font-weight="bold" lengthAdjust="spacing" textLength="71.9824" x="355.5" y="320.5352">kodeverdi</text><text fill="#000000" font-family="sans-serif" font-size="14" lengthAdjust="spacing" textLength="17.7051" x="483.1328" y="320.5352">31</text><line style="stroke:#000000;stroke-width:1;" x1="478.1328" x2="478.1328" y1="305" y2="325.4883"/><line style="stroke:#000000;stroke-width:1;" x1="350.5" x2="734.4727" y1="325.4883" y2="325.4883"/><text fill="#000000" font-family="sans-serif" font-size="14" font-weight="bold" lengthAdjust="spacing" textLength="117.6328" x="355.5" y="341.0234">kodebeskrivelse</text><text fill="#000000" font-family="sans-serif" font-size="14" lengthAdjust="spacing" textLength="246.3398" x="483.1328" y="341.0234">Mindre vesentlig reguleringsendring</text><line style="stroke:#000000;stroke-width:1;" x1="478.1328" x2="478.1328" y1="325.4883" y2="345.9766"/><rect fill="none" height="40.9766" rx="5" ry="5" style="stroke:#000000;stroke-width:1.5;" width="383.9727" x="350.5" y="305"/><rect fill="#F1F1F1" height="40.9766" rx="5" ry="5" style="stroke:#F1F1F1;stroke-width:1.5;" width="399.7432" x="342.5" y="364"/><text fill="#000000" font-family="sans-serif" font-size="14" font-weight="bold" lengthAdjust="spacing" textLength="71.9824" x="347.5" y="379.5352">kodeverdi</text><text fill="#000000" font-family="sans-serif" font-size="14" lengthAdjust="spacing" textLength="17.7051" x="475.1328" y="379.5352">32</text><line style="stroke:#000000;stroke-width:1;" x1="470.1328" x2="470.1328" y1="364" y2="384.4883"/><line style="stroke:#000000;stroke-width:1;" x1="342.5" x2="742.2432" y1="384.4883" y2="384.4883"/><text fill="#000000" font-family="sans-serif" font-size="14" font-weight="bold" lengthAdjust="spacing" textLength="117.6328" x="347.5" y="400.0234">kodebeskrivelse</text><text fill="#000000" font-family="sans-serif" font-size="14" lengthAdjust="spacing" textLength="262.1104" x="475.1328" y="400.0234">Bebyggelsesplan ihht. Reguleringsplan</text><line style="stroke:#000000;stroke-width:1;" x1="470.1328" x2="470.1328" y1="384.4883" y2="404.9766"/><rect fill="none" height="40.9766" rx="5" ry="5" style="stroke:#000000;stroke-width:1.5;" width="399.7432" x="342.5" y="364"/><rect fill="#F1F1F1" height="40.9766" rx="5" ry="5" style="stroke:#F1F1F1;stroke-width:1.5;" width="429.3018" x="328" y="423"/><text fill="#000000" font-family="sans-serif" font-size="14" font-weight="bold" lengthAdjust="spacing" textLength="71.9824" x="333" y="438.5352">kodeverdi</text><text fill="#000000" font-family="sans-serif" font-size="14" lengthAdjust="spacing" textLength="17.7051" x="460.6328" y="438.5352">33</text><line style="stroke:#000000;stroke-width:1;" x1="455.6328" x2="455.6328" y1="423" y2="443.4883"/><line style="stroke:#000000;stroke-width:1;" x1="328" x2="757.3018" y1="443.4883" y2="443.4883"/><text fill="#000000" font-family="sans-serif" font-size="14" font-weight="bold" lengthAdjust="spacing" textLength="117.6328" x="333" y="459.0234">kodebeskrivelse</text><text fill="#000000" font-family="sans-serif" font-size="14" lengthAdjust="spacing" textLength="291.6689" x="460.6328" y="459.0234">Bebyggelsesplan ihht kommunepl. arealdel</text><line style="stroke:#000000;stroke-width:1;" x1="455.6328" x2="455.6328" y1="443.4883" y2="463.9766"/><rect fill="none" height="40.9766" rx="5" ry="5" style="stroke:#000000;stroke-width:1.5;" width="429.3018" x="328" y="423"/><path d="M279,164.5 L292,164.5 C341.3333,164.5 289.8765,90.811 328,59.5 C345.8431,44.8454 367.4859,35.5633 390.0677,29.917" fill="none" style="stroke:#000000;stroke-width:1;stroke-dasharray:3.0,3.0;"/><path d="M390.7508,32.8614 L392.276,29.4047 L389.3846,26.9725 L397.4288,28.2093 L390.7508,32.8614" fill="#000000" style="stroke:#000000;stroke-width:1;"/><ellipse cx="279" cy="164.5" fill="#000000" rx="3" ry="3" style="stroke:#000000;stroke-width:1;"/><path d="M279,185.5 L292,185.5 C325.8041,185.5 300.2195,137.7604 328,118.5 C354.7419,99.9596 387.9488,90.6575 420.1632,86.4605" fill="none" style="stroke:#000000;stroke-width:1;stroke-dasharray:3.0,3.0;"/><path d="M420.5284,89.5504 L422.4806,86.1866 L419.7979,83.3706 L427.888,85.5474 L420.5284,89.5504" fill="#000000" style="stroke:#000000;stroke-width:1;"/><ellipse cx="279" cy="185.5" fill="#000000" rx="3" ry="3" style="stroke:#000000;stroke-width:1;"/><path d="M279,205.5 L292,205.5 C312,205.5 309.5124,186.1295 328,178.5 C343.2622,172.2016 359.6014,167.1821 376.1963,163.188" fill="none" style="stroke:#000000;stroke-width:1;stroke-dasharray:3.0,3.0;"/><path d="M376.9019,166.2439 L378.4882,162.6588 L375.4908,160.1321 L383.836,161.4241 L376.9019,166.2439" fill="#000000" style="stroke:#000000;stroke-width:1;"/><ellipse cx="279" cy="205.5" fill="#000000" rx="3" ry="3" style="stroke:#000000;stroke-width:1;"/><path d="M279,226.5 L292,226.5 C329.1832,226.5 369.3881,224.3844 406.4578,221.5651" fill="none" style="stroke:#000000;stroke-width:1;stroke-dasharray:3.0,3.0;"/><path d="M406.7025,224.7093 L408.8159,221.3816 L406.2131,218.4209 L414.3182,220.9533 L406.7025,224.7093" fill="#000000" style="stroke:#000000;stroke-width:1;"/><ellipse cx="279" cy="226.5" fill="#000000" rx="3" ry="3" style="stroke:#000000;stroke-width:1;"/><path d="M279,246.5 L292,246.5 C330.9832,246.5 373.2771,248.9462 411.7979,252.1277" fill="none" style="stroke:#000000;stroke-width:1;stroke-dasharray:3.0,3.0;"/><path d="M411.5397,255.1884 L414.0934,252.3213 L412.0561,249.067 L419.4497,252.7733 L411.5397,255.1884" fill="#000000" style="stroke:#000000;stroke-width:1;"/><ellipse cx="279" cy="246.5" fill="#000000" rx="3" ry="3" style="stroke:#000000;stroke-width:1;"/><path d="M279,267.5 L292,267.5 C312.5456,267.5 309.1279,288.3781 328,296.5 C333.0904,298.6908 338.3065,300.7252 343.6167,302.6141" fill="none" style="stroke:#000000;stroke-width:1;stroke-dasharray:3.0,3.0;"/><path d="M342.622,305.5327 L345.8056,303.36 L344.6113,299.6955 L350.9132,305.1006 L342.622,305.5327" fill="#000000" style="stroke:#000000;stroke-width:1;"/><ellipse cx="279" cy="267.5" fill="#000000" rx="3" ry="3" style="stroke:#000000;stroke-width:1;"/><path d="M279,287.5 L292,287.5 C326.1962,287.5 299.9573,335.9298 328,355.5 C330.6806,357.3707 333.4269,359.1477 336.2312,360.8351" fill="none" style="stroke:#000000;stroke-width:1;stroke-dasharray:3.0,3.0;"/><path d="M334.7206,363.4931 L338.2248,361.9681 L337.7419,358.177 L342.8764,364.6117 L334.7206,363.4931" fill="#000000" style="stroke:#000000;stroke-width:1;"/><ellipse cx="279" cy="287.5" fill="#000000" rx="3" ry="3" style="stroke:#000000;stroke-width:1;"/><path d="M279,308.5 L292,308.5 C341.754,308.5 289.5972,382.8664 328,414.5 C329.5826,415.8036 331.1952,417.0648 332.8359,418.2847" fill="none" style="stroke:#000000;stroke-width:1;stroke-dasharray:3.0,3.0;"/><path d="M331.0345,420.8699 L334.7748,419.6357 L334.6372,415.6995 L339.2989,422.7881 L331.0345,420.8699" fill="#000000" style="stroke:#000000;stroke-width:1;"/><ellipse cx="279" cy="308.5" fill="#000000" rx="3" ry="3" style="stroke:#000000;stroke-width:1;"/><path d="M219,236.5 L232,236.5 C241.399,236.5 251.8552,236.5 260.5144,236.5" fill="none" style="stroke:#000000;stroke-width:1;stroke-dasharray:3.0,3.0;"/><path d="M260.5144,239.5633 L262.8119,236.5 L260.5144,233.4367 L268.1727,236.5 L260.5144,239.5633" fill="#000000" style="stroke:#000000;stroke-width:1;"/><ellipse cx="219" cy="236.5" fill="#000000" rx="3" ry="3" style="stroke:#000000;stroke-width:1;"/><!--SRC=[dLFBJiCm4BpxArOvWLIY9k6bd11FgRIqAgKNnC4bIp1nrvNjHAeG_yucfLJYq8PUDigCPtRMrbuuBwt_S8R4fm085jPuKnYjILOKf12G2GiNlYak2oqfwDIdrcID-EK2xGgkqBeFqp1Ll88Aaw5MpYE3pmm0V3RrXs95fW9WGTHj1B_C35rXLONQOSFVBdM1hcw8v41Qb9gTWqRorTdg7BLnPhDclXQ6yOwezsO-BmdtoHf7hQp_4JRP4NQCUQdHAifTQyiT8GUACejGeKFoMkLWDpsGAVwsQXDlRtE9isMUrxzDSb3lxpw4VUP9_jy8YlKZXtyVcEkB-18NF6gpLs9KRydJe0_rVYX348LnDpu9uuD9YT1Zn-uPHETfSf8cft1rCu6QFXG7TwC-E5FQLuICTyYgMUbPVoXwif8mBichEQOmN23rhk_N0DnGfQoXET- -w4q7cmEdnqUNoiCZMau2qu6unZTPQi-ALvFnbQNmDBazEXTzINafS_P64bU6VUqoXOVXDm00]--></g></svg>