<svg xmlns="http://www.w3.org/2000/svg" xmlns:xlink="http://www.w3.org/1999/xlink" contentStyleType="text/css" height="144px" preserveAspectRatio="none" style="width:562px;height:144px;background:#FFFFFF;" version="1.1" viewBox="0 0 562 144" width="562px" zoomAndPan="magnify"><defs/><g><rect fill="#F1F1F1" height="81.9531" rx="5" ry="5" style="stroke:#F1F1F1;stroke-width:1.5;" width="249" x="10" y="10"/><text fill="#000000" font-family="sans-serif" font-size="14" font-weight="bold" lengthAdjust="spacing" textLength="101" x="15" y="25.5352">protokollnavn</text><text fill="#000000" font-family="sans-serif" font-size="14" lengthAdjust="spacing" textLength="99" x="126" y="25.5352">no.ks.fiks.plan</text><line style="stroke:#000000;stroke-width:1.0;" x1="121" x2="121" y1="10" y2="30.4883"/><line style="stroke:#000000;stroke-width:1.0;" x1="10" x2="259" y1="30.4883" y2="30.4883"/><text fill="#000000" font-family="sans-serif" font-size="14" font-weight="bold" lengthAdjust="spacing" textLength="34" x="15" y="46.0234">navn</text><text fill="#000000" font-family="sans-serif" font-size="14" lengthAdjust="spacing" textLength="128" x="126" y="46.0234">forslagsstillertyper</text><line style="stroke:#000000;stroke-width:1.0;" x1="121" x2="121" y1="30.4883" y2="50.9766"/><line style="stroke:#000000;stroke-width:1.0;" x1="10" x2="259" y1="50.9766" y2="50.9766"/><text fill="#000000" font-family="sans-serif" font-size="14" font-weight="bold" lengthAdjust="spacing" textLength="53" x="15" y="66.5117">versjon</text><text fill="#000000" font-family="sans-serif" font-size="14" lengthAdjust="spacing" textLength="16" x="126" y="66.5117">v2</text><line style="stroke:#000000;stroke-width:1.0;" x1="121" x2="121" y1="50.9766" y2="71.4648"/><line style="stroke:#000000;stroke-width:1.0;" x1="10" x2="259" y1="71.4648" y2="71.4648"/><text fill="#000000" font-family="sans-serif" font-size="14" font-weight="bold" lengthAdjust="spacing" textLength="67" x="15" y="87">kodeliste</text><text fill="#000000" font-family="sans-serif" font-size="14" lengthAdjust="spacing" textLength="12" x="126" y="87">&#160;&#160;&#160;</text><line style="stroke:#000000;stroke-width:1.0;" x1="121" x2="121" y1="71.4648" y2="91.9531"/><rect fill="none" height="81.9531" rx="5" ry="5" style="stroke:#000000;stroke-width:1.5;" width="249" x="10" y="10"/><rect fill="#F1F1F1" height="40.9766" rx="5" ry="5" style="stroke:#F1F1F1;stroke-width:1.5;" width="22" x="296" y="61.5"/><text fill="#000000" font-family="sans-serif" font-size="14" lengthAdjust="spacing" textLength="12" x="301" y="77.0352">&#160;&#160;&#160;</text><line style="stroke:#000000;stroke-width:1.0;" x1="296" x2="318" y1="81.9883" y2="81.9883"/><text fill="#000000" font-family="sans-serif" font-size="14" lengthAdjust="spacing" textLength="12" x="301" y="97.5234">&#160;&#160;&#160;</text><rect fill="none" height="40.9766" rx="5" ry="5" style="stroke:#000000;stroke-width:1.5;" width="22" x="296" y="61.5"/><rect fill="#F1F1F1" height="40.9766" rx="5" ry="5" style="stroke:#F1F1F1;stroke-width:1.5;" width="195" x="355" y="32.5"/><text fill="#000000" font-family="sans-serif" font-size="14" font-weight="bold" lengthAdjust="spacing" textLength="71" x="360" y="48.0352">kodeverdi</text><text fill="#000000" font-family="sans-serif" font-size="14" lengthAdjust="spacing" textLength="9" x="487" y="48.0352">1</text><line style="stroke:#000000;stroke-width:1.0;" x1="482" x2="482" y1="32.5" y2="52.9883"/><line style="stroke:#000000;stroke-width:1.0;" x1="355" x2="550" y1="52.9883" y2="52.9883"/><text fill="#000000" font-family="sans-serif" font-size="14" font-weight="bold" lengthAdjust="spacing" textLength="117" x="360" y="68.5234">kodebeskrivelse</text><text fill="#000000" font-family="sans-serif" font-size="14" lengthAdjust="spacing" textLength="58" x="487" y="68.5234">offentlig</text><line style="stroke:#000000;stroke-width:1.0;" x1="482" x2="482" y1="52.9883" y2="73.4766"/><rect fill="none" height="40.9766" rx="5" ry="5" style="stroke:#000000;stroke-width:1.5;" width="195" x="355" y="32.5"/><rect fill="#F1F1F1" height="40.9766" rx="5" ry="5" style="stroke:#F1F1F1;stroke-width:1.5;" width="176" x="364.5" y="91.5"/><text fill="#000000" font-family="sans-serif" font-size="14" font-weight="bold" lengthAdjust="spacing" textLength="71" x="369.5" y="107.0352">kodeverdi</text><text fill="#000000" font-family="sans-serif" font-size="14" lengthAdjust="spacing" textLength="9" x="496.5" y="107.0352">2</text><line style="stroke:#000000;stroke-width:1.0;" x1="491.5" x2="491.5" y1="91.5" y2="111.9883"/><line style="stroke:#000000;stroke-width:1.0;" x1="364.5" x2="540.5" y1="111.9883" y2="111.9883"/><text fill="#000000" font-family="sans-serif" font-size="14" font-weight="bold" lengthAdjust="spacing" textLength="117" x="369.5" y="127.5234">kodebeskrivelse</text><text fill="#000000" font-family="sans-serif" font-size="14" lengthAdjust="spacing" textLength="39" x="496.5" y="127.5234">privat</text><line style="stroke:#000000;stroke-width:1.0;" x1="491.5" x2="491.5" y1="111.9883" y2="132.4766"/><rect fill="none" height="40.9766" rx="5" ry="5" style="stroke:#000000;stroke-width:1.5;" width="176" x="364.5" y="91.5"/><path d="M306,72 L319,72 C328.2943,72 337.9177,71.5397 347.5423,70.7623 " fill="none" style="stroke:#000000;stroke-width:1.0;stroke-dasharray:3.0,3.0;"/><path d="M347.8178,73.8474 L349.8562,70.5557 L347.2669,67.6772 L355.2552,70.0736 L347.8178,73.8474 " fill="#000000" style="stroke:#000000;stroke-width:1.0;"/><ellipse cx="306" cy="72" fill="#000000" rx="3" ry="3" style="stroke:#000000;stroke-width:1.0;"/><path d="M306,92 L319,92 C331.4922,92 344.5717,92.8735 357.4476,94.2554 " fill="none" style="stroke:#000000;stroke-width:1.0;stroke-dasharray:3.0,3.0;"/><path d="M357.0997,97.276 L359.713,94.5163 L357.7954,91.2347 L364.9991,95.125 L357.0997,97.276 " fill="#000000" style="stroke:#000000;stroke-width:1.0;"/><ellipse cx="306" cy="92" fill="#000000" rx="3" ry="3" style="stroke:#000000;stroke-width:1.0;"/><path d="M247,82 L260,82 C269.4213,82 279.9164,82 288.5483,82 " fill="none" style="stroke:#000000;stroke-width:1.0;stroke-dasharray:3.0,3.0;"/><path d="M288.5483,85.0437 L290.8311,82 L288.5483,78.9563 L296.1575,82 L288.5483,85.0437 " fill="#000000" style="stroke:#000000;stroke-width:1.0;"/><ellipse cx="247" cy="82" fill="#000000" rx="3" ry="3" style="stroke:#000000;stroke-width:1.0;"/><!--SRC=[VL1DQy904BtlhnXoKb1fWeha95LRi5gbVbnA3wkPX3NhRDZT14JyxnsZjZSl3_PzCM-7palh3ywGE0k0eB36czneJRAY88Q0J2TtdLGn55fIqBgw7c9ghDCoSyuhhT7wKu7svgZGkeEfJLLqetAJe5RE8vFVJ02SQxnBd4XK01m8Q_-Vi4ENMrMXTbZB9asHl5PPKBikhMTTqVEkWX_ItuiOVyH5396I-aF4aWVxpNm6rpNA48ITw2NgTdgDLKamboU8-X26STYBUmCOJLPhkEfDqNXVpi2PqkuH4fvirQxqND0KKrb9-2h9goF6i2YGfkEF1m4JgfGrTEHzOhgT_nlwtVQhyh12owV0TYx6cCfIUqxiJQ8eYs6pVciFn4nILigCkv74o72lFSNmkVW5]--></g></svg>