<svg xmlns="http://www.w3.org/2000/svg" xmlns:xlink="http://www.w3.org/1999/xlink" contentStyleType="text/css" data-diagram-type="JSON" height="144px" preserveAspectRatio="none" style="width:562px;height:144px;background:#FFFFFF;" version="1.1" viewBox="0 0 562 144" width="562px" zoomAndPan="magnify"><defs/><g><rect fill="#F1F1F1" height="81.9531" rx="5" ry="5" style="stroke:#F1F1F1;stroke-width:1.5;" width="248.2178" x="10" y="10"/><text fill="#000000" font-family="sans-serif" font-size="14" font-weight="bold" lengthAdjust="spacing" textLength="101.0283" x="15" y="25.5352">protokollnavn</text><text fill="#000000" font-family="sans-serif" font-size="14" lengthAdjust="spacing" textLength="99.6885" x="126.0283" y="25.5352">no.ks.fiks.plan</text><line style="stroke:#000000;stroke-width:1;" x1="121.0283" x2="121.0283" y1="10" y2="30.4883"/><line style="stroke:#000000;stroke-width:1;" x1="10" x2="258.2178" y1="30.4883" y2="30.4883"/><text fill="#000000" font-family="sans-serif" font-size="14" font-weight="bold" lengthAdjust="spacing" textLength="34.9248" x="15" y="46.0234">navn</text><text fill="#000000" font-family="sans-serif" font-size="14" lengthAdjust="spacing" textLength="127.1895" x="126.0283" y="46.0234">forslagsstillertyper</text><line style="stroke:#000000;stroke-width:1;" x1="121.0283" x2="121.0283" y1="30.4883" y2="50.9766"/><line style="stroke:#000000;stroke-width:1;" x1="10" x2="258.2178" y1="50.9766" y2="50.9766"/><text fill="#000000" font-family="sans-serif" font-size="14" font-weight="bold" lengthAdjust="spacing" textLength="53.5869" x="15" y="66.5117">versjon</text><text fill="#000000" font-family="sans-serif" font-size="14" lengthAdjust="spacing" textLength="16.0986" x="126.0283" y="66.5117">v2</text><line style="stroke:#000000;stroke-width:1;" x1="121.0283" x2="121.0283" y1="50.9766" y2="71.4648"/><line style="stroke:#000000;stroke-width:1;" x1="10" x2="258.2178" y1="71.4648" y2="71.4648"/><text fill="#000000" font-family="sans-serif" font-size="14" font-weight="bold" lengthAdjust="spacing" textLength="66.1787" x="15" y="87">kodeliste</text><text fill="#000000" font-family="sans-serif" font-size="14" lengthAdjust="spacing" textLength="13.2891" x="126.0283" y="87">&#160;&#160;&#160;</text><line style="stroke:#000000;stroke-width:1;" x1="121.0283" x2="121.0283" y1="71.4648" y2="91.9531"/><rect fill="none" height="81.9531" rx="5" ry="5" style="stroke:#000000;stroke-width:1.5;" width="248.2178" x="10" y="10"/><rect fill="#F1F1F1" height="40.9766" rx="5" ry="5" style="stroke:#F1F1F1;stroke-width:1.5;" width="23.2891" x="295" y="61.5"/><text fill="#000000" font-family="sans-serif" font-size="14" lengthAdjust="spacing" textLength="13.2891" x="300" y="77.0352">&#160;&#160;&#160;</text><line style="stroke:#000000;stroke-width:1;" x1="295" x2="318.2891" y1="81.9883" y2="81.9883"/><text fill="#000000" font-family="sans-serif" font-size="14" lengthAdjust="spacing" textLength="13.2891" x="300" y="97.5234">&#160;&#160;&#160;</text><rect fill="none" height="40.9766" rx="5" ry="5" style="stroke:#000000;stroke-width:1.5;" width="23.2891" x="295" y="61.5"/><rect fill="#F1F1F1" height="40.9766" rx="5" ry="5" style="stroke:#F1F1F1;stroke-width:1.5;" width="195.0752" x="355" y="32.5"/><text fill="#000000" font-family="sans-serif" font-size="14" font-weight="bold" lengthAdjust="spacing" textLength="71.9824" x="360" y="48.0352">kodeverdi</text><text fill="#000000" font-family="sans-serif" font-size="14" lengthAdjust="spacing" textLength="8.8525" x="487.6328" y="48.0352">1</text><line style="stroke:#000000;stroke-width:1;" x1="482.6328" x2="482.6328" y1="32.5" y2="52.9883"/><line style="stroke:#000000;stroke-width:1;" x1="355" x2="550.0752" y1="52.9883" y2="52.9883"/><text fill="#000000" font-family="sans-serif" font-size="14" font-weight="bold" lengthAdjust="spacing" textLength="117.6328" x="360" y="68.5234">kodebeskrivelse</text><text fill="#000000" font-family="sans-serif" font-size="14" lengthAdjust="spacing" textLength="57.4424" x="487.6328" y="68.5234">offentlig</text><line style="stroke:#000000;stroke-width:1;" x1="482.6328" x2="482.6328" y1="52.9883" y2="73.4766"/><rect fill="none" height="40.9766" rx="5" ry="5" style="stroke:#000000;stroke-width:1.5;" width="195.0752" x="355" y="32.5"/><rect fill="#F1F1F1" height="40.9766" rx="5" ry="5" style="stroke:#F1F1F1;stroke-width:1.5;" width="176.4336" x="364.5" y="91.5"/><text fill="#000000" font-family="sans-serif" font-size="14" font-weight="bold" lengthAdjust="spacing" textLength="71.9824" x="369.5" y="107.0352">kodeverdi</text><text fill="#000000" font-family="sans-serif" font-size="14" lengthAdjust="spacing" textLength="8.8525" x="497.1328" y="107.0352">2</text><line style="stroke:#000000;stroke-width:1;" x1="492.1328" x2="492.1328" y1="91.5" y2="111.9883"/><line style="stroke:#000000;stroke-width:1;" x1="364.5" x2="540.9336" y1="111.9883" y2="111.9883"/><text fill="#000000" font-family="sans-serif" font-size="14" font-weight="bold" lengthAdjust="spacing" textLength="117.6328" x="369.5" y="127.5234">kodebeskrivelse</text><text fill="#000000" font-family="sans-serif" font-size="14" lengthAdjust="spacing" textLength="38.8008" x="497.1328" y="127.5234">privat</text><line style="stroke:#000000;stroke-width:1;" x1="492.1328" x2="492.1328" y1="111.9883" y2="132.4766"/><rect fill="none" height="40.9766" rx="5" ry="5" style="stroke:#000000;stroke-width:1.5;" width="176.4336" x="364.5" y="91.5"/><path d="M306,72 L319,72 C328.2943,72 337.9177,71.5397 347.5423,70.7623" fill="none" style="stroke:#000000;stroke-width:1;stroke-dasharray:3.0,3.0;"/><path d="M347.8178,73.8474 L349.8562,70.5557 L347.2669,67.6772 L355.2552,70.0736 L347.8178,73.8474" fill="#000000" style="stroke:#000000;stroke-width:1;"/><ellipse cx="306" cy="72" fill="#000000" rx="3" ry="3" style="stroke:#000000;stroke-width:1;"/><path d="M306,92 L319,92 C331.4922,92 344.5717,92.8735 357.4476,94.2554" fill="none" style="stroke:#000000;stroke-width:1;stroke-dasharray:3.0,3.0;"/><path d="M357.0997,97.276 L359.713,94.5163 L357.7954,91.2347 L364.9991,95.125 L357.0997,97.276" fill="#000000" style="stroke:#000000;stroke-width:1;"/><ellipse cx="306" cy="92" fill="#000000" rx="3" ry="3" style="stroke:#000000;stroke-width:1;"/><path d="M245.5,82 L258.5,82 C268.2232,82 279.0659,82 287.9344,82" fill="none" style="stroke:#000000;stroke-width:1;stroke-dasharray:3.0,3.0;"/><path d="M287.9344,85.0003 L290.1846,82 L287.9344,78.9997 L295.4351,82 L287.9344,85.0003" fill="#000000" style="stroke:#000000;stroke-width:1;"/><ellipse cx="245.5" cy="82" fill="#000000" rx="3" ry="3" style="stroke:#000000;stroke-width:1;"/><!--SRC=[VL1DQy904BtlhnXoKb3HMAta95LRi5gbLI-bXzLCmffrDknk0YB-zuvHsvkN1_k-cBT3vwNrUsT8d0H0a5lZJMQq9bbI4450ffMvLg8OSYqfQ5nSTp4nrccPEkULrcZzCKTxTPHetTvKfZAyKfc9KIldaSbl9W1E5TuaJiGg00vqAl-Vi4MNMLMYTbZ99acGl5PfKBdEZKTTuUEkd1_ItueOVyHP397YwaF4aWVxzNm6bpNA47HQOJlijSBQga2OIeBsCtG6KRSNTVimcgpW8jT5xMqv0sSAkqE8UR5Lsy9plYwcifJmMP1N1unWaIDDn-zt0YPKAclemFF4T3F_D_IVcY_AmnTQlWGsSp76H1RQSs9dOaLf1ElLQtCWPfBIGgRSZIH6XdljCOAFnIy0]--></g></svg>