<svg xmlns="http://www.w3.org/2000/svg" xmlns:xlink="http://www.w3.org/1999/xlink" contentStyleType="text/css" height="1183px" preserveAspectRatio="none" style="width:675px;height:1183px;background:#FFFFFF;" version="1.1" viewBox="0 0 675 1183" width="675px" zoomAndPan="magnify"><defs/><g><rect fill="#F1F1F1" height="61.4648" rx="5" ry="5" style="stroke:#F1F1F1;stroke-width:1.5;" width="220" x="10" y="539.7676"/><text fill="#000000" font-family="sans-serif" font-size="14" font-weight="bold" lengthAdjust="spacing" textLength="101" x="15" y="555.3027">protokollnavn</text><text fill="#000000" font-family="sans-serif" font-size="14" lengthAdjust="spacing" textLength="99" x="126" y="555.3027">no.ks.fiks.plan</text><line style="stroke:#000000;stroke-width:1.0;" x1="121" x2="121" y1="539.7676" y2="560.2559"/><line style="stroke:#000000;stroke-width:1.0;" x1="10" x2="230" y1="560.2559" y2="560.2559"/><text fill="#000000" font-family="sans-serif" font-size="14" font-weight="bold" lengthAdjust="spacing" textLength="53" x="15" y="575.791">versjon</text><text fill="#000000" font-family="sans-serif" font-size="14" lengthAdjust="spacing" textLength="16" x="126" y="575.791">v2</text><line style="stroke:#000000;stroke-width:1.0;" x1="121" x2="121" y1="560.2559" y2="580.7441"/><line style="stroke:#000000;stroke-width:1.0;" x1="10" x2="230" y1="580.7441" y2="580.7441"/><text fill="#000000" font-family="sans-serif" font-size="14" font-weight="bold" lengthAdjust="spacing" textLength="67" x="15" y="596.2793">kodeliste</text><text fill="#000000" font-family="sans-serif" font-size="14" lengthAdjust="spacing" textLength="12" x="126" y="596.2793">&#160;&#160;&#160;</text><line style="stroke:#000000;stroke-width:1.0;" x1="121" x2="121" y1="580.7441" y2="601.2324"/><rect fill="none" height="61.4648" rx="5" ry="5" style="stroke:#000000;stroke-width:1.5;" width="220" x="10" y="539.7676"/><rect fill="#F1F1F1" height="409.7656" rx="5" ry="5" style="stroke:#F1F1F1;stroke-width:1.5;" width="22" x="267" y="385.5"/><text fill="#000000" font-family="sans-serif" font-size="14" lengthAdjust="spacing" textLength="12" x="272" y="401.0352">&#160;&#160;&#160;</text><line style="stroke:#000000;stroke-width:1.0;" x1="267" x2="289" y1="405.9883" y2="405.9883"/><text fill="#000000" font-family="sans-serif" font-size="14" lengthAdjust="spacing" textLength="12" x="272" y="421.5234">&#160;&#160;&#160;</text><line style="stroke:#000000;stroke-width:1.0;" x1="267" x2="289" y1="426.4766" y2="426.4766"/><text fill="#000000" font-family="sans-serif" font-size="14" lengthAdjust="spacing" textLength="12" x="272" y="442.0117">&#160;&#160;&#160;</text><line style="stroke:#000000;stroke-width:1.0;" x1="267" x2="289" y1="446.9648" y2="446.9648"/><text fill="#000000" font-family="sans-serif" font-size="14" lengthAdjust="spacing" textLength="12" x="272" y="462.5">&#160;&#160;&#160;</text><line style="stroke:#000000;stroke-width:1.0;" x1="267" x2="289" y1="467.4531" y2="467.4531"/><text fill="#000000" font-family="sans-serif" font-size="14" lengthAdjust="spacing" textLength="12" x="272" y="482.9883">&#160;&#160;&#160;</text><line style="stroke:#000000;stroke-width:1.0;" x1="267" x2="289" y1="487.9414" y2="487.9414"/><text fill="#000000" font-family="sans-serif" font-size="14" lengthAdjust="spacing" textLength="12" x="272" y="503.4766">&#160;&#160;&#160;</text><line style="stroke:#000000;stroke-width:1.0;" x1="267" x2="289" y1="508.4297" y2="508.4297"/><text fill="#000000" font-family="sans-serif" font-size="14" lengthAdjust="spacing" textLength="12" x="272" y="523.9648">&#160;&#160;&#160;</text><line style="stroke:#000000;stroke-width:1.0;" x1="267" x2="289" y1="528.918" y2="528.918"/><text fill="#000000" font-family="sans-serif" font-size="14" lengthAdjust="spacing" textLength="12" x="272" y="544.4531">&#160;&#160;&#160;</text><line style="stroke:#000000;stroke-width:1.0;" x1="267" x2="289" y1="549.4063" y2="549.4063"/><text fill="#000000" font-family="sans-serif" font-size="14" lengthAdjust="spacing" textLength="12" x="272" y="564.9414">&#160;&#160;&#160;</text><line style="stroke:#000000;stroke-width:1.0;" x1="267" x2="289" y1="569.8945" y2="569.8945"/><text fill="#000000" font-family="sans-serif" font-size="14" lengthAdjust="spacing" textLength="12" x="272" y="585.4297">&#160;&#160;&#160;</text><line style="stroke:#000000;stroke-width:1.0;" x1="267" x2="289" y1="590.3828" y2="590.3828"/><text fill="#000000" font-family="sans-serif" font-size="14" lengthAdjust="spacing" textLength="12" x="272" y="605.918">&#160;&#160;&#160;</text><line style="stroke:#000000;stroke-width:1.0;" x1="267" x2="289" y1="610.8711" y2="610.8711"/><text fill="#000000" font-family="sans-serif" font-size="14" lengthAdjust="spacing" textLength="12" x="272" y="626.4063">&#160;&#160;&#160;</text><line style="stroke:#000000;stroke-width:1.0;" x1="267" x2="289" y1="631.3594" y2="631.3594"/><text fill="#000000" font-family="sans-serif" font-size="14" lengthAdjust="spacing" textLength="12" x="272" y="646.8945">&#160;&#160;&#160;</text><line style="stroke:#000000;stroke-width:1.0;" x1="267" x2="289" y1="651.8477" y2="651.8477"/><text fill="#000000" font-family="sans-serif" font-size="14" lengthAdjust="spacing" textLength="12" x="272" y="667.3828">&#160;&#160;&#160;</text><line style="stroke:#000000;stroke-width:1.0;" x1="267" x2="289" y1="672.3359" y2="672.3359"/><text fill="#000000" font-family="sans-serif" font-size="14" lengthAdjust="spacing" textLength="12" x="272" y="687.8711">&#160;&#160;&#160;</text><line style="stroke:#000000;stroke-width:1.0;" x1="267" x2="289" y1="692.8242" y2="692.8242"/><text fill="#000000" font-family="sans-serif" font-size="14" lengthAdjust="spacing" textLength="12" x="272" y="708.3594">&#160;&#160;&#160;</text><line style="stroke:#000000;stroke-width:1.0;" x1="267" x2="289" y1="713.3125" y2="713.3125"/><text fill="#000000" font-family="sans-serif" font-size="14" lengthAdjust="spacing" textLength="12" x="272" y="728.8477">&#160;&#160;&#160;</text><line style="stroke:#000000;stroke-width:1.0;" x1="267" x2="289" y1="733.8008" y2="733.8008"/><text fill="#000000" font-family="sans-serif" font-size="14" lengthAdjust="spacing" textLength="12" x="272" y="749.3359">&#160;&#160;&#160;</text><line style="stroke:#000000;stroke-width:1.0;" x1="267" x2="289" y1="754.2891" y2="754.2891"/><text fill="#000000" font-family="sans-serif" font-size="14" lengthAdjust="spacing" textLength="12" x="272" y="769.8242">&#160;&#160;&#160;</text><line style="stroke:#000000;stroke-width:1.0;" x1="267" x2="289" y1="774.7773" y2="774.7773"/><text fill="#000000" font-family="sans-serif" font-size="14" lengthAdjust="spacing" textLength="12" x="272" y="790.3125">&#160;&#160;&#160;</text><rect fill="none" height="409.7656" rx="5" ry="5" style="stroke:#000000;stroke-width:1.5;" width="22" x="267" y="385.5"/><rect fill="#F1F1F1" height="40.9766" rx="5" ry="5" style="stroke:#F1F1F1;stroke-width:1.5;" width="281" x="354" y="10"/><text fill="#000000" font-family="sans-serif" font-size="14" font-weight="bold" lengthAdjust="spacing" textLength="71" x="359" y="25.5352">kodeverdi</text><text fill="#000000" font-family="sans-serif" font-size="14" lengthAdjust="spacing" textLength="89" x="486" y="25.5352">GEOREFPLAN</text><line style="stroke:#000000;stroke-width:1.0;" x1="481" x2="481" y1="10" y2="30.4883"/><line style="stroke:#000000;stroke-width:1.0;" x1="354" x2="635" y1="30.4883" y2="30.4883"/><text fill="#000000" font-family="sans-serif" font-size="14" font-weight="bold" lengthAdjust="spacing" textLength="117" x="359" y="46.0234">kodebeskrivelse</text><text fill="#000000" font-family="sans-serif" font-size="14" lengthAdjust="spacing" textLength="144" x="486" y="46.0234">Georeferert planklart</text><line style="stroke:#000000;stroke-width:1.0;" x1="481" x2="481" y1="30.4883" y2="50.9766"/><rect fill="none" height="40.9766" rx="5" ry="5" style="stroke:#000000;stroke-width:1.5;" width="281" x="354" y="10"/><rect fill="#F1F1F1" height="40.9766" rx="5" ry="5" style="stroke:#F1F1F1;stroke-width:1.5;" width="213" x="388" y="69"/><text fill="#000000" font-family="sans-serif" font-size="14" font-weight="bold" lengthAdjust="spacing" textLength="71" x="393" y="84.5352">kodeverdi</text><text fill="#000000" font-family="sans-serif" font-size="14" lengthAdjust="spacing" textLength="45" x="520" y="84.5352">ILLUST</text><line style="stroke:#000000;stroke-width:1.0;" x1="515" x2="515" y1="69" y2="89.4883"/><line style="stroke:#000000;stroke-width:1.0;" x1="388" x2="601" y1="89.4883" y2="89.4883"/><text fill="#000000" font-family="sans-serif" font-size="14" font-weight="bold" lengthAdjust="spacing" textLength="117" x="393" y="105.0234">kodebeskrivelse</text><text fill="#000000" font-family="sans-serif" font-size="14" lengthAdjust="spacing" textLength="76" x="520" y="105.0234">Illustrasjon</text><line style="stroke:#000000;stroke-width:1.0;" x1="515" x2="515" y1="89.4883" y2="109.9766"/><rect fill="none" height="40.9766" rx="5" ry="5" style="stroke:#000000;stroke-width:1.5;" width="213" x="388" y="69"/><rect fill="#F1F1F1" height="40.9766" rx="5" ry="5" style="stroke:#F1F1F1;stroke-width:1.5;" width="214" x="387.5" y="128"/><text fill="#000000" font-family="sans-serif" font-size="14" font-weight="bold" lengthAdjust="spacing" textLength="71" x="392.5" y="143.5352">kodeverdi</text><text fill="#000000" font-family="sans-serif" font-size="14" lengthAdjust="spacing" textLength="77" x="519.5" y="143.5352">INNSIGELSE</text><line style="stroke:#000000;stroke-width:1.0;" x1="514.5" x2="514.5" y1="128" y2="148.4883"/><line style="stroke:#000000;stroke-width:1.0;" x1="387.5" x2="601.5" y1="148.4883" y2="148.4883"/><text fill="#000000" font-family="sans-serif" font-size="14" font-weight="bold" lengthAdjust="spacing" textLength="117" x="392.5" y="164.0234">kodebeskrivelse</text><text fill="#000000" font-family="sans-serif" font-size="14" lengthAdjust="spacing" textLength="69" x="519.5" y="164.0234">Innsigelse</text><line style="stroke:#000000;stroke-width:1.0;" x1="514.5" x2="514.5" y1="148.4883" y2="168.9766"/><rect fill="none" height="40.9766" rx="5" ry="5" style="stroke:#000000;stroke-width:1.5;" width="214" x="387.5" y="128"/><rect fill="#F1F1F1" height="40.9766" rx="5" ry="5" style="stroke:#F1F1F1;stroke-width:1.5;" width="337" x="326" y="187"/><text fill="#000000" font-family="sans-serif" font-size="14" font-weight="bold" lengthAdjust="spacing" textLength="71" x="331" y="202.5352">kodeverdi</text><text fill="#000000" font-family="sans-serif" font-size="14" lengthAdjust="spacing" textLength="68" x="458" y="202.5352">JURILLUST</text><line style="stroke:#000000;stroke-width:1.0;" x1="453" x2="453" y1="187" y2="207.4883"/><line style="stroke:#000000;stroke-width:1.0;" x1="326" x2="663" y1="207.4883" y2="207.4883"/><text fill="#000000" font-family="sans-serif" font-size="14" font-weight="bold" lengthAdjust="spacing" textLength="117" x="331" y="223.0234">kodebeskrivelse</text><text fill="#000000" font-family="sans-serif" font-size="14" lengthAdjust="spacing" textLength="200" x="458" y="223.0234">Juridisk bindende illustrasjon</text><line style="stroke:#000000;stroke-width:1.0;" x1="453" x2="453" y1="207.4883" y2="227.9766"/><rect fill="none" height="40.9766" rx="5" ry="5" style="stroke:#000000;stroke-width:1.5;" width="337" x="326" y="187"/><rect fill="#F1F1F1" height="40.9766" rx="5" ry="5" style="stroke:#F1F1F1;stroke-width:1.5;" width="174" x="407.5" y="246"/><text fill="#000000" font-family="sans-serif" font-size="14" font-weight="bold" lengthAdjust="spacing" textLength="71" x="412.5" y="261.5352">kodeverdi</text><text fill="#000000" font-family="sans-serif" font-size="14" lengthAdjust="spacing" textLength="37" x="539.5" y="261.5352">KART</text><line style="stroke:#000000;stroke-width:1.0;" x1="534.5" x2="534.5" y1="246" y2="266.4883"/><line style="stroke:#000000;stroke-width:1.0;" x1="407.5" x2="581.5" y1="266.4883" y2="266.4883"/><text fill="#000000" font-family="sans-serif" font-size="14" font-weight="bold" lengthAdjust="spacing" textLength="117" x="412.5" y="282.0234">kodebeskrivelse</text><text fill="#000000" font-family="sans-serif" font-size="14" lengthAdjust="spacing" textLength="28" x="539.5" y="282.0234">Kart</text><line style="stroke:#000000;stroke-width:1.0;" x1="534.5" x2="534.5" y1="266.4883" y2="286.9766"/><rect fill="none" height="40.9766" rx="5" ry="5" style="stroke:#000000;stroke-width:1.5;" width="174" x="407.5" y="246"/><rect fill="#F1F1F1" height="40.9766" rx="5" ry="5" style="stroke:#F1F1F1;stroke-width:1.5;" width="181" x="404" y="305"/><text fill="#000000" font-family="sans-serif" font-size="14" font-weight="bold" lengthAdjust="spacing" textLength="71" x="409" y="320.5352">kodeverdi</text><text fill="#000000" font-family="sans-serif" font-size="14" lengthAdjust="spacing" textLength="44" x="536" y="320.5352">KLAGE</text><line style="stroke:#000000;stroke-width:1.0;" x1="531" x2="531" y1="305" y2="325.4883"/><line style="stroke:#000000;stroke-width:1.0;" x1="404" x2="585" y1="325.4883" y2="325.4883"/><text fill="#000000" font-family="sans-serif" font-size="14" font-weight="bold" lengthAdjust="spacing" textLength="117" x="409" y="341.0234">kodebeskrivelse</text><text fill="#000000" font-family="sans-serif" font-size="14" lengthAdjust="spacing" textLength="38" x="536" y="341.0234">Klage</text><line style="stroke:#000000;stroke-width:1.0;" x1="531" x2="531" y1="325.4883" y2="345.9766"/><rect fill="none" height="40.9766" rx="5" ry="5" style="stroke:#000000;stroke-width:1.5;" width="181" x="404" y="305"/><rect fill="#F1F1F1" height="40.9766" rx="5" ry="5" style="stroke:#F1F1F1;stroke-width:1.5;" width="286" x="351.5" y="364"/><text fill="#000000" font-family="sans-serif" font-size="14" font-weight="bold" lengthAdjust="spacing" textLength="71" x="356.5" y="379.5352">kodeverdi</text><text fill="#000000" font-family="sans-serif" font-size="14" lengthAdjust="spacing" textLength="66" x="483.5" y="379.5352">KONSUTR</text><line style="stroke:#000000;stroke-width:1.0;" x1="478.5" x2="478.5" y1="364" y2="384.4883"/><line style="stroke:#000000;stroke-width:1.0;" x1="351.5" x2="637.5" y1="384.4883" y2="384.4883"/><text fill="#000000" font-family="sans-serif" font-size="14" font-weight="bold" lengthAdjust="spacing" textLength="117" x="356.5" y="400.0234">kodebeskrivelse</text><text fill="#000000" font-family="sans-serif" font-size="14" lengthAdjust="spacing" textLength="149" x="483.5" y="400.0234">Konsekvensutredning</text><line style="stroke:#000000;stroke-width:1.0;" x1="478.5" x2="478.5" y1="384.4883" y2="404.9766"/><rect fill="none" height="40.9766" rx="5" ry="5" style="stroke:#000000;stroke-width:1.5;" width="286" x="351.5" y="364"/><rect fill="#F1F1F1" height="40.9766" rx="5" ry="5" style="stroke:#F1F1F1;stroke-width:1.5;" width="250" x="369.5" y="423"/><text fill="#000000" font-family="sans-serif" font-size="14" font-weight="bold" lengthAdjust="spacing" textLength="71" x="374.5" y="438.5352">kodeverdi</text><text fill="#000000" font-family="sans-serif" font-size="14" lengthAdjust="spacing" textLength="38" x="501.5" y="438.5352">KORR</text><line style="stroke:#000000;stroke-width:1.0;" x1="496.5" x2="496.5" y1="423" y2="443.4883"/><line style="stroke:#000000;stroke-width:1.0;" x1="369.5" x2="619.5" y1="443.4883" y2="443.4883"/><text fill="#000000" font-family="sans-serif" font-size="14" font-weight="bold" lengthAdjust="spacing" textLength="117" x="374.5" y="459.0234">kodebeskrivelse</text><text fill="#000000" font-family="sans-serif" font-size="14" lengthAdjust="spacing" textLength="113" x="501.5" y="459.0234">Korrespondanse</text><line style="stroke:#000000;stroke-width:1.0;" x1="496.5" x2="496.5" y1="443.4883" y2="463.9766"/><rect fill="none" height="40.9766" rx="5" ry="5" style="stroke:#000000;stroke-width:1.5;" width="250" x="369.5" y="423"/><rect fill="#F1F1F1" height="40.9766" rx="5" ry="5" style="stroke:#F1F1F1;stroke-width:1.5;" width="223" x="383" y="482"/><text fill="#000000" font-family="sans-serif" font-size="14" font-weight="bold" lengthAdjust="spacing" textLength="71" x="388" y="497.5352">kodeverdi</text><text fill="#000000" font-family="sans-serif" font-size="14" lengthAdjust="spacing" textLength="53" x="515" y="497.5352">KUNNGJ</text><line style="stroke:#000000;stroke-width:1.0;" x1="510" x2="510" y1="482" y2="502.4883"/><line style="stroke:#000000;stroke-width:1.0;" x1="383" x2="606" y1="502.4883" y2="502.4883"/><text fill="#000000" font-family="sans-serif" font-size="14" font-weight="bold" lengthAdjust="spacing" textLength="117" x="388" y="518.0234">kodebeskrivelse</text><text fill="#000000" font-family="sans-serif" font-size="14" lengthAdjust="spacing" textLength="86" x="515" y="518.0234">Kunngj&#248;ring</text><line style="stroke:#000000;stroke-width:1.0;" x1="510" x2="510" y1="502.4883" y2="522.9766"/><rect fill="none" height="40.9766" rx="5" ry="5" style="stroke:#000000;stroke-width:1.5;" width="223" x="383" y="482"/><rect fill="#F1F1F1" height="40.9766" rx="5" ry="5" style="stroke:#F1F1F1;stroke-width:1.5;" width="242" x="373.5" y="541"/><text fill="#000000" font-family="sans-serif" font-size="14" font-weight="bold" lengthAdjust="spacing" textLength="71" x="378.5" y="556.5352">kodeverdi</text><text fill="#000000" font-family="sans-serif" font-size="14" lengthAdjust="spacing" textLength="77" x="505.5" y="556.5352">PLANBESKR</text><line style="stroke:#000000;stroke-width:1.0;" x1="500.5" x2="500.5" y1="541" y2="561.4883"/><line style="stroke:#000000;stroke-width:1.0;" x1="373.5" x2="615.5" y1="561.4883" y2="561.4883"/><text fill="#000000" font-family="sans-serif" font-size="14" font-weight="bold" lengthAdjust="spacing" textLength="117" x="378.5" y="577.0234">kodebeskrivelse</text><text fill="#000000" font-family="sans-serif" font-size="14" lengthAdjust="spacing" textLength="105" x="505.5" y="577.0234">Planbeskrivelse</text><line style="stroke:#000000;stroke-width:1.0;" x1="500.5" x2="500.5" y1="561.4883" y2="581.9766"/><rect fill="none" height="40.9766" rx="5" ry="5" style="stroke:#000000;stroke-width:1.5;" width="242" x="373.5" y="541"/><rect fill="#F1F1F1" height="40.9766" rx="5" ry="5" style="stroke:#F1F1F1;stroke-width:1.5;" width="262" x="363.5" y="600"/><text fill="#000000" font-family="sans-serif" font-size="14" font-weight="bold" lengthAdjust="spacing" textLength="71" x="368.5" y="615.5352">kodeverdi</text><text fill="#000000" font-family="sans-serif" font-size="14" lengthAdjust="spacing" textLength="68" x="495.5" y="615.5352">PLANBEST</text><line style="stroke:#000000;stroke-width:1.0;" x1="490.5" x2="490.5" y1="600" y2="620.4883"/><line style="stroke:#000000;stroke-width:1.0;" x1="363.5" x2="625.5" y1="620.4883" y2="620.4883"/><text fill="#000000" font-family="sans-serif" font-size="14" font-weight="bold" lengthAdjust="spacing" textLength="117" x="368.5" y="636.0234">kodebeskrivelse</text><text fill="#000000" font-family="sans-serif" font-size="14" lengthAdjust="spacing" textLength="125" x="495.5" y="636.0234">Planbestemmelser</text><line style="stroke:#000000;stroke-width:1.0;" x1="490.5" x2="490.5" y1="620.4883" y2="640.9766"/><rect fill="none" height="40.9766" rx="5" ry="5" style="stroke:#000000;stroke-width:1.5;" width="262" x="363.5" y="600"/><rect fill="#F1F1F1" height="40.9766" rx="5" ry="5" style="stroke:#F1F1F1;stroke-width:1.5;" width="209" x="390" y="659"/><text fill="#000000" font-family="sans-serif" font-size="14" font-weight="bold" lengthAdjust="spacing" textLength="71" x="395" y="674.5352">kodeverdi</text><text fill="#000000" font-family="sans-serif" font-size="14" lengthAdjust="spacing" textLength="72" x="522" y="674.5352">PLANKART</text><line style="stroke:#000000;stroke-width:1.0;" x1="517" x2="517" y1="659" y2="679.4883"/><line style="stroke:#000000;stroke-width:1.0;" x1="390" x2="599" y1="679.4883" y2="679.4883"/><text fill="#000000" font-family="sans-serif" font-size="14" font-weight="bold" lengthAdjust="spacing" textLength="117" x="395" y="695.0234">kodebeskrivelse</text><text fill="#000000" font-family="sans-serif" font-size="14" lengthAdjust="spacing" textLength="56" x="522" y="695.0234">Plankart</text><line style="stroke:#000000;stroke-width:1.0;" x1="517" x2="517" y1="679.4883" y2="699.9766"/><rect fill="none" height="40.9766" rx="5" ry="5" style="stroke:#000000;stroke-width:1.5;" width="209" x="390" y="659"/><rect fill="#F1F1F1" height="40.9766" rx="5" ry="5" style="stroke:#F1F1F1;stroke-width:1.5;" width="226" x="381.5" y="718"/><text fill="#000000" font-family="sans-serif" font-size="14" font-weight="bold" lengthAdjust="spacing" textLength="71" x="386.5" y="733.5352">kodeverdi</text><text fill="#000000" font-family="sans-serif" font-size="14" lengthAdjust="spacing" textLength="73" x="513.5" y="733.5352">PLANPROG</text><line style="stroke:#000000;stroke-width:1.0;" x1="508.5" x2="508.5" y1="718" y2="738.4883"/><line style="stroke:#000000;stroke-width:1.0;" x1="381.5" x2="607.5" y1="738.4883" y2="738.4883"/><text fill="#000000" font-family="sans-serif" font-size="14" font-weight="bold" lengthAdjust="spacing" textLength="117" x="386.5" y="754.0234">kodebeskrivelse</text><text fill="#000000" font-family="sans-serif" font-size="14" lengthAdjust="spacing" textLength="89" x="513.5" y="754.0234">Planprogram</text><line style="stroke:#000000;stroke-width:1.0;" x1="508.5" x2="508.5" y1="738.4883" y2="758.9766"/><rect fill="none" height="40.9766" rx="5" ry="5" style="stroke:#000000;stroke-width:1.5;" width="226" x="381.5" y="718"/><rect fill="#F1F1F1" height="40.9766" rx="5" ry="5" style="stroke:#F1F1F1;stroke-width:1.5;" width="201" x="394" y="777"/><text fill="#000000" font-family="sans-serif" font-size="14" font-weight="bold" lengthAdjust="spacing" textLength="71" x="399" y="792.5352">kodeverdi</text><text fill="#000000" font-family="sans-serif" font-size="14" lengthAdjust="spacing" textLength="64" x="526" y="792.5352">RAPPORT</text><line style="stroke:#000000;stroke-width:1.0;" x1="521" x2="521" y1="777" y2="797.4883"/><line style="stroke:#000000;stroke-width:1.0;" x1="394" x2="595" y1="797.4883" y2="797.4883"/><text fill="#000000" font-family="sans-serif" font-size="14" font-weight="bold" lengthAdjust="spacing" textLength="117" x="399" y="813.0234">kodebeskrivelse</text><text fill="#000000" font-family="sans-serif" font-size="14" lengthAdjust="spacing" textLength="55" x="526" y="813.0234">Rapport</text><line style="stroke:#000000;stroke-width:1.0;" x1="521" x2="521" y1="797.4883" y2="817.9766"/><rect fill="none" height="40.9766" rx="5" ry="5" style="stroke:#000000;stroke-width:1.5;" width="201" x="394" y="777"/><rect fill="#F1F1F1" height="40.9766" rx="5" ry="5" style="stroke:#F1F1F1;stroke-width:1.5;" width="235" x="377" y="836"/><text fill="#000000" font-family="sans-serif" font-size="14" font-weight="bold" lengthAdjust="spacing" textLength="71" x="382" y="851.5352">kodeverdi</text><text fill="#000000" font-family="sans-serif" font-size="14" lengthAdjust="spacing" textLength="98" x="509" y="851.5352">ROS-ANALYSE</text><line style="stroke:#000000;stroke-width:1.0;" x1="504" x2="504" y1="836" y2="856.4883"/><line style="stroke:#000000;stroke-width:1.0;" x1="377" x2="612" y1="856.4883" y2="856.4883"/><text fill="#000000" font-family="sans-serif" font-size="14" font-weight="bold" lengthAdjust="spacing" textLength="117" x="382" y="872.0234">kodebeskrivelse</text><text fill="#000000" font-family="sans-serif" font-size="14" lengthAdjust="spacing" textLength="86" x="509" y="872.0234">Ros-Analyse</text><line style="stroke:#000000;stroke-width:1.0;" x1="504" x2="504" y1="856.4883" y2="876.9766"/><rect fill="none" height="40.9766" rx="5" ry="5" style="stroke:#000000;stroke-width:1.5;" width="235" x="377" y="836"/><rect fill="#F1F1F1" height="40.9766" rx="5" ry="5" style="stroke:#F1F1F1;stroke-width:1.5;" width="246" x="371.5" y="895"/><text fill="#000000" font-family="sans-serif" font-size="14" font-weight="bold" lengthAdjust="spacing" textLength="71" x="376.5" y="910.5352">kodeverdi</text><text fill="#000000" font-family="sans-serif" font-size="14" lengthAdjust="spacing" textLength="109" x="503.5" y="910.5352">SAKSFRAMLEGG</text><line style="stroke:#000000;stroke-width:1.0;" x1="498.5" x2="498.5" y1="895" y2="915.4883"/><line style="stroke:#000000;stroke-width:1.0;" x1="371.5" x2="617.5" y1="915.4883" y2="915.4883"/><text fill="#000000" font-family="sans-serif" font-size="14" font-weight="bold" lengthAdjust="spacing" textLength="117" x="376.5" y="931.0234">kodebeskrivelse</text><text fill="#000000" font-family="sans-serif" font-size="14" lengthAdjust="spacing" textLength="93" x="503.5" y="931.0234">Saksframlegg</text><line style="stroke:#000000;stroke-width:1.0;" x1="498.5" x2="498.5" y1="915.4883" y2="935.9766"/><rect fill="none" height="40.9766" rx="5" ry="5" style="stroke:#000000;stroke-width:1.5;" width="246" x="371.5" y="895"/><rect fill="#F1F1F1" height="40.9766" rx="5" ry="5" style="stroke:#F1F1F1;stroke-width:1.5;" width="240" x="374.5" y="954"/><text fill="#000000" font-family="sans-serif" font-size="14" font-weight="bold" lengthAdjust="spacing" textLength="71" x="379.5" y="969.5352">kodeverdi</text><text fill="#000000" font-family="sans-serif" font-size="14" lengthAdjust="spacing" textLength="61" x="506.5" y="969.5352">TEGNFKL</text><line style="stroke:#000000;stroke-width:1.0;" x1="501.5" x2="501.5" y1="954" y2="974.4883"/><line style="stroke:#000000;stroke-width:1.0;" x1="374.5" x2="614.5" y1="974.4883" y2="974.4883"/><text fill="#000000" font-family="sans-serif" font-size="14" font-weight="bold" lengthAdjust="spacing" textLength="117" x="379.5" y="990.0234">kodebeskrivelse</text><text fill="#000000" font-family="sans-serif" font-size="14" lengthAdjust="spacing" textLength="103" x="506.5" y="990.0234">Tegnforklaring</text><line style="stroke:#000000;stroke-width:1.0;" x1="501.5" x2="501.5" y1="974.4883" y2="994.9766"/><rect fill="none" height="40.9766" rx="5" ry="5" style="stroke:#000000;stroke-width:1.5;" width="240" x="374.5" y="954"/><rect fill="#F1F1F1" height="40.9766" rx="5" ry="5" style="stroke:#F1F1F1;stroke-width:1.5;" width="217" x="386" y="1013"/><text fill="#000000" font-family="sans-serif" font-size="14" font-weight="bold" lengthAdjust="spacing" textLength="71" x="391" y="1028.5352">kodeverdi</text><text fill="#000000" font-family="sans-serif" font-size="14" lengthAdjust="spacing" textLength="80" x="518" y="1028.5352">UTREDNING</text><line style="stroke:#000000;stroke-width:1.0;" x1="513" x2="513" y1="1013" y2="1033.4883"/><line style="stroke:#000000;stroke-width:1.0;" x1="386" x2="603" y1="1033.4883" y2="1033.4883"/><text fill="#000000" font-family="sans-serif" font-size="14" font-weight="bold" lengthAdjust="spacing" textLength="117" x="391" y="1049.0234">kodebeskrivelse</text><text fill="#000000" font-family="sans-serif" font-size="14" lengthAdjust="spacing" textLength="69" x="518" y="1049.0234">Utredning</text><line style="stroke:#000000;stroke-width:1.0;" x1="513" x2="513" y1="1033.4883" y2="1053.9766"/><rect fill="none" height="40.9766" rx="5" ry="5" style="stroke:#000000;stroke-width:1.5;" width="217" x="386" y="1013"/><rect fill="#F1F1F1" height="40.9766" rx="5" ry="5" style="stroke:#F1F1F1;stroke-width:1.5;" width="213" x="388" y="1072"/><text fill="#000000" font-family="sans-serif" font-size="14" font-weight="bold" lengthAdjust="spacing" textLength="71" x="393" y="1087.5352">kodeverdi</text><text fill="#000000" font-family="sans-serif" font-size="14" lengthAdjust="spacing" textLength="76" x="520" y="1087.5352">UTTALELSE</text><line style="stroke:#000000;stroke-width:1.0;" x1="515" x2="515" y1="1072" y2="1092.4883"/><line style="stroke:#000000;stroke-width:1.0;" x1="388" x2="601" y1="1092.4883" y2="1092.4883"/><text fill="#000000" font-family="sans-serif" font-size="14" font-weight="bold" lengthAdjust="spacing" textLength="117" x="393" y="1108.0234">kodebeskrivelse</text><text fill="#000000" font-family="sans-serif" font-size="14" lengthAdjust="spacing" textLength="59" x="520" y="1108.0234">Uttalelse</text><line style="stroke:#000000;stroke-width:1.0;" x1="515" x2="515" y1="1092.4883" y2="1112.9766"/><rect fill="none" height="40.9766" rx="5" ry="5" style="stroke:#000000;stroke-width:1.5;" width="213" x="388" y="1072"/><rect fill="#F1F1F1" height="40.9766" rx="5" ry="5" style="stroke:#F1F1F1;stroke-width:1.5;" width="192" x="398.5" y="1131"/><text fill="#000000" font-family="sans-serif" font-size="14" font-weight="bold" lengthAdjust="spacing" textLength="71" x="403.5" y="1146.5352">kodeverdi</text><text fill="#000000" font-family="sans-serif" font-size="14" lengthAdjust="spacing" textLength="55" x="530.5" y="1146.5352">VEDTAK</text><line style="stroke:#000000;stroke-width:1.0;" x1="525.5" x2="525.5" y1="1131" y2="1151.4883"/><line style="stroke:#000000;stroke-width:1.0;" x1="398.5" x2="590.5" y1="1151.4883" y2="1151.4883"/><text fill="#000000" font-family="sans-serif" font-size="14" font-weight="bold" lengthAdjust="spacing" textLength="117" x="403.5" y="1167.0234">kodebeskrivelse</text><text fill="#000000" font-family="sans-serif" font-size="14" lengthAdjust="spacing" textLength="47" x="530.5" y="1167.0234">Vedtak</text><line style="stroke:#000000;stroke-width:1.0;" x1="525.5" x2="525.5" y1="1151.4883" y2="1171.9766"/><rect fill="none" height="40.9766" rx="5" ry="5" style="stroke:#000000;stroke-width:1.5;" width="192" x="398.5" y="1131"/><path d="M278.5,397.5 L278.5,384.5 C278.5,348.0052 300.5294,85.6365 326,59.5 C332.3747,52.9587 339.6537,47.573 347.5264,43.1593 " fill="none" style="stroke:#000000;stroke-width:1.0;stroke-dasharray:3.0,3.0;"/><path d="M348.9195,45.8577 L349.5501,42.1145 L346.1332,40.461 L354.2722,39.6765 L348.9195,45.8577 " fill="#000000" style="stroke:#000000;stroke-width:1.0;"/><ellipse cx="278.5" cy="397.5" fill="#000000" rx="3" ry="3" style="stroke:#000000;stroke-width:1.0;"/><path d="M277,416.5 L290,416.5 C356.7037,416.5 280.0444,166.8473 326,118.5 C340.5928,103.1478 360.155,94.1126 380.7681,89.0623 " fill="none" style="stroke:#000000;stroke-width:1.0;stroke-dasharray:3.0,3.0;"/><path d="M381.4177,91.9937 L382.9666,88.5751 L380.1185,86.1309 L388.0966,87.4383 L381.4177,91.9937 " fill="#000000" style="stroke:#000000;stroke-width:1.0;"/><ellipse cx="277" cy="416.5" fill="#000000" rx="3" ry="3" style="stroke:#000000;stroke-width:1.0;"/><path d="M277,436.5 L290,436.5 C348.1089,436.5 285.5907,219.258 326,177.5 C340.5735,162.4401 359.937,153.4924 380.326,148.4278 " fill="none" style="stroke:#000000;stroke-width:1.0;stroke-dasharray:3.0,3.0;"/><path d="M381.0037,151.4483 L382.5913,147.9195 L379.6483,145.4073 L387.8772,146.7335 L381.0037,151.4483 " fill="#000000" style="stroke:#000000;stroke-width:1.0;"/><ellipse cx="277" cy="436.5" fill="#000000" rx="3" ry="3" style="stroke:#000000;stroke-width:1.0;"/><path d="M277,457.5 L290,457.5 C339.7584,457.5 290.9822,271.8505 326,236.5 C327.227,235.2613 328.4865,234.0643 329.7763,232.9077 " fill="none" style="stroke:#000000;stroke-width:1.0;stroke-dasharray:3.0,3.0;"/><path d="M331.7029,235.2449 L331.5293,231.4628 L327.8497,230.5705 L335.6194,228.0912 L331.7029,235.2449 " fill="#000000" style="stroke:#000000;stroke-width:1.0;"/><ellipse cx="277" cy="457.5" fill="#000000" rx="3" ry="3" style="stroke:#000000;stroke-width:1.0;"/><path d="M277,477.5 L290,477.5 C372.4561,477.5 266.9893,353.0912 326,295.5 C345.6523,276.3205 373.1256,267.2338 400.1699,263.4435 " fill="none" style="stroke:#000000;stroke-width:1.0;stroke-dasharray:3.0,3.0;"/><path d="M400.543,266.4874 L402.4528,263.1637 L399.7969,260.3996 L407.7796,262.5109 L400.543,266.4874 " fill="#000000" style="stroke:#000000;stroke-width:1.0;"/><ellipse cx="277" cy="477.5" fill="#000000" rx="3" ry="3" style="stroke:#000000;stroke-width:1.0;"/><path d="M277,498.5 L290,498.5 C355.9697,498.5 277.6578,399.3891 326,354.5 C345.1484,336.7194 371.0701,327.7536 396.8159,323.6374 " fill="none" style="stroke:#000000;stroke-width:1.0;stroke-dasharray:3.0,3.0;"/><path d="M397.2483,326.6824 L399.0997,323.3131 L396.3835,320.5924 L404.4284,322.5564 L397.2483,326.6824 " fill="#000000" style="stroke:#000000;stroke-width:1.0;"/><ellipse cx="277" cy="498.5" fill="#000000" rx="3" ry="3" style="stroke:#000000;stroke-width:1.0;"/><path d="M277,518.5 L290,518.5 C338.9131,518.5 288.8148,446.2767 326,414.5 C331.8281,409.5196 338.1944,405.2395 344.9304,401.569 " fill="none" style="stroke:#000000;stroke-width:1.0;stroke-dasharray:3.0,3.0;"/><path d="M346.3187,404.3102 L346.9864,400.5278 L343.5422,398.8277 L351.7836,398.0983 L346.3187,404.3102 " fill="#000000" style="stroke:#000000;stroke-width:1.0;"/><ellipse cx="277" cy="518.5" fill="#000000" rx="3" ry="3" style="stroke:#000000;stroke-width:1.0;"/><path d="M277,539.5 L290,539.5 C323.4132,539.5 298.8851,493.025 326,473.5 C337.0561,465.5387 349.5609,459.4695 362.6372,454.8696 " fill="none" style="stroke:#000000;stroke-width:1.0;stroke-dasharray:3.0,3.0;"/><path d="M363.6001,457.7967 L364.8326,454.1475 L361.6744,451.9424 L369.9551,452.4625 L363.6001,457.7967 " fill="#000000" style="stroke:#000000;stroke-width:1.0;"/><ellipse cx="277" cy="539.5" fill="#000000" rx="3" ry="3" style="stroke:#000000;stroke-width:1.0;"/><path d="M277,559.5 L290,559.5 C310,559.5 307.6584,540.4741 326,532.5 C341.6914,525.6781 358.8526,520.4073 376.022,516.3351 " fill="none" style="stroke:#000000;stroke-width:1.0;stroke-dasharray:3.0,3.0;"/><path d="M376.6912,519.2769 L378.2284,515.8332 L375.3529,513.3933 L383.3766,514.6622 L376.6912,519.2769 " fill="#000000" style="stroke:#000000;stroke-width:1.0;"/><ellipse cx="277" cy="559.5" fill="#000000" rx="3" ry="3" style="stroke:#000000;stroke-width:1.0;"/><path d="M277,580.5 L290,580.5 C314.66,580.5 340.9248,579.1065 366.1166,577.0744 " fill="none" style="stroke:#000000;stroke-width:1.0;stroke-dasharray:3.0,3.0;"/><path d="M366.3767,580.1867 L368.4508,576.8793 L365.8565,573.9621 L373.8973,576.424 L366.3767,580.1867 " fill="#000000" style="stroke:#000000;stroke-width:1.0;"/><ellipse cx="277" cy="580.5" fill="#000000" rx="3" ry="3" style="stroke:#000000;stroke-width:1.0;"/><path d="M277,600.5 L290,600.5 C311.5013,600.5 334.2168,601.6141 356.3757,603.3163 " fill="none" style="stroke:#000000;stroke-width:1.0;stroke-dasharray:3.0,3.0;"/><path d="M356.136,606.3127 L358.6229,603.496 L356.6153,600.32 L363.8665,603.9154 L356.136,606.3127 " fill="#000000" style="stroke:#000000;stroke-width:1.0;"/><ellipse cx="277" cy="600.5" fill="#000000" rx="3" ry="3" style="stroke:#000000;stroke-width:1.0;"/><path d="M277,621.5 L290,621.5 C310.5456,621.5 307.2781,642.0375 326,650.5 C343.6974,658.4995 363.3599,664.3034 382.8173,668.5117 " fill="none" style="stroke:#000000;stroke-width:1.0;stroke-dasharray:3.0,3.0;"/><path d="M382.2029,671.4888 L385.0502,668.9725 L383.4318,665.5347 L390.26,670.0477 L382.2029,671.4888 " fill="#000000" style="stroke:#000000;stroke-width:1.0;"/><ellipse cx="277" cy="621.5" fill="#000000" rx="3" ry="3" style="stroke:#000000;stroke-width:1.0;"/><path d="M277,641.5 L290,641.5 C324.1962,641.5 298.3165,689.4249 326,709.5 C340.2568,719.8385 356.9618,726.9378 374.2067,731.7451 " fill="none" style="stroke:#000000;stroke-width:1.0;stroke-dasharray:3.0,3.0;"/><path d="M373.4376,734.7124 L376.4322,732.322 L374.9758,728.7779 L381.6249,733.6679 L373.4376,734.7124 " fill="#000000" style="stroke:#000000;stroke-width:1.0;"/><ellipse cx="277" cy="641.5" fill="#000000" rx="3" ry="3" style="stroke:#000000;stroke-width:1.0;"/><path d="M277,662.5 L290,662.5 C339.754,662.5 288.1767,736.1758 326,768.5 C343.082,783.0985 364.8072,791.5889 386.9194,796.3101 " fill="none" style="stroke:#000000;stroke-width:1.0;stroke-dasharray:3.0,3.0;"/><path d="M386.3354,799.3131 L389.1717,796.7481 L387.5034,793.307 L394.427,797.77 L386.3354,799.3131 " fill="#000000" style="stroke:#000000;stroke-width:1.0;"/><ellipse cx="277" cy="662.5" fill="#000000" rx="3" ry="3" style="stroke:#000000;stroke-width:1.0;"/><path d="M277,682.5 L290,682.5 C356.401,682.5 277.3784,782.278 326,827.5 C338.4044,839.0371 353.6596,846.8649 369.8708,852.0655 " fill="none" style="stroke:#000000;stroke-width:1.0;stroke-dasharray:3.0,3.0;"/><path d="M368.9875,855.0691 L372.1235,852.728 L370.7542,849.0619 L377.3797,854.274 L368.9875,855.0691 " fill="#000000" style="stroke:#000000;stroke-width:1.0;"/><ellipse cx="277" cy="682.5" fill="#000000" rx="3" ry="3" style="stroke:#000000;stroke-width:1.0;"/><path d="M277,703.5 L290,703.5 C372.8922,703.5 266.7073,828.5734 326,886.5 C336.9165,897.165 350.251,904.7103 364.5866,909.9599 " fill="none" style="stroke:#000000;stroke-width:1.0;stroke-dasharray:3.0,3.0;"/><path d="M363.628,912.8046 L366.7201,910.6788 L365.5451,907.1153 L371.6982,912.3562 L363.628,912.8046 " fill="#000000" style="stroke:#000000;stroke-width:1.0;"/><ellipse cx="277" cy="703.5" fill="#000000" rx="3" ry="3" style="stroke:#000000;stroke-width:1.0;"/><path d="M277,723.5 L290,723.5 C339.9778,723.5 290.8406,909.9811 326,945.5 C337.5563,957.1745 351.9981,965.15 367.531,970.4817 " fill="none" style="stroke:#000000;stroke-width:1.0;stroke-dasharray:3.0,3.0;"/><path d="M366.624,973.3646 L369.6931,971.162 L368.4379,967.5989 L374.738,972.7492 L366.624,973.3646 " fill="#000000" style="stroke:#000000;stroke-width:1.0;"/><ellipse cx="277" cy="723.5" fill="#000000" rx="3" ry="3" style="stroke:#000000;stroke-width:1.0;"/><path d="M277,744.5 L290,744.5 C348.329,744.5 285.4486,962.5732 326,1004.5 C340.203,1019.1847 358.9601,1028.059 378.783,1033.1885 " fill="none" style="stroke:#000000;stroke-width:1.0;stroke-dasharray:3.0,3.0;"/><path d="M378.0934,1036.1265 L380.9865,1033.7058 L379.4727,1030.2505 L386.128,1034.9127 L378.0934,1036.1265 " fill="#000000" style="stroke:#000000;stroke-width:1.0;"/><ellipse cx="277" cy="744.5" fill="#000000" rx="3" ry="3" style="stroke:#000000;stroke-width:1.0;"/><path d="M277,764.5 L290,764.5 C356.9243,764.5 279.902,1014.9836 326,1063.5 C340.5897,1078.8551 360.1506,1087.8916 380.7633,1092.9422 " fill="none" style="stroke:#000000;stroke-width:1.0;stroke-dasharray:3.0,3.0;"/><path d="M380.1137,1095.8736 L382.9619,1093.4294 L381.413,1090.0108 L388.0917,1094.5663 L380.1137,1095.8736 " fill="#000000" style="stroke:#000000;stroke-width:1.0;"/><ellipse cx="277" cy="764.5" fill="#000000" rx="3" ry="3" style="stroke:#000000;stroke-width:1.0;"/><path d="M278.5,783.5 L278.5,796.5 C278.5,833.1047 300.4585,1096.2791 326,1122.5 C343.219,1140.177 367.0419,1149.4158 391.3406,1153.8378 " fill="none" style="stroke:#000000;stroke-width:1.0;stroke-dasharray:3.0,3.0;"/><path d="M390.8519,1156.8576 L393.6054,1154.2043 L391.8293,1150.818 L398.8901,1155.0595 L390.8519,1156.8576 " fill="#000000" style="stroke:#000000;stroke-width:1.0;"/><ellipse cx="278.5" cy="783.5" fill="#000000" rx="3" ry="3" style="stroke:#000000;stroke-width:1.0;"/><path d="M218,590.5 L231,590.5 C240.4213,590.5 250.9164,590.5 259.5483,590.5 " fill="none" style="stroke:#000000;stroke-width:1.0;stroke-dasharray:3.0,3.0;"/><path d="M259.5483,593.5437 L261.8311,590.5 L259.5483,587.4563 L267.1575,590.5 L259.5483,593.5437 " fill="#000000" style="stroke:#000000;stroke-width:1.0;"/><ellipse cx="218" cy="590.5" fill="#000000" rx="3" ry="3" style="stroke:#000000;stroke-width:1.0;"/><!--SRC=[bPNDQkCm4CVlVWgHKmjDs8IsB3xLRHoJsB63FmBBiWUrdXZLoYX8ig6KljVUzyLMThiVfqW58_18yzDVevdHdT9KwcSbq7lr29cSfD2Y5PmZxN7YamcAMQjc1sQ64wSukHfMzI3LinZd-yMxgHKrSAOq6EDtOo3aTHm_fen7pIR4E4HXbeUhNHAae-FV5O-WMibwu0hUru6GS009KfDXvvORePFHu-tgt0Rh9AcAyZnypNcdjAJZALoOQLgiep0fGWiNKR5c_7MWRghSHUocawncgYMF36im7s6Vb1y7kMMFs36uSH94bXZ4d3PEnu-pjAZAt48JgA3j0LMd9TJ8i75ZvrQmbA1E0ckARjSLLsaQRIpK3h5v_lLJEkeSwk0-B6ABs9qfWFzjxkJI2QpXU1niqfLipwY1t3fcrK3SvLba9vh-r4XwT87cmMwNsLJcz7GIRYBph9W6QP1yipM1NAXfW9I_k5rK4SJ5AW-sIHXP0b3GLXtCwJaqJibLXb6wYfFpq18QF0Wvj5V7d3Kr6oxJTMfHMtscNgko319xVwsqfjor0lRXiWpYyy0zr9gs7pGp_l3Ul3lJOySNqHioJbVRX0mF7XD8vhF5byNrxEQYw91iwGjPt9Bvt9_V-3TVoOEfDZBCNteNqIuXIdJo2OXftLgonquRmAMteJqbUOUQ7S4dsGbmiup_64Y8FPC2Zu3Qs-ot_nRSNa_lcIO5I2E5xBVU4WwquzfuF8dQ1DadLRcQVlKIYard6h1F0Bq7ORZonITfzXi0]--></g></svg>