<svg xmlns="http://www.w3.org/2000/svg" xmlns:xlink="http://www.w3.org/1999/xlink" contentStyleType="text/css" data-diagram-type="JSON" height="1183px" preserveAspectRatio="none" style="width:676px;height:1183px;background:#FFFFFF;" version="1.1" viewBox="0 0 676 1183" width="676px" zoomAndPan="magnify"><defs/><g><rect fill="#F1F1F1" height="61.4648" rx="5" ry="5" style="stroke:#F1F1F1;stroke-width:1.5;" width="220.7168" x="10" y="539.7676"/><text fill="#000000" font-family="sans-serif" font-size="14" font-weight="bold" lengthAdjust="spacing" textLength="101.0283" x="15" y="555.3027">protokollnavn</text><text fill="#000000" font-family="sans-serif" font-size="14" lengthAdjust="spacing" textLength="99.6885" x="126.0283" y="555.3027">no.ks.fiks.plan</text><line style="stroke:#000000;stroke-width:1;" x1="121.0283" x2="121.0283" y1="539.7676" y2="560.2559"/><line style="stroke:#000000;stroke-width:1;" x1="10" x2="230.7168" y1="560.2559" y2="560.2559"/><text fill="#000000" font-family="sans-serif" font-size="14" font-weight="bold" lengthAdjust="spacing" textLength="53.5869" x="15" y="575.791">versjon</text><text fill="#000000" font-family="sans-serif" font-size="14" lengthAdjust="spacing" textLength="16.0986" x="126.0283" y="575.791">v2</text><line style="stroke:#000000;stroke-width:1;" x1="121.0283" x2="121.0283" y1="560.2559" y2="580.7441"/><line style="stroke:#000000;stroke-width:1;" x1="10" x2="230.7168" y1="580.7441" y2="580.7441"/><text fill="#000000" font-family="sans-serif" font-size="14" font-weight="bold" lengthAdjust="spacing" textLength="66.1787" x="15" y="596.2793">kodeliste</text><text fill="#000000" font-family="sans-serif" font-size="14" lengthAdjust="spacing" textLength="13.2891" x="126.0283" y="596.2793">&#160;&#160;&#160;</text><line style="stroke:#000000;stroke-width:1;" x1="121.0283" x2="121.0283" y1="580.7441" y2="601.2324"/><rect fill="none" height="61.4648" rx="5" ry="5" style="stroke:#000000;stroke-width:1.5;" width="220.7168" x="10" y="539.7676"/><rect fill="#F1F1F1" height="409.7656" rx="5" ry="5" style="stroke:#F1F1F1;stroke-width:1.5;" width="23.2891" x="268" y="385.5"/><text fill="#000000" font-family="sans-serif" font-size="14" lengthAdjust="spacing" textLength="13.2891" x="273" y="401.0352">&#160;&#160;&#160;</text><line style="stroke:#000000;stroke-width:1;" x1="268" x2="291.2891" y1="405.9883" y2="405.9883"/><text fill="#000000" font-family="sans-serif" font-size="14" lengthAdjust="spacing" textLength="13.2891" x="273" y="421.5234">&#160;&#160;&#160;</text><line style="stroke:#000000;stroke-width:1;" x1="268" x2="291.2891" y1="426.4766" y2="426.4766"/><text fill="#000000" font-family="sans-serif" font-size="14" lengthAdjust="spacing" textLength="13.2891" x="273" y="442.0117">&#160;&#160;&#160;</text><line style="stroke:#000000;stroke-width:1;" x1="268" x2="291.2891" y1="446.9648" y2="446.9648"/><text fill="#000000" font-family="sans-serif" font-size="14" lengthAdjust="spacing" textLength="13.2891" x="273" y="462.5">&#160;&#160;&#160;</text><line style="stroke:#000000;stroke-width:1;" x1="268" x2="291.2891" y1="467.4531" y2="467.4531"/><text fill="#000000" font-family="sans-serif" font-size="14" lengthAdjust="spacing" textLength="13.2891" x="273" y="482.9883">&#160;&#160;&#160;</text><line style="stroke:#000000;stroke-width:1;" x1="268" x2="291.2891" y1="487.9414" y2="487.9414"/><text fill="#000000" font-family="sans-serif" font-size="14" lengthAdjust="spacing" textLength="13.2891" x="273" y="503.4766">&#160;&#160;&#160;</text><line style="stroke:#000000;stroke-width:1;" x1="268" x2="291.2891" y1="508.4297" y2="508.4297"/><text fill="#000000" font-family="sans-serif" font-size="14" lengthAdjust="spacing" textLength="13.2891" x="273" y="523.9648">&#160;&#160;&#160;</text><line style="stroke:#000000;stroke-width:1;" x1="268" x2="291.2891" y1="528.918" y2="528.918"/><text fill="#000000" font-family="sans-serif" font-size="14" lengthAdjust="spacing" textLength="13.2891" x="273" y="544.4531">&#160;&#160;&#160;</text><line style="stroke:#000000;stroke-width:1;" x1="268" x2="291.2891" y1="549.4063" y2="549.4063"/><text fill="#000000" font-family="sans-serif" font-size="14" lengthAdjust="spacing" textLength="13.2891" x="273" y="564.9414">&#160;&#160;&#160;</text><line style="stroke:#000000;stroke-width:1;" x1="268" x2="291.2891" y1="569.8945" y2="569.8945"/><text fill="#000000" font-family="sans-serif" font-size="14" lengthAdjust="spacing" textLength="13.2891" x="273" y="585.4297">&#160;&#160;&#160;</text><line style="stroke:#000000;stroke-width:1;" x1="268" x2="291.2891" y1="590.3828" y2="590.3828"/><text fill="#000000" font-family="sans-serif" font-size="14" lengthAdjust="spacing" textLength="13.2891" x="273" y="605.918">&#160;&#160;&#160;</text><line style="stroke:#000000;stroke-width:1;" x1="268" x2="291.2891" y1="610.8711" y2="610.8711"/><text fill="#000000" font-family="sans-serif" font-size="14" lengthAdjust="spacing" textLength="13.2891" x="273" y="626.4063">&#160;&#160;&#160;</text><line style="stroke:#000000;stroke-width:1;" x1="268" x2="291.2891" y1="631.3594" y2="631.3594"/><text fill="#000000" font-family="sans-serif" font-size="14" lengthAdjust="spacing" textLength="13.2891" x="273" y="646.8945">&#160;&#160;&#160;</text><line style="stroke:#000000;stroke-width:1;" x1="268" x2="291.2891" y1="651.8477" y2="651.8477"/><text fill="#000000" font-family="sans-serif" font-size="14" lengthAdjust="spacing" textLength="13.2891" x="273" y="667.3828">&#160;&#160;&#160;</text><line style="stroke:#000000;stroke-width:1;" x1="268" x2="291.2891" y1="672.3359" y2="672.3359"/><text fill="#000000" font-family="sans-serif" font-size="14" lengthAdjust="spacing" textLength="13.2891" x="273" y="687.8711">&#160;&#160;&#160;</text><line style="stroke:#000000;stroke-width:1;" x1="268" x2="291.2891" y1="692.8242" y2="692.8242"/><text fill="#000000" font-family="sans-serif" font-size="14" lengthAdjust="spacing" textLength="13.2891" x="273" y="708.3594">&#160;&#160;&#160;</text><line style="stroke:#000000;stroke-width:1;" x1="268" x2="291.2891" y1="713.3125" y2="713.3125"/><text fill="#000000" font-family="sans-serif" font-size="14" lengthAdjust="spacing" textLength="13.2891" x="273" y="728.8477">&#160;&#160;&#160;</text><line style="stroke:#000000;stroke-width:1;" x1="268" x2="291.2891" y1="733.8008" y2="733.8008"/><text fill="#000000" font-family="sans-serif" font-size="14" lengthAdjust="spacing" textLength="13.2891" x="273" y="749.3359">&#160;&#160;&#160;</text><line style="stroke:#000000;stroke-width:1;" x1="268" x2="291.2891" y1="754.2891" y2="754.2891"/><text fill="#000000" font-family="sans-serif" font-size="14" lengthAdjust="spacing" textLength="13.2891" x="273" y="769.8242">&#160;&#160;&#160;</text><line style="stroke:#000000;stroke-width:1;" x1="268" x2="291.2891" y1="774.7773" y2="774.7773"/><text fill="#000000" font-family="sans-serif" font-size="14" lengthAdjust="spacing" textLength="13.2891" x="273" y="790.3125">&#160;&#160;&#160;</text><rect fill="none" height="409.7656" rx="5" ry="5" style="stroke:#000000;stroke-width:1.5;" width="23.2891" x="268" y="385.5"/><rect fill="#F1F1F1" height="40.9766" rx="5" ry="5" style="stroke:#F1F1F1;stroke-width:1.5;" width="279.752" x="356" y="10"/><text fill="#000000" font-family="sans-serif" font-size="14" font-weight="bold" lengthAdjust="spacing" textLength="71.9824" x="361" y="25.5352">kodeverdi</text><text fill="#000000" font-family="sans-serif" font-size="14" lengthAdjust="spacing" textLength="87.7324" x="488.6328" y="25.5352">GEOREFPLAN</text><line style="stroke:#000000;stroke-width:1;" x1="483.6328" x2="483.6328" y1="10" y2="30.4883"/><line style="stroke:#000000;stroke-width:1;" x1="356" x2="635.752" y1="30.4883" y2="30.4883"/><text fill="#000000" font-family="sans-serif" font-size="14" font-weight="bold" lengthAdjust="spacing" textLength="117.6328" x="361" y="46.0234">kodebeskrivelse</text><text fill="#000000" font-family="sans-serif" font-size="14" lengthAdjust="spacing" textLength="142.1191" x="488.6328" y="46.0234">Georeferert planklart</text><line style="stroke:#000000;stroke-width:1;" x1="483.6328" x2="483.6328" y1="30.4883" y2="50.9766"/><rect fill="none" height="40.9766" rx="5" ry="5" style="stroke:#000000;stroke-width:1.5;" width="279.752" x="356" y="10"/><rect fill="#F1F1F1" height="40.9766" rx="5" ry="5" style="stroke:#F1F1F1;stroke-width:1.5;" width="212.9648" x="389.5" y="69"/><text fill="#000000" font-family="sans-serif" font-size="14" font-weight="bold" lengthAdjust="spacing" textLength="71.9824" x="394.5" y="84.5352">kodeverdi</text><text fill="#000000" font-family="sans-serif" font-size="14" lengthAdjust="spacing" textLength="45.0557" x="522.1328" y="84.5352">ILLUST</text><line style="stroke:#000000;stroke-width:1;" x1="517.1328" x2="517.1328" y1="69" y2="89.4883"/><line style="stroke:#000000;stroke-width:1;" x1="389.5" x2="602.4648" y1="89.4883" y2="89.4883"/><text fill="#000000" font-family="sans-serif" font-size="14" font-weight="bold" lengthAdjust="spacing" textLength="117.6328" x="394.5" y="105.0234">kodebeskrivelse</text><text fill="#000000" font-family="sans-serif" font-size="14" lengthAdjust="spacing" textLength="75.332" x="522.1328" y="105.0234">Illustrasjon</text><line style="stroke:#000000;stroke-width:1;" x1="517.1328" x2="517.1328" y1="89.4883" y2="109.9766"/><rect fill="none" height="40.9766" rx="5" ry="5" style="stroke:#000000;stroke-width:1.5;" width="212.9648" x="389.5" y="69"/><rect fill="#F1F1F1" height="40.9766" rx="5" ry="5" style="stroke:#F1F1F1;stroke-width:1.5;" width="214.2227" x="389" y="128"/><text fill="#000000" font-family="sans-serif" font-size="14" font-weight="bold" lengthAdjust="spacing" textLength="71.9824" x="394" y="143.5352">kodeverdi</text><text fill="#000000" font-family="sans-serif" font-size="14" lengthAdjust="spacing" textLength="76.5898" x="521.6328" y="143.5352">INNSIGELSE</text><line style="stroke:#000000;stroke-width:1;" x1="516.6328" x2="516.6328" y1="128" y2="148.4883"/><line style="stroke:#000000;stroke-width:1;" x1="389" x2="603.2227" y1="148.4883" y2="148.4883"/><text fill="#000000" font-family="sans-serif" font-size="14" font-weight="bold" lengthAdjust="spacing" textLength="117.6328" x="394" y="164.0234">kodebeskrivelse</text><text fill="#000000" font-family="sans-serif" font-size="14" lengthAdjust="spacing" textLength="68.1064" x="521.6328" y="164.0234">Innsigelse</text><line style="stroke:#000000;stroke-width:1;" x1="516.6328" x2="516.6328" y1="148.4883" y2="168.9766"/><rect fill="none" height="40.9766" rx="5" ry="5" style="stroke:#000000;stroke-width:1.5;" width="214.2227" x="389" y="128"/><rect fill="#F1F1F1" height="40.9766" rx="5" ry="5" style="stroke:#F1F1F1;stroke-width:1.5;" width="336.292" x="328" y="187"/><text fill="#000000" font-family="sans-serif" font-size="14" font-weight="bold" lengthAdjust="spacing" textLength="71.9824" x="333" y="202.5352">kodeverdi</text><text fill="#000000" font-family="sans-serif" font-size="14" lengthAdjust="spacing" textLength="67.9629" x="460.6328" y="202.5352">JURILLUST</text><line style="stroke:#000000;stroke-width:1;" x1="455.6328" x2="455.6328" y1="187" y2="207.4883"/><line style="stroke:#000000;stroke-width:1;" x1="328" x2="664.292" y1="207.4883" y2="207.4883"/><text fill="#000000" font-family="sans-serif" font-size="14" font-weight="bold" lengthAdjust="spacing" textLength="117.6328" x="333" y="223.0234">kodebeskrivelse</text><text fill="#000000" font-family="sans-serif" font-size="14" lengthAdjust="spacing" textLength="198.6592" x="460.6328" y="223.0234">Juridisk bindende illustrasjon</text><line style="stroke:#000000;stroke-width:1;" x1="455.6328" x2="455.6328" y1="207.4883" y2="227.9766"/><rect fill="none" height="40.9766" rx="5" ry="5" style="stroke:#000000;stroke-width:1.5;" width="336.292" x="328" y="187"/><rect fill="#F1F1F1" height="40.9766" rx="5" ry="5" style="stroke:#F1F1F1;stroke-width:1.5;" width="174.1367" x="409" y="246"/><text fill="#000000" font-family="sans-serif" font-size="14" font-weight="bold" lengthAdjust="spacing" textLength="71.9824" x="414" y="261.5352">kodeverdi</text><text fill="#000000" font-family="sans-serif" font-size="14" lengthAdjust="spacing" textLength="36.5039" x="541.6328" y="261.5352">KART</text><line style="stroke:#000000;stroke-width:1;" x1="536.6328" x2="536.6328" y1="246" y2="266.4883"/><line style="stroke:#000000;stroke-width:1;" x1="409" x2="583.1367" y1="266.4883" y2="266.4883"/><text fill="#000000" font-family="sans-serif" font-size="14" font-weight="bold" lengthAdjust="spacing" textLength="117.6328" x="414" y="282.0234">kodebeskrivelse</text><text fill="#000000" font-family="sans-serif" font-size="14" lengthAdjust="spacing" textLength="27.8359" x="541.6328" y="282.0234">Kart</text><line style="stroke:#000000;stroke-width:1;" x1="536.6328" x2="536.6328" y1="266.4883" y2="286.9766"/><rect fill="none" height="40.9766" rx="5" ry="5" style="stroke:#000000;stroke-width:1.5;" width="174.1367" x="409" y="246"/><rect fill="#F1F1F1" height="40.9766" rx="5" ry="5" style="stroke:#F1F1F1;stroke-width:1.5;" width="181.6016" x="405" y="305"/><text fill="#000000" font-family="sans-serif" font-size="14" font-weight="bold" lengthAdjust="spacing" textLength="71.9824" x="410" y="320.5352">kodeverdi</text><text fill="#000000" font-family="sans-serif" font-size="14" lengthAdjust="spacing" textLength="43.9688" x="537.6328" y="320.5352">KLAGE</text><line style="stroke:#000000;stroke-width:1;" x1="532.6328" x2="532.6328" y1="305" y2="325.4883"/><line style="stroke:#000000;stroke-width:1;" x1="405" x2="586.6016" y1="325.4883" y2="325.4883"/><text fill="#000000" font-family="sans-serif" font-size="14" font-weight="bold" lengthAdjust="spacing" textLength="117.6328" x="410" y="341.0234">kodebeskrivelse</text><text fill="#000000" font-family="sans-serif" font-size="14" lengthAdjust="spacing" textLength="37.4473" x="537.6328" y="341.0234">Klage</text><line style="stroke:#000000;stroke-width:1;" x1="532.6328" x2="532.6328" y1="325.4883" y2="345.9766"/><rect fill="none" height="40.9766" rx="5" ry="5" style="stroke:#000000;stroke-width:1.5;" width="181.6016" x="405" y="305"/><rect fill="#F1F1F1" height="40.9766" rx="5" ry="5" style="stroke:#F1F1F1;stroke-width:1.5;" width="284.4688" x="354" y="364"/><text fill="#000000" font-family="sans-serif" font-size="14" font-weight="bold" lengthAdjust="spacing" textLength="71.9824" x="359" y="379.5352">kodeverdi</text><text fill="#000000" font-family="sans-serif" font-size="14" lengthAdjust="spacing" textLength="65.3037" x="486.6328" y="379.5352">KONSUTR</text><line style="stroke:#000000;stroke-width:1;" x1="481.6328" x2="481.6328" y1="364" y2="384.4883"/><line style="stroke:#000000;stroke-width:1;" x1="354" x2="638.4688" y1="384.4883" y2="384.4883"/><text fill="#000000" font-family="sans-serif" font-size="14" font-weight="bold" lengthAdjust="spacing" textLength="117.6328" x="359" y="400.0234">kodebeskrivelse</text><text fill="#000000" font-family="sans-serif" font-size="14" lengthAdjust="spacing" textLength="146.8359" x="486.6328" y="400.0234">Konsekvensutredning</text><line style="stroke:#000000;stroke-width:1;" x1="481.6328" x2="481.6328" y1="384.4883" y2="404.9766"/><rect fill="none" height="40.9766" rx="5" ry="5" style="stroke:#000000;stroke-width:1.5;" width="284.4688" x="354" y="364"/><rect fill="#F1F1F1" height="40.9766" rx="5" ry="5" style="stroke:#F1F1F1;stroke-width:1.5;" width="248.0332" x="372" y="423"/><text fill="#000000" font-family="sans-serif" font-size="14" font-weight="bold" lengthAdjust="spacing" textLength="71.9824" x="377" y="438.5352">kodeverdi</text><text fill="#000000" font-family="sans-serif" font-size="14" lengthAdjust="spacing" textLength="37.7207" x="504.6328" y="438.5352">KORR</text><line style="stroke:#000000;stroke-width:1;" x1="499.6328" x2="499.6328" y1="423" y2="443.4883"/><line style="stroke:#000000;stroke-width:1;" x1="372" x2="620.0332" y1="443.4883" y2="443.4883"/><text fill="#000000" font-family="sans-serif" font-size="14" font-weight="bold" lengthAdjust="spacing" textLength="117.6328" x="377" y="459.0234">kodebeskrivelse</text><text fill="#000000" font-family="sans-serif" font-size="14" lengthAdjust="spacing" textLength="110.4004" x="504.6328" y="459.0234">Korrespondanse</text><line style="stroke:#000000;stroke-width:1;" x1="499.6328" x2="499.6328" y1="443.4883" y2="463.9766"/><rect fill="none" height="40.9766" rx="5" ry="5" style="stroke:#000000;stroke-width:1.5;" width="248.0332" x="372" y="423"/><rect fill="#F1F1F1" height="40.9766" rx="5" ry="5" style="stroke:#F1F1F1;stroke-width:1.5;" width="221.6191" x="385" y="482"/><text fill="#000000" font-family="sans-serif" font-size="14" font-weight="bold" lengthAdjust="spacing" textLength="71.9824" x="390" y="497.5352">kodeverdi</text><text fill="#000000" font-family="sans-serif" font-size="14" lengthAdjust="spacing" textLength="53.9971" x="517.6328" y="497.5352">KUNNGJ</text><line style="stroke:#000000;stroke-width:1;" x1="512.6328" x2="512.6328" y1="482" y2="502.4883"/><line style="stroke:#000000;stroke-width:1;" x1="385" x2="606.6191" y1="502.4883" y2="502.4883"/><text fill="#000000" font-family="sans-serif" font-size="14" font-weight="bold" lengthAdjust="spacing" textLength="117.6328" x="390" y="518.0234">kodebeskrivelse</text><text fill="#000000" font-family="sans-serif" font-size="14" lengthAdjust="spacing" textLength="83.9863" x="517.6328" y="518.0234">Kunngj&#248;ring</text><line style="stroke:#000000;stroke-width:1;" x1="512.6328" x2="512.6328" y1="502.4883" y2="522.9766"/><rect fill="none" height="40.9766" rx="5" ry="5" style="stroke:#000000;stroke-width:1.5;" width="221.6191" x="385" y="482"/><rect fill="#F1F1F1" height="40.9766" rx="5" ry="5" style="stroke:#F1F1F1;stroke-width:1.5;" width="241.5732" x="375" y="541"/><text fill="#000000" font-family="sans-serif" font-size="14" font-weight="bold" lengthAdjust="spacing" textLength="71.9824" x="380" y="556.5352">kodeverdi</text><text fill="#000000" font-family="sans-serif" font-size="14" lengthAdjust="spacing" textLength="76.3779" x="507.6328" y="556.5352">PLANBESKR</text><line style="stroke:#000000;stroke-width:1;" x1="502.6328" x2="502.6328" y1="541" y2="561.4883"/><line style="stroke:#000000;stroke-width:1;" x1="375" x2="616.5732" y1="561.4883" y2="561.4883"/><text fill="#000000" font-family="sans-serif" font-size="14" font-weight="bold" lengthAdjust="spacing" textLength="117.6328" x="380" y="577.0234">kodebeskrivelse</text><text fill="#000000" font-family="sans-serif" font-size="14" lengthAdjust="spacing" textLength="103.9404" x="507.6328" y="577.0234">Planbeskrivelse</text><line style="stroke:#000000;stroke-width:1;" x1="502.6328" x2="502.6328" y1="561.4883" y2="581.9766"/><rect fill="none" height="40.9766" rx="5" ry="5" style="stroke:#000000;stroke-width:1.5;" width="241.5732" x="375" y="541"/><rect fill="#F1F1F1" height="40.9766" rx="5" ry="5" style="stroke:#F1F1F1;stroke-width:1.5;" width="261.2744" x="365.5" y="600"/><text fill="#000000" font-family="sans-serif" font-size="14" font-weight="bold" lengthAdjust="spacing" textLength="71.9824" x="370.5" y="615.5352">kodeverdi</text><text fill="#000000" font-family="sans-serif" font-size="14" lengthAdjust="spacing" textLength="67.2383" x="498.1328" y="615.5352">PLANBEST</text><line style="stroke:#000000;stroke-width:1;" x1="493.1328" x2="493.1328" y1="600" y2="620.4883"/><line style="stroke:#000000;stroke-width:1;" x1="365.5" x2="626.7744" y1="620.4883" y2="620.4883"/><text fill="#000000" font-family="sans-serif" font-size="14" font-weight="bold" lengthAdjust="spacing" textLength="117.6328" x="370.5" y="636.0234">kodebeskrivelse</text><text fill="#000000" font-family="sans-serif" font-size="14" lengthAdjust="spacing" textLength="123.6416" x="498.1328" y="636.0234">Planbestemmelser</text><line style="stroke:#000000;stroke-width:1;" x1="493.1328" x2="493.1328" y1="620.4883" y2="640.9766"/><rect fill="none" height="40.9766" rx="5" ry="5" style="stroke:#000000;stroke-width:1.5;" width="261.2744" x="365.5" y="600"/><rect fill="#F1F1F1" height="40.9766" rx="5" ry="5" style="stroke:#F1F1F1;stroke-width:1.5;" width="209.3418" x="391.5" y="659"/><text fill="#000000" font-family="sans-serif" font-size="14" font-weight="bold" lengthAdjust="spacing" textLength="71.9824" x="396.5" y="674.5352">kodeverdi</text><text fill="#000000" font-family="sans-serif" font-size="14" lengthAdjust="spacing" textLength="71.709" x="524.1328" y="674.5352">PLANKART</text><line style="stroke:#000000;stroke-width:1;" x1="519.1328" x2="519.1328" y1="659" y2="679.4883"/><line style="stroke:#000000;stroke-width:1;" x1="391.5" x2="600.8418" y1="679.4883" y2="679.4883"/><text fill="#000000" font-family="sans-serif" font-size="14" font-weight="bold" lengthAdjust="spacing" textLength="117.6328" x="396.5" y="695.0234">kodebeskrivelse</text><text fill="#000000" font-family="sans-serif" font-size="14" lengthAdjust="spacing" textLength="55.084" x="524.1328" y="695.0234">Plankart</text><line style="stroke:#000000;stroke-width:1;" x1="519.1328" x2="519.1328" y1="679.4883" y2="699.9766"/><rect fill="none" height="40.9766" rx="5" ry="5" style="stroke:#000000;stroke-width:1.5;" width="209.3418" x="391.5" y="659"/><rect fill="#F1F1F1" height="40.9766" rx="5" ry="5" style="stroke:#F1F1F1;stroke-width:1.5;" width="224.2373" x="384" y="718"/><text fill="#000000" font-family="sans-serif" font-size="14" font-weight="bold" lengthAdjust="spacing" textLength="71.9824" x="389" y="733.5352">kodeverdi</text><text fill="#000000" font-family="sans-serif" font-size="14" lengthAdjust="spacing" textLength="72.7891" x="516.6328" y="733.5352">PLANPROG</text><line style="stroke:#000000;stroke-width:1;" x1="511.6328" x2="511.6328" y1="718" y2="738.4883"/><line style="stroke:#000000;stroke-width:1;" x1="384" x2="608.2373" y1="738.4883" y2="738.4883"/><text fill="#000000" font-family="sans-serif" font-size="14" font-weight="bold" lengthAdjust="spacing" textLength="117.6328" x="389" y="754.0234">kodebeskrivelse</text><text fill="#000000" font-family="sans-serif" font-size="14" lengthAdjust="spacing" textLength="86.6045" x="516.6328" y="754.0234">Planprogram</text><line style="stroke:#000000;stroke-width:1;" x1="511.6328" x2="511.6328" y1="738.4883" y2="758.9766"/><rect fill="none" height="40.9766" rx="5" ry="5" style="stroke:#000000;stroke-width:1.5;" width="224.2373" x="384" y="718"/><rect fill="#F1F1F1" height="40.9766" rx="5" ry="5" style="stroke:#F1F1F1;stroke-width:1.5;" width="200.2021" x="396" y="777"/><text fill="#000000" font-family="sans-serif" font-size="14" font-weight="bold" lengthAdjust="spacing" textLength="71.9824" x="401" y="792.5352">kodeverdi</text><text fill="#000000" font-family="sans-serif" font-size="14" lengthAdjust="spacing" textLength="62.5693" x="528.6328" y="792.5352">RAPPORT</text><line style="stroke:#000000;stroke-width:1;" x1="523.6328" x2="523.6328" y1="777" y2="797.4883"/><line style="stroke:#000000;stroke-width:1;" x1="396" x2="596.2021" y1="797.4883" y2="797.4883"/><text fill="#000000" font-family="sans-serif" font-size="14" font-weight="bold" lengthAdjust="spacing" textLength="117.6328" x="401" y="813.0234">kodebeskrivelse</text><text fill="#000000" font-family="sans-serif" font-size="14" lengthAdjust="spacing" textLength="53.7715" x="528.6328" y="813.0234">Rapport</text><line style="stroke:#000000;stroke-width:1;" x1="523.6328" x2="523.6328" y1="797.4883" y2="817.9766"/><rect fill="none" height="40.9766" rx="5" ry="5" style="stroke:#000000;stroke-width:1.5;" width="200.2021" x="396" y="777"/><rect fill="#F1F1F1" height="40.9766" rx="5" ry="5" style="stroke:#F1F1F1;stroke-width:1.5;" width="233.9785" x="379" y="836"/><text fill="#000000" font-family="sans-serif" font-size="14" font-weight="bold" lengthAdjust="spacing" textLength="71.9824" x="384" y="851.5352">kodeverdi</text><text fill="#000000" font-family="sans-serif" font-size="14" lengthAdjust="spacing" textLength="96.3457" x="511.6328" y="851.5352">ROS-ANALYSE</text><line style="stroke:#000000;stroke-width:1;" x1="506.6328" x2="506.6328" y1="836" y2="856.4883"/><line style="stroke:#000000;stroke-width:1;" x1="379" x2="612.9785" y1="856.4883" y2="856.4883"/><text fill="#000000" font-family="sans-serif" font-size="14" font-weight="bold" lengthAdjust="spacing" textLength="117.6328" x="384" y="872.0234">kodebeskrivelse</text><text fill="#000000" font-family="sans-serif" font-size="14" lengthAdjust="spacing" textLength="85.0664" x="511.6328" y="872.0234">Ros-Analyse</text><line style="stroke:#000000;stroke-width:1;" x1="506.6328" x2="506.6328" y1="856.4883" y2="876.9766"/><rect fill="none" height="40.9766" rx="5" ry="5" style="stroke:#000000;stroke-width:1.5;" width="233.9785" x="379" y="836"/><rect fill="#F1F1F1" height="40.9766" rx="5" ry="5" style="stroke:#F1F1F1;stroke-width:1.5;" width="244.875" x="373.5" y="895"/><text fill="#000000" font-family="sans-serif" font-size="14" font-weight="bold" lengthAdjust="spacing" textLength="71.9824" x="378.5" y="910.5352">kodeverdi</text><text fill="#000000" font-family="sans-serif" font-size="14" lengthAdjust="spacing" textLength="107.2422" x="506.1328" y="910.5352">SAKSFRAMLEGG</text><line style="stroke:#000000;stroke-width:1;" x1="501.1328" x2="501.1328" y1="895" y2="915.4883"/><line style="stroke:#000000;stroke-width:1;" x1="373.5" x2="618.375" y1="915.4883" y2="915.4883"/><text fill="#000000" font-family="sans-serif" font-size="14" font-weight="bold" lengthAdjust="spacing" textLength="117.6328" x="378.5" y="931.0234">kodebeskrivelse</text><text fill="#000000" font-family="sans-serif" font-size="14" lengthAdjust="spacing" textLength="91.5742" x="506.1328" y="931.0234">Saksframlegg</text><line style="stroke:#000000;stroke-width:1;" x1="501.1328" x2="501.1328" y1="915.4883" y2="935.9766"/><rect fill="none" height="40.9766" rx="5" ry="5" style="stroke:#000000;stroke-width:1.5;" width="244.875" x="373.5" y="895"/><rect fill="#F1F1F1" height="40.9766" rx="5" ry="5" style="stroke:#F1F1F1;stroke-width:1.5;" width="238.333" x="377" y="954"/><text fill="#000000" font-family="sans-serif" font-size="14" font-weight="bold" lengthAdjust="spacing" textLength="71.9824" x="382" y="969.5352">kodeverdi</text><text fill="#000000" font-family="sans-serif" font-size="14" lengthAdjust="spacing" textLength="61.0107" x="509.6328" y="969.5352">TEGNFKL</text><line style="stroke:#000000;stroke-width:1;" x1="504.6328" x2="504.6328" y1="954" y2="974.4883"/><line style="stroke:#000000;stroke-width:1;" x1="377" x2="615.333" y1="974.4883" y2="974.4883"/><text fill="#000000" font-family="sans-serif" font-size="14" font-weight="bold" lengthAdjust="spacing" textLength="117.6328" x="382" y="990.0234">kodebeskrivelse</text><text fill="#000000" font-family="sans-serif" font-size="14" lengthAdjust="spacing" textLength="100.7002" x="509.6328" y="990.0234">Tegnforklaring</text><line style="stroke:#000000;stroke-width:1;" x1="504.6328" x2="504.6328" y1="974.4883" y2="994.9766"/><rect fill="none" height="40.9766" rx="5" ry="5" style="stroke:#000000;stroke-width:1.5;" width="238.333" x="377" y="954"/><rect fill="#F1F1F1" height="40.9766" rx="5" ry="5" style="stroke:#F1F1F1;stroke-width:1.5;" width="217.9482" x="387" y="1013"/><text fill="#000000" font-family="sans-serif" font-size="14" font-weight="bold" lengthAdjust="spacing" textLength="71.9824" x="392" y="1028.5352">kodeverdi</text><text fill="#000000" font-family="sans-serif" font-size="14" lengthAdjust="spacing" textLength="80.3154" x="519.6328" y="1028.5352">UTREDNING</text><line style="stroke:#000000;stroke-width:1;" x1="514.6328" x2="514.6328" y1="1013" y2="1033.4883"/><line style="stroke:#000000;stroke-width:1;" x1="387" x2="604.9482" y1="1033.4883" y2="1033.4883"/><text fill="#000000" font-family="sans-serif" font-size="14" font-weight="bold" lengthAdjust="spacing" textLength="117.6328" x="392" y="1049.0234">kodebeskrivelse</text><text fill="#000000" font-family="sans-serif" font-size="14" lengthAdjust="spacing" textLength="67.4297" x="519.6328" y="1049.0234">Utredning</text><line style="stroke:#000000;stroke-width:1;" x1="514.6328" x2="514.6328" y1="1033.4883" y2="1053.9766"/><rect fill="none" height="40.9766" rx="5" ry="5" style="stroke:#000000;stroke-width:1.5;" width="217.9482" x="387" y="1013"/><rect fill="#F1F1F1" height="40.9766" rx="5" ry="5" style="stroke:#F1F1F1;stroke-width:1.5;" width="212.3428" x="390" y="1072"/><text fill="#000000" font-family="sans-serif" font-size="14" font-weight="bold" lengthAdjust="spacing" textLength="71.9824" x="395" y="1087.5352">kodeverdi</text><text fill="#000000" font-family="sans-serif" font-size="14" lengthAdjust="spacing" textLength="74.71" x="522.6328" y="1087.5352">UTTALELSE</text><line style="stroke:#000000;stroke-width:1;" x1="517.6328" x2="517.6328" y1="1072" y2="1092.4883"/><line style="stroke:#000000;stroke-width:1;" x1="390" x2="602.3428" y1="1092.4883" y2="1092.4883"/><text fill="#000000" font-family="sans-serif" font-size="14" font-weight="bold" lengthAdjust="spacing" textLength="117.6328" x="395" y="1108.0234">kodebeskrivelse</text><text fill="#000000" font-family="sans-serif" font-size="14" lengthAdjust="spacing" textLength="58.7344" x="522.6328" y="1108.0234">Uttalelse</text><line style="stroke:#000000;stroke-width:1;" x1="517.6328" x2="517.6328" y1="1092.4883" y2="1112.9766"/><rect fill="none" height="40.9766" rx="5" ry="5" style="stroke:#000000;stroke-width:1.5;" width="212.3428" x="390" y="1072"/><rect fill="#F1F1F1" height="40.9766" rx="5" ry="5" style="stroke:#F1F1F1;stroke-width:1.5;" width="192.5117" x="399.5" y="1131"/><text fill="#000000" font-family="sans-serif" font-size="14" font-weight="bold" lengthAdjust="spacing" textLength="71.9824" x="404.5" y="1146.5352">kodeverdi</text><text fill="#000000" font-family="sans-serif" font-size="14" lengthAdjust="spacing" textLength="54.8789" x="532.1328" y="1146.5352">VEDTAK</text><line style="stroke:#000000;stroke-width:1;" x1="527.1328" x2="527.1328" y1="1131" y2="1151.4883"/><line style="stroke:#000000;stroke-width:1;" x1="399.5" x2="592.0117" y1="1151.4883" y2="1151.4883"/><text fill="#000000" font-family="sans-serif" font-size="14" font-weight="bold" lengthAdjust="spacing" textLength="117.6328" x="404.5" y="1167.0234">kodebeskrivelse</text><text fill="#000000" font-family="sans-serif" font-size="14" lengthAdjust="spacing" textLength="46.915" x="532.1328" y="1167.0234">Vedtak</text><line style="stroke:#000000;stroke-width:1;" x1="527.1328" x2="527.1328" y1="1151.4883" y2="1171.9766"/><rect fill="none" height="40.9766" rx="5" ry="5" style="stroke:#000000;stroke-width:1.5;" width="192.5117" x="399.5" y="1131"/><path d="M280,397.5 L280,384.5 C280,347.9972 302.5107,85.6295 328,59.5 C334.3595,52.9808 341.6198,47.6118 349.4712,43.2106" fill="none" style="stroke:#000000;stroke-width:1;stroke-dasharray:3.0,3.0;"/><path d="M350.8606,45.9016 L351.4894,42.1686 L348.0818,40.5196 L356.1986,39.7372 L350.8606,45.9016" fill="#000000" style="stroke:#000000;stroke-width:1;"/><ellipse cx="280" cy="397.5" fill="#000000" rx="3" ry="3" style="stroke:#000000;stroke-width:1;"/><path d="M279,416.5 L292,416.5 C358.7037,416.5 282.0564,166.8588 328,118.5 C342.4832,103.2554 361.8794,94.2502 382.3319,89.1921" fill="none" style="stroke:#000000;stroke-width:1;stroke-dasharray:3.0,3.0;"/><path d="M383.0076,92.2224 L384.6047,88.6853 L381.6563,86.1618 L389.9077,87.5029 L383.0076,92.2224" fill="#000000" style="stroke:#000000;stroke-width:1;"/><ellipse cx="279" cy="416.5" fill="#000000" rx="3" ry="3" style="stroke:#000000;stroke-width:1;"/><path d="M279,436.5 L292,436.5 C350.1089,436.5 287.6011,219.2681 328,177.5 C342.4363,162.5745 361.5897,153.6627 381.777,148.5864" fill="none" style="stroke:#000000;stroke-width:1;stroke-dasharray:3.0,3.0;"/><path d="M382.4572,151.5773 L384.0202,148.0761 L381.0967,145.5954 L389.2543,146.8856 L382.4572,151.5773" fill="#000000" style="stroke:#000000;stroke-width:1;"/><ellipse cx="279" cy="436.5" fill="#000000" rx="3" ry="3" style="stroke:#000000;stroke-width:1;"/><path d="M279,457.5 L292,457.5 C341.7584,457.5 292.9911,271.8593 328,236.5 C329.2231,235.2646 330.4787,234.0707 331.7645,232.9171" fill="none" style="stroke:#000000;stroke-width:1;stroke-dasharray:3.0,3.0;"/><path d="M333.6862,235.2471 L333.512,231.4758 L329.8428,230.5871 L337.5895,228.1127 L333.6862,235.2471" fill="#000000" style="stroke:#000000;stroke-width:1;"/><ellipse cx="279" cy="457.5" fill="#000000" rx="3" ry="3" style="stroke:#000000;stroke-width:1;"/><path d="M279,477.5 L292,477.5 C374.4561,477.5 269.0037,353.106 328,295.5 C347.4942,276.4652 374.7117,267.3878 401.5469,263.5616" fill="none" style="stroke:#000000;stroke-width:1;stroke-dasharray:3.0,3.0;"/><path d="M401.9244,266.5824 L403.8125,263.2784 L401.1693,260.5408 L409.0989,262.6177 L401.9244,266.5824" fill="#000000" style="stroke:#000000;stroke-width:1;"/><ellipse cx="279" cy="477.5" fill="#000000" rx="3" ry="3" style="stroke:#000000;stroke-width:1;"/><path d="M279,498.5 L292,498.5 C357.9697,498.5 279.669,399.4011 328,354.5 C346.8918,336.9488 372.4001,328.0001 397.8076,323.8263" fill="none" style="stroke:#000000;stroke-width:1;stroke-dasharray:3.0,3.0;"/><path d="M398.2477,326.8322 L400.062,323.4962 L397.3676,320.8204 L405.3223,322.7262 L398.2477,326.8322" fill="#000000" style="stroke:#000000;stroke-width:1;"/><ellipse cx="279" cy="498.5" fill="#000000" rx="3" ry="3" style="stroke:#000000;stroke-width:1;"/><path d="M279,518.5 L292,518.5 C340.9131,518.5 290.823,446.2863 328,414.5 C333.8942,409.4604 340.3408,405.139 347.1645,401.4413" fill="none" style="stroke:#000000;stroke-width:1;stroke-dasharray:3.0,3.0;"/><path d="M348.5618,404.2185 L349.2474,400.3933 L345.7672,398.6641 L354.1074,397.9481 L348.5618,404.2185" fill="#000000" style="stroke:#000000;stroke-width:1;"/><ellipse cx="279" cy="518.5" fill="#000000" rx="3" ry="3" style="stroke:#000000;stroke-width:1;"/><path d="M279,539.5 L292,539.5 C325.4132,539.5 300.8902,493.032 328,473.5 C339.1233,465.4859 351.718,459.3915 364.8851,454.7842" fill="none" style="stroke:#000000;stroke-width:1;stroke-dasharray:3.0,3.0;"/><path d="M365.8488,457.7315 L367.0955,454.0613 L363.9213,451.8369 L372.2533,452.3748 L365.8488,457.7315" fill="#000000" style="stroke:#000000;stroke-width:1;"/><ellipse cx="279" cy="539.5" fill="#000000" rx="3" ry="3" style="stroke:#000000;stroke-width:1;"/><path d="M279,559.5 L292,559.5 C312,559.5 309.6605,540.4788 328,532.5 C343.6444,525.6937 360.7544,520.4315 377.8726,516.3632" fill="none" style="stroke:#000000;stroke-width:1;stroke-dasharray:3.0,3.0;"/><path d="M378.5412,519.2963 L380.0724,515.8618 L377.204,513.4302 L385.2052,514.6917 L378.5412,519.2963" fill="#000000" style="stroke:#000000;stroke-width:1;"/><ellipse cx="279" cy="559.5" fill="#000000" rx="3" ry="3" style="stroke:#000000;stroke-width:1;"/><path d="M279,580.5 L292,580.5 C316.5197,580.5 342.6295,579.1156 367.6845,577.0943" fill="none" style="stroke:#000000;stroke-width:1;stroke-dasharray:3.0,3.0;"/><path d="M367.9432,580.1898 L370.0061,576.9002 L367.4257,573.9987 L375.4234,576.4473 L367.9432,580.1898" fill="#000000" style="stroke:#000000;stroke-width:1;"/><ellipse cx="279" cy="580.5" fill="#000000" rx="3" ry="3" style="stroke:#000000;stroke-width:1;"/><path d="M279,600.5 L292,600.5 C313.5289,600.5 336.2777,601.6224 358.4604,603.3353" fill="none" style="stroke:#000000;stroke-width:1;stroke-dasharray:3.0,3.0;"/><path d="M358.2192,606.3347 L360.7099,603.5162 L358.7015,600.3359 L365.9589,603.9381 L358.2192,606.3347" fill="#000000" style="stroke:#000000;stroke-width:1;"/><ellipse cx="279" cy="600.5" fill="#000000" rx="3" ry="3" style="stroke:#000000;stroke-width:1;"/><path d="M279,621.5 L292,621.5 C312.5456,621.5 309.2802,642.0328 328,650.5 C345.5251,658.4268 364.9832,664.1972 384.2542,668.3952" fill="none" style="stroke:#000000;stroke-width:1;stroke-dasharray:3.0,3.0;"/><path d="M383.6409,671.3441 L386.4659,668.8552 L384.8675,665.4463 L391.6264,669.9284 L383.6409,671.3441" fill="#000000" style="stroke:#000000;stroke-width:1;"/><ellipse cx="279" cy="621.5" fill="#000000" rx="3" ry="3" style="stroke:#000000;stroke-width:1;"/><path d="M279,641.5 L292,641.5 C326.1962,641.5 300.3216,689.418 328,709.5 C342.422,719.9638 359.3579,727.1051 376.8197,731.909" fill="none" style="stroke:#000000;stroke-width:1;stroke-dasharray:3.0,3.0;"/><path d="M376.0523,734.913 L379.0727,732.4845 L377.5872,728.9049 L384.3298,733.8275 L376.0523,734.913" fill="#000000" style="stroke:#000000;stroke-width:1;"/><ellipse cx="279" cy="641.5" fill="#000000" rx="3" ry="3" style="stroke:#000000;stroke-width:1;"/><path d="M279,662.5 L292,662.5 C341.754,662.5 290.1848,736.1663 328,768.5 C345.029,783.0606 366.6887,791.5355 388.7349,796.2538" fill="none" style="stroke:#000000;stroke-width:1;stroke-dasharray:3.0,3.0;"/><path d="M388.1511,799.2479 L390.9805,796.6916 L389.3187,793.2597 L396.2201,797.7132 L388.1511,799.2479" fill="#000000" style="stroke:#000000;stroke-width:1;"/><ellipse cx="279" cy="662.5" fill="#000000" rx="3" ry="3" style="stroke:#000000;stroke-width:1;"/><path d="M279,682.5 L292,682.5 C358.401,682.5 279.3897,782.2659 328,827.5 C340.3656,839.0068 355.5744,846.818 371.737,852.0108" fill="none" style="stroke:#000000;stroke-width:1;stroke-dasharray:3.0,3.0;"/><path d="M370.8548,855.0053 L373.9829,852.6725 L372.6192,849.0163 L379.2234,854.2163 L370.8548,855.0053" fill="#000000" style="stroke:#000000;stroke-width:1;"/><ellipse cx="279" cy="682.5" fill="#000000" rx="3" ry="3" style="stroke:#000000;stroke-width:1;"/><path d="M279,703.5 L292,703.5 C374.8922,703.5 268.7218,828.5586 328,886.5 C338.973,897.2256 352.3978,904.7907 366.8259,910.0367" fill="none" style="stroke:#000000;stroke-width:1;stroke-dasharray:3.0,3.0;"/><path d="M365.8689,912.8996 L368.9731,910.7545 L367.783,907.1738 L373.9831,912.4294 L365.8689,912.8996" fill="#000000" style="stroke:#000000;stroke-width:1;"/><ellipse cx="279" cy="703.5" fill="#000000" rx="3" ry="3" style="stroke:#000000;stroke-width:1;"/><path d="M279,723.5 L292,723.5 C341.9778,723.5 292.8495,909.9723 328,945.5 C339.7,957.3256 354.3683,965.3495 370.1305,970.6726" fill="none" style="stroke:#000000;stroke-width:1;stroke-dasharray:3.0,3.0;"/><path d="M369.2267,973.5975 L372.3242,971.3505 L371.0344,967.7476 L377.4429,972.9322 L369.2267,973.5975" fill="#000000" style="stroke:#000000;stroke-width:1;"/><ellipse cx="279" cy="723.5" fill="#000000" rx="3" ry="3" style="stroke:#000000;stroke-width:1;"/><path d="M279,744.5 L292,744.5 C350.329,744.5 287.4591,962.5631 328,1004.5 C341.9143,1018.8935 360.2153,1027.6952 379.6013,1032.858" fill="none" style="stroke:#000000;stroke-width:1;stroke-dasharray:3.0,3.0;"/><path d="M378.8794,1035.8485 L381.8441,1033.3994 L380.3231,1029.8676 L387.0774,1034.6626 L378.8794,1035.8485" fill="#000000" style="stroke:#000000;stroke-width:1;"/><ellipse cx="279" cy="744.5" fill="#000000" rx="3" ry="3" style="stroke:#000000;stroke-width:1;"/><path d="M279,764.5 L292,764.5 C358.9243,764.5 281.9141,1014.9721 328,1063.5 C342.6346,1078.9101 362.2892,1087.9454 382.9818,1092.9729" fill="none" style="stroke:#000000;stroke-width:1;stroke-dasharray:3.0,3.0;"/><path d="M382.3358,1095.9153 L385.1886,1093.4574 L383.6278,1090.0305 L390.3378,1094.5879 L382.3358,1095.9153" fill="#000000" style="stroke:#000000;stroke-width:1;"/><ellipse cx="279" cy="764.5" fill="#000000" rx="3" ry="3" style="stroke:#000000;stroke-width:1;"/><path d="M280,783.5 L280,796.5 C280,833.1128 302.4397,1096.2861 328,1122.5 C344.9914,1139.9258 368.418,1149.134 392.3704,1153.6105" fill="none" style="stroke:#000000;stroke-width:1;stroke-dasharray:3.0,3.0;"/><path d="M391.8739,1156.5881 L394.6035,1153.9829 L392.8669,1150.633 L399.8142,1154.8518 L391.8739,1156.5881" fill="#000000" style="stroke:#000000;stroke-width:1;"/><ellipse cx="280" cy="783.5" fill="#000000" rx="3" ry="3" style="stroke:#000000;stroke-width:1;"/><path d="M219,590.5 L232,590.5 C241.399,590.5 251.8552,590.5 260.5144,590.5" fill="none" style="stroke:#000000;stroke-width:1;stroke-dasharray:3.0,3.0;"/><path d="M260.5144,593.5633 L262.8119,590.5 L260.5144,587.4367 L268.1727,590.5 L260.5144,593.5633" fill="#000000" style="stroke:#000000;stroke-width:1;"/><ellipse cx="219" cy="590.5" fill="#000000" rx="3" ry="3" style="stroke:#000000;stroke-width:1;"/><!--SRC=[bPNDQkCm4CVlVWgHKmjDQDDjj_XKjt5CRCSE_WWionwKUc9KEwCWoOPI-bvxtnTRsUr-d28LZC0ZpKz_ZMP6zr9HePubH-VL8MHo55pnXhSjqXudBfaWdpLojcTwEBOK9nV3gXw4VERZV3z_DpMyWfP91ThuNHi8UHt7ZodjKR49qGw1dsR-SXDxoUZuTyKEP2DO3ws4ztN01Un1W51asBbfjT39wF5sSMg3LHoNUN4QlchRJYf1nrFOC9CaNmL-dFi6Bg9azVXhGGtBp4Pis0bMCTcG7SCAz4VO9-L7NcRO8x8CRXHxWI46KKjhg-D7QPANHMQWSPJGz82oKm8gP5ZRiJCZM0YGHuuLHRlhYiea2K83jKEidt_z59OwXpfuyFF887QZ2-1_cpsvi08hE1m6cx0bcpDg83UMMJKGDraQc8cwFzM27coWcRVPf2QL6JqUkPt8BCsdNkB5tqnD8EDowY5jN-mkAlUYV9bvwzWF3078QIFt-lGjr5R9LVX1iepYqz02QjnpCRHNovpLDUilabLYK5j-fbxBel1YStyjbQAjRGLi_KNXHQU1MwWKRJveUlpXl3dtkiUEBw8pP9mgrp4P7Zp6aLpDvfVpczdyhEY0X1J9vLToTUTUtxZNj-JHByWmVUwS1PkOIDw99o2wSol1TftI_kTEI7jAiWuLEu1BqYDWk8Z-68YFFHCS3u3A2RVhVmjklqmVc28v2As4RDVE0lQqQvNsUEALZh5Boc8vlNDYYdMd-wzB09r7hhdYnIL9-Xi0]--></g></svg>