<?xml version="1.0" encoding="us-ascii" standalone="no"?><svg xmlns="http://www.w3.org/2000/svg" xmlns:xlink="http://www.w3.org/1999/xlink" contentStyleType="text/css" height="301px" preserveAspectRatio="none" style="width:726px;height:301px;background:#FFFFFF;" version="1.1" viewBox="0 0 726 301" width="726px" zoomAndPan="magnify"><defs/><g><!--class OpprettArealplan--><g id="elem_OpprettArealplan"><rect codeLine="2" fill="#F1F1F1" height="146.9297" id="OpprettArealplan" rx="2.5" ry="2.5" style="stroke:#181818;stroke-width:0.5;" width="211" x="7" y="7"/><ellipse cx="49" cy="23" fill="#ADD1B2" rx="11" ry="11" style="stroke:#181818;stroke-width:1.0;"/><path d="M51.4731,29.1431 Q50.8921,29.4419 50.2529,29.5913 Q49.6138,29.7407 48.9082,29.7407 Q46.4014,29.7407 45.0815,28.0889 Q43.7617,26.437 43.7617,23.3159 Q43.7617,20.1865 45.0815,18.5347 Q46.4014,16.8828 48.9082,16.8828 Q49.6138,16.8828 50.2612,17.0322 Q50.9087,17.1816 51.4731,17.4805 L51.4731,20.2031 Q50.8423,19.6221 50.2488,19.3523 Q49.6553,19.0825 49.0244,19.0825 Q47.6797,19.0825 46.9949,20.1492 Q46.3101,21.2158 46.3101,23.3159 Q46.3101,25.4077 46.9949,26.4744 Q47.6797,27.541 49.0244,27.541 Q49.6553,27.541 50.2488,27.2712 Q50.8423,27.0015 51.4731,26.4204 Z " fill="#000000"/><text fill="#000000" font-family="sans-serif" font-size="14" lengthAdjust="spacing" textLength="119" x="69" y="28.291">OpprettArealplan</text><line style="stroke:#181818;stroke-width:0.5;" x1="8" x2="217" y1="39" y2="39"/><ellipse cx="18" cy="52.7441" fill="none" rx="3" ry="3" style="stroke:#038048;stroke-width:1.0;"/><text fill="#000000" font-family="sans-serif" font-size="14" lengthAdjust="spacing" textLength="111" x="27" y="56.5352">plannavn: string</text><ellipse cx="18" cy="69.2324" fill="none" rx="3" ry="3" style="stroke:#038048;stroke-width:1.0;"/><text fill="#000000" font-family="sans-serif" font-size="14" lengthAdjust="spacing" textLength="102" x="27" y="73.0234">plantype: Kode</text><ellipse cx="18" cy="85.7207" fill="none" rx="3" ry="3" style="stroke:#038048;stroke-width:1.0;"/><text fill="#000000" font-family="sans-serif" font-size="14" lengthAdjust="spacing" textLength="114" x="27" y="89.5117">planstatus: Kode</text><ellipse cx="18" cy="102.209" fill="none" rx="3" ry="3" style="stroke:#038048;stroke-width:1.0;"/><text fill="#000000" font-family="sans-serif" font-size="14" lengthAdjust="spacing" textLength="128" x="27" y="106">lovreferanse: Kode</text><ellipse cx="18" cy="118.6973" fill="none" rx="3" ry="3" style="stroke:#038048;stroke-width:1.0;"/><text fill="#000000" font-family="sans-serif" font-size="14" lengthAdjust="spacing" textLength="185" x="27" y="122.4883">saksnummer: Saksnummer</text><ellipse cx="18" cy="135.1855" fill="none" rx="3" ry="3" style="stroke:#038048;stroke-width:1.0;"/><text fill="#000000" font-family="sans-serif" font-size="14" lengthAdjust="spacing" textLength="158" x="27" y="138.9766">forslagstillertype: Kode</text><line style="stroke:#181818;stroke-width:0.5;" x1="8" x2="217" y1="145.9297" y2="145.9297"/></g><!--class Kode--><g id="elem_Kode"><rect codeLine="11" fill="#F1F1F1" height="80.9766" id="Kode" rx="2.5" ry="2.5" style="stroke:#181818;stroke-width:0.5;" width="184" x="20.5" y="213.93"/><ellipse cx="90.75" cy="229.93" fill="#ADD1B2" rx="11" ry="11" style="stroke:#181818;stroke-width:1.0;"/><path d="M93.2231,236.0731 Q92.6421,236.3719 92.0029,236.5213 Q91.3638,236.6707 90.6582,236.6707 Q88.1514,236.6707 86.8315,235.0189 Q85.5117,233.367 85.5117,230.2459 Q85.5117,227.1165 86.8315,225.4647 Q88.1514,223.8128 90.6582,223.8128 Q91.3638,223.8128 92.0112,223.9622 Q92.6587,224.1116 93.2231,224.4105 L93.2231,227.1331 Q92.5923,226.5521 91.9988,226.2823 Q91.4053,226.0125 90.7744,226.0125 Q89.4297,226.0125 88.7449,227.0792 Q88.0601,228.1458 88.0601,230.2459 Q88.0601,232.3377 88.7449,233.4044 Q89.4297,234.471 90.7744,234.471 Q91.4053,234.471 91.9988,234.2012 Q92.5923,233.9315 93.2231,233.3504 Z " fill="#000000"/><text fill="#000000" font-family="sans-serif" font-size="14" lengthAdjust="spacing" textLength="35" x="111.25" y="235.221">Kode</text><line style="stroke:#181818;stroke-width:0.5;" x1="21.5" x2="203.5" y1="245.93" y2="245.93"/><ellipse cx="31.5" cy="259.6741" fill="none" rx="3" ry="3" style="stroke:#038048;stroke-width:1.0;"/><text fill="#000000" font-family="sans-serif" font-size="14" lengthAdjust="spacing" textLength="116" x="40.5" y="263.4652">kodeverdi: string</text><ellipse cx="31.5" cy="276.1624" fill="none" rx="3" ry="3" style="stroke:#038048;stroke-width:1.0;"/><text fill="#000000" font-family="sans-serif" font-size="14" lengthAdjust="spacing" textLength="158" x="40.5" y="279.9534">kodebeskrivelse: string</text><line style="stroke:#181818;stroke-width:0.5;" x1="21.5" x2="203.5" y1="286.9066" y2="286.9066"/></g><!--class Saksnummer--><g id="elem_Saksnummer"><rect fill="#F1F1F1" height="48" id="Saksnummer" rx="2.5" ry="2.5" style="stroke:#181818;stroke-width:0.5;" width="121" x="333" y="230.42"/><ellipse cx="348" cy="246.42" fill="#ADD1B2" rx="11" ry="11" style="stroke:#181818;stroke-width:1.0;"/><path d="M350.4731,252.5631 Q349.8921,252.8619 349.2529,253.0113 Q348.6138,253.1607 347.9082,253.1607 Q345.4014,253.1607 344.0815,251.5089 Q342.7617,249.857 342.7617,246.7359 Q342.7617,243.6065 344.0815,241.9547 Q345.4014,240.3028 347.9082,240.3028 Q348.6138,240.3028 349.2612,240.4522 Q349.9087,240.6016 350.4731,240.9005 L350.4731,243.6231 Q349.8423,243.0421 349.2488,242.7723 Q348.6553,242.5025 348.0244,242.5025 Q346.6797,242.5025 345.9949,243.5692 Q345.3101,244.6358 345.3101,246.7359 Q345.3101,248.8277 345.9949,249.8944 Q346.6797,250.961 348.0244,250.961 Q348.6553,250.961 349.2488,250.6912 Q349.8423,250.4215 350.4731,249.8404 Z " fill="#000000"/><text fill="#000000" font-family="sans-serif" font-size="14" lengthAdjust="spacing" textLength="89" x="362" y="251.711">Saksnummer</text><line style="stroke:#181818;stroke-width:0.5;" x1="334" x2="453" y1="262.42" y2="262.42"/><line style="stroke:#181818;stroke-width:0.5;" x1="334" x2="453" y1="270.42" y2="270.42"/></g><g id="elem_GMN7"><path d="M253.5,67.81 L253.5,93.1205 A0,0 0 0 0 253.5,93.1205 L475.96,93.1205 L406.07,230.18 L483.96,93.1205 L719.5,93.1205 A0,0 0 0 0 719.5,93.1205 L719.5,77.81 L709.5,67.81 L253.5,67.81 A0,0 0 0 0 253.5,67.81 " fill="#FEFFDD" style="stroke:#181818;stroke-width:0.5;"/><path d="M709.5,67.81 L709.5,77.81 L719.5,77.81 L709.5,67.81 " fill="#FEFFDD" style="stroke:#181818;stroke-width:0.5;"/><text fill="#000000" font-family="sans-serif" font-size="13" lengthAdjust="spacing" textLength="445" x="259.5" y="85.3784">Se detaljer i diagram for skjema 'no.ks.fiks.plan.v2.felles.saksnummer'</text></g><!--link OpprettArealplan to Kode--><g id="link_OpprettArealplan_Kode"><path codeLine="16" d="M112.5,154.39 C112.5,174.71 112.5,196.03 112.5,213.66 " fill="none" id="OpprettArealplan-Kode" style="stroke:#181818;stroke-width:1.0;"/></g><!--link OpprettArealplan to Saksnummer--><g id="link_OpprettArealplan_Saksnummer"><path codeLine="17" d="M218.33,146.23 C266.41,175.65 320.26,208.6 355.4,230.11 " fill="none" id="OpprettArealplan-Saksnummer" style="stroke:#181818;stroke-width:1.0;"/></g><!--SRC=[RL0nJWGn3Epp2dTNe4j1kHqr1GKlCBVEAfTi4jc-I2V4tt4uOFS4AQBnJ3IUoIcZ2BoqngJwn8IvPIpmxi3Emy05Uvb0b6DPDbQlZIPuhZDjd2ZgHVPihfqf49jszremIRciA_44hx_ufeNAad4HZJaJx_PyE7VwIZkcduJ9S2UUutt4GR-H98wTyjZzBPh7dwx7uyt_Fs4NpfMg15eRrB3ZmHeGpAIOppP5c2CkZ2jO3v1qfXNXKAfFuaEqQpZx_kW3MJtnsqySt2S0]--></g></svg>