<svg xmlns="http://www.w3.org/2000/svg" xmlns:xlink="http://www.w3.org/1999/xlink" contentStyleType="text/css" data-diagram-type="CLASS" height="252px" preserveAspectRatio="none" style="width:304px;height:252px;background:#FFFFFF;" version="1.1" viewBox="0 0 304 252" width="304px" zoomAndPan="magnify"><defs/><g><!--class NasjonalArealplanId--><g class="entity" data-entity="NasjonalArealplanId" data-source-line="1" data-uid="ent0002" id="entity_NasjonalArealplanId"><rect fill="#F1F1F1" height="80.9766" rx="2.5" ry="2.5" style="stroke:#181818;stroke-width:0.5;" width="290.3047" x="7" y="7"/><ellipse cx="80.0898" cy="23" fill="#ADD1B2" rx="11" ry="11" style="stroke:#181818;stroke-width:1;"/><path d="M82.563,29.1431 Q81.9819,29.4419 81.3428,29.5913 Q80.7036,29.7407 79.998,29.7407 Q77.4912,29.7407 76.1714,28.0889 Q74.8516,26.437 74.8516,23.3159 Q74.8516,20.1865 76.1714,18.5347 Q77.4912,16.8828 79.998,16.8828 Q80.7036,16.8828 81.3511,17.0322 Q81.9985,17.1816 82.563,17.4805 L82.563,20.2031 Q81.9321,19.6221 81.3386,19.3523 Q80.7451,19.0825 80.1143,19.0825 Q78.7695,19.0825 78.0847,20.1492 Q77.3999,21.2158 77.3999,23.3159 Q77.3999,25.4077 78.0847,26.4744 Q78.7695,27.541 80.1143,27.541 Q80.7451,27.541 81.3386,27.2712 Q81.9321,27.0015 82.563,26.4204 Z " fill="#000000"/><text fill="#000000" font-family="sans-serif" font-size="14" lengthAdjust="spacing" textLength="135.625" x="100.5898" y="28.291">NasjonalArealplanId</text><line style="stroke:#181818;stroke-width:0.5;" x1="8" x2="296.3047" y1="39" y2="39"/><ellipse cx="18" cy="52.7441" fill="none" rx="3" ry="3" style="stroke:#038048;stroke-width:1;"/><text fill="#000000" font-family="sans-serif" font-size="14" lengthAdjust="spacing" textLength="264.3047" x="27" y="56.5352">administrativEnhet: AdministrativEnhet</text><ellipse cx="18" cy="69.2324" fill="none" rx="3" ry="3" style="stroke:#038048;stroke-width:1;"/><text fill="#000000" font-family="sans-serif" font-size="14" lengthAdjust="spacing" textLength="170.126" x="27" y="73.0234">planidentifikasjon: string</text><line style="stroke:#181818;stroke-width:0.5;" x1="8" x2="296.3047" y1="79.9766" y2="79.9766"/></g><!--class AdministrativEnhet--><g class="entity" data-entity="AdministrativEnhet" data-source-line="6" data-uid="ent0003" id="entity_AdministrativEnhet"><rect fill="#F1F1F1" height="97.4648" rx="2.5" ry="2.5" style="stroke:#181818;stroke-width:0.5;" width="160.6865" x="71.81" y="147.98"/><ellipse cx="86.81" cy="163.98" fill="#EB937F" rx="11" ry="11" style="stroke:#181818;stroke-width:1;"/><path d="M90.4243,170.48 L82.7045,170.48 L82.7045,158.0869 L90.4243,158.0869 L90.4243,160.2451 L85.1533,160.2451 L85.1533,162.918 L89.9262,162.918 L89.9262,165.0762 L85.1533,165.0762 L85.1533,168.3218 L90.4243,168.3218 Z " fill="#000000"/><text fill="#000000" font-family="sans-serif" font-size="14" lengthAdjust="spacing" textLength="128.6865" x="100.81" y="169.271">AdministrativEnhet</text><line style="stroke:#181818;stroke-width:0.5;" x1="72.81" x2="231.4965" y1="179.98" y2="179.98"/><text fill="#000000" font-family="sans-serif" font-size="14" lengthAdjust="spacing" textLength="125.1455" x="77.81" y="197.5152">kommunenummer</text><text fill="#000000" font-family="sans-serif" font-size="14" lengthAdjust="spacing" textLength="96.6738" x="77.81" y="214.0034">fylkesnummer</text><text fill="#000000" font-family="sans-serif" font-size="14" lengthAdjust="spacing" textLength="69.8086" x="77.81" y="230.4917">landskode</text><line style="stroke:#181818;stroke-width:0.5;" x1="72.81" x2="231.4965" y1="237.4448" y2="237.4448"/></g><!--link NasjonalArealplanId to AdministrativEnhet--><g class="link" data-entity-1="NasjonalArealplanId" data-entity-2="AdministrativEnhet" data-source-line="6" data-uid="lnk4" id="link_NasjonalArealplanId_AdministrativEnhet"><path codeLine="6" d="M152.15,88.33 C152.15,106.64 152.15,128.5 152.15,147.71" fill="none" id="NasjonalArealplanId-AdministrativEnhet" style="stroke:#181818;stroke-width:1;"/></g><!--SRC=[ROun3i8m34NtdC8xwWMwTM1WuGuMTi4aTb2S8Y74tKaB0nBn-Fpylqy9tU68Vis6QIgCwPRG3WJF06rsI2ecNWjMkU_jmdM4wOzztFLIYAtAB76B7A5POkVm2g5NCWoziC2sQ6Vn_IbcrSLMHxbiP7waoFu3MZfvpCIj-0q0]--></g></svg>