<?xml version="1.0" encoding="us-ascii" standalone="no"?><svg xmlns="http://www.w3.org/2000/svg" xmlns:xlink="http://www.w3.org/1999/xlink" contentStyleType="text/css" height="301px" preserveAspectRatio="none" style="width:1173px;height:301px;background:#FFFFFF;" version="1.1" viewBox="0 0 1173 301" width="1173px" zoomAndPan="magnify"><defs/><g><!--class MidlertidigForbud--><g id="elem_MidlertidigForbud"><rect codeLine="1" fill="#F1F1F1" height="146.9297" id="MidlertidigForbud" rx="2.5" ry="2.5" style="stroke:#181818;stroke-width:0.5;" width="211" x="454" y="7"/><ellipse cx="493.75" cy="23" fill="#ADD1B2" rx="11" ry="11" style="stroke:#181818;stroke-width:1.0;"/><path d="M496.2231,29.1431 Q495.6421,29.4419 495.0029,29.5913 Q494.3638,29.7407 493.6582,29.7407 Q491.1514,29.7407 489.8315,28.0889 Q488.5117,26.437 488.5117,23.3159 Q488.5117,20.1865 489.8315,18.5347 Q491.1514,16.8828 493.6582,16.8828 Q494.3638,16.8828 495.0112,17.0322 Q495.6587,17.1816 496.2231,17.4805 L496.2231,20.2031 Q495.5923,19.6221 494.9988,19.3523 Q494.4053,19.0825 493.7744,19.0825 Q492.4297,19.0825 491.7449,20.1492 Q491.0601,21.2158 491.0601,23.3159 Q491.0601,25.4077 491.7449,26.4744 Q492.4297,27.541 493.7744,27.541 Q494.4053,27.541 494.9988,27.2712 Q495.5923,27.0015 496.2231,26.4204 Z " fill="#000000"/><text fill="#000000" font-family="sans-serif" font-size="14" lengthAdjust="spacing" textLength="124" x="513.25" y="28.291">MidlertidigForbud</text><line style="stroke:#181818;stroke-width:0.5;" x1="455" x2="664" y1="39" y2="39"/><ellipse cx="465" cy="52.7441" fill="none" rx="3" ry="3" style="stroke:#038048;stroke-width:1.0;"/><text fill="#000000" font-family="sans-serif" font-size="14" lengthAdjust="spacing" textLength="102" x="474" y="56.5352">omraade: Flate</text><ellipse cx="465" cy="69.2324" fill="none" rx="3" ry="3" style="stroke:#038048;stroke-width:1.0;"/><text fill="#000000" font-family="sans-serif" font-size="14" lengthAdjust="spacing" textLength="185" x="474" y="73.0234">saksnummer: Saksnummer</text><ellipse cx="465" cy="85.7207" fill="none" rx="3" ry="3" style="stroke:#038048;stroke-width:1.0;"/><text fill="#000000" font-family="sans-serif" font-size="14" lengthAdjust="spacing" textLength="147" x="474" y="89.5117">avgjoerelsedato: date</text><ellipse cx="465" cy="102.209" fill="none" rx="3" ry="3" style="stroke:#038048;stroke-width:1.0;"/><text fill="#000000" font-family="sans-serif" font-size="14" lengthAdjust="spacing" textLength="182" x="474" y="106">pblTiltakForbudtype: Kode</text><ellipse cx="465" cy="118.6973" fill="none" rx="3" ry="3" style="stroke:#038048;stroke-width:1.0;"/><text fill="#000000" font-family="sans-serif" font-size="14" lengthAdjust="spacing" textLength="129" x="474" y="122.4883">gyldigTilDato: date</text><ellipse cx="465" cy="135.1855" fill="none" rx="3" ry="3" style="stroke:#038048;stroke-width:1.0;"/><text fill="#000000" font-family="sans-serif" font-size="14" lengthAdjust="spacing" textLength="142" x="474" y="138.9766">omraadenavn: string</text><line style="stroke:#181818;stroke-width:0.5;" x1="455" x2="664" y1="145.9297" y2="145.9297"/></g><!--class Flate--><g id="elem_Flate"><rect fill="#F1F1F1" height="48" id="Flate" rx="2.5" ry="2.5" style="stroke:#181818;stroke-width:0.5;" width="65" x="274" y="230.42"/><ellipse cx="289" cy="246.42" fill="#ADD1B2" rx="11" ry="11" style="stroke:#181818;stroke-width:1.0;"/><path d="M291.4731,252.5631 Q290.8921,252.8619 290.2529,253.0113 Q289.6138,253.1607 288.9082,253.1607 Q286.4014,253.1607 285.0815,251.5089 Q283.7617,249.857 283.7617,246.7359 Q283.7617,243.6065 285.0815,241.9547 Q286.4014,240.3028 288.9082,240.3028 Q289.6138,240.3028 290.2612,240.4522 Q290.9087,240.6016 291.4731,240.9005 L291.4731,243.6231 Q290.8423,243.0421 290.2488,242.7723 Q289.6553,242.5025 289.0244,242.5025 Q287.6797,242.5025 286.9949,243.5692 Q286.3101,244.6358 286.3101,246.7359 Q286.3101,248.8277 286.9949,249.8944 Q287.6797,250.961 289.0244,250.961 Q289.6553,250.961 290.2488,250.6912 Q290.8423,250.4215 291.4731,249.8404 Z " fill="#000000"/><text fill="#000000" font-family="sans-serif" font-size="14" lengthAdjust="spacing" textLength="33" x="303" y="251.711">Flate</text><line style="stroke:#181818;stroke-width:0.5;" x1="275" x2="338" y1="262.42" y2="262.42"/><line style="stroke:#181818;stroke-width:0.5;" x1="275" x2="338" y1="270.42" y2="270.42"/></g><!--class Saksnummer--><g id="elem_Saksnummer"><rect fill="#F1F1F1" height="48" id="Saksnummer" rx="2.5" ry="2.5" style="stroke:#181818;stroke-width:0.5;" width="121" x="780" y="230.42"/><ellipse cx="795" cy="246.42" fill="#ADD1B2" rx="11" ry="11" style="stroke:#181818;stroke-width:1.0;"/><path d="M797.4731,252.5631 Q796.8921,252.8619 796.2529,253.0113 Q795.6138,253.1607 794.9082,253.1607 Q792.4014,253.1607 791.0815,251.5089 Q789.7617,249.857 789.7617,246.7359 Q789.7617,243.6065 791.0815,241.9547 Q792.4014,240.3028 794.9082,240.3028 Q795.6138,240.3028 796.2612,240.4522 Q796.9087,240.6016 797.4731,240.9005 L797.4731,243.6231 Q796.8423,243.0421 796.2488,242.7723 Q795.6553,242.5025 795.0244,242.5025 Q793.6797,242.5025 792.9949,243.5692 Q792.3101,244.6358 792.3101,246.7359 Q792.3101,248.8277 792.9949,249.8944 Q793.6797,250.961 795.0244,250.961 Q795.6553,250.961 796.2488,250.6912 Q796.8423,250.4215 797.4731,249.8404 Z " fill="#000000"/><text fill="#000000" font-family="sans-serif" font-size="14" lengthAdjust="spacing" textLength="89" x="809" y="251.711">Saksnummer</text><line style="stroke:#181818;stroke-width:0.5;" x1="781" x2="900" y1="262.42" y2="262.42"/><line style="stroke:#181818;stroke-width:0.5;" x1="781" x2="900" y1="270.42" y2="270.42"/></g><!--class Kode--><g id="elem_Kode"><rect codeLine="17" fill="#F1F1F1" height="80.9766" id="Kode" rx="2.5" ry="2.5" style="stroke:#181818;stroke-width:0.5;" width="184" x="467.5" y="213.93"/><ellipse cx="537.75" cy="229.93" fill="#ADD1B2" rx="11" ry="11" style="stroke:#181818;stroke-width:1.0;"/><path d="M540.2231,236.0731 Q539.6421,236.3719 539.0029,236.5213 Q538.3638,236.6707 537.6582,236.6707 Q535.1514,236.6707 533.8315,235.0189 Q532.5117,233.367 532.5117,230.2459 Q532.5117,227.1165 533.8315,225.4647 Q535.1514,223.8128 537.6582,223.8128 Q538.3638,223.8128 539.0112,223.9622 Q539.6587,224.1116 540.2231,224.4105 L540.2231,227.1331 Q539.5923,226.5521 538.9988,226.2823 Q538.4053,226.0125 537.7744,226.0125 Q536.4297,226.0125 535.7449,227.0792 Q535.0601,228.1458 535.0601,230.2459 Q535.0601,232.3377 535.7449,233.4044 Q536.4297,234.471 537.7744,234.471 Q538.4053,234.471 538.9988,234.2012 Q539.5923,233.9315 540.2231,233.3504 Z " fill="#000000"/><text fill="#000000" font-family="sans-serif" font-size="14" lengthAdjust="spacing" textLength="35" x="558.25" y="235.221">Kode</text><line style="stroke:#181818;stroke-width:0.5;" x1="468.5" x2="650.5" y1="245.93" y2="245.93"/><ellipse cx="478.5" cy="259.6741" fill="none" rx="3" ry="3" style="stroke:#038048;stroke-width:1.0;"/><text fill="#000000" font-family="sans-serif" font-size="14" lengthAdjust="spacing" textLength="116" x="487.5" y="263.4652">kodeverdi: string</text><ellipse cx="478.5" cy="276.1624" fill="none" rx="3" ry="3" style="stroke:#038048;stroke-width:1.0;"/><text fill="#000000" font-family="sans-serif" font-size="14" lengthAdjust="spacing" textLength="158" x="487.5" y="279.9534">kodebeskrivelse: string</text><line style="stroke:#181818;stroke-width:0.5;" x1="468.5" x2="650.5" y1="286.9066" y2="286.9066"/></g><g id="elem_GMN9"><path d="M6,67.81 L6,93.1205 A0,0 0 0 0 6,93.1205 L215.11,93.1205 L293.79,230.18 L223.11,93.1205 L419,93.1205 A0,0 0 0 0 419,93.1205 L419,77.81 L409,67.81 L6,67.81 A0,0 0 0 0 6,67.81 " fill="#FEFFDD" style="stroke:#181818;stroke-width:0.5;"/><path d="M409,67.81 L409,77.81 L419,77.81 L409,67.81 " fill="#FEFFDD" style="stroke:#181818;stroke-width:0.5;"/><text fill="#000000" font-family="sans-serif" font-size="13" lengthAdjust="spacing" textLength="392" x="12" y="85.3784">Se detaljer i diagram for skjema 'no.ks.fiks.plan.v2.felles.flate'</text></g><g id="elem_GMN12"><path d="M700.5,67.81 L700.5,93.1205 A0,0 0 0 0 700.5,93.1205 L922.96,93.1205 L853.07,230.18 L930.96,93.1205 L1166.5,93.1205 A0,0 0 0 0 1166.5,93.1205 L1166.5,77.81 L1156.5,67.81 L700.5,67.81 A0,0 0 0 0 700.5,67.81 " fill="#FEFFDD" style="stroke:#181818;stroke-width:0.5;"/><path d="M1156.5,67.81 L1156.5,77.81 L1166.5,77.81 L1156.5,67.81 " fill="#FEFFDD" style="stroke:#181818;stroke-width:0.5;"/><text fill="#000000" font-family="sans-serif" font-size="13" lengthAdjust="spacing" textLength="445" x="706.5" y="85.3784">Se detaljer i diagram for skjema 'no.ks.fiks.plan.v2.felles.saksnummer'</text></g><!--link MidlertidigForbud to Flate--><g id="link_MidlertidigForbud_Flate"><path codeLine="10" d="M453.67,153.4 C412.51,181.37 368.34,211.39 339.25,231.16 " fill="none" id="MidlertidigForbud-Flate" style="stroke:#181818;stroke-width:1.0;"/></g><!--link MidlertidigForbud to Saksnummer--><g id="link_MidlertidigForbud_Saksnummer"><path codeLine="11" d="M665.33,146.23 C713.41,175.65 767.26,208.6 802.4,230.11 " fill="none" id="MidlertidigForbud-Saksnummer" style="stroke:#181818;stroke-width:1.0;"/></g><!--link MidlertidigForbud to Kode--><g id="link_MidlertidigForbud_Kode"><path codeLine="12" d="M559.5,154.39 C559.5,174.71 559.5,196.03 559.5,213.66 " fill="none" id="MidlertidigForbud-Kode" style="stroke:#181818;stroke-width:1.0;"/></g><!--SRC=[fL4nRiCm3Dpr2cuUYdZewBd84dHgFq17j22BaWnA4H04_Nlbs77IDbir40HFF1vvHyQKuDrg9ibMMxEFqfyqN1JKznAz86hgOC-OQQabT2cSl2Vfu6FB5moB6IC9SIADENQWjxQfvq_B6Tqo8P-dIdk8UeNDcUlq-kFjLzyg8M097QGiDXZrfTHVoRlTgl8fzA3qANvLeaBC13bE48U53EgE19eoyaW25hH58-XXY0B9ZUGHcX1Rbzh1rZ0nXhQyjWCnKwtD7CqFshkGVtBVVMYKEbvzd9UuMUTgNaYqtQwsbNjAJcoPNNeuwJS0]--></g></svg>