<?xml version="1.0" encoding="us-ascii" standalone="no"?><svg xmlns="http://www.w3.org/2000/svg" xmlns:xlink="http://www.w3.org/1999/xlink" contentStyleType="text/css" height="947px" preserveAspectRatio="none" style="width:970px;height:947px;background:#FFFFFF;" version="1.1" viewBox="0 0 970 947" width="970px" zoomAndPan="magnify"><defs/><g><rect fill="#F1F1F1" height="81.9531" rx="5" ry="5" style="stroke:#F1F1F1;stroke-width:1.5;" width="283" x="10" y="400.5"/><text fill="#000000" font-family="sans-serif" font-size="14" font-weight="bold" lengthAdjust="spacing" textLength="101" x="15" y="416.0352">protokollnavn</text><text fill="#000000" font-family="sans-serif" font-size="14" lengthAdjust="spacing" textLength="99" x="126" y="416.0352">no.ks.fiks.plan</text><line style="stroke:#000000;stroke-width:1.0;" x1="121" x2="121" y1="400.5" y2="420.9883"/><line style="stroke:#000000;stroke-width:1.0;" x1="10" x2="293" y1="420.9883" y2="420.9883"/><text fill="#000000" font-family="sans-serif" font-size="14" font-weight="bold" lengthAdjust="spacing" textLength="34" x="15" y="436.5234">navn</text><text fill="#000000" font-family="sans-serif" font-size="14" lengthAdjust="spacing" textLength="162" x="126" y="436.5234">plandispensasjonstyper</text><line style="stroke:#000000;stroke-width:1.0;" x1="121" x2="121" y1="420.9883" y2="441.4766"/><line style="stroke:#000000;stroke-width:1.0;" x1="10" x2="293" y1="441.4766" y2="441.4766"/><text fill="#000000" font-family="sans-serif" font-size="14" font-weight="bold" lengthAdjust="spacing" textLength="53" x="15" y="457.0117">versjon</text><text fill="#000000" font-family="sans-serif" font-size="14" lengthAdjust="spacing" textLength="16" x="126" y="457.0117">v2</text><line style="stroke:#000000;stroke-width:1.0;" x1="121" x2="121" y1="441.4766" y2="461.9648"/><line style="stroke:#000000;stroke-width:1.0;" x1="10" x2="293" y1="461.9648" y2="461.9648"/><text fill="#000000" font-family="sans-serif" font-size="14" font-weight="bold" lengthAdjust="spacing" textLength="67" x="15" y="477.5">kodeliste</text><text fill="#000000" font-family="sans-serif" font-size="14" lengthAdjust="spacing" textLength="12" x="126" y="477.5">&#160;&#160;&#160;</text><line style="stroke:#000000;stroke-width:1.0;" x1="121" x2="121" y1="461.9648" y2="482.4531"/><rect fill="none" height="81.9531" rx="5" ry="5" style="stroke:#000000;stroke-width:1.5;" width="283" x="10" y="400.5"/><rect fill="#F1F1F1" height="327.8125" rx="5" ry="5" style="stroke:#F1F1F1;stroke-width:1.5;" width="22" x="330" y="308.5"/><text fill="#000000" font-family="sans-serif" font-size="14" lengthAdjust="spacing" textLength="12" x="335" y="324.0352">&#160;&#160;&#160;</text><line style="stroke:#000000;stroke-width:1.0;" x1="330" x2="352" y1="328.9883" y2="328.9883"/><text fill="#000000" font-family="sans-serif" font-size="14" lengthAdjust="spacing" textLength="12" x="335" y="344.5234">&#160;&#160;&#160;</text><line style="stroke:#000000;stroke-width:1.0;" x1="330" x2="352" y1="349.4766" y2="349.4766"/><text fill="#000000" font-family="sans-serif" font-size="14" lengthAdjust="spacing" textLength="12" x="335" y="365.0117">&#160;&#160;&#160;</text><line style="stroke:#000000;stroke-width:1.0;" x1="330" x2="352" y1="369.9648" y2="369.9648"/><text fill="#000000" font-family="sans-serif" font-size="14" lengthAdjust="spacing" textLength="12" x="335" y="385.5">&#160;&#160;&#160;</text><line style="stroke:#000000;stroke-width:1.0;" x1="330" x2="352" y1="390.4531" y2="390.4531"/><text fill="#000000" font-family="sans-serif" font-size="14" lengthAdjust="spacing" textLength="12" x="335" y="405.9883">&#160;&#160;&#160;</text><line style="stroke:#000000;stroke-width:1.0;" x1="330" x2="352" y1="410.9414" y2="410.9414"/><text fill="#000000" font-family="sans-serif" font-size="14" lengthAdjust="spacing" textLength="12" x="335" y="426.4766">&#160;&#160;&#160;</text><line style="stroke:#000000;stroke-width:1.0;" x1="330" x2="352" y1="431.4297" y2="431.4297"/><text fill="#000000" font-family="sans-serif" font-size="14" lengthAdjust="spacing" textLength="12" x="335" y="446.9648">&#160;&#160;&#160;</text><line style="stroke:#000000;stroke-width:1.0;" x1="330" x2="352" y1="451.918" y2="451.918"/><text fill="#000000" font-family="sans-serif" font-size="14" lengthAdjust="spacing" textLength="12" x="335" y="467.4531">&#160;&#160;&#160;</text><line style="stroke:#000000;stroke-width:1.0;" x1="330" x2="352" y1="472.4063" y2="472.4063"/><text fill="#000000" font-family="sans-serif" font-size="14" lengthAdjust="spacing" textLength="12" x="335" y="487.9414">&#160;&#160;&#160;</text><line style="stroke:#000000;stroke-width:1.0;" x1="330" x2="352" y1="492.8945" y2="492.8945"/><text fill="#000000" font-family="sans-serif" font-size="14" lengthAdjust="spacing" textLength="12" x="335" y="508.4297">&#160;&#160;&#160;</text><line style="stroke:#000000;stroke-width:1.0;" x1="330" x2="352" y1="513.3828" y2="513.3828"/><text fill="#000000" font-family="sans-serif" font-size="14" lengthAdjust="spacing" textLength="12" x="335" y="528.918">&#160;&#160;&#160;</text><line style="stroke:#000000;stroke-width:1.0;" x1="330" x2="352" y1="533.8711" y2="533.8711"/><text fill="#000000" font-family="sans-serif" font-size="14" lengthAdjust="spacing" textLength="12" x="335" y="549.4063">&#160;&#160;&#160;</text><line style="stroke:#000000;stroke-width:1.0;" x1="330" x2="352" y1="554.3594" y2="554.3594"/><text fill="#000000" font-family="sans-serif" font-size="14" lengthAdjust="spacing" textLength="12" x="335" y="569.8945">&#160;&#160;&#160;</text><line style="stroke:#000000;stroke-width:1.0;" x1="330" x2="352" y1="574.8477" y2="574.8477"/><text fill="#000000" font-family="sans-serif" font-size="14" lengthAdjust="spacing" textLength="12" x="335" y="590.3828">&#160;&#160;&#160;</text><line style="stroke:#000000;stroke-width:1.0;" x1="330" x2="352" y1="595.3359" y2="595.3359"/><text fill="#000000" font-family="sans-serif" font-size="14" lengthAdjust="spacing" textLength="12" x="335" y="610.8711">&#160;&#160;&#160;</text><line style="stroke:#000000;stroke-width:1.0;" x1="330" x2="352" y1="615.8242" y2="615.8242"/><text fill="#000000" font-family="sans-serif" font-size="14" lengthAdjust="spacing" textLength="12" x="335" y="631.3594">&#160;&#160;&#160;</text><rect fill="none" height="327.8125" rx="5" ry="5" style="stroke:#000000;stroke-width:1.5;" width="22" x="330" y="308.5"/><rect fill="#F1F1F1" height="40.9766" rx="5" ry="5" style="stroke:#F1F1F1;stroke-width:1.5;" width="436" x="455.5" y="10"/><text fill="#000000" font-family="sans-serif" font-size="14" font-weight="bold" lengthAdjust="spacing" textLength="71" x="460.5" y="25.5352">kodeverdi</text><text fill="#000000" font-family="sans-serif" font-size="14" lengthAdjust="spacing" textLength="27" x="587.5" y="25.5352">111</text><line style="stroke:#000000;stroke-width:1.0;" x1="582.5" x2="582.5" y1="10" y2="30.4883"/><line style="stroke:#000000;stroke-width:1.0;" x1="455.5" x2="891.5" y1="30.4883" y2="30.4883"/><text fill="#000000" font-family="sans-serif" font-size="14" font-weight="bold" lengthAdjust="spacing" textLength="117" x="460.5" y="46.0234">kodebeskrivelse</text><text fill="#000000" font-family="sans-serif" font-size="14" lengthAdjust="spacing" textLength="299" x="587.5" y="46.0234">Forbud mot tiltak mv. langs sj&#248; og vassdrag</text><line style="stroke:#000000;stroke-width:1.0;" x1="582.5" x2="582.5" y1="30.4883" y2="50.9766"/><rect fill="none" height="40.9766" rx="5" ry="5" style="stroke:#000000;stroke-width:1.5;" width="436" x="455.5" y="10"/><rect fill="#F1F1F1" height="40.9766" rx="5" ry="5" style="stroke:#F1F1F1;stroke-width:1.5;" width="399" x="474" y="69"/><text fill="#000000" font-family="sans-serif" font-size="14" font-weight="bold" lengthAdjust="spacing" textLength="71" x="479" y="84.5352">kodeverdi</text><text fill="#000000" font-family="sans-serif" font-size="14" lengthAdjust="spacing" textLength="27" x="606" y="84.5352">140</text><line style="stroke:#000000;stroke-width:1.0;" x1="601" x2="601" y1="69" y2="89.4883"/><line style="stroke:#000000;stroke-width:1.0;" x1="474" x2="873" y1="89.4883" y2="89.4883"/><text fill="#000000" font-family="sans-serif" font-size="14" font-weight="bold" lengthAdjust="spacing" textLength="117" x="479" y="105.0234">kodebeskrivelse</text><text fill="#000000" font-family="sans-serif" font-size="14" lengthAdjust="spacing" textLength="262" x="606" y="105.0234">Arealbruk-/form&#229;l kommune(del)plan</text><line style="stroke:#000000;stroke-width:1.0;" x1="601" x2="601" y1="89.4883" y2="109.9766"/><rect fill="none" height="40.9766" rx="5" ry="5" style="stroke:#000000;stroke-width:1.5;" width="399" x="474" y="69"/><rect fill="#F1F1F1" height="40.9766" rx="5" ry="5" style="stroke:#F1F1F1;stroke-width:1.5;" width="421" x="463" y="128"/><text fill="#000000" font-family="sans-serif" font-size="14" font-weight="bold" lengthAdjust="spacing" textLength="71" x="468" y="143.5352">kodeverdi</text><text fill="#000000" font-family="sans-serif" font-size="14" lengthAdjust="spacing" textLength="27" x="595" y="143.5352">141</text><line style="stroke:#000000;stroke-width:1.0;" x1="590" x2="590" y1="128" y2="148.4883"/><line style="stroke:#000000;stroke-width:1.0;" x1="463" x2="884" y1="148.4883" y2="148.4883"/><text fill="#000000" font-family="sans-serif" font-size="14" font-weight="bold" lengthAdjust="spacing" textLength="117" x="468" y="164.0234">kodebeskrivelse</text><text fill="#000000" font-family="sans-serif" font-size="14" lengthAdjust="spacing" textLength="284" x="595" y="164.0234">KpArealform&#229;l gr&#248;nnstruktur &#167; 11-7 nr.3</text><line style="stroke:#000000;stroke-width:1.0;" x1="590" x2="590" y1="148.4883" y2="168.9766"/><rect fill="none" height="40.9766" rx="5" ry="5" style="stroke:#000000;stroke-width:1.5;" width="421" x="463" y="128"/><rect fill="#F1F1F1" height="40.9766" rx="5" ry="5" style="stroke:#F1F1F1;stroke-width:1.5;" width="358" x="494.5" y="187"/><text fill="#000000" font-family="sans-serif" font-size="14" font-weight="bold" lengthAdjust="spacing" textLength="71" x="499.5" y="202.5352">kodeverdi</text><text fill="#000000" font-family="sans-serif" font-size="14" lengthAdjust="spacing" textLength="27" x="626.5" y="202.5352">142</text><line style="stroke:#000000;stroke-width:1.0;" x1="621.5" x2="621.5" y1="187" y2="207.4883"/><line style="stroke:#000000;stroke-width:1.0;" x1="494.5" x2="852.5" y1="207.4883" y2="207.4883"/><text fill="#000000" font-family="sans-serif" font-size="14" font-weight="bold" lengthAdjust="spacing" textLength="117" x="499.5" y="223.0234">kodebeskrivelse</text><text fill="#000000" font-family="sans-serif" font-size="14" lengthAdjust="spacing" textLength="221" x="626.5" y="223.0234">KpArealform&#229;l LNFR &#167; 11-7 nr.5</text><line style="stroke:#000000;stroke-width:1.0;" x1="621.5" x2="621.5" y1="207.4883" y2="227.9766"/><rect fill="none" height="40.9766" rx="5" ry="5" style="stroke:#000000;stroke-width:1.5;" width="358" x="494.5" y="187"/><rect fill="#F1F1F1" height="40.9766" rx="5" ry="5" style="stroke:#F1F1F1;stroke-width:1.5;" width="552" x="397.5" y="246"/><text fill="#000000" font-family="sans-serif" font-size="14" font-weight="bold" lengthAdjust="spacing" textLength="71" x="402.5" y="261.5352">kodeverdi</text><text fill="#000000" font-family="sans-serif" font-size="14" lengthAdjust="spacing" textLength="27" x="529.5" y="261.5352">143</text><line style="stroke:#000000;stroke-width:1.0;" x1="524.5" x2="524.5" y1="246" y2="266.4883"/><line style="stroke:#000000;stroke-width:1.0;" x1="397.5" x2="949.5" y1="266.4883" y2="266.4883"/><text fill="#000000" font-family="sans-serif" font-size="14" font-weight="bold" lengthAdjust="spacing" textLength="117" x="402.5" y="282.0234">kodebeskrivelse</text><text fill="#000000" font-family="sans-serif" font-size="14" lengthAdjust="spacing" textLength="415" x="529.5" y="282.0234">KpArealform&#229;l bruk/vern sj&#248;/vassdr/strandsone &#167; 11-7 nr.6</text><line style="stroke:#000000;stroke-width:1.0;" x1="524.5" x2="524.5" y1="266.4883" y2="286.9766"/><rect fill="none" height="40.9766" rx="5" ry="5" style="stroke:#000000;stroke-width:1.5;" width="552" x="397.5" y="246"/><rect fill="#F1F1F1" height="40.9766" rx="5" ry="5" style="stroke:#F1F1F1;stroke-width:1.5;" width="366" x="490.5" y="305"/><text fill="#000000" font-family="sans-serif" font-size="14" font-weight="bold" lengthAdjust="spacing" textLength="71" x="495.5" y="320.5352">kodeverdi</text><text fill="#000000" font-family="sans-serif" font-size="14" lengthAdjust="spacing" textLength="27" x="622.5" y="320.5352">150</text><line style="stroke:#000000;stroke-width:1.0;" x1="617.5" x2="617.5" y1="305" y2="325.4883"/><line style="stroke:#000000;stroke-width:1.0;" x1="490.5" x2="856.5" y1="325.4883" y2="325.4883"/><text fill="#000000" font-family="sans-serif" font-size="14" font-weight="bold" lengthAdjust="spacing" textLength="117" x="495.5" y="341.0234">kodebeskrivelse</text><text fill="#000000" font-family="sans-serif" font-size="14" lengthAdjust="spacing" textLength="229" x="622.5" y="341.0234">Bestemmelser kommune(del)plan</text><line style="stroke:#000000;stroke-width:1.0;" x1="617.5" x2="617.5" y1="325.4883" y2="345.9766"/><rect fill="none" height="40.9766" rx="5" ry="5" style="stroke:#000000;stroke-width:1.5;" width="366" x="490.5" y="305"/><rect fill="#F1F1F1" height="40.9766" rx="5" ry="5" style="stroke:#F1F1F1;stroke-width:1.5;" width="478" x="434.5" y="364"/><text fill="#000000" font-family="sans-serif" font-size="14" font-weight="bold" lengthAdjust="spacing" textLength="71" x="439.5" y="379.5352">kodeverdi</text><text fill="#000000" font-family="sans-serif" font-size="14" lengthAdjust="spacing" textLength="27" x="566.5" y="379.5352">160</text><line style="stroke:#000000;stroke-width:1.0;" x1="561.5" x2="561.5" y1="364" y2="384.4883"/><line style="stroke:#000000;stroke-width:1.0;" x1="434.5" x2="912.5" y1="384.4883" y2="384.4883"/><text fill="#000000" font-family="sans-serif" font-size="14" font-weight="bold" lengthAdjust="spacing" textLength="117" x="439.5" y="400.0234">kodebeskrivelse</text><text fill="#000000" font-family="sans-serif" font-size="14" lengthAdjust="spacing" textLength="341" x="566.5" y="400.0234">Arealbruk-/form&#229;l regulerings-/bebyggelsesplan</text><line style="stroke:#000000;stroke-width:1.0;" x1="561.5" x2="561.5" y1="384.4883" y2="404.9766"/><rect fill="none" height="40.9766" rx="5" ry="5" style="stroke:#000000;stroke-width:1.5;" width="478" x="434.5" y="364"/><rect fill="#F1F1F1" height="40.9766" rx="5" ry="5" style="stroke:#F1F1F1;stroke-width:1.5;" width="421" x="463" y="423"/><text fill="#000000" font-family="sans-serif" font-size="14" font-weight="bold" lengthAdjust="spacing" textLength="71" x="468" y="438.5352">kodeverdi</text><text fill="#000000" font-family="sans-serif" font-size="14" lengthAdjust="spacing" textLength="27" x="595" y="438.5352">161</text><line style="stroke:#000000;stroke-width:1.0;" x1="590" x2="590" y1="423" y2="443.4883"/><line style="stroke:#000000;stroke-width:1.0;" x1="463" x2="884" y1="443.4883" y2="443.4883"/><text fill="#000000" font-family="sans-serif" font-size="14" font-weight="bold" lengthAdjust="spacing" textLength="117" x="468" y="459.0234">kodebeskrivelse</text><text fill="#000000" font-family="sans-serif" font-size="14" lengthAdjust="spacing" textLength="284" x="595" y="459.0234">RpArealform&#229;l gr&#248;nnstruktur &#167; 12-5 nr.3</text><line style="stroke:#000000;stroke-width:1.0;" x1="590" x2="590" y1="443.4883" y2="463.9766"/><rect fill="none" height="40.9766" rx="5" ry="5" style="stroke:#000000;stroke-width:1.5;" width="421" x="463" y="423"/><rect fill="#F1F1F1" height="40.9766" rx="5" ry="5" style="stroke:#F1F1F1;stroke-width:1.5;" width="358" x="494.5" y="482"/><text fill="#000000" font-family="sans-serif" font-size="14" font-weight="bold" lengthAdjust="spacing" textLength="71" x="499.5" y="497.5352">kodeverdi</text><text fill="#000000" font-family="sans-serif" font-size="14" lengthAdjust="spacing" textLength="27" x="626.5" y="497.5352">162</text><line style="stroke:#000000;stroke-width:1.0;" x1="621.5" x2="621.5" y1="482" y2="502.4883"/><line style="stroke:#000000;stroke-width:1.0;" x1="494.5" x2="852.5" y1="502.4883" y2="502.4883"/><text fill="#000000" font-family="sans-serif" font-size="14" font-weight="bold" lengthAdjust="spacing" textLength="117" x="499.5" y="518.0234">kodebeskrivelse</text><text fill="#000000" font-family="sans-serif" font-size="14" lengthAdjust="spacing" textLength="221" x="626.5" y="518.0234">RpArealform&#229;l LNFR &#167; 12-5 nr.5</text><line style="stroke:#000000;stroke-width:1.0;" x1="621.5" x2="621.5" y1="502.4883" y2="522.9766"/><rect fill="none" height="40.9766" rx="5" ry="5" style="stroke:#000000;stroke-width:1.5;" width="358" x="494.5" y="482"/><rect fill="#F1F1F1" height="40.9766" rx="5" ry="5" style="stroke:#F1F1F1;stroke-width:1.5;" width="569" x="389" y="541"/><text fill="#000000" font-family="sans-serif" font-size="14" font-weight="bold" lengthAdjust="spacing" textLength="71" x="394" y="556.5352">kodeverdi</text><text fill="#000000" font-family="sans-serif" font-size="14" lengthAdjust="spacing" textLength="27" x="521" y="556.5352">163</text><line style="stroke:#000000;stroke-width:1.0;" x1="516" x2="516" y1="541" y2="561.4883"/><line style="stroke:#000000;stroke-width:1.0;" x1="389" x2="958" y1="561.4883" y2="561.4883"/><text fill="#000000" font-family="sans-serif" font-size="14" font-weight="bold" lengthAdjust="spacing" textLength="117" x="394" y="577.0234">kodebeskrivelse</text><text fill="#000000" font-family="sans-serif" font-size="14" lengthAdjust="spacing" textLength="432" x="521" y="577.0234">RpArealform&#229;l bruk/vern sj&#248;/vassdrag/strandsone &#167; 12-5 nr.6</text><line style="stroke:#000000;stroke-width:1.0;" x1="516" x2="516" y1="561.4883" y2="581.9766"/><rect fill="none" height="40.9766" rx="5" ry="5" style="stroke:#000000;stroke-width:1.5;" width="569" x="389" y="541"/><rect fill="#F1F1F1" height="40.9766" rx="5" ry="5" style="stroke:#F1F1F1;stroke-width:1.5;" width="445" x="451" y="600"/><text fill="#000000" font-family="sans-serif" font-size="14" font-weight="bold" lengthAdjust="spacing" textLength="71" x="456" y="615.5352">kodeverdi</text><text fill="#000000" font-family="sans-serif" font-size="14" lengthAdjust="spacing" textLength="27" x="583" y="615.5352">165</text><line style="stroke:#000000;stroke-width:1.0;" x1="578" x2="578" y1="600" y2="620.4883"/><line style="stroke:#000000;stroke-width:1.0;" x1="451" x2="896" y1="620.4883" y2="620.4883"/><text fill="#000000" font-family="sans-serif" font-size="14" font-weight="bold" lengthAdjust="spacing" textLength="117" x="456" y="636.0234">kodebeskrivelse</text><text fill="#000000" font-family="sans-serif" font-size="14" lengthAdjust="spacing" textLength="308" x="583" y="636.0234">Bestemmelser regulerings-/bebyggelsesplan</text><line style="stroke:#000000;stroke-width:1.0;" x1="578" x2="578" y1="620.4883" y2="640.9766"/><rect fill="none" height="40.9766" rx="5" ry="5" style="stroke:#000000;stroke-width:1.5;" width="445" x="451" y="600"/><rect fill="#F1F1F1" height="40.9766" rx="5" ry="5" style="stroke:#F1F1F1;stroke-width:1.5;" width="227" x="560" y="659"/><text fill="#000000" font-family="sans-serif" font-size="14" font-weight="bold" lengthAdjust="spacing" textLength="71" x="565" y="674.5352">kodeverdi</text><text fill="#000000" font-family="sans-serif" font-size="14" lengthAdjust="spacing" textLength="27" x="692" y="674.5352">170</text><line style="stroke:#000000;stroke-width:1.0;" x1="687" x2="687" y1="659" y2="679.4883"/><line style="stroke:#000000;stroke-width:1.0;" x1="560" x2="787" y1="679.4883" y2="679.4883"/><text fill="#000000" font-family="sans-serif" font-size="14" font-weight="bold" lengthAdjust="spacing" textLength="117" x="565" y="695.0234">kodebeskrivelse</text><text fill="#000000" font-family="sans-serif" font-size="14" lengthAdjust="spacing" textLength="90" x="692" y="695.0234">Hensynssone</text><line style="stroke:#000000;stroke-width:1.0;" x1="687" x2="687" y1="679.4883" y2="699.9766"/><rect fill="none" height="40.9766" rx="5" ry="5" style="stroke:#000000;stroke-width:1.5;" width="227" x="560" y="659"/><rect fill="#F1F1F1" height="40.9766" rx="5" ry="5" style="stroke:#F1F1F1;stroke-width:1.5;" width="521" x="413" y="718"/><text fill="#000000" font-family="sans-serif" font-size="14" font-weight="bold" lengthAdjust="spacing" textLength="71" x="418" y="733.5352">kodeverdi</text><text fill="#000000" font-family="sans-serif" font-size="14" lengthAdjust="spacing" textLength="27" x="545" y="733.5352">171</text><line style="stroke:#000000;stroke-width:1.0;" x1="540" x2="540" y1="718" y2="738.4883"/><line style="stroke:#000000;stroke-width:1.0;" x1="413" x2="934" y1="738.4883" y2="738.4883"/><text fill="#000000" font-family="sans-serif" font-size="14" font-weight="bold" lengthAdjust="spacing" textLength="117" x="418" y="754.0234">kodebeskrivelse</text><text fill="#000000" font-family="sans-serif" font-size="14" lengthAdjust="spacing" textLength="384" x="545" y="754.0234">Sikrings, st&#248;y- og faresone &#167; 11-8 tredje ledd bokstav a</text><line style="stroke:#000000;stroke-width:1.0;" x1="540" x2="540" y1="738.4883" y2="758.9766"/><rect fill="none" height="40.9766" rx="5" ry="5" style="stroke:#000000;stroke-width:1.5;" width="521" x="413" y="718"/><rect fill="#F1F1F1" height="40.9766" rx="5" ry="5" style="stroke:#F1F1F1;stroke-width:1.5;" width="457" x="445" y="777"/><text fill="#000000" font-family="sans-serif" font-size="14" font-weight="bold" lengthAdjust="spacing" textLength="71" x="450" y="792.5352">kodeverdi</text><text fill="#000000" font-family="sans-serif" font-size="14" lengthAdjust="spacing" textLength="27" x="577" y="792.5352">172</text><line style="stroke:#000000;stroke-width:1.0;" x1="572" x2="572" y1="777" y2="797.4883"/><line style="stroke:#000000;stroke-width:1.0;" x1="445" x2="902" y1="797.4883" y2="797.4883"/><text fill="#000000" font-family="sans-serif" font-size="14" font-weight="bold" lengthAdjust="spacing" textLength="117" x="450" y="813.0234">kodebeskrivelse</text><text fill="#000000" font-family="sans-serif" font-size="14" lengthAdjust="spacing" textLength="320" x="577" y="813.0234">Infrastruktursone &#167; 11-8 tredje ledd bokstav b</text><line style="stroke:#000000;stroke-width:1.0;" x1="572" x2="572" y1="797.4883" y2="817.9766"/><rect fill="none" height="40.9766" rx="5" ry="5" style="stroke:#000000;stroke-width:1.5;" width="457" x="445" y="777"/><rect fill="#F1F1F1" height="40.9766" rx="5" ry="5" style="stroke:#F1F1F1;stroke-width:1.5;" width="546" x="400.5" y="836"/><text fill="#000000" font-family="sans-serif" font-size="14" font-weight="bold" lengthAdjust="spacing" textLength="71" x="405.5" y="851.5352">kodeverdi</text><text fill="#000000" font-family="sans-serif" font-size="14" lengthAdjust="spacing" textLength="27" x="532.5" y="851.5352">173</text><line style="stroke:#000000;stroke-width:1.0;" x1="527.5" x2="527.5" y1="836" y2="856.4883"/><line style="stroke:#000000;stroke-width:1.0;" x1="400.5" x2="946.5" y1="856.4883" y2="856.4883"/><text fill="#000000" font-family="sans-serif" font-size="14" font-weight="bold" lengthAdjust="spacing" textLength="117" x="405.5" y="872.0234">kodebeskrivelse</text><text fill="#000000" font-family="sans-serif" font-size="14" lengthAdjust="spacing" textLength="409" x="532.5" y="872.0234">Randsone rundt verneomr&#229;der &#167; 11-8 tredje ledd bokstav c</text><line style="stroke:#000000;stroke-width:1.0;" x1="527.5" x2="527.5" y1="856.4883" y2="876.9766"/><rect fill="none" height="40.9766" rx="5" ry="5" style="stroke:#000000;stroke-width:1.5;" width="546" x="400.5" y="836"/><rect fill="#F1F1F1" height="40.9766" rx="5" ry="5" style="stroke:#F1F1F1;stroke-width:1.5;" width="463" x="442" y="895"/><text fill="#000000" font-family="sans-serif" font-size="14" font-weight="bold" lengthAdjust="spacing" textLength="71" x="447" y="910.5352">kodeverdi</text><text fill="#000000" font-family="sans-serif" font-size="14" lengthAdjust="spacing" textLength="27" x="574" y="910.5352">174</text><line style="stroke:#000000;stroke-width:1.0;" x1="569" x2="569" y1="895" y2="915.4883"/><line style="stroke:#000000;stroke-width:1.0;" x1="442" x2="905" y1="915.4883" y2="915.4883"/><text fill="#000000" font-family="sans-serif" font-size="14" font-weight="bold" lengthAdjust="spacing" textLength="117" x="447" y="931.0234">kodebeskrivelse</text><text fill="#000000" font-family="sans-serif" font-size="14" lengthAdjust="spacing" textLength="326" x="574" y="931.0234">B&#229;ndleggingssone &#167; 11-8 tredje ledd bokstav d</text><line style="stroke:#000000;stroke-width:1.0;" x1="569" x2="569" y1="915.4883" y2="935.9766"/><rect fill="none" height="40.9766" rx="5" ry="5" style="stroke:#000000;stroke-width:1.5;" width="463" x="442" y="895"/><path d="M340,318.5 L353,318.5 C411.1089,318.5 347.1708,99.8356 389,59.5 C405.9816,43.1247 426.4665,31.8363 448.5648,24.3091 " fill="none" style="stroke:#000000;stroke-width:1.0;stroke-dasharray:3.0,3.0;"/><path d="M449.4902,27.2008 L450.7335,23.6151 L447.6395,21.4175 L455.7939,21.9957 L449.4902,27.2008 " fill="#000000" style="stroke:#000000;stroke-width:1.0;"/><ellipse cx="340" cy="318.5" fill="#000000" rx="3" ry="3" style="stroke:#000000;stroke-width:1.0;"/><path d="M340,339.5 L353,339.5 C402.7584,339.5 352.7807,152.6184 389,118.5 C410.7007,98.058 437.8833,85.6214 466.7735,78.5568 " fill="none" style="stroke:#000000;stroke-width:1.0;stroke-dasharray:3.0,3.0;"/><path d="M467.4462,81.5086 L468.9873,78.0522 L466.1007,75.605 L474.1529,76.8748 L467.4462,81.5086 " fill="#000000" style="stroke:#000000;stroke-width:1.0;"/><ellipse cx="340" cy="339.5" fill="#000000" rx="3" ry="3" style="stroke:#000000;stroke-width:1.0;"/><path d="M340,359.5 L353,359.5 C435.4561,359.5 328.033,233.0161 389,177.5 C408.0946,160.1125 431.182,148.6018 455.8456,141.2957 " fill="none" style="stroke:#000000;stroke-width:1.0;stroke-dasharray:3.0,3.0;"/><path d="M456.6626,144.2347 L458.0499,140.683 L455.0287,138.3567 L463.1932,139.2534 L456.6626,144.2347 " fill="#000000" style="stroke:#000000;stroke-width:1.0;"/><ellipse cx="340" cy="359.5" fill="#000000" rx="3" ry="3" style="stroke:#000000;stroke-width:1.0;"/><path d="M340,380.5 L353,380.5 C418.9697,380.5 339.1344,279.6905 389,236.5 C416.3683,212.7953 451.2438,200.258 487.1132,194.445 " fill="none" style="stroke:#000000;stroke-width:1.0;stroke-dasharray:3.0,3.0;"/><path d="M487.5692,197.5118 L489.4133,194.103 L486.6572,191.3782 L494.7801,193.305 L487.5692,197.5118 " fill="#000000" style="stroke:#000000;stroke-width:1.0;"/><ellipse cx="340" cy="380.5" fill="#000000" rx="3" ry="3" style="stroke:#000000;stroke-width:1.0;"/><path d="M340,400.5 L353,400.5 C402.3333,400.5 350.3661,326.179 389,295.5 C390.7739,294.0914 392.5749,292.7238 394.4016,291.3963 " fill="none" style="stroke:#000000;stroke-width:1.0;stroke-dasharray:3.0,3.0;"/><path d="M396.146,293.9192 L396.2938,290.088 L392.6573,288.8733 L400.709,287.0355 L396.146,293.9192 " fill="#000000" style="stroke:#000000;stroke-width:1.0;"/><ellipse cx="340" cy="400.5" fill="#000000" rx="3" ry="3" style="stroke:#000000;stroke-width:1.0;"/><path d="M340,421.5 L353,421.5 C386.4132,421.5 361.2049,374.0439 389,355.5 C416.8949,336.8895 449.8737,326.0187 483.3029,320.097 " fill="none" style="stroke:#000000;stroke-width:1.0;stroke-dasharray:3.0,3.0;"/><path d="M483.8069,323.1332 L485.5801,319.7191 L482.799,317.0608 L490.8934,318.8372 L483.8069,323.1332 " fill="#000000" style="stroke:#000000;stroke-width:1.0;"/><ellipse cx="340" cy="421.5" fill="#000000" rx="3" ry="3" style="stroke:#000000;stroke-width:1.0;"/><path d="M340,441.5 L353,441.5 C373,441.5 370.3853,421.8138 389,414.5 C401.362,409.6429 414.2468,405.4739 427.4095,401.902 " fill="none" style="stroke:#000000;stroke-width:1.0;stroke-dasharray:3.0,3.0;"/><path d="M428.1789,404.8379 L429.6114,401.325 L426.6401,398.9662 L434.7491,399.9786 L428.1789,404.8379 " fill="#000000" style="stroke:#000000;stroke-width:1.0;"/><ellipse cx="340" cy="441.5" fill="#000000" rx="3" ry="3" style="stroke:#000000;stroke-width:1.0;"/><path d="M340,462.5 L353,462.5 C386.1138,462.5 421.1212,461.4736 455.3532,459.898 " fill="none" style="stroke:#000000;stroke-width:1.0;stroke-dasharray:3.0,3.0;"/><path d="M455.4999,462.999 L457.6789,459.788 L455.2065,456.797 L463.1057,459.5313 L455.4999,462.999 " fill="#000000" style="stroke:#000000;stroke-width:1.0;"/><ellipse cx="340" cy="462.5" fill="#000000" rx="3" ry="3" style="stroke:#000000;stroke-width:1.0;"/><path d="M340,482.5 L353,482.5 C396.5429,482.5 443.3538,484.3674 487.37,486.961 " fill="none" style="stroke:#000000;stroke-width:1.0;stroke-dasharray:3.0,3.0;"/><path d="M487.1871,490.0049 L489.6529,487.0981 L487.5528,483.917 L494.9799,487.4182 L487.1871,490.0049 " fill="#000000" style="stroke:#000000;stroke-width:1.0;"/><ellipse cx="340" cy="482.5" fill="#000000" rx="3" ry="3" style="stroke:#000000;stroke-width:1.0;"/><path d="M340,503.5 L353,503.5 C373.5456,503.5 369.9967,524.6899 389,532.5 C394.1213,534.6048 399.3366,536.5811 404.6277,538.4362 " fill="none" style="stroke:#000000;stroke-width:1.0;stroke-dasharray:3.0,3.0;"/><path d="M403.6457,541.3404 L406.8059,539.1727 L405.6098,535.5319 L411.8883,540.8913 L403.6457,541.3404 " fill="#000000" style="stroke:#000000;stroke-width:1.0;"/><ellipse cx="340" cy="503.5" fill="#000000" rx="3" ry="3" style="stroke:#000000;stroke-width:1.0;"/><path d="M340,523.5 L353,523.5 C387.1962,523.5 360.6389,572.3942 389,591.5 C405.8402,602.8445 424.5638,611.3008 444.1368,617.5026 " fill="none" style="stroke:#000000;stroke-width:1.0;stroke-dasharray:3.0,3.0;"/><path d="M443.2632,620.4016 L446.3111,618.1578 L445.0105,614.6035 L451.3845,619.6867 L443.2632,620.4016 " fill="#000000" style="stroke:#000000;stroke-width:1.0;"/><ellipse cx="340" cy="523.5" fill="#000000" rx="3" ry="3" style="stroke:#000000;stroke-width:1.0;"/><path d="M340,544.5 L353,544.5 C402.754,544.5 350.0815,619.5031 389,650.5 C434.2652,686.5518 497.317,695.7506 552.5151,695.0916 " fill="none" style="stroke:#000000;stroke-width:1.0;stroke-dasharray:3.0,3.0;"/><path d="M552.5778,698.1851 L554.8353,695.0446 L552.4524,691.998 L560.249,694.9349 L552.5778,698.1851 " fill="#000000" style="stroke:#000000;stroke-width:1.0;"/><ellipse cx="340" cy="544.5" fill="#000000" rx="3" ry="3" style="stroke:#000000;stroke-width:1.0;"/><path d="M340,564.5 L353,564.5 C419.401,564.5 338.8437,665.9864 389,709.5 C394.5673,714.3299 400.4461,718.6966 406.5815,722.6375 " fill="none" style="stroke:#000000;stroke-width:1.0;stroke-dasharray:3.0,3.0;"/><path d="M404.9371,725.3397 L408.6081,723.8708 L408.2258,719.9352 L413.3371,726.7485 L404.9371,725.3397 " fill="#000000" style="stroke:#000000;stroke-width:1.0;"/><ellipse cx="340" cy="564.5" fill="#000000" rx="3" ry="3" style="stroke:#000000;stroke-width:1.0;"/><path d="M340,585.5 L353,585.5 C435.8922,585.5 327.7397,712.6584 389,768.5 C403.4702,781.6903 420.2377,791.5002 438.2488,798.6588 " fill="none" style="stroke:#000000;stroke-width:1.0;stroke-dasharray:3.0,3.0;"/><path d="M437.1639,801.5531 L440.4196,799.4725 L439.3338,795.7645 L445.4847,801.3712 L437.1639,801.5531 " fill="#000000" style="stroke:#000000;stroke-width:1.0;"/><ellipse cx="340" cy="585.5" fill="#000000" rx="3" ry="3" style="stroke:#000000;stroke-width:1.0;"/><path d="M340,605.5 L353,605.5 C402.9778,605.5 352.6333,793.2182 389,827.5 C390.8934,829.2848 392.8285,831.0086 394.8029,832.6732 " fill="none" style="stroke:#000000;stroke-width:1.0;stroke-dasharray:3.0,3.0;"/><path d="M392.8759,835.0886 L396.6145,834.1185 L396.73,830.2578 L400.8415,837.4908 L392.8759,835.0886 " fill="#000000" style="stroke:#000000;stroke-width:1.0;"/><ellipse cx="340" cy="605.5" fill="#000000" rx="3" ry="3" style="stroke:#000000;stroke-width:1.0;"/><path d="M340,626.5 L353,626.5 C411.329,626.5 347.023,846.0006 389,886.5 C402.42,899.4476 418.0299,909.2157 434.8961,916.4593 " fill="none" style="stroke:#000000;stroke-width:1.0;stroke-dasharray:3.0,3.0;"/><path d="M433.7154,919.3804 L437.0869,917.3448 L436.0768,913.5383 L442.1987,919.4111 L433.7154,919.3804 " fill="#000000" style="stroke:#000000;stroke-width:1.0;"/><ellipse cx="340" cy="626.5" fill="#000000" rx="3" ry="3" style="stroke:#000000;stroke-width:1.0;"/><path d="M281,472.5 L294,472.5 C303.4213,472.5 313.9164,472.5 322.5483,472.5 " fill="none" style="stroke:#000000;stroke-width:1.0;stroke-dasharray:3.0,3.0;"/><path d="M322.5483,475.5437 L324.8311,472.5 L322.5483,469.4563 L330.1575,472.5 L322.5483,475.5437 " fill="#000000" style="stroke:#000000;stroke-width:1.0;"/><ellipse cx="281" cy="472.5" fill="#000000" rx="3" ry="3" style="stroke:#000000;stroke-width:1.0;"/><!--SRC=[fPNDJjj0483lVefHJY3X97P8Y7AY_BM51101BbKFQtPYERPtezcrfGZnEAYlmBbviSwQXAAgmavxMIcpi_lDx7xn7XehoCwDLjwZ1z1QaBOwrLccHAbQ8sWftKvDUvRmiCY4QksvhCsaYyZ4B50POUPQ6RjS8Btcb4WkvDBAy3MKQebPOYnoy1i701whSJt5AsJI0buG146rucqgGfDIKc9ci4euqnGL4d9jmIQP5IdaPHkucjY0cQzUGCTG2cCaYRXLRVIqzo5ml_iny1EXo28gKhypqvIldZD8TPuN2dUufztgQ1fnQXgxM5Ia3IEcrOlYOsMmBGX-_e0Wy0z0KRlN31TkXHjVdjsyX_IRGNfRGTmfTdYvgcwgytfD7UwHNM8FyNq1WqO5z6ikxmZPkJntl-dVhcsmlHw4SP4X9QoatuamMiQnIpVDcJMgtDIg4lhzvgeCmgrmRwgi8SrK6VIsWlnL5H7_ASkwX6Qo3FfRoFBVbtXG8yuN_dGkbN6jDDklHeffabRLxe6ngvUbxpw4Cq7uxeyr14ievmWPIWcHJla9A44qmzT8ybNDI6mSh6L6pPXrpcnKe4992quNr3cjdYNIX_Y7PlZz6bzMpqfc6CVks6jRbcicZz-z9-yGbQmUN- -QZR9tax6htoHQGT0Eks6lFToP5WecOWbX045tr1kEkbquFftUWflVzNO-Nu_1w88U4FWjjfH4XUKDThrpKGguAPHDSXp15R_IvoSNcm2SgZ8XhN9KrZk_d_nE6EpxHuc5AHAN0lSJxmHdeiWihtZGahiSmTtjcJ_qnlpS5YBclL5vnvhtfUK8Bgz-0G00]--></g></svg>