<svg xmlns="http://www.w3.org/2000/svg" xmlns:xlink="http://www.w3.org/1999/xlink" contentStyleType="text/css" data-diagram-type="JSON" height="1301px" preserveAspectRatio="none" style="width:821px;height:1301px;background:#FFFFFF;" version="1.1" viewBox="0 0 821 1301" width="821px" zoomAndPan="magnify"><defs/><g><rect fill="#F1F1F1" height="81.9531" rx="5" ry="5" style="stroke:#F1F1F1;stroke-width:1.5;" width="239.0986" x="10" y="577.5"/><text fill="#000000" font-family="sans-serif" font-size="14" font-weight="bold" lengthAdjust="spacing" textLength="101.0283" x="15" y="593.0352">protokollnavn</text><text fill="#000000" font-family="sans-serif" font-size="14" lengthAdjust="spacing" textLength="99.6885" x="126.0283" y="593.0352">no.ks.fiks.plan</text><line style="stroke:#000000;stroke-width:1;" x1="121.0283" x2="121.0283" y1="577.5" y2="597.9883"/><line style="stroke:#000000;stroke-width:1;" x1="10" x2="249.0986" y1="597.9883" y2="597.9883"/><text fill="#000000" font-family="sans-serif" font-size="14" font-weight="bold" lengthAdjust="spacing" textLength="34.9248" x="15" y="613.5234">navn</text><text fill="#000000" font-family="sans-serif" font-size="14" lengthAdjust="spacing" textLength="118.0703" x="126.0283" y="613.5234">behandlingstyper</text><line style="stroke:#000000;stroke-width:1;" x1="121.0283" x2="121.0283" y1="597.9883" y2="618.4766"/><line style="stroke:#000000;stroke-width:1;" x1="10" x2="249.0986" y1="618.4766" y2="618.4766"/><text fill="#000000" font-family="sans-serif" font-size="14" font-weight="bold" lengthAdjust="spacing" textLength="53.5869" x="15" y="634.0117">versjon</text><text fill="#000000" font-family="sans-serif" font-size="14" lengthAdjust="spacing" textLength="16.0986" x="126.0283" y="634.0117">v2</text><line style="stroke:#000000;stroke-width:1;" x1="121.0283" x2="121.0283" y1="618.4766" y2="638.9648"/><line style="stroke:#000000;stroke-width:1;" x1="10" x2="249.0986" y1="638.9648" y2="638.9648"/><text fill="#000000" font-family="sans-serif" font-size="14" font-weight="bold" lengthAdjust="spacing" textLength="66.1787" x="15" y="654.5">kodeliste</text><text fill="#000000" font-family="sans-serif" font-size="14" lengthAdjust="spacing" textLength="13.2891" x="126.0283" y="654.5">&#160;&#160;&#160;</text><line style="stroke:#000000;stroke-width:1;" x1="121.0283" x2="121.0283" y1="638.9648" y2="659.4531"/><rect fill="none" height="81.9531" rx="5" ry="5" style="stroke:#000000;stroke-width:1.5;" width="239.0986" x="10" y="577.5"/><rect fill="#F1F1F1" height="450.7422" rx="5" ry="5" style="stroke:#F1F1F1;stroke-width:1.5;" width="23.2891" x="286" y="424"/><text fill="#000000" font-family="sans-serif" font-size="14" lengthAdjust="spacing" textLength="13.2891" x="291" y="439.5352">&#160;&#160;&#160;</text><line style="stroke:#000000;stroke-width:1;" x1="286" x2="309.2891" y1="444.4883" y2="444.4883"/><text fill="#000000" font-family="sans-serif" font-size="14" lengthAdjust="spacing" textLength="13.2891" x="291" y="460.0234">&#160;&#160;&#160;</text><line style="stroke:#000000;stroke-width:1;" x1="286" x2="309.2891" y1="464.9766" y2="464.9766"/><text fill="#000000" font-family="sans-serif" font-size="14" lengthAdjust="spacing" textLength="13.2891" x="291" y="480.5117">&#160;&#160;&#160;</text><line style="stroke:#000000;stroke-width:1;" x1="286" x2="309.2891" y1="485.4648" y2="485.4648"/><text fill="#000000" font-family="sans-serif" font-size="14" lengthAdjust="spacing" textLength="13.2891" x="291" y="501">&#160;&#160;&#160;</text><line style="stroke:#000000;stroke-width:1;" x1="286" x2="309.2891" y1="505.9531" y2="505.9531"/><text fill="#000000" font-family="sans-serif" font-size="14" lengthAdjust="spacing" textLength="13.2891" x="291" y="521.4883">&#160;&#160;&#160;</text><line style="stroke:#000000;stroke-width:1;" x1="286" x2="309.2891" y1="526.4414" y2="526.4414"/><text fill="#000000" font-family="sans-serif" font-size="14" lengthAdjust="spacing" textLength="13.2891" x="291" y="541.9766">&#160;&#160;&#160;</text><line style="stroke:#000000;stroke-width:1;" x1="286" x2="309.2891" y1="546.9297" y2="546.9297"/><text fill="#000000" font-family="sans-serif" font-size="14" lengthAdjust="spacing" textLength="13.2891" x="291" y="562.4648">&#160;&#160;&#160;</text><line style="stroke:#000000;stroke-width:1;" x1="286" x2="309.2891" y1="567.418" y2="567.418"/><text fill="#000000" font-family="sans-serif" font-size="14" lengthAdjust="spacing" textLength="13.2891" x="291" y="582.9531">&#160;&#160;&#160;</text><line style="stroke:#000000;stroke-width:1;" x1="286" x2="309.2891" y1="587.9063" y2="587.9063"/><text fill="#000000" font-family="sans-serif" font-size="14" lengthAdjust="spacing" textLength="13.2891" x="291" y="603.4414">&#160;&#160;&#160;</text><line style="stroke:#000000;stroke-width:1;" x1="286" x2="309.2891" y1="608.3945" y2="608.3945"/><text fill="#000000" font-family="sans-serif" font-size="14" lengthAdjust="spacing" textLength="13.2891" x="291" y="623.9297">&#160;&#160;&#160;</text><line style="stroke:#000000;stroke-width:1;" x1="286" x2="309.2891" y1="628.8828" y2="628.8828"/><text fill="#000000" font-family="sans-serif" font-size="14" lengthAdjust="spacing" textLength="13.2891" x="291" y="644.418">&#160;&#160;&#160;</text><line style="stroke:#000000;stroke-width:1;" x1="286" x2="309.2891" y1="649.3711" y2="649.3711"/><text fill="#000000" font-family="sans-serif" font-size="14" lengthAdjust="spacing" textLength="13.2891" x="291" y="664.9063">&#160;&#160;&#160;</text><line style="stroke:#000000;stroke-width:1;" x1="286" x2="309.2891" y1="669.8594" y2="669.8594"/><text fill="#000000" font-family="sans-serif" font-size="14" lengthAdjust="spacing" textLength="13.2891" x="291" y="685.3945">&#160;&#160;&#160;</text><line style="stroke:#000000;stroke-width:1;" x1="286" x2="309.2891" y1="690.3477" y2="690.3477"/><text fill="#000000" font-family="sans-serif" font-size="14" lengthAdjust="spacing" textLength="13.2891" x="291" y="705.8828">&#160;&#160;&#160;</text><line style="stroke:#000000;stroke-width:1;" x1="286" x2="309.2891" y1="710.8359" y2="710.8359"/><text fill="#000000" font-family="sans-serif" font-size="14" lengthAdjust="spacing" textLength="13.2891" x="291" y="726.3711">&#160;&#160;&#160;</text><line style="stroke:#000000;stroke-width:1;" x1="286" x2="309.2891" y1="731.3242" y2="731.3242"/><text fill="#000000" font-family="sans-serif" font-size="14" lengthAdjust="spacing" textLength="13.2891" x="291" y="746.8594">&#160;&#160;&#160;</text><line style="stroke:#000000;stroke-width:1;" x1="286" x2="309.2891" y1="751.8125" y2="751.8125"/><text fill="#000000" font-family="sans-serif" font-size="14" lengthAdjust="spacing" textLength="13.2891" x="291" y="767.3477">&#160;&#160;&#160;</text><line style="stroke:#000000;stroke-width:1;" x1="286" x2="309.2891" y1="772.3008" y2="772.3008"/><text fill="#000000" font-family="sans-serif" font-size="14" lengthAdjust="spacing" textLength="13.2891" x="291" y="787.8359">&#160;&#160;&#160;</text><line style="stroke:#000000;stroke-width:1;" x1="286" x2="309.2891" y1="792.7891" y2="792.7891"/><text fill="#000000" font-family="sans-serif" font-size="14" lengthAdjust="spacing" textLength="13.2891" x="291" y="808.3242">&#160;&#160;&#160;</text><line style="stroke:#000000;stroke-width:1;" x1="286" x2="309.2891" y1="813.2773" y2="813.2773"/><text fill="#000000" font-family="sans-serif" font-size="14" lengthAdjust="spacing" textLength="13.2891" x="291" y="828.8125">&#160;&#160;&#160;</text><line style="stroke:#000000;stroke-width:1;" x1="286" x2="309.2891" y1="833.7656" y2="833.7656"/><text fill="#000000" font-family="sans-serif" font-size="14" lengthAdjust="spacing" textLength="13.2891" x="291" y="849.3008">&#160;&#160;&#160;</text><line style="stroke:#000000;stroke-width:1;" x1="286" x2="309.2891" y1="854.2539" y2="854.2539"/><text fill="#000000" font-family="sans-serif" font-size="14" lengthAdjust="spacing" textLength="13.2891" x="291" y="869.7891">&#160;&#160;&#160;</text><rect fill="none" height="450.7422" rx="5" ry="5" style="stroke:#000000;stroke-width:1.5;" width="23.2891" x="286" y="424"/><rect fill="#F1F1F1" height="40.9766" rx="5" ry="5" style="stroke:#F1F1F1;stroke-width:1.5;" width="463.1465" x="346" y="10"/><text fill="#000000" font-family="sans-serif" font-size="14" font-weight="bold" lengthAdjust="spacing" textLength="71.9824" x="351" y="25.5352">kodeverdi</text><text fill="#000000" font-family="sans-serif" font-size="14" lengthAdjust="spacing" textLength="8.8525" x="478.6328" y="25.5352">1</text><line style="stroke:#000000;stroke-width:1;" x1="473.6328" x2="473.6328" y1="10" y2="30.4883"/><line style="stroke:#000000;stroke-width:1;" x1="346" x2="809.1465" y1="30.4883" y2="30.4883"/><text fill="#000000" font-family="sans-serif" font-size="14" font-weight="bold" lengthAdjust="spacing" textLength="117.6328" x="351" y="46.0234">kodebeskrivelse</text><text fill="#000000" font-family="sans-serif" font-size="14" lengthAdjust="spacing" textLength="325.5137" x="478.6328" y="46.0234">Mottatt planinitiativ/Bestilling av oppstartsm&#248;te</text><line style="stroke:#000000;stroke-width:1;" x1="473.6328" x2="473.6328" y1="30.4883" y2="50.9766"/><rect fill="none" height="40.9766" rx="5" ry="5" style="stroke:#000000;stroke-width:1.5;" width="463.1465" x="346" y="10"/><rect fill="#F1F1F1" height="40.9766" rx="5" ry="5" style="stroke:#F1F1F1;stroke-width:1.5;" width="273.7021" x="440.5" y="69"/><text fill="#000000" font-family="sans-serif" font-size="14" font-weight="bold" lengthAdjust="spacing" textLength="71.9824" x="445.5" y="84.5352">kodeverdi</text><text fill="#000000" font-family="sans-serif" font-size="14" lengthAdjust="spacing" textLength="8.8525" x="573.1328" y="84.5352">2</text><line style="stroke:#000000;stroke-width:1;" x1="568.1328" x2="568.1328" y1="69" y2="89.4883"/><line style="stroke:#000000;stroke-width:1;" x1="440.5" x2="714.2021" y1="89.4883" y2="89.4883"/><text fill="#000000" font-family="sans-serif" font-size="14" font-weight="bold" lengthAdjust="spacing" textLength="117.6328" x="445.5" y="105.0234">kodebeskrivelse</text><text fill="#000000" font-family="sans-serif" font-size="14" lengthAdjust="spacing" textLength="136.0693" x="573.1328" y="105.0234">Stoppet planinitiativ</text><line style="stroke:#000000;stroke-width:1;" x1="568.1328" x2="568.1328" y1="89.4883" y2="109.9766"/><rect fill="none" height="40.9766" rx="5" ry="5" style="stroke:#000000;stroke-width:1.5;" width="273.7021" x="440.5" y="69"/><rect fill="#F1F1F1" height="40.9766" rx="5" ry="5" style="stroke:#F1F1F1;stroke-width:1.5;" width="447.8477" x="353.5" y="128"/><text fill="#000000" font-family="sans-serif" font-size="14" font-weight="bold" lengthAdjust="spacing" textLength="71.9824" x="358.5" y="143.5352">kodeverdi</text><text fill="#000000" font-family="sans-serif" font-size="14" lengthAdjust="spacing" textLength="8.8525" x="486.1328" y="143.5352">8</text><line style="stroke:#000000;stroke-width:1;" x1="481.1328" x2="481.1328" y1="128" y2="148.4883"/><line style="stroke:#000000;stroke-width:1;" x1="353.5" x2="801.3477" y1="148.4883" y2="148.4883"/><text fill="#000000" font-family="sans-serif" font-size="14" font-weight="bold" lengthAdjust="spacing" textLength="117.6328" x="358.5" y="164.0234">kodebeskrivelse</text><text fill="#000000" font-family="sans-serif" font-size="14" lengthAdjust="spacing" textLength="310.2148" x="486.1328" y="164.0234">Planlegging igangsatt/Oppstartsm&#248;te avholdt</text><line style="stroke:#000000;stroke-width:1;" x1="481.1328" x2="481.1328" y1="148.4883" y2="168.9766"/><rect fill="none" height="40.9766" rx="5" ry="5" style="stroke:#000000;stroke-width:1.5;" width="447.8477" x="353.5" y="128"/><rect fill="#F1F1F1" height="40.9766" rx="5" ry="5" style="stroke:#F1F1F1;stroke-width:1.5;" width="411.5693" x="371.5" y="187"/><text fill="#000000" font-family="sans-serif" font-size="14" font-weight="bold" lengthAdjust="spacing" textLength="71.9824" x="376.5" y="202.5352">kodeverdi</text><text fill="#000000" font-family="sans-serif" font-size="14" lengthAdjust="spacing" textLength="8.8525" x="504.1328" y="202.5352">9</text><line style="stroke:#000000;stroke-width:1;" x1="499.1328" x2="499.1328" y1="187" y2="207.4883"/><line style="stroke:#000000;stroke-width:1;" x1="371.5" x2="783.0693" y1="207.4883" y2="207.4883"/><text fill="#000000" font-family="sans-serif" font-size="14" font-weight="bold" lengthAdjust="spacing" textLength="117.6328" x="376.5" y="223.0234">kodebeskrivelse</text><text fill="#000000" font-family="sans-serif" font-size="14" lengthAdjust="spacing" textLength="273.9365" x="504.1328" y="223.0234">Kunngj&#248;ring og varsling av planoppstart</text><line style="stroke:#000000;stroke-width:1;" x1="499.1328" x2="499.1328" y1="207.4883" y2="227.9766"/><rect fill="none" height="40.9766" rx="5" ry="5" style="stroke:#000000;stroke-width:1.5;" width="411.5693" x="371.5" y="187"/><rect fill="#F1F1F1" height="40.9766" rx="5" ry="5" style="stroke:#F1F1F1;stroke-width:1.5;" width="339.0605" x="408" y="246"/><text fill="#000000" font-family="sans-serif" font-size="14" font-weight="bold" lengthAdjust="spacing" textLength="71.9824" x="413" y="261.5352">kodeverdi</text><text fill="#000000" font-family="sans-serif" font-size="14" lengthAdjust="spacing" textLength="17.7051" x="540.6328" y="261.5352">10</text><line style="stroke:#000000;stroke-width:1;" x1="535.6328" x2="535.6328" y1="246" y2="266.4883"/><line style="stroke:#000000;stroke-width:1;" x1="408" x2="747.0605" y1="266.4883" y2="266.4883"/><text fill="#000000" font-family="sans-serif" font-size="14" font-weight="bold" lengthAdjust="spacing" textLength="117.6328" x="413" y="282.0234">kodebeskrivelse</text><text fill="#000000" font-family="sans-serif" font-size="14" lengthAdjust="spacing" textLength="201.4277" x="540.6328" y="282.0234">Planforslag tatt til behandling</text><line style="stroke:#000000;stroke-width:1;" x1="535.6328" x2="535.6328" y1="266.4883" y2="286.9766"/><rect fill="none" height="40.9766" rx="5" ry="5" style="stroke:#000000;stroke-width:1.5;" width="339.0605" x="408" y="246"/><rect fill="#F1F1F1" height="40.9766" rx="5" ry="5" style="stroke:#F1F1F1;stroke-width:1.5;" width="318.1084" x="418.5" y="305"/><text fill="#000000" font-family="sans-serif" font-size="14" font-weight="bold" lengthAdjust="spacing" textLength="71.9824" x="423.5" y="320.5352">kodeverdi</text><text fill="#000000" font-family="sans-serif" font-size="14" lengthAdjust="spacing" textLength="17.7051" x="551.1328" y="320.5352">11</text><line style="stroke:#000000;stroke-width:1;" x1="546.1328" x2="546.1328" y1="305" y2="325.4883"/><line style="stroke:#000000;stroke-width:1;" x1="418.5" x2="736.6084" y1="325.4883" y2="325.4883"/><text fill="#000000" font-family="sans-serif" font-size="14" font-weight="bold" lengthAdjust="spacing" textLength="117.6328" x="423.5" y="341.0234">kodebeskrivelse</text><text fill="#000000" font-family="sans-serif" font-size="14" lengthAdjust="spacing" textLength="180.4756" x="551.1328" y="341.0234">Besluttet offentlig ettersyn</text><line style="stroke:#000000;stroke-width:1;" x1="546.1328" x2="546.1328" y1="325.4883" y2="345.9766"/><rect fill="none" height="40.9766" rx="5" ry="5" style="stroke:#000000;stroke-width:1.5;" width="318.1084" x="418.5" y="305"/><rect fill="#F1F1F1" height="40.9766" rx="5" ry="5" style="stroke:#F1F1F1;stroke-width:1.5;" width="259.5176" x="447.5" y="364"/><text fill="#000000" font-family="sans-serif" font-size="14" font-weight="bold" lengthAdjust="spacing" textLength="71.9824" x="452.5" y="379.5352">kodeverdi</text><text fill="#000000" font-family="sans-serif" font-size="14" lengthAdjust="spacing" textLength="17.7051" x="580.1328" y="379.5352">12</text><line style="stroke:#000000;stroke-width:1;" x1="575.1328" x2="575.1328" y1="364" y2="384.4883"/><line style="stroke:#000000;stroke-width:1;" x1="447.5" x2="707.0176" y1="384.4883" y2="384.4883"/><text fill="#000000" font-family="sans-serif" font-size="14" font-weight="bold" lengthAdjust="spacing" textLength="117.6328" x="452.5" y="400.0234">kodebeskrivelse</text><text fill="#000000" font-family="sans-serif" font-size="14" lengthAdjust="spacing" textLength="121.8848" x="580.1328" y="400.0234">Mottatt innsigelse</text><line style="stroke:#000000;stroke-width:1;" x1="575.1328" x2="575.1328" y1="384.4883" y2="404.9766"/><rect fill="none" height="40.9766" rx="5" ry="5" style="stroke:#000000;stroke-width:1.5;" width="259.5176" x="447.5" y="364"/><rect fill="#F1F1F1" height="40.9766" rx="5" ry="5" style="stroke:#F1F1F1;stroke-width:1.5;" width="324.2266" x="415.5" y="423"/><text fill="#000000" font-family="sans-serif" font-size="14" font-weight="bold" lengthAdjust="spacing" textLength="71.9824" x="420.5" y="438.5352">kodeverdi</text><text fill="#000000" font-family="sans-serif" font-size="14" lengthAdjust="spacing" textLength="17.7051" x="548.1328" y="438.5352">13</text><line style="stroke:#000000;stroke-width:1;" x1="543.1328" x2="543.1328" y1="423" y2="443.4883"/><line style="stroke:#000000;stroke-width:1;" x1="415.5" x2="739.7266" y1="443.4883" y2="443.4883"/><text fill="#000000" font-family="sans-serif" font-size="14" font-weight="bold" lengthAdjust="spacing" textLength="117.6328" x="420.5" y="459.0234">kodebeskrivelse</text><text fill="#000000" font-family="sans-serif" font-size="14" lengthAdjust="spacing" textLength="186.5938" x="548.1328" y="459.0234">Plan vedtatt med innsigelse</text><line style="stroke:#000000;stroke-width:1;" x1="543.1328" x2="543.1328" y1="443.4883" y2="463.9766"/><rect fill="none" height="40.9766" rx="5" ry="5" style="stroke:#000000;stroke-width:1.5;" width="324.2266" x="415.5" y="423"/><rect fill="#F1F1F1" height="40.9766" rx="5" ry="5" style="stroke:#F1F1F1;stroke-width:1.5;" width="271.918" x="441.5" y="482"/><text fill="#000000" font-family="sans-serif" font-size="14" font-weight="bold" lengthAdjust="spacing" textLength="71.9824" x="446.5" y="497.5352">kodeverdi</text><text fill="#000000" font-family="sans-serif" font-size="14" lengthAdjust="spacing" textLength="17.7051" x="574.1328" y="497.5352">14</text><line style="stroke:#000000;stroke-width:1;" x1="569.1328" x2="569.1328" y1="482" y2="502.4883"/><line style="stroke:#000000;stroke-width:1;" x1="441.5" x2="713.418" y1="502.4883" y2="502.4883"/><text fill="#000000" font-family="sans-serif" font-size="14" font-weight="bold" lengthAdjust="spacing" textLength="117.6328" x="446.5" y="518.0234">kodebeskrivelse</text><text fill="#000000" font-family="sans-serif" font-size="14" lengthAdjust="spacing" textLength="134.2852" x="574.1328" y="518.0234">Plan endelig vedtatt</text><line style="stroke:#000000;stroke-width:1;" x1="569.1328" x2="569.1328" y1="502.4883" y2="522.9766"/><rect fill="none" height="40.9766" rx="5" ry="5" style="stroke:#000000;stroke-width:1.5;" width="271.918" x="441.5" y="482"/><rect fill="#F1F1F1" height="40.9766" rx="5" ry="5" style="stroke:#F1F1F1;stroke-width:1.5;" width="199.0332" x="478" y="541"/><text fill="#000000" font-family="sans-serif" font-size="14" font-weight="bold" lengthAdjust="spacing" textLength="71.9824" x="483" y="556.5352">kodeverdi</text><text fill="#000000" font-family="sans-serif" font-size="14" lengthAdjust="spacing" textLength="17.7051" x="610.6328" y="556.5352">15</text><line style="stroke:#000000;stroke-width:1;" x1="605.6328" x2="605.6328" y1="541" y2="561.4883"/><line style="stroke:#000000;stroke-width:1;" x1="478" x2="677.0332" y1="561.4883" y2="561.4883"/><text fill="#000000" font-family="sans-serif" font-size="14" font-weight="bold" lengthAdjust="spacing" textLength="117.6328" x="483" y="577.0234">kodebeskrivelse</text><text fill="#000000" font-family="sans-serif" font-size="14" lengthAdjust="spacing" textLength="61.4004" x="610.6328" y="577.0234">Ikraftsatt</text><line style="stroke:#000000;stroke-width:1;" x1="605.6328" x2="605.6328" y1="561.4883" y2="581.9766"/><rect fill="none" height="40.9766" rx="5" ry="5" style="stroke:#000000;stroke-width:1.5;" width="199.0332" x="478" y="541"/><rect fill="#F1F1F1" height="40.9766" rx="5" ry="5" style="stroke:#F1F1F1;stroke-width:1.5;" width="361.4072" x="397" y="600"/><text fill="#000000" font-family="sans-serif" font-size="14" font-weight="bold" lengthAdjust="spacing" textLength="71.9824" x="402" y="615.5352">kodeverdi</text><text fill="#000000" font-family="sans-serif" font-size="14" lengthAdjust="spacing" textLength="17.7051" x="529.6328" y="615.5352">16</text><line style="stroke:#000000;stroke-width:1;" x1="524.6328" x2="524.6328" y1="600" y2="620.4883"/><line style="stroke:#000000;stroke-width:1;" x1="397" x2="758.4072" y1="620.4883" y2="620.4883"/><text fill="#000000" font-family="sans-serif" font-size="14" font-weight="bold" lengthAdjust="spacing" textLength="117.6328" x="402" y="636.0234">kodebeskrivelse</text><text fill="#000000" font-family="sans-serif" font-size="14" lengthAdjust="spacing" textLength="223.7744" x="529.6328" y="636.0234">Kunngj&#248;ring endelig vedtatt plan</text><line style="stroke:#000000;stroke-width:1;" x1="524.6328" x2="524.6328" y1="620.4883" y2="640.9766"/><rect fill="none" height="40.9766" rx="5" ry="5" style="stroke:#000000;stroke-width:1.5;" width="361.4072" x="397" y="600"/><rect fill="#F1F1F1" height="40.9766" rx="5" ry="5" style="stroke:#F1F1F1;stroke-width:1.5;" width="227.8877" x="463.5" y="659"/><text fill="#000000" font-family="sans-serif" font-size="14" font-weight="bold" lengthAdjust="spacing" textLength="71.9824" x="468.5" y="674.5352">kodeverdi</text><text fill="#000000" font-family="sans-serif" font-size="14" lengthAdjust="spacing" textLength="17.7051" x="596.1328" y="674.5352">17</text><line style="stroke:#000000;stroke-width:1;" x1="591.1328" x2="591.1328" y1="659" y2="679.4883"/><line style="stroke:#000000;stroke-width:1;" x1="463.5" x2="691.3877" y1="679.4883" y2="679.4883"/><text fill="#000000" font-family="sans-serif" font-size="14" font-weight="bold" lengthAdjust="spacing" textLength="117.6328" x="468.5" y="695.0234">kodebeskrivelse</text><text fill="#000000" font-family="sans-serif" font-size="14" lengthAdjust="spacing" textLength="90.2549" x="596.1328" y="695.0234">Mottatt klage</text><line style="stroke:#000000;stroke-width:1;" x1="591.1328" x2="591.1328" y1="679.4883" y2="699.9766"/><rect fill="none" height="40.9766" rx="5" ry="5" style="stroke:#000000;stroke-width:1.5;" width="227.8877" x="463.5" y="659"/><rect fill="#F1F1F1" height="40.9766" rx="5" ry="5" style="stroke:#F1F1F1;stroke-width:1.5;" width="268.0078" x="443.5" y="718"/><text fill="#000000" font-family="sans-serif" font-size="14" font-weight="bold" lengthAdjust="spacing" textLength="71.9824" x="448.5" y="733.5352">kodeverdi</text><text fill="#000000" font-family="sans-serif" font-size="14" lengthAdjust="spacing" textLength="17.7051" x="576.1328" y="733.5352">18</text><line style="stroke:#000000;stroke-width:1;" x1="571.1328" x2="571.1328" y1="718" y2="738.4883"/><line style="stroke:#000000;stroke-width:1;" x1="443.5" x2="711.5078" y1="738.4883" y2="738.4883"/><text fill="#000000" font-family="sans-serif" font-size="14" font-weight="bold" lengthAdjust="spacing" textLength="117.6328" x="448.5" y="754.0234">kodebeskrivelse</text><text fill="#000000" font-family="sans-serif" font-size="14" lengthAdjust="spacing" textLength="130.375" x="576.1328" y="754.0234">Vedtatt opphevelse</text><line style="stroke:#000000;stroke-width:1;" x1="571.1328" x2="571.1328" y1="738.4883" y2="758.9766"/><rect fill="none" height="40.9766" rx="5" ry="5" style="stroke:#000000;stroke-width:1.5;" width="268.0078" x="443.5" y="718"/><rect fill="#F1F1F1" height="40.9766" rx="5" ry="5" style="stroke:#F1F1F1;stroke-width:1.5;" width="286.4648" x="434.5" y="777"/><text fill="#000000" font-family="sans-serif" font-size="14" font-weight="bold" lengthAdjust="spacing" textLength="71.9824" x="439.5" y="792.5352">kodeverdi</text><text fill="#000000" font-family="sans-serif" font-size="14" lengthAdjust="spacing" textLength="17.7051" x="567.1328" y="792.5352">19</text><line style="stroke:#000000;stroke-width:1;" x1="562.1328" x2="562.1328" y1="777" y2="797.4883"/><line style="stroke:#000000;stroke-width:1;" x1="434.5" x2="720.9648" y1="797.4883" y2="797.4883"/><text fill="#000000" font-family="sans-serif" font-size="14" font-weight="bold" lengthAdjust="spacing" textLength="117.6328" x="439.5" y="813.0234">kodebeskrivelse</text><text fill="#000000" font-family="sans-serif" font-size="14" lengthAdjust="spacing" textLength="148.832" x="567.1328" y="813.0234">Registrert kommentar</text><line style="stroke:#000000;stroke-width:1;" x1="562.1328" x2="562.1328" y1="797.4883" y2="817.9766"/><rect fill="none" height="40.9766" rx="5" ry="5" style="stroke:#000000;stroke-width:1.5;" width="286.4648" x="434.5" y="777"/><rect fill="#F1F1F1" height="40.9766" rx="5" ry="5" style="stroke:#F1F1F1;stroke-width:1.5;" width="309.4199" x="423" y="836"/><text fill="#000000" font-family="sans-serif" font-size="14" font-weight="bold" lengthAdjust="spacing" textLength="71.9824" x="428" y="851.5352">kodeverdi</text><text fill="#000000" font-family="sans-serif" font-size="14" lengthAdjust="spacing" textLength="17.7051" x="555.6328" y="851.5352">20</text><line style="stroke:#000000;stroke-width:1;" x1="550.6328" x2="550.6328" y1="836" y2="856.4883"/><line style="stroke:#000000;stroke-width:1;" x1="423" x2="732.4199" y1="856.4883" y2="856.4883"/><text fill="#000000" font-family="sans-serif" font-size="14" font-weight="bold" lengthAdjust="spacing" textLength="117.6328" x="428" y="872.0234">kodebeskrivelse</text><text fill="#000000" font-family="sans-serif" font-size="14" lengthAdjust="spacing" textLength="171.7871" x="555.6328" y="872.0234">Vedtatt forenklet endring</text><line style="stroke:#000000;stroke-width:1;" x1="550.6328" x2="550.6328" y1="856.4883" y2="876.9766"/><rect fill="none" height="40.9766" rx="5" ry="5" style="stroke:#000000;stroke-width:1.5;" width="309.4199" x="423" y="836"/><rect fill="#F1F1F1" height="40.9766" rx="5" ry="5" style="stroke:#F1F1F1;stroke-width:1.5;" width="252.0664" x="451.5" y="895"/><text fill="#000000" font-family="sans-serif" font-size="14" font-weight="bold" lengthAdjust="spacing" textLength="71.9824" x="456.5" y="910.5352">kodeverdi</text><text fill="#000000" font-family="sans-serif" font-size="14" lengthAdjust="spacing" textLength="17.7051" x="584.1328" y="910.5352">21</text><line style="stroke:#000000;stroke-width:1;" x1="579.1328" x2="579.1328" y1="895" y2="915.4883"/><line style="stroke:#000000;stroke-width:1;" x1="451.5" x2="703.5664" y1="915.4883" y2="915.4883"/><text fill="#000000" font-family="sans-serif" font-size="14" font-weight="bold" lengthAdjust="spacing" textLength="117.6328" x="456.5" y="931.0234">kodebeskrivelse</text><text fill="#000000" font-family="sans-serif" font-size="14" lengthAdjust="spacing" textLength="114.4336" x="584.1328" y="931.0234">Trukket/uaktuell</text><line style="stroke:#000000;stroke-width:1;" x1="579.1328" x2="579.1328" y1="915.4883" y2="935.9766"/><rect fill="none" height="40.9766" rx="5" ry="5" style="stroke:#000000;stroke-width:1.5;" width="252.0664" x="451.5" y="895"/><rect fill="#F1F1F1" height="40.9766" rx="5" ry="5" style="stroke:#F1F1F1;stroke-width:1.5;" width="228.1133" x="463.5" y="954"/><text fill="#000000" font-family="sans-serif" font-size="14" font-weight="bold" lengthAdjust="spacing" textLength="71.9824" x="468.5" y="969.5352">kodeverdi</text><text fill="#000000" font-family="sans-serif" font-size="14" lengthAdjust="spacing" textLength="17.7051" x="596.1328" y="969.5352">22</text><line style="stroke:#000000;stroke-width:1;" x1="591.1328" x2="591.1328" y1="954" y2="974.4883"/><line style="stroke:#000000;stroke-width:1;" x1="463.5" x2="691.6133" y1="974.4883" y2="974.4883"/><text fill="#000000" font-family="sans-serif" font-size="14" font-weight="bold" lengthAdjust="spacing" textLength="117.6328" x="468.5" y="990.0234">kodebeskrivelse</text><text fill="#000000" font-family="sans-serif" font-size="14" lengthAdjust="spacing" textLength="90.4805" x="596.1328" y="990.0234">Ikke fremmet</text><line style="stroke:#000000;stroke-width:1;" x1="591.1328" x2="591.1328" y1="974.4883" y2="994.9766"/><rect fill="none" height="40.9766" rx="5" ry="5" style="stroke:#000000;stroke-width:1.5;" width="228.1133" x="463.5" y="954"/><rect fill="#F1F1F1" height="40.9766" rx="5" ry="5" style="stroke:#F1F1F1;stroke-width:1.5;" width="217.5586" x="468.5" y="1013"/><text fill="#000000" font-family="sans-serif" font-size="14" font-weight="bold" lengthAdjust="spacing" textLength="71.9824" x="473.5" y="1028.5352">kodeverdi</text><text fill="#000000" font-family="sans-serif" font-size="14" lengthAdjust="spacing" textLength="17.7051" x="601.1328" y="1028.5352">23</text><line style="stroke:#000000;stroke-width:1;" x1="596.1328" x2="596.1328" y1="1013" y2="1033.4883"/><line style="stroke:#000000;stroke-width:1;" x1="468.5" x2="686.0586" y1="1033.4883" y2="1033.4883"/><text fill="#000000" font-family="sans-serif" font-size="14" font-weight="bold" lengthAdjust="spacing" textLength="117.6328" x="473.5" y="1049.0234">kodebeskrivelse</text><text fill="#000000" font-family="sans-serif" font-size="14" lengthAdjust="spacing" textLength="79.9258" x="601.1328" y="1049.0234">Ikke vedtatt</text><line style="stroke:#000000;stroke-width:1;" x1="596.1328" x2="596.1328" y1="1033.4883" y2="1053.9766"/><rect fill="none" height="40.9766" rx="5" ry="5" style="stroke:#000000;stroke-width:1.5;" width="217.5586" x="468.5" y="1013"/><rect fill="#F1F1F1" height="40.9766" rx="5" ry="5" style="stroke:#F1F1F1;stroke-width:1.5;" width="362.2686" x="396.5" y="1072"/><text fill="#000000" font-family="sans-serif" font-size="14" font-weight="bold" lengthAdjust="spacing" textLength="71.9824" x="401.5" y="1087.5352">kodeverdi</text><text fill="#000000" font-family="sans-serif" font-size="14" lengthAdjust="spacing" textLength="17.7051" x="529.1328" y="1087.5352">24</text><line style="stroke:#000000;stroke-width:1;" x1="524.1328" x2="524.1328" y1="1072" y2="1092.4883"/><line style="stroke:#000000;stroke-width:1;" x1="396.5" x2="758.7686" y1="1092.4883" y2="1092.4883"/><text fill="#000000" font-family="sans-serif" font-size="14" font-weight="bold" lengthAdjust="spacing" textLength="117.6328" x="401.5" y="1108.0234">kodebeskrivelse</text><text fill="#000000" font-family="sans-serif" font-size="14" lengthAdjust="spacing" textLength="224.6357" x="529.1328" y="1108.0234">Kunngj&#248;ring av offentlig ettersyn</text><line style="stroke:#000000;stroke-width:1;" x1="524.1328" x2="524.1328" y1="1092.4883" y2="1112.9766"/><rect fill="none" height="40.9766" rx="5" ry="5" style="stroke:#000000;stroke-width:1.5;" width="362.2686" x="396.5" y="1072"/><rect fill="#F1F1F1" height="40.9766" rx="5" ry="5" style="stroke:#F1F1F1;stroke-width:1.5;" width="263.4346" x="446" y="1131"/><text fill="#000000" font-family="sans-serif" font-size="14" font-weight="bold" lengthAdjust="spacing" textLength="71.9824" x="451" y="1146.5352">kodeverdi</text><text fill="#000000" font-family="sans-serif" font-size="14" lengthAdjust="spacing" textLength="17.7051" x="578.6328" y="1146.5352">25</text><line style="stroke:#000000;stroke-width:1;" x1="573.6328" x2="573.6328" y1="1131" y2="1151.4883"/><line style="stroke:#000000;stroke-width:1;" x1="446" x2="709.4346" y1="1151.4883" y2="1151.4883"/><text fill="#000000" font-family="sans-serif" font-size="14" font-weight="bold" lengthAdjust="spacing" textLength="117.6328" x="451" y="1167.0234">kodebeskrivelse</text><text fill="#000000" font-family="sans-serif" font-size="14" lengthAdjust="spacing" textLength="125.8018" x="578.6328" y="1167.0234">H&#248;ringsfrist utg&#229;tt</text><line style="stroke:#000000;stroke-width:1;" x1="573.6328" x2="573.6328" y1="1151.4883" y2="1171.9766"/><rect fill="none" height="40.9766" rx="5" ry="5" style="stroke:#000000;stroke-width:1.5;" width="263.4346" x="446" y="1131"/><rect fill="#F1F1F1" height="40.9766" rx="5" ry="5" style="stroke:#F1F1F1;stroke-width:1.5;" width="259.2236" x="448" y="1190"/><text fill="#000000" font-family="sans-serif" font-size="14" font-weight="bold" lengthAdjust="spacing" textLength="71.9824" x="453" y="1205.5352">kodeverdi</text><text fill="#000000" font-family="sans-serif" font-size="14" lengthAdjust="spacing" textLength="17.7051" x="580.6328" y="1205.5352">26</text><line style="stroke:#000000;stroke-width:1;" x1="575.6328" x2="575.6328" y1="1190" y2="1210.4883"/><line style="stroke:#000000;stroke-width:1;" x1="448" x2="707.2236" y1="1210.4883" y2="1210.4883"/><text fill="#000000" font-family="sans-serif" font-size="14" font-weight="bold" lengthAdjust="spacing" textLength="117.6328" x="453" y="1226.0234">kodebeskrivelse</text><text fill="#000000" font-family="sans-serif" font-size="14" lengthAdjust="spacing" textLength="121.5908" x="580.6328" y="1226.0234">Innsigelse trukket</text><line style="stroke:#000000;stroke-width:1;" x1="575.6328" x2="575.6328" y1="1210.4883" y2="1230.9766"/><rect fill="none" height="40.9766" rx="5" ry="5" style="stroke:#000000;stroke-width:1.5;" width="259.2236" x="448" y="1190"/><rect fill="#F1F1F1" height="40.9766" rx="5" ry="5" style="stroke:#F1F1F1;stroke-width:1.5;" width="243.7607" x="455.5" y="1249"/><text fill="#000000" font-family="sans-serif" font-size="14" font-weight="bold" lengthAdjust="spacing" textLength="71.9824" x="460.5" y="1264.5352">kodeverdi</text><text fill="#000000" font-family="sans-serif" font-size="14" lengthAdjust="spacing" textLength="17.7051" x="588.1328" y="1264.5352">27</text><line style="stroke:#000000;stroke-width:1;" x1="583.1328" x2="583.1328" y1="1249" y2="1269.4883"/><line style="stroke:#000000;stroke-width:1;" x1="455.5" x2="699.2607" y1="1269.4883" y2="1269.4883"/><text fill="#000000" font-family="sans-serif" font-size="14" font-weight="bold" lengthAdjust="spacing" textLength="117.6328" x="460.5" y="1285.0234">kodebeskrivelse</text><text fill="#000000" font-family="sans-serif" font-size="14" lengthAdjust="spacing" textLength="106.1279" x="588.1328" y="1285.0234">Vedtatt endring</text><line style="stroke:#000000;stroke-width:1;" x1="583.1328" x2="583.1328" y1="1269.4883" y2="1289.9766"/><rect fill="none" height="40.9766" rx="5" ry="5" style="stroke:#000000;stroke-width:1.5;" width="243.7607" x="455.5" y="1249"/><path d="M298,435.5 L298,422.5 C298,381.8156 317.1373,88.1734 346,59.5 C347.1291,58.3784 348.278,57.2843 349.446,56.2174" fill="none" style="stroke:#000000;stroke-width:1;stroke-dasharray:3.0,3.0;"/><path d="M351.4908,58.6152 L351.2444,54.6838 L347.4012,53.8196 L355.4406,51.1054 L351.4908,58.6152" fill="#000000" style="stroke:#000000;stroke-width:1;"/><ellipse cx="298" cy="435.5" fill="#000000" rx="3" ry="3" style="stroke:#000000;stroke-width:1;"/><path d="M297,454.5 L310,454.5 C385.094,454.5 293.3846,172.0792 346,118.5 C368.9408,95.1389 400.4928,83.6584 432.9092,78.8788" fill="none" style="stroke:#000000;stroke-width:1;stroke-dasharray:3.0,3.0;"/><path d="M433.3184,82.0024 L435.252,78.5719 L432.5001,75.7552 L440.7183,77.8558 L433.3184,82.0024" fill="#000000" style="stroke:#000000;stroke-width:1;"/><ellipse cx="297" cy="454.5" fill="#000000" rx="3" ry="3" style="stroke:#000000;stroke-width:1;"/><path d="M297,475.5 L310,475.5 C376.7037,475.5 298.9435,224.7765 346,177.5 C347.1227,176.372 348.2656,175.2719 349.4276,174.199" fill="none" style="stroke:#000000;stroke-width:1;stroke-dasharray:3.0,3.0;"/><path d="M351.4837,176.5856 L351.2176,172.6569 L347.3716,171.8124 L355.3941,169.0589 L351.4837,176.5856" fill="#000000" style="stroke:#000000;stroke-width:1;"/><ellipse cx="297" cy="475.5" fill="#000000" rx="3" ry="3" style="stroke:#000000;stroke-width:1;"/><path d="M297,495.5 L310,495.5 C368.1089,495.5 304.64,277.3166 346,236.5 C351.9471,230.6311 358.4399,225.5209 365.3516,221.0851" fill="none" style="stroke:#000000;stroke-width:1;stroke-dasharray:3.0,3.0;"/><path d="M366.9062,223.6698 L367.2901,219.9192 L363.7971,218.5005 L371.8132,217.1987 L366.9062,223.6698" fill="#000000" style="stroke:#000000;stroke-width:1;"/><ellipse cx="297" cy="495.5" fill="#000000" rx="3" ry="3" style="stroke:#000000;stroke-width:1;"/><path d="M297,516.5 L310,516.5 C359.7584,516.5 310.1777,330.035 346,295.5 C361.4876,280.569 380.5204,270.5929 400.9548,264.157" fill="none" style="stroke:#000000;stroke-width:1;stroke-dasharray:3.0,3.0;"/><path d="M401.8072,267.0701 L403.1396,263.5176 L400.1023,261.2439 L408.2376,262.0258 L401.8072,267.0701" fill="#000000" style="stroke:#000000;stroke-width:1;"/><ellipse cx="297" cy="516.5" fill="#000000" rx="3" ry="3" style="stroke:#000000;stroke-width:1;"/><path d="M297,536.5 L310,536.5 C392.4561,536.5 285.6791,410.7174 346,354.5 C364.2216,337.5179 387.0564,327.0313 411.2274,320.8971" fill="none" style="stroke:#000000;stroke-width:1;stroke-dasharray:3.0,3.0;"/><path d="M411.934,323.9133 L413.4896,320.3671 L410.5208,317.8808 L418.768,319.1307 L411.934,323.9133" fill="#000000" style="stroke:#000000;stroke-width:1;"/><ellipse cx="297" cy="536.5" fill="#000000" rx="3" ry="3" style="stroke:#000000;stroke-width:1;"/><path d="M297,557.5 L310,557.5 C375.9697,557.5 296.6372,457.2643 346,413.5 C371.7276,390.6904 405.8634,379.8375 439.9788,375.5137" fill="none" style="stroke:#000000;stroke-width:1;stroke-dasharray:3.0,3.0;"/><path d="M440.3274,378.6083 L442.2998,375.2523 L439.6303,372.4191 L447.7153,374.6424 L440.3274,378.6083" fill="#000000" style="stroke:#000000;stroke-width:1;"/><ellipse cx="297" cy="557.5" fill="#000000" rx="3" ry="3" style="stroke:#000000;stroke-width:1;"/><path d="M297,577.5 L310,577.5 C358.9131,577.5 308.0697,504.3835 346,473.5 C364.1106,458.754 385.8056,449.1343 408.5462,443.0785" fill="none" style="stroke:#000000;stroke-width:1;stroke-dasharray:3.0,3.0;"/><path d="M409.2834,446.0452 L410.7712,442.5256 L407.809,440.1118 L415.963,441.2356 L409.2834,446.0452" fill="#000000" style="stroke:#000000;stroke-width:1;"/><ellipse cx="297" cy="577.5" fill="#000000" rx="3" ry="3" style="stroke:#000000;stroke-width:1;"/><path d="M297,598.5 L310,598.5 C343.4132,598.5 318.4285,551.3748 346,532.5 C371.8736,514.7876 403.264,505.0524 434.4561,500.087" fill="none" style="stroke:#000000;stroke-width:1;stroke-dasharray:3.0,3.0;"/><path d="M434.8977,503.085 L436.7047,499.7558 L434.0146,497.0889 L441.9513,498.9831 L434.8977,503.085" fill="#000000" style="stroke:#000000;stroke-width:1;"/><ellipse cx="297" cy="598.5" fill="#000000" rx="3" ry="3" style="stroke:#000000;stroke-width:1;"/><path d="M297,618.5 L310,618.5 C330,618.5 327.474,599.0357 346,591.5 C384.9755,575.6461 430.4265,567.7236 470.6514,563.9043" fill="none" style="stroke:#000000;stroke-width:1;stroke-dasharray:3.0,3.0;"/><path d="M470.9268,566.9879 L472.9642,563.6977 L470.3761,560.8206 L478.3605,563.2159 L470.9268,566.9879" fill="#000000" style="stroke:#000000;stroke-width:1;"/><ellipse cx="297" cy="618.5" fill="#000000" rx="3" ry="3" style="stroke:#000000;stroke-width:1;"/><path d="M297,639.5 L310,639.5 C335.8052,639.5 362.9781,638.606 389.711,637.2059" fill="none" style="stroke:#000000;stroke-width:1;stroke-dasharray:3.0,3.0;"/><path d="M389.8742,640.2167 L391.9691,637.0835 L389.5478,634.1952 L397.2379,636.7979 L389.8742,640.2167" fill="#000000" style="stroke:#000000;stroke-width:1;"/><ellipse cx="297" cy="639.5" fill="#000000" rx="3" ry="3" style="stroke:#000000;stroke-width:1;"/><path d="M297,659.5 L310,659.5 C357.8856,659.5 410.4674,662.7386 456.2118,666.6093" fill="none" style="stroke:#000000;stroke-width:1;stroke-dasharray:3.0,3.0;"/><path d="M455.9511,669.639 L458.4841,666.8048 L456.4726,663.5796 L463.786,667.2611 L455.9511,669.639" fill="#000000" style="stroke:#000000;stroke-width:1;"/><ellipse cx="297" cy="659.5" fill="#000000" rx="3" ry="3" style="stroke:#000000;stroke-width:1;"/><path d="M297,680.5 L310,680.5 C330.5456,680.5 327.0883,701.4707 346,709.5 C374.0386,721.4043 405.5882,728.8129 436.1517,733.341" fill="none" style="stroke:#000000;stroke-width:1;stroke-dasharray:3.0,3.0;"/><path d="M435.7156,736.4396 L438.4756,733.6681 L436.5877,730.2425 L443.898,734.4312 L435.7156,736.4396" fill="#000000" style="stroke:#000000;stroke-width:1;"/><ellipse cx="297" cy="680.5" fill="#000000" rx="3" ry="3" style="stroke:#000000;stroke-width:1;"/><path d="M297,700.5 L310,700.5 C344.1962,700.5 317.8617,749.0676 346,768.5 C369.8137,784.9459 398.3771,794.4607 427.1704,799.6352" fill="none" style="stroke:#000000;stroke-width:1;stroke-dasharray:3.0,3.0;"/><path d="M426.6564,802.7237 L429.4868,800.0207 L427.6844,796.5467 L434.8917,800.9203 L426.6564,802.7237" fill="#000000" style="stroke:#000000;stroke-width:1;"/><ellipse cx="297" cy="700.5" fill="#000000" rx="3" ry="3" style="stroke:#000000;stroke-width:1;"/><path d="M297,721.5 L310,721.5 C359.754,721.5 307.4426,796.0551 346,827.5 C366.0275,843.8332 390.4607,853.8166 415.8495,859.6033" fill="none" style="stroke:#000000;stroke-width:1;stroke-dasharray:3.0,3.0;"/><path d="M415.2122,862.6206 L418.1124,860.0812 L416.4867,856.586 L423.3926,861.1963 L415.2122,862.6206" fill="#000000" style="stroke:#000000;stroke-width:1;"/><ellipse cx="297" cy="721.5" fill="#000000" rx="3" ry="3" style="stroke:#000000;stroke-width:1;"/><path d="M297,741.5 L310,741.5 C376.401,741.5 296.3502,842.4093 346,886.5 C372.8046,910.3034 408.7628,921.0942 444.3147,925.0318" fill="none" style="stroke:#000000;stroke-width:1;stroke-dasharray:3.0,3.0;"/><path d="M444.0193,928.0625 L446.5877,925.2533 L444.61,922.0011 L451.8914,925.7702 L444.0193,928.0625" fill="#000000" style="stroke:#000000;stroke-width:1;"/><ellipse cx="297" cy="741.5" fill="#000000" rx="3" ry="3" style="stroke:#000000;stroke-width:1;"/><path d="M297,762.5 L310,762.5 C392.8922,762.5 285.3895,888.9537 346,945.5 C375.3002,972.8355 416.551,983.348 456.1018,985.9678" fill="none" style="stroke:#000000;stroke-width:1;stroke-dasharray:3.0,3.0;"/><path d="M455.9332,989.1212 L458.4668,986.0942 L456.2703,982.8144 L463.9852,986.3892 L455.9332,989.1212" fill="#000000" style="stroke:#000000;stroke-width:1;"/><ellipse cx="297" cy="762.5" fill="#000000" rx="3" ry="3" style="stroke:#000000;stroke-width:1;"/><path d="M297,782.5 L310,782.5 C359.9778,782.5 310.0322,969.7999 346,1004.5 C376.191,1033.6269 419.8716,1043.9028 461.141,1045.8255" fill="none" style="stroke:#000000;stroke-width:1;stroke-dasharray:3.0,3.0;"/><path d="M461.0352,1048.8951 L463.4432,1045.9049 L461.2468,1042.7559 L468.8151,1046.09 L461.0352,1048.8951" fill="#000000" style="stroke:#000000;stroke-width:1;"/><ellipse cx="297" cy="782.5" fill="#000000" rx="3" ry="3" style="stroke:#000000;stroke-width:1;"/><path d="M297,803.5 L310,803.5 C368.329,803.5 304.4941,1022.5179 346,1063.5 C358.5831,1075.9243 373.612,1084.9491 389.8832,1091.3733" fill="none" style="stroke:#000000;stroke-width:1;stroke-dasharray:3.0,3.0;"/><path d="M388.8447,1094.1916 L391.997,1092.1522 L390.9218,1088.5549 L396.9292,1093.9696 L388.8447,1094.1916" fill="#000000" style="stroke:#000000;stroke-width:1;"/><ellipse cx="297" cy="803.5" fill="#000000" rx="3" ry="3" style="stroke:#000000;stroke-width:1;"/><path d="M297,823.5 L310,823.5 C376.9243,823.5 298.7973,1075.0577 346,1122.5 C370.3833,1147.0071 404.2592,1158.3754 438.5629,1162.6488" fill="none" style="stroke:#000000;stroke-width:1;stroke-dasharray:3.0,3.0;"/><path d="M438.2227,1165.7634 L440.8988,1162.9039 L438.9031,1159.5342 L446.3495,1163.4993 L438.2227,1165.7634" fill="#000000" style="stroke:#000000;stroke-width:1;"/><ellipse cx="297" cy="823.5" fill="#000000" rx="3" ry="3" style="stroke:#000000;stroke-width:1;"/><path d="M297,844.5 L310,844.5 C385.315,844.5 293.2383,1127.7548 346,1181.5 C370.7829,1206.7448 405.6213,1218.1175 440.7425,1222.1526" fill="none" style="stroke:#000000;stroke-width:1;stroke-dasharray:3.0,3.0;"/><path d="M440.4417,1225.1507 L442.9911,1222.3782 L441.0433,1219.1545 L448.2378,1222.9046 L440.4417,1225.1507" fill="#000000" style="stroke:#000000;stroke-width:1;"/><ellipse cx="297" cy="844.5" fill="#000000" rx="3" ry="3" style="stroke:#000000;stroke-width:1;"/><path d="M298,862.5 L298,875.5 C298,916.4047 316.9912,1211.661 346,1240.5 C372.8056,1267.1487 410.852,1278.1979 448.35,1281.4884" fill="none" style="stroke:#000000;stroke-width:1;stroke-dasharray:3.0,3.0;"/><path d="M448.1272,1284.4839 L450.5966,1281.6555 L448.5728,1278.4929 L455.8387,1282.0454 L448.1272,1284.4839" fill="#000000" style="stroke:#000000;stroke-width:1;"/><ellipse cx="298" cy="862.5" fill="#000000" rx="3" ry="3" style="stroke:#000000;stroke-width:1;"/><path d="M237,649.5 L250,649.5 C259.399,649.5 269.8552,649.5 278.5144,649.5" fill="none" style="stroke:#000000;stroke-width:1;stroke-dasharray:3.0,3.0;"/><path d="M278.5144,652.5633 L280.8119,649.5 L278.5144,646.4367 L286.1727,649.5 L278.5144,652.5633" fill="#000000" style="stroke:#000000;stroke-width:1;"/><ellipse cx="237" cy="649.5" fill="#000000" rx="3" ry="3" style="stroke:#000000;stroke-width:1;"/><!--SRC=[fLRBJjj05DtxAwwo0Wb2ua2WNY4URGb9Wo1aKtKnu6jduibCD7Dj2I4-f__0dX_hjHE3oiQUDejOcSSvzt7EZKyT2KjBPtJm701_Ecjho6H6AIqAtOcWeqqtSzr4yjTQ2TtPsvohjnzm8NIif4uTFQtHrli5MhSqrP4Yh1Sp4wEIZf2NVrPB0C_RvtQRxyMo0tojlxtrllM0BhEoGEMmEZ0nH888oh2abYG5oUBW31r9LGO4eW2pNbSfkjNRAzDk0L_sciZ39l8xOcZyHDuU_wG9_uPn5QPfcOTC1PUNKpsO_fKE9xWmAgRsj5-QQAzphTFbswijUKqAXR2khcMPQbtFzfJzNfjK4yCy8eMgeTm_-D2L1rMZP5WSAYVYlfaaGKrAfe3ysxedxS4JjfMcrDh9j5fkZpveKp0eCAueLXZ_6yrXAnhKfMNJciu3_wW9_ogp8Y7dXphqKl2dw2i9Uv0Tj-rpnjhrgNsZ_UVRWDbl2omyEzleybjCUGfRj1ovMQtO2C9wpCPUs-ZPrQWpnNRZHbWlBuUDNfxPFCkG3dAHKOvAUM27pTBC41ABN1iFSOQ3LhZULWeFlKHV_ktzntGB6utxVKFa4iigWfpIjzzUwJHw-EfzdW5jkko1VjnMdPyrMJr_1I_1AUzKxqH1EGBfVZA6ydL66WtzRjWBZxhXpYn76F5yx1r3_oGQ74M38PnVpg3StWrsljsCmPdSFYB4fTNaGqvyVpSOYKB0RQv9hZ22wHhrwEAwNe1BNKXhTEd8O3IVV1mO7kwVIO8xj1m9p2V11IOYLyGt7atCMKHmF_kwVnAC-LKXvs4KSNh1kM5S-nJ1Z-aV]--></g></svg>