<?xml version="1.0" encoding="us-ascii" standalone="no"?><svg xmlns="http://www.w3.org/2000/svg" xmlns:xlink="http://www.w3.org/1999/xlink" contentStyleType="text/css" height="1301px" preserveAspectRatio="none" style="width:821px;height:1301px;background:#FFFFFF;" version="1.1" viewBox="0 0 821 1301" width="821px" zoomAndPan="magnify"><defs/><g><rect fill="#F1F1F1" height="81.9531" rx="5" ry="5" style="stroke:#F1F1F1;stroke-width:1.5;" width="241" x="10" y="577.5"/><text fill="#000000" font-family="sans-serif" font-size="14" font-weight="bold" lengthAdjust="spacing" textLength="101" x="15" y="593.0352">protokollnavn</text><text fill="#000000" font-family="sans-serif" font-size="14" lengthAdjust="spacing" textLength="99" x="126" y="593.0352">no.ks.fiks.plan</text><line style="stroke:#000000;stroke-width:1.0;" x1="121" x2="121" y1="577.5" y2="597.9883"/><line style="stroke:#000000;stroke-width:1.0;" x1="10" x2="251" y1="597.9883" y2="597.9883"/><text fill="#000000" font-family="sans-serif" font-size="14" font-weight="bold" lengthAdjust="spacing" textLength="34" x="15" y="613.5234">navn</text><text fill="#000000" font-family="sans-serif" font-size="14" lengthAdjust="spacing" textLength="120" x="126" y="613.5234">behandlingstyper</text><line style="stroke:#000000;stroke-width:1.0;" x1="121" x2="121" y1="597.9883" y2="618.4766"/><line style="stroke:#000000;stroke-width:1.0;" x1="10" x2="251" y1="618.4766" y2="618.4766"/><text fill="#000000" font-family="sans-serif" font-size="14" font-weight="bold" lengthAdjust="spacing" textLength="53" x="15" y="634.0117">versjon</text><text fill="#000000" font-family="sans-serif" font-size="14" lengthAdjust="spacing" textLength="16" x="126" y="634.0117">v2</text><line style="stroke:#000000;stroke-width:1.0;" x1="121" x2="121" y1="618.4766" y2="638.9648"/><line style="stroke:#000000;stroke-width:1.0;" x1="10" x2="251" y1="638.9648" y2="638.9648"/><text fill="#000000" font-family="sans-serif" font-size="14" font-weight="bold" lengthAdjust="spacing" textLength="67" x="15" y="654.5">kodeliste</text><text fill="#000000" font-family="sans-serif" font-size="14" lengthAdjust="spacing" textLength="12" x="126" y="654.5">&#160;&#160;&#160;</text><line style="stroke:#000000;stroke-width:1.0;" x1="121" x2="121" y1="638.9648" y2="659.4531"/><rect fill="none" height="81.9531" rx="5" ry="5" style="stroke:#000000;stroke-width:1.5;" width="241" x="10" y="577.5"/><rect fill="#F1F1F1" height="450.7422" rx="5" ry="5" style="stroke:#F1F1F1;stroke-width:1.5;" width="22" x="288" y="424"/><text fill="#000000" font-family="sans-serif" font-size="14" lengthAdjust="spacing" textLength="12" x="293" y="439.5352">&#160;&#160;&#160;</text><line style="stroke:#000000;stroke-width:1.0;" x1="288" x2="310" y1="444.4883" y2="444.4883"/><text fill="#000000" font-family="sans-serif" font-size="14" lengthAdjust="spacing" textLength="12" x="293" y="460.0234">&#160;&#160;&#160;</text><line style="stroke:#000000;stroke-width:1.0;" x1="288" x2="310" y1="464.9766" y2="464.9766"/><text fill="#000000" font-family="sans-serif" font-size="14" lengthAdjust="spacing" textLength="12" x="293" y="480.5117">&#160;&#160;&#160;</text><line style="stroke:#000000;stroke-width:1.0;" x1="288" x2="310" y1="485.4648" y2="485.4648"/><text fill="#000000" font-family="sans-serif" font-size="14" lengthAdjust="spacing" textLength="12" x="293" y="501">&#160;&#160;&#160;</text><line style="stroke:#000000;stroke-width:1.0;" x1="288" x2="310" y1="505.9531" y2="505.9531"/><text fill="#000000" font-family="sans-serif" font-size="14" lengthAdjust="spacing" textLength="12" x="293" y="521.4883">&#160;&#160;&#160;</text><line style="stroke:#000000;stroke-width:1.0;" x1="288" x2="310" y1="526.4414" y2="526.4414"/><text fill="#000000" font-family="sans-serif" font-size="14" lengthAdjust="spacing" textLength="12" x="293" y="541.9766">&#160;&#160;&#160;</text><line style="stroke:#000000;stroke-width:1.0;" x1="288" x2="310" y1="546.9297" y2="546.9297"/><text fill="#000000" font-family="sans-serif" font-size="14" lengthAdjust="spacing" textLength="12" x="293" y="562.4648">&#160;&#160;&#160;</text><line style="stroke:#000000;stroke-width:1.0;" x1="288" x2="310" y1="567.418" y2="567.418"/><text fill="#000000" font-family="sans-serif" font-size="14" lengthAdjust="spacing" textLength="12" x="293" y="582.9531">&#160;&#160;&#160;</text><line style="stroke:#000000;stroke-width:1.0;" x1="288" x2="310" y1="587.9063" y2="587.9063"/><text fill="#000000" font-family="sans-serif" font-size="14" lengthAdjust="spacing" textLength="12" x="293" y="603.4414">&#160;&#160;&#160;</text><line style="stroke:#000000;stroke-width:1.0;" x1="288" x2="310" y1="608.3945" y2="608.3945"/><text fill="#000000" font-family="sans-serif" font-size="14" lengthAdjust="spacing" textLength="12" x="293" y="623.9297">&#160;&#160;&#160;</text><line style="stroke:#000000;stroke-width:1.0;" x1="288" x2="310" y1="628.8828" y2="628.8828"/><text fill="#000000" font-family="sans-serif" font-size="14" lengthAdjust="spacing" textLength="12" x="293" y="644.418">&#160;&#160;&#160;</text><line style="stroke:#000000;stroke-width:1.0;" x1="288" x2="310" y1="649.3711" y2="649.3711"/><text fill="#000000" font-family="sans-serif" font-size="14" lengthAdjust="spacing" textLength="12" x="293" y="664.9063">&#160;&#160;&#160;</text><line style="stroke:#000000;stroke-width:1.0;" x1="288" x2="310" y1="669.8594" y2="669.8594"/><text fill="#000000" font-family="sans-serif" font-size="14" lengthAdjust="spacing" textLength="12" x="293" y="685.3945">&#160;&#160;&#160;</text><line style="stroke:#000000;stroke-width:1.0;" x1="288" x2="310" y1="690.3477" y2="690.3477"/><text fill="#000000" font-family="sans-serif" font-size="14" lengthAdjust="spacing" textLength="12" x="293" y="705.8828">&#160;&#160;&#160;</text><line style="stroke:#000000;stroke-width:1.0;" x1="288" x2="310" y1="710.8359" y2="710.8359"/><text fill="#000000" font-family="sans-serif" font-size="14" lengthAdjust="spacing" textLength="12" x="293" y="726.3711">&#160;&#160;&#160;</text><line style="stroke:#000000;stroke-width:1.0;" x1="288" x2="310" y1="731.3242" y2="731.3242"/><text fill="#000000" font-family="sans-serif" font-size="14" lengthAdjust="spacing" textLength="12" x="293" y="746.8594">&#160;&#160;&#160;</text><line style="stroke:#000000;stroke-width:1.0;" x1="288" x2="310" y1="751.8125" y2="751.8125"/><text fill="#000000" font-family="sans-serif" font-size="14" lengthAdjust="spacing" textLength="12" x="293" y="767.3477">&#160;&#160;&#160;</text><line style="stroke:#000000;stroke-width:1.0;" x1="288" x2="310" y1="772.3008" y2="772.3008"/><text fill="#000000" font-family="sans-serif" font-size="14" lengthAdjust="spacing" textLength="12" x="293" y="787.8359">&#160;&#160;&#160;</text><line style="stroke:#000000;stroke-width:1.0;" x1="288" x2="310" y1="792.7891" y2="792.7891"/><text fill="#000000" font-family="sans-serif" font-size="14" lengthAdjust="spacing" textLength="12" x="293" y="808.3242">&#160;&#160;&#160;</text><line style="stroke:#000000;stroke-width:1.0;" x1="288" x2="310" y1="813.2773" y2="813.2773"/><text fill="#000000" font-family="sans-serif" font-size="14" lengthAdjust="spacing" textLength="12" x="293" y="828.8125">&#160;&#160;&#160;</text><line style="stroke:#000000;stroke-width:1.0;" x1="288" x2="310" y1="833.7656" y2="833.7656"/><text fill="#000000" font-family="sans-serif" font-size="14" lengthAdjust="spacing" textLength="12" x="293" y="849.3008">&#160;&#160;&#160;</text><line style="stroke:#000000;stroke-width:1.0;" x1="288" x2="310" y1="854.2539" y2="854.2539"/><text fill="#000000" font-family="sans-serif" font-size="14" lengthAdjust="spacing" textLength="12" x="293" y="869.7891">&#160;&#160;&#160;</text><rect fill="none" height="450.7422" rx="5" ry="5" style="stroke:#000000;stroke-width:1.5;" width="22" x="288" y="424"/><rect fill="#F1F1F1" height="40.9766" rx="5" ry="5" style="stroke:#F1F1F1;stroke-width:1.5;" width="462" x="347" y="10"/><text fill="#000000" font-family="sans-serif" font-size="14" font-weight="bold" lengthAdjust="spacing" textLength="71" x="352" y="25.5352">kodeverdi</text><text fill="#000000" font-family="sans-serif" font-size="14" lengthAdjust="spacing" textLength="9" x="479" y="25.5352">1</text><line style="stroke:#000000;stroke-width:1.0;" x1="474" x2="474" y1="10" y2="30.4883"/><line style="stroke:#000000;stroke-width:1.0;" x1="347" x2="809" y1="30.4883" y2="30.4883"/><text fill="#000000" font-family="sans-serif" font-size="14" font-weight="bold" lengthAdjust="spacing" textLength="117" x="352" y="46.0234">kodebeskrivelse</text><text fill="#000000" font-family="sans-serif" font-size="14" lengthAdjust="spacing" textLength="325" x="479" y="46.0234">Mottatt planinitiativ/Bestilling av oppstartsm&#248;te</text><line style="stroke:#000000;stroke-width:1.0;" x1="474" x2="474" y1="30.4883" y2="50.9766"/><rect fill="none" height="40.9766" rx="5" ry="5" style="stroke:#000000;stroke-width:1.5;" width="462" x="347" y="10"/><rect fill="#F1F1F1" height="40.9766" rx="5" ry="5" style="stroke:#F1F1F1;stroke-width:1.5;" width="274" x="441" y="69"/><text fill="#000000" font-family="sans-serif" font-size="14" font-weight="bold" lengthAdjust="spacing" textLength="71" x="446" y="84.5352">kodeverdi</text><text fill="#000000" font-family="sans-serif" font-size="14" lengthAdjust="spacing" textLength="9" x="573" y="84.5352">2</text><line style="stroke:#000000;stroke-width:1.0;" x1="568" x2="568" y1="69" y2="89.4883"/><line style="stroke:#000000;stroke-width:1.0;" x1="441" x2="715" y1="89.4883" y2="89.4883"/><text fill="#000000" font-family="sans-serif" font-size="14" font-weight="bold" lengthAdjust="spacing" textLength="117" x="446" y="105.0234">kodebeskrivelse</text><text fill="#000000" font-family="sans-serif" font-size="14" lengthAdjust="spacing" textLength="137" x="573" y="105.0234">Stoppet planinitiativ</text><line style="stroke:#000000;stroke-width:1.0;" x1="568" x2="568" y1="89.4883" y2="109.9766"/><rect fill="none" height="40.9766" rx="5" ry="5" style="stroke:#000000;stroke-width:1.5;" width="274" x="441" y="69"/><rect fill="#F1F1F1" height="40.9766" rx="5" ry="5" style="stroke:#F1F1F1;stroke-width:1.5;" width="450" x="353" y="128"/><text fill="#000000" font-family="sans-serif" font-size="14" font-weight="bold" lengthAdjust="spacing" textLength="71" x="358" y="143.5352">kodeverdi</text><text fill="#000000" font-family="sans-serif" font-size="14" lengthAdjust="spacing" textLength="9" x="485" y="143.5352">8</text><line style="stroke:#000000;stroke-width:1.0;" x1="480" x2="480" y1="128" y2="148.4883"/><line style="stroke:#000000;stroke-width:1.0;" x1="353" x2="803" y1="148.4883" y2="148.4883"/><text fill="#000000" font-family="sans-serif" font-size="14" font-weight="bold" lengthAdjust="spacing" textLength="117" x="358" y="164.0234">kodebeskrivelse</text><text fill="#000000" font-family="sans-serif" font-size="14" lengthAdjust="spacing" textLength="313" x="485" y="164.0234">Planlegging igangsatt/Oppstartsm&#248;te avholdt</text><line style="stroke:#000000;stroke-width:1.0;" x1="480" x2="480" y1="148.4883" y2="168.9766"/><rect fill="none" height="40.9766" rx="5" ry="5" style="stroke:#000000;stroke-width:1.5;" width="450" x="353" y="128"/><rect fill="#F1F1F1" height="40.9766" rx="5" ry="5" style="stroke:#F1F1F1;stroke-width:1.5;" width="414" x="371" y="187"/><text fill="#000000" font-family="sans-serif" font-size="14" font-weight="bold" lengthAdjust="spacing" textLength="71" x="376" y="202.5352">kodeverdi</text><text fill="#000000" font-family="sans-serif" font-size="14" lengthAdjust="spacing" textLength="9" x="503" y="202.5352">9</text><line style="stroke:#000000;stroke-width:1.0;" x1="498" x2="498" y1="187" y2="207.4883"/><line style="stroke:#000000;stroke-width:1.0;" x1="371" x2="785" y1="207.4883" y2="207.4883"/><text fill="#000000" font-family="sans-serif" font-size="14" font-weight="bold" lengthAdjust="spacing" textLength="117" x="376" y="223.0234">kodebeskrivelse</text><text fill="#000000" font-family="sans-serif" font-size="14" lengthAdjust="spacing" textLength="277" x="503" y="223.0234">Kunngj&#248;ring og varsling av planoppstart</text><line style="stroke:#000000;stroke-width:1.0;" x1="498" x2="498" y1="207.4883" y2="227.9766"/><rect fill="none" height="40.9766" rx="5" ry="5" style="stroke:#000000;stroke-width:1.5;" width="414" x="371" y="187"/><rect fill="#F1F1F1" height="40.9766" rx="5" ry="5" style="stroke:#F1F1F1;stroke-width:1.5;" width="340" x="408" y="246"/><text fill="#000000" font-family="sans-serif" font-size="14" font-weight="bold" lengthAdjust="spacing" textLength="71" x="413" y="261.5352">kodeverdi</text><text fill="#000000" font-family="sans-serif" font-size="14" lengthAdjust="spacing" textLength="18" x="540" y="261.5352">10</text><line style="stroke:#000000;stroke-width:1.0;" x1="535" x2="535" y1="246" y2="266.4883"/><line style="stroke:#000000;stroke-width:1.0;" x1="408" x2="748" y1="266.4883" y2="266.4883"/><text fill="#000000" font-family="sans-serif" font-size="14" font-weight="bold" lengthAdjust="spacing" textLength="117" x="413" y="282.0234">kodebeskrivelse</text><text fill="#000000" font-family="sans-serif" font-size="14" lengthAdjust="spacing" textLength="203" x="540" y="282.0234">Planforslag tatt til behandling</text><line style="stroke:#000000;stroke-width:1.0;" x1="535" x2="535" y1="266.4883" y2="286.9766"/><rect fill="none" height="40.9766" rx="5" ry="5" style="stroke:#000000;stroke-width:1.5;" width="340" x="408" y="246"/><rect fill="#F1F1F1" height="40.9766" rx="5" ry="5" style="stroke:#F1F1F1;stroke-width:1.5;" width="317" x="419.5" y="305"/><text fill="#000000" font-family="sans-serif" font-size="14" font-weight="bold" lengthAdjust="spacing" textLength="71" x="424.5" y="320.5352">kodeverdi</text><text fill="#000000" font-family="sans-serif" font-size="14" lengthAdjust="spacing" textLength="18" x="551.5" y="320.5352">11</text><line style="stroke:#000000;stroke-width:1.0;" x1="546.5" x2="546.5" y1="305" y2="325.4883"/><line style="stroke:#000000;stroke-width:1.0;" x1="419.5" x2="736.5" y1="325.4883" y2="325.4883"/><text fill="#000000" font-family="sans-serif" font-size="14" font-weight="bold" lengthAdjust="spacing" textLength="117" x="424.5" y="341.0234">kodebeskrivelse</text><text fill="#000000" font-family="sans-serif" font-size="14" lengthAdjust="spacing" textLength="180" x="551.5" y="341.0234">Besluttet offentlig ettersyn</text><line style="stroke:#000000;stroke-width:1.0;" x1="546.5" x2="546.5" y1="325.4883" y2="345.9766"/><rect fill="none" height="40.9766" rx="5" ry="5" style="stroke:#000000;stroke-width:1.5;" width="317" x="419.5" y="305"/><rect fill="#F1F1F1" height="40.9766" rx="5" ry="5" style="stroke:#F1F1F1;stroke-width:1.5;" width="259" x="448.5" y="364"/><text fill="#000000" font-family="sans-serif" font-size="14" font-weight="bold" lengthAdjust="spacing" textLength="71" x="453.5" y="379.5352">kodeverdi</text><text fill="#000000" font-family="sans-serif" font-size="14" lengthAdjust="spacing" textLength="18" x="580.5" y="379.5352">12</text><line style="stroke:#000000;stroke-width:1.0;" x1="575.5" x2="575.5" y1="364" y2="384.4883"/><line style="stroke:#000000;stroke-width:1.0;" x1="448.5" x2="707.5" y1="384.4883" y2="384.4883"/><text fill="#000000" font-family="sans-serif" font-size="14" font-weight="bold" lengthAdjust="spacing" textLength="117" x="453.5" y="400.0234">kodebeskrivelse</text><text fill="#000000" font-family="sans-serif" font-size="14" lengthAdjust="spacing" textLength="122" x="580.5" y="400.0234">Mottatt innsigelse</text><line style="stroke:#000000;stroke-width:1.0;" x1="575.5" x2="575.5" y1="384.4883" y2="404.9766"/><rect fill="none" height="40.9766" rx="5" ry="5" style="stroke:#000000;stroke-width:1.5;" width="259" x="448.5" y="364"/><rect fill="#F1F1F1" height="40.9766" rx="5" ry="5" style="stroke:#F1F1F1;stroke-width:1.5;" width="324" x="416" y="423"/><text fill="#000000" font-family="sans-serif" font-size="14" font-weight="bold" lengthAdjust="spacing" textLength="71" x="421" y="438.5352">kodeverdi</text><text fill="#000000" font-family="sans-serif" font-size="14" lengthAdjust="spacing" textLength="18" x="548" y="438.5352">13</text><line style="stroke:#000000;stroke-width:1.0;" x1="543" x2="543" y1="423" y2="443.4883"/><line style="stroke:#000000;stroke-width:1.0;" x1="416" x2="740" y1="443.4883" y2="443.4883"/><text fill="#000000" font-family="sans-serif" font-size="14" font-weight="bold" lengthAdjust="spacing" textLength="117" x="421" y="459.0234">kodebeskrivelse</text><text fill="#000000" font-family="sans-serif" font-size="14" lengthAdjust="spacing" textLength="187" x="548" y="459.0234">Plan vedtatt med innsigelse</text><line style="stroke:#000000;stroke-width:1.0;" x1="543" x2="543" y1="443.4883" y2="463.9766"/><rect fill="none" height="40.9766" rx="5" ry="5" style="stroke:#000000;stroke-width:1.5;" width="324" x="416" y="423"/><rect fill="#F1F1F1" height="40.9766" rx="5" ry="5" style="stroke:#F1F1F1;stroke-width:1.5;" width="272" x="442" y="482"/><text fill="#000000" font-family="sans-serif" font-size="14" font-weight="bold" lengthAdjust="spacing" textLength="71" x="447" y="497.5352">kodeverdi</text><text fill="#000000" font-family="sans-serif" font-size="14" lengthAdjust="spacing" textLength="18" x="574" y="497.5352">14</text><line style="stroke:#000000;stroke-width:1.0;" x1="569" x2="569" y1="482" y2="502.4883"/><line style="stroke:#000000;stroke-width:1.0;" x1="442" x2="714" y1="502.4883" y2="502.4883"/><text fill="#000000" font-family="sans-serif" font-size="14" font-weight="bold" lengthAdjust="spacing" textLength="117" x="447" y="518.0234">kodebeskrivelse</text><text fill="#000000" font-family="sans-serif" font-size="14" lengthAdjust="spacing" textLength="135" x="574" y="518.0234">Plan endelig vedtatt</text><line style="stroke:#000000;stroke-width:1.0;" x1="569" x2="569" y1="502.4883" y2="522.9766"/><rect fill="none" height="40.9766" rx="5" ry="5" style="stroke:#000000;stroke-width:1.5;" width="272" x="442" y="482"/><rect fill="#F1F1F1" height="40.9766" rx="5" ry="5" style="stroke:#F1F1F1;stroke-width:1.5;" width="198" x="479" y="541"/><text fill="#000000" font-family="sans-serif" font-size="14" font-weight="bold" lengthAdjust="spacing" textLength="71" x="484" y="556.5352">kodeverdi</text><text fill="#000000" font-family="sans-serif" font-size="14" lengthAdjust="spacing" textLength="18" x="611" y="556.5352">15</text><line style="stroke:#000000;stroke-width:1.0;" x1="606" x2="606" y1="541" y2="561.4883"/><line style="stroke:#000000;stroke-width:1.0;" x1="479" x2="677" y1="561.4883" y2="561.4883"/><text fill="#000000" font-family="sans-serif" font-size="14" font-weight="bold" lengthAdjust="spacing" textLength="117" x="484" y="577.0234">kodebeskrivelse</text><text fill="#000000" font-family="sans-serif" font-size="14" lengthAdjust="spacing" textLength="61" x="611" y="577.0234">Ikraftsatt</text><line style="stroke:#000000;stroke-width:1.0;" x1="606" x2="606" y1="561.4883" y2="581.9766"/><rect fill="none" height="40.9766" rx="5" ry="5" style="stroke:#000000;stroke-width:1.5;" width="198" x="479" y="541"/><rect fill="#F1F1F1" height="40.9766" rx="5" ry="5" style="stroke:#F1F1F1;stroke-width:1.5;" width="363" x="396.5" y="600"/><text fill="#000000" font-family="sans-serif" font-size="14" font-weight="bold" lengthAdjust="spacing" textLength="71" x="401.5" y="615.5352">kodeverdi</text><text fill="#000000" font-family="sans-serif" font-size="14" lengthAdjust="spacing" textLength="18" x="528.5" y="615.5352">16</text><line style="stroke:#000000;stroke-width:1.0;" x1="523.5" x2="523.5" y1="600" y2="620.4883"/><line style="stroke:#000000;stroke-width:1.0;" x1="396.5" x2="759.5" y1="620.4883" y2="620.4883"/><text fill="#000000" font-family="sans-serif" font-size="14" font-weight="bold" lengthAdjust="spacing" textLength="117" x="401.5" y="636.0234">kodebeskrivelse</text><text fill="#000000" font-family="sans-serif" font-size="14" lengthAdjust="spacing" textLength="226" x="528.5" y="636.0234">Kunngj&#248;ring endelig vedtatt plan</text><line style="stroke:#000000;stroke-width:1.0;" x1="523.5" x2="523.5" y1="620.4883" y2="640.9766"/><rect fill="none" height="40.9766" rx="5" ry="5" style="stroke:#000000;stroke-width:1.5;" width="363" x="396.5" y="600"/><rect fill="#F1F1F1" height="40.9766" rx="5" ry="5" style="stroke:#F1F1F1;stroke-width:1.5;" width="227" x="464.5" y="659"/><text fill="#000000" font-family="sans-serif" font-size="14" font-weight="bold" lengthAdjust="spacing" textLength="71" x="469.5" y="674.5352">kodeverdi</text><text fill="#000000" font-family="sans-serif" font-size="14" lengthAdjust="spacing" textLength="18" x="596.5" y="674.5352">17</text><line style="stroke:#000000;stroke-width:1.0;" x1="591.5" x2="591.5" y1="659" y2="679.4883"/><line style="stroke:#000000;stroke-width:1.0;" x1="464.5" x2="691.5" y1="679.4883" y2="679.4883"/><text fill="#000000" font-family="sans-serif" font-size="14" font-weight="bold" lengthAdjust="spacing" textLength="117" x="469.5" y="695.0234">kodebeskrivelse</text><text fill="#000000" font-family="sans-serif" font-size="14" lengthAdjust="spacing" textLength="90" x="596.5" y="695.0234">Mottatt klage</text><line style="stroke:#000000;stroke-width:1.0;" x1="591.5" x2="591.5" y1="679.4883" y2="699.9766"/><rect fill="none" height="40.9766" rx="5" ry="5" style="stroke:#000000;stroke-width:1.5;" width="227" x="464.5" y="659"/><rect fill="#F1F1F1" height="40.9766" rx="5" ry="5" style="stroke:#F1F1F1;stroke-width:1.5;" width="268" x="444" y="718"/><text fill="#000000" font-family="sans-serif" font-size="14" font-weight="bold" lengthAdjust="spacing" textLength="71" x="449" y="733.5352">kodeverdi</text><text fill="#000000" font-family="sans-serif" font-size="14" lengthAdjust="spacing" textLength="18" x="576" y="733.5352">18</text><line style="stroke:#000000;stroke-width:1.0;" x1="571" x2="571" y1="718" y2="738.4883"/><line style="stroke:#000000;stroke-width:1.0;" x1="444" x2="712" y1="738.4883" y2="738.4883"/><text fill="#000000" font-family="sans-serif" font-size="14" font-weight="bold" lengthAdjust="spacing" textLength="117" x="449" y="754.0234">kodebeskrivelse</text><text fill="#000000" font-family="sans-serif" font-size="14" lengthAdjust="spacing" textLength="131" x="576" y="754.0234">Vedtatt opphevelse</text><line style="stroke:#000000;stroke-width:1.0;" x1="571" x2="571" y1="738.4883" y2="758.9766"/><rect fill="none" height="40.9766" rx="5" ry="5" style="stroke:#000000;stroke-width:1.5;" width="268" x="444" y="718"/><rect fill="#F1F1F1" height="40.9766" rx="5" ry="5" style="stroke:#F1F1F1;stroke-width:1.5;" width="287" x="434.5" y="777"/><text fill="#000000" font-family="sans-serif" font-size="14" font-weight="bold" lengthAdjust="spacing" textLength="71" x="439.5" y="792.5352">kodeverdi</text><text fill="#000000" font-family="sans-serif" font-size="14" lengthAdjust="spacing" textLength="18" x="566.5" y="792.5352">19</text><line style="stroke:#000000;stroke-width:1.0;" x1="561.5" x2="561.5" y1="777" y2="797.4883"/><line style="stroke:#000000;stroke-width:1.0;" x1="434.5" x2="721.5" y1="797.4883" y2="797.4883"/><text fill="#000000" font-family="sans-serif" font-size="14" font-weight="bold" lengthAdjust="spacing" textLength="117" x="439.5" y="813.0234">kodebeskrivelse</text><text fill="#000000" font-family="sans-serif" font-size="14" lengthAdjust="spacing" textLength="150" x="566.5" y="813.0234">Registrert kommentar</text><line style="stroke:#000000;stroke-width:1.0;" x1="561.5" x2="561.5" y1="797.4883" y2="817.9766"/><rect fill="none" height="40.9766" rx="5" ry="5" style="stroke:#000000;stroke-width:1.5;" width="287" x="434.5" y="777"/><rect fill="#F1F1F1" height="40.9766" rx="5" ry="5" style="stroke:#F1F1F1;stroke-width:1.5;" width="310" x="423" y="836"/><text fill="#000000" font-family="sans-serif" font-size="14" font-weight="bold" lengthAdjust="spacing" textLength="71" x="428" y="851.5352">kodeverdi</text><text fill="#000000" font-family="sans-serif" font-size="14" lengthAdjust="spacing" textLength="18" x="555" y="851.5352">20</text><line style="stroke:#000000;stroke-width:1.0;" x1="550" x2="550" y1="836" y2="856.4883"/><line style="stroke:#000000;stroke-width:1.0;" x1="423" x2="733" y1="856.4883" y2="856.4883"/><text fill="#000000" font-family="sans-serif" font-size="14" font-weight="bold" lengthAdjust="spacing" textLength="117" x="428" y="872.0234">kodebeskrivelse</text><text fill="#000000" font-family="sans-serif" font-size="14" lengthAdjust="spacing" textLength="173" x="555" y="872.0234">Vedtatt forenklet endring</text><line style="stroke:#000000;stroke-width:1.0;" x1="550" x2="550" y1="856.4883" y2="876.9766"/><rect fill="none" height="40.9766" rx="5" ry="5" style="stroke:#000000;stroke-width:1.5;" width="310" x="423" y="836"/><rect fill="#F1F1F1" height="40.9766" rx="5" ry="5" style="stroke:#F1F1F1;stroke-width:1.5;" width="252" x="452" y="895"/><text fill="#000000" font-family="sans-serif" font-size="14" font-weight="bold" lengthAdjust="spacing" textLength="71" x="457" y="910.5352">kodeverdi</text><text fill="#000000" font-family="sans-serif" font-size="14" lengthAdjust="spacing" textLength="18" x="584" y="910.5352">21</text><line style="stroke:#000000;stroke-width:1.0;" x1="579" x2="579" y1="895" y2="915.4883"/><line style="stroke:#000000;stroke-width:1.0;" x1="452" x2="704" y1="915.4883" y2="915.4883"/><text fill="#000000" font-family="sans-serif" font-size="14" font-weight="bold" lengthAdjust="spacing" textLength="117" x="457" y="931.0234">kodebeskrivelse</text><text fill="#000000" font-family="sans-serif" font-size="14" lengthAdjust="spacing" textLength="115" x="584" y="931.0234">Trukket/uaktuell</text><line style="stroke:#000000;stroke-width:1.0;" x1="579" x2="579" y1="915.4883" y2="935.9766"/><rect fill="none" height="40.9766" rx="5" ry="5" style="stroke:#000000;stroke-width:1.5;" width="252" x="452" y="895"/><rect fill="#F1F1F1" height="40.9766" rx="5" ry="5" style="stroke:#F1F1F1;stroke-width:1.5;" width="227" x="464.5" y="954"/><text fill="#000000" font-family="sans-serif" font-size="14" font-weight="bold" lengthAdjust="spacing" textLength="71" x="469.5" y="969.5352">kodeverdi</text><text fill="#000000" font-family="sans-serif" font-size="14" lengthAdjust="spacing" textLength="18" x="596.5" y="969.5352">22</text><line style="stroke:#000000;stroke-width:1.0;" x1="591.5" x2="591.5" y1="954" y2="974.4883"/><line style="stroke:#000000;stroke-width:1.0;" x1="464.5" x2="691.5" y1="974.4883" y2="974.4883"/><text fill="#000000" font-family="sans-serif" font-size="14" font-weight="bold" lengthAdjust="spacing" textLength="117" x="469.5" y="990.0234">kodebeskrivelse</text><text fill="#000000" font-family="sans-serif" font-size="14" lengthAdjust="spacing" textLength="90" x="596.5" y="990.0234">Ikke fremmet</text><line style="stroke:#000000;stroke-width:1.0;" x1="591.5" x2="591.5" y1="974.4883" y2="994.9766"/><rect fill="none" height="40.9766" rx="5" ry="5" style="stroke:#000000;stroke-width:1.5;" width="227" x="464.5" y="954"/><rect fill="#F1F1F1" height="40.9766" rx="5" ry="5" style="stroke:#F1F1F1;stroke-width:1.5;" width="216" x="470" y="1013"/><text fill="#000000" font-family="sans-serif" font-size="14" font-weight="bold" lengthAdjust="spacing" textLength="71" x="475" y="1028.5352">kodeverdi</text><text fill="#000000" font-family="sans-serif" font-size="14" lengthAdjust="spacing" textLength="18" x="602" y="1028.5352">23</text><line style="stroke:#000000;stroke-width:1.0;" x1="597" x2="597" y1="1013" y2="1033.4883"/><line style="stroke:#000000;stroke-width:1.0;" x1="470" x2="686" y1="1033.4883" y2="1033.4883"/><text fill="#000000" font-family="sans-serif" font-size="14" font-weight="bold" lengthAdjust="spacing" textLength="117" x="475" y="1049.0234">kodebeskrivelse</text><text fill="#000000" font-family="sans-serif" font-size="14" lengthAdjust="spacing" textLength="79" x="602" y="1049.0234">Ikke vedtatt</text><line style="stroke:#000000;stroke-width:1.0;" x1="597" x2="597" y1="1033.4883" y2="1053.9766"/><rect fill="none" height="40.9766" rx="5" ry="5" style="stroke:#000000;stroke-width:1.5;" width="216" x="470" y="1013"/><rect fill="#F1F1F1" height="40.9766" rx="5" ry="5" style="stroke:#F1F1F1;stroke-width:1.5;" width="363" x="396.5" y="1072"/><text fill="#000000" font-family="sans-serif" font-size="14" font-weight="bold" lengthAdjust="spacing" textLength="71" x="401.5" y="1087.5352">kodeverdi</text><text fill="#000000" font-family="sans-serif" font-size="14" lengthAdjust="spacing" textLength="18" x="528.5" y="1087.5352">24</text><line style="stroke:#000000;stroke-width:1.0;" x1="523.5" x2="523.5" y1="1072" y2="1092.4883"/><line style="stroke:#000000;stroke-width:1.0;" x1="396.5" x2="759.5" y1="1092.4883" y2="1092.4883"/><text fill="#000000" font-family="sans-serif" font-size="14" font-weight="bold" lengthAdjust="spacing" textLength="117" x="401.5" y="1108.0234">kodebeskrivelse</text><text fill="#000000" font-family="sans-serif" font-size="14" lengthAdjust="spacing" textLength="226" x="528.5" y="1108.0234">Kunngj&#248;ring av offentlig ettersyn</text><line style="stroke:#000000;stroke-width:1.0;" x1="523.5" x2="523.5" y1="1092.4883" y2="1112.9766"/><rect fill="none" height="40.9766" rx="5" ry="5" style="stroke:#000000;stroke-width:1.5;" width="363" x="396.5" y="1072"/><rect fill="#F1F1F1" height="40.9766" rx="5" ry="5" style="stroke:#F1F1F1;stroke-width:1.5;" width="263" x="446.5" y="1131"/><text fill="#000000" font-family="sans-serif" font-size="14" font-weight="bold" lengthAdjust="spacing" textLength="71" x="451.5" y="1146.5352">kodeverdi</text><text fill="#000000" font-family="sans-serif" font-size="14" lengthAdjust="spacing" textLength="18" x="578.5" y="1146.5352">25</text><line style="stroke:#000000;stroke-width:1.0;" x1="573.5" x2="573.5" y1="1131" y2="1151.4883"/><line style="stroke:#000000;stroke-width:1.0;" x1="446.5" x2="709.5" y1="1151.4883" y2="1151.4883"/><text fill="#000000" font-family="sans-serif" font-size="14" font-weight="bold" lengthAdjust="spacing" textLength="117" x="451.5" y="1167.0234">kodebeskrivelse</text><text fill="#000000" font-family="sans-serif" font-size="14" lengthAdjust="spacing" textLength="126" x="578.5" y="1167.0234">H&#248;ringsfrist utg&#229;tt</text><line style="stroke:#000000;stroke-width:1.0;" x1="573.5" x2="573.5" y1="1151.4883" y2="1171.9766"/><rect fill="none" height="40.9766" rx="5" ry="5" style="stroke:#000000;stroke-width:1.5;" width="263" x="446.5" y="1131"/><rect fill="#F1F1F1" height="40.9766" rx="5" ry="5" style="stroke:#F1F1F1;stroke-width:1.5;" width="259" x="448.5" y="1190"/><text fill="#000000" font-family="sans-serif" font-size="14" font-weight="bold" lengthAdjust="spacing" textLength="71" x="453.5" y="1205.5352">kodeverdi</text><text fill="#000000" font-family="sans-serif" font-size="14" lengthAdjust="spacing" textLength="18" x="580.5" y="1205.5352">26</text><line style="stroke:#000000;stroke-width:1.0;" x1="575.5" x2="575.5" y1="1190" y2="1210.4883"/><line style="stroke:#000000;stroke-width:1.0;" x1="448.5" x2="707.5" y1="1210.4883" y2="1210.4883"/><text fill="#000000" font-family="sans-serif" font-size="14" font-weight="bold" lengthAdjust="spacing" textLength="117" x="453.5" y="1226.0234">kodebeskrivelse</text><text fill="#000000" font-family="sans-serif" font-size="14" lengthAdjust="spacing" textLength="122" x="580.5" y="1226.0234">Innsigelse trukket</text><line style="stroke:#000000;stroke-width:1.0;" x1="575.5" x2="575.5" y1="1210.4883" y2="1230.9766"/><rect fill="none" height="40.9766" rx="5" ry="5" style="stroke:#000000;stroke-width:1.5;" width="259" x="448.5" y="1190"/><rect fill="#F1F1F1" height="40.9766" rx="5" ry="5" style="stroke:#F1F1F1;stroke-width:1.5;" width="244" x="456" y="1249"/><text fill="#000000" font-family="sans-serif" font-size="14" font-weight="bold" lengthAdjust="spacing" textLength="71" x="461" y="1264.5352">kodeverdi</text><text fill="#000000" font-family="sans-serif" font-size="14" lengthAdjust="spacing" textLength="18" x="588" y="1264.5352">27</text><line style="stroke:#000000;stroke-width:1.0;" x1="583" x2="583" y1="1249" y2="1269.4883"/><line style="stroke:#000000;stroke-width:1.0;" x1="456" x2="700" y1="1269.4883" y2="1269.4883"/><text fill="#000000" font-family="sans-serif" font-size="14" font-weight="bold" lengthAdjust="spacing" textLength="117" x="461" y="1285.0234">kodebeskrivelse</text><text fill="#000000" font-family="sans-serif" font-size="14" lengthAdjust="spacing" textLength="107" x="588" y="1285.0234">Vedtatt endring</text><line style="stroke:#000000;stroke-width:1.0;" x1="583" x2="583" y1="1269.4883" y2="1289.9766"/><rect fill="none" height="40.9766" rx="5" ry="5" style="stroke:#000000;stroke-width:1.5;" width="244" x="456" y="1249"/><path d="M299.5,435.5 L299.5,422.5 C299.5,381.8228 318.1657,88.1917 347,59.5 C348.1257,58.3798 349.2714,57.2873 350.436,56.2217 " fill="none" style="stroke:#000000;stroke-width:1.0;stroke-dasharray:3.0,3.0;"/><path d="M352.4782,58.6128 L352.2294,54.6901 L348.3939,53.8306 L356.4138,51.1163 L352.4782,58.6128 " fill="#000000" style="stroke:#000000;stroke-width:1.0;"/><ellipse cx="299.5" cy="435.5" fill="#000000" rx="3" ry="3" style="stroke:#000000;stroke-width:1.0;"/><path d="M298,454.5 L311,454.5 C386.094,454.5 294.3918,172.0863 347,118.5 C369.8234,95.2523 401.1918,83.7879 433.4406,78.9854 " fill="none" style="stroke:#000000;stroke-width:1.0;stroke-dasharray:3.0,3.0;"/><path d="M433.8523,82.0931 L435.7713,78.6767 L433.0289,75.8778 L441.2097,77.9562 L433.8523,82.0931 " fill="#000000" style="stroke:#000000;stroke-width:1.0;"/><ellipse cx="298" cy="454.5" fill="#000000" rx="3" ry="3" style="stroke:#000000;stroke-width:1.0;"/><path d="M298,475.5 L311,475.5 C377.7037,475.5 299.9498,224.7828 347,177.5 C348.1202,176.3743 349.2604,175.2763 350.4199,174.2055 " fill="none" style="stroke:#000000;stroke-width:1.0;stroke-dasharray:3.0,3.0;"/><path d="M352.4719,176.5868 L352.2058,172.6665 L348.3679,171.8243 L356.3729,169.0754 L352.4719,176.5868 " fill="#000000" style="stroke:#000000;stroke-width:1.0;"/><ellipse cx="298" cy="475.5" fill="#000000" rx="3" ry="3" style="stroke:#000000;stroke-width:1.0;"/><path d="M298,495.5 L311,495.5 C369.1089,495.5 305.6455,277.3222 347,236.5 C352.5434,231.0279 358.5622,226.2165 364.9532,221.997 " fill="none" style="stroke:#000000;stroke-width:1.0;stroke-dasharray:3.0,3.0;"/><path d="M366.5631,224.6015 L366.9066,220.7896 L363.3434,219.3926 L371.4644,217.9724 L366.5631,224.6015 " fill="#000000" style="stroke:#000000;stroke-width:1.0;"/><ellipse cx="298" cy="495.5" fill="#000000" rx="3" ry="3" style="stroke:#000000;stroke-width:1.0;"/><path d="M298,516.5 L311,516.5 C360.7584,516.5 311.1823,330.0398 347,295.5 C362.1912,280.8508 380.8018,270.9784 400.7995,264.5422 " fill="none" style="stroke:#000000;stroke-width:1.0;stroke-dasharray:3.0,3.0;"/><path d="M401.6868,267.5128 L403.0274,263.8767 L399.9122,261.5716 L408.226,262.3239 L401.6868,267.5128 " fill="#000000" style="stroke:#000000;stroke-width:1.0;"/><ellipse cx="298" cy="516.5" fill="#000000" rx="3" ry="3" style="stroke:#000000;stroke-width:1.0;"/><path d="M298,536.5 L311,536.5 C393.4561,536.5 286.6866,410.7255 347,354.5 C365.2474,337.4894 388.1326,327.0057 412.3494,320.888 " fill="none" style="stroke:#000000;stroke-width:1.0;stroke-dasharray:3.0,3.0;"/><path d="M413.0537,323.9099 L414.6158,320.3598 L411.6451,317.8662 L419.9041,319.1272 L413.0537,323.9099 " fill="#000000" style="stroke:#000000;stroke-width:1.0;"/><ellipse cx="298" cy="536.5" fill="#000000" rx="3" ry="3" style="stroke:#000000;stroke-width:1.0;"/><path d="M298,557.5 L311,557.5 C376.9697,557.5 297.643,457.2709 347,413.5 C372.7398,390.6733 406.9171,379.8387 441.0515,375.5388 " fill="none" style="stroke:#000000;stroke-width:1.0;stroke-dasharray:3.0,3.0;"/><path d="M441.3978,378.635 L443.3736,375.2791 L440.7052,372.4427 L448.7919,374.673 L441.3978,378.635 " fill="#000000" style="stroke:#000000;stroke-width:1.0;"/><ellipse cx="298" cy="557.5" fill="#000000" rx="3" ry="3" style="stroke:#000000;stroke-width:1.0;"/><path d="M298,577.5 L311,577.5 C359.9131,577.5 309.074,504.3887 347,473.5 C364.9289,458.8979 386.3793,449.3294 408.8767,443.2729 " fill="none" style="stroke:#000000;stroke-width:1.0;stroke-dasharray:3.0,3.0;"/><path d="M409.6147,446.2081 L411.0781,442.7194 L408.1387,440.3377 L416.2147,441.428 L409.6147,446.2081 " fill="#000000" style="stroke:#000000;stroke-width:1.0;"/><ellipse cx="298" cy="577.5" fill="#000000" rx="3" ry="3" style="stroke:#000000;stroke-width:1.0;"/><path d="M298,598.5 L311,598.5 C344.4132,598.5 319.4311,551.3786 347,532.5 C372.739,514.8745 403.951,505.158 434.9837,500.1813 " fill="none" style="stroke:#000000;stroke-width:1.0;stroke-dasharray:3.0,3.0;"/><path d="M435.4266,503.1642 L437.2209,499.8491 L434.5409,497.1984 L442.4409,499.0741 L435.4266,503.1642 " fill="#000000" style="stroke:#000000;stroke-width:1.0;"/><ellipse cx="298" cy="598.5" fill="#000000" rx="3" ry="3" style="stroke:#000000;stroke-width:1.0;"/><path d="M298,618.5 L311,618.5 C331,618.5 328.475,599.0383 347,591.5 C385.9782,575.6388 431.4476,567.7216 471.6525,563.9084 " fill="none" style="stroke:#000000;stroke-width:1.0;stroke-dasharray:3.0,3.0;"/><path d="M471.9274,566.9903 L473.9639,563.7023 L471.3777,560.8265 L479.3573,563.2212 L471.9274,566.9903 " fill="#000000" style="stroke:#000000;stroke-width:1.0;"/><ellipse cx="298" cy="618.5" fill="#000000" rx="3" ry="3" style="stroke:#000000;stroke-width:1.0;"/><path d="M298,639.5 L311,639.5 C336.3304,639.5 362.981,638.6354 389.2357,637.2751 " fill="none" style="stroke:#000000;stroke-width:1.0;stroke-dasharray:3.0,3.0;"/><path d="M389.4025,640.3798 L391.5643,637.15 L389.0689,634.1704 L396.9975,636.8581 L389.4025,640.3798 " fill="#000000" style="stroke:#000000;stroke-width:1.0;"/><ellipse cx="298" cy="639.5" fill="#000000" rx="3" ry="3" style="stroke:#000000;stroke-width:1.0;"/><path d="M298,659.5 L311,659.5 C358.9063,659.5 411.5212,662.7535 457.2533,666.636 " fill="none" style="stroke:#000000;stroke-width:1.0;stroke-dasharray:3.0,3.0;"/><path d="M456.9918,669.6647 L459.5248,666.8321 L457.5148,663.6073 L464.8251,667.2898 L456.9918,669.6647 " fill="#000000" style="stroke:#000000;stroke-width:1.0;"/><ellipse cx="298" cy="659.5" fill="#000000" rx="3" ry="3" style="stroke:#000000;stroke-width:1.0;"/><path d="M298,680.5 L311,680.5 C331.5456,680.5 328.0893,701.4682 347,709.5 C374.8917,721.3463 406.2658,728.737 436.6757,733.2671 " fill="none" style="stroke:#000000;stroke-width:1.0;stroke-dasharray:3.0,3.0;"/><path d="M436.2393,736.3503 L438.9881,733.5945 L437.1122,730.184 L444.3836,734.3582 L436.2393,736.3503 " fill="#000000" style="stroke:#000000;stroke-width:1.0;"/><ellipse cx="298" cy="680.5" fill="#000000" rx="3" ry="3" style="stroke:#000000;stroke-width:1.0;"/><path d="M298,700.5 L311,700.5 C345.1962,700.5 318.8643,749.0638 347,768.5 C370.5323,784.7562 398.7141,794.2315 427.1638,799.4353 " fill="none" style="stroke:#000000;stroke-width:1.0;stroke-dasharray:3.0,3.0;"/><path d="M426.646,802.4874 L429.4529,799.8236 L427.6816,796.3832 L434.7941,800.7298 L426.646,802.4874 " fill="#000000" style="stroke:#000000;stroke-width:1.0;"/><ellipse cx="298" cy="700.5" fill="#000000" rx="3" ry="3" style="stroke:#000000;stroke-width:1.0;"/><path d="M298,721.5 L311,721.5 C360.754,721.5 308.4468,796.0499 347,827.5 C366.7693,843.627 390.8421,853.5549 415.8847,859.3625 " fill="none" style="stroke:#000000;stroke-width:1.0;stroke-dasharray:3.0,3.0;"/><path d="M415.2441,862.3389 L418.117,859.8429 L416.5252,856.386 L423.3258,860.9639 L415.2441,862.3389 " fill="#000000" style="stroke:#000000;stroke-width:1.0;"/><ellipse cx="298" cy="721.5" fill="#000000" rx="3" ry="3" style="stroke:#000000;stroke-width:1.0;"/><path d="M298,741.5 L311,741.5 C377.401,741.5 297.3561,842.4027 347,886.5 C373.6739,910.1938 409.4352,920.9758 444.8189,924.9401 " fill="none" style="stroke:#000000;stroke-width:1.0;stroke-dasharray:3.0,3.0;"/><path d="M444.521,927.9567 L447.0813,925.1635 L445.1167,921.9236 L452.3602,925.6848 L444.521,927.9567 " fill="#000000" style="stroke:#000000;stroke-width:1.0;"/><ellipse cx="298" cy="741.5" fill="#000000" rx="3" ry="3" style="stroke:#000000;stroke-width:1.0;"/><path d="M298,762.5 L311,762.5 C393.8922,762.5 286.3971,888.9456 347,945.5 C376.2341,972.7812 417.395,983.2814 456.8604,985.9066 " fill="none" style="stroke:#000000;stroke-width:1.0;stroke-dasharray:3.0,3.0;"/><path d="M456.6914,989.0532 L459.2204,986.0334 L457.0295,982.7601 L464.7269,986.3293 L456.6914,989.0532 " fill="#000000" style="stroke:#000000;stroke-width:1.0;"/><ellipse cx="298" cy="762.5" fill="#000000" rx="3" ry="3" style="stroke:#000000;stroke-width:1.0;"/><path d="M298,782.5 L311,782.5 C360.9778,782.5 311.0368,969.7951 347,1004.5 C377.3277,1033.7666 421.3019,1043.9726 462.7288,1045.8022 " fill="none" style="stroke:#000000;stroke-width:1.0;stroke-dasharray:3.0,3.0;"/><path d="M462.6301,1048.8829 L465.0394,1045.8763 L462.8276,1042.7215 L470.4306,1046.0491 L462.6301,1048.8829 " fill="#000000" style="stroke:#000000;stroke-width:1.0;"/><ellipse cx="298" cy="782.5" fill="#000000" rx="3" ry="3" style="stroke:#000000;stroke-width:1.0;"/><path d="M298,803.5 L311,803.5 C369.329,803.5 305.4996,1022.5123 347,1063.5 C359.2559,1075.6045 373.838,1084.4773 389.6289,1090.8598 " fill="none" style="stroke:#000000;stroke-width:1.0;stroke-dasharray:3.0,3.0;"/><path d="M388.5249,1093.7944 L391.8298,1091.6878 L390.7328,1087.9253 L396.9652,1093.6198 L388.5249,1093.7944 " fill="#000000" style="stroke:#000000;stroke-width:1.0;"/><ellipse cx="298" cy="803.5" fill="#000000" rx="3" ry="3" style="stroke:#000000;stroke-width:1.0;"/><path d="M298,823.5 L311,823.5 C377.9243,823.5 299.8037,1075.0514 347,1122.5 C371.262,1146.8917 404.9462,1158.2484 439.0802,1162.5487 " fill="none" style="stroke:#000000;stroke-width:1.0;stroke-dasharray:3.0,3.0;"/><path d="M438.7373,1165.6481 L441.4048,1162.8058 L439.4231,1159.4493 L446.8287,1163.4059 L438.7373,1165.6481 " fill="#000000" style="stroke:#000000;stroke-width:1.0;"/><ellipse cx="298" cy="823.5" fill="#000000" rx="3" ry="3" style="stroke:#000000;stroke-width:1.0;"/><path d="M298,844.5 L311,844.5 C386.315,844.5 294.2455,1127.7478 347,1181.5 C371.5576,1206.522 406.0139,1217.895 440.8151,1222.0032 " fill="none" style="stroke:#000000;stroke-width:1.0;stroke-dasharray:3.0,3.0;"/><path d="M440.491,1225.1623 L443.1845,1222.2462 L441.1392,1218.844 L448.713,1222.8134 L440.491,1225.1623 " fill="#000000" style="stroke:#000000;stroke-width:1.0;"/><ellipse cx="298" cy="844.5" fill="#000000" rx="3" ry="3" style="stroke:#000000;stroke-width:1.0;"/><path d="M299.5,862.5 L299.5,875.5 C299.5,916.3975 318.0196,1211.6427 347,1240.5 C373.5489,1266.9362 411.1802,1278.0054 448.3556,1281.379 " fill="none" style="stroke:#000000;stroke-width:1.0;stroke-dasharray:3.0,3.0;"/><path d="M448.1133,1284.5477 L450.7321,1281.5608 L448.5979,1278.2103 L456.2773,1281.9849 L448.1133,1284.5477 " fill="#000000" style="stroke:#000000;stroke-width:1.0;"/><ellipse cx="299.5" cy="862.5" fill="#000000" rx="3" ry="3" style="stroke:#000000;stroke-width:1.0;"/><path d="M239,649.5 L252,649.5 C261.4213,649.5 271.9164,649.5 280.5483,649.5 " fill="none" style="stroke:#000000;stroke-width:1.0;stroke-dasharray:3.0,3.0;"/><path d="M280.5483,652.5437 L282.8311,649.5 L280.5483,646.4563 L288.1575,649.5 L280.5483,652.5437 " fill="#000000" style="stroke:#000000;stroke-width:1.0;"/><ellipse cx="239" cy="649.5" fill="#000000" rx="3" ry="3" style="stroke:#000000;stroke-width:1.0;"/><!--SRC=[fLPDJzj04BtxLuno0WdouQIG-eJuQCj72YA1IzN3WiVEnflTQ7TiAKBy7Fu3T_vOnoO6DHTxsnnYPMVtlPcTzoO-SYGiBPpHmLC0_Ecih26J6QMqA7GdWeustSnr4ybVAoLqP-zzNnr-mBdGiP8wTRHUeQtZ1LgtCDMM8gmNCnEZaewGbtzLIm1Fc-ScpETYsG4-DjYS-WWzeCkiB50vh3PC394WWZ8jgIL9GRBe7QCZgSg4G1HWLgkgHBTyUsNQ3U3pNXDvs4G-9OR6BVBs-ECc_1l6LPYcPHqo5NozN6hl-gzokC2vKJ6rf_tQH7kPQvqktbvjoMjIA8HrzLsMfTRtsPvoq6zJQcAOHwHGDPJx1v-wyg1gb0oBG-L4t3UJ9AX9oHIGVrktrXuyOLjfIgsTJAlbzkZ3DXS61SOLnHBZVwCPjQ91NLeshUayyByquPzdLYJa_50Fl1IybNqbOG-omxPzpbYxFdVVQF_xJSBijpaMdfrjTFajfZo5BLhEt2oNR0HXFMPZlstsx6hKcMAxSIEibvV3HY_FR9vbIBrSP9IZKXxOORCqCuJ48j-DXpZ3OIjSRok58o_Hbtzx_p7TmaRZ_dWdSebb5K5EwTkBLpcD7Zx_c6T0xrtsG3zigyvjJLRFty5pSCIHwfqeA4SWtKske7oTaKR3e1lsms5tl3FDDKp46i813FhHS1pr-t1oDfr16TyDThxVN84pkNr4Y4kloOUS660tk125WDjSarnY1DShr1Udb_K2dEb2MgDBImONzvFF3GUZ_MD9C4NBgS3z93Z5HEIA-CIZYRcC2Evct_R7mHM_A-GyZIAkBpWnZ6lN4Voy_WC0]--></g></svg>