<svg xmlns="http://www.w3.org/2000/svg" xmlns:xlink="http://www.w3.org/1999/xlink" contentStyleType="text/css" height="261px" preserveAspectRatio="none" style="width:501px;height:261px;background:#FFFFFF;" version="1.1" viewBox="0 0 501 261" width="501px" zoomAndPan="magnify"><defs/><g><!--class Flate--><g id="elem_Flate"><rect codeLine="1" fill="#F1F1F1" height="97.4648" id="Flate" rx="2.5" ry="2.5" style="stroke:#181818;stroke-width:0.5;" width="263" x="75.5" y="7"/><ellipse cx="186.25" cy="23" fill="#ADD1B2" rx="11" ry="11" style="stroke:#181818;stroke-width:1.0;"/><path d="M188.7231,29.1431 Q188.1421,29.4419 187.5029,29.5913 Q186.8638,29.7407 186.1582,29.7407 Q183.6514,29.7407 182.3315,28.0889 Q181.0117,26.437 181.0117,23.3159 Q181.0117,20.1865 182.3315,18.5347 Q183.6514,16.8828 186.1582,16.8828 Q186.8638,16.8828 187.5112,17.0322 Q188.1587,17.1816 188.7231,17.4805 L188.7231,20.2031 Q188.0923,19.6221 187.4988,19.3523 Q186.9053,19.0825 186.2744,19.0825 Q184.9297,19.0825 184.2449,20.1492 Q183.5601,21.2158 183.5601,23.3159 Q183.5601,25.4077 184.2449,26.4744 Q184.9297,27.541 186.2744,27.541 Q186.9053,27.541 187.4988,27.2712 Q188.0923,27.0015 188.7231,26.4204 Z " fill="#000000"/><text fill="#000000" font-family="sans-serif" font-size="14" lengthAdjust="spacing" textLength="33" x="206.75" y="28.291">Flate</text><line style="stroke:#181818;stroke-width:0.5;" x1="76.5" x2="337.5" y1="39" y2="39"/><ellipse cx="86.5" cy="52.7441" fill="none" rx="3" ry="3" style="stroke:#038048;stroke-width:1.0;"/><text fill="#000000" font-family="sans-serif" font-size="14" lengthAdjust="spacing" textLength="103" x="95.5" y="56.5352">type: FlateType</text><ellipse cx="86.5" cy="69.2324" fill="none" rx="3" ry="3" style="stroke:#038048;stroke-width:1.0;"/><text fill="#000000" font-family="sans-serif" font-size="14" lengthAdjust="spacing" textLength="167" x="95.5" y="73.0234">koordinater: Koordinat[]</text><ellipse cx="86.5" cy="85.7207" fill="none" rx="3" ry="3" style="stroke:#038048;stroke-width:1.0;"/><text fill="#000000" font-family="sans-serif" font-size="14" lengthAdjust="spacing" textLength="237" x="95.5" y="89.5117">koordinatsystem: Koordinatsystem</text><line style="stroke:#181818;stroke-width:0.5;" x1="76.5" x2="337.5" y1="96.4648" y2="96.4648"/></g><!--class FlateType--><g id="elem_FlateType"><rect codeLine="11" fill="#F1F1F1" height="64.4883" id="FlateType" rx="2.5" ry="2.5" style="stroke:#181818;stroke-width:0.5;" width="98" x="7" y="177.02"/><ellipse cx="22" cy="193.02" fill="#EB937F" rx="11" ry="11" style="stroke:#181818;stroke-width:1.0;"/><path d="M25.6143,199.52 L17.8945,199.52 L17.8945,187.1269 L25.6143,187.1269 L25.6143,189.2851 L20.3433,189.2851 L20.3433,191.958 L25.1162,191.958 L25.1162,194.1162 L20.3433,194.1162 L20.3433,197.3618 L25.6143,197.3618 Z " fill="#000000"/><text fill="#000000" font-family="sans-serif" font-size="14" lengthAdjust="spacing" textLength="66" x="36" y="198.311">FlateType</text><line style="stroke:#181818;stroke-width:0.5;" x1="8" x2="104" y1="209.02" y2="209.02"/><text fill="#000000" font-family="sans-serif" font-size="14" lengthAdjust="spacing" textLength="55" x="13" y="226.5552">Polygon</text><line style="stroke:#181818;stroke-width:0.5;" x1="8" x2="104" y1="233.5083" y2="233.5083"/></g><!--class Koordinat--><g id="elem_Koordinat"><rect codeLine="15" fill="#F1F1F1" height="64.4883" id="Koordinat" rx="2.5" ry="2.5" style="stroke:#181818;stroke-width:0.5;" width="135" x="139.5" y="177.02"/><ellipse cx="170.25" cy="193.02" fill="#ADD1B2" rx="11" ry="11" style="stroke:#181818;stroke-width:1.0;"/><path d="M172.7231,199.1631 Q172.1421,199.4619 171.5029,199.6113 Q170.8638,199.7607 170.1582,199.7607 Q167.6514,199.7607 166.3315,198.1089 Q165.0117,196.457 165.0117,193.3359 Q165.0117,190.2065 166.3315,188.5547 Q167.6514,186.9028 170.1582,186.9028 Q170.8638,186.9028 171.5112,187.0522 Q172.1587,187.2016 172.7231,187.5005 L172.7231,190.2231 Q172.0923,189.6421 171.4988,189.3723 Q170.9053,189.1025 170.2744,189.1025 Q168.9297,189.1025 168.2449,190.1692 Q167.5601,191.2358 167.5601,193.3359 Q167.5601,195.4277 168.2449,196.4944 Q168.9297,197.561 170.2744,197.561 Q170.9053,197.561 171.4988,197.2912 Q172.0923,197.0215 172.7231,196.4404 Z " fill="#000000"/><text fill="#000000" font-family="sans-serif" font-size="14" lengthAdjust="spacing" textLength="68" x="187.75" y="198.311">Koordinat</text><line style="stroke:#181818;stroke-width:0.5;" x1="140.5" x2="273.5" y1="209.02" y2="209.02"/><ellipse cx="150.5" cy="222.7641" fill="none" rx="3" ry="3" style="stroke:#038048;stroke-width:1.0;"/><text fill="#000000" font-family="sans-serif" font-size="14" lengthAdjust="spacing" textLength="109" x="159.5" y="226.5552">items: number[]</text><line style="stroke:#181818;stroke-width:0.5;" x1="140.5" x2="273.5" y1="233.5083" y2="233.5083"/></g><!--class Koordinatsystem--><g id="elem_Koordinatsystem"><rect codeLine="19" fill="#F1F1F1" height="89.5977" id="Koordinatsystem" rx="2.5" ry="2.5" style="stroke:#181818;stroke-width:0.5;" width="184" x="310" y="164.46"/><ellipse cx="341.65" cy="184.7705" fill="#ADD1B2" rx="11" ry="11" style="stroke:#181818;stroke-width:1.0;"/><path d="M344.1231,190.9136 Q343.5421,191.2124 342.9029,191.3619 Q342.2638,191.5113 341.5582,191.5113 Q339.0514,191.5113 337.7315,189.8594 Q336.4117,188.2076 336.4117,185.0865 Q336.4117,181.9571 337.7315,180.3052 Q339.0514,178.6534 341.5582,178.6534 Q342.2638,178.6534 342.9112,178.8028 Q343.5587,178.9522 344.1231,179.251 L344.1231,181.9737 Q343.4923,181.3926 342.8988,181.1228 Q342.3053,180.8531 341.6744,180.8531 Q340.3297,180.8531 339.6449,181.9197 Q338.9601,182.9864 338.9601,185.0865 Q338.9601,187.1783 339.6449,188.2449 Q340.3297,189.3116 341.6744,189.3116 Q342.3053,189.3116 342.8988,189.0418 Q343.4923,188.772 344.1231,188.191 Z " fill="#000000"/><text fill="#000000" font-family="sans-serif" font-size="12" font-style="italic" lengthAdjust="spacing" textLength="42" x="395.85" y="181.0616">&#171;Kode&#187;</text><text fill="#000000" font-family="sans-serif" font-size="14" lengthAdjust="spacing" textLength="115" x="359.35" y="197.128">Koordinatsystem</text><line style="stroke:#181818;stroke-width:0.5;" x1="311" x2="493" y1="205.0811" y2="205.0811"/><ellipse cx="321" cy="218.8252" fill="none" rx="3" ry="3" style="stroke:#038048;stroke-width:1.0;"/><text fill="#000000" font-family="sans-serif" font-size="14" lengthAdjust="spacing" textLength="116" x="330" y="222.6163">kodeverdi: string</text><ellipse cx="321" cy="235.3135" fill="none" rx="3" ry="3" style="stroke:#038048;stroke-width:1.0;"/><text fill="#000000" font-family="sans-serif" font-size="14" lengthAdjust="spacing" textLength="158" x="330" y="239.1045">kodebeskrivelse: string</text><line style="stroke:#181818;stroke-width:0.5;" x1="311" x2="493" y1="246.0577" y2="246.0577"/></g><!--link Flate to FlateType--><g id="link_Flate_FlateType"><path codeLine="7" d="M159.22,104.68 C135.72,128.26 108.06,156.02 87.29,176.86 " fill="none" id="Flate-FlateType" style="stroke:#181818;stroke-width:1.0;"/></g><!--link Flate to Koordinat--><g id="link_Flate_Koordinat"><path codeLine="8" d="M207,104.68 C207,128.26 207,156.02 207,176.86 " fill="none" id="Flate-Koordinat" style="stroke:#181818;stroke-width:1.0;"/></g><!--link Flate to Koordinatsystem--><g id="link_Flate_Koordinatsystem"><path codeLine="9" d="M268.97,104.88 C293.39,123.86 321.26,145.52 345.16,164.09 " fill="none" id="Flate-Koordinatsystem" style="stroke:#181818;stroke-width:1.0;"/></g><!--SRC=[ROyz3i8m38NtdC8xwWMYgYDB5mOsnD0VgugQ9YWEbQAgTyUG9gs0JF7dzvxjJZT4SDQDHrW4y3lvy40PqPM_4OxMkbuPPav2dOhR_QjBWJnE1qK4OXKYpYYAGt96MVu7RGa2pNFQlTko5wl3OCqxl_jSactf6iLcai3c5Xtl-wkC0w0iQzjZLINZoDMCB950tYapxBX56fsQKHFcvYfU]--></g></svg>