<svg xmlns="http://www.w3.org/2000/svg" xmlns:xlink="http://www.w3.org/1999/xlink" contentStyleType="text/css" data-diagram-type="CLASS" height="261px" preserveAspectRatio="none" style="width:499px;height:261px;background:#FFFFFF;" version="1.1" viewBox="0 0 499 261" width="499px" zoomAndPan="magnify"><defs/><g><!--class Flate--><g class="entity" data-entity="Flate" data-source-line="1" data-uid="ent0002" id="entity_Flate"><rect fill="#F1F1F1" height="97.4648" rx="2.5" ry="2.5" style="stroke:#181818;stroke-width:0.5;" width="262.4551" x="75.32" y="7"/><ellipse cx="186.1374" cy="23" fill="#ADD1B2" rx="11" ry="11" style="stroke:#181818;stroke-width:1;"/><path d="M188.6105,29.1431 Q188.0295,29.4419 187.3903,29.5913 Q186.7512,29.7407 186.0456,29.7407 Q183.5388,29.7407 182.2189,28.0889 Q180.8991,26.437 180.8991,23.3159 Q180.8991,20.1865 182.2189,18.5347 Q183.5388,16.8828 186.0456,16.8828 Q186.7512,16.8828 187.3986,17.0322 Q188.0461,17.1816 188.6105,17.4805 L188.6105,20.2031 Q187.9797,19.6221 187.3862,19.3523 Q186.7927,19.0825 186.1618,19.0825 Q184.8171,19.0825 184.1323,20.1492 Q183.4474,21.2158 183.4474,23.3159 Q183.4474,25.4077 184.1323,26.4744 Q184.8171,27.541 186.1618,27.541 Q186.7927,27.541 187.3862,27.2712 Q187.9797,27.0015 188.6105,26.4204 Z " fill="#000000"/><text fill="#000000" font-family="sans-serif" font-size="14" lengthAdjust="spacing" textLength="32.3203" x="206.6374" y="28.291">Flate</text><line style="stroke:#181818;stroke-width:0.5;" x1="76.32" x2="336.7751" y1="39" y2="39"/><ellipse cx="86.32" cy="52.7441" fill="none" rx="3" ry="3" style="stroke:#038048;stroke-width:1;"/><text fill="#000000" font-family="sans-serif" font-size="14" lengthAdjust="spacing" textLength="103.1201" x="95.32" y="56.5352">type: FlateType</text><ellipse cx="86.32" cy="69.2324" fill="none" rx="3" ry="3" style="stroke:#038048;stroke-width:1;"/><text fill="#000000" font-family="sans-serif" font-size="14" lengthAdjust="spacing" textLength="163.7002" x="95.32" y="73.0234">koordinater: Koordinat[]</text><ellipse cx="86.32" cy="85.7207" fill="none" rx="3" ry="3" style="stroke:#038048;stroke-width:1;"/><text fill="#000000" font-family="sans-serif" font-size="14" lengthAdjust="spacing" textLength="236.4551" x="95.32" y="89.5117">koordinatsystem: Koordinatsystem</text><line style="stroke:#181818;stroke-width:0.5;" x1="76.32" x2="336.7751" y1="96.4648" y2="96.4648"/></g><!--class FlateType--><g class="entity" data-entity="FlateType" data-source-line="7" data-uid="ent0003" id="entity_FlateType"><rect fill="#F1F1F1" height="64.4883" rx="2.5" ry="2.5" style="stroke:#181818;stroke-width:0.5;" width="97.0986" x="7" y="177.02"/><ellipse cx="22" cy="193.02" fill="#EB937F" rx="11" ry="11" style="stroke:#181818;stroke-width:1;"/><path d="M25.6143,199.52 L17.8945,199.52 L17.8945,187.1269 L25.6143,187.1269 L25.6143,189.2851 L20.3433,189.2851 L20.3433,191.958 L25.1162,191.958 L25.1162,194.1162 L20.3433,194.1162 L20.3433,197.3618 L25.6143,197.3618 Z " fill="#000000"/><text fill="#000000" font-family="sans-serif" font-size="14" lengthAdjust="spacing" textLength="65.0986" x="36" y="198.311">FlateType</text><line style="stroke:#181818;stroke-width:0.5;" x1="8" x2="103.0986" y1="209.02" y2="209.02"/><text fill="#000000" font-family="sans-serif" font-size="14" lengthAdjust="spacing" textLength="53.7168" x="13" y="226.5552">Polygon</text><line style="stroke:#181818;stroke-width:0.5;" x1="8" x2="103.0986" y1="233.5083" y2="233.5083"/></g><!--class Koordinat--><g class="entity" data-entity="Koordinat" data-source-line="8" data-uid="ent0005" id="entity_Koordinat"><rect fill="#F1F1F1" height="64.4883" rx="2.5" ry="2.5" style="stroke:#181818;stroke-width:0.5;" width="134.042" x="139.53" y="177.02"/><ellipse cx="170.487" cy="193.02" fill="#ADD1B2" rx="11" ry="11" style="stroke:#181818;stroke-width:1;"/><path d="M172.9601,199.1631 Q172.3791,199.4619 171.7399,199.6113 Q171.1008,199.7607 170.3952,199.7607 Q167.8883,199.7607 166.5685,198.1089 Q165.2487,196.457 165.2487,193.3359 Q165.2487,190.2065 166.5685,188.5547 Q167.8883,186.9028 170.3952,186.9028 Q171.1008,186.9028 171.7482,187.0522 Q172.3957,187.2016 172.9601,187.5005 L172.9601,190.2231 Q172.3293,189.6421 171.7358,189.3723 Q171.1423,189.1025 170.5114,189.1025 Q169.1667,189.1025 168.4819,190.1692 Q167.797,191.2358 167.797,193.3359 Q167.797,195.4277 168.4819,196.4944 Q169.1667,197.561 170.5114,197.561 Q171.1423,197.561 171.7358,197.2912 Q172.3293,197.0215 172.9601,196.4404 Z " fill="#000000"/><text fill="#000000" font-family="sans-serif" font-size="14" lengthAdjust="spacing" textLength="66.582" x="188.033" y="198.311">Koordinat</text><line style="stroke:#181818;stroke-width:0.5;" x1="140.53" x2="272.572" y1="209.02" y2="209.02"/><ellipse cx="150.53" cy="222.7641" fill="none" rx="3" ry="3" style="stroke:#038048;stroke-width:1;"/><text fill="#000000" font-family="sans-serif" font-size="14" lengthAdjust="spacing" textLength="108.042" x="159.53" y="226.5552">items: number[]</text><line style="stroke:#181818;stroke-width:0.5;" x1="140.53" x2="272.572" y1="233.5083" y2="233.5083"/></g><!--class Koordinatsystem--><g class="entity" data-entity="Koordinatsystem" data-source-line="9" data-uid="ent0007" id="entity_Koordinatsystem"><rect fill="#F1F1F1" height="89.5977" rx="2.5" ry="2.5" style="stroke:#181818;stroke-width:0.5;" width="183.5547" x="308.77" y="164.46"/><ellipse cx="340.5452" cy="184.7705" fill="#ADD1B2" rx="11" ry="11" style="stroke:#181818;stroke-width:1;"/><path d="M343.0184,190.9136 Q342.4373,191.2124 341.7982,191.3619 Q341.159,191.5113 340.4534,191.5113 Q337.9466,191.5113 336.6268,189.8594 Q335.307,188.2076 335.307,185.0865 Q335.307,181.9571 336.6268,180.3052 Q337.9466,178.6534 340.4534,178.6534 Q341.159,178.6534 341.8065,178.8028 Q342.4539,178.9522 343.0184,179.251 L343.0184,181.9737 Q342.3875,181.3926 341.794,181.1228 Q341.2005,180.8531 340.5697,180.8531 Q339.2249,180.8531 338.5401,181.9197 Q337.8553,182.9864 337.8553,185.0865 Q337.8553,187.1783 338.5401,188.2449 Q339.2249,189.3116 340.5697,189.3116 Q341.2005,189.3116 341.794,189.0418 Q342.3875,188.772 343.0184,188.191 Z " fill="#000000"/><text fill="#000000" font-family="sans-serif" font-size="12" font-style="italic" lengthAdjust="spacing" textLength="42.0176" x="394.4025" y="181.0616">&#171;Kode&#187;</text><text fill="#000000" font-family="sans-serif" font-size="14" lengthAdjust="spacing" textLength="114.2764" x="358.2731" y="197.128">Koordinatsystem</text><line style="stroke:#181818;stroke-width:0.5;" x1="309.77" x2="491.3247" y1="205.0811" y2="205.0811"/><ellipse cx="319.77" cy="218.8252" fill="none" rx="3" ry="3" style="stroke:#038048;stroke-width:1;"/><text fill="#000000" font-family="sans-serif" font-size="14" lengthAdjust="spacing" textLength="115.4521" x="328.77" y="222.6163">kodeverdi: string</text><ellipse cx="319.77" cy="235.3135" fill="none" rx="3" ry="3" style="stroke:#038048;stroke-width:1;"/><text fill="#000000" font-family="sans-serif" font-size="14" lengthAdjust="spacing" textLength="157.5547" x="328.77" y="239.1045">kodebeskrivelse: string</text><line style="stroke:#181818;stroke-width:0.5;" x1="309.77" x2="491.3247" y1="246.0577" y2="246.0577"/></g><!--link Flate to FlateType--><g class="link" data-entity-1="Flate" data-entity-2="FlateType" data-source-line="7" data-uid="lnk4" id="link_Flate_FlateType"><path codeLine="7" d="M158.77,104.68 C135.27,128.26 107.61,156.02 86.84,176.86" fill="none" id="Flate-FlateType" style="stroke:#181818;stroke-width:1;"/></g><!--link Flate to Koordinat--><g class="link" data-entity-1="Flate" data-entity-2="Koordinat" data-source-line="8" data-uid="lnk6" id="link_Flate_Koordinat"><path codeLine="8" d="M206.55,104.68 C206.55,128.26 206.55,156.02 206.55,176.86" fill="none" id="Flate-Koordinat" style="stroke:#181818;stroke-width:1;"/></g><!--link Flate to Koordinatsystem--><g class="link" data-entity-1="Flate" data-entity-2="Koordinatsystem" data-source-line="9" data-uid="lnk8" id="link_Flate_Koordinatsystem"><path codeLine="9" d="M268.2,104.88 C292.5,123.86 320.22,145.52 344,164.09" fill="none" id="Flate-Koordinatsystem" style="stroke:#181818;stroke-width:1;"/></g><!--SRC=[ROyz3i8m38NtdC8xwWMYgYDB5mOsnD0VgugQ9YWEbQAgTyUG9gs0JF7dzvxjJZT4SDQDHrW4y3lvy40PqPM_4OxMkbuPPav2dOhR_QjBWJnE1qK4OXKYpYYAGt96MVu7RGa2pNFQlTko5wl3OCqxl_jSactf6iLcai3c5Xtl-wkC0w0iQzjZLINZoDMCB950tYapxBX56fsQKHFcvYfU]--></g></svg>