<?xml version="1.0" encoding="us-ascii" standalone="no"?><svg xmlns="http://www.w3.org/2000/svg" xmlns:xlink="http://www.w3.org/1999/xlink" contentStyleType="text/css" height="252px" preserveAspectRatio="none" style="width:368px;height:252px;background:#FFFFFF;" version="1.1" viewBox="0 0 368 252" width="368px" zoomAndPan="magnify"><defs/><g><!--class Flate--><g id="elem_Flate"><rect codeLine="1" fill="#F1F1F1" height="97.4648" id="Flate" rx="2.5" ry="2.5" style="stroke:#181818;stroke-width:0.5;" width="193" x="75" y="7"/><ellipse cx="150.75" cy="23" fill="#ADD1B2" rx="11" ry="11" style="stroke:#181818;stroke-width:1.0;"/><path d="M153.2231,29.1431 Q152.6421,29.4419 152.0029,29.5913 Q151.3638,29.7407 150.6582,29.7407 Q148.1514,29.7407 146.8315,28.0889 Q145.5117,26.437 145.5117,23.3159 Q145.5117,20.1865 146.8315,18.5347 Q148.1514,16.8828 150.6582,16.8828 Q151.3638,16.8828 152.0112,17.0322 Q152.6587,17.1816 153.2231,17.4805 L153.2231,20.2031 Q152.5923,19.6221 151.9988,19.3523 Q151.4053,19.0825 150.7744,19.0825 Q149.4297,19.0825 148.7449,20.1492 Q148.0601,21.2158 148.0601,23.3159 Q148.0601,25.4077 148.7449,26.4744 Q149.4297,27.541 150.7744,27.541 Q151.4053,27.541 151.9988,27.2712 Q152.5923,27.0015 153.2231,26.4204 Z " fill="#000000"/><text fill="#000000" font-family="sans-serif" font-size="14" lengthAdjust="spacing" textLength="33" x="171.25" y="28.291">Flate</text><line style="stroke:#181818;stroke-width:0.5;" x1="76" x2="267" y1="39" y2="39"/><ellipse cx="86" cy="52.7441" fill="none" rx="3" ry="3" style="stroke:#038048;stroke-width:1.0;"/><text fill="#000000" font-family="sans-serif" font-size="14" lengthAdjust="spacing" textLength="70" x="95" y="56.5352">type: Type</text><ellipse cx="86" cy="69.2324" fill="none" rx="3" ry="3" style="stroke:#038048;stroke-width:1.0;"/><text fill="#000000" font-family="sans-serif" font-size="14" lengthAdjust="spacing" textLength="167" x="95" y="73.0234">koordinater: Koordinat[]</text><ellipse cx="86" cy="85.7207" fill="none" rx="3" ry="3" style="stroke:#038048;stroke-width:1.0;"/><text fill="#000000" font-family="sans-serif" font-size="14" lengthAdjust="spacing" textLength="157" x="95" y="89.5117">koordinatsystem: Kode</text><line style="stroke:#181818;stroke-width:0.5;" x1="76" x2="267" y1="96.4648" y2="96.4648"/></g><!--class Koordinat--><g id="elem_Koordinat"><rect codeLine="10" fill="#F1F1F1" height="64.4883" id="Koordinat" rx="2.5" ry="2.5" style="stroke:#181818;stroke-width:0.5;" width="135" x="7" y="172.71"/><ellipse cx="37.75" cy="188.71" fill="#ADD1B2" rx="11" ry="11" style="stroke:#181818;stroke-width:1.0;"/><path d="M40.2231,194.8531 Q39.6421,195.1519 39.0029,195.3013 Q38.3638,195.4507 37.6582,195.4507 Q35.1514,195.4507 33.8315,193.7989 Q32.5117,192.147 32.5117,189.0259 Q32.5117,185.8965 33.8315,184.2447 Q35.1514,182.5928 37.6582,182.5928 Q38.3638,182.5928 39.0112,182.7422 Q39.6587,182.8916 40.2231,183.1905 L40.2231,185.9131 Q39.5923,185.3321 38.9988,185.0623 Q38.4053,184.7925 37.7744,184.7925 Q36.4297,184.7925 35.7449,185.8592 Q35.0601,186.9258 35.0601,189.0259 Q35.0601,191.1177 35.7449,192.1844 Q36.4297,193.251 37.7744,193.251 Q38.4053,193.251 38.9988,192.9812 Q39.5923,192.7115 40.2231,192.1304 Z " fill="#000000"/><text fill="#000000" font-family="sans-serif" font-size="14" lengthAdjust="spacing" textLength="68" x="55.25" y="194.001">Koordinat</text><line style="stroke:#181818;stroke-width:0.5;" x1="8" x2="141" y1="204.71" y2="204.71"/><ellipse cx="18" cy="218.4541" fill="none" rx="3" ry="3" style="stroke:#038048;stroke-width:1.0;"/><text fill="#000000" font-family="sans-serif" font-size="14" lengthAdjust="spacing" textLength="109" x="27" y="222.2452">items: number[]</text><line style="stroke:#181818;stroke-width:0.5;" x1="8" x2="141" y1="229.1983" y2="229.1983"/></g><!--class Kode--><g id="elem_Kode"><rect codeLine="14" fill="#F1F1F1" height="80.9766" id="Kode" rx="2.5" ry="2.5" style="stroke:#181818;stroke-width:0.5;" width="184" x="177.5" y="164.46"/><ellipse cx="247.75" cy="180.46" fill="#ADD1B2" rx="11" ry="11" style="stroke:#181818;stroke-width:1.0;"/><path d="M250.2231,186.6031 Q249.6421,186.9019 249.0029,187.0513 Q248.3638,187.2007 247.6582,187.2007 Q245.1514,187.2007 243.8315,185.5489 Q242.5117,183.897 242.5117,180.7759 Q242.5117,177.6465 243.8315,175.9947 Q245.1514,174.3428 247.6582,174.3428 Q248.3638,174.3428 249.0112,174.4922 Q249.6587,174.6416 250.2231,174.9405 L250.2231,177.6631 Q249.5923,177.0821 248.9988,176.8123 Q248.4053,176.5425 247.7744,176.5425 Q246.4297,176.5425 245.7449,177.6092 Q245.0601,178.6758 245.0601,180.7759 Q245.0601,182.8677 245.7449,183.9344 Q246.4297,185.001 247.7744,185.001 Q248.4053,185.001 248.9988,184.7312 Q249.5923,184.4615 250.2231,183.8804 Z " fill="#000000"/><text fill="#000000" font-family="sans-serif" font-size="14" lengthAdjust="spacing" textLength="35" x="268.25" y="185.751">Kode</text><line style="stroke:#181818;stroke-width:0.5;" x1="178.5" x2="360.5" y1="196.46" y2="196.46"/><ellipse cx="188.5" cy="210.2041" fill="none" rx="3" ry="3" style="stroke:#038048;stroke-width:1.0;"/><text fill="#000000" font-family="sans-serif" font-size="14" lengthAdjust="spacing" textLength="116" x="197.5" y="213.9952">kodeverdi: string</text><ellipse cx="188.5" cy="226.6924" fill="none" rx="3" ry="3" style="stroke:#038048;stroke-width:1.0;"/><text fill="#000000" font-family="sans-serif" font-size="14" lengthAdjust="spacing" textLength="158" x="197.5" y="230.4834">kodebeskrivelse: string</text><line style="stroke:#181818;stroke-width:0.5;" x1="178.5" x2="360.5" y1="237.4366" y2="237.4366"/></g><!--link Flate to Koordinat--><g id="link_Flate_Koordinat"><path codeLine="7" d="M139.74,104.94 C125.15,127.08 108.26,152.71 95.32,172.35 " fill="none" id="Flate-Koordinat" style="stroke:#181818;stroke-width:1.0;"/></g><!--link Flate to Kode--><g id="link_Flate_Kode"><path codeLine="8" d="M203.59,104.94 C216.32,124.06 230.78,145.78 242.91,164 " fill="none" id="Flate-Kode" style="stroke:#181818;stroke-width:1.0;"/></g><!--SRC=[NKux3eCm3Drz2kyL5yW1kdJjLdK0Og4e8I0x8A4gTySKaLJrOFbzxES-j29u3sqY_01gtT8say6dzXFxQMBheZhOuEC2h_UVAfia6W-79SW0vyscgIk_b7gW_sON-SftUaOCncNiY3KcLwSjJtgTLz95WvBOnQ7I7Obdjr8GAcA67G00]--></g></svg>