<svg xmlns="http://www.w3.org/2000/svg" xmlns:xlink="http://www.w3.org/1999/xlink" contentStyleType="text/css" data-diagram-type="CLASS" height="343px" preserveAspectRatio="none" style="width:247px;height:343px;background:#FFFFFF;" version="1.1" viewBox="0 0 247 343" width="247px" zoomAndPan="magnify"><defs/><g><!--class Dokument--><g class="entity" data-entity="Dokument" data-source-line="1" data-uid="ent0002" id="entity_Dokument"><rect fill="#F1F1F1" height="179.9063" rx="2.5" ry="2.5" style="stroke:#181818;stroke-width:0.5;" width="233.0127" x="7" y="7"/><ellipse cx="83.8804" cy="23" fill="#ADD1B2" rx="11" ry="11" style="stroke:#181818;stroke-width:1;"/><path d="M86.8535,28.6431 Q86.2725,28.9419 85.6333,29.0913 Q84.9941,29.2407 84.2886,29.2407 Q81.7817,29.2407 80.4619,27.5889 Q79.1421,25.937 79.1421,22.8159 Q79.1421,19.6865 80.4619,18.0347 Q81.7817,16.3828 84.2886,16.3828 Q84.9941,16.3828 85.6416,16.5322 Q86.2891,16.6816 86.8535,16.9805 L86.8535,19.7031 Q86.2227,19.1221 85.6292,18.8523 Q85.0356,18.5825 84.4048,18.5825 Q83.0601,18.5825 82.3752,19.6492 Q81.6904,20.7158 81.6904,22.8159 Q81.6904,24.9077 82.3752,25.9744 Q83.0601,27.041 84.4048,27.041 Q85.0356,27.041 85.6292,26.7712 Q86.2227,26.5015 86.8535,25.9204 Z " fill="#000000"/><text fill="#000000" font-family="sans-serif" font-size="14" lengthAdjust="spacing" textLength="70.752" x="104.3804" y="28.291">Dokument</text><line style="stroke:#181818;stroke-width:0.5;" x1="8" x2="239.0127" y1="39" y2="39"/><ellipse cx="18" cy="52.7441" fill="none" rx="3" ry="3" style="stroke:#038048;stroke-width:1;"/><text fill="#000000" font-family="sans-serif" font-size="14" lengthAdjust="spacing" textLength="61.2842" x="27" y="56.5352">id: string</text><ellipse cx="18" cy="69.2324" fill="none" rx="3" ry="3" style="stroke:#038048;stroke-width:1;"/><text fill="#000000" font-family="sans-serif" font-size="14" lengthAdjust="spacing" textLength="80.0283" x="27" y="73.0234">tittel: string</text><ellipse cx="18" cy="85.7207" fill="none" rx="3" ry="3" style="stroke:#038048;stroke-width:1;"/><text fill="#000000" font-family="sans-serif" font-size="14" lengthAdjust="spacing" textLength="94.0215" x="27" y="89.5117">filnavn: string</text><ellipse cx="18" cy="102.209" fill="none" rx="3" ry="3" style="stroke:#038048;stroke-width:1;"/><text fill="#000000" font-family="sans-serif" font-size="14" lengthAdjust="spacing" textLength="207.0127" x="27" y="106">dokumenttype: Dokumenttype</text><ellipse cx="18" cy="118.6973" fill="none" rx="3" ry="3" style="stroke:#038048;stroke-width:1;"/><text fill="#000000" font-family="sans-serif" font-size="14" lengthAdjust="spacing" textLength="195.9795" x="27" y="122.4883">referanseDokumentfil: string</text><ellipse cx="18" cy="135.1855" fill="none" rx="3" ry="3" style="stroke:#038048;stroke-width:1;"/><text fill="#000000" font-family="sans-serif" font-size="14" lengthAdjust="spacing" textLength="115.5752" x="27" y="138.9766">mimetype: string</text><ellipse cx="18" cy="151.6738" fill="none" rx="3" ry="3" style="stroke:#038048;stroke-width:1;"/><text fill="#000000" font-family="sans-serif" font-size="14" lengthAdjust="spacing" textLength="145.0313" x="27" y="155.4648">dokumentsdato: date</text><ellipse cx="18" cy="168.1621" fill="none" rx="3" ry="3" style="stroke:#038048;stroke-width:1;"/><text fill="#000000" font-family="sans-serif" font-size="14" lengthAdjust="spacing" textLength="113.7158" x="27" y="171.9531">arkivnavn: string</text><line style="stroke:#181818;stroke-width:0.5;" x1="8" x2="239.0127" y1="178.9063" y2="178.9063"/></g><!--class Dokumenttype--><g class="entity" data-entity="Dokumenttype" data-source-line="12" data-uid="ent0003" id="entity_Dokumenttype"><rect fill="#F1F1F1" height="89.5977" rx="2.5" ry="2.5" style="stroke:#181818;stroke-width:0.5;" width="183.5547" x="31.73" y="246.9"/><ellipse cx="69.9683" cy="267.2105" fill="#ADD1B2" rx="11" ry="11" style="stroke:#181818;stroke-width:1;"/><path d="M72.9414,272.8536 Q72.3604,273.1524 71.7212,273.3019 Q71.0821,273.4513 70.3765,273.4513 Q67.8696,273.4513 66.5498,271.7994 Q65.23,270.1476 65.23,267.0265 Q65.23,263.8971 66.5498,262.2452 Q67.8696,260.5934 70.3765,260.5934 Q71.0821,260.5934 71.7295,260.7428 Q72.377,260.8922 72.9414,261.191 L72.9414,263.9137 Q72.3106,263.3326 71.7171,263.0628 Q71.1236,262.7931 70.4927,262.7931 Q69.148,262.7931 68.4632,263.8597 Q67.7783,264.9264 67.7783,267.0265 Q67.7783,269.1183 68.4632,270.1849 Q69.148,271.2516 70.4927,271.2516 Q71.1236,271.2516 71.7171,270.9818 Q72.3106,270.712 72.9414,270.131 Z " fill="#000000"/><text fill="#000000" font-family="sans-serif" font-size="12" font-style="italic" lengthAdjust="spacing" textLength="42.0176" x="118.0806" y="263.5016">&#171;Kode&#187;</text><text fill="#000000" font-family="sans-serif" font-size="14" lengthAdjust="spacing" textLength="99.9141" x="89.1323" y="279.568">Dokumenttype</text><line style="stroke:#181818;stroke-width:0.5;" x1="32.73" x2="214.2847" y1="287.5211" y2="287.5211"/><ellipse cx="42.73" cy="301.2652" fill="none" rx="3" ry="3" style="stroke:#038048;stroke-width:1;"/><text fill="#000000" font-family="sans-serif" font-size="14" lengthAdjust="spacing" textLength="115.4521" x="51.73" y="305.0563">kodeverdi: string</text><ellipse cx="42.73" cy="317.7535" fill="none" rx="3" ry="3" style="stroke:#038048;stroke-width:1;"/><text fill="#000000" font-family="sans-serif" font-size="14" lengthAdjust="spacing" textLength="157.5547" x="51.73" y="321.5445">kodebeskrivelse: string</text><line style="stroke:#181818;stroke-width:0.5;" x1="32.73" x2="214.2847" y1="328.4977" y2="328.4977"/></g><!--link Dokument to Dokumenttype--><g class="link" data-entity-1="Dokument" data-entity-2="Dokumenttype" data-source-line="12" data-uid="lnk4" id="link_Dokument_Dokumenttype"><path codeLine="12" d="M123.51,187.27 C123.51,207.85 123.51,228.87 123.51,246.53" fill="none" id="Dokument-Dokumenttype" style="stroke:#181818;stroke-width:1;"/></g><!--SRC=[ROzB2iCm34JtFeNt9HSm8QlkUWetLehmhrYgePJUFGvEGWNLmZ0Zz3mp1qkahzc_8YJM7wNRND0PJLmmFRfcP8OWlGL3iZL9q-qWVZ_1dDXDzNs11OfD1CUgKIGXOeH-_OzBpd8skhqxq1QFLUJuAdNM6GQPGSsYxkRfSRnb1zDqTFTDLIWEPOBDlWFvWXK2mSztAm00]--></g></svg>