<svg xmlns="http://www.w3.org/2000/svg" xmlns:xlink="http://www.w3.org/1999/xlink" contentStyleType="text/css" height="310px" preserveAspectRatio="none" style="width:417px;height:310px;background:#FFFFFF;" version="1.1" viewBox="0 0 417 310" width="417px" zoomAndPan="magnify"><defs/><g><!--class Dokument--><g id="elem_Dokument"><rect codeLine="1" fill="#F1F1F1" height="146.9297" id="Dokument" rx="2.5" ry="2.5" style="stroke:#181818;stroke-width:0.5;" width="335" x="40.5" y="7"/><ellipse cx="168.25" cy="23" fill="#ADD1B2" rx="11" ry="11" style="stroke:#181818;stroke-width:1.0;"/><path d="M170.7231,29.1431 Q170.1421,29.4419 169.5029,29.5913 Q168.8638,29.7407 168.1582,29.7407 Q165.6514,29.7407 164.3315,28.0889 Q163.0117,26.437 163.0117,23.3159 Q163.0117,20.1865 164.3315,18.5347 Q165.6514,16.8828 168.1582,16.8828 Q168.8638,16.8828 169.5112,17.0322 Q170.1587,17.1816 170.7231,17.4805 L170.7231,20.2031 Q170.0923,19.6221 169.4988,19.3523 Q168.9053,19.0825 168.2744,19.0825 Q166.9297,19.0825 166.2449,20.1492 Q165.5601,21.2158 165.5601,23.3159 Q165.5601,25.4077 166.2449,26.4744 Q166.9297,27.541 168.2744,27.541 Q168.9053,27.541 169.4988,27.2712 Q170.0923,27.0015 170.7231,26.4204 Z " fill="#000000"/><text fill="#000000" font-family="sans-serif" font-size="14" lengthAdjust="spacing" textLength="71" x="188.75" y="28.291">Dokument</text><line style="stroke:#181818;stroke-width:0.5;" x1="41.5" x2="374.5" y1="39" y2="39"/><ellipse cx="51.5" cy="52.7441" fill="none" rx="3" ry="3" style="stroke:#038048;stroke-width:1.0;"/><text fill="#000000" font-family="sans-serif" font-size="14" lengthAdjust="spacing" textLength="79" x="60.5" y="56.5352">tittel: string</text><ellipse cx="51.5" cy="69.2324" fill="none" rx="3" ry="3" style="stroke:#038048;stroke-width:1.0;"/><text fill="#000000" font-family="sans-serif" font-size="14" lengthAdjust="spacing" textLength="207" x="60.5" y="73.0234">dokumenttype: Dokumenttype</text><ellipse cx="51.5" cy="85.7207" fill="none" rx="3" ry="3" style="stroke:#038048;stroke-width:1.0;"/><text fill="#000000" font-family="sans-serif" font-size="14" lengthAdjust="spacing" textLength="309" x="60.5" y="89.5117">referanseDokumentfil: ReferanseDokumentfil</text><ellipse cx="51.5" cy="102.209" fill="none" rx="3" ry="3" style="stroke:#038048;stroke-width:1.0;"/><text fill="#000000" font-family="sans-serif" font-size="14" lengthAdjust="spacing" textLength="115" x="60.5" y="106">mimetype: string</text><ellipse cx="51.5" cy="118.6973" fill="none" rx="3" ry="3" style="stroke:#038048;stroke-width:1.0;"/><text fill="#000000" font-family="sans-serif" font-size="14" lengthAdjust="spacing" textLength="146" x="60.5" y="122.4883">dokumentsdato: date</text><ellipse cx="51.5" cy="135.1855" fill="none" rx="3" ry="3" style="stroke:#038048;stroke-width:1.0;"/><text fill="#000000" font-family="sans-serif" font-size="14" lengthAdjust="spacing" textLength="114" x="60.5" y="138.9766">arkivnavn: string</text><line style="stroke:#181818;stroke-width:0.5;" x1="41.5" x2="374.5" y1="145.9297" y2="145.9297"/></g><!--class Dokumenttype--><g id="elem_Dokumenttype"><rect codeLine="13" fill="#F1F1F1" height="89.5977" id="Dokumenttype" rx="2.5" ry="2.5" style="stroke:#181818;stroke-width:0.5;" width="184" x="7" y="213.93"/><ellipse cx="45.4" cy="234.2405" fill="#ADD1B2" rx="11" ry="11" style="stroke:#181818;stroke-width:1.0;"/><path d="M47.8731,240.3836 Q47.2921,240.6824 46.6529,240.8319 Q46.0138,240.9813 45.3082,240.9813 Q42.8014,240.9813 41.4815,239.3294 Q40.1617,237.6776 40.1617,234.5565 Q40.1617,231.4271 41.4815,229.7752 Q42.8014,228.1234 45.3082,228.1234 Q46.0138,228.1234 46.6612,228.2728 Q47.3087,228.4222 47.8731,228.721 L47.8731,231.4437 Q47.2423,230.8626 46.6488,230.5928 Q46.0553,230.3231 45.4244,230.3231 Q44.0797,230.3231 43.3949,231.3897 Q42.7101,232.4564 42.7101,234.5565 Q42.7101,236.6483 43.3949,237.7149 Q44.0797,238.7816 45.4244,238.7816 Q46.0553,238.7816 46.6488,238.5118 Q47.2423,238.242 47.8731,237.661 Z " fill="#000000"/><text fill="#000000" font-family="sans-serif" font-size="12" font-style="italic" lengthAdjust="spacing" textLength="42" x="93.6" y="230.5316">&#171;Kode&#187;</text><text fill="#000000" font-family="sans-serif" font-size="14" lengthAdjust="spacing" textLength="100" x="64.6" y="246.598">Dokumenttype</text><line style="stroke:#181818;stroke-width:0.5;" x1="8" x2="190" y1="254.5511" y2="254.5511"/><ellipse cx="18" cy="268.2952" fill="none" rx="3" ry="3" style="stroke:#038048;stroke-width:1.0;"/><text fill="#000000" font-family="sans-serif" font-size="14" lengthAdjust="spacing" textLength="116" x="27" y="272.0862">kodeverdi: string</text><ellipse cx="18" cy="284.7835" fill="none" rx="3" ry="3" style="stroke:#038048;stroke-width:1.0;"/><text fill="#000000" font-family="sans-serif" font-size="14" lengthAdjust="spacing" textLength="158" x="27" y="288.5745">kodebeskrivelse: string</text><line style="stroke:#181818;stroke-width:0.5;" x1="8" x2="190" y1="295.5277" y2="295.5277"/></g><!--class ReferanseDokumentfil--><g id="elem_ReferanseDokumentfil"><rect codeLine="18" fill="#F1F1F1" height="80.9766" id="ReferanseDokumentfil" rx="2.5" ry="2.5" style="stroke:#181818;stroke-width:0.5;" width="184" x="226" y="218.24"/><ellipse cx="241" cy="234.24" fill="#ADD1B2" rx="11" ry="11" style="stroke:#181818;stroke-width:1.0;"/><path d="M243.4731,240.3831 Q242.8921,240.6819 242.2529,240.8313 Q241.6138,240.9807 240.9082,240.9807 Q238.4014,240.9807 237.0815,239.3289 Q235.7617,237.677 235.7617,234.5559 Q235.7617,231.4265 237.0815,229.7747 Q238.4014,228.1228 240.9082,228.1228 Q241.6138,228.1228 242.2612,228.2722 Q242.9087,228.4216 243.4731,228.7205 L243.4731,231.4431 Q242.8423,230.8621 242.2488,230.5923 Q241.6553,230.3225 241.0244,230.3225 Q239.6797,230.3225 238.9949,231.3892 Q238.3101,232.4558 238.3101,234.5559 Q238.3101,236.6477 238.9949,237.7144 Q239.6797,238.781 241.0244,238.781 Q241.6553,238.781 242.2488,238.5112 Q242.8423,238.2415 243.4731,237.6604 Z " fill="#000000"/><text fill="#000000" font-family="sans-serif" font-size="14" lengthAdjust="spacing" textLength="152" x="255" y="239.531">ReferanseDokumentfil</text><line style="stroke:#181818;stroke-width:0.5;" x1="227" x2="409" y1="250.24" y2="250.24"/><ellipse cx="237" cy="263.9841" fill="none" rx="3" ry="3" style="stroke:#038048;stroke-width:1.0;"/><text fill="#000000" font-family="sans-serif" font-size="14" lengthAdjust="spacing" textLength="61" x="246" y="267.7752">id: string</text><ellipse cx="237" cy="280.4724" fill="none" rx="3" ry="3" style="stroke:#038048;stroke-width:1.0;"/><text fill="#000000" font-family="sans-serif" font-size="14" lengthAdjust="spacing" textLength="67" x="246" y="284.2634">url: string</text><line style="stroke:#181818;stroke-width:0.5;" x1="227" x2="409" y1="291.2166" y2="291.2166"/></g><!--link Dokument to Dokumenttype--><g id="link_Dokument_Dokumenttype"><path codeLine="10" d="M163.04,154.18 C150.6,174.28 137.49,195.49 126.39,213.44 " fill="none" id="Dokument-Dokumenttype" style="stroke:#181818;stroke-width:1.0;"/></g><!--link Dokument to ReferanseDokumentfil--><g id="link_Dokument_ReferanseDokumentfil"><path codeLine="11" d="M253.38,154.18 C266.99,175.99 281.41,199.1 293.17,217.94 " fill="none" id="Dokument-ReferanseDokumentfil" style="stroke:#181818;stroke-width:1.0;"/></g><!--SRC=[RP312iCW38RlFeNtqHSefQVTTjiRk9gEeBKZIOKn-kwps9OAUX2I_y-NNmTlcFLzTii4GVHFwNHkWYBWMyr26DwvPtUFV3_GdXDRbNM24SW4XaCQCH6UbMxsJpX1PjMsi3KojphTEzwGmnXC3AT_LUhCtJHbegjGZQ26uk7RaEwwnsoXxuzVSAcAG1RBY5lx1Um88tY6QvuChIqyc6XBs4B-0lW3]--></g></svg>