<svg xmlns="http://www.w3.org/2000/svg" xmlns:xlink="http://www.w3.org/1999/xlink" contentStyleType="text/css" data-diagram-type="CLASS" height="310px" preserveAspectRatio="none" style="width:415px;height:310px;background:#FFFFFF;" version="1.1" viewBox="0 0 415 310" width="415px" zoomAndPan="magnify"><defs/><g><!--class Dokument--><g class="entity" data-entity="Dokument" data-source-line="1" data-uid="ent0002" id="entity_Dokument"><rect fill="#F1F1F1" height="146.9297" rx="2.5" ry="2.5" style="stroke:#181818;stroke-width:0.5;" width="333.0908" x="41.23" y="7"/><ellipse cx="168.1494" cy="23" fill="#ADD1B2" rx="11" ry="11" style="stroke:#181818;stroke-width:1;"/><path d="M170.6226,29.1431 Q170.0415,29.4419 169.4024,29.5913 Q168.7632,29.7407 168.0576,29.7407 Q165.5508,29.7407 164.231,28.0889 Q162.9112,26.437 162.9112,23.3159 Q162.9112,20.1865 164.231,18.5347 Q165.5508,16.8828 168.0576,16.8828 Q168.7632,16.8828 169.4107,17.0322 Q170.0581,17.1816 170.6226,17.4805 L170.6226,20.2031 Q169.9917,19.6221 169.3982,19.3523 Q168.8047,19.0825 168.1738,19.0825 Q166.8291,19.0825 166.1443,20.1492 Q165.4595,21.2158 165.4595,23.3159 Q165.4595,25.4077 166.1443,26.4744 Q166.8291,27.541 168.1738,27.541 Q168.8047,27.541 169.3982,27.2712 Q169.9917,27.0015 170.6226,26.4204 Z " fill="#000000"/><text fill="#000000" font-family="sans-serif" font-size="14" lengthAdjust="spacing" textLength="70.752" x="188.6494" y="28.291">Dokument</text><line style="stroke:#181818;stroke-width:0.5;" x1="42.23" x2="373.3208" y1="39" y2="39"/><ellipse cx="52.23" cy="52.7441" fill="none" rx="3" ry="3" style="stroke:#038048;stroke-width:1;"/><text fill="#000000" font-family="sans-serif" font-size="14" lengthAdjust="spacing" textLength="80.0283" x="61.23" y="56.5352">tittel: string</text><ellipse cx="52.23" cy="69.2324" fill="none" rx="3" ry="3" style="stroke:#038048;stroke-width:1;"/><text fill="#000000" font-family="sans-serif" font-size="14" lengthAdjust="spacing" textLength="207.0127" x="61.23" y="73.0234">dokumenttype: Dokumenttype</text><ellipse cx="52.23" cy="85.7207" fill="none" rx="3" ry="3" style="stroke:#038048;stroke-width:1;"/><text fill="#000000" font-family="sans-serif" font-size="14" lengthAdjust="spacing" textLength="307.0908" x="61.23" y="89.5117">referanseDokumentfil: ReferanseDokumentfil</text><ellipse cx="52.23" cy="102.209" fill="none" rx="3" ry="3" style="stroke:#038048;stroke-width:1;"/><text fill="#000000" font-family="sans-serif" font-size="14" lengthAdjust="spacing" textLength="115.5752" x="61.23" y="106">mimetype: string</text><ellipse cx="52.23" cy="118.6973" fill="none" rx="3" ry="3" style="stroke:#038048;stroke-width:1;"/><text fill="#000000" font-family="sans-serif" font-size="14" lengthAdjust="spacing" textLength="145.0313" x="61.23" y="122.4883">dokumentsdato: date</text><ellipse cx="52.23" cy="135.1855" fill="none" rx="3" ry="3" style="stroke:#038048;stroke-width:1;"/><text fill="#000000" font-family="sans-serif" font-size="14" lengthAdjust="spacing" textLength="113.7158" x="61.23" y="138.9766">arkivnavn: string</text><line style="stroke:#181818;stroke-width:0.5;" x1="42.23" x2="373.3208" y1="145.9297" y2="145.9297"/></g><!--class Dokumenttype--><g class="entity" data-entity="Dokumenttype" data-source-line="10" data-uid="ent0003" id="entity_Dokumenttype"><rect fill="#F1F1F1" height="89.5977" rx="2.5" ry="2.5" style="stroke:#181818;stroke-width:0.5;" width="183.5547" x="7" y="213.93"/><ellipse cx="45.2383" cy="234.2405" fill="#ADD1B2" rx="11" ry="11" style="stroke:#181818;stroke-width:1;"/><path d="M47.7114,240.3836 Q47.1304,240.6824 46.4912,240.8319 Q45.8521,240.9813 45.1465,240.9813 Q42.6396,240.9813 41.3198,239.3294 Q40,237.6776 40,234.5565 Q40,231.4271 41.3198,229.7752 Q42.6396,228.1234 45.1465,228.1234 Q45.8521,228.1234 46.4995,228.2728 Q47.147,228.4222 47.7114,228.721 L47.7114,231.4437 Q47.0806,230.8626 46.4871,230.5928 Q45.8936,230.3231 45.2627,230.3231 Q43.918,230.3231 43.2332,231.3897 Q42.5483,232.4564 42.5483,234.5565 Q42.5483,236.6483 43.2332,237.7149 Q43.918,238.7816 45.2627,238.7816 Q45.8936,238.7816 46.4871,238.5118 Q47.0806,238.242 47.7114,237.661 Z " fill="#000000"/><text fill="#000000" font-family="sans-serif" font-size="12" font-style="italic" lengthAdjust="spacing" textLength="42.0176" x="93.3506" y="230.5316">&#171;Kode&#187;</text><text fill="#000000" font-family="sans-serif" font-size="14" lengthAdjust="spacing" textLength="99.9141" x="64.4023" y="246.598">Dokumenttype</text><line style="stroke:#181818;stroke-width:0.5;" x1="8" x2="189.5547" y1="254.5511" y2="254.5511"/><ellipse cx="18" cy="268.2952" fill="none" rx="3" ry="3" style="stroke:#038048;stroke-width:1;"/><text fill="#000000" font-family="sans-serif" font-size="14" lengthAdjust="spacing" textLength="115.4521" x="27" y="272.0862">kodeverdi: string</text><ellipse cx="18" cy="284.7835" fill="none" rx="3" ry="3" style="stroke:#038048;stroke-width:1;"/><text fill="#000000" font-family="sans-serif" font-size="14" lengthAdjust="spacing" textLength="157.5547" x="27" y="288.5745">kodebeskrivelse: string</text><line style="stroke:#181818;stroke-width:0.5;" x1="8" x2="189.5547" y1="295.5277" y2="295.5277"/></g><!--class ReferanseDokumentfil--><g class="entity" data-entity="ReferanseDokumentfil" data-source-line="11" data-uid="ent0005" id="entity_ReferanseDokumentfil"><rect fill="#F1F1F1" height="80.9766" rx="2.5" ry="2.5" style="stroke:#181818;stroke-width:0.5;" width="182.6777" x="225.44" y="218.24"/><ellipse cx="240.44" cy="234.24" fill="#ADD1B2" rx="11" ry="11" style="stroke:#181818;stroke-width:1;"/><path d="M242.9131,240.3831 Q242.3321,240.6819 241.6929,240.8313 Q241.0538,240.9807 240.3482,240.9807 Q237.8414,240.9807 236.5215,239.3289 Q235.2017,237.677 235.2017,234.5559 Q235.2017,231.4265 236.5215,229.7747 Q237.8414,228.1228 240.3482,228.1228 Q241.0538,228.1228 241.7012,228.2722 Q242.3487,228.4216 242.9131,228.7205 L242.9131,231.4431 Q242.2823,230.8621 241.6888,230.5923 Q241.0953,230.3225 240.4644,230.3225 Q239.1197,230.3225 238.4349,231.3892 Q237.7501,232.4558 237.7501,234.5559 Q237.7501,236.6477 238.4349,237.7144 Q239.1197,238.781 240.4644,238.781 Q241.0953,238.781 241.6888,238.5112 Q242.2823,238.2415 242.9131,237.6604 Z " fill="#000000"/><text fill="#000000" font-family="sans-serif" font-size="14" lengthAdjust="spacing" textLength="150.6777" x="254.44" y="239.531">ReferanseDokumentfil</text><line style="stroke:#181818;stroke-width:0.5;" x1="226.44" x2="407.1177" y1="250.24" y2="250.24"/><ellipse cx="236.44" cy="263.9841" fill="none" rx="3" ry="3" style="stroke:#038048;stroke-width:1;"/><text fill="#000000" font-family="sans-serif" font-size="14" lengthAdjust="spacing" textLength="61.2842" x="245.44" y="267.7752">id: string</text><ellipse cx="236.44" cy="280.4724" fill="none" rx="3" ry="3" style="stroke:#038048;stroke-width:1;"/><text fill="#000000" font-family="sans-serif" font-size="14" lengthAdjust="spacing" textLength="66.8896" x="245.44" y="284.2634">url: string</text><line style="stroke:#181818;stroke-width:0.5;" x1="226.44" x2="407.1177" y1="291.2166" y2="291.2166"/></g><!--link Dokument to Dokumenttype--><g class="link" data-entity-1="Dokument" data-entity-2="Dokumenttype" data-source-line="10" data-uid="lnk4" id="link_Dokument_Dokumenttype"><path codeLine="10" d="M162.81,154.18 C150.38,174.28 137.27,195.49 126.16,213.44" fill="none" id="Dokument-Dokumenttype" style="stroke:#181818;stroke-width:1;"/></g><!--link Dokument to ReferanseDokumentfil--><g class="link" data-entity-1="Dokument" data-entity-2="ReferanseDokumentfil" data-source-line="11" data-uid="lnk6" id="link_Dokument_ReferanseDokumentfil"><path codeLine="11" d="M252.74,154.18 C266.23,175.99 280.52,199.1 292.17,217.94" fill="none" id="Dokument-ReferanseDokumentfil" style="stroke:#181818;stroke-width:1;"/></g><!--SRC=[RP312iCW38RlFeNtqHSefQVTTjiRk9gEeBKZIOKn-kwps9OAUX2I_y-NNmTlcFLzTii4GVHFwNHkWYBWMyr26DwvPtUFV3_GdXDRbNM24SW4XaCQCH6UbMxsJpX1PjMsi3KojphTEzwGmnXC3AT_LUhCtJHbegjGZQ26uk7RaEwwnsoXxuzVSAcAG1RBY5lx1Um88tY6QvuChIqyc6XBs4B-0lW3]--></g></svg>