<svg xmlns="http://www.w3.org/2000/svg" xmlns:xlink="http://www.w3.org/1999/xlink" contentStyleType="text/css" height="733px" preserveAspectRatio="none" style="width:747px;height:733px;background:#FFFFFF;" version="1.1" viewBox="0 0 747 733" width="747px" zoomAndPan="magnify"><defs/><g><!--class Flate--><g id="elem_Flate"><rect codeLine="1" fill="#F1F1F1" height="97.4648" id="Flate" rx="2.5" ry="2.5" style="stroke:#181818;stroke-width:0.5;" width="263" x="275.5" y="479.4"/><ellipse cx="386.25" cy="495.4" fill="#ADD1B2" rx="11" ry="11" style="stroke:#181818;stroke-width:1.0;"/><path d="M388.7231,501.5431 Q388.1421,501.8419 387.5029,501.9913 Q386.8638,502.1407 386.1582,502.1407 Q383.6514,502.1407 382.3315,500.4889 Q381.0117,498.837 381.0117,495.7159 Q381.0117,492.5865 382.3315,490.9347 Q383.6514,489.2828 386.1582,489.2828 Q386.8638,489.2828 387.5112,489.4322 Q388.1587,489.5816 388.7231,489.8805 L388.7231,492.6031 Q388.0923,492.0221 387.4988,491.7523 Q386.9053,491.4825 386.2744,491.4825 Q384.9297,491.4825 384.2449,492.5492 Q383.5601,493.6158 383.5601,495.7159 Q383.5601,497.8077 384.2449,498.8744 Q384.9297,499.941 386.2744,499.941 Q386.9053,499.941 387.4988,499.6712 Q388.0923,499.4015 388.7231,498.8204 Z " fill="#000000"/><text fill="#000000" font-family="sans-serif" font-size="14" lengthAdjust="spacing" textLength="33" x="406.75" y="500.691">Flate</text><line style="stroke:#181818;stroke-width:0.5;" x1="276.5" x2="537.5" y1="511.4" y2="511.4"/><ellipse cx="286.5" cy="525.1441" fill="none" rx="3" ry="3" style="stroke:#038048;stroke-width:1.0;"/><text fill="#000000" font-family="sans-serif" font-size="14" lengthAdjust="spacing" textLength="103" x="295.5" y="528.9352">type: FlateType</text><ellipse cx="286.5" cy="541.6324" fill="none" rx="3" ry="3" style="stroke:#038048;stroke-width:1.0;"/><text fill="#000000" font-family="sans-serif" font-size="14" lengthAdjust="spacing" textLength="167" x="295.5" y="545.4234">koordinater: Koordinat[]</text><ellipse cx="286.5" cy="558.1207" fill="none" rx="3" ry="3" style="stroke:#038048;stroke-width:1.0;"/><text fill="#000000" font-family="sans-serif" font-size="14" lengthAdjust="spacing" textLength="237" x="295.5" y="561.9117">koordinatsystem: Koordinatsystem</text><line style="stroke:#181818;stroke-width:0.5;" x1="276.5" x2="537.5" y1="568.8648" y2="568.8648"/></g><!--class FlateType--><g id="elem_FlateType"><rect codeLine="11" fill="#F1F1F1" height="64.4883" id="FlateType" rx="2.5" ry="2.5" style="stroke:#181818;stroke-width:0.5;" width="98" x="207" y="649.42"/><ellipse cx="222" cy="665.42" fill="#EB937F" rx="11" ry="11" style="stroke:#181818;stroke-width:1.0;"/><path d="M225.6143,671.92 L217.8945,671.92 L217.8945,659.5269 L225.6143,659.5269 L225.6143,661.6851 L220.3433,661.6851 L220.3433,664.358 L225.1162,664.358 L225.1162,666.5162 L220.3433,666.5162 L220.3433,669.7618 L225.6143,669.7618 Z " fill="#000000"/><text fill="#000000" font-family="sans-serif" font-size="14" lengthAdjust="spacing" textLength="66" x="236" y="670.711">FlateType</text><line style="stroke:#181818;stroke-width:0.5;" x1="208" x2="304" y1="681.42" y2="681.42"/><text fill="#000000" font-family="sans-serif" font-size="14" lengthAdjust="spacing" textLength="55" x="213" y="698.9552">Polygon</text><line style="stroke:#181818;stroke-width:0.5;" x1="208" x2="304" y1="705.9083" y2="705.9083"/></g><!--class Koordinat--><g id="elem_Koordinat"><rect codeLine="15" fill="#F1F1F1" height="64.4883" id="Koordinat" rx="2.5" ry="2.5" style="stroke:#181818;stroke-width:0.5;" width="135" x="339.5" y="649.42"/><ellipse cx="370.25" cy="665.42" fill="#ADD1B2" rx="11" ry="11" style="stroke:#181818;stroke-width:1.0;"/><path d="M372.7231,671.5631 Q372.1421,671.8619 371.5029,672.0113 Q370.8638,672.1607 370.1582,672.1607 Q367.6514,672.1607 366.3315,670.5089 Q365.0117,668.857 365.0117,665.7359 Q365.0117,662.6065 366.3315,660.9547 Q367.6514,659.3028 370.1582,659.3028 Q370.8638,659.3028 371.5112,659.4522 Q372.1587,659.6016 372.7231,659.9005 L372.7231,662.6231 Q372.0923,662.0421 371.4988,661.7723 Q370.9053,661.5025 370.2744,661.5025 Q368.9297,661.5025 368.2449,662.5692 Q367.5601,663.6358 367.5601,665.7359 Q367.5601,667.8277 368.2449,668.8944 Q368.9297,669.961 370.2744,669.961 Q370.9053,669.961 371.4988,669.6912 Q372.0923,669.4215 372.7231,668.8404 Z " fill="#000000"/><text fill="#000000" font-family="sans-serif" font-size="14" lengthAdjust="spacing" textLength="68" x="387.75" y="670.711">Koordinat</text><line style="stroke:#181818;stroke-width:0.5;" x1="340.5" x2="473.5" y1="681.42" y2="681.42"/><ellipse cx="350.5" cy="695.1641" fill="none" rx="3" ry="3" style="stroke:#038048;stroke-width:1.0;"/><text fill="#000000" font-family="sans-serif" font-size="14" lengthAdjust="spacing" textLength="109" x="359.5" y="698.9552">items: number[]</text><line style="stroke:#181818;stroke-width:0.5;" x1="340.5" x2="473.5" y1="705.9083" y2="705.9083"/></g><!--class Koordinatsystem--><g id="elem_Koordinatsystem"><rect codeLine="19" fill="#F1F1F1" height="89.5977" id="Koordinatsystem" rx="2.5" ry="2.5" style="stroke:#181818;stroke-width:0.5;" width="184" x="510" y="636.86"/><ellipse cx="541.65" cy="657.1705" fill="#ADD1B2" rx="11" ry="11" style="stroke:#181818;stroke-width:1.0;"/><path d="M544.1231,663.3136 Q543.5421,663.6124 542.9029,663.7619 Q542.2638,663.9113 541.5582,663.9113 Q539.0514,663.9113 537.7315,662.2594 Q536.4117,660.6076 536.4117,657.4865 Q536.4117,654.3571 537.7315,652.7052 Q539.0514,651.0534 541.5582,651.0534 Q542.2638,651.0534 542.9112,651.2028 Q543.5587,651.3522 544.1231,651.651 L544.1231,654.3737 Q543.4923,653.7926 542.8988,653.5228 Q542.3053,653.2531 541.6744,653.2531 Q540.3297,653.2531 539.6449,654.3197 Q538.9601,655.3864 538.9601,657.4865 Q538.9601,659.5783 539.6449,660.6449 Q540.3297,661.7116 541.6744,661.7116 Q542.3053,661.7116 542.8988,661.4418 Q543.4923,661.172 544.1231,660.591 Z " fill="#000000"/><text fill="#000000" font-family="sans-serif" font-size="12" font-style="italic" lengthAdjust="spacing" textLength="42" x="595.85" y="653.4616">&#171;Kode&#187;</text><text fill="#000000" font-family="sans-serif" font-size="14" lengthAdjust="spacing" textLength="115" x="559.35" y="669.528">Koordinatsystem</text><line style="stroke:#181818;stroke-width:0.5;" x1="511" x2="693" y1="677.4811" y2="677.4811"/><ellipse cx="521" cy="691.2252" fill="none" rx="3" ry="3" style="stroke:#038048;stroke-width:1.0;"/><text fill="#000000" font-family="sans-serif" font-size="14" lengthAdjust="spacing" textLength="116" x="530" y="695.0163">kodeverdi: string</text><ellipse cx="521" cy="707.7135" fill="none" rx="3" ry="3" style="stroke:#038048;stroke-width:1.0;"/><text fill="#000000" font-family="sans-serif" font-size="14" lengthAdjust="spacing" textLength="158" x="530" y="711.5045">kodebeskrivelse: string</text><line style="stroke:#181818;stroke-width:0.5;" x1="511" x2="693" y1="718.4577" y2="718.4577"/></g><!--class NasjonalArealplanId--><g id="elem_NasjonalArealplanId"><rect codeLine="1" fill="#F1F1F1" height="80.9766" id="NasjonalArealplanId" rx="2.5" ry="2.5" style="stroke:#181818;stroke-width:0.5;" width="292" x="7" y="147.98"/><ellipse cx="79.75" cy="163.98" fill="#ADD1B2" rx="11" ry="11" style="stroke:#181818;stroke-width:1.0;"/><path d="M82.2231,170.1231 Q81.6421,170.4219 81.0029,170.5713 Q80.3638,170.7207 79.6582,170.7207 Q77.1514,170.7207 75.8315,169.0689 Q74.5117,167.417 74.5117,164.2959 Q74.5117,161.1665 75.8315,159.5147 Q77.1514,157.8628 79.6582,157.8628 Q80.3638,157.8628 81.0112,158.0122 Q81.6587,158.1616 82.2231,158.4605 L82.2231,161.1831 Q81.5923,160.6021 80.9988,160.3323 Q80.4053,160.0625 79.7744,160.0625 Q78.4297,160.0625 77.7449,161.1292 Q77.0601,162.1958 77.0601,164.2959 Q77.0601,166.3877 77.7449,167.4544 Q78.4297,168.521 79.7744,168.521 Q80.4053,168.521 80.9988,168.2512 Q81.5923,167.9815 82.2231,167.4004 Z " fill="#000000"/><text fill="#000000" font-family="sans-serif" font-size="14" lengthAdjust="spacing" textLength="138" x="100.25" y="169.271">NasjonalArealplanId</text><line style="stroke:#181818;stroke-width:0.5;" x1="8" x2="298" y1="179.98" y2="179.98"/><ellipse cx="18" cy="193.7241" fill="none" rx="3" ry="3" style="stroke:#038048;stroke-width:1.0;"/><text fill="#000000" font-family="sans-serif" font-size="14" lengthAdjust="spacing" textLength="266" x="27" y="197.5152">administrativEnhet: AdministrativEnhet</text><ellipse cx="18" cy="210.2124" fill="none" rx="3" ry="3" style="stroke:#038048;stroke-width:1.0;"/><text fill="#000000" font-family="sans-serif" font-size="14" lengthAdjust="spacing" textLength="171" x="27" y="214.0034">planidentifikasjon: string</text><line style="stroke:#181818;stroke-width:0.5;" x1="8" x2="298" y1="220.9566" y2="220.9566"/></g><!--class AdministrativEnhet--><g id="elem_AdministrativEnhet"><rect codeLine="8" fill="#F1F1F1" height="97.4648" id="AdministrativEnhet" rx="2.5" ry="2.5" style="stroke:#181818;stroke-width:0.5;" width="162" x="72" y="305.44"/><ellipse cx="87" cy="321.44" fill="#EB937F" rx="11" ry="11" style="stroke:#181818;stroke-width:1.0;"/><path d="M90.6143,327.94 L82.8945,327.94 L82.8945,315.5469 L90.6143,315.5469 L90.6143,317.7051 L85.3433,317.7051 L85.3433,320.378 L90.1162,320.378 L90.1162,322.5362 L85.3433,322.5362 L85.3433,325.7818 L90.6143,325.7818 Z " fill="#000000"/><text fill="#000000" font-family="sans-serif" font-size="14" lengthAdjust="spacing" textLength="130" x="101" y="326.731">AdministrativEnhet</text><line style="stroke:#181818;stroke-width:0.5;" x1="73" x2="233" y1="337.44" y2="337.44"/><text fill="#000000" font-family="sans-serif" font-size="14" lengthAdjust="spacing" textLength="127" x="78" y="354.9752">kommunenummer</text><text fill="#000000" font-family="sans-serif" font-size="14" lengthAdjust="spacing" textLength="97" x="78" y="371.4634">fylkesnummer</text><text fill="#000000" font-family="sans-serif" font-size="14" lengthAdjust="spacing" textLength="71" x="78" y="387.9517">landskode</text><line style="stroke:#181818;stroke-width:0.5;" x1="73" x2="233" y1="394.9048" y2="394.9048"/></g><!--class RegistrerPlanomraade--><g id="elem_RegistrerPlanomraade"><rect codeLine="4" fill="#F1F1F1" height="80.9766" id="RegistrerPlanomraade" rx="2.5" ry="2.5" style="stroke:#181818;stroke-width:0.5;" width="309" x="140.5" y="7"/><ellipse cx="214.75" cy="23" fill="#ADD1B2" rx="11" ry="11" style="stroke:#181818;stroke-width:1.0;"/><path d="M217.2231,29.1431 Q216.6421,29.4419 216.0029,29.5913 Q215.3638,29.7407 214.6582,29.7407 Q212.1514,29.7407 210.8315,28.0889 Q209.5117,26.437 209.5117,23.3159 Q209.5117,20.1865 210.8315,18.5347 Q212.1514,16.8828 214.6582,16.8828 Q215.3638,16.8828 216.0112,17.0322 Q216.6587,17.1816 217.2231,17.4805 L217.2231,20.2031 Q216.5923,19.6221 215.9988,19.3523 Q215.4053,19.0825 214.7744,19.0825 Q213.4297,19.0825 212.7449,20.1492 Q212.0601,21.2158 212.0601,23.3159 Q212.0601,25.4077 212.7449,26.4744 Q213.4297,27.541 214.7744,27.541 Q215.4053,27.541 215.9988,27.2712 Q216.5923,27.0015 217.2231,26.4204 Z " fill="#000000"/><text fill="#000000" font-family="sans-serif" font-size="14" lengthAdjust="spacing" textLength="152" x="235.25" y="28.291">RegistrerPlanomraade</text><line style="stroke:#181818;stroke-width:0.5;" x1="141.5" x2="448.5" y1="39" y2="39"/><ellipse cx="151.5" cy="52.7441" fill="none" rx="3" ry="3" style="stroke:#038048;stroke-width:1.0;"/><text fill="#000000" font-family="sans-serif" font-size="14" lengthAdjust="spacing" textLength="283" x="160.5" y="56.5352">nasjonalArealplanId: NasjonalArealplanId</text><ellipse cx="151.5" cy="69.2324" fill="none" rx="3" ry="3" style="stroke:#038048;stroke-width:1.0;"/><text fill="#000000" font-family="sans-serif" font-size="14" lengthAdjust="spacing" textLength="189" x="160.5" y="73.0234">planomraade: Planomraade</text><line style="stroke:#181818;stroke-width:0.5;" x1="141.5" x2="448.5" y1="79.9766" y2="79.9766"/></g><!--class Planomraade--><g id="elem_Planomraade"><rect codeLine="9" fill="#F1F1F1" height="80.9766" id="Planomraade" rx="2.5" ry="2.5" style="stroke:#181818;stroke-width:0.5;" width="208" x="334" y="147.98"/><ellipse cx="388.75" cy="163.98" fill="#ADD1B2" rx="11" ry="11" style="stroke:#181818;stroke-width:1.0;"/><path d="M391.2231,170.1231 Q390.6421,170.4219 390.0029,170.5713 Q389.3638,170.7207 388.6582,170.7207 Q386.1514,170.7207 384.8315,169.0689 Q383.5117,167.417 383.5117,164.2959 Q383.5117,161.1665 384.8315,159.5147 Q386.1514,157.8628 388.6582,157.8628 Q389.3638,157.8628 390.0112,158.0122 Q390.6587,158.1616 391.2231,158.4605 L391.2231,161.1831 Q390.5923,160.6021 389.9988,160.3323 Q389.4053,160.0625 388.7744,160.0625 Q387.4297,160.0625 386.7449,161.1292 Q386.0601,162.1958 386.0601,164.2959 Q386.0601,166.3877 386.7449,167.4544 Q387.4297,168.521 388.7744,168.521 Q389.4053,168.521 389.9988,168.2512 Q390.5923,167.9815 391.2231,167.4004 Z " fill="#000000"/><text fill="#000000" font-family="sans-serif" font-size="14" lengthAdjust="spacing" textLength="90" x="409.25" y="169.271">Planomraade</text><line style="stroke:#181818;stroke-width:0.5;" x1="335" x2="541" y1="179.98" y2="179.98"/><ellipse cx="345" cy="193.7241" fill="none" rx="3" ry="3" style="stroke:#038048;stroke-width:1.0;"/><text fill="#000000" font-family="sans-serif" font-size="14" lengthAdjust="spacing" textLength="132" x="354" y="197.5152">omraade: Omraade</text><ellipse cx="345" cy="210.2124" fill="none" rx="3" ry="3" style="stroke:#038048;stroke-width:1.0;"/><text fill="#000000" font-family="sans-serif" font-size="14" lengthAdjust="spacing" textLength="182" x="354" y="214.0034">vertikalnivaa: Vertikalnivaa</text><line style="stroke:#181818;stroke-width:0.5;" x1="335" x2="541" y1="220.9566" y2="220.9566"/></g><!--class Omraade--><g id="elem_Omraade"><rect codeLine="14" fill="#F1F1F1" height="80.9766" id="Omraade" rx="2.5" ry="2.5" style="stroke:#181818;stroke-width:0.5;" width="214" x="300" y="313.69"/><ellipse cx="371.25" cy="329.69" fill="#ADD1B2" rx="11" ry="11" style="stroke:#181818;stroke-width:1.0;"/><path d="M373.7231,335.8331 Q373.1421,336.1319 372.5029,336.2813 Q371.8638,336.4307 371.1582,336.4307 Q368.6514,336.4307 367.3315,334.7789 Q366.0117,333.127 366.0117,330.0059 Q366.0117,326.8765 367.3315,325.2247 Q368.6514,323.5728 371.1582,323.5728 Q371.8638,323.5728 372.5112,323.7222 Q373.1587,323.8716 373.7231,324.1705 L373.7231,326.8931 Q373.0923,326.3121 372.4988,326.0423 Q371.9053,325.7725 371.2744,325.7725 Q369.9297,325.7725 369.2449,326.8392 Q368.5601,327.9058 368.5601,330.0059 Q368.5601,332.0977 369.2449,333.1644 Q369.9297,334.231 371.2744,334.231 Q371.9053,334.231 372.4988,333.9612 Q373.0923,333.6915 373.7231,333.1104 Z " fill="#000000"/><text fill="#000000" font-family="sans-serif" font-size="14" lengthAdjust="spacing" textLength="63" x="391.75" y="334.981">Omraade</text><line style="stroke:#181818;stroke-width:0.5;" x1="301" x2="513" y1="345.69" y2="345.69"/><ellipse cx="311" cy="359.4341" fill="none" rx="3" ry="3" style="stroke:#038048;stroke-width:1.0;"/><text fill="#000000" font-family="sans-serif" font-size="14" lengthAdjust="spacing" textLength="154" x="320" y="363.2252">ytreAvgrensning: Flate</text><ellipse cx="311" cy="375.9224" fill="none" rx="3" ry="3" style="stroke:#038048;stroke-width:1.0;"/><text fill="#000000" font-family="sans-serif" font-size="14" lengthAdjust="spacing" textLength="188" x="320" y="379.7134">indreAvgrensninger: Flate[]</text><line style="stroke:#181818;stroke-width:0.5;" x1="301" x2="513" y1="386.6666" y2="386.6666"/></g><!--class Vertikalnivaa--><g id="elem_Vertikalnivaa"><rect codeLine="19" fill="#F1F1F1" height="130.4414" id="Vertikalnivaa" rx="2.5" ry="2.5" style="stroke:#181818;stroke-width:0.5;" width="191" x="549.5" y="288.96"/><ellipse cx="596.75" cy="304.96" fill="#EB937F" rx="11" ry="11" style="stroke:#181818;stroke-width:1.0;"/><path d="M600.3643,311.46 L592.6445,311.46 L592.6445,299.0669 L600.3643,299.0669 L600.3643,301.2251 L595.0933,301.2251 L595.0933,303.898 L599.8662,303.898 L599.8662,306.0562 L595.0933,306.0562 L595.0933,309.3018 L600.3643,309.3018 Z " fill="#000000"/><text fill="#000000" font-family="sans-serif" font-size="14" lengthAdjust="spacing" textLength="88" x="617.25" y="310.251">Vertikalnivaa</text><line style="stroke:#181818;stroke-width:0.5;" x1="550.5" x2="739.5" y1="320.96" y2="320.96"/><text fill="#000000" font-family="sans-serif" font-size="14" lengthAdjust="spacing" textLength="105" x="555.5" y="338.4952">Under grunnen</text><text fill="#000000" font-family="sans-serif" font-size="14" lengthAdjust="spacing" textLength="179" x="555.5" y="354.9834">P&#229; grunnen/vannoverflate</text><text fill="#000000" font-family="sans-serif" font-size="14" lengthAdjust="spacing" textLength="93" x="555.5" y="371.4717">I vannsoeylen</text><line style="stroke:#181818;stroke-width:0.5;" x1="550.5" x2="739.5" y1="378.4248" y2="378.4248"/><text fill="#000000" font-family="sans-serif" font-size="14" lengthAdjust="spacing" textLength="133" x="555.5" y="395.96">Over grunnen (bru)</text><text fill="#000000" font-family="sans-serif" font-size="14" lengthAdjust="spacing" textLength="155" x="555.5" y="412.4483">P&#229; bunnen (vann/sjoe)</text></g><!--link Flate to FlateType--><g id="link_Flate_FlateType"><path codeLine="7" d="M359.22,577.08 C335.72,600.66 308.06,628.42 287.29,649.26 " fill="none" id="Flate-FlateType" style="stroke:#181818;stroke-width:1.0;"/></g><!--link Flate to Koordinat--><g id="link_Flate_Koordinat"><path codeLine="8" d="M407,577.08 C407,600.66 407,628.42 407,649.26 " fill="none" id="Flate-Koordinat" style="stroke:#181818;stroke-width:1.0;"/></g><!--link Flate to Koordinatsystem--><g id="link_Flate_Koordinatsystem"><path codeLine="9" d="M468.97,577.28 C493.39,596.26 521.26,617.92 545.16,636.49 " fill="none" id="Flate-Koordinatsystem" style="stroke:#181818;stroke-width:1.0;"/></g><!--link NasjonalArealplanId to AdministrativEnhet--><g id="link_NasjonalArealplanId_AdministrativEnhet"><path codeLine="6" d="M153,229.1 C153,252 153,280.97 153,305.16 " fill="none" id="NasjonalArealplanId-AdministrativEnhet" style="stroke:#181818;stroke-width:1.0;"/></g><!--link RegistrerPlanomraade to Planomraade--><g id="link_RegistrerPlanomraade_Planomraade"><path codeLine="27" d="M335.98,88.32 C355.13,106.93 377.87,129.03 397.02,147.64 " fill="none" id="RegistrerPlanomraade-Planomraade" style="stroke:#181818;stroke-width:1.0;"/></g><!--link RegistrerPlanomraade to NasjonalArealplanId--><g id="link_RegistrerPlanomraade_NasjonalArealplanId"><path codeLine="28" d="M254.31,88.32 C235.3,106.93 212.71,129.03 193.7,147.64 " fill="none" id="RegistrerPlanomraade-NasjonalArealplanId" style="stroke:#181818;stroke-width:1.0;"/></g><!--link Planomraade to Omraade--><g id="link_Planomraade_Omraade"><path codeLine="29" d="M430.5,229.1 C425.66,254.65 419.39,287.76 414.54,313.34 " fill="none" id="Planomraade-Omraade" style="stroke:#181818;stroke-width:1.0;"/></g><!--link Planomraade to Vertikalnivaa--><g id="link_Planomraade_Vertikalnivaa"><path codeLine="30" d="M488.37,229.31 C510.87,247.1 537.97,268.53 563.25,288.52 " fill="none" id="Planomraade-Vertikalnivaa" style="stroke:#181818;stroke-width:1.0;"/></g><!--link Omraade to Flate--><g id="link_Omraade_Flate"><path codeLine="31" d="M407,395.06 C407,420.16 407,452.7 407,479.2 " fill="none" id="Omraade-Flate" style="stroke:#181818;stroke-width:1.0;"/></g><!--SRC=[ZL6nQiCm5Dpz5ShMKY91HszP2bdgK6YNqk4bVZPgb2SZMO9G-ZdzalvO9TkouzI5QX3exjsTT5f9EYXN8kE2Sq6Q7oslPDWQ1SJzFQzGAGoOWXP5j_F6PQj_oWZikoPGO11Kv6Gf5h1ecHqKMCkUi9QsDMXsWT4d0n1IFZ8MrbrIRf9oM-RiyJVOJpUJGSuktBBFbBKGCGgAORX3FPfM7a6Hz00vUxayJdR5tEeSNh7njK6o9AdEsKDih-SabJCIpK2_laK_97UQfmocprIYORLnH4WTill-IcVXWKY7krPZKE6dSNQpD-vs5Eq7C8f4g11xQiiYO3MULKW8TrdyaFLwrkXVCqj_SpMIUhw2vnKN4z6N-0C0]--></g></svg>