<svg xmlns="http://www.w3.org/2000/svg" xmlns:xlink="http://www.w3.org/1999/xlink" contentStyleType="text/css" data-diagram-type="CLASS" height="733px" preserveAspectRatio="none" style="width:739px;height:733px;background:#FFFFFF;" version="1.1" viewBox="0 0 739 733" width="739px" zoomAndPan="magnify"><defs/><g><!--class Flate--><g class="entity" data-entity="Flate" data-source-line="1" data-uid="ent0002" id="entity_Flate"><rect fill="#F1F1F1" height="97.4648" rx="2.5" ry="2.5" style="stroke:#181818;stroke-width:0.5;" width="262.4551" x="272.92" y="479.4"/><ellipse cx="383.7374" cy="495.4" fill="#ADD1B2" rx="11" ry="11" style="stroke:#181818;stroke-width:1;"/><path d="M386.2105,501.5431 Q385.6295,501.8419 384.9903,501.9913 Q384.3512,502.1407 383.6456,502.1407 Q381.1388,502.1407 379.8189,500.4889 Q378.4991,498.837 378.4991,495.7159 Q378.4991,492.5865 379.8189,490.9347 Q381.1388,489.2828 383.6456,489.2828 Q384.3512,489.2828 384.9986,489.4322 Q385.6461,489.5816 386.2105,489.8805 L386.2105,492.6031 Q385.5797,492.0221 384.9862,491.7523 Q384.3927,491.4825 383.7618,491.4825 Q382.4171,491.4825 381.7323,492.5492 Q381.0474,493.6158 381.0474,495.7159 Q381.0474,497.8077 381.7323,498.8744 Q382.4171,499.941 383.7618,499.941 Q384.3927,499.941 384.9862,499.6712 Q385.5797,499.4015 386.2105,498.8204 Z " fill="#000000"/><text fill="#000000" font-family="sans-serif" font-size="14" lengthAdjust="spacing" textLength="32.3203" x="404.2374" y="500.691">Flate</text><line style="stroke:#181818;stroke-width:0.5;" x1="273.92" x2="534.3751" y1="511.4" y2="511.4"/><ellipse cx="283.92" cy="525.1441" fill="none" rx="3" ry="3" style="stroke:#038048;stroke-width:1;"/><text fill="#000000" font-family="sans-serif" font-size="14" lengthAdjust="spacing" textLength="103.1201" x="292.92" y="528.9352">type: FlateType</text><ellipse cx="283.92" cy="541.6324" fill="none" rx="3" ry="3" style="stroke:#038048;stroke-width:1;"/><text fill="#000000" font-family="sans-serif" font-size="14" lengthAdjust="spacing" textLength="163.7002" x="292.92" y="545.4234">koordinater: Koordinat[]</text><ellipse cx="283.92" cy="558.1207" fill="none" rx="3" ry="3" style="stroke:#038048;stroke-width:1;"/><text fill="#000000" font-family="sans-serif" font-size="14" lengthAdjust="spacing" textLength="236.4551" x="292.92" y="561.9117">koordinatsystem: Koordinatsystem</text><line style="stroke:#181818;stroke-width:0.5;" x1="273.92" x2="534.3751" y1="568.8648" y2="568.8648"/></g><!--class FlateType--><g class="entity" data-entity="FlateType" data-source-line="7" data-uid="ent0003" id="entity_FlateType"><rect fill="#F1F1F1" height="64.4883" rx="2.5" ry="2.5" style="stroke:#181818;stroke-width:0.5;" width="97.0986" x="204.6" y="649.42"/><ellipse cx="219.6" cy="665.42" fill="#EB937F" rx="11" ry="11" style="stroke:#181818;stroke-width:1;"/><path d="M223.2143,671.92 L215.4945,671.92 L215.4945,659.5269 L223.2143,659.5269 L223.2143,661.6851 L217.9433,661.6851 L217.9433,664.358 L222.7162,664.358 L222.7162,666.5162 L217.9433,666.5162 L217.9433,669.7618 L223.2143,669.7618 Z " fill="#000000"/><text fill="#000000" font-family="sans-serif" font-size="14" lengthAdjust="spacing" textLength="65.0986" x="233.6" y="670.711">FlateType</text><line style="stroke:#181818;stroke-width:0.5;" x1="205.6" x2="300.6986" y1="681.42" y2="681.42"/><text fill="#000000" font-family="sans-serif" font-size="14" lengthAdjust="spacing" textLength="53.7168" x="210.6" y="698.9552">Polygon</text><line style="stroke:#181818;stroke-width:0.5;" x1="205.6" x2="300.6986" y1="705.9083" y2="705.9083"/></g><!--class Koordinat--><g class="entity" data-entity="Koordinat" data-source-line="8" data-uid="ent0005" id="entity_Koordinat"><rect fill="#F1F1F1" height="64.4883" rx="2.5" ry="2.5" style="stroke:#181818;stroke-width:0.5;" width="134.042" x="337.13" y="649.42"/><ellipse cx="368.087" cy="665.42" fill="#ADD1B2" rx="11" ry="11" style="stroke:#181818;stroke-width:1;"/><path d="M370.5601,671.5631 Q369.9791,671.8619 369.3399,672.0113 Q368.7008,672.1607 367.9952,672.1607 Q365.4883,672.1607 364.1685,670.5089 Q362.8487,668.857 362.8487,665.7359 Q362.8487,662.6065 364.1685,660.9547 Q365.4883,659.3028 367.9952,659.3028 Q368.7008,659.3028 369.3482,659.4522 Q369.9957,659.6016 370.5601,659.9005 L370.5601,662.6231 Q369.9293,662.0421 369.3358,661.7723 Q368.7423,661.5025 368.1114,661.5025 Q366.7667,661.5025 366.0819,662.5692 Q365.397,663.6358 365.397,665.7359 Q365.397,667.8277 366.0819,668.8944 Q366.7667,669.961 368.1114,669.961 Q368.7423,669.961 369.3358,669.6912 Q369.9293,669.4215 370.5601,668.8404 Z " fill="#000000"/><text fill="#000000" font-family="sans-serif" font-size="14" lengthAdjust="spacing" textLength="66.582" x="385.633" y="670.711">Koordinat</text><line style="stroke:#181818;stroke-width:0.5;" x1="338.13" x2="470.172" y1="681.42" y2="681.42"/><ellipse cx="348.13" cy="695.1641" fill="none" rx="3" ry="3" style="stroke:#038048;stroke-width:1;"/><text fill="#000000" font-family="sans-serif" font-size="14" lengthAdjust="spacing" textLength="108.042" x="357.13" y="698.9552">items: number[]</text><line style="stroke:#181818;stroke-width:0.5;" x1="338.13" x2="470.172" y1="705.9083" y2="705.9083"/></g><!--class Koordinatsystem--><g class="entity" data-entity="Koordinatsystem" data-source-line="9" data-uid="ent0007" id="entity_Koordinatsystem"><rect fill="#F1F1F1" height="89.5977" rx="2.5" ry="2.5" style="stroke:#181818;stroke-width:0.5;" width="183.5547" x="506.38" y="636.86"/><ellipse cx="538.1552" cy="657.1705" fill="#ADD1B2" rx="11" ry="11" style="stroke:#181818;stroke-width:1;"/><path d="M540.6284,663.3136 Q540.0473,663.6124 539.4082,663.7619 Q538.769,663.9113 538.0634,663.9113 Q535.5566,663.9113 534.2368,662.2594 Q532.917,660.6076 532.917,657.4865 Q532.917,654.3571 534.2368,652.7052 Q535.5566,651.0534 538.0634,651.0534 Q538.769,651.0534 539.4165,651.2028 Q540.0639,651.3522 540.6284,651.651 L540.6284,654.3737 Q539.9975,653.7926 539.404,653.5228 Q538.8105,653.2531 538.1797,653.2531 Q536.8349,653.2531 536.1501,654.3197 Q535.4653,655.3864 535.4653,657.4865 Q535.4653,659.5783 536.1501,660.6449 Q536.8349,661.7116 538.1797,661.7116 Q538.8105,661.7116 539.404,661.4418 Q539.9975,661.172 540.6284,660.591 Z " fill="#000000"/><text fill="#000000" font-family="sans-serif" font-size="12" font-style="italic" lengthAdjust="spacing" textLength="42.0176" x="592.0125" y="653.4616">&#171;Kode&#187;</text><text fill="#000000" font-family="sans-serif" font-size="14" lengthAdjust="spacing" textLength="114.2764" x="555.8831" y="669.528">Koordinatsystem</text><line style="stroke:#181818;stroke-width:0.5;" x1="507.38" x2="688.9347" y1="677.4811" y2="677.4811"/><ellipse cx="517.38" cy="691.2252" fill="none" rx="3" ry="3" style="stroke:#038048;stroke-width:1;"/><text fill="#000000" font-family="sans-serif" font-size="14" lengthAdjust="spacing" textLength="115.4521" x="526.38" y="695.0163">kodeverdi: string</text><ellipse cx="517.38" cy="707.7135" fill="none" rx="3" ry="3" style="stroke:#038048;stroke-width:1;"/><text fill="#000000" font-family="sans-serif" font-size="14" lengthAdjust="spacing" textLength="157.5547" x="526.38" y="711.5045">kodebeskrivelse: string</text><line style="stroke:#181818;stroke-width:0.5;" x1="507.38" x2="688.9347" y1="718.4577" y2="718.4577"/></g><!--class NasjonalArealplanId--><g class="entity" data-entity="NasjonalArealplanId" data-source-line="1" data-uid="ent0009" id="entity_NasjonalArealplanId"><rect fill="#F1F1F1" height="80.9766" rx="2.5" ry="2.5" style="stroke:#181818;stroke-width:0.5;" width="290.3047" x="7" y="147.98"/><ellipse cx="80.0898" cy="163.98" fill="#ADD1B2" rx="11" ry="11" style="stroke:#181818;stroke-width:1;"/><path d="M82.563,170.1231 Q81.9819,170.4219 81.3428,170.5713 Q80.7036,170.7207 79.998,170.7207 Q77.4912,170.7207 76.1714,169.0689 Q74.8516,167.417 74.8516,164.2959 Q74.8516,161.1665 76.1714,159.5147 Q77.4912,157.8628 79.998,157.8628 Q80.7036,157.8628 81.3511,158.0122 Q81.9985,158.1616 82.563,158.4605 L82.563,161.1831 Q81.9321,160.6021 81.3386,160.3323 Q80.7451,160.0625 80.1143,160.0625 Q78.7695,160.0625 78.0847,161.1292 Q77.3999,162.1958 77.3999,164.2959 Q77.3999,166.3877 78.0847,167.4544 Q78.7695,168.521 80.1143,168.521 Q80.7451,168.521 81.3386,168.2512 Q81.9321,167.9815 82.563,167.4004 Z " fill="#000000"/><text fill="#000000" font-family="sans-serif" font-size="14" lengthAdjust="spacing" textLength="135.625" x="100.5898" y="169.271">NasjonalArealplanId</text><line style="stroke:#181818;stroke-width:0.5;" x1="8" x2="296.3047" y1="179.98" y2="179.98"/><ellipse cx="18" cy="193.7241" fill="none" rx="3" ry="3" style="stroke:#038048;stroke-width:1;"/><text fill="#000000" font-family="sans-serif" font-size="14" lengthAdjust="spacing" textLength="264.3047" x="27" y="197.5152">administrativEnhet: AdministrativEnhet</text><ellipse cx="18" cy="210.2124" fill="none" rx="3" ry="3" style="stroke:#038048;stroke-width:1;"/><text fill="#000000" font-family="sans-serif" font-size="14" lengthAdjust="spacing" textLength="170.126" x="27" y="214.0034">planidentifikasjon: string</text><line style="stroke:#181818;stroke-width:0.5;" x1="8" x2="296.3047" y1="220.9566" y2="220.9566"/></g><!--class AdministrativEnhet--><g class="entity" data-entity="AdministrativEnhet" data-source-line="6" data-uid="ent0010" id="entity_AdministrativEnhet"><rect fill="#F1F1F1" height="97.4648" rx="2.5" ry="2.5" style="stroke:#181818;stroke-width:0.5;" width="160.6865" x="71.81" y="305.44"/><ellipse cx="86.81" cy="321.44" fill="#EB937F" rx="11" ry="11" style="stroke:#181818;stroke-width:1;"/><path d="M90.4243,327.94 L82.7045,327.94 L82.7045,315.5469 L90.4243,315.5469 L90.4243,317.7051 L85.1533,317.7051 L85.1533,320.378 L89.9262,320.378 L89.9262,322.5362 L85.1533,322.5362 L85.1533,325.7818 L90.4243,325.7818 Z " fill="#000000"/><text fill="#000000" font-family="sans-serif" font-size="14" lengthAdjust="spacing" textLength="128.6865" x="100.81" y="326.731">AdministrativEnhet</text><line style="stroke:#181818;stroke-width:0.5;" x1="72.81" x2="231.4965" y1="337.44" y2="337.44"/><text fill="#000000" font-family="sans-serif" font-size="14" lengthAdjust="spacing" textLength="125.1455" x="77.81" y="354.9752">kommunenummer</text><text fill="#000000" font-family="sans-serif" font-size="14" lengthAdjust="spacing" textLength="96.6738" x="77.81" y="371.4634">fylkesnummer</text><text fill="#000000" font-family="sans-serif" font-size="14" lengthAdjust="spacing" textLength="69.8086" x="77.81" y="387.9517">landskode</text><line style="stroke:#181818;stroke-width:0.5;" x1="72.81" x2="231.4965" y1="394.9048" y2="394.9048"/></g><!--class RegistrerPlanomraade--><g class="entity" data-entity="RegistrerPlanomraade" data-source-line="4" data-uid="ent0012" id="entity_RegistrerPlanomraade"><rect fill="#F1F1F1" height="80.9766" rx="2.5" ry="2.5" style="stroke:#181818;stroke-width:0.5;" width="304.4551" x="141.92" y="7"/><ellipse cx="215.5294" cy="23" fill="#ADD1B2" rx="11" ry="11" style="stroke:#181818;stroke-width:1;"/><path d="M218.0025,29.1431 Q217.4215,29.4419 216.7823,29.5913 Q216.1431,29.7407 215.4376,29.7407 Q212.9307,29.7407 211.6109,28.0889 Q210.2911,26.437 210.2911,23.3159 Q210.2911,20.1865 211.6109,18.5347 Q212.9307,16.8828 215.4376,16.8828 Q216.1431,16.8828 216.7906,17.0322 Q217.4381,17.1816 218.0025,17.4805 L218.0025,20.2031 Q217.3717,19.6221 216.7782,19.3523 Q216.1846,19.0825 215.5538,19.0825 Q214.2091,19.0825 213.5242,20.1492 Q212.8394,21.2158 212.8394,23.3159 Q212.8394,25.4077 213.5242,26.4744 Q214.2091,27.541 215.5538,27.541 Q216.1846,27.541 216.7782,27.2712 Q217.3717,27.0015 218.0025,26.4204 Z " fill="#000000"/><text fill="#000000" font-family="sans-serif" font-size="14" lengthAdjust="spacing" textLength="148.7363" x="236.0294" y="28.291">RegistrerPlanomraade</text><line style="stroke:#181818;stroke-width:0.5;" x1="142.92" x2="445.3751" y1="39" y2="39"/><ellipse cx="152.92" cy="52.7441" fill="none" rx="3" ry="3" style="stroke:#038048;stroke-width:1;"/><text fill="#000000" font-family="sans-serif" font-size="14" lengthAdjust="spacing" textLength="278.4551" x="161.92" y="56.5352">nasjonalArealplanId: NasjonalArealplanId</text><ellipse cx="152.92" cy="69.2324" fill="none" rx="3" ry="3" style="stroke:#038048;stroke-width:1;"/><text fill="#000000" font-family="sans-serif" font-size="14" lengthAdjust="spacing" textLength="185.2881" x="161.92" y="73.0234">planomraade: Planomraade</text><line style="stroke:#181818;stroke-width:0.5;" x1="142.92" x2="445.3751" y1="79.9766" y2="79.9766"/></g><!--class Planomraade--><g class="entity" data-entity="Planomraade" data-source-line="9" data-uid="ent0013" id="entity_Planomraade"><rect fill="#F1F1F1" height="80.9766" rx="2.5" ry="2.5" style="stroke:#181818;stroke-width:0.5;" width="207.6924" x="332.31" y="147.98"/><ellipse cx="388.0673" cy="163.98" fill="#ADD1B2" rx="11" ry="11" style="stroke:#181818;stroke-width:1;"/><path d="M390.5405,170.1231 Q389.9594,170.4219 389.3203,170.5713 Q388.6811,170.7207 387.9755,170.7207 Q385.4687,170.7207 384.1489,169.0689 Q382.829,167.417 382.829,164.2959 Q382.829,161.1665 384.1489,159.5147 Q385.4687,157.8628 387.9755,157.8628 Q388.6811,157.8628 389.3286,158.0122 Q389.976,158.1616 390.5405,158.4605 L390.5405,161.1831 Q389.9096,160.6021 389.3161,160.3323 Q388.7226,160.0625 388.0917,160.0625 Q386.747,160.0625 386.0622,161.1292 Q385.3774,162.1958 385.3774,164.2959 Q385.3774,166.3877 386.0622,167.4544 Q386.747,168.521 388.0917,168.521 Q388.7226,168.521 389.3161,168.2512 Q389.9096,167.9815 390.5405,167.4004 Z " fill="#000000"/><text fill="#000000" font-family="sans-serif" font-size="14" lengthAdjust="spacing" textLength="87.6777" x="408.5673" y="169.271">Planomraade</text><line style="stroke:#181818;stroke-width:0.5;" x1="333.31" x2="539.0024" y1="179.98" y2="179.98"/><ellipse cx="343.31" cy="193.7241" fill="none" rx="3" ry="3" style="stroke:#038048;stroke-width:1;"/><text fill="#000000" font-family="sans-serif" font-size="14" lengthAdjust="spacing" textLength="130.0811" x="352.31" y="197.5152">omraade: Omraade</text><ellipse cx="343.31" cy="210.2124" fill="none" rx="3" ry="3" style="stroke:#038048;stroke-width:1;"/><text fill="#000000" font-family="sans-serif" font-size="14" lengthAdjust="spacing" textLength="181.6924" x="352.31" y="214.0034">vertikalnivaa: Vertikalnivaa</text><line style="stroke:#181818;stroke-width:0.5;" x1="333.31" x2="539.0024" y1="220.9566" y2="220.9566"/></g><!--class Omraade--><g class="entity" data-entity="Omraade" data-source-line="14" data-uid="ent0014" id="entity_Omraade"><rect fill="#F1F1F1" height="80.9766" rx="2.5" ry="2.5" style="stroke:#181818;stroke-width:0.5;" width="210.0303" x="299.14" y="313.69"/><ellipse cx="369.0306" cy="329.69" fill="#ADD1B2" rx="11" ry="11" style="stroke:#181818;stroke-width:1;"/><path d="M371.5038,335.8331 Q370.9227,336.1319 370.2836,336.2813 Q369.6444,336.4307 368.9388,336.4307 Q366.432,336.4307 365.1122,334.7789 Q363.7923,333.127 363.7923,330.0059 Q363.7923,326.8765 365.1122,325.2247 Q366.432,323.5728 368.9388,323.5728 Q369.6444,323.5728 370.2919,323.7222 Q370.9393,323.8716 371.5038,324.1705 L371.5038,326.8931 Q370.8729,326.3121 370.2794,326.0423 Q369.6859,325.7725 369.055,325.7725 Q367.7103,325.7725 367.0255,326.8392 Q366.3407,327.9058 366.3407,330.0059 Q366.3407,332.0977 367.0255,333.1644 Q367.7103,334.231 369.055,334.231 Q369.6859,334.231 370.2794,333.9612 Q370.8729,333.6915 371.5038,333.1104 Z " fill="#000000"/><text fill="#000000" font-family="sans-serif" font-size="14" lengthAdjust="spacing" textLength="61.749" x="389.5306" y="334.981">Omraade</text><line style="stroke:#181818;stroke-width:0.5;" x1="300.14" x2="508.1703" y1="345.69" y2="345.69"/><ellipse cx="310.14" cy="359.4341" fill="none" rx="3" ry="3" style="stroke:#038048;stroke-width:1;"/><text fill="#000000" font-family="sans-serif" font-size="14" lengthAdjust="spacing" textLength="152.4004" x="319.14" y="363.2252">ytreAvgrensning: Flate</text><ellipse cx="310.14" cy="375.9224" fill="none" rx="3" ry="3" style="stroke:#038048;stroke-width:1;"/><text fill="#000000" font-family="sans-serif" font-size="14" lengthAdjust="spacing" textLength="184.0303" x="319.14" y="379.7134">indreAvgrensninger: Flate[]</text><line style="stroke:#181818;stroke-width:0.5;" x1="300.14" x2="508.1703" y1="386.6666" y2="386.6666"/></g><!--class Vertikalnivaa--><g class="entity" data-entity="Vertikalnivaa" data-source-line="19" data-uid="ent0015" id="entity_Vertikalnivaa"><rect fill="#F1F1F1" height="130.4414" rx="2.5" ry="2.5" style="stroke:#181818;stroke-width:0.5;" width="187.9434" x="544.18" y="288.96"/><ellipse cx="590.2166" cy="304.96" fill="#EB937F" rx="11" ry="11" style="stroke:#181818;stroke-width:1;"/><path d="M593.8309,311.46 L586.1112,311.46 L586.1112,299.0669 L593.8309,299.0669 L593.8309,301.2251 L588.5599,301.2251 L588.5599,303.898 L593.3328,303.898 L593.3328,306.0562 L588.5599,306.0562 L588.5599,309.3018 L593.8309,309.3018 Z " fill="#000000"/><text fill="#000000" font-family="sans-serif" font-size="14" lengthAdjust="spacing" textLength="87.3701" x="610.7166" y="310.251">Vertikalnivaa</text><line style="stroke:#181818;stroke-width:0.5;" x1="545.18" x2="731.1234" y1="320.96" y2="320.96"/><text fill="#000000" font-family="sans-serif" font-size="14" lengthAdjust="spacing" textLength="102.1699" x="550.18" y="338.4952">Under grunnen</text><text fill="#000000" font-family="sans-serif" font-size="14" lengthAdjust="spacing" textLength="175.9434" x="550.18" y="354.9834">P&#229; grunnen/vannoverflate</text><text fill="#000000" font-family="sans-serif" font-size="14" lengthAdjust="spacing" textLength="92.2031" x="550.18" y="371.4717">I vannsoeylen</text><line style="stroke:#181818;stroke-width:0.5;" x1="545.18" x2="731.1234" y1="378.4248" y2="378.4248"/><text fill="#000000" font-family="sans-serif" font-size="14" lengthAdjust="spacing" textLength="129.8555" x="550.18" y="395.96">Over grunnen (bru)</text><text fill="#000000" font-family="sans-serif" font-size="14" lengthAdjust="spacing" textLength="152.291" x="550.18" y="412.4483">P&#229; bunnen (vann/sjoe)</text></g><!--link Flate to FlateType--><g class="link" data-entity-1="Flate" data-entity-2="FlateType" data-source-line="7" data-uid="lnk4" id="link_Flate_FlateType"><path codeLine="7" d="M356.38,577.08 C332.87,600.66 305.21,628.42 284.44,649.26" fill="none" id="Flate-FlateType" style="stroke:#181818;stroke-width:1;"/></g><!--link Flate to Koordinat--><g class="link" data-entity-1="Flate" data-entity-2="Koordinat" data-source-line="8" data-uid="lnk6" id="link_Flate_Koordinat"><path codeLine="8" d="M404.15,577.08 C404.15,600.66 404.15,628.42 404.15,649.26" fill="none" id="Flate-Koordinat" style="stroke:#181818;stroke-width:1;"/></g><!--link Flate to Koordinatsystem--><g class="link" data-entity-1="Flate" data-entity-2="Koordinatsystem" data-source-line="9" data-uid="lnk8" id="link_Flate_Koordinatsystem"><path codeLine="9" d="M465.8,577.28 C490.1,596.26 517.83,617.92 541.6,636.49" fill="none" id="Flate-Koordinatsystem" style="stroke:#181818;stroke-width:1;"/></g><!--link NasjonalArealplanId to AdministrativEnhet--><g class="link" data-entity-1="NasjonalArealplanId" data-entity-2="AdministrativEnhet" data-source-line="6" data-uid="lnk11" id="link_NasjonalArealplanId_AdministrativEnhet"><path codeLine="6" d="M152.15,229.1 C152.15,252 152.15,280.97 152.15,305.16" fill="none" id="NasjonalArealplanId-AdministrativEnhet" style="stroke:#181818;stroke-width:1;"/></g><!--link RegistrerPlanomraade to Planomraade--><g class="link" data-entity-1="RegistrerPlanomraade" data-entity-2="Planomraade" data-source-line="27" data-uid="lnk16" id="link_RegistrerPlanomraade_Planomraade"><path codeLine="27" d="M334.84,88.32 C353.86,106.93 376.44,129.03 395.45,147.64" fill="none" id="RegistrerPlanomraade-Planomraade" style="stroke:#181818;stroke-width:1;"/></g><!--link RegistrerPlanomraade to NasjonalArealplanId--><g class="link" data-entity-1="RegistrerPlanomraade" data-entity-2="NasjonalArealplanId" data-source-line="28" data-uid="lnk17" id="link_RegistrerPlanomraade_NasjonalArealplanId"><path codeLine="28" d="M253.46,88.32 C234.45,106.93 211.86,129.03 192.85,147.64" fill="none" id="RegistrerPlanomraade-NasjonalArealplanId" style="stroke:#181818;stroke-width:1;"/></g><!--link Planomraade to Omraade--><g class="link" data-entity-1="Planomraade" data-entity-2="Omraade" data-source-line="29" data-uid="lnk18" id="link_Planomraade_Omraade"><path codeLine="29" d="M428.41,229.1 C423.41,254.65 416.94,287.76 411.94,313.34" fill="none" id="Planomraade-Omraade" style="stroke:#181818;stroke-width:1;"/></g><!--link Planomraade to Vertikalnivaa--><g class="link" data-entity-1="Planomraade" data-entity-2="Vertikalnivaa" data-source-line="30" data-uid="lnk19" id="link_Planomraade_Vertikalnivaa"><path codeLine="30" d="M485.31,229.31 C507.26,247.1 533.7,268.53 558.37,288.52" fill="none" id="Planomraade-Vertikalnivaa" style="stroke:#181818;stroke-width:1;"/></g><!--link Omraade to Flate--><g class="link" data-entity-1="Omraade" data-entity-2="Flate" data-source-line="31" data-uid="lnk20" id="link_Omraade_Flate"><path codeLine="31" d="M404.15,395.06 C404.15,420.16 404.15,452.7 404.15,479.2" fill="none" id="Omraade-Flate" style="stroke:#181818;stroke-width:1;"/></g><!--SRC=[ZL6nQiCm5Dpz5ShMKY91HszP2bdgK6YNqk4bVZPgb2SZMO9G-ZdzalvO9TkouzI5QX3exjsTT5f9EYXN8kE2Sq6Q7oslPDWQ1SJzFQzGAGoOWXP5j_F6PQj_oWZikoPGO11Kv6Gf5h1ecHqKMCkUi9QsDMXsWT4d0n1IFZ8MrbrIRf9oM-RiyJVOJpUJGSuktBBFbBKGCGgAORX3FPfM7a6Hz00vUxayJdR5tEeSNh7njK6o9AdEsKDih-SabJCIpK2_laK_97UQfmocprIYORLnH4WTill-IcVXWKY7krPZKE6dSNQpD-vs5Eq7C8f4g11xQiiYO3MULKW8TrdyaFLwrkXVCqj_SpMIUhw2vnKN4z6N-0C0]--></g></svg>