<svg xmlns="http://www.w3.org/2000/svg" xmlns:xlink="http://www.w3.org/1999/xlink" contentStyleType="text/css" data-diagram-type="JSON" height="239px" preserveAspectRatio="none" style="width:775px;height:239px;background:#FFFFFF;" version="1.1" viewBox="0 0 775 239" width="775px" zoomAndPan="magnify"><defs/><g><rect fill="#F1F1F1" height="81.9531" rx="5" ry="5" style="stroke:#F1F1F1;stroke-width:1.5;" width="257.8564" x="10" y="46.5"/><text fill="#000000" font-family="sans-serif" font-size="14" font-weight="bold" lengthAdjust="spacing" textLength="101.0283" x="15" y="62.0352">protokollnavn</text><text fill="#000000" font-family="sans-serif" font-size="14" lengthAdjust="spacing" textLength="99.6885" x="126.0283" y="62.0352">no.ks.fiks.plan</text><line style="stroke:#000000;stroke-width:1;" x1="121.0283" x2="121.0283" y1="46.5" y2="66.9883"/><line style="stroke:#000000;stroke-width:1;" x1="10" x2="267.8564" y1="66.9883" y2="66.9883"/><text fill="#000000" font-family="sans-serif" font-size="14" font-weight="bold" lengthAdjust="spacing" textLength="34.9248" x="15" y="82.5234">navn</text><text fill="#000000" font-family="sans-serif" font-size="14" lengthAdjust="spacing" textLength="136.8281" x="126.0283" y="82.5234">pbltiltakforbudtyper</text><line style="stroke:#000000;stroke-width:1;" x1="121.0283" x2="121.0283" y1="66.9883" y2="87.4766"/><line style="stroke:#000000;stroke-width:1;" x1="10" x2="267.8564" y1="87.4766" y2="87.4766"/><text fill="#000000" font-family="sans-serif" font-size="14" font-weight="bold" lengthAdjust="spacing" textLength="53.5869" x="15" y="103.0117">versjon</text><text fill="#000000" font-family="sans-serif" font-size="14" lengthAdjust="spacing" textLength="16.0986" x="126.0283" y="103.0117">v2</text><line style="stroke:#000000;stroke-width:1;" x1="121.0283" x2="121.0283" y1="87.4766" y2="107.9648"/><line style="stroke:#000000;stroke-width:1;" x1="10" x2="267.8564" y1="107.9648" y2="107.9648"/><text fill="#000000" font-family="sans-serif" font-size="14" font-weight="bold" lengthAdjust="spacing" textLength="66.1787" x="15" y="123.5">kodeliste</text><text fill="#000000" font-family="sans-serif" font-size="14" lengthAdjust="spacing" textLength="13.2891" x="126.0283" y="123.5">&#160;&#160;&#160;</text><line style="stroke:#000000;stroke-width:1;" x1="121.0283" x2="121.0283" y1="107.9648" y2="128.4531"/><rect fill="none" height="81.9531" rx="5" ry="5" style="stroke:#000000;stroke-width:1.5;" width="257.8564" x="10" y="46.5"/><rect fill="#F1F1F1" height="81.9531" rx="5" ry="5" style="stroke:#F1F1F1;stroke-width:1.5;" width="23.2891" x="305" y="77.5"/><text fill="#000000" font-family="sans-serif" font-size="14" lengthAdjust="spacing" textLength="13.2891" x="310" y="93.0352">&#160;&#160;&#160;</text><line style="stroke:#000000;stroke-width:1;" x1="305" x2="328.2891" y1="97.9883" y2="97.9883"/><text fill="#000000" font-family="sans-serif" font-size="14" lengthAdjust="spacing" textLength="13.2891" x="310" y="113.5234">&#160;&#160;&#160;</text><line style="stroke:#000000;stroke-width:1;" x1="305" x2="328.2891" y1="118.4766" y2="118.4766"/><text fill="#000000" font-family="sans-serif" font-size="14" lengthAdjust="spacing" textLength="13.2891" x="310" y="134.0117">&#160;&#160;&#160;</text><line style="stroke:#000000;stroke-width:1;" x1="305" x2="328.2891" y1="138.9648" y2="138.9648"/><text fill="#000000" font-family="sans-serif" font-size="14" lengthAdjust="spacing" textLength="13.2891" x="310" y="154.5">&#160;&#160;&#160;</text><rect fill="none" height="81.9531" rx="5" ry="5" style="stroke:#000000;stroke-width:1.5;" width="23.2891" x="305" y="77.5"/><rect fill="#F1F1F1" height="40.9766" rx="5" ry="5" style="stroke:#F1F1F1;stroke-width:1.5;" width="324.1445" x="402" y="10"/><text fill="#000000" font-family="sans-serif" font-size="14" font-weight="bold" lengthAdjust="spacing" textLength="71.9824" x="407" y="25.5352">kodeverdi</text><text fill="#000000" font-family="sans-serif" font-size="14" lengthAdjust="spacing" textLength="8.8525" x="534.6328" y="25.5352">1</text><line style="stroke:#000000;stroke-width:1;" x1="529.6328" x2="529.6328" y1="10" y2="30.4883"/><line style="stroke:#000000;stroke-width:1;" x1="402" x2="726.1445" y1="30.4883" y2="30.4883"/><text fill="#000000" font-family="sans-serif" font-size="14" font-weight="bold" lengthAdjust="spacing" textLength="117.6328" x="407" y="46.0234">kodebeskrivelse</text><text fill="#000000" font-family="sans-serif" font-size="14" lengthAdjust="spacing" textLength="186.5117" x="534.6328" y="46.0234">midlertidigForbudMotTiltak</text><line style="stroke:#000000;stroke-width:1;" x1="529.6328" x2="529.6328" y1="30.4883" y2="50.9766"/><rect fill="none" height="40.9766" rx="5" ry="5" style="stroke:#000000;stroke-width:1.5;" width="324.1445" x="402" y="10"/><rect fill="#F1F1F1" height="40.9766" rx="5" ry="5" style="stroke:#F1F1F1;stroke-width:1.5;" width="398.2871" x="365" y="69"/><text fill="#000000" font-family="sans-serif" font-size="14" font-weight="bold" lengthAdjust="spacing" textLength="71.9824" x="370" y="84.5352">kodeverdi</text><text fill="#000000" font-family="sans-serif" font-size="14" lengthAdjust="spacing" textLength="8.8525" x="497.6328" y="84.5352">2</text><line style="stroke:#000000;stroke-width:1;" x1="492.6328" x2="492.6328" y1="69" y2="89.4883"/><line style="stroke:#000000;stroke-width:1;" x1="365" x2="763.2871" y1="89.4883" y2="89.4883"/><text fill="#000000" font-family="sans-serif" font-size="14" font-weight="bold" lengthAdjust="spacing" textLength="117.6328" x="370" y="105.0234">kodebeskrivelse</text><text fill="#000000" font-family="sans-serif" font-size="14" lengthAdjust="spacing" textLength="260.6543" x="497.6328" y="105.0234">midlertidigForbudN&#248;dvendigSamtykke</text><line style="stroke:#000000;stroke-width:1;" x1="492.6328" x2="492.6328" y1="89.4883" y2="109.9766"/><rect fill="none" height="40.9766" rx="5" ry="5" style="stroke:#000000;stroke-width:1.5;" width="398.2871" x="365" y="69"/><rect fill="#F1F1F1" height="40.9766" rx="5" ry="5" style="stroke:#F1F1F1;stroke-width:1.5;" width="296.3428" x="416" y="128"/><text fill="#000000" font-family="sans-serif" font-size="14" font-weight="bold" lengthAdjust="spacing" textLength="71.9824" x="421" y="143.5352">kodeverdi</text><text fill="#000000" font-family="sans-serif" font-size="14" lengthAdjust="spacing" textLength="8.8525" x="548.6328" y="143.5352">3</text><line style="stroke:#000000;stroke-width:1;" x1="543.6328" x2="543.6328" y1="128" y2="148.4883"/><line style="stroke:#000000;stroke-width:1;" x1="416" x2="712.3428" y1="148.4883" y2="148.4883"/><text fill="#000000" font-family="sans-serif" font-size="14" font-weight="bold" lengthAdjust="spacing" textLength="117.6328" x="421" y="164.0234">kodebeskrivelse</text><text fill="#000000" font-family="sans-serif" font-size="14" lengthAdjust="spacing" textLength="158.71" x="548.6328" y="164.0234">statligByggeDeleforbud</text><line style="stroke:#000000;stroke-width:1;" x1="543.6328" x2="543.6328" y1="148.4883" y2="168.9766"/><rect fill="none" height="40.9766" rx="5" ry="5" style="stroke:#000000;stroke-width:1.5;" width="296.3428" x="416" y="128"/><rect fill="#F1F1F1" height="40.9766" rx="5" ry="5" style="stroke:#F1F1F1;stroke-width:1.5;" width="254.9375" x="436.5" y="187"/><text fill="#000000" font-family="sans-serif" font-size="14" font-weight="bold" lengthAdjust="spacing" textLength="71.9824" x="441.5" y="202.5352">kodeverdi</text><text fill="#000000" font-family="sans-serif" font-size="14" lengthAdjust="spacing" textLength="8.8525" x="569.1328" y="202.5352">4</text><line style="stroke:#000000;stroke-width:1;" x1="564.1328" x2="564.1328" y1="187" y2="207.4883"/><line style="stroke:#000000;stroke-width:1;" x1="436.5" x2="691.4375" y1="207.4883" y2="207.4883"/><text fill="#000000" font-family="sans-serif" font-size="14" font-weight="bold" lengthAdjust="spacing" textLength="117.6328" x="441.5" y="223.0234">kodebeskrivelse</text><text fill="#000000" font-family="sans-serif" font-size="14" lengthAdjust="spacing" textLength="117.3047" x="569.1328" y="223.0234">byggeDeleforbud</text><line style="stroke:#000000;stroke-width:1;" x1="564.1328" x2="564.1328" y1="207.4883" y2="227.9766"/><rect fill="none" height="40.9766" rx="5" ry="5" style="stroke:#000000;stroke-width:1.5;" width="254.9375" x="436.5" y="187"/><path d="M316,87.5 L329,87.5 C349.2698,87.5 346.3545,67.4504 365,59.5 C374.5385,55.4328 384.5432,51.9194 394.7767,48.886" fill="none" style="stroke:#000000;stroke-width:1;stroke-dasharray:3.0,3.0;"/><path d="M395.6267,51.8814 L397.0233,48.2485 L393.9267,45.8905 L402.2653,46.7609 L395.6267,51.8814" fill="#000000" style="stroke:#000000;stroke-width:1;"/><ellipse cx="316" cy="87.5" fill="#000000" rx="3" ry="3" style="stroke:#000000;stroke-width:1;"/><path d="M316,108.5 L329,108.5 C338.3465,108.5 347.8958,108.3482 357.5369,108.0717" fill="none" style="stroke:#000000;stroke-width:1;stroke-dasharray:3.0,3.0;"/><path d="M357.636,111.1715 L359.8617,107.9973 L357.4377,104.9719 L365.2864,107.8238 L357.636,111.1715" fill="#000000" style="stroke:#000000;stroke-width:1;"/><ellipse cx="316" cy="108.5" fill="#000000" rx="3" ry="3" style="stroke:#000000;stroke-width:1;"/><path d="M316,128.5 L329,128.5 C354.8637,128.5 382.274,129.7228 408.885,131.5636" fill="none" style="stroke:#000000;stroke-width:1;stroke-dasharray:3.0,3.0;"/><path d="M408.6709,134.5566 L411.1297,131.7241 L409.099,128.5706 L416.3675,132.0987 L408.6709,134.5566" fill="#000000" style="stroke:#000000;stroke-width:1;"/><ellipse cx="316" cy="128.5" fill="#000000" rx="3" ry="3" style="stroke:#000000;stroke-width:1;"/><path d="M316,149.5 L329,149.5 C349.5456,149.5 346.1702,170.2803 365,178.5 C385.074,187.2629 407.2649,193.4705 429.3211,197.8494" fill="none" style="stroke:#000000;stroke-width:1;stroke-dasharray:3.0,3.0;"/><path d="M428.7547,200.838 L431.5625,198.2742 L429.8875,194.8608 L436.7926,199.2654 L428.7547,200.838" fill="#000000" style="stroke:#000000;stroke-width:1;"/><ellipse cx="316" cy="149.5" fill="#000000" rx="3" ry="3" style="stroke:#000000;stroke-width:1;"/><path d="M256,118.5 L269,118.5 C278.399,118.5 288.8552,118.5 297.5144,118.5" fill="none" style="stroke:#000000;stroke-width:1;stroke-dasharray:3.0,3.0;"/><path d="M297.5144,121.5633 L299.8119,118.5 L297.5144,115.4367 L305.1727,118.5 L297.5144,121.5633" fill="#000000" style="stroke:#000000;stroke-width:1;"/><ellipse cx="256" cy="118.5" fill="#000000" rx="3" ry="3" style="stroke:#000000;stroke-width:1;"/><!--SRC=[bL79Ri8m4BtxAqOvWGG8mbAK4sAhHDbKbalLWqE6oCJOaJE9527-g_V-M4qexQL2z3AIvoqpdjTBY1iw95gn4mDmOgD9HrfAnJFbUE0eNOkIsbxO4akkdCg5TGDZNvAGnAEzDduQK1wZkJ8oDCb15wJClROY7Q0K2Q5jlja6mAcetv1L1C81AsWK_1_0noGo8aEPO04VHI3Ha0X4E2x6pZIjYosSGdQkt3Dt_sa-__m8CbJslU97ogC87vdIl3_57fsa2Fjv6E8G9LxFzuXnwxwn_wUZhU_ip7hs6qNIR6cJfCri2fUOX5RGgBbrjrrpI-iKOS8Lr9-WqVMQRQ_PWS5e3HUup4hFooaaEZKxXC16QOIVajMNsOHd75vJHUA87YnYL9FXowq18vK9ezKH5R79TlPBwBIgVK6mGcCtWUsC3N7FKqbMiTE1KA47c_MuscLJhiAKXzOR5Hjewsjo3-QBBm00]--></g></svg>