<?xml version="1.0" encoding="us-ascii" standalone="no"?><svg xmlns="http://www.w3.org/2000/svg" xmlns:xlink="http://www.w3.org/1999/xlink" contentStyleType="text/css" height="239px" preserveAspectRatio="none" style="width:778px;height:239px;background:#FFFFFF;" version="1.1" viewBox="0 0 778 239" width="778px" zoomAndPan="magnify"><defs/><g><rect fill="#F1F1F1" height="81.9531" rx="5" ry="5" style="stroke:#F1F1F1;stroke-width:1.5;" width="259" x="10" y="46.5"/><text fill="#000000" font-family="sans-serif" font-size="14" font-weight="bold" lengthAdjust="spacing" textLength="101" x="15" y="62.0352">protokollnavn</text><text fill="#000000" font-family="sans-serif" font-size="14" lengthAdjust="spacing" textLength="99" x="126" y="62.0352">no.ks.fiks.plan</text><line style="stroke:#000000;stroke-width:1.0;" x1="121" x2="121" y1="46.5" y2="66.9883"/><line style="stroke:#000000;stroke-width:1.0;" x1="10" x2="269" y1="66.9883" y2="66.9883"/><text fill="#000000" font-family="sans-serif" font-size="14" font-weight="bold" lengthAdjust="spacing" textLength="34" x="15" y="82.5234">navn</text><text fill="#000000" font-family="sans-serif" font-size="14" lengthAdjust="spacing" textLength="138" x="126" y="82.5234">pbltiltakforbudtyper</text><line style="stroke:#000000;stroke-width:1.0;" x1="121" x2="121" y1="66.9883" y2="87.4766"/><line style="stroke:#000000;stroke-width:1.0;" x1="10" x2="269" y1="87.4766" y2="87.4766"/><text fill="#000000" font-family="sans-serif" font-size="14" font-weight="bold" lengthAdjust="spacing" textLength="53" x="15" y="103.0117">versjon</text><text fill="#000000" font-family="sans-serif" font-size="14" lengthAdjust="spacing" textLength="16" x="126" y="103.0117">v2</text><line style="stroke:#000000;stroke-width:1.0;" x1="121" x2="121" y1="87.4766" y2="107.9648"/><line style="stroke:#000000;stroke-width:1.0;" x1="10" x2="269" y1="107.9648" y2="107.9648"/><text fill="#000000" font-family="sans-serif" font-size="14" font-weight="bold" lengthAdjust="spacing" textLength="67" x="15" y="123.5">kodeliste</text><text fill="#000000" font-family="sans-serif" font-size="14" lengthAdjust="spacing" textLength="12" x="126" y="123.5">&#160;&#160;&#160;</text><line style="stroke:#000000;stroke-width:1.0;" x1="121" x2="121" y1="107.9648" y2="128.4531"/><rect fill="none" height="81.9531" rx="5" ry="5" style="stroke:#000000;stroke-width:1.5;" width="259" x="10" y="46.5"/><rect fill="#F1F1F1" height="81.9531" rx="5" ry="5" style="stroke:#F1F1F1;stroke-width:1.5;" width="22" x="306" y="77.5"/><text fill="#000000" font-family="sans-serif" font-size="14" lengthAdjust="spacing" textLength="12" x="311" y="93.0352">&#160;&#160;&#160;</text><line style="stroke:#000000;stroke-width:1.0;" x1="306" x2="328" y1="97.9883" y2="97.9883"/><text fill="#000000" font-family="sans-serif" font-size="14" lengthAdjust="spacing" textLength="12" x="311" y="113.5234">&#160;&#160;&#160;</text><line style="stroke:#000000;stroke-width:1.0;" x1="306" x2="328" y1="118.4766" y2="118.4766"/><text fill="#000000" font-family="sans-serif" font-size="14" lengthAdjust="spacing" textLength="12" x="311" y="134.0117">&#160;&#160;&#160;</text><line style="stroke:#000000;stroke-width:1.0;" x1="306" x2="328" y1="138.9648" y2="138.9648"/><text fill="#000000" font-family="sans-serif" font-size="14" lengthAdjust="spacing" textLength="12" x="311" y="154.5">&#160;&#160;&#160;</text><rect fill="none" height="81.9531" rx="5" ry="5" style="stroke:#000000;stroke-width:1.5;" width="22" x="306" y="77.5"/><rect fill="#F1F1F1" height="40.9766" rx="5" ry="5" style="stroke:#F1F1F1;stroke-width:1.5;" width="326" x="402.5" y="10"/><text fill="#000000" font-family="sans-serif" font-size="14" font-weight="bold" lengthAdjust="spacing" textLength="71" x="407.5" y="25.5352">kodeverdi</text><text fill="#000000" font-family="sans-serif" font-size="14" lengthAdjust="spacing" textLength="9" x="534.5" y="25.5352">1</text><line style="stroke:#000000;stroke-width:1.0;" x1="529.5" x2="529.5" y1="10" y2="30.4883"/><line style="stroke:#000000;stroke-width:1.0;" x1="402.5" x2="728.5" y1="30.4883" y2="30.4883"/><text fill="#000000" font-family="sans-serif" font-size="14" font-weight="bold" lengthAdjust="spacing" textLength="117" x="407.5" y="46.0234">kodebeskrivelse</text><text fill="#000000" font-family="sans-serif" font-size="14" lengthAdjust="spacing" textLength="189" x="534.5" y="46.0234">midlertidigForbudMotTiltak</text><line style="stroke:#000000;stroke-width:1.0;" x1="529.5" x2="529.5" y1="30.4883" y2="50.9766"/><rect fill="none" height="40.9766" rx="5" ry="5" style="stroke:#000000;stroke-width:1.5;" width="326" x="402.5" y="10"/><rect fill="#F1F1F1" height="40.9766" rx="5" ry="5" style="stroke:#F1F1F1;stroke-width:1.5;" width="401" x="365" y="69"/><text fill="#000000" font-family="sans-serif" font-size="14" font-weight="bold" lengthAdjust="spacing" textLength="71" x="370" y="84.5352">kodeverdi</text><text fill="#000000" font-family="sans-serif" font-size="14" lengthAdjust="spacing" textLength="9" x="497" y="84.5352">2</text><line style="stroke:#000000;stroke-width:1.0;" x1="492" x2="492" y1="69" y2="89.4883"/><line style="stroke:#000000;stroke-width:1.0;" x1="365" x2="766" y1="89.4883" y2="89.4883"/><text fill="#000000" font-family="sans-serif" font-size="14" font-weight="bold" lengthAdjust="spacing" textLength="117" x="370" y="105.0234">kodebeskrivelse</text><text fill="#000000" font-family="sans-serif" font-size="14" lengthAdjust="spacing" textLength="264" x="497" y="105.0234">midlertidigForbudN&#248;dvendigSamtykke</text><line style="stroke:#000000;stroke-width:1.0;" x1="492" x2="492" y1="89.4883" y2="109.9766"/><rect fill="none" height="40.9766" rx="5" ry="5" style="stroke:#000000;stroke-width:1.5;" width="401" x="365" y="69"/><rect fill="#F1F1F1" height="40.9766" rx="5" ry="5" style="stroke:#F1F1F1;stroke-width:1.5;" width="297" x="417" y="128"/><text fill="#000000" font-family="sans-serif" font-size="14" font-weight="bold" lengthAdjust="spacing" textLength="71" x="422" y="143.5352">kodeverdi</text><text fill="#000000" font-family="sans-serif" font-size="14" lengthAdjust="spacing" textLength="9" x="549" y="143.5352">3</text><line style="stroke:#000000;stroke-width:1.0;" x1="544" x2="544" y1="128" y2="148.4883"/><line style="stroke:#000000;stroke-width:1.0;" x1="417" x2="714" y1="148.4883" y2="148.4883"/><text fill="#000000" font-family="sans-serif" font-size="14" font-weight="bold" lengthAdjust="spacing" textLength="117" x="422" y="164.0234">kodebeskrivelse</text><text fill="#000000" font-family="sans-serif" font-size="14" lengthAdjust="spacing" textLength="160" x="549" y="164.0234">statligByggeDeleforbud</text><line style="stroke:#000000;stroke-width:1.0;" x1="544" x2="544" y1="148.4883" y2="168.9766"/><rect fill="none" height="40.9766" rx="5" ry="5" style="stroke:#000000;stroke-width:1.5;" width="297" x="417" y="128"/><rect fill="#F1F1F1" height="40.9766" rx="5" ry="5" style="stroke:#F1F1F1;stroke-width:1.5;" width="256" x="437.5" y="187"/><text fill="#000000" font-family="sans-serif" font-size="14" font-weight="bold" lengthAdjust="spacing" textLength="71" x="442.5" y="202.5352">kodeverdi</text><text fill="#000000" font-family="sans-serif" font-size="14" lengthAdjust="spacing" textLength="9" x="569.5" y="202.5352">4</text><line style="stroke:#000000;stroke-width:1.0;" x1="564.5" x2="564.5" y1="187" y2="207.4883"/><line style="stroke:#000000;stroke-width:1.0;" x1="437.5" x2="693.5" y1="207.4883" y2="207.4883"/><text fill="#000000" font-family="sans-serif" font-size="14" font-weight="bold" lengthAdjust="spacing" textLength="117" x="442.5" y="223.0234">kodebeskrivelse</text><text fill="#000000" font-family="sans-serif" font-size="14" lengthAdjust="spacing" textLength="119" x="569.5" y="223.0234">byggeDeleforbud</text><line style="stroke:#000000;stroke-width:1.0;" x1="564.5" x2="564.5" y1="207.4883" y2="227.9766"/><rect fill="none" height="40.9766" rx="5" ry="5" style="stroke:#000000;stroke-width:1.5;" width="256" x="437.5" y="187"/><path d="M316,87.5 L329,87.5 C349.2698,87.5 346.3502,67.4404 365,59.5 C374.7701,55.3402 385.0255,51.7587 395.5149,48.6768 " fill="none" style="stroke:#000000;stroke-width:1.0;stroke-dasharray:3.0,3.0;"/><path d="M396.3368,51.5953 L397.7037,48.0604 L394.693,45.7583 L402.8111,46.622 L396.3368,51.5953 " fill="#000000" style="stroke:#000000;stroke-width:1.0;"/><ellipse cx="316" cy="87.5" fill="#000000" rx="3" ry="3" style="stroke:#000000;stroke-width:1.0;"/><path d="M316,108.5 L329,108.5 C338.3248,108.5 347.8503,108.3508 357.4675,108.0788 " fill="none" style="stroke:#000000;stroke-width:1.0;stroke-dasharray:3.0,3.0;"/><path d="M357.5651,111.171 L359.7867,108.0057 L357.37,104.9867 L365.198,107.8349 L357.5651,111.171 " fill="#000000" style="stroke:#000000;stroke-width:1.0;"/><ellipse cx="316" cy="108.5" fill="#000000" rx="3" ry="3" style="stroke:#000000;stroke-width:1.0;"/><path d="M316,128.5 L329,128.5 C355.1219,128.5 382.8122,129.7316 409.684,131.5836 " fill="none" style="stroke:#000000;stroke-width:1.0;stroke-dasharray:3.0,3.0;"/><path d="M409.4686,134.6058 L411.9506,131.745 L409.8993,128.5614 L417.2395,132.1218 L409.4686,134.6058 " fill="#000000" style="stroke:#000000;stroke-width:1.0;"/><ellipse cx="316" cy="128.5" fill="#000000" rx="3" ry="3" style="stroke:#000000;stroke-width:1.0;"/><path d="M316,149.5 L329,149.5 C349.5456,149.5 346.1658,170.2904 365,178.5 C385.3718,187.3799 407.9062,193.6409 430.286,198.0354 " fill="none" style="stroke:#000000;stroke-width:1.0;stroke-dasharray:3.0,3.0;"/><path d="M429.7181,201.0675 L432.5601,198.4613 L430.8539,195.0032 L437.8664,199.4552 L429.7181,201.0675 " fill="#000000" style="stroke:#000000;stroke-width:1.0;"/><ellipse cx="316" cy="149.5" fill="#000000" rx="3" ry="3" style="stroke:#000000;stroke-width:1.0;"/><path d="M257,118.5 L270,118.5 C279.4213,118.5 289.9164,118.5 298.5483,118.5 " fill="none" style="stroke:#000000;stroke-width:1.0;stroke-dasharray:3.0,3.0;"/><path d="M298.5483,121.5437 L300.8311,118.5 L298.5483,115.4563 L306.1575,118.5 L298.5483,121.5437 " fill="#000000" style="stroke:#000000;stroke-width:1.0;"/><ellipse cx="257" cy="118.5" fill="#000000" rx="3" ry="3" style="stroke:#000000;stroke-width:1.0;"/><!--SRC=[bL5BQy904BxlhnXoKb0nKOha9BuArgZKnwNqi35ZMBFkXiqa4CJ_rNl_MDTOsqiHUndO-HupEry_8sxea6d5JWp0IOqcdMWf5I-KuuEZT2l9MdjXIogvSXeNrWrCGqb24a_sseHvH6MAvieeq6G7NP4AxzfAT8HIP8Is-MOR0AUgVaDM4Ga7hC2j-3z0Y5bYH84omme-YaYY8H69U5AD3JIjgosSIdPkt3Ft_ca-__o82bJslU97AfC47vdIkJ_57fsaY0Tb7EC89LxFzuXnzxvn-AUZhU_ipFhs6rNIR6cJf4qmWqjCGYjmMrxRwxHwjLMk8E0bU2wuRR_Jyzjj68vNQxZWTLPxNiuWqxdP8KGsIoF2dAn1dKrvmU4rLoIEwCCYHJKTlTmQC5Q5C5eTKH6RReDVmbEtEH04ApHs5TW6R8HxdakoYfsEX8fzsAmdpHwRSHNdFBRUgDXGMrzJ-Z1VV040]--></g></svg>