<svg xmlns="http://www.w3.org/2000/svg" xmlns:xlink="http://www.w3.org/1999/xlink" contentStyleType="text/css" height="814px" preserveAspectRatio="none" style="width:1906px;height:814px;background:#FFFFFF;" version="1.1" viewBox="0 0 1906 814" width="1906px" zoomAndPan="magnify"><defs/><g><!--class NasjonalArealplanId--><g id="elem_NasjonalArealplanId"><rect codeLine="1" fill="#F1F1F1" height="80.9766" id="NasjonalArealplanId" rx="2.5" ry="2.5" style="stroke:#181818;stroke-width:0.5;" width="292" x="7" y="536.28"/><ellipse cx="79.75" cy="552.28" fill="#ADD1B2" rx="11" ry="11" style="stroke:#181818;stroke-width:1.0;"/><path d="M82.2231,558.4231 Q81.6421,558.7219 81.0029,558.8713 Q80.3638,559.0207 79.6582,559.0207 Q77.1514,559.0207 75.8315,557.3689 Q74.5117,555.717 74.5117,552.5959 Q74.5117,549.4665 75.8315,547.8147 Q77.1514,546.1628 79.6582,546.1628 Q80.3638,546.1628 81.0112,546.3122 Q81.6587,546.4616 82.2231,546.7605 L82.2231,549.4831 Q81.5923,548.9021 80.9988,548.6323 Q80.4053,548.3625 79.7744,548.3625 Q78.4297,548.3625 77.7449,549.4292 Q77.0601,550.4958 77.0601,552.5959 Q77.0601,554.6877 77.7449,555.7544 Q78.4297,556.821 79.7744,556.821 Q80.4053,556.821 80.9988,556.5512 Q81.5923,556.2815 82.2231,555.7004 Z " fill="#000000"/><text fill="#000000" font-family="sans-serif" font-size="14" lengthAdjust="spacing" textLength="138" x="100.25" y="557.571">NasjonalArealplanId</text><line style="stroke:#181818;stroke-width:0.5;" x1="8" x2="298" y1="568.28" y2="568.28"/><ellipse cx="18" cy="582.0241" fill="none" rx="3" ry="3" style="stroke:#038048;stroke-width:1.0;"/><text fill="#000000" font-family="sans-serif" font-size="14" lengthAdjust="spacing" textLength="266" x="27" y="585.8152">administrativEnhet: AdministrativEnhet</text><ellipse cx="18" cy="598.5124" fill="none" rx="3" ry="3" style="stroke:#038048;stroke-width:1.0;"/><text fill="#000000" font-family="sans-serif" font-size="14" lengthAdjust="spacing" textLength="171" x="27" y="602.3034">planidentifikasjon: string</text><line style="stroke:#181818;stroke-width:0.5;" x1="8" x2="298" y1="609.2566" y2="609.2566"/></g><!--class AdministrativEnhet--><g id="elem_AdministrativEnhet"><rect codeLine="8" fill="#F1F1F1" height="97.4648" id="AdministrativEnhet" rx="2.5" ry="2.5" style="stroke:#181818;stroke-width:0.5;" width="162" x="72" y="710.24"/><ellipse cx="87" cy="726.24" fill="#EB937F" rx="11" ry="11" style="stroke:#181818;stroke-width:1.0;"/><path d="M90.6143,732.74 L82.8945,732.74 L82.8945,720.3469 L90.6143,720.3469 L90.6143,722.5051 L85.3433,722.5051 L85.3433,725.178 L90.1162,725.178 L90.1162,727.3362 L85.3433,727.3362 L85.3433,730.5818 L90.6143,730.5818 Z " fill="#000000"/><text fill="#000000" font-family="sans-serif" font-size="14" lengthAdjust="spacing" textLength="130" x="101" y="731.531">AdministrativEnhet</text><line style="stroke:#181818;stroke-width:0.5;" x1="73" x2="233" y1="742.24" y2="742.24"/><text fill="#000000" font-family="sans-serif" font-size="14" lengthAdjust="spacing" textLength="127" x="78" y="759.7752">kommunenummer</text><text fill="#000000" font-family="sans-serif" font-size="14" lengthAdjust="spacing" textLength="97" x="78" y="776.2634">fylkesnummer</text><text fill="#000000" font-family="sans-serif" font-size="14" lengthAdjust="spacing" textLength="71" x="78" y="792.7517">landskode</text><line style="stroke:#181818;stroke-width:0.5;" x1="73" x2="233" y1="799.7048" y2="799.7048"/></g><!--class Posisjon--><g id="elem_Posisjon"><rect codeLine="1" fill="#F1F1F1" height="97.4648" id="Posisjon" rx="2.5" ry="2.5" style="stroke:#181818;stroke-width:0.5;" width="263" x="334.5" y="528.04"/><ellipse cx="433.25" cy="544.04" fill="#ADD1B2" rx="11" ry="11" style="stroke:#181818;stroke-width:1.0;"/><path d="M435.7231,550.1831 Q435.1421,550.4819 434.5029,550.6313 Q433.8638,550.7807 433.1582,550.7807 Q430.6514,550.7807 429.3315,549.1289 Q428.0117,547.477 428.0117,544.3559 Q428.0117,541.2265 429.3315,539.5747 Q430.6514,537.9228 433.1582,537.9228 Q433.8638,537.9228 434.5112,538.0722 Q435.1587,538.2216 435.7231,538.5205 L435.7231,541.2431 Q435.0923,540.6621 434.4988,540.3923 Q433.9053,540.1225 433.2744,540.1225 Q431.9297,540.1225 431.2449,541.1892 Q430.5601,542.2558 430.5601,544.3559 Q430.5601,546.4477 431.2449,547.5144 Q431.9297,548.581 433.2744,548.581 Q433.9053,548.581 434.4988,548.3112 Q435.0923,548.0415 435.7231,547.4604 Z " fill="#000000"/><text fill="#000000" font-family="sans-serif" font-size="14" lengthAdjust="spacing" textLength="57" x="453.75" y="549.331">Posisjon</text><line style="stroke:#181818;stroke-width:0.5;" x1="335.5" x2="596.5" y1="560.04" y2="560.04"/><ellipse cx="345.5" cy="573.7841" fill="none" rx="3" ry="3" style="stroke:#038048;stroke-width:1.0;"/><text fill="#000000" font-family="sans-serif" font-size="14" lengthAdjust="spacing" textLength="127" x="354.5" y="577.5752">type: PosisjonType</text><ellipse cx="345.5" cy="590.2724" fill="none" rx="3" ry="3" style="stroke:#038048;stroke-width:1.0;"/><text fill="#000000" font-family="sans-serif" font-size="14" lengthAdjust="spacing" textLength="153" x="354.5" y="594.0634">koordinater: number[]</text><ellipse cx="345.5" cy="606.7607" fill="none" rx="3" ry="3" style="stroke:#038048;stroke-width:1.0;"/><text fill="#000000" font-family="sans-serif" font-size="14" lengthAdjust="spacing" textLength="237" x="354.5" y="610.5517">koordinatsystem: Koordinatsystem</text><line style="stroke:#181818;stroke-width:0.5;" x1="335.5" x2="596.5" y1="617.5048" y2="617.5048"/></g><!--class Koordinatsystem--><g id="elem_Koordinatsystem"><rect codeLine="10" fill="#F1F1F1" height="89.5977" id="Koordinatsystem" rx="2.5" ry="2.5" style="stroke:#181818;stroke-width:0.5;" width="184" x="347" y="714.17"/><ellipse cx="378.65" cy="734.4805" fill="#ADD1B2" rx="11" ry="11" style="stroke:#181818;stroke-width:1.0;"/><path d="M381.1231,740.6236 Q380.5421,740.9224 379.9029,741.0719 Q379.2638,741.2213 378.5582,741.2213 Q376.0514,741.2213 374.7315,739.5694 Q373.4117,737.9176 373.4117,734.7965 Q373.4117,731.6671 374.7315,730.0152 Q376.0514,728.3634 378.5582,728.3634 Q379.2638,728.3634 379.9112,728.5128 Q380.5587,728.6622 381.1231,728.961 L381.1231,731.6837 Q380.4923,731.1026 379.8988,730.8328 Q379.3053,730.5631 378.6744,730.5631 Q377.3297,730.5631 376.6449,731.6297 Q375.9601,732.6964 375.9601,734.7965 Q375.9601,736.8883 376.6449,737.9549 Q377.3297,739.0216 378.6744,739.0216 Q379.3053,739.0216 379.8988,738.7518 Q380.4923,738.482 381.1231,737.901 Z " fill="#000000"/><text fill="#000000" font-family="sans-serif" font-size="12" font-style="italic" lengthAdjust="spacing" textLength="42" x="432.85" y="730.7716">&#171;Kode&#187;</text><text fill="#000000" font-family="sans-serif" font-size="14" lengthAdjust="spacing" textLength="115" x="396.35" y="746.838">Koordinatsystem</text><line style="stroke:#181818;stroke-width:0.5;" x1="348" x2="530" y1="754.7911" y2="754.7911"/><ellipse cx="358" cy="768.5352" fill="none" rx="3" ry="3" style="stroke:#038048;stroke-width:1.0;"/><text fill="#000000" font-family="sans-serif" font-size="14" lengthAdjust="spacing" textLength="116" x="367" y="772.3263">kodeverdi: string</text><ellipse cx="358" cy="785.0235" fill="none" rx="3" ry="3" style="stroke:#038048;stroke-width:1.0;"/><text fill="#000000" font-family="sans-serif" font-size="14" lengthAdjust="spacing" textLength="158" x="367" y="788.8145">kodebeskrivelse: string</text><line style="stroke:#181818;stroke-width:0.5;" x1="348" x2="530" y1="795.7677" y2="795.7677"/></g><!--class PosisjonType--><g id="elem_PosisjonType"><rect codeLine="15" fill="#F1F1F1" height="64.4883" id="PosisjonType" rx="2.5" ry="2.5" style="stroke:#181818;stroke-width:0.5;" width="122" x="566" y="726.72"/><ellipse cx="581" cy="742.72" fill="#EB937F" rx="11" ry="11" style="stroke:#181818;stroke-width:1.0;"/><path d="M584.6143,749.22 L576.8945,749.22 L576.8945,736.8269 L584.6143,736.8269 L584.6143,738.9851 L579.3433,738.9851 L579.3433,741.658 L584.1162,741.658 L584.1162,743.8162 L579.3433,743.8162 L579.3433,747.0618 L584.6143,747.0618 Z " fill="#000000"/><text fill="#000000" font-family="sans-serif" font-size="14" lengthAdjust="spacing" textLength="90" x="595" y="748.011">PosisjonType</text><line style="stroke:#181818;stroke-width:0.5;" x1="567" x2="687" y1="758.72" y2="758.72"/><text fill="#000000" font-family="sans-serif" font-size="14" lengthAdjust="spacing" textLength="35" x="572" y="776.2552">Point</text><line style="stroke:#181818;stroke-width:0.5;" x1="567" x2="687" y1="783.2083" y2="783.2083"/></g><!--class Saksnummer--><g id="elem_Saksnummer"><rect codeLine="2" fill="#F1F1F1" height="80.9766" id="Saksnummer" rx="2.5" ry="2.5" style="stroke:#181818;stroke-width:0.5;" width="225" x="632.5" y="536.28"/><ellipse cx="696.25" cy="552.28" fill="#ADD1B2" rx="11" ry="11" style="stroke:#181818;stroke-width:1.0;"/><path d="M698.7231,558.4231 Q698.1421,558.7219 697.5029,558.8713 Q696.8638,559.0207 696.1582,559.0207 Q693.6514,559.0207 692.3315,557.3689 Q691.0117,555.717 691.0117,552.5959 Q691.0117,549.4665 692.3315,547.8147 Q693.6514,546.1628 696.1582,546.1628 Q696.8638,546.1628 697.5112,546.3122 Q698.1587,546.4616 698.7231,546.7605 L698.7231,549.4831 Q698.0923,548.9021 697.4988,548.6323 Q696.9053,548.3625 696.2744,548.3625 Q694.9297,548.3625 694.2449,549.4292 Q693.5601,550.4958 693.5601,552.5959 Q693.5601,554.6877 694.2449,555.7544 Q694.9297,556.821 696.2744,556.821 Q696.9053,556.821 697.4988,556.5512 Q698.0923,556.2815 698.7231,555.7004 Z " fill="#000000"/><text fill="#000000" font-family="sans-serif" font-size="14" lengthAdjust="spacing" textLength="89" x="716.75" y="557.571">Saksnummer</text><line style="stroke:#181818;stroke-width:0.5;" x1="633.5" x2="856.5" y1="568.28" y2="568.28"/><ellipse cx="643.5" cy="582.0241" fill="none" rx="3" ry="3" style="stroke:#038048;stroke-width:1.0;"/><text fill="#000000" font-family="sans-serif" font-size="14" lengthAdjust="spacing" textLength="109" x="652.5" y="585.8152">saksaar: integer</text><ellipse cx="643.5" cy="598.5124" fill="none" rx="3" ry="3" style="stroke:#038048;stroke-width:1.0;"/><text fill="#000000" font-family="sans-serif" font-size="14" lengthAdjust="spacing" textLength="199" x="652.5" y="602.3034">sakssekvensnummer: integer</text><line style="stroke:#181818;stroke-width:0.5;" x1="633.5" x2="856.5" y1="609.2566" y2="609.2566"/></g><!--class Dokument--><g id="elem_Dokument"><rect codeLine="1" fill="#F1F1F1" height="146.9297" id="Dokument" rx="2.5" ry="2.5" style="stroke:#181818;stroke-width:0.5;" width="335" x="892.5" y="503.31"/><ellipse cx="1020.25" cy="519.31" fill="#ADD1B2" rx="11" ry="11" style="stroke:#181818;stroke-width:1.0;"/><path d="M1022.7231,525.4531 Q1022.1421,525.7519 1021.5029,525.9013 Q1020.8638,526.0507 1020.1582,526.0507 Q1017.6514,526.0507 1016.3315,524.3989 Q1015.0117,522.747 1015.0117,519.6259 Q1015.0117,516.4965 1016.3315,514.8447 Q1017.6514,513.1928 1020.1582,513.1928 Q1020.8638,513.1928 1021.5112,513.3422 Q1022.1587,513.4916 1022.7231,513.7905 L1022.7231,516.5131 Q1022.0923,515.9321 1021.4988,515.6623 Q1020.9053,515.3925 1020.2744,515.3925 Q1018.9297,515.3925 1018.2449,516.4592 Q1017.5601,517.5258 1017.5601,519.6259 Q1017.5601,521.7177 1018.2449,522.7844 Q1018.9297,523.851 1020.2744,523.851 Q1020.9053,523.851 1021.4988,523.5812 Q1022.0923,523.3115 1022.7231,522.7304 Z " fill="#000000"/><text fill="#000000" font-family="sans-serif" font-size="14" lengthAdjust="spacing" textLength="71" x="1040.75" y="524.601">Dokument</text><line style="stroke:#181818;stroke-width:0.5;" x1="893.5" x2="1226.5" y1="535.31" y2="535.31"/><ellipse cx="903.5" cy="549.0541" fill="none" rx="3" ry="3" style="stroke:#038048;stroke-width:1.0;"/><text fill="#000000" font-family="sans-serif" font-size="14" lengthAdjust="spacing" textLength="79" x="912.5" y="552.8452">tittel: string</text><ellipse cx="903.5" cy="565.5424" fill="none" rx="3" ry="3" style="stroke:#038048;stroke-width:1.0;"/><text fill="#000000" font-family="sans-serif" font-size="14" lengthAdjust="spacing" textLength="207" x="912.5" y="569.3334">dokumenttype: Dokumenttype</text><ellipse cx="903.5" cy="582.0307" fill="none" rx="3" ry="3" style="stroke:#038048;stroke-width:1.0;"/><text fill="#000000" font-family="sans-serif" font-size="14" lengthAdjust="spacing" textLength="309" x="912.5" y="585.8217">referanseDokumentfil: ReferanseDokumentfil</text><ellipse cx="903.5" cy="598.519" fill="none" rx="3" ry="3" style="stroke:#038048;stroke-width:1.0;"/><text fill="#000000" font-family="sans-serif" font-size="14" lengthAdjust="spacing" textLength="115" x="912.5" y="602.31">mimetype: string</text><ellipse cx="903.5" cy="615.0073" fill="none" rx="3" ry="3" style="stroke:#038048;stroke-width:1.0;"/><text fill="#000000" font-family="sans-serif" font-size="14" lengthAdjust="spacing" textLength="146" x="912.5" y="618.7983">dokumentsdato: date</text><ellipse cx="903.5" cy="631.4955" fill="none" rx="3" ry="3" style="stroke:#038048;stroke-width:1.0;"/><text fill="#000000" font-family="sans-serif" font-size="14" lengthAdjust="spacing" textLength="114" x="912.5" y="635.2866">arkivnavn: string</text><line style="stroke:#181818;stroke-width:0.5;" x1="893.5" x2="1226.5" y1="642.2397" y2="642.2397"/></g><!--class Dokumenttype--><g id="elem_Dokumenttype"><rect codeLine="13" fill="#F1F1F1" height="89.5977" id="Dokumenttype" rx="2.5" ry="2.5" style="stroke:#181818;stroke-width:0.5;" width="184" x="775" y="714.17"/><ellipse cx="813.4" cy="734.4805" fill="#ADD1B2" rx="11" ry="11" style="stroke:#181818;stroke-width:1.0;"/><path d="M815.8731,740.6236 Q815.2921,740.9224 814.6529,741.0719 Q814.0138,741.2213 813.3082,741.2213 Q810.8014,741.2213 809.4815,739.5694 Q808.1617,737.9176 808.1617,734.7965 Q808.1617,731.6671 809.4815,730.0152 Q810.8014,728.3634 813.3082,728.3634 Q814.0138,728.3634 814.6612,728.5128 Q815.3087,728.6622 815.8731,728.961 L815.8731,731.6837 Q815.2423,731.1026 814.6488,730.8328 Q814.0553,730.5631 813.4244,730.5631 Q812.0797,730.5631 811.3949,731.6297 Q810.7101,732.6964 810.7101,734.7965 Q810.7101,736.8883 811.3949,737.9549 Q812.0797,739.0216 813.4244,739.0216 Q814.0553,739.0216 814.6488,738.7518 Q815.2423,738.482 815.8731,737.901 Z " fill="#000000"/><text fill="#000000" font-family="sans-serif" font-size="12" font-style="italic" lengthAdjust="spacing" textLength="42" x="861.6" y="730.7716">&#171;Kode&#187;</text><text fill="#000000" font-family="sans-serif" font-size="14" lengthAdjust="spacing" textLength="100" x="832.6" y="746.838">Dokumenttype</text><line style="stroke:#181818;stroke-width:0.5;" x1="776" x2="958" y1="754.7911" y2="754.7911"/><ellipse cx="786" cy="768.5352" fill="none" rx="3" ry="3" style="stroke:#038048;stroke-width:1.0;"/><text fill="#000000" font-family="sans-serif" font-size="14" lengthAdjust="spacing" textLength="116" x="795" y="772.3263">kodeverdi: string</text><ellipse cx="786" cy="785.0235" fill="none" rx="3" ry="3" style="stroke:#038048;stroke-width:1.0;"/><text fill="#000000" font-family="sans-serif" font-size="14" lengthAdjust="spacing" textLength="158" x="795" y="788.8145">kodebeskrivelse: string</text><line style="stroke:#181818;stroke-width:0.5;" x1="776" x2="958" y1="795.7677" y2="795.7677"/></g><!--class ReferanseDokumentfil--><g id="elem_ReferanseDokumentfil"><rect codeLine="18" fill="#F1F1F1" height="80.9766" id="ReferanseDokumentfil" rx="2.5" ry="2.5" style="stroke:#181818;stroke-width:0.5;" width="184" x="994" y="718.48"/><ellipse cx="1009" cy="734.48" fill="#ADD1B2" rx="11" ry="11" style="stroke:#181818;stroke-width:1.0;"/><path d="M1011.4731,740.6231 Q1010.8921,740.9219 1010.2529,741.0713 Q1009.6138,741.2207 1008.9082,741.2207 Q1006.4014,741.2207 1005.0815,739.5689 Q1003.7617,737.917 1003.7617,734.7959 Q1003.7617,731.6665 1005.0815,730.0147 Q1006.4014,728.3628 1008.9082,728.3628 Q1009.6138,728.3628 1010.2612,728.5122 Q1010.9087,728.6616 1011.4731,728.9605 L1011.4731,731.6831 Q1010.8423,731.1021 1010.2488,730.8323 Q1009.6553,730.5625 1009.0244,730.5625 Q1007.6797,730.5625 1006.9949,731.6292 Q1006.3101,732.6958 1006.3101,734.7959 Q1006.3101,736.8877 1006.9949,737.9544 Q1007.6797,739.021 1009.0244,739.021 Q1009.6553,739.021 1010.2488,738.7512 Q1010.8423,738.4815 1011.4731,737.9004 Z " fill="#000000"/><text fill="#000000" font-family="sans-serif" font-size="14" lengthAdjust="spacing" textLength="152" x="1023" y="739.771">ReferanseDokumentfil</text><line style="stroke:#181818;stroke-width:0.5;" x1="995" x2="1177" y1="750.48" y2="750.48"/><ellipse cx="1005" cy="764.2241" fill="none" rx="3" ry="3" style="stroke:#038048;stroke-width:1.0;"/><text fill="#000000" font-family="sans-serif" font-size="14" lengthAdjust="spacing" textLength="61" x="1014" y="768.0152">id: string</text><ellipse cx="1005" cy="780.7124" fill="none" rx="3" ry="3" style="stroke:#038048;stroke-width:1.0;"/><text fill="#000000" font-family="sans-serif" font-size="14" lengthAdjust="spacing" textLength="67" x="1014" y="784.5034">url: string</text><line style="stroke:#181818;stroke-width:0.5;" x1="995" x2="1177" y1="791.4566" y2="791.4566"/></g><!--class Dispensasjon--><g id="elem_Dispensasjon"><rect codeLine="6" fill="#F1F1F1" height="311.8125" id="Dispensasjon" rx="2.5" ry="2.5" style="stroke:#181818;stroke-width:0.5;" width="363" x="878.5" y="131.49"/><ellipse cx="1010.25" cy="147.49" fill="#ADD1B2" rx="11" ry="11" style="stroke:#181818;stroke-width:1.0;"/><path d="M1012.7231,153.6331 Q1012.1421,153.9319 1011.5029,154.0813 Q1010.8638,154.2307 1010.1582,154.2307 Q1007.6514,154.2307 1006.3315,152.5789 Q1005.0117,150.927 1005.0117,147.8059 Q1005.0117,144.6765 1006.3315,143.0247 Q1007.6514,141.3728 1010.1582,141.3728 Q1010.8638,141.3728 1011.5112,141.5222 Q1012.1587,141.6716 1012.7231,141.9705 L1012.7231,144.6931 Q1012.0923,144.1121 1011.4988,143.8423 Q1010.9053,143.5725 1010.2744,143.5725 Q1008.9297,143.5725 1008.2449,144.6392 Q1007.5601,145.7058 1007.5601,147.8059 Q1007.5601,149.8977 1008.2449,150.9644 Q1008.9297,152.031 1010.2744,152.031 Q1010.9053,152.031 1011.4988,151.7612 Q1012.0923,151.4915 1012.7231,150.9104 Z " fill="#000000"/><text fill="#000000" font-family="sans-serif" font-size="14" lengthAdjust="spacing" textLength="91" x="1030.75" y="152.781">Dispensasjon</text><line style="stroke:#181818;stroke-width:0.5;" x1="879.5" x2="1240.5" y1="163.49" y2="163.49"/><ellipse cx="889.5" cy="177.2341" fill="none" rx="3" ry="3" style="stroke:#038048;stroke-width:1.0;"/><text fill="#000000" font-family="sans-serif" font-size="14" lengthAdjust="spacing" textLength="141" x="898.5" y="181.0252">identifikasjon: string</text><ellipse cx="889.5" cy="193.7224" fill="none" rx="3" ry="3" style="stroke:#038048;stroke-width:1.0;"/><text fill="#000000" font-family="sans-serif" font-size="14" lengthAdjust="spacing" textLength="269" x="898.5" y="197.5134">dispensasjonsType: DispensasjonsType</text><ellipse cx="889.5" cy="210.2107" fill="none" rx="3" ry="3" style="stroke:#038048;stroke-width:1.0;"/><text fill="#000000" font-family="sans-serif" font-size="14" lengthAdjust="spacing" textLength="337" x="898.5" y="214.0017">dispensasjonFraLovverk: DispensasjonFraLovverk</text><ellipse cx="889.5" cy="226.699" fill="none" rx="3" ry="3" style="stroke:#038048;stroke-width:1.0;"/><text fill="#000000" font-family="sans-serif" font-size="14" lengthAdjust="spacing" textLength="99" x="898.5" y="230.49">dispFra: string</text><ellipse cx="889.5" cy="243.1873" fill="none" rx="3" ry="3" style="stroke:#038048;stroke-width:1.0;"/><text fill="#000000" font-family="sans-serif" font-size="14" lengthAdjust="spacing" textLength="283" x="898.5" y="246.9783">nasjonalArealplanId: NasjonalArealplanId</text><ellipse cx="889.5" cy="259.6755" fill="none" rx="3" ry="3" style="stroke:#038048;stroke-width:1.0;"/><text fill="#000000" font-family="sans-serif" font-size="14" lengthAdjust="spacing" textLength="134" x="898.5" y="263.4666">begrunnelse: string</text><ellipse cx="889.5" cy="276.1638" fill="none" rx="3" ry="3" style="stroke:#038048;stroke-width:1.0;"/><text fill="#000000" font-family="sans-serif" font-size="14" lengthAdjust="spacing" textLength="125" x="898.5" y="279.9548">vedtaksdato:  date</text><ellipse cx="889.5" cy="292.6521" fill="none" rx="3" ry="3" style="stroke:#038048;stroke-width:1.0;"/><text fill="#000000" font-family="sans-serif" font-size="14" lengthAdjust="spacing" textLength="123" x="898.5" y="296.4431">posisjon: Posisjon</text><ellipse cx="889.5" cy="309.1404" fill="none" rx="3" ry="3" style="stroke:#038048;stroke-width:1.0;"/><text fill="#000000" font-family="sans-serif" font-size="14" lengthAdjust="spacing" textLength="182" x="898.5" y="312.9314">vertikalnivaa: Vertikalnivaa</text><ellipse cx="889.5" cy="325.6287" fill="none" rx="3" ry="3" style="stroke:#038048;stroke-width:1.0;"/><text fill="#000000" font-family="sans-serif" font-size="14" lengthAdjust="spacing" textLength="124" x="898.5" y="329.4197">beskrivelse: string</text><ellipse cx="889.5" cy="342.117" fill="none" rx="3" ry="3" style="stroke:#038048;stroke-width:1.0;"/><text fill="#000000" font-family="sans-serif" font-size="14" lengthAdjust="spacing" textLength="214" x="898.5" y="345.908">innvilgetDispensasjon: boolean</text><ellipse cx="889.5" cy="358.6052" fill="none" rx="3" ry="3" style="stroke:#038048;stroke-width:1.0;"/><text fill="#000000" font-family="sans-serif" font-size="14" lengthAdjust="spacing" textLength="185" x="898.5" y="362.3963">saksnummer: Saksnummer</text><ellipse cx="889.5" cy="375.0935" fill="none" rx="3" ry="3" style="stroke:#038048;stroke-width:1.0;"/><text fill="#000000" font-family="sans-serif" font-size="14" lengthAdjust="spacing" textLength="189" x="898.5" y="378.8845">varigDispensasjon: boolean</text><ellipse cx="889.5" cy="391.5818" fill="none" rx="3" ry="3" style="stroke:#038048;stroke-width:1.0;"/><text fill="#000000" font-family="sans-serif" font-size="14" lengthAdjust="spacing" textLength="116" x="898.5" y="395.3728">varighetFra: date</text><ellipse cx="889.5" cy="408.0701" fill="none" rx="3" ry="3" style="stroke:#038048;stroke-width:1.0;"/><text fill="#000000" font-family="sans-serif" font-size="14" lengthAdjust="spacing" textLength="111" x="898.5" y="411.8611">varighetTil: date</text><ellipse cx="889.5" cy="424.5584" fill="none" rx="3" ry="3" style="stroke:#038048;stroke-width:1.0;"/><text fill="#000000" font-family="sans-serif" font-size="14" lengthAdjust="spacing" textLength="203" x="898.5" y="428.3494">plandokumenter: Dokument[]</text><line style="stroke:#181818;stroke-width:0.5;" x1="879.5" x2="1240.5" y1="435.3025" y2="435.3025"/></g><path d="M418.5,226.78 L418.5,252.0905 A0,0 0 0 0 418.5,252.0905 L718.5,252.0905 A0,0 0 0 0 718.5,252.0905 L718.5,244.78 L882.5,192.2224 L718.5,236.78 L718.5,236.78 L708.5,226.78 L418.5,226.78 A0,0 0 0 0 418.5,226.78 " fill="#FEFFDD" style="stroke:#181818;stroke-width:0.5;"/><path d="M708.5,226.78 L708.5,236.78 L718.5,236.78 L708.5,226.78 " fill="#FEFFDD" style="stroke:#181818;stroke-width:0.5;"/><text fill="#000000" font-family="sans-serif" font-size="13" lengthAdjust="spacing" textLength="279" x="424.5" y="244.3484">dispensasjonsType er hentet fra Planregister</text><path d="M418.5,262.0905 L418.5,302.7116 A0,0 0 0 0 418.5,302.7116 L843.5,302.7116 A0,0 0 0 0 843.5,302.7116 L843.5,286.4011 L882.5,208.7107 L843.5,278.4011 L843.5,272.0905 L833.5,262.0905 L418.5,262.0905 A0,0 0 0 0 418.5,262.0905 " fill="#FEFFDD" style="stroke:#181818;stroke-width:0.5;"/><path d="M833.5,262.0905 L833.5,272.0905 L843.5,272.0905 L833.5,262.0905 " fill="#FEFFDD" style="stroke:#181818;stroke-width:0.5;"/><text fill="#000000" font-family="sans-serif" font-size="13" lengthAdjust="spacing" textLength="404" x="424.5" y="279.6589">dispensasajonFraLovverk: se kodelisten dispensasjonfralovverk.</text><text fill="#000000" font-family="sans-serif" font-size="13" lengthAdjust="spacing" textLength="209" x="424.5" y="294.9695">Opprinnelig hentet fra eByggesak</text><path d="M418.5,312.7116 L418.5,338.0222 A0,0 0 0 0 418.5,338.0222 L780.5,338.0222 A0,0 0 0 0 780.5,338.0222 L780.5,330.7116 L882.5,225.199 L780.5,322.7116 L780.5,322.7116 L770.5,312.7116 L418.5,312.7116 A0,0 0 0 0 418.5,312.7116 " fill="#FEFFDD" style="stroke:#181818;stroke-width:0.5;"/><path d="M770.5,312.7116 L770.5,322.7116 L780.5,322.7116 L770.5,312.7116 " fill="#FEFFDD" style="stroke:#181818;stroke-width:0.5;"/><text fill="#000000" font-family="sans-serif" font-size="13" lengthAdjust="spacing" textLength="337" x="424.5" y="330.28">Et tekstfelt. Nytt i issue113 og hentet fra planregister</text><!--class DispensasjonsType--><g id="elem_DispensasjonsType"><rect codeLine="46" fill="#F1F1F1" height="89.5977" id="DispensasjonsType" rx="2.5" ry="2.5" style="stroke:#181818;stroke-width:0.5;" width="184" x="1263" y="531.97"/><ellipse cx="1287.45" cy="552.2805" fill="#ADD1B2" rx="11" ry="11" style="stroke:#181818;stroke-width:1.0;"/><path d="M1289.9231,558.4236 Q1289.3421,558.7224 1288.7029,558.8719 Q1288.0638,559.0213 1287.3582,559.0213 Q1284.8514,559.0213 1283.5315,557.3694 Q1282.2117,555.7176 1282.2117,552.5965 Q1282.2117,549.4671 1283.5315,547.8152 Q1284.8514,546.1634 1287.3582,546.1634 Q1288.0638,546.1634 1288.7112,546.3128 Q1289.3587,546.4622 1289.9231,546.761 L1289.9231,549.4837 Q1289.2923,548.9026 1288.6988,548.6328 Q1288.1053,548.3631 1287.4744,548.3631 Q1286.1297,548.3631 1285.4449,549.4297 Q1284.7601,550.4964 1284.7601,552.5965 Q1284.7601,554.6883 1285.4449,555.7549 Q1286.1297,556.8216 1287.4744,556.8216 Q1288.1053,556.8216 1288.6988,556.5518 Q1289.2923,556.282 1289.9231,555.701 Z " fill="#000000"/><text fill="#000000" font-family="sans-serif" font-size="12" font-style="italic" lengthAdjust="spacing" textLength="42" x="1348.05" y="548.5716">&#171;Kode&#187;</text><text fill="#000000" font-family="sans-serif" font-size="14" lengthAdjust="spacing" textLength="131" x="1303.55" y="564.638">DispensasjonsType</text><line style="stroke:#181818;stroke-width:0.5;" x1="1264" x2="1446" y1="572.5911" y2="572.5911"/><ellipse cx="1274" cy="586.3352" fill="none" rx="3" ry="3" style="stroke:#038048;stroke-width:1.0;"/><text fill="#000000" font-family="sans-serif" font-size="14" lengthAdjust="spacing" textLength="116" x="1283" y="590.1263">kodeverdi: string</text><ellipse cx="1274" cy="602.8235" fill="none" rx="3" ry="3" style="stroke:#038048;stroke-width:1.0;"/><text fill="#000000" font-family="sans-serif" font-size="14" lengthAdjust="spacing" textLength="158" x="1283" y="606.6145">kodebeskrivelse: string</text><line style="stroke:#181818;stroke-width:0.5;" x1="1264" x2="1446" y1="613.5677" y2="613.5677"/></g><!--class DispensasjonFraLovverk--><g id="elem_DispensasjonFraLovverk"><rect codeLine="51" fill="#F1F1F1" height="89.5977" id="DispensasjonFraLovverk" rx="2.5" ry="2.5" style="stroke:#181818;stroke-width:0.5;" width="197" x="1482.5" y="531.97"/><ellipse cx="1497.5" cy="552.2805" fill="#ADD1B2" rx="11" ry="11" style="stroke:#181818;stroke-width:1.0;"/><path d="M1499.9731,558.4236 Q1499.3921,558.7224 1498.7529,558.8719 Q1498.1138,559.0213 1497.4082,559.0213 Q1494.9014,559.0213 1493.5815,557.3694 Q1492.2617,555.7176 1492.2617,552.5965 Q1492.2617,549.4671 1493.5815,547.8152 Q1494.9014,546.1634 1497.4082,546.1634 Q1498.1138,546.1634 1498.7612,546.3128 Q1499.4087,546.4622 1499.9731,546.761 L1499.9731,549.4837 Q1499.3423,548.9026 1498.7488,548.6328 Q1498.1553,548.3631 1497.5244,548.3631 Q1496.1797,548.3631 1495.4949,549.4297 Q1494.8101,550.4964 1494.8101,552.5965 Q1494.8101,554.6883 1495.4949,555.7549 Q1496.1797,556.8216 1497.5244,556.8216 Q1498.1553,556.8216 1498.7488,556.5518 Q1499.3423,556.282 1499.9731,555.701 Z " fill="#000000"/><text fill="#000000" font-family="sans-serif" font-size="12" font-style="italic" lengthAdjust="spacing" textLength="42" x="1573" y="548.5716">&#171;Kode&#187;</text><text fill="#000000" font-family="sans-serif" font-size="14" lengthAdjust="spacing" textLength="165" x="1511.5" y="564.638">DispensasjonFraLovverk</text><line style="stroke:#181818;stroke-width:0.5;" x1="1483.5" x2="1678.5" y1="572.5911" y2="572.5911"/><ellipse cx="1493.5" cy="586.3352" fill="none" rx="3" ry="3" style="stroke:#038048;stroke-width:1.0;"/><text fill="#000000" font-family="sans-serif" font-size="14" lengthAdjust="spacing" textLength="116" x="1502.5" y="590.1263">kodeverdi: string</text><ellipse cx="1493.5" cy="602.8235" fill="none" rx="3" ry="3" style="stroke:#038048;stroke-width:1.0;"/><text fill="#000000" font-family="sans-serif" font-size="14" lengthAdjust="spacing" textLength="158" x="1502.5" y="606.6145">kodebeskrivelse: string</text><line style="stroke:#181818;stroke-width:0.5;" x1="1483.5" x2="1678.5" y1="613.5677" y2="613.5677"/></g><!--class Vertikalnivaa--><g id="elem_Vertikalnivaa"><rect codeLine="56" fill="#F1F1F1" height="89.5977" id="Vertikalnivaa" rx="2.5" ry="2.5" style="stroke:#181818;stroke-width:0.5;" width="184" x="1715" y="531.97"/><ellipse cx="1758.8" cy="552.2805" fill="#ADD1B2" rx="11" ry="11" style="stroke:#181818;stroke-width:1.0;"/><path d="M1761.2731,558.4236 Q1760.6921,558.7224 1760.0529,558.8719 Q1759.4138,559.0213 1758.7082,559.0213 Q1756.2014,559.0213 1754.8815,557.3694 Q1753.5617,555.7176 1753.5617,552.5965 Q1753.5617,549.4671 1754.8815,547.8152 Q1756.2014,546.1634 1758.7082,546.1634 Q1759.4138,546.1634 1760.0612,546.3128 Q1760.7087,546.4622 1761.2731,546.761 L1761.2731,549.4837 Q1760.6423,548.9026 1760.0488,548.6328 Q1759.4553,548.3631 1758.8244,548.3631 Q1757.4797,548.3631 1756.7949,549.4297 Q1756.1101,550.4964 1756.1101,552.5965 Q1756.1101,554.6883 1756.7949,555.7549 Q1757.4797,556.8216 1758.8244,556.8216 Q1759.4553,556.8216 1760.0488,556.5518 Q1760.6423,556.282 1761.2731,555.701 Z " fill="#000000"/><text fill="#000000" font-family="sans-serif" font-size="12" font-style="italic" lengthAdjust="spacing" textLength="42" x="1802.2" y="548.5716">&#171;Kode&#187;</text><text fill="#000000" font-family="sans-serif" font-size="14" lengthAdjust="spacing" textLength="88" x="1779.2" y="564.638">Vertikalnivaa</text><line style="stroke:#181818;stroke-width:0.5;" x1="1716" x2="1898" y1="572.5911" y2="572.5911"/><ellipse cx="1726" cy="586.3352" fill="none" rx="3" ry="3" style="stroke:#038048;stroke-width:1.0;"/><text fill="#000000" font-family="sans-serif" font-size="14" lengthAdjust="spacing" textLength="116" x="1735" y="590.1263">kodeverdi: string</text><ellipse cx="1726" cy="602.8235" fill="none" rx="3" ry="3" style="stroke:#038048;stroke-width:1.0;"/><text fill="#000000" font-family="sans-serif" font-size="14" lengthAdjust="spacing" textLength="158" x="1735" y="606.6145">kodebeskrivelse: string</text><line style="stroke:#181818;stroke-width:0.5;" x1="1716" x2="1898" y1="613.5677" y2="613.5677"/></g><!--class RegistrerDispensasjon--><g id="elem_RegistrerDispensasjon"><rect codeLine="3" fill="#F1F1F1" height="64.4883" id="RegistrerDispensasjon" rx="2.5" ry="2.5" style="stroke:#181818;stroke-width:0.5;" width="215" x="952.5" y="7"/><ellipse cx="981" cy="23" fill="#ADD1B2" rx="11" ry="11" style="stroke:#181818;stroke-width:1.0;"/><path d="M983.4731,29.1431 Q982.8921,29.4419 982.2529,29.5913 Q981.6138,29.7407 980.9082,29.7407 Q978.4014,29.7407 977.0815,28.0889 Q975.7617,26.437 975.7617,23.3159 Q975.7617,20.1865 977.0815,18.5347 Q978.4014,16.8828 980.9082,16.8828 Q981.6138,16.8828 982.2612,17.0322 Q982.9087,17.1816 983.4731,17.4805 L983.4731,20.2031 Q982.8423,19.6221 982.2488,19.3523 Q981.6553,19.0825 981.0244,19.0825 Q979.6797,19.0825 978.9949,20.1492 Q978.3101,21.2158 978.3101,23.3159 Q978.3101,25.4077 978.9949,26.4744 Q979.6797,27.541 981.0244,27.541 Q981.6553,27.541 982.2488,27.2712 Q982.8423,27.0015 983.4731,26.4204 Z " fill="#000000"/><text fill="#000000" font-family="sans-serif" font-size="14" lengthAdjust="spacing" textLength="153" x="998" y="28.291">RegistrerDispensasjon</text><line style="stroke:#181818;stroke-width:0.5;" x1="953.5" x2="1166.5" y1="39" y2="39"/><ellipse cx="963.5" cy="52.7441" fill="none" rx="3" ry="3" style="stroke:#038048;stroke-width:1.0;"/><text fill="#000000" font-family="sans-serif" font-size="14" lengthAdjust="spacing" textLength="189" x="972.5" y="56.5352">dispensasjon: Dispensasjon</text><line style="stroke:#181818;stroke-width:0.5;" x1="953.5" x2="1166.5" y1="63.4883" y2="63.4883"/></g><!--link NasjonalArealplanId to AdministrativEnhet--><g id="link_NasjonalArealplanId_AdministrativEnhet"><path codeLine="6" d="M153,617.32 C153,644.56 153,680.93 153,709.86 " fill="none" id="NasjonalArealplanId-AdministrativEnhet" style="stroke:#181818;stroke-width:1.0;"/></g><!--link Posisjon to Koordinatsystem--><g id="link_Posisjon_Koordinatsystem"><path codeLine="7" d="M458.84,625.59 C454.73,653.01 449.61,687.19 445.6,713.95 " fill="none" id="Posisjon-Koordinatsystem" style="stroke:#181818;stroke-width:1.0;"/></g><!--link Posisjon to PosisjonType--><g id="link_Posisjon_PosisjonType"><path codeLine="8" d="M508.72,625.59 C537.23,657.49 573.91,698.55 598.81,726.42 " fill="none" id="Posisjon-PosisjonType" style="stroke:#181818;stroke-width:1.0;"/></g><!--link Dokument to Dokumenttype--><g id="link_Dokument_Dokumenttype"><path codeLine="10" d="M982.06,650.54 C959.14,671.94 934.78,694.68 914.4,713.71 " fill="none" id="Dokument-Dokumenttype" style="stroke:#181818;stroke-width:1.0;"/></g><!--link Dokument to ReferanseDokumentfil--><g id="link_Dokument_ReferanseDokumentfil"><path codeLine="11" d="M1070.5,650.54 C1073.83,673.6 1077.38,698.22 1080.24,718.07 " fill="none" id="Dokument-ReferanseDokumentfil" style="stroke:#181818;stroke-width:1.0;"/></g><!--link Dispensasjon to DispensasjonsType--><g id="link_Dispensasjon_DispensasjonsType"><path codeLine="38" d="M1219.16,443.44 C1252.36,475.78 1284.77,507.35 1309.6,531.54 " fill="none" id="Dispensasjon-DispensasjonsType" style="stroke:#181818;stroke-width:1.0;"/></g><!--link Dispensasjon to DispensasjonFraLovverk--><g id="link_Dispensasjon_DispensasjonFraLovverk"><path codeLine="39" d="M1241.93,381.45 C1312.23,418.31 1392.94,461.75 1465,503.31 C1480.32,512.14 1496.55,521.97 1511.86,531.47 " fill="none" id="Dispensasjon-DispensasjonFraLovverk" style="stroke:#181818;stroke-width:1.0;"/></g><!--link Dispensasjon to Vertikalnivaa--><g id="link_Dispensasjon_Vertikalnivaa"><path codeLine="40" d="M1242,336.25 C1372.14,373.69 1549.62,431.4 1697,503.31 C1713.44,511.33 1730.35,521.41 1745.83,531.49 " fill="none" id="Dispensasjon-Vertikalnivaa" style="stroke:#181818;stroke-width:1.0;"/></g><!--link Dispensasjon to NasjonalArealplanId--><g id="link_Dispensasjon_NasjonalArealplanId"><path codeLine="41" d="M878.25,435.64 C872.53,438.39 866.78,440.96 861,443.31 C635.62,534.8 551.88,440.08 317,503.31 C287.69,511.19 256.92,523.59 230.05,535.91 " fill="none" id="Dispensasjon-NasjonalArealplanId" style="stroke:#181818;stroke-width:1.0;"/></g><!--link Dispensasjon to Posisjon--><g id="link_Dispensasjon_Posisjon"><path codeLine="42" d="M878.1,434.49 C872.42,437.6 866.72,440.54 861,443.31 C759.68,492.29 720.87,465.15 615,503.31 C595.92,510.18 576.05,518.77 557.27,527.6 " fill="none" id="Dispensasjon-Posisjon" style="stroke:#181818;stroke-width:1.0;"/></g><!--link Dispensasjon to Saksnummer--><g id="link_Dispensasjon_Saksnummer"><path codeLine="43" d="M890.05,443.44 C852.42,477.77 815.75,511.23 788.69,535.92 " fill="none" id="Dispensasjon-Saksnummer" style="stroke:#181818;stroke-width:1.0;"/></g><!--link Dispensasjon to Dokument--><g id="link_Dispensasjon_Dokument"><path codeLine="44" d="M1060,443.44 C1060,464.25 1060,484.74 1060,503.15 " fill="none" id="Dispensasjon-Dokument" style="stroke:#181818;stroke-width:1.0;"/></g><!--link RegistrerDispensasjon to Dispensasjon--><g id="link_RegistrerDispensasjon_Dispensasjon"><path codeLine="7" d="M1060,71.92 C1060,87.96 1060,108.74 1060,131.04 " fill="none" id="RegistrerDispensasjon-Dispensasjon" style="stroke:#181818;stroke-width:1.0;"/></g><!--SRC=[KypCIyufJKbLqDFNqzFFozVBBjPBomGI1Jc9UNfbHdffgJavgSLwAPd51QbvnOd5MVbv-iWSlO9IBgxadCJYOeMWrFJCufAYr28N97c5QYu58D16rcEbWAo2gvQB2xjMNLrKXG00]--></g></svg>