<?xml version="1.0" encoding="us-ascii" standalone="no"?><svg xmlns="http://www.w3.org/2000/svg" xmlns:xlink="http://www.w3.org/1999/xlink" contentStyleType="text/css" height="186px" preserveAspectRatio="none" style="width:731px;height:186px;background:#FFFFFF;" version="1.1" viewBox="0 0 731 186" width="731px" zoomAndPan="magnify"><defs/><g><!--class RegistrerDispensasjon--><g id="elem_RegistrerDispensasjon"><rect codeLine="2" fill="#F1F1F1" height="64.4883" id="RegistrerDispensasjon" rx="2.5" ry="2.5" style="stroke:#181818;stroke-width:0.5;" width="215" x="7" y="7"/><ellipse cx="35.5" cy="23" fill="#ADD1B2" rx="11" ry="11" style="stroke:#181818;stroke-width:1.0;"/><path d="M37.9731,29.1431 Q37.3921,29.4419 36.7529,29.5913 Q36.1138,29.7407 35.4082,29.7407 Q32.9014,29.7407 31.5815,28.0889 Q30.2617,26.437 30.2617,23.3159 Q30.2617,20.1865 31.5815,18.5347 Q32.9014,16.8828 35.4082,16.8828 Q36.1138,16.8828 36.7612,17.0322 Q37.4087,17.1816 37.9731,17.4805 L37.9731,20.2031 Q37.3423,19.6221 36.7488,19.3523 Q36.1553,19.0825 35.5244,19.0825 Q34.1797,19.0825 33.4949,20.1492 Q32.8101,21.2158 32.8101,23.3159 Q32.8101,25.4077 33.4949,26.4744 Q34.1797,27.541 35.5244,27.541 Q36.1553,27.541 36.7488,27.2712 Q37.3423,27.0015 37.9731,26.4204 Z " fill="#000000"/><text fill="#000000" font-family="sans-serif" font-size="14" lengthAdjust="spacing" textLength="153" x="52.5" y="28.291">RegistrerDispensasjon</text><line style="stroke:#181818;stroke-width:0.5;" x1="8" x2="221" y1="39" y2="39"/><ellipse cx="18" cy="52.7441" fill="none" rx="3" ry="3" style="stroke:#038048;stroke-width:1.0;"/><text fill="#000000" font-family="sans-serif" font-size="14" lengthAdjust="spacing" textLength="189" x="27" y="56.5352">dispensasjon: Dispensasjon</text><line style="stroke:#181818;stroke-width:0.5;" x1="8" x2="221" y1="63.4883" y2="63.4883"/></g><!--class Dispensasjon--><g id="elem_Dispensasjon"><rect fill="#F1F1F1" height="48" id="Dispensasjon" rx="2.5" ry="2.5" style="stroke:#181818;stroke-width:0.5;" width="123" x="241" y="131.49"/><ellipse cx="256" cy="147.49" fill="#ADD1B2" rx="11" ry="11" style="stroke:#181818;stroke-width:1.0;"/><path d="M258.4731,153.6331 Q257.8921,153.9319 257.2529,154.0813 Q256.6138,154.2307 255.9082,154.2307 Q253.4014,154.2307 252.0815,152.5789 Q250.7617,150.927 250.7617,147.8059 Q250.7617,144.6765 252.0815,143.0247 Q253.4014,141.3728 255.9082,141.3728 Q256.6138,141.3728 257.2612,141.5222 Q257.9087,141.6716 258.4731,141.9705 L258.4731,144.6931 Q257.8423,144.1121 257.2488,143.8423 Q256.6553,143.5725 256.0244,143.5725 Q254.6797,143.5725 253.9949,144.6392 Q253.3101,145.7058 253.3101,147.8059 Q253.3101,149.8977 253.9949,150.9644 Q254.6797,152.031 256.0244,152.031 Q256.6553,152.031 257.2488,151.7612 Q257.8423,151.4915 258.4731,150.9104 Z " fill="#000000"/><text fill="#000000" font-family="sans-serif" font-size="14" lengthAdjust="spacing" textLength="91" x="270" y="152.781">Dispensasjon</text><line style="stroke:#181818;stroke-width:0.5;" x1="242" x2="363" y1="163.49" y2="163.49"/><line style="stroke:#181818;stroke-width:0.5;" x1="242" x2="363" y1="171.49" y2="171.49"/></g><g id="elem_GMN5"><path d="M256.5,26.59 L256.5,51.9005 A0,0 0 0 0 256.5,51.9005 L466.74,51.9005 L341.17,130.99 L474.74,51.9005 L724.5,51.9005 A0,0 0 0 0 724.5,51.9005 L724.5,36.59 L714.5,26.59 L256.5,26.59 A0,0 0 0 0 256.5,26.59 " fill="#FEFFDD" style="stroke:#181818;stroke-width:0.5;"/><path d="M714.5,26.59 L714.5,36.59 L724.5,36.59 L714.5,26.59 " fill="#FEFFDD" style="stroke:#181818;stroke-width:0.5;"/><text fill="#000000" font-family="sans-serif" font-size="13" lengthAdjust="spacing" textLength="447" x="262.5" y="44.1584">Se detaljer i diagram for skjema 'no.ks.fiks.plan.v2.felles.dispensasjon'</text></g><!--link RegistrerDispensasjon to Dispensasjon--><g id="link_RegistrerDispensasjon_Dispensasjon"><path codeLine="6" d="M166.37,71.77 C197.24,90.52 235.74,113.92 263.92,131.05 " fill="none" id="RegistrerDispensasjon-Dispensasjon" style="stroke:#181818;stroke-width:1.0;"/></g><!--SRC=[ROwn3iCW44Ft-mfl6QemTCpSBsY_u5IE248unA4kLVyz6ObK3nxiPydlp6PuoXgjDscFQ5MAiIKj-19EtVoGBHW9-X7zdyxp5QIYNT2rGiEbmOANm4lddAGXmaTU6-y8sc1Rafqn5NMRkH1FgvcB-znTa9p5tFXjeWC0]--></g></svg>