<svg xmlns="http://www.w3.org/2000/svg" xmlns:xlink="http://www.w3.org/1999/xlink" contentStyleType="text/css" height="881px" preserveAspectRatio="none" style="width:1906px;height:881px;background:#FFFFFF;" version="1.1" viewBox="0 0 1906 881" width="1906px" zoomAndPan="magnify"><defs/><g><!--class NasjonalArealplanId--><g id="elem_NasjonalArealplanId"><rect codeLine="1" fill="#F1F1F1" height="80.9766" id="NasjonalArealplanId" rx="2.5" ry="2.5" style="stroke:#181818;stroke-width:0.5;" width="292" x="7" y="603.27"/><ellipse cx="79.75" cy="619.27" fill="#ADD1B2" rx="11" ry="11" style="stroke:#181818;stroke-width:1.0;"/><path d="M82.2231,625.4131 Q81.6421,625.7119 81.0029,625.8613 Q80.3638,626.0107 79.6582,626.0107 Q77.1514,626.0107 75.8315,624.3589 Q74.5117,622.707 74.5117,619.5859 Q74.5117,616.4565 75.8315,614.8047 Q77.1514,613.1528 79.6582,613.1528 Q80.3638,613.1528 81.0112,613.3022 Q81.6587,613.4516 82.2231,613.7505 L82.2231,616.4731 Q81.5923,615.8921 80.9988,615.6223 Q80.4053,615.3525 79.7744,615.3525 Q78.4297,615.3525 77.7449,616.4192 Q77.0601,617.4858 77.0601,619.5859 Q77.0601,621.6777 77.7449,622.7444 Q78.4297,623.811 79.7744,623.811 Q80.4053,623.811 80.9988,623.5412 Q81.5923,623.2715 82.2231,622.6904 Z " fill="#000000"/><text fill="#000000" font-family="sans-serif" font-size="14" lengthAdjust="spacing" textLength="138" x="100.25" y="624.561">NasjonalArealplanId</text><line style="stroke:#181818;stroke-width:0.5;" x1="8" x2="298" y1="635.27" y2="635.27"/><ellipse cx="18" cy="649.0141" fill="none" rx="3" ry="3" style="stroke:#038048;stroke-width:1.0;"/><text fill="#000000" font-family="sans-serif" font-size="14" lengthAdjust="spacing" textLength="266" x="27" y="652.8052">administrativEnhet: AdministrativEnhet</text><ellipse cx="18" cy="665.5024" fill="none" rx="3" ry="3" style="stroke:#038048;stroke-width:1.0;"/><text fill="#000000" font-family="sans-serif" font-size="14" lengthAdjust="spacing" textLength="171" x="27" y="669.2934">planidentifikasjon: string</text><line style="stroke:#181818;stroke-width:0.5;" x1="8" x2="298" y1="676.2466" y2="676.2466"/></g><!--class AdministrativEnhet--><g id="elem_AdministrativEnhet"><rect codeLine="8" fill="#F1F1F1" height="97.4648" id="AdministrativEnhet" rx="2.5" ry="2.5" style="stroke:#181818;stroke-width:0.5;" width="162" x="72" y="777.23"/><ellipse cx="87" cy="793.23" fill="#EB937F" rx="11" ry="11" style="stroke:#181818;stroke-width:1.0;"/><path d="M90.6143,799.73 L82.8945,799.73 L82.8945,787.3369 L90.6143,787.3369 L90.6143,789.4951 L85.3433,789.4951 L85.3433,792.168 L90.1162,792.168 L90.1162,794.3262 L85.3433,794.3262 L85.3433,797.5718 L90.6143,797.5718 Z " fill="#000000"/><text fill="#000000" font-family="sans-serif" font-size="14" lengthAdjust="spacing" textLength="130" x="101" y="798.521">AdministrativEnhet</text><line style="stroke:#181818;stroke-width:0.5;" x1="73" x2="233" y1="809.23" y2="809.23"/><text fill="#000000" font-family="sans-serif" font-size="14" lengthAdjust="spacing" textLength="127" x="78" y="826.7652">kommunenummer</text><text fill="#000000" font-family="sans-serif" font-size="14" lengthAdjust="spacing" textLength="97" x="78" y="843.2534">fylkesnummer</text><text fill="#000000" font-family="sans-serif" font-size="14" lengthAdjust="spacing" textLength="71" x="78" y="859.7417">landskode</text><line style="stroke:#181818;stroke-width:0.5;" x1="73" x2="233" y1="866.6948" y2="866.6948"/></g><!--class Posisjon--><g id="elem_Posisjon"><rect codeLine="1" fill="#F1F1F1" height="97.4648" id="Posisjon" rx="2.5" ry="2.5" style="stroke:#181818;stroke-width:0.5;" width="263" x="334.5" y="595.03"/><ellipse cx="433.25" cy="611.03" fill="#ADD1B2" rx="11" ry="11" style="stroke:#181818;stroke-width:1.0;"/><path d="M435.7231,617.1731 Q435.1421,617.4719 434.5029,617.6213 Q433.8638,617.7707 433.1582,617.7707 Q430.6514,617.7707 429.3315,616.1189 Q428.0117,614.467 428.0117,611.3459 Q428.0117,608.2165 429.3315,606.5647 Q430.6514,604.9128 433.1582,604.9128 Q433.8638,604.9128 434.5112,605.0622 Q435.1587,605.2116 435.7231,605.5105 L435.7231,608.2331 Q435.0923,607.6521 434.4988,607.3823 Q433.9053,607.1125 433.2744,607.1125 Q431.9297,607.1125 431.2449,608.1792 Q430.5601,609.2458 430.5601,611.3459 Q430.5601,613.4377 431.2449,614.5044 Q431.9297,615.571 433.2744,615.571 Q433.9053,615.571 434.4988,615.3012 Q435.0923,615.0315 435.7231,614.4504 Z " fill="#000000"/><text fill="#000000" font-family="sans-serif" font-size="14" lengthAdjust="spacing" textLength="57" x="453.75" y="616.321">Posisjon</text><line style="stroke:#181818;stroke-width:0.5;" x1="335.5" x2="596.5" y1="627.03" y2="627.03"/><ellipse cx="345.5" cy="640.7741" fill="none" rx="3" ry="3" style="stroke:#038048;stroke-width:1.0;"/><text fill="#000000" font-family="sans-serif" font-size="14" lengthAdjust="spacing" textLength="127" x="354.5" y="644.5652">type: PosisjonType</text><ellipse cx="345.5" cy="657.2624" fill="none" rx="3" ry="3" style="stroke:#038048;stroke-width:1.0;"/><text fill="#000000" font-family="sans-serif" font-size="14" lengthAdjust="spacing" textLength="153" x="354.5" y="661.0534">koordinater: number[]</text><ellipse cx="345.5" cy="673.7507" fill="none" rx="3" ry="3" style="stroke:#038048;stroke-width:1.0;"/><text fill="#000000" font-family="sans-serif" font-size="14" lengthAdjust="spacing" textLength="237" x="354.5" y="677.5417">koordinatsystem: Koordinatsystem</text><line style="stroke:#181818;stroke-width:0.5;" x1="335.5" x2="596.5" y1="684.4948" y2="684.4948"/></g><!--class Koordinatsystem--><g id="elem_Koordinatsystem"><rect codeLine="10" fill="#F1F1F1" height="89.5977" id="Koordinatsystem" rx="2.5" ry="2.5" style="stroke:#181818;stroke-width:0.5;" width="184" x="347" y="781.16"/><ellipse cx="378.65" cy="801.4705" fill="#ADD1B2" rx="11" ry="11" style="stroke:#181818;stroke-width:1.0;"/><path d="M381.1231,807.6136 Q380.5421,807.9124 379.9029,808.0619 Q379.2638,808.2113 378.5582,808.2113 Q376.0514,808.2113 374.7315,806.5594 Q373.4117,804.9076 373.4117,801.7865 Q373.4117,798.6571 374.7315,797.0052 Q376.0514,795.3534 378.5582,795.3534 Q379.2638,795.3534 379.9112,795.5028 Q380.5587,795.6522 381.1231,795.951 L381.1231,798.6737 Q380.4923,798.0926 379.8988,797.8228 Q379.3053,797.5531 378.6744,797.5531 Q377.3297,797.5531 376.6449,798.6197 Q375.9601,799.6864 375.9601,801.7865 Q375.9601,803.8783 376.6449,804.9449 Q377.3297,806.0116 378.6744,806.0116 Q379.3053,806.0116 379.8988,805.7418 Q380.4923,805.472 381.1231,804.891 Z " fill="#000000"/><text fill="#000000" font-family="sans-serif" font-size="12" font-style="italic" lengthAdjust="spacing" textLength="42" x="432.85" y="797.7616">&#171;Kode&#187;</text><text fill="#000000" font-family="sans-serif" font-size="14" lengthAdjust="spacing" textLength="115" x="396.35" y="813.828">Koordinatsystem</text><line style="stroke:#181818;stroke-width:0.5;" x1="348" x2="530" y1="821.7811" y2="821.7811"/><ellipse cx="358" cy="835.5252" fill="none" rx="3" ry="3" style="stroke:#038048;stroke-width:1.0;"/><text fill="#000000" font-family="sans-serif" font-size="14" lengthAdjust="spacing" textLength="116" x="367" y="839.3163">kodeverdi: string</text><ellipse cx="358" cy="852.0135" fill="none" rx="3" ry="3" style="stroke:#038048;stroke-width:1.0;"/><text fill="#000000" font-family="sans-serif" font-size="14" lengthAdjust="spacing" textLength="158" x="367" y="855.8045">kodebeskrivelse: string</text><line style="stroke:#181818;stroke-width:0.5;" x1="348" x2="530" y1="862.7577" y2="862.7577"/></g><!--class PosisjonType--><g id="elem_PosisjonType"><rect codeLine="15" fill="#F1F1F1" height="64.4883" id="PosisjonType" rx="2.5" ry="2.5" style="stroke:#181818;stroke-width:0.5;" width="122" x="566" y="793.71"/><ellipse cx="581" cy="809.71" fill="#EB937F" rx="11" ry="11" style="stroke:#181818;stroke-width:1.0;"/><path d="M584.6143,816.21 L576.8945,816.21 L576.8945,803.8169 L584.6143,803.8169 L584.6143,805.9751 L579.3433,805.9751 L579.3433,808.648 L584.1162,808.648 L584.1162,810.8062 L579.3433,810.8062 L579.3433,814.0518 L584.6143,814.0518 Z " fill="#000000"/><text fill="#000000" font-family="sans-serif" font-size="14" lengthAdjust="spacing" textLength="90" x="595" y="815.001">PosisjonType</text><line style="stroke:#181818;stroke-width:0.5;" x1="567" x2="687" y1="825.71" y2="825.71"/><text fill="#000000" font-family="sans-serif" font-size="14" lengthAdjust="spacing" textLength="35" x="572" y="843.2452">Point</text><line style="stroke:#181818;stroke-width:0.5;" x1="567" x2="687" y1="850.1983" y2="850.1983"/></g><!--class Saksnummer--><g id="elem_Saksnummer"><rect codeLine="2" fill="#F1F1F1" height="80.9766" id="Saksnummer" rx="2.5" ry="2.5" style="stroke:#181818;stroke-width:0.5;" width="225" x="632.5" y="603.27"/><ellipse cx="696.25" cy="619.27" fill="#ADD1B2" rx="11" ry="11" style="stroke:#181818;stroke-width:1.0;"/><path d="M698.7231,625.4131 Q698.1421,625.7119 697.5029,625.8613 Q696.8638,626.0107 696.1582,626.0107 Q693.6514,626.0107 692.3315,624.3589 Q691.0117,622.707 691.0117,619.5859 Q691.0117,616.4565 692.3315,614.8047 Q693.6514,613.1528 696.1582,613.1528 Q696.8638,613.1528 697.5112,613.3022 Q698.1587,613.4516 698.7231,613.7505 L698.7231,616.4731 Q698.0923,615.8921 697.4988,615.6223 Q696.9053,615.3525 696.2744,615.3525 Q694.9297,615.3525 694.2449,616.4192 Q693.5601,617.4858 693.5601,619.5859 Q693.5601,621.6777 694.2449,622.7444 Q694.9297,623.811 696.2744,623.811 Q696.9053,623.811 697.4988,623.5412 Q698.0923,623.2715 698.7231,622.6904 Z " fill="#000000"/><text fill="#000000" font-family="sans-serif" font-size="14" lengthAdjust="spacing" textLength="89" x="716.75" y="624.561">Saksnummer</text><line style="stroke:#181818;stroke-width:0.5;" x1="633.5" x2="856.5" y1="635.27" y2="635.27"/><ellipse cx="643.5" cy="649.0141" fill="none" rx="3" ry="3" style="stroke:#038048;stroke-width:1.0;"/><text fill="#000000" font-family="sans-serif" font-size="14" lengthAdjust="spacing" textLength="109" x="652.5" y="652.8052">saksaar: integer</text><ellipse cx="643.5" cy="665.5024" fill="none" rx="3" ry="3" style="stroke:#038048;stroke-width:1.0;"/><text fill="#000000" font-family="sans-serif" font-size="14" lengthAdjust="spacing" textLength="199" x="652.5" y="669.2934">sakssekvensnummer: integer</text><line style="stroke:#181818;stroke-width:0.5;" x1="633.5" x2="856.5" y1="676.2466" y2="676.2466"/></g><!--class Dokument--><g id="elem_Dokument"><rect codeLine="1" fill="#F1F1F1" height="146.9297" id="Dokument" rx="2.5" ry="2.5" style="stroke:#181818;stroke-width:0.5;" width="335" x="892.5" y="570.3"/><ellipse cx="1020.25" cy="586.3" fill="#ADD1B2" rx="11" ry="11" style="stroke:#181818;stroke-width:1.0;"/><path d="M1022.7231,592.4431 Q1022.1421,592.7419 1021.5029,592.8913 Q1020.8638,593.0407 1020.1582,593.0407 Q1017.6514,593.0407 1016.3315,591.3889 Q1015.0117,589.737 1015.0117,586.6159 Q1015.0117,583.4865 1016.3315,581.8347 Q1017.6514,580.1828 1020.1582,580.1828 Q1020.8638,580.1828 1021.5112,580.3322 Q1022.1587,580.4816 1022.7231,580.7805 L1022.7231,583.5031 Q1022.0923,582.9221 1021.4988,582.6523 Q1020.9053,582.3825 1020.2744,582.3825 Q1018.9297,582.3825 1018.2449,583.4492 Q1017.5601,584.5158 1017.5601,586.6159 Q1017.5601,588.7077 1018.2449,589.7744 Q1018.9297,590.841 1020.2744,590.841 Q1020.9053,590.841 1021.4988,590.5712 Q1022.0923,590.3015 1022.7231,589.7204 Z " fill="#000000"/><text fill="#000000" font-family="sans-serif" font-size="14" lengthAdjust="spacing" textLength="71" x="1040.75" y="591.591">Dokument</text><line style="stroke:#181818;stroke-width:0.5;" x1="893.5" x2="1226.5" y1="602.3" y2="602.3"/><ellipse cx="903.5" cy="616.0441" fill="none" rx="3" ry="3" style="stroke:#038048;stroke-width:1.0;"/><text fill="#000000" font-family="sans-serif" font-size="14" lengthAdjust="spacing" textLength="79" x="912.5" y="619.8352">tittel: string</text><ellipse cx="903.5" cy="632.5324" fill="none" rx="3" ry="3" style="stroke:#038048;stroke-width:1.0;"/><text fill="#000000" font-family="sans-serif" font-size="14" lengthAdjust="spacing" textLength="207" x="912.5" y="636.3234">dokumenttype: Dokumenttype</text><ellipse cx="903.5" cy="649.0207" fill="none" rx="3" ry="3" style="stroke:#038048;stroke-width:1.0;"/><text fill="#000000" font-family="sans-serif" font-size="14" lengthAdjust="spacing" textLength="309" x="912.5" y="652.8117">referanseDokumentfil: ReferanseDokumentfil</text><ellipse cx="903.5" cy="665.509" fill="none" rx="3" ry="3" style="stroke:#038048;stroke-width:1.0;"/><text fill="#000000" font-family="sans-serif" font-size="14" lengthAdjust="spacing" textLength="115" x="912.5" y="669.3">mimetype: string</text><ellipse cx="903.5" cy="681.9973" fill="none" rx="3" ry="3" style="stroke:#038048;stroke-width:1.0;"/><text fill="#000000" font-family="sans-serif" font-size="14" lengthAdjust="spacing" textLength="146" x="912.5" y="685.7883">dokumentsdato: date</text><ellipse cx="903.5" cy="698.4855" fill="none" rx="3" ry="3" style="stroke:#038048;stroke-width:1.0;"/><text fill="#000000" font-family="sans-serif" font-size="14" lengthAdjust="spacing" textLength="114" x="912.5" y="702.2766">arkivnavn: string</text><line style="stroke:#181818;stroke-width:0.5;" x1="893.5" x2="1226.5" y1="709.2297" y2="709.2297"/></g><!--class Dokumenttype--><g id="elem_Dokumenttype"><rect codeLine="13" fill="#F1F1F1" height="89.5977" id="Dokumenttype" rx="2.5" ry="2.5" style="stroke:#181818;stroke-width:0.5;" width="184" x="775" y="781.16"/><ellipse cx="813.4" cy="801.4705" fill="#ADD1B2" rx="11" ry="11" style="stroke:#181818;stroke-width:1.0;"/><path d="M815.8731,807.6136 Q815.2921,807.9124 814.6529,808.0619 Q814.0138,808.2113 813.3082,808.2113 Q810.8014,808.2113 809.4815,806.5594 Q808.1617,804.9076 808.1617,801.7865 Q808.1617,798.6571 809.4815,797.0052 Q810.8014,795.3534 813.3082,795.3534 Q814.0138,795.3534 814.6612,795.5028 Q815.3087,795.6522 815.8731,795.951 L815.8731,798.6737 Q815.2423,798.0926 814.6488,797.8228 Q814.0553,797.5531 813.4244,797.5531 Q812.0797,797.5531 811.3949,798.6197 Q810.7101,799.6864 810.7101,801.7865 Q810.7101,803.8783 811.3949,804.9449 Q812.0797,806.0116 813.4244,806.0116 Q814.0553,806.0116 814.6488,805.7418 Q815.2423,805.472 815.8731,804.891 Z " fill="#000000"/><text fill="#000000" font-family="sans-serif" font-size="12" font-style="italic" lengthAdjust="spacing" textLength="42" x="861.6" y="797.7616">&#171;Kode&#187;</text><text fill="#000000" font-family="sans-serif" font-size="14" lengthAdjust="spacing" textLength="100" x="832.6" y="813.828">Dokumenttype</text><line style="stroke:#181818;stroke-width:0.5;" x1="776" x2="958" y1="821.7811" y2="821.7811"/><ellipse cx="786" cy="835.5252" fill="none" rx="3" ry="3" style="stroke:#038048;stroke-width:1.0;"/><text fill="#000000" font-family="sans-serif" font-size="14" lengthAdjust="spacing" textLength="116" x="795" y="839.3163">kodeverdi: string</text><ellipse cx="786" cy="852.0135" fill="none" rx="3" ry="3" style="stroke:#038048;stroke-width:1.0;"/><text fill="#000000" font-family="sans-serif" font-size="14" lengthAdjust="spacing" textLength="158" x="795" y="855.8045">kodebeskrivelse: string</text><line style="stroke:#181818;stroke-width:0.5;" x1="776" x2="958" y1="862.7577" y2="862.7577"/></g><!--class ReferanseDokumentfil--><g id="elem_ReferanseDokumentfil"><rect codeLine="18" fill="#F1F1F1" height="80.9766" id="ReferanseDokumentfil" rx="2.5" ry="2.5" style="stroke:#181818;stroke-width:0.5;" width="184" x="994" y="785.47"/><ellipse cx="1009" cy="801.47" fill="#ADD1B2" rx="11" ry="11" style="stroke:#181818;stroke-width:1.0;"/><path d="M1011.4731,807.6131 Q1010.8921,807.9119 1010.2529,808.0613 Q1009.6138,808.2107 1008.9082,808.2107 Q1006.4014,808.2107 1005.0815,806.5589 Q1003.7617,804.907 1003.7617,801.7859 Q1003.7617,798.6565 1005.0815,797.0047 Q1006.4014,795.3528 1008.9082,795.3528 Q1009.6138,795.3528 1010.2612,795.5022 Q1010.9087,795.6516 1011.4731,795.9505 L1011.4731,798.6731 Q1010.8423,798.0921 1010.2488,797.8223 Q1009.6553,797.5525 1009.0244,797.5525 Q1007.6797,797.5525 1006.9949,798.6192 Q1006.3101,799.6858 1006.3101,801.7859 Q1006.3101,803.8777 1006.9949,804.9444 Q1007.6797,806.011 1009.0244,806.011 Q1009.6553,806.011 1010.2488,805.7412 Q1010.8423,805.4715 1011.4731,804.8904 Z " fill="#000000"/><text fill="#000000" font-family="sans-serif" font-size="14" lengthAdjust="spacing" textLength="152" x="1023" y="806.761">ReferanseDokumentfil</text><line style="stroke:#181818;stroke-width:0.5;" x1="995" x2="1177" y1="817.47" y2="817.47"/><ellipse cx="1005" cy="831.2141" fill="none" rx="3" ry="3" style="stroke:#038048;stroke-width:1.0;"/><text fill="#000000" font-family="sans-serif" font-size="14" lengthAdjust="spacing" textLength="61" x="1014" y="835.0052">id: string</text><ellipse cx="1005" cy="847.7024" fill="none" rx="3" ry="3" style="stroke:#038048;stroke-width:1.0;"/><text fill="#000000" font-family="sans-serif" font-size="14" lengthAdjust="spacing" textLength="67" x="1014" y="851.4934">url: string</text><line style="stroke:#181818;stroke-width:0.5;" x1="995" x2="1177" y1="858.4466" y2="858.4466"/></g><!--class Dispensasjon--><g id="elem_Dispensasjon"><rect codeLine="6" fill="#F1F1F1" height="311.8125" id="Dispensasjon" rx="2.5" ry="2.5" style="stroke:#181818;stroke-width:0.5;" width="363" x="878.5" y="198.48"/><ellipse cx="1010.25" cy="214.48" fill="#ADD1B2" rx="11" ry="11" style="stroke:#181818;stroke-width:1.0;"/><path d="M1012.7231,220.6231 Q1012.1421,220.9219 1011.5029,221.0713 Q1010.8638,221.2207 1010.1582,221.2207 Q1007.6514,221.2207 1006.3315,219.5689 Q1005.0117,217.917 1005.0117,214.7959 Q1005.0117,211.6665 1006.3315,210.0147 Q1007.6514,208.3628 1010.1582,208.3628 Q1010.8638,208.3628 1011.5112,208.5122 Q1012.1587,208.6616 1012.7231,208.9605 L1012.7231,211.6831 Q1012.0923,211.1021 1011.4988,210.8323 Q1010.9053,210.5625 1010.2744,210.5625 Q1008.9297,210.5625 1008.2449,211.6292 Q1007.5601,212.6958 1007.5601,214.7959 Q1007.5601,216.8877 1008.2449,217.9544 Q1008.9297,219.021 1010.2744,219.021 Q1010.9053,219.021 1011.4988,218.7512 Q1012.0923,218.4815 1012.7231,217.9004 Z " fill="#000000"/><text fill="#000000" font-family="sans-serif" font-size="14" lengthAdjust="spacing" textLength="91" x="1030.75" y="219.771">Dispensasjon</text><line style="stroke:#181818;stroke-width:0.5;" x1="879.5" x2="1240.5" y1="230.48" y2="230.48"/><ellipse cx="889.5" cy="244.2241" fill="none" rx="3" ry="3" style="stroke:#038048;stroke-width:1.0;"/><text fill="#000000" font-family="sans-serif" font-size="14" lengthAdjust="spacing" textLength="141" x="898.5" y="248.0152">identifikasjon: string</text><ellipse cx="889.5" cy="260.7124" fill="none" rx="3" ry="3" style="stroke:#038048;stroke-width:1.0;"/><text fill="#000000" font-family="sans-serif" font-size="14" lengthAdjust="spacing" textLength="247" x="898.5" y="264.5034">dispensasjontype: Dispensasjontype</text><ellipse cx="889.5" cy="277.2007" fill="none" rx="3" ry="3" style="stroke:#038048;stroke-width:1.0;"/><text fill="#000000" font-family="sans-serif" font-size="14" lengthAdjust="spacing" textLength="337" x="898.5" y="280.9917">dispensasjonFraLovverk: DispensasjonFraLovverk</text><ellipse cx="889.5" cy="293.689" fill="none" rx="3" ry="3" style="stroke:#038048;stroke-width:1.0;"/><text fill="#000000" font-family="sans-serif" font-size="14" lengthAdjust="spacing" textLength="160" x="898.5" y="297.48">dispensasjonFra: string</text><ellipse cx="889.5" cy="310.1773" fill="none" rx="3" ry="3" style="stroke:#038048;stroke-width:1.0;"/><text fill="#000000" font-family="sans-serif" font-size="14" lengthAdjust="spacing" textLength="283" x="898.5" y="313.9683">nasjonalArealplanId: NasjonalArealplanId</text><ellipse cx="889.5" cy="326.6655" fill="none" rx="3" ry="3" style="stroke:#038048;stroke-width:1.0;"/><text fill="#000000" font-family="sans-serif" font-size="14" lengthAdjust="spacing" textLength="134" x="898.5" y="330.4566">begrunnelse: string</text><ellipse cx="889.5" cy="343.1538" fill="none" rx="3" ry="3" style="stroke:#038048;stroke-width:1.0;"/><text fill="#000000" font-family="sans-serif" font-size="14" lengthAdjust="spacing" textLength="125" x="898.5" y="346.9448">vedtaksdato:  date</text><ellipse cx="889.5" cy="359.6421" fill="none" rx="3" ry="3" style="stroke:#038048;stroke-width:1.0;"/><text fill="#000000" font-family="sans-serif" font-size="14" lengthAdjust="spacing" textLength="123" x="898.5" y="363.4331">posisjon: Posisjon</text><ellipse cx="889.5" cy="376.1304" fill="none" rx="3" ry="3" style="stroke:#038048;stroke-width:1.0;"/><text fill="#000000" font-family="sans-serif" font-size="14" lengthAdjust="spacing" textLength="182" x="898.5" y="379.9214">vertikalnivaa: Vertikalnivaa</text><ellipse cx="889.5" cy="392.6187" fill="none" rx="3" ry="3" style="stroke:#038048;stroke-width:1.0;"/><text fill="#000000" font-family="sans-serif" font-size="14" lengthAdjust="spacing" textLength="124" x="898.5" y="396.4097">beskrivelse: string</text><ellipse cx="889.5" cy="409.107" fill="none" rx="3" ry="3" style="stroke:#038048;stroke-width:1.0;"/><text fill="#000000" font-family="sans-serif" font-size="14" lengthAdjust="spacing" textLength="214" x="898.5" y="412.898">innvilgetDispensasjon: boolean</text><ellipse cx="889.5" cy="425.5952" fill="none" rx="3" ry="3" style="stroke:#038048;stroke-width:1.0;"/><text fill="#000000" font-family="sans-serif" font-size="14" lengthAdjust="spacing" textLength="185" x="898.5" y="429.3863">saksnummer: Saksnummer</text><ellipse cx="889.5" cy="442.0835" fill="none" rx="3" ry="3" style="stroke:#038048;stroke-width:1.0;"/><text fill="#000000" font-family="sans-serif" font-size="14" lengthAdjust="spacing" textLength="189" x="898.5" y="445.8745">varigDispensasjon: boolean</text><ellipse cx="889.5" cy="458.5718" fill="none" rx="3" ry="3" style="stroke:#038048;stroke-width:1.0;"/><text fill="#000000" font-family="sans-serif" font-size="14" lengthAdjust="spacing" textLength="116" x="898.5" y="462.3628">varighetFra: date</text><ellipse cx="889.5" cy="475.0601" fill="none" rx="3" ry="3" style="stroke:#038048;stroke-width:1.0;"/><text fill="#000000" font-family="sans-serif" font-size="14" lengthAdjust="spacing" textLength="111" x="898.5" y="478.8511">varighetTil: date</text><ellipse cx="889.5" cy="491.5484" fill="none" rx="3" ry="3" style="stroke:#038048;stroke-width:1.0;"/><text fill="#000000" font-family="sans-serif" font-size="14" lengthAdjust="spacing" textLength="203" x="898.5" y="495.3394">plandokumenter: Dokument[]</text><line style="stroke:#181818;stroke-width:0.5;" x1="879.5" x2="1240.5" y1="502.2925" y2="502.2925"/></g><path d="M411,296.11 L411,352.0416 A0,0 0 0 0 411,352.0416 L843,352.0416 A0,0 0 0 0 843,352.0416 L843,328.0758 L882.5,259.2124 L843,320.0758 L843,306.11 L833,296.11 L411,296.11 A0,0 0 0 0 411,296.11 " fill="#FEFFDD" style="stroke:#181818;stroke-width:0.5;"/><path d="M833,296.11 L833,306.11 L843,306.11 L833,296.11 " fill="#FEFFDD" style="stroke:#181818;stroke-width:0.5;"/><text fill="#000000" font-family="sans-serif" font-size="13" lengthAdjust="spacing" textLength="273" x="417" y="313.6784">dispensasjontype er hentet fra Planregister.</text><text fill="#000000" font-family="sans-serif" font-size="13" lengthAdjust="spacing" textLength="411" x="417" y="328.9889">Denne kodelisten er gyldig kun n&#229;r man dispenserer fra arealplan</text><text fill="#000000" font-family="sans-serif" font-size="13" lengthAdjust="spacing" textLength="225" x="417" y="344.2995">I SOSI 4.5 heter denne dispensasjon</text><path d="M411,362.0416 L411,402.6627 A0,0 0 0 0 411,402.6627 L836,402.6627 A0,0 0 0 0 836,402.6627 L836,386.3522 L882.5,275.7007 L836,378.3522 L836,372.0416 L826,362.0416 L411,362.0416 A0,0 0 0 0 411,362.0416 " fill="#FEFFDD" style="stroke:#181818;stroke-width:0.5;"/><path d="M826,362.0416 L826,372.0416 L836,372.0416 L826,362.0416 " fill="#FEFFDD" style="stroke:#181818;stroke-width:0.5;"/><text fill="#000000" font-family="sans-serif" font-size="13" lengthAdjust="spacing" textLength="404" x="417" y="379.61">dispensasajonFraLovverk: se kodelisten dispensasjonfralovverk.</text><text fill="#000000" font-family="sans-serif" font-size="13" lengthAdjust="spacing" textLength="353" x="417" y="394.9205">Opprinnelig hentet fra eByggesak. Finnes ikke i SOSI 4.5</text><g id="elem_GMN19"><path d="M581.5,6 L581.5,138.4844 A0,0 0 0 0 581.5,138.4844 L897.53,138.4844 L945.26,198.11 L905.53,138.4844 L1124.5,138.4844 A0,0 0 0 0 1124.5,138.4844 L1124.5,16 L1114.5,6 L581.5,6 A0,0 0 0 0 581.5,6 " fill="#FEFFDD" style="stroke:#181818;stroke-width:0.5;"/><path d="M1114.5,6 L1114.5,16 L1124.5,16 L1114.5,6 " fill="#FEFFDD" style="stroke:#181818;stroke-width:0.5;"/><text fill="#000000" font-family="sans-serif" font-size="13" lengthAdjust="spacing" textLength="106" x="587.5" y="23.5684">dispensasjonFra:</text><text fill="#000000" font-family="sans-serif" font-size="13" lengthAdjust="spacing" textLength="181" x="587.5" y="38.8789">Hentet fra SOSI 4.5 (dispFra):</text><text fill="#000000" font-family="sans-serif" font-size="13" lengthAdjust="spacing" textLength="340" x="587.5" y="54.1895">&#8221;dispFra&#8221; skal ha verdi dersom dispensasjonen gjelder</text><text fill="#000000" font-family="sans-serif" font-size="13" lengthAdjust="spacing" textLength="228" x="587.5" y="69.5">&#8217;Arealbruk kommune(del)plan=140&#8217;,</text><text fill="#000000" font-family="sans-serif" font-size="13" lengthAdjust="spacing" textLength="259" x="587.5" y="84.8105">&#8217;Regulerings/bebyggelsesplan=160&#8217; eller</text><text fill="#000000" font-family="sans-serif" font-size="13" lengthAdjust="spacing" textLength="126" x="587.5" y="100.1211">&#8217;Hensynssone=170&#8217;</text><text fill="#000000" font-family="sans-serif" font-size="13" lengthAdjust="spacing" textLength="522" x="587.5" y="115.4316">dispensasjonFra kan inneholde en utvidet beskrivelse om hva det er dispensert fra,</text><text fill="#000000" font-family="sans-serif" font-size="13" lengthAdjust="spacing" textLength="140" x="587.5" y="130.7422">f.eks. lovparagraf osv.</text></g><!--class DispensasjonType--><g id="elem_DispensasjonType"><rect codeLine="55" fill="#F1F1F1" height="89.5977" id="DispensasjonType" rx="2.5" ry="2.5" style="stroke:#181818;stroke-width:0.5;" width="184" x="1263" y="598.96"/><ellipse cx="1290.6" cy="619.2705" fill="#ADD1B2" rx="11" ry="11" style="stroke:#181818;stroke-width:1.0;"/><path d="M1293.0731,625.4136 Q1292.4921,625.7124 1291.8529,625.8619 Q1291.2138,626.0113 1290.5082,626.0113 Q1288.0014,626.0113 1286.6815,624.3594 Q1285.3617,622.7076 1285.3617,619.5865 Q1285.3617,616.4571 1286.6815,614.8052 Q1288.0014,613.1534 1290.5082,613.1534 Q1291.2138,613.1534 1291.8612,613.3028 Q1292.5087,613.4522 1293.0731,613.751 L1293.0731,616.4737 Q1292.4423,615.8926 1291.8488,615.6228 Q1291.2553,615.3531 1290.6244,615.3531 Q1289.2797,615.3531 1288.5949,616.4197 Q1287.9101,617.4864 1287.9101,619.5865 Q1287.9101,621.6783 1288.5949,622.7449 Q1289.2797,623.8116 1290.6244,623.8116 Q1291.2553,623.8116 1291.8488,623.5418 Q1292.4423,623.272 1293.0731,622.691 Z " fill="#000000"/><text fill="#000000" font-family="sans-serif" font-size="12" font-style="italic" lengthAdjust="spacing" textLength="42" x="1348.4" y="615.5616">&#171;Kode&#187;</text><text fill="#000000" font-family="sans-serif" font-size="14" lengthAdjust="spacing" textLength="124" x="1307.4" y="631.628">DispensasjonType</text><line style="stroke:#181818;stroke-width:0.5;" x1="1264" x2="1446" y1="639.5811" y2="639.5811"/><ellipse cx="1274" cy="653.3252" fill="none" rx="3" ry="3" style="stroke:#038048;stroke-width:1.0;"/><text fill="#000000" font-family="sans-serif" font-size="14" lengthAdjust="spacing" textLength="116" x="1283" y="657.1163">kodeverdi: string</text><ellipse cx="1274" cy="669.8135" fill="none" rx="3" ry="3" style="stroke:#038048;stroke-width:1.0;"/><text fill="#000000" font-family="sans-serif" font-size="14" lengthAdjust="spacing" textLength="158" x="1283" y="673.6045">kodebeskrivelse: string</text><line style="stroke:#181818;stroke-width:0.5;" x1="1264" x2="1446" y1="680.5577" y2="680.5577"/></g><!--class DispensasjonFraLovverk--><g id="elem_DispensasjonFraLovverk"><rect codeLine="60" fill="#F1F1F1" height="89.5977" id="DispensasjonFraLovverk" rx="2.5" ry="2.5" style="stroke:#181818;stroke-width:0.5;" width="197" x="1482.5" y="598.96"/><ellipse cx="1497.5" cy="619.2705" fill="#ADD1B2" rx="11" ry="11" style="stroke:#181818;stroke-width:1.0;"/><path d="M1499.9731,625.4136 Q1499.3921,625.7124 1498.7529,625.8619 Q1498.1138,626.0113 1497.4082,626.0113 Q1494.9014,626.0113 1493.5815,624.3594 Q1492.2617,622.7076 1492.2617,619.5865 Q1492.2617,616.4571 1493.5815,614.8052 Q1494.9014,613.1534 1497.4082,613.1534 Q1498.1138,613.1534 1498.7612,613.3028 Q1499.4087,613.4522 1499.9731,613.751 L1499.9731,616.4737 Q1499.3423,615.8926 1498.7488,615.6228 Q1498.1553,615.3531 1497.5244,615.3531 Q1496.1797,615.3531 1495.4949,616.4197 Q1494.8101,617.4864 1494.8101,619.5865 Q1494.8101,621.6783 1495.4949,622.7449 Q1496.1797,623.8116 1497.5244,623.8116 Q1498.1553,623.8116 1498.7488,623.5418 Q1499.3423,623.272 1499.9731,622.691 Z " fill="#000000"/><text fill="#000000" font-family="sans-serif" font-size="12" font-style="italic" lengthAdjust="spacing" textLength="42" x="1573" y="615.5616">&#171;Kode&#187;</text><text fill="#000000" font-family="sans-serif" font-size="14" lengthAdjust="spacing" textLength="165" x="1511.5" y="631.628">DispensasjonFraLovverk</text><line style="stroke:#181818;stroke-width:0.5;" x1="1483.5" x2="1678.5" y1="639.5811" y2="639.5811"/><ellipse cx="1493.5" cy="653.3252" fill="none" rx="3" ry="3" style="stroke:#038048;stroke-width:1.0;"/><text fill="#000000" font-family="sans-serif" font-size="14" lengthAdjust="spacing" textLength="116" x="1502.5" y="657.1163">kodeverdi: string</text><ellipse cx="1493.5" cy="669.8135" fill="none" rx="3" ry="3" style="stroke:#038048;stroke-width:1.0;"/><text fill="#000000" font-family="sans-serif" font-size="14" lengthAdjust="spacing" textLength="158" x="1502.5" y="673.6045">kodebeskrivelse: string</text><line style="stroke:#181818;stroke-width:0.5;" x1="1483.5" x2="1678.5" y1="680.5577" y2="680.5577"/></g><!--class Vertikalnivaa--><g id="elem_Vertikalnivaa"><rect codeLine="65" fill="#F1F1F1" height="89.5977" id="Vertikalnivaa" rx="2.5" ry="2.5" style="stroke:#181818;stroke-width:0.5;" width="184" x="1715" y="598.96"/><ellipse cx="1758.8" cy="619.2705" fill="#ADD1B2" rx="11" ry="11" style="stroke:#181818;stroke-width:1.0;"/><path d="M1761.2731,625.4136 Q1760.6921,625.7124 1760.0529,625.8619 Q1759.4138,626.0113 1758.7082,626.0113 Q1756.2014,626.0113 1754.8815,624.3594 Q1753.5617,622.7076 1753.5617,619.5865 Q1753.5617,616.4571 1754.8815,614.8052 Q1756.2014,613.1534 1758.7082,613.1534 Q1759.4138,613.1534 1760.0612,613.3028 Q1760.7087,613.4522 1761.2731,613.751 L1761.2731,616.4737 Q1760.6423,615.8926 1760.0488,615.6228 Q1759.4553,615.3531 1758.8244,615.3531 Q1757.4797,615.3531 1756.7949,616.4197 Q1756.1101,617.4864 1756.1101,619.5865 Q1756.1101,621.6783 1756.7949,622.7449 Q1757.4797,623.8116 1758.8244,623.8116 Q1759.4553,623.8116 1760.0488,623.5418 Q1760.6423,623.272 1761.2731,622.691 Z " fill="#000000"/><text fill="#000000" font-family="sans-serif" font-size="12" font-style="italic" lengthAdjust="spacing" textLength="42" x="1802.2" y="615.5616">&#171;Kode&#187;</text><text fill="#000000" font-family="sans-serif" font-size="14" lengthAdjust="spacing" textLength="88" x="1779.2" y="631.628">Vertikalnivaa</text><line style="stroke:#181818;stroke-width:0.5;" x1="1716" x2="1898" y1="639.5811" y2="639.5811"/><ellipse cx="1726" cy="653.3252" fill="none" rx="3" ry="3" style="stroke:#038048;stroke-width:1.0;"/><text fill="#000000" font-family="sans-serif" font-size="14" lengthAdjust="spacing" textLength="116" x="1735" y="657.1163">kodeverdi: string</text><ellipse cx="1726" cy="669.8135" fill="none" rx="3" ry="3" style="stroke:#038048;stroke-width:1.0;"/><text fill="#000000" font-family="sans-serif" font-size="14" lengthAdjust="spacing" textLength="158" x="1735" y="673.6045">kodebeskrivelse: string</text><line style="stroke:#181818;stroke-width:0.5;" x1="1716" x2="1898" y1="680.5577" y2="680.5577"/></g><!--class RegistrerDispensasjon--><g id="elem_RegistrerDispensasjon"><rect codeLine="3" fill="#F1F1F1" height="64.4883" id="RegistrerDispensasjon" rx="2.5" ry="2.5" style="stroke:#181818;stroke-width:0.5;" width="215" x="1159.5" y="40"/><ellipse cx="1188" cy="56" fill="#ADD1B2" rx="11" ry="11" style="stroke:#181818;stroke-width:1.0;"/><path d="M1190.4731,62.1431 Q1189.8921,62.4419 1189.2529,62.5913 Q1188.6138,62.7407 1187.9082,62.7407 Q1185.4014,62.7407 1184.0815,61.0889 Q1182.7617,59.437 1182.7617,56.3159 Q1182.7617,53.1865 1184.0815,51.5347 Q1185.4014,49.8828 1187.9082,49.8828 Q1188.6138,49.8828 1189.2612,50.0322 Q1189.9087,50.1816 1190.4731,50.4805 L1190.4731,53.2031 Q1189.8423,52.6221 1189.2488,52.3523 Q1188.6553,52.0825 1188.0244,52.0825 Q1186.6797,52.0825 1185.9949,53.1492 Q1185.3101,54.2158 1185.3101,56.3159 Q1185.3101,58.4077 1185.9949,59.4744 Q1186.6797,60.541 1188.0244,60.541 Q1188.6553,60.541 1189.2488,60.2712 Q1189.8423,60.0015 1190.4731,59.4204 Z " fill="#000000"/><text fill="#000000" font-family="sans-serif" font-size="14" lengthAdjust="spacing" textLength="153" x="1205" y="61.291">RegistrerDispensasjon</text><line style="stroke:#181818;stroke-width:0.5;" x1="1160.5" x2="1373.5" y1="72" y2="72"/><ellipse cx="1170.5" cy="85.7441" fill="none" rx="3" ry="3" style="stroke:#038048;stroke-width:1.0;"/><text fill="#000000" font-family="sans-serif" font-size="14" lengthAdjust="spacing" textLength="189" x="1179.5" y="89.5352">dispensasjon: Dispensasjon</text><line style="stroke:#181818;stroke-width:0.5;" x1="1160.5" x2="1373.5" y1="96.4883" y2="96.4883"/></g><!--link NasjonalArealplanId to AdministrativEnhet--><g id="link_NasjonalArealplanId_AdministrativEnhet"><path codeLine="6" d="M153,684.31 C153,711.55 153,747.92 153,776.85 " fill="none" id="NasjonalArealplanId-AdministrativEnhet" style="stroke:#181818;stroke-width:1.0;"/></g><!--link Posisjon to Koordinatsystem--><g id="link_Posisjon_Koordinatsystem"><path codeLine="7" d="M458.84,692.58 C454.73,720 449.61,754.18 445.6,780.94 " fill="none" id="Posisjon-Koordinatsystem" style="stroke:#181818;stroke-width:1.0;"/></g><!--link Posisjon to PosisjonType--><g id="link_Posisjon_PosisjonType"><path codeLine="8" d="M508.72,692.58 C537.23,724.48 573.91,765.54 598.81,793.41 " fill="none" id="Posisjon-PosisjonType" style="stroke:#181818;stroke-width:1.0;"/></g><!--link Dokument to Dokumenttype--><g id="link_Dokument_Dokumenttype"><path codeLine="10" d="M982.06,717.53 C959.14,738.93 934.78,761.67 914.4,780.7 " fill="none" id="Dokument-Dokumenttype" style="stroke:#181818;stroke-width:1.0;"/></g><!--link Dokument to ReferanseDokumentfil--><g id="link_Dokument_ReferanseDokumentfil"><path codeLine="11" d="M1070.5,717.53 C1073.83,740.59 1077.38,765.21 1080.24,785.06 " fill="none" id="Dokument-ReferanseDokumentfil" style="stroke:#181818;stroke-width:1.0;"/></g><!--link Dispensasjon to DispensasjonType--><g id="link_Dispensasjon_DispensasjonType"><path codeLine="47" d="M1219.16,510.43 C1252.36,542.77 1284.77,574.34 1309.6,598.53 " fill="none" id="Dispensasjon-DispensasjonType" style="stroke:#181818;stroke-width:1.0;"/></g><!--link Dispensasjon to DispensasjonFraLovverk--><g id="link_Dispensasjon_DispensasjonFraLovverk"><path codeLine="48" d="M1241.93,448.44 C1312.23,485.3 1392.94,528.74 1465,570.3 C1480.32,579.13 1496.55,588.96 1511.86,598.46 " fill="none" id="Dispensasjon-DispensasjonFraLovverk" style="stroke:#181818;stroke-width:1.0;"/></g><!--link Dispensasjon to Vertikalnivaa--><g id="link_Dispensasjon_Vertikalnivaa"><path codeLine="49" d="M1242,403.24 C1372.14,440.68 1549.62,498.39 1697,570.3 C1713.44,578.32 1730.35,588.4 1745.83,598.48 " fill="none" id="Dispensasjon-Vertikalnivaa" style="stroke:#181818;stroke-width:1.0;"/></g><!--link Dispensasjon to NasjonalArealplanId--><g id="link_Dispensasjon_NasjonalArealplanId"><path codeLine="50" d="M878.25,502.63 C872.53,505.38 866.78,507.95 861,510.3 C635.62,601.79 551.88,507.07 317,570.3 C287.69,578.18 256.92,590.58 230.05,602.9 " fill="none" id="Dispensasjon-NasjonalArealplanId" style="stroke:#181818;stroke-width:1.0;"/></g><!--link Dispensasjon to Posisjon--><g id="link_Dispensasjon_Posisjon"><path codeLine="51" d="M878.1,501.48 C872.42,504.59 866.72,507.53 861,510.3 C759.68,559.28 720.87,532.14 615,570.3 C595.92,577.17 576.05,585.76 557.27,594.59 " fill="none" id="Dispensasjon-Posisjon" style="stroke:#181818;stroke-width:1.0;"/></g><!--link Dispensasjon to Saksnummer--><g id="link_Dispensasjon_Saksnummer"><path codeLine="52" d="M890.05,510.43 C852.42,544.76 815.75,578.22 788.69,602.91 " fill="none" id="Dispensasjon-Saksnummer" style="stroke:#181818;stroke-width:1.0;"/></g><!--link Dispensasjon to Dokument--><g id="link_Dispensasjon_Dokument"><path codeLine="53" d="M1060,510.43 C1060,531.24 1060,551.73 1060,570.14 " fill="none" id="Dispensasjon-Dokument" style="stroke:#181818;stroke-width:1.0;"/></g><!--link RegistrerDispensasjon to Dispensasjon--><g id="link_RegistrerDispensasjon_Dispensasjon"><path codeLine="7" d="M1243.66,104.83 C1226.21,128.44 1200.94,162.65 1174.69,198.17 " fill="none" id="RegistrerDispensasjon-Dispensasjon" style="stroke:#181818;stroke-width:1.0;"/></g><!--SRC=[KypCIyufJKbLqDFNqzFFozVBBjPBomGI1Jc9UNfbHdffgJavgSLwAPd51QbvnOd5MVbv-iWSlO9IBgxadCJYOeMWrFJCufAYr28N97c5QYu58D16rcEbWAo2gvQB2xjMNLrKXG00]--></g></svg>