<svg xmlns="http://www.w3.org/2000/svg" xmlns:xlink="http://www.w3.org/1999/xlink" contentStyleType="text/css" data-diagram-type="SEQUENCE" height="393px" preserveAspectRatio="none" style="width:488px;height:393px;background:#FFFFFF;" version="1.1" viewBox="0 0 488 393" width="488px" zoomAndPan="magnify"><defs/><g><rect fill="none" height="258.0176" style="stroke:#000000;stroke-width:1.5;" width="471.1538" x="10" y="82.7988"/><g><title>Fagsystem</title><rect fill="#000000" fill-opacity="0.00000" height="63.6211" width="8" x="58.8306" y="36.4883"/><line style="stroke:#181818;stroke-width:0.5;stroke-dasharray:5.0,5.0;" x1="62" x2="62" y1="36.4883" y2="100.1094"/></g><line style="stroke:#A80036;stroke-width:1;stroke-dasharray:1.0,4.0;" x1="62" x2="62" y1="100.1094" y2="141.0645"/><g><title>Fagsystem</title><rect fill="#000000" fill-opacity="0.00000" height="44.2656" width="8" x="58.8306" y="141.0645"/><line style="stroke:#181818;stroke-width:0.5;stroke-dasharray:5.0,5.0;" x1="62" x2="62" y1="141.0645" y2="185.3301"/></g><line style="stroke:#A80036;stroke-width:1;stroke-dasharray:1.0,4.0;" x1="62" x2="62" y1="185.3301" y2="226.2852"/><g><title>Fagsystem</title><rect fill="#000000" fill-opacity="0.00000" height="44.2656" width="8" x="58.8306" y="226.2852"/><line style="stroke:#181818;stroke-width:0.5;stroke-dasharray:5.0,5.0;" x1="62" x2="62" y1="226.2852" y2="270.5508"/></g><line style="stroke:#A80036;stroke-width:1;stroke-dasharray:1.0,4.0;" x1="62" x2="62" y1="270.5508" y2="311.5059"/><g><title>Fagsystem</title><rect fill="#000000" fill-opacity="0.00000" height="46.3105" width="8" x="58.8306" y="311.5059"/><line style="stroke:#181818;stroke-width:0.5;stroke-dasharray:5.0,5.0;" x1="62" x2="62" y1="311.5059" y2="357.8164"/></g><g><title>Planregister</title><rect fill="#000000" fill-opacity="0.00000" height="63.6211" width="8" x="419.9482" y="36.4883"/><line style="stroke:#181818;stroke-width:0.5;stroke-dasharray:5.0,5.0;" x1="423.7427" x2="423.7427" y1="36.4883" y2="100.1094"/></g><line style="stroke:#A80036;stroke-width:1;stroke-dasharray:1.0,4.0;" x1="423.7427" x2="423.7427" y1="100.1094" y2="141.0645"/><g><title>Planregister</title><rect fill="#000000" fill-opacity="0.00000" height="44.2656" width="8" x="419.9482" y="141.0645"/><line style="stroke:#181818;stroke-width:0.5;stroke-dasharray:5.0,5.0;" x1="423.7427" x2="423.7427" y1="141.0645" y2="185.3301"/></g><line style="stroke:#A80036;stroke-width:1;stroke-dasharray:1.0,4.0;" x1="423.7427" x2="423.7427" y1="185.3301" y2="226.2852"/><g><title>Planregister</title><rect fill="#000000" fill-opacity="0.00000" height="44.2656" width="8" x="419.9482" y="226.2852"/><line style="stroke:#181818;stroke-width:0.5;stroke-dasharray:5.0,5.0;" x1="423.7427" x2="423.7427" y1="226.2852" y2="270.5508"/></g><line style="stroke:#A80036;stroke-width:1;stroke-dasharray:1.0,4.0;" x1="423.7427" x2="423.7427" y1="270.5508" y2="311.5059"/><g><title>Planregister</title><rect fill="#000000" fill-opacity="0.00000" height="46.3105" width="8" x="419.9482" y="311.5059"/><line style="stroke:#181818;stroke-width:0.5;stroke-dasharray:5.0,5.0;" x1="423.7427" x2="423.7427" y1="311.5059" y2="357.8164"/></g><g class="participant participant-head" data-participant="Fagsystem"><rect fill="#E2E2F0" height="30.4883" rx="2.5" ry="2.5" style="stroke:#181818;stroke-width:0.5;" width="85.6611" x="20" y="5"/><text fill="#000000" font-family="sans-serif" font-size="14" lengthAdjust="spacing" textLength="71.6611" x="27" y="25.5352">Fagsystem</text></g><g class="participant participant-tail" data-participant="Fagsystem"><rect fill="#E2E2F0" height="30.4883" rx="2.5" ry="2.5" style="stroke:#181818;stroke-width:0.5;" width="85.6611" x="20" y="356.8164"/><text fill="#000000" font-family="sans-serif" font-size="14" lengthAdjust="spacing" textLength="71.6611" x="27" y="377.3516">Fagsystem</text></g><g class="participant participant-head" data-participant="Planregister"><rect fill="#E2E2F0" height="30.4883" rx="2.5" ry="2.5" style="stroke:#181818;stroke-width:0.5;" width="94.4111" x="376.7427" y="5"/><text fill="#000000" font-family="sans-serif" font-size="14" lengthAdjust="spacing" textLength="80.4111" x="383.7427" y="25.5352">Planregister</text></g><g class="participant participant-tail" data-participant="Planregister"><rect fill="#E2E2F0" height="30.4883" rx="2.5" ry="2.5" style="stroke:#181818;stroke-width:0.5;" width="94.4111" x="376.7427" y="356.8164"/><text fill="#000000" font-family="sans-serif" font-size="14" lengthAdjust="spacing" textLength="80.4111" x="383.7427" y="377.3516">Planregister</text></g><g class="message" data-participant-1="Fagsystem" data-participant-2="Planregister"><polygon fill="#181818" points="411.9482,63.7988,421.9482,67.7988,411.9482,71.7988,415.9482,67.7988" style="stroke:#181818;stroke-width:1;"/><line style="stroke:#181818;stroke-width:1;" x1="62.8306" x2="417.9482" y1="67.7988" y2="67.7988"/><text fill="#000000" font-family="sans-serif" font-size="13" lengthAdjust="spacing" textLength="285.0859" x="69.8306" y="63.0566">no.ks.fiks.plan.v2.innsyn.dispensasjoner.finn</text></g><path d="M10,82.7988 L72.1387,82.7988 L72.1387,90.1094 L62.1387,100.1094 L10,100.1094 L10,82.7988" fill="#EEEEEE" style="stroke:#000000;stroke-width:1.5;"/><rect fill="none" height="258.0176" style="stroke:#000000;stroke-width:1.5;" width="471.1538" x="10" y="82.7988"/><text fill="#000000" font-family="sans-serif" font-size="13" font-weight="bold" lengthAdjust="spacing" textLength="17.1387" x="25" y="96.3672">alt</text><text fill="#000000" font-family="sans-serif" font-size="11" font-weight="bold" lengthAdjust="spacing" textLength="140.0405" x="87.1387" y="95.4336">[Finn dispensasjoner ok]</text><text fill="#000000" font-family="sans-serif" font-size="11" lengthAdjust="spacing" textLength="161.0791" x="162.8499" y="124.7441">resultat-melding med innhold</text><g class="message" data-participant-1="Planregister" data-participant-2="Fagsystem"><polygon fill="#181818" points="73.8306,158.375,63.8306,162.375,73.8306,166.375,69.8306,162.375" style="stroke:#181818;stroke-width:1;"/><line style="stroke:#181818;stroke-width:1;" x1="67.8306" x2="422.9482" y1="162.375" y2="162.375"/><text fill="#000000" font-family="sans-serif" font-size="13" lengthAdjust="spacing" textLength="337.1177" x="79.8306" y="157.6328">no.ks.fiks.plan.v2.innsyn.dispensasjoner.finn.resultat</text></g><line style="stroke:#000000;stroke-width:1;stroke-dasharray:2.0,2.0;" x1="10" x2="481.1538" y1="171.375" y2="171.375"/><text fill="#000000" font-family="sans-serif" font-size="11" font-weight="bold" lengthAdjust="spacing" textLength="218.394" x="15" y="182.0098">[Feil: finn-meldingen var ikke korrekt]</text><text fill="#000000" font-family="sans-serif" font-size="11" lengthAdjust="spacing" textLength="137.0649" x="174.8569" y="209.9648">feil-melding med innhold</text><g class="message" data-participant-1="Planregister" data-participant-2="Fagsystem"><polygon fill="#181818" points="73.8306,243.5957,63.8306,247.5957,73.8306,251.5957,69.8306,247.5957" style="stroke:#181818;stroke-width:1;"/><line style="stroke:#181818;stroke-width:1;" x1="67.8306" x2="422.9482" y1="247.5957" y2="247.5957"/><text fill="#000000" font-family="sans-serif" font-size="13" lengthAdjust="spacing" textLength="315.7261" x="79.8306" y="242.8535">no.ks.fiks.plan.v2.feilmelding.ugyldigforespoersel</text></g><line style="stroke:#000000;stroke-width:1;stroke-dasharray:2.0,2.0;" x1="10" x2="481.1538" y1="256.5957" y2="256.5957"/><text fill="#000000" font-family="sans-serif" font-size="11" font-weight="bold" lengthAdjust="spacing" textLength="186.479" x="15" y="267.2305">[Feil: planregister fikk serverfeil]</text><text fill="#000000" font-family="sans-serif" font-size="11" lengthAdjust="spacing" textLength="137.0649" x="174.8569" y="295.1855">feil-melding med innhold</text><g class="message" data-participant-1="Planregister" data-participant-2="Fagsystem"><polygon fill="#181818" points="73.8306,328.8164,63.8306,332.8164,73.8306,336.8164,69.8306,332.8164" style="stroke:#181818;stroke-width:1;"/><line style="stroke:#181818;stroke-width:1;" x1="67.8306" x2="422.9482" y1="332.8164" y2="332.8164"/><text fill="#000000" font-family="sans-serif" font-size="13" lengthAdjust="spacing" textLength="248.6631" x="79.8306" y="328.0742">no.ks.fiks.plan.v2.feilmelding.serverfeil</text></g><!--SRC=[jOwnRiCm34HtVGL_m1mw1aL7p_q50JghYcJA81K3_llIG1iaSzg5EE8ETs-EsGuRM6dweCyMHP6B_teXwLoDb-9dSuFtDouYTWYdOXl4ebsxG3qY4a9iWsPNzEnIhu6P5NPh8uvfHKj5Cgr8vEcltfBR8SntaFVf5P3xKWXe1ffHseLEvtSQGdjKAhM2QbT57IVXui4_eZkhVfhubWyNUUdEjNMeeJsHRGzbZbah6NI7dXt_YFKm4Y3f6m00]--></g></svg>