<svg xmlns="http://www.w3.org/2000/svg" xmlns:xlink="http://www.w3.org/1999/xlink" contentStyleType="text/css" data-diagram-type="JSON" height="593px" preserveAspectRatio="none" style="width:729px;height:593px;background:#FFFFFF;" version="1.1" viewBox="0 0 729 593" width="729px" zoomAndPan="magnify"><defs/><g><rect fill="#F1F1F1" height="81.9531" rx="5" ry="5" style="stroke:#F1F1F1;stroke-width:1.5;" width="220.7168" x="10" y="223.5"/><text fill="#000000" font-family="sans-serif" font-size="14" font-weight="bold" lengthAdjust="spacing" textLength="101.0283" x="15" y="239.0352">protokollnavn</text><text fill="#000000" font-family="sans-serif" font-size="14" lengthAdjust="spacing" textLength="99.6885" x="126.0283" y="239.0352">no.ks.fiks.plan</text><line style="stroke:#000000;stroke-width:1;" x1="121.0283" x2="121.0283" y1="223.5" y2="243.9883"/><line style="stroke:#000000;stroke-width:1;" x1="10" x2="230.7168" y1="243.9883" y2="243.9883"/><text fill="#000000" font-family="sans-serif" font-size="14" font-weight="bold" lengthAdjust="spacing" textLength="34.9248" x="15" y="259.5234">navn</text><text fill="#000000" font-family="sans-serif" font-size="14" lengthAdjust="spacing" textLength="83.9727" x="126.0283" y="259.5234">planstatuser</text><line style="stroke:#000000;stroke-width:1;" x1="121.0283" x2="121.0283" y1="243.9883" y2="264.4766"/><line style="stroke:#000000;stroke-width:1;" x1="10" x2="230.7168" y1="264.4766" y2="264.4766"/><text fill="#000000" font-family="sans-serif" font-size="14" font-weight="bold" lengthAdjust="spacing" textLength="53.5869" x="15" y="280.0117">versjon</text><text fill="#000000" font-family="sans-serif" font-size="14" lengthAdjust="spacing" textLength="16.0986" x="126.0283" y="280.0117">v2</text><line style="stroke:#000000;stroke-width:1;" x1="121.0283" x2="121.0283" y1="264.4766" y2="284.9648"/><line style="stroke:#000000;stroke-width:1;" x1="10" x2="230.7168" y1="284.9648" y2="284.9648"/><text fill="#000000" font-family="sans-serif" font-size="14" font-weight="bold" lengthAdjust="spacing" textLength="66.1787" x="15" y="300.5">kodeliste</text><text fill="#000000" font-family="sans-serif" font-size="14" lengthAdjust="spacing" textLength="13.2891" x="126.0283" y="300.5">&#160;&#160;&#160;</text><line style="stroke:#000000;stroke-width:1;" x1="121.0283" x2="121.0283" y1="284.9648" y2="305.4531"/><rect fill="none" height="81.9531" rx="5" ry="5" style="stroke:#000000;stroke-width:1.5;" width="220.7168" x="10" y="223.5"/><rect fill="#F1F1F1" height="204.8828" rx="5" ry="5" style="stroke:#F1F1F1;stroke-width:1.5;" width="23.2891" x="268" y="193"/><text fill="#000000" font-family="sans-serif" font-size="14" lengthAdjust="spacing" textLength="13.2891" x="273" y="208.5352">&#160;&#160;&#160;</text><line style="stroke:#000000;stroke-width:1;" x1="268" x2="291.2891" y1="213.4883" y2="213.4883"/><text fill="#000000" font-family="sans-serif" font-size="14" lengthAdjust="spacing" textLength="13.2891" x="273" y="229.0234">&#160;&#160;&#160;</text><line style="stroke:#000000;stroke-width:1;" x1="268" x2="291.2891" y1="233.9766" y2="233.9766"/><text fill="#000000" font-family="sans-serif" font-size="14" lengthAdjust="spacing" textLength="13.2891" x="273" y="249.5117">&#160;&#160;&#160;</text><line style="stroke:#000000;stroke-width:1;" x1="268" x2="291.2891" y1="254.4648" y2="254.4648"/><text fill="#000000" font-family="sans-serif" font-size="14" lengthAdjust="spacing" textLength="13.2891" x="273" y="270">&#160;&#160;&#160;</text><line style="stroke:#000000;stroke-width:1;" x1="268" x2="291.2891" y1="274.9531" y2="274.9531"/><text fill="#000000" font-family="sans-serif" font-size="14" lengthAdjust="spacing" textLength="13.2891" x="273" y="290.4883">&#160;&#160;&#160;</text><line style="stroke:#000000;stroke-width:1;" x1="268" x2="291.2891" y1="295.4414" y2="295.4414"/><text fill="#000000" font-family="sans-serif" font-size="14" lengthAdjust="spacing" textLength="13.2891" x="273" y="310.9766">&#160;&#160;&#160;</text><line style="stroke:#000000;stroke-width:1;" x1="268" x2="291.2891" y1="315.9297" y2="315.9297"/><text fill="#000000" font-family="sans-serif" font-size="14" lengthAdjust="spacing" textLength="13.2891" x="273" y="331.4648">&#160;&#160;&#160;</text><line style="stroke:#000000;stroke-width:1;" x1="268" x2="291.2891" y1="336.418" y2="336.418"/><text fill="#000000" font-family="sans-serif" font-size="14" lengthAdjust="spacing" textLength="13.2891" x="273" y="351.9531">&#160;&#160;&#160;</text><line style="stroke:#000000;stroke-width:1;" x1="268" x2="291.2891" y1="356.9063" y2="356.9063"/><text fill="#000000" font-family="sans-serif" font-size="14" lengthAdjust="spacing" textLength="13.2891" x="273" y="372.4414">&#160;&#160;&#160;</text><line style="stroke:#000000;stroke-width:1;" x1="268" x2="291.2891" y1="377.3945" y2="377.3945"/><text fill="#000000" font-family="sans-serif" font-size="14" lengthAdjust="spacing" textLength="13.2891" x="273" y="392.9297">&#160;&#160;&#160;</text><rect fill="none" height="204.8828" rx="5" ry="5" style="stroke:#000000;stroke-width:1.5;" width="23.2891" x="268" y="193"/><rect fill="#F1F1F1" height="40.9766" rx="5" ry="5" style="stroke:#F1F1F1;stroke-width:1.5;" width="216.1641" x="414.5" y="10"/><text fill="#000000" font-family="sans-serif" font-size="14" font-weight="bold" lengthAdjust="spacing" textLength="71.9824" x="419.5" y="25.5352">kodeverdi</text><text fill="#000000" font-family="sans-serif" font-size="14" lengthAdjust="spacing" textLength="8.8525" x="547.1328" y="25.5352">0</text><line style="stroke:#000000;stroke-width:1;" x1="542.1328" x2="542.1328" y1="10" y2="30.4883"/><line style="stroke:#000000;stroke-width:1;" x1="414.5" x2="630.6641" y1="30.4883" y2="30.4883"/><text fill="#000000" font-family="sans-serif" font-size="14" font-weight="bold" lengthAdjust="spacing" textLength="117.6328" x="419.5" y="46.0234">kodebeskrivelse</text><text fill="#000000" font-family="sans-serif" font-size="14" lengthAdjust="spacing" textLength="78.5313" x="547.1328" y="46.0234">Planinitiativ</text><line style="stroke:#000000;stroke-width:1;" x1="542.1328" x2="542.1328" y1="30.4883" y2="50.9766"/><rect fill="none" height="40.9766" rx="5" ry="5" style="stroke:#000000;stroke-width:1.5;" width="216.1641" x="414.5" y="10"/><rect fill="#F1F1F1" height="40.9766" rx="5" ry="5" style="stroke:#F1F1F1;stroke-width:1.5;" width="284.3047" x="380.5" y="69"/><text fill="#000000" font-family="sans-serif" font-size="14" font-weight="bold" lengthAdjust="spacing" textLength="71.9824" x="385.5" y="84.5352">kodeverdi</text><text fill="#000000" font-family="sans-serif" font-size="14" lengthAdjust="spacing" textLength="8.8525" x="513.1328" y="84.5352">1</text><line style="stroke:#000000;stroke-width:1;" x1="508.1328" x2="508.1328" y1="69" y2="89.4883"/><line style="stroke:#000000;stroke-width:1;" x1="380.5" x2="664.8047" y1="89.4883" y2="89.4883"/><text fill="#000000" font-family="sans-serif" font-size="14" font-weight="bold" lengthAdjust="spacing" textLength="117.6328" x="385.5" y="105.0234">kodebeskrivelse</text><text fill="#000000" font-family="sans-serif" font-size="14" lengthAdjust="spacing" textLength="146.6719" x="513.1328" y="105.0234">Planlegging igangsatt</text><line style="stroke:#000000;stroke-width:1;" x1="508.1328" x2="508.1328" y1="89.4883" y2="109.9766"/><rect fill="none" height="40.9766" rx="5" ry="5" style="stroke:#000000;stroke-width:1.5;" width="284.3047" x="380.5" y="69"/><rect fill="#F1F1F1" height="40.9766" rx="5" ry="5" style="stroke:#F1F1F1;stroke-width:1.5;" width="212.958" x="416" y="128"/><text fill="#000000" font-family="sans-serif" font-size="14" font-weight="bold" lengthAdjust="spacing" textLength="71.9824" x="421" y="143.5352">kodeverdi</text><text fill="#000000" font-family="sans-serif" font-size="14" lengthAdjust="spacing" textLength="8.8525" x="548.6328" y="143.5352">2</text><line style="stroke:#000000;stroke-width:1;" x1="543.6328" x2="543.6328" y1="128" y2="148.4883"/><line style="stroke:#000000;stroke-width:1;" x1="416" x2="628.958" y1="148.4883" y2="148.4883"/><text fill="#000000" font-family="sans-serif" font-size="14" font-weight="bold" lengthAdjust="spacing" textLength="117.6328" x="421" y="164.0234">kodebeskrivelse</text><text fill="#000000" font-family="sans-serif" font-size="14" lengthAdjust="spacing" textLength="75.3252" x="548.6328" y="164.0234">Planforslag</text><line style="stroke:#000000;stroke-width:1;" x1="543.6328" x2="543.6328" y1="148.4883" y2="168.9766"/><rect fill="none" height="40.9766" rx="5" ry="5" style="stroke:#000000;stroke-width:1.5;" width="212.958" x="416" y="128"/><rect fill="#F1F1F1" height="40.9766" rx="5" ry="5" style="stroke:#F1F1F1;stroke-width:1.5;" width="305.8174" x="369.5" y="187"/><text fill="#000000" font-family="sans-serif" font-size="14" font-weight="bold" lengthAdjust="spacing" textLength="71.9824" x="374.5" y="202.5352">kodeverdi</text><text fill="#000000" font-family="sans-serif" font-size="14" lengthAdjust="spacing" textLength="8.8525" x="502.1328" y="202.5352">3</text><line style="stroke:#000000;stroke-width:1;" x1="497.1328" x2="497.1328" y1="187" y2="207.4883"/><line style="stroke:#000000;stroke-width:1;" x1="369.5" x2="675.3174" y1="207.4883" y2="207.4883"/><text fill="#000000" font-family="sans-serif" font-size="14" font-weight="bold" lengthAdjust="spacing" textLength="117.6328" x="374.5" y="223.0234">kodebeskrivelse</text><text fill="#000000" font-family="sans-serif" font-size="14" lengthAdjust="spacing" textLength="168.1846" x="502.1328" y="223.0234">Endelig vedtatt arealplan</text><line style="stroke:#000000;stroke-width:1;" x1="497.1328" x2="497.1328" y1="207.4883" y2="227.9766"/><rect fill="none" height="40.9766" rx="5" ry="5" style="stroke:#000000;stroke-width:1.5;" width="305.8174" x="369.5" y="187"/><rect fill="#F1F1F1" height="40.9766" rx="5" ry="5" style="stroke:#F1F1F1;stroke-width:1.5;" width="202.9023" x="421" y="246"/><text fill="#000000" font-family="sans-serif" font-size="14" font-weight="bold" lengthAdjust="spacing" textLength="71.9824" x="426" y="261.5352">kodeverdi</text><text fill="#000000" font-family="sans-serif" font-size="14" lengthAdjust="spacing" textLength="8.8525" x="553.6328" y="261.5352">4</text><line style="stroke:#000000;stroke-width:1;" x1="548.6328" x2="548.6328" y1="246" y2="266.4883"/><line style="stroke:#000000;stroke-width:1;" x1="421" x2="623.9023" y1="266.4883" y2="266.4883"/><text fill="#000000" font-family="sans-serif" font-size="14" font-weight="bold" lengthAdjust="spacing" textLength="117.6328" x="426" y="282.0234">kodebeskrivelse</text><text fill="#000000" font-family="sans-serif" font-size="14" lengthAdjust="spacing" textLength="65.2695" x="553.6328" y="282.0234">Opphevet</text><line style="stroke:#000000;stroke-width:1;" x1="548.6328" x2="548.6328" y1="266.4883" y2="286.9766"/><rect fill="none" height="40.9766" rx="5" ry="5" style="stroke:#000000;stroke-width:1.5;" width="202.9023" x="421" y="246"/><rect fill="#F1F1F1" height="40.9766" rx="5" ry="5" style="stroke:#F1F1F1;stroke-width:1.5;" width="243.9863" x="400.5" y="305"/><text fill="#000000" font-family="sans-serif" font-size="14" font-weight="bold" lengthAdjust="spacing" textLength="71.9824" x="405.5" y="320.5352">kodeverdi</text><text fill="#000000" font-family="sans-serif" font-size="14" lengthAdjust="spacing" textLength="8.8525" x="533.1328" y="320.5352">5</text><line style="stroke:#000000;stroke-width:1;" x1="528.1328" x2="528.1328" y1="305" y2="325.4883"/><line style="stroke:#000000;stroke-width:1;" x1="400.5" x2="644.4863" y1="325.4883" y2="325.4883"/><text fill="#000000" font-family="sans-serif" font-size="14" font-weight="bold" lengthAdjust="spacing" textLength="117.6328" x="405.5" y="341.0234">kodebeskrivelse</text><text fill="#000000" font-family="sans-serif" font-size="14" lengthAdjust="spacing" textLength="106.3535" x="533.1328" y="341.0234">Utg&#229;tt/erstattet</text><line style="stroke:#000000;stroke-width:1;" x1="528.1328" x2="528.1328" y1="325.4883" y2="345.9766"/><rect fill="none" height="40.9766" rx="5" ry="5" style="stroke:#000000;stroke-width:1.5;" width="243.9863" x="400.5" y="305"/><rect fill="#F1F1F1" height="40.9766" rx="5" ry="5" style="stroke:#F1F1F1;stroke-width:1.5;" width="389.2773" x="328" y="364"/><text fill="#000000" font-family="sans-serif" font-size="14" font-weight="bold" lengthAdjust="spacing" textLength="71.9824" x="333" y="379.5352">kodeverdi</text><text fill="#000000" font-family="sans-serif" font-size="14" lengthAdjust="spacing" textLength="8.8525" x="460.6328" y="379.5352">6</text><line style="stroke:#000000;stroke-width:1;" x1="455.6328" x2="455.6328" y1="364" y2="384.4883"/><line style="stroke:#000000;stroke-width:1;" x1="328" x2="717.2773" y1="384.4883" y2="384.4883"/><text fill="#000000" font-family="sans-serif" font-size="14" font-weight="bold" lengthAdjust="spacing" textLength="117.6328" x="333" y="400.0234">kodebeskrivelse</text><text fill="#000000" font-family="sans-serif" font-size="14" lengthAdjust="spacing" textLength="251.6445" x="460.6328" y="400.0234">Vedtatt plan med utsatt rettsvirkning</text><line style="stroke:#000000;stroke-width:1;" x1="455.6328" x2="455.6328" y1="384.4883" y2="404.9766"/><rect fill="none" height="40.9766" rx="5" ry="5" style="stroke:#000000;stroke-width:1.5;" width="389.2773" x="328" y="364"/><rect fill="#F1F1F1" height="40.9766" rx="5" ry="5" style="stroke:#F1F1F1;stroke-width:1.5;" width="199.9355" x="422.5" y="423"/><text fill="#000000" font-family="sans-serif" font-size="14" font-weight="bold" lengthAdjust="spacing" textLength="71.9824" x="427.5" y="438.5352">kodeverdi</text><text fill="#000000" font-family="sans-serif" font-size="14" lengthAdjust="spacing" textLength="8.8525" x="555.1328" y="438.5352">8</text><line style="stroke:#000000;stroke-width:1;" x1="550.1328" x2="550.1328" y1="423" y2="443.4883"/><line style="stroke:#000000;stroke-width:1;" x1="422.5" x2="622.4355" y1="443.4883" y2="443.4883"/><text fill="#000000" font-family="sans-serif" font-size="14" font-weight="bold" lengthAdjust="spacing" textLength="117.6328" x="427.5" y="459.0234">kodebeskrivelse</text><text fill="#000000" font-family="sans-serif" font-size="14" lengthAdjust="spacing" textLength="62.3027" x="555.1328" y="459.0234">Overstyrt</text><line style="stroke:#000000;stroke-width:1;" x1="550.1328" x2="550.1328" y1="443.4883" y2="463.9766"/><rect fill="none" height="40.9766" rx="5" ry="5" style="stroke:#000000;stroke-width:1.5;" width="199.9355" x="422.5" y="423"/><rect fill="#F1F1F1" height="40.9766" rx="5" ry="5" style="stroke:#F1F1F1;stroke-width:1.5;" width="178.2041" x="433.5" y="482"/><text fill="#000000" font-family="sans-serif" font-size="14" font-weight="bold" lengthAdjust="spacing" textLength="71.9824" x="438.5" y="497.5352">kodeverdi</text><text fill="#000000" font-family="sans-serif" font-size="14" lengthAdjust="spacing" textLength="8.8525" x="566.1328" y="497.5352">9</text><line style="stroke:#000000;stroke-width:1;" x1="561.1328" x2="561.1328" y1="482" y2="502.4883"/><line style="stroke:#000000;stroke-width:1;" x1="433.5" x2="611.7041" y1="502.4883" y2="502.4883"/><text fill="#000000" font-family="sans-serif" font-size="14" font-weight="bold" lengthAdjust="spacing" textLength="117.6328" x="438.5" y="518.0234">kodebeskrivelse</text><text fill="#000000" font-family="sans-serif" font-size="14" lengthAdjust="spacing" textLength="40.5713" x="566.1328" y="518.0234">Avvist</text><line style="stroke:#000000;stroke-width:1;" x1="561.1328" x2="561.1328" y1="502.4883" y2="522.9766"/><rect fill="none" height="40.9766" rx="5" ry="5" style="stroke:#000000;stroke-width:1.5;" width="178.2041" x="433.5" y="482"/><rect fill="#F1F1F1" height="40.9766" rx="5" ry="5" style="stroke:#F1F1F1;stroke-width:1.5;" width="253.2559" x="396" y="541"/><text fill="#000000" font-family="sans-serif" font-size="14" font-weight="bold" lengthAdjust="spacing" textLength="71.9824" x="401" y="556.5352">kodeverdi</text><text fill="#000000" font-family="sans-serif" font-size="14" lengthAdjust="spacing" textLength="17.7051" x="528.6328" y="556.5352">10</text><line style="stroke:#000000;stroke-width:1;" x1="523.6328" x2="523.6328" y1="541" y2="561.4883"/><line style="stroke:#000000;stroke-width:1;" x1="396" x2="649.2559" y1="561.4883" y2="561.4883"/><text fill="#000000" font-family="sans-serif" font-size="14" font-weight="bold" lengthAdjust="spacing" textLength="117.6328" x="401" y="577.0234">kodebeskrivelse</text><text fill="#000000" font-family="sans-serif" font-size="14" lengthAdjust="spacing" textLength="115.623" x="528.6328" y="577.0234">Trukket/uaktuelt</text><line style="stroke:#000000;stroke-width:1;" x1="523.6328" x2="523.6328" y1="561.4883" y2="581.9766"/><rect fill="none" height="40.9766" rx="5" ry="5" style="stroke:#000000;stroke-width:1.5;" width="253.2559" x="396" y="541"/><path d="M279,203.5 L292,203.5 C357.9697,203.5 279.1547,103.8412 328,59.5 C349.584,39.9062 378.4244,30.1735 407.2552,25.8978" fill="none" style="stroke:#000000;stroke-width:1;stroke-dasharray:3.0,3.0;"/><path d="M407.6627,28.9873 L409.5723,25.5922 L406.8478,22.8084 L414.9789,24.8792 L407.6627,28.9873" fill="#000000" style="stroke:#000000;stroke-width:1;"/><ellipse cx="279" cy="203.5" fill="#000000" rx="3" ry="3" style="stroke:#000000;stroke-width:1;"/><path d="M279,223.5 L292,223.5 C341.3333,223.5 290.0917,150.0712 328,118.5 C341.1617,107.5385 356.6403,99.7648 373.0172,94.3495" fill="none" style="stroke:#000000;stroke-width:1;stroke-dasharray:3.0,3.0;"/><path d="M373.9473,97.3825 L375.292,93.6519 L372.0871,91.3164 L380.5999,92.0243 L373.9473,97.3825" fill="#000000" style="stroke:#000000;stroke-width:1;"/><ellipse cx="279" cy="223.5" fill="#000000" rx="3" ry="3" style="stroke:#000000;stroke-width:1;"/><path d="M279,244.5 L292,244.5 C325.8041,244.5 300.352,196.9501 328,177.5 C351.4588,160.9969 380.4804,152.2139 408.8652,147.8574" fill="none" style="stroke:#000000;stroke-width:1;stroke-dasharray:3.0,3.0;"/><path d="M409.2909,150.8933 L411.1422,147.5381 L408.4395,144.8214 L416.4551,146.7931 L409.2909,150.8933" fill="#000000" style="stroke:#000000;stroke-width:1;"/><ellipse cx="279" cy="244.5" fill="#000000" rx="3" ry="3" style="stroke:#000000;stroke-width:1;"/><path d="M279,264.5 L292,264.5 C312,264.5 309.5668,245.26 328,237.5 C338.9901,232.8733 350.6,228.951 362.4549,225.6268" fill="none" style="stroke:#000000;stroke-width:1;stroke-dasharray:3.0,3.0;"/><path d="M363.2523,228.5907 L364.6778,225.0288 L361.6575,222.663 L369.8645,223.6334 L363.2523,228.5907" fill="#000000" style="stroke:#000000;stroke-width:1;"/><ellipse cx="279" cy="264.5" fill="#000000" rx="3" ry="3" style="stroke:#000000;stroke-width:1;"/><path d="M279,285.5 L292,285.5 C331.8162,285.5 375.3782,282.637 413.7783,279.1336" fill="none" style="stroke:#000000;stroke-width:1;stroke-dasharray:3.0,3.0;"/><path d="M414.0617,282.1771 L416.0609,278.9211 L413.4949,276.0902 L421.3868,278.4251 L414.0617,282.1771" fill="#000000" style="stroke:#000000;stroke-width:1;"/><ellipse cx="279" cy="285.5" fill="#000000" rx="3" ry="3" style="stroke:#000000;stroke-width:1;"/><path d="M279,305.5 L292,305.5 C324.7464,305.5 360.0172,307.537 392.8657,310.3109" fill="none" style="stroke:#000000;stroke-width:1;stroke-dasharray:3.0,3.0;"/><path d="M392.5935,313.4513 L395.221,310.5151 L393.138,307.1705 L400.7168,310.9915 L392.5935,313.4513" fill="#000000" style="stroke:#000000;stroke-width:1;"/><ellipse cx="279" cy="305.5" fill="#000000" rx="3" ry="3" style="stroke:#000000;stroke-width:1;"/><path d="M279,326.5 L292,326.5 C312.5456,326.5 309.1839,347.2491 328,355.5 C332.9316,357.6625 337.9941,359.6685 343.1526,361.5291" fill="none" style="stroke:#000000;stroke-width:1;stroke-dasharray:3.0,3.0;"/><path d="M342.1734,364.3653 L345.2798,362.2636 L344.1319,358.693 L350.2431,363.9772 L342.1734,364.3653" fill="#000000" style="stroke:#000000;stroke-width:1;"/><ellipse cx="279" cy="326.5" fill="#000000" rx="3" ry="3" style="stroke:#000000;stroke-width:1;"/><path d="M279,346.5 L292,346.5 C326.1962,346.5 300.092,394.7383 328,414.5 C353.1089,432.2796 384.6568,441.1219 414.9719,445.1206" fill="none" style="stroke:#000000;stroke-width:1;stroke-dasharray:3.0,3.0;"/><path d="M414.606,448.191 L417.2747,445.395 L415.3378,442.0502 L422.648,446.0354 L414.606,448.191" fill="#000000" style="stroke:#000000;stroke-width:1;"/><ellipse cx="279" cy="346.5" fill="#000000" rx="3" ry="3" style="stroke:#000000;stroke-width:1;"/><path d="M279,367.5 L292,367.5 C341.754,367.5 289.8147,441.6043 328,473.5 C354.9716,496.0291 391.7224,505.1073 425.9855,507.918" fill="none" style="stroke:#000000;stroke-width:1;stroke-dasharray:3.0,3.0;"/><path d="M425.7721,511.0084 L428.3033,508.078 L426.1988,504.8276 L433.7114,508.4513 L425.7721,511.0084" fill="#000000" style="stroke:#000000;stroke-width:1;"/><ellipse cx="279" cy="367.5" fill="#000000" rx="3" ry="3" style="stroke:#000000;stroke-width:1;"/><path d="M279,387.5 L292,387.5 C358.401,387.5 278.8717,487.8291 328,532.5 C344.9213,547.8861 366.3157,557.1953 388.6717,562.5571" fill="none" style="stroke:#000000;stroke-width:1;stroke-dasharray:3.0,3.0;"/><path d="M388.0036,565.6025 L390.9557,563.0582 L389.3397,559.5118 L396.285,564.2272 L388.0036,565.6025" fill="#000000" style="stroke:#000000;stroke-width:1;"/><ellipse cx="279" cy="387.5" fill="#000000" rx="3" ry="3" style="stroke:#000000;stroke-width:1;"/><path d="M219,295.5 L232,295.5 C241.399,295.5 251.8552,295.5 260.5144,295.5" fill="none" style="stroke:#000000;stroke-width:1;stroke-dasharray:3.0,3.0;"/><path d="M260.5144,298.5633 L262.8119,295.5 L260.5144,292.4367 L268.1727,295.5 L260.5144,298.5633" fill="#000000" style="stroke:#000000;stroke-width:1;"/><ellipse cx="219" cy="295.5" fill="#000000" rx="3" ry="3" style="stroke:#000000;stroke-width:1;"/><!--SRC=[ZPFDJXin4CVlVehHda22a6n8IFT42scbD6aGJNAfUZ3iP6lMiIDxR0aX7gTFqXVhU27jRRENESn_vkVvyhKdwUZ9MoDU142sTvPiRRKsCfgiWCpONkrxMyLchwN9pbBKGKmU1b3mwDwKYCu_sKQC-PkhjYLgvGdP-OCT02-DVPSuerGPS4A_YVydFA2ldOgeFJRo7J-cZ28bISMiYNmzQ-CDZlCqLfKo5QXAcifBeYxS_3XtQvtNikf26xRJfYPDhuA89G-QG3gKkjb41_PbEtkvt__Yw4vDZzfHQwh-_2QwuFMdChinn-tCpNlBgLlOOGc1qeh08P6FojLy3fr6F3aoXdIqzEmwrVoXdVKnHZxrJjTvvDnNBjGrqaMGDGNK1oRRd-9LNACfcryhqhdHUZ67r8Mo1WQzl9-FUld9AY3CU7JzAnXCYk6e68xXPhg299-AaoztS_0sk4U4acjswY4Gvv-AcOmIxeCXjSC2bdiqizkl1mTC3O_UcXqQ4hFDud_0-FByaoBuZeuhWSr2tE9M1asSyMXBNbK1wzNdyucOyryBic8s6d5ZcUkU2_Ys_0i0]--></g></svg>