<?xml version="1.0" encoding="us-ascii" standalone="no"?><svg xmlns="http://www.w3.org/2000/svg" xmlns:xlink="http://www.w3.org/1999/xlink" contentStyleType="text/css" height="593px" preserveAspectRatio="none" style="width:726px;height:593px;background:#FFFFFF;" version="1.1" viewBox="0 0 726 593" width="726px" zoomAndPan="magnify"><defs/><g><rect fill="#F1F1F1" height="81.9531" rx="5" ry="5" style="stroke:#F1F1F1;stroke-width:1.5;" width="220" x="10" y="223.5"/><text fill="#000000" font-family="sans-serif" font-size="14" font-weight="bold" lengthAdjust="spacing" textLength="101" x="15" y="239.0352">protokollnavn</text><text fill="#000000" font-family="sans-serif" font-size="14" lengthAdjust="spacing" textLength="99" x="126" y="239.0352">no.ks.fiks.plan</text><line style="stroke:#000000;stroke-width:1.0;" x1="121" x2="121" y1="223.5" y2="243.9883"/><line style="stroke:#000000;stroke-width:1.0;" x1="10" x2="230" y1="243.9883" y2="243.9883"/><text fill="#000000" font-family="sans-serif" font-size="14" font-weight="bold" lengthAdjust="spacing" textLength="34" x="15" y="259.5234">navn</text><text fill="#000000" font-family="sans-serif" font-size="14" lengthAdjust="spacing" textLength="85" x="126" y="259.5234">planstatuser</text><line style="stroke:#000000;stroke-width:1.0;" x1="121" x2="121" y1="243.9883" y2="264.4766"/><line style="stroke:#000000;stroke-width:1.0;" x1="10" x2="230" y1="264.4766" y2="264.4766"/><text fill="#000000" font-family="sans-serif" font-size="14" font-weight="bold" lengthAdjust="spacing" textLength="53" x="15" y="280.0117">versjon</text><text fill="#000000" font-family="sans-serif" font-size="14" lengthAdjust="spacing" textLength="16" x="126" y="280.0117">v2</text><line style="stroke:#000000;stroke-width:1.0;" x1="121" x2="121" y1="264.4766" y2="284.9648"/><line style="stroke:#000000;stroke-width:1.0;" x1="10" x2="230" y1="284.9648" y2="284.9648"/><text fill="#000000" font-family="sans-serif" font-size="14" font-weight="bold" lengthAdjust="spacing" textLength="67" x="15" y="300.5">kodeliste</text><text fill="#000000" font-family="sans-serif" font-size="14" lengthAdjust="spacing" textLength="12" x="126" y="300.5">&#160;&#160;&#160;</text><line style="stroke:#000000;stroke-width:1.0;" x1="121" x2="121" y1="284.9648" y2="305.4531"/><rect fill="none" height="81.9531" rx="5" ry="5" style="stroke:#000000;stroke-width:1.5;" width="220" x="10" y="223.5"/><rect fill="#F1F1F1" height="204.8828" rx="5" ry="5" style="stroke:#F1F1F1;stroke-width:1.5;" width="22" x="267" y="193"/><text fill="#000000" font-family="sans-serif" font-size="14" lengthAdjust="spacing" textLength="12" x="272" y="208.5352">&#160;&#160;&#160;</text><line style="stroke:#000000;stroke-width:1.0;" x1="267" x2="289" y1="213.4883" y2="213.4883"/><text fill="#000000" font-family="sans-serif" font-size="14" lengthAdjust="spacing" textLength="12" x="272" y="229.0234">&#160;&#160;&#160;</text><line style="stroke:#000000;stroke-width:1.0;" x1="267" x2="289" y1="233.9766" y2="233.9766"/><text fill="#000000" font-family="sans-serif" font-size="14" lengthAdjust="spacing" textLength="12" x="272" y="249.5117">&#160;&#160;&#160;</text><line style="stroke:#000000;stroke-width:1.0;" x1="267" x2="289" y1="254.4648" y2="254.4648"/><text fill="#000000" font-family="sans-serif" font-size="14" lengthAdjust="spacing" textLength="12" x="272" y="270">&#160;&#160;&#160;</text><line style="stroke:#000000;stroke-width:1.0;" x1="267" x2="289" y1="274.9531" y2="274.9531"/><text fill="#000000" font-family="sans-serif" font-size="14" lengthAdjust="spacing" textLength="12" x="272" y="290.4883">&#160;&#160;&#160;</text><line style="stroke:#000000;stroke-width:1.0;" x1="267" x2="289" y1="295.4414" y2="295.4414"/><text fill="#000000" font-family="sans-serif" font-size="14" lengthAdjust="spacing" textLength="12" x="272" y="310.9766">&#160;&#160;&#160;</text><line style="stroke:#000000;stroke-width:1.0;" x1="267" x2="289" y1="315.9297" y2="315.9297"/><text fill="#000000" font-family="sans-serif" font-size="14" lengthAdjust="spacing" textLength="12" x="272" y="331.4648">&#160;&#160;&#160;</text><line style="stroke:#000000;stroke-width:1.0;" x1="267" x2="289" y1="336.418" y2="336.418"/><text fill="#000000" font-family="sans-serif" font-size="14" lengthAdjust="spacing" textLength="12" x="272" y="351.9531">&#160;&#160;&#160;</text><line style="stroke:#000000;stroke-width:1.0;" x1="267" x2="289" y1="356.9063" y2="356.9063"/><text fill="#000000" font-family="sans-serif" font-size="14" lengthAdjust="spacing" textLength="12" x="272" y="372.4414">&#160;&#160;&#160;</text><line style="stroke:#000000;stroke-width:1.0;" x1="267" x2="289" y1="377.3945" y2="377.3945"/><text fill="#000000" font-family="sans-serif" font-size="14" lengthAdjust="spacing" textLength="12" x="272" y="392.9297">&#160;&#160;&#160;</text><rect fill="none" height="204.8828" rx="5" ry="5" style="stroke:#000000;stroke-width:1.5;" width="22" x="267" y="193"/><rect fill="#F1F1F1" height="40.9766" rx="5" ry="5" style="stroke:#F1F1F1;stroke-width:1.5;" width="216" x="412" y="10"/><text fill="#000000" font-family="sans-serif" font-size="14" font-weight="bold" lengthAdjust="spacing" textLength="71" x="417" y="25.5352">kodeverdi</text><text fill="#000000" font-family="sans-serif" font-size="14" lengthAdjust="spacing" textLength="9" x="544" y="25.5352">0</text><line style="stroke:#000000;stroke-width:1.0;" x1="539" x2="539" y1="10" y2="30.4883"/><line style="stroke:#000000;stroke-width:1.0;" x1="412" x2="628" y1="30.4883" y2="30.4883"/><text fill="#000000" font-family="sans-serif" font-size="14" font-weight="bold" lengthAdjust="spacing" textLength="117" x="417" y="46.0234">kodebeskrivelse</text><text fill="#000000" font-family="sans-serif" font-size="14" lengthAdjust="spacing" textLength="79" x="544" y="46.0234">Planinitiativ</text><line style="stroke:#000000;stroke-width:1.0;" x1="539" x2="539" y1="30.4883" y2="50.9766"/><rect fill="none" height="40.9766" rx="5" ry="5" style="stroke:#000000;stroke-width:1.5;" width="216" x="412" y="10"/><rect fill="#F1F1F1" height="40.9766" rx="5" ry="5" style="stroke:#F1F1F1;stroke-width:1.5;" width="286" x="377" y="69"/><text fill="#000000" font-family="sans-serif" font-size="14" font-weight="bold" lengthAdjust="spacing" textLength="71" x="382" y="84.5352">kodeverdi</text><text fill="#000000" font-family="sans-serif" font-size="14" lengthAdjust="spacing" textLength="9" x="509" y="84.5352">1</text><line style="stroke:#000000;stroke-width:1.0;" x1="504" x2="504" y1="69" y2="89.4883"/><line style="stroke:#000000;stroke-width:1.0;" x1="377" x2="663" y1="89.4883" y2="89.4883"/><text fill="#000000" font-family="sans-serif" font-size="14" font-weight="bold" lengthAdjust="spacing" textLength="117" x="382" y="105.0234">kodebeskrivelse</text><text fill="#000000" font-family="sans-serif" font-size="14" lengthAdjust="spacing" textLength="149" x="509" y="105.0234">Planlegging igangsatt</text><line style="stroke:#000000;stroke-width:1.0;" x1="504" x2="504" y1="89.4883" y2="109.9766"/><rect fill="none" height="40.9766" rx="5" ry="5" style="stroke:#000000;stroke-width:1.5;" width="286" x="377" y="69"/><rect fill="#F1F1F1" height="40.9766" rx="5" ry="5" style="stroke:#F1F1F1;stroke-width:1.5;" width="214" x="413" y="128"/><text fill="#000000" font-family="sans-serif" font-size="14" font-weight="bold" lengthAdjust="spacing" textLength="71" x="418" y="143.5352">kodeverdi</text><text fill="#000000" font-family="sans-serif" font-size="14" lengthAdjust="spacing" textLength="9" x="545" y="143.5352">2</text><line style="stroke:#000000;stroke-width:1.0;" x1="540" x2="540" y1="128" y2="148.4883"/><line style="stroke:#000000;stroke-width:1.0;" x1="413" x2="627" y1="148.4883" y2="148.4883"/><text fill="#000000" font-family="sans-serif" font-size="14" font-weight="bold" lengthAdjust="spacing" textLength="117" x="418" y="164.0234">kodebeskrivelse</text><text fill="#000000" font-family="sans-serif" font-size="14" lengthAdjust="spacing" textLength="77" x="545" y="164.0234">Planforslag</text><line style="stroke:#000000;stroke-width:1.0;" x1="540" x2="540" y1="148.4883" y2="168.9766"/><rect fill="none" height="40.9766" rx="5" ry="5" style="stroke:#000000;stroke-width:1.5;" width="214" x="413" y="128"/><rect fill="#F1F1F1" height="40.9766" rx="5" ry="5" style="stroke:#F1F1F1;stroke-width:1.5;" width="307" x="366.5" y="187"/><text fill="#000000" font-family="sans-serif" font-size="14" font-weight="bold" lengthAdjust="spacing" textLength="71" x="371.5" y="202.5352">kodeverdi</text><text fill="#000000" font-family="sans-serif" font-size="14" lengthAdjust="spacing" textLength="9" x="498.5" y="202.5352">3</text><line style="stroke:#000000;stroke-width:1.0;" x1="493.5" x2="493.5" y1="187" y2="207.4883"/><line style="stroke:#000000;stroke-width:1.0;" x1="366.5" x2="673.5" y1="207.4883" y2="207.4883"/><text fill="#000000" font-family="sans-serif" font-size="14" font-weight="bold" lengthAdjust="spacing" textLength="117" x="371.5" y="223.0234">kodebeskrivelse</text><text fill="#000000" font-family="sans-serif" font-size="14" lengthAdjust="spacing" textLength="170" x="498.5" y="223.0234">Endelig vedtatt arealplan</text><line style="stroke:#000000;stroke-width:1.0;" x1="493.5" x2="493.5" y1="207.4883" y2="227.9766"/><rect fill="none" height="40.9766" rx="5" ry="5" style="stroke:#000000;stroke-width:1.5;" width="307" x="366.5" y="187"/><rect fill="#F1F1F1" height="40.9766" rx="5" ry="5" style="stroke:#F1F1F1;stroke-width:1.5;" width="203" x="418.5" y="246"/><text fill="#000000" font-family="sans-serif" font-size="14" font-weight="bold" lengthAdjust="spacing" textLength="71" x="423.5" y="261.5352">kodeverdi</text><text fill="#000000" font-family="sans-serif" font-size="14" lengthAdjust="spacing" textLength="9" x="550.5" y="261.5352">4</text><line style="stroke:#000000;stroke-width:1.0;" x1="545.5" x2="545.5" y1="246" y2="266.4883"/><line style="stroke:#000000;stroke-width:1.0;" x1="418.5" x2="621.5" y1="266.4883" y2="266.4883"/><text fill="#000000" font-family="sans-serif" font-size="14" font-weight="bold" lengthAdjust="spacing" textLength="117" x="423.5" y="282.0234">kodebeskrivelse</text><text fill="#000000" font-family="sans-serif" font-size="14" lengthAdjust="spacing" textLength="66" x="550.5" y="282.0234">Opphevet</text><line style="stroke:#000000;stroke-width:1.0;" x1="545.5" x2="545.5" y1="266.4883" y2="286.9766"/><rect fill="none" height="40.9766" rx="5" ry="5" style="stroke:#000000;stroke-width:1.5;" width="203" x="418.5" y="246"/><rect fill="#F1F1F1" height="40.9766" rx="5" ry="5" style="stroke:#F1F1F1;stroke-width:1.5;" width="243" x="398.5" y="305"/><text fill="#000000" font-family="sans-serif" font-size="14" font-weight="bold" lengthAdjust="spacing" textLength="71" x="403.5" y="320.5352">kodeverdi</text><text fill="#000000" font-family="sans-serif" font-size="14" lengthAdjust="spacing" textLength="9" x="530.5" y="320.5352">5</text><line style="stroke:#000000;stroke-width:1.0;" x1="525.5" x2="525.5" y1="305" y2="325.4883"/><line style="stroke:#000000;stroke-width:1.0;" x1="398.5" x2="641.5" y1="325.4883" y2="325.4883"/><text fill="#000000" font-family="sans-serif" font-size="14" font-weight="bold" lengthAdjust="spacing" textLength="117" x="403.5" y="341.0234">kodebeskrivelse</text><text fill="#000000" font-family="sans-serif" font-size="14" lengthAdjust="spacing" textLength="106" x="530.5" y="341.0234">Utg&#229;tt/erstattet</text><line style="stroke:#000000;stroke-width:1.0;" x1="525.5" x2="525.5" y1="325.4883" y2="345.9766"/><rect fill="none" height="40.9766" rx="5" ry="5" style="stroke:#000000;stroke-width:1.5;" width="243" x="398.5" y="305"/><rect fill="#F1F1F1" height="40.9766" rx="5" ry="5" style="stroke:#F1F1F1;stroke-width:1.5;" width="388" x="326" y="364"/><text fill="#000000" font-family="sans-serif" font-size="14" font-weight="bold" lengthAdjust="spacing" textLength="71" x="331" y="379.5352">kodeverdi</text><text fill="#000000" font-family="sans-serif" font-size="14" lengthAdjust="spacing" textLength="9" x="458" y="379.5352">6</text><line style="stroke:#000000;stroke-width:1.0;" x1="453" x2="453" y1="364" y2="384.4883"/><line style="stroke:#000000;stroke-width:1.0;" x1="326" x2="714" y1="384.4883" y2="384.4883"/><text fill="#000000" font-family="sans-serif" font-size="14" font-weight="bold" lengthAdjust="spacing" textLength="117" x="331" y="400.0234">kodebeskrivelse</text><text fill="#000000" font-family="sans-serif" font-size="14" lengthAdjust="spacing" textLength="251" x="458" y="400.0234">Vedtatt plan med utsatt rettsvirkning</text><line style="stroke:#000000;stroke-width:1.0;" x1="453" x2="453" y1="384.4883" y2="404.9766"/><rect fill="none" height="40.9766" rx="5" ry="5" style="stroke:#000000;stroke-width:1.5;" width="388" x="326" y="364"/><rect fill="#F1F1F1" height="40.9766" rx="5" ry="5" style="stroke:#F1F1F1;stroke-width:1.5;" width="199" x="420.5" y="423"/><text fill="#000000" font-family="sans-serif" font-size="14" font-weight="bold" lengthAdjust="spacing" textLength="71" x="425.5" y="438.5352">kodeverdi</text><text fill="#000000" font-family="sans-serif" font-size="14" lengthAdjust="spacing" textLength="9" x="552.5" y="438.5352">8</text><line style="stroke:#000000;stroke-width:1.0;" x1="547.5" x2="547.5" y1="423" y2="443.4883"/><line style="stroke:#000000;stroke-width:1.0;" x1="420.5" x2="619.5" y1="443.4883" y2="443.4883"/><text fill="#000000" font-family="sans-serif" font-size="14" font-weight="bold" lengthAdjust="spacing" textLength="117" x="425.5" y="459.0234">kodebeskrivelse</text><text fill="#000000" font-family="sans-serif" font-size="14" lengthAdjust="spacing" textLength="62" x="552.5" y="459.0234">Overstyrt</text><line style="stroke:#000000;stroke-width:1.0;" x1="547.5" x2="547.5" y1="443.4883" y2="463.9766"/><rect fill="none" height="40.9766" rx="5" ry="5" style="stroke:#000000;stroke-width:1.5;" width="199" x="420.5" y="423"/><rect fill="#F1F1F1" height="40.9766" rx="5" ry="5" style="stroke:#F1F1F1;stroke-width:1.5;" width="177" x="431.5" y="482"/><text fill="#000000" font-family="sans-serif" font-size="14" font-weight="bold" lengthAdjust="spacing" textLength="71" x="436.5" y="497.5352">kodeverdi</text><text fill="#000000" font-family="sans-serif" font-size="14" lengthAdjust="spacing" textLength="9" x="563.5" y="497.5352">9</text><line style="stroke:#000000;stroke-width:1.0;" x1="558.5" x2="558.5" y1="482" y2="502.4883"/><line style="stroke:#000000;stroke-width:1.0;" x1="431.5" x2="608.5" y1="502.4883" y2="502.4883"/><text fill="#000000" font-family="sans-serif" font-size="14" font-weight="bold" lengthAdjust="spacing" textLength="117" x="436.5" y="518.0234">kodebeskrivelse</text><text fill="#000000" font-family="sans-serif" font-size="14" lengthAdjust="spacing" textLength="40" x="563.5" y="518.0234">Avvist</text><line style="stroke:#000000;stroke-width:1.0;" x1="558.5" x2="558.5" y1="502.4883" y2="522.9766"/><rect fill="none" height="40.9766" rx="5" ry="5" style="stroke:#000000;stroke-width:1.5;" width="177" x="431.5" y="482"/><rect fill="#F1F1F1" height="40.9766" rx="5" ry="5" style="stroke:#F1F1F1;stroke-width:1.5;" width="253" x="393.5" y="541"/><text fill="#000000" font-family="sans-serif" font-size="14" font-weight="bold" lengthAdjust="spacing" textLength="71" x="398.5" y="556.5352">kodeverdi</text><text fill="#000000" font-family="sans-serif" font-size="14" lengthAdjust="spacing" textLength="18" x="525.5" y="556.5352">10</text><line style="stroke:#000000;stroke-width:1.0;" x1="520.5" x2="520.5" y1="541" y2="561.4883"/><line style="stroke:#000000;stroke-width:1.0;" x1="393.5" x2="646.5" y1="561.4883" y2="561.4883"/><text fill="#000000" font-family="sans-serif" font-size="14" font-weight="bold" lengthAdjust="spacing" textLength="117" x="398.5" y="577.0234">kodebeskrivelse</text><text fill="#000000" font-family="sans-serif" font-size="14" lengthAdjust="spacing" textLength="116" x="525.5" y="577.0234">Trukket/uaktuelt</text><line style="stroke:#000000;stroke-width:1.0;" x1="520.5" x2="520.5" y1="561.4883" y2="581.9766"/><rect fill="none" height="40.9766" rx="5" ry="5" style="stroke:#000000;stroke-width:1.5;" width="253" x="393.5" y="541"/><path d="M277,203.5 L290,203.5 C355.9697,203.5 277.1631,103.8504 326,59.5 C347.4105,40.0564 375.9829,30.3383 404.5851,26.0273 " fill="none" style="stroke:#000000;stroke-width:1.0;stroke-dasharray:3.0,3.0;"/><path d="M404.9968,29.0927 L406.8841,25.7186 L404.1734,22.962 L412.2485,24.9981 L404.9968,29.0927 " fill="#000000" style="stroke:#000000;stroke-width:1.0;"/><ellipse cx="277" cy="203.5" fill="#000000" rx="3" ry="3" style="stroke:#000000;stroke-width:1.0;"/><path d="M277,223.5 L290,223.5 C339.3333,223.5 288.0977,150.0784 326,118.5 C338.9002,107.7522 354.0327,100.0737 370.0545,94.68 " fill="none" style="stroke:#000000;stroke-width:1.0;stroke-dasharray:3.0,3.0;"/><path d="M370.9826,97.6476 L372.2803,93.9839 L369.1264,91.7123 L377.4737,92.3597 L370.9826,97.6476 " fill="#000000" style="stroke:#000000;stroke-width:1.0;"/><ellipse cx="277" cy="223.5" fill="#000000" rx="3" ry="3" style="stroke:#000000;stroke-width:1.0;"/><path d="M277,244.5 L290,244.5 C323.8041,244.5 298.3557,196.9553 326,177.5 C349.2053,161.1687 377.8698,152.4077 405.96,148.0153 " fill="none" style="stroke:#000000;stroke-width:1.0;stroke-dasharray:3.0,3.0;"/><path d="M406.39,151.0203 L408.2137,147.6928 L405.5299,145.0103 L413.4724,146.9401 L406.39,151.0203 " fill="#000000" style="stroke:#000000;stroke-width:1.0;"/><ellipse cx="277" cy="244.5" fill="#000000" rx="3" ry="3" style="stroke:#000000;stroke-width:1.0;"/><path d="M277,264.5 L290,264.5 C310,264.5 307.5683,245.2636 326,237.5 C336.767,232.9648 348.1304,229.1066 359.7361,225.8254 " fill="none" style="stroke:#000000;stroke-width:1.0;stroke-dasharray:3.0,3.0;"/><path d="M360.5238,228.7271 L361.9124,225.2346 L358.9484,222.9237 L366.9904,223.8561 L360.5238,228.7271 " fill="#000000" style="stroke:#000000;stroke-width:1.0;"/><ellipse cx="277" cy="264.5" fill="#000000" rx="3" ry="3" style="stroke:#000000;stroke-width:1.0;"/><path d="M277,285.5 L290,285.5 C329.6365,285.5 372.9927,282.6504 411.243,279.1584 " fill="none" style="stroke:#000000;stroke-width:1.0;stroke-dasharray:3.0,3.0;"/><path d="M411.5256,282.1902 L413.5168,278.9465 L410.9605,276.1267 L418.8224,278.4521 L411.5256,282.1902 " fill="#000000" style="stroke:#000000;stroke-width:1.0;"/><ellipse cx="277" cy="285.5" fill="#000000" rx="3" ry="3" style="stroke:#000000;stroke-width:1.0;"/><path d="M277,305.5 L290,305.5 C322.7684,305.5 358.0695,307.5486 390.9257,310.3345 " fill="none" style="stroke:#000000;stroke-width:1.0;stroke-dasharray:3.0,3.0;"/><path d="M390.6523,313.4754 L393.2814,310.5395 L391.1991,307.1935 L398.7781,311.018 L390.6523,313.4754 " fill="#000000" style="stroke:#000000;stroke-width:1.0;"/><ellipse cx="277" cy="305.5" fill="#000000" rx="3" ry="3" style="stroke:#000000;stroke-width:1.0;"/><path d="M277,326.5 L290,326.5 C310.5456,326.5 307.1855,347.2455 326,355.5 C330.807,357.609 335.7387,359.569 340.7626,361.3904 " fill="none" style="stroke:#000000;stroke-width:1.0;stroke-dasharray:3.0,3.0;"/><path d="M339.7344,364.3594 L342.9894,362.1615 L341.7908,358.4213 L348.1853,363.9609 L339.7344,364.3594 " fill="#000000" style="stroke:#000000;stroke-width:1.0;"/><ellipse cx="277" cy="326.5" fill="#000000" rx="3" ry="3" style="stroke:#000000;stroke-width:1.0;"/><path d="M277,346.5 L290,346.5 C324.1962,346.5 298.0957,394.733 326,414.5 C351.17,432.33 382.8295,441.1599 413.2081,445.1311 " fill="none" style="stroke:#000000;stroke-width:1.0;stroke-dasharray:3.0,3.0;"/><path d="M412.8451,448.2075 L415.5154,445.4033 L413.5711,442.0547 L420.8991,446.0386 L412.8451,448.2075 " fill="#000000" style="stroke:#000000;stroke-width:1.0;"/><ellipse cx="277" cy="346.5" fill="#000000" rx="3" ry="3" style="stroke:#000000;stroke-width:1.0;"/><path d="M277,367.5 L290,367.5 C339.754,367.5 287.8207,441.597 326,473.5 C353.0205,496.0786 389.8853,505.1269 424.1917,507.9004 " fill="none" style="stroke:#000000;stroke-width:1.0;stroke-dasharray:3.0,3.0;"/><path d="M423.9818,510.9942 L426.512,508.0578 L424.4016,504.8066 L431.9262,508.4251 L423.9818,510.9942 " fill="#000000" style="stroke:#000000;stroke-width:1.0;"/><ellipse cx="277" cy="367.5" fill="#000000" rx="3" ry="3" style="stroke:#000000;stroke-width:1.0;"/><path d="M277,387.5 L290,387.5 C356.401,387.5 276.8801,487.8198 326,532.5 C342.8193,547.7991 364.0714,557.0805 386.2884,562.4451 " fill="none" style="stroke:#000000;stroke-width:1.0;stroke-dasharray:3.0,3.0;"/><path d="M385.6195,565.4717 L388.5584,562.9468 L386.9573,559.4186 L393.8549,564.1173 L385.6195,565.4717 " fill="#000000" style="stroke:#000000;stroke-width:1.0;"/><ellipse cx="277" cy="387.5" fill="#000000" rx="3" ry="3" style="stroke:#000000;stroke-width:1.0;"/><path d="M218,295.5 L231,295.5 C240.4213,295.5 250.9164,295.5 259.5483,295.5 " fill="none" style="stroke:#000000;stroke-width:1.0;stroke-dasharray:3.0,3.0;"/><path d="M259.5483,298.5437 L261.8311,295.5 L259.5483,292.4563 L267.1575,295.5 L259.5483,298.5437 " fill="#000000" style="stroke:#000000;stroke-width:1.0;"/><ellipse cx="218" cy="295.5" fill="#000000" rx="3" ry="3" style="stroke:#000000;stroke-width:1.0;"/><!--SRC=[ZPFDRjim3CVlUWh2fnPeKyVfYjIdRcqs84kQOlcu33keDUEfLYH3eWm4HHzdJx8N6-KstStnXGV-oP_ufHjFqj6pjqQy282aTfPiPRKsiZ593ecnWyeFjefDhQL9pcBKGOmU1b3mwDwK1fr_jgtOP6-koXQebITavqzs0BoqzbtYZ48bm0bf6_yXFAAld6fGUspb1tvC6KLAacgIDlBrh8itFCxJM9RAbA1AQKelYVfmi-FShNLUox8FRTHDcvWulH8QB7ZG1DAXrEqcUh0lkzcBklxDqRsQ_jIDMbFvzm_H1Qy_bjcFUTNDtBot7Bk57HOGAAu871BvHhcApw7NYCT7nX2FblQkLytNtQpFJSEdtkiwZvpxoeMgGhe8igA0-i1a-qkyYXiqHVjhHJmtMizd4BjGri1maANPQ30-MGO3Sxc7R0Z3D1-DypI5sybo1L4_5IVV7cRWRN1F20KNxTHZ80QSYgbi9Fm8XjGESrZKQAPttmyEc1YUlJKxD2Icc_d_WAlByo-AO8cEIu7DNDpXLWPDdF5a2zvL3klLr_EncF5d2x9aDXfnQvdhzZdSB_u1]--></g></svg>