<?xml version="1.0" encoding="us-ascii" standalone="no"?><svg xmlns="http://www.w3.org/2000/svg" xmlns:xlink="http://www.w3.org/1999/xlink" contentStyleType="text/css" height="458px" preserveAspectRatio="none" style="width:1258px;height:458px;background:#FFFFFF;" version="1.1" viewBox="0 0 1258 458" width="1258px" zoomAndPan="magnify"><defs/><g><!--class Dispensasjon--><g id="elem_Dispensasjon"><rect codeLine="1" fill="#F1F1F1" height="295.3242" id="Dispensasjon" rx="2.5" ry="2.5" style="stroke:#181818;stroke-width:0.5;" width="309" x="594.5" y="7"/><ellipse cx="699.25" cy="23" fill="#ADD1B2" rx="11" ry="11" style="stroke:#181818;stroke-width:1.0;"/><path d="M701.7231,29.1431 Q701.1421,29.4419 700.5029,29.5913 Q699.8638,29.7407 699.1582,29.7407 Q696.6514,29.7407 695.3315,28.0889 Q694.0117,26.437 694.0117,23.3159 Q694.0117,20.1865 695.3315,18.5347 Q696.6514,16.8828 699.1582,16.8828 Q699.8638,16.8828 700.5112,17.0322 Q701.1587,17.1816 701.7231,17.4805 L701.7231,20.2031 Q701.0923,19.6221 700.4988,19.3523 Q699.9053,19.0825 699.2744,19.0825 Q697.9297,19.0825 697.2449,20.1492 Q696.5601,21.2158 696.5601,23.3159 Q696.5601,25.4077 697.2449,26.4744 Q697.9297,27.541 699.2744,27.541 Q699.9053,27.541 700.4988,27.2712 Q701.0923,27.0015 701.7231,26.4204 Z " fill="#000000"/><text fill="#000000" font-family="sans-serif" font-size="14" lengthAdjust="spacing" textLength="91" x="719.75" y="28.291">Dispensasjon</text><line style="stroke:#181818;stroke-width:0.5;" x1="595.5" x2="902.5" y1="39" y2="39"/><ellipse cx="605.5" cy="52.7441" fill="none" rx="3" ry="3" style="stroke:#038048;stroke-width:1.0;"/><text fill="#000000" font-family="sans-serif" font-size="14" lengthAdjust="spacing" textLength="141" x="614.5" y="56.5352">identifikasjon: string</text><ellipse cx="605.5" cy="69.2324" fill="none" rx="3" ry="3" style="stroke:#038048;stroke-width:1.0;"/><text fill="#000000" font-family="sans-serif" font-size="14" lengthAdjust="spacing" textLength="255" x="614.5" y="73.0234">dispensasjonType: DispensasjonType</text><ellipse cx="605.5" cy="85.7207" fill="none" rx="3" ry="3" style="stroke:#038048;stroke-width:1.0;"/><text fill="#000000" font-family="sans-serif" font-size="14" lengthAdjust="spacing" textLength="233" x="614.5" y="89.5117">dispensasjonFra: DispensasjonFra</text><ellipse cx="605.5" cy="102.209" fill="none" rx="3" ry="3" style="stroke:#038048;stroke-width:1.0;"/><text fill="#000000" font-family="sans-serif" font-size="14" lengthAdjust="spacing" textLength="283" x="614.5" y="106">nasjonalArealplanId: NasjonalArealplanId</text><ellipse cx="605.5" cy="118.6973" fill="none" rx="3" ry="3" style="stroke:#038048;stroke-width:1.0;"/><text fill="#000000" font-family="sans-serif" font-size="14" lengthAdjust="spacing" textLength="134" x="614.5" y="122.4883">begrunnelse: string</text><ellipse cx="605.5" cy="135.1855" fill="none" rx="3" ry="3" style="stroke:#038048;stroke-width:1.0;"/><text fill="#000000" font-family="sans-serif" font-size="14" lengthAdjust="spacing" textLength="125" x="614.5" y="138.9766">vedtaksdato:  date</text><ellipse cx="605.5" cy="151.6738" fill="none" rx="3" ry="3" style="stroke:#038048;stroke-width:1.0;"/><text fill="#000000" font-family="sans-serif" font-size="14" lengthAdjust="spacing" textLength="123" x="614.5" y="155.4648">posisjon: Posisjon</text><ellipse cx="605.5" cy="168.1621" fill="none" rx="3" ry="3" style="stroke:#038048;stroke-width:1.0;"/><text fill="#000000" font-family="sans-serif" font-size="14" lengthAdjust="spacing" textLength="182" x="614.5" y="171.9531">vertikalnivaa: Vertikalnivaa</text><ellipse cx="605.5" cy="184.6504" fill="none" rx="3" ry="3" style="stroke:#038048;stroke-width:1.0;"/><text fill="#000000" font-family="sans-serif" font-size="14" lengthAdjust="spacing" textLength="124" x="614.5" y="188.4414">beskrivelse: string</text><ellipse cx="605.5" cy="201.1387" fill="none" rx="3" ry="3" style="stroke:#038048;stroke-width:1.0;"/><text fill="#000000" font-family="sans-serif" font-size="14" lengthAdjust="spacing" textLength="214" x="614.5" y="204.9297">innvilgetDispensasjon: boolean</text><ellipse cx="605.5" cy="217.627" fill="none" rx="3" ry="3" style="stroke:#038048;stroke-width:1.0;"/><text fill="#000000" font-family="sans-serif" font-size="14" lengthAdjust="spacing" textLength="185" x="614.5" y="221.418">saksnummer: Saksnummer</text><ellipse cx="605.5" cy="234.1152" fill="none" rx="3" ry="3" style="stroke:#038048;stroke-width:1.0;"/><text fill="#000000" font-family="sans-serif" font-size="14" lengthAdjust="spacing" textLength="189" x="614.5" y="237.9063">varigDispensasjon: boolean</text><ellipse cx="605.5" cy="250.6035" fill="none" rx="3" ry="3" style="stroke:#038048;stroke-width:1.0;"/><text fill="#000000" font-family="sans-serif" font-size="14" lengthAdjust="spacing" textLength="116" x="614.5" y="254.3945">varighetFra: date</text><ellipse cx="605.5" cy="267.0918" fill="none" rx="3" ry="3" style="stroke:#038048;stroke-width:1.0;"/><text fill="#000000" font-family="sans-serif" font-size="14" lengthAdjust="spacing" textLength="111" x="614.5" y="270.8828">varighetTil: date</text><ellipse cx="605.5" cy="283.5801" fill="none" rx="3" ry="3" style="stroke:#038048;stroke-width:1.0;"/><text fill="#000000" font-family="sans-serif" font-size="14" lengthAdjust="spacing" textLength="203" x="614.5" y="287.3711">plandokumenter: Dokument[]</text><line style="stroke:#181818;stroke-width:0.5;" x1="595.5" x2="902.5" y1="294.3242" y2="294.3242"/></g><!--class DispensasjonType--><g id="elem_DispensasjonType"><rect codeLine="27" fill="#F1F1F1" height="89.5977" id="DispensasjonType" rx="2.5" ry="2.5" style="stroke:#181818;stroke-width:0.5;" width="184" x="7" y="362.32"/><ellipse cx="34.6" cy="382.6305" fill="#ADD1B2" rx="11" ry="11" style="stroke:#181818;stroke-width:1.0;"/><path d="M37.0731,388.7736 Q36.4921,389.0724 35.8529,389.2219 Q35.2138,389.3713 34.5082,389.3713 Q32.0014,389.3713 30.6815,387.7194 Q29.3617,386.0676 29.3617,382.9465 Q29.3617,379.8171 30.6815,378.1652 Q32.0014,376.5134 34.5082,376.5134 Q35.2138,376.5134 35.8612,376.6628 Q36.5087,376.8122 37.0731,377.111 L37.0731,379.8337 Q36.4423,379.2526 35.8488,378.9828 Q35.2553,378.7131 34.6244,378.7131 Q33.2797,378.7131 32.5949,379.7797 Q31.9101,380.8464 31.9101,382.9465 Q31.9101,385.0383 32.5949,386.1049 Q33.2797,387.1716 34.6244,387.1716 Q35.2553,387.1716 35.8488,386.9018 Q36.4423,386.632 37.0731,386.051 Z " fill="#000000"/><text fill="#000000" font-family="sans-serif" font-size="12" font-style="italic" lengthAdjust="spacing" textLength="42" x="92.4" y="378.9216">&#171;Kode&#187;</text><text fill="#000000" font-family="sans-serif" font-size="14" lengthAdjust="spacing" textLength="124" x="51.4" y="394.988">DispensasjonType</text><line style="stroke:#181818;stroke-width:0.5;" x1="8" x2="190" y1="402.9411" y2="402.9411"/><ellipse cx="18" cy="416.6852" fill="none" rx="3" ry="3" style="stroke:#038048;stroke-width:1.0;"/><text fill="#000000" font-family="sans-serif" font-size="14" lengthAdjust="spacing" textLength="116" x="27" y="420.4763">kodeverdi: string</text><ellipse cx="18" cy="433.1735" fill="none" rx="3" ry="3" style="stroke:#038048;stroke-width:1.0;"/><text fill="#000000" font-family="sans-serif" font-size="14" lengthAdjust="spacing" textLength="158" x="27" y="436.9645">kodebeskrivelse: string</text><line style="stroke:#181818;stroke-width:0.5;" x1="8" x2="190" y1="443.9177" y2="443.9177"/></g><!--class DispensasjonFra--><g id="elem_DispensasjonFra"><rect codeLine="32" fill="#F1F1F1" height="89.5977" id="DispensasjonFra" rx="2.5" ry="2.5" style="stroke:#181818;stroke-width:0.5;" width="184" x="226" y="362.32"/><ellipse cx="258.55" cy="382.6305" fill="#ADD1B2" rx="11" ry="11" style="stroke:#181818;stroke-width:1.0;"/><path d="M261.0231,388.7736 Q260.4421,389.0724 259.8029,389.2219 Q259.1638,389.3713 258.4582,389.3713 Q255.9514,389.3713 254.6315,387.7194 Q253.3117,386.0676 253.3117,382.9465 Q253.3117,379.8171 254.6315,378.1652 Q255.9514,376.5134 258.4582,376.5134 Q259.1638,376.5134 259.8112,376.6628 Q260.4587,376.8122 261.0231,377.111 L261.0231,379.8337 Q260.3923,379.2526 259.7988,378.9828 Q259.2053,378.7131 258.5744,378.7131 Q257.2297,378.7131 256.5449,379.7797 Q255.8601,380.8464 255.8601,382.9465 Q255.8601,385.0383 256.5449,386.1049 Q257.2297,387.1716 258.5744,387.1716 Q259.2053,387.1716 259.7988,386.9018 Q260.3923,386.632 261.0231,386.051 Z " fill="#000000"/><text fill="#000000" font-family="sans-serif" font-size="12" font-style="italic" lengthAdjust="spacing" textLength="42" x="311.95" y="378.9216">&#171;Kode&#187;</text><text fill="#000000" font-family="sans-serif" font-size="14" lengthAdjust="spacing" textLength="113" x="276.45" y="394.988">DispensasjonFra</text><line style="stroke:#181818;stroke-width:0.5;" x1="227" x2="409" y1="402.9411" y2="402.9411"/><ellipse cx="237" cy="416.6852" fill="none" rx="3" ry="3" style="stroke:#038048;stroke-width:1.0;"/><text fill="#000000" font-family="sans-serif" font-size="14" lengthAdjust="spacing" textLength="116" x="246" y="420.4763">kodeverdi: string</text><ellipse cx="237" cy="433.1735" fill="none" rx="3" ry="3" style="stroke:#038048;stroke-width:1.0;"/><text fill="#000000" font-family="sans-serif" font-size="14" lengthAdjust="spacing" textLength="158" x="246" y="436.9645">kodebeskrivelse: string</text><line style="stroke:#181818;stroke-width:0.5;" x1="227" x2="409" y1="443.9177" y2="443.9177"/></g><!--class Vertikalnivaa--><g id="elem_Vertikalnivaa"><rect codeLine="37" fill="#F1F1F1" height="89.5977" id="Vertikalnivaa" rx="2.5" ry="2.5" style="stroke:#181818;stroke-width:0.5;" width="184" x="445" y="362.32"/><ellipse cx="488.8" cy="382.6305" fill="#ADD1B2" rx="11" ry="11" style="stroke:#181818;stroke-width:1.0;"/><path d="M491.2731,388.7736 Q490.6921,389.0724 490.0529,389.2219 Q489.4138,389.3713 488.7082,389.3713 Q486.2014,389.3713 484.8815,387.7194 Q483.5617,386.0676 483.5617,382.9465 Q483.5617,379.8171 484.8815,378.1652 Q486.2014,376.5134 488.7082,376.5134 Q489.4138,376.5134 490.0612,376.6628 Q490.7087,376.8122 491.2731,377.111 L491.2731,379.8337 Q490.6423,379.2526 490.0488,378.9828 Q489.4553,378.7131 488.8244,378.7131 Q487.4797,378.7131 486.7949,379.7797 Q486.1101,380.8464 486.1101,382.9465 Q486.1101,385.0383 486.7949,386.1049 Q487.4797,387.1716 488.8244,387.1716 Q489.4553,387.1716 490.0488,386.9018 Q490.6423,386.632 491.2731,386.051 Z " fill="#000000"/><text fill="#000000" font-family="sans-serif" font-size="12" font-style="italic" lengthAdjust="spacing" textLength="42" x="532.2" y="378.9216">&#171;Kode&#187;</text><text fill="#000000" font-family="sans-serif" font-size="14" lengthAdjust="spacing" textLength="88" x="509.2" y="394.988">Vertikalnivaa</text><line style="stroke:#181818;stroke-width:0.5;" x1="446" x2="628" y1="402.9411" y2="402.9411"/><ellipse cx="456" cy="416.6852" fill="none" rx="3" ry="3" style="stroke:#038048;stroke-width:1.0;"/><text fill="#000000" font-family="sans-serif" font-size="14" lengthAdjust="spacing" textLength="116" x="465" y="420.4763">kodeverdi: string</text><ellipse cx="456" cy="433.1735" fill="none" rx="3" ry="3" style="stroke:#038048;stroke-width:1.0;"/><text fill="#000000" font-family="sans-serif" font-size="14" lengthAdjust="spacing" textLength="158" x="465" y="436.9645">kodebeskrivelse: string</text><line style="stroke:#181818;stroke-width:0.5;" x1="446" x2="628" y1="443.9177" y2="443.9177"/></g><!--class NasjonalArealplanId--><g id="elem_NasjonalArealplanId"><rect fill="#F1F1F1" height="48" id="NasjonalArealplanId" rx="2.5" ry="2.5" style="stroke:#181818;stroke-width:0.5;" width="170" x="664" y="383.12"/><ellipse cx="679" cy="399.12" fill="#ADD1B2" rx="11" ry="11" style="stroke:#181818;stroke-width:1.0;"/><path d="M681.4731,405.2631 Q680.8921,405.5619 680.2529,405.7113 Q679.6138,405.8607 678.9082,405.8607 Q676.4014,405.8607 675.0815,404.2089 Q673.7617,402.557 673.7617,399.4359 Q673.7617,396.3065 675.0815,394.6547 Q676.4014,393.0028 678.9082,393.0028 Q679.6138,393.0028 680.2612,393.1522 Q680.9087,393.3016 681.4731,393.6005 L681.4731,396.3231 Q680.8423,395.7421 680.2488,395.4723 Q679.6553,395.2025 679.0244,395.2025 Q677.6797,395.2025 676.9949,396.2692 Q676.3101,397.3358 676.3101,399.4359 Q676.3101,401.5277 676.9949,402.5944 Q677.6797,403.661 679.0244,403.661 Q679.6553,403.661 680.2488,403.3912 Q680.8423,403.1215 681.4731,402.5404 Z " fill="#000000"/><text fill="#000000" font-family="sans-serif" font-size="14" lengthAdjust="spacing" textLength="138" x="693" y="404.411">NasjonalArealplanId</text><line style="stroke:#181818;stroke-width:0.5;" x1="665" x2="833" y1="415.12" y2="415.12"/><line style="stroke:#181818;stroke-width:0.5;" x1="665" x2="833" y1="423.12" y2="423.12"/></g><!--class Posisjon--><g id="elem_Posisjon"><rect fill="#F1F1F1" height="48" id="Posisjon" rx="2.5" ry="2.5" style="stroke:#181818;stroke-width:0.5;" width="89" x="868.5" y="383.12"/><ellipse cx="883.5" cy="399.12" fill="#ADD1B2" rx="11" ry="11" style="stroke:#181818;stroke-width:1.0;"/><path d="M885.9731,405.2631 Q885.3921,405.5619 884.7529,405.7113 Q884.1138,405.8607 883.4082,405.8607 Q880.9014,405.8607 879.5815,404.2089 Q878.2617,402.557 878.2617,399.4359 Q878.2617,396.3065 879.5815,394.6547 Q880.9014,393.0028 883.4082,393.0028 Q884.1138,393.0028 884.7612,393.1522 Q885.4087,393.3016 885.9731,393.6005 L885.9731,396.3231 Q885.3423,395.7421 884.7488,395.4723 Q884.1553,395.2025 883.5244,395.2025 Q882.1797,395.2025 881.4949,396.2692 Q880.8101,397.3358 880.8101,399.4359 Q880.8101,401.5277 881.4949,402.5944 Q882.1797,403.661 883.5244,403.661 Q884.1553,403.661 884.7488,403.3912 Q885.3423,403.1215 885.9731,402.5404 Z " fill="#000000"/><text fill="#000000" font-family="sans-serif" font-size="14" lengthAdjust="spacing" textLength="57" x="897.5" y="404.411">Posisjon</text><line style="stroke:#181818;stroke-width:0.5;" x1="869.5" x2="956.5" y1="415.12" y2="415.12"/><line style="stroke:#181818;stroke-width:0.5;" x1="869.5" x2="956.5" y1="423.12" y2="423.12"/></g><!--class Saksnummer--><g id="elem_Saksnummer"><rect fill="#F1F1F1" height="48" id="Saksnummer" rx="2.5" ry="2.5" style="stroke:#181818;stroke-width:0.5;" width="121" x="992.5" y="383.12"/><ellipse cx="1007.5" cy="399.12" fill="#ADD1B2" rx="11" ry="11" style="stroke:#181818;stroke-width:1.0;"/><path d="M1009.9731,405.2631 Q1009.3921,405.5619 1008.7529,405.7113 Q1008.1138,405.8607 1007.4082,405.8607 Q1004.9014,405.8607 1003.5815,404.2089 Q1002.2617,402.557 1002.2617,399.4359 Q1002.2617,396.3065 1003.5815,394.6547 Q1004.9014,393.0028 1007.4082,393.0028 Q1008.1138,393.0028 1008.7612,393.1522 Q1009.4087,393.3016 1009.9731,393.6005 L1009.9731,396.3231 Q1009.3423,395.7421 1008.7488,395.4723 Q1008.1553,395.2025 1007.5244,395.2025 Q1006.1797,395.2025 1005.4949,396.2692 Q1004.8101,397.3358 1004.8101,399.4359 Q1004.8101,401.5277 1005.4949,402.5944 Q1006.1797,403.661 1007.5244,403.661 Q1008.1553,403.661 1008.7488,403.3912 Q1009.3423,403.1215 1009.9731,402.5404 Z " fill="#000000"/><text fill="#000000" font-family="sans-serif" font-size="14" lengthAdjust="spacing" textLength="89" x="1021.5" y="404.411">Saksnummer</text><line style="stroke:#181818;stroke-width:0.5;" x1="993.5" x2="1112.5" y1="415.12" y2="415.12"/><line style="stroke:#181818;stroke-width:0.5;" x1="993.5" x2="1112.5" y1="423.12" y2="423.12"/></g><!--class Dokument--><g id="elem_Dokument"><rect fill="#F1F1F1" height="48" id="Dokument" rx="2.5" ry="2.5" style="stroke:#181818;stroke-width:0.5;" width="103" x="1148.5" y="383.12"/><ellipse cx="1163.5" cy="399.12" fill="#ADD1B2" rx="11" ry="11" style="stroke:#181818;stroke-width:1.0;"/><path d="M1165.9731,405.2631 Q1165.3921,405.5619 1164.7529,405.7113 Q1164.1138,405.8607 1163.4082,405.8607 Q1160.9014,405.8607 1159.5815,404.2089 Q1158.2617,402.557 1158.2617,399.4359 Q1158.2617,396.3065 1159.5815,394.6547 Q1160.9014,393.0028 1163.4082,393.0028 Q1164.1138,393.0028 1164.7612,393.1522 Q1165.4087,393.3016 1165.9731,393.6005 L1165.9731,396.3231 Q1165.3423,395.7421 1164.7488,395.4723 Q1164.1553,395.2025 1163.5244,395.2025 Q1162.1797,395.2025 1161.4949,396.2692 Q1160.8101,397.3358 1160.8101,399.4359 Q1160.8101,401.5277 1161.4949,402.5944 Q1162.1797,403.661 1163.5244,403.661 Q1164.1553,403.661 1164.7488,403.3912 Q1165.3423,403.1215 1165.9731,402.5404 Z " fill="#000000"/><text fill="#000000" font-family="sans-serif" font-size="14" lengthAdjust="spacing" textLength="71" x="1177.5" y="404.411">Dokument</text><line style="stroke:#181818;stroke-width:0.5;" x1="1149.5" x2="1250.5" y1="415.12" y2="415.12"/><line style="stroke:#181818;stroke-width:0.5;" x1="1149.5" x2="1250.5" y1="423.12" y2="423.12"/></g><!--link Dispensasjon to DispensasjonType--><g id="link_Dispensasjon_DispensasjonType"><path codeLine="19" d="M594.24,213.97 C485.9,254.99 337.89,311.42 208,362.32 C202.59,364.44 197.03,366.63 191.43,368.85 " fill="none" id="Dispensasjon-DispensasjonType" style="stroke:#181818;stroke-width:1.0;"/></g><!--link Dispensasjon to DispensasjonFra--><g id="link_Dispensasjon_DispensasjonFra"><path codeLine="20" d="M594.01,245.73 C526.07,285.21 449.41,329.76 394.15,361.87 " fill="none" id="Dispensasjon-DispensasjonFra" style="stroke:#181818;stroke-width:1.0;"/></g><!--link Dispensasjon to Vertikalnivaa--><g id="link_Dispensasjon_Vertikalnivaa"><path codeLine="21" d="M624.45,302.8 C606.25,324.31 588.79,344.93 574.33,362.01 " fill="none" id="Dispensasjon-Vertikalnivaa" style="stroke:#181818;stroke-width:1.0;"/></g><!--link Dispensasjon to NasjonalArealplanId--><g id="link_Dispensasjon_NasjonalArealplanId"><path codeLine="22" d="M749,302.8 C749,334.11 749,363.53 749,382.91 " fill="none" id="Dispensasjon-NasjonalArealplanId" style="stroke:#181818;stroke-width:1.0;"/></g><!--link Dispensasjon to Posisjon--><g id="link_Dispensasjon_Posisjon"><path codeLine="23" d="M845.35,302.8 C865.85,334.11 885.11,363.53 897.8,382.91 " fill="none" id="Dispensasjon-Posisjon" style="stroke:#181818;stroke-width:1.0;"/></g><!--link Dispensasjon to Saksnummer--><g id="link_Dispensasjon_Saksnummer"><path codeLine="24" d="M903.67,283.09 C950.02,321.28 996.04,359.19 1024.48,382.63 " fill="none" id="Dispensasjon-Saksnummer" style="stroke:#181818;stroke-width:1.0;"/></g><!--link Dispensasjon to Dokument--><g id="link_Dispensasjon_Dokument"><path codeLine="25" d="M903.71,236.21 C973.74,273.47 1057.19,319 1131,362.32 C1141.89,368.71 1153.55,375.96 1164.12,382.68 " fill="none" id="Dispensasjon-Dokument" style="stroke:#181818;stroke-width:1.0;"/></g><!--SRC=[hLB1IiGm4BtdAtAN_O6mB0YB8888Bbx4GtOprh7ff2HfGMJ_tQHDrwOfUz5UcddpCZDlNavQEiVtw5eW9zsd8VxDUFXkK05vVCTwG0LttY9LOqxD-8Ul5aHM8I8bxyxAd1Q0aKL3AFMj1QbRBUbU2VvOWYFx29NjY40xo8VgGNbPEoMz4Po7NngYDGv72K_fDF6j3-eqOI_3Q2_pS6hbQejzsGg9UjGL-BaUmO_6Q92fl0kpKDSqO0L_lfnJQscnkd9to7-07tRsgsI23wZdSDoECdNN1CDYjtqwlxwnCsEPjvjDwTGrGlHecSyNjSok-RRaN7nO9cPxAgPAeXWx5Kysok3RxODHiDjDxxSEKR1OOMvTXDTyFQyL3lB_hMwsjhzN_G40]--></g></svg>