<?xml version="1.0" encoding="us-ascii" standalone="no"?><svg xmlns="http://www.w3.org/2000/svg" xmlns:xlink="http://www.w3.org/1999/xlink" contentStyleType="text/css" height="450px" preserveAspectRatio="none" style="width:820px;height:450px;background:#FFFFFF;" version="1.1" viewBox="0 0 820 450" width="820px" zoomAndPan="magnify"><defs/><g><!--class Dispensasjon--><g id="elem_Dispensasjon"><rect codeLine="1" fill="#F1F1F1" height="295.3242" id="Dispensasjon" rx="2.5" ry="2.5" style="stroke:#181818;stroke-width:0.5;" width="309" x="320.5" y="7"/><ellipse cx="425.25" cy="23" fill="#ADD1B2" rx="11" ry="11" style="stroke:#181818;stroke-width:1.0;"/><path d="M427.7231,29.1431 Q427.1421,29.4419 426.5029,29.5913 Q425.8638,29.7407 425.1582,29.7407 Q422.6514,29.7407 421.3315,28.0889 Q420.0117,26.437 420.0117,23.3159 Q420.0117,20.1865 421.3315,18.5347 Q422.6514,16.8828 425.1582,16.8828 Q425.8638,16.8828 426.5112,17.0322 Q427.1587,17.1816 427.7231,17.4805 L427.7231,20.2031 Q427.0923,19.6221 426.4988,19.3523 Q425.9053,19.0825 425.2744,19.0825 Q423.9297,19.0825 423.2449,20.1492 Q422.5601,21.2158 422.5601,23.3159 Q422.5601,25.4077 423.2449,26.4744 Q423.9297,27.541 425.2744,27.541 Q425.9053,27.541 426.4988,27.2712 Q427.0923,27.0015 427.7231,26.4204 Z " fill="#000000"/><text fill="#000000" font-family="sans-serif" font-size="14" lengthAdjust="spacing" textLength="91" x="445.75" y="28.291">Dispensasjon</text><line style="stroke:#181818;stroke-width:0.5;" x1="321.5" x2="628.5" y1="39" y2="39"/><ellipse cx="331.5" cy="52.7441" fill="none" rx="3" ry="3" style="stroke:#038048;stroke-width:1.0;"/><text fill="#000000" font-family="sans-serif" font-size="14" lengthAdjust="spacing" textLength="141" x="340.5" y="56.5352">identifikasjon: string</text><ellipse cx="331.5" cy="69.2324" fill="none" rx="3" ry="3" style="stroke:#038048;stroke-width:1.0;"/><text fill="#000000" font-family="sans-serif" font-size="14" lengthAdjust="spacing" textLength="166" x="340.5" y="73.0234">dispensasjonType: Kode</text><ellipse cx="331.5" cy="85.7207" fill="none" rx="3" ry="3" style="stroke:#038048;stroke-width:1.0;"/><text fill="#000000" font-family="sans-serif" font-size="14" lengthAdjust="spacing" textLength="155" x="340.5" y="89.5117">dispensasjonFra: Kode</text><ellipse cx="331.5" cy="102.209" fill="none" rx="3" ry="3" style="stroke:#038048;stroke-width:1.0;"/><text fill="#000000" font-family="sans-serif" font-size="14" lengthAdjust="spacing" textLength="283" x="340.5" y="106">nasjonalArealplanId: NasjonalArealplanId</text><ellipse cx="331.5" cy="118.6973" fill="none" rx="3" ry="3" style="stroke:#038048;stroke-width:1.0;"/><text fill="#000000" font-family="sans-serif" font-size="14" lengthAdjust="spacing" textLength="134" x="340.5" y="122.4883">begrunnelse: string</text><ellipse cx="331.5" cy="135.1855" fill="none" rx="3" ry="3" style="stroke:#038048;stroke-width:1.0;"/><text fill="#000000" font-family="sans-serif" font-size="14" lengthAdjust="spacing" textLength="125" x="340.5" y="138.9766">vedtaksdato:  date</text><ellipse cx="331.5" cy="151.6738" fill="none" rx="3" ry="3" style="stroke:#038048;stroke-width:1.0;"/><text fill="#000000" font-family="sans-serif" font-size="14" lengthAdjust="spacing" textLength="123" x="340.5" y="155.4648">posisjon: Posisjon</text><ellipse cx="331.5" cy="168.1621" fill="none" rx="3" ry="3" style="stroke:#038048;stroke-width:1.0;"/><text fill="#000000" font-family="sans-serif" font-size="14" lengthAdjust="spacing" textLength="129" x="340.5" y="171.9531">vertikalnivaa: Kode</text><ellipse cx="331.5" cy="184.6504" fill="none" rx="3" ry="3" style="stroke:#038048;stroke-width:1.0;"/><text fill="#000000" font-family="sans-serif" font-size="14" lengthAdjust="spacing" textLength="124" x="340.5" y="188.4414">beskrivelse: string</text><ellipse cx="331.5" cy="201.1387" fill="none" rx="3" ry="3" style="stroke:#038048;stroke-width:1.0;"/><text fill="#000000" font-family="sans-serif" font-size="14" lengthAdjust="spacing" textLength="214" x="340.5" y="204.9297">innvilgetDispensasjon: boolean</text><ellipse cx="331.5" cy="217.627" fill="none" rx="3" ry="3" style="stroke:#038048;stroke-width:1.0;"/><text fill="#000000" font-family="sans-serif" font-size="14" lengthAdjust="spacing" textLength="185" x="340.5" y="221.418">saksnummer: Saksnummer</text><ellipse cx="331.5" cy="234.1152" fill="none" rx="3" ry="3" style="stroke:#038048;stroke-width:1.0;"/><text fill="#000000" font-family="sans-serif" font-size="14" lengthAdjust="spacing" textLength="189" x="340.5" y="237.9063">varigDispensasjon: boolean</text><ellipse cx="331.5" cy="250.6035" fill="none" rx="3" ry="3" style="stroke:#038048;stroke-width:1.0;"/><text fill="#000000" font-family="sans-serif" font-size="14" lengthAdjust="spacing" textLength="116" x="340.5" y="254.3945">varighetFra: date</text><ellipse cx="331.5" cy="267.0918" fill="none" rx="3" ry="3" style="stroke:#038048;stroke-width:1.0;"/><text fill="#000000" font-family="sans-serif" font-size="14" lengthAdjust="spacing" textLength="111" x="340.5" y="270.8828">varighetTil: date</text><ellipse cx="331.5" cy="283.5801" fill="none" rx="3" ry="3" style="stroke:#038048;stroke-width:1.0;"/><text fill="#000000" font-family="sans-serif" font-size="14" lengthAdjust="spacing" textLength="203" x="340.5" y="287.3711">plandokumenter: Dokument[]</text><line style="stroke:#181818;stroke-width:0.5;" x1="321.5" x2="628.5" y1="294.3242" y2="294.3242"/></g><!--class Kode--><g id="elem_Kode"><rect codeLine="25" fill="#F1F1F1" height="80.9766" id="Kode" rx="2.5" ry="2.5" style="stroke:#181818;stroke-width:0.5;" width="184" x="7" y="362.32"/><ellipse cx="77.25" cy="378.32" fill="#ADD1B2" rx="11" ry="11" style="stroke:#181818;stroke-width:1.0;"/><path d="M79.7231,384.4631 Q79.1421,384.7619 78.5029,384.9113 Q77.8638,385.0607 77.1582,385.0607 Q74.6514,385.0607 73.3315,383.4089 Q72.0117,381.757 72.0117,378.6359 Q72.0117,375.5065 73.3315,373.8547 Q74.6514,372.2028 77.1582,372.2028 Q77.8638,372.2028 78.5112,372.3522 Q79.1587,372.5016 79.7231,372.8005 L79.7231,375.5231 Q79.0923,374.9421 78.4988,374.6723 Q77.9053,374.4025 77.2744,374.4025 Q75.9297,374.4025 75.2449,375.4692 Q74.5601,376.5358 74.5601,378.6359 Q74.5601,380.7277 75.2449,381.7944 Q75.9297,382.861 77.2744,382.861 Q77.9053,382.861 78.4988,382.5912 Q79.0923,382.3215 79.7231,381.7404 Z " fill="#000000"/><text fill="#000000" font-family="sans-serif" font-size="14" lengthAdjust="spacing" textLength="35" x="97.75" y="383.611">Kode</text><line style="stroke:#181818;stroke-width:0.5;" x1="8" x2="190" y1="394.32" y2="394.32"/><ellipse cx="18" cy="408.0641" fill="none" rx="3" ry="3" style="stroke:#038048;stroke-width:1.0;"/><text fill="#000000" font-family="sans-serif" font-size="14" lengthAdjust="spacing" textLength="116" x="27" y="411.8552">kodeverdi: string</text><ellipse cx="18" cy="424.5524" fill="none" rx="3" ry="3" style="stroke:#038048;stroke-width:1.0;"/><text fill="#000000" font-family="sans-serif" font-size="14" lengthAdjust="spacing" textLength="158" x="27" y="428.3434">kodebeskrivelse: string</text><line style="stroke:#181818;stroke-width:0.5;" x1="8" x2="190" y1="435.2966" y2="435.2966"/></g><!--class NasjonalArealplanId--><g id="elem_NasjonalArealplanId"><rect fill="#F1F1F1" height="48" id="NasjonalArealplanId" rx="2.5" ry="2.5" style="stroke:#181818;stroke-width:0.5;" width="170" x="226" y="378.81"/><ellipse cx="241" cy="394.81" fill="#ADD1B2" rx="11" ry="11" style="stroke:#181818;stroke-width:1.0;"/><path d="M243.4731,400.9531 Q242.8921,401.2519 242.2529,401.4013 Q241.6138,401.5507 240.9082,401.5507 Q238.4014,401.5507 237.0815,399.8989 Q235.7617,398.247 235.7617,395.1259 Q235.7617,391.9965 237.0815,390.3447 Q238.4014,388.6928 240.9082,388.6928 Q241.6138,388.6928 242.2612,388.8422 Q242.9087,388.9916 243.4731,389.2905 L243.4731,392.0131 Q242.8423,391.4321 242.2488,391.1623 Q241.6553,390.8925 241.0244,390.8925 Q239.6797,390.8925 238.9949,391.9592 Q238.3101,393.0258 238.3101,395.1259 Q238.3101,397.2177 238.9949,398.2844 Q239.6797,399.351 241.0244,399.351 Q241.6553,399.351 242.2488,399.0812 Q242.8423,398.8115 243.4731,398.2304 Z " fill="#000000"/><text fill="#000000" font-family="sans-serif" font-size="14" lengthAdjust="spacing" textLength="138" x="255" y="400.101">NasjonalArealplanId</text><line style="stroke:#181818;stroke-width:0.5;" x1="227" x2="395" y1="410.81" y2="410.81"/><line style="stroke:#181818;stroke-width:0.5;" x1="227" x2="395" y1="418.81" y2="418.81"/></g><!--class Posisjon--><g id="elem_Posisjon"><rect fill="#F1F1F1" height="48" id="Posisjon" rx="2.5" ry="2.5" style="stroke:#181818;stroke-width:0.5;" width="89" x="430.5" y="378.81"/><ellipse cx="445.5" cy="394.81" fill="#ADD1B2" rx="11" ry="11" style="stroke:#181818;stroke-width:1.0;"/><path d="M447.9731,400.9531 Q447.3921,401.2519 446.7529,401.4013 Q446.1138,401.5507 445.4082,401.5507 Q442.9014,401.5507 441.5815,399.8989 Q440.2617,398.247 440.2617,395.1259 Q440.2617,391.9965 441.5815,390.3447 Q442.9014,388.6928 445.4082,388.6928 Q446.1138,388.6928 446.7612,388.8422 Q447.4087,388.9916 447.9731,389.2905 L447.9731,392.0131 Q447.3423,391.4321 446.7488,391.1623 Q446.1553,390.8925 445.5244,390.8925 Q444.1797,390.8925 443.4949,391.9592 Q442.8101,393.0258 442.8101,395.1259 Q442.8101,397.2177 443.4949,398.2844 Q444.1797,399.351 445.5244,399.351 Q446.1553,399.351 446.7488,399.0812 Q447.3423,398.8115 447.9731,398.2304 Z " fill="#000000"/><text fill="#000000" font-family="sans-serif" font-size="14" lengthAdjust="spacing" textLength="57" x="459.5" y="400.101">Posisjon</text><line style="stroke:#181818;stroke-width:0.5;" x1="431.5" x2="518.5" y1="410.81" y2="410.81"/><line style="stroke:#181818;stroke-width:0.5;" x1="431.5" x2="518.5" y1="418.81" y2="418.81"/></g><!--class Saksnummer--><g id="elem_Saksnummer"><rect fill="#F1F1F1" height="48" id="Saksnummer" rx="2.5" ry="2.5" style="stroke:#181818;stroke-width:0.5;" width="121" x="554.5" y="378.81"/><ellipse cx="569.5" cy="394.81" fill="#ADD1B2" rx="11" ry="11" style="stroke:#181818;stroke-width:1.0;"/><path d="M571.9731,400.9531 Q571.3921,401.2519 570.7529,401.4013 Q570.1138,401.5507 569.4082,401.5507 Q566.9014,401.5507 565.5815,399.8989 Q564.2617,398.247 564.2617,395.1259 Q564.2617,391.9965 565.5815,390.3447 Q566.9014,388.6928 569.4082,388.6928 Q570.1138,388.6928 570.7612,388.8422 Q571.4087,388.9916 571.9731,389.2905 L571.9731,392.0131 Q571.3423,391.4321 570.7488,391.1623 Q570.1553,390.8925 569.5244,390.8925 Q568.1797,390.8925 567.4949,391.9592 Q566.8101,393.0258 566.8101,395.1259 Q566.8101,397.2177 567.4949,398.2844 Q568.1797,399.351 569.5244,399.351 Q570.1553,399.351 570.7488,399.0812 Q571.3423,398.8115 571.9731,398.2304 Z " fill="#000000"/><text fill="#000000" font-family="sans-serif" font-size="14" lengthAdjust="spacing" textLength="89" x="583.5" y="400.101">Saksnummer</text><line style="stroke:#181818;stroke-width:0.5;" x1="555.5" x2="674.5" y1="410.81" y2="410.81"/><line style="stroke:#181818;stroke-width:0.5;" x1="555.5" x2="674.5" y1="418.81" y2="418.81"/></g><!--class Dokument--><g id="elem_Dokument"><rect fill="#F1F1F1" height="48" id="Dokument" rx="2.5" ry="2.5" style="stroke:#181818;stroke-width:0.5;" width="103" x="710.5" y="378.81"/><ellipse cx="725.5" cy="394.81" fill="#ADD1B2" rx="11" ry="11" style="stroke:#181818;stroke-width:1.0;"/><path d="M727.9731,400.9531 Q727.3921,401.2519 726.7529,401.4013 Q726.1138,401.5507 725.4082,401.5507 Q722.9014,401.5507 721.5815,399.8989 Q720.2617,398.247 720.2617,395.1259 Q720.2617,391.9965 721.5815,390.3447 Q722.9014,388.6928 725.4082,388.6928 Q726.1138,388.6928 726.7612,388.8422 Q727.4087,388.9916 727.9731,389.2905 L727.9731,392.0131 Q727.3423,391.4321 726.7488,391.1623 Q726.1553,390.8925 725.5244,390.8925 Q724.1797,390.8925 723.4949,391.9592 Q722.8101,393.0258 722.8101,395.1259 Q722.8101,397.2177 723.4949,398.2844 Q724.1797,399.351 725.5244,399.351 Q726.1553,399.351 726.7488,399.0812 Q727.3423,398.8115 727.9731,398.2304 Z " fill="#000000"/><text fill="#000000" font-family="sans-serif" font-size="14" lengthAdjust="spacing" textLength="71" x="739.5" y="400.101">Dokument</text><line style="stroke:#181818;stroke-width:0.5;" x1="711.5" x2="812.5" y1="410.81" y2="410.81"/><line style="stroke:#181818;stroke-width:0.5;" x1="711.5" x2="812.5" y1="418.81" y2="418.81"/></g><!--link Dispensasjon to Kode--><g id="link_Dispensasjon_Kode"><path codeLine="19" d="M320.17,257.02 C263.69,294 203.09,333.67 159.63,362.12 " fill="none" id="Dispensasjon-Kode" style="stroke:#181818;stroke-width:1.0;"/></g><!--link Dispensasjon to NasjonalArealplanId--><g id="link_Dispensasjon_NasjonalArealplanId"><path codeLine="20" d="M377,302.76 C357.29,332.33 338.88,359.97 326.53,378.5 " fill="none" id="Dispensasjon-NasjonalArealplanId" style="stroke:#181818;stroke-width:1.0;"/></g><!--link Dispensasjon to Posisjon--><g id="link_Dispensasjon_Posisjon"><path codeLine="21" d="M475,302.76 C475,332.33 475,359.97 475,378.5 " fill="none" id="Dispensasjon-Posisjon" style="stroke:#181818;stroke-width:1.0;"/></g><!--link Dispensasjon to Saksnummer--><g id="link_Dispensasjon_Saksnummer"><path codeLine="22" d="M558.66,302.76 C575.48,332.33 591.2,359.97 601.74,378.5 " fill="none" id="Dispensasjon-Saksnummer" style="stroke:#181818;stroke-width:1.0;"/></g><!--link Dispensasjon to Dokument--><g id="link_Dispensasjon_Dokument"><path codeLine="23" d="M629.84,288.46 C670.35,323.2 709.64,356.91 734.71,378.4 " fill="none" id="Dispensasjon-Dokument" style="stroke:#181818;stroke-width:1.0;"/></g><!--SRC=[VLBBQiGm3BpxAtml-mE-5PP2APH2zrPwKDPggjgHW-K4Ijb_hvCuspoM-c8n8skaaSyUHFIHf4KMaA_0-aVfVEx88YVw83UYHakAnFN4sKN-wRj5ev-2nJtt4659yGY2luy8llN0ZzRevpquPLTOnuuPlU1QlKURm8c558pM-Ihbso0qzVfIeZa_fZo6P-fXrK-5uYBrUmLYxidNc9R665s5u15ALSajSDSq68r-lSP54IBL_xmT-KzCepz_0ypmYVmI7aonmNLDNiYWTYpnsxkwABNQtU4mZRS5RvcypRcQjYKMqssfkHMbpkD76iJd3-HodAstjFPsW6yPVr6_]--></g></svg>