<?xml version="1.0" encoding="us-ascii" standalone="no"?><svg xmlns="http://www.w3.org/2000/svg" xmlns:xlink="http://www.w3.org/1999/xlink" contentStyleType="text/css" height="327px" preserveAspectRatio="none" style="width:1444px;height:327px;background:#FFFFFF;" version="1.1" viewBox="0 0 1444 327" width="1444px" zoomAndPan="magnify"><defs/><g><!--class OppdaterDispensasjon--><g id="elem_OppdaterDispensasjon"><rect codeLine="2" fill="#F1F1F1" height="163.418" id="OppdaterDispensasjon" rx="2.5" ry="2.5" style="stroke:#181818;stroke-width:0.5;" width="421" x="30" y="7"/><ellipse cx="158.25" cy="23" fill="#ADD1B2" rx="11" ry="11" style="stroke:#181818;stroke-width:1.0;"/><path d="M160.7231,29.1431 Q160.1421,29.4419 159.5029,29.5913 Q158.8638,29.7407 158.1582,29.7407 Q155.6514,29.7407 154.3315,28.0889 Q153.0117,26.437 153.0117,23.3159 Q153.0117,20.1865 154.3315,18.5347 Q155.6514,16.8828 158.1582,16.8828 Q158.8638,16.8828 159.5112,17.0322 Q160.1587,17.1816 160.7231,17.4805 L160.7231,20.2031 Q160.0923,19.6221 159.4988,19.3523 Q158.9053,19.0825 158.2744,19.0825 Q156.9297,19.0825 156.2449,20.1492 Q155.5601,21.2158 155.5601,23.3159 Q155.5601,25.4077 156.2449,26.4744 Q156.9297,27.541 158.2744,27.541 Q158.9053,27.541 159.4988,27.2712 Q160.0923,27.0015 160.7231,26.4204 Z " fill="#000000"/><text fill="#000000" font-family="sans-serif" font-size="14" lengthAdjust="spacing" textLength="156" x="178.75" y="28.291">OppdaterDispensasjon</text><line style="stroke:#181818;stroke-width:0.5;" x1="31" x2="450" y1="39" y2="39"/><ellipse cx="41" cy="52.7441" fill="none" rx="3" ry="3" style="stroke:#038048;stroke-width:1.0;"/><text fill="#000000" font-family="sans-serif" font-size="14" lengthAdjust="spacing" textLength="189" x="50" y="56.5352">dispensasjon: Dispensasjon</text><ellipse cx="41" cy="69.2324" fill="none" rx="3" ry="3" style="stroke:#038048;stroke-width:1.0;"/><text fill="#000000" font-family="sans-serif" font-size="14" lengthAdjust="spacing" textLength="192" x="50" y="73.0234">opphevIdentifikasjon: string</text><ellipse cx="41" cy="85.7207" fill="none" rx="3" ry="3" style="stroke:#038048;stroke-width:1.0;"/><text fill="#000000" font-family="sans-serif" font-size="14" lengthAdjust="spacing" textLength="134" x="50" y="89.5117">begrunnelse: string</text><ellipse cx="41" cy="102.209" fill="none" rx="3" ry="3" style="stroke:#038048;stroke-width:1.0;"/><text fill="#000000" font-family="sans-serif" font-size="14" lengthAdjust="spacing" textLength="395" x="50" y="106">referanseKlageSaksnummer: ReferanseKlageSaksnummer</text><ellipse cx="41" cy="118.6973" fill="none" rx="3" ry="3" style="stroke:#038048;stroke-width:1.0;"/><text fill="#000000" font-family="sans-serif" font-size="14" lengthAdjust="spacing" textLength="203" x="50" y="122.4883">plandokumenter: Dokument[]</text><ellipse cx="41" cy="135.1855" fill="none" rx="3" ry="3" style="stroke:#038048;stroke-width:1.0;"/><text fill="#000000" font-family="sans-serif" font-size="14" lengthAdjust="spacing" textLength="241" x="50" y="138.9766">forslagstillertype: Forslagstillertype</text><ellipse cx="41" cy="151.6738" fill="none" rx="3" ry="3" style="stroke:#038048;stroke-width:1.0;"/><text fill="#000000" font-family="sans-serif" font-size="14" lengthAdjust="spacing" textLength="143" x="50" y="155.4648">vedlegg: Dokument[]</text><line style="stroke:#181818;stroke-width:0.5;" x1="31" x2="450" y1="162.418" y2="162.418"/></g><!--class ReferanseKlageSaksnummer--><g id="elem_ReferanseKlageSaksnummer"><rect codeLine="12" fill="#F1F1F1" height="80.9766" id="ReferanseKlageSaksnummer" rx="2.5" ry="2.5" style="stroke:#181818;stroke-width:0.5;" width="227" x="7" y="234.73"/><ellipse cx="22" cy="250.73" fill="#ADD1B2" rx="11" ry="11" style="stroke:#181818;stroke-width:1.0;"/><path d="M24.4731,256.8731 Q23.8921,257.1719 23.2529,257.3213 Q22.6138,257.4707 21.9082,257.4707 Q19.4014,257.4707 18.0815,255.8189 Q16.7617,254.167 16.7617,251.0459 Q16.7617,247.9165 18.0815,246.2647 Q19.4014,244.6128 21.9082,244.6128 Q22.6138,244.6128 23.2612,244.7622 Q23.9087,244.9116 24.4731,245.2105 L24.4731,247.9331 Q23.8423,247.3521 23.2488,247.0823 Q22.6553,246.8125 22.0244,246.8125 Q20.6797,246.8125 19.9949,247.8792 Q19.3101,248.9458 19.3101,251.0459 Q19.3101,253.1377 19.9949,254.2044 Q20.6797,255.271 22.0244,255.271 Q22.6553,255.271 23.2488,255.0012 Q23.8423,254.7315 24.4731,254.1504 Z " fill="#000000"/><text fill="#000000" font-family="sans-serif" font-size="14" lengthAdjust="spacing" textLength="195" x="36" y="256.021">ReferanseKlageSaksnummer</text><line style="stroke:#181818;stroke-width:0.5;" x1="8" x2="233" y1="266.73" y2="266.73"/><ellipse cx="18" cy="280.4741" fill="none" rx="3" ry="3" style="stroke:#038048;stroke-width:1.0;"/><text fill="#000000" font-family="sans-serif" font-size="14" lengthAdjust="spacing" textLength="109" x="27" y="284.2652">saksaar: integer</text><ellipse cx="18" cy="296.9624" fill="none" rx="3" ry="3" style="stroke:#038048;stroke-width:1.0;"/><text fill="#000000" font-family="sans-serif" font-size="14" lengthAdjust="spacing" textLength="199" x="27" y="300.7534">sakssekvensnummer: integer</text><line style="stroke:#181818;stroke-width:0.5;" x1="8" x2="233" y1="307.7066" y2="307.7066"/></g><!--class ForslagstillerType--><g id="elem_ForslagstillerType"><rect codeLine="17" fill="#F1F1F1" height="89.5977" id="ForslagstillerType" rx="2.5" ry="2.5" style="stroke:#181818;stroke-width:0.5;" width="184" x="269.5" y="230.42"/><ellipse cx="298" cy="250.7305" fill="#ADD1B2" rx="11" ry="11" style="stroke:#181818;stroke-width:1.0;"/><path d="M300.4731,256.8736 Q299.8921,257.1724 299.2529,257.3219 Q298.6138,257.4713 297.9082,257.4713 Q295.4014,257.4713 294.0815,255.8194 Q292.7617,254.1676 292.7617,251.0465 Q292.7617,247.9171 294.0815,246.2652 Q295.4014,244.6134 297.9082,244.6134 Q298.6138,244.6134 299.2612,244.7628 Q299.9087,244.9122 300.4731,245.211 L300.4731,247.9337 Q299.8423,247.3526 299.2488,247.0828 Q298.6553,246.8131 298.0244,246.8131 Q296.6797,246.8131 295.9949,247.8797 Q295.3101,248.9464 295.3101,251.0465 Q295.3101,253.1383 295.9949,254.2049 Q296.6797,255.2716 298.0244,255.2716 Q298.6553,255.2716 299.2488,255.0018 Q299.8423,254.732 300.4731,254.151 Z " fill="#000000"/><text fill="#000000" font-family="sans-serif" font-size="12" font-style="italic" lengthAdjust="spacing" textLength="42" x="355" y="247.0216">&#171;Kode&#187;</text><text fill="#000000" font-family="sans-serif" font-size="14" lengthAdjust="spacing" textLength="122" x="315" y="263.088">ForslagstillerType</text><line style="stroke:#181818;stroke-width:0.5;" x1="270.5" x2="452.5" y1="271.0411" y2="271.0411"/><ellipse cx="280.5" cy="284.7852" fill="none" rx="3" ry="3" style="stroke:#038048;stroke-width:1.0;"/><text fill="#000000" font-family="sans-serif" font-size="14" lengthAdjust="spacing" textLength="116" x="289.5" y="288.5762">kodeverdi: string</text><ellipse cx="280.5" cy="301.2735" fill="none" rx="3" ry="3" style="stroke:#038048;stroke-width:1.0;"/><text fill="#000000" font-family="sans-serif" font-size="14" lengthAdjust="spacing" textLength="158" x="289.5" y="305.0645">kodebeskrivelse: string</text><line style="stroke:#181818;stroke-width:0.5;" x1="270.5" x2="452.5" y1="312.0177" y2="312.0177"/></g><!--class Dispensasjon--><g id="elem_Dispensasjon"><rect fill="#F1F1F1" height="48" id="Dispensasjon" rx="2.5" ry="2.5" style="stroke:#181818;stroke-width:0.5;" width="123" x="573" y="251.22"/><ellipse cx="588" cy="267.22" fill="#ADD1B2" rx="11" ry="11" style="stroke:#181818;stroke-width:1.0;"/><path d="M590.4731,273.3631 Q589.8921,273.6619 589.2529,273.8113 Q588.6138,273.9607 587.9082,273.9607 Q585.4014,273.9607 584.0815,272.3089 Q582.7617,270.657 582.7617,267.5359 Q582.7617,264.4065 584.0815,262.7547 Q585.4014,261.1028 587.9082,261.1028 Q588.6138,261.1028 589.2612,261.2522 Q589.9087,261.4016 590.4731,261.7005 L590.4731,264.4231 Q589.8423,263.8421 589.2488,263.5723 Q588.6553,263.3025 588.0244,263.3025 Q586.6797,263.3025 585.9949,264.3692 Q585.3101,265.4358 585.3101,267.5359 Q585.3101,269.6277 585.9949,270.6944 Q586.6797,271.761 588.0244,271.761 Q588.6553,271.761 589.2488,271.4912 Q589.8423,271.2215 590.4731,270.6404 Z " fill="#000000"/><text fill="#000000" font-family="sans-serif" font-size="14" lengthAdjust="spacing" textLength="91" x="602" y="272.511">Dispensasjon</text><line style="stroke:#181818;stroke-width:0.5;" x1="574" x2="695" y1="283.22" y2="283.22"/><line style="stroke:#181818;stroke-width:0.5;" x1="574" x2="695" y1="291.22" y2="291.22"/></g><!--class Dokument--><g id="elem_Dokument"><rect fill="#F1F1F1" height="48" id="Dokument" rx="2.5" ry="2.5" style="stroke:#181818;stroke-width:0.5;" width="103" x="946" y="251.22"/><ellipse cx="961" cy="267.22" fill="#ADD1B2" rx="11" ry="11" style="stroke:#181818;stroke-width:1.0;"/><path d="M963.4731,273.3631 Q962.8921,273.6619 962.2529,273.8113 Q961.6138,273.9607 960.9082,273.9607 Q958.4014,273.9607 957.0815,272.3089 Q955.7617,270.657 955.7617,267.5359 Q955.7617,264.4065 957.0815,262.7547 Q958.4014,261.1028 960.9082,261.1028 Q961.6138,261.1028 962.2612,261.2522 Q962.9087,261.4016 963.4731,261.7005 L963.4731,264.4231 Q962.8423,263.8421 962.2488,263.5723 Q961.6553,263.3025 961.0244,263.3025 Q959.6797,263.3025 958.9949,264.3692 Q958.3101,265.4358 958.3101,267.5359 Q958.3101,269.6277 958.9949,270.6944 Q959.6797,271.761 961.0244,271.761 Q961.6553,271.761 962.2488,271.4912 Q962.8423,271.2215 963.4731,270.6404 Z " fill="#000000"/><text fill="#000000" font-family="sans-serif" font-size="14" lengthAdjust="spacing" textLength="71" x="975" y="272.511">Dokument</text><line style="stroke:#181818;stroke-width:0.5;" x1="947" x2="1048" y1="283.22" y2="283.22"/><line style="stroke:#181818;stroke-width:0.5;" x1="947" x2="1048" y1="291.22" y2="291.22"/></g><g id="elem_GMN11"><path d="M485.5,76.06 L485.5,101.3705 A0,0 0 0 0 485.5,101.3705 L709.92,101.3705 L645.25,250.89 L717.92,101.3705 L953.5,101.3705 A0,0 0 0 0 953.5,101.3705 L953.5,86.06 L943.5,76.06 L485.5,76.06 A0,0 0 0 0 485.5,76.06 " fill="#FEFFDD" style="stroke:#181818;stroke-width:0.5;"/><path d="M943.5,76.06 L943.5,86.06 L953.5,86.06 L943.5,76.06 " fill="#FEFFDD" style="stroke:#181818;stroke-width:0.5;"/><text fill="#000000" font-family="sans-serif" font-size="13" lengthAdjust="spacing" textLength="447" x="491.5" y="93.6284">Se detaljer i diagram for skjema 'no.ks.fiks.plan.v2.felles.dispensasjon'</text></g><g id="elem_GMN14"><path d="M988,76.06 L988,101.3705 A0,0 0 0 0 988,101.3705 L1194.39,101.3705 L1024.69,250.89 L1202.39,101.3705 L1437,101.3705 A0,0 0 0 0 1437,101.3705 L1437,86.06 L1427,76.06 L988,76.06 A0,0 0 0 0 988,76.06 " fill="#FEFFDD" style="stroke:#181818;stroke-width:0.5;"/><path d="M1427,76.06 L1427,86.06 L1437,86.06 L1427,76.06 " fill="#FEFFDD" style="stroke:#181818;stroke-width:0.5;"/><text fill="#000000" font-family="sans-serif" font-size="13" lengthAdjust="spacing" textLength="428" x="994" y="93.6284">Se detaljer i diagram for skjema 'no.ks.fiks.plan.v2.felles.dokument'</text></g><!--link OppdaterDispensasjon to ForslagstillerType--><g id="link_OppdaterDispensasjon_ForslagstillerType"><path codeLine="22" d="M293.75,170.91 C307.06,191.21 320.85,212.24 332.49,229.98 " fill="none" id="OppdaterDispensasjon-ForslagstillerType" style="stroke:#181818;stroke-width:1.0;"/></g><!--link OppdaterDispensasjon to Dispensasjon--><g id="link_OppdaterDispensasjon_Dispensasjon"><path codeLine="23" d="M413.89,170.91 C476.03,200.01 541.35,230.6 584.64,250.87 " fill="none" id="OppdaterDispensasjon-Dispensasjon" style="stroke:#181818;stroke-width:1.0;"/></g><!--link OppdaterDispensasjon to Dokument--><g id="link_OppdaterDispensasjon_Dokument"><path codeLine="24" d="M451.32,165.84 C456.76,167.43 462.16,168.96 467.5,170.42 C640.22,217.76 850.23,252.24 945.75,266.7 " fill="none" id="OppdaterDispensasjon-Dokument" style="stroke:#181818;stroke-width:1.0;"/></g><!--link OppdaterDispensasjon to ReferanseKlageSaksnummer--><g id="link_OppdaterDispensasjon_ReferanseKlageSaksnummer"><path codeLine="25" d="M187.69,170.91 C173.35,192.95 158.46,215.85 146.35,234.47 " fill="none" id="OppdaterDispensasjon-ReferanseKlageSaksnummer" style="stroke:#181818;stroke-width:1.0;"/></g><!--SRC=[fLAnJiCm4Dtp5RTrGCt065MTAYJK0Oco8OPhVJ6k7TlokP4Guj-va0JLefd8vDmzl_VyxauEcU4fHeMPqivm9C_8v-3XimBvxjHLhO5hnDWFCRvJ_wZ8PzCQE-4u9-FrY3YIJXVloJ6LZKGj9VHCUuUQ3cZPNxgEKWFF2vtnNdJeLR2NJZG7z6uwlxwD_JOabdkSZNEKyaSKtOS_jH7RatAaTK7oLLMddroMRCpPi5GGnO4H8tgsDrIPR2yvpU-P-x_CfPqNiGERpJuescudRYi_FILboio6yf7O9jCNWGhppIckrpUq5g75U1T1KrABWCNfLJvaWXmYXBRGWWOE18eokhF4Qq0Pr0axa542spDr22iVQikrx1ZNmmRK_NtTaZo9w-iTNPKYazV_2amqg-eR]--></g></svg>