<?xml version="1.0" encoding="us-ascii" standalone="no"?><svg xmlns="http://www.w3.org/2000/svg" xmlns:xlink="http://www.w3.org/1999/xlink" contentStyleType="text/css" height="285px" preserveAspectRatio="none" style="width:1682px;height:285px;background:#FFFFFF;" version="1.1" viewBox="0 0 1682 285" width="1682px" zoomAndPan="magnify"><defs/><g><!--class OppdaterDispensasjon--><g id="elem_OppdaterDispensasjon"><rect codeLine="2" fill="#F1F1F1" height="163.418" id="OppdaterDispensasjon" rx="2.5" ry="2.5" style="stroke:#181818;stroke-width:0.5;" width="421" x="508.5" y="7"/><ellipse cx="636.75" cy="23" fill="#ADD1B2" rx="11" ry="11" style="stroke:#181818;stroke-width:1.0;"/><path d="M639.2231,29.1431 Q638.6421,29.4419 638.0029,29.5913 Q637.3638,29.7407 636.6582,29.7407 Q634.1514,29.7407 632.8315,28.0889 Q631.5117,26.437 631.5117,23.3159 Q631.5117,20.1865 632.8315,18.5347 Q634.1514,16.8828 636.6582,16.8828 Q637.3638,16.8828 638.0112,17.0322 Q638.6587,17.1816 639.2231,17.4805 L639.2231,20.2031 Q638.5923,19.6221 637.9988,19.3523 Q637.4053,19.0825 636.7744,19.0825 Q635.4297,19.0825 634.7449,20.1492 Q634.0601,21.2158 634.0601,23.3159 Q634.0601,25.4077 634.7449,26.4744 Q635.4297,27.541 636.7744,27.541 Q637.4053,27.541 637.9988,27.2712 Q638.5923,27.0015 639.2231,26.4204 Z " fill="#000000"/><text fill="#000000" font-family="sans-serif" font-size="14" lengthAdjust="spacing" textLength="156" x="657.25" y="28.291">OppdaterDispensasjon</text><line style="stroke:#181818;stroke-width:0.5;" x1="509.5" x2="928.5" y1="39" y2="39"/><ellipse cx="519.5" cy="52.7441" fill="none" rx="3" ry="3" style="stroke:#038048;stroke-width:1.0;"/><text fill="#000000" font-family="sans-serif" font-size="14" lengthAdjust="spacing" textLength="189" x="528.5" y="56.5352">dispensasjon: Dispensasjon</text><ellipse cx="519.5" cy="69.2324" fill="none" rx="3" ry="3" style="stroke:#038048;stroke-width:1.0;"/><text fill="#000000" font-family="sans-serif" font-size="14" lengthAdjust="spacing" textLength="192" x="528.5" y="73.0234">opphevIdentifikasjon: string</text><ellipse cx="519.5" cy="85.7207" fill="none" rx="3" ry="3" style="stroke:#038048;stroke-width:1.0;"/><text fill="#000000" font-family="sans-serif" font-size="14" lengthAdjust="spacing" textLength="134" x="528.5" y="89.5117">begrunnelse: string</text><ellipse cx="519.5" cy="102.209" fill="none" rx="3" ry="3" style="stroke:#038048;stroke-width:1.0;"/><text fill="#000000" font-family="sans-serif" font-size="14" lengthAdjust="spacing" textLength="395" x="528.5" y="106">referanseKlageSaksnummer: ReferanseKlageSaksnummer</text><ellipse cx="519.5" cy="118.6973" fill="none" rx="3" ry="3" style="stroke:#038048;stroke-width:1.0;"/><text fill="#000000" font-family="sans-serif" font-size="14" lengthAdjust="spacing" textLength="203" x="528.5" y="122.4883">plandokumenter: Dokument[]</text><ellipse cx="519.5" cy="135.1855" fill="none" rx="3" ry="3" style="stroke:#038048;stroke-width:1.0;"/><text fill="#000000" font-family="sans-serif" font-size="14" lengthAdjust="spacing" textLength="158" x="528.5" y="138.9766">forslagstillertype: Kode</text><ellipse cx="519.5" cy="151.6738" fill="none" rx="3" ry="3" style="stroke:#038048;stroke-width:1.0;"/><text fill="#000000" font-family="sans-serif" font-size="14" lengthAdjust="spacing" textLength="143" x="528.5" y="155.4648">vedlegg: Dokument[]</text><line style="stroke:#181818;stroke-width:0.5;" x1="509.5" x2="928.5" y1="162.418" y2="162.418"/></g><!--class ReferanseKlageSaksnummer--><g id="elem_ReferanseKlageSaksnummer"><rect codeLine="12" fill="#F1F1F1" height="80.9766" id="ReferanseKlageSaksnummer" rx="2.5" ry="2.5" style="stroke:#181818;stroke-width:0.5;" width="227" x="1448.5" y="48.22"/><ellipse cx="1463.5" cy="64.22" fill="#ADD1B2" rx="11" ry="11" style="stroke:#181818;stroke-width:1.0;"/><path d="M1465.9731,70.3631 Q1465.3921,70.6619 1464.7529,70.8113 Q1464.1138,70.9607 1463.4082,70.9607 Q1460.9014,70.9607 1459.5815,69.3089 Q1458.2617,67.657 1458.2617,64.5359 Q1458.2617,61.4065 1459.5815,59.7547 Q1460.9014,58.1028 1463.4082,58.1028 Q1464.1138,58.1028 1464.7612,58.2522 Q1465.4087,58.4016 1465.9731,58.7005 L1465.9731,61.4231 Q1465.3423,60.8421 1464.7488,60.5723 Q1464.1553,60.3025 1463.5244,60.3025 Q1462.1797,60.3025 1461.4949,61.3692 Q1460.8101,62.4358 1460.8101,64.5359 Q1460.8101,66.6277 1461.4949,67.6944 Q1462.1797,68.761 1463.5244,68.761 Q1464.1553,68.761 1464.7488,68.4912 Q1465.3423,68.2215 1465.9731,67.6404 Z " fill="#000000"/><text fill="#000000" font-family="sans-serif" font-size="14" lengthAdjust="spacing" textLength="195" x="1477.5" y="69.511">ReferanseKlageSaksnummer</text><line style="stroke:#181818;stroke-width:0.5;" x1="1449.5" x2="1674.5" y1="80.22" y2="80.22"/><ellipse cx="1459.5" cy="93.9641" fill="none" rx="3" ry="3" style="stroke:#038048;stroke-width:1.0;"/><text fill="#000000" font-family="sans-serif" font-size="14" lengthAdjust="spacing" textLength="109" x="1468.5" y="97.7552">saksaar: integer</text><ellipse cx="1459.5" cy="110.4524" fill="none" rx="3" ry="3" style="stroke:#038048;stroke-width:1.0;"/><text fill="#000000" font-family="sans-serif" font-size="14" lengthAdjust="spacing" textLength="199" x="1468.5" y="114.2434">sakssekvensnummer: integer</text><line style="stroke:#181818;stroke-width:0.5;" x1="1449.5" x2="1674.5" y1="121.1966" y2="121.1966"/></g><!--class Dispensasjon--><g id="elem_Dispensasjon"><rect fill="#F1F1F1" height="48" id="Dispensasjon" rx="2.5" ry="2.5" style="stroke:#181818;stroke-width:0.5;" width="123" x="500.5" y="230.42"/><ellipse cx="515.5" cy="246.42" fill="#ADD1B2" rx="11" ry="11" style="stroke:#181818;stroke-width:1.0;"/><path d="M517.9731,252.5631 Q517.3921,252.8619 516.7529,253.0113 Q516.1138,253.1607 515.4082,253.1607 Q512.9014,253.1607 511.5815,251.5089 Q510.2617,249.857 510.2617,246.7359 Q510.2617,243.6065 511.5815,241.9547 Q512.9014,240.3028 515.4082,240.3028 Q516.1138,240.3028 516.7612,240.4522 Q517.4087,240.6016 517.9731,240.9005 L517.9731,243.6231 Q517.3423,243.0421 516.7488,242.7723 Q516.1553,242.5025 515.5244,242.5025 Q514.1797,242.5025 513.4949,243.5692 Q512.8101,244.6358 512.8101,246.7359 Q512.8101,248.8277 513.4949,249.8944 Q514.1797,250.961 515.5244,250.961 Q516.1553,250.961 516.7488,250.6912 Q517.3423,250.4215 517.9731,249.8404 Z " fill="#000000"/><text fill="#000000" font-family="sans-serif" font-size="14" lengthAdjust="spacing" textLength="91" x="529.5" y="251.711">Dispensasjon</text><line style="stroke:#181818;stroke-width:0.5;" x1="501.5" x2="622.5" y1="262.42" y2="262.42"/><line style="stroke:#181818;stroke-width:0.5;" x1="501.5" x2="622.5" y1="270.42" y2="270.42"/></g><!--class Dokument--><g id="elem_Dokument"><rect fill="#F1F1F1" height="48" id="Dokument" rx="2.5" ry="2.5" style="stroke:#181818;stroke-width:0.5;" width="103" x="823.5" y="230.42"/><ellipse cx="838.5" cy="246.42" fill="#ADD1B2" rx="11" ry="11" style="stroke:#181818;stroke-width:1.0;"/><path d="M840.9731,252.5631 Q840.3921,252.8619 839.7529,253.0113 Q839.1138,253.1607 838.4082,253.1607 Q835.9014,253.1607 834.5815,251.5089 Q833.2617,249.857 833.2617,246.7359 Q833.2617,243.6065 834.5815,241.9547 Q835.9014,240.3028 838.4082,240.3028 Q839.1138,240.3028 839.7612,240.4522 Q840.4087,240.6016 840.9731,240.9005 L840.9731,243.6231 Q840.3423,243.0421 839.7488,242.7723 Q839.1553,242.5025 838.5244,242.5025 Q837.1797,242.5025 836.4949,243.5692 Q835.8101,244.6358 835.8101,246.7359 Q835.8101,248.8277 836.4949,249.8944 Q837.1797,250.961 838.5244,250.961 Q839.1553,250.961 839.7488,250.6912 Q840.3423,250.4215 840.9731,249.8404 Z " fill="#000000"/><text fill="#000000" font-family="sans-serif" font-size="14" lengthAdjust="spacing" textLength="71" x="852.5" y="251.711">Dokument</text><line style="stroke:#181818;stroke-width:0.5;" x1="824.5" x2="925.5" y1="262.42" y2="262.42"/><line style="stroke:#181818;stroke-width:0.5;" x1="824.5" x2="925.5" y1="270.42" y2="270.42"/></g><g id="elem_GMN8"><path d="M6,76.06 L6,101.3705 A0,0 0 0 0 6,101.3705 L259.68,101.3705 L516.03,230.05 L267.68,101.3705 L474,101.3705 A0,0 0 0 0 474,101.3705 L474,86.06 L464,76.06 L6,76.06 A0,0 0 0 0 6,76.06 " fill="#FEFFDD" style="stroke:#181818;stroke-width:0.5;"/><path d="M464,76.06 L464,86.06 L474,86.06 L464,76.06 " fill="#FEFFDD" style="stroke:#181818;stroke-width:0.5;"/><text fill="#000000" font-family="sans-serif" font-size="13" lengthAdjust="spacing" textLength="447" x="12" y="93.6284">Se detaljer i diagram for skjema 'no.ks.fiks.plan.v2.felles.dispensasjon'</text></g><g id="elem_GMN11"><path d="M964.5,76.06 L964.5,101.3705 A0,0 0 0 0 964.5,101.3705 L1161.91,101.3705 L919.83,230.05 L1169.91,101.3705 L1413.5,101.3705 A0,0 0 0 0 1413.5,101.3705 L1413.5,86.06 L1403.5,76.06 L964.5,76.06 A0,0 0 0 0 964.5,76.06 " fill="#FEFFDD" style="stroke:#181818;stroke-width:0.5;"/><path d="M1403.5,76.06 L1403.5,86.06 L1413.5,86.06 L1403.5,76.06 " fill="#FEFFDD" style="stroke:#181818;stroke-width:0.5;"/><text fill="#000000" font-family="sans-serif" font-size="13" lengthAdjust="spacing" textLength="428" x="970.5" y="93.6284">Se detaljer i diagram for skjema 'no.ks.fiks.plan.v2.felles.dokument'</text></g><!--link OppdaterDispensasjon to Dispensasjon--><g id="link_OppdaterDispensasjon_Dispensasjon"><path codeLine="17" d="M641.42,170.61 C620.56,192.36 599.62,214.2 584.48,229.98 " fill="none" id="OppdaterDispensasjon-Dispensasjon" style="stroke:#181818;stroke-width:1.0;"/></g><!--link OppdaterDispensasjon to Dokument--><g id="link_OppdaterDispensasjon_Dokument"><path codeLine="18" d="M796.09,170.61 C816.81,192.36 837.62,214.2 852.67,229.98 " fill="none" id="OppdaterDispensasjon-Dokument" style="stroke:#181818;stroke-width:1.0;"/></g><!--SRC=[fP4nRyGW38LtVeMt6wfZw9Zvbkg6Ihsnwk0U3YKGG9X4ggh-zpfD8YLICvK9-JtpcUTxG6PupjbWfN9nd2aoSfSYV2cGys0sjGQsZbbFEN_G-6GeLjSwl_Yu5XVjx7WdMuOOAJ3jXK8j5OnCru2MRkWv3drFfO6N0sNkom6ZINxeXJcvBylzzMtMsrHO-hYw4AZKpopSQp8qgoEPGDRkshwLklycSGHUqs2f80hJ2Tgk0qrL9ZzACkiFLbrU_ZFTytcVvQ5f6LAfc2f1JHbIksk51cu4XYg6JWPrO1pQWZr83C2-enxX59Fsh6K_hAVqzFYeMv9qM6_tUzf35lH_0Sip9_K3]--></g></svg>