<svg xmlns="http://www.w3.org/2000/svg" xmlns:xlink="http://www.w3.org/1999/xlink" contentStyleType="text/css" data-diagram-type="SEQUENCE" height="463px" preserveAspectRatio="none" style="width:540px;height:463px;background:#FFFFFF;" version="1.1" viewBox="0 0 540 463" width="540px" zoomAndPan="magnify"><defs/><g><rect fill="none" height="328.2832" style="stroke:#000000;stroke-width:1.5;" width="523.4014" x="10" y="82.7988"/><g><title>Fagsystem</title><rect fill="#000000" fill-opacity="0.00000" height="63.6211" width="8" x="58.8306" y="36.4883"/><line style="stroke:#181818;stroke-width:0.5;stroke-dasharray:5.0,5.0;" x1="62" x2="62" y1="36.4883" y2="100.1094"/></g><line style="stroke:#A80036;stroke-width:1;stroke-dasharray:1.0,4.0;" x1="62" x2="62" y1="100.1094" y2="141.0645"/><g><title>Fagsystem</title><rect fill="#000000" fill-opacity="0.00000" height="29.3105" width="8" x="58.8306" y="141.0645"/><line style="stroke:#181818;stroke-width:0.5;stroke-dasharray:5.0,5.0;" x1="62" x2="62" y1="141.0645" y2="170.375"/></g><line style="stroke:#A80036;stroke-width:1;stroke-dasharray:1.0,4.0;" x1="62" x2="62" y1="170.375" y2="211.3301"/><g><title>Fagsystem</title><rect fill="#000000" fill-opacity="0.00000" height="44.2656" width="8" x="58.8306" y="211.3301"/><line style="stroke:#181818;stroke-width:0.5;stroke-dasharray:5.0,5.0;" x1="62" x2="62" y1="211.3301" y2="255.5957"/></g><line style="stroke:#A80036;stroke-width:1;stroke-dasharray:1.0,4.0;" x1="62" x2="62" y1="255.5957" y2="296.5508"/><g><title>Fagsystem</title><rect fill="#000000" fill-opacity="0.00000" height="44.2656" width="8" x="58.8306" y="296.5508"/><line style="stroke:#181818;stroke-width:0.5;stroke-dasharray:5.0,5.0;" x1="62" x2="62" y1="296.5508" y2="340.8164"/></g><line style="stroke:#A80036;stroke-width:1;stroke-dasharray:1.0,4.0;" x1="62" x2="62" y1="340.8164" y2="381.7715"/><g><title>Fagsystem</title><rect fill="#000000" fill-opacity="0.00000" height="46.3105" width="8" x="58.8306" y="381.7715"/><line style="stroke:#181818;stroke-width:0.5;stroke-dasharray:5.0,5.0;" x1="62" x2="62" y1="381.7715" y2="428.082"/></g><g><title>Planregister</title><rect fill="#000000" fill-opacity="0.00000" height="63.6211" width="8" x="472.1958" y="36.4883"/><line style="stroke:#181818;stroke-width:0.5;stroke-dasharray:5.0,5.0;" x1="475.9902" x2="475.9902" y1="36.4883" y2="100.1094"/></g><line style="stroke:#A80036;stroke-width:1;stroke-dasharray:1.0,4.0;" x1="475.9902" x2="475.9902" y1="100.1094" y2="141.0645"/><g><title>Planregister</title><rect fill="#000000" fill-opacity="0.00000" height="29.3105" width="8" x="472.1958" y="141.0645"/><line style="stroke:#181818;stroke-width:0.5;stroke-dasharray:5.0,5.0;" x1="475.9902" x2="475.9902" y1="141.0645" y2="170.375"/></g><line style="stroke:#A80036;stroke-width:1;stroke-dasharray:1.0,4.0;" x1="475.9902" x2="475.9902" y1="170.375" y2="211.3301"/><g><title>Planregister</title><rect fill="#000000" fill-opacity="0.00000" height="44.2656" width="8" x="472.1958" y="211.3301"/><line style="stroke:#181818;stroke-width:0.5;stroke-dasharray:5.0,5.0;" x1="475.9902" x2="475.9902" y1="211.3301" y2="255.5957"/></g><line style="stroke:#A80036;stroke-width:1;stroke-dasharray:1.0,4.0;" x1="475.9902" x2="475.9902" y1="255.5957" y2="296.5508"/><g><title>Planregister</title><rect fill="#000000" fill-opacity="0.00000" height="44.2656" width="8" x="472.1958" y="296.5508"/><line style="stroke:#181818;stroke-width:0.5;stroke-dasharray:5.0,5.0;" x1="475.9902" x2="475.9902" y1="296.5508" y2="340.8164"/></g><line style="stroke:#A80036;stroke-width:1;stroke-dasharray:1.0,4.0;" x1="475.9902" x2="475.9902" y1="340.8164" y2="381.7715"/><g><title>Planregister</title><rect fill="#000000" fill-opacity="0.00000" height="46.3105" width="8" x="472.1958" y="381.7715"/><line style="stroke:#181818;stroke-width:0.5;stroke-dasharray:5.0,5.0;" x1="475.9902" x2="475.9902" y1="381.7715" y2="428.082"/></g><g class="participant participant-head" data-participant="Fagsystem"><rect fill="#E2E2F0" height="30.4883" rx="2.5" ry="2.5" style="stroke:#181818;stroke-width:0.5;" width="85.6611" x="20" y="5"/><text fill="#000000" font-family="sans-serif" font-size="14" lengthAdjust="spacing" textLength="71.6611" x="27" y="25.5352">Fagsystem</text></g><g class="participant participant-tail" data-participant="Fagsystem"><rect fill="#E2E2F0" height="30.4883" rx="2.5" ry="2.5" style="stroke:#181818;stroke-width:0.5;" width="85.6611" x="20" y="427.082"/><text fill="#000000" font-family="sans-serif" font-size="14" lengthAdjust="spacing" textLength="71.6611" x="27" y="447.6172">Fagsystem</text></g><g class="participant participant-head" data-participant="Planregister"><rect fill="#E2E2F0" height="30.4883" rx="2.5" ry="2.5" style="stroke:#181818;stroke-width:0.5;" width="94.4111" x="428.9902" y="5"/><text fill="#000000" font-family="sans-serif" font-size="14" lengthAdjust="spacing" textLength="80.4111" x="435.9902" y="25.5352">Planregister</text></g><g class="participant participant-tail" data-participant="Planregister"><rect fill="#E2E2F0" height="30.4883" rx="2.5" ry="2.5" style="stroke:#181818;stroke-width:0.5;" width="94.4111" x="428.9902" y="427.082"/><text fill="#000000" font-family="sans-serif" font-size="14" lengthAdjust="spacing" textLength="80.4111" x="435.9902" y="447.6172">Planregister</text></g><g class="message" data-participant-1="Fagsystem" data-participant-2="Planregister"><polygon fill="#181818" points="464.1958,63.7988,474.1958,67.7988,464.1958,71.7988,468.1958,67.7988" style="stroke:#181818;stroke-width:1;"/><line style="stroke:#181818;stroke-width:1;" x1="62.8306" x2="470.1958" y1="67.7988" y2="67.7988"/><text fill="#000000" font-family="sans-serif" font-size="13" lengthAdjust="spacing" textLength="337.3335" x="69.8306" y="63.0566">no.ks.fiks.plan.v2.oppdatering.dispensasjon.registrer</text></g><path d="M10,82.7988 L72.1387,82.7988 L72.1387,90.1094 L62.1387,100.1094 L10,100.1094 L10,82.7988" fill="#EEEEEE" style="stroke:#000000;stroke-width:1.5;"/><rect fill="none" height="328.2832" style="stroke:#000000;stroke-width:1.5;" width="523.4014" x="10" y="82.7988"/><text fill="#000000" font-family="sans-serif" font-size="13" font-weight="bold" lengthAdjust="spacing" textLength="17.1387" x="25" y="96.3672">alt</text><text fill="#000000" font-family="sans-serif" font-size="11" font-weight="bold" lengthAdjust="spacing" textLength="95.8149" x="87.1387" y="95.4336">[Registrering ok]</text><text fill="#000000" font-family="sans-serif" font-size="11" lengthAdjust="spacing" textLength="113.9102" x="212.5581" y="124.7441">tom mottatt-melding</text><g class="message" data-participant-1="Planregister" data-participant-2="Fagsystem"><polygon fill="#181818" points="73.8306,158.375,63.8306,162.375,73.8306,166.375,69.8306,162.375" style="stroke:#181818;stroke-width:1;"/><line style="stroke:#181818;stroke-width:1;" x1="67.8306" x2="475.1958" y1="162.375" y2="162.375"/><text fill="#000000" font-family="sans-serif" font-size="13" lengthAdjust="spacing" textLength="388.1973" x="79.8306" y="157.6328">no.ks.fiks.plan.v2.oppdatering.dispensasjon.registrer.mottatt</text></g><text fill="#000000" font-family="sans-serif" font-size="11" lengthAdjust="spacing" textLength="161.0791" x="188.9736" y="195.0098">resultat-melding med innhold</text><g class="message" data-participant-1="Planregister" data-participant-2="Fagsystem"><polygon fill="#181818" points="73.8306,228.6406,63.8306,232.6406,73.8306,236.6406,69.8306,232.6406" style="stroke:#181818;stroke-width:1;"/><line style="stroke:#181818;stroke-width:1;" x1="67.8306" x2="475.1958" y1="232.6406" y2="232.6406"/><text fill="#000000" font-family="sans-serif" font-size="13" lengthAdjust="spacing" textLength="389.3652" x="79.8306" y="227.8984">no.ks.fiks.plan.v2.oppdatering.dispensasjon.registrer.resultat</text></g><line style="stroke:#000000;stroke-width:1;stroke-dasharray:2.0,2.0;" x1="10" x2="533.4014" y1="241.6406" y2="241.6406"/><text fill="#000000" font-family="sans-serif" font-size="11" font-weight="bold" lengthAdjust="spacing" textLength="262.4639" x="15" y="252.2754">[Feil: registreringsmeldingen var ikke korrekt]</text><text fill="#000000" font-family="sans-serif" font-size="11" lengthAdjust="spacing" textLength="137.0649" x="200.9807" y="280.2305">feil-melding med innhold</text><g class="message" data-participant-1="Planregister" data-participant-2="Fagsystem"><polygon fill="#181818" points="73.8306,313.8613,63.8306,317.8613,73.8306,321.8613,69.8306,317.8613" style="stroke:#181818;stroke-width:1;"/><line style="stroke:#181818;stroke-width:1;" x1="67.8306" x2="475.1958" y1="317.8613" y2="317.8613"/><text fill="#000000" font-family="sans-serif" font-size="13" lengthAdjust="spacing" textLength="315.7261" x="79.8306" y="313.1191">no.ks.fiks.plan.v2.feilmelding.ugyldigforespoersel</text></g><line style="stroke:#000000;stroke-width:1;stroke-dasharray:2.0,2.0;" x1="10" x2="533.4014" y1="326.8613" y2="326.8613"/><text fill="#000000" font-family="sans-serif" font-size="11" font-weight="bold" lengthAdjust="spacing" textLength="186.479" x="15" y="337.4961">[Feil: planregister fikk serverfeil]</text><text fill="#000000" font-family="sans-serif" font-size="11" lengthAdjust="spacing" textLength="137.0649" x="200.9807" y="365.4512">feil-melding med innhold</text><g class="message" data-participant-1="Planregister" data-participant-2="Fagsystem"><polygon fill="#181818" points="73.8306,399.082,63.8306,403.082,73.8306,407.082,69.8306,403.082" style="stroke:#181818;stroke-width:1;"/><line style="stroke:#181818;stroke-width:1;" x1="67.8306" x2="475.1958" y1="403.082" y2="403.082"/><text fill="#000000" font-family="sans-serif" font-size="13" lengthAdjust="spacing" textLength="248.6631" x="79.8306" y="398.3398">no.ks.fiks.plan.v2.feilmelding.serverfeil</text></g><!--SRC=[jP0nRiCm34LtdO8NC8UEGT7HSz4R212jAf95WLGCvFQXsZXmTtSHH93yxu6pZthNJYjC7_1PV1MAoMgvG6NCYakofra3jpVareAtPgeHGz96LRrUkUBlbf0uvqk7hxsqGU3i4B7p2YltxdkVLYfXH22w-SL_dyxWuvCna49wArRiF5WfGAhrcqiOxFFXEz4vAaemKoeNaCCnzAb25JOla78co2n2-STuiOMJR4VKVkTRlDidBcn-ZKcKoX_3TWW3IycW91l9oFX7hGF4KGqF]--></g></svg>