<?xml version="1.0" encoding="us-ascii" standalone="no"?><svg xmlns="http://www.w3.org/2000/svg" xmlns:xlink="http://www.w3.org/1999/xlink" contentStyleType="text/css" height="186px" preserveAspectRatio="none" style="width:865px;height:186px;background:#FFFFFF;" version="1.1" viewBox="0 0 865 186" width="865px" zoomAndPan="magnify"><defs/><g><!--class HentPlanomraader--><g id="elem_HentPlanomraader"><rect codeLine="2" fill="#F1F1F1" height="64.4883" id="HentPlanomraader" rx="2.5" ry="2.5" style="stroke:#181818;stroke-width:0.5;" width="309" x="7" y="7"/><ellipse cx="93.25" cy="23" fill="#ADD1B2" rx="11" ry="11" style="stroke:#181818;stroke-width:1.0;"/><path d="M95.7231,29.1431 Q95.1421,29.4419 94.5029,29.5913 Q93.8638,29.7407 93.1582,29.7407 Q90.6514,29.7407 89.3315,28.0889 Q88.0117,26.437 88.0117,23.3159 Q88.0117,20.1865 89.3315,18.5347 Q90.6514,16.8828 93.1582,16.8828 Q93.8638,16.8828 94.5112,17.0322 Q95.1587,17.1816 95.7231,17.4805 L95.7231,20.2031 Q95.0923,19.6221 94.4988,19.3523 Q93.9053,19.0825 93.2744,19.0825 Q91.9297,19.0825 91.2449,20.1492 Q90.5601,21.2158 90.5601,23.3159 Q90.5601,25.4077 91.2449,26.4744 Q91.9297,27.541 93.2744,27.541 Q93.9053,27.541 94.4988,27.2712 Q95.0923,27.0015 95.7231,26.4204 Z " fill="#000000"/><text fill="#000000" font-family="sans-serif" font-size="14" lengthAdjust="spacing" textLength="128" x="113.75" y="28.291">HentPlanomraader</text><line style="stroke:#181818;stroke-width:0.5;" x1="8" x2="315" y1="39" y2="39"/><ellipse cx="18" cy="52.7441" fill="none" rx="3" ry="3" style="stroke:#038048;stroke-width:1.0;"/><text fill="#000000" font-family="sans-serif" font-size="14" lengthAdjust="spacing" textLength="283" x="27" y="56.5352">nasjonalArealplanId: NasjonalArealplanId</text><line style="stroke:#181818;stroke-width:0.5;" x1="8" x2="315" y1="63.4883" y2="63.4883"/></g><!--class NasjonalArealplanId--><g id="elem_NasjonalArealplanId"><rect fill="#F1F1F1" height="48" id="NasjonalArealplanId" rx="2.5" ry="2.5" style="stroke:#181818;stroke-width:0.5;" width="170" x="297.5" y="131.49"/><ellipse cx="312.5" cy="147.49" fill="#ADD1B2" rx="11" ry="11" style="stroke:#181818;stroke-width:1.0;"/><path d="M314.9731,153.6331 Q314.3921,153.9319 313.7529,154.0813 Q313.1138,154.2307 312.4082,154.2307 Q309.9014,154.2307 308.5815,152.5789 Q307.2617,150.927 307.2617,147.8059 Q307.2617,144.6765 308.5815,143.0247 Q309.9014,141.3728 312.4082,141.3728 Q313.1138,141.3728 313.7612,141.5222 Q314.4087,141.6716 314.9731,141.9705 L314.9731,144.6931 Q314.3423,144.1121 313.7488,143.8423 Q313.1553,143.5725 312.5244,143.5725 Q311.1797,143.5725 310.4949,144.6392 Q309.8101,145.7058 309.8101,147.8059 Q309.8101,149.8977 310.4949,150.9644 Q311.1797,152.031 312.5244,152.031 Q313.1553,152.031 313.7488,151.7612 Q314.3423,151.4915 314.9731,150.9104 Z " fill="#000000"/><text fill="#000000" font-family="sans-serif" font-size="14" lengthAdjust="spacing" textLength="138" x="326.5" y="152.781">NasjonalArealplanId</text><line style="stroke:#181818;stroke-width:0.5;" x1="298.5" x2="466.5" y1="163.49" y2="163.49"/><line style="stroke:#181818;stroke-width:0.5;" x1="298.5" x2="466.5" y1="171.49" y2="171.49"/></g><g id="elem_GMN5"><path d="M351,26.59 L351,51.9005 A0,0 0 0 0 351,51.9005 L577.16,51.9005 L428.17,130.99 L585.16,51.9005 L858,51.9005 A0,0 0 0 0 858,51.9005 L858,36.59 L848,26.59 L351,26.59 A0,0 0 0 0 351,26.59 " fill="#FEFFDD" style="stroke:#181818;stroke-width:0.5;"/><path d="M848,26.59 L848,36.59 L858,36.59 L848,26.59 " fill="#FEFFDD" style="stroke:#181818;stroke-width:0.5;"/><text fill="#000000" font-family="sans-serif" font-size="13" lengthAdjust="spacing" textLength="486" x="357" y="44.1584">Se detaljer i diagram for skjema 'no.ks.fiks.plan.v2.felles.nasjonalarealplanid'</text></g><!--link HentPlanomraader to NasjonalArealplanId--><g id="link_HentPlanomraader_NasjonalArealplanId"><path codeLine="6" d="M222.77,71.92 C259.05,90.67 304.22,114.03 337.27,131.11 " fill="none" id="HentPlanomraader-NasjonalArealplanId" style="stroke:#181818;stroke-width:1.0;"/></g><!--SRC=[ROwn3i8m34JtVCLj7L0pC7PZWmKXyGKMSL1I9wwIg0lYtmb3fzR33QTtJtu9rOehv_OGofeAaUE2Zq6_KwOQDPDS2fCi7RYv2VTzQRx6x1pZU8YQh8tHT87w8m0JdWp7ZIHsIu0Bz2wKuBMWpf4JOSXgvsfzwF5VsVLiFOjmjTlBj1c36ymF]--></g></svg>