<svg xmlns="http://www.w3.org/2000/svg" xmlns:xlink="http://www.w3.org/1999/xlink" contentStyleType="text/css" height="690px" preserveAspectRatio="none" style="width:1906px;height:690px;background:#FFFFFF;" version="1.1" viewBox="0 0 1906 690" width="1906px" zoomAndPan="magnify"><defs/><g><!--class NasjonalArealplanId--><g id="elem_NasjonalArealplanId"><rect codeLine="1" fill="#F1F1F1" height="80.9766" id="NasjonalArealplanId" rx="2.5" ry="2.5" style="stroke:#181818;stroke-width:0.5;" width="292" x="7" y="411.79"/><ellipse cx="79.75" cy="427.79" fill="#ADD1B2" rx="11" ry="11" style="stroke:#181818;stroke-width:1.0;"/><path d="M82.2231,433.9331 Q81.6421,434.2319 81.0029,434.3813 Q80.3638,434.5307 79.6582,434.5307 Q77.1514,434.5307 75.8315,432.8789 Q74.5117,431.227 74.5117,428.1059 Q74.5117,424.9765 75.8315,423.3247 Q77.1514,421.6728 79.6582,421.6728 Q80.3638,421.6728 81.0112,421.8222 Q81.6587,421.9716 82.2231,422.2705 L82.2231,424.9931 Q81.5923,424.4121 80.9988,424.1423 Q80.4053,423.8725 79.7744,423.8725 Q78.4297,423.8725 77.7449,424.9392 Q77.0601,426.0058 77.0601,428.1059 Q77.0601,430.1977 77.7449,431.2644 Q78.4297,432.331 79.7744,432.331 Q80.4053,432.331 80.9988,432.0612 Q81.5923,431.7915 82.2231,431.2104 Z " fill="#000000"/><text fill="#000000" font-family="sans-serif" font-size="14" lengthAdjust="spacing" textLength="138" x="100.25" y="433.081">NasjonalArealplanId</text><line style="stroke:#181818;stroke-width:0.5;" x1="8" x2="298" y1="443.79" y2="443.79"/><ellipse cx="18" cy="457.5341" fill="none" rx="3" ry="3" style="stroke:#038048;stroke-width:1.0;"/><text fill="#000000" font-family="sans-serif" font-size="14" lengthAdjust="spacing" textLength="266" x="27" y="461.3252">administrativEnhet: AdministrativEnhet</text><ellipse cx="18" cy="474.0224" fill="none" rx="3" ry="3" style="stroke:#038048;stroke-width:1.0;"/><text fill="#000000" font-family="sans-serif" font-size="14" lengthAdjust="spacing" textLength="171" x="27" y="477.8134">planidentifikasjon: string</text><line style="stroke:#181818;stroke-width:0.5;" x1="8" x2="298" y1="484.7666" y2="484.7666"/></g><!--class AdministrativEnhet--><g id="elem_AdministrativEnhet"><rect codeLine="8" fill="#F1F1F1" height="97.4648" id="AdministrativEnhet" rx="2.5" ry="2.5" style="stroke:#181818;stroke-width:0.5;" width="162" x="72" y="585.75"/><ellipse cx="87" cy="601.75" fill="#EB937F" rx="11" ry="11" style="stroke:#181818;stroke-width:1.0;"/><path d="M90.6143,608.25 L82.8945,608.25 L82.8945,595.8569 L90.6143,595.8569 L90.6143,598.0151 L85.3433,598.0151 L85.3433,600.688 L90.1162,600.688 L90.1162,602.8462 L85.3433,602.8462 L85.3433,606.0918 L90.6143,606.0918 Z " fill="#000000"/><text fill="#000000" font-family="sans-serif" font-size="14" lengthAdjust="spacing" textLength="130" x="101" y="607.041">AdministrativEnhet</text><line style="stroke:#181818;stroke-width:0.5;" x1="73" x2="233" y1="617.75" y2="617.75"/><text fill="#000000" font-family="sans-serif" font-size="14" lengthAdjust="spacing" textLength="127" x="78" y="635.2852">kommunenummer</text><text fill="#000000" font-family="sans-serif" font-size="14" lengthAdjust="spacing" textLength="97" x="78" y="651.7734">fylkesnummer</text><text fill="#000000" font-family="sans-serif" font-size="14" lengthAdjust="spacing" textLength="71" x="78" y="668.2617">landskode</text><line style="stroke:#181818;stroke-width:0.5;" x1="73" x2="233" y1="675.2148" y2="675.2148"/></g><!--class Posisjon--><g id="elem_Posisjon"><rect codeLine="1" fill="#F1F1F1" height="97.4648" id="Posisjon" rx="2.5" ry="2.5" style="stroke:#181818;stroke-width:0.5;" width="263" x="334.5" y="403.55"/><ellipse cx="433.25" cy="419.55" fill="#ADD1B2" rx="11" ry="11" style="stroke:#181818;stroke-width:1.0;"/><path d="M435.7231,425.6931 Q435.1421,425.9919 434.5029,426.1413 Q433.8638,426.2907 433.1582,426.2907 Q430.6514,426.2907 429.3315,424.6389 Q428.0117,422.987 428.0117,419.8659 Q428.0117,416.7365 429.3315,415.0847 Q430.6514,413.4328 433.1582,413.4328 Q433.8638,413.4328 434.5112,413.5822 Q435.1587,413.7316 435.7231,414.0305 L435.7231,416.7531 Q435.0923,416.1721 434.4988,415.9023 Q433.9053,415.6325 433.2744,415.6325 Q431.9297,415.6325 431.2449,416.6992 Q430.5601,417.7658 430.5601,419.8659 Q430.5601,421.9577 431.2449,423.0244 Q431.9297,424.091 433.2744,424.091 Q433.9053,424.091 434.4988,423.8212 Q435.0923,423.5515 435.7231,422.9704 Z " fill="#000000"/><text fill="#000000" font-family="sans-serif" font-size="14" lengthAdjust="spacing" textLength="57" x="453.75" y="424.841">Posisjon</text><line style="stroke:#181818;stroke-width:0.5;" x1="335.5" x2="596.5" y1="435.55" y2="435.55"/><ellipse cx="345.5" cy="449.2941" fill="none" rx="3" ry="3" style="stroke:#038048;stroke-width:1.0;"/><text fill="#000000" font-family="sans-serif" font-size="14" lengthAdjust="spacing" textLength="127" x="354.5" y="453.0852">type: PosisjonType</text><ellipse cx="345.5" cy="465.7824" fill="none" rx="3" ry="3" style="stroke:#038048;stroke-width:1.0;"/><text fill="#000000" font-family="sans-serif" font-size="14" lengthAdjust="spacing" textLength="153" x="354.5" y="469.5734">koordinater: number[]</text><ellipse cx="345.5" cy="482.2707" fill="none" rx="3" ry="3" style="stroke:#038048;stroke-width:1.0;"/><text fill="#000000" font-family="sans-serif" font-size="14" lengthAdjust="spacing" textLength="237" x="354.5" y="486.0617">koordinatsystem: Koordinatsystem</text><line style="stroke:#181818;stroke-width:0.5;" x1="335.5" x2="596.5" y1="493.0148" y2="493.0148"/></g><!--class Koordinatsystem--><g id="elem_Koordinatsystem"><rect codeLine="10" fill="#F1F1F1" height="89.5977" id="Koordinatsystem" rx="2.5" ry="2.5" style="stroke:#181818;stroke-width:0.5;" width="184" x="347" y="589.68"/><ellipse cx="378.65" cy="609.9905" fill="#ADD1B2" rx="11" ry="11" style="stroke:#181818;stroke-width:1.0;"/><path d="M381.1231,616.1336 Q380.5421,616.4324 379.9029,616.5819 Q379.2638,616.7313 378.5582,616.7313 Q376.0514,616.7313 374.7315,615.0794 Q373.4117,613.4276 373.4117,610.3065 Q373.4117,607.1771 374.7315,605.5252 Q376.0514,603.8734 378.5582,603.8734 Q379.2638,603.8734 379.9112,604.0228 Q380.5587,604.1722 381.1231,604.471 L381.1231,607.1937 Q380.4923,606.6126 379.8988,606.3428 Q379.3053,606.0731 378.6744,606.0731 Q377.3297,606.0731 376.6449,607.1397 Q375.9601,608.2064 375.9601,610.3065 Q375.9601,612.3983 376.6449,613.4649 Q377.3297,614.5316 378.6744,614.5316 Q379.3053,614.5316 379.8988,614.2618 Q380.4923,613.992 381.1231,613.411 Z " fill="#000000"/><text fill="#000000" font-family="sans-serif" font-size="12" font-style="italic" lengthAdjust="spacing" textLength="42" x="432.85" y="606.2816">&#171;Kode&#187;</text><text fill="#000000" font-family="sans-serif" font-size="14" lengthAdjust="spacing" textLength="115" x="396.35" y="622.348">Koordinatsystem</text><line style="stroke:#181818;stroke-width:0.5;" x1="348" x2="530" y1="630.3011" y2="630.3011"/><ellipse cx="358" cy="644.0452" fill="none" rx="3" ry="3" style="stroke:#038048;stroke-width:1.0;"/><text fill="#000000" font-family="sans-serif" font-size="14" lengthAdjust="spacing" textLength="116" x="367" y="647.8363">kodeverdi: string</text><ellipse cx="358" cy="660.5335" fill="none" rx="3" ry="3" style="stroke:#038048;stroke-width:1.0;"/><text fill="#000000" font-family="sans-serif" font-size="14" lengthAdjust="spacing" textLength="158" x="367" y="664.3245">kodebeskrivelse: string</text><line style="stroke:#181818;stroke-width:0.5;" x1="348" x2="530" y1="671.2777" y2="671.2777"/></g><!--class PosisjonType--><g id="elem_PosisjonType"><rect codeLine="15" fill="#F1F1F1" height="64.4883" id="PosisjonType" rx="2.5" ry="2.5" style="stroke:#181818;stroke-width:0.5;" width="122" x="566" y="602.23"/><ellipse cx="581" cy="618.23" fill="#EB937F" rx="11" ry="11" style="stroke:#181818;stroke-width:1.0;"/><path d="M584.6143,624.73 L576.8945,624.73 L576.8945,612.3369 L584.6143,612.3369 L584.6143,614.4951 L579.3433,614.4951 L579.3433,617.168 L584.1162,617.168 L584.1162,619.3262 L579.3433,619.3262 L579.3433,622.5718 L584.6143,622.5718 Z " fill="#000000"/><text fill="#000000" font-family="sans-serif" font-size="14" lengthAdjust="spacing" textLength="90" x="595" y="623.521">PosisjonType</text><line style="stroke:#181818;stroke-width:0.5;" x1="567" x2="687" y1="634.23" y2="634.23"/><text fill="#000000" font-family="sans-serif" font-size="14" lengthAdjust="spacing" textLength="35" x="572" y="651.7652">Point</text><line style="stroke:#181818;stroke-width:0.5;" x1="567" x2="687" y1="658.7183" y2="658.7183"/></g><!--class Saksnummer--><g id="elem_Saksnummer"><rect codeLine="2" fill="#F1F1F1" height="80.9766" id="Saksnummer" rx="2.5" ry="2.5" style="stroke:#181818;stroke-width:0.5;" width="225" x="632.5" y="411.79"/><ellipse cx="696.25" cy="427.79" fill="#ADD1B2" rx="11" ry="11" style="stroke:#181818;stroke-width:1.0;"/><path d="M698.7231,433.9331 Q698.1421,434.2319 697.5029,434.3813 Q696.8638,434.5307 696.1582,434.5307 Q693.6514,434.5307 692.3315,432.8789 Q691.0117,431.227 691.0117,428.1059 Q691.0117,424.9765 692.3315,423.3247 Q693.6514,421.6728 696.1582,421.6728 Q696.8638,421.6728 697.5112,421.8222 Q698.1587,421.9716 698.7231,422.2705 L698.7231,424.9931 Q698.0923,424.4121 697.4988,424.1423 Q696.9053,423.8725 696.2744,423.8725 Q694.9297,423.8725 694.2449,424.9392 Q693.5601,426.0058 693.5601,428.1059 Q693.5601,430.1977 694.2449,431.2644 Q694.9297,432.331 696.2744,432.331 Q696.9053,432.331 697.4988,432.0612 Q698.0923,431.7915 698.7231,431.2104 Z " fill="#000000"/><text fill="#000000" font-family="sans-serif" font-size="14" lengthAdjust="spacing" textLength="89" x="716.75" y="433.081">Saksnummer</text><line style="stroke:#181818;stroke-width:0.5;" x1="633.5" x2="856.5" y1="443.79" y2="443.79"/><ellipse cx="643.5" cy="457.5341" fill="none" rx="3" ry="3" style="stroke:#038048;stroke-width:1.0;"/><text fill="#000000" font-family="sans-serif" font-size="14" lengthAdjust="spacing" textLength="109" x="652.5" y="461.3252">saksaar: integer</text><ellipse cx="643.5" cy="474.0224" fill="none" rx="3" ry="3" style="stroke:#038048;stroke-width:1.0;"/><text fill="#000000" font-family="sans-serif" font-size="14" lengthAdjust="spacing" textLength="199" x="652.5" y="477.8134">sakssekvensnummer: integer</text><line style="stroke:#181818;stroke-width:0.5;" x1="633.5" x2="856.5" y1="484.7666" y2="484.7666"/></g><!--class Dokument--><g id="elem_Dokument"><rect codeLine="1" fill="#F1F1F1" height="146.9297" id="Dokument" rx="2.5" ry="2.5" style="stroke:#181818;stroke-width:0.5;" width="335" x="892.5" y="378.82"/><ellipse cx="1020.25" cy="394.82" fill="#ADD1B2" rx="11" ry="11" style="stroke:#181818;stroke-width:1.0;"/><path d="M1022.7231,400.9631 Q1022.1421,401.2619 1021.5029,401.4113 Q1020.8638,401.5607 1020.1582,401.5607 Q1017.6514,401.5607 1016.3315,399.9089 Q1015.0117,398.257 1015.0117,395.1359 Q1015.0117,392.0065 1016.3315,390.3547 Q1017.6514,388.7028 1020.1582,388.7028 Q1020.8638,388.7028 1021.5112,388.8522 Q1022.1587,389.0016 1022.7231,389.3005 L1022.7231,392.0231 Q1022.0923,391.4421 1021.4988,391.1723 Q1020.9053,390.9025 1020.2744,390.9025 Q1018.9297,390.9025 1018.2449,391.9692 Q1017.5601,393.0358 1017.5601,395.1359 Q1017.5601,397.2277 1018.2449,398.2944 Q1018.9297,399.361 1020.2744,399.361 Q1020.9053,399.361 1021.4988,399.0912 Q1022.0923,398.8215 1022.7231,398.2404 Z " fill="#000000"/><text fill="#000000" font-family="sans-serif" font-size="14" lengthAdjust="spacing" textLength="71" x="1040.75" y="400.111">Dokument</text><line style="stroke:#181818;stroke-width:0.5;" x1="893.5" x2="1226.5" y1="410.82" y2="410.82"/><ellipse cx="903.5" cy="424.5641" fill="none" rx="3" ry="3" style="stroke:#038048;stroke-width:1.0;"/><text fill="#000000" font-family="sans-serif" font-size="14" lengthAdjust="spacing" textLength="79" x="912.5" y="428.3552">tittel: string</text><ellipse cx="903.5" cy="441.0524" fill="none" rx="3" ry="3" style="stroke:#038048;stroke-width:1.0;"/><text fill="#000000" font-family="sans-serif" font-size="14" lengthAdjust="spacing" textLength="207" x="912.5" y="444.8434">dokumenttype: Dokumenttype</text><ellipse cx="903.5" cy="457.5407" fill="none" rx="3" ry="3" style="stroke:#038048;stroke-width:1.0;"/><text fill="#000000" font-family="sans-serif" font-size="14" lengthAdjust="spacing" textLength="309" x="912.5" y="461.3317">referanseDokumentfil: ReferanseDokumentfil</text><ellipse cx="903.5" cy="474.029" fill="none" rx="3" ry="3" style="stroke:#038048;stroke-width:1.0;"/><text fill="#000000" font-family="sans-serif" font-size="14" lengthAdjust="spacing" textLength="115" x="912.5" y="477.82">mimetype: string</text><ellipse cx="903.5" cy="490.5173" fill="none" rx="3" ry="3" style="stroke:#038048;stroke-width:1.0;"/><text fill="#000000" font-family="sans-serif" font-size="14" lengthAdjust="spacing" textLength="146" x="912.5" y="494.3083">dokumentsdato: date</text><ellipse cx="903.5" cy="507.0055" fill="none" rx="3" ry="3" style="stroke:#038048;stroke-width:1.0;"/><text fill="#000000" font-family="sans-serif" font-size="14" lengthAdjust="spacing" textLength="114" x="912.5" y="510.7966">arkivnavn: string</text><line style="stroke:#181818;stroke-width:0.5;" x1="893.5" x2="1226.5" y1="517.7497" y2="517.7497"/></g><!--class Dokumenttype--><g id="elem_Dokumenttype"><rect codeLine="13" fill="#F1F1F1" height="89.5977" id="Dokumenttype" rx="2.5" ry="2.5" style="stroke:#181818;stroke-width:0.5;" width="184" x="775" y="589.68"/><ellipse cx="813.4" cy="609.9905" fill="#ADD1B2" rx="11" ry="11" style="stroke:#181818;stroke-width:1.0;"/><path d="M815.8731,616.1336 Q815.2921,616.4324 814.6529,616.5819 Q814.0138,616.7313 813.3082,616.7313 Q810.8014,616.7313 809.4815,615.0794 Q808.1617,613.4276 808.1617,610.3065 Q808.1617,607.1771 809.4815,605.5252 Q810.8014,603.8734 813.3082,603.8734 Q814.0138,603.8734 814.6612,604.0228 Q815.3087,604.1722 815.8731,604.471 L815.8731,607.1937 Q815.2423,606.6126 814.6488,606.3428 Q814.0553,606.0731 813.4244,606.0731 Q812.0797,606.0731 811.3949,607.1397 Q810.7101,608.2064 810.7101,610.3065 Q810.7101,612.3983 811.3949,613.4649 Q812.0797,614.5316 813.4244,614.5316 Q814.0553,614.5316 814.6488,614.2618 Q815.2423,613.992 815.8731,613.411 Z " fill="#000000"/><text fill="#000000" font-family="sans-serif" font-size="12" font-style="italic" lengthAdjust="spacing" textLength="42" x="861.6" y="606.2816">&#171;Kode&#187;</text><text fill="#000000" font-family="sans-serif" font-size="14" lengthAdjust="spacing" textLength="100" x="832.6" y="622.348">Dokumenttype</text><line style="stroke:#181818;stroke-width:0.5;" x1="776" x2="958" y1="630.3011" y2="630.3011"/><ellipse cx="786" cy="644.0452" fill="none" rx="3" ry="3" style="stroke:#038048;stroke-width:1.0;"/><text fill="#000000" font-family="sans-serif" font-size="14" lengthAdjust="spacing" textLength="116" x="795" y="647.8363">kodeverdi: string</text><ellipse cx="786" cy="660.5335" fill="none" rx="3" ry="3" style="stroke:#038048;stroke-width:1.0;"/><text fill="#000000" font-family="sans-serif" font-size="14" lengthAdjust="spacing" textLength="158" x="795" y="664.3245">kodebeskrivelse: string</text><line style="stroke:#181818;stroke-width:0.5;" x1="776" x2="958" y1="671.2777" y2="671.2777"/></g><!--class ReferanseDokumentfil--><g id="elem_ReferanseDokumentfil"><rect codeLine="18" fill="#F1F1F1" height="80.9766" id="ReferanseDokumentfil" rx="2.5" ry="2.5" style="stroke:#181818;stroke-width:0.5;" width="184" x="994" y="593.99"/><ellipse cx="1009" cy="609.99" fill="#ADD1B2" rx="11" ry="11" style="stroke:#181818;stroke-width:1.0;"/><path d="M1011.4731,616.1331 Q1010.8921,616.4319 1010.2529,616.5813 Q1009.6138,616.7307 1008.9082,616.7307 Q1006.4014,616.7307 1005.0815,615.0789 Q1003.7617,613.427 1003.7617,610.3059 Q1003.7617,607.1765 1005.0815,605.5247 Q1006.4014,603.8728 1008.9082,603.8728 Q1009.6138,603.8728 1010.2612,604.0222 Q1010.9087,604.1716 1011.4731,604.4705 L1011.4731,607.1931 Q1010.8423,606.6121 1010.2488,606.3423 Q1009.6553,606.0725 1009.0244,606.0725 Q1007.6797,606.0725 1006.9949,607.1392 Q1006.3101,608.2058 1006.3101,610.3059 Q1006.3101,612.3977 1006.9949,613.4644 Q1007.6797,614.531 1009.0244,614.531 Q1009.6553,614.531 1010.2488,614.2612 Q1010.8423,613.9915 1011.4731,613.4104 Z " fill="#000000"/><text fill="#000000" font-family="sans-serif" font-size="14" lengthAdjust="spacing" textLength="152" x="1023" y="615.281">ReferanseDokumentfil</text><line style="stroke:#181818;stroke-width:0.5;" x1="995" x2="1177" y1="625.99" y2="625.99"/><ellipse cx="1005" cy="639.7341" fill="none" rx="3" ry="3" style="stroke:#038048;stroke-width:1.0;"/><text fill="#000000" font-family="sans-serif" font-size="14" lengthAdjust="spacing" textLength="61" x="1014" y="643.5252">id: string</text><ellipse cx="1005" cy="656.2224" fill="none" rx="3" ry="3" style="stroke:#038048;stroke-width:1.0;"/><text fill="#000000" font-family="sans-serif" font-size="14" lengthAdjust="spacing" textLength="67" x="1014" y="660.0134">url: string</text><line style="stroke:#181818;stroke-width:0.5;" x1="995" x2="1177" y1="666.9666" y2="666.9666"/></g><!--class Dispensasjon--><g id="elem_Dispensasjon"><rect codeLine="6" fill="#F1F1F1" height="311.8125" id="Dispensasjon" rx="2.5" ry="2.5" style="stroke:#181818;stroke-width:0.5;" width="363" x="878.5" y="7"/><ellipse cx="1010.25" cy="23" fill="#ADD1B2" rx="11" ry="11" style="stroke:#181818;stroke-width:1.0;"/><path d="M1012.7231,29.1431 Q1012.1421,29.4419 1011.5029,29.5913 Q1010.8638,29.7407 1010.1582,29.7407 Q1007.6514,29.7407 1006.3315,28.0889 Q1005.0117,26.437 1005.0117,23.3159 Q1005.0117,20.1865 1006.3315,18.5347 Q1007.6514,16.8828 1010.1582,16.8828 Q1010.8638,16.8828 1011.5112,17.0322 Q1012.1587,17.1816 1012.7231,17.4805 L1012.7231,20.2031 Q1012.0923,19.6221 1011.4988,19.3523 Q1010.9053,19.0825 1010.2744,19.0825 Q1008.9297,19.0825 1008.2449,20.1492 Q1007.5601,21.2158 1007.5601,23.3159 Q1007.5601,25.4077 1008.2449,26.4744 Q1008.9297,27.541 1010.2744,27.541 Q1010.9053,27.541 1011.4988,27.2712 Q1012.0923,27.0015 1012.7231,26.4204 Z " fill="#000000"/><text fill="#000000" font-family="sans-serif" font-size="14" lengthAdjust="spacing" textLength="91" x="1030.75" y="28.291">Dispensasjon</text><line style="stroke:#181818;stroke-width:0.5;" x1="879.5" x2="1240.5" y1="39" y2="39"/><ellipse cx="889.5" cy="52.7441" fill="none" rx="3" ry="3" style="stroke:#038048;stroke-width:1.0;"/><text fill="#000000" font-family="sans-serif" font-size="14" lengthAdjust="spacing" textLength="141" x="898.5" y="56.5352">identifikasjon: string</text><ellipse cx="889.5" cy="69.2324" fill="none" rx="3" ry="3" style="stroke:#038048;stroke-width:1.0;"/><text fill="#000000" font-family="sans-serif" font-size="14" lengthAdjust="spacing" textLength="269" x="898.5" y="73.0234">dispensasjonsType: DispensasjonsType</text><ellipse cx="889.5" cy="85.7207" fill="none" rx="3" ry="3" style="stroke:#038048;stroke-width:1.0;"/><text fill="#000000" font-family="sans-serif" font-size="14" lengthAdjust="spacing" textLength="337" x="898.5" y="89.5117">dispensasjonFraLovverk: DispensasjonFraLovverk</text><ellipse cx="889.5" cy="102.209" fill="none" rx="3" ry="3" style="stroke:#038048;stroke-width:1.0;"/><text fill="#000000" font-family="sans-serif" font-size="14" lengthAdjust="spacing" textLength="99" x="898.5" y="106">dispFra: string</text><ellipse cx="889.5" cy="118.6973" fill="none" rx="3" ry="3" style="stroke:#038048;stroke-width:1.0;"/><text fill="#000000" font-family="sans-serif" font-size="14" lengthAdjust="spacing" textLength="283" x="898.5" y="122.4883">nasjonalArealplanId: NasjonalArealplanId</text><ellipse cx="889.5" cy="135.1855" fill="none" rx="3" ry="3" style="stroke:#038048;stroke-width:1.0;"/><text fill="#000000" font-family="sans-serif" font-size="14" lengthAdjust="spacing" textLength="134" x="898.5" y="138.9766">begrunnelse: string</text><ellipse cx="889.5" cy="151.6738" fill="none" rx="3" ry="3" style="stroke:#038048;stroke-width:1.0;"/><text fill="#000000" font-family="sans-serif" font-size="14" lengthAdjust="spacing" textLength="125" x="898.5" y="155.4648">vedtaksdato:  date</text><ellipse cx="889.5" cy="168.1621" fill="none" rx="3" ry="3" style="stroke:#038048;stroke-width:1.0;"/><text fill="#000000" font-family="sans-serif" font-size="14" lengthAdjust="spacing" textLength="123" x="898.5" y="171.9531">posisjon: Posisjon</text><ellipse cx="889.5" cy="184.6504" fill="none" rx="3" ry="3" style="stroke:#038048;stroke-width:1.0;"/><text fill="#000000" font-family="sans-serif" font-size="14" lengthAdjust="spacing" textLength="182" x="898.5" y="188.4414">vertikalnivaa: Vertikalnivaa</text><ellipse cx="889.5" cy="201.1387" fill="none" rx="3" ry="3" style="stroke:#038048;stroke-width:1.0;"/><text fill="#000000" font-family="sans-serif" font-size="14" lengthAdjust="spacing" textLength="124" x="898.5" y="204.9297">beskrivelse: string</text><ellipse cx="889.5" cy="217.627" fill="none" rx="3" ry="3" style="stroke:#038048;stroke-width:1.0;"/><text fill="#000000" font-family="sans-serif" font-size="14" lengthAdjust="spacing" textLength="214" x="898.5" y="221.418">innvilgetDispensasjon: boolean</text><ellipse cx="889.5" cy="234.1152" fill="none" rx="3" ry="3" style="stroke:#038048;stroke-width:1.0;"/><text fill="#000000" font-family="sans-serif" font-size="14" lengthAdjust="spacing" textLength="185" x="898.5" y="237.9063">saksnummer: Saksnummer</text><ellipse cx="889.5" cy="250.6035" fill="none" rx="3" ry="3" style="stroke:#038048;stroke-width:1.0;"/><text fill="#000000" font-family="sans-serif" font-size="14" lengthAdjust="spacing" textLength="189" x="898.5" y="254.3945">varigDispensasjon: boolean</text><ellipse cx="889.5" cy="267.0918" fill="none" rx="3" ry="3" style="stroke:#038048;stroke-width:1.0;"/><text fill="#000000" font-family="sans-serif" font-size="14" lengthAdjust="spacing" textLength="116" x="898.5" y="270.8828">varighetFra: date</text><ellipse cx="889.5" cy="283.5801" fill="none" rx="3" ry="3" style="stroke:#038048;stroke-width:1.0;"/><text fill="#000000" font-family="sans-serif" font-size="14" lengthAdjust="spacing" textLength="111" x="898.5" y="287.3711">varighetTil: date</text><ellipse cx="889.5" cy="300.0684" fill="none" rx="3" ry="3" style="stroke:#038048;stroke-width:1.0;"/><text fill="#000000" font-family="sans-serif" font-size="14" lengthAdjust="spacing" textLength="203" x="898.5" y="303.8594">plandokumenter: Dokument[]</text><line style="stroke:#181818;stroke-width:0.5;" x1="879.5" x2="1240.5" y1="310.8125" y2="310.8125"/></g><path d="M418.5,102.29 L418.5,127.6005 A0,0 0 0 0 418.5,127.6005 L718.5,127.6005 A0,0 0 0 0 718.5,127.6005 L718.5,120.29 L882.5,67.7324 L718.5,112.29 L718.5,112.29 L708.5,102.29 L418.5,102.29 A0,0 0 0 0 418.5,102.29 " fill="#FEFFDD" style="stroke:#181818;stroke-width:0.5;"/><path d="M708.5,102.29 L708.5,112.29 L718.5,112.29 L708.5,102.29 " fill="#FEFFDD" style="stroke:#181818;stroke-width:0.5;"/><text fill="#000000" font-family="sans-serif" font-size="13" lengthAdjust="spacing" textLength="279" x="424.5" y="119.8584">dispensasjonsType er hentet fra Planregister</text><path d="M418.5,137.6005 L418.5,178.2216 A0,0 0 0 0 418.5,178.2216 L843.5,178.2216 A0,0 0 0 0 843.5,178.2216 L843.5,161.9111 L882.5,84.2207 L843.5,153.9111 L843.5,147.6005 L833.5,137.6005 L418.5,137.6005 A0,0 0 0 0 418.5,137.6005 " fill="#FEFFDD" style="stroke:#181818;stroke-width:0.5;"/><path d="M833.5,137.6005 L833.5,147.6005 L843.5,147.6005 L833.5,137.6005 " fill="#FEFFDD" style="stroke:#181818;stroke-width:0.5;"/><text fill="#000000" font-family="sans-serif" font-size="13" lengthAdjust="spacing" textLength="404" x="424.5" y="155.1689">dispensasajonFraLovverk: se kodelisten dispensasjonfralovverk.</text><text fill="#000000" font-family="sans-serif" font-size="13" lengthAdjust="spacing" textLength="209" x="424.5" y="170.4795">Opprinnelig hentet fra eByggesak</text><path d="M418.5,188.2216 L418.5,213.5322 A0,0 0 0 0 418.5,213.5322 L780.5,213.5322 A0,0 0 0 0 780.5,213.5322 L780.5,206.2216 L882.5,100.709 L780.5,198.2216 L780.5,198.2216 L770.5,188.2216 L418.5,188.2216 A0,0 0 0 0 418.5,188.2216 " fill="#FEFFDD" style="stroke:#181818;stroke-width:0.5;"/><path d="M770.5,188.2216 L770.5,198.2216 L780.5,198.2216 L770.5,188.2216 " fill="#FEFFDD" style="stroke:#181818;stroke-width:0.5;"/><text fill="#000000" font-family="sans-serif" font-size="13" lengthAdjust="spacing" textLength="337" x="424.5" y="205.79">Et tekstfelt. Nytt i issue113 og hentet fra planregister</text><!--class DispensasjonsType--><g id="elem_DispensasjonsType"><rect codeLine="46" fill="#F1F1F1" height="89.5977" id="DispensasjonsType" rx="2.5" ry="2.5" style="stroke:#181818;stroke-width:0.5;" width="184" x="1263" y="407.48"/><ellipse cx="1287.45" cy="427.7905" fill="#ADD1B2" rx="11" ry="11" style="stroke:#181818;stroke-width:1.0;"/><path d="M1289.9231,433.9336 Q1289.3421,434.2324 1288.7029,434.3819 Q1288.0638,434.5313 1287.3582,434.5313 Q1284.8514,434.5313 1283.5315,432.8794 Q1282.2117,431.2276 1282.2117,428.1065 Q1282.2117,424.9771 1283.5315,423.3252 Q1284.8514,421.6734 1287.3582,421.6734 Q1288.0638,421.6734 1288.7112,421.8228 Q1289.3587,421.9722 1289.9231,422.271 L1289.9231,424.9937 Q1289.2923,424.4126 1288.6988,424.1428 Q1288.1053,423.8731 1287.4744,423.8731 Q1286.1297,423.8731 1285.4449,424.9397 Q1284.7601,426.0064 1284.7601,428.1065 Q1284.7601,430.1983 1285.4449,431.2649 Q1286.1297,432.3316 1287.4744,432.3316 Q1288.1053,432.3316 1288.6988,432.0618 Q1289.2923,431.792 1289.9231,431.211 Z " fill="#000000"/><text fill="#000000" font-family="sans-serif" font-size="12" font-style="italic" lengthAdjust="spacing" textLength="42" x="1348.05" y="424.0816">&#171;Kode&#187;</text><text fill="#000000" font-family="sans-serif" font-size="14" lengthAdjust="spacing" textLength="131" x="1303.55" y="440.148">DispensasjonsType</text><line style="stroke:#181818;stroke-width:0.5;" x1="1264" x2="1446" y1="448.1011" y2="448.1011"/><ellipse cx="1274" cy="461.8452" fill="none" rx="3" ry="3" style="stroke:#038048;stroke-width:1.0;"/><text fill="#000000" font-family="sans-serif" font-size="14" lengthAdjust="spacing" textLength="116" x="1283" y="465.6363">kodeverdi: string</text><ellipse cx="1274" cy="478.3335" fill="none" rx="3" ry="3" style="stroke:#038048;stroke-width:1.0;"/><text fill="#000000" font-family="sans-serif" font-size="14" lengthAdjust="spacing" textLength="158" x="1283" y="482.1245">kodebeskrivelse: string</text><line style="stroke:#181818;stroke-width:0.5;" x1="1264" x2="1446" y1="489.0777" y2="489.0777"/></g><!--class DispensasjonFraLovverk--><g id="elem_DispensasjonFraLovverk"><rect codeLine="51" fill="#F1F1F1" height="89.5977" id="DispensasjonFraLovverk" rx="2.5" ry="2.5" style="stroke:#181818;stroke-width:0.5;" width="197" x="1482.5" y="407.48"/><ellipse cx="1497.5" cy="427.7905" fill="#ADD1B2" rx="11" ry="11" style="stroke:#181818;stroke-width:1.0;"/><path d="M1499.9731,433.9336 Q1499.3921,434.2324 1498.7529,434.3819 Q1498.1138,434.5313 1497.4082,434.5313 Q1494.9014,434.5313 1493.5815,432.8794 Q1492.2617,431.2276 1492.2617,428.1065 Q1492.2617,424.9771 1493.5815,423.3252 Q1494.9014,421.6734 1497.4082,421.6734 Q1498.1138,421.6734 1498.7612,421.8228 Q1499.4087,421.9722 1499.9731,422.271 L1499.9731,424.9937 Q1499.3423,424.4126 1498.7488,424.1428 Q1498.1553,423.8731 1497.5244,423.8731 Q1496.1797,423.8731 1495.4949,424.9397 Q1494.8101,426.0064 1494.8101,428.1065 Q1494.8101,430.1983 1495.4949,431.2649 Q1496.1797,432.3316 1497.5244,432.3316 Q1498.1553,432.3316 1498.7488,432.0618 Q1499.3423,431.792 1499.9731,431.211 Z " fill="#000000"/><text fill="#000000" font-family="sans-serif" font-size="12" font-style="italic" lengthAdjust="spacing" textLength="42" x="1573" y="424.0816">&#171;Kode&#187;</text><text fill="#000000" font-family="sans-serif" font-size="14" lengthAdjust="spacing" textLength="165" x="1511.5" y="440.148">DispensasjonFraLovverk</text><line style="stroke:#181818;stroke-width:0.5;" x1="1483.5" x2="1678.5" y1="448.1011" y2="448.1011"/><ellipse cx="1493.5" cy="461.8452" fill="none" rx="3" ry="3" style="stroke:#038048;stroke-width:1.0;"/><text fill="#000000" font-family="sans-serif" font-size="14" lengthAdjust="spacing" textLength="116" x="1502.5" y="465.6363">kodeverdi: string</text><ellipse cx="1493.5" cy="478.3335" fill="none" rx="3" ry="3" style="stroke:#038048;stroke-width:1.0;"/><text fill="#000000" font-family="sans-serif" font-size="14" lengthAdjust="spacing" textLength="158" x="1502.5" y="482.1245">kodebeskrivelse: string</text><line style="stroke:#181818;stroke-width:0.5;" x1="1483.5" x2="1678.5" y1="489.0777" y2="489.0777"/></g><!--class Vertikalnivaa--><g id="elem_Vertikalnivaa"><rect codeLine="56" fill="#F1F1F1" height="89.5977" id="Vertikalnivaa" rx="2.5" ry="2.5" style="stroke:#181818;stroke-width:0.5;" width="184" x="1715" y="407.48"/><ellipse cx="1758.8" cy="427.7905" fill="#ADD1B2" rx="11" ry="11" style="stroke:#181818;stroke-width:1.0;"/><path d="M1761.2731,433.9336 Q1760.6921,434.2324 1760.0529,434.3819 Q1759.4138,434.5313 1758.7082,434.5313 Q1756.2014,434.5313 1754.8815,432.8794 Q1753.5617,431.2276 1753.5617,428.1065 Q1753.5617,424.9771 1754.8815,423.3252 Q1756.2014,421.6734 1758.7082,421.6734 Q1759.4138,421.6734 1760.0612,421.8228 Q1760.7087,421.9722 1761.2731,422.271 L1761.2731,424.9937 Q1760.6423,424.4126 1760.0488,424.1428 Q1759.4553,423.8731 1758.8244,423.8731 Q1757.4797,423.8731 1756.7949,424.9397 Q1756.1101,426.0064 1756.1101,428.1065 Q1756.1101,430.1983 1756.7949,431.2649 Q1757.4797,432.3316 1758.8244,432.3316 Q1759.4553,432.3316 1760.0488,432.0618 Q1760.6423,431.792 1761.2731,431.211 Z " fill="#000000"/><text fill="#000000" font-family="sans-serif" font-size="12" font-style="italic" lengthAdjust="spacing" textLength="42" x="1802.2" y="424.0816">&#171;Kode&#187;</text><text fill="#000000" font-family="sans-serif" font-size="14" lengthAdjust="spacing" textLength="88" x="1779.2" y="440.148">Vertikalnivaa</text><line style="stroke:#181818;stroke-width:0.5;" x1="1716" x2="1898" y1="448.1011" y2="448.1011"/><ellipse cx="1726" cy="461.8452" fill="none" rx="3" ry="3" style="stroke:#038048;stroke-width:1.0;"/><text fill="#000000" font-family="sans-serif" font-size="14" lengthAdjust="spacing" textLength="116" x="1735" y="465.6363">kodeverdi: string</text><ellipse cx="1726" cy="478.3335" fill="none" rx="3" ry="3" style="stroke:#038048;stroke-width:1.0;"/><text fill="#000000" font-family="sans-serif" font-size="14" lengthAdjust="spacing" textLength="158" x="1735" y="482.1245">kodebeskrivelse: string</text><line style="stroke:#181818;stroke-width:0.5;" x1="1716" x2="1898" y1="489.0777" y2="489.0777"/></g><!--link NasjonalArealplanId to AdministrativEnhet--><g id="link_NasjonalArealplanId_AdministrativEnhet"><path codeLine="6" d="M153,492.83 C153,520.07 153,556.44 153,585.37 " fill="none" id="NasjonalArealplanId-AdministrativEnhet" style="stroke:#181818;stroke-width:1.0;"/></g><!--link Posisjon to Koordinatsystem--><g id="link_Posisjon_Koordinatsystem"><path codeLine="7" d="M458.84,501.1 C454.73,528.52 449.61,562.7 445.6,589.46 " fill="none" id="Posisjon-Koordinatsystem" style="stroke:#181818;stroke-width:1.0;"/></g><!--link Posisjon to PosisjonType--><g id="link_Posisjon_PosisjonType"><path codeLine="8" d="M508.72,501.1 C537.23,533 573.91,574.06 598.81,601.93 " fill="none" id="Posisjon-PosisjonType" style="stroke:#181818;stroke-width:1.0;"/></g><!--link Dokument to Dokumenttype--><g id="link_Dokument_Dokumenttype"><path codeLine="10" d="M982.06,526.05 C959.14,547.45 934.78,570.19 914.4,589.22 " fill="none" id="Dokument-Dokumenttype" style="stroke:#181818;stroke-width:1.0;"/></g><!--link Dokument to ReferanseDokumentfil--><g id="link_Dokument_ReferanseDokumentfil"><path codeLine="11" d="M1070.5,526.05 C1073.83,549.11 1077.38,573.73 1080.24,593.58 " fill="none" id="Dokument-ReferanseDokumentfil" style="stroke:#181818;stroke-width:1.0;"/></g><!--link Dispensasjon to DispensasjonsType--><g id="link_Dispensasjon_DispensasjonsType"><path codeLine="38" d="M1219.16,318.95 C1252.36,351.29 1284.77,382.86 1309.6,407.05 " fill="none" id="Dispensasjon-DispensasjonsType" style="stroke:#181818;stroke-width:1.0;"/></g><!--link Dispensasjon to DispensasjonFraLovverk--><g id="link_Dispensasjon_DispensasjonFraLovverk"><path codeLine="39" d="M1241.93,256.96 C1312.23,293.82 1392.94,337.26 1465,378.82 C1480.32,387.65 1496.55,397.48 1511.86,406.98 " fill="none" id="Dispensasjon-DispensasjonFraLovverk" style="stroke:#181818;stroke-width:1.0;"/></g><!--link Dispensasjon to Vertikalnivaa--><g id="link_Dispensasjon_Vertikalnivaa"><path codeLine="40" d="M1242,211.76 C1372.14,249.2 1549.62,306.91 1697,378.82 C1713.44,386.84 1730.35,396.92 1745.83,407 " fill="none" id="Dispensasjon-Vertikalnivaa" style="stroke:#181818;stroke-width:1.0;"/></g><!--link Dispensasjon to NasjonalArealplanId--><g id="link_Dispensasjon_NasjonalArealplanId"><path codeLine="41" d="M878.25,311.15 C872.53,313.9 866.78,316.47 861,318.82 C635.62,410.31 551.88,315.59 317,378.82 C287.69,386.7 256.92,399.1 230.05,411.42 " fill="none" id="Dispensasjon-NasjonalArealplanId" style="stroke:#181818;stroke-width:1.0;"/></g><!--link Dispensasjon to Posisjon--><g id="link_Dispensasjon_Posisjon"><path codeLine="42" d="M878.1,310 C872.42,313.11 866.72,316.05 861,318.82 C759.68,367.8 720.87,340.66 615,378.82 C595.92,385.69 576.05,394.28 557.27,403.11 " fill="none" id="Dispensasjon-Posisjon" style="stroke:#181818;stroke-width:1.0;"/></g><!--link Dispensasjon to Saksnummer--><g id="link_Dispensasjon_Saksnummer"><path codeLine="43" d="M890.05,318.95 C852.42,353.28 815.75,386.74 788.69,411.43 " fill="none" id="Dispensasjon-Saksnummer" style="stroke:#181818;stroke-width:1.0;"/></g><!--link Dispensasjon to Dokument--><g id="link_Dispensasjon_Dokument"><path codeLine="44" d="M1060,318.95 C1060,339.76 1060,360.25 1060,378.66 " fill="none" id="Dispensasjon-Dokument" style="stroke:#181818;stroke-width:1.0;"/></g><!--SRC=[hLHDQzmm4BtxLqpE9J9fRYO4Mf90QKW33RsK7fHex4oibOma6vQI_rxvGsl9Djk6neVrxCpJUwFvy0cf9zaA19OpbYlDQijAyZ-Dv8fr7rc9Kg9bYjiNhRZa1hdiOoJo3Hzhskpa7oaRRQado8FnbiEMrrQrknsQV3RVGY1qtUvGkJmO_U7iIN9huOfiWyeEruFV6VZd0mcF8SyqU0kmpf2gnfY8yFPXts2HK0okDVB6y5lTTMZg53xxvpFUbqg6sdyAjVyY2hXREqVq8rQcLGgbnPIcG-5y-GHtkW3mhodFq982xYShu8tp9P2AEkup-X7_3LAsDjIjfKYfZcI5Bhvh0OzQI-GJ_TpA0huVx4cQ6wgEd1tYp-Y6Kiqt2Uu7ah6xhqxeVAzsDTa_VsMlMQQqGv1OEj1bqfkY49kDNNa13Jptt0vAm-7Uoncio7gn39M0GU6eqFP8G2h75tDa4MejKFP2AidAPo5751ielZMDxuqV2QhYHF7plghGz-6GvL-huVN7hAuTEAojynlc6DpjdGC2ihR5ixDpq8bE4nK48grazKvFD_Re629QdIKi7TLbT6jpbfZ39Ym3qQIkafl6QklBCix9nSLNtx3Bo_2TwTldBo0etPxUlRLQhrlCqRYy5trIllzd_GC0]--></g></svg>