<svg xmlns="http://www.w3.org/2000/svg" xmlns:xlink="http://www.w3.org/1999/xlink" contentStyleType="text/css" data-diagram-type="CLASS" height="881px" preserveAspectRatio="none" style="width:1896px;height:881px;background:#FFFFFF;" version="1.1" viewBox="0 0 1896 881" width="1896px" zoomAndPan="magnify"><defs/><g><!--class NasjonalArealplanId--><g class="entity" data-entity="NasjonalArealplanId" data-source-line="1" data-uid="ent0002" id="entity_NasjonalArealplanId"><rect fill="#F1F1F1" height="80.9766" rx="2.5" ry="2.5" style="stroke:#181818;stroke-width:0.5;" width="290.3047" x="7" y="603.27"/><ellipse cx="80.0898" cy="619.27" fill="#ADD1B2" rx="11" ry="11" style="stroke:#181818;stroke-width:1;"/><path d="M82.563,625.4131 Q81.9819,625.7119 81.3428,625.8613 Q80.7036,626.0107 79.998,626.0107 Q77.4912,626.0107 76.1714,624.3589 Q74.8516,622.707 74.8516,619.5859 Q74.8516,616.4565 76.1714,614.8047 Q77.4912,613.1528 79.998,613.1528 Q80.7036,613.1528 81.3511,613.3022 Q81.9985,613.4516 82.563,613.7505 L82.563,616.4731 Q81.9321,615.8921 81.3386,615.6223 Q80.7451,615.3525 80.1143,615.3525 Q78.7695,615.3525 78.0847,616.4192 Q77.3999,617.4858 77.3999,619.5859 Q77.3999,621.6777 78.0847,622.7444 Q78.7695,623.811 80.1143,623.811 Q80.7451,623.811 81.3386,623.5412 Q81.9321,623.2715 82.563,622.6904 Z " fill="#000000"/><text fill="#000000" font-family="sans-serif" font-size="14" lengthAdjust="spacing" textLength="135.625" x="100.5898" y="624.561">NasjonalArealplanId</text><line style="stroke:#181818;stroke-width:0.5;" x1="8" x2="296.3047" y1="635.27" y2="635.27"/><ellipse cx="18" cy="649.0141" fill="none" rx="3" ry="3" style="stroke:#038048;stroke-width:1;"/><text fill="#000000" font-family="sans-serif" font-size="14" lengthAdjust="spacing" textLength="264.3047" x="27" y="652.8052">administrativEnhet: AdministrativEnhet</text><ellipse cx="18" cy="665.5024" fill="none" rx="3" ry="3" style="stroke:#038048;stroke-width:1;"/><text fill="#000000" font-family="sans-serif" font-size="14" lengthAdjust="spacing" textLength="170.126" x="27" y="669.2934">planidentifikasjon: string</text><line style="stroke:#181818;stroke-width:0.5;" x1="8" x2="296.3047" y1="676.2466" y2="676.2466"/></g><!--class AdministrativEnhet--><g class="entity" data-entity="AdministrativEnhet" data-source-line="6" data-uid="ent0003" id="entity_AdministrativEnhet"><rect fill="#F1F1F1" height="97.4648" rx="2.5" ry="2.5" style="stroke:#181818;stroke-width:0.5;" width="160.6865" x="71.81" y="777.23"/><ellipse cx="86.81" cy="793.23" fill="#EB937F" rx="11" ry="11" style="stroke:#181818;stroke-width:1;"/><path d="M90.4243,799.73 L82.7045,799.73 L82.7045,787.3369 L90.4243,787.3369 L90.4243,789.4951 L85.1533,789.4951 L85.1533,792.168 L89.9262,792.168 L89.9262,794.3262 L85.1533,794.3262 L85.1533,797.5718 L90.4243,797.5718 Z " fill="#000000"/><text fill="#000000" font-family="sans-serif" font-size="14" lengthAdjust="spacing" textLength="128.6865" x="100.81" y="798.521">AdministrativEnhet</text><line style="stroke:#181818;stroke-width:0.5;" x1="72.81" x2="231.4965" y1="809.23" y2="809.23"/><text fill="#000000" font-family="sans-serif" font-size="14" lengthAdjust="spacing" textLength="125.1455" x="77.81" y="826.7652">kommunenummer</text><text fill="#000000" font-family="sans-serif" font-size="14" lengthAdjust="spacing" textLength="96.6738" x="77.81" y="843.2534">fylkesnummer</text><text fill="#000000" font-family="sans-serif" font-size="14" lengthAdjust="spacing" textLength="69.8086" x="77.81" y="859.7417">landskode</text><line style="stroke:#181818;stroke-width:0.5;" x1="72.81" x2="231.4965" y1="866.6948" y2="866.6948"/></g><!--class Posisjon--><g class="entity" data-entity="Posisjon" data-source-line="1" data-uid="ent0005" id="entity_Posisjon"><rect fill="#F1F1F1" height="97.4648" rx="2.5" ry="2.5" style="stroke:#181818;stroke-width:0.5;" width="262.4551" x="331.92" y="595.03"/><ellipse cx="430.795" cy="611.03" fill="#ADD1B2" rx="11" ry="11" style="stroke:#181818;stroke-width:1;"/><path d="M433.2681,617.1731 Q432.6871,617.4719 432.0479,617.6213 Q431.4088,617.7707 430.7032,617.7707 Q428.1964,617.7707 426.8765,616.1189 Q425.5567,614.467 425.5567,611.3459 Q425.5567,608.2165 426.8765,606.5647 Q428.1964,604.9128 430.7032,604.9128 Q431.4088,604.9128 432.0562,605.0622 Q432.7037,605.2116 433.2681,605.5105 L433.2681,608.2331 Q432.6373,607.6521 432.0438,607.3823 Q431.4503,607.1125 430.8194,607.1125 Q429.4747,607.1125 428.7899,608.1792 Q428.1051,609.2458 428.1051,611.3459 Q428.1051,613.4377 428.7899,614.5044 Q429.4747,615.571 430.8194,615.571 Q431.4503,615.571 432.0438,615.3012 Q432.6373,615.0315 433.2681,614.4504 Z " fill="#000000"/><text fill="#000000" font-family="sans-serif" font-size="14" lengthAdjust="spacing" textLength="56.2051" x="451.295" y="616.321">Posisjon</text><line style="stroke:#181818;stroke-width:0.5;" x1="332.92" x2="593.3751" y1="627.03" y2="627.03"/><ellipse cx="342.92" cy="640.7741" fill="none" rx="3" ry="3" style="stroke:#038048;stroke-width:1;"/><text fill="#000000" font-family="sans-serif" font-size="14" lengthAdjust="spacing" textLength="127.0049" x="351.92" y="644.5652">type: PosisjonType</text><ellipse cx="342.92" cy="657.2624" fill="none" rx="3" ry="3" style="stroke:#038048;stroke-width:1;"/><text fill="#000000" font-family="sans-serif" font-size="14" lengthAdjust="spacing" textLength="149.9053" x="351.92" y="661.0534">koordinater: number[]</text><ellipse cx="342.92" cy="673.7507" fill="none" rx="3" ry="3" style="stroke:#038048;stroke-width:1;"/><text fill="#000000" font-family="sans-serif" font-size="14" lengthAdjust="spacing" textLength="236.4551" x="351.92" y="677.5417">koordinatsystem: Koordinatsystem</text><line style="stroke:#181818;stroke-width:0.5;" x1="332.92" x2="593.3751" y1="684.4948" y2="684.4948"/></g><!--class Koordinatsystem--><g class="entity" data-entity="Koordinatsystem" data-source-line="7" data-uid="ent0006" id="entity_Koordinatsystem"><rect fill="#F1F1F1" height="89.5977" rx="2.5" ry="2.5" style="stroke:#181818;stroke-width:0.5;" width="183.5547" x="345.38" y="781.16"/><ellipse cx="377.1552" cy="801.4705" fill="#ADD1B2" rx="11" ry="11" style="stroke:#181818;stroke-width:1;"/><path d="M379.6284,807.6136 Q379.0473,807.9124 378.4082,808.0619 Q377.769,808.2113 377.0634,808.2113 Q374.5566,808.2113 373.2368,806.5594 Q371.917,804.9076 371.917,801.7865 Q371.917,798.6571 373.2368,797.0052 Q374.5566,795.3534 377.0634,795.3534 Q377.769,795.3534 378.4165,795.5028 Q379.0639,795.6522 379.6284,795.951 L379.6284,798.6737 Q378.9975,798.0926 378.404,797.8228 Q377.8105,797.5531 377.1797,797.5531 Q375.8349,797.5531 375.1501,798.6197 Q374.4653,799.6864 374.4653,801.7865 Q374.4653,803.8783 375.1501,804.9449 Q375.8349,806.0116 377.1797,806.0116 Q377.8105,806.0116 378.404,805.7418 Q378.9975,805.472 379.6284,804.891 Z " fill="#000000"/><text fill="#000000" font-family="sans-serif" font-size="12" font-style="italic" lengthAdjust="spacing" textLength="42.0176" x="431.0125" y="797.7616">&#171;Kode&#187;</text><text fill="#000000" font-family="sans-serif" font-size="14" lengthAdjust="spacing" textLength="114.2764" x="394.8831" y="813.828">Koordinatsystem</text><line style="stroke:#181818;stroke-width:0.5;" x1="346.38" x2="527.9347" y1="821.7811" y2="821.7811"/><ellipse cx="356.38" cy="835.5252" fill="none" rx="3" ry="3" style="stroke:#038048;stroke-width:1;"/><text fill="#000000" font-family="sans-serif" font-size="14" lengthAdjust="spacing" textLength="115.4521" x="365.38" y="839.3163">kodeverdi: string</text><ellipse cx="356.38" cy="852.0135" fill="none" rx="3" ry="3" style="stroke:#038048;stroke-width:1;"/><text fill="#000000" font-family="sans-serif" font-size="14" lengthAdjust="spacing" textLength="157.5547" x="365.38" y="855.8045">kodebeskrivelse: string</text><line style="stroke:#181818;stroke-width:0.5;" x1="346.38" x2="527.9347" y1="862.7577" y2="862.7577"/></g><!--class PosisjonType--><g class="entity" data-entity="PosisjonType" data-source-line="8" data-uid="ent0008" id="entity_PosisjonType"><rect fill="#F1F1F1" height="64.4883" rx="2.5" ry="2.5" style="stroke:#181818;stroke-width:0.5;" width="120.9834" x="563.66" y="793.71"/><ellipse cx="578.66" cy="809.71" fill="#EB937F" rx="11" ry="11" style="stroke:#181818;stroke-width:1;"/><path d="M582.2743,816.21 L574.5545,816.21 L574.5545,803.8169 L582.2743,803.8169 L582.2743,805.9751 L577.0033,805.9751 L577.0033,808.648 L581.7762,808.648 L581.7762,810.8062 L577.0033,810.8062 L577.0033,814.0518 L582.2743,814.0518 Z " fill="#000000"/><text fill="#000000" font-family="sans-serif" font-size="14" lengthAdjust="spacing" textLength="88.9834" x="592.66" y="815.001">PosisjonType</text><line style="stroke:#181818;stroke-width:0.5;" x1="564.66" x2="683.6434" y1="825.71" y2="825.71"/><text fill="#000000" font-family="sans-serif" font-size="14" lengthAdjust="spacing" textLength="34.3096" x="569.66" y="843.2452">Point</text><line style="stroke:#181818;stroke-width:0.5;" x1="564.66" x2="683.6434" y1="850.1983" y2="850.1983"/></g><!--class Saksnummer--><g class="entity" data-entity="Saksnummer" data-source-line="2" data-uid="ent0010" id="entity_Saksnummer"><rect fill="#F1F1F1" height="80.9766" rx="2.5" ry="2.5" style="stroke:#181818;stroke-width:0.5;" width="224.1123" x="629.1" y="603.27"/><ellipse cx="693.0878" cy="619.27" fill="#ADD1B2" rx="11" ry="11" style="stroke:#181818;stroke-width:1;"/><path d="M695.5609,625.4131 Q694.9799,625.7119 694.3407,625.8613 Q693.7016,626.0107 692.996,626.0107 Q690.4892,626.0107 689.1693,624.3589 Q687.8495,622.707 687.8495,619.5859 Q687.8495,616.4565 689.1693,614.8047 Q690.4892,613.1528 692.996,613.1528 Q693.7016,613.1528 694.349,613.3022 Q694.9965,613.4516 695.5609,613.7505 L695.5609,616.4731 Q694.9301,615.8921 694.3366,615.6223 Q693.7431,615.3525 693.1122,615.3525 Q691.7675,615.3525 691.0827,616.4192 Q690.3979,617.4858 690.3979,619.5859 Q690.3979,621.6777 691.0827,622.7444 Q691.7675,623.811 693.1122,623.811 Q693.7431,623.811 694.3366,623.5412 Q694.9301,623.2715 695.5609,622.6904 Z " fill="#000000"/><text fill="#000000" font-family="sans-serif" font-size="14" lengthAdjust="spacing" textLength="87.6367" x="713.5878" y="624.561">Saksnummer</text><line style="stroke:#181818;stroke-width:0.5;" x1="630.1" x2="852.2123" y1="635.27" y2="635.27"/><ellipse cx="640.1" cy="649.0141" fill="none" rx="3" ry="3" style="stroke:#038048;stroke-width:1;"/><text fill="#000000" font-family="sans-serif" font-size="14" lengthAdjust="spacing" textLength="108.2676" x="649.1" y="652.8052">saksaar: integer</text><ellipse cx="640.1" cy="665.5024" fill="none" rx="3" ry="3" style="stroke:#038048;stroke-width:1;"/><text fill="#000000" font-family="sans-serif" font-size="14" lengthAdjust="spacing" textLength="198.1123" x="649.1" y="669.2934">sakssekvensnummer: integer</text><line style="stroke:#181818;stroke-width:0.5;" x1="630.1" x2="852.2123" y1="676.2466" y2="676.2466"/></g><!--class Dokument--><g class="entity" data-entity="Dokument" data-source-line="1" data-uid="ent0011" id="entity_Dokument"><rect fill="#F1F1F1" height="146.9297" rx="2.5" ry="2.5" style="stroke:#181818;stroke-width:0.5;" width="333.0908" x="888.61" y="570.3"/><ellipse cx="1015.5294" cy="586.3" fill="#ADD1B2" rx="11" ry="11" style="stroke:#181818;stroke-width:1;"/><path d="M1018.0026,592.4431 Q1017.4215,592.7419 1016.7824,592.8913 Q1016.1432,593.0407 1015.4376,593.0407 Q1012.9308,593.0407 1011.611,591.3889 Q1010.2912,589.737 1010.2912,586.6159 Q1010.2912,583.4865 1011.611,581.8347 Q1012.9308,580.1828 1015.4376,580.1828 Q1016.1432,580.1828 1016.7907,580.3322 Q1017.4381,580.4816 1018.0026,580.7805 L1018.0026,583.5031 Q1017.3717,582.9221 1016.7782,582.6523 Q1016.1847,582.3825 1015.5538,582.3825 Q1014.2091,582.3825 1013.5243,583.4492 Q1012.8395,584.5158 1012.8395,586.6159 Q1012.8395,588.7077 1013.5243,589.7744 Q1014.2091,590.841 1015.5538,590.841 Q1016.1847,590.841 1016.7782,590.5712 Q1017.3717,590.3015 1018.0026,589.7204 Z " fill="#000000"/><text fill="#000000" font-family="sans-serif" font-size="14" lengthAdjust="spacing" textLength="70.752" x="1036.0294" y="591.591">Dokument</text><line style="stroke:#181818;stroke-width:0.5;" x1="889.61" x2="1220.7008" y1="602.3" y2="602.3"/><ellipse cx="899.61" cy="616.0441" fill="none" rx="3" ry="3" style="stroke:#038048;stroke-width:1;"/><text fill="#000000" font-family="sans-serif" font-size="14" lengthAdjust="spacing" textLength="80.0283" x="908.61" y="619.8352">tittel: string</text><ellipse cx="899.61" cy="632.5324" fill="none" rx="3" ry="3" style="stroke:#038048;stroke-width:1;"/><text fill="#000000" font-family="sans-serif" font-size="14" lengthAdjust="spacing" textLength="207.0127" x="908.61" y="636.3234">dokumenttype: Dokumenttype</text><ellipse cx="899.61" cy="649.0207" fill="none" rx="3" ry="3" style="stroke:#038048;stroke-width:1;"/><text fill="#000000" font-family="sans-serif" font-size="14" lengthAdjust="spacing" textLength="307.0908" x="908.61" y="652.8117">referanseDokumentfil: ReferanseDokumentfil</text><ellipse cx="899.61" cy="665.509" fill="none" rx="3" ry="3" style="stroke:#038048;stroke-width:1;"/><text fill="#000000" font-family="sans-serif" font-size="14" lengthAdjust="spacing" textLength="115.5752" x="908.61" y="669.3">mimetype: string</text><ellipse cx="899.61" cy="681.9973" fill="none" rx="3" ry="3" style="stroke:#038048;stroke-width:1;"/><text fill="#000000" font-family="sans-serif" font-size="14" lengthAdjust="spacing" textLength="145.0313" x="908.61" y="685.7883">dokumentsdato: date</text><ellipse cx="899.61" cy="698.4855" fill="none" rx="3" ry="3" style="stroke:#038048;stroke-width:1;"/><text fill="#000000" font-family="sans-serif" font-size="14" lengthAdjust="spacing" textLength="113.7158" x="908.61" y="702.2766">arkivnavn: string</text><line style="stroke:#181818;stroke-width:0.5;" x1="889.61" x2="1220.7008" y1="709.2297" y2="709.2297"/></g><!--class Dokumenttype--><g class="entity" data-entity="Dokumenttype" data-source-line="10" data-uid="ent0012" id="entity_Dokumenttype"><rect fill="#F1F1F1" height="89.5977" rx="2.5" ry="2.5" style="stroke:#181818;stroke-width:0.5;" width="183.5547" x="771.38" y="781.16"/><ellipse cx="809.6183" cy="801.4705" fill="#ADD1B2" rx="11" ry="11" style="stroke:#181818;stroke-width:1;"/><path d="M812.0914,807.6136 Q811.5104,807.9124 810.8712,808.0619 Q810.2321,808.2113 809.5265,808.2113 Q807.0196,808.2113 805.6998,806.5594 Q804.38,804.9076 804.38,801.7865 Q804.38,798.6571 805.6998,797.0052 Q807.0196,795.3534 809.5265,795.3534 Q810.2321,795.3534 810.8795,795.5028 Q811.527,795.6522 812.0914,795.951 L812.0914,798.6737 Q811.4606,798.0926 810.8671,797.8228 Q810.2736,797.5531 809.6427,797.5531 Q808.298,797.5531 807.6132,798.6197 Q806.9283,799.6864 806.9283,801.7865 Q806.9283,803.8783 807.6132,804.9449 Q808.298,806.0116 809.6427,806.0116 Q810.2736,806.0116 810.8671,805.7418 Q811.4606,805.472 812.0914,804.891 Z " fill="#000000"/><text fill="#000000" font-family="sans-serif" font-size="12" font-style="italic" lengthAdjust="spacing" textLength="42.0176" x="857.7306" y="797.7616">&#171;Kode&#187;</text><text fill="#000000" font-family="sans-serif" font-size="14" lengthAdjust="spacing" textLength="99.9141" x="828.7823" y="813.828">Dokumenttype</text><line style="stroke:#181818;stroke-width:0.5;" x1="772.38" x2="953.9347" y1="821.7811" y2="821.7811"/><ellipse cx="782.38" cy="835.5252" fill="none" rx="3" ry="3" style="stroke:#038048;stroke-width:1;"/><text fill="#000000" font-family="sans-serif" font-size="14" lengthAdjust="spacing" textLength="115.4521" x="791.38" y="839.3163">kodeverdi: string</text><ellipse cx="782.38" cy="852.0135" fill="none" rx="3" ry="3" style="stroke:#038048;stroke-width:1;"/><text fill="#000000" font-family="sans-serif" font-size="14" lengthAdjust="spacing" textLength="157.5547" x="791.38" y="855.8045">kodebeskrivelse: string</text><line style="stroke:#181818;stroke-width:0.5;" x1="772.38" x2="953.9347" y1="862.7577" y2="862.7577"/></g><!--class ReferanseDokumentfil--><g class="entity" data-entity="ReferanseDokumentfil" data-source-line="11" data-uid="ent0014" id="entity_ReferanseDokumentfil"><rect fill="#F1F1F1" height="80.9766" rx="2.5" ry="2.5" style="stroke:#181818;stroke-width:0.5;" width="182.6777" x="989.81" y="785.47"/><ellipse cx="1004.81" cy="801.47" fill="#ADD1B2" rx="11" ry="11" style="stroke:#181818;stroke-width:1;"/><path d="M1007.2831,807.6131 Q1006.7021,807.9119 1006.0629,808.0613 Q1005.4238,808.2107 1004.7182,808.2107 Q1002.2114,808.2107 1000.8915,806.5589 Q999.5717,804.907 999.5717,801.7859 Q999.5717,798.6565 1000.8915,797.0047 Q1002.2114,795.3528 1004.7182,795.3528 Q1005.4238,795.3528 1006.0712,795.5022 Q1006.7187,795.6516 1007.2831,795.9505 L1007.2831,798.6731 Q1006.6523,798.0921 1006.0588,797.8223 Q1005.4653,797.5525 1004.8344,797.5525 Q1003.4897,797.5525 1002.8049,798.6192 Q1002.1201,799.6858 1002.1201,801.7859 Q1002.1201,803.8777 1002.8049,804.9444 Q1003.4897,806.011 1004.8344,806.011 Q1005.4653,806.011 1006.0588,805.7412 Q1006.6523,805.4715 1007.2831,804.8904 Z " fill="#000000"/><text fill="#000000" font-family="sans-serif" font-size="14" lengthAdjust="spacing" textLength="150.6777" x="1018.81" y="806.761">ReferanseDokumentfil</text><line style="stroke:#181818;stroke-width:0.5;" x1="990.81" x2="1171.4877" y1="817.47" y2="817.47"/><ellipse cx="1000.81" cy="831.2141" fill="none" rx="3" ry="3" style="stroke:#038048;stroke-width:1;"/><text fill="#000000" font-family="sans-serif" font-size="14" lengthAdjust="spacing" textLength="61.2842" x="1009.81" y="835.0052">id: string</text><ellipse cx="1000.81" cy="847.7024" fill="none" rx="3" ry="3" style="stroke:#038048;stroke-width:1;"/><text fill="#000000" font-family="sans-serif" font-size="14" lengthAdjust="spacing" textLength="66.8896" x="1009.81" y="851.4934">url: string</text><line style="stroke:#181818;stroke-width:0.5;" x1="990.81" x2="1171.4877" y1="858.4466" y2="858.4466"/></g><!--class Dispensasjon--><g class="entity" data-entity="Dispensasjon" data-source-line="6" data-uid="ent0016" id="entity_Dispensasjon"><rect fill="#F1F1F1" height="311.8125" rx="2.5" ry="2.5" style="stroke:#181818;stroke-width:0.5;" width="360.6943" x="874.81" y="198.48"/><ellipse cx="1005.6464" cy="214.48" fill="#ADD1B2" rx="11" ry="11" style="stroke:#181818;stroke-width:1;"/><path d="M1008.1196,220.6231 Q1007.5385,220.9219 1006.8994,221.0713 Q1006.2602,221.2207 1005.5546,221.2207 Q1003.0478,221.2207 1001.728,219.5689 Q1000.4081,217.917 1000.4081,214.7959 Q1000.4081,211.6665 1001.728,210.0147 Q1003.0478,208.3628 1005.5546,208.3628 Q1006.2602,208.3628 1006.9077,208.5122 Q1007.5551,208.6616 1008.1196,208.9605 L1008.1196,211.6831 Q1007.4887,211.1021 1006.8952,210.8323 Q1006.3017,210.5625 1005.6708,210.5625 Q1004.3261,210.5625 1003.6413,211.6292 Q1002.9565,212.6958 1002.9565,214.7959 Q1002.9565,216.8877 1003.6413,217.9544 Q1004.3261,219.021 1005.6708,219.021 Q1006.3017,219.021 1006.8952,218.7512 Q1007.4887,218.4815 1008.1196,217.9004 Z " fill="#000000"/><text fill="#000000" font-family="sans-serif" font-size="14" lengthAdjust="spacing" textLength="90.5215" x="1026.1464" y="219.771">Dispensasjon</text><line style="stroke:#181818;stroke-width:0.5;" x1="875.81" x2="1234.5043" y1="230.48" y2="230.48"/><ellipse cx="885.81" cy="244.2241" fill="none" rx="3" ry="3" style="stroke:#038048;stroke-width:1;"/><text fill="#000000" font-family="sans-serif" font-size="14" lengthAdjust="spacing" textLength="140.8477" x="894.81" y="248.0152">identifikasjon: string</text><ellipse cx="885.81" cy="260.7124" fill="none" rx="3" ry="3" style="stroke:#038048;stroke-width:1;"/><text fill="#000000" font-family="sans-serif" font-size="14" lengthAdjust="spacing" textLength="246.5518" x="894.81" y="264.5034">dispensasjontype: Dispensasjontype</text><ellipse cx="885.81" cy="277.2007" fill="none" rx="3" ry="3" style="stroke:#038048;stroke-width:1;"/><text fill="#000000" font-family="sans-serif" font-size="14" lengthAdjust="spacing" textLength="334.6943" x="894.81" y="280.9917">dispensasjonFraLovverk: DispensasjonFraLovverk</text><ellipse cx="885.81" cy="293.689" fill="none" rx="3" ry="3" style="stroke:#038048;stroke-width:1;"/><text fill="#000000" font-family="sans-serif" font-size="14" lengthAdjust="spacing" textLength="158.2383" x="894.81" y="297.48">dispensasjonFra: string</text><ellipse cx="885.81" cy="310.1773" fill="none" rx="3" ry="3" style="stroke:#038048;stroke-width:1;"/><text fill="#000000" font-family="sans-serif" font-size="14" lengthAdjust="spacing" textLength="278.4551" x="894.81" y="313.9683">nasjonalArealplanId: NasjonalArealplanId</text><ellipse cx="885.81" cy="326.6655" fill="none" rx="3" ry="3" style="stroke:#038048;stroke-width:1;"/><text fill="#000000" font-family="sans-serif" font-size="14" lengthAdjust="spacing" textLength="132.3438" x="894.81" y="330.4566">begrunnelse: string</text><ellipse cx="885.81" cy="343.1538" fill="none" rx="3" ry="3" style="stroke:#038048;stroke-width:1;"/><text fill="#000000" font-family="sans-serif" font-size="14" lengthAdjust="spacing" textLength="125.3916" x="894.81" y="346.9448">vedtaksdato:  date</text><ellipse cx="885.81" cy="359.6421" fill="none" rx="3" ry="3" style="stroke:#038048;stroke-width:1;"/><text fill="#000000" font-family="sans-serif" font-size="14" lengthAdjust="spacing" textLength="122.3428" x="894.81" y="363.4331">posisjon: Posisjon</text><ellipse cx="885.81" cy="376.1304" fill="none" rx="3" ry="3" style="stroke:#038048;stroke-width:1;"/><text fill="#000000" font-family="sans-serif" font-size="14" lengthAdjust="spacing" textLength="181.6924" x="894.81" y="379.9214">vertikalnivaa: Vertikalnivaa</text><ellipse cx="885.81" cy="392.6187" fill="none" rx="3" ry="3" style="stroke:#038048;stroke-width:1;"/><text fill="#000000" font-family="sans-serif" font-size="14" lengthAdjust="spacing" textLength="124.1611" x="894.81" y="396.4097">beskrivelse: string</text><ellipse cx="885.81" cy="409.107" fill="none" rx="3" ry="3" style="stroke:#038048;stroke-width:1;"/><text fill="#000000" font-family="sans-serif" font-size="14" lengthAdjust="spacing" textLength="212.1875" x="894.81" y="412.898">innvilgetDispensasjon: boolean</text><ellipse cx="885.81" cy="425.5952" fill="none" rx="3" ry="3" style="stroke:#038048;stroke-width:1;"/><text fill="#000000" font-family="sans-serif" font-size="14" lengthAdjust="spacing" textLength="183.7295" x="894.81" y="429.3863">saksnummer: Saksnummer</text><ellipse cx="885.81" cy="442.0835" fill="none" rx="3" ry="3" style="stroke:#038048;stroke-width:1;"/><text fill="#000000" font-family="sans-serif" font-size="14" lengthAdjust="spacing" textLength="187.1406" x="894.81" y="445.8745">varigDispensasjon: boolean</text><ellipse cx="885.81" cy="458.5718" fill="none" rx="3" ry="3" style="stroke:#038048;stroke-width:1;"/><text fill="#000000" font-family="sans-serif" font-size="14" lengthAdjust="spacing" textLength="114.6113" x="894.81" y="462.3628">varighetFra: date</text><ellipse cx="885.81" cy="475.0601" fill="none" rx="3" ry="3" style="stroke:#038048;stroke-width:1;"/><text fill="#000000" font-family="sans-serif" font-size="14" lengthAdjust="spacing" textLength="110.5918" x="894.81" y="478.8511">varighetTil: date</text><ellipse cx="885.81" cy="491.5484" fill="none" rx="3" ry="3" style="stroke:#038048;stroke-width:1;"/><text fill="#000000" font-family="sans-serif" font-size="14" lengthAdjust="spacing" textLength="200.6006" x="894.81" y="495.3394">plandokumenter: Dokument[]</text><line style="stroke:#181818;stroke-width:0.5;" x1="875.81" x2="1234.5043" y1="502.2925" y2="502.2925"/></g><path d="M404.35,296.11 L404.35,352.0416 A0,0 0 0 0 404.35,352.0416 L839.9535,352.0416 A0,0 0 0 0 839.9535,352.0416 L839.9535,328.0758 L878.81,259.2124 L839.9535,320.0758 L839.9535,306.11 L829.9535,296.11 L404.35,296.11 A0,0 0 0 0 404.35,296.11" fill="#FEFFDD" style="stroke:#181818;stroke-width:0.5;"/><path d="M829.9535,296.11 L829.9535,306.11 L839.9535,306.11 L829.9535,296.11" fill="#FEFFDD" style="stroke:#181818;stroke-width:0.5;"/><text fill="#000000" font-family="sans-serif" font-size="13" lengthAdjust="spacing" textLength="274.9995" x="410.35" y="313.6784">dispensasjontype er hentet fra Planregister.</text><text fill="#000000" font-family="sans-serif" font-size="13" lengthAdjust="spacing" textLength="414.6035" x="410.35" y="328.9889">Denne kodelisten er gyldig kun n&#229;r man dispenserer fra arealplan</text><text fill="#000000" font-family="sans-serif" font-size="13" lengthAdjust="spacing" textLength="226.751" x="410.35" y="344.2995">I SOSI 4.5 heter denne dispensasjon</text><path d="M404.35,362.0416 L404.35,402.6627 A0,0 0 0 0 404.35,402.6627 L827.9311,402.6627 A0,0 0 0 0 827.9311,402.6627 L827.9311,386.3522 L878.81,275.7007 L827.9311,378.3522 L827.9311,372.0416 L817.9311,362.0416 L404.35,362.0416 A0,0 0 0 0 404.35,362.0416" fill="#FEFFDD" style="stroke:#181818;stroke-width:0.5;"/><path d="M817.9311,362.0416 L817.9311,372.0416 L827.9311,372.0416 L817.9311,362.0416" fill="#FEFFDD" style="stroke:#181818;stroke-width:0.5;"/><text fill="#000000" font-family="sans-serif" font-size="13" lengthAdjust="spacing" textLength="402.5811" x="410.35" y="379.61">dispensasajonFraLovverk: se kodelisten dispensasjonfralovverk.</text><text fill="#000000" font-family="sans-serif" font-size="13" lengthAdjust="spacing" textLength="354.6436" x="410.35" y="394.9205">Opprinnelig hentet fra eByggesak. Finnes ikke i SOSI 4.5</text><g class="entity" data-entity="GMN19" data-source-line="37" data-uid="ent0020" id="entity_GMN19"><path d="M782.54,6 L782.54,138.4844 A0,0 0 0 0 782.54,138.4844 L1051.15,138.4844 L1055.15,198.11 L1059.15,138.4844 L1327.7612,138.4844 A0,0 0 0 0 1327.7612,138.4844 L1327.7612,16 L1317.7612,6 L782.54,6 A0,0 0 0 0 782.54,6" fill="#FEFFDD" style="stroke:#181818;stroke-width:0.5;"/><path d="M1317.7612,6 L1317.7612,16 L1327.7612,16 L1317.7612,6" fill="#FEFFDD" style="stroke:#181818;stroke-width:0.5;"/><text fill="#000000" font-family="sans-serif" font-size="13" lengthAdjust="spacing" textLength="106.082" x="788.54" y="23.5684">dispensasjonFra:</text><text fill="#000000" font-family="sans-serif" font-size="13" lengthAdjust="spacing" textLength="182.749" x="788.54" y="38.8789">Hentet fra SOSI 4.5 (dispFra):</text><text fill="#000000" font-family="sans-serif" font-size="13" lengthAdjust="spacing" textLength="341.98" x="788.54" y="54.1895">&#8221;dispFra&#8221; skal ha verdi dersom dispensasjonen gjelder</text><text fill="#000000" font-family="sans-serif" font-size="13" lengthAdjust="spacing" textLength="231.1436" x="788.54" y="69.5">&#8217;Arealbruk kommune(del)plan=140&#8217;,</text><text fill="#000000" font-family="sans-serif" font-size="13" lengthAdjust="spacing" textLength="261.2822" x="788.54" y="84.8105">&#8217;Regulerings/bebyggelsesplan=160&#8217; eller</text><text fill="#000000" font-family="sans-serif" font-size="13" lengthAdjust="spacing" textLength="126.1216" x="788.54" y="100.1211">&#8217;Hensynssone=170&#8217;</text><text fill="#000000" font-family="sans-serif" font-size="13" lengthAdjust="spacing" textLength="524.2212" x="788.54" y="115.4316">dispensasjonFra kan inneholde en utvidet beskrivelse om hva det er dispensert fra,</text><text fill="#000000" font-family="sans-serif" font-size="13" lengthAdjust="spacing" textLength="139.8706" x="788.54" y="130.7422">f.eks. lovparagraf osv.</text></g><!--class DispensasjonType--><g class="entity" data-entity="DispensasjonType" data-source-line="47" data-uid="ent0022" id="entity_DispensasjonType"><rect fill="#F1F1F1" height="89.5977" rx="2.5" ry="2.5" style="stroke:#181818;stroke-width:0.5;" width="183.5547" x="1256.38" y="598.96"/><ellipse cx="1284.0947" cy="619.2705" fill="#ADD1B2" rx="11" ry="11" style="stroke:#181818;stroke-width:1;"/><path d="M1286.5678,625.4136 Q1285.9868,625.7124 1285.3476,625.8619 Q1284.7085,626.0113 1284.0029,626.0113 Q1281.4961,626.0113 1280.1762,624.3594 Q1278.8564,622.7076 1278.8564,619.5865 Q1278.8564,616.4571 1280.1762,614.8052 Q1281.4961,613.1534 1284.0029,613.1534 Q1284.7085,613.1534 1285.3559,613.3028 Q1286.0034,613.4522 1286.5678,613.751 L1286.5678,616.4737 Q1285.937,615.8926 1285.3435,615.6228 Q1284.75,615.3531 1284.1191,615.3531 Q1282.7744,615.3531 1282.0896,616.4197 Q1281.4048,617.4864 1281.4048,619.5865 Q1281.4048,621.6783 1282.0896,622.7449 Q1282.7744,623.8116 1284.1191,623.8116 Q1284.75,623.8116 1285.3435,623.5418 Q1285.937,623.272 1286.5678,622.691 Z " fill="#000000"/><text fill="#000000" font-family="sans-serif" font-size="12" font-style="italic" lengthAdjust="spacing" textLength="42.0176" x="1341.5613" y="615.5616">&#171;Kode&#187;</text><text fill="#000000" font-family="sans-serif" font-size="14" lengthAdjust="spacing" textLength="123.2998" x="1300.9202" y="631.628">DispensasjonType</text><line style="stroke:#181818;stroke-width:0.5;" x1="1257.38" x2="1438.9347" y1="639.5811" y2="639.5811"/><ellipse cx="1267.38" cy="653.3252" fill="none" rx="3" ry="3" style="stroke:#038048;stroke-width:1;"/><text fill="#000000" font-family="sans-serif" font-size="14" lengthAdjust="spacing" textLength="115.4521" x="1276.38" y="657.1163">kodeverdi: string</text><ellipse cx="1267.38" cy="669.8135" fill="none" rx="3" ry="3" style="stroke:#038048;stroke-width:1;"/><text fill="#000000" font-family="sans-serif" font-size="14" lengthAdjust="spacing" textLength="157.5547" x="1276.38" y="673.6045">kodebeskrivelse: string</text><line style="stroke:#181818;stroke-width:0.5;" x1="1257.38" x2="1438.9347" y1="680.5577" y2="680.5577"/></g><!--class DispensasjonFraLovverk--><g class="entity" data-entity="DispensasjonFraLovverk" data-source-line="48" data-uid="ent0024" id="entity_DispensasjonFraLovverk"><rect fill="#F1F1F1" height="89.5977" rx="2.5" ry="2.5" style="stroke:#181818;stroke-width:0.5;" width="195.7549" x="1475.27" y="598.96"/><ellipse cx="1490.27" cy="619.2705" fill="#ADD1B2" rx="11" ry="11" style="stroke:#181818;stroke-width:1;"/><path d="M1492.7431,625.4136 Q1492.1621,625.7124 1491.5229,625.8619 Q1490.8838,626.0113 1490.1782,626.0113 Q1487.6714,626.0113 1486.3515,624.3594 Q1485.0317,622.7076 1485.0317,619.5865 Q1485.0317,616.4571 1486.3515,614.8052 Q1487.6714,613.1534 1490.1782,613.1534 Q1490.8838,613.1534 1491.5312,613.3028 Q1492.1787,613.4522 1492.7431,613.751 L1492.7431,616.4737 Q1492.1123,615.8926 1491.5188,615.6228 Q1490.9253,615.3531 1490.2944,615.3531 Q1488.9497,615.3531 1488.2649,616.4197 Q1487.5801,617.4864 1487.5801,619.5865 Q1487.5801,621.6783 1488.2649,622.7449 Q1488.9497,623.8116 1490.2944,623.8116 Q1490.9253,623.8116 1491.5188,623.5418 Q1492.1123,623.272 1492.7431,622.691 Z " fill="#000000"/><text fill="#000000" font-family="sans-serif" font-size="12" font-style="italic" lengthAdjust="spacing" textLength="42.0176" x="1565.1387" y="615.5616">&#171;Kode&#187;</text><text fill="#000000" font-family="sans-serif" font-size="14" lengthAdjust="spacing" textLength="163.7549" x="1504.27" y="631.628">DispensasjonFraLovverk</text><line style="stroke:#181818;stroke-width:0.5;" x1="1476.27" x2="1670.0249" y1="639.5811" y2="639.5811"/><ellipse cx="1486.27" cy="653.3252" fill="none" rx="3" ry="3" style="stroke:#038048;stroke-width:1;"/><text fill="#000000" font-family="sans-serif" font-size="14" lengthAdjust="spacing" textLength="115.4521" x="1495.27" y="657.1163">kodeverdi: string</text><ellipse cx="1486.27" cy="669.8135" fill="none" rx="3" ry="3" style="stroke:#038048;stroke-width:1;"/><text fill="#000000" font-family="sans-serif" font-size="14" lengthAdjust="spacing" textLength="157.5547" x="1495.27" y="673.6045">kodebeskrivelse: string</text><line style="stroke:#181818;stroke-width:0.5;" x1="1476.27" x2="1670.0249" y1="680.5577" y2="680.5577"/></g><!--class Vertikalnivaa--><g class="entity" data-entity="Vertikalnivaa" data-source-line="49" data-uid="ent0026" id="entity_Vertikalnivaa"><rect fill="#F1F1F1" height="89.5977" rx="2.5" ry="2.5" style="stroke:#181818;stroke-width:0.5;" width="183.5547" x="1706.38" y="598.96"/><ellipse cx="1750.2631" cy="619.2705" fill="#ADD1B2" rx="11" ry="11" style="stroke:#181818;stroke-width:1;"/><path d="M1752.7362,625.4136 Q1752.1551,625.7124 1751.516,625.8619 Q1750.8768,626.0113 1750.1713,626.0113 Q1747.6644,626.0113 1746.3446,624.3594 Q1745.0248,622.7076 1745.0248,619.5865 Q1745.0248,616.4571 1746.3446,614.8052 Q1747.6644,613.1534 1750.1713,613.1534 Q1750.8768,613.1534 1751.5243,613.3028 Q1752.1717,613.4522 1752.7362,613.751 L1752.7362,616.4737 Q1752.1053,615.8926 1751.5118,615.6228 Q1750.9183,615.3531 1750.2875,615.3531 Q1748.9427,615.3531 1748.2579,616.4197 Q1747.5731,617.4864 1747.5731,619.5865 Q1747.5731,621.6783 1748.2579,622.7449 Q1748.9427,623.8116 1750.2875,623.8116 Q1750.9183,623.8116 1751.5118,623.5418 Q1752.1053,623.272 1752.7362,622.691 Z " fill="#000000"/><text fill="#000000" font-family="sans-serif" font-size="12" font-style="italic" lengthAdjust="spacing" textLength="42.0176" x="1793.3578" y="615.5616">&#171;Kode&#187;</text><text fill="#000000" font-family="sans-serif" font-size="14" lengthAdjust="spacing" textLength="87.3701" x="1770.6815" y="631.628">Vertikalnivaa</text><line style="stroke:#181818;stroke-width:0.5;" x1="1707.38" x2="1888.9347" y1="639.5811" y2="639.5811"/><ellipse cx="1717.38" cy="653.3252" fill="none" rx="3" ry="3" style="stroke:#038048;stroke-width:1;"/><text fill="#000000" font-family="sans-serif" font-size="14" lengthAdjust="spacing" textLength="115.4521" x="1726.38" y="657.1163">kodeverdi: string</text><ellipse cx="1717.38" cy="669.8135" fill="none" rx="3" ry="3" style="stroke:#038048;stroke-width:1;"/><text fill="#000000" font-family="sans-serif" font-size="14" lengthAdjust="spacing" textLength="157.5547" x="1726.38" y="673.6045">kodebeskrivelse: string</text><line style="stroke:#181818;stroke-width:0.5;" x1="1707.38" x2="1888.9347" y1="680.5577" y2="680.5577"/></g><!--link NasjonalArealplanId to AdministrativEnhet--><g class="link" data-entity-1="NasjonalArealplanId" data-entity-2="AdministrativEnhet" data-source-line="6" data-uid="lnk4" id="link_NasjonalArealplanId_AdministrativEnhet"><path codeLine="6" d="M152.15,684.31 C152.15,711.55 152.15,747.92 152.15,776.85" fill="none" id="NasjonalArealplanId-AdministrativEnhet" style="stroke:#181818;stroke-width:1;"/></g><!--link Posisjon to Koordinatsystem--><g class="link" data-entity-1="Posisjon" data-entity-2="Koordinatsystem" data-source-line="7" data-uid="lnk7" id="link_Posisjon_Koordinatsystem"><path codeLine="7" d="M456.25,692.58 C452.3,720 447.36,754.18 443.5,780.94" fill="none" id="Posisjon-Koordinatsystem" style="stroke:#181818;stroke-width:1;"/></g><!--link Posisjon to PosisjonType--><g class="link" data-entity-1="Posisjon" data-entity-2="PosisjonType" data-source-line="8" data-uid="lnk9" id="link_Posisjon_PosisjonType"><path codeLine="8" d="M505.87,692.58 C534.38,724.48 571.06,765.54 595.96,793.41" fill="none" id="Posisjon-PosisjonType" style="stroke:#181818;stroke-width:1;"/></g><!--link Dokument to Dokumenttype--><g class="link" data-entity-1="Dokument" data-entity-2="Dokumenttype" data-source-line="10" data-uid="lnk13" id="link_Dokument_Dokumenttype"><path codeLine="10" d="M977.61,717.53 C954.82,738.93 930.58,761.67 910.31,780.7" fill="none" id="Dokument-Dokumenttype" style="stroke:#181818;stroke-width:1;"/></g><!--link Dokument to ReferanseDokumentfil--><g class="link" data-entity-1="Dokument" data-entity-2="ReferanseDokumentfil" data-source-line="11" data-uid="lnk15" id="link_Dokument_ReferanseDokumentfil"><path codeLine="11" d="M1065.65,717.53 C1068.98,740.59 1072.53,765.21 1075.4,785.06" fill="none" id="Dokument-ReferanseDokumentfil" style="stroke:#181818;stroke-width:1;"/></g><!--link Dispensasjon to DispensasjonType--><g class="link" data-entity-1="Dispensasjon" data-entity-2="DispensasjonType" data-source-line="47" data-uid="lnk23" id="link_Dispensasjon_DispensasjonType"><path codeLine="47" d="M1213.23,510.43 C1246.21,542.77 1278.39,574.34 1303.06,598.53" fill="none" id="Dispensasjon-DispensasjonType" style="stroke:#181818;stroke-width:1;"/></g><!--link Dispensasjon to DispensasjonFraLovverk--><g class="link" data-entity-1="Dispensasjon" data-entity-2="DispensasjonFraLovverk" data-source-line="48" data-uid="lnk25" id="link_Dispensasjon_DispensasjonFraLovverk"><path codeLine="48" d="M1235.93,448.71 C1305.64,485.56 1385.66,528.92 1457.15,570.3 C1472.46,579.16 1488.69,589 1504,598.5" fill="none" id="Dispensasjon-DispensasjonFraLovverk" style="stroke:#181818;stroke-width:1;"/></g><!--link Dispensasjon to Vertikalnivaa--><g class="link" data-entity-1="Dispensasjon" data-entity-2="Vertikalnivaa" data-source-line="49" data-uid="lnk27" id="link_Dispensasjon_Vertikalnivaa"><path codeLine="49" d="M1235.99,403.4 C1365.31,440.91 1541.68,498.65 1688.15,570.3 C1704.59,578.33 1721.49,588.42 1736.97,598.5" fill="none" id="Dispensasjon-Vertikalnivaa" style="stroke:#181818;stroke-width:1;"/></g><!--link Dispensasjon to NasjonalArealplanId--><g class="link" data-entity-1="Dispensasjon" data-entity-2="NasjonalArealplanId" data-source-line="50" data-uid="lnk28" id="link_Dispensasjon_NasjonalArealplanId"><path codeLine="50" d="M874.33,502.63 C868.64,505.38 862.91,507.95 857.15,510.3 C632.3,601.93 548.46,506.63 314.15,570.3 C285.16,578.17 254.76,590.56 228.22,602.88" fill="none" id="Dispensasjon-NasjonalArealplanId" style="stroke:#181818;stroke-width:1;"/></g><!--link Dispensasjon to Posisjon--><g class="link" data-entity-1="Dispensasjon" data-entity-2="Posisjon" data-source-line="51" data-uid="lnk29" id="link_Dispensasjon_Posisjon"><path codeLine="51" d="M874.48,501.33 C868.73,504.49 862.94,507.49 857.15,510.3 C755.89,559.4 716.97,531.99 611.15,570.3 C592.19,577.16 572.44,585.74 553.79,594.57" fill="none" id="Dispensasjon-Posisjon" style="stroke:#181818;stroke-width:1;"/></g><!--link Dispensasjon to Saksnummer--><g class="link" data-entity-1="Dispensasjon" data-entity-2="Saksnummer" data-source-line="52" data-uid="lnk30" id="link_Dispensasjon_Saksnummer"><path codeLine="52" d="M885.74,510.43 C848.23,544.76 811.67,578.22 784.7,602.91" fill="none" id="Dispensasjon-Saksnummer" style="stroke:#181818;stroke-width:1;"/></g><!--link Dispensasjon to Dokument--><g class="link" data-entity-1="Dispensasjon" data-entity-2="Dokument" data-source-line="53" data-uid="lnk31" id="link_Dispensasjon_Dokument"><path codeLine="53" d="M1055.15,510.43 C1055.15,531.24 1055.15,551.73 1055.15,570.14" fill="none" id="Dispensasjon-Dokument" style="stroke:#181818;stroke-width:1;"/></g><!--SRC=[hLNDRjGm4BxlKqnlhQ0EHGMagAq4gYeg45Ique8uUEj9rerZHxOJQOKgzJKuSEH9U9C-2UFyRPADgbQmX-vqvlCt_xCxKb-hKY2mYB586vOvbaZwKoYkMVMI9QWKEgQvkp6QAswHgs2J8fhHiQ9Sx3oIiZ1E1eAe4vxosF7CwJBFqKORyIa4mcHbZjf7dH0UBwuLTmvEfIjGkpez-B40-ZoJWZ2Ic6fj3CvRgTF69WPuloum7Z44pJRkpFAFfghGPcFqHZ_xPkouwy3RhWFd8ePFsye6lSJKbbgZSZYcgL1uAgBWtiG0zDN6spKcXejMwl3MKo6KbXMdYBuE_-rSkSpAQjkLrBgIAaK_p3c6fJ4AUKk_QMWCbxtSkkPMfW-yhUqhz7MfDfbqwYkfXkfGdQx_mTjfAt_xlhXTBBJn20eJ3oOPzIYEnLn_fqf02wl0x26n72x8cSLKEdB5wWUdIDs0p0XKGQl3WtIjX4mXApNeFxyjv5ntn6Z97fZwXQjPpk7oy-Kv7B9Nv8suGTIqmsWMg0NKwJmwgyqSmZWvFXbUDyfWI46XgWRLfFkvA6WGQFuelq5TyDqwJP6Qpk0ic1t8B4EGVLfzz6tmtXJJsBVg7_fVAzzl7FLbsWr8GkmraFkxNws2970qoR3YG74BIRMqpkGZQieolK4bsf6yl_jPRzhIbXbL8izBZRjKZxtGeEE3mnS4UDuXls1QAWphuA8bBaFYj2AkWRuEK0ZdgMUcwDrQEqTUZm_U1FjSff3Ha8JIhGo51HHWwIiwM1u6UmYKnghY4DHXIBgPgclJ19Wmf4C9rBI2MvvQde1n5HlKVtGPz_T7FRWAU_0GO73Qfh3n2PbQvoxQ5DDVgAbXS46sWclNVUxkXspWwEW3ZVR9IVSZ40QzdelnKGlgkOjtEqSyMAp_HJ-gth-p_WK0]--></g></svg>