<svg xmlns="http://www.w3.org/2000/svg" xmlns:xlink="http://www.w3.org/1999/xlink" contentStyleType="text/css" height="851px" preserveAspectRatio="none" style="width:1906px;height:851px;background:#FFFFFF;" version="1.1" viewBox="0 0 1906 851" width="1906px" zoomAndPan="magnify"><defs/><g><!--class NasjonalArealplanId--><g id="elem_NasjonalArealplanId"><rect codeLine="1" fill="#F1F1F1" height="80.9766" id="NasjonalArealplanId" rx="2.5" ry="2.5" style="stroke:#181818;stroke-width:0.5;" width="292" x="7" y="572.65"/><ellipse cx="79.75" cy="588.65" fill="#ADD1B2" rx="11" ry="11" style="stroke:#181818;stroke-width:1.0;"/><path d="M82.2231,594.7931 Q81.6421,595.0919 81.0029,595.2413 Q80.3638,595.3907 79.6582,595.3907 Q77.1514,595.3907 75.8315,593.7389 Q74.5117,592.087 74.5117,588.9659 Q74.5117,585.8365 75.8315,584.1847 Q77.1514,582.5328 79.6582,582.5328 Q80.3638,582.5328 81.0112,582.6822 Q81.6587,582.8316 82.2231,583.1305 L82.2231,585.8531 Q81.5923,585.2721 80.9988,585.0023 Q80.4053,584.7325 79.7744,584.7325 Q78.4297,584.7325 77.7449,585.7992 Q77.0601,586.8658 77.0601,588.9659 Q77.0601,591.0577 77.7449,592.1244 Q78.4297,593.191 79.7744,593.191 Q80.4053,593.191 80.9988,592.9212 Q81.5923,592.6515 82.2231,592.0704 Z " fill="#000000"/><text fill="#000000" font-family="sans-serif" font-size="14" lengthAdjust="spacing" textLength="138" x="100.25" y="593.941">NasjonalArealplanId</text><line style="stroke:#181818;stroke-width:0.5;" x1="8" x2="298" y1="604.65" y2="604.65"/><ellipse cx="18" cy="618.3941" fill="none" rx="3" ry="3" style="stroke:#038048;stroke-width:1.0;"/><text fill="#000000" font-family="sans-serif" font-size="14" lengthAdjust="spacing" textLength="266" x="27" y="622.1852">administrativEnhet: AdministrativEnhet</text><ellipse cx="18" cy="634.8824" fill="none" rx="3" ry="3" style="stroke:#038048;stroke-width:1.0;"/><text fill="#000000" font-family="sans-serif" font-size="14" lengthAdjust="spacing" textLength="171" x="27" y="638.6734">planidentifikasjon: string</text><line style="stroke:#181818;stroke-width:0.5;" x1="8" x2="298" y1="645.6266" y2="645.6266"/></g><!--class AdministrativEnhet--><g id="elem_AdministrativEnhet"><rect codeLine="8" fill="#F1F1F1" height="97.4648" id="AdministrativEnhet" rx="2.5" ry="2.5" style="stroke:#181818;stroke-width:0.5;" width="162" x="72" y="746.61"/><ellipse cx="87" cy="762.61" fill="#EB937F" rx="11" ry="11" style="stroke:#181818;stroke-width:1.0;"/><path d="M90.6143,769.11 L82.8945,769.11 L82.8945,756.7169 L90.6143,756.7169 L90.6143,758.8751 L85.3433,758.8751 L85.3433,761.548 L90.1162,761.548 L90.1162,763.7062 L85.3433,763.7062 L85.3433,766.9518 L90.6143,766.9518 Z " fill="#000000"/><text fill="#000000" font-family="sans-serif" font-size="14" lengthAdjust="spacing" textLength="130" x="101" y="767.901">AdministrativEnhet</text><line style="stroke:#181818;stroke-width:0.5;" x1="73" x2="233" y1="778.61" y2="778.61"/><text fill="#000000" font-family="sans-serif" font-size="14" lengthAdjust="spacing" textLength="127" x="78" y="796.1452">kommunenummer</text><text fill="#000000" font-family="sans-serif" font-size="14" lengthAdjust="spacing" textLength="97" x="78" y="812.6334">fylkesnummer</text><text fill="#000000" font-family="sans-serif" font-size="14" lengthAdjust="spacing" textLength="71" x="78" y="829.1217">landskode</text><line style="stroke:#181818;stroke-width:0.5;" x1="73" x2="233" y1="836.0748" y2="836.0748"/></g><!--class Posisjon--><g id="elem_Posisjon"><rect codeLine="1" fill="#F1F1F1" height="97.4648" id="Posisjon" rx="2.5" ry="2.5" style="stroke:#181818;stroke-width:0.5;" width="263" x="334.5" y="564.41"/><ellipse cx="433.25" cy="580.41" fill="#ADD1B2" rx="11" ry="11" style="stroke:#181818;stroke-width:1.0;"/><path d="M435.7231,586.5531 Q435.1421,586.8519 434.5029,587.0013 Q433.8638,587.1507 433.1582,587.1507 Q430.6514,587.1507 429.3315,585.4989 Q428.0117,583.847 428.0117,580.7259 Q428.0117,577.5965 429.3315,575.9447 Q430.6514,574.2928 433.1582,574.2928 Q433.8638,574.2928 434.5112,574.4422 Q435.1587,574.5916 435.7231,574.8905 L435.7231,577.6131 Q435.0923,577.0321 434.4988,576.7623 Q433.9053,576.4925 433.2744,576.4925 Q431.9297,576.4925 431.2449,577.5592 Q430.5601,578.6258 430.5601,580.7259 Q430.5601,582.8177 431.2449,583.8844 Q431.9297,584.951 433.2744,584.951 Q433.9053,584.951 434.4988,584.6812 Q435.0923,584.4115 435.7231,583.8304 Z " fill="#000000"/><text fill="#000000" font-family="sans-serif" font-size="14" lengthAdjust="spacing" textLength="57" x="453.75" y="585.701">Posisjon</text><line style="stroke:#181818;stroke-width:0.5;" x1="335.5" x2="596.5" y1="596.41" y2="596.41"/><ellipse cx="345.5" cy="610.1541" fill="none" rx="3" ry="3" style="stroke:#038048;stroke-width:1.0;"/><text fill="#000000" font-family="sans-serif" font-size="14" lengthAdjust="spacing" textLength="127" x="354.5" y="613.9452">type: PosisjonType</text><ellipse cx="345.5" cy="626.6424" fill="none" rx="3" ry="3" style="stroke:#038048;stroke-width:1.0;"/><text fill="#000000" font-family="sans-serif" font-size="14" lengthAdjust="spacing" textLength="153" x="354.5" y="630.4334">koordinater: number[]</text><ellipse cx="345.5" cy="643.1307" fill="none" rx="3" ry="3" style="stroke:#038048;stroke-width:1.0;"/><text fill="#000000" font-family="sans-serif" font-size="14" lengthAdjust="spacing" textLength="237" x="354.5" y="646.9217">koordinatsystem: Koordinatsystem</text><line style="stroke:#181818;stroke-width:0.5;" x1="335.5" x2="596.5" y1="653.8748" y2="653.8748"/></g><!--class Koordinatsystem--><g id="elem_Koordinatsystem"><rect codeLine="10" fill="#F1F1F1" height="89.5977" id="Koordinatsystem" rx="2.5" ry="2.5" style="stroke:#181818;stroke-width:0.5;" width="184" x="347" y="750.54"/><ellipse cx="378.65" cy="770.8505" fill="#ADD1B2" rx="11" ry="11" style="stroke:#181818;stroke-width:1.0;"/><path d="M381.1231,776.9936 Q380.5421,777.2924 379.9029,777.4419 Q379.2638,777.5913 378.5582,777.5913 Q376.0514,777.5913 374.7315,775.9394 Q373.4117,774.2876 373.4117,771.1665 Q373.4117,768.0371 374.7315,766.3852 Q376.0514,764.7334 378.5582,764.7334 Q379.2638,764.7334 379.9112,764.8828 Q380.5587,765.0322 381.1231,765.331 L381.1231,768.0537 Q380.4923,767.4726 379.8988,767.2028 Q379.3053,766.9331 378.6744,766.9331 Q377.3297,766.9331 376.6449,767.9997 Q375.9601,769.0664 375.9601,771.1665 Q375.9601,773.2583 376.6449,774.3249 Q377.3297,775.3916 378.6744,775.3916 Q379.3053,775.3916 379.8988,775.1218 Q380.4923,774.852 381.1231,774.271 Z " fill="#000000"/><text fill="#000000" font-family="sans-serif" font-size="12" font-style="italic" lengthAdjust="spacing" textLength="42" x="432.85" y="767.1416">&#171;Kode&#187;</text><text fill="#000000" font-family="sans-serif" font-size="14" lengthAdjust="spacing" textLength="115" x="396.35" y="783.208">Koordinatsystem</text><line style="stroke:#181818;stroke-width:0.5;" x1="348" x2="530" y1="791.1611" y2="791.1611"/><ellipse cx="358" cy="804.9052" fill="none" rx="3" ry="3" style="stroke:#038048;stroke-width:1.0;"/><text fill="#000000" font-family="sans-serif" font-size="14" lengthAdjust="spacing" textLength="116" x="367" y="808.6963">kodeverdi: string</text><ellipse cx="358" cy="821.3935" fill="none" rx="3" ry="3" style="stroke:#038048;stroke-width:1.0;"/><text fill="#000000" font-family="sans-serif" font-size="14" lengthAdjust="spacing" textLength="158" x="367" y="825.1845">kodebeskrivelse: string</text><line style="stroke:#181818;stroke-width:0.5;" x1="348" x2="530" y1="832.1377" y2="832.1377"/></g><!--class PosisjonType--><g id="elem_PosisjonType"><rect codeLine="15" fill="#F1F1F1" height="64.4883" id="PosisjonType" rx="2.5" ry="2.5" style="stroke:#181818;stroke-width:0.5;" width="122" x="566" y="763.09"/><ellipse cx="581" cy="779.09" fill="#EB937F" rx="11" ry="11" style="stroke:#181818;stroke-width:1.0;"/><path d="M584.6143,785.59 L576.8945,785.59 L576.8945,773.1969 L584.6143,773.1969 L584.6143,775.3551 L579.3433,775.3551 L579.3433,778.028 L584.1162,778.028 L584.1162,780.1862 L579.3433,780.1862 L579.3433,783.4318 L584.6143,783.4318 Z " fill="#000000"/><text fill="#000000" font-family="sans-serif" font-size="14" lengthAdjust="spacing" textLength="90" x="595" y="784.381">PosisjonType</text><line style="stroke:#181818;stroke-width:0.5;" x1="567" x2="687" y1="795.09" y2="795.09"/><text fill="#000000" font-family="sans-serif" font-size="14" lengthAdjust="spacing" textLength="35" x="572" y="812.6252">Point</text><line style="stroke:#181818;stroke-width:0.5;" x1="567" x2="687" y1="819.5783" y2="819.5783"/></g><!--class Saksnummer--><g id="elem_Saksnummer"><rect codeLine="2" fill="#F1F1F1" height="80.9766" id="Saksnummer" rx="2.5" ry="2.5" style="stroke:#181818;stroke-width:0.5;" width="225" x="632.5" y="572.65"/><ellipse cx="696.25" cy="588.65" fill="#ADD1B2" rx="11" ry="11" style="stroke:#181818;stroke-width:1.0;"/><path d="M698.7231,594.7931 Q698.1421,595.0919 697.5029,595.2413 Q696.8638,595.3907 696.1582,595.3907 Q693.6514,595.3907 692.3315,593.7389 Q691.0117,592.087 691.0117,588.9659 Q691.0117,585.8365 692.3315,584.1847 Q693.6514,582.5328 696.1582,582.5328 Q696.8638,582.5328 697.5112,582.6822 Q698.1587,582.8316 698.7231,583.1305 L698.7231,585.8531 Q698.0923,585.2721 697.4988,585.0023 Q696.9053,584.7325 696.2744,584.7325 Q694.9297,584.7325 694.2449,585.7992 Q693.5601,586.8658 693.5601,588.9659 Q693.5601,591.0577 694.2449,592.1244 Q694.9297,593.191 696.2744,593.191 Q696.9053,593.191 697.4988,592.9212 Q698.0923,592.6515 698.7231,592.0704 Z " fill="#000000"/><text fill="#000000" font-family="sans-serif" font-size="14" lengthAdjust="spacing" textLength="89" x="716.75" y="593.941">Saksnummer</text><line style="stroke:#181818;stroke-width:0.5;" x1="633.5" x2="856.5" y1="604.65" y2="604.65"/><ellipse cx="643.5" cy="618.3941" fill="none" rx="3" ry="3" style="stroke:#038048;stroke-width:1.0;"/><text fill="#000000" font-family="sans-serif" font-size="14" lengthAdjust="spacing" textLength="109" x="652.5" y="622.1852">saksaar: integer</text><ellipse cx="643.5" cy="634.8824" fill="none" rx="3" ry="3" style="stroke:#038048;stroke-width:1.0;"/><text fill="#000000" font-family="sans-serif" font-size="14" lengthAdjust="spacing" textLength="199" x="652.5" y="638.6734">sakssekvensnummer: integer</text><line style="stroke:#181818;stroke-width:0.5;" x1="633.5" x2="856.5" y1="645.6266" y2="645.6266"/></g><!--class Dokument--><g id="elem_Dokument"><rect codeLine="1" fill="#F1F1F1" height="146.9297" id="Dokument" rx="2.5" ry="2.5" style="stroke:#181818;stroke-width:0.5;" width="335" x="892.5" y="539.68"/><ellipse cx="1020.25" cy="555.68" fill="#ADD1B2" rx="11" ry="11" style="stroke:#181818;stroke-width:1.0;"/><path d="M1022.7231,561.8231 Q1022.1421,562.1219 1021.5029,562.2713 Q1020.8638,562.4207 1020.1582,562.4207 Q1017.6514,562.4207 1016.3315,560.7689 Q1015.0117,559.117 1015.0117,555.9959 Q1015.0117,552.8665 1016.3315,551.2147 Q1017.6514,549.5628 1020.1582,549.5628 Q1020.8638,549.5628 1021.5112,549.7122 Q1022.1587,549.8616 1022.7231,550.1605 L1022.7231,552.8831 Q1022.0923,552.3021 1021.4988,552.0323 Q1020.9053,551.7625 1020.2744,551.7625 Q1018.9297,551.7625 1018.2449,552.8292 Q1017.5601,553.8958 1017.5601,555.9959 Q1017.5601,558.0877 1018.2449,559.1544 Q1018.9297,560.221 1020.2744,560.221 Q1020.9053,560.221 1021.4988,559.9512 Q1022.0923,559.6815 1022.7231,559.1004 Z " fill="#000000"/><text fill="#000000" font-family="sans-serif" font-size="14" lengthAdjust="spacing" textLength="71" x="1040.75" y="560.971">Dokument</text><line style="stroke:#181818;stroke-width:0.5;" x1="893.5" x2="1226.5" y1="571.68" y2="571.68"/><ellipse cx="903.5" cy="585.4241" fill="none" rx="3" ry="3" style="stroke:#038048;stroke-width:1.0;"/><text fill="#000000" font-family="sans-serif" font-size="14" lengthAdjust="spacing" textLength="79" x="912.5" y="589.2152">tittel: string</text><ellipse cx="903.5" cy="601.9124" fill="none" rx="3" ry="3" style="stroke:#038048;stroke-width:1.0;"/><text fill="#000000" font-family="sans-serif" font-size="14" lengthAdjust="spacing" textLength="207" x="912.5" y="605.7034">dokumenttype: Dokumenttype</text><ellipse cx="903.5" cy="618.4007" fill="none" rx="3" ry="3" style="stroke:#038048;stroke-width:1.0;"/><text fill="#000000" font-family="sans-serif" font-size="14" lengthAdjust="spacing" textLength="309" x="912.5" y="622.1917">referanseDokumentfil: ReferanseDokumentfil</text><ellipse cx="903.5" cy="634.889" fill="none" rx="3" ry="3" style="stroke:#038048;stroke-width:1.0;"/><text fill="#000000" font-family="sans-serif" font-size="14" lengthAdjust="spacing" textLength="115" x="912.5" y="638.68">mimetype: string</text><ellipse cx="903.5" cy="651.3773" fill="none" rx="3" ry="3" style="stroke:#038048;stroke-width:1.0;"/><text fill="#000000" font-family="sans-serif" font-size="14" lengthAdjust="spacing" textLength="146" x="912.5" y="655.1683">dokumentsdato: date</text><ellipse cx="903.5" cy="667.8655" fill="none" rx="3" ry="3" style="stroke:#038048;stroke-width:1.0;"/><text fill="#000000" font-family="sans-serif" font-size="14" lengthAdjust="spacing" textLength="114" x="912.5" y="671.6566">arkivnavn: string</text><line style="stroke:#181818;stroke-width:0.5;" x1="893.5" x2="1226.5" y1="678.6097" y2="678.6097"/></g><!--class Dokumenttype--><g id="elem_Dokumenttype"><rect codeLine="13" fill="#F1F1F1" height="89.5977" id="Dokumenttype" rx="2.5" ry="2.5" style="stroke:#181818;stroke-width:0.5;" width="184" x="775" y="750.54"/><ellipse cx="813.4" cy="770.8505" fill="#ADD1B2" rx="11" ry="11" style="stroke:#181818;stroke-width:1.0;"/><path d="M815.8731,776.9936 Q815.2921,777.2924 814.6529,777.4419 Q814.0138,777.5913 813.3082,777.5913 Q810.8014,777.5913 809.4815,775.9394 Q808.1617,774.2876 808.1617,771.1665 Q808.1617,768.0371 809.4815,766.3852 Q810.8014,764.7334 813.3082,764.7334 Q814.0138,764.7334 814.6612,764.8828 Q815.3087,765.0322 815.8731,765.331 L815.8731,768.0537 Q815.2423,767.4726 814.6488,767.2028 Q814.0553,766.9331 813.4244,766.9331 Q812.0797,766.9331 811.3949,767.9997 Q810.7101,769.0664 810.7101,771.1665 Q810.7101,773.2583 811.3949,774.3249 Q812.0797,775.3916 813.4244,775.3916 Q814.0553,775.3916 814.6488,775.1218 Q815.2423,774.852 815.8731,774.271 Z " fill="#000000"/><text fill="#000000" font-family="sans-serif" font-size="12" font-style="italic" lengthAdjust="spacing" textLength="42" x="861.6" y="767.1416">&#171;Kode&#187;</text><text fill="#000000" font-family="sans-serif" font-size="14" lengthAdjust="spacing" textLength="100" x="832.6" y="783.208">Dokumenttype</text><line style="stroke:#181818;stroke-width:0.5;" x1="776" x2="958" y1="791.1611" y2="791.1611"/><ellipse cx="786" cy="804.9052" fill="none" rx="3" ry="3" style="stroke:#038048;stroke-width:1.0;"/><text fill="#000000" font-family="sans-serif" font-size="14" lengthAdjust="spacing" textLength="116" x="795" y="808.6963">kodeverdi: string</text><ellipse cx="786" cy="821.3935" fill="none" rx="3" ry="3" style="stroke:#038048;stroke-width:1.0;"/><text fill="#000000" font-family="sans-serif" font-size="14" lengthAdjust="spacing" textLength="158" x="795" y="825.1845">kodebeskrivelse: string</text><line style="stroke:#181818;stroke-width:0.5;" x1="776" x2="958" y1="832.1377" y2="832.1377"/></g><!--class ReferanseDokumentfil--><g id="elem_ReferanseDokumentfil"><rect codeLine="18" fill="#F1F1F1" height="80.9766" id="ReferanseDokumentfil" rx="2.5" ry="2.5" style="stroke:#181818;stroke-width:0.5;" width="184" x="994" y="754.85"/><ellipse cx="1009" cy="770.85" fill="#ADD1B2" rx="11" ry="11" style="stroke:#181818;stroke-width:1.0;"/><path d="M1011.4731,776.9931 Q1010.8921,777.2919 1010.2529,777.4413 Q1009.6138,777.5907 1008.9082,777.5907 Q1006.4014,777.5907 1005.0815,775.9389 Q1003.7617,774.287 1003.7617,771.1659 Q1003.7617,768.0365 1005.0815,766.3847 Q1006.4014,764.7328 1008.9082,764.7328 Q1009.6138,764.7328 1010.2612,764.8822 Q1010.9087,765.0316 1011.4731,765.3305 L1011.4731,768.0531 Q1010.8423,767.4721 1010.2488,767.2023 Q1009.6553,766.9325 1009.0244,766.9325 Q1007.6797,766.9325 1006.9949,767.9992 Q1006.3101,769.0658 1006.3101,771.1659 Q1006.3101,773.2577 1006.9949,774.3244 Q1007.6797,775.391 1009.0244,775.391 Q1009.6553,775.391 1010.2488,775.1212 Q1010.8423,774.8515 1011.4731,774.2704 Z " fill="#000000"/><text fill="#000000" font-family="sans-serif" font-size="14" lengthAdjust="spacing" textLength="152" x="1023" y="776.141">ReferanseDokumentfil</text><line style="stroke:#181818;stroke-width:0.5;" x1="995" x2="1177" y1="786.85" y2="786.85"/><ellipse cx="1005" cy="800.5941" fill="none" rx="3" ry="3" style="stroke:#038048;stroke-width:1.0;"/><text fill="#000000" font-family="sans-serif" font-size="14" lengthAdjust="spacing" textLength="61" x="1014" y="804.3852">id: string</text><ellipse cx="1005" cy="817.0824" fill="none" rx="3" ry="3" style="stroke:#038048;stroke-width:1.0;"/><text fill="#000000" font-family="sans-serif" font-size="14" lengthAdjust="spacing" textLength="67" x="1014" y="820.8734">url: string</text><line style="stroke:#181818;stroke-width:0.5;" x1="995" x2="1177" y1="827.8266" y2="827.8266"/></g><!--class Dispensasjon--><g id="elem_Dispensasjon"><rect codeLine="6" fill="#F1F1F1" height="311.8125" id="Dispensasjon" rx="2.5" ry="2.5" style="stroke:#181818;stroke-width:0.5;" width="363" x="878.5" y="167.86"/><ellipse cx="1010.25" cy="183.86" fill="#ADD1B2" rx="11" ry="11" style="stroke:#181818;stroke-width:1.0;"/><path d="M1012.7231,190.0031 Q1012.1421,190.3019 1011.5029,190.4513 Q1010.8638,190.6007 1010.1582,190.6007 Q1007.6514,190.6007 1006.3315,188.9489 Q1005.0117,187.297 1005.0117,184.1759 Q1005.0117,181.0465 1006.3315,179.3947 Q1007.6514,177.7428 1010.1582,177.7428 Q1010.8638,177.7428 1011.5112,177.8922 Q1012.1587,178.0416 1012.7231,178.3405 L1012.7231,181.0631 Q1012.0923,180.4821 1011.4988,180.2123 Q1010.9053,179.9425 1010.2744,179.9425 Q1008.9297,179.9425 1008.2449,181.0092 Q1007.5601,182.0758 1007.5601,184.1759 Q1007.5601,186.2677 1008.2449,187.3344 Q1008.9297,188.401 1010.2744,188.401 Q1010.9053,188.401 1011.4988,188.1312 Q1012.0923,187.8615 1012.7231,187.2804 Z " fill="#000000"/><text fill="#000000" font-family="sans-serif" font-size="14" lengthAdjust="spacing" textLength="91" x="1030.75" y="189.151">Dispensasjon</text><line style="stroke:#181818;stroke-width:0.5;" x1="879.5" x2="1240.5" y1="199.86" y2="199.86"/><ellipse cx="889.5" cy="213.6041" fill="none" rx="3" ry="3" style="stroke:#038048;stroke-width:1.0;"/><text fill="#000000" font-family="sans-serif" font-size="14" lengthAdjust="spacing" textLength="141" x="898.5" y="217.3952">identifikasjon: string</text><ellipse cx="889.5" cy="230.0924" fill="none" rx="3" ry="3" style="stroke:#038048;stroke-width:1.0;"/><text fill="#000000" font-family="sans-serif" font-size="14" lengthAdjust="spacing" textLength="247" x="898.5" y="233.8834">dispensasjontype: Dispensasjontype</text><ellipse cx="889.5" cy="246.5807" fill="none" rx="3" ry="3" style="stroke:#038048;stroke-width:1.0;"/><text fill="#000000" font-family="sans-serif" font-size="14" lengthAdjust="spacing" textLength="337" x="898.5" y="250.3717">dispensasjonFraLovverk: DispensasjonFraLovverk</text><ellipse cx="889.5" cy="263.069" fill="none" rx="3" ry="3" style="stroke:#038048;stroke-width:1.0;"/><text fill="#000000" font-family="sans-serif" font-size="14" lengthAdjust="spacing" textLength="160" x="898.5" y="266.86">dispensasjonFra: string</text><ellipse cx="889.5" cy="279.5573" fill="none" rx="3" ry="3" style="stroke:#038048;stroke-width:1.0;"/><text fill="#000000" font-family="sans-serif" font-size="14" lengthAdjust="spacing" textLength="283" x="898.5" y="283.3483">nasjonalArealplanId: NasjonalArealplanId</text><ellipse cx="889.5" cy="296.0455" fill="none" rx="3" ry="3" style="stroke:#038048;stroke-width:1.0;"/><text fill="#000000" font-family="sans-serif" font-size="14" lengthAdjust="spacing" textLength="134" x="898.5" y="299.8366">begrunnelse: string</text><ellipse cx="889.5" cy="312.5338" fill="none" rx="3" ry="3" style="stroke:#038048;stroke-width:1.0;"/><text fill="#000000" font-family="sans-serif" font-size="14" lengthAdjust="spacing" textLength="125" x="898.5" y="316.3248">vedtaksdato:  date</text><ellipse cx="889.5" cy="329.0221" fill="none" rx="3" ry="3" style="stroke:#038048;stroke-width:1.0;"/><text fill="#000000" font-family="sans-serif" font-size="14" lengthAdjust="spacing" textLength="123" x="898.5" y="332.8131">posisjon: Posisjon</text><ellipse cx="889.5" cy="345.5104" fill="none" rx="3" ry="3" style="stroke:#038048;stroke-width:1.0;"/><text fill="#000000" font-family="sans-serif" font-size="14" lengthAdjust="spacing" textLength="182" x="898.5" y="349.3014">vertikalnivaa: Vertikalnivaa</text><ellipse cx="889.5" cy="361.9987" fill="none" rx="3" ry="3" style="stroke:#038048;stroke-width:1.0;"/><text fill="#000000" font-family="sans-serif" font-size="14" lengthAdjust="spacing" textLength="124" x="898.5" y="365.7897">beskrivelse: string</text><ellipse cx="889.5" cy="378.487" fill="none" rx="3" ry="3" style="stroke:#038048;stroke-width:1.0;"/><text fill="#000000" font-family="sans-serif" font-size="14" lengthAdjust="spacing" textLength="214" x="898.5" y="382.278">innvilgetDispensasjon: boolean</text><ellipse cx="889.5" cy="394.9752" fill="none" rx="3" ry="3" style="stroke:#038048;stroke-width:1.0;"/><text fill="#000000" font-family="sans-serif" font-size="14" lengthAdjust="spacing" textLength="185" x="898.5" y="398.7663">saksnummer: Saksnummer</text><ellipse cx="889.5" cy="411.4635" fill="none" rx="3" ry="3" style="stroke:#038048;stroke-width:1.0;"/><text fill="#000000" font-family="sans-serif" font-size="14" lengthAdjust="spacing" textLength="189" x="898.5" y="415.2545">varigDispensasjon: boolean</text><ellipse cx="889.5" cy="427.9518" fill="none" rx="3" ry="3" style="stroke:#038048;stroke-width:1.0;"/><text fill="#000000" font-family="sans-serif" font-size="14" lengthAdjust="spacing" textLength="116" x="898.5" y="431.7428">varighetFra: date</text><ellipse cx="889.5" cy="444.4401" fill="none" rx="3" ry="3" style="stroke:#038048;stroke-width:1.0;"/><text fill="#000000" font-family="sans-serif" font-size="14" lengthAdjust="spacing" textLength="111" x="898.5" y="448.2311">varighetTil: date</text><ellipse cx="889.5" cy="460.9284" fill="none" rx="3" ry="3" style="stroke:#038048;stroke-width:1.0;"/><text fill="#000000" font-family="sans-serif" font-size="14" lengthAdjust="spacing" textLength="203" x="898.5" y="464.7194">plandokumenter: Dokument[]</text><line style="stroke:#181818;stroke-width:0.5;" x1="879.5" x2="1240.5" y1="471.6725" y2="471.6725"/></g><path d="M411,265.49 L411,321.4216 A0,0 0 0 0 411,321.4216 L843,321.4216 A0,0 0 0 0 843,321.4216 L843,297.4558 L882.5,228.5924 L843,289.4558 L843,275.49 L833,265.49 L411,265.49 A0,0 0 0 0 411,265.49 " fill="#FEFFDD" style="stroke:#181818;stroke-width:0.5;"/><path d="M833,265.49 L833,275.49 L843,275.49 L833,265.49 " fill="#FEFFDD" style="stroke:#181818;stroke-width:0.5;"/><text fill="#000000" font-family="sans-serif" font-size="13" lengthAdjust="spacing" textLength="273" x="417" y="283.0584">dispensasjontype er hentet fra Planregister.</text><text fill="#000000" font-family="sans-serif" font-size="13" lengthAdjust="spacing" textLength="411" x="417" y="298.3689">Denne kodelisten er gyldig kun n&#229;r man dispenserer fra arealplan</text><text fill="#000000" font-family="sans-serif" font-size="13" lengthAdjust="spacing" textLength="225" x="417" y="313.6795">I SOSI 4.5 heter denne dispensasjon</text><path d="M411,331.4216 L411,372.0427 A0,0 0 0 0 411,372.0427 L836,372.0427 A0,0 0 0 0 836,372.0427 L836,355.7322 L882.5,245.0807 L836,347.7322 L836,341.4216 L826,331.4216 L411,331.4216 A0,0 0 0 0 411,331.4216 " fill="#FEFFDD" style="stroke:#181818;stroke-width:0.5;"/><path d="M826,331.4216 L826,341.4216 L836,341.4216 L826,331.4216 " fill="#FEFFDD" style="stroke:#181818;stroke-width:0.5;"/><text fill="#000000" font-family="sans-serif" font-size="13" lengthAdjust="spacing" textLength="404" x="417" y="348.99">dispensasajonFraLovverk: se kodelisten dispensasjonfralovverk.</text><text fill="#000000" font-family="sans-serif" font-size="13" lengthAdjust="spacing" textLength="353" x="417" y="364.3005">Opprinnelig hentet fra eByggesak. Finnes ikke i SOSI 4.5</text><g id="elem_GMN19"><path d="M879.5,6 L879.5,107.8633 A0,0 0 0 0 879.5,107.8633 L1056,107.8633 L1060,167.62 L1064,107.8633 L1240.5,107.8633 A0,0 0 0 0 1240.5,107.8633 L1240.5,16 L1230.5,6 L879.5,6 A0,0 0 0 0 879.5,6 " fill="#FEFFDD" style="stroke:#181818;stroke-width:0.5;"/><path d="M1230.5,6 L1230.5,16 L1240.5,16 L1230.5,6 " fill="#FEFFDD" style="stroke:#181818;stroke-width:0.5;"/><text fill="#000000" font-family="sans-serif" font-size="13" lengthAdjust="spacing" textLength="106" x="885.5" y="23.5684">dispensasjonFra:</text><text fill="#000000" font-family="sans-serif" font-size="13" lengthAdjust="spacing" textLength="181" x="885.5" y="38.8789">Hentet fra SOSI 4.5 (dispFra):</text><text fill="#000000" font-family="sans-serif" font-size="13" lengthAdjust="spacing" textLength="340" x="885.5" y="54.1895">&#8221;dispFra&#8221; skal ha verdi dersom dispensasjonen gjelder</text><text fill="#000000" font-family="sans-serif" font-size="13" lengthAdjust="spacing" textLength="228" x="885.5" y="69.5">&#8217;Arealbruk kommune(del)plan=140&#8217;,</text><text fill="#000000" font-family="sans-serif" font-size="13" lengthAdjust="spacing" textLength="259" x="885.5" y="84.8105">&#8217;Regulerings/bebyggelsesplan=160&#8217; eller</text><text fill="#000000" font-family="sans-serif" font-size="13" lengthAdjust="spacing" textLength="126" x="885.5" y="100.1211">&#8217;Hensynssone=170&#8217;</text></g><!--class DispensasjonType--><g id="elem_DispensasjonType"><rect codeLine="53" fill="#F1F1F1" height="89.5977" id="DispensasjonType" rx="2.5" ry="2.5" style="stroke:#181818;stroke-width:0.5;" width="184" x="1263" y="568.34"/><ellipse cx="1290.6" cy="588.6505" fill="#ADD1B2" rx="11" ry="11" style="stroke:#181818;stroke-width:1.0;"/><path d="M1293.0731,594.7936 Q1292.4921,595.0924 1291.8529,595.2419 Q1291.2138,595.3913 1290.5082,595.3913 Q1288.0014,595.3913 1286.6815,593.7394 Q1285.3617,592.0876 1285.3617,588.9665 Q1285.3617,585.8371 1286.6815,584.1852 Q1288.0014,582.5334 1290.5082,582.5334 Q1291.2138,582.5334 1291.8612,582.6828 Q1292.5087,582.8322 1293.0731,583.131 L1293.0731,585.8537 Q1292.4423,585.2726 1291.8488,585.0028 Q1291.2553,584.7331 1290.6244,584.7331 Q1289.2797,584.7331 1288.5949,585.7997 Q1287.9101,586.8664 1287.9101,588.9665 Q1287.9101,591.0583 1288.5949,592.1249 Q1289.2797,593.1916 1290.6244,593.1916 Q1291.2553,593.1916 1291.8488,592.9218 Q1292.4423,592.652 1293.0731,592.071 Z " fill="#000000"/><text fill="#000000" font-family="sans-serif" font-size="12" font-style="italic" lengthAdjust="spacing" textLength="42" x="1348.4" y="584.9416">&#171;Kode&#187;</text><text fill="#000000" font-family="sans-serif" font-size="14" lengthAdjust="spacing" textLength="124" x="1307.4" y="601.008">DispensasjonType</text><line style="stroke:#181818;stroke-width:0.5;" x1="1264" x2="1446" y1="608.9611" y2="608.9611"/><ellipse cx="1274" cy="622.7052" fill="none" rx="3" ry="3" style="stroke:#038048;stroke-width:1.0;"/><text fill="#000000" font-family="sans-serif" font-size="14" lengthAdjust="spacing" textLength="116" x="1283" y="626.4963">kodeverdi: string</text><ellipse cx="1274" cy="639.1935" fill="none" rx="3" ry="3" style="stroke:#038048;stroke-width:1.0;"/><text fill="#000000" font-family="sans-serif" font-size="14" lengthAdjust="spacing" textLength="158" x="1283" y="642.9845">kodebeskrivelse: string</text><line style="stroke:#181818;stroke-width:0.5;" x1="1264" x2="1446" y1="649.9377" y2="649.9377"/></g><!--class DispensasjonFraLovverk--><g id="elem_DispensasjonFraLovverk"><rect codeLine="58" fill="#F1F1F1" height="89.5977" id="DispensasjonFraLovverk" rx="2.5" ry="2.5" style="stroke:#181818;stroke-width:0.5;" width="197" x="1482.5" y="568.34"/><ellipse cx="1497.5" cy="588.6505" fill="#ADD1B2" rx="11" ry="11" style="stroke:#181818;stroke-width:1.0;"/><path d="M1499.9731,594.7936 Q1499.3921,595.0924 1498.7529,595.2419 Q1498.1138,595.3913 1497.4082,595.3913 Q1494.9014,595.3913 1493.5815,593.7394 Q1492.2617,592.0876 1492.2617,588.9665 Q1492.2617,585.8371 1493.5815,584.1852 Q1494.9014,582.5334 1497.4082,582.5334 Q1498.1138,582.5334 1498.7612,582.6828 Q1499.4087,582.8322 1499.9731,583.131 L1499.9731,585.8537 Q1499.3423,585.2726 1498.7488,585.0028 Q1498.1553,584.7331 1497.5244,584.7331 Q1496.1797,584.7331 1495.4949,585.7997 Q1494.8101,586.8664 1494.8101,588.9665 Q1494.8101,591.0583 1495.4949,592.1249 Q1496.1797,593.1916 1497.5244,593.1916 Q1498.1553,593.1916 1498.7488,592.9218 Q1499.3423,592.652 1499.9731,592.071 Z " fill="#000000"/><text fill="#000000" font-family="sans-serif" font-size="12" font-style="italic" lengthAdjust="spacing" textLength="42" x="1573" y="584.9416">&#171;Kode&#187;</text><text fill="#000000" font-family="sans-serif" font-size="14" lengthAdjust="spacing" textLength="165" x="1511.5" y="601.008">DispensasjonFraLovverk</text><line style="stroke:#181818;stroke-width:0.5;" x1="1483.5" x2="1678.5" y1="608.9611" y2="608.9611"/><ellipse cx="1493.5" cy="622.7052" fill="none" rx="3" ry="3" style="stroke:#038048;stroke-width:1.0;"/><text fill="#000000" font-family="sans-serif" font-size="14" lengthAdjust="spacing" textLength="116" x="1502.5" y="626.4963">kodeverdi: string</text><ellipse cx="1493.5" cy="639.1935" fill="none" rx="3" ry="3" style="stroke:#038048;stroke-width:1.0;"/><text fill="#000000" font-family="sans-serif" font-size="14" lengthAdjust="spacing" textLength="158" x="1502.5" y="642.9845">kodebeskrivelse: string</text><line style="stroke:#181818;stroke-width:0.5;" x1="1483.5" x2="1678.5" y1="649.9377" y2="649.9377"/></g><!--class Vertikalnivaa--><g id="elem_Vertikalnivaa"><rect codeLine="63" fill="#F1F1F1" height="89.5977" id="Vertikalnivaa" rx="2.5" ry="2.5" style="stroke:#181818;stroke-width:0.5;" width="184" x="1715" y="568.34"/><ellipse cx="1758.8" cy="588.6505" fill="#ADD1B2" rx="11" ry="11" style="stroke:#181818;stroke-width:1.0;"/><path d="M1761.2731,594.7936 Q1760.6921,595.0924 1760.0529,595.2419 Q1759.4138,595.3913 1758.7082,595.3913 Q1756.2014,595.3913 1754.8815,593.7394 Q1753.5617,592.0876 1753.5617,588.9665 Q1753.5617,585.8371 1754.8815,584.1852 Q1756.2014,582.5334 1758.7082,582.5334 Q1759.4138,582.5334 1760.0612,582.6828 Q1760.7087,582.8322 1761.2731,583.131 L1761.2731,585.8537 Q1760.6423,585.2726 1760.0488,585.0028 Q1759.4553,584.7331 1758.8244,584.7331 Q1757.4797,584.7331 1756.7949,585.7997 Q1756.1101,586.8664 1756.1101,588.9665 Q1756.1101,591.0583 1756.7949,592.1249 Q1757.4797,593.1916 1758.8244,593.1916 Q1759.4553,593.1916 1760.0488,592.9218 Q1760.6423,592.652 1761.2731,592.071 Z " fill="#000000"/><text fill="#000000" font-family="sans-serif" font-size="12" font-style="italic" lengthAdjust="spacing" textLength="42" x="1802.2" y="584.9416">&#171;Kode&#187;</text><text fill="#000000" font-family="sans-serif" font-size="14" lengthAdjust="spacing" textLength="88" x="1779.2" y="601.008">Vertikalnivaa</text><line style="stroke:#181818;stroke-width:0.5;" x1="1716" x2="1898" y1="608.9611" y2="608.9611"/><ellipse cx="1726" cy="622.7052" fill="none" rx="3" ry="3" style="stroke:#038048;stroke-width:1.0;"/><text fill="#000000" font-family="sans-serif" font-size="14" lengthAdjust="spacing" textLength="116" x="1735" y="626.4963">kodeverdi: string</text><ellipse cx="1726" cy="639.1935" fill="none" rx="3" ry="3" style="stroke:#038048;stroke-width:1.0;"/><text fill="#000000" font-family="sans-serif" font-size="14" lengthAdjust="spacing" textLength="158" x="1735" y="642.9845">kodebeskrivelse: string</text><line style="stroke:#181818;stroke-width:0.5;" x1="1716" x2="1898" y1="649.9377" y2="649.9377"/></g><!--link NasjonalArealplanId to AdministrativEnhet--><g id="link_NasjonalArealplanId_AdministrativEnhet"><path codeLine="6" d="M153,653.69 C153,680.93 153,717.3 153,746.23 " fill="none" id="NasjonalArealplanId-AdministrativEnhet" style="stroke:#181818;stroke-width:1.0;"/></g><!--link Posisjon to Koordinatsystem--><g id="link_Posisjon_Koordinatsystem"><path codeLine="7" d="M458.84,661.96 C454.73,689.38 449.61,723.56 445.6,750.32 " fill="none" id="Posisjon-Koordinatsystem" style="stroke:#181818;stroke-width:1.0;"/></g><!--link Posisjon to PosisjonType--><g id="link_Posisjon_PosisjonType"><path codeLine="8" d="M508.72,661.96 C537.23,693.86 573.91,734.92 598.81,762.79 " fill="none" id="Posisjon-PosisjonType" style="stroke:#181818;stroke-width:1.0;"/></g><!--link Dokument to Dokumenttype--><g id="link_Dokument_Dokumenttype"><path codeLine="10" d="M982.06,686.91 C959.14,708.31 934.78,731.05 914.4,750.08 " fill="none" id="Dokument-Dokumenttype" style="stroke:#181818;stroke-width:1.0;"/></g><!--link Dokument to ReferanseDokumentfil--><g id="link_Dokument_ReferanseDokumentfil"><path codeLine="11" d="M1070.5,686.91 C1073.83,709.97 1077.38,734.59 1080.24,754.44 " fill="none" id="Dokument-ReferanseDokumentfil" style="stroke:#181818;stroke-width:1.0;"/></g><!--link Dispensasjon to DispensasjonType--><g id="link_Dispensasjon_DispensasjonType"><path codeLine="45" d="M1219.16,479.81 C1252.36,512.15 1284.77,543.72 1309.6,567.91 " fill="none" id="Dispensasjon-DispensasjonType" style="stroke:#181818;stroke-width:1.0;"/></g><!--link Dispensasjon to DispensasjonFraLovverk--><g id="link_Dispensasjon_DispensasjonFraLovverk"><path codeLine="46" d="M1241.93,417.82 C1312.23,454.68 1392.94,498.12 1465,539.68 C1480.32,548.51 1496.55,558.34 1511.86,567.84 " fill="none" id="Dispensasjon-DispensasjonFraLovverk" style="stroke:#181818;stroke-width:1.0;"/></g><!--link Dispensasjon to Vertikalnivaa--><g id="link_Dispensasjon_Vertikalnivaa"><path codeLine="47" d="M1242,372.62 C1372.14,410.06 1549.62,467.77 1697,539.68 C1713.44,547.7 1730.35,557.78 1745.83,567.86 " fill="none" id="Dispensasjon-Vertikalnivaa" style="stroke:#181818;stroke-width:1.0;"/></g><!--link Dispensasjon to NasjonalArealplanId--><g id="link_Dispensasjon_NasjonalArealplanId"><path codeLine="48" d="M878.25,472.01 C872.53,474.76 866.78,477.33 861,479.68 C635.62,571.17 551.88,476.45 317,539.68 C287.69,547.56 256.92,559.96 230.05,572.28 " fill="none" id="Dispensasjon-NasjonalArealplanId" style="stroke:#181818;stroke-width:1.0;"/></g><!--link Dispensasjon to Posisjon--><g id="link_Dispensasjon_Posisjon"><path codeLine="49" d="M878.1,470.86 C872.42,473.97 866.72,476.91 861,479.68 C759.68,528.66 720.87,501.52 615,539.68 C595.92,546.55 576.05,555.14 557.27,563.97 " fill="none" id="Dispensasjon-Posisjon" style="stroke:#181818;stroke-width:1.0;"/></g><!--link Dispensasjon to Saksnummer--><g id="link_Dispensasjon_Saksnummer"><path codeLine="50" d="M890.05,479.81 C852.42,514.14 815.75,547.6 788.69,572.29 " fill="none" id="Dispensasjon-Saksnummer" style="stroke:#181818;stroke-width:1.0;"/></g><!--link Dispensasjon to Dokument--><g id="link_Dispensasjon_Dokument"><path codeLine="51" d="M1060,479.81 C1060,500.62 1060,521.11 1060,539.52 " fill="none" id="Dispensasjon-Dokument" style="stroke:#181818;stroke-width:1.0;"/></g><!--SRC=[hLJDQjj04BxhAIQtX3PIKz8MH19eCQ6cfGbrwANqiCwEvOrMks9N4fWIo6laq6EVf6-I9-ci_goLHKXeVR37Czz-ypzxGbtBaYE4KHX6IeUf3LU2ldB9L5Yz3bSe9TfGCNkZ5PFC89FE9dWqeGlpCjXx8cMkhN04KISyvx5bgLLbbg69jk9p2BXEomnL4NM2UnnSIsOjp8JDKTawFVWP07rU24uOGKorDWPR6A6IniO7-6AJO-mnECqkxjompxggqAG-UgkVVECxxZhmlkl0dCVmPLVPe9UOc58fb1PzcWfvGKNahD0n0FsqyNQDYU6obJgyAQWGKecAKKJVXdyxLpOrejfr9PIgX4om6EOSmr9hYQobtpOqXaKljwwP4SaZRslx6ekwLDjCElMLa4ErgqxNV-TjrihVVmItGQ1qWI1nLO1UUJsAOpxLtx4IqC3QCHUmCWmkoPd1H5Xo5TOFPaZTW5Hpb4wht8Da8xb882qLg3-_3MHCTSHeoEwO-eMhMUQmk5ZCuJXyGzw86tXDEumcGCMXJkV9MMtd4Fpas6XuhPV1a892bGsgIVSYpsaGQFuelq5TyCCcIP2Q7iAvCriGQOeW-hJwwDlW2vsFOz-fl-j_hVouTTINQTyX2N7GG1xkVhKAai3I9CEQ0SND1TNIM9rvr9HbSeEIjoFvS7TVRzhIb2bL8ijAXVjKZmFNeDEZurS4UDaXls9IIdJhOACbBbtYj2AsWRvrK73dgMUcwEr6MKjUJu_UEVkW6DwPEZpq2dBbXl8nmE3EZ67-Fe-jK-TbZEdFnTWmMEUTuDhTcph2BXiuEVb4StPsrbraDtLra_mBuzHJv-TsYdWmvV-BtglUlxF-1G00]--></g></svg>