<svg xmlns="http://www.w3.org/2000/svg" xmlns:xlink="http://www.w3.org/1999/xlink" contentStyleType="text/css" height="897px" preserveAspectRatio="none" style="width:1896px;height:897px;background:#FFFFFF;" version="1.1" viewBox="0 0 1896 897" width="1896px" zoomAndPan="magnify"><defs/><g><!--class NasjonalArealplanId--><g id="elem_NasjonalArealplanId"><rect codeLine="1" fill="#F1F1F1" height="80.9766" id="NasjonalArealplanId" rx="2.5" ry="2.5" style="stroke:#181818;stroke-width:0.5;" width="290.3047" x="7" y="618.58"/><ellipse cx="80.0898" cy="634.58" fill="#ADD1B2" rx="11" ry="11" style="stroke:#181818;stroke-width:1.0;"/><path d="M83.063,640.2231 Q82.4819,640.5219 81.8428,640.6713 Q81.2036,640.8207 80.498,640.8207 Q77.9912,640.8207 76.6714,639.1689 Q75.3516,637.517 75.3516,634.3959 Q75.3516,631.2665 76.6714,629.6147 Q77.9912,627.9628 80.498,627.9628 Q81.2036,627.9628 81.8511,628.1122 Q82.4985,628.2616 83.063,628.5605 L83.063,631.2831 Q82.4321,630.7021 81.8386,630.4323 Q81.2451,630.1625 80.6143,630.1625 Q79.2695,630.1625 78.5847,631.2292 Q77.8999,632.2958 77.8999,634.3959 Q77.8999,636.4877 78.5847,637.5544 Q79.2695,638.621 80.6143,638.621 Q81.2451,638.621 81.8386,638.3512 Q82.4321,638.0815 83.063,637.5004 Z " fill="#000000"/><text fill="#000000" font-family="sans-serif" font-size="14" lengthAdjust="spacing" textLength="135.625" x="100.5898" y="639.871">NasjonalArealplanId</text><line style="stroke:#181818;stroke-width:0.5;" x1="8" x2="296.3047" y1="650.58" y2="650.58"/><ellipse cx="18" cy="664.3241" fill="none" rx="3" ry="3" style="stroke:#038048;stroke-width:1.0;"/><text fill="#000000" font-family="sans-serif" font-size="14" lengthAdjust="spacing" textLength="264.3047" x="27" y="668.1152">administrativEnhet: AdministrativEnhet</text><ellipse cx="18" cy="680.8124" fill="none" rx="3" ry="3" style="stroke:#038048;stroke-width:1.0;"/><text fill="#000000" font-family="sans-serif" font-size="14" lengthAdjust="spacing" textLength="170.126" x="27" y="684.6034">planidentifikasjon: string</text><line style="stroke:#181818;stroke-width:0.5;" x1="8" x2="296.3047" y1="691.5566" y2="691.5566"/></g><!--class AdministrativEnhet--><g id="elem_AdministrativEnhet"><rect codeLine="8" fill="#F1F1F1" height="97.4648" id="AdministrativEnhet" rx="2.5" ry="2.5" style="stroke:#181818;stroke-width:0.5;" width="160.6865" x="71.81" y="792.54"/><ellipse cx="86.81" cy="808.54" fill="#EB937F" rx="11" ry="11" style="stroke:#181818;stroke-width:1.0;"/><path d="M90.9243,814.54 L83.2045,814.54 L83.2045,802.1469 L90.9243,802.1469 L90.9243,804.3051 L85.6533,804.3051 L85.6533,806.978 L90.4262,806.978 L90.4262,809.1362 L85.6533,809.1362 L85.6533,812.3818 L90.9243,812.3818 Z " fill="#000000"/><text fill="#000000" font-family="sans-serif" font-size="14" lengthAdjust="spacing" textLength="128.6865" x="100.81" y="813.831">AdministrativEnhet</text><line style="stroke:#181818;stroke-width:0.5;" x1="72.81" x2="231.4965" y1="824.54" y2="824.54"/><text fill="#000000" font-family="sans-serif" font-size="14" lengthAdjust="spacing" textLength="125.1455" x="77.81" y="842.0752">kommunenummer</text><text fill="#000000" font-family="sans-serif" font-size="14" lengthAdjust="spacing" textLength="96.6738" x="77.81" y="858.5634">fylkesnummer</text><text fill="#000000" font-family="sans-serif" font-size="14" lengthAdjust="spacing" textLength="69.8086" x="77.81" y="875.0517">landskode</text><line style="stroke:#181818;stroke-width:0.5;" x1="72.81" x2="231.4965" y1="882.0048" y2="882.0048"/></g><!--class Posisjon--><g id="elem_Posisjon"><rect codeLine="1" fill="#F1F1F1" height="97.4648" id="Posisjon" rx="2.5" ry="2.5" style="stroke:#181818;stroke-width:0.5;" width="262.4551" x="331.92" y="610.34"/><ellipse cx="430.795" cy="626.34" fill="#ADD1B2" rx="11" ry="11" style="stroke:#181818;stroke-width:1.0;"/><path d="M433.7681,631.9831 Q433.1871,632.2819 432.5479,632.4313 Q431.9088,632.5807 431.2032,632.5807 Q428.6964,632.5807 427.3765,630.9289 Q426.0567,629.277 426.0567,626.1559 Q426.0567,623.0265 427.3765,621.3747 Q428.6964,619.7228 431.2032,619.7228 Q431.9088,619.7228 432.5562,619.8722 Q433.2037,620.0216 433.7681,620.3205 L433.7681,623.0431 Q433.1373,622.4621 432.5438,622.1923 Q431.9503,621.9225 431.3194,621.9225 Q429.9747,621.9225 429.2899,622.9892 Q428.6051,624.0558 428.6051,626.1559 Q428.6051,628.2477 429.2899,629.3144 Q429.9747,630.381 431.3194,630.381 Q431.9503,630.381 432.5438,630.1112 Q433.1373,629.8415 433.7681,629.2604 Z " fill="#000000"/><text fill="#000000" font-family="sans-serif" font-size="14" lengthAdjust="spacing" textLength="56.2051" x="451.295" y="631.631">Posisjon</text><line style="stroke:#181818;stroke-width:0.5;" x1="332.92" x2="593.3751" y1="642.34" y2="642.34"/><ellipse cx="342.92" cy="656.0841" fill="none" rx="3" ry="3" style="stroke:#038048;stroke-width:1.0;"/><text fill="#000000" font-family="sans-serif" font-size="14" lengthAdjust="spacing" textLength="127.0049" x="351.92" y="659.8752">type: PosisjonType</text><ellipse cx="342.92" cy="672.5724" fill="none" rx="3" ry="3" style="stroke:#038048;stroke-width:1.0;"/><text fill="#000000" font-family="sans-serif" font-size="14" lengthAdjust="spacing" textLength="149.9053" x="351.92" y="676.3634">koordinater: number[]</text><ellipse cx="342.92" cy="689.0607" fill="none" rx="3" ry="3" style="stroke:#038048;stroke-width:1.0;"/><text fill="#000000" font-family="sans-serif" font-size="14" lengthAdjust="spacing" textLength="236.4551" x="351.92" y="692.8517">koordinatsystem: Koordinatsystem</text><line style="stroke:#181818;stroke-width:0.5;" x1="332.92" x2="593.3751" y1="699.8048" y2="699.8048"/></g><!--class Koordinatsystem--><g id="elem_Koordinatsystem"><rect codeLine="10" fill="#F1F1F1" height="89.5977" id="Koordinatsystem" rx="2.5" ry="2.5" style="stroke:#181818;stroke-width:0.5;" width="183.5547" x="345.38" y="796.47"/><ellipse cx="377.1552" cy="816.7805" fill="#ADD1B2" rx="11" ry="11" style="stroke:#181818;stroke-width:1.0;"/><path d="M380.1284,822.4236 Q379.5473,822.7224 378.9082,822.8719 Q378.269,823.0213 377.5634,823.0213 Q375.0566,823.0213 373.7368,821.3694 Q372.417,819.7176 372.417,816.5965 Q372.417,813.4671 373.7368,811.8152 Q375.0566,810.1634 377.5634,810.1634 Q378.269,810.1634 378.9165,810.3128 Q379.5639,810.4622 380.1284,810.761 L380.1284,813.4837 Q379.4975,812.9026 378.904,812.6328 Q378.3105,812.3631 377.6797,812.3631 Q376.3349,812.3631 375.6501,813.4297 Q374.9653,814.4964 374.9653,816.5965 Q374.9653,818.6883 375.6501,819.7549 Q376.3349,820.8216 377.6797,820.8216 Q378.3105,820.8216 378.904,820.5518 Q379.4975,820.282 380.1284,819.701 Z " fill="#000000"/><text fill="#000000" font-family="sans-serif" font-size="12" font-style="italic" lengthAdjust="spacing" textLength="42.0176" x="431.0125" y="813.0716">&#171;Kode&#187;</text><text fill="#000000" font-family="sans-serif" font-size="14" lengthAdjust="spacing" textLength="114.2764" x="394.8831" y="829.138">Koordinatsystem</text><line style="stroke:#181818;stroke-width:0.5;" x1="346.38" x2="527.9347" y1="837.0911" y2="837.0911"/><ellipse cx="356.38" cy="850.8352" fill="none" rx="3" ry="3" style="stroke:#038048;stroke-width:1.0;"/><text fill="#000000" font-family="sans-serif" font-size="14" lengthAdjust="spacing" textLength="115.4521" x="365.38" y="854.6263">kodeverdi: string</text><ellipse cx="356.38" cy="867.3235" fill="none" rx="3" ry="3" style="stroke:#038048;stroke-width:1.0;"/><text fill="#000000" font-family="sans-serif" font-size="14" lengthAdjust="spacing" textLength="157.5547" x="365.38" y="871.1145">kodebeskrivelse: string</text><line style="stroke:#181818;stroke-width:0.5;" x1="346.38" x2="527.9347" y1="878.0677" y2="878.0677"/></g><!--class PosisjonType--><g id="elem_PosisjonType"><rect codeLine="15" fill="#F1F1F1" height="64.4883" id="PosisjonType" rx="2.5" ry="2.5" style="stroke:#181818;stroke-width:0.5;" width="120.9834" x="563.66" y="809.02"/><ellipse cx="578.66" cy="825.02" fill="#EB937F" rx="11" ry="11" style="stroke:#181818;stroke-width:1.0;"/><path d="M582.7743,831.02 L575.0545,831.02 L575.0545,818.6269 L582.7743,818.6269 L582.7743,820.7851 L577.5033,820.7851 L577.5033,823.458 L582.2762,823.458 L582.2762,825.6162 L577.5033,825.6162 L577.5033,828.8618 L582.7743,828.8618 Z " fill="#000000"/><text fill="#000000" font-family="sans-serif" font-size="14" lengthAdjust="spacing" textLength="88.9834" x="592.66" y="830.311">PosisjonType</text><line style="stroke:#181818;stroke-width:0.5;" x1="564.66" x2="683.6434" y1="841.02" y2="841.02"/><text fill="#000000" font-family="sans-serif" font-size="14" lengthAdjust="spacing" textLength="34.3096" x="569.66" y="858.5552">Point</text><line style="stroke:#181818;stroke-width:0.5;" x1="564.66" x2="683.6434" y1="865.5083" y2="865.5083"/></g><!--class Saksnummer--><g id="elem_Saksnummer"><rect codeLine="2" fill="#F1F1F1" height="80.9766" id="Saksnummer" rx="2.5" ry="2.5" style="stroke:#181818;stroke-width:0.5;" width="224.1123" x="629.1" y="618.58"/><ellipse cx="693.0878" cy="634.58" fill="#ADD1B2" rx="11" ry="11" style="stroke:#181818;stroke-width:1.0;"/><path d="M696.0609,640.2231 Q695.4799,640.5219 694.8407,640.6713 Q694.2016,640.8207 693.496,640.8207 Q690.9892,640.8207 689.6693,639.1689 Q688.3495,637.517 688.3495,634.3959 Q688.3495,631.2665 689.6693,629.6147 Q690.9892,627.9628 693.496,627.9628 Q694.2016,627.9628 694.849,628.1122 Q695.4965,628.2616 696.0609,628.5605 L696.0609,631.2831 Q695.4301,630.7021 694.8366,630.4323 Q694.2431,630.1625 693.6122,630.1625 Q692.2675,630.1625 691.5827,631.2292 Q690.8979,632.2958 690.8979,634.3959 Q690.8979,636.4877 691.5827,637.5544 Q692.2675,638.621 693.6122,638.621 Q694.2431,638.621 694.8366,638.3512 Q695.4301,638.0815 696.0609,637.5004 Z " fill="#000000"/><text fill="#000000" font-family="sans-serif" font-size="14" lengthAdjust="spacing" textLength="87.6367" x="713.5878" y="639.871">Saksnummer</text><line style="stroke:#181818;stroke-width:0.5;" x1="630.1" x2="852.2123" y1="650.58" y2="650.58"/><ellipse cx="640.1" cy="664.3241" fill="none" rx="3" ry="3" style="stroke:#038048;stroke-width:1.0;"/><text fill="#000000" font-family="sans-serif" font-size="14" lengthAdjust="spacing" textLength="108.2676" x="649.1" y="668.1152">saksaar: integer</text><ellipse cx="640.1" cy="680.8124" fill="none" rx="3" ry="3" style="stroke:#038048;stroke-width:1.0;"/><text fill="#000000" font-family="sans-serif" font-size="14" lengthAdjust="spacing" textLength="198.1123" x="649.1" y="684.6034">sakssekvensnummer: integer</text><line style="stroke:#181818;stroke-width:0.5;" x1="630.1" x2="852.2123" y1="691.5566" y2="691.5566"/></g><!--class Dokument--><g id="elem_Dokument"><rect codeLine="1" fill="#F1F1F1" height="146.9297" id="Dokument" rx="2.5" ry="2.5" style="stroke:#181818;stroke-width:0.5;" width="333.0908" x="888.61" y="585.61"/><ellipse cx="1015.5294" cy="601.61" fill="#ADD1B2" rx="11" ry="11" style="stroke:#181818;stroke-width:1.0;"/><path d="M1018.5026,607.2531 Q1017.9215,607.5519 1017.2824,607.7013 Q1016.6432,607.8507 1015.9376,607.8507 Q1013.4308,607.8507 1012.111,606.1989 Q1010.7912,604.547 1010.7912,601.4259 Q1010.7912,598.2965 1012.111,596.6447 Q1013.4308,594.9928 1015.9376,594.9928 Q1016.6432,594.9928 1017.2907,595.1422 Q1017.9381,595.2916 1018.5026,595.5905 L1018.5026,598.3131 Q1017.8717,597.7321 1017.2782,597.4623 Q1016.6847,597.1925 1016.0538,597.1925 Q1014.7091,597.1925 1014.0243,598.2592 Q1013.3395,599.3258 1013.3395,601.4259 Q1013.3395,603.5177 1014.0243,604.5844 Q1014.7091,605.651 1016.0538,605.651 Q1016.6847,605.651 1017.2782,605.3812 Q1017.8717,605.1115 1018.5026,604.5304 Z " fill="#000000"/><text fill="#000000" font-family="sans-serif" font-size="14" lengthAdjust="spacing" textLength="70.752" x="1036.0294" y="606.901">Dokument</text><line style="stroke:#181818;stroke-width:0.5;" x1="889.61" x2="1220.7008" y1="617.61" y2="617.61"/><ellipse cx="899.61" cy="631.3541" fill="none" rx="3" ry="3" style="stroke:#038048;stroke-width:1.0;"/><text fill="#000000" font-family="sans-serif" font-size="14" lengthAdjust="spacing" textLength="80.0283" x="908.61" y="635.1452">tittel: string</text><ellipse cx="899.61" cy="647.8424" fill="none" rx="3" ry="3" style="stroke:#038048;stroke-width:1.0;"/><text fill="#000000" font-family="sans-serif" font-size="14" lengthAdjust="spacing" textLength="207.0127" x="908.61" y="651.6334">dokumenttype: Dokumenttype</text><ellipse cx="899.61" cy="664.3307" fill="none" rx="3" ry="3" style="stroke:#038048;stroke-width:1.0;"/><text fill="#000000" font-family="sans-serif" font-size="14" lengthAdjust="spacing" textLength="307.0908" x="908.61" y="668.1217">referanseDokumentfil: ReferanseDokumentfil</text><ellipse cx="899.61" cy="680.819" fill="none" rx="3" ry="3" style="stroke:#038048;stroke-width:1.0;"/><text fill="#000000" font-family="sans-serif" font-size="14" lengthAdjust="spacing" textLength="115.5752" x="908.61" y="684.61">mimetype: string</text><ellipse cx="899.61" cy="697.3073" fill="none" rx="3" ry="3" style="stroke:#038048;stroke-width:1.0;"/><text fill="#000000" font-family="sans-serif" font-size="14" lengthAdjust="spacing" textLength="145.0313" x="908.61" y="701.0983">dokumentsdato: date</text><ellipse cx="899.61" cy="713.7955" fill="none" rx="3" ry="3" style="stroke:#038048;stroke-width:1.0;"/><text fill="#000000" font-family="sans-serif" font-size="14" lengthAdjust="spacing" textLength="113.7158" x="908.61" y="717.5866">arkivnavn: string</text><line style="stroke:#181818;stroke-width:0.5;" x1="889.61" x2="1220.7008" y1="724.5397" y2="724.5397"/></g><!--class Dokumenttype--><g id="elem_Dokumenttype"><rect codeLine="13" fill="#F1F1F1" height="89.5977" id="Dokumenttype" rx="2.5" ry="2.5" style="stroke:#181818;stroke-width:0.5;" width="183.5547" x="771.38" y="796.47"/><ellipse cx="809.6183" cy="816.7805" fill="#ADD1B2" rx="11" ry="11" style="stroke:#181818;stroke-width:1.0;"/><path d="M812.5914,822.4236 Q812.0104,822.7224 811.3712,822.8719 Q810.7321,823.0213 810.0265,823.0213 Q807.5196,823.0213 806.1998,821.3694 Q804.88,819.7176 804.88,816.5965 Q804.88,813.4671 806.1998,811.8152 Q807.5196,810.1634 810.0265,810.1634 Q810.7321,810.1634 811.3795,810.3128 Q812.027,810.4622 812.5914,810.761 L812.5914,813.4837 Q811.9606,812.9026 811.3671,812.6328 Q810.7736,812.3631 810.1427,812.3631 Q808.798,812.3631 808.1132,813.4297 Q807.4283,814.4964 807.4283,816.5965 Q807.4283,818.6883 808.1132,819.7549 Q808.798,820.8216 810.1427,820.8216 Q810.7736,820.8216 811.3671,820.5518 Q811.9606,820.282 812.5914,819.701 Z " fill="#000000"/><text fill="#000000" font-family="sans-serif" font-size="12" font-style="italic" lengthAdjust="spacing" textLength="42.0176" x="857.7306" y="813.0716">&#171;Kode&#187;</text><text fill="#000000" font-family="sans-serif" font-size="14" lengthAdjust="spacing" textLength="99.9141" x="828.7823" y="829.138">Dokumenttype</text><line style="stroke:#181818;stroke-width:0.5;" x1="772.38" x2="953.9347" y1="837.0911" y2="837.0911"/><ellipse cx="782.38" cy="850.8352" fill="none" rx="3" ry="3" style="stroke:#038048;stroke-width:1.0;"/><text fill="#000000" font-family="sans-serif" font-size="14" lengthAdjust="spacing" textLength="115.4521" x="791.38" y="854.6263">kodeverdi: string</text><ellipse cx="782.38" cy="867.3235" fill="none" rx="3" ry="3" style="stroke:#038048;stroke-width:1.0;"/><text fill="#000000" font-family="sans-serif" font-size="14" lengthAdjust="spacing" textLength="157.5547" x="791.38" y="871.1145">kodebeskrivelse: string</text><line style="stroke:#181818;stroke-width:0.5;" x1="772.38" x2="953.9347" y1="878.0677" y2="878.0677"/></g><!--class ReferanseDokumentfil--><g id="elem_ReferanseDokumentfil"><rect codeLine="18" fill="#F1F1F1" height="80.9766" id="ReferanseDokumentfil" rx="2.5" ry="2.5" style="stroke:#181818;stroke-width:0.5;" width="182.6777" x="989.81" y="800.78"/><ellipse cx="1004.81" cy="816.78" fill="#ADD1B2" rx="11" ry="11" style="stroke:#181818;stroke-width:1.0;"/><path d="M1007.7831,822.4231 Q1007.2021,822.7219 1006.5629,822.8713 Q1005.9238,823.0207 1005.2182,823.0207 Q1002.7114,823.0207 1001.3915,821.3689 Q1000.0717,819.717 1000.0717,816.5959 Q1000.0717,813.4665 1001.3915,811.8147 Q1002.7114,810.1628 1005.2182,810.1628 Q1005.9238,810.1628 1006.5712,810.3122 Q1007.2187,810.4616 1007.7831,810.7605 L1007.7831,813.4831 Q1007.1523,812.9021 1006.5588,812.6323 Q1005.9653,812.3625 1005.3344,812.3625 Q1003.9897,812.3625 1003.3049,813.4292 Q1002.6201,814.4958 1002.6201,816.5959 Q1002.6201,818.6877 1003.3049,819.7544 Q1003.9897,820.821 1005.3344,820.821 Q1005.9653,820.821 1006.5588,820.5512 Q1007.1523,820.2815 1007.7831,819.7004 Z " fill="#000000"/><text fill="#000000" font-family="sans-serif" font-size="14" lengthAdjust="spacing" textLength="150.6777" x="1018.81" y="822.071">ReferanseDokumentfil</text><line style="stroke:#181818;stroke-width:0.5;" x1="990.81" x2="1171.4877" y1="832.78" y2="832.78"/><ellipse cx="1000.81" cy="846.5241" fill="none" rx="3" ry="3" style="stroke:#038048;stroke-width:1.0;"/><text fill="#000000" font-family="sans-serif" font-size="14" lengthAdjust="spacing" textLength="61.2842" x="1009.81" y="850.3152">id: string</text><ellipse cx="1000.81" cy="863.0124" fill="none" rx="3" ry="3" style="stroke:#038048;stroke-width:1.0;"/><text fill="#000000" font-family="sans-serif" font-size="14" lengthAdjust="spacing" textLength="66.8896" x="1009.81" y="866.8034">url: string</text><line style="stroke:#181818;stroke-width:0.5;" x1="990.81" x2="1171.4877" y1="873.7566" y2="873.7566"/></g><!--class Dispensasjon--><g id="elem_Dispensasjon"><rect codeLine="6" fill="#F1F1F1" height="311.8125" id="Dispensasjon" rx="2.5" ry="2.5" style="stroke:#181818;stroke-width:0.5;" width="360.6943" x="874.81" y="213.79"/><ellipse cx="1005.6464" cy="229.79" fill="#ADD1B2" rx="11" ry="11" style="stroke:#181818;stroke-width:1.0;"/><path d="M1008.6196,235.4331 Q1008.0385,235.7319 1007.3994,235.8813 Q1006.7602,236.0307 1006.0546,236.0307 Q1003.5478,236.0307 1002.228,234.3789 Q1000.9081,232.727 1000.9081,229.6059 Q1000.9081,226.4765 1002.228,224.8247 Q1003.5478,223.1728 1006.0546,223.1728 Q1006.7602,223.1728 1007.4077,223.3222 Q1008.0551,223.4716 1008.6196,223.7705 L1008.6196,226.4931 Q1007.9887,225.9121 1007.3952,225.6423 Q1006.8017,225.3725 1006.1708,225.3725 Q1004.8261,225.3725 1004.1413,226.4392 Q1003.4565,227.5058 1003.4565,229.6059 Q1003.4565,231.6977 1004.1413,232.7644 Q1004.8261,233.831 1006.1708,233.831 Q1006.8017,233.831 1007.3952,233.5612 Q1007.9887,233.2915 1008.6196,232.7104 Z " fill="#000000"/><text fill="#000000" font-family="sans-serif" font-size="14" lengthAdjust="spacing" textLength="90.5215" x="1026.1464" y="235.081">Dispensasjon</text><line style="stroke:#181818;stroke-width:0.5;" x1="875.81" x2="1234.5043" y1="245.79" y2="245.79"/><ellipse cx="885.81" cy="259.5341" fill="none" rx="3" ry="3" style="stroke:#038048;stroke-width:1.0;"/><text fill="#000000" font-family="sans-serif" font-size="14" lengthAdjust="spacing" textLength="140.8477" x="894.81" y="263.3252">identifikasjon: string</text><ellipse cx="885.81" cy="276.0224" fill="none" rx="3" ry="3" style="stroke:#038048;stroke-width:1.0;"/><text fill="#000000" font-family="sans-serif" font-size="14" lengthAdjust="spacing" textLength="246.5518" x="894.81" y="279.8134">dispensasjontype: Dispensasjontype</text><ellipse cx="885.81" cy="292.5107" fill="none" rx="3" ry="3" style="stroke:#038048;stroke-width:1.0;"/><text fill="#000000" font-family="sans-serif" font-size="14" lengthAdjust="spacing" textLength="334.6943" x="894.81" y="296.3017">dispensasjonFraLovverk: DispensasjonFraLovverk</text><ellipse cx="885.81" cy="308.999" fill="none" rx="3" ry="3" style="stroke:#038048;stroke-width:1.0;"/><text fill="#000000" font-family="sans-serif" font-size="14" lengthAdjust="spacing" textLength="158.2383" x="894.81" y="312.79">dispensasjonFra: string</text><ellipse cx="885.81" cy="325.4873" fill="none" rx="3" ry="3" style="stroke:#038048;stroke-width:1.0;"/><text fill="#000000" font-family="sans-serif" font-size="14" lengthAdjust="spacing" textLength="278.4551" x="894.81" y="329.2783">nasjonalArealplanId: NasjonalArealplanId</text><ellipse cx="885.81" cy="341.9755" fill="none" rx="3" ry="3" style="stroke:#038048;stroke-width:1.0;"/><text fill="#000000" font-family="sans-serif" font-size="14" lengthAdjust="spacing" textLength="132.3438" x="894.81" y="345.7666">begrunnelse: string</text><ellipse cx="885.81" cy="358.4638" fill="none" rx="3" ry="3" style="stroke:#038048;stroke-width:1.0;"/><text fill="#000000" font-family="sans-serif" font-size="14" lengthAdjust="spacing" textLength="125.3916" x="894.81" y="362.2548">vedtaksdato:  date</text><ellipse cx="885.81" cy="374.9521" fill="none" rx="3" ry="3" style="stroke:#038048;stroke-width:1.0;"/><text fill="#000000" font-family="sans-serif" font-size="14" lengthAdjust="spacing" textLength="122.3428" x="894.81" y="378.7431">posisjon: Posisjon</text><ellipse cx="885.81" cy="391.4404" fill="none" rx="3" ry="3" style="stroke:#038048;stroke-width:1.0;"/><text fill="#000000" font-family="sans-serif" font-size="14" lengthAdjust="spacing" textLength="181.6924" x="894.81" y="395.2314">vertikalnivaa: Vertikalnivaa</text><ellipse cx="885.81" cy="407.9287" fill="none" rx="3" ry="3" style="stroke:#038048;stroke-width:1.0;"/><text fill="#000000" font-family="sans-serif" font-size="14" lengthAdjust="spacing" textLength="124.1611" x="894.81" y="411.7197">beskrivelse: string</text><ellipse cx="885.81" cy="424.417" fill="none" rx="3" ry="3" style="stroke:#038048;stroke-width:1.0;"/><text fill="#000000" font-family="sans-serif" font-size="14" lengthAdjust="spacing" textLength="212.1875" x="894.81" y="428.208">innvilgetDispensasjon: boolean</text><ellipse cx="885.81" cy="440.9052" fill="none" rx="3" ry="3" style="stroke:#038048;stroke-width:1.0;"/><text fill="#000000" font-family="sans-serif" font-size="14" lengthAdjust="spacing" textLength="183.7295" x="894.81" y="444.6962">saksnummer: Saksnummer</text><ellipse cx="885.81" cy="457.3935" fill="none" rx="3" ry="3" style="stroke:#038048;stroke-width:1.0;"/><text fill="#000000" font-family="sans-serif" font-size="14" lengthAdjust="spacing" textLength="187.1406" x="894.81" y="461.1845">varigDispensasjon: boolean</text><ellipse cx="885.81" cy="473.8818" fill="none" rx="3" ry="3" style="stroke:#038048;stroke-width:1.0;"/><text fill="#000000" font-family="sans-serif" font-size="14" lengthAdjust="spacing" textLength="114.6113" x="894.81" y="477.6728">varighetFra: date</text><ellipse cx="885.81" cy="490.3701" fill="none" rx="3" ry="3" style="stroke:#038048;stroke-width:1.0;"/><text fill="#000000" font-family="sans-serif" font-size="14" lengthAdjust="spacing" textLength="110.5918" x="894.81" y="494.1611">varighetTil: date</text><ellipse cx="885.81" cy="506.8584" fill="none" rx="3" ry="3" style="stroke:#038048;stroke-width:1.0;"/><text fill="#000000" font-family="sans-serif" font-size="14" lengthAdjust="spacing" textLength="200.6006" x="894.81" y="510.6494">plandokumenter: Dokument[]</text><line style="stroke:#181818;stroke-width:0.5;" x1="875.81" x2="1234.5043" y1="517.6025" y2="517.6025"/></g><path d="M148.18,273.15 L148.18,359.7027 A0,0 0 0 0 148.18,359.7027 L840.1336,359.7027 A0,0 0 0 0 840.1336,359.7027 L840.1336,320.4264 L878.81,274.5224 L840.1336,312.4264 L840.1336,283.15 L830.1336,273.15 L148.18,273.15 A0,0 0 0 0 148.18,273.15 " fill="#FEFFDD" style="stroke:#181818;stroke-width:0.5;"/><path d="M830.1336,273.15 L830.1336,283.15 L840.1336,283.15 L830.1336,273.15 " fill="#FEFFDD" style="stroke:#181818;stroke-width:0.5;"/><text fill="#000000" font-family="sans-serif" font-size="13" lengthAdjust="spacing" textLength="274.9995" x="154.18" y="290.7184">dispensasjontype er hentet fra Planregister.</text><text fill="#000000" font-family="sans-serif" font-size="13" lengthAdjust="spacing" textLength="414.6035" x="154.18" y="306.0289">Denne kodelisten er gyldig kun n&#229;r man dispenserer fra arealplan</text><text fill="#000000" font-family="sans-serif" font-size="13" lengthAdjust="spacing" textLength="226.751" x="154.18" y="321.3395">I SOSI 4.5 heter denne dispensasjon</text><text fill="#000000" font-family="sans-serif" font-size="13" lengthAdjust="spacing" textLength="63.9463" x="154.18" y="336.65">Eksempel:</text><text fill="#000000" font-family="sans-serif" font-size="13" lengthAdjust="spacing" textLength="670.9536" x="154.18" y="351.9605">https://objektkatalog.geonorge.no/Objekttype/Index/EAID_5C9216D4_FC5F_46d9_86F0_6101D085264B</text><path d="M148.18,369.7027 L148.18,456.2555 A0,0 0 0 0 148.18,456.2555 L635.6439,456.2555 A0,0 0 0 0 635.6439,456.2555 L635.6439,416.9791 L878.81,291.0107 L635.6439,408.9791 L635.6439,379.7027 L625.6439,369.7027 L148.18,369.7027 A0,0 0 0 0 148.18,369.7027 " fill="#FEFFDD" style="stroke:#181818;stroke-width:0.5;"/><path d="M625.6439,369.7027 L625.6439,379.7027 L635.6439,379.7027 L625.6439,369.7027 " fill="#FEFFDD" style="stroke:#181818;stroke-width:0.5;"/><text fill="#000000" font-family="sans-serif" font-size="13" lengthAdjust="spacing" textLength="402.5811" x="154.18" y="387.2711">dispensasajonFraLovverk: se kodelisten dispensasjonfralovverk.</text><text fill="#000000" font-family="sans-serif" font-size="13" lengthAdjust="spacing" textLength="354.6436" x="154.18" y="402.5816">Opprinnelig hentet fra eByggesak. Finnes ikke i SOSI 4.5</text><text fill="#000000" font-family="sans-serif" font-size="13" lengthAdjust="spacing" textLength="63.9463" x="154.18" y="417.8922">Eksempel:</text><text fill="#000000" font-family="sans-serif" font-size="13" lengthAdjust="spacing" textLength="466.4639" x="154.18" y="433.2027">https://register.geonorge.no/kodelister/byggesoknad/dispensasjonstype</text><text fill="#000000" font-family="sans-serif" font-size="13" lengthAdjust="spacing" textLength="4.1133" x="154.18" y="448.5133">&#160;</text><g id="elem_GMN19"><path d="M782.54,6 L782.54,153.7949 A0,0 0 0 0 782.54,153.7949 L1051.15,153.7949 L1055.15,213.3 L1059.15,153.7949 L1327.7612,153.7949 A0,0 0 0 0 1327.7612,153.7949 L1327.7612,16 L1317.7612,6 L782.54,6 A0,0 0 0 0 782.54,6 " fill="#FEFFDD" style="stroke:#181818;stroke-width:0.5;"/><path d="M1317.7612,6 L1317.7612,16 L1327.7612,16 L1317.7612,6 " fill="#FEFFDD" style="stroke:#181818;stroke-width:0.5;"/><text fill="#000000" font-family="sans-serif" font-size="13" lengthAdjust="spacing" textLength="106.082" x="788.54" y="23.5684">dispensasjonFra:</text><text fill="#000000" font-family="sans-serif" font-size="13" lengthAdjust="spacing" textLength="346.1187" x="788.54" y="38.8789">Er en videre beskrivelse av hva det er dispensasjon fra.</text><text fill="#000000" font-family="sans-serif" font-size="13" lengthAdjust="spacing" textLength="182.749" x="788.54" y="54.1895">Hentet fra SOSI 4.5 (dispFra):</text><text fill="#000000" font-family="sans-serif" font-size="13" lengthAdjust="spacing" textLength="341.98" x="788.54" y="69.5">&#8221;dispFra&#8221; skal ha verdi dersom dispensasjonen gjelder</text><text fill="#000000" font-family="sans-serif" font-size="13" lengthAdjust="spacing" textLength="231.1436" x="788.54" y="84.8105">&#8217;Arealbruk kommune(del)plan=140&#8217;,</text><text fill="#000000" font-family="sans-serif" font-size="13" lengthAdjust="spacing" textLength="261.2822" x="788.54" y="100.1211">&#8217;Regulerings/bebyggelsesplan=160&#8217; eller</text><text fill="#000000" font-family="sans-serif" font-size="13" lengthAdjust="spacing" textLength="126.1216" x="788.54" y="115.4316">&#8217;Hensynssone=170&#8217;</text><text fill="#000000" font-family="sans-serif" font-size="13" lengthAdjust="spacing" textLength="524.2212" x="788.54" y="130.7422">dispensasjonFra kan inneholde en utvidet beskrivelse om hva det er dispensert fra,</text><text fill="#000000" font-family="sans-serif" font-size="13" lengthAdjust="spacing" textLength="139.8706" x="788.54" y="146.0527">f.eks. lovparagraf osv.</text></g><!--class DispensasjonType--><g id="elem_DispensasjonType"><rect codeLine="61" fill="#F1F1F1" height="89.5977" id="DispensasjonType" rx="2.5" ry="2.5" style="stroke:#181818;stroke-width:0.5;" width="183.5547" x="1256.38" y="614.27"/><ellipse cx="1284.0947" cy="634.5805" fill="#ADD1B2" rx="11" ry="11" style="stroke:#181818;stroke-width:1.0;"/><path d="M1287.0678,640.2236 Q1286.4868,640.5224 1285.8476,640.6719 Q1285.2085,640.8213 1284.5029,640.8213 Q1281.9961,640.8213 1280.6762,639.1694 Q1279.3564,637.5176 1279.3564,634.3965 Q1279.3564,631.2671 1280.6762,629.6152 Q1281.9961,627.9634 1284.5029,627.9634 Q1285.2085,627.9634 1285.8559,628.1128 Q1286.5034,628.2622 1287.0678,628.561 L1287.0678,631.2837 Q1286.437,630.7026 1285.8435,630.4328 Q1285.25,630.1631 1284.6191,630.1631 Q1283.2744,630.1631 1282.5896,631.2297 Q1281.9048,632.2964 1281.9048,634.3965 Q1281.9048,636.4883 1282.5896,637.5549 Q1283.2744,638.6216 1284.6191,638.6216 Q1285.25,638.6216 1285.8435,638.3518 Q1286.437,638.082 1287.0678,637.501 Z " fill="#000000"/><text fill="#000000" font-family="sans-serif" font-size="12" font-style="italic" lengthAdjust="spacing" textLength="42.0176" x="1341.5613" y="630.8716">&#171;Kode&#187;</text><text fill="#000000" font-family="sans-serif" font-size="14" lengthAdjust="spacing" textLength="123.2998" x="1300.9202" y="646.938">DispensasjonType</text><line style="stroke:#181818;stroke-width:0.5;" x1="1257.38" x2="1438.9347" y1="654.8911" y2="654.8911"/><ellipse cx="1267.38" cy="668.6352" fill="none" rx="3" ry="3" style="stroke:#038048;stroke-width:1.0;"/><text fill="#000000" font-family="sans-serif" font-size="14" lengthAdjust="spacing" textLength="115.4521" x="1276.38" y="672.4263">kodeverdi: string</text><ellipse cx="1267.38" cy="685.1235" fill="none" rx="3" ry="3" style="stroke:#038048;stroke-width:1.0;"/><text fill="#000000" font-family="sans-serif" font-size="14" lengthAdjust="spacing" textLength="157.5547" x="1276.38" y="688.9145">kodebeskrivelse: string</text><line style="stroke:#181818;stroke-width:0.5;" x1="1257.38" x2="1438.9347" y1="695.8677" y2="695.8677"/></g><!--class DispensasjonFraLovverk--><g id="elem_DispensasjonFraLovverk"><rect codeLine="66" fill="#F1F1F1" height="89.5977" id="DispensasjonFraLovverk" rx="2.5" ry="2.5" style="stroke:#181818;stroke-width:0.5;" width="195.7549" x="1475.27" y="614.27"/><ellipse cx="1490.27" cy="634.5805" fill="#ADD1B2" rx="11" ry="11" style="stroke:#181818;stroke-width:1.0;"/><path d="M1493.2431,640.2236 Q1492.6621,640.5224 1492.0229,640.6719 Q1491.3838,640.8213 1490.6782,640.8213 Q1488.1714,640.8213 1486.8515,639.1694 Q1485.5317,637.5176 1485.5317,634.3965 Q1485.5317,631.2671 1486.8515,629.6152 Q1488.1714,627.9634 1490.6782,627.9634 Q1491.3838,627.9634 1492.0312,628.1128 Q1492.6787,628.2622 1493.2431,628.561 L1493.2431,631.2837 Q1492.6123,630.7026 1492.0188,630.4328 Q1491.4253,630.1631 1490.7944,630.1631 Q1489.4497,630.1631 1488.7649,631.2297 Q1488.0801,632.2964 1488.0801,634.3965 Q1488.0801,636.4883 1488.7649,637.5549 Q1489.4497,638.6216 1490.7944,638.6216 Q1491.4253,638.6216 1492.0188,638.3518 Q1492.6123,638.082 1493.2431,637.501 Z " fill="#000000"/><text fill="#000000" font-family="sans-serif" font-size="12" font-style="italic" lengthAdjust="spacing" textLength="42.0176" x="1565.1387" y="630.8716">&#171;Kode&#187;</text><text fill="#000000" font-family="sans-serif" font-size="14" lengthAdjust="spacing" textLength="163.7549" x="1504.27" y="646.938">DispensasjonFraLovverk</text><line style="stroke:#181818;stroke-width:0.5;" x1="1476.27" x2="1670.0249" y1="654.8911" y2="654.8911"/><ellipse cx="1486.27" cy="668.6352" fill="none" rx="3" ry="3" style="stroke:#038048;stroke-width:1.0;"/><text fill="#000000" font-family="sans-serif" font-size="14" lengthAdjust="spacing" textLength="115.4521" x="1495.27" y="672.4263">kodeverdi: string</text><ellipse cx="1486.27" cy="685.1235" fill="none" rx="3" ry="3" style="stroke:#038048;stroke-width:1.0;"/><text fill="#000000" font-family="sans-serif" font-size="14" lengthAdjust="spacing" textLength="157.5547" x="1495.27" y="688.9145">kodebeskrivelse: string</text><line style="stroke:#181818;stroke-width:0.5;" x1="1476.27" x2="1670.0249" y1="695.8677" y2="695.8677"/></g><!--class Vertikalnivaa--><g id="elem_Vertikalnivaa"><rect codeLine="71" fill="#F1F1F1" height="89.5977" id="Vertikalnivaa" rx="2.5" ry="2.5" style="stroke:#181818;stroke-width:0.5;" width="183.5547" x="1706.38" y="614.27"/><ellipse cx="1750.2631" cy="634.5805" fill="#ADD1B2" rx="11" ry="11" style="stroke:#181818;stroke-width:1.0;"/><path d="M1753.2362,640.2236 Q1752.6551,640.5224 1752.016,640.6719 Q1751.3768,640.8213 1750.6713,640.8213 Q1748.1644,640.8213 1746.8446,639.1694 Q1745.5248,637.5176 1745.5248,634.3965 Q1745.5248,631.2671 1746.8446,629.6152 Q1748.1644,627.9634 1750.6713,627.9634 Q1751.3768,627.9634 1752.0243,628.1128 Q1752.6717,628.2622 1753.2362,628.561 L1753.2362,631.2837 Q1752.6053,630.7026 1752.0118,630.4328 Q1751.4183,630.1631 1750.7875,630.1631 Q1749.4427,630.1631 1748.7579,631.2297 Q1748.0731,632.2964 1748.0731,634.3965 Q1748.0731,636.4883 1748.7579,637.5549 Q1749.4427,638.6216 1750.7875,638.6216 Q1751.4183,638.6216 1752.0118,638.3518 Q1752.6053,638.082 1753.2362,637.501 Z " fill="#000000"/><text fill="#000000" font-family="sans-serif" font-size="12" font-style="italic" lengthAdjust="spacing" textLength="42.0176" x="1793.3578" y="630.8716">&#171;Kode&#187;</text><text fill="#000000" font-family="sans-serif" font-size="14" lengthAdjust="spacing" textLength="87.3701" x="1770.6815" y="646.938">Vertikalnivaa</text><line style="stroke:#181818;stroke-width:0.5;" x1="1707.38" x2="1888.9347" y1="654.8911" y2="654.8911"/><ellipse cx="1717.38" cy="668.6352" fill="none" rx="3" ry="3" style="stroke:#038048;stroke-width:1.0;"/><text fill="#000000" font-family="sans-serif" font-size="14" lengthAdjust="spacing" textLength="115.4521" x="1726.38" y="672.4263">kodeverdi: string</text><ellipse cx="1717.38" cy="685.1235" fill="none" rx="3" ry="3" style="stroke:#038048;stroke-width:1.0;"/><text fill="#000000" font-family="sans-serif" font-size="14" lengthAdjust="spacing" textLength="157.5547" x="1726.38" y="688.9145">kodebeskrivelse: string</text><line style="stroke:#181818;stroke-width:0.5;" x1="1707.38" x2="1888.9347" y1="695.8677" y2="695.8677"/></g><!--link NasjonalArealplanId to AdministrativEnhet--><g id="link_NasjonalArealplanId_AdministrativEnhet"><path codeLine="6" d="M152.15,699.62 C152.15,726.86 152.15,763.23 152.15,792.16 " fill="none" id="NasjonalArealplanId-AdministrativEnhet" style="stroke:#181818;stroke-width:1.0;"/></g><!--link Posisjon to Koordinatsystem--><g id="link_Posisjon_Koordinatsystem"><path codeLine="7" d="M456.25,707.89 C452.3,735.31 447.36,769.49 443.5,796.25 " fill="none" id="Posisjon-Koordinatsystem" style="stroke:#181818;stroke-width:1.0;"/></g><!--link Posisjon to PosisjonType--><g id="link_Posisjon_PosisjonType"><path codeLine="8" d="M505.87,707.89 C534.38,739.79 571.06,780.85 595.96,808.72 " fill="none" id="Posisjon-PosisjonType" style="stroke:#181818;stroke-width:1.0;"/></g><!--link Dokument to Dokumenttype--><g id="link_Dokument_Dokumenttype"><path codeLine="10" d="M977.61,732.84 C954.82,754.24 930.58,776.98 910.31,796.01 " fill="none" id="Dokument-Dokumenttype" style="stroke:#181818;stroke-width:1.0;"/></g><!--link Dokument to ReferanseDokumentfil--><g id="link_Dokument_ReferanseDokumentfil"><path codeLine="11" d="M1065.65,732.84 C1068.98,755.9 1072.53,780.52 1075.4,800.37 " fill="none" id="Dokument-ReferanseDokumentfil" style="stroke:#181818;stroke-width:1.0;"/></g><!--link Dispensasjon to DispensasjonType--><g id="link_Dispensasjon_DispensasjonType"><path codeLine="53" d="M1213.23,525.74 C1246.21,558.08 1278.39,589.65 1303.06,613.84 " fill="none" id="Dispensasjon-DispensasjonType" style="stroke:#181818;stroke-width:1.0;"/></g><!--link Dispensasjon to DispensasjonFraLovverk--><g id="link_Dispensasjon_DispensasjonFraLovverk"><path codeLine="54" d="M1235.93,464.02 C1305.64,500.87 1385.66,544.23 1457.15,585.61 C1472.46,594.47 1488.69,604.31 1504,613.81 " fill="none" id="Dispensasjon-DispensasjonFraLovverk" style="stroke:#181818;stroke-width:1.0;"/></g><!--link Dispensasjon to Vertikalnivaa--><g id="link_Dispensasjon_Vertikalnivaa"><path codeLine="55" d="M1235.99,418.71 C1365.31,456.22 1541.68,513.96 1688.15,585.61 C1704.59,593.64 1721.49,603.73 1736.97,613.81 " fill="none" id="Dispensasjon-Vertikalnivaa" style="stroke:#181818;stroke-width:1.0;"/></g><!--link Dispensasjon to NasjonalArealplanId--><g id="link_Dispensasjon_NasjonalArealplanId"><path codeLine="56" d="M874.33,517.94 C868.64,520.69 862.91,523.26 857.15,525.61 C632.3,617.24 548.46,521.94 314.15,585.61 C285.16,593.48 254.76,605.87 228.22,618.19 " fill="none" id="Dispensasjon-NasjonalArealplanId" style="stroke:#181818;stroke-width:1.0;"/></g><!--link Dispensasjon to Posisjon--><g id="link_Dispensasjon_Posisjon"><path codeLine="57" d="M874.48,516.64 C868.73,519.8 862.94,522.8 857.15,525.61 C755.89,574.71 716.97,547.3 611.15,585.61 C592.19,592.47 572.44,601.05 553.79,609.88 " fill="none" id="Dispensasjon-Posisjon" style="stroke:#181818;stroke-width:1.0;"/></g><!--link Dispensasjon to Saksnummer--><g id="link_Dispensasjon_Saksnummer"><path codeLine="58" d="M885.74,525.74 C848.23,560.07 811.67,593.53 784.7,618.22 " fill="none" id="Dispensasjon-Saksnummer" style="stroke:#181818;stroke-width:1.0;"/></g><!--link Dispensasjon to Dokument--><g id="link_Dispensasjon_Dokument"><path codeLine="59" d="M1055.15,525.74 C1055.15,546.55 1055.15,567.04 1055.15,585.45 " fill="none" id="Dispensasjon-Dokument" style="stroke:#181818;stroke-width:1.0;"/></g><!--SRC=[hLNDRXCn4BxdAOPR4NItgTBGhjfAG8Y8GBIY5HU48gUURDnrx9NjNL6XIdqD3Xnv4jwaJy9u_xARH5Kho25nPiRVp7ppusT2NScC8mHX48HA1uaDveA-KibKaEy7SvGIRQ2OlTQAIMQGIQyJFDmY2zAiz-oHaAcsmWE4zU4fborBhCgMIpJXwlWK0AwJR8dAXVN1N-vTIMOjZ8HDKTaYFVZH0_gy49ni124LqWYiCqB5fOwtxDrDYb47mKisxSQ6VTHvZYRfMg_aM-zq7TSLU5rNOC8Z-BGfBArd69jCAPGMkp0vSaSaSkPq140_LRnrOI8uhqwrlN54X5GYPnJHb_RVsfLDZCWtNGcbSY5ZTEsS8vXfBP5LyAk2Hd3Hd2lNp8ZuWRk5Ve6ke6gLIIs-5B8jzkpKzVVUHjNvwxVURQ-dj4EGE7UWvvqQHH7VLjzr8Q21XKTsC3SCpicPmLXOSXKK5qP8rO14SvHUglo5-4Po4KEIAL1_VXjOCbK3eo6zHse6ha2PmCNPnGG6mG5v8spW1MmxciBkNM9ncQACYdyBvr8RXQ6UNMFY4kQOr74GerRQn1We7PuL6fz8E54SluVlNaz6quEtH_lzuMWm7Ryz64y7GtuqFHoEzwR3_bv_j7Tui3ySlEcXub2mzsWILsqFNIxPsgpO3c5j2696bbObksTfIdr7xKvqjig0RsxY6Ad70XXxjGMH90YYOV41ifhojNbgmZ7Xh83MYM8yR8TccnvfgAcOSJfT9sQZbtmlbq4Pe9npMaK6eJLYm79Ov8mAxtmBjU_wb4iwtgyeQFfbnviI_FCI__xkLoMW4rWQQLWm84Qv86nZzRA3JR74roXvDPltTp-BbJCpMK8rMYupXJj4pNFVgIVzmHuPlAmjFsESIVHxmOOpB7YZH6nfElIcuFTqWqpHsnjbBNazwR_o-cqqGKBJuekwq1IM9ojpdYxNOOlIs6IBTfZdfWnm7Y2z643jb3B3OiFce6qUj8hNUI9sTpi5lFJ5ViYWjUFNpRgxT5sxRRMlspIhUbtHMgKRmLLxRzi3wBE1u-CFrEMdf_Lhw7k-w8lkTlVYRQl_TXjmQ-J_5to7lNz7_Gi0]--></g></svg>