<?xml version="1.0" encoding="us-ascii" standalone="no"?><svg xmlns="http://www.w3.org/2000/svg" xmlns:xlink="http://www.w3.org/1999/xlink" contentStyleType="text/css" height="376px" preserveAspectRatio="none" style="width:932px;height:376px;background:#FFFFFF;" version="1.1" viewBox="0 0 932 376" width="932px" zoomAndPan="magnify"><defs/><g><!--class HentRelatertePlanerResultat--><g id="elem_HentRelatertePlanerResultat"><rect codeLine="2" fill="#F1F1F1" height="80.9766" id="HentRelatertePlanerResultat" rx="2.5" ry="2.5" style="stroke:#181818;stroke-width:0.5;" width="309" x="7" y="7"/><ellipse cx="61.75" cy="23" fill="#ADD1B2" rx="11" ry="11" style="stroke:#181818;stroke-width:1.0;"/><path d="M64.2231,29.1431 Q63.6421,29.4419 63.0029,29.5913 Q62.3638,29.7407 61.6582,29.7407 Q59.1514,29.7407 57.8315,28.0889 Q56.5117,26.437 56.5117,23.3159 Q56.5117,20.1865 57.8315,18.5347 Q59.1514,16.8828 61.6582,16.8828 Q62.3638,16.8828 63.0112,17.0322 Q63.6587,17.1816 64.2231,17.4805 L64.2231,20.2031 Q63.5923,19.6221 62.9988,19.3523 Q62.4053,19.0825 61.7744,19.0825 Q60.4297,19.0825 59.7449,20.1492 Q59.0601,21.2158 59.0601,23.3159 Q59.0601,25.4077 59.7449,26.4744 Q60.4297,27.541 61.7744,27.541 Q62.4053,27.541 62.9988,27.2712 Q63.5923,27.0015 64.2231,26.4204 Z " fill="#000000"/><text fill="#000000" font-family="sans-serif" font-size="14" lengthAdjust="spacing" textLength="191" x="82.25" y="28.291">HentRelatertePlanerResultat</text><line style="stroke:#181818;stroke-width:0.5;" x1="8" x2="315" y1="39" y2="39"/><ellipse cx="18" cy="52.7441" fill="none" rx="3" ry="3" style="stroke:#038048;stroke-width:1.0;"/><text fill="#000000" font-family="sans-serif" font-size="14" lengthAdjust="spacing" textLength="283" x="27" y="56.5352">nasjonalArealplanId: NasjonalArealplanId</text><ellipse cx="18" cy="69.2324" fill="none" rx="3" ry="3" style="stroke:#038048;stroke-width:1.0;"/><text fill="#000000" font-family="sans-serif" font-size="14" lengthAdjust="spacing" textLength="215" x="27" y="73.0234">planrelasjoner: Planrelasjoner[]</text><line style="stroke:#181818;stroke-width:0.5;" x1="8" x2="315" y1="79.9766" y2="79.9766"/></g><!--class Planrelasjoner--><g id="elem_Planrelasjoner"><rect codeLine="7" fill="#F1F1F1" height="80.9766" id="Planrelasjoner" rx="2.5" ry="2.5" style="stroke:#181818;stroke-width:0.5;" width="164" x="79.5" y="147.98"/><ellipse cx="109.8" cy="163.98" fill="#ADD1B2" rx="11" ry="11" style="stroke:#181818;stroke-width:1.0;"/><path d="M112.2731,170.1231 Q111.6921,170.4219 111.0529,170.5713 Q110.4138,170.7207 109.7082,170.7207 Q107.2014,170.7207 105.8815,169.0689 Q104.5617,167.417 104.5617,164.2959 Q104.5617,161.1665 105.8815,159.5147 Q107.2014,157.8628 109.7082,157.8628 Q110.4138,157.8628 111.0612,158.0122 Q111.7087,158.1616 112.2731,158.4605 L112.2731,161.1831 Q111.6423,160.6021 111.0488,160.3323 Q110.4553,160.0625 109.8244,160.0625 Q108.4797,160.0625 107.7949,161.1292 Q107.1101,162.1958 107.1101,164.2959 Q107.1101,166.3877 107.7949,167.4544 Q108.4797,168.521 109.8244,168.521 Q110.4553,168.521 111.0488,168.2512 Q111.6423,167.9815 112.2731,167.4004 Z " fill="#000000"/><text fill="#000000" font-family="sans-serif" font-size="14" lengthAdjust="spacing" textLength="98" x="127.2" y="169.271">Planrelasjoner</text><line style="stroke:#181818;stroke-width:0.5;" x1="80.5" x2="242.5" y1="179.98" y2="179.98"/><ellipse cx="90.5" cy="193.7241" fill="none" rx="3" ry="3" style="stroke:#038048;stroke-width:1.0;"/><text fill="#000000" font-family="sans-serif" font-size="14" lengthAdjust="spacing" textLength="124" x="99.5" y="197.5152">planforhold: Kode</text><ellipse cx="90.5" cy="210.2124" fill="none" rx="3" ry="3" style="stroke:#038048;stroke-width:1.0;"/><text fill="#000000" font-family="sans-serif" font-size="14" lengthAdjust="spacing" textLength="138" x="99.5" y="214.0034">arealplan: Arealplan</text><line style="stroke:#181818;stroke-width:0.5;" x1="80.5" x2="242.5" y1="220.9566" y2="220.9566"/></g><!--class Kode--><g id="elem_Kode"><rect codeLine="12" fill="#F1F1F1" height="80.9766" id="Kode" rx="2.5" ry="2.5" style="stroke:#181818;stroke-width:0.5;" width="184" x="69.5" y="288.95"/><ellipse cx="139.75" cy="304.95" fill="#ADD1B2" rx="11" ry="11" style="stroke:#181818;stroke-width:1.0;"/><path d="M142.2231,311.0931 Q141.6421,311.3919 141.0029,311.5413 Q140.3638,311.6907 139.6582,311.6907 Q137.1514,311.6907 135.8315,310.0389 Q134.5117,308.387 134.5117,305.2659 Q134.5117,302.1365 135.8315,300.4847 Q137.1514,298.8328 139.6582,298.8328 Q140.3638,298.8328 141.0112,298.9822 Q141.6587,299.1316 142.2231,299.4305 L142.2231,302.1531 Q141.5923,301.5721 140.9988,301.3023 Q140.4053,301.0325 139.7744,301.0325 Q138.4297,301.0325 137.7449,302.0992 Q137.0601,303.1658 137.0601,305.2659 Q137.0601,307.3577 137.7449,308.4244 Q138.4297,309.491 139.7744,309.491 Q140.4053,309.491 140.9988,309.2212 Q141.5923,308.9515 142.2231,308.3704 Z " fill="#000000"/><text fill="#000000" font-family="sans-serif" font-size="14" lengthAdjust="spacing" textLength="35" x="160.25" y="310.241">Kode</text><line style="stroke:#181818;stroke-width:0.5;" x1="70.5" x2="252.5" y1="320.95" y2="320.95"/><ellipse cx="80.5" cy="334.6941" fill="none" rx="3" ry="3" style="stroke:#038048;stroke-width:1.0;"/><text fill="#000000" font-family="sans-serif" font-size="14" lengthAdjust="spacing" textLength="116" x="89.5" y="338.4852">kodeverdi: string</text><ellipse cx="80.5" cy="351.1824" fill="none" rx="3" ry="3" style="stroke:#038048;stroke-width:1.0;"/><text fill="#000000" font-family="sans-serif" font-size="14" lengthAdjust="spacing" textLength="158" x="89.5" y="354.9734">kodebeskrivelse: string</text><line style="stroke:#181818;stroke-width:0.5;" x1="70.5" x2="252.5" y1="361.9266" y2="361.9266"/></g><!--class NasjonalArealplanId--><g id="elem_NasjonalArealplanId"><rect fill="#F1F1F1" height="48" id="NasjonalArealplanId" rx="2.5" ry="2.5" style="stroke:#181818;stroke-width:0.5;" width="170" x="278.5" y="164.47"/><ellipse cx="293.5" cy="180.47" fill="#ADD1B2" rx="11" ry="11" style="stroke:#181818;stroke-width:1.0;"/><path d="M295.9731,186.6131 Q295.3921,186.9119 294.7529,187.0613 Q294.1138,187.2107 293.4082,187.2107 Q290.9014,187.2107 289.5815,185.5589 Q288.2617,183.907 288.2617,180.7859 Q288.2617,177.6565 289.5815,176.0047 Q290.9014,174.3528 293.4082,174.3528 Q294.1138,174.3528 294.7612,174.5022 Q295.4087,174.6516 295.9731,174.9505 L295.9731,177.6731 Q295.3423,177.0921 294.7488,176.8223 Q294.1553,176.5525 293.5244,176.5525 Q292.1797,176.5525 291.4949,177.6192 Q290.8101,178.6858 290.8101,180.7859 Q290.8101,182.8777 291.4949,183.9444 Q292.1797,185.011 293.5244,185.011 Q294.1553,185.011 294.7488,184.7412 Q295.3423,184.4715 295.9731,183.8904 Z " fill="#000000"/><text fill="#000000" font-family="sans-serif" font-size="14" lengthAdjust="spacing" textLength="138" x="307.5" y="185.761">NasjonalArealplanId</text><line style="stroke:#181818;stroke-width:0.5;" x1="279.5" x2="447.5" y1="196.47" y2="196.47"/><line style="stroke:#181818;stroke-width:0.5;" x1="279.5" x2="447.5" y1="204.47" y2="204.47"/></g><!--class Arealplan--><g id="elem_Arealplan"><rect fill="#F1F1F1" height="48" id="Arealplan" rx="2.5" ry="2.5" style="stroke:#181818;stroke-width:0.5;" width="98" x="471.5" y="305.44"/><ellipse cx="486.5" cy="321.44" fill="#ADD1B2" rx="11" ry="11" style="stroke:#181818;stroke-width:1.0;"/><path d="M488.9731,327.5831 Q488.3921,327.8819 487.7529,328.0313 Q487.1138,328.1807 486.4082,328.1807 Q483.9014,328.1807 482.5815,326.5289 Q481.2617,324.877 481.2617,321.7559 Q481.2617,318.6265 482.5815,316.9747 Q483.9014,315.3228 486.4082,315.3228 Q487.1138,315.3228 487.7612,315.4722 Q488.4087,315.6216 488.9731,315.9205 L488.9731,318.6431 Q488.3423,318.0621 487.7488,317.7923 Q487.1553,317.5225 486.5244,317.5225 Q485.1797,317.5225 484.4949,318.5892 Q483.8101,319.6558 483.8101,321.7559 Q483.8101,323.8477 484.4949,324.9144 Q485.1797,325.981 486.5244,325.981 Q487.1553,325.981 487.7488,325.7112 Q488.3423,325.4415 488.9731,324.8604 Z " fill="#000000"/><text fill="#000000" font-family="sans-serif" font-size="14" lengthAdjust="spacing" textLength="66" x="500.5" y="326.731">Arealplan</text><line style="stroke:#181818;stroke-width:0.5;" x1="472.5" x2="568.5" y1="337.44" y2="337.44"/><line style="stroke:#181818;stroke-width:0.5;" x1="472.5" x2="568.5" y1="345.44" y2="345.44"/></g><g id="elem_GMN11"><path d="M351,34.83 L351,60.1405 A0,0 0 0 0 351,60.1405 L579.53,60.1405 L404.05,164.08 L587.53,60.1405 L858,60.1405 A0,0 0 0 0 858,60.1405 L858,44.83 L848,34.83 L351,34.83 A0,0 0 0 0 351,34.83 " fill="#FEFFDD" style="stroke:#181818;stroke-width:0.5;"/><path d="M848,34.83 L848,44.83 L858,44.83 L848,34.83 " fill="#FEFFDD" style="stroke:#181818;stroke-width:0.5;"/><text fill="#000000" font-family="sans-serif" font-size="13" lengthAdjust="spacing" textLength="486" x="357" y="52.3984">Se detaljer i diagram for skjema 'no.ks.fiks.plan.v2.felles.nasjonalarealplanid'</text></g><g id="elem_GMN14"><path d="M483.5,175.81 L483.5,201.1205 A0,0 0 0 0 483.5,201.1205 L684.49,201.1205 L551.46,305.06 L692.49,201.1205 L925.5,201.1205 A0,0 0 0 0 925.5,201.1205 L925.5,185.81 L915.5,175.81 L483.5,175.81 A0,0 0 0 0 483.5,175.81 " fill="#FEFFDD" style="stroke:#181818;stroke-width:0.5;"/><path d="M915.5,175.81 L915.5,185.81 L925.5,185.81 L915.5,175.81 " fill="#FEFFDD" style="stroke:#181818;stroke-width:0.5;"/><text fill="#000000" font-family="sans-serif" font-size="13" lengthAdjust="spacing" textLength="421" x="489.5" y="193.3784">Se detaljer i diagram for skjema 'no.ks.fiks.plan.v2.felles.arealplan'</text></g><!--link HentRelatertePlanerResultat to NasjonalArealplanId--><g id="link_HentRelatertePlanerResultat_NasjonalArealplanId"><path codeLine="17" d="M219.39,88.31 C255.06,112.86 299.57,143.48 329.61,164.15 " fill="none" id="HentRelatertePlanerResultat-NasjonalArealplanId" style="stroke:#181818;stroke-width:1.0;"/></g><!--link HentRelatertePlanerResultat to Planrelasjoner--><g id="link_HentRelatertePlanerResultat_Planrelasjoner"><path codeLine="18" d="M161.5,88.31 C161.5,106.92 161.5,129.02 161.5,147.63 " fill="none" id="HentRelatertePlanerResultat-Planrelasjoner" style="stroke:#181818;stroke-width:1.0;"/></g><!--link Planrelasjoner to Arealplan--><g id="link_Planrelasjoner_Arealplan"><path codeLine="19" d="M243.88,222.07 C249.84,224.4 255.76,226.72 261.5,228.95 C334.44,257.36 419.14,289.79 471.28,309.69 " fill="none" id="Planrelasjoner-Arealplan" style="stroke:#181818;stroke-width:1.0;"/></g><!--link Planrelasjoner to Kode--><g id="link_Planrelasjoner_Kode"><path codeLine="20" d="M161.5,229.29 C161.5,247.9 161.5,270 161.5,288.61 " fill="none" id="Planrelasjoner-Kode" style="stroke:#181818;stroke-width:1.0;"/></g><!--SRC=[fP6nJWCn38RtF8Mt6wfcOCpM3OI4gZ8Y1jFuIkxSfBB3BOXt9zVgSZfQmK26AB7z-yllx1bLuPvYtX5Z9icqPOmaEz8FpfZXqq1PguZQfOYy4K8-bP87x-3fEdYf7izI6evf4WVRnVtbrNmPip-Zbvc9DkhR9E-92-KnURg4SU8ugCYvrLWtDUZBUI3nmO5c2V4mXzz8Uma3iL9DbXw_pM2zlcdr3ydIcldXj1JC7gvpPzCcfaoGqmbIU-i5uE2Pm5D6xeeiW0zu43n2cHretz4HeOd9zchRKBPHPOSxsn8pgPt-j8ur-6Q1hAX_WYgWCTy0]--></g></svg>