<?xml version="1.0" encoding="us-ascii" standalone="no"?><svg xmlns="http://www.w3.org/2000/svg" xmlns:xlink="http://www.w3.org/1999/xlink" contentStyleType="text/css" height="385px" preserveAspectRatio="none" style="width:947px;height:385px;background:#FFFFFF;" version="1.1" viewBox="0 0 947 385" width="947px" zoomAndPan="magnify"><defs/><g><!--class HentRelatertePlanerResultat--><g id="elem_HentRelatertePlanerResultat"><rect codeLine="2" fill="#F1F1F1" height="80.9766" id="HentRelatertePlanerResultat" rx="2.5" ry="2.5" style="stroke:#181818;stroke-width:0.5;" width="309" x="7" y="7"/><ellipse cx="61.75" cy="23" fill="#ADD1B2" rx="11" ry="11" style="stroke:#181818;stroke-width:1.0;"/><path d="M64.2231,29.1431 Q63.6421,29.4419 63.0029,29.5913 Q62.3638,29.7407 61.6582,29.7407 Q59.1514,29.7407 57.8315,28.0889 Q56.5117,26.437 56.5117,23.3159 Q56.5117,20.1865 57.8315,18.5347 Q59.1514,16.8828 61.6582,16.8828 Q62.3638,16.8828 63.0112,17.0322 Q63.6587,17.1816 64.2231,17.4805 L64.2231,20.2031 Q63.5923,19.6221 62.9988,19.3523 Q62.4053,19.0825 61.7744,19.0825 Q60.4297,19.0825 59.7449,20.1492 Q59.0601,21.2158 59.0601,23.3159 Q59.0601,25.4077 59.7449,26.4744 Q60.4297,27.541 61.7744,27.541 Q62.4053,27.541 62.9988,27.2712 Q63.5923,27.0015 64.2231,26.4204 Z " fill="#000000"/><text fill="#000000" font-family="sans-serif" font-size="14" lengthAdjust="spacing" textLength="191" x="82.25" y="28.291">HentRelatertePlanerResultat</text><line style="stroke:#181818;stroke-width:0.5;" x1="8" x2="315" y1="39" y2="39"/><ellipse cx="18" cy="52.7441" fill="none" rx="3" ry="3" style="stroke:#038048;stroke-width:1.0;"/><text fill="#000000" font-family="sans-serif" font-size="14" lengthAdjust="spacing" textLength="283" x="27" y="56.5352">nasjonalArealplanId: NasjonalArealplanId</text><ellipse cx="18" cy="69.2324" fill="none" rx="3" ry="3" style="stroke:#038048;stroke-width:1.0;"/><text fill="#000000" font-family="sans-serif" font-size="14" lengthAdjust="spacing" textLength="215" x="27" y="73.0234">planrelasjoner: Planrelasjoner[]</text><line style="stroke:#181818;stroke-width:0.5;" x1="8" x2="315" y1="79.9766" y2="79.9766"/></g><!--class Planrelasjoner--><g id="elem_Planrelasjoner"><rect codeLine="7" fill="#F1F1F1" height="80.9766" id="Planrelasjoner" rx="2.5" ry="2.5" style="stroke:#181818;stroke-width:0.5;" width="195" x="64" y="147.98"/><ellipse cx="108.25" cy="163.98" fill="#ADD1B2" rx="11" ry="11" style="stroke:#181818;stroke-width:1.0;"/><path d="M110.7231,170.1231 Q110.1421,170.4219 109.5029,170.5713 Q108.8638,170.7207 108.1582,170.7207 Q105.6514,170.7207 104.3315,169.0689 Q103.0117,167.417 103.0117,164.2959 Q103.0117,161.1665 104.3315,159.5147 Q105.6514,157.8628 108.1582,157.8628 Q108.8638,157.8628 109.5112,158.0122 Q110.1587,158.1616 110.7231,158.4605 L110.7231,161.1831 Q110.0923,160.6021 109.4988,160.3323 Q108.9053,160.0625 108.2744,160.0625 Q106.9297,160.0625 106.2449,161.1292 Q105.5601,162.1958 105.5601,164.2959 Q105.5601,166.3877 106.2449,167.4544 Q106.9297,168.521 108.2744,168.521 Q108.9053,168.521 109.4988,168.2512 Q110.0923,167.9815 110.7231,167.4004 Z " fill="#000000"/><text fill="#000000" font-family="sans-serif" font-size="14" lengthAdjust="spacing" textLength="98" x="128.75" y="169.271">Planrelasjoner</text><line style="stroke:#181818;stroke-width:0.5;" x1="65" x2="258" y1="179.98" y2="179.98"/><ellipse cx="75" cy="193.7241" fill="none" rx="3" ry="3" style="stroke:#038048;stroke-width:1.0;"/><text fill="#000000" font-family="sans-serif" font-size="14" lengthAdjust="spacing" textLength="169" x="84" y="197.5152">planforhold: Planforhold</text><ellipse cx="75" cy="210.2124" fill="none" rx="3" ry="3" style="stroke:#038048;stroke-width:1.0;"/><text fill="#000000" font-family="sans-serif" font-size="14" lengthAdjust="spacing" textLength="138" x="84" y="214.0034">arealplan: Arealplan</text><line style="stroke:#181818;stroke-width:0.5;" x1="65" x2="258" y1="220.9566" y2="220.9566"/></g><!--class Planforhold--><g id="elem_Planforhold"><rect codeLine="12" fill="#F1F1F1" height="89.5977" id="Planforhold" rx="2.5" ry="2.5" style="stroke:#181818;stroke-width:0.5;" width="184" x="69.5" y="288.95"/><ellipse cx="117.25" cy="309.2605" fill="#ADD1B2" rx="11" ry="11" style="stroke:#181818;stroke-width:1.0;"/><path d="M119.7231,315.4036 Q119.1421,315.7024 118.5029,315.8519 Q117.8638,316.0013 117.1582,316.0013 Q114.6514,316.0013 113.3315,314.3494 Q112.0117,312.6976 112.0117,309.5765 Q112.0117,306.4471 113.3315,304.7952 Q114.6514,303.1434 117.1582,303.1434 Q117.8638,303.1434 118.5112,303.2928 Q119.1587,303.4422 119.7231,303.741 L119.7231,306.4637 Q119.0923,305.8826 118.4988,305.6128 Q117.9053,305.3431 117.2744,305.3431 Q115.9297,305.3431 115.2449,306.4097 Q114.5601,307.4764 114.5601,309.5765 Q114.5601,311.6683 115.2449,312.7349 Q115.9297,313.8016 117.2744,313.8016 Q117.9053,313.8016 118.4988,313.5318 Q119.0923,313.262 119.7231,312.681 Z " fill="#000000"/><text fill="#000000" font-family="sans-serif" font-size="12" font-style="italic" lengthAdjust="spacing" textLength="42" x="156.75" y="305.5516">&#171;Kode&#187;</text><text fill="#000000" font-family="sans-serif" font-size="14" lengthAdjust="spacing" textLength="80" x="137.75" y="321.618">Planforhold</text><line style="stroke:#181818;stroke-width:0.5;" x1="70.5" x2="252.5" y1="329.5711" y2="329.5711"/><ellipse cx="80.5" cy="343.3152" fill="none" rx="3" ry="3" style="stroke:#038048;stroke-width:1.0;"/><text fill="#000000" font-family="sans-serif" font-size="14" lengthAdjust="spacing" textLength="116" x="89.5" y="347.1063">kodeverdi: string</text><ellipse cx="80.5" cy="359.8035" fill="none" rx="3" ry="3" style="stroke:#038048;stroke-width:1.0;"/><text fill="#000000" font-family="sans-serif" font-size="14" lengthAdjust="spacing" textLength="158" x="89.5" y="363.5945">kodebeskrivelse: string</text><line style="stroke:#181818;stroke-width:0.5;" x1="70.5" x2="252.5" y1="370.5477" y2="370.5477"/></g><!--class NasjonalArealplanId--><g id="elem_NasjonalArealplanId"><rect fill="#F1F1F1" height="48" id="NasjonalArealplanId" rx="2.5" ry="2.5" style="stroke:#181818;stroke-width:0.5;" width="170" x="293.5" y="164.46"/><ellipse cx="308.5" cy="180.46" fill="#ADD1B2" rx="11" ry="11" style="stroke:#181818;stroke-width:1.0;"/><path d="M310.9731,186.6031 Q310.3921,186.9019 309.7529,187.0513 Q309.1138,187.2007 308.4082,187.2007 Q305.9014,187.2007 304.5815,185.5489 Q303.2617,183.897 303.2617,180.7759 Q303.2617,177.6465 304.5815,175.9947 Q305.9014,174.3428 308.4082,174.3428 Q309.1138,174.3428 309.7612,174.4922 Q310.4087,174.6416 310.9731,174.9405 L310.9731,177.6631 Q310.3423,177.0821 309.7488,176.8123 Q309.1553,176.5425 308.5244,176.5425 Q307.1797,176.5425 306.4949,177.6092 Q305.8101,178.6758 305.8101,180.7759 Q305.8101,182.8677 306.4949,183.9344 Q307.1797,185.001 308.5244,185.001 Q309.1553,185.001 309.7488,184.7312 Q310.3423,184.4615 310.9731,183.8804 Z " fill="#000000"/><text fill="#000000" font-family="sans-serif" font-size="14" lengthAdjust="spacing" textLength="138" x="322.5" y="185.751">NasjonalArealplanId</text><line style="stroke:#181818;stroke-width:0.5;" x1="294.5" x2="462.5" y1="196.46" y2="196.46"/><line style="stroke:#181818;stroke-width:0.5;" x1="294.5" x2="462.5" y1="204.46" y2="204.46"/></g><!--class Arealplan--><g id="elem_Arealplan"><rect fill="#F1F1F1" height="48" id="Arealplan" rx="2.5" ry="2.5" style="stroke:#181818;stroke-width:0.5;" width="98" x="479.5" y="309.75"/><ellipse cx="494.5" cy="325.75" fill="#ADD1B2" rx="11" ry="11" style="stroke:#181818;stroke-width:1.0;"/><path d="M496.9731,331.8931 Q496.3921,332.1919 495.7529,332.3413 Q495.1138,332.4907 494.4082,332.4907 Q491.9014,332.4907 490.5815,330.8389 Q489.2617,329.187 489.2617,326.0659 Q489.2617,322.9365 490.5815,321.2847 Q491.9014,319.6328 494.4082,319.6328 Q495.1138,319.6328 495.7612,319.7822 Q496.4087,319.9316 496.9731,320.2305 L496.9731,322.9531 Q496.3423,322.3721 495.7488,322.1023 Q495.1553,321.8325 494.5244,321.8325 Q493.1797,321.8325 492.4949,322.8992 Q491.8101,323.9658 491.8101,326.0659 Q491.8101,328.1577 492.4949,329.2244 Q493.1797,330.291 494.5244,330.291 Q495.1553,330.291 495.7488,330.0212 Q496.3423,329.7515 496.9731,329.1704 Z " fill="#000000"/><text fill="#000000" font-family="sans-serif" font-size="14" lengthAdjust="spacing" textLength="66" x="508.5" y="331.041">Arealplan</text><line style="stroke:#181818;stroke-width:0.5;" x1="480.5" x2="576.5" y1="341.75" y2="341.75"/><line style="stroke:#181818;stroke-width:0.5;" x1="480.5" x2="576.5" y1="349.75" y2="349.75"/></g><g id="elem_GMN11"><path d="M351,34.83 L351,60.1405 A0,0 0 0 0 351,60.1405 L580.84,60.1405 L416.53,164.08 L588.84,60.1405 L858,60.1405 A0,0 0 0 0 858,60.1405 L858,44.83 L848,34.83 L351,34.83 A0,0 0 0 0 351,34.83 " fill="#FEFFDD" style="stroke:#181818;stroke-width:0.5;"/><path d="M848,34.83 L848,44.83 L858,44.83 L848,34.83 " fill="#FEFFDD" style="stroke:#181818;stroke-width:0.5;"/><text fill="#000000" font-family="sans-serif" font-size="13" lengthAdjust="spacing" textLength="486" x="357" y="52.3984">Se detaljer i diagram for skjema 'no.ks.fiks.plan.v2.felles.nasjonalarealplanid'</text></g><g id="elem_GMN14"><path d="M498.5,175.81 L498.5,201.1205 A0,0 0 0 0 498.5,201.1205 L699.54,201.1205 L559.5,309.49 L707.54,201.1205 L940.5,201.1205 A0,0 0 0 0 940.5,201.1205 L940.5,185.81 L930.5,175.81 L498.5,175.81 A0,0 0 0 0 498.5,175.81 " fill="#FEFFDD" style="stroke:#181818;stroke-width:0.5;"/><path d="M930.5,175.81 L930.5,185.81 L940.5,185.81 L930.5,175.81 " fill="#FEFFDD" style="stroke:#181818;stroke-width:0.5;"/><text fill="#000000" font-family="sans-serif" font-size="13" lengthAdjust="spacing" textLength="421" x="504.5" y="193.3784">Se detaljer i diagram for skjema 'no.ks.fiks.plan.v2.felles.arealplan'</text></g><!--link HentRelatertePlanerResultat to NasjonalArealplanId--><g id="link_HentRelatertePlanerResultat_NasjonalArealplanId"><path codeLine="17" d="M223.68,88.31 C262.01,112.86 309.82,143.48 342.09,164.15 " fill="none" id="HentRelatertePlanerResultat-NasjonalArealplanId" style="stroke:#181818;stroke-width:1.0;"/></g><!--link HentRelatertePlanerResultat to Planrelasjoner--><g id="link_HentRelatertePlanerResultat_Planrelasjoner"><path codeLine="18" d="M161.5,88.31 C161.5,106.92 161.5,129.02 161.5,147.63 " fill="none" id="HentRelatertePlanerResultat-Planrelasjoner" style="stroke:#181818;stroke-width:1.0;"/></g><!--link Planrelasjoner to Arealplan--><g id="link_Planrelasjoner_Arealplan"><path codeLine="19" d="M259.37,227.67 C330.29,255.36 423.21,291.64 479.25,313.52 " fill="none" id="Planrelasjoner-Arealplan" style="stroke:#181818;stroke-width:1.0;"/></g><!--link Planrelasjoner to Planforhold--><g id="link_Planrelasjoner_Planforhold"><path codeLine="20" d="M161.5,229.38 C161.5,247.76 161.5,269.64 161.5,288.52 " fill="none" id="Planrelasjoner-Planforhold" style="stroke:#181818;stroke-width:1.0;"/></g><!--SRC=[fL6nJiCm4Dtz5RTbGFN0Q5MLs418g2eZOZZgIt5ojQkpoOBuTnpIk9XMCE31yjsxzvxzl6MC4Mx9fmqn9f94QqPFig7unWaJl2l8wyfZx897lX52FkIHEslWuRmvJOzdoO8ZJ69WNTLFp-f3gUsNTOtCRYE_3V8Qs4xaOp6XEDiPACwrud4SbilxO6crcdNxN0qarXc8IPpVdTel57jn0t6a0cRDtw9PB2ucy0UbVh7w4K0UEBtf7FkUXV8X4QHmWD1UkWWOU2Imb92xp7PW7Uu4zv058FOTxH4Q7tGVTUloDhBqSArROgQevnylQJlRL9R5wfz6nQ1Hdm00]--></g></svg>