<svg xmlns="http://www.w3.org/2000/svg" xmlns:xlink="http://www.w3.org/1999/xlink" contentStyleType="text/css" height="376px" preserveAspectRatio="none" style="width:323px;height:376px;background:#FFFFFF;" version="1.1" viewBox="0 0 323 376" width="323px" zoomAndPan="magnify"><defs/><g><!--class NasjonalArealplanId--><g id="elem_NasjonalArealplanId"><rect codeLine="1" fill="#F1F1F1" height="80.9766" id="NasjonalArealplanId" rx="2.5" ry="2.5" style="stroke:#181818;stroke-width:0.5;" width="292" x="15.5" y="131.49"/><ellipse cx="88.25" cy="147.49" fill="#ADD1B2" rx="11" ry="11" style="stroke:#181818;stroke-width:1.0;"/><path d="M90.7231,153.6331 Q90.1421,153.9319 89.5029,154.0813 Q88.8638,154.2307 88.1582,154.2307 Q85.6514,154.2307 84.3315,152.5789 Q83.0117,150.927 83.0117,147.8059 Q83.0117,144.6765 84.3315,143.0247 Q85.6514,141.3728 88.1582,141.3728 Q88.8638,141.3728 89.5112,141.5222 Q90.1587,141.6716 90.7231,141.9705 L90.7231,144.6931 Q90.0923,144.1121 89.4988,143.8423 Q88.9053,143.5725 88.2744,143.5725 Q86.9297,143.5725 86.2449,144.6392 Q85.5601,145.7058 85.5601,147.8059 Q85.5601,149.8977 86.2449,150.9644 Q86.9297,152.031 88.2744,152.031 Q88.9053,152.031 89.4988,151.7612 Q90.0923,151.4915 90.7231,150.9104 Z " fill="#000000"/><text fill="#000000" font-family="sans-serif" font-size="14" lengthAdjust="spacing" textLength="138" x="108.75" y="152.781">NasjonalArealplanId</text><line style="stroke:#181818;stroke-width:0.5;" x1="16.5" x2="306.5" y1="163.49" y2="163.49"/><ellipse cx="26.5" cy="177.2341" fill="none" rx="3" ry="3" style="stroke:#038048;stroke-width:1.0;"/><text fill="#000000" font-family="sans-serif" font-size="14" lengthAdjust="spacing" textLength="266" x="35.5" y="181.0252">administrativEnhet: AdministrativEnhet</text><ellipse cx="26.5" cy="193.7224" fill="none" rx="3" ry="3" style="stroke:#038048;stroke-width:1.0;"/><text fill="#000000" font-family="sans-serif" font-size="14" lengthAdjust="spacing" textLength="171" x="35.5" y="197.5134">planidentifikasjon: string</text><line style="stroke:#181818;stroke-width:0.5;" x1="16.5" x2="306.5" y1="204.4666" y2="204.4666"/></g><!--class AdministrativEnhet--><g id="elem_AdministrativEnhet"><rect codeLine="8" fill="#F1F1F1" height="97.4648" id="AdministrativEnhet" rx="2.5" ry="2.5" style="stroke:#181818;stroke-width:0.5;" width="162" x="80.5" y="272.47"/><ellipse cx="95.5" cy="288.47" fill="#EB937F" rx="11" ry="11" style="stroke:#181818;stroke-width:1.0;"/><path d="M99.1143,294.97 L91.3945,294.97 L91.3945,282.5769 L99.1143,282.5769 L99.1143,284.7351 L93.8433,284.7351 L93.8433,287.408 L98.6162,287.408 L98.6162,289.5662 L93.8433,289.5662 L93.8433,292.8118 L99.1143,292.8118 Z " fill="#000000"/><text fill="#000000" font-family="sans-serif" font-size="14" lengthAdjust="spacing" textLength="130" x="109.5" y="293.761">AdministrativEnhet</text><line style="stroke:#181818;stroke-width:0.5;" x1="81.5" x2="241.5" y1="304.47" y2="304.47"/><text fill="#000000" font-family="sans-serif" font-size="14" lengthAdjust="spacing" textLength="127" x="86.5" y="322.0052">kommunenummer</text><text fill="#000000" font-family="sans-serif" font-size="14" lengthAdjust="spacing" textLength="97" x="86.5" y="338.4934">fylkesnummer</text><text fill="#000000" font-family="sans-serif" font-size="14" lengthAdjust="spacing" textLength="71" x="86.5" y="354.9817">landskode</text><line style="stroke:#181818;stroke-width:0.5;" x1="81.5" x2="241.5" y1="361.9348" y2="361.9348"/></g><!--class HentGjeldendePlandokumenter--><g id="elem_HentGjeldendePlandokumenter"><rect codeLine="3" fill="#F1F1F1" height="64.4883" id="HentGjeldendePlandokumenter" rx="2.5" ry="2.5" style="stroke:#181818;stroke-width:0.5;" width="309" x="7" y="7"/><ellipse cx="50.35" cy="23" fill="#ADD1B2" rx="11" ry="11" style="stroke:#181818;stroke-width:1.0;"/><path d="M52.8231,29.1431 Q52.2421,29.4419 51.6029,29.5913 Q50.9638,29.7407 50.2582,29.7407 Q47.7514,29.7407 46.4315,28.0889 Q45.1117,26.437 45.1117,23.3159 Q45.1117,20.1865 46.4315,18.5347 Q47.7514,16.8828 50.2582,16.8828 Q50.9638,16.8828 51.6112,17.0322 Q52.2587,17.1816 52.8231,17.4805 L52.8231,20.2031 Q52.1923,19.6221 51.5988,19.3523 Q51.0053,19.0825 50.3744,19.0825 Q49.0297,19.0825 48.3449,20.1492 Q47.6601,21.2158 47.6601,23.3159 Q47.6601,25.4077 48.3449,26.4744 Q49.0297,27.541 50.3744,27.541 Q51.0053,27.541 51.5988,27.2712 Q52.1923,27.0015 52.8231,26.4204 Z " fill="#000000"/><text fill="#000000" font-family="sans-serif" font-size="14" lengthAdjust="spacing" textLength="214" x="70.65" y="28.291">HentGjeldendePlandokumenter</text><line style="stroke:#181818;stroke-width:0.5;" x1="8" x2="315" y1="39" y2="39"/><ellipse cx="18" cy="52.7441" fill="none" rx="3" ry="3" style="stroke:#038048;stroke-width:1.0;"/><text fill="#000000" font-family="sans-serif" font-size="14" lengthAdjust="spacing" textLength="283" x="27" y="56.5352">nasjonalArealplanId: NasjonalArealplanId</text><line style="stroke:#181818;stroke-width:0.5;" x1="8" x2="315" y1="63.4883" y2="63.4883"/></g><!--link NasjonalArealplanId to AdministrativEnhet--><g id="link_NasjonalArealplanId_AdministrativEnhet"><path codeLine="6" d="M161.5,212.82 C161.5,231.13 161.5,252.99 161.5,272.2 " fill="none" id="NasjonalArealplanId-AdministrativEnhet" style="stroke:#181818;stroke-width:1.0;"/></g><!--link HentGjeldendePlandokumenter to NasjonalArealplanId--><g id="link_HentGjeldendePlandokumenter_NasjonalArealplanId"><path codeLine="7" d="M161.5,71.89 C161.5,89.73 161.5,112.17 161.5,131.19 " fill="none" id="HentGjeldendePlandokumenter-NasjonalArealplanId" style="stroke:#181818;stroke-width:1.0;"/></g><!--SRC=[VOon3i8m34HtVuMPKHs9iHiJi21-mQfTAQrngePqGVmxwT29YXjkUATxX-YT5L6aG1GyqPYfZxKcOwVbHBsQQIRdF2HdurdPrYrAs64q5O3EE6UyghykWvgeYpxgAcaipmfrnZTWpN4Jd3V1JLgy_qBu0FpJDStkwmi0]--></g></svg>