<svg xmlns="http://www.w3.org/2000/svg" xmlns:xlink="http://www.w3.org/1999/xlink" contentStyleType="text/css" data-diagram-type="CLASS" height="376px" preserveAspectRatio="none" style="width:318px;height:376px;background:#FFFFFF;" version="1.1" viewBox="0 0 318 376" width="318px" zoomAndPan="magnify"><defs/><g><!--class NasjonalArealplanId--><g class="entity" data-entity="NasjonalArealplanId" data-source-line="1" data-uid="ent0002" id="entity_NasjonalArealplanId"><rect fill="#F1F1F1" height="80.9766" rx="2.5" ry="2.5" style="stroke:#181818;stroke-width:0.5;" width="290.3047" x="14.08" y="131.49"/><ellipse cx="87.1698" cy="147.49" fill="#ADD1B2" rx="11" ry="11" style="stroke:#181818;stroke-width:1;"/><path d="M89.643,153.6331 Q89.0619,153.9319 88.4228,154.0813 Q87.7836,154.2307 87.078,154.2307 Q84.5712,154.2307 83.2514,152.5789 Q81.9316,150.927 81.9316,147.8059 Q81.9316,144.6765 83.2514,143.0247 Q84.5712,141.3728 87.078,141.3728 Q87.7836,141.3728 88.4311,141.5222 Q89.0785,141.6716 89.643,141.9705 L89.643,144.6931 Q89.0121,144.1121 88.4186,143.8423 Q87.8251,143.5725 87.1943,143.5725 Q85.8495,143.5725 85.1647,144.6392 Q84.4799,145.7058 84.4799,147.8059 Q84.4799,149.8977 85.1647,150.9644 Q85.8495,152.031 87.1943,152.031 Q87.8251,152.031 88.4186,151.7612 Q89.0121,151.4915 89.643,150.9104 Z " fill="#000000"/><text fill="#000000" font-family="sans-serif" font-size="14" lengthAdjust="spacing" textLength="135.625" x="107.6698" y="152.781">NasjonalArealplanId</text><line style="stroke:#181818;stroke-width:0.5;" x1="15.08" x2="303.3847" y1="163.49" y2="163.49"/><ellipse cx="25.08" cy="177.2341" fill="none" rx="3" ry="3" style="stroke:#038048;stroke-width:1;"/><text fill="#000000" font-family="sans-serif" font-size="14" lengthAdjust="spacing" textLength="264.3047" x="34.08" y="181.0252">administrativEnhet: AdministrativEnhet</text><ellipse cx="25.08" cy="193.7224" fill="none" rx="3" ry="3" style="stroke:#038048;stroke-width:1;"/><text fill="#000000" font-family="sans-serif" font-size="14" lengthAdjust="spacing" textLength="170.126" x="34.08" y="197.5134">planidentifikasjon: string</text><line style="stroke:#181818;stroke-width:0.5;" x1="15.08" x2="303.3847" y1="204.4666" y2="204.4666"/></g><!--class AdministrativEnhet--><g class="entity" data-entity="AdministrativEnhet" data-source-line="6" data-uid="ent0003" id="entity_AdministrativEnhet"><rect fill="#F1F1F1" height="97.4648" rx="2.5" ry="2.5" style="stroke:#181818;stroke-width:0.5;" width="160.6865" x="78.88" y="272.47"/><ellipse cx="93.88" cy="288.47" fill="#EB937F" rx="11" ry="11" style="stroke:#181818;stroke-width:1;"/><path d="M97.4943,294.97 L89.7745,294.97 L89.7745,282.5769 L97.4943,282.5769 L97.4943,284.7351 L92.2233,284.7351 L92.2233,287.408 L96.9962,287.408 L96.9962,289.5662 L92.2233,289.5662 L92.2233,292.8118 L97.4943,292.8118 Z " fill="#000000"/><text fill="#000000" font-family="sans-serif" font-size="14" lengthAdjust="spacing" textLength="128.6865" x="107.88" y="293.761">AdministrativEnhet</text><line style="stroke:#181818;stroke-width:0.5;" x1="79.88" x2="238.5665" y1="304.47" y2="304.47"/><text fill="#000000" font-family="sans-serif" font-size="14" lengthAdjust="spacing" textLength="125.1455" x="84.88" y="322.0052">kommunenummer</text><text fill="#000000" font-family="sans-serif" font-size="14" lengthAdjust="spacing" textLength="96.6738" x="84.88" y="338.4934">fylkesnummer</text><text fill="#000000" font-family="sans-serif" font-size="14" lengthAdjust="spacing" textLength="69.8086" x="84.88" y="354.9817">landskode</text><line style="stroke:#181818;stroke-width:0.5;" x1="79.88" x2="238.5665" y1="361.9348" y2="361.9348"/></g><!--class HentGjeldendePlandokumenter--><g class="entity" data-entity="HentGjeldendePlandokumenter" data-source-line="3" data-uid="ent0005" id="entity_HentGjeldendePlandokumenter"><rect fill="#F1F1F1" height="64.4883" rx="2.5" ry="2.5" style="stroke:#181818;stroke-width:0.5;" width="304.4551" x="7" y="7"/><ellipse cx="49.6741" cy="23" fill="#ADD1B2" rx="11" ry="11" style="stroke:#181818;stroke-width:1;"/><path d="M52.1473,29.1431 Q51.5662,29.4419 50.9271,29.5913 Q50.2879,29.7407 49.5823,29.7407 Q47.0755,29.7407 45.7557,28.0889 Q44.4358,26.437 44.4358,23.3159 Q44.4358,20.1865 45.7557,18.5347 Q47.0755,16.8828 49.5823,16.8828 Q50.2879,16.8828 50.9354,17.0322 Q51.5828,17.1816 52.1473,17.4805 L52.1473,20.2031 Q51.5164,19.6221 50.9229,19.3523 Q50.3294,19.0825 49.6985,19.0825 Q48.3538,19.0825 47.669,20.1492 Q46.9842,21.2158 46.9842,23.3159 Q46.9842,25.4077 47.669,26.4744 Q48.3538,27.541 49.6985,27.541 Q50.3294,27.541 50.9229,27.2712 Q51.5164,27.0015 52.1473,26.4204 Z " fill="#000000"/><text fill="#000000" font-family="sans-serif" font-size="14" lengthAdjust="spacing" textLength="210.957" x="69.8239" y="28.291">HentGjeldendePlandokumenter</text><line style="stroke:#181818;stroke-width:0.5;" x1="8" x2="310.4551" y1="39" y2="39"/><ellipse cx="18" cy="52.7441" fill="none" rx="3" ry="3" style="stroke:#038048;stroke-width:1;"/><text fill="#000000" font-family="sans-serif" font-size="14" lengthAdjust="spacing" textLength="278.4551" x="27" y="56.5352">nasjonalArealplanId: NasjonalArealplanId</text><line style="stroke:#181818;stroke-width:0.5;" x1="8" x2="310.4551" y1="63.4883" y2="63.4883"/></g><!--link NasjonalArealplanId to AdministrativEnhet--><g class="link" data-entity-1="NasjonalArealplanId" data-entity-2="AdministrativEnhet" data-source-line="6" data-uid="lnk4" id="link_NasjonalArealplanId_AdministrativEnhet"><path codeLine="6" d="M159.23,212.82 C159.23,231.13 159.23,252.99 159.23,272.2" fill="none" id="NasjonalArealplanId-AdministrativEnhet" style="stroke:#181818;stroke-width:1;"/></g><!--link HentGjeldendePlandokumenter to NasjonalArealplanId--><g class="link" data-entity-1="HentGjeldendePlandokumenter" data-entity-2="NasjonalArealplanId" data-source-line="7" data-uid="lnk6" id="link_HentGjeldendePlandokumenter_NasjonalArealplanId"><path codeLine="7" d="M159.23,71.89 C159.23,89.73 159.23,112.17 159.23,131.19" fill="none" id="HentGjeldendePlandokumenter-NasjonalArealplanId" style="stroke:#181818;stroke-width:1;"/></g><!--SRC=[VOon3i8m34HtVuMPKHs9iHiJi21-mQfTAQrngePqGVmxwT29YXjkUATxX-YT5L6aG1GyqPYfZxKcOwVbHBsQQIRdF2HdurdPrYrAs64q5O3EE6UyghykWvgeYpxgAcaipmfrnZTWpN4Jd3V1JLgy_qBu0FpJDStkwmi0]--></g></svg>