<?xml version="1.0" encoding="us-ascii" standalone="no"?><svg xmlns="http://www.w3.org/2000/svg" xmlns:xlink="http://www.w3.org/1999/xlink" contentStyleType="text/css" height="334px" preserveAspectRatio="none" style="width:1849px;height:334px;background:#FFFFFF;" version="1.1" viewBox="0 0 1849 334" width="1849px" zoomAndPan="magnify"><defs/><g><!--class OppdaterArealplan--><g id="elem_OppdaterArealplan"><rect codeLine="2" fill="#F1F1F1" height="179.9063" id="OppdaterArealplan" rx="2.5" ry="2.5" style="stroke:#181818;stroke-width:0.5;" width="309" x="548" y="7"/><ellipse cx="632.75" cy="23" fill="#ADD1B2" rx="11" ry="11" style="stroke:#181818;stroke-width:1.0;"/><path d="M635.2231,29.1431 Q634.6421,29.4419 634.0029,29.5913 Q633.3638,29.7407 632.6582,29.7407 Q630.1514,29.7407 628.8315,28.0889 Q627.5117,26.437 627.5117,23.3159 Q627.5117,20.1865 628.8315,18.5347 Q630.1514,16.8828 632.6582,16.8828 Q633.3638,16.8828 634.0112,17.0322 Q634.6587,17.1816 635.2231,17.4805 L635.2231,20.2031 Q634.5923,19.6221 633.9988,19.3523 Q633.4053,19.0825 632.7744,19.0825 Q631.4297,19.0825 630.7449,20.1492 Q630.0601,21.2158 630.0601,23.3159 Q630.0601,25.4077 630.7449,26.4744 Q631.4297,27.541 632.7744,27.541 Q633.4053,27.541 633.9988,27.2712 Q634.5923,27.0015 635.2231,26.4204 Z " fill="#000000"/><text fill="#000000" font-family="sans-serif" font-size="14" lengthAdjust="spacing" textLength="131" x="653.25" y="28.291">OppdaterArealplan</text><line style="stroke:#181818;stroke-width:0.5;" x1="549" x2="856" y1="39" y2="39"/><ellipse cx="559" cy="52.7441" fill="none" rx="3" ry="3" style="stroke:#038048;stroke-width:1.0;"/><text fill="#000000" font-family="sans-serif" font-size="14" lengthAdjust="spacing" textLength="283" x="568" y="56.5352">nasjonalArealplanId: NasjonalArealplanId</text><ellipse cx="559" cy="69.2324" fill="none" rx="3" ry="3" style="stroke:#038048;stroke-width:1.0;"/><text fill="#000000" font-family="sans-serif" font-size="14" lengthAdjust="spacing" textLength="111" x="568" y="73.0234">plannavn: string</text><ellipse cx="559" cy="85.7207" fill="none" rx="3" ry="3" style="stroke:#038048;stroke-width:1.0;"/><text fill="#000000" font-family="sans-serif" font-size="14" lengthAdjust="spacing" textLength="102" x="568" y="89.5117">plantype: Kode</text><ellipse cx="559" cy="102.209" fill="none" rx="3" ry="3" style="stroke:#038048;stroke-width:1.0;"/><text fill="#000000" font-family="sans-serif" font-size="14" lengthAdjust="spacing" textLength="114" x="568" y="106">planstatus: Kode</text><ellipse cx="559" cy="118.6973" fill="none" rx="3" ry="3" style="stroke:#038048;stroke-width:1.0;"/><text fill="#000000" font-family="sans-serif" font-size="14" lengthAdjust="spacing" textLength="128" x="568" y="122.4883">lovreferanse: Kode</text><ellipse cx="559" cy="135.1855" fill="none" rx="3" ry="3" style="stroke:#038048;stroke-width:1.0;"/><text fill="#000000" font-family="sans-serif" font-size="14" lengthAdjust="spacing" textLength="185" x="568" y="138.9766">saksnummer: Saksnummer</text><ellipse cx="559" cy="151.6738" fill="none" rx="3" ry="3" style="stroke:#038048;stroke-width:1.0;"/><text fill="#000000" font-family="sans-serif" font-size="14" lengthAdjust="spacing" textLength="158" x="568" y="155.4648">forslagstillertype: Kode</text><ellipse cx="559" cy="168.1621" fill="none" rx="3" ry="3" style="stroke:#038048;stroke-width:1.0;"/><text fill="#000000" font-family="sans-serif" font-size="14" lengthAdjust="spacing" textLength="143" x="568" y="171.9531">vedlegg: Dokument[]</text><line style="stroke:#181818;stroke-width:0.5;" x1="549" x2="856" y1="178.9063" y2="178.9063"/></g><!--class Kode--><g id="elem_Kode"><rect codeLine="13" fill="#F1F1F1" height="80.9766" id="Kode" rx="2.5" ry="2.5" style="stroke:#181818;stroke-width:0.5;" width="184" x="610.5" y="246.9"/><ellipse cx="680.75" cy="262.9" fill="#ADD1B2" rx="11" ry="11" style="stroke:#181818;stroke-width:1.0;"/><path d="M683.2231,269.0431 Q682.6421,269.3419 682.0029,269.4913 Q681.3638,269.6407 680.6582,269.6407 Q678.1514,269.6407 676.8315,267.9889 Q675.5117,266.337 675.5117,263.2159 Q675.5117,260.0865 676.8315,258.4347 Q678.1514,256.7828 680.6582,256.7828 Q681.3638,256.7828 682.0112,256.9322 Q682.6587,257.0816 683.2231,257.3805 L683.2231,260.1031 Q682.5923,259.5221 681.9988,259.2523 Q681.4053,258.9825 680.7744,258.9825 Q679.4297,258.9825 678.7449,260.0492 Q678.0601,261.1158 678.0601,263.2159 Q678.0601,265.3077 678.7449,266.3744 Q679.4297,267.441 680.7744,267.441 Q681.4053,267.441 681.9988,267.1712 Q682.5923,266.9015 683.2231,266.3204 Z " fill="#000000"/><text fill="#000000" font-family="sans-serif" font-size="14" lengthAdjust="spacing" textLength="35" x="701.25" y="268.191">Kode</text><line style="stroke:#181818;stroke-width:0.5;" x1="611.5" x2="793.5" y1="278.9" y2="278.9"/><ellipse cx="621.5" cy="292.6441" fill="none" rx="3" ry="3" style="stroke:#038048;stroke-width:1.0;"/><text fill="#000000" font-family="sans-serif" font-size="14" lengthAdjust="spacing" textLength="116" x="630.5" y="296.4352">kodeverdi: string</text><ellipse cx="621.5" cy="309.1324" fill="none" rx="3" ry="3" style="stroke:#038048;stroke-width:1.0;"/><text fill="#000000" font-family="sans-serif" font-size="14" lengthAdjust="spacing" textLength="158" x="630.5" y="312.9234">kodebeskrivelse: string</text><line style="stroke:#181818;stroke-width:0.5;" x1="611.5" x2="793.5" y1="319.8766" y2="319.8766"/></g><!--class NasjonalArealplanId--><g id="elem_NasjonalArealplanId"><rect fill="#F1F1F1" height="48" id="NasjonalArealplanId" rx="2.5" ry="2.5" style="stroke:#181818;stroke-width:0.5;" width="170" x="290.5" y="263.39"/><ellipse cx="305.5" cy="279.39" fill="#ADD1B2" rx="11" ry="11" style="stroke:#181818;stroke-width:1.0;"/><path d="M307.9731,285.5331 Q307.3921,285.8319 306.7529,285.9813 Q306.1138,286.1307 305.4082,286.1307 Q302.9014,286.1307 301.5815,284.4789 Q300.2617,282.827 300.2617,279.7059 Q300.2617,276.5765 301.5815,274.9247 Q302.9014,273.2728 305.4082,273.2728 Q306.1138,273.2728 306.7612,273.4222 Q307.4087,273.5716 307.9731,273.8705 L307.9731,276.5931 Q307.3423,276.0121 306.7488,275.7423 Q306.1553,275.4725 305.5244,275.4725 Q304.1797,275.4725 303.4949,276.5392 Q302.8101,277.6058 302.8101,279.7059 Q302.8101,281.7977 303.4949,282.8644 Q304.1797,283.931 305.5244,283.931 Q306.1553,283.931 306.7488,283.6612 Q307.3423,283.3915 307.9731,282.8104 Z " fill="#000000"/><text fill="#000000" font-family="sans-serif" font-size="14" lengthAdjust="spacing" textLength="138" x="319.5" y="284.681">NasjonalArealplanId</text><line style="stroke:#181818;stroke-width:0.5;" x1="291.5" x2="459.5" y1="295.39" y2="295.39"/><line style="stroke:#181818;stroke-width:0.5;" x1="291.5" x2="459.5" y1="303.39" y2="303.39"/></g><!--class Saksnummer--><g id="elem_Saksnummer"><rect fill="#F1F1F1" height="48" id="Saksnummer" rx="2.5" ry="2.5" style="stroke:#181818;stroke-width:0.5;" width="121" x="947" y="263.39"/><ellipse cx="962" cy="279.39" fill="#ADD1B2" rx="11" ry="11" style="stroke:#181818;stroke-width:1.0;"/><path d="M964.4731,285.5331 Q963.8921,285.8319 963.2529,285.9813 Q962.6138,286.1307 961.9082,286.1307 Q959.4014,286.1307 958.0815,284.4789 Q956.7617,282.827 956.7617,279.7059 Q956.7617,276.5765 958.0815,274.9247 Q959.4014,273.2728 961.9082,273.2728 Q962.6138,273.2728 963.2612,273.4222 Q963.9087,273.5716 964.4731,273.8705 L964.4731,276.5931 Q963.8423,276.0121 963.2488,275.7423 Q962.6553,275.4725 962.0244,275.4725 Q960.6797,275.4725 959.9949,276.5392 Q959.3101,277.6058 959.3101,279.7059 Q959.3101,281.7977 959.9949,282.8644 Q960.6797,283.931 962.0244,283.931 Q962.6553,283.931 963.2488,283.6612 Q963.8423,283.3915 964.4731,282.8104 Z " fill="#000000"/><text fill="#000000" font-family="sans-serif" font-size="14" lengthAdjust="spacing" textLength="89" x="976" y="284.681">Saksnummer</text><line style="stroke:#181818;stroke-width:0.5;" x1="948" x2="1067" y1="295.39" y2="295.39"/><line style="stroke:#181818;stroke-width:0.5;" x1="948" x2="1067" y1="303.39" y2="303.39"/></g><!--class Dokument--><g id="elem_Dokument"><rect fill="#F1F1F1" height="48" id="Dokument" rx="2.5" ry="2.5" style="stroke:#181818;stroke-width:0.5;" width="103" x="1334" y="263.39"/><ellipse cx="1349" cy="279.39" fill="#ADD1B2" rx="11" ry="11" style="stroke:#181818;stroke-width:1.0;"/><path d="M1351.4731,285.5331 Q1350.8921,285.8319 1350.2529,285.9813 Q1349.6138,286.1307 1348.9082,286.1307 Q1346.4014,286.1307 1345.0815,284.4789 Q1343.7617,282.827 1343.7617,279.7059 Q1343.7617,276.5765 1345.0815,274.9247 Q1346.4014,273.2728 1348.9082,273.2728 Q1349.6138,273.2728 1350.2612,273.4222 Q1350.9087,273.5716 1351.4731,273.8705 L1351.4731,276.5931 Q1350.8423,276.0121 1350.2488,275.7423 Q1349.6553,275.4725 1349.0244,275.4725 Q1347.6797,275.4725 1346.9949,276.5392 Q1346.3101,277.6058 1346.3101,279.7059 Q1346.3101,281.7977 1346.9949,282.8644 Q1347.6797,283.931 1349.0244,283.931 Q1349.6553,283.931 1350.2488,283.6612 Q1350.8423,283.3915 1351.4731,282.8104 Z " fill="#000000"/><text fill="#000000" font-family="sans-serif" font-size="14" lengthAdjust="spacing" textLength="71" x="1363" y="284.681">Dokument</text><line style="stroke:#181818;stroke-width:0.5;" x1="1335" x2="1436" y1="295.39" y2="295.39"/><line style="stroke:#181818;stroke-width:0.5;" x1="1335" x2="1436" y1="303.39" y2="303.39"/></g><g id="elem_GMN11"><path d="M6,84.3 L6,109.6105 A0,0 0 0 0 6,109.6105 L262.93,109.6105 L361.16,263.1 L270.93,109.6105 L513,109.6105 A0,0 0 0 0 513,109.6105 L513,94.3 L503,84.3 L6,84.3 A0,0 0 0 0 6,84.3 " fill="#FEFFDD" style="stroke:#181818;stroke-width:0.5;"/><path d="M503,84.3 L503,94.3 L513,94.3 L503,84.3 " fill="#FEFFDD" style="stroke:#181818;stroke-width:0.5;"/><text fill="#000000" font-family="sans-serif" font-size="13" lengthAdjust="spacing" textLength="486" x="12" y="101.8684">Se detaljer i diagram for skjema 'no.ks.fiks.plan.v2.felles.nasjonalarealplanid'</text></g><g id="elem_GMN14"><path d="M892.5,84.3 L892.5,109.6105 A0,0 0 0 0 892.5,109.6105 L1113.94,109.6105 L1022.08,263.1 L1121.94,109.6105 L1358.5,109.6105 A0,0 0 0 0 1358.5,109.6105 L1358.5,94.3 L1348.5,84.3 L892.5,84.3 A0,0 0 0 0 892.5,84.3 " fill="#FEFFDD" style="stroke:#181818;stroke-width:0.5;"/><path d="M1348.5,84.3 L1348.5,94.3 L1358.5,94.3 L1348.5,84.3 " fill="#FEFFDD" style="stroke:#181818;stroke-width:0.5;"/><text fill="#000000" font-family="sans-serif" font-size="13" lengthAdjust="spacing" textLength="445" x="898.5" y="101.8684">Se detaljer i diagram for skjema 'no.ks.fiks.plan.v2.felles.saksnummer'</text></g><g id="elem_GMN17"><path d="M1393,84.3 L1393,109.6105 A0,0 0 0 0 1393,109.6105 L1598.63,109.6105 L1414.17,263.1 L1606.63,109.6105 L1842,109.6105 A0,0 0 0 0 1842,109.6105 L1842,94.3 L1832,84.3 L1393,84.3 A0,0 0 0 0 1393,84.3 " fill="#FEFFDD" style="stroke:#181818;stroke-width:0.5;"/><path d="M1832,84.3 L1832,94.3 L1842,94.3 L1832,84.3 " fill="#FEFFDD" style="stroke:#181818;stroke-width:0.5;"/><text fill="#000000" font-family="sans-serif" font-size="13" lengthAdjust="spacing" textLength="428" x="1399" y="101.8684">Se detaljer i diagram for skjema 'no.ks.fiks.plan.v2.felles.dokument'</text></g><!--link OppdaterArealplan to NasjonalArealplanId--><g id="link_OppdaterArealplan_NasjonalArealplanId"><path codeLine="18" d="M547.62,187.2 C499.09,215.17 449.54,243.73 416.14,262.97 " fill="none" id="OppdaterArealplan-NasjonalArealplanId" style="stroke:#181818;stroke-width:1.0;"/></g><!--link OppdaterArealplan to Kode--><g id="link_OppdaterArealplan_Kode"><path codeLine="19" d="M702.5,187.2 C702.5,208.13 702.5,229.39 702.5,246.83 " fill="none" id="OppdaterArealplan-Kode" style="stroke:#181818;stroke-width:1.0;"/></g><!--link OppdaterArealplan to Saksnummer--><g id="link_OppdaterArealplan_Saksnummer"><path codeLine="20" d="M846.96,187.2 C892.23,215.17 938.44,243.73 969.59,262.97 " fill="none" id="OppdaterArealplan-Saksnummer" style="stroke:#181818;stroke-width:1.0;"/></g><!--link OppdaterArealplan to Dokument--><g id="link_OppdaterArealplan_Dokument"><path codeLine="21" d="M857.19,180.1 C863.32,182.52 869.44,184.8 875.5,186.9 C1037.44,243.06 1239.93,270.66 1333.58,281.16 " fill="none" id="OppdaterArealplan-Dokument" style="stroke:#181818;stroke-width:1.0;"/></g><!--SRC=[fL4nRiCm3Dpr2cuUYdZewAr0bw90EtGCEh0HRSYI9O6K1HH5_ruvYUEuyHOD0d57yNYdWqCHU8zHOo9-Oa8N7NhuKL3EWqVfWqTt8Lvq0s-tuAbxgZrctu0aDhvRqFGTgO7Ne6d1964QvHfr8JErn8LRTGjQyUCm43VmSQbFN1jO77QIZ7F4_tKoQKTTry1piED0Fkq_rQzIXwFhgMqsQakTYRLPxpx1NoIMJIOtBNKcoupRp7QxpMWs6uyhRZ9N1ZVvsObIFYI252A4TaiOIbW4cXAwdXWCQ8CTum0bCX3Rqu1G-L1RgLjJhkbLdH_hbagIKizVZ_D4ewkLvBBedKhBzwu5PgTtZjVdCPNw0m00]--></g></svg>