<svg xmlns="http://www.w3.org/2000/svg" xmlns:xlink="http://www.w3.org/1999/xlink" contentStyleType="text/css" data-diagram-type="CLASS" height="765px" preserveAspectRatio="none" style="width:2322px;height:765px;background:#FFFFFF;" version="1.1" viewBox="0 0 2322 765" width="2322px" zoomAndPan="magnify"><defs/><g><!--class NasjonalArealplanId--><g class="entity" data-entity="NasjonalArealplanId" data-source-line="1" data-uid="ent0002" id="entity_NasjonalArealplanId"><rect fill="#F1F1F1" height="80.9766" rx="2.5" ry="2.5" style="stroke:#181818;stroke-width:0.5;" width="290.3047" x="7" y="486.81"/><ellipse cx="80.0898" cy="502.81" fill="#ADD1B2" rx="11" ry="11" style="stroke:#181818;stroke-width:1;"/><path d="M82.563,508.9531 Q81.9819,509.2519 81.3428,509.4013 Q80.7036,509.5507 79.998,509.5507 Q77.4912,509.5507 76.1714,507.8989 Q74.8516,506.247 74.8516,503.1259 Q74.8516,499.9965 76.1714,498.3447 Q77.4912,496.6928 79.998,496.6928 Q80.7036,496.6928 81.3511,496.8422 Q81.9985,496.9916 82.563,497.2905 L82.563,500.0131 Q81.9321,499.4321 81.3386,499.1623 Q80.7451,498.8925 80.1143,498.8925 Q78.7695,498.8925 78.0847,499.9592 Q77.3999,501.0258 77.3999,503.1259 Q77.3999,505.2177 78.0847,506.2844 Q78.7695,507.351 80.1143,507.351 Q80.7451,507.351 81.3386,507.0812 Q81.9321,506.8115 82.563,506.2304 Z " fill="#000000"/><text fill="#000000" font-family="sans-serif" font-size="14" lengthAdjust="spacing" textLength="135.625" x="100.5898" y="508.101">NasjonalArealplanId</text><line style="stroke:#181818;stroke-width:0.5;" x1="8" x2="296.3047" y1="518.81" y2="518.81"/><ellipse cx="18" cy="532.5541" fill="none" rx="3" ry="3" style="stroke:#038048;stroke-width:1;"/><text fill="#000000" font-family="sans-serif" font-size="14" lengthAdjust="spacing" textLength="264.3047" x="27" y="536.3452">administrativEnhet: AdministrativEnhet</text><ellipse cx="18" cy="549.0424" fill="none" rx="3" ry="3" style="stroke:#038048;stroke-width:1;"/><text fill="#000000" font-family="sans-serif" font-size="14" lengthAdjust="spacing" textLength="170.126" x="27" y="552.8334">planidentifikasjon: string</text><line style="stroke:#181818;stroke-width:0.5;" x1="8" x2="296.3047" y1="559.7866" y2="559.7866"/></g><!--class AdministrativEnhet--><g class="entity" data-entity="AdministrativEnhet" data-source-line="6" data-uid="ent0003" id="entity_AdministrativEnhet"><rect fill="#F1F1F1" height="97.4648" rx="2.5" ry="2.5" style="stroke:#181818;stroke-width:0.5;" width="160.6865" x="71.81" y="660.77"/><ellipse cx="86.81" cy="676.77" fill="#EB937F" rx="11" ry="11" style="stroke:#181818;stroke-width:1;"/><path d="M90.4243,683.27 L82.7045,683.27 L82.7045,670.8769 L90.4243,670.8769 L90.4243,673.0351 L85.1533,673.0351 L85.1533,675.708 L89.9262,675.708 L89.9262,677.8662 L85.1533,677.8662 L85.1533,681.1118 L90.4243,681.1118 Z " fill="#000000"/><text fill="#000000" font-family="sans-serif" font-size="14" lengthAdjust="spacing" textLength="128.6865" x="100.81" y="682.061">AdministrativEnhet</text><line style="stroke:#181818;stroke-width:0.5;" x1="72.81" x2="231.4965" y1="692.77" y2="692.77"/><text fill="#000000" font-family="sans-serif" font-size="14" lengthAdjust="spacing" textLength="125.1455" x="77.81" y="710.3052">kommunenummer</text><text fill="#000000" font-family="sans-serif" font-size="14" lengthAdjust="spacing" textLength="96.6738" x="77.81" y="726.7934">fylkesnummer</text><text fill="#000000" font-family="sans-serif" font-size="14" lengthAdjust="spacing" textLength="69.8086" x="77.81" y="743.2817">landskode</text><line style="stroke:#181818;stroke-width:0.5;" x1="72.81" x2="231.4965" y1="750.2348" y2="750.2348"/></g><!--class Arealplan--><g class="entity" data-entity="Arealplan" data-source-line="4" data-uid="ent0005" id="entity_Arealplan"><rect fill="#F1F1F1" height="245.8594" rx="2.5" ry="2.5" style="stroke:#181818;stroke-width:0.5;" width="304.4551" x="600.92" y="147.98"/><ellipse cx="716.7755" cy="163.98" fill="#ADD1B2" rx="11" ry="11" style="stroke:#181818;stroke-width:1;"/><path d="M719.2486,170.1231 Q718.6676,170.4219 718.0284,170.5713 Q717.3892,170.7207 716.6837,170.7207 Q714.1768,170.7207 712.857,169.0689 Q711.5372,167.417 711.5372,164.2959 Q711.5372,161.1665 712.857,159.5147 Q714.1768,157.8628 716.6837,157.8628 Q717.3892,157.8628 718.0367,158.0122 Q718.6842,158.1616 719.2486,158.4605 L719.2486,161.1831 Q718.6178,160.6021 718.0242,160.3323 Q717.4307,160.0625 716.7999,160.0625 Q715.4552,160.0625 714.7703,161.1292 Q714.0855,162.1958 714.0855,164.2959 Q714.0855,166.3877 714.7703,167.4544 Q715.4552,168.521 716.7999,168.521 Q717.4307,168.521 718.0242,168.2512 Q718.6178,167.9815 719.2486,167.4004 Z " fill="#000000"/><text fill="#000000" font-family="sans-serif" font-size="14" lengthAdjust="spacing" textLength="64.2441" x="737.2755" y="169.271">Arealplan</text><line style="stroke:#181818;stroke-width:0.5;" x1="601.92" x2="904.3751" y1="179.98" y2="179.98"/><ellipse cx="611.92" cy="193.7241" fill="none" rx="3" ry="3" style="stroke:#038048;stroke-width:1;"/><text fill="#000000" font-family="sans-serif" font-size="14" lengthAdjust="spacing" textLength="278.4551" x="620.92" y="197.5152">nasjonalArealplanId: NasjonalArealplanId</text><ellipse cx="611.92" cy="210.2124" fill="none" rx="3" ry="3" style="stroke:#038048;stroke-width:1;"/><text fill="#000000" font-family="sans-serif" font-size="14" lengthAdjust="spacing" textLength="124.667" x="620.92" y="214.0034">plantype: Plantype</text><ellipse cx="611.92" cy="226.7007" fill="none" rx="3" ry="3" style="stroke:#038048;stroke-width:1;"/><text fill="#000000" font-family="sans-serif" font-size="14" lengthAdjust="spacing" textLength="110.0586" x="620.92" y="230.4917">plannavn: string</text><ellipse cx="611.92" cy="243.189" fill="none" rx="3" ry="3" style="stroke:#038048;stroke-width:1;"/><text fill="#000000" font-family="sans-serif" font-size="14" lengthAdjust="spacing" textLength="148.6748" x="620.92" y="246.98">planstatus: Planstatus</text><ellipse cx="611.92" cy="259.6773" fill="none" rx="3" ry="3" style="stroke:#038048;stroke-width:1;"/><text fill="#000000" font-family="sans-serif" font-size="14" lengthAdjust="spacing" textLength="266.9502" x="620.92" y="263.4683">plandokumentasjonOppdatert: boolean</text><ellipse cx="611.92" cy="276.1655" fill="none" rx="3" ry="3" style="stroke:#038048;stroke-width:1;"/><text fill="#000000" font-family="sans-serif" font-size="14" lengthAdjust="spacing" textLength="176.8867" x="620.92" y="279.9566">ubehandletKlage: boolean</text><ellipse cx="611.92" cy="292.6538" fill="none" rx="3" ry="3" style="stroke:#038048;stroke-width:1;"/><text fill="#000000" font-family="sans-serif" font-size="14" lengthAdjust="spacing" textLength="207.5459" x="620.92" y="296.4448">ubehandletInnsigelse: boolean</text><ellipse cx="611.92" cy="309.1421" fill="none" rx="3" ry="3" style="stroke:#038048;stroke-width:1;"/><text fill="#000000" font-family="sans-serif" font-size="14" lengthAdjust="spacing" textLength="120.9619" x="620.92" y="312.9331">vedtaksdato: date</text><ellipse cx="611.92" cy="325.6304" fill="none" rx="3" ry="3" style="stroke:#038048;stroke-width:1;"/><text fill="#000000" font-family="sans-serif" font-size="14" lengthAdjust="spacing" textLength="193.416" x="620.92" y="329.4214">vedtakEndeligPlanDato: date</text><ellipse cx="611.92" cy="342.1187" fill="none" rx="3" ry="3" style="stroke:#038048;stroke-width:1;"/><text fill="#000000" font-family="sans-serif" font-size="14" lengthAdjust="spacing" textLength="179.1836" x="620.92" y="345.9097">lovreferanse: Lovreferanse</text><ellipse cx="611.92" cy="358.607" fill="none" rx="3" ry="3" style="stroke:#038048;stroke-width:1;"/><text fill="#000000" font-family="sans-serif" font-size="14" lengthAdjust="spacing" textLength="247.0986" x="620.92" y="362.398">forslagstillerType: ForslagstillerType</text><ellipse cx="611.92" cy="375.0952" fill="none" rx="3" ry="3" style="stroke:#038048;stroke-width:1;"/><text fill="#000000" font-family="sans-serif" font-size="14" lengthAdjust="spacing" textLength="170.4951" x="620.92" y="378.8863">alternativFinnes: boolean</text><line style="stroke:#181818;stroke-width:0.5;" x1="601.92" x2="904.3751" y1="385.8394" y2="385.8394"/></g><!--class Plantype--><g class="entity" data-entity="Plantype" data-source-line="20" data-uid="ent0007" id="entity_Plantype"><rect fill="#F1F1F1" height="89.5977" rx="2.5" ry="2.5" style="stroke:#181818;stroke-width:0.5;" width="183.5547" x="332.38" y="482.5"/><ellipse cx="391.2238" cy="502.8105" fill="#ADD1B2" rx="11" ry="11" style="stroke:#181818;stroke-width:1;"/><path d="M393.6969,508.9536 Q393.1158,509.2524 392.4767,509.4019 Q391.8375,509.5513 391.132,509.5513 Q388.6251,509.5513 387.3053,507.8994 Q385.9855,506.2476 385.9855,503.1265 Q385.9855,499.9971 387.3053,498.3452 Q388.6251,496.6934 391.132,496.6934 Q391.8375,496.6934 392.485,496.8428 Q393.1324,496.9922 393.6969,497.291 L393.6969,500.0137 Q393.066,499.4326 392.4725,499.1628 Q391.879,498.8931 391.2482,498.8931 Q389.9034,498.8931 389.2186,499.9597 Q388.5338,501.0264 388.5338,503.1265 Q388.5338,505.2183 389.2186,506.2849 Q389.9034,507.3516 391.2482,507.3516 Q391.879,507.3516 392.4725,507.0818 Q393.066,506.812 393.6969,506.231 Z " fill="#000000"/><text fill="#000000" font-family="sans-serif" font-size="12" font-style="italic" lengthAdjust="spacing" textLength="42.0176" x="419.3986" y="499.1016">&#171;Kode&#187;</text><text fill="#000000" font-family="sans-serif" font-size="14" lengthAdjust="spacing" textLength="57.3672" x="411.7238" y="515.168">Plantype</text><line style="stroke:#181818;stroke-width:0.5;" x1="333.38" x2="514.9347" y1="523.1211" y2="523.1211"/><ellipse cx="343.38" cy="536.8652" fill="none" rx="3" ry="3" style="stroke:#038048;stroke-width:1;"/><text fill="#000000" font-family="sans-serif" font-size="14" lengthAdjust="spacing" textLength="115.4521" x="352.38" y="540.6563">kodeverdi: string</text><ellipse cx="343.38" cy="553.3535" fill="none" rx="3" ry="3" style="stroke:#038048;stroke-width:1;"/><text fill="#000000" font-family="sans-serif" font-size="14" lengthAdjust="spacing" textLength="157.5547" x="352.38" y="557.1445">kodebeskrivelse: string</text><line style="stroke:#181818;stroke-width:0.5;" x1="333.38" x2="514.9347" y1="564.0977" y2="564.0977"/></g><!--class Planstatus--><g class="entity" data-entity="Planstatus" data-source-line="21" data-uid="ent0009" id="entity_Planstatus"><rect fill="#F1F1F1" height="89.5977" rx="2.5" ry="2.5" style="stroke:#181818;stroke-width:0.5;" width="183.5547" x="551.38" y="482.5"/><ellipse cx="604.2218" cy="502.8105" fill="#ADD1B2" rx="11" ry="11" style="stroke:#181818;stroke-width:1;"/><path d="M606.6949,508.9536 Q606.1139,509.2524 605.4747,509.4019 Q604.8356,509.5513 604.13,509.5513 Q601.6232,509.5513 600.3033,507.8994 Q598.9835,506.2476 598.9835,503.1265 Q598.9835,499.9971 600.3033,498.3452 Q601.6232,496.6934 604.13,496.6934 Q604.8356,496.6934 605.483,496.8428 Q606.1305,496.9922 606.6949,497.291 L606.6949,500.0137 Q606.0641,499.4326 605.4706,499.1628 Q604.8771,498.8931 604.2462,498.8931 Q602.9015,498.8931 602.2167,499.9597 Q601.5319,501.0264 601.5319,503.1265 Q601.5319,505.2183 602.2167,506.2849 Q602.9015,507.3516 604.2462,507.3516 Q604.8771,507.3516 605.4706,507.0818 Q606.0641,506.812 606.6949,506.231 Z " fill="#000000"/><text fill="#000000" font-family="sans-serif" font-size="12" font-style="italic" lengthAdjust="spacing" textLength="42.0176" x="638.3986" y="499.1016">&#171;Kode&#187;</text><text fill="#000000" font-family="sans-serif" font-size="14" lengthAdjust="spacing" textLength="69.3711" x="624.7218" y="515.168">Planstatus</text><line style="stroke:#181818;stroke-width:0.5;" x1="552.38" x2="733.9347" y1="523.1211" y2="523.1211"/><ellipse cx="562.38" cy="536.8652" fill="none" rx="3" ry="3" style="stroke:#038048;stroke-width:1;"/><text fill="#000000" font-family="sans-serif" font-size="14" lengthAdjust="spacing" textLength="115.4521" x="571.38" y="540.6563">kodeverdi: string</text><ellipse cx="562.38" cy="553.3535" fill="none" rx="3" ry="3" style="stroke:#038048;stroke-width:1;"/><text fill="#000000" font-family="sans-serif" font-size="14" lengthAdjust="spacing" textLength="157.5547" x="571.38" y="557.1445">kodebeskrivelse: string</text><line style="stroke:#181818;stroke-width:0.5;" x1="552.38" x2="733.9347" y1="564.0977" y2="564.0977"/></g><!--class Lovreferanse--><g class="entity" data-entity="Lovreferanse" data-source-line="22" data-uid="ent0011" id="entity_Lovreferanse"><rect fill="#F1F1F1" height="89.5977" rx="2.5" ry="2.5" style="stroke:#181818;stroke-width:0.5;" width="183.5547" x="770.38" y="482.5"/><ellipse cx="814.4876" cy="502.8105" fill="#ADD1B2" rx="11" ry="11" style="stroke:#181818;stroke-width:1;"/><path d="M816.9608,508.9536 Q816.3797,509.2524 815.7405,509.4019 Q815.1014,509.5513 814.3958,509.5513 Q811.889,509.5513 810.5692,507.8994 Q809.2493,506.2476 809.2493,503.1265 Q809.2493,499.9971 810.5692,498.3452 Q811.889,496.6934 814.3958,496.6934 Q815.1014,496.6934 815.7488,496.8428 Q816.3963,496.9922 816.9608,497.291 L816.9608,500.0137 Q816.3299,499.4326 815.7364,499.1628 Q815.1429,498.8931 814.512,498.8931 Q813.1673,498.8931 812.4825,499.9597 Q811.7977,501.0264 811.7977,503.1265 Q811.7977,505.2183 812.4825,506.2849 Q813.1673,507.3516 814.512,507.3516 Q815.1429,507.3516 815.7364,507.0818 Q816.3299,506.812 816.9608,506.231 Z " fill="#000000"/><text fill="#000000" font-family="sans-serif" font-size="12" font-style="italic" lengthAdjust="spacing" textLength="42.0176" x="857.3827" y="499.1016">&#171;Kode&#187;</text><text fill="#000000" font-family="sans-serif" font-size="14" lengthAdjust="spacing" textLength="86.8711" x="834.956" y="515.168">Lovreferanse</text><line style="stroke:#181818;stroke-width:0.5;" x1="771.38" x2="952.9347" y1="523.1211" y2="523.1211"/><ellipse cx="781.38" cy="536.8652" fill="none" rx="3" ry="3" style="stroke:#038048;stroke-width:1;"/><text fill="#000000" font-family="sans-serif" font-size="14" lengthAdjust="spacing" textLength="115.4521" x="790.38" y="540.6563">kodeverdi: string</text><ellipse cx="781.38" cy="553.3535" fill="none" rx="3" ry="3" style="stroke:#038048;stroke-width:1;"/><text fill="#000000" font-family="sans-serif" font-size="14" lengthAdjust="spacing" textLength="157.5547" x="790.38" y="557.1445">kodebeskrivelse: string</text><line style="stroke:#181818;stroke-width:0.5;" x1="771.38" x2="952.9347" y1="564.0977" y2="564.0977"/></g><!--class ForslagstillerType--><g class="entity" data-entity="ForslagstillerType" data-source-line="23" data-uid="ent0013" id="entity_ForslagstillerType"><rect fill="#F1F1F1" height="89.5977" rx="2.5" ry="2.5" style="stroke:#181818;stroke-width:0.5;" width="183.5547" x="989.38" y="482.5"/><ellipse cx="1018.4451" cy="502.8105" fill="#ADD1B2" rx="11" ry="11" style="stroke:#181818;stroke-width:1;"/><path d="M1020.9183,508.9536 Q1020.3372,509.2524 1019.6981,509.4019 Q1019.0589,509.5513 1018.3533,509.5513 Q1015.8465,509.5513 1014.5267,507.8994 Q1013.2069,506.2476 1013.2069,503.1265 Q1013.2069,499.9971 1014.5267,498.3452 Q1015.8465,496.6934 1018.3533,496.6934 Q1019.0589,496.6934 1019.7064,496.8428 Q1020.3538,496.9922 1020.9183,497.291 L1020.9183,500.0137 Q1020.2874,499.4326 1019.6939,499.1628 Q1019.1004,498.8931 1018.4696,498.8931 Q1017.1248,498.8931 1016.44,499.9597 Q1015.7552,501.0264 1015.7552,503.1265 Q1015.7552,505.2183 1016.44,506.2849 Q1017.1248,507.3516 1018.4696,507.3516 Q1019.1004,507.3516 1019.6939,507.0818 Q1020.2874,506.812 1020.9183,506.231 Z " fill="#000000"/><text fill="#000000" font-family="sans-serif" font-size="12" font-style="italic" lengthAdjust="spacing" textLength="42.0176" x="1074.7113" y="499.1016">&#171;Kode&#187;</text><text fill="#000000" font-family="sans-serif" font-size="14" lengthAdjust="spacing" textLength="120.2988" x="1035.5707" y="515.168">ForslagstillerType</text><line style="stroke:#181818;stroke-width:0.5;" x1="990.38" x2="1171.9347" y1="523.1211" y2="523.1211"/><ellipse cx="1000.38" cy="536.8652" fill="none" rx="3" ry="3" style="stroke:#038048;stroke-width:1;"/><text fill="#000000" font-family="sans-serif" font-size="14" lengthAdjust="spacing" textLength="115.4521" x="1009.38" y="540.6563">kodeverdi: string</text><ellipse cx="1000.38" cy="553.3535" fill="none" rx="3" ry="3" style="stroke:#038048;stroke-width:1;"/><text fill="#000000" font-family="sans-serif" font-size="14" lengthAdjust="spacing" textLength="157.5547" x="1009.38" y="557.1445">kodebeskrivelse: string</text><line style="stroke:#181818;stroke-width:0.5;" x1="990.38" x2="1171.9347" y1="564.0977" y2="564.0977"/></g><!--class Saksnummer--><g class="entity" data-entity="Saksnummer" data-source-line="2" data-uid="ent0015" id="entity_Saksnummer"><rect fill="#F1F1F1" height="80.9766" rx="2.5" ry="2.5" style="stroke:#181818;stroke-width:0.5;" width="224.1123" x="1208.1" y="486.81"/><ellipse cx="1272.0878" cy="502.81" fill="#ADD1B2" rx="11" ry="11" style="stroke:#181818;stroke-width:1;"/><path d="M1274.5609,508.9531 Q1273.9799,509.2519 1273.3407,509.4013 Q1272.7016,509.5507 1271.996,509.5507 Q1269.4892,509.5507 1268.1693,507.8989 Q1266.8495,506.247 1266.8495,503.1259 Q1266.8495,499.9965 1268.1693,498.3447 Q1269.4892,496.6928 1271.996,496.6928 Q1272.7016,496.6928 1273.349,496.8422 Q1273.9965,496.9916 1274.5609,497.2905 L1274.5609,500.0131 Q1273.9301,499.4321 1273.3366,499.1623 Q1272.7431,498.8925 1272.1122,498.8925 Q1270.7675,498.8925 1270.0827,499.9592 Q1269.3979,501.0258 1269.3979,503.1259 Q1269.3979,505.2177 1270.0827,506.2844 Q1270.7675,507.351 1272.1122,507.351 Q1272.7431,507.351 1273.3366,507.0812 Q1273.9301,506.8115 1274.5609,506.2304 Z " fill="#000000"/><text fill="#000000" font-family="sans-serif" font-size="14" lengthAdjust="spacing" textLength="87.6367" x="1292.5878" y="508.101">Saksnummer</text><line style="stroke:#181818;stroke-width:0.5;" x1="1209.1" x2="1431.2123" y1="518.81" y2="518.81"/><ellipse cx="1219.1" cy="532.5541" fill="none" rx="3" ry="3" style="stroke:#038048;stroke-width:1;"/><text fill="#000000" font-family="sans-serif" font-size="14" lengthAdjust="spacing" textLength="108.2676" x="1228.1" y="536.3452">saksaar: integer</text><ellipse cx="1219.1" cy="549.0424" fill="none" rx="3" ry="3" style="stroke:#038048;stroke-width:1;"/><text fill="#000000" font-family="sans-serif" font-size="14" lengthAdjust="spacing" textLength="198.1123" x="1228.1" y="552.8334">sakssekvensnummer: integer</text><line style="stroke:#181818;stroke-width:0.5;" x1="1209.1" x2="1431.2123" y1="559.7866" y2="559.7866"/></g><!--class Posisjon--><g class="entity" data-entity="Posisjon" data-source-line="1" data-uid="ent0016" id="entity_Posisjon"><rect fill="#F1F1F1" height="97.4648" rx="2.5" ry="2.5" style="stroke:#181818;stroke-width:0.5;" width="262.4551" x="1466.92" y="478.57"/><ellipse cx="1565.795" cy="494.57" fill="#ADD1B2" rx="11" ry="11" style="stroke:#181818;stroke-width:1;"/><path d="M1568.2681,500.7131 Q1567.6871,501.0119 1567.0479,501.1613 Q1566.4088,501.3107 1565.7032,501.3107 Q1563.1964,501.3107 1561.8765,499.6589 Q1560.5567,498.007 1560.5567,494.8859 Q1560.5567,491.7565 1561.8765,490.1047 Q1563.1964,488.4528 1565.7032,488.4528 Q1566.4088,488.4528 1567.0562,488.6022 Q1567.7037,488.7516 1568.2681,489.0505 L1568.2681,491.7731 Q1567.6373,491.1921 1567.0438,490.9223 Q1566.4503,490.6525 1565.8194,490.6525 Q1564.4747,490.6525 1563.7899,491.7192 Q1563.1051,492.7858 1563.1051,494.8859 Q1563.1051,496.9777 1563.7899,498.0444 Q1564.4747,499.111 1565.8194,499.111 Q1566.4503,499.111 1567.0438,498.8412 Q1567.6373,498.5715 1568.2681,497.9904 Z " fill="#000000"/><text fill="#000000" font-family="sans-serif" font-size="14" lengthAdjust="spacing" textLength="56.2051" x="1586.295" y="499.861">Posisjon</text><line style="stroke:#181818;stroke-width:0.5;" x1="1467.92" x2="1728.3751" y1="510.57" y2="510.57"/><ellipse cx="1477.92" cy="524.3141" fill="none" rx="3" ry="3" style="stroke:#038048;stroke-width:1;"/><text fill="#000000" font-family="sans-serif" font-size="14" lengthAdjust="spacing" textLength="127.0049" x="1486.92" y="528.1052">type: PosisjonType</text><ellipse cx="1477.92" cy="540.8024" fill="none" rx="3" ry="3" style="stroke:#038048;stroke-width:1;"/><text fill="#000000" font-family="sans-serif" font-size="14" lengthAdjust="spacing" textLength="149.9053" x="1486.92" y="544.5934">koordinater: number[]</text><ellipse cx="1477.92" cy="557.2907" fill="none" rx="3" ry="3" style="stroke:#038048;stroke-width:1;"/><text fill="#000000" font-family="sans-serif" font-size="14" lengthAdjust="spacing" textLength="236.4551" x="1486.92" y="561.0817">koordinatsystem: Koordinatsystem</text><line style="stroke:#181818;stroke-width:0.5;" x1="1467.92" x2="1728.3751" y1="568.0348" y2="568.0348"/></g><!--class Koordinatsystem--><g class="entity" data-entity="Koordinatsystem" data-source-line="7" data-uid="ent0017" id="entity_Koordinatsystem"><rect fill="#F1F1F1" height="89.5977" rx="2.5" ry="2.5" style="stroke:#181818;stroke-width:0.5;" width="183.5547" x="1355.38" y="664.7"/><ellipse cx="1387.1552" cy="685.0105" fill="#ADD1B2" rx="11" ry="11" style="stroke:#181818;stroke-width:1;"/><path d="M1389.6284,691.1536 Q1389.0473,691.4524 1388.4082,691.6019 Q1387.769,691.7513 1387.0634,691.7513 Q1384.5566,691.7513 1383.2368,690.0994 Q1381.917,688.4476 1381.917,685.3265 Q1381.917,682.1971 1383.2368,680.5452 Q1384.5566,678.8934 1387.0634,678.8934 Q1387.769,678.8934 1388.4165,679.0428 Q1389.0639,679.1922 1389.6284,679.491 L1389.6284,682.2137 Q1388.9975,681.6326 1388.404,681.3628 Q1387.8105,681.0931 1387.1797,681.0931 Q1385.8349,681.0931 1385.1501,682.1597 Q1384.4653,683.2264 1384.4653,685.3265 Q1384.4653,687.4183 1385.1501,688.4849 Q1385.8349,689.5516 1387.1797,689.5516 Q1387.8105,689.5516 1388.404,689.2818 Q1388.9975,689.012 1389.6284,688.431 Z " fill="#000000"/><text fill="#000000" font-family="sans-serif" font-size="12" font-style="italic" lengthAdjust="spacing" textLength="42.0176" x="1441.0125" y="681.3016">&#171;Kode&#187;</text><text fill="#000000" font-family="sans-serif" font-size="14" lengthAdjust="spacing" textLength="114.2764" x="1404.8831" y="697.368">Koordinatsystem</text><line style="stroke:#181818;stroke-width:0.5;" x1="1356.38" x2="1537.9347" y1="705.3211" y2="705.3211"/><ellipse cx="1366.38" cy="719.0652" fill="none" rx="3" ry="3" style="stroke:#038048;stroke-width:1;"/><text fill="#000000" font-family="sans-serif" font-size="14" lengthAdjust="spacing" textLength="115.4521" x="1375.38" y="722.8563">kodeverdi: string</text><ellipse cx="1366.38" cy="735.5535" fill="none" rx="3" ry="3" style="stroke:#038048;stroke-width:1;"/><text fill="#000000" font-family="sans-serif" font-size="14" lengthAdjust="spacing" textLength="157.5547" x="1375.38" y="739.3445">kodebeskrivelse: string</text><line style="stroke:#181818;stroke-width:0.5;" x1="1356.38" x2="1537.9347" y1="746.2977" y2="746.2977"/></g><!--class PosisjonType--><g class="entity" data-entity="PosisjonType" data-source-line="8" data-uid="ent0019" id="entity_PosisjonType"><rect fill="#F1F1F1" height="64.4883" rx="2.5" ry="2.5" style="stroke:#181818;stroke-width:0.5;" width="120.9834" x="1573.66" y="677.25"/><ellipse cx="1588.66" cy="693.25" fill="#EB937F" rx="11" ry="11" style="stroke:#181818;stroke-width:1;"/><path d="M1592.2743,699.75 L1584.5545,699.75 L1584.5545,687.3569 L1592.2743,687.3569 L1592.2743,689.5151 L1587.0033,689.5151 L1587.0033,692.188 L1591.7762,692.188 L1591.7762,694.3462 L1587.0033,694.3462 L1587.0033,697.5918 L1592.2743,697.5918 Z " fill="#000000"/><text fill="#000000" font-family="sans-serif" font-size="14" lengthAdjust="spacing" textLength="88.9834" x="1602.66" y="698.541">PosisjonType</text><line style="stroke:#181818;stroke-width:0.5;" x1="1574.66" x2="1693.6434" y1="709.25" y2="709.25"/><text fill="#000000" font-family="sans-serif" font-size="14" lengthAdjust="spacing" textLength="34.3096" x="1579.66" y="726.7852">Point</text><line style="stroke:#181818;stroke-width:0.5;" x1="1574.66" x2="1693.6434" y1="733.7383" y2="733.7383"/></g><!--class Dokument--><g class="entity" data-entity="Dokument" data-source-line="1" data-uid="ent0021" id="entity_Dokument"><rect fill="#F1F1F1" height="146.9297" rx="2.5" ry="2.5" style="stroke:#181818;stroke-width:0.5;" width="333.0908" x="1764.61" y="453.84"/><ellipse cx="1891.5294" cy="469.84" fill="#ADD1B2" rx="11" ry="11" style="stroke:#181818;stroke-width:1;"/><path d="M1894.0026,475.9831 Q1893.4215,476.2819 1892.7824,476.4313 Q1892.1432,476.5807 1891.4376,476.5807 Q1888.9308,476.5807 1887.611,474.9289 Q1886.2912,473.277 1886.2912,470.1559 Q1886.2912,467.0265 1887.611,465.3747 Q1888.9308,463.7228 1891.4376,463.7228 Q1892.1432,463.7228 1892.7907,463.8722 Q1893.4381,464.0216 1894.0026,464.3205 L1894.0026,467.0431 Q1893.3717,466.4621 1892.7782,466.1923 Q1892.1847,465.9225 1891.5538,465.9225 Q1890.2091,465.9225 1889.5243,466.9892 Q1888.8395,468.0558 1888.8395,470.1559 Q1888.8395,472.2477 1889.5243,473.3144 Q1890.2091,474.381 1891.5538,474.381 Q1892.1847,474.381 1892.7782,474.1112 Q1893.3717,473.8415 1894.0026,473.2604 Z " fill="#000000"/><text fill="#000000" font-family="sans-serif" font-size="14" lengthAdjust="spacing" textLength="70.752" x="1912.0294" y="475.131">Dokument</text><line style="stroke:#181818;stroke-width:0.5;" x1="1765.61" x2="2096.7008" y1="485.84" y2="485.84"/><ellipse cx="1775.61" cy="499.5841" fill="none" rx="3" ry="3" style="stroke:#038048;stroke-width:1;"/><text fill="#000000" font-family="sans-serif" font-size="14" lengthAdjust="spacing" textLength="80.0283" x="1784.61" y="503.3752">tittel: string</text><ellipse cx="1775.61" cy="516.0724" fill="none" rx="3" ry="3" style="stroke:#038048;stroke-width:1;"/><text fill="#000000" font-family="sans-serif" font-size="14" lengthAdjust="spacing" textLength="207.0127" x="1784.61" y="519.8634">dokumenttype: Dokumenttype</text><ellipse cx="1775.61" cy="532.5607" fill="none" rx="3" ry="3" style="stroke:#038048;stroke-width:1;"/><text fill="#000000" font-family="sans-serif" font-size="14" lengthAdjust="spacing" textLength="307.0908" x="1784.61" y="536.3517">referanseDokumentfil: ReferanseDokumentfil</text><ellipse cx="1775.61" cy="549.049" fill="none" rx="3" ry="3" style="stroke:#038048;stroke-width:1;"/><text fill="#000000" font-family="sans-serif" font-size="14" lengthAdjust="spacing" textLength="115.5752" x="1784.61" y="552.84">mimetype: string</text><ellipse cx="1775.61" cy="565.5373" fill="none" rx="3" ry="3" style="stroke:#038048;stroke-width:1;"/><text fill="#000000" font-family="sans-serif" font-size="14" lengthAdjust="spacing" textLength="145.0313" x="1784.61" y="569.3283">dokumentsdato: date</text><ellipse cx="1775.61" cy="582.0255" fill="none" rx="3" ry="3" style="stroke:#038048;stroke-width:1;"/><text fill="#000000" font-family="sans-serif" font-size="14" lengthAdjust="spacing" textLength="113.7158" x="1784.61" y="585.8166">arkivnavn: string</text><line style="stroke:#181818;stroke-width:0.5;" x1="1765.61" x2="2096.7008" y1="592.7697" y2="592.7697"/></g><!--class Dokumenttype--><g class="entity" data-entity="Dokumenttype" data-source-line="10" data-uid="ent0022" id="entity_Dokumenttype"><rect fill="#F1F1F1" height="89.5977" rx="2.5" ry="2.5" style="stroke:#181818;stroke-width:0.5;" width="183.5547" x="1802.38" y="664.7"/><ellipse cx="1840.6183" cy="685.0105" fill="#ADD1B2" rx="11" ry="11" style="stroke:#181818;stroke-width:1;"/><path d="M1843.0914,691.1536 Q1842.5104,691.4524 1841.8712,691.6019 Q1841.2321,691.7513 1840.5265,691.7513 Q1838.0196,691.7513 1836.6998,690.0994 Q1835.38,688.4476 1835.38,685.3265 Q1835.38,682.1971 1836.6998,680.5452 Q1838.0196,678.8934 1840.5265,678.8934 Q1841.2321,678.8934 1841.8795,679.0428 Q1842.527,679.1922 1843.0914,679.491 L1843.0914,682.2137 Q1842.4606,681.6326 1841.8671,681.3628 Q1841.2736,681.0931 1840.6427,681.0931 Q1839.298,681.0931 1838.6132,682.1597 Q1837.9283,683.2264 1837.9283,685.3265 Q1837.9283,687.4183 1838.6132,688.4849 Q1839.298,689.5516 1840.6427,689.5516 Q1841.2736,689.5516 1841.8671,689.2818 Q1842.4606,689.012 1843.0914,688.431 Z " fill="#000000"/><text fill="#000000" font-family="sans-serif" font-size="12" font-style="italic" lengthAdjust="spacing" textLength="42.0176" x="1888.7306" y="681.3016">&#171;Kode&#187;</text><text fill="#000000" font-family="sans-serif" font-size="14" lengthAdjust="spacing" textLength="99.9141" x="1859.7823" y="697.368">Dokumenttype</text><line style="stroke:#181818;stroke-width:0.5;" x1="1803.38" x2="1984.9347" y1="705.3211" y2="705.3211"/><ellipse cx="1813.38" cy="719.0652" fill="none" rx="3" ry="3" style="stroke:#038048;stroke-width:1;"/><text fill="#000000" font-family="sans-serif" font-size="14" lengthAdjust="spacing" textLength="115.4521" x="1822.38" y="722.8563">kodeverdi: string</text><ellipse cx="1813.38" cy="735.5535" fill="none" rx="3" ry="3" style="stroke:#038048;stroke-width:1;"/><text fill="#000000" font-family="sans-serif" font-size="14" lengthAdjust="spacing" textLength="157.5547" x="1822.38" y="739.3445">kodebeskrivelse: string</text><line style="stroke:#181818;stroke-width:0.5;" x1="1803.38" x2="1984.9347" y1="746.2977" y2="746.2977"/></g><!--class ReferanseDokumentfil--><g class="entity" data-entity="ReferanseDokumentfil" data-source-line="11" data-uid="ent0024" id="entity_ReferanseDokumentfil"><rect fill="#F1F1F1" height="80.9766" rx="2.5" ry="2.5" style="stroke:#181818;stroke-width:0.5;" width="182.6777" x="2020.81" y="669.01"/><ellipse cx="2035.81" cy="685.01" fill="#ADD1B2" rx="11" ry="11" style="stroke:#181818;stroke-width:1;"/><path d="M2038.2831,691.1531 Q2037.7021,691.4519 2037.0629,691.6013 Q2036.4238,691.7507 2035.7182,691.7507 Q2033.2114,691.7507 2031.8915,690.0989 Q2030.5717,688.447 2030.5717,685.3259 Q2030.5717,682.1965 2031.8915,680.5447 Q2033.2114,678.8928 2035.7182,678.8928 Q2036.4238,678.8928 2037.0712,679.0422 Q2037.7187,679.1916 2038.2831,679.4905 L2038.2831,682.2131 Q2037.6523,681.6321 2037.0588,681.3623 Q2036.4653,681.0925 2035.8344,681.0925 Q2034.4897,681.0925 2033.8049,682.1592 Q2033.1201,683.2258 2033.1201,685.3259 Q2033.1201,687.4177 2033.8049,688.4844 Q2034.4897,689.551 2035.8344,689.551 Q2036.4653,689.551 2037.0588,689.2812 Q2037.6523,689.0115 2038.2831,688.4304 Z " fill="#000000"/><text fill="#000000" font-family="sans-serif" font-size="14" lengthAdjust="spacing" textLength="150.6777" x="2049.81" y="690.301">ReferanseDokumentfil</text><line style="stroke:#181818;stroke-width:0.5;" x1="2021.81" x2="2202.4877" y1="701.01" y2="701.01"/><ellipse cx="2031.81" cy="714.7541" fill="none" rx="3" ry="3" style="stroke:#038048;stroke-width:1;"/><text fill="#000000" font-family="sans-serif" font-size="14" lengthAdjust="spacing" textLength="61.2842" x="2040.81" y="718.5452">id: string</text><ellipse cx="2031.81" cy="731.2424" fill="none" rx="3" ry="3" style="stroke:#038048;stroke-width:1;"/><text fill="#000000" font-family="sans-serif" font-size="14" lengthAdjust="spacing" textLength="66.8896" x="2040.81" y="735.0334">url: string</text><line style="stroke:#181818;stroke-width:0.5;" x1="2021.81" x2="2202.4877" y1="741.9866" y2="741.9866"/></g><!--class Planbehandling--><g class="entity" data-entity="Planbehandling" data-source-line="5" data-uid="ent0026" id="entity_Planbehandling"><rect fill="#F1F1F1" height="146.9297" rx="2.5" ry="2.5" style="stroke:#181818;stroke-width:0.5;" width="317.0264" x="1439.64" y="197.44"/><ellipse cx="1541.7792" cy="213.44" fill="#ADD1B2" rx="11" ry="11" style="stroke:#181818;stroke-width:1;"/><path d="M1544.2523,219.5831 Q1543.6713,219.8819 1543.0321,220.0313 Q1542.3929,220.1807 1541.6874,220.1807 Q1539.1805,220.1807 1537.8607,218.5289 Q1536.5409,216.877 1536.5409,213.7559 Q1536.5409,210.6265 1537.8607,208.9747 Q1539.1805,207.3228 1541.6874,207.3228 Q1542.3929,207.3228 1543.0404,207.4722 Q1543.6879,207.6216 1544.2523,207.9205 L1544.2523,210.6431 Q1543.6214,210.0621 1543.0279,209.7923 Q1542.4344,209.5225 1541.8036,209.5225 Q1540.4588,209.5225 1539.774,210.5892 Q1539.0892,211.6558 1539.0892,213.7559 Q1539.0892,215.8477 1539.774,216.9144 Q1540.4588,217.981 1541.8036,217.981 Q1542.4344,217.981 1543.0279,217.7112 Q1543.6214,217.4415 1544.2523,216.8604 Z " fill="#000000"/><text fill="#000000" font-family="sans-serif" font-size="14" lengthAdjust="spacing" textLength="104.248" x="1562.2792" y="218.731">Planbehandling</text><line style="stroke:#181818;stroke-width:0.5;" x1="1440.64" x2="1755.6664" y1="229.44" y2="229.44"/><ellipse cx="1450.64" cy="243.1841" fill="none" rx="3" ry="3" style="stroke:#038048;stroke-width:1;"/><text fill="#000000" font-family="sans-serif" font-size="14" lengthAdjust="spacing" textLength="122.3428" x="1459.64" y="246.9752">posisjon: Posisjon</text><ellipse cx="1450.64" cy="259.6724" fill="none" rx="3" ry="3" style="stroke:#038048;stroke-width:1;"/><text fill="#000000" font-family="sans-serif" font-size="14" lengthAdjust="spacing" textLength="68.8174" x="1459.64" y="263.4634">dato: date</text><ellipse cx="1450.64" cy="276.1607" fill="none" rx="3" ry="3" style="stroke:#038048;stroke-width:1;"/><text fill="#000000" font-family="sans-serif" font-size="14" lengthAdjust="spacing" textLength="183.7295" x="1459.64" y="279.9517">saksnummer: Saksnummer</text><ellipse cx="1450.64" cy="292.649" fill="none" rx="3" ry="3" style="stroke:#038048;stroke-width:1;"/><text fill="#000000" font-family="sans-serif" font-size="14" lengthAdjust="spacing" textLength="291.0264" x="1459.64" y="296.44">planbehandlingstype: Planbehandlingstype</text><ellipse cx="1450.64" cy="309.1373" fill="none" rx="3" ry="3" style="stroke:#038048;stroke-width:1;"/><text fill="#000000" font-family="sans-serif" font-size="14" lengthAdjust="spacing" textLength="80.7803" x="1459.64" y="312.9283">navn: string</text><ellipse cx="1450.64" cy="325.6255" fill="none" rx="3" ry="3" style="stroke:#038048;stroke-width:1;"/><text fill="#000000" font-family="sans-serif" font-size="14" lengthAdjust="spacing" textLength="200.6006" x="1459.64" y="329.4166">plandokumenter: Dokument[]</text><line style="stroke:#181818;stroke-width:0.5;" x1="1440.64" x2="1755.6664" y1="336.3697" y2="336.3697"/></g><!--class Planbehandlingstype--><g class="entity" data-entity="Planbehandlingstype" data-source-line="16" data-uid="ent0029" id="entity_Planbehandlingstype"><rect fill="#F1F1F1" height="89.5977" rx="2.5" ry="2.5" style="stroke:#181818;stroke-width:0.5;" width="183.5547" x="2132.38" y="482.5"/><ellipse cx="2152.3335" cy="502.8105" fill="#ADD1B2" rx="11" ry="11" style="stroke:#181818;stroke-width:1;"/><path d="M2154.8067,508.9536 Q2154.2256,509.2524 2153.5864,509.4019 Q2152.9473,509.5513 2152.2417,509.5513 Q2149.7349,509.5513 2148.4151,507.8994 Q2147.0952,506.2476 2147.0952,503.1265 Q2147.0952,499.9971 2148.4151,498.3452 Q2149.7349,496.6934 2152.2417,496.6934 Q2152.9473,496.6934 2153.5947,496.8428 Q2154.2422,496.9922 2154.8067,497.291 L2154.8067,500.0137 Q2154.1758,499.4326 2153.5823,499.1628 Q2152.9888,498.8931 2152.3579,498.8931 Q2151.0132,498.8931 2150.3284,499.9597 Q2149.6436,501.0264 2149.6436,503.1265 Q2149.6436,505.2183 2150.3284,506.2849 Q2151.0132,507.3516 2152.3579,507.3516 Q2152.9888,507.3516 2153.5823,507.0818 Q2154.1758,506.812 2154.8067,506.231 Z " fill="#000000"/><text fill="#000000" font-family="sans-serif" font-size="12" font-style="italic" lengthAdjust="spacing" textLength="42.0176" x="2216.6989" y="499.1016">&#171;Kode&#187;</text><text fill="#000000" font-family="sans-serif" font-size="14" lengthAdjust="spacing" textLength="140.5469" x="2167.4343" y="515.168">Planbehandlingstype</text><line style="stroke:#181818;stroke-width:0.5;" x1="2133.38" x2="2314.9347" y1="523.1211" y2="523.1211"/><ellipse cx="2143.38" cy="536.8652" fill="none" rx="3" ry="3" style="stroke:#038048;stroke-width:1;"/><text fill="#000000" font-family="sans-serif" font-size="14" lengthAdjust="spacing" textLength="115.4521" x="2152.38" y="540.6563">kodeverdi: string</text><ellipse cx="2143.38" cy="553.3535" fill="none" rx="3" ry="3" style="stroke:#038048;stroke-width:1;"/><text fill="#000000" font-family="sans-serif" font-size="14" lengthAdjust="spacing" textLength="157.5547" x="2152.38" y="557.1445">kodebeskrivelse: string</text><line style="stroke:#181818;stroke-width:0.5;" x1="2133.38" x2="2314.9347" y1="564.0977" y2="564.0977"/></g><!--class HentArealplanResultat--><g class="entity" data-entity="HentArealplanResultat" data-source-line="5" data-uid="ent0032" id="entity_HentArealplanResultat"><rect fill="#F1F1F1" height="80.9766" rx="2.5" ry="2.5" style="stroke:#181818;stroke-width:0.5;" width="267.0625" x="987.62" y="7"/><ellipse cx="1041.4086" cy="23" fill="#ADD1B2" rx="11" ry="11" style="stroke:#181818;stroke-width:1;"/><path d="M1043.8817,29.1431 Q1043.3007,29.4419 1042.6615,29.5913 Q1042.0223,29.7407 1041.3168,29.7407 Q1038.8099,29.7407 1037.4901,28.0889 Q1036.1703,26.437 1036.1703,23.3159 Q1036.1703,20.1865 1037.4901,18.5347 Q1038.8099,16.8828 1041.3168,16.8828 Q1042.0223,16.8828 1042.6698,17.0322 Q1043.3173,17.1816 1043.8817,17.4805 L1043.8817,20.2031 Q1043.2509,19.6221 1042.6574,19.3523 Q1042.0638,19.0825 1041.433,19.0825 Q1040.0883,19.0825 1039.4034,20.1492 Q1038.7186,21.2158 1038.7186,23.3159 Q1038.7186,25.4077 1039.4034,26.4744 Q1040.0883,27.541 1041.433,27.541 Q1042.0638,27.541 1042.6574,27.2712 Q1043.2509,27.0015 1043.8817,26.4204 Z " fill="#000000"/><text fill="#000000" font-family="sans-serif" font-size="14" lengthAdjust="spacing" textLength="150.9854" x="1061.9086" y="28.291">HentArealplanResultat</text><line style="stroke:#181818;stroke-width:0.5;" x1="988.62" x2="1253.6825" y1="39" y2="39"/><ellipse cx="998.62" cy="52.7441" fill="none" rx="3" ry="3" style="stroke:#038048;stroke-width:1;"/><text fill="#000000" font-family="sans-serif" font-size="14" lengthAdjust="spacing" textLength="135.4199" x="1007.62" y="56.5352">arealplan: Arealplan</text><ellipse cx="998.62" cy="69.2324" fill="none" rx="3" ry="3" style="stroke:#038048;stroke-width:1;"/><text fill="#000000" font-family="sans-serif" font-size="14" lengthAdjust="spacing" textLength="241.0625" x="1007.62" y="73.0234">planbehandlinger: Planbehandling[]</text><line style="stroke:#181818;stroke-width:0.5;" x1="988.62" x2="1253.6825" y1="79.9766" y2="79.9766"/></g><!--link NasjonalArealplanId to AdministrativEnhet--><g class="link" data-entity-1="NasjonalArealplanId" data-entity-2="AdministrativEnhet" data-source-line="6" data-uid="lnk4" id="link_NasjonalArealplanId_AdministrativEnhet"><path codeLine="6" d="M152.15,567.85 C152.15,595.09 152.15,631.46 152.15,660.39" fill="none" id="NasjonalArealplanId-AdministrativEnhet" style="stroke:#181818;stroke-width:1;"/></g><!--link Arealplan to NasjonalArealplanId--><g class="link" data-entity-1="Arealplan" data-entity-2="NasjonalArealplanId" data-source-line="19" data-uid="lnk6" id="link_Arealplan_NasjonalArealplanId"><path codeLine="19" d="M600.48,334.24 C516.14,368.95 409.62,413.23 315.15,453.84 C290.97,464.23 264.87,475.71 240.8,486.41" fill="none" id="Arealplan-NasjonalArealplanId" style="stroke:#181818;stroke-width:1;"/></g><!--link Arealplan to Plantype--><g class="link" data-entity-1="Arealplan" data-entity-2="Plantype" data-source-line="20" data-uid="lnk8" id="link_Arealplan_Plantype"><path codeLine="20" d="M600.69,389.79 C558.17,422.68 514.56,456.39 481.33,482.09" fill="none" id="Arealplan-Plantype" style="stroke:#181818;stroke-width:1;"/></g><!--link Arealplan to Planstatus--><g class="link" data-entity-1="Arealplan" data-entity-2="Planstatus" data-source-line="21" data-uid="lnk10" id="link_Arealplan_Planstatus"><path codeLine="21" d="M700.25,394.26 C686.65,425.7 672.89,457.54 662.28,482.07" fill="none" id="Arealplan-Planstatus" style="stroke:#181818;stroke-width:1;"/></g><!--link Arealplan to Lovreferanse--><g class="link" data-entity-1="Arealplan" data-entity-2="Lovreferanse" data-source-line="22" data-uid="lnk12" id="link_Arealplan_Lovreferanse"><path codeLine="22" d="M805.58,394.26 C819.05,425.7 832.69,457.54 843.2,482.07" fill="none" id="Arealplan-Lovreferanse" style="stroke:#181818;stroke-width:1;"/></g><!--link Arealplan to ForslagstillerType--><g class="link" data-entity-1="Arealplan" data-entity-2="ForslagstillerType" data-source-line="23" data-uid="lnk14" id="link_Arealplan_ForslagstillerType"><path codeLine="23" d="M905.63,390.17 C947.96,422.99 991.31,456.62 1024.34,482.24" fill="none" id="Arealplan-ForslagstillerType" style="stroke:#181818;stroke-width:1;"/></g><!--link Posisjon to Koordinatsystem--><g class="link" data-entity-1="Posisjon" data-entity-2="Koordinatsystem" data-source-line="7" data-uid="lnk18" id="link_Posisjon_Koordinatsystem"><path codeLine="7" d="M1558.08,576.12 C1535.1,603.54 1506.46,637.72 1484.04,664.48" fill="none" id="Posisjon-Koordinatsystem" style="stroke:#181818;stroke-width:1;"/></g><!--link Posisjon to PosisjonType--><g class="link" data-entity-1="Posisjon" data-entity-2="PosisjonType" data-source-line="8" data-uid="lnk20" id="link_Posisjon_PosisjonType"><path codeLine="8" d="M1607.71,576.12 C1614.08,608.02 1622.28,649.08 1627.85,676.95" fill="none" id="Posisjon-PosisjonType" style="stroke:#181818;stroke-width:1;"/></g><!--link Dokument to Dokumenttype--><g class="link" data-entity-1="Dokument" data-entity-2="Dokumenttype" data-source-line="10" data-uid="lnk23" id="link_Dokument_Dokumenttype"><path codeLine="10" d="M1916.21,601.07 C1911.82,622.47 1907.15,645.21 1903.24,664.24" fill="none" id="Dokument-Dokumenttype" style="stroke:#181818;stroke-width:1;"/></g><!--link Dokument to ReferanseDokumentfil--><g class="link" data-entity-1="Dokument" data-entity-2="ReferanseDokumentfil" data-source-line="11" data-uid="lnk25" id="link_Dokument_ReferanseDokumentfil"><path codeLine="11" d="M2004.25,601.07 C2027.41,624.13 2052.14,648.75 2072.08,668.6" fill="none" id="Dokument-ReferanseDokumentfil" style="stroke:#181818;stroke-width:1;"/></g><!--link Planbehandling to Posisjon--><g class="link" data-entity-1="Planbehandling" data-entity-2="Posisjon" data-source-line="14" data-uid="lnk27" id="link_Planbehandling_Posisjon"><path codeLine="14" d="M1598.15,344.81 C1598.15,387.68 1598.15,440.68 1598.15,478.32" fill="none" id="Planbehandling-Posisjon" style="stroke:#181818;stroke-width:1;"/></g><!--link Planbehandling to Saksnummer--><g class="link" data-entity-1="Planbehandling" data-entity-2="Saksnummer" data-source-line="15" data-uid="lnk28" id="link_Planbehandling_Saksnummer"><path codeLine="15" d="M1518.49,344.81 C1468.11,390.91 1404.93,448.73 1363.59,486.55" fill="none" id="Planbehandling-Saksnummer" style="stroke:#181818;stroke-width:1;"/></g><!--link Planbehandling to Planbehandlingstype--><g class="link" data-entity-1="Planbehandling" data-entity-2="Planbehandlingstype" data-source-line="16" data-uid="lnk30" id="link_Planbehandling_Planbehandlingstype"><path codeLine="16" d="M1756.98,316.56 C1861.43,348.62 1999.66,396.25 2115.15,453.84 C2131.42,461.95 2148.17,472.07 2163.5,482.15" fill="none" id="Planbehandling-Planbehandlingstype" style="stroke:#181818;stroke-width:1;"/></g><!--link Planbehandling to Dokument--><g class="link" data-entity-1="Planbehandling" data-entity-2="Dokument" data-source-line="17" data-uid="lnk31" id="link_Planbehandling_Dokument"><path codeLine="17" d="M1693.58,344.81 C1738.16,378.87 1791.12,419.33 1835.71,453.39" fill="none" id="Planbehandling-Dokument" style="stroke:#181818;stroke-width:1;"/></g><!--link HentArealplanResultat to Arealplan--><g class="link" data-entity-1="HentArealplanResultat" data-entity-2="Arealplan" data-source-line="10" data-uid="lnk33" id="link_HentArealplanResultat_Arealplan"><path codeLine="10" d="M1054.94,88.33 C1013.24,113.42 957.62,146.88 905.5,178.24" fill="none" id="HentArealplanResultat-Arealplan" style="stroke:#181818;stroke-width:1;"/></g><!--link HentArealplanResultat to Planbehandling--><g class="link" data-entity-1="HentArealplanResultat" data-entity-2="Planbehandling" data-source-line="11" data-uid="lnk34" id="link_HentArealplanResultat_Planbehandling"><path codeLine="11" d="M1207.26,88.46 C1272.33,118.66 1363.45,160.96 1441.35,197.12" fill="none" id="HentArealplanResultat-Planbehandling" style="stroke:#181818;stroke-width:1;"/></g><!--SRC=[ZOqn2y9038Nt_8fqbkR0iPkRexYAGsnJFGonzEwwYF_T5l7mGC4C8Uyb-LxbhTNK2P8ZSdQZQw3UpsrGDfhMr8kg1E9HM1VFvOc61DMVxuiyoOMjKszdLye51Aro2BWLYvjtm5v2qiWHxu1phN9oW_dcjIbvCZQuAvp34Hu0t-5r_K7xULBou0a0]--></g></svg>