<?xml version="1.0" encoding="us-ascii" standalone="no"?><svg xmlns="http://www.w3.org/2000/svg" xmlns:xlink="http://www.w3.org/1999/xlink" contentStyleType="text/css" height="202px" preserveAspectRatio="none" style="width:1280px;height:202px;background:#FFFFFF;" version="1.1" viewBox="0 0 1280 202" width="1280px" zoomAndPan="magnify"><defs/><g><!--class HentArealplanResultat--><g id="elem_HentArealplanResultat"><rect codeLine="2" fill="#F1F1F1" height="80.9766" id="HentArealplanResultat" rx="2.5" ry="2.5" style="stroke:#181818;stroke-width:0.5;" width="273" x="483.5" y="7"/><ellipse cx="539.25" cy="23" fill="#ADD1B2" rx="11" ry="11" style="stroke:#181818;stroke-width:1.0;"/><path d="M541.7231,29.1431 Q541.1421,29.4419 540.5029,29.5913 Q539.8638,29.7407 539.1582,29.7407 Q536.6514,29.7407 535.3315,28.0889 Q534.0117,26.437 534.0117,23.3159 Q534.0117,20.1865 535.3315,18.5347 Q536.6514,16.8828 539.1582,16.8828 Q539.8638,16.8828 540.5112,17.0322 Q541.1587,17.1816 541.7231,17.4805 L541.7231,20.2031 Q541.0923,19.6221 540.4988,19.3523 Q539.9053,19.0825 539.2744,19.0825 Q537.9297,19.0825 537.2449,20.1492 Q536.5601,21.2158 536.5601,23.3159 Q536.5601,25.4077 537.2449,26.4744 Q537.9297,27.541 539.2744,27.541 Q539.9053,27.541 540.4988,27.2712 Q541.0923,27.0015 541.7231,26.4204 Z " fill="#000000"/><text fill="#000000" font-family="sans-serif" font-size="14" lengthAdjust="spacing" textLength="153" x="559.75" y="28.291">HentArealplanResultat</text><line style="stroke:#181818;stroke-width:0.5;" x1="484.5" x2="755.5" y1="39" y2="39"/><ellipse cx="494.5" cy="52.7441" fill="none" rx="3" ry="3" style="stroke:#038048;stroke-width:1.0;"/><text fill="#000000" font-family="sans-serif" font-size="14" lengthAdjust="spacing" textLength="138" x="503.5" y="56.5352">arealplan: Arealplan</text><ellipse cx="494.5" cy="69.2324" fill="none" rx="3" ry="3" style="stroke:#038048;stroke-width:1.0;"/><text fill="#000000" font-family="sans-serif" font-size="14" lengthAdjust="spacing" textLength="247" x="503.5" y="73.0234">planbehandlinger: Planbehandling[]</text><line style="stroke:#181818;stroke-width:0.5;" x1="484.5" x2="755.5" y1="79.9766" y2="79.9766"/></g><!--class Arealplan--><g id="elem_Arealplan"><rect fill="#F1F1F1" height="48" id="Arealplan" rx="2.5" ry="2.5" style="stroke:#181818;stroke-width:0.5;" width="98" x="434" y="147.98"/><ellipse cx="449" cy="163.98" fill="#ADD1B2" rx="11" ry="11" style="stroke:#181818;stroke-width:1.0;"/><path d="M451.4731,170.1231 Q450.8921,170.4219 450.2529,170.5713 Q449.6138,170.7207 448.9082,170.7207 Q446.4014,170.7207 445.0815,169.0689 Q443.7617,167.417 443.7617,164.2959 Q443.7617,161.1665 445.0815,159.5147 Q446.4014,157.8628 448.9082,157.8628 Q449.6138,157.8628 450.2612,158.0122 Q450.9087,158.1616 451.4731,158.4605 L451.4731,161.1831 Q450.8423,160.6021 450.2488,160.3323 Q449.6553,160.0625 449.0244,160.0625 Q447.6797,160.0625 446.9949,161.1292 Q446.3101,162.1958 446.3101,164.2959 Q446.3101,166.3877 446.9949,167.4544 Q447.6797,168.521 449.0244,168.521 Q449.6553,168.521 450.2488,168.2512 Q450.8423,167.9815 451.4731,167.4004 Z " fill="#000000"/><text fill="#000000" font-family="sans-serif" font-size="14" lengthAdjust="spacing" textLength="66" x="463" y="169.271">Arealplan</text><line style="stroke:#181818;stroke-width:0.5;" x1="435" x2="531" y1="179.98" y2="179.98"/><line style="stroke:#181818;stroke-width:0.5;" x1="435" x2="531" y1="187.98" y2="187.98"/></g><!--class Planbehandling--><g id="elem_Planbehandling"><rect fill="#F1F1F1" height="48" id="Planbehandling" rx="2.5" ry="2.5" style="stroke:#181818;stroke-width:0.5;" width="139" x="686.5" y="147.98"/><ellipse cx="701.5" cy="163.98" fill="#ADD1B2" rx="11" ry="11" style="stroke:#181818;stroke-width:1.0;"/><path d="M703.9731,170.1231 Q703.3921,170.4219 702.7529,170.5713 Q702.1138,170.7207 701.4082,170.7207 Q698.9014,170.7207 697.5815,169.0689 Q696.2617,167.417 696.2617,164.2959 Q696.2617,161.1665 697.5815,159.5147 Q698.9014,157.8628 701.4082,157.8628 Q702.1138,157.8628 702.7612,158.0122 Q703.4087,158.1616 703.9731,158.4605 L703.9731,161.1831 Q703.3423,160.6021 702.7488,160.3323 Q702.1553,160.0625 701.5244,160.0625 Q700.1797,160.0625 699.4949,161.1292 Q698.8101,162.1958 698.8101,164.2959 Q698.8101,166.3877 699.4949,167.4544 Q700.1797,168.521 701.5244,168.521 Q702.1553,168.521 702.7488,168.2512 Q703.3423,167.9815 703.9731,167.4004 Z " fill="#000000"/><text fill="#000000" font-family="sans-serif" font-size="14" lengthAdjust="spacing" textLength="107" x="715.5" y="169.271">Planbehandling</text><line style="stroke:#181818;stroke-width:0.5;" x1="687.5" x2="824.5" y1="179.98" y2="179.98"/><line style="stroke:#181818;stroke-width:0.5;" x1="687.5" x2="824.5" y1="187.98" y2="187.98"/></g><g id="elem_GMN7"><path d="M6,34.84 L6,60.1505 A0,0 0 0 0 6,60.1505 L248.01,60.1505 L433.89,147.48 L256.01,60.1505 L448,60.1505 A0,0 0 0 0 448,60.1505 L448,44.84 L438,34.84 L6,34.84 A0,0 0 0 0 6,34.84 " fill="#FEFFDD" style="stroke:#181818;stroke-width:0.5;"/><path d="M438,34.84 L438,44.84 L448,44.84 L438,34.84 " fill="#FEFFDD" style="stroke:#181818;stroke-width:0.5;"/><text fill="#000000" font-family="sans-serif" font-size="13" lengthAdjust="spacing" textLength="421" x="12" y="52.4084">Se detaljer i diagram for skjema 'no.ks.fiks.plan.v2.felles.arealplan'</text></g><g id="elem_GMN10"><path d="M791,34.84 L791,60.1505 A0,0 0 0 0 791,60.1505 L1000.78,60.1505 L808.83,147.53 L1008.78,60.1505 L1273,60.1505 A0,0 0 0 0 1273,60.1505 L1273,44.84 L1263,34.84 L791,34.84 A0,0 0 0 0 791,34.84 " fill="#FEFFDD" style="stroke:#181818;stroke-width:0.5;"/><path d="M1263,34.84 L1263,44.84 L1273,44.84 L1263,34.84 " fill="#FEFFDD" style="stroke:#181818;stroke-width:0.5;"/><text fill="#000000" font-family="sans-serif" font-size="13" lengthAdjust="spacing" textLength="461" x="797" y="52.4084">Se detaljer i diagram for skjema 'no.ks.fiks.plan.v2.felles.planbehandling'</text></g><!--link HentArealplanResultat to Arealplan--><g id="link_HentArealplanResultat_Arealplan"><path codeLine="7" d="M575.52,88.26 C553.49,107.96 527.66,131.05 508.9,147.83 " fill="none" id="HentArealplanResultat-Arealplan" style="stroke:#181818;stroke-width:1.0;"/></g><!--link HentArealplanResultat to Planbehandling--><g id="link_HentArealplanResultat_Planbehandling"><path codeLine="8" d="M664.16,88.26 C686.03,107.96 711.67,131.05 730.29,147.83 " fill="none" id="HentArealplanResultat-Planbehandling" style="stroke:#181818;stroke-width:1.0;"/></g><!--SRC=[fL0x3i8m3DrzYhTrGCt0s8sD4S6860nrIjeqgPB0WhWxhH25I33XmRByVh9FbcF4MbnQ1M4xM7PRYHUREE5666l1Bw32p7aYqtIKCxlQ6jT8gB39Dli3tOc-cvVbXzjFIkv7HCudGV83l7xhKM4dg2MnRIN0e3RS1EwXVK3iMkaPXVEgYqgRiKqQTLqgBTPALFE1HMQVP_-PaR-g87e0]--></g></svg>