<svg xmlns="http://www.w3.org/2000/svg" xmlns:xlink="http://www.w3.org/1999/xlink" contentStyleType="text/css" height="765px" preserveAspectRatio="none" style="width:2330px;height:765px;background:#FFFFFF;" version="1.1" viewBox="0 0 2330 765" width="2330px" zoomAndPan="magnify"><defs/><g><!--class NasjonalArealplanId--><g id="elem_NasjonalArealplanId"><rect codeLine="1" fill="#F1F1F1" height="80.9766" id="NasjonalArealplanId" rx="2.5" ry="2.5" style="stroke:#181818;stroke-width:0.5;" width="292" x="7" y="486.81"/><ellipse cx="79.75" cy="502.81" fill="#ADD1B2" rx="11" ry="11" style="stroke:#181818;stroke-width:1.0;"/><path d="M82.2231,508.9531 Q81.6421,509.2519 81.0029,509.4013 Q80.3638,509.5507 79.6582,509.5507 Q77.1514,509.5507 75.8315,507.8989 Q74.5117,506.247 74.5117,503.1259 Q74.5117,499.9965 75.8315,498.3447 Q77.1514,496.6928 79.6582,496.6928 Q80.3638,496.6928 81.0112,496.8422 Q81.6587,496.9916 82.2231,497.2905 L82.2231,500.0131 Q81.5923,499.4321 80.9988,499.1623 Q80.4053,498.8925 79.7744,498.8925 Q78.4297,498.8925 77.7449,499.9592 Q77.0601,501.0258 77.0601,503.1259 Q77.0601,505.2177 77.7449,506.2844 Q78.4297,507.351 79.7744,507.351 Q80.4053,507.351 80.9988,507.0812 Q81.5923,506.8115 82.2231,506.2304 Z " fill="#000000"/><text fill="#000000" font-family="sans-serif" font-size="14" lengthAdjust="spacing" textLength="138" x="100.25" y="508.101">NasjonalArealplanId</text><line style="stroke:#181818;stroke-width:0.5;" x1="8" x2="298" y1="518.81" y2="518.81"/><ellipse cx="18" cy="532.5541" fill="none" rx="3" ry="3" style="stroke:#038048;stroke-width:1.0;"/><text fill="#000000" font-family="sans-serif" font-size="14" lengthAdjust="spacing" textLength="266" x="27" y="536.3452">administrativEnhet: AdministrativEnhet</text><ellipse cx="18" cy="549.0424" fill="none" rx="3" ry="3" style="stroke:#038048;stroke-width:1.0;"/><text fill="#000000" font-family="sans-serif" font-size="14" lengthAdjust="spacing" textLength="171" x="27" y="552.8334">planidentifikasjon: string</text><line style="stroke:#181818;stroke-width:0.5;" x1="8" x2="298" y1="559.7866" y2="559.7866"/></g><!--class AdministrativEnhet--><g id="elem_AdministrativEnhet"><rect codeLine="8" fill="#F1F1F1" height="97.4648" id="AdministrativEnhet" rx="2.5" ry="2.5" style="stroke:#181818;stroke-width:0.5;" width="162" x="72" y="660.77"/><ellipse cx="87" cy="676.77" fill="#EB937F" rx="11" ry="11" style="stroke:#181818;stroke-width:1.0;"/><path d="M90.6143,683.27 L82.8945,683.27 L82.8945,670.8769 L90.6143,670.8769 L90.6143,673.0351 L85.3433,673.0351 L85.3433,675.708 L90.1162,675.708 L90.1162,677.8662 L85.3433,677.8662 L85.3433,681.1118 L90.6143,681.1118 Z " fill="#000000"/><text fill="#000000" font-family="sans-serif" font-size="14" lengthAdjust="spacing" textLength="130" x="101" y="682.061">AdministrativEnhet</text><line style="stroke:#181818;stroke-width:0.5;" x1="73" x2="233" y1="692.77" y2="692.77"/><text fill="#000000" font-family="sans-serif" font-size="14" lengthAdjust="spacing" textLength="127" x="78" y="710.3052">kommunenummer</text><text fill="#000000" font-family="sans-serif" font-size="14" lengthAdjust="spacing" textLength="97" x="78" y="726.7934">fylkesnummer</text><text fill="#000000" font-family="sans-serif" font-size="14" lengthAdjust="spacing" textLength="71" x="78" y="743.2817">landskode</text><line style="stroke:#181818;stroke-width:0.5;" x1="73" x2="233" y1="750.2348" y2="750.2348"/></g><!--class Arealplan--><g id="elem_Arealplan"><rect codeLine="4" fill="#F1F1F1" height="245.8594" id="Arealplan" rx="2.5" ry="2.5" style="stroke:#181818;stroke-width:0.5;" width="309" x="600.5" y="147.98"/><ellipse cx="717.75" cy="163.98" fill="#ADD1B2" rx="11" ry="11" style="stroke:#181818;stroke-width:1.0;"/><path d="M720.2231,170.1231 Q719.6421,170.4219 719.0029,170.5713 Q718.3638,170.7207 717.6582,170.7207 Q715.1514,170.7207 713.8315,169.0689 Q712.5117,167.417 712.5117,164.2959 Q712.5117,161.1665 713.8315,159.5147 Q715.1514,157.8628 717.6582,157.8628 Q718.3638,157.8628 719.0112,158.0122 Q719.6587,158.1616 720.2231,158.4605 L720.2231,161.1831 Q719.5923,160.6021 718.9988,160.3323 Q718.4053,160.0625 717.7744,160.0625 Q716.4297,160.0625 715.7449,161.1292 Q715.0601,162.1958 715.0601,164.2959 Q715.0601,166.3877 715.7449,167.4544 Q716.4297,168.521 717.7744,168.521 Q718.4053,168.521 718.9988,168.2512 Q719.5923,167.9815 720.2231,167.4004 Z " fill="#000000"/><text fill="#000000" font-family="sans-serif" font-size="14" lengthAdjust="spacing" textLength="66" x="738.25" y="169.271">Arealplan</text><line style="stroke:#181818;stroke-width:0.5;" x1="601.5" x2="908.5" y1="179.98" y2="179.98"/><ellipse cx="611.5" cy="193.7241" fill="none" rx="3" ry="3" style="stroke:#038048;stroke-width:1.0;"/><text fill="#000000" font-family="sans-serif" font-size="14" lengthAdjust="spacing" textLength="283" x="620.5" y="197.5152">nasjonalArealplanId: NasjonalArealplanId</text><ellipse cx="611.5" cy="210.2124" fill="none" rx="3" ry="3" style="stroke:#038048;stroke-width:1.0;"/><text fill="#000000" font-family="sans-serif" font-size="14" lengthAdjust="spacing" textLength="125" x="620.5" y="214.0034">plantype: Plantype</text><ellipse cx="611.5" cy="226.7007" fill="none" rx="3" ry="3" style="stroke:#038048;stroke-width:1.0;"/><text fill="#000000" font-family="sans-serif" font-size="14" lengthAdjust="spacing" textLength="111" x="620.5" y="230.4917">plannavn: string</text><ellipse cx="611.5" cy="243.189" fill="none" rx="3" ry="3" style="stroke:#038048;stroke-width:1.0;"/><text fill="#000000" font-family="sans-serif" font-size="14" lengthAdjust="spacing" textLength="149" x="620.5" y="246.98">planstatus: Planstatus</text><ellipse cx="611.5" cy="259.6773" fill="none" rx="3" ry="3" style="stroke:#038048;stroke-width:1.0;"/><text fill="#000000" font-family="sans-serif" font-size="14" lengthAdjust="spacing" textLength="271" x="620.5" y="263.4683">plandokumentasjonOppdatert: boolean</text><ellipse cx="611.5" cy="276.1655" fill="none" rx="3" ry="3" style="stroke:#038048;stroke-width:1.0;"/><text fill="#000000" font-family="sans-serif" font-size="14" lengthAdjust="spacing" textLength="180" x="620.5" y="279.9566">ubehandletKlage: boolean</text><ellipse cx="611.5" cy="292.6538" fill="none" rx="3" ry="3" style="stroke:#038048;stroke-width:1.0;"/><text fill="#000000" font-family="sans-serif" font-size="14" lengthAdjust="spacing" textLength="211" x="620.5" y="296.4448">ubehandletInnsigelse: boolean</text><ellipse cx="611.5" cy="309.1421" fill="none" rx="3" ry="3" style="stroke:#038048;stroke-width:1.0;"/><text fill="#000000" font-family="sans-serif" font-size="14" lengthAdjust="spacing" textLength="121" x="620.5" y="312.9331">vedtaksdato: date</text><ellipse cx="611.5" cy="325.6304" fill="none" rx="3" ry="3" style="stroke:#038048;stroke-width:1.0;"/><text fill="#000000" font-family="sans-serif" font-size="14" lengthAdjust="spacing" textLength="195" x="620.5" y="329.4214">vedtakEndeligPlanDato: date</text><ellipse cx="611.5" cy="342.1187" fill="none" rx="3" ry="3" style="stroke:#038048;stroke-width:1.0;"/><text fill="#000000" font-family="sans-serif" font-size="14" lengthAdjust="spacing" textLength="181" x="620.5" y="345.9097">lovreferanse: Lovreferanse</text><ellipse cx="611.5" cy="358.607" fill="none" rx="3" ry="3" style="stroke:#038048;stroke-width:1.0;"/><text fill="#000000" font-family="sans-serif" font-size="14" lengthAdjust="spacing" textLength="249" x="620.5" y="362.398">forslagstillerType: ForslagstillerType</text><ellipse cx="611.5" cy="375.0952" fill="none" rx="3" ry="3" style="stroke:#038048;stroke-width:1.0;"/><text fill="#000000" font-family="sans-serif" font-size="14" lengthAdjust="spacing" textLength="173" x="620.5" y="378.8863">alternativFinnes: boolean</text><line style="stroke:#181818;stroke-width:0.5;" x1="601.5" x2="908.5" y1="385.8394" y2="385.8394"/></g><!--class Plantype--><g id="elem_Plantype"><rect codeLine="25" fill="#F1F1F1" height="89.5977" id="Plantype" rx="2.5" ry="2.5" style="stroke:#181818;stroke-width:0.5;" width="184" x="334" y="482.5"/><ellipse cx="392.75" cy="502.8105" fill="#ADD1B2" rx="11" ry="11" style="stroke:#181818;stroke-width:1.0;"/><path d="M395.2231,508.9536 Q394.6421,509.2524 394.0029,509.4019 Q393.3638,509.5513 392.6582,509.5513 Q390.1514,509.5513 388.8315,507.8994 Q387.5117,506.2476 387.5117,503.1265 Q387.5117,499.9971 388.8315,498.3452 Q390.1514,496.6934 392.6582,496.6934 Q393.3638,496.6934 394.0112,496.8428 Q394.6587,496.9922 395.2231,497.291 L395.2231,500.0137 Q394.5923,499.4326 393.9988,499.1628 Q393.4053,498.8931 392.7744,498.8931 Q391.4297,498.8931 390.7449,499.9597 Q390.0601,501.0264 390.0601,503.1265 Q390.0601,505.2183 390.7449,506.2849 Q391.4297,507.3516 392.7744,507.3516 Q393.4053,507.3516 393.9988,507.0818 Q394.5923,506.812 395.2231,506.231 Z " fill="#000000"/><text fill="#000000" font-family="sans-serif" font-size="12" font-style="italic" lengthAdjust="spacing" textLength="42" x="421.25" y="499.1016">&#171;Kode&#187;</text><text fill="#000000" font-family="sans-serif" font-size="14" lengthAdjust="spacing" textLength="58" x="413.25" y="515.168">Plantype</text><line style="stroke:#181818;stroke-width:0.5;" x1="335" x2="517" y1="523.1211" y2="523.1211"/><ellipse cx="345" cy="536.8652" fill="none" rx="3" ry="3" style="stroke:#038048;stroke-width:1.0;"/><text fill="#000000" font-family="sans-serif" font-size="14" lengthAdjust="spacing" textLength="116" x="354" y="540.6563">kodeverdi: string</text><ellipse cx="345" cy="553.3535" fill="none" rx="3" ry="3" style="stroke:#038048;stroke-width:1.0;"/><text fill="#000000" font-family="sans-serif" font-size="14" lengthAdjust="spacing" textLength="158" x="354" y="557.1445">kodebeskrivelse: string</text><line style="stroke:#181818;stroke-width:0.5;" x1="335" x2="517" y1="564.0977" y2="564.0977"/></g><!--class Planstatus--><g id="elem_Planstatus"><rect codeLine="30" fill="#F1F1F1" height="89.5977" id="Planstatus" rx="2.5" ry="2.5" style="stroke:#181818;stroke-width:0.5;" width="184" x="553" y="482.5"/><ellipse cx="605.75" cy="502.8105" fill="#ADD1B2" rx="11" ry="11" style="stroke:#181818;stroke-width:1.0;"/><path d="M608.2231,508.9536 Q607.6421,509.2524 607.0029,509.4019 Q606.3638,509.5513 605.6582,509.5513 Q603.1514,509.5513 601.8315,507.8994 Q600.5117,506.2476 600.5117,503.1265 Q600.5117,499.9971 601.8315,498.3452 Q603.1514,496.6934 605.6582,496.6934 Q606.3638,496.6934 607.0112,496.8428 Q607.6587,496.9922 608.2231,497.291 L608.2231,500.0137 Q607.5923,499.4326 606.9988,499.1628 Q606.4053,498.8931 605.7744,498.8931 Q604.4297,498.8931 603.7449,499.9597 Q603.0601,501.0264 603.0601,503.1265 Q603.0601,505.2183 603.7449,506.2849 Q604.4297,507.3516 605.7744,507.3516 Q606.4053,507.3516 606.9988,507.0818 Q607.5923,506.812 608.2231,506.231 Z " fill="#000000"/><text fill="#000000" font-family="sans-serif" font-size="12" font-style="italic" lengthAdjust="spacing" textLength="42" x="640.25" y="499.1016">&#171;Kode&#187;</text><text fill="#000000" font-family="sans-serif" font-size="14" lengthAdjust="spacing" textLength="70" x="626.25" y="515.168">Planstatus</text><line style="stroke:#181818;stroke-width:0.5;" x1="554" x2="736" y1="523.1211" y2="523.1211"/><ellipse cx="564" cy="536.8652" fill="none" rx="3" ry="3" style="stroke:#038048;stroke-width:1.0;"/><text fill="#000000" font-family="sans-serif" font-size="14" lengthAdjust="spacing" textLength="116" x="573" y="540.6563">kodeverdi: string</text><ellipse cx="564" cy="553.3535" fill="none" rx="3" ry="3" style="stroke:#038048;stroke-width:1.0;"/><text fill="#000000" font-family="sans-serif" font-size="14" lengthAdjust="spacing" textLength="158" x="573" y="557.1445">kodebeskrivelse: string</text><line style="stroke:#181818;stroke-width:0.5;" x1="554" x2="736" y1="564.0977" y2="564.0977"/></g><!--class Lovreferanse--><g id="elem_Lovreferanse"><rect codeLine="35" fill="#F1F1F1" height="89.5977" id="Lovreferanse" rx="2.5" ry="2.5" style="stroke:#181818;stroke-width:0.5;" width="184" x="772" y="482.5"/><ellipse cx="815.8" cy="502.8105" fill="#ADD1B2" rx="11" ry="11" style="stroke:#181818;stroke-width:1.0;"/><path d="M818.2731,508.9536 Q817.6921,509.2524 817.0529,509.4019 Q816.4138,509.5513 815.7082,509.5513 Q813.2014,509.5513 811.8815,507.8994 Q810.5617,506.2476 810.5617,503.1265 Q810.5617,499.9971 811.8815,498.3452 Q813.2014,496.6934 815.7082,496.6934 Q816.4138,496.6934 817.0612,496.8428 Q817.7087,496.9922 818.2731,497.291 L818.2731,500.0137 Q817.6423,499.4326 817.0488,499.1628 Q816.4553,498.8931 815.8244,498.8931 Q814.4797,498.8931 813.7949,499.9597 Q813.1101,501.0264 813.1101,503.1265 Q813.1101,505.2183 813.7949,506.2849 Q814.4797,507.3516 815.8244,507.3516 Q816.4553,507.3516 817.0488,507.0818 Q817.6423,506.812 818.2731,506.231 Z " fill="#000000"/><text fill="#000000" font-family="sans-serif" font-size="12" font-style="italic" lengthAdjust="spacing" textLength="42" x="859.2" y="499.1016">&#171;Kode&#187;</text><text fill="#000000" font-family="sans-serif" font-size="14" lengthAdjust="spacing" textLength="88" x="836.2" y="515.168">Lovreferanse</text><line style="stroke:#181818;stroke-width:0.5;" x1="773" x2="955" y1="523.1211" y2="523.1211"/><ellipse cx="783" cy="536.8652" fill="none" rx="3" ry="3" style="stroke:#038048;stroke-width:1.0;"/><text fill="#000000" font-family="sans-serif" font-size="14" lengthAdjust="spacing" textLength="116" x="792" y="540.6563">kodeverdi: string</text><ellipse cx="783" cy="553.3535" fill="none" rx="3" ry="3" style="stroke:#038048;stroke-width:1.0;"/><text fill="#000000" font-family="sans-serif" font-size="14" lengthAdjust="spacing" textLength="158" x="792" y="557.1445">kodebeskrivelse: string</text><line style="stroke:#181818;stroke-width:0.5;" x1="773" x2="955" y1="564.0977" y2="564.0977"/></g><!--class ForslagstillerType--><g id="elem_ForslagstillerType"><rect codeLine="40" fill="#F1F1F1" height="89.5977" id="ForslagstillerType" rx="2.5" ry="2.5" style="stroke:#181818;stroke-width:0.5;" width="184" x="991" y="482.5"/><ellipse cx="1019.5" cy="502.8105" fill="#ADD1B2" rx="11" ry="11" style="stroke:#181818;stroke-width:1.0;"/><path d="M1021.9731,508.9536 Q1021.3921,509.2524 1020.7529,509.4019 Q1020.1138,509.5513 1019.4082,509.5513 Q1016.9014,509.5513 1015.5815,507.8994 Q1014.2617,506.2476 1014.2617,503.1265 Q1014.2617,499.9971 1015.5815,498.3452 Q1016.9014,496.6934 1019.4082,496.6934 Q1020.1138,496.6934 1020.7612,496.8428 Q1021.4087,496.9922 1021.9731,497.291 L1021.9731,500.0137 Q1021.3423,499.4326 1020.7488,499.1628 Q1020.1553,498.8931 1019.5244,498.8931 Q1018.1797,498.8931 1017.4949,499.9597 Q1016.8101,501.0264 1016.8101,503.1265 Q1016.8101,505.2183 1017.4949,506.2849 Q1018.1797,507.3516 1019.5244,507.3516 Q1020.1553,507.3516 1020.7488,507.0818 Q1021.3423,506.812 1021.9731,506.231 Z " fill="#000000"/><text fill="#000000" font-family="sans-serif" font-size="12" font-style="italic" lengthAdjust="spacing" textLength="42" x="1076.5" y="499.1016">&#171;Kode&#187;</text><text fill="#000000" font-family="sans-serif" font-size="14" lengthAdjust="spacing" textLength="122" x="1036.5" y="515.168">ForslagstillerType</text><line style="stroke:#181818;stroke-width:0.5;" x1="992" x2="1174" y1="523.1211" y2="523.1211"/><ellipse cx="1002" cy="536.8652" fill="none" rx="3" ry="3" style="stroke:#038048;stroke-width:1.0;"/><text fill="#000000" font-family="sans-serif" font-size="14" lengthAdjust="spacing" textLength="116" x="1011" y="540.6563">kodeverdi: string</text><ellipse cx="1002" cy="553.3535" fill="none" rx="3" ry="3" style="stroke:#038048;stroke-width:1.0;"/><text fill="#000000" font-family="sans-serif" font-size="14" lengthAdjust="spacing" textLength="158" x="1011" y="557.1445">kodebeskrivelse: string</text><line style="stroke:#181818;stroke-width:0.5;" x1="992" x2="1174" y1="564.0977" y2="564.0977"/></g><!--class Saksnummer--><g id="elem_Saksnummer"><rect codeLine="2" fill="#F1F1F1" height="80.9766" id="Saksnummer" rx="2.5" ry="2.5" style="stroke:#181818;stroke-width:0.5;" width="225" x="1210.5" y="486.81"/><ellipse cx="1274.25" cy="502.81" fill="#ADD1B2" rx="11" ry="11" style="stroke:#181818;stroke-width:1.0;"/><path d="M1276.7231,508.9531 Q1276.1421,509.2519 1275.5029,509.4013 Q1274.8638,509.5507 1274.1582,509.5507 Q1271.6514,509.5507 1270.3315,507.8989 Q1269.0117,506.247 1269.0117,503.1259 Q1269.0117,499.9965 1270.3315,498.3447 Q1271.6514,496.6928 1274.1582,496.6928 Q1274.8638,496.6928 1275.5112,496.8422 Q1276.1587,496.9916 1276.7231,497.2905 L1276.7231,500.0131 Q1276.0923,499.4321 1275.4988,499.1623 Q1274.9053,498.8925 1274.2744,498.8925 Q1272.9297,498.8925 1272.2449,499.9592 Q1271.5601,501.0258 1271.5601,503.1259 Q1271.5601,505.2177 1272.2449,506.2844 Q1272.9297,507.351 1274.2744,507.351 Q1274.9053,507.351 1275.4988,507.0812 Q1276.0923,506.8115 1276.7231,506.2304 Z " fill="#000000"/><text fill="#000000" font-family="sans-serif" font-size="14" lengthAdjust="spacing" textLength="89" x="1294.75" y="508.101">Saksnummer</text><line style="stroke:#181818;stroke-width:0.5;" x1="1211.5" x2="1434.5" y1="518.81" y2="518.81"/><ellipse cx="1221.5" cy="532.5541" fill="none" rx="3" ry="3" style="stroke:#038048;stroke-width:1.0;"/><text fill="#000000" font-family="sans-serif" font-size="14" lengthAdjust="spacing" textLength="109" x="1230.5" y="536.3452">saksaar: integer</text><ellipse cx="1221.5" cy="549.0424" fill="none" rx="3" ry="3" style="stroke:#038048;stroke-width:1.0;"/><text fill="#000000" font-family="sans-serif" font-size="14" lengthAdjust="spacing" textLength="199" x="1230.5" y="552.8334">sakssekvensnummer: integer</text><line style="stroke:#181818;stroke-width:0.5;" x1="1211.5" x2="1434.5" y1="559.7866" y2="559.7866"/></g><!--class Posisjon--><g id="elem_Posisjon"><rect codeLine="1" fill="#F1F1F1" height="97.4648" id="Posisjon" rx="2.5" ry="2.5" style="stroke:#181818;stroke-width:0.5;" width="263" x="1470.5" y="478.57"/><ellipse cx="1569.25" cy="494.57" fill="#ADD1B2" rx="11" ry="11" style="stroke:#181818;stroke-width:1.0;"/><path d="M1571.7231,500.7131 Q1571.1421,501.0119 1570.5029,501.1613 Q1569.8638,501.3107 1569.1582,501.3107 Q1566.6514,501.3107 1565.3315,499.6589 Q1564.0117,498.007 1564.0117,494.8859 Q1564.0117,491.7565 1565.3315,490.1047 Q1566.6514,488.4528 1569.1582,488.4528 Q1569.8638,488.4528 1570.5112,488.6022 Q1571.1587,488.7516 1571.7231,489.0505 L1571.7231,491.7731 Q1571.0923,491.1921 1570.4988,490.9223 Q1569.9053,490.6525 1569.2744,490.6525 Q1567.9297,490.6525 1567.2449,491.7192 Q1566.5601,492.7858 1566.5601,494.8859 Q1566.5601,496.9777 1567.2449,498.0444 Q1567.9297,499.111 1569.2744,499.111 Q1569.9053,499.111 1570.4988,498.8412 Q1571.0923,498.5715 1571.7231,497.9904 Z " fill="#000000"/><text fill="#000000" font-family="sans-serif" font-size="14" lengthAdjust="spacing" textLength="57" x="1589.75" y="499.861">Posisjon</text><line style="stroke:#181818;stroke-width:0.5;" x1="1471.5" x2="1732.5" y1="510.57" y2="510.57"/><ellipse cx="1481.5" cy="524.3141" fill="none" rx="3" ry="3" style="stroke:#038048;stroke-width:1.0;"/><text fill="#000000" font-family="sans-serif" font-size="14" lengthAdjust="spacing" textLength="127" x="1490.5" y="528.1052">type: PosisjonType</text><ellipse cx="1481.5" cy="540.8024" fill="none" rx="3" ry="3" style="stroke:#038048;stroke-width:1.0;"/><text fill="#000000" font-family="sans-serif" font-size="14" lengthAdjust="spacing" textLength="153" x="1490.5" y="544.5934">koordinater: number[]</text><ellipse cx="1481.5" cy="557.2907" fill="none" rx="3" ry="3" style="stroke:#038048;stroke-width:1.0;"/><text fill="#000000" font-family="sans-serif" font-size="14" lengthAdjust="spacing" textLength="237" x="1490.5" y="561.0817">koordinatsystem: Koordinatsystem</text><line style="stroke:#181818;stroke-width:0.5;" x1="1471.5" x2="1732.5" y1="568.0348" y2="568.0348"/></g><!--class Koordinatsystem--><g id="elem_Koordinatsystem"><rect codeLine="10" fill="#F1F1F1" height="89.5977" id="Koordinatsystem" rx="2.5" ry="2.5" style="stroke:#181818;stroke-width:0.5;" width="184" x="1358" y="664.7"/><ellipse cx="1389.65" cy="685.0105" fill="#ADD1B2" rx="11" ry="11" style="stroke:#181818;stroke-width:1.0;"/><path d="M1392.1231,691.1536 Q1391.5421,691.4524 1390.9029,691.6019 Q1390.2638,691.7513 1389.5582,691.7513 Q1387.0514,691.7513 1385.7315,690.0994 Q1384.4117,688.4476 1384.4117,685.3265 Q1384.4117,682.1971 1385.7315,680.5452 Q1387.0514,678.8934 1389.5582,678.8934 Q1390.2638,678.8934 1390.9112,679.0428 Q1391.5587,679.1922 1392.1231,679.491 L1392.1231,682.2137 Q1391.4923,681.6326 1390.8988,681.3628 Q1390.3053,681.0931 1389.6744,681.0931 Q1388.3297,681.0931 1387.6449,682.1597 Q1386.9601,683.2264 1386.9601,685.3265 Q1386.9601,687.4183 1387.6449,688.4849 Q1388.3297,689.5516 1389.6744,689.5516 Q1390.3053,689.5516 1390.8988,689.2818 Q1391.4923,689.012 1392.1231,688.431 Z " fill="#000000"/><text fill="#000000" font-family="sans-serif" font-size="12" font-style="italic" lengthAdjust="spacing" textLength="42" x="1443.85" y="681.3016">&#171;Kode&#187;</text><text fill="#000000" font-family="sans-serif" font-size="14" lengthAdjust="spacing" textLength="115" x="1407.35" y="697.368">Koordinatsystem</text><line style="stroke:#181818;stroke-width:0.5;" x1="1359" x2="1541" y1="705.3211" y2="705.3211"/><ellipse cx="1369" cy="719.0652" fill="none" rx="3" ry="3" style="stroke:#038048;stroke-width:1.0;"/><text fill="#000000" font-family="sans-serif" font-size="14" lengthAdjust="spacing" textLength="116" x="1378" y="722.8563">kodeverdi: string</text><ellipse cx="1369" cy="735.5535" fill="none" rx="3" ry="3" style="stroke:#038048;stroke-width:1.0;"/><text fill="#000000" font-family="sans-serif" font-size="14" lengthAdjust="spacing" textLength="158" x="1378" y="739.3445">kodebeskrivelse: string</text><line style="stroke:#181818;stroke-width:0.5;" x1="1359" x2="1541" y1="746.2977" y2="746.2977"/></g><!--class PosisjonType--><g id="elem_PosisjonType"><rect codeLine="15" fill="#F1F1F1" height="64.4883" id="PosisjonType" rx="2.5" ry="2.5" style="stroke:#181818;stroke-width:0.5;" width="122" x="1577" y="677.25"/><ellipse cx="1592" cy="693.25" fill="#EB937F" rx="11" ry="11" style="stroke:#181818;stroke-width:1.0;"/><path d="M1595.6143,699.75 L1587.8945,699.75 L1587.8945,687.3569 L1595.6143,687.3569 L1595.6143,689.5151 L1590.3433,689.5151 L1590.3433,692.188 L1595.1162,692.188 L1595.1162,694.3462 L1590.3433,694.3462 L1590.3433,697.5918 L1595.6143,697.5918 Z " fill="#000000"/><text fill="#000000" font-family="sans-serif" font-size="14" lengthAdjust="spacing" textLength="90" x="1606" y="698.541">PosisjonType</text><line style="stroke:#181818;stroke-width:0.5;" x1="1578" x2="1698" y1="709.25" y2="709.25"/><text fill="#000000" font-family="sans-serif" font-size="14" lengthAdjust="spacing" textLength="35" x="1583" y="726.7852">Point</text><line style="stroke:#181818;stroke-width:0.5;" x1="1578" x2="1698" y1="733.7383" y2="733.7383"/></g><!--class Dokument--><g id="elem_Dokument"><rect codeLine="1" fill="#F1F1F1" height="146.9297" id="Dokument" rx="2.5" ry="2.5" style="stroke:#181818;stroke-width:0.5;" width="335" x="1768.5" y="453.84"/><ellipse cx="1896.25" cy="469.84" fill="#ADD1B2" rx="11" ry="11" style="stroke:#181818;stroke-width:1.0;"/><path d="M1898.7231,475.9831 Q1898.1421,476.2819 1897.5029,476.4313 Q1896.8638,476.5807 1896.1582,476.5807 Q1893.6514,476.5807 1892.3315,474.9289 Q1891.0117,473.277 1891.0117,470.1559 Q1891.0117,467.0265 1892.3315,465.3747 Q1893.6514,463.7228 1896.1582,463.7228 Q1896.8638,463.7228 1897.5112,463.8722 Q1898.1587,464.0216 1898.7231,464.3205 L1898.7231,467.0431 Q1898.0923,466.4621 1897.4988,466.1923 Q1896.9053,465.9225 1896.2744,465.9225 Q1894.9297,465.9225 1894.2449,466.9892 Q1893.5601,468.0558 1893.5601,470.1559 Q1893.5601,472.2477 1894.2449,473.3144 Q1894.9297,474.381 1896.2744,474.381 Q1896.9053,474.381 1897.4988,474.1112 Q1898.0923,473.8415 1898.7231,473.2604 Z " fill="#000000"/><text fill="#000000" font-family="sans-serif" font-size="14" lengthAdjust="spacing" textLength="71" x="1916.75" y="475.131">Dokument</text><line style="stroke:#181818;stroke-width:0.5;" x1="1769.5" x2="2102.5" y1="485.84" y2="485.84"/><ellipse cx="1779.5" cy="499.5841" fill="none" rx="3" ry="3" style="stroke:#038048;stroke-width:1.0;"/><text fill="#000000" font-family="sans-serif" font-size="14" lengthAdjust="spacing" textLength="79" x="1788.5" y="503.3752">tittel: string</text><ellipse cx="1779.5" cy="516.0724" fill="none" rx="3" ry="3" style="stroke:#038048;stroke-width:1.0;"/><text fill="#000000" font-family="sans-serif" font-size="14" lengthAdjust="spacing" textLength="207" x="1788.5" y="519.8634">dokumenttype: Dokumenttype</text><ellipse cx="1779.5" cy="532.5607" fill="none" rx="3" ry="3" style="stroke:#038048;stroke-width:1.0;"/><text fill="#000000" font-family="sans-serif" font-size="14" lengthAdjust="spacing" textLength="309" x="1788.5" y="536.3517">referanseDokumentfil: ReferanseDokumentfil</text><ellipse cx="1779.5" cy="549.049" fill="none" rx="3" ry="3" style="stroke:#038048;stroke-width:1.0;"/><text fill="#000000" font-family="sans-serif" font-size="14" lengthAdjust="spacing" textLength="115" x="1788.5" y="552.84">mimetype: string</text><ellipse cx="1779.5" cy="565.5373" fill="none" rx="3" ry="3" style="stroke:#038048;stroke-width:1.0;"/><text fill="#000000" font-family="sans-serif" font-size="14" lengthAdjust="spacing" textLength="146" x="1788.5" y="569.3283">dokumentsdato: date</text><ellipse cx="1779.5" cy="582.0255" fill="none" rx="3" ry="3" style="stroke:#038048;stroke-width:1.0;"/><text fill="#000000" font-family="sans-serif" font-size="14" lengthAdjust="spacing" textLength="114" x="1788.5" y="585.8166">arkivnavn: string</text><line style="stroke:#181818;stroke-width:0.5;" x1="1769.5" x2="2102.5" y1="592.7697" y2="592.7697"/></g><!--class Dokumenttype--><g id="elem_Dokumenttype"><rect codeLine="13" fill="#F1F1F1" height="89.5977" id="Dokumenttype" rx="2.5" ry="2.5" style="stroke:#181818;stroke-width:0.5;" width="184" x="1807" y="664.7"/><ellipse cx="1845.4" cy="685.0105" fill="#ADD1B2" rx="11" ry="11" style="stroke:#181818;stroke-width:1.0;"/><path d="M1847.8731,691.1536 Q1847.2921,691.4524 1846.6529,691.6019 Q1846.0138,691.7513 1845.3082,691.7513 Q1842.8014,691.7513 1841.4815,690.0994 Q1840.1617,688.4476 1840.1617,685.3265 Q1840.1617,682.1971 1841.4815,680.5452 Q1842.8014,678.8934 1845.3082,678.8934 Q1846.0138,678.8934 1846.6612,679.0428 Q1847.3087,679.1922 1847.8731,679.491 L1847.8731,682.2137 Q1847.2423,681.6326 1846.6488,681.3628 Q1846.0553,681.0931 1845.4244,681.0931 Q1844.0797,681.0931 1843.3949,682.1597 Q1842.7101,683.2264 1842.7101,685.3265 Q1842.7101,687.4183 1843.3949,688.4849 Q1844.0797,689.5516 1845.4244,689.5516 Q1846.0553,689.5516 1846.6488,689.2818 Q1847.2423,689.012 1847.8731,688.431 Z " fill="#000000"/><text fill="#000000" font-family="sans-serif" font-size="12" font-style="italic" lengthAdjust="spacing" textLength="42" x="1893.6" y="681.3016">&#171;Kode&#187;</text><text fill="#000000" font-family="sans-serif" font-size="14" lengthAdjust="spacing" textLength="100" x="1864.6" y="697.368">Dokumenttype</text><line style="stroke:#181818;stroke-width:0.5;" x1="1808" x2="1990" y1="705.3211" y2="705.3211"/><ellipse cx="1818" cy="719.0652" fill="none" rx="3" ry="3" style="stroke:#038048;stroke-width:1.0;"/><text fill="#000000" font-family="sans-serif" font-size="14" lengthAdjust="spacing" textLength="116" x="1827" y="722.8563">kodeverdi: string</text><ellipse cx="1818" cy="735.5535" fill="none" rx="3" ry="3" style="stroke:#038048;stroke-width:1.0;"/><text fill="#000000" font-family="sans-serif" font-size="14" lengthAdjust="spacing" textLength="158" x="1827" y="739.3445">kodebeskrivelse: string</text><line style="stroke:#181818;stroke-width:0.5;" x1="1808" x2="1990" y1="746.2977" y2="746.2977"/></g><!--class ReferanseDokumentfil--><g id="elem_ReferanseDokumentfil"><rect codeLine="18" fill="#F1F1F1" height="80.9766" id="ReferanseDokumentfil" rx="2.5" ry="2.5" style="stroke:#181818;stroke-width:0.5;" width="184" x="2026" y="669.01"/><ellipse cx="2041" cy="685.01" fill="#ADD1B2" rx="11" ry="11" style="stroke:#181818;stroke-width:1.0;"/><path d="M2043.4731,691.1531 Q2042.8921,691.4519 2042.2529,691.6013 Q2041.6138,691.7507 2040.9082,691.7507 Q2038.4014,691.7507 2037.0815,690.0989 Q2035.7617,688.447 2035.7617,685.3259 Q2035.7617,682.1965 2037.0815,680.5447 Q2038.4014,678.8928 2040.9082,678.8928 Q2041.6138,678.8928 2042.2612,679.0422 Q2042.9087,679.1916 2043.4731,679.4905 L2043.4731,682.2131 Q2042.8423,681.6321 2042.2488,681.3623 Q2041.6553,681.0925 2041.0244,681.0925 Q2039.6797,681.0925 2038.9949,682.1592 Q2038.3101,683.2258 2038.3101,685.3259 Q2038.3101,687.4177 2038.9949,688.4844 Q2039.6797,689.551 2041.0244,689.551 Q2041.6553,689.551 2042.2488,689.2812 Q2042.8423,689.0115 2043.4731,688.4304 Z " fill="#000000"/><text fill="#000000" font-family="sans-serif" font-size="14" lengthAdjust="spacing" textLength="152" x="2055" y="690.301">ReferanseDokumentfil</text><line style="stroke:#181818;stroke-width:0.5;" x1="2027" x2="2209" y1="701.01" y2="701.01"/><ellipse cx="2037" cy="714.7541" fill="none" rx="3" ry="3" style="stroke:#038048;stroke-width:1.0;"/><text fill="#000000" font-family="sans-serif" font-size="14" lengthAdjust="spacing" textLength="61" x="2046" y="718.5452">id: string</text><ellipse cx="2037" cy="731.2424" fill="none" rx="3" ry="3" style="stroke:#038048;stroke-width:1.0;"/><text fill="#000000" font-family="sans-serif" font-size="14" lengthAdjust="spacing" textLength="67" x="2046" y="735.0334">url: string</text><line style="stroke:#181818;stroke-width:0.5;" x1="2027" x2="2209" y1="741.9866" y2="741.9866"/></g><!--class Planbehandling--><g id="elem_Planbehandling"><rect codeLine="5" fill="#F1F1F1" height="146.9297" id="Planbehandling" rx="2.5" ry="2.5" style="stroke:#181818;stroke-width:0.5;" width="321" x="1441.5" y="197.44"/><ellipse cx="1544.25" cy="213.44" fill="#ADD1B2" rx="11" ry="11" style="stroke:#181818;stroke-width:1.0;"/><path d="M1546.7231,219.5831 Q1546.1421,219.8819 1545.5029,220.0313 Q1544.8638,220.1807 1544.1582,220.1807 Q1541.6514,220.1807 1540.3315,218.5289 Q1539.0117,216.877 1539.0117,213.7559 Q1539.0117,210.6265 1540.3315,208.9747 Q1541.6514,207.3228 1544.1582,207.3228 Q1544.8638,207.3228 1545.5112,207.4722 Q1546.1587,207.6216 1546.7231,207.9205 L1546.7231,210.6431 Q1546.0923,210.0621 1545.4988,209.7923 Q1544.9053,209.5225 1544.2744,209.5225 Q1542.9297,209.5225 1542.2449,210.5892 Q1541.5601,211.6558 1541.5601,213.7559 Q1541.5601,215.8477 1542.2449,216.9144 Q1542.9297,217.981 1544.2744,217.981 Q1544.9053,217.981 1545.4988,217.7112 Q1546.0923,217.4415 1546.7231,216.8604 Z " fill="#000000"/><text fill="#000000" font-family="sans-serif" font-size="14" lengthAdjust="spacing" textLength="107" x="1564.75" y="218.731">Planbehandling</text><line style="stroke:#181818;stroke-width:0.5;" x1="1442.5" x2="1761.5" y1="229.44" y2="229.44"/><ellipse cx="1452.5" cy="243.1841" fill="none" rx="3" ry="3" style="stroke:#038048;stroke-width:1.0;"/><text fill="#000000" font-family="sans-serif" font-size="14" lengthAdjust="spacing" textLength="123" x="1461.5" y="246.9752">posisjon: Posisjon</text><ellipse cx="1452.5" cy="259.6724" fill="none" rx="3" ry="3" style="stroke:#038048;stroke-width:1.0;"/><text fill="#000000" font-family="sans-serif" font-size="14" lengthAdjust="spacing" textLength="69" x="1461.5" y="263.4634">dato: date</text><ellipse cx="1452.5" cy="276.1607" fill="none" rx="3" ry="3" style="stroke:#038048;stroke-width:1.0;"/><text fill="#000000" font-family="sans-serif" font-size="14" lengthAdjust="spacing" textLength="185" x="1461.5" y="279.9517">saksnummer: Saksnummer</text><ellipse cx="1452.5" cy="292.649" fill="none" rx="3" ry="3" style="stroke:#038048;stroke-width:1.0;"/><text fill="#000000" font-family="sans-serif" font-size="14" lengthAdjust="spacing" textLength="295" x="1461.5" y="296.44">planbehandlingstype: Planbehandlingstype</text><ellipse cx="1452.5" cy="309.1373" fill="none" rx="3" ry="3" style="stroke:#038048;stroke-width:1.0;"/><text fill="#000000" font-family="sans-serif" font-size="14" lengthAdjust="spacing" textLength="81" x="1461.5" y="312.9283">navn: string</text><ellipse cx="1452.5" cy="325.6255" fill="none" rx="3" ry="3" style="stroke:#038048;stroke-width:1.0;"/><text fill="#000000" font-family="sans-serif" font-size="14" lengthAdjust="spacing" textLength="203" x="1461.5" y="329.4166">plandokumenter: Dokument[]</text><line style="stroke:#181818;stroke-width:0.5;" x1="1442.5" x2="1761.5" y1="336.3697" y2="336.3697"/></g><!--class Planbehandlingstype--><g id="elem_Planbehandlingstype"><rect codeLine="19" fill="#F1F1F1" height="89.5977" id="Planbehandlingstype" rx="2.5" ry="2.5" style="stroke:#181818;stroke-width:0.5;" width="184" x="2139" y="482.5"/><ellipse cx="2158.05" cy="502.8105" fill="#ADD1B2" rx="11" ry="11" style="stroke:#181818;stroke-width:1.0;"/><path d="M2160.5231,508.9536 Q2159.9421,509.2524 2159.3029,509.4019 Q2158.6638,509.5513 2157.9582,509.5513 Q2155.4514,509.5513 2154.1315,507.8994 Q2152.8117,506.2476 2152.8117,503.1265 Q2152.8117,499.9971 2154.1315,498.3452 Q2155.4514,496.6934 2157.9582,496.6934 Q2158.6638,496.6934 2159.3112,496.8428 Q2159.9587,496.9922 2160.5231,497.291 L2160.5231,500.0137 Q2159.8923,499.4326 2159.2988,499.1628 Q2158.7053,498.8931 2158.0744,498.8931 Q2156.7297,498.8931 2156.0449,499.9597 Q2155.3601,501.0264 2155.3601,503.1265 Q2155.3601,505.2183 2156.0449,506.2849 Q2156.7297,507.3516 2158.0744,507.3516 Q2158.7053,507.3516 2159.2988,507.0818 Q2159.8923,506.812 2160.5231,506.231 Z " fill="#000000"/><text fill="#000000" font-family="sans-serif" font-size="12" font-style="italic" lengthAdjust="spacing" textLength="42" x="2223.45" y="499.1016">&#171;Kode&#187;</text><text fill="#000000" font-family="sans-serif" font-size="14" lengthAdjust="spacing" textLength="143" x="2172.95" y="515.168">Planbehandlingstype</text><line style="stroke:#181818;stroke-width:0.5;" x1="2140" x2="2322" y1="523.1211" y2="523.1211"/><ellipse cx="2150" cy="536.8652" fill="none" rx="3" ry="3" style="stroke:#038048;stroke-width:1.0;"/><text fill="#000000" font-family="sans-serif" font-size="14" lengthAdjust="spacing" textLength="116" x="2159" y="540.6563">kodeverdi: string</text><ellipse cx="2150" cy="553.3535" fill="none" rx="3" ry="3" style="stroke:#038048;stroke-width:1.0;"/><text fill="#000000" font-family="sans-serif" font-size="14" lengthAdjust="spacing" textLength="158" x="2159" y="557.1445">kodebeskrivelse: string</text><line style="stroke:#181818;stroke-width:0.5;" x1="2140" x2="2322" y1="564.0977" y2="564.0977"/></g><!--class HentArealplanResultat--><g id="elem_HentArealplanResultat"><rect codeLine="5" fill="#F1F1F1" height="80.9766" id="HentArealplanResultat" rx="2.5" ry="2.5" style="stroke:#181818;stroke-width:0.5;" width="273" x="987.5" y="7"/><ellipse cx="1043.25" cy="23" fill="#ADD1B2" rx="11" ry="11" style="stroke:#181818;stroke-width:1.0;"/><path d="M1045.7231,29.1431 Q1045.1421,29.4419 1044.5029,29.5913 Q1043.8638,29.7407 1043.1582,29.7407 Q1040.6514,29.7407 1039.3315,28.0889 Q1038.0117,26.437 1038.0117,23.3159 Q1038.0117,20.1865 1039.3315,18.5347 Q1040.6514,16.8828 1043.1582,16.8828 Q1043.8638,16.8828 1044.5112,17.0322 Q1045.1587,17.1816 1045.7231,17.4805 L1045.7231,20.2031 Q1045.0923,19.6221 1044.4988,19.3523 Q1043.9053,19.0825 1043.2744,19.0825 Q1041.9297,19.0825 1041.2449,20.1492 Q1040.5601,21.2158 1040.5601,23.3159 Q1040.5601,25.4077 1041.2449,26.4744 Q1041.9297,27.541 1043.2744,27.541 Q1043.9053,27.541 1044.4988,27.2712 Q1045.0923,27.0015 1045.7231,26.4204 Z " fill="#000000"/><text fill="#000000" font-family="sans-serif" font-size="14" lengthAdjust="spacing" textLength="153" x="1063.75" y="28.291">HentArealplanResultat</text><line style="stroke:#181818;stroke-width:0.5;" x1="988.5" x2="1259.5" y1="39" y2="39"/><ellipse cx="998.5" cy="52.7441" fill="none" rx="3" ry="3" style="stroke:#038048;stroke-width:1.0;"/><text fill="#000000" font-family="sans-serif" font-size="14" lengthAdjust="spacing" textLength="138" x="1007.5" y="56.5352">arealplan: Arealplan</text><ellipse cx="998.5" cy="69.2324" fill="none" rx="3" ry="3" style="stroke:#038048;stroke-width:1.0;"/><text fill="#000000" font-family="sans-serif" font-size="14" lengthAdjust="spacing" textLength="247" x="1007.5" y="73.0234">planbehandlinger: Planbehandling[]</text><line style="stroke:#181818;stroke-width:0.5;" x1="988.5" x2="1259.5" y1="79.9766" y2="79.9766"/></g><!--link NasjonalArealplanId to AdministrativEnhet--><g id="link_NasjonalArealplanId_AdministrativEnhet"><path codeLine="6" d="M153,567.85 C153,595.09 153,631.46 153,660.39 " fill="none" id="NasjonalArealplanId-AdministrativEnhet" style="stroke:#181818;stroke-width:1.0;"/></g><!--link Arealplan to NasjonalArealplanId--><g id="link_Arealplan_NasjonalArealplanId"><path codeLine="19" d="M600.19,334.94 C515.94,369.52 410,413.47 316,453.84 C291.81,464.22 265.72,475.7 241.65,486.4 " fill="none" id="Arealplan-NasjonalArealplanId" style="stroke:#181818;stroke-width:1.0;"/></g><!--link Arealplan to Plantype--><g id="link_Arealplan_Plantype"><path codeLine="20" d="M600.13,391.65 C558.3,424 515.63,456.99 483.01,482.22 " fill="none" id="Arealplan-Plantype" style="stroke:#181818;stroke-width:1.0;"/></g><!--link Arealplan to Planstatus--><g id="link_Arealplan_Planstatus"><path codeLine="21" d="M702.09,394.26 C688.5,425.7 674.73,457.54 664.13,482.07 " fill="none" id="Arealplan-Planstatus" style="stroke:#181818;stroke-width:1.0;"/></g><!--link Arealplan to Lovreferanse--><g id="link_Arealplan_Lovreferanse"><path codeLine="22" d="M807.42,394.26 C820.9,425.7 834.54,457.54 845.05,482.07 " fill="none" id="Arealplan-Lovreferanse" style="stroke:#181818;stroke-width:1.0;"/></g><!--link Arealplan to ForslagstillerType--><g id="link_Arealplan_ForslagstillerType"><path codeLine="23" d="M909.88,392.03 C951.34,424.19 993.59,456.96 1025.97,482.07 " fill="none" id="Arealplan-ForslagstillerType" style="stroke:#181818;stroke-width:1.0;"/></g><!--link Posisjon to Koordinatsystem--><g id="link_Posisjon_Koordinatsystem"><path codeLine="7" d="M1561.67,576.12 C1538.53,603.54 1509.7,637.72 1487.13,664.48 " fill="none" id="Posisjon-Koordinatsystem" style="stroke:#181818;stroke-width:1.0;"/></g><!--link Posisjon to PosisjonType--><g id="link_Posisjon_PosisjonType"><path codeLine="8" d="M1611.55,576.12 C1617.93,608.02 1626.13,649.08 1631.7,676.95 " fill="none" id="Posisjon-PosisjonType" style="stroke:#181818;stroke-width:1.0;"/></g><!--link Dokument to Dokumenttype--><g id="link_Dokument_Dokumenttype"><path codeLine="10" d="M1921.06,601.07 C1916.67,622.47 1911.99,645.21 1908.09,664.24 " fill="none" id="Dokument-Dokumenttype" style="stroke:#181818;stroke-width:1.0;"/></g><!--link Dokument to ReferanseDokumentfil--><g id="link_Dokument_ReferanseDokumentfil"><path codeLine="11" d="M2009.5,601.07 C2032.78,624.13 2057.66,648.75 2077.7,668.6 " fill="none" id="Dokument-ReferanseDokumentfil" style="stroke:#181818;stroke-width:1.0;"/></g><!--link Planbehandling to Posisjon--><g id="link_Planbehandling_Posisjon"><path codeLine="14" d="M1602,344.81 C1602,387.68 1602,440.68 1602,478.32 " fill="none" id="Planbehandling-Posisjon" style="stroke:#181818;stroke-width:1.0;"/></g><!--link Planbehandling to Saksnummer--><g id="link_Planbehandling_Saksnummer"><path codeLine="15" d="M1522.05,344.81 C1471.49,390.91 1408.08,448.73 1366.6,486.55 " fill="none" id="Planbehandling-Saksnummer" style="stroke:#181818;stroke-width:1.0;"/></g><!--link Planbehandling to Planbehandlingstype--><g id="link_Planbehandling_Planbehandlingstype"><path codeLine="16" d="M1762.82,317.08 C1867.48,349.17 2005.49,396.63 2121,453.84 C2137.39,461.95 2154.28,472.08 2169.76,482.16 " fill="none" id="Planbehandling-Planbehandlingstype" style="stroke:#181818;stroke-width:1.0;"/></g><!--link Planbehandling to Dokument--><g id="link_Planbehandling_Dokument"><path codeLine="17" d="M1697.71,344.81 C1742.43,378.87 1795.55,419.33 1840.28,453.39 " fill="none" id="Planbehandling-Dokument" style="stroke:#181818;stroke-width:1.0;"/></g><!--link HentArealplanResultat to Arealplan--><g id="link_HentArealplanResultat_Arealplan"><path codeLine="10" d="M1057.6,88.33 C1016.31,113.11 961.41,146.05 909.7,177.08 " fill="none" id="HentArealplanResultat-Arealplan" style="stroke:#181818;stroke-width:1.0;"/></g><!--link HentArealplanResultat to Planbehandling--><g id="link_HentArealplanResultat_Planbehandling"><path codeLine="11" d="M1210.29,88.46 C1275.5,118.66 1366.81,160.96 1444.87,197.12 " fill="none" id="HentArealplanResultat-Planbehandling" style="stroke:#181818;stroke-width:1.0;"/></g><!--SRC=[ZOqn2y9038Nt_8fqbkR0iPkRexYAGsnJFGonzEwwYF_T5l7mGC4C8Uyb-LxbhTNK2P8ZSdQZQw3UpsrGDfhMr8kg1E9HM1VFvOc61DMVxuiyoOMjKszdLye51Aro2BWLYvjtm5v2qiWHxu1phN9oW_dcjIbvCZQuAvp34Hu0t-5r_K7xULBou0a0]--></g></svg>