<svg xmlns="http://www.w3.org/2000/svg" xmlns:xlink="http://www.w3.org/1999/xlink" contentStyleType="text/css" height="566px" preserveAspectRatio="none" style="width:1182px;height:566px;background:#FFFFFF;" version="1.1" viewBox="0 0 1182 566" width="1182px" zoomAndPan="magnify"><defs/><g><!--class NasjonalArealplanId--><g id="elem_NasjonalArealplanId"><rect codeLine="1" fill="#F1F1F1" height="80.9766" id="NasjonalArealplanId" rx="2.5" ry="2.5" style="stroke:#181818;stroke-width:0.5;" width="292" x="7" y="317.17"/><ellipse cx="79.75" cy="333.17" fill="#ADD1B2" rx="11" ry="11" style="stroke:#181818;stroke-width:1.0;"/><path d="M82.2231,339.3131 Q81.6421,339.6119 81.0029,339.7613 Q80.3638,339.9107 79.6582,339.9107 Q77.1514,339.9107 75.8315,338.2589 Q74.5117,336.607 74.5117,333.4859 Q74.5117,330.3565 75.8315,328.7047 Q77.1514,327.0528 79.6582,327.0528 Q80.3638,327.0528 81.0112,327.2022 Q81.6587,327.3516 82.2231,327.6505 L82.2231,330.3731 Q81.5923,329.7921 80.9988,329.5223 Q80.4053,329.2525 79.7744,329.2525 Q78.4297,329.2525 77.7449,330.3192 Q77.0601,331.3858 77.0601,333.4859 Q77.0601,335.5777 77.7449,336.6444 Q78.4297,337.711 79.7744,337.711 Q80.4053,337.711 80.9988,337.4412 Q81.5923,337.1715 82.2231,336.5904 Z " fill="#000000"/><text fill="#000000" font-family="sans-serif" font-size="14" lengthAdjust="spacing" textLength="138" x="100.25" y="338.461">NasjonalArealplanId</text><line style="stroke:#181818;stroke-width:0.5;" x1="8" x2="298" y1="349.17" y2="349.17"/><ellipse cx="18" cy="362.9141" fill="none" rx="3" ry="3" style="stroke:#038048;stroke-width:1.0;"/><text fill="#000000" font-family="sans-serif" font-size="14" lengthAdjust="spacing" textLength="266" x="27" y="366.7052">administrativEnhet: AdministrativEnhet</text><ellipse cx="18" cy="379.4024" fill="none" rx="3" ry="3" style="stroke:#038048;stroke-width:1.0;"/><text fill="#000000" font-family="sans-serif" font-size="14" lengthAdjust="spacing" textLength="171" x="27" y="383.1934">planidentifikasjon: string</text><line style="stroke:#181818;stroke-width:0.5;" x1="8" x2="298" y1="390.1466" y2="390.1466"/></g><!--class AdministrativEnhet--><g id="elem_AdministrativEnhet"><rect codeLine="8" fill="#F1F1F1" height="97.4648" id="AdministrativEnhet" rx="2.5" ry="2.5" style="stroke:#181818;stroke-width:0.5;" width="162" x="72" y="462.46"/><ellipse cx="87" cy="478.46" fill="#EB937F" rx="11" ry="11" style="stroke:#181818;stroke-width:1.0;"/><path d="M90.6143,484.96 L82.8945,484.96 L82.8945,472.5669 L90.6143,472.5669 L90.6143,474.7251 L85.3433,474.7251 L85.3433,477.398 L90.1162,477.398 L90.1162,479.5562 L85.3433,479.5562 L85.3433,482.8018 L90.6143,482.8018 Z " fill="#000000"/><text fill="#000000" font-family="sans-serif" font-size="14" lengthAdjust="spacing" textLength="130" x="101" y="483.751">AdministrativEnhet</text><line style="stroke:#181818;stroke-width:0.5;" x1="73" x2="233" y1="494.46" y2="494.46"/><text fill="#000000" font-family="sans-serif" font-size="14" lengthAdjust="spacing" textLength="127" x="78" y="511.9952">kommunenummer</text><text fill="#000000" font-family="sans-serif" font-size="14" lengthAdjust="spacing" textLength="97" x="78" y="528.4834">fylkesnummer</text><text fill="#000000" font-family="sans-serif" font-size="14" lengthAdjust="spacing" textLength="71" x="78" y="544.9717">landskode</text><line style="stroke:#181818;stroke-width:0.5;" x1="73" x2="233" y1="551.9248" y2="551.9248"/></g><!--class Arealplan--><g id="elem_Arealplan"><rect codeLine="4" fill="#F1F1F1" height="245.8594" id="Arealplan" rx="2.5" ry="2.5" style="stroke:#181818;stroke-width:0.5;" width="309" x="490.5" y="7"/><ellipse cx="607.75" cy="23" fill="#ADD1B2" rx="11" ry="11" style="stroke:#181818;stroke-width:1.0;"/><path d="M610.2231,29.1431 Q609.6421,29.4419 609.0029,29.5913 Q608.3638,29.7407 607.6582,29.7407 Q605.1514,29.7407 603.8315,28.0889 Q602.5117,26.437 602.5117,23.3159 Q602.5117,20.1865 603.8315,18.5347 Q605.1514,16.8828 607.6582,16.8828 Q608.3638,16.8828 609.0112,17.0322 Q609.6587,17.1816 610.2231,17.4805 L610.2231,20.2031 Q609.5923,19.6221 608.9988,19.3523 Q608.4053,19.0825 607.7744,19.0825 Q606.4297,19.0825 605.7449,20.1492 Q605.0601,21.2158 605.0601,23.3159 Q605.0601,25.4077 605.7449,26.4744 Q606.4297,27.541 607.7744,27.541 Q608.4053,27.541 608.9988,27.2712 Q609.5923,27.0015 610.2231,26.4204 Z " fill="#000000"/><text fill="#000000" font-family="sans-serif" font-size="14" lengthAdjust="spacing" textLength="66" x="628.25" y="28.291">Arealplan</text><line style="stroke:#181818;stroke-width:0.5;" x1="491.5" x2="798.5" y1="39" y2="39"/><ellipse cx="501.5" cy="52.7441" fill="none" rx="3" ry="3" style="stroke:#038048;stroke-width:1.0;"/><text fill="#000000" font-family="sans-serif" font-size="14" lengthAdjust="spacing" textLength="283" x="510.5" y="56.5352">nasjonalArealplanId: NasjonalArealplanId</text><ellipse cx="501.5" cy="69.2324" fill="none" rx="3" ry="3" style="stroke:#038048;stroke-width:1.0;"/><text fill="#000000" font-family="sans-serif" font-size="14" lengthAdjust="spacing" textLength="125" x="510.5" y="73.0234">plantype: Plantype</text><ellipse cx="501.5" cy="85.7207" fill="none" rx="3" ry="3" style="stroke:#038048;stroke-width:1.0;"/><text fill="#000000" font-family="sans-serif" font-size="14" lengthAdjust="spacing" textLength="111" x="510.5" y="89.5117">plannavn: string</text><ellipse cx="501.5" cy="102.209" fill="none" rx="3" ry="3" style="stroke:#038048;stroke-width:1.0;"/><text fill="#000000" font-family="sans-serif" font-size="14" lengthAdjust="spacing" textLength="149" x="510.5" y="106">planstatus: Planstatus</text><ellipse cx="501.5" cy="118.6973" fill="none" rx="3" ry="3" style="stroke:#038048;stroke-width:1.0;"/><text fill="#000000" font-family="sans-serif" font-size="14" lengthAdjust="spacing" textLength="271" x="510.5" y="122.4883">plandokumentasjonOppdatert: boolean</text><ellipse cx="501.5" cy="135.1855" fill="none" rx="3" ry="3" style="stroke:#038048;stroke-width:1.0;"/><text fill="#000000" font-family="sans-serif" font-size="14" lengthAdjust="spacing" textLength="180" x="510.5" y="138.9766">ubehandletKlage: boolean</text><ellipse cx="501.5" cy="151.6738" fill="none" rx="3" ry="3" style="stroke:#038048;stroke-width:1.0;"/><text fill="#000000" font-family="sans-serif" font-size="14" lengthAdjust="spacing" textLength="211" x="510.5" y="155.4648">ubehandletInnsigelse: boolean</text><ellipse cx="501.5" cy="168.1621" fill="none" rx="3" ry="3" style="stroke:#038048;stroke-width:1.0;"/><text fill="#000000" font-family="sans-serif" font-size="14" lengthAdjust="spacing" textLength="121" x="510.5" y="171.9531">vedtaksdato: date</text><ellipse cx="501.5" cy="184.6504" fill="none" rx="3" ry="3" style="stroke:#038048;stroke-width:1.0;"/><text fill="#000000" font-family="sans-serif" font-size="14" lengthAdjust="spacing" textLength="195" x="510.5" y="188.4414">vedtakEndeligPlanDato: date</text><ellipse cx="501.5" cy="201.1387" fill="none" rx="3" ry="3" style="stroke:#038048;stroke-width:1.0;"/><text fill="#000000" font-family="sans-serif" font-size="14" lengthAdjust="spacing" textLength="181" x="510.5" y="204.9297">lovreferanse: Lovreferanse</text><ellipse cx="501.5" cy="217.627" fill="none" rx="3" ry="3" style="stroke:#038048;stroke-width:1.0;"/><text fill="#000000" font-family="sans-serif" font-size="14" lengthAdjust="spacing" textLength="249" x="510.5" y="221.418">forslagstillerType: ForslagstillerType</text><ellipse cx="501.5" cy="234.1152" fill="none" rx="3" ry="3" style="stroke:#038048;stroke-width:1.0;"/><text fill="#000000" font-family="sans-serif" font-size="14" lengthAdjust="spacing" textLength="173" x="510.5" y="237.9063">alternativFinnes: boolean</text><line style="stroke:#181818;stroke-width:0.5;" x1="491.5" x2="798.5" y1="244.8594" y2="244.8594"/></g><!--class Plantype--><g id="elem_Plantype"><rect codeLine="25" fill="#F1F1F1" height="89.5977" id="Plantype" rx="2.5" ry="2.5" style="stroke:#181818;stroke-width:0.5;" width="184" x="334" y="312.86"/><ellipse cx="392.75" cy="333.1705" fill="#ADD1B2" rx="11" ry="11" style="stroke:#181818;stroke-width:1.0;"/><path d="M395.2231,339.3136 Q394.6421,339.6124 394.0029,339.7619 Q393.3638,339.9113 392.6582,339.9113 Q390.1514,339.9113 388.8315,338.2594 Q387.5117,336.6076 387.5117,333.4865 Q387.5117,330.3571 388.8315,328.7052 Q390.1514,327.0534 392.6582,327.0534 Q393.3638,327.0534 394.0112,327.2028 Q394.6587,327.3522 395.2231,327.651 L395.2231,330.3737 Q394.5923,329.7926 393.9988,329.5228 Q393.4053,329.2531 392.7744,329.2531 Q391.4297,329.2531 390.7449,330.3197 Q390.0601,331.3864 390.0601,333.4865 Q390.0601,335.5783 390.7449,336.6449 Q391.4297,337.7116 392.7744,337.7116 Q393.4053,337.7116 393.9988,337.4418 Q394.5923,337.172 395.2231,336.591 Z " fill="#000000"/><text fill="#000000" font-family="sans-serif" font-size="12" font-style="italic" lengthAdjust="spacing" textLength="42" x="421.25" y="329.4616">&#171;Kode&#187;</text><text fill="#000000" font-family="sans-serif" font-size="14" lengthAdjust="spacing" textLength="58" x="413.25" y="345.528">Plantype</text><line style="stroke:#181818;stroke-width:0.5;" x1="335" x2="517" y1="353.4811" y2="353.4811"/><ellipse cx="345" cy="367.2252" fill="none" rx="3" ry="3" style="stroke:#038048;stroke-width:1.0;"/><text fill="#000000" font-family="sans-serif" font-size="14" lengthAdjust="spacing" textLength="116" x="354" y="371.0162">kodeverdi: string</text><ellipse cx="345" cy="383.7135" fill="none" rx="3" ry="3" style="stroke:#038048;stroke-width:1.0;"/><text fill="#000000" font-family="sans-serif" font-size="14" lengthAdjust="spacing" textLength="158" x="354" y="387.5045">kodebeskrivelse: string</text><line style="stroke:#181818;stroke-width:0.5;" x1="335" x2="517" y1="394.4577" y2="394.4577"/></g><!--class Planstatus--><g id="elem_Planstatus"><rect codeLine="30" fill="#F1F1F1" height="89.5977" id="Planstatus" rx="2.5" ry="2.5" style="stroke:#181818;stroke-width:0.5;" width="184" x="553" y="312.86"/><ellipse cx="605.75" cy="333.1705" fill="#ADD1B2" rx="11" ry="11" style="stroke:#181818;stroke-width:1.0;"/><path d="M608.2231,339.3136 Q607.6421,339.6124 607.0029,339.7619 Q606.3638,339.9113 605.6582,339.9113 Q603.1514,339.9113 601.8315,338.2594 Q600.5117,336.6076 600.5117,333.4865 Q600.5117,330.3571 601.8315,328.7052 Q603.1514,327.0534 605.6582,327.0534 Q606.3638,327.0534 607.0112,327.2028 Q607.6587,327.3522 608.2231,327.651 L608.2231,330.3737 Q607.5923,329.7926 606.9988,329.5228 Q606.4053,329.2531 605.7744,329.2531 Q604.4297,329.2531 603.7449,330.3197 Q603.0601,331.3864 603.0601,333.4865 Q603.0601,335.5783 603.7449,336.6449 Q604.4297,337.7116 605.7744,337.7116 Q606.4053,337.7116 606.9988,337.4418 Q607.5923,337.172 608.2231,336.591 Z " fill="#000000"/><text fill="#000000" font-family="sans-serif" font-size="12" font-style="italic" lengthAdjust="spacing" textLength="42" x="640.25" y="329.4616">&#171;Kode&#187;</text><text fill="#000000" font-family="sans-serif" font-size="14" lengthAdjust="spacing" textLength="70" x="626.25" y="345.528">Planstatus</text><line style="stroke:#181818;stroke-width:0.5;" x1="554" x2="736" y1="353.4811" y2="353.4811"/><ellipse cx="564" cy="367.2252" fill="none" rx="3" ry="3" style="stroke:#038048;stroke-width:1.0;"/><text fill="#000000" font-family="sans-serif" font-size="14" lengthAdjust="spacing" textLength="116" x="573" y="371.0162">kodeverdi: string</text><ellipse cx="564" cy="383.7135" fill="none" rx="3" ry="3" style="stroke:#038048;stroke-width:1.0;"/><text fill="#000000" font-family="sans-serif" font-size="14" lengthAdjust="spacing" textLength="158" x="573" y="387.5045">kodebeskrivelse: string</text><line style="stroke:#181818;stroke-width:0.5;" x1="554" x2="736" y1="394.4577" y2="394.4577"/></g><!--class Lovreferanse--><g id="elem_Lovreferanse"><rect codeLine="35" fill="#F1F1F1" height="89.5977" id="Lovreferanse" rx="2.5" ry="2.5" style="stroke:#181818;stroke-width:0.5;" width="184" x="772" y="312.86"/><ellipse cx="815.8" cy="333.1705" fill="#ADD1B2" rx="11" ry="11" style="stroke:#181818;stroke-width:1.0;"/><path d="M818.2731,339.3136 Q817.6921,339.6124 817.0529,339.7619 Q816.4138,339.9113 815.7082,339.9113 Q813.2014,339.9113 811.8815,338.2594 Q810.5617,336.6076 810.5617,333.4865 Q810.5617,330.3571 811.8815,328.7052 Q813.2014,327.0534 815.7082,327.0534 Q816.4138,327.0534 817.0612,327.2028 Q817.7087,327.3522 818.2731,327.651 L818.2731,330.3737 Q817.6423,329.7926 817.0488,329.5228 Q816.4553,329.2531 815.8244,329.2531 Q814.4797,329.2531 813.7949,330.3197 Q813.1101,331.3864 813.1101,333.4865 Q813.1101,335.5783 813.7949,336.6449 Q814.4797,337.7116 815.8244,337.7116 Q816.4553,337.7116 817.0488,337.4418 Q817.6423,337.172 818.2731,336.591 Z " fill="#000000"/><text fill="#000000" font-family="sans-serif" font-size="12" font-style="italic" lengthAdjust="spacing" textLength="42" x="859.2" y="329.4616">&#171;Kode&#187;</text><text fill="#000000" font-family="sans-serif" font-size="14" lengthAdjust="spacing" textLength="88" x="836.2" y="345.528">Lovreferanse</text><line style="stroke:#181818;stroke-width:0.5;" x1="773" x2="955" y1="353.4811" y2="353.4811"/><ellipse cx="783" cy="367.2252" fill="none" rx="3" ry="3" style="stroke:#038048;stroke-width:1.0;"/><text fill="#000000" font-family="sans-serif" font-size="14" lengthAdjust="spacing" textLength="116" x="792" y="371.0162">kodeverdi: string</text><ellipse cx="783" cy="383.7135" fill="none" rx="3" ry="3" style="stroke:#038048;stroke-width:1.0;"/><text fill="#000000" font-family="sans-serif" font-size="14" lengthAdjust="spacing" textLength="158" x="792" y="387.5045">kodebeskrivelse: string</text><line style="stroke:#181818;stroke-width:0.5;" x1="773" x2="955" y1="394.4577" y2="394.4577"/></g><!--class ForslagstillerType--><g id="elem_ForslagstillerType"><rect codeLine="40" fill="#F1F1F1" height="89.5977" id="ForslagstillerType" rx="2.5" ry="2.5" style="stroke:#181818;stroke-width:0.5;" width="184" x="991" y="312.86"/><ellipse cx="1019.5" cy="333.1705" fill="#ADD1B2" rx="11" ry="11" style="stroke:#181818;stroke-width:1.0;"/><path d="M1021.9731,339.3136 Q1021.3921,339.6124 1020.7529,339.7619 Q1020.1138,339.9113 1019.4082,339.9113 Q1016.9014,339.9113 1015.5815,338.2594 Q1014.2617,336.6076 1014.2617,333.4865 Q1014.2617,330.3571 1015.5815,328.7052 Q1016.9014,327.0534 1019.4082,327.0534 Q1020.1138,327.0534 1020.7612,327.2028 Q1021.4087,327.3522 1021.9731,327.651 L1021.9731,330.3737 Q1021.3423,329.7926 1020.7488,329.5228 Q1020.1553,329.2531 1019.5244,329.2531 Q1018.1797,329.2531 1017.4949,330.3197 Q1016.8101,331.3864 1016.8101,333.4865 Q1016.8101,335.5783 1017.4949,336.6449 Q1018.1797,337.7116 1019.5244,337.7116 Q1020.1553,337.7116 1020.7488,337.4418 Q1021.3423,337.172 1021.9731,336.591 Z " fill="#000000"/><text fill="#000000" font-family="sans-serif" font-size="12" font-style="italic" lengthAdjust="spacing" textLength="42" x="1076.5" y="329.4616">&#171;Kode&#187;</text><text fill="#000000" font-family="sans-serif" font-size="14" lengthAdjust="spacing" textLength="122" x="1036.5" y="345.528">ForslagstillerType</text><line style="stroke:#181818;stroke-width:0.5;" x1="992" x2="1174" y1="353.4811" y2="353.4811"/><ellipse cx="1002" cy="367.2252" fill="none" rx="3" ry="3" style="stroke:#038048;stroke-width:1.0;"/><text fill="#000000" font-family="sans-serif" font-size="14" lengthAdjust="spacing" textLength="116" x="1011" y="371.0162">kodeverdi: string</text><ellipse cx="1002" cy="383.7135" fill="none" rx="3" ry="3" style="stroke:#038048;stroke-width:1.0;"/><text fill="#000000" font-family="sans-serif" font-size="14" lengthAdjust="spacing" textLength="158" x="1011" y="387.5045">kodebeskrivelse: string</text><line style="stroke:#181818;stroke-width:0.5;" x1="992" x2="1174" y1="394.4577" y2="394.4577"/></g><!--link NasjonalArealplanId to AdministrativEnhet--><g id="link_NasjonalArealplanId_AdministrativEnhet"><path codeLine="6" d="M153,398.47 C153,417.94 153,441.52 153,462 " fill="none" id="NasjonalArealplanId-AdministrativEnhet" style="stroke:#181818;stroke-width:1.0;"/></g><!--link Arealplan to NasjonalArealplanId--><g id="link_Arealplan_NasjonalArealplanId"><path codeLine="19" d="M490,202.04 C407.47,239.9 309.04,285.07 239.93,316.77 " fill="none" id="Arealplan-NasjonalArealplanId" style="stroke:#181818;stroke-width:1.0;"/></g><!--link Arealplan to Plantype--><g id="link_Arealplan_Plantype"><path codeLine="20" d="M526.53,253.04 C505.87,274.34 485.63,295.19 468.8,312.54 " fill="none" id="Arealplan-Plantype" style="stroke:#181818;stroke-width:1.0;"/></g><!--link Arealplan to Planstatus--><g id="link_Arealplan_Planstatus"><path codeLine="21" d="M645,253.04 C645,274.34 645,295.19 645,312.54 " fill="none" id="Arealplan-Planstatus" style="stroke:#181818;stroke-width:1.0;"/></g><!--link Arealplan to Lovreferanse--><g id="link_Arealplan_Lovreferanse"><path codeLine="22" d="M763.47,253.04 C784.13,274.34 804.37,295.19 821.2,312.54 " fill="none" id="Arealplan-Lovreferanse" style="stroke:#181818;stroke-width:1.0;"/></g><!--link Arealplan to ForslagstillerType--><g id="link_Arealplan_ForslagstillerType"><path codeLine="23" d="M799.73,210.67 C866.08,244.86 941.06,283.51 997.21,312.44 " fill="none" id="Arealplan-ForslagstillerType" style="stroke:#181818;stroke-width:1.0;"/></g><!--SRC=[hL91QiCm4Bpx5UgvH84UJGWKsa18QNle1pRHsbMjhenM5fIIlrUExDYEqqkf3sOrCyoETdMZwM0QXK8kfLoIbHNBGiTVRO1ak9C56eCi2VZ34XXm2ARbj5fUmMJTPDd10BEuxr7ndOdutVRoCx5LkNYUWqdTrlwhnboyTjM04mJA1NkdgHnGzk0RJlfK3vooLVE9v4_TNkfQWKVdSx6trY1G4ZPxV8zIWtvdeCHVsIqHwn8DNqe2AWyLHtERYxR567uaXKQNRRg72u6nmM61BkQEba-ZK-8BwpWcOg_ZBjpRQIgR6PQqOEBD2BmE6qs4F4GyPjcmayNYwkWdWlFWPsWttWa-YJrXhaJjtaZVGQnMEwjmlUxVIXLF0PtIqpMty1wvSZgayNVaSMoOmlsRvVXU_sOw7ydP-g_EFm00]--></g></svg>