<svg xmlns="http://www.w3.org/2000/svg" xmlns:xlink="http://www.w3.org/1999/xlink" contentStyleType="text/css" data-diagram-type="CLASS" height="566px" preserveAspectRatio="none" style="width:1179px;height:566px;background:#FFFFFF;" version="1.1" viewBox="0 0 1179 566" width="1179px" zoomAndPan="magnify"><defs/><g><!--class NasjonalArealplanId--><g class="entity" data-entity="NasjonalArealplanId" data-source-line="1" data-uid="ent0002" id="entity_NasjonalArealplanId"><rect fill="#F1F1F1" height="80.9766" rx="2.5" ry="2.5" style="stroke:#181818;stroke-width:0.5;" width="290.3047" x="7" y="317.17"/><ellipse cx="80.0898" cy="333.17" fill="#ADD1B2" rx="11" ry="11" style="stroke:#181818;stroke-width:1;"/><path d="M82.563,339.3131 Q81.9819,339.6119 81.3428,339.7613 Q80.7036,339.9107 79.998,339.9107 Q77.4912,339.9107 76.1714,338.2589 Q74.8516,336.607 74.8516,333.4859 Q74.8516,330.3565 76.1714,328.7047 Q77.4912,327.0528 79.998,327.0528 Q80.7036,327.0528 81.3511,327.2022 Q81.9985,327.3516 82.563,327.6505 L82.563,330.3731 Q81.9321,329.7921 81.3386,329.5223 Q80.7451,329.2525 80.1143,329.2525 Q78.7695,329.2525 78.0847,330.3192 Q77.3999,331.3858 77.3999,333.4859 Q77.3999,335.5777 78.0847,336.6444 Q78.7695,337.711 80.1143,337.711 Q80.7451,337.711 81.3386,337.4412 Q81.9321,337.1715 82.563,336.5904 Z " fill="#000000"/><text fill="#000000" font-family="sans-serif" font-size="14" lengthAdjust="spacing" textLength="135.625" x="100.5898" y="338.461">NasjonalArealplanId</text><line style="stroke:#181818;stroke-width:0.5;" x1="8" x2="296.3047" y1="349.17" y2="349.17"/><ellipse cx="18" cy="362.9141" fill="none" rx="3" ry="3" style="stroke:#038048;stroke-width:1;"/><text fill="#000000" font-family="sans-serif" font-size="14" lengthAdjust="spacing" textLength="264.3047" x="27" y="366.7052">administrativEnhet: AdministrativEnhet</text><ellipse cx="18" cy="379.4024" fill="none" rx="3" ry="3" style="stroke:#038048;stroke-width:1;"/><text fill="#000000" font-family="sans-serif" font-size="14" lengthAdjust="spacing" textLength="170.126" x="27" y="383.1934">planidentifikasjon: string</text><line style="stroke:#181818;stroke-width:0.5;" x1="8" x2="296.3047" y1="390.1466" y2="390.1466"/></g><!--class AdministrativEnhet--><g class="entity" data-entity="AdministrativEnhet" data-source-line="6" data-uid="ent0003" id="entity_AdministrativEnhet"><rect fill="#F1F1F1" height="97.4648" rx="2.5" ry="2.5" style="stroke:#181818;stroke-width:0.5;" width="160.6865" x="71.81" y="462.46"/><ellipse cx="86.81" cy="478.46" fill="#EB937F" rx="11" ry="11" style="stroke:#181818;stroke-width:1;"/><path d="M90.4243,484.96 L82.7045,484.96 L82.7045,472.5669 L90.4243,472.5669 L90.4243,474.7251 L85.1533,474.7251 L85.1533,477.398 L89.9262,477.398 L89.9262,479.5562 L85.1533,479.5562 L85.1533,482.8018 L90.4243,482.8018 Z " fill="#000000"/><text fill="#000000" font-family="sans-serif" font-size="14" lengthAdjust="spacing" textLength="128.6865" x="100.81" y="483.751">AdministrativEnhet</text><line style="stroke:#181818;stroke-width:0.5;" x1="72.81" x2="231.4965" y1="494.46" y2="494.46"/><text fill="#000000" font-family="sans-serif" font-size="14" lengthAdjust="spacing" textLength="125.1455" x="77.81" y="511.9952">kommunenummer</text><text fill="#000000" font-family="sans-serif" font-size="14" lengthAdjust="spacing" textLength="96.6738" x="77.81" y="528.4834">fylkesnummer</text><text fill="#000000" font-family="sans-serif" font-size="14" lengthAdjust="spacing" textLength="69.8086" x="77.81" y="544.9717">landskode</text><line style="stroke:#181818;stroke-width:0.5;" x1="72.81" x2="231.4965" y1="551.9248" y2="551.9248"/></g><!--class Arealplan--><g class="entity" data-entity="Arealplan" data-source-line="4" data-uid="ent0005" id="entity_Arealplan"><rect fill="#F1F1F1" height="245.8594" rx="2.5" ry="2.5" style="stroke:#181818;stroke-width:0.5;" width="304.4551" x="490.92" y="7"/><ellipse cx="606.7755" cy="23" fill="#ADD1B2" rx="11" ry="11" style="stroke:#181818;stroke-width:1;"/><path d="M609.2486,29.1431 Q608.6676,29.4419 608.0284,29.5913 Q607.3892,29.7407 606.6837,29.7407 Q604.1768,29.7407 602.857,28.0889 Q601.5372,26.437 601.5372,23.3159 Q601.5372,20.1865 602.857,18.5347 Q604.1768,16.8828 606.6837,16.8828 Q607.3892,16.8828 608.0367,17.0322 Q608.6842,17.1816 609.2486,17.4805 L609.2486,20.2031 Q608.6178,19.6221 608.0242,19.3523 Q607.4307,19.0825 606.7999,19.0825 Q605.4552,19.0825 604.7703,20.1492 Q604.0855,21.2158 604.0855,23.3159 Q604.0855,25.4077 604.7703,26.4744 Q605.4552,27.541 606.7999,27.541 Q607.4307,27.541 608.0242,27.2712 Q608.6178,27.0015 609.2486,26.4204 Z " fill="#000000"/><text fill="#000000" font-family="sans-serif" font-size="14" lengthAdjust="spacing" textLength="64.2441" x="627.2755" y="28.291">Arealplan</text><line style="stroke:#181818;stroke-width:0.5;" x1="491.92" x2="794.3751" y1="39" y2="39"/><ellipse cx="501.92" cy="52.7441" fill="none" rx="3" ry="3" style="stroke:#038048;stroke-width:1;"/><text fill="#000000" font-family="sans-serif" font-size="14" lengthAdjust="spacing" textLength="278.4551" x="510.92" y="56.5352">nasjonalArealplanId: NasjonalArealplanId</text><ellipse cx="501.92" cy="69.2324" fill="none" rx="3" ry="3" style="stroke:#038048;stroke-width:1;"/><text fill="#000000" font-family="sans-serif" font-size="14" lengthAdjust="spacing" textLength="124.667" x="510.92" y="73.0234">plantype: Plantype</text><ellipse cx="501.92" cy="85.7207" fill="none" rx="3" ry="3" style="stroke:#038048;stroke-width:1;"/><text fill="#000000" font-family="sans-serif" font-size="14" lengthAdjust="spacing" textLength="110.0586" x="510.92" y="89.5117">plannavn: string</text><ellipse cx="501.92" cy="102.209" fill="none" rx="3" ry="3" style="stroke:#038048;stroke-width:1;"/><text fill="#000000" font-family="sans-serif" font-size="14" lengthAdjust="spacing" textLength="148.6748" x="510.92" y="106">planstatus: Planstatus</text><ellipse cx="501.92" cy="118.6973" fill="none" rx="3" ry="3" style="stroke:#038048;stroke-width:1;"/><text fill="#000000" font-family="sans-serif" font-size="14" lengthAdjust="spacing" textLength="266.9502" x="510.92" y="122.4883">plandokumentasjonOppdatert: boolean</text><ellipse cx="501.92" cy="135.1855" fill="none" rx="3" ry="3" style="stroke:#038048;stroke-width:1;"/><text fill="#000000" font-family="sans-serif" font-size="14" lengthAdjust="spacing" textLength="176.8867" x="510.92" y="138.9766">ubehandletKlage: boolean</text><ellipse cx="501.92" cy="151.6738" fill="none" rx="3" ry="3" style="stroke:#038048;stroke-width:1;"/><text fill="#000000" font-family="sans-serif" font-size="14" lengthAdjust="spacing" textLength="207.5459" x="510.92" y="155.4648">ubehandletInnsigelse: boolean</text><ellipse cx="501.92" cy="168.1621" fill="none" rx="3" ry="3" style="stroke:#038048;stroke-width:1;"/><text fill="#000000" font-family="sans-serif" font-size="14" lengthAdjust="spacing" textLength="120.9619" x="510.92" y="171.9531">vedtaksdato: date</text><ellipse cx="501.92" cy="184.6504" fill="none" rx="3" ry="3" style="stroke:#038048;stroke-width:1;"/><text fill="#000000" font-family="sans-serif" font-size="14" lengthAdjust="spacing" textLength="193.416" x="510.92" y="188.4414">vedtakEndeligPlanDato: date</text><ellipse cx="501.92" cy="201.1387" fill="none" rx="3" ry="3" style="stroke:#038048;stroke-width:1;"/><text fill="#000000" font-family="sans-serif" font-size="14" lengthAdjust="spacing" textLength="179.1836" x="510.92" y="204.9297">lovreferanse: Lovreferanse</text><ellipse cx="501.92" cy="217.627" fill="none" rx="3" ry="3" style="stroke:#038048;stroke-width:1;"/><text fill="#000000" font-family="sans-serif" font-size="14" lengthAdjust="spacing" textLength="247.0986" x="510.92" y="221.418">forslagstillerType: ForslagstillerType</text><ellipse cx="501.92" cy="234.1152" fill="none" rx="3" ry="3" style="stroke:#038048;stroke-width:1;"/><text fill="#000000" font-family="sans-serif" font-size="14" lengthAdjust="spacing" textLength="170.4951" x="510.92" y="237.9063">alternativFinnes: boolean</text><line style="stroke:#181818;stroke-width:0.5;" x1="491.92" x2="794.3751" y1="244.8594" y2="244.8594"/></g><!--class Plantype--><g class="entity" data-entity="Plantype" data-source-line="20" data-uid="ent0007" id="entity_Plantype"><rect fill="#F1F1F1" height="89.5977" rx="2.5" ry="2.5" style="stroke:#181818;stroke-width:0.5;" width="183.5547" x="332.38" y="312.86"/><ellipse cx="391.2238" cy="333.1705" fill="#ADD1B2" rx="11" ry="11" style="stroke:#181818;stroke-width:1;"/><path d="M393.6969,339.3136 Q393.1158,339.6124 392.4767,339.7619 Q391.8375,339.9113 391.132,339.9113 Q388.6251,339.9113 387.3053,338.2594 Q385.9855,336.6076 385.9855,333.4865 Q385.9855,330.3571 387.3053,328.7052 Q388.6251,327.0534 391.132,327.0534 Q391.8375,327.0534 392.485,327.2028 Q393.1324,327.3522 393.6969,327.651 L393.6969,330.3737 Q393.066,329.7926 392.4725,329.5228 Q391.879,329.2531 391.2482,329.2531 Q389.9034,329.2531 389.2186,330.3197 Q388.5338,331.3864 388.5338,333.4865 Q388.5338,335.5783 389.2186,336.6449 Q389.9034,337.7116 391.2482,337.7116 Q391.879,337.7116 392.4725,337.4418 Q393.066,337.172 393.6969,336.591 Z " fill="#000000"/><text fill="#000000" font-family="sans-serif" font-size="12" font-style="italic" lengthAdjust="spacing" textLength="42.0176" x="419.3986" y="329.4616">&#171;Kode&#187;</text><text fill="#000000" font-family="sans-serif" font-size="14" lengthAdjust="spacing" textLength="57.3672" x="411.7238" y="345.528">Plantype</text><line style="stroke:#181818;stroke-width:0.5;" x1="333.38" x2="514.9347" y1="353.4811" y2="353.4811"/><ellipse cx="343.38" cy="367.2252" fill="none" rx="3" ry="3" style="stroke:#038048;stroke-width:1;"/><text fill="#000000" font-family="sans-serif" font-size="14" lengthAdjust="spacing" textLength="115.4521" x="352.38" y="371.0162">kodeverdi: string</text><ellipse cx="343.38" cy="383.7135" fill="none" rx="3" ry="3" style="stroke:#038048;stroke-width:1;"/><text fill="#000000" font-family="sans-serif" font-size="14" lengthAdjust="spacing" textLength="157.5547" x="352.38" y="387.5045">kodebeskrivelse: string</text><line style="stroke:#181818;stroke-width:0.5;" x1="333.38" x2="514.9347" y1="394.4577" y2="394.4577"/></g><!--class Planstatus--><g class="entity" data-entity="Planstatus" data-source-line="21" data-uid="ent0009" id="entity_Planstatus"><rect fill="#F1F1F1" height="89.5977" rx="2.5" ry="2.5" style="stroke:#181818;stroke-width:0.5;" width="183.5547" x="551.38" y="312.86"/><ellipse cx="604.2218" cy="333.1705" fill="#ADD1B2" rx="11" ry="11" style="stroke:#181818;stroke-width:1;"/><path d="M606.6949,339.3136 Q606.1139,339.6124 605.4747,339.7619 Q604.8356,339.9113 604.13,339.9113 Q601.6232,339.9113 600.3033,338.2594 Q598.9835,336.6076 598.9835,333.4865 Q598.9835,330.3571 600.3033,328.7052 Q601.6232,327.0534 604.13,327.0534 Q604.8356,327.0534 605.483,327.2028 Q606.1305,327.3522 606.6949,327.651 L606.6949,330.3737 Q606.0641,329.7926 605.4706,329.5228 Q604.8771,329.2531 604.2462,329.2531 Q602.9015,329.2531 602.2167,330.3197 Q601.5319,331.3864 601.5319,333.4865 Q601.5319,335.5783 602.2167,336.6449 Q602.9015,337.7116 604.2462,337.7116 Q604.8771,337.7116 605.4706,337.4418 Q606.0641,337.172 606.6949,336.591 Z " fill="#000000"/><text fill="#000000" font-family="sans-serif" font-size="12" font-style="italic" lengthAdjust="spacing" textLength="42.0176" x="638.3986" y="329.4616">&#171;Kode&#187;</text><text fill="#000000" font-family="sans-serif" font-size="14" lengthAdjust="spacing" textLength="69.3711" x="624.7218" y="345.528">Planstatus</text><line style="stroke:#181818;stroke-width:0.5;" x1="552.38" x2="733.9347" y1="353.4811" y2="353.4811"/><ellipse cx="562.38" cy="367.2252" fill="none" rx="3" ry="3" style="stroke:#038048;stroke-width:1;"/><text fill="#000000" font-family="sans-serif" font-size="14" lengthAdjust="spacing" textLength="115.4521" x="571.38" y="371.0162">kodeverdi: string</text><ellipse cx="562.38" cy="383.7135" fill="none" rx="3" ry="3" style="stroke:#038048;stroke-width:1;"/><text fill="#000000" font-family="sans-serif" font-size="14" lengthAdjust="spacing" textLength="157.5547" x="571.38" y="387.5045">kodebeskrivelse: string</text><line style="stroke:#181818;stroke-width:0.5;" x1="552.38" x2="733.9347" y1="394.4577" y2="394.4577"/></g><!--class Lovreferanse--><g class="entity" data-entity="Lovreferanse" data-source-line="22" data-uid="ent0011" id="entity_Lovreferanse"><rect fill="#F1F1F1" height="89.5977" rx="2.5" ry="2.5" style="stroke:#181818;stroke-width:0.5;" width="183.5547" x="770.38" y="312.86"/><ellipse cx="814.4876" cy="333.1705" fill="#ADD1B2" rx="11" ry="11" style="stroke:#181818;stroke-width:1;"/><path d="M816.9608,339.3136 Q816.3797,339.6124 815.7405,339.7619 Q815.1014,339.9113 814.3958,339.9113 Q811.889,339.9113 810.5692,338.2594 Q809.2493,336.6076 809.2493,333.4865 Q809.2493,330.3571 810.5692,328.7052 Q811.889,327.0534 814.3958,327.0534 Q815.1014,327.0534 815.7488,327.2028 Q816.3963,327.3522 816.9608,327.651 L816.9608,330.3737 Q816.3299,329.7926 815.7364,329.5228 Q815.1429,329.2531 814.512,329.2531 Q813.1673,329.2531 812.4825,330.3197 Q811.7977,331.3864 811.7977,333.4865 Q811.7977,335.5783 812.4825,336.6449 Q813.1673,337.7116 814.512,337.7116 Q815.1429,337.7116 815.7364,337.4418 Q816.3299,337.172 816.9608,336.591 Z " fill="#000000"/><text fill="#000000" font-family="sans-serif" font-size="12" font-style="italic" lengthAdjust="spacing" textLength="42.0176" x="857.3827" y="329.4616">&#171;Kode&#187;</text><text fill="#000000" font-family="sans-serif" font-size="14" lengthAdjust="spacing" textLength="86.8711" x="834.956" y="345.528">Lovreferanse</text><line style="stroke:#181818;stroke-width:0.5;" x1="771.38" x2="952.9347" y1="353.4811" y2="353.4811"/><ellipse cx="781.38" cy="367.2252" fill="none" rx="3" ry="3" style="stroke:#038048;stroke-width:1;"/><text fill="#000000" font-family="sans-serif" font-size="14" lengthAdjust="spacing" textLength="115.4521" x="790.38" y="371.0162">kodeverdi: string</text><ellipse cx="781.38" cy="383.7135" fill="none" rx="3" ry="3" style="stroke:#038048;stroke-width:1;"/><text fill="#000000" font-family="sans-serif" font-size="14" lengthAdjust="spacing" textLength="157.5547" x="790.38" y="387.5045">kodebeskrivelse: string</text><line style="stroke:#181818;stroke-width:0.5;" x1="771.38" x2="952.9347" y1="394.4577" y2="394.4577"/></g><!--class ForslagstillerType--><g class="entity" data-entity="ForslagstillerType" data-source-line="23" data-uid="ent0013" id="entity_ForslagstillerType"><rect fill="#F1F1F1" height="89.5977" rx="2.5" ry="2.5" style="stroke:#181818;stroke-width:0.5;" width="183.5547" x="989.38" y="312.86"/><ellipse cx="1018.4451" cy="333.1705" fill="#ADD1B2" rx="11" ry="11" style="stroke:#181818;stroke-width:1;"/><path d="M1020.9183,339.3136 Q1020.3372,339.6124 1019.6981,339.7619 Q1019.0589,339.9113 1018.3533,339.9113 Q1015.8465,339.9113 1014.5267,338.2594 Q1013.2069,336.6076 1013.2069,333.4865 Q1013.2069,330.3571 1014.5267,328.7052 Q1015.8465,327.0534 1018.3533,327.0534 Q1019.0589,327.0534 1019.7064,327.2028 Q1020.3538,327.3522 1020.9183,327.651 L1020.9183,330.3737 Q1020.2874,329.7926 1019.6939,329.5228 Q1019.1004,329.2531 1018.4696,329.2531 Q1017.1248,329.2531 1016.44,330.3197 Q1015.7552,331.3864 1015.7552,333.4865 Q1015.7552,335.5783 1016.44,336.6449 Q1017.1248,337.7116 1018.4696,337.7116 Q1019.1004,337.7116 1019.6939,337.4418 Q1020.2874,337.172 1020.9183,336.591 Z " fill="#000000"/><text fill="#000000" font-family="sans-serif" font-size="12" font-style="italic" lengthAdjust="spacing" textLength="42.0176" x="1074.7113" y="329.4616">&#171;Kode&#187;</text><text fill="#000000" font-family="sans-serif" font-size="14" lengthAdjust="spacing" textLength="120.2988" x="1035.5707" y="345.528">ForslagstillerType</text><line style="stroke:#181818;stroke-width:0.5;" x1="990.38" x2="1171.9347" y1="353.4811" y2="353.4811"/><ellipse cx="1000.38" cy="367.2252" fill="none" rx="3" ry="3" style="stroke:#038048;stroke-width:1;"/><text fill="#000000" font-family="sans-serif" font-size="14" lengthAdjust="spacing" textLength="115.4521" x="1009.38" y="371.0162">kodeverdi: string</text><ellipse cx="1000.38" cy="383.7135" fill="none" rx="3" ry="3" style="stroke:#038048;stroke-width:1;"/><text fill="#000000" font-family="sans-serif" font-size="14" lengthAdjust="spacing" textLength="157.5547" x="1009.38" y="387.5045">kodebeskrivelse: string</text><line style="stroke:#181818;stroke-width:0.5;" x1="990.38" x2="1171.9347" y1="394.4577" y2="394.4577"/></g><!--link NasjonalArealplanId to AdministrativEnhet--><g class="link" data-entity-1="NasjonalArealplanId" data-entity-2="AdministrativEnhet" data-source-line="6" data-uid="lnk4" id="link_NasjonalArealplanId_AdministrativEnhet"><path codeLine="6" d="M152.15,398.47 C152.15,417.94 152.15,441.52 152.15,462" fill="none" id="NasjonalArealplanId-AdministrativEnhet" style="stroke:#181818;stroke-width:1;"/></g><!--link Arealplan to NasjonalArealplanId--><g class="link" data-entity-1="Arealplan" data-entity-2="NasjonalArealplanId" data-source-line="19" data-uid="lnk6" id="link_Arealplan_NasjonalArealplanId"><path codeLine="19" d="M490.49,201.11 C407.72,239.16 308.45,284.8 238.92,316.77" fill="none" id="Arealplan-NasjonalArealplanId" style="stroke:#181818;stroke-width:1;"/></g><!--link Arealplan to Plantype--><g class="link" data-entity-1="Arealplan" data-entity-2="Plantype" data-source-line="20" data-uid="lnk8" id="link_Arealplan_Plantype"><path codeLine="20" d="M524.68,253.04 C504.02,274.34 483.79,295.19 466.95,312.54" fill="none" id="Arealplan-Plantype" style="stroke:#181818;stroke-width:1;"/></g><!--link Arealplan to Planstatus--><g class="link" data-entity-1="Arealplan" data-entity-2="Planstatus" data-source-line="21" data-uid="lnk10" id="link_Arealplan_Planstatus"><path codeLine="21" d="M643.15,253.04 C643.15,274.34 643.15,295.19 643.15,312.54" fill="none" id="Arealplan-Planstatus" style="stroke:#181818;stroke-width:1;"/></g><!--link Arealplan to Lovreferanse--><g class="link" data-entity-1="Arealplan" data-entity-2="Lovreferanse" data-source-line="22" data-uid="lnk12" id="link_Arealplan_Lovreferanse"><path codeLine="22" d="M761.63,253.04 C782.29,274.34 802.52,295.19 819.35,312.54" fill="none" id="Arealplan-Lovreferanse" style="stroke:#181818;stroke-width:1;"/></g><!--link Arealplan to ForslagstillerType--><g class="link" data-entity-1="Arealplan" data-entity-2="ForslagstillerType" data-source-line="23" data-uid="lnk14" id="link_Arealplan_ForslagstillerType"><path codeLine="23" d="M795.73,209.56 C862.64,244.04 938.68,283.23 995.44,312.48" fill="none" id="Arealplan-ForslagstillerType" style="stroke:#181818;stroke-width:1;"/></g><!--SRC=[hL91QiCm4Bpx5UgvH84UJGWKsa18QNle1pRHsbMjhenM5fIIlrUExDYEqqkf3sOrCyoETdMZwM0QXK8kfLoIbHNBGiTVRO1ak9C56eCi2VZ34XXm2ARbj5fUmMJTPDd10BEuxr7ndOdutVRoCx5LkNYUWqdTrlwhnboyTjM04mJA1NkdgHnGzk0RJlfK3vooLVE9v4_TNkfQWKVdSx6trY1G4ZPxV8zIWtvdeCHVsIqHwn8DNqe2AWyLHtERYxR567uaXKQNRRg72u6nmM61BkQEba-ZK-8BwpWcOg_ZBjpRQIgR6PQqOEBD2BmE6qs4F4GyPjcmayNYwkWdWlFWPsWttWa-YJrXhaJjtaZVGQnMEwjmlUxVIXLF0PtIqpMty1wvSZgayNVaSMoOmlsRvVXU_sOw7ydP-g_EFm00]--></g></svg>