<svg xmlns="http://www.w3.org/2000/svg" xmlns:xlink="http://www.w3.org/1999/xlink" contentStyleType="text/css" data-diagram-type="CLASS" height="517px" preserveAspectRatio="none" style="width:1121px;height:517px;background:#FFFFFF;" version="1.1" viewBox="0 0 1121 517" width="1121px" zoomAndPan="magnify"><defs/><g><!--class Saksnummer--><g class="entity" data-entity="Saksnummer" data-source-line="2" data-uid="ent0002" id="entity_Saksnummer"><rect fill="#F1F1F1" height="80.9766" rx="2.5" ry="2.5" style="stroke:#181818;stroke-width:0.5;" width="224.1123" x="7" y="246.91"/><ellipse cx="70.9878" cy="262.91" fill="#ADD1B2" rx="11" ry="11" style="stroke:#181818;stroke-width:1;"/><path d="M73.4609,269.0531 Q72.8799,269.3519 72.2407,269.5013 Q71.6016,269.6507 70.896,269.6507 Q68.3892,269.6507 67.0693,267.9989 Q65.7495,266.347 65.7495,263.2259 Q65.7495,260.0965 67.0693,258.4447 Q68.3892,256.7928 70.896,256.7928 Q71.6016,256.7928 72.249,256.9422 Q72.8965,257.0916 73.4609,257.3905 L73.4609,260.1131 Q72.8301,259.5321 72.2366,259.2623 Q71.6431,258.9925 71.0122,258.9925 Q69.6675,258.9925 68.9827,260.0592 Q68.2979,261.1258 68.2979,263.2259 Q68.2979,265.3177 68.9827,266.3844 Q69.6675,267.451 71.0122,267.451 Q71.6431,267.451 72.2366,267.1812 Q72.8301,266.9115 73.4609,266.3304 Z " fill="#000000"/><text fill="#000000" font-family="sans-serif" font-size="14" lengthAdjust="spacing" textLength="87.6367" x="91.4878" y="268.201">Saksnummer</text><line style="stroke:#181818;stroke-width:0.5;" x1="8" x2="230.1123" y1="278.91" y2="278.91"/><ellipse cx="18" cy="292.6541" fill="none" rx="3" ry="3" style="stroke:#038048;stroke-width:1;"/><text fill="#000000" font-family="sans-serif" font-size="14" lengthAdjust="spacing" textLength="108.2676" x="27" y="296.4452">saksaar: integer</text><ellipse cx="18" cy="309.1424" fill="none" rx="3" ry="3" style="stroke:#038048;stroke-width:1;"/><text fill="#000000" font-family="sans-serif" font-size="14" lengthAdjust="spacing" textLength="198.1123" x="27" y="312.9334">sakssekvensnummer: integer</text><line style="stroke:#181818;stroke-width:0.5;" x1="8" x2="230.1123" y1="319.8866" y2="319.8866"/></g><!--class Posisjon--><g class="entity" data-entity="Posisjon" data-source-line="1" data-uid="ent0003" id="entity_Posisjon"><rect fill="#F1F1F1" height="97.4648" rx="2.5" ry="2.5" style="stroke:#181818;stroke-width:0.5;" width="262.4551" x="265.83" y="238.67"/><ellipse cx="364.705" cy="254.67" fill="#ADD1B2" rx="11" ry="11" style="stroke:#181818;stroke-width:1;"/><path d="M367.1781,260.8131 Q366.5971,261.1119 365.9579,261.2613 Q365.3188,261.4107 364.6132,261.4107 Q362.1064,261.4107 360.7865,259.7589 Q359.4667,258.107 359.4667,254.9859 Q359.4667,251.8565 360.7865,250.2047 Q362.1064,248.5528 364.6132,248.5528 Q365.3188,248.5528 365.9662,248.7022 Q366.6137,248.8516 367.1781,249.1505 L367.1781,251.8731 Q366.5473,251.2921 365.9538,251.0223 Q365.3603,250.7525 364.7294,250.7525 Q363.3847,250.7525 362.6999,251.8192 Q362.0151,252.8858 362.0151,254.9859 Q362.0151,257.0777 362.6999,258.1444 Q363.3847,259.211 364.7294,259.211 Q365.3603,259.211 365.9538,258.9412 Q366.5473,258.6715 367.1781,258.0904 Z " fill="#000000"/><text fill="#000000" font-family="sans-serif" font-size="14" lengthAdjust="spacing" textLength="56.2051" x="385.205" y="259.961">Posisjon</text><line style="stroke:#181818;stroke-width:0.5;" x1="266.83" x2="527.2851" y1="270.67" y2="270.67"/><ellipse cx="276.83" cy="284.4141" fill="none" rx="3" ry="3" style="stroke:#038048;stroke-width:1;"/><text fill="#000000" font-family="sans-serif" font-size="14" lengthAdjust="spacing" textLength="127.0049" x="285.83" y="288.2052">type: PosisjonType</text><ellipse cx="276.83" cy="300.9024" fill="none" rx="3" ry="3" style="stroke:#038048;stroke-width:1;"/><text fill="#000000" font-family="sans-serif" font-size="14" lengthAdjust="spacing" textLength="149.9053" x="285.83" y="304.6934">koordinater: number[]</text><ellipse cx="276.83" cy="317.3907" fill="none" rx="3" ry="3" style="stroke:#038048;stroke-width:1;"/><text fill="#000000" font-family="sans-serif" font-size="14" lengthAdjust="spacing" textLength="236.4551" x="285.83" y="321.1817">koordinatsystem: Koordinatsystem</text><line style="stroke:#181818;stroke-width:0.5;" x1="266.83" x2="527.2851" y1="328.1348" y2="328.1348"/></g><!--class Koordinatsystem--><g class="entity" data-entity="Koordinatsystem" data-source-line="7" data-uid="ent0004" id="entity_Koordinatsystem"><rect fill="#F1F1F1" height="89.5977" rx="2.5" ry="2.5" style="stroke:#181818;stroke-width:0.5;" width="183.5547" x="154.28" y="420.86"/><ellipse cx="186.0552" cy="441.1705" fill="#ADD1B2" rx="11" ry="11" style="stroke:#181818;stroke-width:1;"/><path d="M188.5284,447.3136 Q187.9473,447.6124 187.3082,447.7619 Q186.669,447.9113 185.9634,447.9113 Q183.4566,447.9113 182.1368,446.2594 Q180.817,444.6076 180.817,441.4865 Q180.817,438.3571 182.1368,436.7052 Q183.4566,435.0534 185.9634,435.0534 Q186.669,435.0534 187.3165,435.2028 Q187.9639,435.3522 188.5284,435.651 L188.5284,438.3737 Q187.8975,437.7926 187.304,437.5228 Q186.7105,437.2531 186.0797,437.2531 Q184.7349,437.2531 184.0501,438.3197 Q183.3653,439.3864 183.3653,441.4865 Q183.3653,443.5783 184.0501,444.6449 Q184.7349,445.7116 186.0797,445.7116 Q186.7105,445.7116 187.304,445.4418 Q187.8975,445.172 188.5284,444.591 Z " fill="#000000"/><text fill="#000000" font-family="sans-serif" font-size="12" font-style="italic" lengthAdjust="spacing" textLength="42.0176" x="239.9125" y="437.4616">&#171;Kode&#187;</text><text fill="#000000" font-family="sans-serif" font-size="14" lengthAdjust="spacing" textLength="114.2764" x="203.7831" y="453.528">Koordinatsystem</text><line style="stroke:#181818;stroke-width:0.5;" x1="155.28" x2="336.8347" y1="461.4811" y2="461.4811"/><ellipse cx="165.28" cy="475.2252" fill="none" rx="3" ry="3" style="stroke:#038048;stroke-width:1;"/><text fill="#000000" font-family="sans-serif" font-size="14" lengthAdjust="spacing" textLength="115.4521" x="174.28" y="479.0162">kodeverdi: string</text><ellipse cx="165.28" cy="491.7135" fill="none" rx="3" ry="3" style="stroke:#038048;stroke-width:1;"/><text fill="#000000" font-family="sans-serif" font-size="14" lengthAdjust="spacing" textLength="157.5547" x="174.28" y="495.5045">kodebeskrivelse: string</text><line style="stroke:#181818;stroke-width:0.5;" x1="155.28" x2="336.8347" y1="502.4577" y2="502.4577"/></g><!--class PosisjonType--><g class="entity" data-entity="PosisjonType" data-source-line="8" data-uid="ent0006" id="entity_PosisjonType"><rect fill="#F1F1F1" height="64.4883" rx="2.5" ry="2.5" style="stroke:#181818;stroke-width:0.5;" width="120.9834" x="372.56" y="433.42"/><ellipse cx="387.56" cy="449.42" fill="#EB937F" rx="11" ry="11" style="stroke:#181818;stroke-width:1;"/><path d="M391.1743,455.92 L383.4545,455.92 L383.4545,443.5269 L391.1743,443.5269 L391.1743,445.6851 L385.9033,445.6851 L385.9033,448.358 L390.6762,448.358 L390.6762,450.5162 L385.9033,450.5162 L385.9033,453.7618 L391.1743,453.7618 Z " fill="#000000"/><text fill="#000000" font-family="sans-serif" font-size="14" lengthAdjust="spacing" textLength="88.9834" x="401.56" y="454.711">PosisjonType</text><line style="stroke:#181818;stroke-width:0.5;" x1="373.56" x2="492.5434" y1="465.42" y2="465.42"/><text fill="#000000" font-family="sans-serif" font-size="14" lengthAdjust="spacing" textLength="34.3096" x="378.56" y="482.9552">Point</text><line style="stroke:#181818;stroke-width:0.5;" x1="373.56" x2="492.5434" y1="489.9083" y2="489.9083"/></g><!--class Dokument--><g class="entity" data-entity="Dokument" data-source-line="1" data-uid="ent0008" id="entity_Dokument"><rect fill="#F1F1F1" height="146.9297" rx="2.5" ry="2.5" style="stroke:#181818;stroke-width:0.5;" width="333.0908" x="563.51" y="213.93"/><ellipse cx="690.4294" cy="229.93" fill="#ADD1B2" rx="11" ry="11" style="stroke:#181818;stroke-width:1;"/><path d="M692.9026,236.0731 Q692.3215,236.3719 691.6824,236.5213 Q691.0432,236.6707 690.3376,236.6707 Q687.8308,236.6707 686.511,235.0189 Q685.1912,233.367 685.1912,230.2459 Q685.1912,227.1165 686.511,225.4647 Q687.8308,223.8128 690.3376,223.8128 Q691.0432,223.8128 691.6907,223.9622 Q692.3381,224.1116 692.9026,224.4105 L692.9026,227.1331 Q692.2717,226.5521 691.6782,226.2823 Q691.0847,226.0125 690.4538,226.0125 Q689.1091,226.0125 688.4243,227.0792 Q687.7395,228.1458 687.7395,230.2459 Q687.7395,232.3377 688.4243,233.4044 Q689.1091,234.471 690.4538,234.471 Q691.0847,234.471 691.6782,234.2012 Q692.2717,233.9315 692.9026,233.3504 Z " fill="#000000"/><text fill="#000000" font-family="sans-serif" font-size="14" lengthAdjust="spacing" textLength="70.752" x="710.9294" y="235.221">Dokument</text><line style="stroke:#181818;stroke-width:0.5;" x1="564.51" x2="895.6008" y1="245.93" y2="245.93"/><ellipse cx="574.51" cy="259.6741" fill="none" rx="3" ry="3" style="stroke:#038048;stroke-width:1;"/><text fill="#000000" font-family="sans-serif" font-size="14" lengthAdjust="spacing" textLength="80.0283" x="583.51" y="263.4652">tittel: string</text><ellipse cx="574.51" cy="276.1624" fill="none" rx="3" ry="3" style="stroke:#038048;stroke-width:1;"/><text fill="#000000" font-family="sans-serif" font-size="14" lengthAdjust="spacing" textLength="207.0127" x="583.51" y="279.9534">dokumenttype: Dokumenttype</text><ellipse cx="574.51" cy="292.6507" fill="none" rx="3" ry="3" style="stroke:#038048;stroke-width:1;"/><text fill="#000000" font-family="sans-serif" font-size="14" lengthAdjust="spacing" textLength="307.0908" x="583.51" y="296.4417">referanseDokumentfil: ReferanseDokumentfil</text><ellipse cx="574.51" cy="309.139" fill="none" rx="3" ry="3" style="stroke:#038048;stroke-width:1;"/><text fill="#000000" font-family="sans-serif" font-size="14" lengthAdjust="spacing" textLength="115.5752" x="583.51" y="312.93">mimetype: string</text><ellipse cx="574.51" cy="325.6273" fill="none" rx="3" ry="3" style="stroke:#038048;stroke-width:1;"/><text fill="#000000" font-family="sans-serif" font-size="14" lengthAdjust="spacing" textLength="145.0313" x="583.51" y="329.4183">dokumentsdato: date</text><ellipse cx="574.51" cy="342.1155" fill="none" rx="3" ry="3" style="stroke:#038048;stroke-width:1;"/><text fill="#000000" font-family="sans-serif" font-size="14" lengthAdjust="spacing" textLength="113.7158" x="583.51" y="345.9066">arkivnavn: string</text><line style="stroke:#181818;stroke-width:0.5;" x1="564.51" x2="895.6008" y1="352.8597" y2="352.8597"/></g><!--class Dokumenttype--><g class="entity" data-entity="Dokumenttype" data-source-line="10" data-uid="ent0009" id="entity_Dokumenttype"><rect fill="#F1F1F1" height="89.5977" rx="2.5" ry="2.5" style="stroke:#181818;stroke-width:0.5;" width="183.5547" x="601.28" y="420.86"/><ellipse cx="639.5183" cy="441.1705" fill="#ADD1B2" rx="11" ry="11" style="stroke:#181818;stroke-width:1;"/><path d="M641.9914,447.3136 Q641.4104,447.6124 640.7712,447.7619 Q640.1321,447.9113 639.4265,447.9113 Q636.9196,447.9113 635.5998,446.2594 Q634.28,444.6076 634.28,441.4865 Q634.28,438.3571 635.5998,436.7052 Q636.9196,435.0534 639.4265,435.0534 Q640.1321,435.0534 640.7795,435.2028 Q641.427,435.3522 641.9914,435.651 L641.9914,438.3737 Q641.3606,437.7926 640.7671,437.5228 Q640.1736,437.2531 639.5427,437.2531 Q638.198,437.2531 637.5132,438.3197 Q636.8283,439.3864 636.8283,441.4865 Q636.8283,443.5783 637.5132,444.6449 Q638.198,445.7116 639.5427,445.7116 Q640.1736,445.7116 640.7671,445.4418 Q641.3606,445.172 641.9914,444.591 Z " fill="#000000"/><text fill="#000000" font-family="sans-serif" font-size="12" font-style="italic" lengthAdjust="spacing" textLength="42.0176" x="687.6306" y="437.4616">&#171;Kode&#187;</text><text fill="#000000" font-family="sans-serif" font-size="14" lengthAdjust="spacing" textLength="99.9141" x="658.6823" y="453.528">Dokumenttype</text><line style="stroke:#181818;stroke-width:0.5;" x1="602.28" x2="783.8347" y1="461.4811" y2="461.4811"/><ellipse cx="612.28" cy="475.2252" fill="none" rx="3" ry="3" style="stroke:#038048;stroke-width:1;"/><text fill="#000000" font-family="sans-serif" font-size="14" lengthAdjust="spacing" textLength="115.4521" x="621.28" y="479.0162">kodeverdi: string</text><ellipse cx="612.28" cy="491.7135" fill="none" rx="3" ry="3" style="stroke:#038048;stroke-width:1;"/><text fill="#000000" font-family="sans-serif" font-size="14" lengthAdjust="spacing" textLength="157.5547" x="621.28" y="495.5045">kodebeskrivelse: string</text><line style="stroke:#181818;stroke-width:0.5;" x1="602.28" x2="783.8347" y1="502.4577" y2="502.4577"/></g><!--class ReferanseDokumentfil--><g class="entity" data-entity="ReferanseDokumentfil" data-source-line="11" data-uid="ent0011" id="entity_ReferanseDokumentfil"><rect fill="#F1F1F1" height="80.9766" rx="2.5" ry="2.5" style="stroke:#181818;stroke-width:0.5;" width="182.6777" x="819.72" y="425.17"/><ellipse cx="834.72" cy="441.17" fill="#ADD1B2" rx="11" ry="11" style="stroke:#181818;stroke-width:1;"/><path d="M837.1931,447.3131 Q836.6121,447.6119 835.9729,447.7613 Q835.3338,447.9107 834.6282,447.9107 Q832.1214,447.9107 830.8015,446.2589 Q829.4817,444.607 829.4817,441.4859 Q829.4817,438.3565 830.8015,436.7047 Q832.1214,435.0528 834.6282,435.0528 Q835.3338,435.0528 835.9812,435.2022 Q836.6287,435.3516 837.1931,435.6505 L837.1931,438.3731 Q836.5623,437.7921 835.9688,437.5223 Q835.3753,437.2525 834.7444,437.2525 Q833.3997,437.2525 832.7149,438.3192 Q832.0301,439.3858 832.0301,441.4859 Q832.0301,443.5777 832.7149,444.6444 Q833.3997,445.711 834.7444,445.711 Q835.3753,445.711 835.9688,445.4412 Q836.5623,445.1715 837.1931,444.5904 Z " fill="#000000"/><text fill="#000000" font-family="sans-serif" font-size="14" lengthAdjust="spacing" textLength="150.6777" x="848.72" y="446.461">ReferanseDokumentfil</text><line style="stroke:#181818;stroke-width:0.5;" x1="820.72" x2="1001.3977" y1="457.17" y2="457.17"/><ellipse cx="830.72" cy="470.9141" fill="none" rx="3" ry="3" style="stroke:#038048;stroke-width:1;"/><text fill="#000000" font-family="sans-serif" font-size="14" lengthAdjust="spacing" textLength="61.2842" x="839.72" y="474.7052">id: string</text><ellipse cx="830.72" cy="487.4024" fill="none" rx="3" ry="3" style="stroke:#038048;stroke-width:1;"/><text fill="#000000" font-family="sans-serif" font-size="14" lengthAdjust="spacing" textLength="66.8896" x="839.72" y="491.1934">url: string</text><line style="stroke:#181818;stroke-width:0.5;" x1="820.72" x2="1001.3977" y1="498.1466" y2="498.1466"/></g><!--class Planbehandling--><g class="entity" data-entity="Planbehandling" data-source-line="5" data-uid="ent0013" id="entity_Planbehandling"><rect fill="#F1F1F1" height="146.9297" rx="2.5" ry="2.5" style="stroke:#181818;stroke-width:0.5;" width="317.0264" x="404.54" y="7"/><ellipse cx="506.6792" cy="23" fill="#ADD1B2" rx="11" ry="11" style="stroke:#181818;stroke-width:1;"/><path d="M509.1523,29.1431 Q508.5713,29.4419 507.9321,29.5913 Q507.2929,29.7407 506.5874,29.7407 Q504.0805,29.7407 502.7607,28.0889 Q501.4409,26.437 501.4409,23.3159 Q501.4409,20.1865 502.7607,18.5347 Q504.0805,16.8828 506.5874,16.8828 Q507.2929,16.8828 507.9404,17.0322 Q508.5879,17.1816 509.1523,17.4805 L509.1523,20.2031 Q508.5214,19.6221 507.9279,19.3523 Q507.3344,19.0825 506.7036,19.0825 Q505.3588,19.0825 504.674,20.1492 Q503.9892,21.2158 503.9892,23.3159 Q503.9892,25.4077 504.674,26.4744 Q505.3588,27.541 506.7036,27.541 Q507.3344,27.541 507.9279,27.2712 Q508.5214,27.0015 509.1523,26.4204 Z " fill="#000000"/><text fill="#000000" font-family="sans-serif" font-size="14" lengthAdjust="spacing" textLength="104.248" x="527.1792" y="28.291">Planbehandling</text><line style="stroke:#181818;stroke-width:0.5;" x1="405.54" x2="720.5664" y1="39" y2="39"/><ellipse cx="415.54" cy="52.7441" fill="none" rx="3" ry="3" style="stroke:#038048;stroke-width:1;"/><text fill="#000000" font-family="sans-serif" font-size="14" lengthAdjust="spacing" textLength="122.3428" x="424.54" y="56.5352">posisjon: Posisjon</text><ellipse cx="415.54" cy="69.2324" fill="none" rx="3" ry="3" style="stroke:#038048;stroke-width:1;"/><text fill="#000000" font-family="sans-serif" font-size="14" lengthAdjust="spacing" textLength="68.8174" x="424.54" y="73.0234">dato: date</text><ellipse cx="415.54" cy="85.7207" fill="none" rx="3" ry="3" style="stroke:#038048;stroke-width:1;"/><text fill="#000000" font-family="sans-serif" font-size="14" lengthAdjust="spacing" textLength="183.7295" x="424.54" y="89.5117">saksnummer: Saksnummer</text><ellipse cx="415.54" cy="102.209" fill="none" rx="3" ry="3" style="stroke:#038048;stroke-width:1;"/><text fill="#000000" font-family="sans-serif" font-size="14" lengthAdjust="spacing" textLength="291.0264" x="424.54" y="106">planbehandlingstype: Planbehandlingstype</text><ellipse cx="415.54" cy="118.6973" fill="none" rx="3" ry="3" style="stroke:#038048;stroke-width:1;"/><text fill="#000000" font-family="sans-serif" font-size="14" lengthAdjust="spacing" textLength="80.7803" x="424.54" y="122.4883">navn: string</text><ellipse cx="415.54" cy="135.1855" fill="none" rx="3" ry="3" style="stroke:#038048;stroke-width:1;"/><text fill="#000000" font-family="sans-serif" font-size="14" lengthAdjust="spacing" textLength="200.6006" x="424.54" y="138.9766">plandokumenter: Dokument[]</text><line style="stroke:#181818;stroke-width:0.5;" x1="405.54" x2="720.5664" y1="145.9297" y2="145.9297"/></g><!--class Planbehandlingstype--><g class="entity" data-entity="Planbehandlingstype" data-source-line="16" data-uid="ent0016" id="entity_Planbehandlingstype"><rect fill="#F1F1F1" height="89.5977" rx="2.5" ry="2.5" style="stroke:#181818;stroke-width:0.5;" width="183.5547" x="931.28" y="242.6"/><ellipse cx="951.2335" cy="262.9105" fill="#ADD1B2" rx="11" ry="11" style="stroke:#181818;stroke-width:1;"/><path d="M953.7067,269.0536 Q953.1256,269.3524 952.4864,269.5019 Q951.8473,269.6513 951.1417,269.6513 Q948.6349,269.6513 947.3151,267.9994 Q945.9952,266.3476 945.9952,263.2265 Q945.9952,260.0971 947.3151,258.4452 Q948.6349,256.7934 951.1417,256.7934 Q951.8473,256.7934 952.4947,256.9428 Q953.1422,257.0922 953.7067,257.391 L953.7067,260.1137 Q953.0758,259.5326 952.4823,259.2628 Q951.8888,258.9931 951.2579,258.9931 Q949.9132,258.9931 949.2284,260.0597 Q948.5436,261.1264 948.5436,263.2265 Q948.5436,265.3183 949.2284,266.3849 Q949.9132,267.4516 951.2579,267.4516 Q951.8888,267.4516 952.4823,267.1818 Q953.0758,266.912 953.7067,266.331 Z " fill="#000000"/><text fill="#000000" font-family="sans-serif" font-size="12" font-style="italic" lengthAdjust="spacing" textLength="42.0176" x="1015.5989" y="259.2016">&#171;Kode&#187;</text><text fill="#000000" font-family="sans-serif" font-size="14" lengthAdjust="spacing" textLength="140.5469" x="966.3343" y="275.268">Planbehandlingstype</text><line style="stroke:#181818;stroke-width:0.5;" x1="932.28" x2="1113.8347" y1="283.2211" y2="283.2211"/><ellipse cx="942.28" cy="296.9652" fill="none" rx="3" ry="3" style="stroke:#038048;stroke-width:1;"/><text fill="#000000" font-family="sans-serif" font-size="14" lengthAdjust="spacing" textLength="115.4521" x="951.28" y="300.7562">kodeverdi: string</text><ellipse cx="942.28" cy="313.4535" fill="none" rx="3" ry="3" style="stroke:#038048;stroke-width:1;"/><text fill="#000000" font-family="sans-serif" font-size="14" lengthAdjust="spacing" textLength="157.5547" x="951.28" y="317.2445">kodebeskrivelse: string</text><line style="stroke:#181818;stroke-width:0.5;" x1="932.28" x2="1113.8347" y1="324.1977" y2="324.1977"/></g><!--link Posisjon to Koordinatsystem--><g class="link" data-entity-1="Posisjon" data-entity-2="Koordinatsystem" data-source-line="7" data-uid="lnk5" id="link_Posisjon_Koordinatsystem"><path codeLine="7" d="M355.79,336.56 C333.35,362.76 305.79,394.93 283.9,420.48" fill="none" id="Posisjon-Koordinatsystem" style="stroke:#181818;stroke-width:1;"/></g><!--link Posisjon to PosisjonType--><g class="link" data-entity-1="Posisjon" data-entity-2="PosisjonType" data-source-line="8" data-uid="lnk7" id="link_Posisjon_PosisjonType"><path codeLine="8" d="M406.89,336.56 C413.16,367.24 421.1,406.12 426.58,432.96" fill="none" id="Posisjon-PosisjonType" style="stroke:#181818;stroke-width:1;"/></g><!--link Dokument to Dokumenttype--><g class="link" data-entity-1="Dokument" data-entity-2="Dokumenttype" data-source-line="10" data-uid="lnk10" id="link_Dokument_Dokumenttype"><path codeLine="10" d="M714.79,361.11 C710.57,381.21 706.12,402.42 702.35,420.37" fill="none" id="Dokument-Dokumenttype" style="stroke:#181818;stroke-width:1;"/></g><!--link Dokument to ReferanseDokumentfil--><g class="link" data-entity-1="Dokument" data-entity-2="ReferanseDokumentfil" data-source-line="11" data-uid="lnk12" id="link_Dokument_ReferanseDokumentfil"><path codeLine="11" d="M804.72,361.11 C827.12,382.92 850.85,406.03 870.2,424.87" fill="none" id="Dokument-ReferanseDokumentfil" style="stroke:#181818;stroke-width:1;"/></g><!--link Planbehandling to Posisjon--><g class="link" data-entity-1="Planbehandling" data-entity-2="Posisjon" data-source-line="14" data-uid="lnk14" id="link_Planbehandling_Posisjon"><path codeLine="14" d="M504.06,154.3 C481.42,182.25 456.16,213.43 435.88,238.47" fill="none" id="Planbehandling-Posisjon" style="stroke:#181818;stroke-width:1;"/></g><!--link Planbehandling to Saksnummer--><g class="link" data-entity-1="Planbehandling" data-entity-2="Saksnummer" data-source-line="15" data-uid="lnk15" id="link_Planbehandling_Saksnummer"><path codeLine="15" d="M404.06,144.2 C353.63,165.19 298.02,189.49 248.06,213.93 C227.75,223.87 206.16,235.53 186.57,246.57" fill="none" id="Planbehandling-Saksnummer" style="stroke:#181818;stroke-width:1;"/></g><!--link Planbehandling to Planbehandlingstype--><g class="link" data-entity-1="Planbehandling" data-entity-2="Planbehandlingstype" data-source-line="16" data-uid="lnk17" id="link_Planbehandling_Planbehandlingstype"><path codeLine="16" d="M721.83,132.79 C783.22,154.84 853.2,182.73 914.06,213.93 C930.03,222.12 946.53,232.16 961.7,242.12" fill="none" id="Planbehandling-Planbehandlingstype" style="stroke:#181818;stroke-width:1;"/></g><!--link Planbehandling to Dokument--><g class="link" data-entity-1="Planbehandling" data-entity-2="Dokument" data-source-line="17" data-uid="lnk18" id="link_Planbehandling_Dokument"><path codeLine="17" d="M622.4,154.3 C638.06,173.51 654.96,194.24 670.62,213.46" fill="none" id="Planbehandling-Dokument" style="stroke:#181818;stroke-width:1;"/></g><!--SRC=[bL2nZi8m3Dtp5M4-uKYC5Uh4neB4UBeX4FSk97Mgkgs4JlpxfRIX1tI03DQpu_Vyx8MbesyDIb00YW8uXiB6K7bDqAsWGE-HWRLZQiiIQpL1g5gnU56W2cpv54Wby0xP1DUMI8rAe2UBezVCSXTR3_YZoNXBt_9NoFW-qfHCxaOqr8rkGYPZn26Vbida_eP7ZJjbRiuLPW_ZhiMXctGNft5Jn_B4JuPx_Ss8Fx_4HOW7tylbvFJvwv-r6TwCfUUkD7t-RbUMNA-tmM2Ufokwc7LO6tk_M5y-8BlQTkWPRvyNyGS0]--></g></svg>