<svg xmlns="http://www.w3.org/2000/svg" xmlns:xlink="http://www.w3.org/1999/xlink" contentStyleType="text/css" height="517px" preserveAspectRatio="none" style="width:1126px;height:517px;background:#FFFFFF;" version="1.1" viewBox="0 0 1126 517" width="1126px" zoomAndPan="magnify"><defs/><g><!--class Saksnummer--><g id="elem_Saksnummer"><rect codeLine="2" fill="#F1F1F1" height="80.9766" id="Saksnummer" rx="2.5" ry="2.5" style="stroke:#181818;stroke-width:0.5;" width="225" x="7" y="246.91"/><ellipse cx="70.75" cy="262.91" fill="#ADD1B2" rx="11" ry="11" style="stroke:#181818;stroke-width:1.0;"/><path d="M73.2231,269.0531 Q72.6421,269.3519 72.0029,269.5013 Q71.3638,269.6507 70.6582,269.6507 Q68.1514,269.6507 66.8315,267.9989 Q65.5117,266.347 65.5117,263.2259 Q65.5117,260.0965 66.8315,258.4447 Q68.1514,256.7928 70.6582,256.7928 Q71.3638,256.7928 72.0112,256.9422 Q72.6587,257.0916 73.2231,257.3905 L73.2231,260.1131 Q72.5923,259.5321 71.9988,259.2623 Q71.4053,258.9925 70.7744,258.9925 Q69.4297,258.9925 68.7449,260.0592 Q68.0601,261.1258 68.0601,263.2259 Q68.0601,265.3177 68.7449,266.3844 Q69.4297,267.451 70.7744,267.451 Q71.4053,267.451 71.9988,267.1812 Q72.5923,266.9115 73.2231,266.3304 Z " fill="#000000"/><text fill="#000000" font-family="sans-serif" font-size="14" lengthAdjust="spacing" textLength="89" x="91.25" y="268.201">Saksnummer</text><line style="stroke:#181818;stroke-width:0.5;" x1="8" x2="231" y1="278.91" y2="278.91"/><ellipse cx="18" cy="292.6541" fill="none" rx="3" ry="3" style="stroke:#038048;stroke-width:1.0;"/><text fill="#000000" font-family="sans-serif" font-size="14" lengthAdjust="spacing" textLength="109" x="27" y="296.4452">saksaar: integer</text><ellipse cx="18" cy="309.1424" fill="none" rx="3" ry="3" style="stroke:#038048;stroke-width:1.0;"/><text fill="#000000" font-family="sans-serif" font-size="14" lengthAdjust="spacing" textLength="199" x="27" y="312.9334">sakssekvensnummer: integer</text><line style="stroke:#181818;stroke-width:0.5;" x1="8" x2="231" y1="319.8866" y2="319.8866"/></g><!--class Posisjon--><g id="elem_Posisjon"><rect codeLine="1" fill="#F1F1F1" height="97.4648" id="Posisjon" rx="2.5" ry="2.5" style="stroke:#181818;stroke-width:0.5;" width="263" x="267" y="238.67"/><ellipse cx="365.75" cy="254.67" fill="#ADD1B2" rx="11" ry="11" style="stroke:#181818;stroke-width:1.0;"/><path d="M368.2231,260.8131 Q367.6421,261.1119 367.0029,261.2613 Q366.3638,261.4107 365.6582,261.4107 Q363.1514,261.4107 361.8315,259.7589 Q360.5117,258.107 360.5117,254.9859 Q360.5117,251.8565 361.8315,250.2047 Q363.1514,248.5528 365.6582,248.5528 Q366.3638,248.5528 367.0112,248.7022 Q367.6587,248.8516 368.2231,249.1505 L368.2231,251.8731 Q367.5923,251.2921 366.9988,251.0223 Q366.4053,250.7525 365.7744,250.7525 Q364.4297,250.7525 363.7449,251.8192 Q363.0601,252.8858 363.0601,254.9859 Q363.0601,257.0777 363.7449,258.1444 Q364.4297,259.211 365.7744,259.211 Q366.4053,259.211 366.9988,258.9412 Q367.5923,258.6715 368.2231,258.0904 Z " fill="#000000"/><text fill="#000000" font-family="sans-serif" font-size="14" lengthAdjust="spacing" textLength="57" x="386.25" y="259.961">Posisjon</text><line style="stroke:#181818;stroke-width:0.5;" x1="268" x2="529" y1="270.67" y2="270.67"/><ellipse cx="278" cy="284.4141" fill="none" rx="3" ry="3" style="stroke:#038048;stroke-width:1.0;"/><text fill="#000000" font-family="sans-serif" font-size="14" lengthAdjust="spacing" textLength="127" x="287" y="288.2052">type: PosisjonType</text><ellipse cx="278" cy="300.9024" fill="none" rx="3" ry="3" style="stroke:#038048;stroke-width:1.0;"/><text fill="#000000" font-family="sans-serif" font-size="14" lengthAdjust="spacing" textLength="153" x="287" y="304.6934">koordinater: number[]</text><ellipse cx="278" cy="317.3907" fill="none" rx="3" ry="3" style="stroke:#038048;stroke-width:1.0;"/><text fill="#000000" font-family="sans-serif" font-size="14" lengthAdjust="spacing" textLength="237" x="287" y="321.1817">koordinatsystem: Koordinatsystem</text><line style="stroke:#181818;stroke-width:0.5;" x1="268" x2="529" y1="328.1348" y2="328.1348"/></g><!--class Koordinatsystem--><g id="elem_Koordinatsystem"><rect codeLine="10" fill="#F1F1F1" height="89.5977" id="Koordinatsystem" rx="2.5" ry="2.5" style="stroke:#181818;stroke-width:0.5;" width="184" x="154.5" y="420.86"/><ellipse cx="186.15" cy="441.1705" fill="#ADD1B2" rx="11" ry="11" style="stroke:#181818;stroke-width:1.0;"/><path d="M188.6231,447.3136 Q188.0421,447.6124 187.4029,447.7619 Q186.7638,447.9113 186.0582,447.9113 Q183.5514,447.9113 182.2315,446.2594 Q180.9117,444.6076 180.9117,441.4865 Q180.9117,438.3571 182.2315,436.7052 Q183.5514,435.0534 186.0582,435.0534 Q186.7638,435.0534 187.4112,435.2028 Q188.0587,435.3522 188.6231,435.651 L188.6231,438.3737 Q187.9923,437.7926 187.3988,437.5228 Q186.8053,437.2531 186.1744,437.2531 Q184.8297,437.2531 184.1449,438.3197 Q183.4601,439.3864 183.4601,441.4865 Q183.4601,443.5783 184.1449,444.6449 Q184.8297,445.7116 186.1744,445.7116 Q186.8053,445.7116 187.3988,445.4418 Q187.9923,445.172 188.6231,444.591 Z " fill="#000000"/><text fill="#000000" font-family="sans-serif" font-size="12" font-style="italic" lengthAdjust="spacing" textLength="42" x="240.35" y="437.4616">&#171;Kode&#187;</text><text fill="#000000" font-family="sans-serif" font-size="14" lengthAdjust="spacing" textLength="115" x="203.85" y="453.528">Koordinatsystem</text><line style="stroke:#181818;stroke-width:0.5;" x1="155.5" x2="337.5" y1="461.4811" y2="461.4811"/><ellipse cx="165.5" cy="475.2252" fill="none" rx="3" ry="3" style="stroke:#038048;stroke-width:1.0;"/><text fill="#000000" font-family="sans-serif" font-size="14" lengthAdjust="spacing" textLength="116" x="174.5" y="479.0162">kodeverdi: string</text><ellipse cx="165.5" cy="491.7135" fill="none" rx="3" ry="3" style="stroke:#038048;stroke-width:1.0;"/><text fill="#000000" font-family="sans-serif" font-size="14" lengthAdjust="spacing" textLength="158" x="174.5" y="495.5045">kodebeskrivelse: string</text><line style="stroke:#181818;stroke-width:0.5;" x1="155.5" x2="337.5" y1="502.4577" y2="502.4577"/></g><!--class PosisjonType--><g id="elem_PosisjonType"><rect codeLine="15" fill="#F1F1F1" height="64.4883" id="PosisjonType" rx="2.5" ry="2.5" style="stroke:#181818;stroke-width:0.5;" width="122" x="373.5" y="433.42"/><ellipse cx="388.5" cy="449.42" fill="#EB937F" rx="11" ry="11" style="stroke:#181818;stroke-width:1.0;"/><path d="M392.1143,455.92 L384.3945,455.92 L384.3945,443.5269 L392.1143,443.5269 L392.1143,445.6851 L386.8433,445.6851 L386.8433,448.358 L391.6162,448.358 L391.6162,450.5162 L386.8433,450.5162 L386.8433,453.7618 L392.1143,453.7618 Z " fill="#000000"/><text fill="#000000" font-family="sans-serif" font-size="14" lengthAdjust="spacing" textLength="90" x="402.5" y="454.711">PosisjonType</text><line style="stroke:#181818;stroke-width:0.5;" x1="374.5" x2="494.5" y1="465.42" y2="465.42"/><text fill="#000000" font-family="sans-serif" font-size="14" lengthAdjust="spacing" textLength="35" x="379.5" y="482.9552">Point</text><line style="stroke:#181818;stroke-width:0.5;" x1="374.5" x2="494.5" y1="489.9083" y2="489.9083"/></g><!--class Dokument--><g id="elem_Dokument"><rect codeLine="1" fill="#F1F1F1" height="146.9297" id="Dokument" rx="2.5" ry="2.5" style="stroke:#181818;stroke-width:0.5;" width="335" x="565" y="213.93"/><ellipse cx="692.75" cy="229.93" fill="#ADD1B2" rx="11" ry="11" style="stroke:#181818;stroke-width:1.0;"/><path d="M695.2231,236.0731 Q694.6421,236.3719 694.0029,236.5213 Q693.3638,236.6707 692.6582,236.6707 Q690.1514,236.6707 688.8315,235.0189 Q687.5117,233.367 687.5117,230.2459 Q687.5117,227.1165 688.8315,225.4647 Q690.1514,223.8128 692.6582,223.8128 Q693.3638,223.8128 694.0112,223.9622 Q694.6587,224.1116 695.2231,224.4105 L695.2231,227.1331 Q694.5923,226.5521 693.9988,226.2823 Q693.4053,226.0125 692.7744,226.0125 Q691.4297,226.0125 690.7449,227.0792 Q690.0601,228.1458 690.0601,230.2459 Q690.0601,232.3377 690.7449,233.4044 Q691.4297,234.471 692.7744,234.471 Q693.4053,234.471 693.9988,234.2012 Q694.5923,233.9315 695.2231,233.3504 Z " fill="#000000"/><text fill="#000000" font-family="sans-serif" font-size="14" lengthAdjust="spacing" textLength="71" x="713.25" y="235.221">Dokument</text><line style="stroke:#181818;stroke-width:0.5;" x1="566" x2="899" y1="245.93" y2="245.93"/><ellipse cx="576" cy="259.6741" fill="none" rx="3" ry="3" style="stroke:#038048;stroke-width:1.0;"/><text fill="#000000" font-family="sans-serif" font-size="14" lengthAdjust="spacing" textLength="79" x="585" y="263.4652">tittel: string</text><ellipse cx="576" cy="276.1624" fill="none" rx="3" ry="3" style="stroke:#038048;stroke-width:1.0;"/><text fill="#000000" font-family="sans-serif" font-size="14" lengthAdjust="spacing" textLength="207" x="585" y="279.9534">dokumenttype: Dokumenttype</text><ellipse cx="576" cy="292.6507" fill="none" rx="3" ry="3" style="stroke:#038048;stroke-width:1.0;"/><text fill="#000000" font-family="sans-serif" font-size="14" lengthAdjust="spacing" textLength="309" x="585" y="296.4417">referanseDokumentfil: ReferanseDokumentfil</text><ellipse cx="576" cy="309.139" fill="none" rx="3" ry="3" style="stroke:#038048;stroke-width:1.0;"/><text fill="#000000" font-family="sans-serif" font-size="14" lengthAdjust="spacing" textLength="115" x="585" y="312.93">mimetype: string</text><ellipse cx="576" cy="325.6273" fill="none" rx="3" ry="3" style="stroke:#038048;stroke-width:1.0;"/><text fill="#000000" font-family="sans-serif" font-size="14" lengthAdjust="spacing" textLength="146" x="585" y="329.4183">dokumentsdato: date</text><ellipse cx="576" cy="342.1155" fill="none" rx="3" ry="3" style="stroke:#038048;stroke-width:1.0;"/><text fill="#000000" font-family="sans-serif" font-size="14" lengthAdjust="spacing" textLength="114" x="585" y="345.9066">arkivnavn: string</text><line style="stroke:#181818;stroke-width:0.5;" x1="566" x2="899" y1="352.8597" y2="352.8597"/></g><!--class Dokumenttype--><g id="elem_Dokumenttype"><rect codeLine="13" fill="#F1F1F1" height="89.5977" id="Dokumenttype" rx="2.5" ry="2.5" style="stroke:#181818;stroke-width:0.5;" width="184" x="603.5" y="420.86"/><ellipse cx="641.9" cy="441.1705" fill="#ADD1B2" rx="11" ry="11" style="stroke:#181818;stroke-width:1.0;"/><path d="M644.3731,447.3136 Q643.7921,447.6124 643.1529,447.7619 Q642.5138,447.9113 641.8082,447.9113 Q639.3014,447.9113 637.9815,446.2594 Q636.6617,444.6076 636.6617,441.4865 Q636.6617,438.3571 637.9815,436.7052 Q639.3014,435.0534 641.8082,435.0534 Q642.5138,435.0534 643.1612,435.2028 Q643.8087,435.3522 644.3731,435.651 L644.3731,438.3737 Q643.7423,437.7926 643.1488,437.5228 Q642.5553,437.2531 641.9244,437.2531 Q640.5797,437.2531 639.8949,438.3197 Q639.2101,439.3864 639.2101,441.4865 Q639.2101,443.5783 639.8949,444.6449 Q640.5797,445.7116 641.9244,445.7116 Q642.5553,445.7116 643.1488,445.4418 Q643.7423,445.172 644.3731,444.591 Z " fill="#000000"/><text fill="#000000" font-family="sans-serif" font-size="12" font-style="italic" lengthAdjust="spacing" textLength="42" x="690.1" y="437.4616">&#171;Kode&#187;</text><text fill="#000000" font-family="sans-serif" font-size="14" lengthAdjust="spacing" textLength="100" x="661.1" y="453.528">Dokumenttype</text><line style="stroke:#181818;stroke-width:0.5;" x1="604.5" x2="786.5" y1="461.4811" y2="461.4811"/><ellipse cx="614.5" cy="475.2252" fill="none" rx="3" ry="3" style="stroke:#038048;stroke-width:1.0;"/><text fill="#000000" font-family="sans-serif" font-size="14" lengthAdjust="spacing" textLength="116" x="623.5" y="479.0162">kodeverdi: string</text><ellipse cx="614.5" cy="491.7135" fill="none" rx="3" ry="3" style="stroke:#038048;stroke-width:1.0;"/><text fill="#000000" font-family="sans-serif" font-size="14" lengthAdjust="spacing" textLength="158" x="623.5" y="495.5045">kodebeskrivelse: string</text><line style="stroke:#181818;stroke-width:0.5;" x1="604.5" x2="786.5" y1="502.4577" y2="502.4577"/></g><!--class ReferanseDokumentfil--><g id="elem_ReferanseDokumentfil"><rect codeLine="18" fill="#F1F1F1" height="80.9766" id="ReferanseDokumentfil" rx="2.5" ry="2.5" style="stroke:#181818;stroke-width:0.5;" width="184" x="822.5" y="425.17"/><ellipse cx="837.5" cy="441.17" fill="#ADD1B2" rx="11" ry="11" style="stroke:#181818;stroke-width:1.0;"/><path d="M839.9731,447.3131 Q839.3921,447.6119 838.7529,447.7613 Q838.1138,447.9107 837.4082,447.9107 Q834.9014,447.9107 833.5815,446.2589 Q832.2617,444.607 832.2617,441.4859 Q832.2617,438.3565 833.5815,436.7047 Q834.9014,435.0528 837.4082,435.0528 Q838.1138,435.0528 838.7612,435.2022 Q839.4087,435.3516 839.9731,435.6505 L839.9731,438.3731 Q839.3423,437.7921 838.7488,437.5223 Q838.1553,437.2525 837.5244,437.2525 Q836.1797,437.2525 835.4949,438.3192 Q834.8101,439.3858 834.8101,441.4859 Q834.8101,443.5777 835.4949,444.6444 Q836.1797,445.711 837.5244,445.711 Q838.1553,445.711 838.7488,445.4412 Q839.3423,445.1715 839.9731,444.5904 Z " fill="#000000"/><text fill="#000000" font-family="sans-serif" font-size="14" lengthAdjust="spacing" textLength="152" x="851.5" y="446.461">ReferanseDokumentfil</text><line style="stroke:#181818;stroke-width:0.5;" x1="823.5" x2="1005.5" y1="457.17" y2="457.17"/><ellipse cx="833.5" cy="470.9141" fill="none" rx="3" ry="3" style="stroke:#038048;stroke-width:1.0;"/><text fill="#000000" font-family="sans-serif" font-size="14" lengthAdjust="spacing" textLength="61" x="842.5" y="474.7052">id: string</text><ellipse cx="833.5" cy="487.4024" fill="none" rx="3" ry="3" style="stroke:#038048;stroke-width:1.0;"/><text fill="#000000" font-family="sans-serif" font-size="14" lengthAdjust="spacing" textLength="67" x="842.5" y="491.1934">url: string</text><line style="stroke:#181818;stroke-width:0.5;" x1="823.5" x2="1005.5" y1="498.1466" y2="498.1466"/></g><!--class Planbehandling--><g id="elem_Planbehandling"><rect codeLine="5" fill="#F1F1F1" height="146.9297" id="Planbehandling" rx="2.5" ry="2.5" style="stroke:#181818;stroke-width:0.5;" width="321" x="405" y="7"/><ellipse cx="507.75" cy="23" fill="#ADD1B2" rx="11" ry="11" style="stroke:#181818;stroke-width:1.0;"/><path d="M510.2231,29.1431 Q509.6421,29.4419 509.0029,29.5913 Q508.3638,29.7407 507.6582,29.7407 Q505.1514,29.7407 503.8315,28.0889 Q502.5117,26.437 502.5117,23.3159 Q502.5117,20.1865 503.8315,18.5347 Q505.1514,16.8828 507.6582,16.8828 Q508.3638,16.8828 509.0112,17.0322 Q509.6587,17.1816 510.2231,17.4805 L510.2231,20.2031 Q509.5923,19.6221 508.9988,19.3523 Q508.4053,19.0825 507.7744,19.0825 Q506.4297,19.0825 505.7449,20.1492 Q505.0601,21.2158 505.0601,23.3159 Q505.0601,25.4077 505.7449,26.4744 Q506.4297,27.541 507.7744,27.541 Q508.4053,27.541 508.9988,27.2712 Q509.5923,27.0015 510.2231,26.4204 Z " fill="#000000"/><text fill="#000000" font-family="sans-serif" font-size="14" lengthAdjust="spacing" textLength="107" x="528.25" y="28.291">Planbehandling</text><line style="stroke:#181818;stroke-width:0.5;" x1="406" x2="725" y1="39" y2="39"/><ellipse cx="416" cy="52.7441" fill="none" rx="3" ry="3" style="stroke:#038048;stroke-width:1.0;"/><text fill="#000000" font-family="sans-serif" font-size="14" lengthAdjust="spacing" textLength="123" x="425" y="56.5352">posisjon: Posisjon</text><ellipse cx="416" cy="69.2324" fill="none" rx="3" ry="3" style="stroke:#038048;stroke-width:1.0;"/><text fill="#000000" font-family="sans-serif" font-size="14" lengthAdjust="spacing" textLength="69" x="425" y="73.0234">dato: date</text><ellipse cx="416" cy="85.7207" fill="none" rx="3" ry="3" style="stroke:#038048;stroke-width:1.0;"/><text fill="#000000" font-family="sans-serif" font-size="14" lengthAdjust="spacing" textLength="185" x="425" y="89.5117">saksnummer: Saksnummer</text><ellipse cx="416" cy="102.209" fill="none" rx="3" ry="3" style="stroke:#038048;stroke-width:1.0;"/><text fill="#000000" font-family="sans-serif" font-size="14" lengthAdjust="spacing" textLength="295" x="425" y="106">planbehandlingstype: Planbehandlingstype</text><ellipse cx="416" cy="118.6973" fill="none" rx="3" ry="3" style="stroke:#038048;stroke-width:1.0;"/><text fill="#000000" font-family="sans-serif" font-size="14" lengthAdjust="spacing" textLength="81" x="425" y="122.4883">navn: string</text><ellipse cx="416" cy="135.1855" fill="none" rx="3" ry="3" style="stroke:#038048;stroke-width:1.0;"/><text fill="#000000" font-family="sans-serif" font-size="14" lengthAdjust="spacing" textLength="203" x="425" y="138.9766">plandokumenter: Dokument[]</text><line style="stroke:#181818;stroke-width:0.5;" x1="406" x2="725" y1="145.9297" y2="145.9297"/></g><!--class Planbehandlingstype--><g id="elem_Planbehandlingstype"><rect codeLine="19" fill="#F1F1F1" height="89.5977" id="Planbehandlingstype" rx="2.5" ry="2.5" style="stroke:#181818;stroke-width:0.5;" width="184" x="935.5" y="242.6"/><ellipse cx="954.55" cy="262.9105" fill="#ADD1B2" rx="11" ry="11" style="stroke:#181818;stroke-width:1.0;"/><path d="M957.0231,269.0536 Q956.4421,269.3524 955.8029,269.5019 Q955.1638,269.6513 954.4582,269.6513 Q951.9514,269.6513 950.6315,267.9994 Q949.3117,266.3476 949.3117,263.2265 Q949.3117,260.0971 950.6315,258.4452 Q951.9514,256.7934 954.4582,256.7934 Q955.1638,256.7934 955.8112,256.9428 Q956.4587,257.0922 957.0231,257.391 L957.0231,260.1137 Q956.3923,259.5326 955.7988,259.2628 Q955.2053,258.9931 954.5744,258.9931 Q953.2297,258.9931 952.5449,260.0597 Q951.8601,261.1264 951.8601,263.2265 Q951.8601,265.3183 952.5449,266.3849 Q953.2297,267.4516 954.5744,267.4516 Q955.2053,267.4516 955.7988,267.1818 Q956.3923,266.912 957.0231,266.331 Z " fill="#000000"/><text fill="#000000" font-family="sans-serif" font-size="12" font-style="italic" lengthAdjust="spacing" textLength="42" x="1019.95" y="259.2016">&#171;Kode&#187;</text><text fill="#000000" font-family="sans-serif" font-size="14" lengthAdjust="spacing" textLength="143" x="969.45" y="275.268">Planbehandlingstype</text><line style="stroke:#181818;stroke-width:0.5;" x1="936.5" x2="1118.5" y1="283.2211" y2="283.2211"/><ellipse cx="946.5" cy="296.9652" fill="none" rx="3" ry="3" style="stroke:#038048;stroke-width:1.0;"/><text fill="#000000" font-family="sans-serif" font-size="14" lengthAdjust="spacing" textLength="116" x="955.5" y="300.7562">kodeverdi: string</text><ellipse cx="946.5" cy="313.4535" fill="none" rx="3" ry="3" style="stroke:#038048;stroke-width:1.0;"/><text fill="#000000" font-family="sans-serif" font-size="14" lengthAdjust="spacing" textLength="158" x="955.5" y="317.2445">kodebeskrivelse: string</text><line style="stroke:#181818;stroke-width:0.5;" x1="936.5" x2="1118.5" y1="324.1977" y2="324.1977"/></g><!--link Posisjon to Koordinatsystem--><g id="link_Posisjon_Koordinatsystem"><path codeLine="7" d="M356.97,336.56 C334.38,362.76 306.63,394.93 284.6,420.48 " fill="none" id="Posisjon-Koordinatsystem" style="stroke:#181818;stroke-width:1.0;"/></g><!--link Posisjon to PosisjonType--><g id="link_Posisjon_PosisjonType"><path codeLine="8" d="M408.34,336.56 C414.6,367.24 422.54,406.12 428.02,432.96 " fill="none" id="Posisjon-PosisjonType" style="stroke:#181818;stroke-width:1.0;"/></g><!--link Dokument to Dokumenttype--><g id="link_Dokument_Dokumenttype"><path codeLine="10" d="M717.24,361.11 C713.02,381.21 708.56,402.42 704.8,420.37 " fill="none" id="Dokument-Dokumenttype" style="stroke:#181818;stroke-width:1.0;"/></g><!--link Dokument to ReferanseDokumentfil--><g id="link_Dokument_ReferanseDokumentfil"><path codeLine="11" d="M807.58,361.11 C830.1,382.92 853.96,406.03 873.42,424.87 " fill="none" id="Dokument-ReferanseDokumentfil" style="stroke:#181818;stroke-width:1.0;"/></g><!--link Planbehandling to Posisjon--><g id="link_Planbehandling_Posisjon"><path codeLine="14" d="M506.15,154.3 C483.37,182.25 457.96,213.43 437.56,238.47 " fill="none" id="Planbehandling-Posisjon" style="stroke:#181818;stroke-width:1.0;"/></g><!--link Planbehandling to Saksnummer--><g id="link_Planbehandling_Saksnummer"><path codeLine="15" d="M404.82,144.76 C354.56,165.63 299.25,189.73 249.5,213.93 C229.05,223.88 207.3,235.55 187.56,246.58 " fill="none" id="Planbehandling-Saksnummer" style="stroke:#181818;stroke-width:1.0;"/></g><!--link Planbehandling to Planbehandlingstype--><g id="link_Planbehandling_Planbehandlingstype"><path codeLine="16" d="M726.43,133.51 C787.56,155.46 856.99,183.1 917.5,213.93 C933.6,222.13 950.23,232.17 965.55,242.14 " fill="none" id="Planbehandling-Planbehandlingstype" style="stroke:#181818;stroke-width:1.0;"/></g><!--link Planbehandling to Dokument--><g id="link_Planbehandling_Dokument"><path codeLine="17" d="M624.85,154.3 C640.5,173.51 657.4,194.24 673.06,213.46 " fill="none" id="Planbehandling-Dokument" style="stroke:#181818;stroke-width:1.0;"/></g><!--SRC=[bL2nZi8m3Dtp5M4-uKYC5Uh4neB4UBeX4FSk97Mgkgs4JlpxfRIX1tI03DQpu_Vyx8MbesyDIb00YW8uXiB6K7bDqAsWGE-HWRLZQiiIQpL1g5gnU56W2cpv54Wby0xP1DUMI8rAe2UBezVCSXTR3_YZoNXBt_9NoFW-qfHCxaOqr8rkGYPZn26Vbida_eP7ZJjbRiuLPW_ZhiMXctGNft5Jn_B4JuPx_Ss8Fx_4HOW7tylbvFJvwv-r6TwCfUUkD7t-RbUMNA-tmM2Ufokwc7LO6tk_M5y-8BlQTkWPRvyNyGS0]--></g></svg>