<?xml version="1.0" encoding="us-ascii" standalone="no"?><svg xmlns="http://www.w3.org/2000/svg" xmlns:xlink="http://www.w3.org/1999/xlink" contentStyleType="text/css" height="186px" preserveAspectRatio="none" style="width:755px;height:186px;background:#FFFFFF;" version="1.1" viewBox="0 0 755 186" width="755px" zoomAndPan="magnify"><defs/><g><!--class FinnDispensasjonerResultat--><g id="elem_FinnDispensasjonerResultat"><rect codeLine="2" fill="#F1F1F1" height="64.4883" id="FinnDispensasjonerResultat" rx="2.5" ry="2.5" style="stroke:#181818;stroke-width:0.5;" width="239" x="7" y="7"/><ellipse cx="29.65" cy="23" fill="#ADD1B2" rx="11" ry="11" style="stroke:#181818;stroke-width:1.0;"/><path d="M32.1231,29.1431 Q31.5421,29.4419 30.9029,29.5913 Q30.2638,29.7407 29.5582,29.7407 Q27.0514,29.7407 25.7315,28.0889 Q24.4117,26.437 24.4117,23.3159 Q24.4117,20.1865 25.7315,18.5347 Q27.0514,16.8828 29.5582,16.8828 Q30.2638,16.8828 30.9112,17.0322 Q31.5587,17.1816 32.1231,17.4805 L32.1231,20.2031 Q31.4923,19.6221 30.8988,19.3523 Q30.3053,19.0825 29.6744,19.0825 Q28.3297,19.0825 27.6449,20.1492 Q26.9601,21.2158 26.9601,23.3159 Q26.9601,25.4077 27.6449,26.4744 Q28.3297,27.541 29.6744,27.541 Q30.3053,27.541 30.8988,27.2712 Q31.4923,27.0015 32.1231,26.4204 Z " fill="#000000"/><text fill="#000000" font-family="sans-serif" font-size="14" lengthAdjust="spacing" textLength="190" x="45.35" y="28.291">FinnDispensasjonerResultat</text><line style="stroke:#181818;stroke-width:0.5;" x1="8" x2="245" y1="39" y2="39"/><ellipse cx="18" cy="52.7441" fill="none" rx="3" ry="3" style="stroke:#038048;stroke-width:1.0;"/><text fill="#000000" font-family="sans-serif" font-size="14" lengthAdjust="spacing" textLength="213" x="27" y="56.5352">dispensasjoner: Dispensasjon[]</text><line style="stroke:#181818;stroke-width:0.5;" x1="8" x2="245" y1="63.4883" y2="63.4883"/></g><!--class Dispensasjon--><g id="elem_Dispensasjon"><rect fill="#F1F1F1" height="48" id="Dispensasjon" rx="2.5" ry="2.5" style="stroke:#181818;stroke-width:0.5;" width="123" x="259" y="131.49"/><ellipse cx="274" cy="147.49" fill="#ADD1B2" rx="11" ry="11" style="stroke:#181818;stroke-width:1.0;"/><path d="M276.4731,153.6331 Q275.8921,153.9319 275.2529,154.0813 Q274.6138,154.2307 273.9082,154.2307 Q271.4014,154.2307 270.0815,152.5789 Q268.7617,150.927 268.7617,147.8059 Q268.7617,144.6765 270.0815,143.0247 Q271.4014,141.3728 273.9082,141.3728 Q274.6138,141.3728 275.2612,141.5222 Q275.9087,141.6716 276.4731,141.9705 L276.4731,144.6931 Q275.8423,144.1121 275.2488,143.8423 Q274.6553,143.5725 274.0244,143.5725 Q272.6797,143.5725 271.9949,144.6392 Q271.3101,145.7058 271.3101,147.8059 Q271.3101,149.8977 271.9949,150.9644 Q272.6797,152.031 274.0244,152.031 Q274.6553,152.031 275.2488,151.7612 Q275.8423,151.4915 276.4731,150.9104 Z " fill="#000000"/><text fill="#000000" font-family="sans-serif" font-size="14" lengthAdjust="spacing" textLength="91" x="288" y="152.781">Dispensasjon</text><line style="stroke:#181818;stroke-width:0.5;" x1="260" x2="381" y1="163.49" y2="163.49"/><line style="stroke:#181818;stroke-width:0.5;" x1="260" x2="381" y1="171.49" y2="171.49"/></g><g id="elem_GMN5"><path d="M280.5,26.59 L280.5,51.9005 A0,0 0 0 0 280.5,51.9005 L490.11,51.9005 L360.41,130.99 L498.11,51.9005 L748.5,51.9005 A0,0 0 0 0 748.5,51.9005 L748.5,36.59 L738.5,26.59 L280.5,26.59 A0,0 0 0 0 280.5,26.59 " fill="#FEFFDD" style="stroke:#181818;stroke-width:0.5;"/><path d="M738.5,26.59 L738.5,36.59 L748.5,36.59 L738.5,26.59 " fill="#FEFFDD" style="stroke:#181818;stroke-width:0.5;"/><text fill="#000000" font-family="sans-serif" font-size="13" lengthAdjust="spacing" textLength="447" x="286.5" y="44.1584">Se detaljer i diagram for skjema 'no.ks.fiks.plan.v2.felles.dispensasjon'</text></g><!--link FinnDispensasjonerResultat to Dispensasjon--><g id="link_FinnDispensasjonerResultat_Dispensasjon"><path codeLine="6" d="M180.28,71.92 C212.13,90.67 251.79,114.03 280.79,131.11 " fill="none" id="FinnDispensasjonerResultat-Dispensasjon" style="stroke:#181818;stroke-width:1.0;"/></g><!--SRC=[VOun3i8m40JxUyLsAL1SKAP6F01AH772PsJ7ELi-GuFuEocJXYsscT5g7vdDS8wgfsXLrDXIKMaNiLVktF4Xh3du7PsmjMzt-XBzsHZ7dK-afGjwgIXXHp3XAl3IEITfYF2HduqNXD9WSvA5CMXnixaGrwgPrRsFBaZEOcvxSg0V]--></g></svg>