<svg xmlns="http://www.w3.org/2000/svg" xmlns:xlink="http://www.w3.org/1999/xlink" contentStyleType="text/css" height="475px" preserveAspectRatio="none" style="width:761px;height:475px;background:#FFFFFF;" version="1.1" viewBox="0 0 761 475" width="761px" zoomAndPan="magnify"><defs/><g><rect fill="#F1F1F1" height="81.9531" rx="5" ry="5" style="stroke:#F1F1F1;stroke-width:1.5;" width="253" x="10" y="164.5"/><text fill="#000000" font-family="sans-serif" font-size="14" font-weight="bold" lengthAdjust="spacing" textLength="101" x="15" y="180.0352">protokollnavn</text><text fill="#000000" font-family="sans-serif" font-size="14" lengthAdjust="spacing" textLength="99" x="126" y="180.0352">no.ks.fiks.plan</text><line style="stroke:#000000;stroke-width:1.0;" x1="121" x2="121" y1="164.5" y2="184.9883"/><line style="stroke:#000000;stroke-width:1.0;" x1="10" x2="263" y1="184.9883" y2="184.9883"/><text fill="#000000" font-family="sans-serif" font-size="14" font-weight="bold" lengthAdjust="spacing" textLength="34" x="15" y="200.5234">navn</text><text fill="#000000" font-family="sans-serif" font-size="14" lengthAdjust="spacing" textLength="132" x="126" y="200.5234">dispensasjonstyper</text><line style="stroke:#000000;stroke-width:1.0;" x1="121" x2="121" y1="184.9883" y2="205.4766"/><line style="stroke:#000000;stroke-width:1.0;" x1="10" x2="263" y1="205.4766" y2="205.4766"/><text fill="#000000" font-family="sans-serif" font-size="14" font-weight="bold" lengthAdjust="spacing" textLength="53" x="15" y="221.0117">versjon</text><text fill="#000000" font-family="sans-serif" font-size="14" lengthAdjust="spacing" textLength="16" x="126" y="221.0117">v2</text><line style="stroke:#000000;stroke-width:1.0;" x1="121" x2="121" y1="205.4766" y2="225.9648"/><line style="stroke:#000000;stroke-width:1.0;" x1="10" x2="263" y1="225.9648" y2="225.9648"/><text fill="#000000" font-family="sans-serif" font-size="14" font-weight="bold" lengthAdjust="spacing" textLength="67" x="15" y="241.5">kodeliste</text><text fill="#000000" font-family="sans-serif" font-size="14" lengthAdjust="spacing" textLength="12" x="126" y="241.5">&#160;&#160;&#160;</text><line style="stroke:#000000;stroke-width:1.0;" x1="121" x2="121" y1="225.9648" y2="246.4531"/><rect fill="none" height="81.9531" rx="5" ry="5" style="stroke:#000000;stroke-width:1.5;" width="253" x="10" y="164.5"/><rect fill="#F1F1F1" height="163.9063" rx="5" ry="5" style="stroke:#F1F1F1;stroke-width:1.5;" width="22" x="300" y="154.5"/><text fill="#000000" font-family="sans-serif" font-size="14" lengthAdjust="spacing" textLength="12" x="305" y="170.0352">&#160;&#160;&#160;</text><line style="stroke:#000000;stroke-width:1.0;" x1="300" x2="322" y1="174.9883" y2="174.9883"/><text fill="#000000" font-family="sans-serif" font-size="14" lengthAdjust="spacing" textLength="12" x="305" y="190.5234">&#160;&#160;&#160;</text><line style="stroke:#000000;stroke-width:1.0;" x1="300" x2="322" y1="195.4766" y2="195.4766"/><text fill="#000000" font-family="sans-serif" font-size="14" lengthAdjust="spacing" textLength="12" x="305" y="211.0117">&#160;&#160;&#160;</text><line style="stroke:#000000;stroke-width:1.0;" x1="300" x2="322" y1="215.9648" y2="215.9648"/><text fill="#000000" font-family="sans-serif" font-size="14" lengthAdjust="spacing" textLength="12" x="305" y="231.5">&#160;&#160;&#160;</text><line style="stroke:#000000;stroke-width:1.0;" x1="300" x2="322" y1="236.4531" y2="236.4531"/><text fill="#000000" font-family="sans-serif" font-size="14" lengthAdjust="spacing" textLength="12" x="305" y="251.9883">&#160;&#160;&#160;</text><line style="stroke:#000000;stroke-width:1.0;" x1="300" x2="322" y1="256.9414" y2="256.9414"/><text fill="#000000" font-family="sans-serif" font-size="14" lengthAdjust="spacing" textLength="12" x="305" y="272.4766">&#160;&#160;&#160;</text><line style="stroke:#000000;stroke-width:1.0;" x1="300" x2="322" y1="277.4297" y2="277.4297"/><text fill="#000000" font-family="sans-serif" font-size="14" lengthAdjust="spacing" textLength="12" x="305" y="292.9648">&#160;&#160;&#160;</text><line style="stroke:#000000;stroke-width:1.0;" x1="300" x2="322" y1="297.918" y2="297.918"/><text fill="#000000" font-family="sans-serif" font-size="14" lengthAdjust="spacing" textLength="12" x="305" y="313.4531">&#160;&#160;&#160;</text><rect fill="none" height="163.9063" rx="5" ry="5" style="stroke:#000000;stroke-width:1.5;" width="22" x="300" y="154.5"/><rect fill="#F1F1F1" height="40.9766" rx="5" ry="5" style="stroke:#F1F1F1;stroke-width:1.5;" width="390" x="359" y="10"/><text fill="#000000" font-family="sans-serif" font-size="14" font-weight="bold" lengthAdjust="spacing" textLength="71" x="364" y="25.5352">kodeverdi</text><text fill="#000000" font-family="sans-serif" font-size="14" lengthAdjust="spacing" textLength="23" x="491" y="25.5352">PBL</text><line style="stroke:#000000;stroke-width:1.0;" x1="486" x2="486" y1="10" y2="30.4883"/><line style="stroke:#000000;stroke-width:1.0;" x1="359" x2="749" y1="30.4883" y2="30.4883"/><text fill="#000000" font-family="sans-serif" font-size="14" font-weight="bold" lengthAdjust="spacing" textLength="117" x="364" y="46.0234">kodebeskrivelse</text><text fill="#000000" font-family="sans-serif" font-size="14" lengthAdjust="spacing" textLength="253" x="491" y="46.0234">Plan- og bygningslov med forskrifter</text><line style="stroke:#000000;stroke-width:1.0;" x1="486" x2="486" y1="30.4883" y2="50.9766"/><rect fill="none" height="40.9766" rx="5" ry="5" style="stroke:#000000;stroke-width:1.5;" width="390" x="359" y="10"/><rect fill="#F1F1F1" height="40.9766" rx="5" ry="5" style="stroke:#F1F1F1;stroke-width:1.5;" width="387" x="360.5" y="69"/><text fill="#000000" font-family="sans-serif" font-size="14" font-weight="bold" lengthAdjust="spacing" textLength="71" x="365.5" y="84.5352">kodeverdi</text><text fill="#000000" font-family="sans-serif" font-size="14" lengthAdjust="spacing" textLength="26" x="492.5" y="84.5352">TEK</text><line style="stroke:#000000;stroke-width:1.0;" x1="487.5" x2="487.5" y1="69" y2="89.4883"/><line style="stroke:#000000;stroke-width:1.0;" x1="360.5" x2="747.5" y1="89.4883" y2="89.4883"/><text fill="#000000" font-family="sans-serif" font-size="14" font-weight="bold" lengthAdjust="spacing" textLength="117" x="365.5" y="105.0234">kodebeskrivelse</text><text fill="#000000" font-family="sans-serif" font-size="14" lengthAdjust="spacing" textLength="250" x="492.5" y="105.0234">Byggteknisk forskrift med veiledning</text><line style="stroke:#000000;stroke-width:1.0;" x1="487.5" x2="487.5" y1="89.4883" y2="109.9766"/><rect fill="none" height="40.9766" rx="5" ry="5" style="stroke:#000000;stroke-width:1.5;" width="387" x="360.5" y="69"/><rect fill="#F1F1F1" height="40.9766" rx="5" ry="5" style="stroke:#F1F1F1;stroke-width:1.5;" width="287" x="410.5" y="128"/><text fill="#000000" font-family="sans-serif" font-size="14" font-weight="bold" lengthAdjust="spacing" textLength="71" x="415.5" y="143.5352">kodeverdi</text><text fill="#000000" font-family="sans-serif" font-size="14" lengthAdjust="spacing" textLength="32" x="542.5" y="143.5352">KOM</text><line style="stroke:#000000;stroke-width:1.0;" x1="537.5" x2="537.5" y1="128" y2="148.4883"/><line style="stroke:#000000;stroke-width:1.0;" x1="410.5" x2="697.5" y1="148.4883" y2="148.4883"/><text fill="#000000" font-family="sans-serif" font-size="14" font-weight="bold" lengthAdjust="spacing" textLength="117" x="415.5" y="164.0234">kodebeskrivelse</text><text fill="#000000" font-family="sans-serif" font-size="14" lengthAdjust="spacing" textLength="150" x="542.5" y="164.0234">Kommunale vedtekter</text><line style="stroke:#000000;stroke-width:1.0;" x1="537.5" x2="537.5" y1="148.4883" y2="168.9766"/><rect fill="none" height="40.9766" rx="5" ry="5" style="stroke:#000000;stroke-width:1.5;" width="287" x="410.5" y="128"/><rect fill="#F1F1F1" height="40.9766" rx="5" ry="5" style="stroke:#F1F1F1;stroke-width:1.5;" width="217" x="445.5" y="187"/><text fill="#000000" font-family="sans-serif" font-size="14" font-weight="bold" lengthAdjust="spacing" textLength="71" x="450.5" y="202.5352">kodeverdi</text><text fill="#000000" font-family="sans-serif" font-size="14" lengthAdjust="spacing" textLength="35" x="577.5" y="202.5352">PLAN</text><line style="stroke:#000000;stroke-width:1.0;" x1="572.5" x2="572.5" y1="187" y2="207.4883"/><line style="stroke:#000000;stroke-width:1.0;" x1="445.5" x2="662.5" y1="207.4883" y2="207.4883"/><text fill="#000000" font-family="sans-serif" font-size="14" font-weight="bold" lengthAdjust="spacing" textLength="117" x="450.5" y="223.0234">kodebeskrivelse</text><text fill="#000000" font-family="sans-serif" font-size="14" lengthAdjust="spacing" textLength="80" x="577.5" y="223.0234">Arealplaner</text><line style="stroke:#000000;stroke-width:1.0;" x1="572.5" x2="572.5" y1="207.4883" y2="227.9766"/><rect fill="none" height="40.9766" rx="5" ry="5" style="stroke:#000000;stroke-width:1.5;" width="217" x="445.5" y="187"/><rect fill="#F1F1F1" height="40.9766" rx="5" ry="5" style="stroke:#F1F1F1;stroke-width:1.5;" width="200" x="454" y="246"/><text fill="#000000" font-family="sans-serif" font-size="14" font-weight="bold" lengthAdjust="spacing" textLength="71" x="459" y="261.5352">kodeverdi</text><text fill="#000000" font-family="sans-serif" font-size="14" lengthAdjust="spacing" textLength="27" x="586" y="261.5352">VEG</text><line style="stroke:#000000;stroke-width:1.0;" x1="581" x2="581" y1="246" y2="266.4883"/><line style="stroke:#000000;stroke-width:1.0;" x1="454" x2="654" y1="266.4883" y2="266.4883"/><text fill="#000000" font-family="sans-serif" font-size="14" font-weight="bold" lengthAdjust="spacing" textLength="117" x="459" y="282.0234">kodebeskrivelse</text><text fill="#000000" font-family="sans-serif" font-size="14" lengthAdjust="spacing" textLength="63" x="586" y="282.0234">Vegloven</text><line style="stroke:#000000;stroke-width:1.0;" x1="581" x2="581" y1="266.4883" y2="286.9766"/><rect fill="none" height="40.9766" rx="5" ry="5" style="stroke:#000000;stroke-width:1.5;" width="200" x="454" y="246"/><rect fill="#F1F1F1" height="40.9766" rx="5" ry="5" style="stroke:#F1F1F1;stroke-width:1.5;" width="185" x="461.5" y="305"/><text fill="#000000" font-family="sans-serif" font-size="14" font-weight="bold" lengthAdjust="spacing" textLength="71" x="466.5" y="320.5352">kodeverdi</text><text fill="#000000" font-family="sans-serif" font-size="14" lengthAdjust="spacing" textLength="34" x="593.5" y="320.5352">JORD</text><line style="stroke:#000000;stroke-width:1.0;" x1="588.5" x2="588.5" y1="305" y2="325.4883"/><line style="stroke:#000000;stroke-width:1.0;" x1="461.5" x2="646.5" y1="325.4883" y2="325.4883"/><text fill="#000000" font-family="sans-serif" font-size="14" font-weight="bold" lengthAdjust="spacing" textLength="117" x="466.5" y="341.0234">kodebeskrivelse</text><text fill="#000000" font-family="sans-serif" font-size="14" lengthAdjust="spacing" textLength="48" x="593.5" y="341.0234">Jordlov</text><line style="stroke:#000000;stroke-width:1.0;" x1="588.5" x2="588.5" y1="325.4883" y2="345.9766"/><rect fill="none" height="40.9766" rx="5" ry="5" style="stroke:#000000;stroke-width:1.5;" width="185" x="461.5" y="305"/><rect fill="#F1F1F1" height="40.9766" rx="5" ry="5" style="stroke:#F1F1F1;stroke-width:1.5;" width="244" x="432" y="364"/><text fill="#000000" font-family="sans-serif" font-size="14" font-weight="bold" lengthAdjust="spacing" textLength="71" x="437" y="379.5352">kodeverdi</text><text fill="#000000" font-family="sans-serif" font-size="14" lengthAdjust="spacing" textLength="27" x="564" y="379.5352">ARB</text><line style="stroke:#000000;stroke-width:1.0;" x1="559" x2="559" y1="364" y2="384.4883"/><line style="stroke:#000000;stroke-width:1.0;" x1="432" x2="676" y1="384.4883" y2="384.4883"/><text fill="#000000" font-family="sans-serif" font-size="14" font-weight="bold" lengthAdjust="spacing" textLength="117" x="437" y="400.0234">kodebeskrivelse</text><text fill="#000000" font-family="sans-serif" font-size="14" lengthAdjust="spacing" textLength="107" x="564" y="400.0234">Arbeidsmilj&#248;lov</text><line style="stroke:#000000;stroke-width:1.0;" x1="559" x2="559" y1="384.4883" y2="404.9766"/><rect fill="none" height="40.9766" rx="5" ry="5" style="stroke:#000000;stroke-width:1.5;" width="244" x="432" y="364"/><rect fill="#F1F1F1" height="40.9766" rx="5" ry="5" style="stroke:#F1F1F1;stroke-width:1.5;" width="257" x="425.5" y="423"/><text fill="#000000" font-family="sans-serif" font-size="14" font-weight="bold" lengthAdjust="spacing" textLength="71" x="430.5" y="438.5352">kodeverdi</text><text fill="#000000" font-family="sans-serif" font-size="14" lengthAdjust="spacing" textLength="38" x="557.5" y="438.5352">FORU</text><line style="stroke:#000000;stroke-width:1.0;" x1="552.5" x2="552.5" y1="423" y2="443.4883"/><line style="stroke:#000000;stroke-width:1.0;" x1="425.5" x2="682.5" y1="443.4883" y2="443.4883"/><text fill="#000000" font-family="sans-serif" font-size="14" font-weight="bold" lengthAdjust="spacing" textLength="117" x="430.5" y="459.0234">kodebeskrivelse</text><text fill="#000000" font-family="sans-serif" font-size="14" lengthAdjust="spacing" textLength="120" x="557.5" y="459.0234">Forurensningslov</text><line style="stroke:#000000;stroke-width:1.0;" x1="552.5" x2="552.5" y1="443.4883" y2="463.9766"/><rect fill="none" height="40.9766" rx="5" ry="5" style="stroke:#000000;stroke-width:1.5;" width="257" x="425.5" y="423"/><path d="M310,164.5 L323,164.5 C372.3333,164.5 321.0858,91.0641 359,59.5 C360.7219,58.0665 362.4833,56.6875 364.2811,55.361 " fill="none" style="stroke:#000000;stroke-width:1.0;stroke-dasharray:3.0,3.0;"/><path d="M366.0051,57.8602 L366.1555,54.068 L362.5571,52.8618 L370.5291,51.051 L366.0051,57.8602 " fill="#000000" style="stroke:#000000;stroke-width:1.0;"/><ellipse cx="310" cy="164.5" fill="#000000" rx="3" ry="3" style="stroke:#000000;stroke-width:1.0;"/><path d="M310,185.5 L323,185.5 C356.8041,185.5 331.3484,137.9449 359,118.5 C361.1643,116.978 363.3759,115.5216 365.6298,114.1282 " fill="none" style="stroke:#000000;stroke-width:1.0;stroke-dasharray:3.0,3.0;"/><path d="M367.2273,116.8818 L367.695,112.93 L364.0323,111.3746 L372.5138,110.1344 L367.2273,116.8818 " fill="#000000" style="stroke:#000000;stroke-width:1.0;"/><ellipse cx="310" cy="185.5" fill="#000000" rx="3" ry="3" style="stroke:#000000;stroke-width:1.0;"/><path d="M310,205.5 L323,205.5 C343,205.5 340.5653,186.2565 359,178.5 C373.0056,172.6071 388.0149,167.8563 403.2564,164.0286 " fill="none" style="stroke:#000000;stroke-width:1.0;stroke-dasharray:3.0,3.0;"/><path d="M403.9788,167.0276 L405.5057,163.4868 L402.5341,161.0295 L410.754,162.2227 L403.9788,167.0276 " fill="#000000" style="stroke:#000000;stroke-width:1.0;"/><ellipse cx="310" cy="205.5" fill="#000000" rx="3" ry="3" style="stroke:#000000;stroke-width:1.0;"/><path d="M310,226.5 L323,226.5 C360.4867,226.5 401.2871,223.9731 437.9987,220.7623 " fill="none" style="stroke:#000000;stroke-width:1.0;stroke-dasharray:3.0,3.0;"/><path d="M438.2767,223.87 L440.3295,220.5539 L437.7208,217.6547 L445.7679,220.0675 L438.2767,223.87 " fill="#000000" style="stroke:#000000;stroke-width:1.0;"/><ellipse cx="310" cy="226.5" fill="#000000" rx="3" ry="3" style="stroke:#000000;stroke-width:1.0;"/><path d="M310,246.5 L323,246.5 C363.4815,246.5 407.813,249.5996 446.6892,253.3584 " fill="none" style="stroke:#000000;stroke-width:1.0;stroke-dasharray:3.0,3.0;"/><path d="M446.3853,256.4383 L448.9992,253.5863 L446.9932,250.2785 L454.389,254.1182 L446.3853,256.4383 " fill="#000000" style="stroke:#000000;stroke-width:1.0;"/><ellipse cx="310" cy="246.5" fill="#000000" rx="3" ry="3" style="stroke:#000000;stroke-width:1.0;"/><path d="M310,267.5 L323,267.5 C343.5456,267.5 340.1823,288.2526 359,296.5 C388.5274,309.4413 422.7356,316.7812 454.1539,320.8912 " fill="none" style="stroke:#000000;stroke-width:1.0;stroke-dasharray:3.0,3.0;"/><path d="M453.7829,323.8906 L456.4034,321.1694 L454.5248,317.8917 L461.6525,321.8186 L453.7829,323.8906 " fill="#000000" style="stroke:#000000;stroke-width:1.0;"/><ellipse cx="310" cy="267.5" fill="#000000" rx="3" ry="3" style="stroke:#000000;stroke-width:1.0;"/><path d="M310,287.5 L323,287.5 C357.1962,287.5 331.0882,335.7436 359,355.5 C378.2988,369.16 401.3904,377.5516 424.8102,382.5256 " fill="none" style="stroke:#000000;stroke-width:1.0;stroke-dasharray:3.0,3.0;"/><path d="M424.2114,385.57 L427.0935,382.9747 L425.4091,379.4812 L432.4212,384.0227 L424.2114,385.57 " fill="#000000" style="stroke:#000000;stroke-width:1.0;"/><ellipse cx="310" cy="287.5" fill="#000000" rx="3" ry="3" style="stroke:#000000;stroke-width:1.0;"/><path d="M310,308.5 L323,308.5 C372.754,308.5 320.8087,382.6114 359,414.5 C376.0112,428.7038 396.9007,437.569 418.6082,442.8898 " fill="none" style="stroke:#000000;stroke-width:1.0;stroke-dasharray:3.0,3.0;"/><path d="M417.9397,445.8452 L420.8248,443.3911 L419.2766,439.9343 L425.9968,444.5609 L417.9397,445.8452 " fill="#000000" style="stroke:#000000;stroke-width:1.0;"/><ellipse cx="310" cy="308.5" fill="#000000" rx="3" ry="3" style="stroke:#000000;stroke-width:1.0;"/><path d="M251,236.5 L264,236.5 C273.4213,236.5 283.9164,236.5 292.5483,236.5 " fill="none" style="stroke:#000000;stroke-width:1.0;stroke-dasharray:3.0,3.0;"/><path d="M292.5483,239.5437 L294.8311,236.5 L292.5483,233.4563 L300.1575,236.5 L292.5483,239.5437 " fill="#000000" style="stroke:#000000;stroke-width:1.0;"/><ellipse cx="251" cy="236.5" fill="#000000" rx="3" ry="3" style="stroke:#000000;stroke-width:1.0;"/><!--SRC=[ZPFDRk903CVlynGMfrOggA1ILJaL2bGAIK5yNLOz38s9XamyQ6OIAQhwNdlV5ri7olQMpSK7V_p-zepzxBoq_kWCYKy1q3bPuqrcj2PPKYU03fbUvde7nUQa9NNkwgnhC57kXEIaEnfolZgXlSHBjBMhJYa75rTc4jJAUMJdBtO0V9xjTuWh4jK1BbYEetF5lz0UNMPLYThX9O7Rw899OL-bf2XrsfIGOm87O-lCW-Sspe2lkoQXpNJUB3IkqjHZHifbF-opKebAOrABjn6QB-9ceRd9yuAaHWOdhDXoW6KqUci6ZonANNzRE-1k-jhCss7AZutK1XOkLfDcMcXimhWsiD5g_Bz9zwWIbojz_FEx9NIsM6sRgJDZ2yiBVbspRohRT_4bdf6Iy-M8UYNzDewWNdnb2FgzmVtWeJUyMHS4iQnWy0ZzVj0V1iCdU9ckDr37RyNDwp82PmhxWS37vAtQ5vu1joAKfOHLGLxb6C22pooSpAyEc5AfhA4SoOjm5_yaF3vqnyh36Yst0hjOJF0W2-svuiCaF4O0sysi-oGYIMaXKsOZYHV3N5i5yBRu2m00]--></g></svg>