<svg xmlns="http://www.w3.org/2000/svg" xmlns:xlink="http://www.w3.org/1999/xlink" contentStyleType="text/css" data-diagram-type="JSON" height="475px" preserveAspectRatio="none" style="width:791px;height:475px;background:#FFFFFF;" version="1.1" viewBox="0 0 791 475" width="791px" zoomAndPan="magnify"><defs/><g><rect fill="#F1F1F1" height="81.9531" rx="5" ry="5" style="stroke:#F1F1F1;stroke-width:1.5;" width="283.1084" x="10" y="164.5"/><text fill="#000000" font-family="sans-serif" font-size="14" font-weight="bold" lengthAdjust="spacing" textLength="101.0283" x="15" y="180.0352">protokollnavn</text><text fill="#000000" font-family="sans-serif" font-size="14" lengthAdjust="spacing" textLength="99.6885" x="126.0283" y="180.0352">no.ks.fiks.plan</text><line style="stroke:#000000;stroke-width:1;" x1="121.0283" x2="121.0283" y1="164.5" y2="184.9883"/><line style="stroke:#000000;stroke-width:1;" x1="10" x2="293.1084" y1="184.9883" y2="184.9883"/><text fill="#000000" font-family="sans-serif" font-size="14" font-weight="bold" lengthAdjust="spacing" textLength="34.9248" x="15" y="200.5234">navn</text><text fill="#000000" font-family="sans-serif" font-size="14" lengthAdjust="spacing" textLength="162.0801" x="126.0283" y="200.5234">dispensasjonFraLovverk</text><line style="stroke:#000000;stroke-width:1;" x1="121.0283" x2="121.0283" y1="184.9883" y2="205.4766"/><line style="stroke:#000000;stroke-width:1;" x1="10" x2="293.1084" y1="205.4766" y2="205.4766"/><text fill="#000000" font-family="sans-serif" font-size="14" font-weight="bold" lengthAdjust="spacing" textLength="53.5869" x="15" y="221.0117">versjon</text><text fill="#000000" font-family="sans-serif" font-size="14" lengthAdjust="spacing" textLength="16.0986" x="126.0283" y="221.0117">v2</text><line style="stroke:#000000;stroke-width:1;" x1="121.0283" x2="121.0283" y1="205.4766" y2="225.9648"/><line style="stroke:#000000;stroke-width:1;" x1="10" x2="293.1084" y1="225.9648" y2="225.9648"/><text fill="#000000" font-family="sans-serif" font-size="14" font-weight="bold" lengthAdjust="spacing" textLength="66.1787" x="15" y="241.5">kodeliste</text><text fill="#000000" font-family="sans-serif" font-size="14" lengthAdjust="spacing" textLength="13.2891" x="126.0283" y="241.5">&#160;&#160;&#160;</text><line style="stroke:#000000;stroke-width:1;" x1="121.0283" x2="121.0283" y1="225.9648" y2="246.4531"/><rect fill="none" height="81.9531" rx="5" ry="5" style="stroke:#000000;stroke-width:1.5;" width="283.1084" x="10" y="164.5"/><rect fill="#F1F1F1" height="163.9063" rx="5" ry="5" style="stroke:#F1F1F1;stroke-width:1.5;" width="23.2891" x="330" y="154.5"/><text fill="#000000" font-family="sans-serif" font-size="14" lengthAdjust="spacing" textLength="13.2891" x="335" y="170.0352">&#160;&#160;&#160;</text><line style="stroke:#000000;stroke-width:1;" x1="330" x2="353.2891" y1="174.9883" y2="174.9883"/><text fill="#000000" font-family="sans-serif" font-size="14" lengthAdjust="spacing" textLength="13.2891" x="335" y="190.5234">&#160;&#160;&#160;</text><line style="stroke:#000000;stroke-width:1;" x1="330" x2="353.2891" y1="195.4766" y2="195.4766"/><text fill="#000000" font-family="sans-serif" font-size="14" lengthAdjust="spacing" textLength="13.2891" x="335" y="211.0117">&#160;&#160;&#160;</text><line style="stroke:#000000;stroke-width:1;" x1="330" x2="353.2891" y1="215.9648" y2="215.9648"/><text fill="#000000" font-family="sans-serif" font-size="14" lengthAdjust="spacing" textLength="13.2891" x="335" y="231.5">&#160;&#160;&#160;</text><line style="stroke:#000000;stroke-width:1;" x1="330" x2="353.2891" y1="236.4531" y2="236.4531"/><text fill="#000000" font-family="sans-serif" font-size="14" lengthAdjust="spacing" textLength="13.2891" x="335" y="251.9883">&#160;&#160;&#160;</text><line style="stroke:#000000;stroke-width:1;" x1="330" x2="353.2891" y1="256.9414" y2="256.9414"/><text fill="#000000" font-family="sans-serif" font-size="14" lengthAdjust="spacing" textLength="13.2891" x="335" y="272.4766">&#160;&#160;&#160;</text><line style="stroke:#000000;stroke-width:1;" x1="330" x2="353.2891" y1="277.4297" y2="277.4297"/><text fill="#000000" font-family="sans-serif" font-size="14" lengthAdjust="spacing" textLength="13.2891" x="335" y="292.9648">&#160;&#160;&#160;</text><line style="stroke:#000000;stroke-width:1;" x1="330" x2="353.2891" y1="297.918" y2="297.918"/><text fill="#000000" font-family="sans-serif" font-size="14" lengthAdjust="spacing" textLength="13.2891" x="335" y="313.4531">&#160;&#160;&#160;</text><rect fill="none" height="163.9063" rx="5" ry="5" style="stroke:#000000;stroke-width:1.5;" width="23.2891" x="330" y="154.5"/><rect fill="#F1F1F1" height="40.9766" rx="5" ry="5" style="stroke:#F1F1F1;stroke-width:1.5;" width="389.1885" x="390" y="10"/><text fill="#000000" font-family="sans-serif" font-size="14" font-weight="bold" lengthAdjust="spacing" textLength="71.9824" x="395" y="25.5352">kodeverdi</text><text fill="#000000" font-family="sans-serif" font-size="14" lengthAdjust="spacing" textLength="23.2559" x="522.6328" y="25.5352">PBL</text><line style="stroke:#000000;stroke-width:1;" x1="517.6328" x2="517.6328" y1="10" y2="30.4883"/><line style="stroke:#000000;stroke-width:1;" x1="390" x2="779.1885" y1="30.4883" y2="30.4883"/><text fill="#000000" font-family="sans-serif" font-size="14" font-weight="bold" lengthAdjust="spacing" textLength="117.6328" x="395" y="46.0234">kodebeskrivelse</text><text fill="#000000" font-family="sans-serif" font-size="14" lengthAdjust="spacing" textLength="251.5557" x="522.6328" y="46.0234">Plan- og bygningslov med forskrifter</text><line style="stroke:#000000;stroke-width:1;" x1="517.6328" x2="517.6328" y1="30.4883" y2="50.9766"/><rect fill="none" height="40.9766" rx="5" ry="5" style="stroke:#000000;stroke-width:1.5;" width="389.1885" x="390" y="10"/><rect fill="#F1F1F1" height="40.9766" rx="5" ry="5" style="stroke:#F1F1F1;stroke-width:1.5;" width="387.5615" x="390.5" y="69"/><text fill="#000000" font-family="sans-serif" font-size="14" font-weight="bold" lengthAdjust="spacing" textLength="71.9824" x="395.5" y="84.5352">kodeverdi</text><text fill="#000000" font-family="sans-serif" font-size="14" lengthAdjust="spacing" textLength="25.5801" x="523.1328" y="84.5352">TEK</text><line style="stroke:#000000;stroke-width:1;" x1="518.1328" x2="518.1328" y1="69" y2="89.4883"/><line style="stroke:#000000;stroke-width:1;" x1="390.5" x2="778.0615" y1="89.4883" y2="89.4883"/><text fill="#000000" font-family="sans-serif" font-size="14" font-weight="bold" lengthAdjust="spacing" textLength="117.6328" x="395.5" y="105.0234">kodebeskrivelse</text><text fill="#000000" font-family="sans-serif" font-size="14" lengthAdjust="spacing" textLength="249.9287" x="523.1328" y="105.0234">Byggteknisk forskrift med veiledning</text><line style="stroke:#000000;stroke-width:1;" x1="518.1328" x2="518.1328" y1="89.4883" y2="109.9766"/><rect fill="none" height="40.9766" rx="5" ry="5" style="stroke:#000000;stroke-width:1.5;" width="387.5615" x="390.5" y="69"/><rect fill="#F1F1F1" height="40.9766" rx="5" ry="5" style="stroke:#F1F1F1;stroke-width:1.5;" width="286.7383" x="441" y="128"/><text fill="#000000" font-family="sans-serif" font-size="14" font-weight="bold" lengthAdjust="spacing" textLength="71.9824" x="446" y="143.5352">kodeverdi</text><text fill="#000000" font-family="sans-serif" font-size="14" lengthAdjust="spacing" textLength="32.0742" x="573.6328" y="143.5352">KOM</text><line style="stroke:#000000;stroke-width:1;" x1="568.6328" x2="568.6328" y1="128" y2="148.4883"/><line style="stroke:#000000;stroke-width:1;" x1="441" x2="727.7383" y1="148.4883" y2="148.4883"/><text fill="#000000" font-family="sans-serif" font-size="14" font-weight="bold" lengthAdjust="spacing" textLength="117.6328" x="446" y="164.0234">kodebeskrivelse</text><text fill="#000000" font-family="sans-serif" font-size="14" lengthAdjust="spacing" textLength="149.1055" x="573.6328" y="164.0234">Kommunale vedtekter</text><line style="stroke:#000000;stroke-width:1;" x1="568.6328" x2="568.6328" y1="148.4883" y2="168.9766"/><rect fill="none" height="40.9766" rx="5" ry="5" style="stroke:#000000;stroke-width:1.5;" width="286.7383" x="441" y="128"/><rect fill="#F1F1F1" height="40.9766" rx="5" ry="5" style="stroke:#F1F1F1;stroke-width:1.5;" width="215.4053" x="477" y="187"/><text fill="#000000" font-family="sans-serif" font-size="14" font-weight="bold" lengthAdjust="spacing" textLength="71.9824" x="482" y="202.5352">kodeverdi</text><text fill="#000000" font-family="sans-serif" font-size="14" lengthAdjust="spacing" textLength="35.2051" x="609.6328" y="202.5352">PLAN</text><line style="stroke:#000000;stroke-width:1;" x1="604.6328" x2="604.6328" y1="187" y2="207.4883"/><line style="stroke:#000000;stroke-width:1;" x1="477" x2="692.4053" y1="207.4883" y2="207.4883"/><text fill="#000000" font-family="sans-serif" font-size="14" font-weight="bold" lengthAdjust="spacing" textLength="117.6328" x="482" y="223.0234">kodebeskrivelse</text><text fill="#000000" font-family="sans-serif" font-size="14" lengthAdjust="spacing" textLength="77.7725" x="609.6328" y="223.0234">Arealplaner</text><line style="stroke:#000000;stroke-width:1;" x1="604.6328" x2="604.6328" y1="207.4883" y2="227.9766"/><rect fill="none" height="40.9766" rx="5" ry="5" style="stroke:#000000;stroke-width:1.5;" width="215.4053" x="477" y="187"/><rect fill="#F1F1F1" height="40.9766" rx="5" ry="5" style="stroke:#F1F1F1;stroke-width:1.5;" width="199.6963" x="484.5" y="246"/><text fill="#000000" font-family="sans-serif" font-size="14" font-weight="bold" lengthAdjust="spacing" textLength="71.9824" x="489.5" y="261.5352">kodeverdi</text><text fill="#000000" font-family="sans-serif" font-size="14" lengthAdjust="spacing" textLength="26.8584" x="617.1328" y="261.5352">VEG</text><line style="stroke:#000000;stroke-width:1;" x1="612.1328" x2="612.1328" y1="246" y2="266.4883"/><line style="stroke:#000000;stroke-width:1;" x1="484.5" x2="684.1963" y1="266.4883" y2="266.4883"/><text fill="#000000" font-family="sans-serif" font-size="14" font-weight="bold" lengthAdjust="spacing" textLength="117.6328" x="489.5" y="282.0234">kodebeskrivelse</text><text fill="#000000" font-family="sans-serif" font-size="14" lengthAdjust="spacing" textLength="62.0635" x="617.1328" y="282.0234">Vegloven</text><line style="stroke:#000000;stroke-width:1;" x1="612.1328" x2="612.1328" y1="266.4883" y2="286.9766"/><rect fill="none" height="40.9766" rx="5" ry="5" style="stroke:#000000;stroke-width:1.5;" width="199.6963" x="484.5" y="246"/><rect fill="#F1F1F1" height="40.9766" rx="5" ry="5" style="stroke:#F1F1F1;stroke-width:1.5;" width="185.0195" x="492" y="305"/><text fill="#000000" font-family="sans-serif" font-size="14" font-weight="bold" lengthAdjust="spacing" textLength="71.9824" x="497" y="320.5352">kodeverdi</text><text fill="#000000" font-family="sans-serif" font-size="14" lengthAdjust="spacing" textLength="34.5693" x="624.6328" y="320.5352">JORD</text><line style="stroke:#000000;stroke-width:1;" x1="619.6328" x2="619.6328" y1="305" y2="325.4883"/><line style="stroke:#000000;stroke-width:1;" x1="492" x2="677.0195" y1="325.4883" y2="325.4883"/><text fill="#000000" font-family="sans-serif" font-size="14" font-weight="bold" lengthAdjust="spacing" textLength="117.6328" x="497" y="341.0234">kodebeskrivelse</text><text fill="#000000" font-family="sans-serif" font-size="14" lengthAdjust="spacing" textLength="47.3867" x="624.6328" y="341.0234">Jordlov</text><line style="stroke:#000000;stroke-width:1;" x1="619.6328" x2="619.6328" y1="325.4883" y2="345.9766"/><rect fill="none" height="40.9766" rx="5" ry="5" style="stroke:#000000;stroke-width:1.5;" width="185.0195" x="492" y="305"/><rect fill="#F1F1F1" height="40.9766" rx="5" ry="5" style="stroke:#F1F1F1;stroke-width:1.5;" width="243.542" x="462.5" y="364"/><text fill="#000000" font-family="sans-serif" font-size="14" font-weight="bold" lengthAdjust="spacing" textLength="71.9824" x="467.5" y="379.5352">kodeverdi</text><text fill="#000000" font-family="sans-serif" font-size="14" lengthAdjust="spacing" textLength="26.5645" x="595.1328" y="379.5352">ARB</text><line style="stroke:#000000;stroke-width:1;" x1="590.1328" x2="590.1328" y1="364" y2="384.4883"/><line style="stroke:#000000;stroke-width:1;" x1="462.5" x2="706.042" y1="384.4883" y2="384.4883"/><text fill="#000000" font-family="sans-serif" font-size="14" font-weight="bold" lengthAdjust="spacing" textLength="117.6328" x="467.5" y="400.0234">kodebeskrivelse</text><text fill="#000000" font-family="sans-serif" font-size="14" lengthAdjust="spacing" textLength="105.9092" x="595.1328" y="400.0234">Arbeidsmilj&#248;lov</text><line style="stroke:#000000;stroke-width:1;" x1="590.1328" x2="590.1328" y1="384.4883" y2="404.9766"/><rect fill="none" height="40.9766" rx="5" ry="5" style="stroke:#000000;stroke-width:1.5;" width="243.542" x="462.5" y="364"/><rect fill="#F1F1F1" height="40.9766" rx="5" ry="5" style="stroke:#F1F1F1;stroke-width:1.5;" width="254.6914" x="457" y="423"/><text fill="#000000" font-family="sans-serif" font-size="14" font-weight="bold" lengthAdjust="spacing" textLength="71.9824" x="462" y="438.5352">kodeverdi</text><text fill="#000000" font-family="sans-serif" font-size="14" lengthAdjust="spacing" textLength="36.9346" x="589.6328" y="438.5352">FORU</text><line style="stroke:#000000;stroke-width:1;" x1="584.6328" x2="584.6328" y1="423" y2="443.4883"/><line style="stroke:#000000;stroke-width:1;" x1="457" x2="711.6914" y1="443.4883" y2="443.4883"/><text fill="#000000" font-family="sans-serif" font-size="14" font-weight="bold" lengthAdjust="spacing" textLength="117.6328" x="462" y="459.0234">kodebeskrivelse</text><text fill="#000000" font-family="sans-serif" font-size="14" lengthAdjust="spacing" textLength="117.0586" x="589.6328" y="459.0234">Forurensningslov</text><line style="stroke:#000000;stroke-width:1;" x1="584.6328" x2="584.6328" y1="443.4883" y2="463.9766"/><rect fill="none" height="40.9766" rx="5" ry="5" style="stroke:#000000;stroke-width:1.5;" width="254.6914" x="457" y="423"/><path d="M341,164.5 L354,164.5 C403.3333,164.5 352.0917,91.0712 390,59.5 C391.7173,58.0698 393.474,56.6939 395.267,55.3703" fill="none" style="stroke:#000000;stroke-width:1;stroke-dasharray:3.0,3.0;"/><path d="M396.9872,57.8629 L397.1365,54.0802 L393.5468,52.8778 L401.4985,51.0698 L396.9872,57.8629" fill="#000000" style="stroke:#000000;stroke-width:1;"/><ellipse cx="341" cy="164.5" fill="#000000" rx="3" ry="3" style="stroke:#000000;stroke-width:1;"/><path d="M341,185.5 L354,185.5 C387.8041,185.5 362.352,137.9501 390,118.5 C392.1586,116.9814 394.3643,115.5282 396.6123,114.1378" fill="none" style="stroke:#000000;stroke-width:1;stroke-dasharray:3.0,3.0;"/><path d="M398.2064,116.8842 L398.6721,112.9422 L395.0182,111.3915 L403.4782,110.1525 L398.2064,116.8842" fill="#000000" style="stroke:#000000;stroke-width:1;"/><ellipse cx="341" cy="185.5" fill="#000000" rx="3" ry="3" style="stroke:#000000;stroke-width:1;"/><path d="M341,205.5 L354,205.5 C374,205.5 371.5668,186.26 390,178.5 C403.9018,172.6476 418.7952,167.9221 433.9217,164.1088" fill="none" style="stroke:#000000;stroke-width:1;stroke-dasharray:3.0,3.0;"/><path d="M434.6416,167.0852 L436.1541,163.5689 L433.2019,161.1323 L441.3629,162.3091 L434.6416,167.0852" fill="#000000" style="stroke:#000000;stroke-width:1;"/><ellipse cx="341" cy="205.5" fill="#000000" rx="3" ry="3" style="stroke:#000000;stroke-width:1;"/><path d="M341,226.5 L354,226.5 C391.6864,226.5 432.7288,223.935 469.5735,220.69" fill="none" style="stroke:#000000;stroke-width:1;stroke-dasharray:3.0,3.0;"/><path d="M469.8543,223.8083 L471.9122,220.4793 L469.2926,217.5716 L477.3693,219.9879 L469.8543,223.8083" fill="#000000" style="stroke:#000000;stroke-width:1;"/><ellipse cx="341" cy="226.5" fill="#000000" rx="3" ry="3" style="stroke:#000000;stroke-width:1;"/><path d="M341,246.5 L354,246.5 C394.3004,246.5 438.4241,249.5852 477.1509,253.3322" fill="none" style="stroke:#000000;stroke-width:1;stroke-dasharray:3.0,3.0;"/><path d="M476.8479,256.4004 L479.4521,253.5594 L477.4539,250.2639 L484.8216,254.0897 L476.8479,256.4004" fill="#000000" style="stroke:#000000;stroke-width:1;"/><ellipse cx="341" cy="246.5" fill="#000000" rx="3" ry="3" style="stroke:#000000;stroke-width:1;"/><path d="M341,267.5 L354,267.5 C374.5456,267.5 371.1839,288.2491 390,296.5 C419.4508,309.4143 453.5708,316.7471 484.9083,320.8589" fill="none" style="stroke:#000000;stroke-width:1;stroke-dasharray:3.0,3.0;"/><path d="M484.5371,323.8506 L487.1521,321.1373 L485.2795,317.8671 L492.3877,321.7869 L484.5371,323.8506" fill="#000000" style="stroke:#000000;stroke-width:1;"/><ellipse cx="341" cy="267.5" fill="#000000" rx="3" ry="3" style="stroke:#000000;stroke-width:1;"/><path d="M341,287.5 L354,287.5 C388.1962,287.5 362.092,335.7383 390,355.5 C409.185,369.0849 432.1293,377.4522 455.4104,382.4278" fill="none" style="stroke:#000000;stroke-width:1;stroke-dasharray:3.0,3.0;"/><path d="M454.811,385.4544 L457.6803,382.8774 L456.0099,379.4013 L462.9768,383.9265 L454.811,385.4544" fill="#000000" style="stroke:#000000;stroke-width:1;"/><ellipse cx="341" cy="287.5" fill="#000000" rx="3" ry="3" style="stroke:#000000;stroke-width:1;"/><path d="M341,308.5 L354,308.5 C403.754,308.5 351.8147,382.6043 390,414.5 C407.0831,428.7693 428.0893,437.6427 449.9017,442.9452" fill="none" style="stroke:#000000;stroke-width:1;stroke-dasharray:3.0,3.0;"/><path d="M449.2361,445.9147 L452.1288,443.4444 L450.5673,439.9758 L457.3254,444.6092 L449.2361,445.9147" fill="#000000" style="stroke:#000000;stroke-width:1;"/><ellipse cx="341" cy="308.5" fill="#000000" rx="3" ry="3" style="stroke:#000000;stroke-width:1;"/><path d="M281,236.5 L294,236.5 C303.399,236.5 313.8552,236.5 322.5144,236.5" fill="none" style="stroke:#000000;stroke-width:1;stroke-dasharray:3.0,3.0;"/><path d="M322.5144,239.5633 L324.8119,236.5 L322.5144,233.4367 L330.1727,236.5 L322.5144,239.5633" fill="#000000" style="stroke:#000000;stroke-width:1;"/><ellipse cx="281" cy="236.5" fill="#000000" rx="3" ry="3" style="stroke:#000000;stroke-width:1;"/><!--SRC=[ZPF1Rk8m48RlVefHJgrKK4kttIgdGe5A8JI81IxL7ampH2RE6DbE95JrlVQ-BxQJKBQtD1Shcldd-ptEpAFpqlgzCoJU1K1miCQRt6XDig8WX81CFtVzdUBZe2K5LxNgd4oLEo0vwVQ6fbR6fghGvYSDVzNXMbODJg7SfAYLyyZ1Lmu0l3VdPuehKXK05on6SLFnFxL5brjLeNPu4l1LUc0os1upKfGvRIeeC8MTiRLovz463U3ZgireDPcr6usEMUOn9-NoBtRZLA7IcDRcNOncoRpTQ6QAeYIfaS4fEtPiO14FNzh1GujIrx-k6t0pUMxdRJ3ZnqRg0ekIvRYT5XcRCguBRBWSVTVf5bNg2gNtV_zqX4wJvRgTEZMsj3pavp7xfFBvMto8HwIqsHvHZwHVpsEe1ryPWfl-u7fmrnzSh4g4I19S_uIRX_3sBhozXwV92khqfRXuNiJWJ6dV47YVl5NRqdFzfOXa9M5PabS5Xf3mfaNZsJa04wgKDLGWUH5jvb-2-n-zaVBm2otV13PpCSQTBBNdYZUJSXSXh5VJteE89MMbp9YD99uCS-qnX9Va7m00]--></g></svg>