<svg xmlns="http://www.w3.org/2000/svg" xmlns:xlink="http://www.w3.org/1999/xlink" contentStyleType="text/css" height="475px" preserveAspectRatio="none" style="width:793px;height:475px;background:#FFFFFF;" version="1.1" viewBox="0 0 793 475" width="793px" zoomAndPan="magnify"><defs/><g><rect fill="#F1F1F1" height="81.9531" rx="5" ry="5" style="stroke:#F1F1F1;stroke-width:1.5;" width="285" x="10" y="164.5"/><text fill="#000000" font-family="sans-serif" font-size="14" font-weight="bold" lengthAdjust="spacing" textLength="101" x="15" y="180.0352">protokollnavn</text><text fill="#000000" font-family="sans-serif" font-size="14" lengthAdjust="spacing" textLength="99" x="126" y="180.0352">no.ks.fiks.plan</text><line style="stroke:#000000;stroke-width:1.0;" x1="121" x2="121" y1="164.5" y2="184.9883"/><line style="stroke:#000000;stroke-width:1.0;" x1="10" x2="295" y1="184.9883" y2="184.9883"/><text fill="#000000" font-family="sans-serif" font-size="14" font-weight="bold" lengthAdjust="spacing" textLength="34" x="15" y="200.5234">navn</text><text fill="#000000" font-family="sans-serif" font-size="14" lengthAdjust="spacing" textLength="164" x="126" y="200.5234">dispensasjonFraLovverk</text><line style="stroke:#000000;stroke-width:1.0;" x1="121" x2="121" y1="184.9883" y2="205.4766"/><line style="stroke:#000000;stroke-width:1.0;" x1="10" x2="295" y1="205.4766" y2="205.4766"/><text fill="#000000" font-family="sans-serif" font-size="14" font-weight="bold" lengthAdjust="spacing" textLength="53" x="15" y="221.0117">versjon</text><text fill="#000000" font-family="sans-serif" font-size="14" lengthAdjust="spacing" textLength="16" x="126" y="221.0117">v2</text><line style="stroke:#000000;stroke-width:1.0;" x1="121" x2="121" y1="205.4766" y2="225.9648"/><line style="stroke:#000000;stroke-width:1.0;" x1="10" x2="295" y1="225.9648" y2="225.9648"/><text fill="#000000" font-family="sans-serif" font-size="14" font-weight="bold" lengthAdjust="spacing" textLength="67" x="15" y="241.5">kodeliste</text><text fill="#000000" font-family="sans-serif" font-size="14" lengthAdjust="spacing" textLength="12" x="126" y="241.5">&#160;&#160;&#160;</text><line style="stroke:#000000;stroke-width:1.0;" x1="121" x2="121" y1="225.9648" y2="246.4531"/><rect fill="none" height="81.9531" rx="5" ry="5" style="stroke:#000000;stroke-width:1.5;" width="285" x="10" y="164.5"/><rect fill="#F1F1F1" height="163.9063" rx="5" ry="5" style="stroke:#F1F1F1;stroke-width:1.5;" width="22" x="332" y="154.5"/><text fill="#000000" font-family="sans-serif" font-size="14" lengthAdjust="spacing" textLength="12" x="337" y="170.0352">&#160;&#160;&#160;</text><line style="stroke:#000000;stroke-width:1.0;" x1="332" x2="354" y1="174.9883" y2="174.9883"/><text fill="#000000" font-family="sans-serif" font-size="14" lengthAdjust="spacing" textLength="12" x="337" y="190.5234">&#160;&#160;&#160;</text><line style="stroke:#000000;stroke-width:1.0;" x1="332" x2="354" y1="195.4766" y2="195.4766"/><text fill="#000000" font-family="sans-serif" font-size="14" lengthAdjust="spacing" textLength="12" x="337" y="211.0117">&#160;&#160;&#160;</text><line style="stroke:#000000;stroke-width:1.0;" x1="332" x2="354" y1="215.9648" y2="215.9648"/><text fill="#000000" font-family="sans-serif" font-size="14" lengthAdjust="spacing" textLength="12" x="337" y="231.5">&#160;&#160;&#160;</text><line style="stroke:#000000;stroke-width:1.0;" x1="332" x2="354" y1="236.4531" y2="236.4531"/><text fill="#000000" font-family="sans-serif" font-size="14" lengthAdjust="spacing" textLength="12" x="337" y="251.9883">&#160;&#160;&#160;</text><line style="stroke:#000000;stroke-width:1.0;" x1="332" x2="354" y1="256.9414" y2="256.9414"/><text fill="#000000" font-family="sans-serif" font-size="14" lengthAdjust="spacing" textLength="12" x="337" y="272.4766">&#160;&#160;&#160;</text><line style="stroke:#000000;stroke-width:1.0;" x1="332" x2="354" y1="277.4297" y2="277.4297"/><text fill="#000000" font-family="sans-serif" font-size="14" lengthAdjust="spacing" textLength="12" x="337" y="292.9648">&#160;&#160;&#160;</text><line style="stroke:#000000;stroke-width:1.0;" x1="332" x2="354" y1="297.918" y2="297.918"/><text fill="#000000" font-family="sans-serif" font-size="14" lengthAdjust="spacing" textLength="12" x="337" y="313.4531">&#160;&#160;&#160;</text><rect fill="none" height="163.9063" rx="5" ry="5" style="stroke:#000000;stroke-width:1.5;" width="22" x="332" y="154.5"/><rect fill="#F1F1F1" height="40.9766" rx="5" ry="5" style="stroke:#F1F1F1;stroke-width:1.5;" width="390" x="391" y="10"/><text fill="#000000" font-family="sans-serif" font-size="14" font-weight="bold" lengthAdjust="spacing" textLength="71" x="396" y="25.5352">kodeverdi</text><text fill="#000000" font-family="sans-serif" font-size="14" lengthAdjust="spacing" textLength="23" x="523" y="25.5352">PBL</text><line style="stroke:#000000;stroke-width:1.0;" x1="518" x2="518" y1="10" y2="30.4883"/><line style="stroke:#000000;stroke-width:1.0;" x1="391" x2="781" y1="30.4883" y2="30.4883"/><text fill="#000000" font-family="sans-serif" font-size="14" font-weight="bold" lengthAdjust="spacing" textLength="117" x="396" y="46.0234">kodebeskrivelse</text><text fill="#000000" font-family="sans-serif" font-size="14" lengthAdjust="spacing" textLength="253" x="523" y="46.0234">Plan- og bygningslov med forskrifter</text><line style="stroke:#000000;stroke-width:1.0;" x1="518" x2="518" y1="30.4883" y2="50.9766"/><rect fill="none" height="40.9766" rx="5" ry="5" style="stroke:#000000;stroke-width:1.5;" width="390" x="391" y="10"/><rect fill="#F1F1F1" height="40.9766" rx="5" ry="5" style="stroke:#F1F1F1;stroke-width:1.5;" width="387" x="392.5" y="69"/><text fill="#000000" font-family="sans-serif" font-size="14" font-weight="bold" lengthAdjust="spacing" textLength="71" x="397.5" y="84.5352">kodeverdi</text><text fill="#000000" font-family="sans-serif" font-size="14" lengthAdjust="spacing" textLength="26" x="524.5" y="84.5352">TEK</text><line style="stroke:#000000;stroke-width:1.0;" x1="519.5" x2="519.5" y1="69" y2="89.4883"/><line style="stroke:#000000;stroke-width:1.0;" x1="392.5" x2="779.5" y1="89.4883" y2="89.4883"/><text fill="#000000" font-family="sans-serif" font-size="14" font-weight="bold" lengthAdjust="spacing" textLength="117" x="397.5" y="105.0234">kodebeskrivelse</text><text fill="#000000" font-family="sans-serif" font-size="14" lengthAdjust="spacing" textLength="250" x="524.5" y="105.0234">Byggteknisk forskrift med veiledning</text><line style="stroke:#000000;stroke-width:1.0;" x1="519.5" x2="519.5" y1="89.4883" y2="109.9766"/><rect fill="none" height="40.9766" rx="5" ry="5" style="stroke:#000000;stroke-width:1.5;" width="387" x="392.5" y="69"/><rect fill="#F1F1F1" height="40.9766" rx="5" ry="5" style="stroke:#F1F1F1;stroke-width:1.5;" width="287" x="442.5" y="128"/><text fill="#000000" font-family="sans-serif" font-size="14" font-weight="bold" lengthAdjust="spacing" textLength="71" x="447.5" y="143.5352">kodeverdi</text><text fill="#000000" font-family="sans-serif" font-size="14" lengthAdjust="spacing" textLength="32" x="574.5" y="143.5352">KOM</text><line style="stroke:#000000;stroke-width:1.0;" x1="569.5" x2="569.5" y1="128" y2="148.4883"/><line style="stroke:#000000;stroke-width:1.0;" x1="442.5" x2="729.5" y1="148.4883" y2="148.4883"/><text fill="#000000" font-family="sans-serif" font-size="14" font-weight="bold" lengthAdjust="spacing" textLength="117" x="447.5" y="164.0234">kodebeskrivelse</text><text fill="#000000" font-family="sans-serif" font-size="14" lengthAdjust="spacing" textLength="150" x="574.5" y="164.0234">Kommunale vedtekter</text><line style="stroke:#000000;stroke-width:1.0;" x1="569.5" x2="569.5" y1="148.4883" y2="168.9766"/><rect fill="none" height="40.9766" rx="5" ry="5" style="stroke:#000000;stroke-width:1.5;" width="287" x="442.5" y="128"/><rect fill="#F1F1F1" height="40.9766" rx="5" ry="5" style="stroke:#F1F1F1;stroke-width:1.5;" width="217" x="477.5" y="187"/><text fill="#000000" font-family="sans-serif" font-size="14" font-weight="bold" lengthAdjust="spacing" textLength="71" x="482.5" y="202.5352">kodeverdi</text><text fill="#000000" font-family="sans-serif" font-size="14" lengthAdjust="spacing" textLength="35" x="609.5" y="202.5352">PLAN</text><line style="stroke:#000000;stroke-width:1.0;" x1="604.5" x2="604.5" y1="187" y2="207.4883"/><line style="stroke:#000000;stroke-width:1.0;" x1="477.5" x2="694.5" y1="207.4883" y2="207.4883"/><text fill="#000000" font-family="sans-serif" font-size="14" font-weight="bold" lengthAdjust="spacing" textLength="117" x="482.5" y="223.0234">kodebeskrivelse</text><text fill="#000000" font-family="sans-serif" font-size="14" lengthAdjust="spacing" textLength="80" x="609.5" y="223.0234">Arealplaner</text><line style="stroke:#000000;stroke-width:1.0;" x1="604.5" x2="604.5" y1="207.4883" y2="227.9766"/><rect fill="none" height="40.9766" rx="5" ry="5" style="stroke:#000000;stroke-width:1.5;" width="217" x="477.5" y="187"/><rect fill="#F1F1F1" height="40.9766" rx="5" ry="5" style="stroke:#F1F1F1;stroke-width:1.5;" width="200" x="486" y="246"/><text fill="#000000" font-family="sans-serif" font-size="14" font-weight="bold" lengthAdjust="spacing" textLength="71" x="491" y="261.5352">kodeverdi</text><text fill="#000000" font-family="sans-serif" font-size="14" lengthAdjust="spacing" textLength="27" x="618" y="261.5352">VEG</text><line style="stroke:#000000;stroke-width:1.0;" x1="613" x2="613" y1="246" y2="266.4883"/><line style="stroke:#000000;stroke-width:1.0;" x1="486" x2="686" y1="266.4883" y2="266.4883"/><text fill="#000000" font-family="sans-serif" font-size="14" font-weight="bold" lengthAdjust="spacing" textLength="117" x="491" y="282.0234">kodebeskrivelse</text><text fill="#000000" font-family="sans-serif" font-size="14" lengthAdjust="spacing" textLength="63" x="618" y="282.0234">Vegloven</text><line style="stroke:#000000;stroke-width:1.0;" x1="613" x2="613" y1="266.4883" y2="286.9766"/><rect fill="none" height="40.9766" rx="5" ry="5" style="stroke:#000000;stroke-width:1.5;" width="200" x="486" y="246"/><rect fill="#F1F1F1" height="40.9766" rx="5" ry="5" style="stroke:#F1F1F1;stroke-width:1.5;" width="185" x="493.5" y="305"/><text fill="#000000" font-family="sans-serif" font-size="14" font-weight="bold" lengthAdjust="spacing" textLength="71" x="498.5" y="320.5352">kodeverdi</text><text fill="#000000" font-family="sans-serif" font-size="14" lengthAdjust="spacing" textLength="34" x="625.5" y="320.5352">JORD</text><line style="stroke:#000000;stroke-width:1.0;" x1="620.5" x2="620.5" y1="305" y2="325.4883"/><line style="stroke:#000000;stroke-width:1.0;" x1="493.5" x2="678.5" y1="325.4883" y2="325.4883"/><text fill="#000000" font-family="sans-serif" font-size="14" font-weight="bold" lengthAdjust="spacing" textLength="117" x="498.5" y="341.0234">kodebeskrivelse</text><text fill="#000000" font-family="sans-serif" font-size="14" lengthAdjust="spacing" textLength="48" x="625.5" y="341.0234">Jordlov</text><line style="stroke:#000000;stroke-width:1.0;" x1="620.5" x2="620.5" y1="325.4883" y2="345.9766"/><rect fill="none" height="40.9766" rx="5" ry="5" style="stroke:#000000;stroke-width:1.5;" width="185" x="493.5" y="305"/><rect fill="#F1F1F1" height="40.9766" rx="5" ry="5" style="stroke:#F1F1F1;stroke-width:1.5;" width="244" x="464" y="364"/><text fill="#000000" font-family="sans-serif" font-size="14" font-weight="bold" lengthAdjust="spacing" textLength="71" x="469" y="379.5352">kodeverdi</text><text fill="#000000" font-family="sans-serif" font-size="14" lengthAdjust="spacing" textLength="27" x="596" y="379.5352">ARB</text><line style="stroke:#000000;stroke-width:1.0;" x1="591" x2="591" y1="364" y2="384.4883"/><line style="stroke:#000000;stroke-width:1.0;" x1="464" x2="708" y1="384.4883" y2="384.4883"/><text fill="#000000" font-family="sans-serif" font-size="14" font-weight="bold" lengthAdjust="spacing" textLength="117" x="469" y="400.0234">kodebeskrivelse</text><text fill="#000000" font-family="sans-serif" font-size="14" lengthAdjust="spacing" textLength="107" x="596" y="400.0234">Arbeidsmilj&#248;lov</text><line style="stroke:#000000;stroke-width:1.0;" x1="591" x2="591" y1="384.4883" y2="404.9766"/><rect fill="none" height="40.9766" rx="5" ry="5" style="stroke:#000000;stroke-width:1.5;" width="244" x="464" y="364"/><rect fill="#F1F1F1" height="40.9766" rx="5" ry="5" style="stroke:#F1F1F1;stroke-width:1.5;" width="257" x="457.5" y="423"/><text fill="#000000" font-family="sans-serif" font-size="14" font-weight="bold" lengthAdjust="spacing" textLength="71" x="462.5" y="438.5352">kodeverdi</text><text fill="#000000" font-family="sans-serif" font-size="14" lengthAdjust="spacing" textLength="38" x="589.5" y="438.5352">FORU</text><line style="stroke:#000000;stroke-width:1.0;" x1="584.5" x2="584.5" y1="423" y2="443.4883"/><line style="stroke:#000000;stroke-width:1.0;" x1="457.5" x2="714.5" y1="443.4883" y2="443.4883"/><text fill="#000000" font-family="sans-serif" font-size="14" font-weight="bold" lengthAdjust="spacing" textLength="117" x="462.5" y="459.0234">kodebeskrivelse</text><text fill="#000000" font-family="sans-serif" font-size="14" lengthAdjust="spacing" textLength="120" x="589.5" y="459.0234">Forurensningslov</text><line style="stroke:#000000;stroke-width:1.0;" x1="584.5" x2="584.5" y1="443.4883" y2="463.9766"/><rect fill="none" height="40.9766" rx="5" ry="5" style="stroke:#000000;stroke-width:1.5;" width="257" x="457.5" y="423"/><path d="M342,164.5 L355,164.5 C404.3333,164.5 353.0858,91.0641 391,59.5 C392.7219,58.0665 394.4833,56.6875 396.2811,55.361 " fill="none" style="stroke:#000000;stroke-width:1.0;stroke-dasharray:3.0,3.0;"/><path d="M398.0051,57.8602 L398.1555,54.068 L394.5571,52.8618 L402.5291,51.051 L398.0051,57.8602 " fill="#000000" style="stroke:#000000;stroke-width:1.0;"/><ellipse cx="342" cy="164.5" fill="#000000" rx="3" ry="3" style="stroke:#000000;stroke-width:1.0;"/><path d="M342,185.5 L355,185.5 C388.8041,185.5 363.3484,137.9449 391,118.5 C393.1643,116.978 395.3759,115.5216 397.6298,114.1282 " fill="none" style="stroke:#000000;stroke-width:1.0;stroke-dasharray:3.0,3.0;"/><path d="M399.2273,116.8818 L399.695,112.93 L396.0323,111.3746 L404.5138,110.1344 L399.2273,116.8818 " fill="#000000" style="stroke:#000000;stroke-width:1.0;"/><ellipse cx="342" cy="185.5" fill="#000000" rx="3" ry="3" style="stroke:#000000;stroke-width:1.0;"/><path d="M342,205.5 L355,205.5 C375,205.5 372.5653,186.2565 391,178.5 C405.0056,172.6071 420.0149,167.8563 435.2564,164.0286 " fill="none" style="stroke:#000000;stroke-width:1.0;stroke-dasharray:3.0,3.0;"/><path d="M435.9788,167.0276 L437.5057,163.4868 L434.5341,161.0295 L442.754,162.2227 L435.9788,167.0276 " fill="#000000" style="stroke:#000000;stroke-width:1.0;"/><ellipse cx="342" cy="205.5" fill="#000000" rx="3" ry="3" style="stroke:#000000;stroke-width:1.0;"/><path d="M342,226.5 L355,226.5 C392.4867,226.5 433.2871,223.9731 469.9987,220.7623 " fill="none" style="stroke:#000000;stroke-width:1.0;stroke-dasharray:3.0,3.0;"/><path d="M470.2767,223.87 L472.3295,220.5539 L469.7208,217.6547 L477.7679,220.0675 L470.2767,223.87 " fill="#000000" style="stroke:#000000;stroke-width:1.0;"/><ellipse cx="342" cy="226.5" fill="#000000" rx="3" ry="3" style="stroke:#000000;stroke-width:1.0;"/><path d="M342,246.5 L355,246.5 C395.4815,246.5 439.813,249.5996 478.6892,253.3584 " fill="none" style="stroke:#000000;stroke-width:1.0;stroke-dasharray:3.0,3.0;"/><path d="M478.3853,256.4383 L480.9992,253.5863 L478.9932,250.2785 L486.389,254.1182 L478.3853,256.4383 " fill="#000000" style="stroke:#000000;stroke-width:1.0;"/><ellipse cx="342" cy="246.5" fill="#000000" rx="3" ry="3" style="stroke:#000000;stroke-width:1.0;"/><path d="M342,267.5 L355,267.5 C375.5456,267.5 372.1823,288.2526 391,296.5 C420.5274,309.4413 454.7356,316.7812 486.1539,320.8912 " fill="none" style="stroke:#000000;stroke-width:1.0;stroke-dasharray:3.0,3.0;"/><path d="M485.7829,323.8906 L488.4034,321.1694 L486.5248,317.8917 L493.6525,321.8186 L485.7829,323.8906 " fill="#000000" style="stroke:#000000;stroke-width:1.0;"/><ellipse cx="342" cy="267.5" fill="#000000" rx="3" ry="3" style="stroke:#000000;stroke-width:1.0;"/><path d="M342,287.5 L355,287.5 C389.1962,287.5 363.0882,335.7436 391,355.5 C410.2988,369.16 433.3904,377.5516 456.8102,382.5256 " fill="none" style="stroke:#000000;stroke-width:1.0;stroke-dasharray:3.0,3.0;"/><path d="M456.2114,385.57 L459.0935,382.9747 L457.4091,379.4812 L464.4212,384.0227 L456.2114,385.57 " fill="#000000" style="stroke:#000000;stroke-width:1.0;"/><ellipse cx="342" cy="287.5" fill="#000000" rx="3" ry="3" style="stroke:#000000;stroke-width:1.0;"/><path d="M342,308.5 L355,308.5 C404.754,308.5 352.8087,382.6114 391,414.5 C408.0112,428.7038 428.9007,437.569 450.6082,442.8898 " fill="none" style="stroke:#000000;stroke-width:1.0;stroke-dasharray:3.0,3.0;"/><path d="M449.9397,445.8452 L452.8248,443.3911 L451.2766,439.9343 L457.9968,444.5609 L449.9397,445.8452 " fill="#000000" style="stroke:#000000;stroke-width:1.0;"/><ellipse cx="342" cy="308.5" fill="#000000" rx="3" ry="3" style="stroke:#000000;stroke-width:1.0;"/><path d="M283,236.5 L296,236.5 C305.4213,236.5 315.9164,236.5 324.5483,236.5 " fill="none" style="stroke:#000000;stroke-width:1.0;stroke-dasharray:3.0,3.0;"/><path d="M324.5483,239.5437 L326.8311,236.5 L324.5483,233.4563 L332.1575,236.5 L324.5483,239.5437 " fill="#000000" style="stroke:#000000;stroke-width:1.0;"/><ellipse cx="283" cy="236.5" fill="#000000" rx="3" ry="3" style="stroke:#000000;stroke-width:1.0;"/><!--SRC=[ZPFFRk8m4CRlVefHJgrKK46bgd8g5AWKGa7ykwnwCCqGcJXZP3kHKDNtslk-s4v2sTwokLZHp3U_p-FCF3ilhJywG-9J00GdQxp9ZDOaImf22CXqCzSzA3vEMb9mLwckoKIv4vAJxcXeQcLioX9jTj7mLnMkP6N_4ifCWbevZnpynG60p_hyJd55eWBWWkKehYl-fVReCgjAr0ul0hvA1qmA-tDAYbAdJGav9d0mjb8UFDgW1dpTDHbj9hDcez4vJJrcf5psmwwTIbGQaygyZT5iCMyscfayBqXgP732ZYqRMCR3jsRmqABKrQzh1znDNfjvEqpviP7QmAB5QjnCYunD6DS6DboD_jVf7bNYSgMFVtwtX4uNgsqpTMfiONd8hsFsJUNpNNo9PwIatXvHZQJVpcEe1byPWbwtVzz_w0vkrWN1N9wX_mYzNjWRX8CdU9ciDr3bRyNDwp86PmhxWS0BvQtQ5vu1joAIfOHLGLxb6CA2LoqQpwu1c52fhA4SoOjeD_yHF3vqHih36YrV1NPpCSQ3BBJdYW-JS1iXR3VJpfE89QM5J9cD95uCS-qvXBV5Nm00]--></g></svg>