<?xml version="1.0" encoding="us-ascii" standalone="no"?><svg xmlns="http://www.w3.org/2000/svg" xmlns:xlink="http://www.w3.org/1999/xlink" contentStyleType="text/css" height="252px" preserveAspectRatio="none" style="width:298px;height:252px;background:#FFFFFF;" version="1.1" viewBox="0 0 298 252" width="298px" zoomAndPan="magnify"><defs/><g><!--class Posisjon--><g id="elem_Posisjon"><rect codeLine="1" fill="#F1F1F1" height="97.4648" id="Posisjon" rx="2.5" ry="2.5" style="stroke:#181818;stroke-width:0.5;" width="183" x="87.5" y="7"/><ellipse cx="146.25" cy="23" fill="#ADD1B2" rx="11" ry="11" style="stroke:#181818;stroke-width:1.0;"/><path d="M148.7231,29.1431 Q148.1421,29.4419 147.5029,29.5913 Q146.8638,29.7407 146.1582,29.7407 Q143.6514,29.7407 142.3315,28.0889 Q141.0117,26.437 141.0117,23.3159 Q141.0117,20.1865 142.3315,18.5347 Q143.6514,16.8828 146.1582,16.8828 Q146.8638,16.8828 147.5112,17.0322 Q148.1587,17.1816 148.7231,17.4805 L148.7231,20.2031 Q148.0923,19.6221 147.4988,19.3523 Q146.9053,19.0825 146.2744,19.0825 Q144.9297,19.0825 144.2449,20.1492 Q143.5601,21.2158 143.5601,23.3159 Q143.5601,25.4077 144.2449,26.4744 Q144.9297,27.541 146.2744,27.541 Q146.9053,27.541 147.4988,27.2712 Q148.0923,27.0015 148.7231,26.4204 Z " fill="#000000"/><text fill="#000000" font-family="sans-serif" font-size="14" lengthAdjust="spacing" textLength="57" x="166.75" y="28.291">Posisjon</text><line style="stroke:#181818;stroke-width:0.5;" x1="88.5" x2="269.5" y1="39" y2="39"/><ellipse cx="98.5" cy="52.7441" fill="none" rx="3" ry="3" style="stroke:#038048;stroke-width:1.0;"/><text fill="#000000" font-family="sans-serif" font-size="14" lengthAdjust="spacing" textLength="70" x="107.5" y="56.5352">type: Type</text><ellipse cx="98.5" cy="69.2324" fill="none" rx="3" ry="3" style="stroke:#038048;stroke-width:1.0;"/><text fill="#000000" font-family="sans-serif" font-size="14" lengthAdjust="spacing" textLength="153" x="107.5" y="73.0234">koordinater: number[]</text><ellipse cx="98.5" cy="85.7207" fill="none" rx="3" ry="3" style="stroke:#038048;stroke-width:1.0;"/><text fill="#000000" font-family="sans-serif" font-size="14" lengthAdjust="spacing" textLength="157" x="107.5" y="89.5117">koordinatsystem: Kode</text><line style="stroke:#181818;stroke-width:0.5;" x1="88.5" x2="269.5" y1="96.4648" y2="96.4648"/></g><!--class Kode--><g id="elem_Kode"><rect codeLine="10" fill="#F1F1F1" height="80.9766" id="Kode" rx="2.5" ry="2.5" style="stroke:#181818;stroke-width:0.5;" width="184" x="7" y="164.46"/><ellipse cx="77.25" cy="180.46" fill="#ADD1B2" rx="11" ry="11" style="stroke:#181818;stroke-width:1.0;"/><path d="M79.7231,186.6031 Q79.1421,186.9019 78.5029,187.0513 Q77.8638,187.2007 77.1582,187.2007 Q74.6514,187.2007 73.3315,185.5489 Q72.0117,183.897 72.0117,180.7759 Q72.0117,177.6465 73.3315,175.9947 Q74.6514,174.3428 77.1582,174.3428 Q77.8638,174.3428 78.5112,174.4922 Q79.1587,174.6416 79.7231,174.9405 L79.7231,177.6631 Q79.0923,177.0821 78.4988,176.8123 Q77.9053,176.5425 77.2744,176.5425 Q75.9297,176.5425 75.2449,177.6092 Q74.5601,178.6758 74.5601,180.7759 Q74.5601,182.8677 75.2449,183.9344 Q75.9297,185.001 77.2744,185.001 Q77.9053,185.001 78.4988,184.7312 Q79.0923,184.4615 79.7231,183.8804 Z " fill="#000000"/><text fill="#000000" font-family="sans-serif" font-size="14" lengthAdjust="spacing" textLength="35" x="97.75" y="185.751">Kode</text><line style="stroke:#181818;stroke-width:0.5;" x1="8" x2="190" y1="196.46" y2="196.46"/><ellipse cx="18" cy="210.2041" fill="none" rx="3" ry="3" style="stroke:#038048;stroke-width:1.0;"/><text fill="#000000" font-family="sans-serif" font-size="14" lengthAdjust="spacing" textLength="116" x="27" y="213.9952">kodeverdi: string</text><ellipse cx="18" cy="226.6924" fill="none" rx="3" ry="3" style="stroke:#038048;stroke-width:1.0;"/><text fill="#000000" font-family="sans-serif" font-size="14" lengthAdjust="spacing" textLength="158" x="27" y="230.4834">kodebeskrivelse: string</text><line style="stroke:#181818;stroke-width:0.5;" x1="8" x2="190" y1="237.4366" y2="237.4366"/></g><!--class Type--><g id="elem_Type"><rect codeLine="15" fill="#F1F1F1" height="64.4883" id="Type" rx="2.5" ry="2.5" style="stroke:#181818;stroke-width:0.5;" width="65" x="226.5" y="172.71"/><ellipse cx="241.5" cy="188.71" fill="#EB937F" rx="11" ry="11" style="stroke:#181818;stroke-width:1.0;"/><path d="M245.1143,195.21 L237.3945,195.21 L237.3945,182.8169 L245.1143,182.8169 L245.1143,184.9751 L239.8433,184.9751 L239.8433,187.648 L244.6162,187.648 L244.6162,189.8062 L239.8433,189.8062 L239.8433,193.0518 L245.1143,193.0518 Z " fill="#000000"/><text fill="#000000" font-family="sans-serif" font-size="14" lengthAdjust="spacing" textLength="33" x="255.5" y="194.001">Type</text><line style="stroke:#181818;stroke-width:0.5;" x1="227.5" x2="290.5" y1="204.71" y2="204.71"/><text fill="#000000" font-family="sans-serif" font-size="14" lengthAdjust="spacing" textLength="35" x="232.5" y="222.2452">Point</text><line style="stroke:#181818;stroke-width:0.5;" x1="227.5" x2="290.5" y1="229.1983" y2="229.1983"/></g><!--link Posisjon to Kode--><g id="link_Posisjon_Kode"><path codeLine="7" d="M152.81,104.94 C142.42,124.06 130.61,145.78 120.71,164 " fill="none" id="Posisjon-Kode" style="stroke:#181818;stroke-width:1.0;"/></g><!--link Posisjon to Type--><g id="link_Posisjon_Type"><path codeLine="8" d="M205.2,104.94 C217.23,127.08 231.15,152.71 241.83,172.35 " fill="none" id="Posisjon-Type" style="stroke:#181818;stroke-width:1.0;"/></g><!--SRC=[NOuz3i8m34Ptdy8xwWLo1POEtH13VopafesH7IfLYBjZKYY839RzFUbzwQVM36injb4ItW7z7V9wfO2Dp-sE8ZfmQZDfm7IREzBJ-G_PQfdcW4SP21u0kxEgjkmtA6heI_aBVegZxmkvCA1bvNJvnXrPL5veCjgXrv1_f-ZUYbeuPGTF]--></g></svg>