<svg xmlns="http://www.w3.org/2000/svg" xmlns:xlink="http://www.w3.org/1999/xlink" contentStyleType="text/css" height="478px" preserveAspectRatio="none" style="width:563px;height:478px;background:#FFFFFF;" version="1.1" viewBox="0 0 563 478" width="563px" zoomAndPan="magnify"><defs/><g><rect fill="none" height="343.2383" style="stroke:#000000;stroke-width:1.5;" width="546" x="10" y="82.7988"/><line style="stroke:#181818;stroke-width:0.5;stroke-dasharray:5.0,5.0;" x1="63" x2="63" y1="36.4883" y2="100.1094"/><line style="stroke:#A80036;stroke-width:1.0;stroke-dasharray:1.0,4.0;" x1="63" x2="63" y1="100.1094" y2="141.0645"/><line style="stroke:#181818;stroke-width:0.5;stroke-dasharray:5.0,5.0;" x1="63" x2="63" y1="141.0645" y2="185.3301"/><line style="stroke:#A80036;stroke-width:1.0;stroke-dasharray:1.0,4.0;" x1="63" x2="63" y1="185.3301" y2="226.2852"/><line style="stroke:#181818;stroke-width:0.5;stroke-dasharray:5.0,5.0;" x1="63" x2="63" y1="226.2852" y2="270.5508"/><line style="stroke:#A80036;stroke-width:1.0;stroke-dasharray:1.0,4.0;" x1="63" x2="63" y1="270.5508" y2="311.5059"/><line style="stroke:#181818;stroke-width:0.5;stroke-dasharray:5.0,5.0;" x1="63" x2="63" y1="311.5059" y2="355.7715"/><line style="stroke:#A80036;stroke-width:1.0;stroke-dasharray:1.0,4.0;" x1="63" x2="63" y1="355.7715" y2="396.7266"/><line style="stroke:#181818;stroke-width:0.5;stroke-dasharray:5.0,5.0;" x1="63" x2="63" y1="396.7266" y2="443.0371"/><line style="stroke:#181818;stroke-width:0.5;stroke-dasharray:5.0,5.0;" x1="498" x2="498" y1="36.4883" y2="100.1094"/><line style="stroke:#A80036;stroke-width:1.0;stroke-dasharray:1.0,4.0;" x1="498" x2="498" y1="100.1094" y2="141.0645"/><line style="stroke:#181818;stroke-width:0.5;stroke-dasharray:5.0,5.0;" x1="498" x2="498" y1="141.0645" y2="185.3301"/><line style="stroke:#A80036;stroke-width:1.0;stroke-dasharray:1.0,4.0;" x1="498" x2="498" y1="185.3301" y2="226.2852"/><line style="stroke:#181818;stroke-width:0.5;stroke-dasharray:5.0,5.0;" x1="498" x2="498" y1="226.2852" y2="270.5508"/><line style="stroke:#A80036;stroke-width:1.0;stroke-dasharray:1.0,4.0;" x1="498" x2="498" y1="270.5508" y2="311.5059"/><line style="stroke:#181818;stroke-width:0.5;stroke-dasharray:5.0,5.0;" x1="498" x2="498" y1="311.5059" y2="355.7715"/><line style="stroke:#A80036;stroke-width:1.0;stroke-dasharray:1.0,4.0;" x1="498" x2="498" y1="355.7715" y2="396.7266"/><line style="stroke:#181818;stroke-width:0.5;stroke-dasharray:5.0,5.0;" x1="498" x2="498" y1="396.7266" y2="443.0371"/><rect fill="#E2E2F0" height="30.4883" rx="2.5" ry="2.5" style="stroke:#181818;stroke-width:0.5;" width="86" x="20" y="5"/><text fill="#000000" font-family="sans-serif" font-size="14" lengthAdjust="spacing" textLength="72" x="27" y="25.5352">Fagsystem</text><rect fill="#E2E2F0" height="30.4883" rx="2.5" ry="2.5" style="stroke:#181818;stroke-width:0.5;" width="86" x="20" y="442.0371"/><text fill="#000000" font-family="sans-serif" font-size="14" lengthAdjust="spacing" textLength="72" x="27" y="462.5723">Fagsystem</text><rect fill="#E2E2F0" height="30.4883" rx="2.5" ry="2.5" style="stroke:#181818;stroke-width:0.5;" width="96" x="450" y="5"/><text fill="#000000" font-family="sans-serif" font-size="14" lengthAdjust="spacing" textLength="82" x="457" y="25.5352">Planregister</text><rect fill="#E2E2F0" height="30.4883" rx="2.5" ry="2.5" style="stroke:#181818;stroke-width:0.5;" width="96" x="450" y="442.0371"/><text fill="#000000" font-family="sans-serif" font-size="14" lengthAdjust="spacing" textLength="82" x="457" y="462.5723">Planregister</text><polygon fill="#181818" points="486,63.7988,496,67.7988,486,71.7988,490,67.7988" style="stroke:#181818;stroke-width:1.0;"/><line style="stroke:#181818;stroke-width:1.0;" x1="63" x2="492" y1="67.7988" y2="67.7988"/><text fill="#000000" font-family="sans-serif" font-size="13" lengthAdjust="spacing" textLength="359" x="70" y="63.0566">no.ks.fiks.plan.v2.innsyn.gjeldendeplandokumenter.hent</text><path d="M10,82.7988 L72,82.7988 L72,90.1094 L62,100.1094 L10,100.1094 L10,82.7988 " fill="#EEEEEE" style="stroke:#000000;stroke-width:1.5;"/><rect fill="none" height="343.2383" style="stroke:#000000;stroke-width:1.5;" width="546" x="10" y="82.7988"/><text fill="#000000" font-family="sans-serif" font-size="13" font-weight="bold" lengthAdjust="spacing" textLength="17" x="25" y="96.3672">alt</text><text fill="#000000" font-family="sans-serif" font-size="11" font-weight="bold" lengthAdjust="spacing" textLength="201" x="87" y="95.4336">[Hent gjeldendeplandokumenter ok]</text><text fill="#000000" font-family="sans-serif" font-size="11" lengthAdjust="spacing" textLength="160" x="200.5" y="124.7441">resultat-melding med innhold</text><polygon fill="#181818" points="74,158.375,64,162.375,74,166.375,70,162.375" style="stroke:#181818;stroke-width:1.0;"/><line style="stroke:#181818;stroke-width:1.0;" x1="68" x2="497" y1="162.375" y2="162.375"/><text fill="#000000" font-family="sans-serif" font-size="13" lengthAdjust="spacing" textLength="411" x="80" y="157.6328">no.ks.fiks.plan.v2.innsyn.gjeldendeplandokumenter.hent.resultat</text><line style="stroke:#000000;stroke-width:1.0;stroke-dasharray:2.0,2.0;" x1="10" x2="556" y1="171.375" y2="171.375"/><text fill="#000000" font-family="sans-serif" font-size="11" font-weight="bold" lengthAdjust="spacing" textLength="212" x="15" y="182.0098">[Feil: planregister fant ikke noe p&#229; id]</text><text fill="#000000" font-family="sans-serif" font-size="11" lengthAdjust="spacing" textLength="135" x="213" y="209.9648">feil-melding med innhold</text><polygon fill="#181818" points="74,243.5957,64,247.5957,74,251.5957,70,247.5957" style="stroke:#181818;stroke-width:1.0;"/><line style="stroke:#181818;stroke-width:1.0;" x1="68" x2="497" y1="247.5957" y2="247.5957"/><text fill="#000000" font-family="sans-serif" font-size="13" lengthAdjust="spacing" textLength="260" x="80" y="242.8535">no.ks.fiks.plan.v2.feilmelding.ikkefunnet</text><line style="stroke:#000000;stroke-width:1.0;stroke-dasharray:2.0,2.0;" x1="10" x2="556" y1="256.5957" y2="256.5957"/><text fill="#000000" font-family="sans-serif" font-size="11" font-weight="bold" lengthAdjust="spacing" textLength="220" x="15" y="267.2305">[Feil: hent-meldingen var ikke korrekt]</text><text fill="#000000" font-family="sans-serif" font-size="11" lengthAdjust="spacing" textLength="135" x="213" y="295.1855">feil-melding med innhold</text><polygon fill="#181818" points="74,328.8164,64,332.8164,74,336.8164,70,332.8164" style="stroke:#181818;stroke-width:1.0;"/><line style="stroke:#181818;stroke-width:1.0;" x1="68" x2="497" y1="332.8164" y2="332.8164"/><text fill="#000000" font-family="sans-serif" font-size="13" lengthAdjust="spacing" textLength="317" x="80" y="328.0742">no.ks.fiks.plan.v2.feilmelding.ugyldigforespoersel</text><line style="stroke:#000000;stroke-width:1.0;stroke-dasharray:2.0,2.0;" x1="10" x2="556" y1="341.8164" y2="341.8164"/><text fill="#000000" font-family="sans-serif" font-size="11" font-weight="bold" lengthAdjust="spacing" textLength="187" x="15" y="352.4512">[Feil: planregister fikk serverfeil]</text><text fill="#000000" font-family="sans-serif" font-size="11" lengthAdjust="spacing" textLength="135" x="213" y="380.4063">feil-melding med innhold</text><polygon fill="#181818" points="74,414.0371,64,418.0371,74,422.0371,70,418.0371" style="stroke:#181818;stroke-width:1.0;"/><line style="stroke:#181818;stroke-width:1.0;" x1="68" x2="497" y1="418.0371" y2="418.0371"/><text fill="#000000" font-family="sans-serif" font-size="13" lengthAdjust="spacing" textLength="250" x="80" y="413.2949">no.ks.fiks.plan.v2.feilmelding.serverfeil</text><!--SRC=[jP4nRWGX34LxJk4BZ8kKgoZbA6MkWCI79J1c1Cn8Sw0zIIuMeoIhJP5KkmqO_Fd_oSmsjADrB3Izq5ksKX6Ydkk9f71gxACkgpPuV-8eqWxXy8xi80xZtfMqBH1zmcVTZB6vqwjMz8UCIZBCND6st6sV5bL52RJ0aGQSItRQDcQ-eZrFTq6xHXg3t40pOZxHUkDCtYftJ0aQ0Le_BXJTWFKglHFeiFfsuf7aDn7yHXgmFsaGsctzOagbLgJ-GA0j75e4NtHKQq5joFyCIw6eeUwem-E1M3SXHZ_t4m00]--></g></svg>