<svg xmlns="http://www.w3.org/2000/svg" xmlns:xlink="http://www.w3.org/1999/xlink" contentStyleType="text/css" data-diagram-type="CLASS" height="310px" preserveAspectRatio="none" style="width:1113px;height:310px;background:#FFFFFF;" version="1.1" viewBox="0 0 1113 310" width="1113px" zoomAndPan="magnify"><defs/><g><!--class Saksnummer--><g class="entity" data-entity="Saksnummer" data-source-line="2" data-uid="ent0002" id="entity_Saksnummer"><rect fill="#F1F1F1" height="80.9766" rx="2.5" ry="2.5" style="stroke:#181818;stroke-width:0.5;" width="224.1123" x="7" y="218.24"/><ellipse cx="70.9878" cy="234.24" fill="#ADD1B2" rx="11" ry="11" style="stroke:#181818;stroke-width:1;"/><path d="M73.4609,240.3831 Q72.8799,240.6819 72.2407,240.8313 Q71.6016,240.9807 70.896,240.9807 Q68.3892,240.9807 67.0693,239.3289 Q65.7495,237.677 65.7495,234.5559 Q65.7495,231.4265 67.0693,229.7747 Q68.3892,228.1228 70.896,228.1228 Q71.6016,228.1228 72.249,228.2722 Q72.8965,228.4216 73.4609,228.7205 L73.4609,231.4431 Q72.8301,230.8621 72.2366,230.5923 Q71.6431,230.3225 71.0122,230.3225 Q69.6675,230.3225 68.9827,231.3892 Q68.2979,232.4558 68.2979,234.5559 Q68.2979,236.6477 68.9827,237.7144 Q69.6675,238.781 71.0122,238.781 Q71.6431,238.781 72.2366,238.5112 Q72.8301,238.2415 73.4609,237.6604 Z " fill="#000000"/><text fill="#000000" font-family="sans-serif" font-size="14" lengthAdjust="spacing" textLength="87.6367" x="91.4878" y="239.531">Saksnummer</text><line style="stroke:#181818;stroke-width:0.5;" x1="8" x2="230.1123" y1="250.24" y2="250.24"/><ellipse cx="18" cy="263.9841" fill="none" rx="3" ry="3" style="stroke:#038048;stroke-width:1;"/><text fill="#000000" font-family="sans-serif" font-size="14" lengthAdjust="spacing" textLength="108.2676" x="27" y="267.7752">saksaar: integer</text><ellipse cx="18" cy="280.4724" fill="none" rx="3" ry="3" style="stroke:#038048;stroke-width:1;"/><text fill="#000000" font-family="sans-serif" font-size="14" lengthAdjust="spacing" textLength="198.1123" x="27" y="284.2634">sakssekvensnummer: integer</text><line style="stroke:#181818;stroke-width:0.5;" x1="8" x2="230.1123" y1="291.2166" y2="291.2166"/></g><!--class OpprettArealplan--><g class="entity" data-entity="OpprettArealplan" data-source-line="3" data-uid="ent0003" id="entity_OpprettArealplan"><rect fill="#F1F1F1" height="146.9297" rx="2.5" ry="2.5" style="stroke:#181818;stroke-width:0.5;" width="269.4824" x="442.31" y="7"/><ellipse cx="514.4291" cy="23" fill="#ADD1B2" rx="11" ry="11" style="stroke:#181818;stroke-width:1;"/><path d="M516.9023,29.1431 Q516.3212,29.4419 515.6821,29.5913 Q515.0429,29.7407 514.3373,29.7407 Q511.8305,29.7407 510.5107,28.0889 Q509.1909,26.437 509.1909,23.3159 Q509.1909,20.1865 510.5107,18.5347 Q511.8305,16.8828 514.3373,16.8828 Q515.0429,16.8828 515.6904,17.0322 Q516.3378,17.1816 516.9023,17.4805 L516.9023,20.2031 Q516.2714,19.6221 515.6779,19.3523 Q515.0844,19.0825 514.4536,19.0825 Q513.1088,19.0825 512.424,20.1492 Q511.7392,21.2158 511.7392,23.3159 Q511.7392,25.4077 512.424,26.4744 Q513.1088,27.541 514.4536,27.541 Q515.0844,27.541 515.6779,27.2712 Q516.2714,27.0015 516.9023,26.4204 Z " fill="#000000"/><text fill="#000000" font-family="sans-serif" font-size="14" lengthAdjust="spacing" textLength="116.7441" x="534.9291" y="28.291">OpprettArealplan</text><line style="stroke:#181818;stroke-width:0.5;" x1="443.31" x2="710.7924" y1="39" y2="39"/><ellipse cx="453.31" cy="52.7441" fill="none" rx="3" ry="3" style="stroke:#038048;stroke-width:1;"/><text fill="#000000" font-family="sans-serif" font-size="14" lengthAdjust="spacing" textLength="110.0586" x="462.31" y="56.5352">plannavn: string</text><ellipse cx="453.31" cy="69.2324" fill="none" rx="3" ry="3" style="stroke:#038048;stroke-width:1;"/><text fill="#000000" font-family="sans-serif" font-size="14" lengthAdjust="spacing" textLength="124.667" x="462.31" y="73.0234">plantype: Plantype</text><ellipse cx="453.31" cy="85.7207" fill="none" rx="3" ry="3" style="stroke:#038048;stroke-width:1;"/><text fill="#000000" font-family="sans-serif" font-size="14" lengthAdjust="spacing" textLength="148.6748" x="462.31" y="89.5117">planstatus: Planstatus</text><ellipse cx="453.31" cy="102.209" fill="none" rx="3" ry="3" style="stroke:#038048;stroke-width:1;"/><text fill="#000000" font-family="sans-serif" font-size="14" lengthAdjust="spacing" textLength="179.1836" x="462.31" y="106">lovreferanse: Lovreferanse</text><ellipse cx="453.31" cy="118.6973" fill="none" rx="3" ry="3" style="stroke:#038048;stroke-width:1;"/><text fill="#000000" font-family="sans-serif" font-size="14" lengthAdjust="spacing" textLength="183.7295" x="462.31" y="122.4883">saksnummer: Saksnummer</text><ellipse cx="453.31" cy="135.1855" fill="none" rx="3" ry="3" style="stroke:#038048;stroke-width:1;"/><text fill="#000000" font-family="sans-serif" font-size="14" lengthAdjust="spacing" textLength="243.4824" x="462.31" y="138.9766">forslagstillertype: ForslagstillerType</text><line style="stroke:#181818;stroke-width:0.5;" x1="443.31" x2="710.7924" y1="145.9297" y2="145.9297"/></g><!--class Plantype--><g class="entity" data-entity="Plantype" data-source-line="12" data-uid="ent0004" id="entity_Plantype"><rect fill="#F1F1F1" height="89.5977" rx="2.5" ry="2.5" style="stroke:#181818;stroke-width:0.5;" width="183.5547" x="266.28" y="213.93"/><ellipse cx="325.1238" cy="234.2405" fill="#ADD1B2" rx="11" ry="11" style="stroke:#181818;stroke-width:1;"/><path d="M327.5969,240.3836 Q327.0158,240.6824 326.3767,240.8319 Q325.7375,240.9813 325.032,240.9813 Q322.5251,240.9813 321.2053,239.3294 Q319.8855,237.6776 319.8855,234.5565 Q319.8855,231.4271 321.2053,229.7752 Q322.5251,228.1234 325.032,228.1234 Q325.7375,228.1234 326.385,228.2728 Q327.0324,228.4222 327.5969,228.721 L327.5969,231.4437 Q326.966,230.8626 326.3725,230.5928 Q325.779,230.3231 325.1482,230.3231 Q323.8034,230.3231 323.1186,231.3897 Q322.4338,232.4564 322.4338,234.5565 Q322.4338,236.6483 323.1186,237.7149 Q323.8034,238.7816 325.1482,238.7816 Q325.779,238.7816 326.3725,238.5118 Q326.966,238.242 327.5969,237.661 Z " fill="#000000"/><text fill="#000000" font-family="sans-serif" font-size="12" font-style="italic" lengthAdjust="spacing" textLength="42.0176" x="353.2986" y="230.5316">&#171;Kode&#187;</text><text fill="#000000" font-family="sans-serif" font-size="14" lengthAdjust="spacing" textLength="57.3672" x="345.6238" y="246.598">Plantype</text><line style="stroke:#181818;stroke-width:0.5;" x1="267.28" x2="448.8347" y1="254.5511" y2="254.5511"/><ellipse cx="277.28" cy="268.2952" fill="none" rx="3" ry="3" style="stroke:#038048;stroke-width:1;"/><text fill="#000000" font-family="sans-serif" font-size="14" lengthAdjust="spacing" textLength="115.4521" x="286.28" y="272.0862">kodeverdi: string</text><ellipse cx="277.28" cy="284.7835" fill="none" rx="3" ry="3" style="stroke:#038048;stroke-width:1;"/><text fill="#000000" font-family="sans-serif" font-size="14" lengthAdjust="spacing" textLength="157.5547" x="286.28" y="288.5745">kodebeskrivelse: string</text><line style="stroke:#181818;stroke-width:0.5;" x1="267.28" x2="448.8347" y1="295.5277" y2="295.5277"/></g><!--class Planstatus--><g class="entity" data-entity="Planstatus" data-source-line="17" data-uid="ent0005" id="entity_Planstatus"><rect fill="#F1F1F1" height="89.5977" rx="2.5" ry="2.5" style="stroke:#181818;stroke-width:0.5;" width="183.5547" x="485.28" y="213.93"/><ellipse cx="538.1218" cy="234.2405" fill="#ADD1B2" rx="11" ry="11" style="stroke:#181818;stroke-width:1;"/><path d="M540.5949,240.3836 Q540.0139,240.6824 539.3747,240.8319 Q538.7356,240.9813 538.03,240.9813 Q535.5232,240.9813 534.2033,239.3294 Q532.8835,237.6776 532.8835,234.5565 Q532.8835,231.4271 534.2033,229.7752 Q535.5232,228.1234 538.03,228.1234 Q538.7356,228.1234 539.383,228.2728 Q540.0305,228.4222 540.5949,228.721 L540.5949,231.4437 Q539.9641,230.8626 539.3706,230.5928 Q538.7771,230.3231 538.1462,230.3231 Q536.8015,230.3231 536.1167,231.3897 Q535.4319,232.4564 535.4319,234.5565 Q535.4319,236.6483 536.1167,237.7149 Q536.8015,238.7816 538.1462,238.7816 Q538.7771,238.7816 539.3706,238.5118 Q539.9641,238.242 540.5949,237.661 Z " fill="#000000"/><text fill="#000000" font-family="sans-serif" font-size="12" font-style="italic" lengthAdjust="spacing" textLength="42.0176" x="572.2986" y="230.5316">&#171;Kode&#187;</text><text fill="#000000" font-family="sans-serif" font-size="14" lengthAdjust="spacing" textLength="69.3711" x="558.6218" y="246.598">Planstatus</text><line style="stroke:#181818;stroke-width:0.5;" x1="486.28" x2="667.8347" y1="254.5511" y2="254.5511"/><ellipse cx="496.28" cy="268.2952" fill="none" rx="3" ry="3" style="stroke:#038048;stroke-width:1;"/><text fill="#000000" font-family="sans-serif" font-size="14" lengthAdjust="spacing" textLength="115.4521" x="505.28" y="272.0862">kodeverdi: string</text><ellipse cx="496.28" cy="284.7835" fill="none" rx="3" ry="3" style="stroke:#038048;stroke-width:1;"/><text fill="#000000" font-family="sans-serif" font-size="14" lengthAdjust="spacing" textLength="157.5547" x="505.28" y="288.5745">kodebeskrivelse: string</text><line style="stroke:#181818;stroke-width:0.5;" x1="486.28" x2="667.8347" y1="295.5277" y2="295.5277"/></g><!--class Lovreferanse--><g class="entity" data-entity="Lovreferanse" data-source-line="22" data-uid="ent0006" id="entity_Lovreferanse"><rect fill="#F1F1F1" height="89.5977" rx="2.5" ry="2.5" style="stroke:#181818;stroke-width:0.5;" width="183.5547" x="704.28" y="213.93"/><ellipse cx="748.3876" cy="234.2405" fill="#ADD1B2" rx="11" ry="11" style="stroke:#181818;stroke-width:1;"/><path d="M750.8608,240.3836 Q750.2797,240.6824 749.6405,240.8319 Q749.0014,240.9813 748.2958,240.9813 Q745.789,240.9813 744.4692,239.3294 Q743.1493,237.6776 743.1493,234.5565 Q743.1493,231.4271 744.4692,229.7752 Q745.789,228.1234 748.2958,228.1234 Q749.0014,228.1234 749.6488,228.2728 Q750.2963,228.4222 750.8608,228.721 L750.8608,231.4437 Q750.2299,230.8626 749.6364,230.5928 Q749.0429,230.3231 748.412,230.3231 Q747.0673,230.3231 746.3825,231.3897 Q745.6977,232.4564 745.6977,234.5565 Q745.6977,236.6483 746.3825,237.7149 Q747.0673,238.7816 748.412,238.7816 Q749.0429,238.7816 749.6364,238.5118 Q750.2299,238.242 750.8608,237.661 Z " fill="#000000"/><text fill="#000000" font-family="sans-serif" font-size="12" font-style="italic" lengthAdjust="spacing" textLength="42.0176" x="791.2827" y="230.5316">&#171;Kode&#187;</text><text fill="#000000" font-family="sans-serif" font-size="14" lengthAdjust="spacing" textLength="86.8711" x="768.856" y="246.598">Lovreferanse</text><line style="stroke:#181818;stroke-width:0.5;" x1="705.28" x2="886.8347" y1="254.5511" y2="254.5511"/><ellipse cx="715.28" cy="268.2952" fill="none" rx="3" ry="3" style="stroke:#038048;stroke-width:1;"/><text fill="#000000" font-family="sans-serif" font-size="14" lengthAdjust="spacing" textLength="115.4521" x="724.28" y="272.0862">kodeverdi: string</text><ellipse cx="715.28" cy="284.7835" fill="none" rx="3" ry="3" style="stroke:#038048;stroke-width:1;"/><text fill="#000000" font-family="sans-serif" font-size="14" lengthAdjust="spacing" textLength="157.5547" x="724.28" y="288.5745">kodebeskrivelse: string</text><line style="stroke:#181818;stroke-width:0.5;" x1="705.28" x2="886.8347" y1="295.5277" y2="295.5277"/></g><!--class ForslagstillerType--><g class="entity" data-entity="ForslagstillerType" data-source-line="27" data-uid="ent0007" id="entity_ForslagstillerType"><rect fill="#F1F1F1" height="89.5977" rx="2.5" ry="2.5" style="stroke:#181818;stroke-width:0.5;" width="183.5547" x="923.28" y="213.93"/><ellipse cx="952.3451" cy="234.2405" fill="#ADD1B2" rx="11" ry="11" style="stroke:#181818;stroke-width:1;"/><path d="M954.8183,240.3836 Q954.2372,240.6824 953.5981,240.8319 Q952.9589,240.9813 952.2533,240.9813 Q949.7465,240.9813 948.4267,239.3294 Q947.1069,237.6776 947.1069,234.5565 Q947.1069,231.4271 948.4267,229.7752 Q949.7465,228.1234 952.2533,228.1234 Q952.9589,228.1234 953.6064,228.2728 Q954.2538,228.4222 954.8183,228.721 L954.8183,231.4437 Q954.1874,230.8626 953.5939,230.5928 Q953.0004,230.3231 952.3696,230.3231 Q951.0248,230.3231 950.34,231.3897 Q949.6552,232.4564 949.6552,234.5565 Q949.6552,236.6483 950.34,237.7149 Q951.0248,238.7816 952.3696,238.7816 Q953.0004,238.7816 953.5939,238.5118 Q954.1874,238.242 954.8183,237.661 Z " fill="#000000"/><text fill="#000000" font-family="sans-serif" font-size="12" font-style="italic" lengthAdjust="spacing" textLength="42.0176" x="1008.6113" y="230.5316">&#171;Kode&#187;</text><text fill="#000000" font-family="sans-serif" font-size="14" lengthAdjust="spacing" textLength="120.2988" x="969.4707" y="246.598">ForslagstillerType</text><line style="stroke:#181818;stroke-width:0.5;" x1="924.28" x2="1105.8347" y1="254.5511" y2="254.5511"/><ellipse cx="934.28" cy="268.2952" fill="none" rx="3" ry="3" style="stroke:#038048;stroke-width:1;"/><text fill="#000000" font-family="sans-serif" font-size="14" lengthAdjust="spacing" textLength="115.4521" x="943.28" y="272.0862">kodeverdi: string</text><ellipse cx="934.28" cy="284.7835" fill="none" rx="3" ry="3" style="stroke:#038048;stroke-width:1;"/><text fill="#000000" font-family="sans-serif" font-size="14" lengthAdjust="spacing" textLength="157.5547" x="943.28" y="288.5745">kodebeskrivelse: string</text><line style="stroke:#181818;stroke-width:0.5;" x1="924.28" x2="1105.8347" y1="295.5277" y2="295.5277"/></g><!--link OpprettArealplan to Plantype--><g class="link" data-entity-1="OpprettArealplan" data-entity-2="Plantype" data-source-line="32" data-uid="lnk8" id="link_OpprettArealplan_Plantype"><path codeLine="32" d="M486.72,154.18 C461.74,174.28 435.39,195.49 413.08,213.44" fill="none" id="OpprettArealplan-Plantype" style="stroke:#181818;stroke-width:1;"/></g><!--link OpprettArealplan to Planstatus--><g class="link" data-entity-1="OpprettArealplan" data-entity-2="Planstatus" data-source-line="33" data-uid="lnk9" id="link_OpprettArealplan_Planstatus"><path codeLine="33" d="M577.06,154.18 C577.06,174.28 577.06,195.49 577.06,213.44" fill="none" id="OpprettArealplan-Planstatus" style="stroke:#181818;stroke-width:1;"/></g><!--link OpprettArealplan to Lovreferanse--><g class="link" data-entity-1="OpprettArealplan" data-entity-2="Lovreferanse" data-source-line="34" data-uid="lnk10" id="link_OpprettArealplan_Lovreferanse"><path codeLine="34" d="M667.4,154.18 C692.37,174.28 718.73,195.49 741.03,213.44" fill="none" id="OpprettArealplan-Lovreferanse" style="stroke:#181818;stroke-width:1;"/></g><!--link OpprettArealplan to ForslagstillerType--><g class="link" data-entity-1="OpprettArealplan" data-entity-2="ForslagstillerType" data-source-line="35" data-uid="lnk11" id="link_OpprettArealplan_ForslagstillerType"><path codeLine="35" d="M712.04,135.79 C780.41,163.3 861.66,196 922.8,220.61" fill="none" id="OpprettArealplan-ForslagstillerType" style="stroke:#181818;stroke-width:1;"/></g><!--link OpprettArealplan to Saksnummer--><g class="link" data-entity-1="OpprettArealplan" data-entity-2="Saksnummer" data-source-line="36" data-uid="lnk12" id="link_OpprettArealplan_Saksnummer"><path codeLine="36" d="M442.12,133.4 C372.06,160.36 287.79,192.79 222.89,217.77" fill="none" id="OpprettArealplan-Saksnummer" style="stroke:#181818;stroke-width:1;"/></g><!--SRC=[hLB1QiGW4BtdA-ovx0Hw3Cj2Bxsqq4Bx0tOpMIIpHcQCK4h_lOh9ch3ffQm7URwdptcETyOUQMnHGGrGsm5wWSx4oP6s41wWGo8K4DsB7SzdvBf0S6DL7KcBg5Vd6Br_PDIKZghlIiLndx3LmJPAF1jxAgp_SjYejmaLNhpsesGbuwpH41WxvCZ6So-BLTPBMOrwl-2iTGCBwPDu4yDmllbfnNsa6dxcD7DLQhz_7bey7EOuVLm5vDQiyoJw4wLd4v1IUPEuCinXRcQvV86RcLu_oiNwtyvNNsEtAst_IvmwloMlMh-rOQEpMziMd-GN]--></g></svg>