<?xml version="1.0" encoding="us-ascii" standalone="no"?><svg xmlns="http://www.w3.org/2000/svg" xmlns:xlink="http://www.w3.org/1999/xlink" contentStyleType="text/css" height="310px" preserveAspectRatio="none" style="width:1184px;height:310px;background:#FFFFFF;" version="1.1" viewBox="0 0 1184 310" width="1184px" zoomAndPan="magnify"><defs/><g><!--class OpprettArealplan--><g id="elem_OpprettArealplan"><rect codeLine="2" fill="#F1F1F1" height="146.9297" id="OpprettArealplan" rx="2.5" ry="2.5" style="stroke:#181818;stroke-width:0.5;" width="271" x="401.5" y="7"/><ellipse cx="473.25" cy="23" fill="#ADD1B2" rx="11" ry="11" style="stroke:#181818;stroke-width:1.0;"/><path d="M475.7231,29.1431 Q475.1421,29.4419 474.5029,29.5913 Q473.8638,29.7407 473.1582,29.7407 Q470.6514,29.7407 469.3315,28.0889 Q468.0117,26.437 468.0117,23.3159 Q468.0117,20.1865 469.3315,18.5347 Q470.6514,16.8828 473.1582,16.8828 Q473.8638,16.8828 474.5112,17.0322 Q475.1587,17.1816 475.7231,17.4805 L475.7231,20.2031 Q475.0923,19.6221 474.4988,19.3523 Q473.9053,19.0825 473.2744,19.0825 Q471.9297,19.0825 471.2449,20.1492 Q470.5601,21.2158 470.5601,23.3159 Q470.5601,25.4077 471.2449,26.4744 Q471.9297,27.541 473.2744,27.541 Q473.9053,27.541 474.4988,27.2712 Q475.0923,27.0015 475.7231,26.4204 Z " fill="#000000"/><text fill="#000000" font-family="sans-serif" font-size="14" lengthAdjust="spacing" textLength="119" x="493.75" y="28.291">OpprettArealplan</text><line style="stroke:#181818;stroke-width:0.5;" x1="402.5" x2="671.5" y1="39" y2="39"/><ellipse cx="412.5" cy="52.7441" fill="none" rx="3" ry="3" style="stroke:#038048;stroke-width:1.0;"/><text fill="#000000" font-family="sans-serif" font-size="14" lengthAdjust="spacing" textLength="111" x="421.5" y="56.5352">plannavn: string</text><ellipse cx="412.5" cy="69.2324" fill="none" rx="3" ry="3" style="stroke:#038048;stroke-width:1.0;"/><text fill="#000000" font-family="sans-serif" font-size="14" lengthAdjust="spacing" textLength="125" x="421.5" y="73.0234">plantype: Plantype</text><ellipse cx="412.5" cy="85.7207" fill="none" rx="3" ry="3" style="stroke:#038048;stroke-width:1.0;"/><text fill="#000000" font-family="sans-serif" font-size="14" lengthAdjust="spacing" textLength="149" x="421.5" y="89.5117">planstatus: Planstatus</text><ellipse cx="412.5" cy="102.209" fill="none" rx="3" ry="3" style="stroke:#038048;stroke-width:1.0;"/><text fill="#000000" font-family="sans-serif" font-size="14" lengthAdjust="spacing" textLength="181" x="421.5" y="106">lovreferanse: Lovreferanse</text><ellipse cx="412.5" cy="118.6973" fill="none" rx="3" ry="3" style="stroke:#038048;stroke-width:1.0;"/><text fill="#000000" font-family="sans-serif" font-size="14" lengthAdjust="spacing" textLength="185" x="421.5" y="122.4883">saksnummer: Saksnummer</text><ellipse cx="412.5" cy="135.1855" fill="none" rx="3" ry="3" style="stroke:#038048;stroke-width:1.0;"/><text fill="#000000" font-family="sans-serif" font-size="14" lengthAdjust="spacing" textLength="245" x="421.5" y="138.9766">forslagstillertype: ForslagstillerType</text><line style="stroke:#181818;stroke-width:0.5;" x1="402.5" x2="671.5" y1="145.9297" y2="145.9297"/></g><!--class Plantype--><g id="elem_Plantype"><rect codeLine="11" fill="#F1F1F1" height="89.5977" id="Plantype" rx="2.5" ry="2.5" style="stroke:#181818;stroke-width:0.5;" width="184" x="7" y="213.93"/><ellipse cx="65.75" cy="234.2405" fill="#ADD1B2" rx="11" ry="11" style="stroke:#181818;stroke-width:1.0;"/><path d="M68.2231,240.3836 Q67.6421,240.6824 67.0029,240.8319 Q66.3638,240.9813 65.6582,240.9813 Q63.1514,240.9813 61.8315,239.3294 Q60.5117,237.6776 60.5117,234.5565 Q60.5117,231.4271 61.8315,229.7752 Q63.1514,228.1234 65.6582,228.1234 Q66.3638,228.1234 67.0112,228.2728 Q67.6587,228.4222 68.2231,228.721 L68.2231,231.4437 Q67.5923,230.8626 66.9988,230.5928 Q66.4053,230.3231 65.7744,230.3231 Q64.4297,230.3231 63.7449,231.3897 Q63.0601,232.4564 63.0601,234.5565 Q63.0601,236.6483 63.7449,237.7149 Q64.4297,238.7816 65.7744,238.7816 Q66.4053,238.7816 66.9988,238.5118 Q67.5923,238.242 68.2231,237.661 Z " fill="#000000"/><text fill="#000000" font-family="sans-serif" font-size="12" font-style="italic" lengthAdjust="spacing" textLength="42" x="94.25" y="230.5316">&#171;Kode&#187;</text><text fill="#000000" font-family="sans-serif" font-size="14" lengthAdjust="spacing" textLength="58" x="86.25" y="246.598">Plantype</text><line style="stroke:#181818;stroke-width:0.5;" x1="8" x2="190" y1="254.5511" y2="254.5511"/><ellipse cx="18" cy="268.2952" fill="none" rx="3" ry="3" style="stroke:#038048;stroke-width:1.0;"/><text fill="#000000" font-family="sans-serif" font-size="14" lengthAdjust="spacing" textLength="116" x="27" y="272.0862">kodeverdi: string</text><ellipse cx="18" cy="284.7835" fill="none" rx="3" ry="3" style="stroke:#038048;stroke-width:1.0;"/><text fill="#000000" font-family="sans-serif" font-size="14" lengthAdjust="spacing" textLength="158" x="27" y="288.5745">kodebeskrivelse: string</text><line style="stroke:#181818;stroke-width:0.5;" x1="8" x2="190" y1="295.5277" y2="295.5277"/></g><!--class Planstatus--><g id="elem_Planstatus"><rect codeLine="16" fill="#F1F1F1" height="89.5977" id="Planstatus" rx="2.5" ry="2.5" style="stroke:#181818;stroke-width:0.5;" width="184" x="226" y="213.93"/><ellipse cx="278.75" cy="234.2405" fill="#ADD1B2" rx="11" ry="11" style="stroke:#181818;stroke-width:1.0;"/><path d="M281.2231,240.3836 Q280.6421,240.6824 280.0029,240.8319 Q279.3638,240.9813 278.6582,240.9813 Q276.1514,240.9813 274.8315,239.3294 Q273.5117,237.6776 273.5117,234.5565 Q273.5117,231.4271 274.8315,229.7752 Q276.1514,228.1234 278.6582,228.1234 Q279.3638,228.1234 280.0112,228.2728 Q280.6587,228.4222 281.2231,228.721 L281.2231,231.4437 Q280.5923,230.8626 279.9988,230.5928 Q279.4053,230.3231 278.7744,230.3231 Q277.4297,230.3231 276.7449,231.3897 Q276.0601,232.4564 276.0601,234.5565 Q276.0601,236.6483 276.7449,237.7149 Q277.4297,238.7816 278.7744,238.7816 Q279.4053,238.7816 279.9988,238.5118 Q280.5923,238.242 281.2231,237.661 Z " fill="#000000"/><text fill="#000000" font-family="sans-serif" font-size="12" font-style="italic" lengthAdjust="spacing" textLength="42" x="313.25" y="230.5316">&#171;Kode&#187;</text><text fill="#000000" font-family="sans-serif" font-size="14" lengthAdjust="spacing" textLength="70" x="299.25" y="246.598">Planstatus</text><line style="stroke:#181818;stroke-width:0.5;" x1="227" x2="409" y1="254.5511" y2="254.5511"/><ellipse cx="237" cy="268.2952" fill="none" rx="3" ry="3" style="stroke:#038048;stroke-width:1.0;"/><text fill="#000000" font-family="sans-serif" font-size="14" lengthAdjust="spacing" textLength="116" x="246" y="272.0862">kodeverdi: string</text><ellipse cx="237" cy="284.7835" fill="none" rx="3" ry="3" style="stroke:#038048;stroke-width:1.0;"/><text fill="#000000" font-family="sans-serif" font-size="14" lengthAdjust="spacing" textLength="158" x="246" y="288.5745">kodebeskrivelse: string</text><line style="stroke:#181818;stroke-width:0.5;" x1="227" x2="409" y1="295.5277" y2="295.5277"/></g><!--class Lovreferanse--><g id="elem_Lovreferanse"><rect codeLine="21" fill="#F1F1F1" height="89.5977" id="Lovreferanse" rx="2.5" ry="2.5" style="stroke:#181818;stroke-width:0.5;" width="184" x="445" y="213.93"/><ellipse cx="488.8" cy="234.2405" fill="#ADD1B2" rx="11" ry="11" style="stroke:#181818;stroke-width:1.0;"/><path d="M491.2731,240.3836 Q490.6921,240.6824 490.0529,240.8319 Q489.4138,240.9813 488.7082,240.9813 Q486.2014,240.9813 484.8815,239.3294 Q483.5617,237.6776 483.5617,234.5565 Q483.5617,231.4271 484.8815,229.7752 Q486.2014,228.1234 488.7082,228.1234 Q489.4138,228.1234 490.0612,228.2728 Q490.7087,228.4222 491.2731,228.721 L491.2731,231.4437 Q490.6423,230.8626 490.0488,230.5928 Q489.4553,230.3231 488.8244,230.3231 Q487.4797,230.3231 486.7949,231.3897 Q486.1101,232.4564 486.1101,234.5565 Q486.1101,236.6483 486.7949,237.7149 Q487.4797,238.7816 488.8244,238.7816 Q489.4553,238.7816 490.0488,238.5118 Q490.6423,238.242 491.2731,237.661 Z " fill="#000000"/><text fill="#000000" font-family="sans-serif" font-size="12" font-style="italic" lengthAdjust="spacing" textLength="42" x="532.2" y="230.5316">&#171;Kode&#187;</text><text fill="#000000" font-family="sans-serif" font-size="14" lengthAdjust="spacing" textLength="88" x="509.2" y="246.598">Lovreferanse</text><line style="stroke:#181818;stroke-width:0.5;" x1="446" x2="628" y1="254.5511" y2="254.5511"/><ellipse cx="456" cy="268.2952" fill="none" rx="3" ry="3" style="stroke:#038048;stroke-width:1.0;"/><text fill="#000000" font-family="sans-serif" font-size="14" lengthAdjust="spacing" textLength="116" x="465" y="272.0862">kodeverdi: string</text><ellipse cx="456" cy="284.7835" fill="none" rx="3" ry="3" style="stroke:#038048;stroke-width:1.0;"/><text fill="#000000" font-family="sans-serif" font-size="14" lengthAdjust="spacing" textLength="158" x="465" y="288.5745">kodebeskrivelse: string</text><line style="stroke:#181818;stroke-width:0.5;" x1="446" x2="628" y1="295.5277" y2="295.5277"/></g><!--class ForslagstillerType--><g id="elem_ForslagstillerType"><rect codeLine="26" fill="#F1F1F1" height="89.5977" id="ForslagstillerType" rx="2.5" ry="2.5" style="stroke:#181818;stroke-width:0.5;" width="184" x="664" y="213.93"/><ellipse cx="692.5" cy="234.2405" fill="#ADD1B2" rx="11" ry="11" style="stroke:#181818;stroke-width:1.0;"/><path d="M694.9731,240.3836 Q694.3921,240.6824 693.7529,240.8319 Q693.1138,240.9813 692.4082,240.9813 Q689.9014,240.9813 688.5815,239.3294 Q687.2617,237.6776 687.2617,234.5565 Q687.2617,231.4271 688.5815,229.7752 Q689.9014,228.1234 692.4082,228.1234 Q693.1138,228.1234 693.7612,228.2728 Q694.4087,228.4222 694.9731,228.721 L694.9731,231.4437 Q694.3423,230.8626 693.7488,230.5928 Q693.1553,230.3231 692.5244,230.3231 Q691.1797,230.3231 690.4949,231.3897 Q689.8101,232.4564 689.8101,234.5565 Q689.8101,236.6483 690.4949,237.7149 Q691.1797,238.7816 692.5244,238.7816 Q693.1553,238.7816 693.7488,238.5118 Q694.3423,238.242 694.9731,237.661 Z " fill="#000000"/><text fill="#000000" font-family="sans-serif" font-size="12" font-style="italic" lengthAdjust="spacing" textLength="42" x="749.5" y="230.5316">&#171;Kode&#187;</text><text fill="#000000" font-family="sans-serif" font-size="14" lengthAdjust="spacing" textLength="122" x="709.5" y="246.598">ForslagstillerType</text><line style="stroke:#181818;stroke-width:0.5;" x1="665" x2="847" y1="254.5511" y2="254.5511"/><ellipse cx="675" cy="268.2952" fill="none" rx="3" ry="3" style="stroke:#038048;stroke-width:1.0;"/><text fill="#000000" font-family="sans-serif" font-size="14" lengthAdjust="spacing" textLength="116" x="684" y="272.0862">kodeverdi: string</text><ellipse cx="675" cy="284.7835" fill="none" rx="3" ry="3" style="stroke:#038048;stroke-width:1.0;"/><text fill="#000000" font-family="sans-serif" font-size="14" lengthAdjust="spacing" textLength="158" x="684" y="288.5745">kodebeskrivelse: string</text><line style="stroke:#181818;stroke-width:0.5;" x1="665" x2="847" y1="295.5277" y2="295.5277"/></g><!--class Saksnummer--><g id="elem_Saksnummer"><rect fill="#F1F1F1" height="48" id="Saksnummer" rx="2.5" ry="2.5" style="stroke:#181818;stroke-width:0.5;" width="121" x="883.5" y="234.73"/><ellipse cx="898.5" cy="250.73" fill="#ADD1B2" rx="11" ry="11" style="stroke:#181818;stroke-width:1.0;"/><path d="M900.9731,256.8731 Q900.3921,257.1719 899.7529,257.3213 Q899.1138,257.4707 898.4082,257.4707 Q895.9014,257.4707 894.5815,255.8189 Q893.2617,254.167 893.2617,251.0459 Q893.2617,247.9165 894.5815,246.2647 Q895.9014,244.6128 898.4082,244.6128 Q899.1138,244.6128 899.7612,244.7622 Q900.4087,244.9116 900.9731,245.2105 L900.9731,247.9331 Q900.3423,247.3521 899.7488,247.0823 Q899.1553,246.8125 898.5244,246.8125 Q897.1797,246.8125 896.4949,247.8792 Q895.8101,248.9458 895.8101,251.0459 Q895.8101,253.1377 896.4949,254.2044 Q897.1797,255.271 898.5244,255.271 Q899.1553,255.271 899.7488,255.0012 Q900.3423,254.7315 900.9731,254.1504 Z " fill="#000000"/><text fill="#000000" font-family="sans-serif" font-size="14" lengthAdjust="spacing" textLength="89" x="912.5" y="256.021">Saksnummer</text><line style="stroke:#181818;stroke-width:0.5;" x1="884.5" x2="1003.5" y1="266.73" y2="266.73"/><line style="stroke:#181818;stroke-width:0.5;" x1="884.5" x2="1003.5" y1="274.73" y2="274.73"/></g><g id="elem_GMN13"><path d="M711,67.81 L711,93.1205 A0,0 0 0 0 711,93.1205 L940,93.1205 L944,234.42 L948,93.1205 L1177,93.1205 A0,0 0 0 0 1177,93.1205 L1177,77.81 L1167,67.81 L711,67.81 A0,0 0 0 0 711,67.81 " fill="#FEFFDD" style="stroke:#181818;stroke-width:0.5;"/><path d="M1167,67.81 L1167,77.81 L1177,77.81 L1167,67.81 " fill="#FEFFDD" style="stroke:#181818;stroke-width:0.5;"/><text fill="#000000" font-family="sans-serif" font-size="13" lengthAdjust="spacing" textLength="445" x="717" y="85.3784">Se detaljer i diagram for skjema 'no.ks.fiks.plan.v2.felles.saksnummer'</text></g><!--link OpprettArealplan to Plantype--><g id="link_OpprettArealplan_Plantype"><path codeLine="31" d="M401.11,136.15 C332.92,163.6 252.1,196.12 191.21,220.62 " fill="none" id="OpprettArealplan-Plantype" style="stroke:#181818;stroke-width:1.0;"/></g><!--link OpprettArealplan to Planstatus--><g id="link_OpprettArealplan_Planstatus"><path codeLine="32" d="M446.66,154.18 C421.68,174.28 395.33,195.49 373.02,213.44 " fill="none" id="OpprettArealplan-Planstatus" style="stroke:#181818;stroke-width:1.0;"/></g><!--link OpprettArealplan to Lovreferanse--><g id="link_OpprettArealplan_Lovreferanse"><path codeLine="33" d="M537,154.18 C537,174.28 537,195.49 537,213.44 " fill="none" id="OpprettArealplan-Lovreferanse" style="stroke:#181818;stroke-width:1.0;"/></g><!--link OpprettArealplan to ForslagstillerType--><g id="link_OpprettArealplan_ForslagstillerType"><path codeLine="34" d="M627.34,154.18 C652.32,174.28 678.67,195.49 700.98,213.44 " fill="none" id="OpprettArealplan-ForslagstillerType" style="stroke:#181818;stroke-width:1.0;"/></g><!--link OpprettArealplan to Saksnummer--><g id="link_OpprettArealplan_Saksnummer"><path codeLine="35" d="M672.8,145.13 C679.95,148.17 687.04,151.12 694,153.93 C769.06,184.27 792.2,180.65 866,213.93 C879.17,219.87 893.06,227.27 905.42,234.29 " fill="none" id="OpprettArealplan-Saksnummer" style="stroke:#181818;stroke-width:1.0;"/></g><!--SRC=[hLB1JiCm3BttAtpR0Qq7ZjKqYGiNa4227p2hKsLDayhsAY74lvEGRcsrSa7B8RBVIrxi-1qSYi1BtpEfFZ2Xwnrw-2eWhhiKUnny1Q9iVJEX-jbJ1QzZDE6Yg2V9J8upvyB0P8WZ6kyzpxBC2xRYJrr7NC7R9SwS2ImE6r7h775- -N61lQSQlelYyDlDkIhOxPv2JVlzkPqsPWDnRPVz9FY3f6Kxa4lbZUH2C3TpCydv3znCzFfJBjB_LhwondOxZVqlSfpy6hqO_Tg1bSck7PkPfF112JJq4CmCX-WaWfeKtJ5c5cgB3MC7qKyWxP4wX8qFPIkbiN5BokLmNngA3qivEN9J_000]--></g></svg>