<svg xmlns="http://www.w3.org/2000/svg" xmlns:xlink="http://www.w3.org/1999/xlink" contentStyleType="text/css" height="310px" preserveAspectRatio="none" style="width:1115px;height:310px;background:#FFFFFF;" version="1.1" viewBox="0 0 1115 310" width="1115px" zoomAndPan="magnify"><defs/><g><!--class Saksnummer--><g id="elem_Saksnummer"><rect codeLine="2" fill="#F1F1F1" height="80.9766" id="Saksnummer" rx="2.5" ry="2.5" style="stroke:#181818;stroke-width:0.5;" width="225" x="7" y="218.24"/><ellipse cx="70.75" cy="234.24" fill="#ADD1B2" rx="11" ry="11" style="stroke:#181818;stroke-width:1.0;"/><path d="M73.2231,240.3831 Q72.6421,240.6819 72.0029,240.8313 Q71.3638,240.9807 70.6582,240.9807 Q68.1514,240.9807 66.8315,239.3289 Q65.5117,237.677 65.5117,234.5559 Q65.5117,231.4265 66.8315,229.7747 Q68.1514,228.1228 70.6582,228.1228 Q71.3638,228.1228 72.0112,228.2722 Q72.6587,228.4216 73.2231,228.7205 L73.2231,231.4431 Q72.5923,230.8621 71.9988,230.5923 Q71.4053,230.3225 70.7744,230.3225 Q69.4297,230.3225 68.7449,231.3892 Q68.0601,232.4558 68.0601,234.5559 Q68.0601,236.6477 68.7449,237.7144 Q69.4297,238.781 70.7744,238.781 Q71.4053,238.781 71.9988,238.5112 Q72.5923,238.2415 73.2231,237.6604 Z " fill="#000000"/><text fill="#000000" font-family="sans-serif" font-size="14" lengthAdjust="spacing" textLength="89" x="91.25" y="239.531">Saksnummer</text><line style="stroke:#181818;stroke-width:0.5;" x1="8" x2="231" y1="250.24" y2="250.24"/><ellipse cx="18" cy="263.9841" fill="none" rx="3" ry="3" style="stroke:#038048;stroke-width:1.0;"/><text fill="#000000" font-family="sans-serif" font-size="14" lengthAdjust="spacing" textLength="109" x="27" y="267.7752">saksaar: integer</text><ellipse cx="18" cy="280.4724" fill="none" rx="3" ry="3" style="stroke:#038048;stroke-width:1.0;"/><text fill="#000000" font-family="sans-serif" font-size="14" lengthAdjust="spacing" textLength="199" x="27" y="284.2634">sakssekvensnummer: integer</text><line style="stroke:#181818;stroke-width:0.5;" x1="8" x2="231" y1="291.2166" y2="291.2166"/></g><!--class OpprettArealplan--><g id="elem_OpprettArealplan"><rect codeLine="3" fill="#F1F1F1" height="146.9297" id="OpprettArealplan" rx="2.5" ry="2.5" style="stroke:#181818;stroke-width:0.5;" width="271" x="443" y="7"/><ellipse cx="514.75" cy="23" fill="#ADD1B2" rx="11" ry="11" style="stroke:#181818;stroke-width:1.0;"/><path d="M517.2231,29.1431 Q516.6421,29.4419 516.0029,29.5913 Q515.3638,29.7407 514.6582,29.7407 Q512.1514,29.7407 510.8315,28.0889 Q509.5117,26.437 509.5117,23.3159 Q509.5117,20.1865 510.8315,18.5347 Q512.1514,16.8828 514.6582,16.8828 Q515.3638,16.8828 516.0112,17.0322 Q516.6587,17.1816 517.2231,17.4805 L517.2231,20.2031 Q516.5923,19.6221 515.9988,19.3523 Q515.4053,19.0825 514.7744,19.0825 Q513.4297,19.0825 512.7449,20.1492 Q512.0601,21.2158 512.0601,23.3159 Q512.0601,25.4077 512.7449,26.4744 Q513.4297,27.541 514.7744,27.541 Q515.4053,27.541 515.9988,27.2712 Q516.5923,27.0015 517.2231,26.4204 Z " fill="#000000"/><text fill="#000000" font-family="sans-serif" font-size="14" lengthAdjust="spacing" textLength="119" x="535.25" y="28.291">OpprettArealplan</text><line style="stroke:#181818;stroke-width:0.5;" x1="444" x2="713" y1="39" y2="39"/><ellipse cx="454" cy="52.7441" fill="none" rx="3" ry="3" style="stroke:#038048;stroke-width:1.0;"/><text fill="#000000" font-family="sans-serif" font-size="14" lengthAdjust="spacing" textLength="111" x="463" y="56.5352">plannavn: string</text><ellipse cx="454" cy="69.2324" fill="none" rx="3" ry="3" style="stroke:#038048;stroke-width:1.0;"/><text fill="#000000" font-family="sans-serif" font-size="14" lengthAdjust="spacing" textLength="125" x="463" y="73.0234">plantype: Plantype</text><ellipse cx="454" cy="85.7207" fill="none" rx="3" ry="3" style="stroke:#038048;stroke-width:1.0;"/><text fill="#000000" font-family="sans-serif" font-size="14" lengthAdjust="spacing" textLength="149" x="463" y="89.5117">planstatus: Planstatus</text><ellipse cx="454" cy="102.209" fill="none" rx="3" ry="3" style="stroke:#038048;stroke-width:1.0;"/><text fill="#000000" font-family="sans-serif" font-size="14" lengthAdjust="spacing" textLength="181" x="463" y="106">lovreferanse: Lovreferanse</text><ellipse cx="454" cy="118.6973" fill="none" rx="3" ry="3" style="stroke:#038048;stroke-width:1.0;"/><text fill="#000000" font-family="sans-serif" font-size="14" lengthAdjust="spacing" textLength="185" x="463" y="122.4883">saksnummer: Saksnummer</text><ellipse cx="454" cy="135.1855" fill="none" rx="3" ry="3" style="stroke:#038048;stroke-width:1.0;"/><text fill="#000000" font-family="sans-serif" font-size="14" lengthAdjust="spacing" textLength="245" x="463" y="138.9766">forslagstillertype: ForslagstillerType</text><line style="stroke:#181818;stroke-width:0.5;" x1="444" x2="713" y1="145.9297" y2="145.9297"/></g><!--class Plantype--><g id="elem_Plantype"><rect codeLine="12" fill="#F1F1F1" height="89.5977" id="Plantype" rx="2.5" ry="2.5" style="stroke:#181818;stroke-width:0.5;" width="184" x="267.5" y="213.93"/><ellipse cx="326.25" cy="234.2405" fill="#ADD1B2" rx="11" ry="11" style="stroke:#181818;stroke-width:1.0;"/><path d="M328.7231,240.3836 Q328.1421,240.6824 327.5029,240.8319 Q326.8638,240.9813 326.1582,240.9813 Q323.6514,240.9813 322.3315,239.3294 Q321.0117,237.6776 321.0117,234.5565 Q321.0117,231.4271 322.3315,229.7752 Q323.6514,228.1234 326.1582,228.1234 Q326.8638,228.1234 327.5112,228.2728 Q328.1587,228.4222 328.7231,228.721 L328.7231,231.4437 Q328.0923,230.8626 327.4988,230.5928 Q326.9053,230.3231 326.2744,230.3231 Q324.9297,230.3231 324.2449,231.3897 Q323.5601,232.4564 323.5601,234.5565 Q323.5601,236.6483 324.2449,237.7149 Q324.9297,238.7816 326.2744,238.7816 Q326.9053,238.7816 327.4988,238.5118 Q328.0923,238.242 328.7231,237.661 Z " fill="#000000"/><text fill="#000000" font-family="sans-serif" font-size="12" font-style="italic" lengthAdjust="spacing" textLength="42" x="354.75" y="230.5316">&#171;Kode&#187;</text><text fill="#000000" font-family="sans-serif" font-size="14" lengthAdjust="spacing" textLength="58" x="346.75" y="246.598">Plantype</text><line style="stroke:#181818;stroke-width:0.5;" x1="268.5" x2="450.5" y1="254.5511" y2="254.5511"/><ellipse cx="278.5" cy="268.2952" fill="none" rx="3" ry="3" style="stroke:#038048;stroke-width:1.0;"/><text fill="#000000" font-family="sans-serif" font-size="14" lengthAdjust="spacing" textLength="116" x="287.5" y="272.0862">kodeverdi: string</text><ellipse cx="278.5" cy="284.7835" fill="none" rx="3" ry="3" style="stroke:#038048;stroke-width:1.0;"/><text fill="#000000" font-family="sans-serif" font-size="14" lengthAdjust="spacing" textLength="158" x="287.5" y="288.5745">kodebeskrivelse: string</text><line style="stroke:#181818;stroke-width:0.5;" x1="268.5" x2="450.5" y1="295.5277" y2="295.5277"/></g><!--class Planstatus--><g id="elem_Planstatus"><rect codeLine="17" fill="#F1F1F1" height="89.5977" id="Planstatus" rx="2.5" ry="2.5" style="stroke:#181818;stroke-width:0.5;" width="184" x="486.5" y="213.93"/><ellipse cx="539.25" cy="234.2405" fill="#ADD1B2" rx="11" ry="11" style="stroke:#181818;stroke-width:1.0;"/><path d="M541.7231,240.3836 Q541.1421,240.6824 540.5029,240.8319 Q539.8638,240.9813 539.1582,240.9813 Q536.6514,240.9813 535.3315,239.3294 Q534.0117,237.6776 534.0117,234.5565 Q534.0117,231.4271 535.3315,229.7752 Q536.6514,228.1234 539.1582,228.1234 Q539.8638,228.1234 540.5112,228.2728 Q541.1587,228.4222 541.7231,228.721 L541.7231,231.4437 Q541.0923,230.8626 540.4988,230.5928 Q539.9053,230.3231 539.2744,230.3231 Q537.9297,230.3231 537.2449,231.3897 Q536.5601,232.4564 536.5601,234.5565 Q536.5601,236.6483 537.2449,237.7149 Q537.9297,238.7816 539.2744,238.7816 Q539.9053,238.7816 540.4988,238.5118 Q541.0923,238.242 541.7231,237.661 Z " fill="#000000"/><text fill="#000000" font-family="sans-serif" font-size="12" font-style="italic" lengthAdjust="spacing" textLength="42" x="573.75" y="230.5316">&#171;Kode&#187;</text><text fill="#000000" font-family="sans-serif" font-size="14" lengthAdjust="spacing" textLength="70" x="559.75" y="246.598">Planstatus</text><line style="stroke:#181818;stroke-width:0.5;" x1="487.5" x2="669.5" y1="254.5511" y2="254.5511"/><ellipse cx="497.5" cy="268.2952" fill="none" rx="3" ry="3" style="stroke:#038048;stroke-width:1.0;"/><text fill="#000000" font-family="sans-serif" font-size="14" lengthAdjust="spacing" textLength="116" x="506.5" y="272.0862">kodeverdi: string</text><ellipse cx="497.5" cy="284.7835" fill="none" rx="3" ry="3" style="stroke:#038048;stroke-width:1.0;"/><text fill="#000000" font-family="sans-serif" font-size="14" lengthAdjust="spacing" textLength="158" x="506.5" y="288.5745">kodebeskrivelse: string</text><line style="stroke:#181818;stroke-width:0.5;" x1="487.5" x2="669.5" y1="295.5277" y2="295.5277"/></g><!--class Lovreferanse--><g id="elem_Lovreferanse"><rect codeLine="22" fill="#F1F1F1" height="89.5977" id="Lovreferanse" rx="2.5" ry="2.5" style="stroke:#181818;stroke-width:0.5;" width="184" x="705.5" y="213.93"/><ellipse cx="749.3" cy="234.2405" fill="#ADD1B2" rx="11" ry="11" style="stroke:#181818;stroke-width:1.0;"/><path d="M751.7731,240.3836 Q751.1921,240.6824 750.5529,240.8319 Q749.9138,240.9813 749.2082,240.9813 Q746.7014,240.9813 745.3815,239.3294 Q744.0617,237.6776 744.0617,234.5565 Q744.0617,231.4271 745.3815,229.7752 Q746.7014,228.1234 749.2082,228.1234 Q749.9138,228.1234 750.5612,228.2728 Q751.2087,228.4222 751.7731,228.721 L751.7731,231.4437 Q751.1423,230.8626 750.5488,230.5928 Q749.9553,230.3231 749.3244,230.3231 Q747.9797,230.3231 747.2949,231.3897 Q746.6101,232.4564 746.6101,234.5565 Q746.6101,236.6483 747.2949,237.7149 Q747.9797,238.7816 749.3244,238.7816 Q749.9553,238.7816 750.5488,238.5118 Q751.1423,238.242 751.7731,237.661 Z " fill="#000000"/><text fill="#000000" font-family="sans-serif" font-size="12" font-style="italic" lengthAdjust="spacing" textLength="42" x="792.7" y="230.5316">&#171;Kode&#187;</text><text fill="#000000" font-family="sans-serif" font-size="14" lengthAdjust="spacing" textLength="88" x="769.7" y="246.598">Lovreferanse</text><line style="stroke:#181818;stroke-width:0.5;" x1="706.5" x2="888.5" y1="254.5511" y2="254.5511"/><ellipse cx="716.5" cy="268.2952" fill="none" rx="3" ry="3" style="stroke:#038048;stroke-width:1.0;"/><text fill="#000000" font-family="sans-serif" font-size="14" lengthAdjust="spacing" textLength="116" x="725.5" y="272.0862">kodeverdi: string</text><ellipse cx="716.5" cy="284.7835" fill="none" rx="3" ry="3" style="stroke:#038048;stroke-width:1.0;"/><text fill="#000000" font-family="sans-serif" font-size="14" lengthAdjust="spacing" textLength="158" x="725.5" y="288.5745">kodebeskrivelse: string</text><line style="stroke:#181818;stroke-width:0.5;" x1="706.5" x2="888.5" y1="295.5277" y2="295.5277"/></g><!--class ForslagstillerType--><g id="elem_ForslagstillerType"><rect codeLine="27" fill="#F1F1F1" height="89.5977" id="ForslagstillerType" rx="2.5" ry="2.5" style="stroke:#181818;stroke-width:0.5;" width="184" x="924.5" y="213.93"/><ellipse cx="953" cy="234.2405" fill="#ADD1B2" rx="11" ry="11" style="stroke:#181818;stroke-width:1.0;"/><path d="M955.4731,240.3836 Q954.8921,240.6824 954.2529,240.8319 Q953.6138,240.9813 952.9082,240.9813 Q950.4014,240.9813 949.0815,239.3294 Q947.7617,237.6776 947.7617,234.5565 Q947.7617,231.4271 949.0815,229.7752 Q950.4014,228.1234 952.9082,228.1234 Q953.6138,228.1234 954.2612,228.2728 Q954.9087,228.4222 955.4731,228.721 L955.4731,231.4437 Q954.8423,230.8626 954.2488,230.5928 Q953.6553,230.3231 953.0244,230.3231 Q951.6797,230.3231 950.9949,231.3897 Q950.3101,232.4564 950.3101,234.5565 Q950.3101,236.6483 950.9949,237.7149 Q951.6797,238.7816 953.0244,238.7816 Q953.6553,238.7816 954.2488,238.5118 Q954.8423,238.242 955.4731,237.661 Z " fill="#000000"/><text fill="#000000" font-family="sans-serif" font-size="12" font-style="italic" lengthAdjust="spacing" textLength="42" x="1010" y="230.5316">&#171;Kode&#187;</text><text fill="#000000" font-family="sans-serif" font-size="14" lengthAdjust="spacing" textLength="122" x="970" y="246.598">ForslagstillerType</text><line style="stroke:#181818;stroke-width:0.5;" x1="925.5" x2="1107.5" y1="254.5511" y2="254.5511"/><ellipse cx="935.5" cy="268.2952" fill="none" rx="3" ry="3" style="stroke:#038048;stroke-width:1.0;"/><text fill="#000000" font-family="sans-serif" font-size="14" lengthAdjust="spacing" textLength="116" x="944.5" y="272.0862">kodeverdi: string</text><ellipse cx="935.5" cy="284.7835" fill="none" rx="3" ry="3" style="stroke:#038048;stroke-width:1.0;"/><text fill="#000000" font-family="sans-serif" font-size="14" lengthAdjust="spacing" textLength="158" x="944.5" y="288.5745">kodebeskrivelse: string</text><line style="stroke:#181818;stroke-width:0.5;" x1="925.5" x2="1107.5" y1="295.5277" y2="295.5277"/></g><!--link OpprettArealplan to Plantype--><g id="link_OpprettArealplan_Plantype"><path codeLine="32" d="M488.16,154.18 C463.18,174.28 436.83,195.49 414.52,213.44 " fill="none" id="OpprettArealplan-Plantype" style="stroke:#181818;stroke-width:1.0;"/></g><!--link OpprettArealplan to Planstatus--><g id="link_OpprettArealplan_Planstatus"><path codeLine="33" d="M578.5,154.18 C578.5,174.28 578.5,195.49 578.5,213.44 " fill="none" id="OpprettArealplan-Planstatus" style="stroke:#181818;stroke-width:1.0;"/></g><!--link OpprettArealplan to Lovreferanse--><g id="link_OpprettArealplan_Lovreferanse"><path codeLine="34" d="M668.84,154.18 C693.82,174.28 720.17,195.49 742.48,213.44 " fill="none" id="OpprettArealplan-Lovreferanse" style="stroke:#181818;stroke-width:1.0;"/></g><!--link OpprettArealplan to ForslagstillerType--><g id="link_OpprettArealplan_ForslagstillerType"><path codeLine="35" d="M714.39,136.15 C782.58,163.6 863.4,196.12 924.29,220.62 " fill="none" id="OpprettArealplan-ForslagstillerType" style="stroke:#181818;stroke-width:1.0;"/></g><!--link OpprettArealplan to Saksnummer--><g id="link_OpprettArealplan_Saksnummer"><path codeLine="36" d="M442.65,133.64 C372.46,160.59 288.17,192.96 223.28,217.88 " fill="none" id="OpprettArealplan-Saksnummer" style="stroke:#181818;stroke-width:1.0;"/></g><!--SRC=[hLB1QiGW4BtdA-ovx0Hw3Cj2Bxsqq4Bx0tOpMIIpHcQCK4h_lOh9ch3ffQm7URwdptcETyOUQMnHGGrGsm5wWSx4oP6s41wWGo8K4DsB7SzdvBf0S6DL7KcBg5Vd6Br_PDIKZghlIiLndx3LmJPAF1jxAgp_SjYejmaLNhpsesGbuwpH41WxvCZ6So-BLTPBMOrwl-2iTGCBwPDu4yDmllbfnNsa6dxcD7DLQhz_7bey7EOuVLm5vDQiyoJw4wLd4v1IUPEuCinXRcQvV86RcLu_oiNwtyvNNsEtAst_IvmwloMlMh-rOQEpMziMd-GN]--></g></svg>