<svg xmlns="http://www.w3.org/2000/svg" xmlns:xlink="http://www.w3.org/1999/xlink" contentStyleType="text/css" data-diagram-type="CLASS" height="641px" preserveAspectRatio="none" style="width:1121px;height:641px;background:#FFFFFF;" version="1.1" viewBox="0 0 1121 641" width="1121px" zoomAndPan="magnify"><defs/><g><!--class Saksnummer--><g class="entity" data-entity="Saksnummer" data-source-line="2" data-uid="ent0002" id="entity_Saksnummer"><rect fill="#F1F1F1" height="80.9766" rx="2.5" ry="2.5" style="stroke:#181818;stroke-width:0.5;" width="224.1123" x="7" y="371.4"/><ellipse cx="70.9878" cy="387.4" fill="#ADD1B2" rx="11" ry="11" style="stroke:#181818;stroke-width:1;"/><path d="M73.4609,393.5431 Q72.8799,393.8419 72.2407,393.9913 Q71.6016,394.1407 70.896,394.1407 Q68.3892,394.1407 67.0693,392.4889 Q65.7495,390.837 65.7495,387.7159 Q65.7495,384.5865 67.0693,382.9347 Q68.3892,381.2828 70.896,381.2828 Q71.6016,381.2828 72.249,381.4322 Q72.8965,381.5816 73.4609,381.8805 L73.4609,384.6031 Q72.8301,384.0221 72.2366,383.7523 Q71.6431,383.4825 71.0122,383.4825 Q69.6675,383.4825 68.9827,384.5492 Q68.2979,385.6158 68.2979,387.7159 Q68.2979,389.8077 68.9827,390.8744 Q69.6675,391.941 71.0122,391.941 Q71.6431,391.941 72.2366,391.6712 Q72.8301,391.4015 73.4609,390.8204 Z " fill="#000000"/><text fill="#000000" font-family="sans-serif" font-size="14" lengthAdjust="spacing" textLength="87.6367" x="91.4878" y="392.691">Saksnummer</text><line style="stroke:#181818;stroke-width:0.5;" x1="8" x2="230.1123" y1="403.4" y2="403.4"/><ellipse cx="18" cy="417.1441" fill="none" rx="3" ry="3" style="stroke:#038048;stroke-width:1;"/><text fill="#000000" font-family="sans-serif" font-size="14" lengthAdjust="spacing" textLength="108.2676" x="27" y="420.9352">saksaar: integer</text><ellipse cx="18" cy="433.6324" fill="none" rx="3" ry="3" style="stroke:#038048;stroke-width:1;"/><text fill="#000000" font-family="sans-serif" font-size="14" lengthAdjust="spacing" textLength="198.1123" x="27" y="437.4234">sakssekvensnummer: integer</text><line style="stroke:#181818;stroke-width:0.5;" x1="8" x2="230.1123" y1="444.3766" y2="444.3766"/></g><!--class Posisjon--><g class="entity" data-entity="Posisjon" data-source-line="1" data-uid="ent0003" id="entity_Posisjon"><rect fill="#F1F1F1" height="97.4648" rx="2.5" ry="2.5" style="stroke:#181818;stroke-width:0.5;" width="262.4551" x="265.83" y="363.16"/><ellipse cx="364.705" cy="379.16" fill="#ADD1B2" rx="11" ry="11" style="stroke:#181818;stroke-width:1;"/><path d="M367.1781,385.3031 Q366.5971,385.6019 365.9579,385.7513 Q365.3188,385.9007 364.6132,385.9007 Q362.1064,385.9007 360.7865,384.2489 Q359.4667,382.597 359.4667,379.4759 Q359.4667,376.3465 360.7865,374.6947 Q362.1064,373.0428 364.6132,373.0428 Q365.3188,373.0428 365.9662,373.1922 Q366.6137,373.3416 367.1781,373.6405 L367.1781,376.3631 Q366.5473,375.7821 365.9538,375.5123 Q365.3603,375.2425 364.7294,375.2425 Q363.3847,375.2425 362.6999,376.3092 Q362.0151,377.3758 362.0151,379.4759 Q362.0151,381.5677 362.6999,382.6344 Q363.3847,383.701 364.7294,383.701 Q365.3603,383.701 365.9538,383.4312 Q366.5473,383.1615 367.1781,382.5804 Z " fill="#000000"/><text fill="#000000" font-family="sans-serif" font-size="14" lengthAdjust="spacing" textLength="56.2051" x="385.205" y="384.451">Posisjon</text><line style="stroke:#181818;stroke-width:0.5;" x1="266.83" x2="527.2851" y1="395.16" y2="395.16"/><ellipse cx="276.83" cy="408.9041" fill="none" rx="3" ry="3" style="stroke:#038048;stroke-width:1;"/><text fill="#000000" font-family="sans-serif" font-size="14" lengthAdjust="spacing" textLength="127.0049" x="285.83" y="412.6952">type: PosisjonType</text><ellipse cx="276.83" cy="425.3924" fill="none" rx="3" ry="3" style="stroke:#038048;stroke-width:1;"/><text fill="#000000" font-family="sans-serif" font-size="14" lengthAdjust="spacing" textLength="149.9053" x="285.83" y="429.1834">koordinater: number[]</text><ellipse cx="276.83" cy="441.8807" fill="none" rx="3" ry="3" style="stroke:#038048;stroke-width:1;"/><text fill="#000000" font-family="sans-serif" font-size="14" lengthAdjust="spacing" textLength="236.4551" x="285.83" y="445.6717">koordinatsystem: Koordinatsystem</text><line style="stroke:#181818;stroke-width:0.5;" x1="266.83" x2="527.2851" y1="452.6248" y2="452.6248"/></g><!--class Koordinatsystem--><g class="entity" data-entity="Koordinatsystem" data-source-line="7" data-uid="ent0004" id="entity_Koordinatsystem"><rect fill="#F1F1F1" height="89.5977" rx="2.5" ry="2.5" style="stroke:#181818;stroke-width:0.5;" width="183.5547" x="154.28" y="545.35"/><ellipse cx="186.0552" cy="565.6605" fill="#ADD1B2" rx="11" ry="11" style="stroke:#181818;stroke-width:1;"/><path d="M188.5284,571.8036 Q187.9473,572.1024 187.3082,572.2519 Q186.669,572.4013 185.9634,572.4013 Q183.4566,572.4013 182.1368,570.7494 Q180.817,569.0976 180.817,565.9765 Q180.817,562.8471 182.1368,561.1952 Q183.4566,559.5434 185.9634,559.5434 Q186.669,559.5434 187.3165,559.6928 Q187.9639,559.8422 188.5284,560.141 L188.5284,562.8637 Q187.8975,562.2826 187.304,562.0128 Q186.7105,561.7431 186.0797,561.7431 Q184.7349,561.7431 184.0501,562.8097 Q183.3653,563.8764 183.3653,565.9765 Q183.3653,568.0683 184.0501,569.1349 Q184.7349,570.2016 186.0797,570.2016 Q186.7105,570.2016 187.304,569.9318 Q187.8975,569.662 188.5284,569.081 Z " fill="#000000"/><text fill="#000000" font-family="sans-serif" font-size="12" font-style="italic" lengthAdjust="spacing" textLength="42.0176" x="239.9125" y="561.9516">&#171;Kode&#187;</text><text fill="#000000" font-family="sans-serif" font-size="14" lengthAdjust="spacing" textLength="114.2764" x="203.7831" y="578.018">Koordinatsystem</text><line style="stroke:#181818;stroke-width:0.5;" x1="155.28" x2="336.8347" y1="585.9711" y2="585.9711"/><ellipse cx="165.28" cy="599.7152" fill="none" rx="3" ry="3" style="stroke:#038048;stroke-width:1;"/><text fill="#000000" font-family="sans-serif" font-size="14" lengthAdjust="spacing" textLength="115.4521" x="174.28" y="603.5063">kodeverdi: string</text><ellipse cx="165.28" cy="616.2035" fill="none" rx="3" ry="3" style="stroke:#038048;stroke-width:1;"/><text fill="#000000" font-family="sans-serif" font-size="14" lengthAdjust="spacing" textLength="157.5547" x="174.28" y="619.9945">kodebeskrivelse: string</text><line style="stroke:#181818;stroke-width:0.5;" x1="155.28" x2="336.8347" y1="626.9477" y2="626.9477"/></g><!--class PosisjonType--><g class="entity" data-entity="PosisjonType" data-source-line="8" data-uid="ent0006" id="entity_PosisjonType"><rect fill="#F1F1F1" height="64.4883" rx="2.5" ry="2.5" style="stroke:#181818;stroke-width:0.5;" width="120.9834" x="372.56" y="557.91"/><ellipse cx="387.56" cy="573.91" fill="#EB937F" rx="11" ry="11" style="stroke:#181818;stroke-width:1;"/><path d="M391.1743,580.41 L383.4545,580.41 L383.4545,568.0169 L391.1743,568.0169 L391.1743,570.1751 L385.9033,570.1751 L385.9033,572.848 L390.6762,572.848 L390.6762,575.0062 L385.9033,575.0062 L385.9033,578.2518 L391.1743,578.2518 Z " fill="#000000"/><text fill="#000000" font-family="sans-serif" font-size="14" lengthAdjust="spacing" textLength="88.9834" x="401.56" y="579.201">PosisjonType</text><line style="stroke:#181818;stroke-width:0.5;" x1="373.56" x2="492.5434" y1="589.91" y2="589.91"/><text fill="#000000" font-family="sans-serif" font-size="14" lengthAdjust="spacing" textLength="34.3096" x="378.56" y="607.4452">Point</text><line style="stroke:#181818;stroke-width:0.5;" x1="373.56" x2="492.5434" y1="614.3983" y2="614.3983"/></g><!--class Dokument--><g class="entity" data-entity="Dokument" data-source-line="1" data-uid="ent0008" id="entity_Dokument"><rect fill="#F1F1F1" height="146.9297" rx="2.5" ry="2.5" style="stroke:#181818;stroke-width:0.5;" width="333.0908" x="563.51" y="338.42"/><ellipse cx="690.4294" cy="354.42" fill="#ADD1B2" rx="11" ry="11" style="stroke:#181818;stroke-width:1;"/><path d="M692.9026,360.5631 Q692.3215,360.8619 691.6824,361.0113 Q691.0432,361.1607 690.3376,361.1607 Q687.8308,361.1607 686.511,359.5089 Q685.1912,357.857 685.1912,354.7359 Q685.1912,351.6065 686.511,349.9547 Q687.8308,348.3028 690.3376,348.3028 Q691.0432,348.3028 691.6907,348.4522 Q692.3381,348.6016 692.9026,348.9005 L692.9026,351.6231 Q692.2717,351.0421 691.6782,350.7723 Q691.0847,350.5025 690.4538,350.5025 Q689.1091,350.5025 688.4243,351.5692 Q687.7395,352.6358 687.7395,354.7359 Q687.7395,356.8277 688.4243,357.8944 Q689.1091,358.961 690.4538,358.961 Q691.0847,358.961 691.6782,358.6912 Q692.2717,358.4215 692.9026,357.8404 Z " fill="#000000"/><text fill="#000000" font-family="sans-serif" font-size="14" lengthAdjust="spacing" textLength="70.752" x="710.9294" y="359.711">Dokument</text><line style="stroke:#181818;stroke-width:0.5;" x1="564.51" x2="895.6008" y1="370.42" y2="370.42"/><ellipse cx="574.51" cy="384.1641" fill="none" rx="3" ry="3" style="stroke:#038048;stroke-width:1;"/><text fill="#000000" font-family="sans-serif" font-size="14" lengthAdjust="spacing" textLength="80.0283" x="583.51" y="387.9552">tittel: string</text><ellipse cx="574.51" cy="400.6524" fill="none" rx="3" ry="3" style="stroke:#038048;stroke-width:1;"/><text fill="#000000" font-family="sans-serif" font-size="14" lengthAdjust="spacing" textLength="207.0127" x="583.51" y="404.4434">dokumenttype: Dokumenttype</text><ellipse cx="574.51" cy="417.1407" fill="none" rx="3" ry="3" style="stroke:#038048;stroke-width:1;"/><text fill="#000000" font-family="sans-serif" font-size="14" lengthAdjust="spacing" textLength="307.0908" x="583.51" y="420.9317">referanseDokumentfil: ReferanseDokumentfil</text><ellipse cx="574.51" cy="433.629" fill="none" rx="3" ry="3" style="stroke:#038048;stroke-width:1;"/><text fill="#000000" font-family="sans-serif" font-size="14" lengthAdjust="spacing" textLength="115.5752" x="583.51" y="437.42">mimetype: string</text><ellipse cx="574.51" cy="450.1173" fill="none" rx="3" ry="3" style="stroke:#038048;stroke-width:1;"/><text fill="#000000" font-family="sans-serif" font-size="14" lengthAdjust="spacing" textLength="145.0313" x="583.51" y="453.9083">dokumentsdato: date</text><ellipse cx="574.51" cy="466.6055" fill="none" rx="3" ry="3" style="stroke:#038048;stroke-width:1;"/><text fill="#000000" font-family="sans-serif" font-size="14" lengthAdjust="spacing" textLength="113.7158" x="583.51" y="470.3966">arkivnavn: string</text><line style="stroke:#181818;stroke-width:0.5;" x1="564.51" x2="895.6008" y1="477.3497" y2="477.3497"/></g><!--class Dokumenttype--><g class="entity" data-entity="Dokumenttype" data-source-line="10" data-uid="ent0009" id="entity_Dokumenttype"><rect fill="#F1F1F1" height="89.5977" rx="2.5" ry="2.5" style="stroke:#181818;stroke-width:0.5;" width="183.5547" x="601.28" y="545.35"/><ellipse cx="639.5183" cy="565.6605" fill="#ADD1B2" rx="11" ry="11" style="stroke:#181818;stroke-width:1;"/><path d="M641.9914,571.8036 Q641.4104,572.1024 640.7712,572.2519 Q640.1321,572.4013 639.4265,572.4013 Q636.9196,572.4013 635.5998,570.7494 Q634.28,569.0976 634.28,565.9765 Q634.28,562.8471 635.5998,561.1952 Q636.9196,559.5434 639.4265,559.5434 Q640.1321,559.5434 640.7795,559.6928 Q641.427,559.8422 641.9914,560.141 L641.9914,562.8637 Q641.3606,562.2826 640.7671,562.0128 Q640.1736,561.7431 639.5427,561.7431 Q638.198,561.7431 637.5132,562.8097 Q636.8283,563.8764 636.8283,565.9765 Q636.8283,568.0683 637.5132,569.1349 Q638.198,570.2016 639.5427,570.2016 Q640.1736,570.2016 640.7671,569.9318 Q641.3606,569.662 641.9914,569.081 Z " fill="#000000"/><text fill="#000000" font-family="sans-serif" font-size="12" font-style="italic" lengthAdjust="spacing" textLength="42.0176" x="687.6306" y="561.9516">&#171;Kode&#187;</text><text fill="#000000" font-family="sans-serif" font-size="14" lengthAdjust="spacing" textLength="99.9141" x="658.6823" y="578.018">Dokumenttype</text><line style="stroke:#181818;stroke-width:0.5;" x1="602.28" x2="783.8347" y1="585.9711" y2="585.9711"/><ellipse cx="612.28" cy="599.7152" fill="none" rx="3" ry="3" style="stroke:#038048;stroke-width:1;"/><text fill="#000000" font-family="sans-serif" font-size="14" lengthAdjust="spacing" textLength="115.4521" x="621.28" y="603.5063">kodeverdi: string</text><ellipse cx="612.28" cy="616.2035" fill="none" rx="3" ry="3" style="stroke:#038048;stroke-width:1;"/><text fill="#000000" font-family="sans-serif" font-size="14" lengthAdjust="spacing" textLength="157.5547" x="621.28" y="619.9945">kodebeskrivelse: string</text><line style="stroke:#181818;stroke-width:0.5;" x1="602.28" x2="783.8347" y1="626.9477" y2="626.9477"/></g><!--class ReferanseDokumentfil--><g class="entity" data-entity="ReferanseDokumentfil" data-source-line="11" data-uid="ent0011" id="entity_ReferanseDokumentfil"><rect fill="#F1F1F1" height="80.9766" rx="2.5" ry="2.5" style="stroke:#181818;stroke-width:0.5;" width="182.6777" x="819.72" y="549.66"/><ellipse cx="834.72" cy="565.66" fill="#ADD1B2" rx="11" ry="11" style="stroke:#181818;stroke-width:1;"/><path d="M837.1931,571.8031 Q836.6121,572.1019 835.9729,572.2513 Q835.3338,572.4007 834.6282,572.4007 Q832.1214,572.4007 830.8015,570.7489 Q829.4817,569.097 829.4817,565.9759 Q829.4817,562.8465 830.8015,561.1947 Q832.1214,559.5428 834.6282,559.5428 Q835.3338,559.5428 835.9812,559.6922 Q836.6287,559.8416 837.1931,560.1405 L837.1931,562.8631 Q836.5623,562.2821 835.9688,562.0123 Q835.3753,561.7425 834.7444,561.7425 Q833.3997,561.7425 832.7149,562.8092 Q832.0301,563.8758 832.0301,565.9759 Q832.0301,568.0677 832.7149,569.1344 Q833.3997,570.201 834.7444,570.201 Q835.3753,570.201 835.9688,569.9312 Q836.5623,569.6615 837.1931,569.0804 Z " fill="#000000"/><text fill="#000000" font-family="sans-serif" font-size="14" lengthAdjust="spacing" textLength="150.6777" x="848.72" y="570.951">ReferanseDokumentfil</text><line style="stroke:#181818;stroke-width:0.5;" x1="820.72" x2="1001.3977" y1="581.66" y2="581.66"/><ellipse cx="830.72" cy="595.4041" fill="none" rx="3" ry="3" style="stroke:#038048;stroke-width:1;"/><text fill="#000000" font-family="sans-serif" font-size="14" lengthAdjust="spacing" textLength="61.2842" x="839.72" y="599.1952">id: string</text><ellipse cx="830.72" cy="611.8924" fill="none" rx="3" ry="3" style="stroke:#038048;stroke-width:1;"/><text fill="#000000" font-family="sans-serif" font-size="14" lengthAdjust="spacing" textLength="66.8896" x="839.72" y="615.6834">url: string</text><line style="stroke:#181818;stroke-width:0.5;" x1="820.72" x2="1001.3977" y1="622.6366" y2="622.6366"/></g><!--class Planbehandling--><g class="entity" data-entity="Planbehandling" data-source-line="5" data-uid="ent0013" id="entity_Planbehandling"><rect fill="#F1F1F1" height="146.9297" rx="2.5" ry="2.5" style="stroke:#181818;stroke-width:0.5;" width="317.0264" x="404.54" y="131.49"/><ellipse cx="506.6792" cy="147.49" fill="#ADD1B2" rx="11" ry="11" style="stroke:#181818;stroke-width:1;"/><path d="M509.1523,153.6331 Q508.5713,153.9319 507.9321,154.0813 Q507.2929,154.2307 506.5874,154.2307 Q504.0805,154.2307 502.7607,152.5789 Q501.4409,150.927 501.4409,147.8059 Q501.4409,144.6765 502.7607,143.0247 Q504.0805,141.3728 506.5874,141.3728 Q507.2929,141.3728 507.9404,141.5222 Q508.5879,141.6716 509.1523,141.9705 L509.1523,144.6931 Q508.5214,144.1121 507.9279,143.8423 Q507.3344,143.5725 506.7036,143.5725 Q505.3588,143.5725 504.674,144.6392 Q503.9892,145.7058 503.9892,147.8059 Q503.9892,149.8977 504.674,150.9644 Q505.3588,152.031 506.7036,152.031 Q507.3344,152.031 507.9279,151.7612 Q508.5214,151.4915 509.1523,150.9104 Z " fill="#000000"/><text fill="#000000" font-family="sans-serif" font-size="14" lengthAdjust="spacing" textLength="104.248" x="527.1792" y="152.781">Planbehandling</text><line style="stroke:#181818;stroke-width:0.5;" x1="405.54" x2="720.5664" y1="163.49" y2="163.49"/><ellipse cx="415.54" cy="177.2341" fill="none" rx="3" ry="3" style="stroke:#038048;stroke-width:1;"/><text fill="#000000" font-family="sans-serif" font-size="14" lengthAdjust="spacing" textLength="122.3428" x="424.54" y="181.0252">posisjon: Posisjon</text><ellipse cx="415.54" cy="193.7224" fill="none" rx="3" ry="3" style="stroke:#038048;stroke-width:1;"/><text fill="#000000" font-family="sans-serif" font-size="14" lengthAdjust="spacing" textLength="68.8174" x="424.54" y="197.5134">dato: date</text><ellipse cx="415.54" cy="210.2107" fill="none" rx="3" ry="3" style="stroke:#038048;stroke-width:1;"/><text fill="#000000" font-family="sans-serif" font-size="14" lengthAdjust="spacing" textLength="183.7295" x="424.54" y="214.0017">saksnummer: Saksnummer</text><ellipse cx="415.54" cy="226.699" fill="none" rx="3" ry="3" style="stroke:#038048;stroke-width:1;"/><text fill="#000000" font-family="sans-serif" font-size="14" lengthAdjust="spacing" textLength="291.0264" x="424.54" y="230.49">planbehandlingstype: Planbehandlingstype</text><ellipse cx="415.54" cy="243.1873" fill="none" rx="3" ry="3" style="stroke:#038048;stroke-width:1;"/><text fill="#000000" font-family="sans-serif" font-size="14" lengthAdjust="spacing" textLength="80.7803" x="424.54" y="246.9783">navn: string</text><ellipse cx="415.54" cy="259.6755" fill="none" rx="3" ry="3" style="stroke:#038048;stroke-width:1;"/><text fill="#000000" font-family="sans-serif" font-size="14" lengthAdjust="spacing" textLength="200.6006" x="424.54" y="263.4666">plandokumenter: Dokument[]</text><line style="stroke:#181818;stroke-width:0.5;" x1="405.54" x2="720.5664" y1="270.4197" y2="270.4197"/></g><!--class Planbehandlingstype--><g class="entity" data-entity="Planbehandlingstype" data-source-line="16" data-uid="ent0016" id="entity_Planbehandlingstype"><rect fill="#F1F1F1" height="89.5977" rx="2.5" ry="2.5" style="stroke:#181818;stroke-width:0.5;" width="183.5547" x="931.28" y="367.09"/><ellipse cx="951.2335" cy="387.4005" fill="#ADD1B2" rx="11" ry="11" style="stroke:#181818;stroke-width:1;"/><path d="M953.7067,393.5436 Q953.1256,393.8424 952.4864,393.9919 Q951.8473,394.1413 951.1417,394.1413 Q948.6349,394.1413 947.3151,392.4894 Q945.9952,390.8376 945.9952,387.7165 Q945.9952,384.5871 947.3151,382.9352 Q948.6349,381.2834 951.1417,381.2834 Q951.8473,381.2834 952.4947,381.4328 Q953.1422,381.5822 953.7067,381.881 L953.7067,384.6037 Q953.0758,384.0226 952.4823,383.7528 Q951.8888,383.4831 951.2579,383.4831 Q949.9132,383.4831 949.2284,384.5497 Q948.5436,385.6164 948.5436,387.7165 Q948.5436,389.8083 949.2284,390.8749 Q949.9132,391.9416 951.2579,391.9416 Q951.8888,391.9416 952.4823,391.6718 Q953.0758,391.402 953.7067,390.821 Z " fill="#000000"/><text fill="#000000" font-family="sans-serif" font-size="12" font-style="italic" lengthAdjust="spacing" textLength="42.0176" x="1015.5989" y="383.6916">&#171;Kode&#187;</text><text fill="#000000" font-family="sans-serif" font-size="14" lengthAdjust="spacing" textLength="140.5469" x="966.3343" y="399.758">Planbehandlingstype</text><line style="stroke:#181818;stroke-width:0.5;" x1="932.28" x2="1113.8347" y1="407.7111" y2="407.7111"/><ellipse cx="942.28" cy="421.4552" fill="none" rx="3" ry="3" style="stroke:#038048;stroke-width:1;"/><text fill="#000000" font-family="sans-serif" font-size="14" lengthAdjust="spacing" textLength="115.4521" x="951.28" y="425.2463">kodeverdi: string</text><ellipse cx="942.28" cy="437.9435" fill="none" rx="3" ry="3" style="stroke:#038048;stroke-width:1;"/><text fill="#000000" font-family="sans-serif" font-size="14" lengthAdjust="spacing" textLength="157.5547" x="951.28" y="441.7345">kodebeskrivelse: string</text><line style="stroke:#181818;stroke-width:0.5;" x1="932.28" x2="1113.8347" y1="448.6877" y2="448.6877"/></g><!--class FinnPlanbehandlingerResultat--><g class="entity" data-entity="FinnPlanbehandlingerResultat" data-source-line="3" data-uid="ent0019" id="entity_FinnPlanbehandlingerResultat"><rect fill="#F1F1F1" height="64.4883" rx="2.5" ry="2.5" style="stroke:#181818;stroke-width:0.5;" width="267.0625" x="429.52" y="7"/><ellipse cx="459.6526" cy="23" fill="#ADD1B2" rx="11" ry="11" style="stroke:#181818;stroke-width:1;"/><path d="M462.1257,29.1431 Q461.5447,29.4419 460.9055,29.5913 Q460.2663,29.7407 459.5608,29.7407 Q457.0539,29.7407 455.7341,28.0889 Q454.4143,26.437 454.4143,23.3159 Q454.4143,20.1865 455.7341,18.5347 Q457.0539,16.8828 459.5608,16.8828 Q460.2663,16.8828 460.9138,17.0322 Q461.5613,17.1816 462.1257,17.4805 L462.1257,20.2031 Q461.4949,19.6221 460.9013,19.3523 Q460.3078,19.0825 459.677,19.0825 Q458.3323,19.0825 457.6474,20.1492 Q456.9626,21.2158 456.9626,23.3159 Q456.9626,25.4077 457.6474,26.4744 Q458.3323,27.541 459.677,27.541 Q460.3078,27.541 460.9013,27.2712 Q461.4949,27.0015 462.1257,26.4204 Z " fill="#000000"/><text fill="#000000" font-family="sans-serif" font-size="14" lengthAdjust="spacing" textLength="201.4346" x="477.0154" y="28.291">FinnPlanbehandlingerResultat</text><line style="stroke:#181818;stroke-width:0.5;" x1="430.52" x2="695.5825" y1="39" y2="39"/><ellipse cx="440.52" cy="52.7441" fill="none" rx="3" ry="3" style="stroke:#038048;stroke-width:1;"/><text fill="#000000" font-family="sans-serif" font-size="14" lengthAdjust="spacing" textLength="241.0625" x="449.52" y="56.5352">planbehandlinger: Planbehandling[]</text><line style="stroke:#181818;stroke-width:0.5;" x1="430.52" x2="695.5825" y1="63.4883" y2="63.4883"/></g><!--link Posisjon to Koordinatsystem--><g class="link" data-entity-1="Posisjon" data-entity-2="Koordinatsystem" data-source-line="7" data-uid="lnk5" id="link_Posisjon_Koordinatsystem"><path codeLine="7" d="M355.79,461.05 C333.35,487.25 305.79,519.42 283.9,544.97" fill="none" id="Posisjon-Koordinatsystem" style="stroke:#181818;stroke-width:1;"/></g><!--link Posisjon to PosisjonType--><g class="link" data-entity-1="Posisjon" data-entity-2="PosisjonType" data-source-line="8" data-uid="lnk7" id="link_Posisjon_PosisjonType"><path codeLine="8" d="M406.89,461.05 C413.16,491.73 421.1,530.61 426.58,557.45" fill="none" id="Posisjon-PosisjonType" style="stroke:#181818;stroke-width:1;"/></g><!--link Dokument to Dokumenttype--><g class="link" data-entity-1="Dokument" data-entity-2="Dokumenttype" data-source-line="10" data-uid="lnk10" id="link_Dokument_Dokumenttype"><path codeLine="10" d="M714.79,485.6 C710.57,505.7 706.12,526.91 702.35,544.86" fill="none" id="Dokument-Dokumenttype" style="stroke:#181818;stroke-width:1;"/></g><!--link Dokument to ReferanseDokumentfil--><g class="link" data-entity-1="Dokument" data-entity-2="ReferanseDokumentfil" data-source-line="11" data-uid="lnk12" id="link_Dokument_ReferanseDokumentfil"><path codeLine="11" d="M804.72,485.6 C827.12,507.41 850.85,530.52 870.2,549.36" fill="none" id="Dokument-ReferanseDokumentfil" style="stroke:#181818;stroke-width:1;"/></g><!--link Planbehandling to Posisjon--><g class="link" data-entity-1="Planbehandling" data-entity-2="Posisjon" data-source-line="14" data-uid="lnk14" id="link_Planbehandling_Posisjon"><path codeLine="14" d="M504.06,278.79 C481.42,306.74 456.16,337.92 435.88,362.96" fill="none" id="Planbehandling-Posisjon" style="stroke:#181818;stroke-width:1;"/></g><!--link Planbehandling to Saksnummer--><g class="link" data-entity-1="Planbehandling" data-entity-2="Saksnummer" data-source-line="15" data-uid="lnk15" id="link_Planbehandling_Saksnummer"><path codeLine="15" d="M404.06,268.69 C353.63,289.68 298.02,313.98 248.06,338.42 C227.75,348.36 206.16,360.02 186.57,371.06" fill="none" id="Planbehandling-Saksnummer" style="stroke:#181818;stroke-width:1;"/></g><!--link Planbehandling to Planbehandlingstype--><g class="link" data-entity-1="Planbehandling" data-entity-2="Planbehandlingstype" data-source-line="16" data-uid="lnk17" id="link_Planbehandling_Planbehandlingstype"><path codeLine="16" d="M721.83,257.28 C783.22,279.33 853.2,307.22 914.06,338.42 C930.03,346.61 946.53,356.65 961.7,366.61" fill="none" id="Planbehandling-Planbehandlingstype" style="stroke:#181818;stroke-width:1;"/></g><!--link Planbehandling to Dokument--><g class="link" data-entity-1="Planbehandling" data-entity-2="Dokument" data-source-line="17" data-uid="lnk18" id="link_Planbehandling_Dokument"><path codeLine="17" d="M622.4,278.79 C638.06,298 654.96,318.73 670.62,337.95" fill="none" id="Planbehandling-Dokument" style="stroke:#181818;stroke-width:1;"/></g><!--link FinnPlanbehandlingerResultat to Planbehandling--><g class="link" data-entity-1="FinnPlanbehandlingerResultat" data-entity-2="Planbehandling" data-source-line="7" data-uid="lnk20" id="link_FinnPlanbehandlingerResultat_Planbehandling"><path codeLine="7" d="M563.06,71.81 C563.06,88.72 563.06,110.31 563.06,131.11" fill="none" id="FinnPlanbehandlingerResultat-Planbehandling" style="stroke:#181818;stroke-width:1;"/></g><!--SRC=[KypCIyufJKbLqDFNqzFFozVBBjPBomGI1Jc9UNfbHdffgJavgH1kKcf6ObvAJcPUkZugLw-Wb8ihEIUnk5Z1BJClBm15ChKeABMuDASaiKIXcai12BGBqEIj551rHCTorN9nuJL9LnTD3nS0]--></g></svg>