<svg xmlns="http://www.w3.org/2000/svg" xmlns:xlink="http://www.w3.org/1999/xlink" contentStyleType="text/css" height="641px" preserveAspectRatio="none" style="width:1126px;height:641px;background:#FFFFFF;" version="1.1" viewBox="0 0 1126 641" width="1126px" zoomAndPan="magnify"><defs/><g><!--class Saksnummer--><g id="elem_Saksnummer"><rect codeLine="2" fill="#F1F1F1" height="80.9766" id="Saksnummer" rx="2.5" ry="2.5" style="stroke:#181818;stroke-width:0.5;" width="225" x="7" y="371.4"/><ellipse cx="70.75" cy="387.4" fill="#ADD1B2" rx="11" ry="11" style="stroke:#181818;stroke-width:1.0;"/><path d="M73.2231,393.5431 Q72.6421,393.8419 72.0029,393.9913 Q71.3638,394.1407 70.6582,394.1407 Q68.1514,394.1407 66.8315,392.4889 Q65.5117,390.837 65.5117,387.7159 Q65.5117,384.5865 66.8315,382.9347 Q68.1514,381.2828 70.6582,381.2828 Q71.3638,381.2828 72.0112,381.4322 Q72.6587,381.5816 73.2231,381.8805 L73.2231,384.6031 Q72.5923,384.0221 71.9988,383.7523 Q71.4053,383.4825 70.7744,383.4825 Q69.4297,383.4825 68.7449,384.5492 Q68.0601,385.6158 68.0601,387.7159 Q68.0601,389.8077 68.7449,390.8744 Q69.4297,391.941 70.7744,391.941 Q71.4053,391.941 71.9988,391.6712 Q72.5923,391.4015 73.2231,390.8204 Z " fill="#000000"/><text fill="#000000" font-family="sans-serif" font-size="14" lengthAdjust="spacing" textLength="89" x="91.25" y="392.691">Saksnummer</text><line style="stroke:#181818;stroke-width:0.5;" x1="8" x2="231" y1="403.4" y2="403.4"/><ellipse cx="18" cy="417.1441" fill="none" rx="3" ry="3" style="stroke:#038048;stroke-width:1.0;"/><text fill="#000000" font-family="sans-serif" font-size="14" lengthAdjust="spacing" textLength="109" x="27" y="420.9352">saksaar: integer</text><ellipse cx="18" cy="433.6324" fill="none" rx="3" ry="3" style="stroke:#038048;stroke-width:1.0;"/><text fill="#000000" font-family="sans-serif" font-size="14" lengthAdjust="spacing" textLength="199" x="27" y="437.4234">sakssekvensnummer: integer</text><line style="stroke:#181818;stroke-width:0.5;" x1="8" x2="231" y1="444.3766" y2="444.3766"/></g><!--class Posisjon--><g id="elem_Posisjon"><rect codeLine="1" fill="#F1F1F1" height="97.4648" id="Posisjon" rx="2.5" ry="2.5" style="stroke:#181818;stroke-width:0.5;" width="263" x="267" y="363.16"/><ellipse cx="365.75" cy="379.16" fill="#ADD1B2" rx="11" ry="11" style="stroke:#181818;stroke-width:1.0;"/><path d="M368.2231,385.3031 Q367.6421,385.6019 367.0029,385.7513 Q366.3638,385.9007 365.6582,385.9007 Q363.1514,385.9007 361.8315,384.2489 Q360.5117,382.597 360.5117,379.4759 Q360.5117,376.3465 361.8315,374.6947 Q363.1514,373.0428 365.6582,373.0428 Q366.3638,373.0428 367.0112,373.1922 Q367.6587,373.3416 368.2231,373.6405 L368.2231,376.3631 Q367.5923,375.7821 366.9988,375.5123 Q366.4053,375.2425 365.7744,375.2425 Q364.4297,375.2425 363.7449,376.3092 Q363.0601,377.3758 363.0601,379.4759 Q363.0601,381.5677 363.7449,382.6344 Q364.4297,383.701 365.7744,383.701 Q366.4053,383.701 366.9988,383.4312 Q367.5923,383.1615 368.2231,382.5804 Z " fill="#000000"/><text fill="#000000" font-family="sans-serif" font-size="14" lengthAdjust="spacing" textLength="57" x="386.25" y="384.451">Posisjon</text><line style="stroke:#181818;stroke-width:0.5;" x1="268" x2="529" y1="395.16" y2="395.16"/><ellipse cx="278" cy="408.9041" fill="none" rx="3" ry="3" style="stroke:#038048;stroke-width:1.0;"/><text fill="#000000" font-family="sans-serif" font-size="14" lengthAdjust="spacing" textLength="127" x="287" y="412.6952">type: PosisjonType</text><ellipse cx="278" cy="425.3924" fill="none" rx="3" ry="3" style="stroke:#038048;stroke-width:1.0;"/><text fill="#000000" font-family="sans-serif" font-size="14" lengthAdjust="spacing" textLength="153" x="287" y="429.1834">koordinater: number[]</text><ellipse cx="278" cy="441.8807" fill="none" rx="3" ry="3" style="stroke:#038048;stroke-width:1.0;"/><text fill="#000000" font-family="sans-serif" font-size="14" lengthAdjust="spacing" textLength="237" x="287" y="445.6717">koordinatsystem: Koordinatsystem</text><line style="stroke:#181818;stroke-width:0.5;" x1="268" x2="529" y1="452.6248" y2="452.6248"/></g><!--class Koordinatsystem--><g id="elem_Koordinatsystem"><rect codeLine="10" fill="#F1F1F1" height="89.5977" id="Koordinatsystem" rx="2.5" ry="2.5" style="stroke:#181818;stroke-width:0.5;" width="184" x="154.5" y="545.35"/><ellipse cx="186.15" cy="565.6605" fill="#ADD1B2" rx="11" ry="11" style="stroke:#181818;stroke-width:1.0;"/><path d="M188.6231,571.8036 Q188.0421,572.1024 187.4029,572.2519 Q186.7638,572.4013 186.0582,572.4013 Q183.5514,572.4013 182.2315,570.7494 Q180.9117,569.0976 180.9117,565.9765 Q180.9117,562.8471 182.2315,561.1952 Q183.5514,559.5434 186.0582,559.5434 Q186.7638,559.5434 187.4112,559.6928 Q188.0587,559.8422 188.6231,560.141 L188.6231,562.8637 Q187.9923,562.2826 187.3988,562.0128 Q186.8053,561.7431 186.1744,561.7431 Q184.8297,561.7431 184.1449,562.8097 Q183.4601,563.8764 183.4601,565.9765 Q183.4601,568.0683 184.1449,569.1349 Q184.8297,570.2016 186.1744,570.2016 Q186.8053,570.2016 187.3988,569.9318 Q187.9923,569.662 188.6231,569.081 Z " fill="#000000"/><text fill="#000000" font-family="sans-serif" font-size="12" font-style="italic" lengthAdjust="spacing" textLength="42" x="240.35" y="561.9516">&#171;Kode&#187;</text><text fill="#000000" font-family="sans-serif" font-size="14" lengthAdjust="spacing" textLength="115" x="203.85" y="578.018">Koordinatsystem</text><line style="stroke:#181818;stroke-width:0.5;" x1="155.5" x2="337.5" y1="585.9711" y2="585.9711"/><ellipse cx="165.5" cy="599.7152" fill="none" rx="3" ry="3" style="stroke:#038048;stroke-width:1.0;"/><text fill="#000000" font-family="sans-serif" font-size="14" lengthAdjust="spacing" textLength="116" x="174.5" y="603.5063">kodeverdi: string</text><ellipse cx="165.5" cy="616.2035" fill="none" rx="3" ry="3" style="stroke:#038048;stroke-width:1.0;"/><text fill="#000000" font-family="sans-serif" font-size="14" lengthAdjust="spacing" textLength="158" x="174.5" y="619.9945">kodebeskrivelse: string</text><line style="stroke:#181818;stroke-width:0.5;" x1="155.5" x2="337.5" y1="626.9477" y2="626.9477"/></g><!--class PosisjonType--><g id="elem_PosisjonType"><rect codeLine="15" fill="#F1F1F1" height="64.4883" id="PosisjonType" rx="2.5" ry="2.5" style="stroke:#181818;stroke-width:0.5;" width="122" x="373.5" y="557.91"/><ellipse cx="388.5" cy="573.91" fill="#EB937F" rx="11" ry="11" style="stroke:#181818;stroke-width:1.0;"/><path d="M392.1143,580.41 L384.3945,580.41 L384.3945,568.0169 L392.1143,568.0169 L392.1143,570.1751 L386.8433,570.1751 L386.8433,572.848 L391.6162,572.848 L391.6162,575.0062 L386.8433,575.0062 L386.8433,578.2518 L392.1143,578.2518 Z " fill="#000000"/><text fill="#000000" font-family="sans-serif" font-size="14" lengthAdjust="spacing" textLength="90" x="402.5" y="579.201">PosisjonType</text><line style="stroke:#181818;stroke-width:0.5;" x1="374.5" x2="494.5" y1="589.91" y2="589.91"/><text fill="#000000" font-family="sans-serif" font-size="14" lengthAdjust="spacing" textLength="35" x="379.5" y="607.4452">Point</text><line style="stroke:#181818;stroke-width:0.5;" x1="374.5" x2="494.5" y1="614.3983" y2="614.3983"/></g><!--class Dokument--><g id="elem_Dokument"><rect codeLine="1" fill="#F1F1F1" height="146.9297" id="Dokument" rx="2.5" ry="2.5" style="stroke:#181818;stroke-width:0.5;" width="335" x="565" y="338.42"/><ellipse cx="692.75" cy="354.42" fill="#ADD1B2" rx="11" ry="11" style="stroke:#181818;stroke-width:1.0;"/><path d="M695.2231,360.5631 Q694.6421,360.8619 694.0029,361.0113 Q693.3638,361.1607 692.6582,361.1607 Q690.1514,361.1607 688.8315,359.5089 Q687.5117,357.857 687.5117,354.7359 Q687.5117,351.6065 688.8315,349.9547 Q690.1514,348.3028 692.6582,348.3028 Q693.3638,348.3028 694.0112,348.4522 Q694.6587,348.6016 695.2231,348.9005 L695.2231,351.6231 Q694.5923,351.0421 693.9988,350.7723 Q693.4053,350.5025 692.7744,350.5025 Q691.4297,350.5025 690.7449,351.5692 Q690.0601,352.6358 690.0601,354.7359 Q690.0601,356.8277 690.7449,357.8944 Q691.4297,358.961 692.7744,358.961 Q693.4053,358.961 693.9988,358.6912 Q694.5923,358.4215 695.2231,357.8404 Z " fill="#000000"/><text fill="#000000" font-family="sans-serif" font-size="14" lengthAdjust="spacing" textLength="71" x="713.25" y="359.711">Dokument</text><line style="stroke:#181818;stroke-width:0.5;" x1="566" x2="899" y1="370.42" y2="370.42"/><ellipse cx="576" cy="384.1641" fill="none" rx="3" ry="3" style="stroke:#038048;stroke-width:1.0;"/><text fill="#000000" font-family="sans-serif" font-size="14" lengthAdjust="spacing" textLength="79" x="585" y="387.9552">tittel: string</text><ellipse cx="576" cy="400.6524" fill="none" rx="3" ry="3" style="stroke:#038048;stroke-width:1.0;"/><text fill="#000000" font-family="sans-serif" font-size="14" lengthAdjust="spacing" textLength="207" x="585" y="404.4434">dokumenttype: Dokumenttype</text><ellipse cx="576" cy="417.1407" fill="none" rx="3" ry="3" style="stroke:#038048;stroke-width:1.0;"/><text fill="#000000" font-family="sans-serif" font-size="14" lengthAdjust="spacing" textLength="309" x="585" y="420.9317">referanseDokumentfil: ReferanseDokumentfil</text><ellipse cx="576" cy="433.629" fill="none" rx="3" ry="3" style="stroke:#038048;stroke-width:1.0;"/><text fill="#000000" font-family="sans-serif" font-size="14" lengthAdjust="spacing" textLength="115" x="585" y="437.42">mimetype: string</text><ellipse cx="576" cy="450.1173" fill="none" rx="3" ry="3" style="stroke:#038048;stroke-width:1.0;"/><text fill="#000000" font-family="sans-serif" font-size="14" lengthAdjust="spacing" textLength="146" x="585" y="453.9083">dokumentsdato: date</text><ellipse cx="576" cy="466.6055" fill="none" rx="3" ry="3" style="stroke:#038048;stroke-width:1.0;"/><text fill="#000000" font-family="sans-serif" font-size="14" lengthAdjust="spacing" textLength="114" x="585" y="470.3966">arkivnavn: string</text><line style="stroke:#181818;stroke-width:0.5;" x1="566" x2="899" y1="477.3497" y2="477.3497"/></g><!--class Dokumenttype--><g id="elem_Dokumenttype"><rect codeLine="13" fill="#F1F1F1" height="89.5977" id="Dokumenttype" rx="2.5" ry="2.5" style="stroke:#181818;stroke-width:0.5;" width="184" x="603.5" y="545.35"/><ellipse cx="641.9" cy="565.6605" fill="#ADD1B2" rx="11" ry="11" style="stroke:#181818;stroke-width:1.0;"/><path d="M644.3731,571.8036 Q643.7921,572.1024 643.1529,572.2519 Q642.5138,572.4013 641.8082,572.4013 Q639.3014,572.4013 637.9815,570.7494 Q636.6617,569.0976 636.6617,565.9765 Q636.6617,562.8471 637.9815,561.1952 Q639.3014,559.5434 641.8082,559.5434 Q642.5138,559.5434 643.1612,559.6928 Q643.8087,559.8422 644.3731,560.141 L644.3731,562.8637 Q643.7423,562.2826 643.1488,562.0128 Q642.5553,561.7431 641.9244,561.7431 Q640.5797,561.7431 639.8949,562.8097 Q639.2101,563.8764 639.2101,565.9765 Q639.2101,568.0683 639.8949,569.1349 Q640.5797,570.2016 641.9244,570.2016 Q642.5553,570.2016 643.1488,569.9318 Q643.7423,569.662 644.3731,569.081 Z " fill="#000000"/><text fill="#000000" font-family="sans-serif" font-size="12" font-style="italic" lengthAdjust="spacing" textLength="42" x="690.1" y="561.9516">&#171;Kode&#187;</text><text fill="#000000" font-family="sans-serif" font-size="14" lengthAdjust="spacing" textLength="100" x="661.1" y="578.018">Dokumenttype</text><line style="stroke:#181818;stroke-width:0.5;" x1="604.5" x2="786.5" y1="585.9711" y2="585.9711"/><ellipse cx="614.5" cy="599.7152" fill="none" rx="3" ry="3" style="stroke:#038048;stroke-width:1.0;"/><text fill="#000000" font-family="sans-serif" font-size="14" lengthAdjust="spacing" textLength="116" x="623.5" y="603.5063">kodeverdi: string</text><ellipse cx="614.5" cy="616.2035" fill="none" rx="3" ry="3" style="stroke:#038048;stroke-width:1.0;"/><text fill="#000000" font-family="sans-serif" font-size="14" lengthAdjust="spacing" textLength="158" x="623.5" y="619.9945">kodebeskrivelse: string</text><line style="stroke:#181818;stroke-width:0.5;" x1="604.5" x2="786.5" y1="626.9477" y2="626.9477"/></g><!--class ReferanseDokumentfil--><g id="elem_ReferanseDokumentfil"><rect codeLine="18" fill="#F1F1F1" height="80.9766" id="ReferanseDokumentfil" rx="2.5" ry="2.5" style="stroke:#181818;stroke-width:0.5;" width="184" x="822.5" y="549.66"/><ellipse cx="837.5" cy="565.66" fill="#ADD1B2" rx="11" ry="11" style="stroke:#181818;stroke-width:1.0;"/><path d="M839.9731,571.8031 Q839.3921,572.1019 838.7529,572.2513 Q838.1138,572.4007 837.4082,572.4007 Q834.9014,572.4007 833.5815,570.7489 Q832.2617,569.097 832.2617,565.9759 Q832.2617,562.8465 833.5815,561.1947 Q834.9014,559.5428 837.4082,559.5428 Q838.1138,559.5428 838.7612,559.6922 Q839.4087,559.8416 839.9731,560.1405 L839.9731,562.8631 Q839.3423,562.2821 838.7488,562.0123 Q838.1553,561.7425 837.5244,561.7425 Q836.1797,561.7425 835.4949,562.8092 Q834.8101,563.8758 834.8101,565.9759 Q834.8101,568.0677 835.4949,569.1344 Q836.1797,570.201 837.5244,570.201 Q838.1553,570.201 838.7488,569.9312 Q839.3423,569.6615 839.9731,569.0804 Z " fill="#000000"/><text fill="#000000" font-family="sans-serif" font-size="14" lengthAdjust="spacing" textLength="152" x="851.5" y="570.951">ReferanseDokumentfil</text><line style="stroke:#181818;stroke-width:0.5;" x1="823.5" x2="1005.5" y1="581.66" y2="581.66"/><ellipse cx="833.5" cy="595.4041" fill="none" rx="3" ry="3" style="stroke:#038048;stroke-width:1.0;"/><text fill="#000000" font-family="sans-serif" font-size="14" lengthAdjust="spacing" textLength="61" x="842.5" y="599.1952">id: string</text><ellipse cx="833.5" cy="611.8924" fill="none" rx="3" ry="3" style="stroke:#038048;stroke-width:1.0;"/><text fill="#000000" font-family="sans-serif" font-size="14" lengthAdjust="spacing" textLength="67" x="842.5" y="615.6834">url: string</text><line style="stroke:#181818;stroke-width:0.5;" x1="823.5" x2="1005.5" y1="622.6366" y2="622.6366"/></g><!--class Planbehandling--><g id="elem_Planbehandling"><rect codeLine="5" fill="#F1F1F1" height="146.9297" id="Planbehandling" rx="2.5" ry="2.5" style="stroke:#181818;stroke-width:0.5;" width="321" x="405" y="131.49"/><ellipse cx="507.75" cy="147.49" fill="#ADD1B2" rx="11" ry="11" style="stroke:#181818;stroke-width:1.0;"/><path d="M510.2231,153.6331 Q509.6421,153.9319 509.0029,154.0813 Q508.3638,154.2307 507.6582,154.2307 Q505.1514,154.2307 503.8315,152.5789 Q502.5117,150.927 502.5117,147.8059 Q502.5117,144.6765 503.8315,143.0247 Q505.1514,141.3728 507.6582,141.3728 Q508.3638,141.3728 509.0112,141.5222 Q509.6587,141.6716 510.2231,141.9705 L510.2231,144.6931 Q509.5923,144.1121 508.9988,143.8423 Q508.4053,143.5725 507.7744,143.5725 Q506.4297,143.5725 505.7449,144.6392 Q505.0601,145.7058 505.0601,147.8059 Q505.0601,149.8977 505.7449,150.9644 Q506.4297,152.031 507.7744,152.031 Q508.4053,152.031 508.9988,151.7612 Q509.5923,151.4915 510.2231,150.9104 Z " fill="#000000"/><text fill="#000000" font-family="sans-serif" font-size="14" lengthAdjust="spacing" textLength="107" x="528.25" y="152.781">Planbehandling</text><line style="stroke:#181818;stroke-width:0.5;" x1="406" x2="725" y1="163.49" y2="163.49"/><ellipse cx="416" cy="177.2341" fill="none" rx="3" ry="3" style="stroke:#038048;stroke-width:1.0;"/><text fill="#000000" font-family="sans-serif" font-size="14" lengthAdjust="spacing" textLength="123" x="425" y="181.0252">posisjon: Posisjon</text><ellipse cx="416" cy="193.7224" fill="none" rx="3" ry="3" style="stroke:#038048;stroke-width:1.0;"/><text fill="#000000" font-family="sans-serif" font-size="14" lengthAdjust="spacing" textLength="69" x="425" y="197.5134">dato: date</text><ellipse cx="416" cy="210.2107" fill="none" rx="3" ry="3" style="stroke:#038048;stroke-width:1.0;"/><text fill="#000000" font-family="sans-serif" font-size="14" lengthAdjust="spacing" textLength="185" x="425" y="214.0017">saksnummer: Saksnummer</text><ellipse cx="416" cy="226.699" fill="none" rx="3" ry="3" style="stroke:#038048;stroke-width:1.0;"/><text fill="#000000" font-family="sans-serif" font-size="14" lengthAdjust="spacing" textLength="295" x="425" y="230.49">planbehandlingstype: Planbehandlingstype</text><ellipse cx="416" cy="243.1873" fill="none" rx="3" ry="3" style="stroke:#038048;stroke-width:1.0;"/><text fill="#000000" font-family="sans-serif" font-size="14" lengthAdjust="spacing" textLength="81" x="425" y="246.9783">navn: string</text><ellipse cx="416" cy="259.6755" fill="none" rx="3" ry="3" style="stroke:#038048;stroke-width:1.0;"/><text fill="#000000" font-family="sans-serif" font-size="14" lengthAdjust="spacing" textLength="203" x="425" y="263.4666">plandokumenter: Dokument[]</text><line style="stroke:#181818;stroke-width:0.5;" x1="406" x2="725" y1="270.4197" y2="270.4197"/></g><!--class Planbehandlingstype--><g id="elem_Planbehandlingstype"><rect codeLine="19" fill="#F1F1F1" height="89.5977" id="Planbehandlingstype" rx="2.5" ry="2.5" style="stroke:#181818;stroke-width:0.5;" width="184" x="935.5" y="367.09"/><ellipse cx="954.55" cy="387.4005" fill="#ADD1B2" rx="11" ry="11" style="stroke:#181818;stroke-width:1.0;"/><path d="M957.0231,393.5436 Q956.4421,393.8424 955.8029,393.9919 Q955.1638,394.1413 954.4582,394.1413 Q951.9514,394.1413 950.6315,392.4894 Q949.3117,390.8376 949.3117,387.7165 Q949.3117,384.5871 950.6315,382.9352 Q951.9514,381.2834 954.4582,381.2834 Q955.1638,381.2834 955.8112,381.4328 Q956.4587,381.5822 957.0231,381.881 L957.0231,384.6037 Q956.3923,384.0226 955.7988,383.7528 Q955.2053,383.4831 954.5744,383.4831 Q953.2297,383.4831 952.5449,384.5497 Q951.8601,385.6164 951.8601,387.7165 Q951.8601,389.8083 952.5449,390.8749 Q953.2297,391.9416 954.5744,391.9416 Q955.2053,391.9416 955.7988,391.6718 Q956.3923,391.402 957.0231,390.821 Z " fill="#000000"/><text fill="#000000" font-family="sans-serif" font-size="12" font-style="italic" lengthAdjust="spacing" textLength="42" x="1019.95" y="383.6916">&#171;Kode&#187;</text><text fill="#000000" font-family="sans-serif" font-size="14" lengthAdjust="spacing" textLength="143" x="969.45" y="399.758">Planbehandlingstype</text><line style="stroke:#181818;stroke-width:0.5;" x1="936.5" x2="1118.5" y1="407.7111" y2="407.7111"/><ellipse cx="946.5" cy="421.4552" fill="none" rx="3" ry="3" style="stroke:#038048;stroke-width:1.0;"/><text fill="#000000" font-family="sans-serif" font-size="14" lengthAdjust="spacing" textLength="116" x="955.5" y="425.2463">kodeverdi: string</text><ellipse cx="946.5" cy="437.9435" fill="none" rx="3" ry="3" style="stroke:#038048;stroke-width:1.0;"/><text fill="#000000" font-family="sans-serif" font-size="14" lengthAdjust="spacing" textLength="158" x="955.5" y="441.7345">kodebeskrivelse: string</text><line style="stroke:#181818;stroke-width:0.5;" x1="936.5" x2="1118.5" y1="448.6877" y2="448.6877"/></g><!--class FinnPlanbehandlingerResultat--><g id="elem_FinnPlanbehandlingerResultat"><rect codeLine="3" fill="#F1F1F1" height="64.4883" id="FinnPlanbehandlingerResultat" rx="2.5" ry="2.5" style="stroke:#181818;stroke-width:0.5;" width="273" x="429" y="7"/><ellipse cx="459.75" cy="23" fill="#ADD1B2" rx="11" ry="11" style="stroke:#181818;stroke-width:1.0;"/><path d="M462.2231,29.1431 Q461.6421,29.4419 461.0029,29.5913 Q460.3638,29.7407 459.6582,29.7407 Q457.1514,29.7407 455.8315,28.0889 Q454.5117,26.437 454.5117,23.3159 Q454.5117,20.1865 455.8315,18.5347 Q457.1514,16.8828 459.6582,16.8828 Q460.3638,16.8828 461.0112,17.0322 Q461.6587,17.1816 462.2231,17.4805 L462.2231,20.2031 Q461.5923,19.6221 460.9988,19.3523 Q460.4053,19.0825 459.7744,19.0825 Q458.4297,19.0825 457.7449,20.1492 Q457.0601,21.2158 457.0601,23.3159 Q457.0601,25.4077 457.7449,26.4744 Q458.4297,27.541 459.7744,27.541 Q460.4053,27.541 460.9988,27.2712 Q461.5923,27.0015 462.2231,26.4204 Z " fill="#000000"/><text fill="#000000" font-family="sans-serif" font-size="14" lengthAdjust="spacing" textLength="206" x="477.25" y="28.291">FinnPlanbehandlingerResultat</text><line style="stroke:#181818;stroke-width:0.5;" x1="430" x2="701" y1="39" y2="39"/><ellipse cx="440" cy="52.7441" fill="none" rx="3" ry="3" style="stroke:#038048;stroke-width:1.0;"/><text fill="#000000" font-family="sans-serif" font-size="14" lengthAdjust="spacing" textLength="247" x="449" y="56.5352">planbehandlinger: Planbehandling[]</text><line style="stroke:#181818;stroke-width:0.5;" x1="430" x2="701" y1="63.4883" y2="63.4883"/></g><!--link Posisjon to Koordinatsystem--><g id="link_Posisjon_Koordinatsystem"><path codeLine="7" d="M356.97,461.05 C334.38,487.25 306.63,519.42 284.6,544.97 " fill="none" id="Posisjon-Koordinatsystem" style="stroke:#181818;stroke-width:1.0;"/></g><!--link Posisjon to PosisjonType--><g id="link_Posisjon_PosisjonType"><path codeLine="8" d="M408.34,461.05 C414.6,491.73 422.54,530.61 428.02,557.45 " fill="none" id="Posisjon-PosisjonType" style="stroke:#181818;stroke-width:1.0;"/></g><!--link Dokument to Dokumenttype--><g id="link_Dokument_Dokumenttype"><path codeLine="10" d="M717.24,485.6 C713.02,505.7 708.56,526.91 704.8,544.86 " fill="none" id="Dokument-Dokumenttype" style="stroke:#181818;stroke-width:1.0;"/></g><!--link Dokument to ReferanseDokumentfil--><g id="link_Dokument_ReferanseDokumentfil"><path codeLine="11" d="M807.58,485.6 C830.1,507.41 853.96,530.52 873.42,549.36 " fill="none" id="Dokument-ReferanseDokumentfil" style="stroke:#181818;stroke-width:1.0;"/></g><!--link Planbehandling to Posisjon--><g id="link_Planbehandling_Posisjon"><path codeLine="14" d="M506.15,278.79 C483.37,306.74 457.96,337.92 437.56,362.96 " fill="none" id="Planbehandling-Posisjon" style="stroke:#181818;stroke-width:1.0;"/></g><!--link Planbehandling to Saksnummer--><g id="link_Planbehandling_Saksnummer"><path codeLine="15" d="M404.82,269.25 C354.56,290.12 299.25,314.22 249.5,338.42 C229.05,348.37 207.3,360.04 187.56,371.07 " fill="none" id="Planbehandling-Saksnummer" style="stroke:#181818;stroke-width:1.0;"/></g><!--link Planbehandling to Planbehandlingstype--><g id="link_Planbehandling_Planbehandlingstype"><path codeLine="16" d="M726.43,258 C787.56,279.95 856.99,307.59 917.5,338.42 C933.6,346.62 950.23,356.66 965.55,366.63 " fill="none" id="Planbehandling-Planbehandlingstype" style="stroke:#181818;stroke-width:1.0;"/></g><!--link Planbehandling to Dokument--><g id="link_Planbehandling_Dokument"><path codeLine="17" d="M624.85,278.79 C640.5,298 657.4,318.73 673.06,337.95 " fill="none" id="Planbehandling-Dokument" style="stroke:#181818;stroke-width:1.0;"/></g><!--link FinnPlanbehandlingerResultat to Planbehandling--><g id="link_FinnPlanbehandlingerResultat_Planbehandling"><path codeLine="7" d="M565.5,71.81 C565.5,88.72 565.5,110.31 565.5,131.11 " fill="none" id="FinnPlanbehandlingerResultat-Planbehandling" style="stroke:#181818;stroke-width:1.0;"/></g><!--SRC=[KypCIyufJKbLqDFNqzFFozVBBjPBomGI1Jc9UNfbHdffgJavgH1kKcf6ObvAJcPUkZugLw-Wb8ihEIUnk5Z1BJClBm15ChKeABMuDASaiKIXcai12BGBqEIj551rHCTorN9nuJL9LnTD3nS0]--></g></svg>