<svg xmlns="http://www.w3.org/2000/svg" xmlns:xlink="http://www.w3.org/1999/xlink" contentStyleType="text/css" data-diagram-type="CLASS" height="85px" preserveAspectRatio="none" style="width:189px;height:85px;background:#FFFFFF;" version="1.1" viewBox="0 0 189 85" width="189px" zoomAndPan="magnify"><defs/><g><!--class HentKodeliste--><g class="entity" data-entity="HentKodeliste" data-source-line="2" data-uid="ent0002" id="entity_HentKodeliste"><rect fill="#F1F1F1" height="64.4883" rx="2.5" ry="2.5" style="stroke:#181818;stroke-width:0.5;" width="168.4404" x="7" y="7"/><ellipse cx="40.8147" cy="23" fill="#ADD1B2" rx="11" ry="11" style="stroke:#181818;stroke-width:1;"/><path d="M43.2879,29.1431 Q42.7068,29.4419 42.0677,29.5913 Q41.4285,29.7407 40.7229,29.7407 Q38.2161,29.7407 36.8963,28.0889 Q35.5765,26.437 35.5765,23.3159 Q35.5765,20.1865 36.8963,18.5347 Q38.2161,16.8828 40.7229,16.8828 Q41.4285,16.8828 42.076,17.0322 Q42.7234,17.1816 43.2879,17.4805 L43.2879,20.2031 Q42.657,19.6221 42.0635,19.3523 Q41.47,19.0825 40.8392,19.0825 Q39.4944,19.0825 38.8096,20.1492 Q38.1248,21.2158 38.1248,23.3159 Q38.1248,25.4077 38.8096,26.4744 Q39.4944,27.541 40.8392,27.541 Q41.47,27.541 42.0635,27.2712 Q42.657,27.0015 43.2879,26.4204 Z " fill="#000000"/><text fill="#000000" font-family="sans-serif" font-size="14" lengthAdjust="spacing" textLength="94.6299" x="58.9958" y="28.291">HentKodeliste</text><line style="stroke:#181818;stroke-width:0.5;" x1="8" x2="174.4404" y1="39" y2="39"/><ellipse cx="18" cy="52.7441" fill="none" rx="3" ry="3" style="stroke:#038048;stroke-width:1;"/><text fill="#000000" font-family="sans-serif" font-size="14" lengthAdjust="spacing" textLength="142.4404" x="27" y="56.5352">kodelistenavn: string</text><line style="stroke:#181818;stroke-width:0.5;" x1="8" x2="174.4404" y1="63.4883" y2="63.4883"/></g><!--SRC=[Iyv9B2vMy4ZDA_7EJqdDoImkILMevb800kric41UObcUbK9nIL5cNZfNBHS0]--></g></svg>