<?xml version="1.0" encoding="us-ascii" standalone="no"?><svg xmlns="http://www.w3.org/2000/svg" xmlns:xlink="http://www.w3.org/1999/xlink" contentStyleType="text/css" height="310px" preserveAspectRatio="none" style="width:1272px;height:310px;background:#FFFFFF;" version="1.1" viewBox="0 0 1272 310" width="1272px" zoomAndPan="magnify"><defs/><g><!--class MidlertidigForbud--><g id="elem_MidlertidigForbud"><rect codeLine="1" fill="#F1F1F1" height="146.9297" id="MidlertidigForbud" rx="2.5" ry="2.5" style="stroke:#181818;stroke-width:0.5;" width="311" x="454" y="7"/><ellipse cx="543.25" cy="23" fill="#ADD1B2" rx="11" ry="11" style="stroke:#181818;stroke-width:1.0;"/><path d="M545.7231,29.1431 Q545.1421,29.4419 544.5029,29.5913 Q543.8638,29.7407 543.1582,29.7407 Q540.6514,29.7407 539.3315,28.0889 Q538.0117,26.437 538.0117,23.3159 Q538.0117,20.1865 539.3315,18.5347 Q540.6514,16.8828 543.1582,16.8828 Q543.8638,16.8828 544.5112,17.0322 Q545.1587,17.1816 545.7231,17.4805 L545.7231,20.2031 Q545.0923,19.6221 544.4988,19.3523 Q543.9053,19.0825 543.2744,19.0825 Q541.9297,19.0825 541.2449,20.1492 Q540.5601,21.2158 540.5601,23.3159 Q540.5601,25.4077 541.2449,26.4744 Q541.9297,27.541 543.2744,27.541 Q543.9053,27.541 544.4988,27.2712 Q545.0923,27.0015 545.7231,26.4204 Z " fill="#000000"/><text fill="#000000" font-family="sans-serif" font-size="14" lengthAdjust="spacing" textLength="124" x="563.75" y="28.291">MidlertidigForbud</text><line style="stroke:#181818;stroke-width:0.5;" x1="455" x2="764" y1="39" y2="39"/><ellipse cx="465" cy="52.7441" fill="none" rx="3" ry="3" style="stroke:#038048;stroke-width:1.0;"/><text fill="#000000" font-family="sans-serif" font-size="14" lengthAdjust="spacing" textLength="102" x="474" y="56.5352">omraade: Flate</text><ellipse cx="465" cy="69.2324" fill="none" rx="3" ry="3" style="stroke:#038048;stroke-width:1.0;"/><text fill="#000000" font-family="sans-serif" font-size="14" lengthAdjust="spacing" textLength="185" x="474" y="73.0234">saksnummer: Saksnummer</text><ellipse cx="465" cy="85.7207" fill="none" rx="3" ry="3" style="stroke:#038048;stroke-width:1.0;"/><text fill="#000000" font-family="sans-serif" font-size="14" lengthAdjust="spacing" textLength="147" x="474" y="89.5117">avgjoerelsedato: date</text><ellipse cx="465" cy="102.209" fill="none" rx="3" ry="3" style="stroke:#038048;stroke-width:1.0;"/><text fill="#000000" font-family="sans-serif" font-size="14" lengthAdjust="spacing" textLength="285" x="474" y="106">pblTiltakForbudtype: PblTiltakForbudtype</text><ellipse cx="465" cy="118.6973" fill="none" rx="3" ry="3" style="stroke:#038048;stroke-width:1.0;"/><text fill="#000000" font-family="sans-serif" font-size="14" lengthAdjust="spacing" textLength="129" x="474" y="122.4883">gyldigTilDato: date</text><ellipse cx="465" cy="135.1855" fill="none" rx="3" ry="3" style="stroke:#038048;stroke-width:1.0;"/><text fill="#000000" font-family="sans-serif" font-size="14" lengthAdjust="spacing" textLength="142" x="474" y="138.9766">omraadenavn: string</text><line style="stroke:#181818;stroke-width:0.5;" x1="455" x2="764" y1="145.9297" y2="145.9297"/></g><!--class Flate--><g id="elem_Flate"><rect fill="#F1F1F1" height="48" id="Flate" rx="2.5" ry="2.5" style="stroke:#181818;stroke-width:0.5;" width="65" x="299" y="234.73"/><ellipse cx="314" cy="250.73" fill="#ADD1B2" rx="11" ry="11" style="stroke:#181818;stroke-width:1.0;"/><path d="M316.4731,256.8731 Q315.8921,257.1719 315.2529,257.3213 Q314.6138,257.4707 313.9082,257.4707 Q311.4014,257.4707 310.0815,255.8189 Q308.7617,254.167 308.7617,251.0459 Q308.7617,247.9165 310.0815,246.2647 Q311.4014,244.6128 313.9082,244.6128 Q314.6138,244.6128 315.2612,244.7622 Q315.9087,244.9116 316.4731,245.2105 L316.4731,247.9331 Q315.8423,247.3521 315.2488,247.0823 Q314.6553,246.8125 314.0244,246.8125 Q312.6797,246.8125 311.9949,247.8792 Q311.3101,248.9458 311.3101,251.0459 Q311.3101,253.1377 311.9949,254.2044 Q312.6797,255.271 314.0244,255.271 Q314.6553,255.271 315.2488,255.0012 Q315.8423,254.7315 316.4731,254.1504 Z " fill="#000000"/><text fill="#000000" font-family="sans-serif" font-size="14" lengthAdjust="spacing" textLength="33" x="328" y="256.021">Flate</text><line style="stroke:#181818;stroke-width:0.5;" x1="300" x2="363" y1="266.73" y2="266.73"/><line style="stroke:#181818;stroke-width:0.5;" x1="300" x2="363" y1="274.73" y2="274.73"/></g><!--class Saksnummer--><g id="elem_Saksnummer"><rect fill="#F1F1F1" height="48" id="Saksnummer" rx="2.5" ry="2.5" style="stroke:#181818;stroke-width:0.5;" width="121" x="854" y="234.73"/><ellipse cx="869" cy="250.73" fill="#ADD1B2" rx="11" ry="11" style="stroke:#181818;stroke-width:1.0;"/><path d="M871.4731,256.8731 Q870.8921,257.1719 870.2529,257.3213 Q869.6138,257.4707 868.9082,257.4707 Q866.4014,257.4707 865.0815,255.8189 Q863.7617,254.167 863.7617,251.0459 Q863.7617,247.9165 865.0815,246.2647 Q866.4014,244.6128 868.9082,244.6128 Q869.6138,244.6128 870.2612,244.7622 Q870.9087,244.9116 871.4731,245.2105 L871.4731,247.9331 Q870.8423,247.3521 870.2488,247.0823 Q869.6553,246.8125 869.0244,246.8125 Q867.6797,246.8125 866.9949,247.8792 Q866.3101,248.9458 866.3101,251.0459 Q866.3101,253.1377 866.9949,254.2044 Q867.6797,255.271 869.0244,255.271 Q869.6553,255.271 870.2488,255.0012 Q870.8423,254.7315 871.4731,254.1504 Z " fill="#000000"/><text fill="#000000" font-family="sans-serif" font-size="14" lengthAdjust="spacing" textLength="89" x="883" y="256.021">Saksnummer</text><line style="stroke:#181818;stroke-width:0.5;" x1="855" x2="974" y1="266.73" y2="266.73"/><line style="stroke:#181818;stroke-width:0.5;" x1="855" x2="974" y1="274.73" y2="274.73"/></g><!--class PblTiltakForbudtype--><g id="elem_PblTiltakForbudtype"><rect codeLine="17" fill="#F1F1F1" height="89.5977" id="PblTiltakForbudtype" rx="2.5" ry="2.5" style="stroke:#181818;stroke-width:0.5;" width="184" x="517.5" y="213.93"/><ellipse cx="538.8" cy="234.2405" fill="#ADD1B2" rx="11" ry="11" style="stroke:#181818;stroke-width:1.0;"/><path d="M541.2731,240.3836 Q540.6921,240.6824 540.0529,240.8319 Q539.4138,240.9813 538.7082,240.9813 Q536.2014,240.9813 534.8815,239.3294 Q533.5617,237.6776 533.5617,234.5565 Q533.5617,231.4271 534.8815,229.7752 Q536.2014,228.1234 538.7082,228.1234 Q539.4138,228.1234 540.0612,228.2728 Q540.7087,228.4222 541.2731,228.721 L541.2731,231.4437 Q540.6423,230.8626 540.0488,230.5928 Q539.4553,230.3231 538.8244,230.3231 Q537.4797,230.3231 536.7949,231.3897 Q536.1101,232.4564 536.1101,234.5565 Q536.1101,236.6483 536.7949,237.7149 Q537.4797,238.7816 538.8244,238.7816 Q539.4553,238.7816 540.0488,238.5118 Q540.6423,238.242 541.2731,237.661 Z " fill="#000000"/><text fill="#000000" font-family="sans-serif" font-size="12" font-style="italic" lengthAdjust="spacing" textLength="42" x="602.2" y="230.5316">&#171;Kode&#187;</text><text fill="#000000" font-family="sans-serif" font-size="14" lengthAdjust="spacing" textLength="138" x="554.2" y="246.598">PblTiltakForbudtype</text><line style="stroke:#181818;stroke-width:0.5;" x1="518.5" x2="700.5" y1="254.5511" y2="254.5511"/><ellipse cx="528.5" cy="268.2952" fill="none" rx="3" ry="3" style="stroke:#038048;stroke-width:1.0;"/><text fill="#000000" font-family="sans-serif" font-size="14" lengthAdjust="spacing" textLength="116" x="537.5" y="272.0862">kodeverdi: string</text><ellipse cx="528.5" cy="284.7835" fill="none" rx="3" ry="3" style="stroke:#038048;stroke-width:1.0;"/><text fill="#000000" font-family="sans-serif" font-size="14" lengthAdjust="spacing" textLength="158" x="537.5" y="288.5745">kodebeskrivelse: string</text><line style="stroke:#181818;stroke-width:0.5;" x1="518.5" x2="700.5" y1="295.5277" y2="295.5277"/></g><g id="elem_GMN9"><path d="M6,67.81 L6,93.1205 A0,0 0 0 0 6,93.1205 L216.68,93.1205 L315.76,234.42 L224.68,93.1205 L419,93.1205 A0,0 0 0 0 419,93.1205 L419,77.81 L409,67.81 L6,67.81 A0,0 0 0 0 6,67.81 " fill="#FEFFDD" style="stroke:#181818;stroke-width:0.5;"/><path d="M409,67.81 L409,77.81 L419,77.81 L409,67.81 " fill="#FEFFDD" style="stroke:#181818;stroke-width:0.5;"/><text fill="#000000" font-family="sans-serif" font-size="13" lengthAdjust="spacing" textLength="392" x="12" y="85.3784">Se detaljer i diagram for skjema 'no.ks.fiks.plan.v2.felles.flate'</text></g><g id="elem_GMN12"><path d="M799.5,67.81 L799.5,93.1205 A0,0 0 0 0 799.5,93.1205 L1020.39,93.1205 L930.11,234.42 L1028.39,93.1205 L1265.5,93.1205 A0,0 0 0 0 1265.5,93.1205 L1265.5,77.81 L1255.5,67.81 L799.5,67.81 A0,0 0 0 0 799.5,67.81 " fill="#FEFFDD" style="stroke:#181818;stroke-width:0.5;"/><path d="M1255.5,67.81 L1255.5,77.81 L1265.5,77.81 L1255.5,67.81 " fill="#FEFFDD" style="stroke:#181818;stroke-width:0.5;"/><text fill="#000000" font-family="sans-serif" font-size="13" lengthAdjust="spacing" textLength="445" x="805.5" y="85.3784">Se detaljer i diagram for skjema 'no.ks.fiks.plan.v2.felles.saksnummer'</text></g><!--link MidlertidigForbud to Flate--><g id="link_MidlertidigForbud_Flate"><path codeLine="10" d="M494.82,154.18 C447.56,184.15 396.42,216.57 364.2,237 " fill="none" id="MidlertidigForbud-Flate" style="stroke:#181818;stroke-width:1.0;"/></g><!--link MidlertidigForbud to Saksnummer--><g id="link_MidlertidigForbud_Saksnummer"><path codeLine="11" d="M735.32,154.18 C785.04,182.91 838.66,213.9 874.16,234.42 " fill="none" id="MidlertidigForbud-Saksnummer" style="stroke:#181818;stroke-width:1.0;"/></g><!--link MidlertidigForbud to PblTiltakForbudtype--><g id="link_MidlertidigForbud_PblTiltakForbudtype"><path codeLine="12" d="M609.5,154.18 C609.5,174.28 609.5,195.49 609.5,213.44 " fill="none" id="MidlertidigForbud-PblTiltakForbudtype" style="stroke:#181818;stroke-width:1.0;"/></g><!--SRC=[fL6nRiCW4DtvYjiyLF7GqOeoLLcgIfNQ7pY7CyASmJe8KbJrtqjAwgIDjp8WU8zxlBjtO8mHNgncacIrDViW_L73XuAo7i8aY9ews3CcgbX45_rncaWwU5lEbSDina1274bZ2XtefMpk-TroGbT_IAUvoBxUW_MrEN4nKxYdFp8NHnwpxo0ciTweJwNkEzXiBgPNgHlZg_oQCUL38aXXXZ1KRIWJ8D2Ka4SIiA0j6i49XY0GtKWJGkD3ws8xsBBDZBxDZ-r0p5ImiqRpI_Rgwv_QrvGQfGxVAQ_q1DljSz2qs_q4xiejasYx37U1UufER3vdUpFvBm00]--></g></svg>