<svg xmlns="http://www.w3.org/2000/svg" xmlns:xlink="http://www.w3.org/1999/xlink" contentStyleType="text/css" data-diagram-type="CLASS" height="467px" preserveAspectRatio="none" style="width:753px;height:467px;background:#FFFFFF;" version="1.1" viewBox="0 0 753 467" width="753px" zoomAndPan="magnify"><defs/><g><!--class Saksnummer--><g class="entity" data-entity="Saksnummer" data-source-line="2" data-uid="ent0002" id="entity_Saksnummer"><rect fill="#F1F1F1" height="80.9766" rx="2.5" ry="2.5" style="stroke:#181818;stroke-width:0.5;" width="224.1123" x="7" y="222.17"/><ellipse cx="70.9878" cy="238.17" fill="#ADD1B2" rx="11" ry="11" style="stroke:#181818;stroke-width:1;"/><path d="M73.4609,244.3131 Q72.8799,244.6119 72.2407,244.7613 Q71.6016,244.9107 70.896,244.9107 Q68.3892,244.9107 67.0693,243.2589 Q65.7495,241.607 65.7495,238.4859 Q65.7495,235.3565 67.0693,233.7047 Q68.3892,232.0528 70.896,232.0528 Q71.6016,232.0528 72.249,232.2022 Q72.8965,232.3516 73.4609,232.6505 L73.4609,235.3731 Q72.8301,234.7921 72.2366,234.5223 Q71.6431,234.2525 71.0122,234.2525 Q69.6675,234.2525 68.9827,235.3192 Q68.2979,236.3858 68.2979,238.4859 Q68.2979,240.5777 68.9827,241.6444 Q69.6675,242.711 71.0122,242.711 Q71.6431,242.711 72.2366,242.4412 Q72.8301,242.1715 73.4609,241.5904 Z " fill="#000000"/><text fill="#000000" font-family="sans-serif" font-size="14" lengthAdjust="spacing" textLength="87.6367" x="91.4878" y="243.461">Saksnummer</text><line style="stroke:#181818;stroke-width:0.5;" x1="8" x2="230.1123" y1="254.17" y2="254.17"/><ellipse cx="18" cy="267.9141" fill="none" rx="3" ry="3" style="stroke:#038048;stroke-width:1;"/><text fill="#000000" font-family="sans-serif" font-size="14" lengthAdjust="spacing" textLength="108.2676" x="27" y="271.7052">saksaar: integer</text><ellipse cx="18" cy="284.4024" fill="none" rx="3" ry="3" style="stroke:#038048;stroke-width:1;"/><text fill="#000000" font-family="sans-serif" font-size="14" lengthAdjust="spacing" textLength="198.1123" x="27" y="288.1934">sakssekvensnummer: integer</text><line style="stroke:#181818;stroke-width:0.5;" x1="8" x2="230.1123" y1="295.1466" y2="295.1466"/></g><!--class Flate--><g class="entity" data-entity="Flate" data-source-line="1" data-uid="ent0003" id="entity_Flate"><rect fill="#F1F1F1" height="97.4648" rx="2.5" ry="2.5" style="stroke:#181818;stroke-width:0.5;" width="262.4551" x="265.83" y="213.93"/><ellipse cx="376.6474" cy="229.93" fill="#ADD1B2" rx="11" ry="11" style="stroke:#181818;stroke-width:1;"/><path d="M379.1205,236.0731 Q378.5395,236.3719 377.9003,236.5213 Q377.2612,236.6707 376.5556,236.6707 Q374.0488,236.6707 372.7289,235.0189 Q371.4091,233.367 371.4091,230.2459 Q371.4091,227.1165 372.7289,225.4647 Q374.0488,223.8128 376.5556,223.8128 Q377.2612,223.8128 377.9086,223.9622 Q378.5561,224.1116 379.1205,224.4105 L379.1205,227.1331 Q378.4897,226.5521 377.8962,226.2823 Q377.3027,226.0125 376.6718,226.0125 Q375.3271,226.0125 374.6423,227.0792 Q373.9574,228.1458 373.9574,230.2459 Q373.9574,232.3377 374.6423,233.4044 Q375.3271,234.471 376.6718,234.471 Q377.3027,234.471 377.8962,234.2012 Q378.4897,233.9315 379.1205,233.3504 Z " fill="#000000"/><text fill="#000000" font-family="sans-serif" font-size="14" lengthAdjust="spacing" textLength="32.3203" x="397.1474" y="235.221">Flate</text><line style="stroke:#181818;stroke-width:0.5;" x1="266.83" x2="527.2851" y1="245.93" y2="245.93"/><ellipse cx="276.83" cy="259.6741" fill="none" rx="3" ry="3" style="stroke:#038048;stroke-width:1;"/><text fill="#000000" font-family="sans-serif" font-size="14" lengthAdjust="spacing" textLength="103.1201" x="285.83" y="263.4652">type: FlateType</text><ellipse cx="276.83" cy="276.1624" fill="none" rx="3" ry="3" style="stroke:#038048;stroke-width:1;"/><text fill="#000000" font-family="sans-serif" font-size="14" lengthAdjust="spacing" textLength="163.7002" x="285.83" y="279.9534">koordinater: Koordinat[]</text><ellipse cx="276.83" cy="292.6507" fill="none" rx="3" ry="3" style="stroke:#038048;stroke-width:1;"/><text fill="#000000" font-family="sans-serif" font-size="14" lengthAdjust="spacing" textLength="236.4551" x="285.83" y="296.4417">koordinatsystem: Koordinatsystem</text><line style="stroke:#181818;stroke-width:0.5;" x1="266.83" x2="527.2851" y1="303.3948" y2="303.3948"/></g><!--class FlateType--><g class="entity" data-entity="FlateType" data-source-line="7" data-uid="ent0004" id="entity_FlateType"><rect fill="#F1F1F1" height="64.4883" rx="2.5" ry="2.5" style="stroke:#181818;stroke-width:0.5;" width="97.0986" x="197.51" y="383.95"/><ellipse cx="212.51" cy="399.95" fill="#EB937F" rx="11" ry="11" style="stroke:#181818;stroke-width:1;"/><path d="M216.1243,406.45 L208.4045,406.45 L208.4045,394.0569 L216.1243,394.0569 L216.1243,396.2151 L210.8533,396.2151 L210.8533,398.888 L215.6262,398.888 L215.6262,401.0462 L210.8533,401.0462 L210.8533,404.2918 L216.1243,404.2918 Z " fill="#000000"/><text fill="#000000" font-family="sans-serif" font-size="14" lengthAdjust="spacing" textLength="65.0986" x="226.51" y="405.241">FlateType</text><line style="stroke:#181818;stroke-width:0.5;" x1="198.51" x2="293.6086" y1="415.95" y2="415.95"/><text fill="#000000" font-family="sans-serif" font-size="14" lengthAdjust="spacing" textLength="53.7168" x="203.51" y="433.4852">Polygon</text><line style="stroke:#181818;stroke-width:0.5;" x1="198.51" x2="293.6086" y1="440.4383" y2="440.4383"/></g><!--class Koordinat--><g class="entity" data-entity="Koordinat" data-source-line="8" data-uid="ent0006" id="entity_Koordinat"><rect fill="#F1F1F1" height="64.4883" rx="2.5" ry="2.5" style="stroke:#181818;stroke-width:0.5;" width="134.042" x="330.04" y="383.95"/><ellipse cx="360.997" cy="399.95" fill="#ADD1B2" rx="11" ry="11" style="stroke:#181818;stroke-width:1;"/><path d="M363.4701,406.0931 Q362.8891,406.3919 362.2499,406.5413 Q361.6108,406.6907 360.9052,406.6907 Q358.3983,406.6907 357.0785,405.0389 Q355.7587,403.387 355.7587,400.2659 Q355.7587,397.1365 357.0785,395.4847 Q358.3983,393.8328 360.9052,393.8328 Q361.6108,393.8328 362.2582,393.9822 Q362.9057,394.1316 363.4701,394.4305 L363.4701,397.1531 Q362.8393,396.5721 362.2458,396.3023 Q361.6523,396.0325 361.0214,396.0325 Q359.6767,396.0325 358.9919,397.0992 Q358.307,398.1658 358.307,400.2659 Q358.307,402.3577 358.9919,403.4244 Q359.6767,404.491 361.0214,404.491 Q361.6523,404.491 362.2458,404.2212 Q362.8393,403.9515 363.4701,403.3704 Z " fill="#000000"/><text fill="#000000" font-family="sans-serif" font-size="14" lengthAdjust="spacing" textLength="66.582" x="378.543" y="405.241">Koordinat</text><line style="stroke:#181818;stroke-width:0.5;" x1="331.04" x2="463.082" y1="415.95" y2="415.95"/><ellipse cx="341.04" cy="429.6941" fill="none" rx="3" ry="3" style="stroke:#038048;stroke-width:1;"/><text fill="#000000" font-family="sans-serif" font-size="14" lengthAdjust="spacing" textLength="108.042" x="350.04" y="433.4852">items: number[]</text><line style="stroke:#181818;stroke-width:0.5;" x1="331.04" x2="463.082" y1="440.4383" y2="440.4383"/></g><!--class Koordinatsystem--><g class="entity" data-entity="Koordinatsystem" data-source-line="9" data-uid="ent0008" id="entity_Koordinatsystem"><rect fill="#F1F1F1" height="89.5977" rx="2.5" ry="2.5" style="stroke:#181818;stroke-width:0.5;" width="183.5547" x="499.28" y="371.39"/><ellipse cx="531.0552" cy="391.7005" fill="#ADD1B2" rx="11" ry="11" style="stroke:#181818;stroke-width:1;"/><path d="M533.5284,397.8436 Q532.9473,398.1424 532.3082,398.2919 Q531.669,398.4413 530.9634,398.4413 Q528.4566,398.4413 527.1368,396.7894 Q525.817,395.1376 525.817,392.0165 Q525.817,388.8871 527.1368,387.2352 Q528.4566,385.5834 530.9634,385.5834 Q531.669,385.5834 532.3165,385.7328 Q532.9639,385.8822 533.5284,386.181 L533.5284,388.9037 Q532.8975,388.3226 532.304,388.0528 Q531.7105,387.7831 531.0797,387.7831 Q529.7349,387.7831 529.0501,388.8497 Q528.3653,389.9164 528.3653,392.0165 Q528.3653,394.1083 529.0501,395.1749 Q529.7349,396.2416 531.0797,396.2416 Q531.7105,396.2416 532.304,395.9718 Q532.8975,395.702 533.5284,395.121 Z " fill="#000000"/><text fill="#000000" font-family="sans-serif" font-size="12" font-style="italic" lengthAdjust="spacing" textLength="42.0176" x="584.9125" y="387.9916">&#171;Kode&#187;</text><text fill="#000000" font-family="sans-serif" font-size="14" lengthAdjust="spacing" textLength="114.2764" x="548.7831" y="404.058">Koordinatsystem</text><line style="stroke:#181818;stroke-width:0.5;" x1="500.28" x2="681.8347" y1="412.0111" y2="412.0111"/><ellipse cx="510.28" cy="425.7552" fill="none" rx="3" ry="3" style="stroke:#038048;stroke-width:1;"/><text fill="#000000" font-family="sans-serif" font-size="14" lengthAdjust="spacing" textLength="115.4521" x="519.28" y="429.5463">kodeverdi: string</text><ellipse cx="510.28" cy="442.2435" fill="none" rx="3" ry="3" style="stroke:#038048;stroke-width:1;"/><text fill="#000000" font-family="sans-serif" font-size="14" lengthAdjust="spacing" textLength="157.5547" x="519.28" y="446.0345">kodebeskrivelse: string</text><line style="stroke:#181818;stroke-width:0.5;" x1="500.28" x2="681.8347" y1="452.9877" y2="452.9877"/></g><!--class MidlertidigForbud--><g class="entity" data-entity="MidlertidigForbud" data-source-line="4" data-uid="ent0010" id="entity_MidlertidigForbud"><rect fill="#F1F1F1" height="146.9297" rx="2.5" ry="2.5" style="stroke:#181818;stroke-width:0.5;" width="307.9346" x="243.09" y="7"/><ellipse cx="332.0529" cy="23" fill="#ADD1B2" rx="11" ry="11" style="stroke:#181818;stroke-width:1;"/><path d="M334.526,29.1431 Q333.945,29.4419 333.3058,29.5913 Q332.6667,29.7407 331.9611,29.7407 Q329.4543,29.7407 328.1344,28.0889 Q326.8146,26.437 326.8146,23.3159 Q326.8146,20.1865 328.1344,18.5347 Q329.4543,16.8828 331.9611,16.8828 Q332.6667,16.8828 333.3141,17.0322 Q333.9616,17.1816 334.526,17.4805 L334.526,20.2031 Q333.8952,19.6221 333.3017,19.3523 Q332.7082,19.0825 332.0773,19.0825 Q330.7326,19.0825 330.0478,20.1492 Q329.3629,21.2158 329.3629,23.3159 Q329.3629,25.4077 330.0478,26.4744 Q330.7326,27.541 332.0773,27.541 Q332.7082,27.541 333.3017,27.2712 Q333.8952,27.0015 334.526,26.4204 Z " fill="#000000"/><text fill="#000000" font-family="sans-serif" font-size="14" lengthAdjust="spacing" textLength="121.5088" x="352.5529" y="28.291">MidlertidigForbud</text><line style="stroke:#181818;stroke-width:0.5;" x1="244.09" x2="550.0246" y1="39" y2="39"/><ellipse cx="254.09" cy="52.7441" fill="none" rx="3" ry="3" style="stroke:#038048;stroke-width:1;"/><text fill="#000000" font-family="sans-serif" font-size="14" lengthAdjust="spacing" textLength="100.6523" x="263.09" y="56.5352">omraade: Flate</text><ellipse cx="254.09" cy="69.2324" fill="none" rx="3" ry="3" style="stroke:#038048;stroke-width:1;"/><text fill="#000000" font-family="sans-serif" font-size="14" lengthAdjust="spacing" textLength="183.7295" x="263.09" y="73.0234">saksnummer: Saksnummer</text><ellipse cx="254.09" cy="85.7207" fill="none" rx="3" ry="3" style="stroke:#038048;stroke-width:1;"/><text fill="#000000" font-family="sans-serif" font-size="14" lengthAdjust="spacing" textLength="145.6943" x="263.09" y="89.5117">avgjoerelsedato: date</text><ellipse cx="254.09" cy="102.209" fill="none" rx="3" ry="3" style="stroke:#038048;stroke-width:1;"/><text fill="#000000" font-family="sans-serif" font-size="14" lengthAdjust="spacing" textLength="281.9346" x="263.09" y="106">pblTiltakForbudtype: PblTiltakForbudtype</text><ellipse cx="254.09" cy="118.6973" fill="none" rx="3" ry="3" style="stroke:#038048;stroke-width:1;"/><text fill="#000000" font-family="sans-serif" font-size="14" lengthAdjust="spacing" textLength="129.1172" x="263.09" y="122.4883">gyldigTilDato: date</text><ellipse cx="254.09" cy="135.1855" fill="none" rx="3" ry="3" style="stroke:#038048;stroke-width:1;"/><text fill="#000000" font-family="sans-serif" font-size="14" lengthAdjust="spacing" textLength="140.2529" x="263.09" y="138.9766">omraadenavn: string</text><line style="stroke:#181818;stroke-width:0.5;" x1="244.09" x2="550.0246" y1="145.9297" y2="145.9297"/></g><!--class PblTiltakForbudtype--><g class="entity" data-entity="PblTiltakForbudtype" data-source-line="15" data-uid="ent0013" id="entity_PblTiltakForbudtype"><rect fill="#F1F1F1" height="89.5977" rx="2.5" ry="2.5" style="stroke:#181818;stroke-width:0.5;" width="183.5547" x="563.28" y="217.86"/><ellipse cx="585.2792" cy="238.1705" fill="#ADD1B2" rx="11" ry="11" style="stroke:#181818;stroke-width:1;"/><path d="M587.7523,244.3136 Q587.1713,244.6124 586.5321,244.7619 Q585.8929,244.9113 585.1874,244.9113 Q582.6805,244.9113 581.3607,243.2594 Q580.0409,241.6076 580.0409,238.4865 Q580.0409,235.3571 581.3607,233.7052 Q582.6805,232.0534 585.1874,232.0534 Q585.8929,232.0534 586.5404,232.2028 Q587.1879,232.3522 587.7523,232.651 L587.7523,235.3737 Q587.1215,234.7926 586.5279,234.5228 Q585.9344,234.2531 585.3036,234.2531 Q583.9589,234.2531 583.274,235.3197 Q582.5892,236.3864 582.5892,238.4865 Q582.5892,240.5783 583.274,241.6449 Q583.9589,242.7116 585.3036,242.7116 Q585.9344,242.7116 586.5279,242.4418 Q587.1215,242.172 587.7523,241.591 Z " fill="#000000"/><text fill="#000000" font-family="sans-serif" font-size="12" font-style="italic" lengthAdjust="spacing" textLength="42.0176" x="647.8262" y="234.4616">&#171;Kode&#187;</text><text fill="#000000" font-family="sans-serif" font-size="14" lengthAdjust="spacing" textLength="136.001" x="600.8345" y="250.528">PblTiltakForbudtype</text><line style="stroke:#181818;stroke-width:0.5;" x1="564.28" x2="745.8347" y1="258.4811" y2="258.4811"/><ellipse cx="574.28" cy="272.2252" fill="none" rx="3" ry="3" style="stroke:#038048;stroke-width:1;"/><text fill="#000000" font-family="sans-serif" font-size="14" lengthAdjust="spacing" textLength="115.4521" x="583.28" y="276.0163">kodeverdi: string</text><ellipse cx="574.28" cy="288.7135" fill="none" rx="3" ry="3" style="stroke:#038048;stroke-width:1;"/><text fill="#000000" font-family="sans-serif" font-size="14" lengthAdjust="spacing" textLength="157.5547" x="583.28" y="292.5045">kodebeskrivelse: string</text><line style="stroke:#181818;stroke-width:0.5;" x1="564.28" x2="745.8347" y1="299.4577" y2="299.4577"/></g><!--link Flate to FlateType--><g class="link" data-entity-1="Flate" data-entity-2="FlateType" data-source-line="7" data-uid="lnk5" id="link_Flate_FlateType"><path codeLine="7" d="M349.28,311.61 C325.78,335.19 298.11,362.95 277.34,383.79" fill="none" id="Flate-FlateType" style="stroke:#181818;stroke-width:1;"/></g><!--link Flate to Koordinat--><g class="link" data-entity-1="Flate" data-entity-2="Koordinat" data-source-line="8" data-uid="lnk7" id="link_Flate_Koordinat"><path codeLine="8" d="M397.06,311.61 C397.06,335.19 397.06,362.95 397.06,383.79" fill="none" id="Flate-Koordinat" style="stroke:#181818;stroke-width:1;"/></g><!--link Flate to Koordinatsystem--><g class="link" data-entity-1="Flate" data-entity-2="Koordinatsystem" data-source-line="9" data-uid="lnk9" id="link_Flate_Koordinatsystem"><path codeLine="9" d="M458.71,311.81 C483,330.79 510.73,352.45 534.51,371.02" fill="none" id="Flate-Koordinatsystem" style="stroke:#181818;stroke-width:1;"/></g><!--link MidlertidigForbud to Flate--><g class="link" data-entity-1="MidlertidigForbud" data-entity-2="Flate" data-source-line="13" data-uid="lnk11" id="link_MidlertidigForbud_Flate"><path codeLine="13" d="M397.06,154.24 C397.06,174.16 397.06,195.26 397.06,213.44" fill="none" id="MidlertidigForbud-Flate" style="stroke:#181818;stroke-width:1;"/></g><!--link MidlertidigForbud to Saksnummer--><g class="link" data-entity-1="MidlertidigForbud" data-entity-2="Saksnummer" data-source-line="14" data-uid="lnk12" id="link_MidlertidigForbud_Saksnummer"><path codeLine="14" d="M284.78,154.24 C249.22,177.29 211.23,201.91 180.61,221.76" fill="none" id="MidlertidigForbud-Saksnummer" style="stroke:#181818;stroke-width:1;"/></g><!--link MidlertidigForbud to PblTiltakForbudtype--><g class="link" data-entity-1="MidlertidigForbud" data-entity-2="PblTiltakForbudtype" data-source-line="15" data-uid="lnk14" id="link_MidlertidigForbud_PblTiltakForbudtype"><path codeLine="15" d="M501.25,154.24 C531.88,175.63 564.45,198.37 591.69,217.4" fill="none" id="MidlertidigForbud-PblTiltakForbudtype" style="stroke:#181818;stroke-width:1;"/></g><!--SRC=[ZL31QiCm3BtxAzJpg0CxXjBJw6KC1jiFABKIF2jsi1n36VltEKkMbZM7-I0aFR-d9-siF_De27IbTUM3Tg9RMyB0w7L-r2qnasX19txiUuhLDTN3g7R_56WP4rK_SQAfCwC8l5Z359CrjZk5s8m6FXMKzn3wY6YeXjF4c7lNmJMyhVcCOUu-0aLY8OCfr61Msj3mk-M4RfwGBaEHVRrlph-x2nSp1Nlw8xCuyfXz3PAYzPtwKkf-W_r-CRq9tHZVnBUCBSVQWE1mU0w6ZiVVkxbIPOh6hXxNTaFYeitJYMuM-0O0]--></g></svg>