<?xml version="1.0" encoding="us-ascii" standalone="no"?><svg xmlns="http://www.w3.org/2000/svg" xmlns:xlink="http://www.w3.org/1999/xlink" contentStyleType="text/css" height="301px" preserveAspectRatio="none" style="width:1701px;height:301px;background:#FFFFFF;" version="1.1" viewBox="0 0 1701 301" width="1701px" zoomAndPan="magnify"><defs/><g><!--class Planbehandling--><g id="elem_Planbehandling"><rect codeLine="1" fill="#F1F1F1" height="146.9297" id="Planbehandling" rx="2.5" ry="2.5" style="stroke:#181818;stroke-width:0.5;" width="229" x="981" y="7"/><ellipse cx="1037.75" cy="23" fill="#ADD1B2" rx="11" ry="11" style="stroke:#181818;stroke-width:1.0;"/><path d="M1040.2231,29.1431 Q1039.6421,29.4419 1039.0029,29.5913 Q1038.3638,29.7407 1037.6582,29.7407 Q1035.1514,29.7407 1033.8315,28.0889 Q1032.5117,26.437 1032.5117,23.3159 Q1032.5117,20.1865 1033.8315,18.5347 Q1035.1514,16.8828 1037.6582,16.8828 Q1038.3638,16.8828 1039.0112,17.0322 Q1039.6587,17.1816 1040.2231,17.4805 L1040.2231,20.2031 Q1039.5923,19.6221 1038.9988,19.3523 Q1038.4053,19.0825 1037.7744,19.0825 Q1036.4297,19.0825 1035.7449,20.1492 Q1035.0601,21.2158 1035.0601,23.3159 Q1035.0601,25.4077 1035.7449,26.4744 Q1036.4297,27.541 1037.7744,27.541 Q1038.4053,27.541 1038.9988,27.2712 Q1039.5923,27.0015 1040.2231,26.4204 Z " fill="#000000"/><text fill="#000000" font-family="sans-serif" font-size="14" lengthAdjust="spacing" textLength="107" x="1058.25" y="28.291">Planbehandling</text><line style="stroke:#181818;stroke-width:0.5;" x1="982" x2="1209" y1="39" y2="39"/><ellipse cx="992" cy="52.7441" fill="none" rx="3" ry="3" style="stroke:#038048;stroke-width:1.0;"/><text fill="#000000" font-family="sans-serif" font-size="14" lengthAdjust="spacing" textLength="123" x="1001" y="56.5352">posisjon: Posisjon</text><ellipse cx="992" cy="69.2324" fill="none" rx="3" ry="3" style="stroke:#038048;stroke-width:1.0;"/><text fill="#000000" font-family="sans-serif" font-size="14" lengthAdjust="spacing" textLength="69" x="1001" y="73.0234">dato: date</text><ellipse cx="992" cy="85.7207" fill="none" rx="3" ry="3" style="stroke:#038048;stroke-width:1.0;"/><text fill="#000000" font-family="sans-serif" font-size="14" lengthAdjust="spacing" textLength="185" x="1001" y="89.5117">saksnummer: Saksnummer</text><ellipse cx="992" cy="102.209" fill="none" rx="3" ry="3" style="stroke:#038048;stroke-width:1.0;"/><text fill="#000000" font-family="sans-serif" font-size="14" lengthAdjust="spacing" textLength="187" x="1001" y="106">planbehandlingstype: Kode</text><ellipse cx="992" cy="118.6973" fill="none" rx="3" ry="3" style="stroke:#038048;stroke-width:1.0;"/><text fill="#000000" font-family="sans-serif" font-size="14" lengthAdjust="spacing" textLength="81" x="1001" y="122.4883">navn: string</text><ellipse cx="992" cy="135.1855" fill="none" rx="3" ry="3" style="stroke:#038048;stroke-width:1.0;"/><text fill="#000000" font-family="sans-serif" font-size="14" lengthAdjust="spacing" textLength="203" x="1001" y="138.9766">plandokumenter: Dokument[]</text><line style="stroke:#181818;stroke-width:0.5;" x1="982" x2="1209" y1="145.9297" y2="145.9297"/></g><!--class Posisjon--><g id="elem_Posisjon"><rect fill="#F1F1F1" height="48" id="Posisjon" rx="2.5" ry="2.5" style="stroke:#181818;stroke-width:0.5;" width="89" x="452" y="230.42"/><ellipse cx="467" cy="246.42" fill="#ADD1B2" rx="11" ry="11" style="stroke:#181818;stroke-width:1.0;"/><path d="M469.4731,252.5631 Q468.8921,252.8619 468.2529,253.0113 Q467.6138,253.1607 466.9082,253.1607 Q464.4014,253.1607 463.0815,251.5089 Q461.7617,249.857 461.7617,246.7359 Q461.7617,243.6065 463.0815,241.9547 Q464.4014,240.3028 466.9082,240.3028 Q467.6138,240.3028 468.2612,240.4522 Q468.9087,240.6016 469.4731,240.9005 L469.4731,243.6231 Q468.8423,243.0421 468.2488,242.7723 Q467.6553,242.5025 467.0244,242.5025 Q465.6797,242.5025 464.9949,243.5692 Q464.3101,244.6358 464.3101,246.7359 Q464.3101,248.8277 464.9949,249.8944 Q465.6797,250.961 467.0244,250.961 Q467.6553,250.961 468.2488,250.6912 Q468.8423,250.4215 469.4731,249.8404 Z " fill="#000000"/><text fill="#000000" font-family="sans-serif" font-size="14" lengthAdjust="spacing" textLength="57" x="481" y="251.711">Posisjon</text><line style="stroke:#181818;stroke-width:0.5;" x1="453" x2="540" y1="262.42" y2="262.42"/><line style="stroke:#181818;stroke-width:0.5;" x1="453" x2="540" y1="270.42" y2="270.42"/></g><!--class Saksnummer--><g id="elem_Saksnummer"><rect fill="#F1F1F1" height="48" id="Saksnummer" rx="2.5" ry="2.5" style="stroke:#181818;stroke-width:0.5;" width="121" x="749" y="230.42"/><ellipse cx="764" cy="246.42" fill="#ADD1B2" rx="11" ry="11" style="stroke:#181818;stroke-width:1.0;"/><path d="M766.4731,252.5631 Q765.8921,252.8619 765.2529,253.0113 Q764.6138,253.1607 763.9082,253.1607 Q761.4014,253.1607 760.0815,251.5089 Q758.7617,249.857 758.7617,246.7359 Q758.7617,243.6065 760.0815,241.9547 Q761.4014,240.3028 763.9082,240.3028 Q764.6138,240.3028 765.2612,240.4522 Q765.9087,240.6016 766.4731,240.9005 L766.4731,243.6231 Q765.8423,243.0421 765.2488,242.7723 Q764.6553,242.5025 764.0244,242.5025 Q762.6797,242.5025 761.9949,243.5692 Q761.3101,244.6358 761.3101,246.7359 Q761.3101,248.8277 761.9949,249.8944 Q762.6797,250.961 764.0244,250.961 Q764.6553,250.961 765.2488,250.6912 Q765.8423,250.4215 766.4731,249.8404 Z " fill="#000000"/><text fill="#000000" font-family="sans-serif" font-size="14" lengthAdjust="spacing" textLength="89" x="778" y="251.711">Saksnummer</text><line style="stroke:#181818;stroke-width:0.5;" x1="750" x2="869" y1="262.42" y2="262.42"/><line style="stroke:#181818;stroke-width:0.5;" x1="750" x2="869" y1="270.42" y2="270.42"/></g><!--class Kode--><g id="elem_Kode"><rect codeLine="19" fill="#F1F1F1" height="80.9766" id="Kode" rx="2.5" ry="2.5" style="stroke:#181818;stroke-width:0.5;" width="184" x="1003.5" y="213.93"/><ellipse cx="1073.75" cy="229.93" fill="#ADD1B2" rx="11" ry="11" style="stroke:#181818;stroke-width:1.0;"/><path d="M1076.2231,236.0731 Q1075.6421,236.3719 1075.0029,236.5213 Q1074.3638,236.6707 1073.6582,236.6707 Q1071.1514,236.6707 1069.8315,235.0189 Q1068.5117,233.367 1068.5117,230.2459 Q1068.5117,227.1165 1069.8315,225.4647 Q1071.1514,223.8128 1073.6582,223.8128 Q1074.3638,223.8128 1075.0112,223.9622 Q1075.6587,224.1116 1076.2231,224.4105 L1076.2231,227.1331 Q1075.5923,226.5521 1074.9988,226.2823 Q1074.4053,226.0125 1073.7744,226.0125 Q1072.4297,226.0125 1071.7449,227.0792 Q1071.0601,228.1458 1071.0601,230.2459 Q1071.0601,232.3377 1071.7449,233.4044 Q1072.4297,234.471 1073.7744,234.471 Q1074.4053,234.471 1074.9988,234.2012 Q1075.5923,233.9315 1076.2231,233.3504 Z " fill="#000000"/><text fill="#000000" font-family="sans-serif" font-size="14" lengthAdjust="spacing" textLength="35" x="1094.25" y="235.221">Kode</text><line style="stroke:#181818;stroke-width:0.5;" x1="1004.5" x2="1186.5" y1="245.93" y2="245.93"/><ellipse cx="1014.5" cy="259.6741" fill="none" rx="3" ry="3" style="stroke:#038048;stroke-width:1.0;"/><text fill="#000000" font-family="sans-serif" font-size="14" lengthAdjust="spacing" textLength="116" x="1023.5" y="263.4652">kodeverdi: string</text><ellipse cx="1014.5" cy="276.1624" fill="none" rx="3" ry="3" style="stroke:#038048;stroke-width:1.0;"/><text fill="#000000" font-family="sans-serif" font-size="14" lengthAdjust="spacing" textLength="158" x="1023.5" y="279.9534">kodebeskrivelse: string</text><line style="stroke:#181818;stroke-width:0.5;" x1="1004.5" x2="1186.5" y1="286.9066" y2="286.9066"/></g><!--class Dokument--><g id="elem_Dokument"><rect fill="#F1F1F1" height="48" id="Dokument" rx="2.5" ry="2.5" style="stroke:#181818;stroke-width:0.5;" width="103" x="1320" y="230.42"/><ellipse cx="1335" cy="246.42" fill="#ADD1B2" rx="11" ry="11" style="stroke:#181818;stroke-width:1.0;"/><path d="M1337.4731,252.5631 Q1336.8921,252.8619 1336.2529,253.0113 Q1335.6138,253.1607 1334.9082,253.1607 Q1332.4014,253.1607 1331.0815,251.5089 Q1329.7617,249.857 1329.7617,246.7359 Q1329.7617,243.6065 1331.0815,241.9547 Q1332.4014,240.3028 1334.9082,240.3028 Q1335.6138,240.3028 1336.2612,240.4522 Q1336.9087,240.6016 1337.4731,240.9005 L1337.4731,243.6231 Q1336.8423,243.0421 1336.2488,242.7723 Q1335.6553,242.5025 1335.0244,242.5025 Q1333.6797,242.5025 1332.9949,243.5692 Q1332.3101,244.6358 1332.3101,246.7359 Q1332.3101,248.8277 1332.9949,249.8944 Q1333.6797,250.961 1335.0244,250.961 Q1335.6553,250.961 1336.2488,250.6912 Q1336.8423,250.4215 1337.4731,249.8404 Z " fill="#000000"/><text fill="#000000" font-family="sans-serif" font-size="14" lengthAdjust="spacing" textLength="71" x="1349" y="251.711">Dokument</text><line style="stroke:#181818;stroke-width:0.5;" x1="1321" x2="1422" y1="262.42" y2="262.42"/><line style="stroke:#181818;stroke-width:0.5;" x1="1321" x2="1422" y1="270.42" y2="270.42"/></g><g id="elem_GMN11"><path d="M6,67.81 L6,93.1205 A0,0 0 0 0 6,93.1205 L240.56,93.1205 L459.87,230.18 L248.56,93.1205 L445,93.1205 A0,0 0 0 0 445,93.1205 L445,77.81 L435,67.81 L6,67.81 A0,0 0 0 0 6,67.81 " fill="#FEFFDD" style="stroke:#181818;stroke-width:0.5;"/><path d="M435,67.81 L435,77.81 L445,77.81 L435,67.81 " fill="#FEFFDD" style="stroke:#181818;stroke-width:0.5;"/><text fill="#000000" font-family="sans-serif" font-size="13" lengthAdjust="spacing" textLength="418" x="12" y="85.3784">Se detaljer i diagram for skjema 'no.ks.fiks.plan.v2.felles.posisjon'</text></g><g id="elem_GMN14"><path d="M479.5,67.81 L479.5,93.1205 A0,0 0 0 0 479.5,93.1205 L715.32,93.1205 L796.39,230.18 L723.32,93.1205 L945.5,93.1205 A0,0 0 0 0 945.5,93.1205 L945.5,77.81 L935.5,67.81 L479.5,67.81 A0,0 0 0 0 479.5,67.81 " fill="#FEFFDD" style="stroke:#181818;stroke-width:0.5;"/><path d="M935.5,67.81 L935.5,77.81 L945.5,77.81 L935.5,67.81 " fill="#FEFFDD" style="stroke:#181818;stroke-width:0.5;"/><text fill="#000000" font-family="sans-serif" font-size="13" lengthAdjust="spacing" textLength="445" x="485.5" y="85.3784">Se detaljer i diagram for skjema 'no.ks.fiks.plan.v2.felles.saksnummer'</text></g><g id="elem_GMN17"><path d="M1245,67.81 L1245,93.1205 A0,0 0 0 0 1245,93.1205 L1458.61,93.1205 L1384.75,230.18 L1466.61,93.1205 L1694,93.1205 A0,0 0 0 0 1694,93.1205 L1694,77.81 L1684,67.81 L1245,67.81 A0,0 0 0 0 1245,67.81 " fill="#FEFFDD" style="stroke:#181818;stroke-width:0.5;"/><path d="M1684,67.81 L1684,77.81 L1694,77.81 L1684,67.81 " fill="#FEFFDD" style="stroke:#181818;stroke-width:0.5;"/><text fill="#000000" font-family="sans-serif" font-size="13" lengthAdjust="spacing" textLength="428" x="1251" y="85.3784">Se detaljer i diagram for skjema 'no.ks.fiks.plan.v2.felles.dokument'</text></g><!--link Planbehandling to Posisjon--><g id="link_Planbehandling_Posisjon"><path codeLine="10" d="M980.74,146.58 C974.64,149.22 968.54,151.7 962.5,153.93 C884.63,182.77 642.33,227.56 541.37,245.55 " fill="none" id="Planbehandling-Posisjon" style="stroke:#181818;stroke-width:1.0;"/></g><!--link Planbehandling to Saksnummer--><g id="link_Planbehandling_Saksnummer"><path codeLine="11" d="M980.82,150.42 C933.73,178.73 882.38,209.61 848.3,230.1 " fill="none" id="Planbehandling-Saksnummer" style="stroke:#181818;stroke-width:1.0;"/></g><!--link Planbehandling to Kode--><g id="link_Planbehandling_Kode"><path codeLine="12" d="M1095.5,154.39 C1095.5,174.71 1095.5,196.03 1095.5,213.66 " fill="none" id="Planbehandling-Kode" style="stroke:#181818;stroke-width:1.0;"/></g><!--link Planbehandling to Dokument--><g id="link_Planbehandling_Dokument"><path codeLine="13" d="M1210.15,152.9 C1254.43,180.49 1302.02,210.14 1333.95,230.03 " fill="none" id="Planbehandling-Dokument" style="stroke:#181818;stroke-width:1.0;"/></g><!--SRC=[fLAxRiCm3Dpr5Tmy5F7GqNEtB04w5XsOY4vaFMY8Ye6WoBzNJcIxhiTe88uaU3oAF3aKWOF3SAGB1krCECEFWlpUUXOZ7OS63WKzuneJDv0jFNr1A-7gFSK6FcTSE5RCacuzDR1dNKe33fbUKip9fK2plNeAQIJyAFZhMzsL-YTqjrkaRLD_j6oJ3mtRyDHEgS29874FtCvD80z8e2cXwoY20Mtm7D53on74TkGHgi2rbRersOp3rCDxtP9pbDr2Kwt85valqYzxM3UOPdgHVjfAfTJfSJNZ5qwtOZCUA6gptkOOFfBOQ0PoGdFohdu1]--></g></svg>