<?xml version="1.0" encoding="us-ascii" standalone="no"?><svg xmlns="http://www.w3.org/2000/svg" xmlns:xlink="http://www.w3.org/1999/xlink" contentStyleType="text/css" height="310px" preserveAspectRatio="none" style="width:1792px;height:310px;background:#FFFFFF;" version="1.1" viewBox="0 0 1792 310" width="1792px" zoomAndPan="magnify"><defs/><g><!--class Planbehandling--><g id="elem_Planbehandling"><rect codeLine="1" fill="#F1F1F1" height="146.9297" id="Planbehandling" rx="2.5" ry="2.5" style="stroke:#181818;stroke-width:0.5;" width="321" x="980" y="7"/><ellipse cx="1082.75" cy="23" fill="#ADD1B2" rx="11" ry="11" style="stroke:#181818;stroke-width:1.0;"/><path d="M1085.2231,29.1431 Q1084.6421,29.4419 1084.0029,29.5913 Q1083.3638,29.7407 1082.6582,29.7407 Q1080.1514,29.7407 1078.8315,28.0889 Q1077.5117,26.437 1077.5117,23.3159 Q1077.5117,20.1865 1078.8315,18.5347 Q1080.1514,16.8828 1082.6582,16.8828 Q1083.3638,16.8828 1084.0112,17.0322 Q1084.6587,17.1816 1085.2231,17.4805 L1085.2231,20.2031 Q1084.5923,19.6221 1083.9988,19.3523 Q1083.4053,19.0825 1082.7744,19.0825 Q1081.4297,19.0825 1080.7449,20.1492 Q1080.0601,21.2158 1080.0601,23.3159 Q1080.0601,25.4077 1080.7449,26.4744 Q1081.4297,27.541 1082.7744,27.541 Q1083.4053,27.541 1083.9988,27.2712 Q1084.5923,27.0015 1085.2231,26.4204 Z " fill="#000000"/><text fill="#000000" font-family="sans-serif" font-size="14" lengthAdjust="spacing" textLength="107" x="1103.25" y="28.291">Planbehandling</text><line style="stroke:#181818;stroke-width:0.5;" x1="981" x2="1300" y1="39" y2="39"/><ellipse cx="991" cy="52.7441" fill="none" rx="3" ry="3" style="stroke:#038048;stroke-width:1.0;"/><text fill="#000000" font-family="sans-serif" font-size="14" lengthAdjust="spacing" textLength="123" x="1000" y="56.5352">posisjon: Posisjon</text><ellipse cx="991" cy="69.2324" fill="none" rx="3" ry="3" style="stroke:#038048;stroke-width:1.0;"/><text fill="#000000" font-family="sans-serif" font-size="14" lengthAdjust="spacing" textLength="69" x="1000" y="73.0234">dato: date</text><ellipse cx="991" cy="85.7207" fill="none" rx="3" ry="3" style="stroke:#038048;stroke-width:1.0;"/><text fill="#000000" font-family="sans-serif" font-size="14" lengthAdjust="spacing" textLength="185" x="1000" y="89.5117">saksnummer: Saksnummer</text><ellipse cx="991" cy="102.209" fill="none" rx="3" ry="3" style="stroke:#038048;stroke-width:1.0;"/><text fill="#000000" font-family="sans-serif" font-size="14" lengthAdjust="spacing" textLength="295" x="1000" y="106">planbehandlingstype: Planbehandlingstype</text><ellipse cx="991" cy="118.6973" fill="none" rx="3" ry="3" style="stroke:#038048;stroke-width:1.0;"/><text fill="#000000" font-family="sans-serif" font-size="14" lengthAdjust="spacing" textLength="81" x="1000" y="122.4883">navn: string</text><ellipse cx="991" cy="135.1855" fill="none" rx="3" ry="3" style="stroke:#038048;stroke-width:1.0;"/><text fill="#000000" font-family="sans-serif" font-size="14" lengthAdjust="spacing" textLength="203" x="1000" y="138.9766">plandokumenter: Dokument[]</text><line style="stroke:#181818;stroke-width:0.5;" x1="981" x2="1300" y1="145.9297" y2="145.9297"/></g><!--class Posisjon--><g id="elem_Posisjon"><rect fill="#F1F1F1" height="48" id="Posisjon" rx="2.5" ry="2.5" style="stroke:#181818;stroke-width:0.5;" width="89" x="475" y="234.73"/><ellipse cx="490" cy="250.73" fill="#ADD1B2" rx="11" ry="11" style="stroke:#181818;stroke-width:1.0;"/><path d="M492.4731,256.8731 Q491.8921,257.1719 491.2529,257.3213 Q490.6138,257.4707 489.9082,257.4707 Q487.4014,257.4707 486.0815,255.8189 Q484.7617,254.167 484.7617,251.0459 Q484.7617,247.9165 486.0815,246.2647 Q487.4014,244.6128 489.9082,244.6128 Q490.6138,244.6128 491.2612,244.7622 Q491.9087,244.9116 492.4731,245.2105 L492.4731,247.9331 Q491.8423,247.3521 491.2488,247.0823 Q490.6553,246.8125 490.0244,246.8125 Q488.6797,246.8125 487.9949,247.8792 Q487.3101,248.9458 487.3101,251.0459 Q487.3101,253.1377 487.9949,254.2044 Q488.6797,255.271 490.0244,255.271 Q490.6553,255.271 491.2488,255.0012 Q491.8423,254.7315 492.4731,254.1504 Z " fill="#000000"/><text fill="#000000" font-family="sans-serif" font-size="14" lengthAdjust="spacing" textLength="57" x="504" y="256.021">Posisjon</text><line style="stroke:#181818;stroke-width:0.5;" x1="476" x2="563" y1="266.73" y2="266.73"/><line style="stroke:#181818;stroke-width:0.5;" x1="476" x2="563" y1="274.73" y2="274.73"/></g><!--class Saksnummer--><g id="elem_Saksnummer"><rect fill="#F1F1F1" height="48" id="Saksnummer" rx="2.5" ry="2.5" style="stroke:#181818;stroke-width:0.5;" width="121" x="772" y="234.73"/><ellipse cx="787" cy="250.73" fill="#ADD1B2" rx="11" ry="11" style="stroke:#181818;stroke-width:1.0;"/><path d="M789.4731,256.8731 Q788.8921,257.1719 788.2529,257.3213 Q787.6138,257.4707 786.9082,257.4707 Q784.4014,257.4707 783.0815,255.8189 Q781.7617,254.167 781.7617,251.0459 Q781.7617,247.9165 783.0815,246.2647 Q784.4014,244.6128 786.9082,244.6128 Q787.6138,244.6128 788.2612,244.7622 Q788.9087,244.9116 789.4731,245.2105 L789.4731,247.9331 Q788.8423,247.3521 788.2488,247.0823 Q787.6553,246.8125 787.0244,246.8125 Q785.6797,246.8125 784.9949,247.8792 Q784.3101,248.9458 784.3101,251.0459 Q784.3101,253.1377 784.9949,254.2044 Q785.6797,255.271 787.0244,255.271 Q787.6553,255.271 788.2488,255.0012 Q788.8423,254.7315 789.4731,254.1504 Z " fill="#000000"/><text fill="#000000" font-family="sans-serif" font-size="14" lengthAdjust="spacing" textLength="89" x="801" y="256.021">Saksnummer</text><line style="stroke:#181818;stroke-width:0.5;" x1="773" x2="892" y1="266.73" y2="266.73"/><line style="stroke:#181818;stroke-width:0.5;" x1="773" x2="892" y1="274.73" y2="274.73"/></g><!--class Planbehandlingstype--><g id="elem_Planbehandlingstype"><rect codeLine="19" fill="#F1F1F1" height="89.5977" id="Planbehandlingstype" rx="2.5" ry="2.5" style="stroke:#181818;stroke-width:0.5;" width="184" x="1048.5" y="213.93"/><ellipse cx="1067.55" cy="234.2405" fill="#ADD1B2" rx="11" ry="11" style="stroke:#181818;stroke-width:1.0;"/><path d="M1070.0231,240.3836 Q1069.4421,240.6824 1068.8029,240.8319 Q1068.1638,240.9813 1067.4582,240.9813 Q1064.9514,240.9813 1063.6315,239.3294 Q1062.3117,237.6776 1062.3117,234.5565 Q1062.3117,231.4271 1063.6315,229.7752 Q1064.9514,228.1234 1067.4582,228.1234 Q1068.1638,228.1234 1068.8112,228.2728 Q1069.4587,228.4222 1070.0231,228.721 L1070.0231,231.4437 Q1069.3923,230.8626 1068.7988,230.5928 Q1068.2053,230.3231 1067.5744,230.3231 Q1066.2297,230.3231 1065.5449,231.3897 Q1064.8601,232.4564 1064.8601,234.5565 Q1064.8601,236.6483 1065.5449,237.7149 Q1066.2297,238.7816 1067.5744,238.7816 Q1068.2053,238.7816 1068.7988,238.5118 Q1069.3923,238.242 1070.0231,237.661 Z " fill="#000000"/><text fill="#000000" font-family="sans-serif" font-size="12" font-style="italic" lengthAdjust="spacing" textLength="42" x="1132.95" y="230.5316">&#171;Kode&#187;</text><text fill="#000000" font-family="sans-serif" font-size="14" lengthAdjust="spacing" textLength="143" x="1082.45" y="246.598">Planbehandlingstype</text><line style="stroke:#181818;stroke-width:0.5;" x1="1049.5" x2="1231.5" y1="254.5511" y2="254.5511"/><ellipse cx="1059.5" cy="268.2952" fill="none" rx="3" ry="3" style="stroke:#038048;stroke-width:1.0;"/><text fill="#000000" font-family="sans-serif" font-size="14" lengthAdjust="spacing" textLength="116" x="1068.5" y="272.0862">kodeverdi: string</text><ellipse cx="1059.5" cy="284.7835" fill="none" rx="3" ry="3" style="stroke:#038048;stroke-width:1.0;"/><text fill="#000000" font-family="sans-serif" font-size="14" lengthAdjust="spacing" textLength="158" x="1068.5" y="288.5745">kodebeskrivelse: string</text><line style="stroke:#181818;stroke-width:0.5;" x1="1049.5" x2="1231.5" y1="295.5277" y2="295.5277"/></g><!--class Dokument--><g id="elem_Dokument"><rect fill="#F1F1F1" height="48" id="Dokument" rx="2.5" ry="2.5" style="stroke:#181818;stroke-width:0.5;" width="103" x="1388" y="234.73"/><ellipse cx="1403" cy="250.73" fill="#ADD1B2" rx="11" ry="11" style="stroke:#181818;stroke-width:1.0;"/><path d="M1405.4731,256.8731 Q1404.8921,257.1719 1404.2529,257.3213 Q1403.6138,257.4707 1402.9082,257.4707 Q1400.4014,257.4707 1399.0815,255.8189 Q1397.7617,254.167 1397.7617,251.0459 Q1397.7617,247.9165 1399.0815,246.2647 Q1400.4014,244.6128 1402.9082,244.6128 Q1403.6138,244.6128 1404.2612,244.7622 Q1404.9087,244.9116 1405.4731,245.2105 L1405.4731,247.9331 Q1404.8423,247.3521 1404.2488,247.0823 Q1403.6553,246.8125 1403.0244,246.8125 Q1401.6797,246.8125 1400.9949,247.8792 Q1400.3101,248.9458 1400.3101,251.0459 Q1400.3101,253.1377 1400.9949,254.2044 Q1401.6797,255.271 1403.0244,255.271 Q1403.6553,255.271 1404.2488,255.0012 Q1404.8423,254.7315 1405.4731,254.1504 Z " fill="#000000"/><text fill="#000000" font-family="sans-serif" font-size="14" lengthAdjust="spacing" textLength="71" x="1417" y="256.021">Dokument</text><line style="stroke:#181818;stroke-width:0.5;" x1="1389" x2="1490" y1="266.73" y2="266.73"/><line style="stroke:#181818;stroke-width:0.5;" x1="1389" x2="1490" y1="274.73" y2="274.73"/></g><g id="elem_GMN11"><path d="M6,67.81 L6,93.1205 A0,0 0 0 0 6,93.1205 L241.71,93.1205 L480.36,234.27 L249.71,93.1205 L445,93.1205 A0,0 0 0 0 445,93.1205 L445,77.81 L435,67.81 L6,67.81 A0,0 0 0 0 6,67.81 " fill="#FEFFDD" style="stroke:#181818;stroke-width:0.5;"/><path d="M435,67.81 L435,77.81 L445,77.81 L435,67.81 " fill="#FEFFDD" style="stroke:#181818;stroke-width:0.5;"/><text fill="#000000" font-family="sans-serif" font-size="13" lengthAdjust="spacing" textLength="418" x="12" y="85.3784">Se detaljer i diagram for skjema 'no.ks.fiks.plan.v2.felles.posisjon'</text></g><g id="elem_GMN14"><path d="M479.5,67.81 L479.5,93.1205 A0,0 0 0 0 479.5,93.1205 L716.75,93.1205 L816.63,234.42 L724.75,93.1205 L945.5,93.1205 A0,0 0 0 0 945.5,93.1205 L945.5,77.81 L935.5,67.81 L479.5,67.81 A0,0 0 0 0 479.5,67.81 " fill="#FEFFDD" style="stroke:#181818;stroke-width:0.5;"/><path d="M935.5,67.81 L935.5,77.81 L945.5,77.81 L935.5,67.81 " fill="#FEFFDD" style="stroke:#181818;stroke-width:0.5;"/><text fill="#000000" font-family="sans-serif" font-size="13" lengthAdjust="spacing" textLength="445" x="485.5" y="85.3784">Se detaljer i diagram for skjema 'no.ks.fiks.plan.v2.felles.saksnummer'</text></g><g id="elem_GMN17"><path d="M1336,67.81 L1336,93.1205 A0,0 0 0 0 1336,93.1205 L1548.18,93.1205 L1455.5,234.42 L1556.18,93.1205 L1785,93.1205 A0,0 0 0 0 1785,93.1205 L1785,77.81 L1775,67.81 L1336,67.81 A0,0 0 0 0 1336,67.81 " fill="#FEFFDD" style="stroke:#181818;stroke-width:0.5;"/><path d="M1775,67.81 L1775,77.81 L1785,77.81 L1775,67.81 " fill="#FEFFDD" style="stroke:#181818;stroke-width:0.5;"/><text fill="#000000" font-family="sans-serif" font-size="13" lengthAdjust="spacing" textLength="428" x="1342" y="85.3784">Se detaljer i diagram for skjema 'no.ks.fiks.plan.v2.felles.dokument'</text></g><!--link Planbehandling to Posisjon--><g id="link_Planbehandling_Posisjon"><path codeLine="10" d="M979.85,148.18 C974.02,150.18 968.22,152.11 962.5,153.93 C819.68,199.43 645.2,234.51 564.46,249.61 " fill="none" id="Planbehandling-Posisjon" style="stroke:#181818;stroke-width:1.0;"/></g><!--link Planbehandling to Saksnummer--><g id="link_Planbehandling_Saksnummer"><path codeLine="11" d="M1013.45,154.18 C963.24,182.91 909.08,213.9 873.24,234.42 " fill="none" id="Planbehandling-Saksnummer" style="stroke:#181818;stroke-width:1.0;"/></g><!--link Planbehandling to Planbehandlingstype--><g id="link_Planbehandling_Planbehandlingstype"><path codeLine="12" d="M1140.5,154.18 C1140.5,174.28 1140.5,195.49 1140.5,213.44 " fill="none" id="Planbehandling-Planbehandlingstype" style="stroke:#181818;stroke-width:1.0;"/></g><!--link Planbehandling to Dokument--><g id="link_Planbehandling_Dokument"><path codeLine="13" d="M1263.84,154.18 C1312.58,182.91 1365.15,213.9 1399.95,234.42 " fill="none" id="Planbehandling-Dokument" style="stroke:#181818;stroke-width:1.0;"/></g><!--SRC=[fLAxRiCm3Dpr5Tmy5F7GqGWoPUiIe6FHWOdeL9Oi6g9Ye2Zoxv7ZLvruYmQ23_7kAEhaK0GE3lsHVj1hP_mP_XIayzQm6AdO5t0Ol3wlCN81oL8V2rhnbxgcKC3dv0yO2sI9lmqL3tJtP7_ROvlO98QKdlirsqjDFdRu-y7_-bPNfHvqRpQpqkVIFsahVIkIdc-Dx4fvZWIH6-1oueGqFe6cYAwY00QqmNF06aeE8BQY6Y7pd5l9IvDCDrlUlkSbEKSf762o1VYi-aNuUKjBWd6c5-779MLAdLR-rFr5ORlzO4sxtVZ3R8fQ2jeibzwbZoGsc9QSq5IygXi0]--></g></svg>