<svg xmlns="http://www.w3.org/2000/svg" xmlns:xlink="http://www.w3.org/1999/xlink" contentStyleType="text/css" height="848px" preserveAspectRatio="none" style="width:1182px;height:848px;background:#FFFFFF;" version="1.1" viewBox="0 0 1182 848" width="1182px" zoomAndPan="magnify"><defs/><g><!--class NasjonalArealplanId--><g id="elem_NasjonalArealplanId"><rect codeLine="1" fill="#F1F1F1" height="80.9766" id="NasjonalArealplanId" rx="2.5" ry="2.5" style="stroke:#181818;stroke-width:0.5;" width="292" x="7" y="599.12"/><ellipse cx="79.75" cy="615.12" fill="#ADD1B2" rx="11" ry="11" style="stroke:#181818;stroke-width:1.0;"/><path d="M82.2231,621.2631 Q81.6421,621.5619 81.0029,621.7113 Q80.3638,621.8607 79.6582,621.8607 Q77.1514,621.8607 75.8315,620.2089 Q74.5117,618.557 74.5117,615.4359 Q74.5117,612.3065 75.8315,610.6547 Q77.1514,609.0028 79.6582,609.0028 Q80.3638,609.0028 81.0112,609.1522 Q81.6587,609.3016 82.2231,609.6005 L82.2231,612.3231 Q81.5923,611.7421 80.9988,611.4723 Q80.4053,611.2025 79.7744,611.2025 Q78.4297,611.2025 77.7449,612.2692 Q77.0601,613.3358 77.0601,615.4359 Q77.0601,617.5277 77.7449,618.5944 Q78.4297,619.661 79.7744,619.661 Q80.4053,619.661 80.9988,619.3912 Q81.5923,619.1215 82.2231,618.5404 Z " fill="#000000"/><text fill="#000000" font-family="sans-serif" font-size="14" lengthAdjust="spacing" textLength="138" x="100.25" y="620.411">NasjonalArealplanId</text><line style="stroke:#181818;stroke-width:0.5;" x1="8" x2="298" y1="631.12" y2="631.12"/><ellipse cx="18" cy="644.8641" fill="none" rx="3" ry="3" style="stroke:#038048;stroke-width:1.0;"/><text fill="#000000" font-family="sans-serif" font-size="14" lengthAdjust="spacing" textLength="266" x="27" y="648.6552">administrativEnhet: AdministrativEnhet</text><ellipse cx="18" cy="661.3524" fill="none" rx="3" ry="3" style="stroke:#038048;stroke-width:1.0;"/><text fill="#000000" font-family="sans-serif" font-size="14" lengthAdjust="spacing" textLength="171" x="27" y="665.1434">planidentifikasjon: string</text><line style="stroke:#181818;stroke-width:0.5;" x1="8" x2="298" y1="672.0966" y2="672.0966"/></g><!--class AdministrativEnhet--><g id="elem_AdministrativEnhet"><rect codeLine="8" fill="#F1F1F1" height="97.4648" id="AdministrativEnhet" rx="2.5" ry="2.5" style="stroke:#181818;stroke-width:0.5;" width="162" x="72" y="744.41"/><ellipse cx="87" cy="760.41" fill="#EB937F" rx="11" ry="11" style="stroke:#181818;stroke-width:1.0;"/><path d="M90.6143,766.91 L82.8945,766.91 L82.8945,754.5169 L90.6143,754.5169 L90.6143,756.6751 L85.3433,756.6751 L85.3433,759.348 L90.1162,759.348 L90.1162,761.5062 L85.3433,761.5062 L85.3433,764.7518 L90.6143,764.7518 Z " fill="#000000"/><text fill="#000000" font-family="sans-serif" font-size="14" lengthAdjust="spacing" textLength="130" x="101" y="765.701">AdministrativEnhet</text><line style="stroke:#181818;stroke-width:0.5;" x1="73" x2="233" y1="776.41" y2="776.41"/><text fill="#000000" font-family="sans-serif" font-size="14" lengthAdjust="spacing" textLength="127" x="78" y="793.9452">kommunenummer</text><text fill="#000000" font-family="sans-serif" font-size="14" lengthAdjust="spacing" textLength="97" x="78" y="810.4334">fylkesnummer</text><text fill="#000000" font-family="sans-serif" font-size="14" lengthAdjust="spacing" textLength="71" x="78" y="826.9217">landskode</text><line style="stroke:#181818;stroke-width:0.5;" x1="73" x2="233" y1="833.8748" y2="833.8748"/></g><!--class Arealplan--><g id="elem_Arealplan"><rect codeLine="4" fill="#F1F1F1" height="245.8594" id="Arealplan" rx="2.5" ry="2.5" style="stroke:#181818;stroke-width:0.5;" width="309" x="380.5" y="288.95"/><ellipse cx="497.75" cy="304.95" fill="#ADD1B2" rx="11" ry="11" style="stroke:#181818;stroke-width:1.0;"/><path d="M500.2231,311.0931 Q499.6421,311.3919 499.0029,311.5413 Q498.3638,311.6907 497.6582,311.6907 Q495.1514,311.6907 493.8315,310.0389 Q492.5117,308.387 492.5117,305.2659 Q492.5117,302.1365 493.8315,300.4847 Q495.1514,298.8328 497.6582,298.8328 Q498.3638,298.8328 499.0112,298.9822 Q499.6587,299.1316 500.2231,299.4305 L500.2231,302.1531 Q499.5923,301.5721 498.9988,301.3023 Q498.4053,301.0325 497.7744,301.0325 Q496.4297,301.0325 495.7449,302.0992 Q495.0601,303.1658 495.0601,305.2659 Q495.0601,307.3577 495.7449,308.4244 Q496.4297,309.491 497.7744,309.491 Q498.4053,309.491 498.9988,309.2212 Q499.5923,308.9515 500.2231,308.3704 Z " fill="#000000"/><text fill="#000000" font-family="sans-serif" font-size="14" lengthAdjust="spacing" textLength="66" x="518.25" y="310.241">Arealplan</text><line style="stroke:#181818;stroke-width:0.5;" x1="381.5" x2="688.5" y1="320.95" y2="320.95"/><ellipse cx="391.5" cy="334.6941" fill="none" rx="3" ry="3" style="stroke:#038048;stroke-width:1.0;"/><text fill="#000000" font-family="sans-serif" font-size="14" lengthAdjust="spacing" textLength="283" x="400.5" y="338.4852">nasjonalArealplanId: NasjonalArealplanId</text><ellipse cx="391.5" cy="351.1824" fill="none" rx="3" ry="3" style="stroke:#038048;stroke-width:1.0;"/><text fill="#000000" font-family="sans-serif" font-size="14" lengthAdjust="spacing" textLength="125" x="400.5" y="354.9734">plantype: Plantype</text><ellipse cx="391.5" cy="367.6707" fill="none" rx="3" ry="3" style="stroke:#038048;stroke-width:1.0;"/><text fill="#000000" font-family="sans-serif" font-size="14" lengthAdjust="spacing" textLength="111" x="400.5" y="371.4617">plannavn: string</text><ellipse cx="391.5" cy="384.159" fill="none" rx="3" ry="3" style="stroke:#038048;stroke-width:1.0;"/><text fill="#000000" font-family="sans-serif" font-size="14" lengthAdjust="spacing" textLength="149" x="400.5" y="387.95">planstatus: Planstatus</text><ellipse cx="391.5" cy="400.6473" fill="none" rx="3" ry="3" style="stroke:#038048;stroke-width:1.0;"/><text fill="#000000" font-family="sans-serif" font-size="14" lengthAdjust="spacing" textLength="271" x="400.5" y="404.4383">plandokumentasjonOppdatert: boolean</text><ellipse cx="391.5" cy="417.1355" fill="none" rx="3" ry="3" style="stroke:#038048;stroke-width:1.0;"/><text fill="#000000" font-family="sans-serif" font-size="14" lengthAdjust="spacing" textLength="180" x="400.5" y="420.9266">ubehandletKlage: boolean</text><ellipse cx="391.5" cy="433.6238" fill="none" rx="3" ry="3" style="stroke:#038048;stroke-width:1.0;"/><text fill="#000000" font-family="sans-serif" font-size="14" lengthAdjust="spacing" textLength="211" x="400.5" y="437.4148">ubehandletInnsigelse: boolean</text><ellipse cx="391.5" cy="450.1121" fill="none" rx="3" ry="3" style="stroke:#038048;stroke-width:1.0;"/><text fill="#000000" font-family="sans-serif" font-size="14" lengthAdjust="spacing" textLength="121" x="400.5" y="453.9031">vedtaksdato: date</text><ellipse cx="391.5" cy="466.6004" fill="none" rx="3" ry="3" style="stroke:#038048;stroke-width:1.0;"/><text fill="#000000" font-family="sans-serif" font-size="14" lengthAdjust="spacing" textLength="195" x="400.5" y="470.3914">vedtakEndeligPlanDato: date</text><ellipse cx="391.5" cy="483.0887" fill="none" rx="3" ry="3" style="stroke:#038048;stroke-width:1.0;"/><text fill="#000000" font-family="sans-serif" font-size="14" lengthAdjust="spacing" textLength="181" x="400.5" y="486.8797">lovreferanse: Lovreferanse</text><ellipse cx="391.5" cy="499.577" fill="none" rx="3" ry="3" style="stroke:#038048;stroke-width:1.0;"/><text fill="#000000" font-family="sans-serif" font-size="14" lengthAdjust="spacing" textLength="249" x="400.5" y="503.368">forslagstillerType: ForslagstillerType</text><ellipse cx="391.5" cy="516.0652" fill="none" rx="3" ry="3" style="stroke:#038048;stroke-width:1.0;"/><text fill="#000000" font-family="sans-serif" font-size="14" lengthAdjust="spacing" textLength="173" x="400.5" y="519.8563">alternativFinnes: boolean</text><line style="stroke:#181818;stroke-width:0.5;" x1="381.5" x2="688.5" y1="526.8094" y2="526.8094"/></g><!--class Plantype--><g id="elem_Plantype"><rect codeLine="25" fill="#F1F1F1" height="89.5977" id="Plantype" rx="2.5" ry="2.5" style="stroke:#181818;stroke-width:0.5;" width="184" x="334" y="594.81"/><ellipse cx="392.75" cy="615.1205" fill="#ADD1B2" rx="11" ry="11" style="stroke:#181818;stroke-width:1.0;"/><path d="M395.2231,621.2636 Q394.6421,621.5624 394.0029,621.7119 Q393.3638,621.8613 392.6582,621.8613 Q390.1514,621.8613 388.8315,620.2094 Q387.5117,618.5576 387.5117,615.4365 Q387.5117,612.3071 388.8315,610.6552 Q390.1514,609.0034 392.6582,609.0034 Q393.3638,609.0034 394.0112,609.1528 Q394.6587,609.3022 395.2231,609.601 L395.2231,612.3237 Q394.5923,611.7426 393.9988,611.4728 Q393.4053,611.2031 392.7744,611.2031 Q391.4297,611.2031 390.7449,612.2697 Q390.0601,613.3364 390.0601,615.4365 Q390.0601,617.5283 390.7449,618.5949 Q391.4297,619.6616 392.7744,619.6616 Q393.4053,619.6616 393.9988,619.3918 Q394.5923,619.122 395.2231,618.541 Z " fill="#000000"/><text fill="#000000" font-family="sans-serif" font-size="12" font-style="italic" lengthAdjust="spacing" textLength="42" x="421.25" y="611.4116">&#171;Kode&#187;</text><text fill="#000000" font-family="sans-serif" font-size="14" lengthAdjust="spacing" textLength="58" x="413.25" y="627.478">Plantype</text><line style="stroke:#181818;stroke-width:0.5;" x1="335" x2="517" y1="635.4311" y2="635.4311"/><ellipse cx="345" cy="649.1752" fill="none" rx="3" ry="3" style="stroke:#038048;stroke-width:1.0;"/><text fill="#000000" font-family="sans-serif" font-size="14" lengthAdjust="spacing" textLength="116" x="354" y="652.9663">kodeverdi: string</text><ellipse cx="345" cy="665.6635" fill="none" rx="3" ry="3" style="stroke:#038048;stroke-width:1.0;"/><text fill="#000000" font-family="sans-serif" font-size="14" lengthAdjust="spacing" textLength="158" x="354" y="669.4545">kodebeskrivelse: string</text><line style="stroke:#181818;stroke-width:0.5;" x1="335" x2="517" y1="676.4077" y2="676.4077"/></g><!--class Planstatus--><g id="elem_Planstatus"><rect codeLine="30" fill="#F1F1F1" height="89.5977" id="Planstatus" rx="2.5" ry="2.5" style="stroke:#181818;stroke-width:0.5;" width="184" x="553" y="594.81"/><ellipse cx="605.75" cy="615.1205" fill="#ADD1B2" rx="11" ry="11" style="stroke:#181818;stroke-width:1.0;"/><path d="M608.2231,621.2636 Q607.6421,621.5624 607.0029,621.7119 Q606.3638,621.8613 605.6582,621.8613 Q603.1514,621.8613 601.8315,620.2094 Q600.5117,618.5576 600.5117,615.4365 Q600.5117,612.3071 601.8315,610.6552 Q603.1514,609.0034 605.6582,609.0034 Q606.3638,609.0034 607.0112,609.1528 Q607.6587,609.3022 608.2231,609.601 L608.2231,612.3237 Q607.5923,611.7426 606.9988,611.4728 Q606.4053,611.2031 605.7744,611.2031 Q604.4297,611.2031 603.7449,612.2697 Q603.0601,613.3364 603.0601,615.4365 Q603.0601,617.5283 603.7449,618.5949 Q604.4297,619.6616 605.7744,619.6616 Q606.4053,619.6616 606.9988,619.3918 Q607.5923,619.122 608.2231,618.541 Z " fill="#000000"/><text fill="#000000" font-family="sans-serif" font-size="12" font-style="italic" lengthAdjust="spacing" textLength="42" x="640.25" y="611.4116">&#171;Kode&#187;</text><text fill="#000000" font-family="sans-serif" font-size="14" lengthAdjust="spacing" textLength="70" x="626.25" y="627.478">Planstatus</text><line style="stroke:#181818;stroke-width:0.5;" x1="554" x2="736" y1="635.4311" y2="635.4311"/><ellipse cx="564" cy="649.1752" fill="none" rx="3" ry="3" style="stroke:#038048;stroke-width:1.0;"/><text fill="#000000" font-family="sans-serif" font-size="14" lengthAdjust="spacing" textLength="116" x="573" y="652.9663">kodeverdi: string</text><ellipse cx="564" cy="665.6635" fill="none" rx="3" ry="3" style="stroke:#038048;stroke-width:1.0;"/><text fill="#000000" font-family="sans-serif" font-size="14" lengthAdjust="spacing" textLength="158" x="573" y="669.4545">kodebeskrivelse: string</text><line style="stroke:#181818;stroke-width:0.5;" x1="554" x2="736" y1="676.4077" y2="676.4077"/></g><!--class Lovreferanse--><g id="elem_Lovreferanse"><rect codeLine="35" fill="#F1F1F1" height="89.5977" id="Lovreferanse" rx="2.5" ry="2.5" style="stroke:#181818;stroke-width:0.5;" width="184" x="772" y="594.81"/><ellipse cx="815.8" cy="615.1205" fill="#ADD1B2" rx="11" ry="11" style="stroke:#181818;stroke-width:1.0;"/><path d="M818.2731,621.2636 Q817.6921,621.5624 817.0529,621.7119 Q816.4138,621.8613 815.7082,621.8613 Q813.2014,621.8613 811.8815,620.2094 Q810.5617,618.5576 810.5617,615.4365 Q810.5617,612.3071 811.8815,610.6552 Q813.2014,609.0034 815.7082,609.0034 Q816.4138,609.0034 817.0612,609.1528 Q817.7087,609.3022 818.2731,609.601 L818.2731,612.3237 Q817.6423,611.7426 817.0488,611.4728 Q816.4553,611.2031 815.8244,611.2031 Q814.4797,611.2031 813.7949,612.2697 Q813.1101,613.3364 813.1101,615.4365 Q813.1101,617.5283 813.7949,618.5949 Q814.4797,619.6616 815.8244,619.6616 Q816.4553,619.6616 817.0488,619.3918 Q817.6423,619.122 818.2731,618.541 Z " fill="#000000"/><text fill="#000000" font-family="sans-serif" font-size="12" font-style="italic" lengthAdjust="spacing" textLength="42" x="859.2" y="611.4116">&#171;Kode&#187;</text><text fill="#000000" font-family="sans-serif" font-size="14" lengthAdjust="spacing" textLength="88" x="836.2" y="627.478">Lovreferanse</text><line style="stroke:#181818;stroke-width:0.5;" x1="773" x2="955" y1="635.4311" y2="635.4311"/><ellipse cx="783" cy="649.1752" fill="none" rx="3" ry="3" style="stroke:#038048;stroke-width:1.0;"/><text fill="#000000" font-family="sans-serif" font-size="14" lengthAdjust="spacing" textLength="116" x="792" y="652.9663">kodeverdi: string</text><ellipse cx="783" cy="665.6635" fill="none" rx="3" ry="3" style="stroke:#038048;stroke-width:1.0;"/><text fill="#000000" font-family="sans-serif" font-size="14" lengthAdjust="spacing" textLength="158" x="792" y="669.4545">kodebeskrivelse: string</text><line style="stroke:#181818;stroke-width:0.5;" x1="773" x2="955" y1="676.4077" y2="676.4077"/></g><!--class ForslagstillerType--><g id="elem_ForslagstillerType"><rect codeLine="40" fill="#F1F1F1" height="89.5977" id="ForslagstillerType" rx="2.5" ry="2.5" style="stroke:#181818;stroke-width:0.5;" width="184" x="991" y="594.81"/><ellipse cx="1019.5" cy="615.1205" fill="#ADD1B2" rx="11" ry="11" style="stroke:#181818;stroke-width:1.0;"/><path d="M1021.9731,621.2636 Q1021.3921,621.5624 1020.7529,621.7119 Q1020.1138,621.8613 1019.4082,621.8613 Q1016.9014,621.8613 1015.5815,620.2094 Q1014.2617,618.5576 1014.2617,615.4365 Q1014.2617,612.3071 1015.5815,610.6552 Q1016.9014,609.0034 1019.4082,609.0034 Q1020.1138,609.0034 1020.7612,609.1528 Q1021.4087,609.3022 1021.9731,609.601 L1021.9731,612.3237 Q1021.3423,611.7426 1020.7488,611.4728 Q1020.1553,611.2031 1019.5244,611.2031 Q1018.1797,611.2031 1017.4949,612.2697 Q1016.8101,613.3364 1016.8101,615.4365 Q1016.8101,617.5283 1017.4949,618.5949 Q1018.1797,619.6616 1019.5244,619.6616 Q1020.1553,619.6616 1020.7488,619.3918 Q1021.3423,619.122 1021.9731,618.541 Z " fill="#000000"/><text fill="#000000" font-family="sans-serif" font-size="12" font-style="italic" lengthAdjust="spacing" textLength="42" x="1076.5" y="611.4116">&#171;Kode&#187;</text><text fill="#000000" font-family="sans-serif" font-size="14" lengthAdjust="spacing" textLength="122" x="1036.5" y="627.478">ForslagstillerType</text><line style="stroke:#181818;stroke-width:0.5;" x1="992" x2="1174" y1="635.4311" y2="635.4311"/><ellipse cx="1002" cy="649.1752" fill="none" rx="3" ry="3" style="stroke:#038048;stroke-width:1.0;"/><text fill="#000000" font-family="sans-serif" font-size="14" lengthAdjust="spacing" textLength="116" x="1011" y="652.9663">kodeverdi: string</text><ellipse cx="1002" cy="665.6635" fill="none" rx="3" ry="3" style="stroke:#038048;stroke-width:1.0;"/><text fill="#000000" font-family="sans-serif" font-size="14" lengthAdjust="spacing" textLength="158" x="1011" y="669.4545">kodebeskrivelse: string</text><line style="stroke:#181818;stroke-width:0.5;" x1="992" x2="1174" y1="676.4077" y2="676.4077"/></g><!--class HentRelatertePlanerResultat--><g id="elem_HentRelatertePlanerResultat"><rect codeLine="4" fill="#F1F1F1" height="80.9766" id="HentRelatertePlanerResultat" rx="2.5" ry="2.5" style="stroke:#181818;stroke-width:0.5;" width="309" x="244.5" y="7"/><ellipse cx="299.25" cy="23" fill="#ADD1B2" rx="11" ry="11" style="stroke:#181818;stroke-width:1.0;"/><path d="M301.7231,29.1431 Q301.1421,29.4419 300.5029,29.5913 Q299.8638,29.7407 299.1582,29.7407 Q296.6514,29.7407 295.3315,28.0889 Q294.0117,26.437 294.0117,23.3159 Q294.0117,20.1865 295.3315,18.5347 Q296.6514,16.8828 299.1582,16.8828 Q299.8638,16.8828 300.5112,17.0322 Q301.1587,17.1816 301.7231,17.4805 L301.7231,20.2031 Q301.0923,19.6221 300.4988,19.3523 Q299.9053,19.0825 299.2744,19.0825 Q297.9297,19.0825 297.2449,20.1492 Q296.5601,21.2158 296.5601,23.3159 Q296.5601,25.4077 297.2449,26.4744 Q297.9297,27.541 299.2744,27.541 Q299.9053,27.541 300.4988,27.2712 Q301.0923,27.0015 301.7231,26.4204 Z " fill="#000000"/><text fill="#000000" font-family="sans-serif" font-size="14" lengthAdjust="spacing" textLength="191" x="319.75" y="28.291">HentRelatertePlanerResultat</text><line style="stroke:#181818;stroke-width:0.5;" x1="245.5" x2="552.5" y1="39" y2="39"/><ellipse cx="255.5" cy="52.7441" fill="none" rx="3" ry="3" style="stroke:#038048;stroke-width:1.0;"/><text fill="#000000" font-family="sans-serif" font-size="14" lengthAdjust="spacing" textLength="283" x="264.5" y="56.5352">nasjonalArealplanId: NasjonalArealplanId</text><ellipse cx="255.5" cy="69.2324" fill="none" rx="3" ry="3" style="stroke:#038048;stroke-width:1.0;"/><text fill="#000000" font-family="sans-serif" font-size="14" lengthAdjust="spacing" textLength="215" x="264.5" y="73.0234">planrelasjoner: Planrelasjoner[]</text><line style="stroke:#181818;stroke-width:0.5;" x1="245.5" x2="552.5" y1="79.9766" y2="79.9766"/></g><!--class Planrelasjoner--><g id="elem_Planrelasjoner"><rect codeLine="9" fill="#F1F1F1" height="80.9766" id="Planrelasjoner" rx="2.5" ry="2.5" style="stroke:#181818;stroke-width:0.5;" width="195" x="437.5" y="147.97"/><ellipse cx="481.75" cy="163.97" fill="#ADD1B2" rx="11" ry="11" style="stroke:#181818;stroke-width:1.0;"/><path d="M484.2231,170.1131 Q483.6421,170.4119 483.0029,170.5613 Q482.3638,170.7107 481.6582,170.7107 Q479.1514,170.7107 477.8315,169.0589 Q476.5117,167.407 476.5117,164.2859 Q476.5117,161.1565 477.8315,159.5047 Q479.1514,157.8528 481.6582,157.8528 Q482.3638,157.8528 483.0112,158.0022 Q483.6587,158.1516 484.2231,158.4505 L484.2231,161.1731 Q483.5923,160.5921 482.9988,160.3223 Q482.4053,160.0525 481.7744,160.0525 Q480.4297,160.0525 479.7449,161.1192 Q479.0601,162.1858 479.0601,164.2859 Q479.0601,166.3777 479.7449,167.4444 Q480.4297,168.511 481.7744,168.511 Q482.4053,168.511 482.9988,168.2412 Q483.5923,167.9715 484.2231,167.3904 Z " fill="#000000"/><text fill="#000000" font-family="sans-serif" font-size="14" lengthAdjust="spacing" textLength="98" x="502.25" y="169.261">Planrelasjoner</text><line style="stroke:#181818;stroke-width:0.5;" x1="438.5" x2="631.5" y1="179.97" y2="179.97"/><ellipse cx="448.5" cy="193.7141" fill="none" rx="3" ry="3" style="stroke:#038048;stroke-width:1.0;"/><text fill="#000000" font-family="sans-serif" font-size="14" lengthAdjust="spacing" textLength="169" x="457.5" y="197.5052">planforhold: Planforhold</text><ellipse cx="448.5" cy="210.2024" fill="none" rx="3" ry="3" style="stroke:#038048;stroke-width:1.0;"/><text fill="#000000" font-family="sans-serif" font-size="14" lengthAdjust="spacing" textLength="138" x="457.5" y="213.9934">arealplan: Arealplan</text><line style="stroke:#181818;stroke-width:0.5;" x1="438.5" x2="631.5" y1="220.9466" y2="220.9466"/></g><!--class Planforhold--><g id="elem_Planforhold"><rect codeLine="14" fill="#F1F1F1" height="89.5977" id="Planforhold" rx="2.5" ry="2.5" style="stroke:#181818;stroke-width:0.5;" width="184" x="725" y="367.08"/><ellipse cx="772.75" cy="387.3905" fill="#ADD1B2" rx="11" ry="11" style="stroke:#181818;stroke-width:1.0;"/><path d="M775.2231,393.5336 Q774.6421,393.8324 774.0029,393.9819 Q773.3638,394.1313 772.6582,394.1313 Q770.1514,394.1313 768.8315,392.4794 Q767.5117,390.8276 767.5117,387.7065 Q767.5117,384.5771 768.8315,382.9252 Q770.1514,381.2734 772.6582,381.2734 Q773.3638,381.2734 774.0112,381.4228 Q774.6587,381.5722 775.2231,381.871 L775.2231,384.5937 Q774.5923,384.0126 773.9988,383.7428 Q773.4053,383.4731 772.7744,383.4731 Q771.4297,383.4731 770.7449,384.5397 Q770.0601,385.6064 770.0601,387.7065 Q770.0601,389.7983 770.7449,390.8649 Q771.4297,391.9316 772.7744,391.9316 Q773.4053,391.9316 773.9988,391.6618 Q774.5923,391.392 775.2231,390.811 Z " fill="#000000"/><text fill="#000000" font-family="sans-serif" font-size="12" font-style="italic" lengthAdjust="spacing" textLength="42" x="812.25" y="383.6816">&#171;Kode&#187;</text><text fill="#000000" font-family="sans-serif" font-size="14" lengthAdjust="spacing" textLength="80" x="793.25" y="399.748">Planforhold</text><line style="stroke:#181818;stroke-width:0.5;" x1="726" x2="908" y1="407.7011" y2="407.7011"/><ellipse cx="736" cy="421.4452" fill="none" rx="3" ry="3" style="stroke:#038048;stroke-width:1.0;"/><text fill="#000000" font-family="sans-serif" font-size="14" lengthAdjust="spacing" textLength="116" x="745" y="425.2363">kodeverdi: string</text><ellipse cx="736" cy="437.9335" fill="none" rx="3" ry="3" style="stroke:#038048;stroke-width:1.0;"/><text fill="#000000" font-family="sans-serif" font-size="14" lengthAdjust="spacing" textLength="158" x="745" y="441.7245">kodebeskrivelse: string</text><line style="stroke:#181818;stroke-width:0.5;" x1="726" x2="908" y1="448.6777" y2="448.6777"/></g><!--link NasjonalArealplanId to AdministrativEnhet--><g id="link_NasjonalArealplanId_AdministrativEnhet"><path codeLine="6" d="M153,680.42 C153,699.89 153,723.47 153,743.95 " fill="none" id="NasjonalArealplanId-AdministrativEnhet" style="stroke:#181818;stroke-width:1.0;"/></g><!--link Arealplan to NasjonalArealplanId--><g id="link_Arealplan_NasjonalArealplanId"><path codeLine="19" d="M380.18,504.36 C324.54,537.24 264.66,572.63 220.35,598.81 " fill="none" id="Arealplan-NasjonalArealplanId" style="stroke:#181818;stroke-width:1.0;"/></g><!--link Arealplan to Plantype--><g id="link_Arealplan_Plantype"><path codeLine="20" d="M476.03,534.99 C465.75,556.29 455.68,577.14 447.3,594.49 " fill="none" id="Arealplan-Plantype" style="stroke:#181818;stroke-width:1.0;"/></g><!--link Arealplan to Planstatus--><g id="link_Arealplan_Planstatus"><path codeLine="21" d="M594.51,534.99 C604.88,556.29 615.05,577.14 623.5,594.49 " fill="none" id="Arealplan-Planstatus" style="stroke:#181818;stroke-width:1.0;"/></g><!--link Arealplan to Lovreferanse--><g id="link_Arealplan_Lovreferanse"><path codeLine="22" d="M689.54,522.79 C695.43,526.86 701.26,530.88 707,534.81 C735.98,554.65 768.31,576.14 796.06,594.38 " fill="none" id="Arealplan-Lovreferanse" style="stroke:#181818;stroke-width:1.0;"/></g><!--link Arealplan to ForslagstillerType--><g id="link_Arealplan_ForslagstillerType"><path codeLine="23" d="M689.96,526.65 C695.63,529.54 701.32,532.28 707,534.81 C818.11,584.27 857.86,558.68 974,594.81 C979.45,596.5 985.02,598.35 990.6,600.3 " fill="none" id="Arealplan-ForslagstillerType" style="stroke:#181818;stroke-width:1.0;"/></g><!--link HentRelatertePlanerResultat to NasjonalArealplanId--><g id="link_HentRelatertePlanerResultat_NasjonalArealplanId"><path codeLine="19" d="M382.48,88.12 C337.72,195.49 214.48,491.13 169.61,598.76 " fill="none" id="HentRelatertePlanerResultat-NasjonalArealplanId" style="stroke:#181818;stroke-width:1.0;"/></g><!--link HentRelatertePlanerResultat to Planrelasjoner--><g id="link_HentRelatertePlanerResultat_Planrelasjoner"><path codeLine="20" d="M437.97,88.31 C456.18,106.92 477.81,129.02 496.02,147.63 " fill="none" id="HentRelatertePlanerResultat-Planrelasjoner" style="stroke:#181818;stroke-width:1.0;"/></g><!--link Planrelasjoner to Arealplan--><g id="link_Planrelasjoner_Arealplan"><path codeLine="21" d="M535,229.3 C535,246.36 535,267.29 535,288.8 " fill="none" id="Planrelasjoner-Arealplan" style="stroke:#181818;stroke-width:1.0;"/></g><!--link Planrelasjoner to Planforhold--><g id="link_Planrelasjoner_Planforhold"><path codeLine="22" d="M615.85,229.39 C645.83,245.92 679.25,266.48 707,288.95 C735.25,311.82 762.65,342.16 783.03,366.85 " fill="none" id="Planrelasjoner-Planforhold" style="stroke:#181818;stroke-width:1.0;"/></g><!--SRC=[ZL2nQWCn3Dtz5SeSeeEEHmXqQoc4aBLqS6DTwvwmW-Mx9VJVQtEnqsj2Mmz6Ua_l2Rs5TGSU304sY8tps0jsDdr7rWx7E-o8cGHr8CqPQsg5nq4j_YbtMZwyqrp5rZGti6of3gn5u85St1FhI27IBh4KzYG3HntXf22zPJ6uBmQFfeNjDJXDvpeamqnJQ64twvzVr6TPFMVAjgplV7ZtR2RnkPdOUaGBTVFSyJmEw_MJDxJP5Dy-TIC5OrkG6Anxky2l97sm8x5G9PFdRz6iLZSJ-4ColrZz220DN6wwvhvdyGK0]--></g></svg>