<svg xmlns="http://www.w3.org/2000/svg" xmlns:xlink="http://www.w3.org/1999/xlink" contentStyleType="text/css" data-diagram-type="CLASS" height="848px" preserveAspectRatio="none" style="width:1179px;height:848px;background:#FFFFFF;" version="1.1" viewBox="0 0 1179 848" width="1179px" zoomAndPan="magnify"><defs/><g><!--class NasjonalArealplanId--><g class="entity" data-entity="NasjonalArealplanId" data-source-line="1" data-uid="ent0002" id="entity_NasjonalArealplanId"><rect fill="#F1F1F1" height="80.9766" rx="2.5" ry="2.5" style="stroke:#181818;stroke-width:0.5;" width="290.3047" x="7" y="599.12"/><ellipse cx="80.0898" cy="615.12" fill="#ADD1B2" rx="11" ry="11" style="stroke:#181818;stroke-width:1;"/><path d="M82.563,621.2631 Q81.9819,621.5619 81.3428,621.7113 Q80.7036,621.8607 79.998,621.8607 Q77.4912,621.8607 76.1714,620.2089 Q74.8516,618.557 74.8516,615.4359 Q74.8516,612.3065 76.1714,610.6547 Q77.4912,609.0028 79.998,609.0028 Q80.7036,609.0028 81.3511,609.1522 Q81.9985,609.3016 82.563,609.6005 L82.563,612.3231 Q81.9321,611.7421 81.3386,611.4723 Q80.7451,611.2025 80.1143,611.2025 Q78.7695,611.2025 78.0847,612.2692 Q77.3999,613.3358 77.3999,615.4359 Q77.3999,617.5277 78.0847,618.5944 Q78.7695,619.661 80.1143,619.661 Q80.7451,619.661 81.3386,619.3912 Q81.9321,619.1215 82.563,618.5404 Z " fill="#000000"/><text fill="#000000" font-family="sans-serif" font-size="14" lengthAdjust="spacing" textLength="135.625" x="100.5898" y="620.411">NasjonalArealplanId</text><line style="stroke:#181818;stroke-width:0.5;" x1="8" x2="296.3047" y1="631.12" y2="631.12"/><ellipse cx="18" cy="644.8641" fill="none" rx="3" ry="3" style="stroke:#038048;stroke-width:1;"/><text fill="#000000" font-family="sans-serif" font-size="14" lengthAdjust="spacing" textLength="264.3047" x="27" y="648.6552">administrativEnhet: AdministrativEnhet</text><ellipse cx="18" cy="661.3524" fill="none" rx="3" ry="3" style="stroke:#038048;stroke-width:1;"/><text fill="#000000" font-family="sans-serif" font-size="14" lengthAdjust="spacing" textLength="170.126" x="27" y="665.1434">planidentifikasjon: string</text><line style="stroke:#181818;stroke-width:0.5;" x1="8" x2="296.3047" y1="672.0966" y2="672.0966"/></g><!--class AdministrativEnhet--><g class="entity" data-entity="AdministrativEnhet" data-source-line="6" data-uid="ent0003" id="entity_AdministrativEnhet"><rect fill="#F1F1F1" height="97.4648" rx="2.5" ry="2.5" style="stroke:#181818;stroke-width:0.5;" width="160.6865" x="71.81" y="744.41"/><ellipse cx="86.81" cy="760.41" fill="#EB937F" rx="11" ry="11" style="stroke:#181818;stroke-width:1;"/><path d="M90.4243,766.91 L82.7045,766.91 L82.7045,754.5169 L90.4243,754.5169 L90.4243,756.6751 L85.1533,756.6751 L85.1533,759.348 L89.9262,759.348 L89.9262,761.5062 L85.1533,761.5062 L85.1533,764.7518 L90.4243,764.7518 Z " fill="#000000"/><text fill="#000000" font-family="sans-serif" font-size="14" lengthAdjust="spacing" textLength="128.6865" x="100.81" y="765.701">AdministrativEnhet</text><line style="stroke:#181818;stroke-width:0.5;" x1="72.81" x2="231.4965" y1="776.41" y2="776.41"/><text fill="#000000" font-family="sans-serif" font-size="14" lengthAdjust="spacing" textLength="125.1455" x="77.81" y="793.9452">kommunenummer</text><text fill="#000000" font-family="sans-serif" font-size="14" lengthAdjust="spacing" textLength="96.6738" x="77.81" y="810.4334">fylkesnummer</text><text fill="#000000" font-family="sans-serif" font-size="14" lengthAdjust="spacing" textLength="69.8086" x="77.81" y="826.9217">landskode</text><line style="stroke:#181818;stroke-width:0.5;" x1="72.81" x2="231.4965" y1="833.8748" y2="833.8748"/></g><!--class Arealplan--><g class="entity" data-entity="Arealplan" data-source-line="4" data-uid="ent0005" id="entity_Arealplan"><rect fill="#F1F1F1" height="245.8594" rx="2.5" ry="2.5" style="stroke:#181818;stroke-width:0.5;" width="304.4551" x="380.92" y="288.95"/><ellipse cx="496.7755" cy="304.95" fill="#ADD1B2" rx="11" ry="11" style="stroke:#181818;stroke-width:1;"/><path d="M499.2486,311.0931 Q498.6676,311.3919 498.0284,311.5413 Q497.3892,311.6907 496.6837,311.6907 Q494.1768,311.6907 492.857,310.0389 Q491.5372,308.387 491.5372,305.2659 Q491.5372,302.1365 492.857,300.4847 Q494.1768,298.8328 496.6837,298.8328 Q497.3892,298.8328 498.0367,298.9822 Q498.6842,299.1316 499.2486,299.4305 L499.2486,302.1531 Q498.6178,301.5721 498.0242,301.3023 Q497.4307,301.0325 496.7999,301.0325 Q495.4552,301.0325 494.7703,302.0992 Q494.0855,303.1658 494.0855,305.2659 Q494.0855,307.3577 494.7703,308.4244 Q495.4552,309.491 496.7999,309.491 Q497.4307,309.491 498.0242,309.2212 Q498.6178,308.9515 499.2486,308.3704 Z " fill="#000000"/><text fill="#000000" font-family="sans-serif" font-size="14" lengthAdjust="spacing" textLength="64.2441" x="517.2755" y="310.241">Arealplan</text><line style="stroke:#181818;stroke-width:0.5;" x1="381.92" x2="684.3751" y1="320.95" y2="320.95"/><ellipse cx="391.92" cy="334.6941" fill="none" rx="3" ry="3" style="stroke:#038048;stroke-width:1;"/><text fill="#000000" font-family="sans-serif" font-size="14" lengthAdjust="spacing" textLength="278.4551" x="400.92" y="338.4852">nasjonalArealplanId: NasjonalArealplanId</text><ellipse cx="391.92" cy="351.1824" fill="none" rx="3" ry="3" style="stroke:#038048;stroke-width:1;"/><text fill="#000000" font-family="sans-serif" font-size="14" lengthAdjust="spacing" textLength="124.667" x="400.92" y="354.9734">plantype: Plantype</text><ellipse cx="391.92" cy="367.6707" fill="none" rx="3" ry="3" style="stroke:#038048;stroke-width:1;"/><text fill="#000000" font-family="sans-serif" font-size="14" lengthAdjust="spacing" textLength="110.0586" x="400.92" y="371.4617">plannavn: string</text><ellipse cx="391.92" cy="384.159" fill="none" rx="3" ry="3" style="stroke:#038048;stroke-width:1;"/><text fill="#000000" font-family="sans-serif" font-size="14" lengthAdjust="spacing" textLength="148.6748" x="400.92" y="387.95">planstatus: Planstatus</text><ellipse cx="391.92" cy="400.6473" fill="none" rx="3" ry="3" style="stroke:#038048;stroke-width:1;"/><text fill="#000000" font-family="sans-serif" font-size="14" lengthAdjust="spacing" textLength="266.9502" x="400.92" y="404.4383">plandokumentasjonOppdatert: boolean</text><ellipse cx="391.92" cy="417.1355" fill="none" rx="3" ry="3" style="stroke:#038048;stroke-width:1;"/><text fill="#000000" font-family="sans-serif" font-size="14" lengthAdjust="spacing" textLength="176.8867" x="400.92" y="420.9266">ubehandletKlage: boolean</text><ellipse cx="391.92" cy="433.6238" fill="none" rx="3" ry="3" style="stroke:#038048;stroke-width:1;"/><text fill="#000000" font-family="sans-serif" font-size="14" lengthAdjust="spacing" textLength="207.5459" x="400.92" y="437.4148">ubehandletInnsigelse: boolean</text><ellipse cx="391.92" cy="450.1121" fill="none" rx="3" ry="3" style="stroke:#038048;stroke-width:1;"/><text fill="#000000" font-family="sans-serif" font-size="14" lengthAdjust="spacing" textLength="120.9619" x="400.92" y="453.9031">vedtaksdato: date</text><ellipse cx="391.92" cy="466.6004" fill="none" rx="3" ry="3" style="stroke:#038048;stroke-width:1;"/><text fill="#000000" font-family="sans-serif" font-size="14" lengthAdjust="spacing" textLength="193.416" x="400.92" y="470.3914">vedtakEndeligPlanDato: date</text><ellipse cx="391.92" cy="483.0887" fill="none" rx="3" ry="3" style="stroke:#038048;stroke-width:1;"/><text fill="#000000" font-family="sans-serif" font-size="14" lengthAdjust="spacing" textLength="179.1836" x="400.92" y="486.8797">lovreferanse: Lovreferanse</text><ellipse cx="391.92" cy="499.577" fill="none" rx="3" ry="3" style="stroke:#038048;stroke-width:1;"/><text fill="#000000" font-family="sans-serif" font-size="14" lengthAdjust="spacing" textLength="247.0986" x="400.92" y="503.368">forslagstillerType: ForslagstillerType</text><ellipse cx="391.92" cy="516.0652" fill="none" rx="3" ry="3" style="stroke:#038048;stroke-width:1;"/><text fill="#000000" font-family="sans-serif" font-size="14" lengthAdjust="spacing" textLength="170.4951" x="400.92" y="519.8563">alternativFinnes: boolean</text><line style="stroke:#181818;stroke-width:0.5;" x1="381.92" x2="684.3751" y1="526.8094" y2="526.8094"/></g><!--class Plantype--><g class="entity" data-entity="Plantype" data-source-line="20" data-uid="ent0007" id="entity_Plantype"><rect fill="#F1F1F1" height="89.5977" rx="2.5" ry="2.5" style="stroke:#181818;stroke-width:0.5;" width="183.5547" x="332.38" y="594.81"/><ellipse cx="391.2238" cy="615.1205" fill="#ADD1B2" rx="11" ry="11" style="stroke:#181818;stroke-width:1;"/><path d="M393.6969,621.2636 Q393.1158,621.5624 392.4767,621.7119 Q391.8375,621.8613 391.132,621.8613 Q388.6251,621.8613 387.3053,620.2094 Q385.9855,618.5576 385.9855,615.4365 Q385.9855,612.3071 387.3053,610.6552 Q388.6251,609.0034 391.132,609.0034 Q391.8375,609.0034 392.485,609.1528 Q393.1324,609.3022 393.6969,609.601 L393.6969,612.3237 Q393.066,611.7426 392.4725,611.4728 Q391.879,611.2031 391.2482,611.2031 Q389.9034,611.2031 389.2186,612.2697 Q388.5338,613.3364 388.5338,615.4365 Q388.5338,617.5283 389.2186,618.5949 Q389.9034,619.6616 391.2482,619.6616 Q391.879,619.6616 392.4725,619.3918 Q393.066,619.122 393.6969,618.541 Z " fill="#000000"/><text fill="#000000" font-family="sans-serif" font-size="12" font-style="italic" lengthAdjust="spacing" textLength="42.0176" x="419.3986" y="611.4116">&#171;Kode&#187;</text><text fill="#000000" font-family="sans-serif" font-size="14" lengthAdjust="spacing" textLength="57.3672" x="411.7238" y="627.478">Plantype</text><line style="stroke:#181818;stroke-width:0.5;" x1="333.38" x2="514.9347" y1="635.4311" y2="635.4311"/><ellipse cx="343.38" cy="649.1752" fill="none" rx="3" ry="3" style="stroke:#038048;stroke-width:1;"/><text fill="#000000" font-family="sans-serif" font-size="14" lengthAdjust="spacing" textLength="115.4521" x="352.38" y="652.9663">kodeverdi: string</text><ellipse cx="343.38" cy="665.6635" fill="none" rx="3" ry="3" style="stroke:#038048;stroke-width:1;"/><text fill="#000000" font-family="sans-serif" font-size="14" lengthAdjust="spacing" textLength="157.5547" x="352.38" y="669.4545">kodebeskrivelse: string</text><line style="stroke:#181818;stroke-width:0.5;" x1="333.38" x2="514.9347" y1="676.4077" y2="676.4077"/></g><!--class Planstatus--><g class="entity" data-entity="Planstatus" data-source-line="21" data-uid="ent0009" id="entity_Planstatus"><rect fill="#F1F1F1" height="89.5977" rx="2.5" ry="2.5" style="stroke:#181818;stroke-width:0.5;" width="183.5547" x="551.38" y="594.81"/><ellipse cx="604.2218" cy="615.1205" fill="#ADD1B2" rx="11" ry="11" style="stroke:#181818;stroke-width:1;"/><path d="M606.6949,621.2636 Q606.1139,621.5624 605.4747,621.7119 Q604.8356,621.8613 604.13,621.8613 Q601.6232,621.8613 600.3033,620.2094 Q598.9835,618.5576 598.9835,615.4365 Q598.9835,612.3071 600.3033,610.6552 Q601.6232,609.0034 604.13,609.0034 Q604.8356,609.0034 605.483,609.1528 Q606.1305,609.3022 606.6949,609.601 L606.6949,612.3237 Q606.0641,611.7426 605.4706,611.4728 Q604.8771,611.2031 604.2462,611.2031 Q602.9015,611.2031 602.2167,612.2697 Q601.5319,613.3364 601.5319,615.4365 Q601.5319,617.5283 602.2167,618.5949 Q602.9015,619.6616 604.2462,619.6616 Q604.8771,619.6616 605.4706,619.3918 Q606.0641,619.122 606.6949,618.541 Z " fill="#000000"/><text fill="#000000" font-family="sans-serif" font-size="12" font-style="italic" lengthAdjust="spacing" textLength="42.0176" x="638.3986" y="611.4116">&#171;Kode&#187;</text><text fill="#000000" font-family="sans-serif" font-size="14" lengthAdjust="spacing" textLength="69.3711" x="624.7218" y="627.478">Planstatus</text><line style="stroke:#181818;stroke-width:0.5;" x1="552.38" x2="733.9347" y1="635.4311" y2="635.4311"/><ellipse cx="562.38" cy="649.1752" fill="none" rx="3" ry="3" style="stroke:#038048;stroke-width:1;"/><text fill="#000000" font-family="sans-serif" font-size="14" lengthAdjust="spacing" textLength="115.4521" x="571.38" y="652.9663">kodeverdi: string</text><ellipse cx="562.38" cy="665.6635" fill="none" rx="3" ry="3" style="stroke:#038048;stroke-width:1;"/><text fill="#000000" font-family="sans-serif" font-size="14" lengthAdjust="spacing" textLength="157.5547" x="571.38" y="669.4545">kodebeskrivelse: string</text><line style="stroke:#181818;stroke-width:0.5;" x1="552.38" x2="733.9347" y1="676.4077" y2="676.4077"/></g><!--class Lovreferanse--><g class="entity" data-entity="Lovreferanse" data-source-line="22" data-uid="ent0011" id="entity_Lovreferanse"><rect fill="#F1F1F1" height="89.5977" rx="2.5" ry="2.5" style="stroke:#181818;stroke-width:0.5;" width="183.5547" x="770.38" y="594.81"/><ellipse cx="814.4876" cy="615.1205" fill="#ADD1B2" rx="11" ry="11" style="stroke:#181818;stroke-width:1;"/><path d="M816.9608,621.2636 Q816.3797,621.5624 815.7405,621.7119 Q815.1014,621.8613 814.3958,621.8613 Q811.889,621.8613 810.5692,620.2094 Q809.2493,618.5576 809.2493,615.4365 Q809.2493,612.3071 810.5692,610.6552 Q811.889,609.0034 814.3958,609.0034 Q815.1014,609.0034 815.7488,609.1528 Q816.3963,609.3022 816.9608,609.601 L816.9608,612.3237 Q816.3299,611.7426 815.7364,611.4728 Q815.1429,611.2031 814.512,611.2031 Q813.1673,611.2031 812.4825,612.2697 Q811.7977,613.3364 811.7977,615.4365 Q811.7977,617.5283 812.4825,618.5949 Q813.1673,619.6616 814.512,619.6616 Q815.1429,619.6616 815.7364,619.3918 Q816.3299,619.122 816.9608,618.541 Z " fill="#000000"/><text fill="#000000" font-family="sans-serif" font-size="12" font-style="italic" lengthAdjust="spacing" textLength="42.0176" x="857.3827" y="611.4116">&#171;Kode&#187;</text><text fill="#000000" font-family="sans-serif" font-size="14" lengthAdjust="spacing" textLength="86.8711" x="834.956" y="627.478">Lovreferanse</text><line style="stroke:#181818;stroke-width:0.5;" x1="771.38" x2="952.9347" y1="635.4311" y2="635.4311"/><ellipse cx="781.38" cy="649.1752" fill="none" rx="3" ry="3" style="stroke:#038048;stroke-width:1;"/><text fill="#000000" font-family="sans-serif" font-size="14" lengthAdjust="spacing" textLength="115.4521" x="790.38" y="652.9663">kodeverdi: string</text><ellipse cx="781.38" cy="665.6635" fill="none" rx="3" ry="3" style="stroke:#038048;stroke-width:1;"/><text fill="#000000" font-family="sans-serif" font-size="14" lengthAdjust="spacing" textLength="157.5547" x="790.38" y="669.4545">kodebeskrivelse: string</text><line style="stroke:#181818;stroke-width:0.5;" x1="771.38" x2="952.9347" y1="676.4077" y2="676.4077"/></g><!--class ForslagstillerType--><g class="entity" data-entity="ForslagstillerType" data-source-line="23" data-uid="ent0013" id="entity_ForslagstillerType"><rect fill="#F1F1F1" height="89.5977" rx="2.5" ry="2.5" style="stroke:#181818;stroke-width:0.5;" width="183.5547" x="989.38" y="594.81"/><ellipse cx="1018.4451" cy="615.1205" fill="#ADD1B2" rx="11" ry="11" style="stroke:#181818;stroke-width:1;"/><path d="M1020.9183,621.2636 Q1020.3372,621.5624 1019.6981,621.7119 Q1019.0589,621.8613 1018.3533,621.8613 Q1015.8465,621.8613 1014.5267,620.2094 Q1013.2069,618.5576 1013.2069,615.4365 Q1013.2069,612.3071 1014.5267,610.6552 Q1015.8465,609.0034 1018.3533,609.0034 Q1019.0589,609.0034 1019.7064,609.1528 Q1020.3538,609.3022 1020.9183,609.601 L1020.9183,612.3237 Q1020.2874,611.7426 1019.6939,611.4728 Q1019.1004,611.2031 1018.4696,611.2031 Q1017.1248,611.2031 1016.44,612.2697 Q1015.7552,613.3364 1015.7552,615.4365 Q1015.7552,617.5283 1016.44,618.5949 Q1017.1248,619.6616 1018.4696,619.6616 Q1019.1004,619.6616 1019.6939,619.3918 Q1020.2874,619.122 1020.9183,618.541 Z " fill="#000000"/><text fill="#000000" font-family="sans-serif" font-size="12" font-style="italic" lengthAdjust="spacing" textLength="42.0176" x="1074.7113" y="611.4116">&#171;Kode&#187;</text><text fill="#000000" font-family="sans-serif" font-size="14" lengthAdjust="spacing" textLength="120.2988" x="1035.5707" y="627.478">ForslagstillerType</text><line style="stroke:#181818;stroke-width:0.5;" x1="990.38" x2="1171.9347" y1="635.4311" y2="635.4311"/><ellipse cx="1000.38" cy="649.1752" fill="none" rx="3" ry="3" style="stroke:#038048;stroke-width:1;"/><text fill="#000000" font-family="sans-serif" font-size="14" lengthAdjust="spacing" textLength="115.4521" x="1009.38" y="652.9663">kodeverdi: string</text><ellipse cx="1000.38" cy="665.6635" fill="none" rx="3" ry="3" style="stroke:#038048;stroke-width:1;"/><text fill="#000000" font-family="sans-serif" font-size="14" lengthAdjust="spacing" textLength="157.5547" x="1009.38" y="669.4545">kodebeskrivelse: string</text><line style="stroke:#181818;stroke-width:0.5;" x1="990.38" x2="1171.9347" y1="676.4077" y2="676.4077"/></g><!--class HentRelatertePlanerResultat--><g class="entity" data-entity="HentRelatertePlanerResultat" data-source-line="4" data-uid="ent0015" id="entity_HentRelatertePlanerResultat"><rect fill="#F1F1F1" height="80.9766" rx="2.5" ry="2.5" style="stroke:#181818;stroke-width:0.5;" width="304.4551" x="244.92" y="7"/><ellipse cx="298.5445" cy="23" fill="#ADD1B2" rx="11" ry="11" style="stroke:#181818;stroke-width:1;"/><path d="M301.0177,29.1431 Q300.4366,29.4419 299.7974,29.5913 Q299.1583,29.7407 298.4527,29.7407 Q295.9459,29.7407 294.6261,28.0889 Q293.3062,26.437 293.3062,23.3159 Q293.3062,20.1865 294.6261,18.5347 Q295.9459,16.8828 298.4527,16.8828 Q299.1583,16.8828 299.8057,17.0322 Q300.4532,17.1816 301.0177,17.4805 L301.0177,20.2031 Q300.3868,19.6221 299.7933,19.3523 Q299.1998,19.0825 298.5689,19.0825 Q297.2242,19.0825 296.5394,20.1492 Q295.8546,21.2158 295.8546,23.3159 Q295.8546,25.4077 296.5394,26.4744 Q297.2242,27.541 298.5689,27.541 Q299.1998,27.541 299.7933,27.2712 Q300.3868,27.0015 301.0177,26.4204 Z " fill="#000000"/><text fill="#000000" font-family="sans-serif" font-size="14" lengthAdjust="spacing" textLength="188.7061" x="319.0445" y="28.291">HentRelatertePlanerResultat</text><line style="stroke:#181818;stroke-width:0.5;" x1="245.92" x2="548.3751" y1="39" y2="39"/><ellipse cx="255.92" cy="52.7441" fill="none" rx="3" ry="3" style="stroke:#038048;stroke-width:1;"/><text fill="#000000" font-family="sans-serif" font-size="14" lengthAdjust="spacing" textLength="278.4551" x="264.92" y="56.5352">nasjonalArealplanId: NasjonalArealplanId</text><ellipse cx="255.92" cy="69.2324" fill="none" rx="3" ry="3" style="stroke:#038048;stroke-width:1;"/><text fill="#000000" font-family="sans-serif" font-size="14" lengthAdjust="spacing" textLength="210.4854" x="264.92" y="73.0234">planrelasjoner: Planrelasjoner[]</text><line style="stroke:#181818;stroke-width:0.5;" x1="245.92" x2="548.3751" y1="79.9766" y2="79.9766"/></g><!--class Planrelasjoner--><g class="entity" data-entity="Planrelasjoner" data-source-line="9" data-uid="ent0016" id="entity_Planrelasjoner"><rect fill="#F1F1F1" height="80.9766" rx="2.5" ry="2.5" style="stroke:#181818;stroke-width:0.5;" width="191.5869" x="437.36" y="147.97"/><ellipse cx="481.0985" cy="163.97" fill="#ADD1B2" rx="11" ry="11" style="stroke:#181818;stroke-width:1;"/><path d="M483.5716,170.1131 Q482.9906,170.4119 482.3514,170.5613 Q481.7122,170.7107 481.0067,170.7107 Q478.4998,170.7107 477.18,169.0589 Q475.8602,167.407 475.8602,164.2859 Q475.8602,161.1565 477.18,159.5047 Q478.4998,157.8528 481.0067,157.8528 Q481.7122,157.8528 482.3597,158.0022 Q483.0072,158.1516 483.5716,158.4505 L483.5716,161.1731 Q482.9408,160.5921 482.3473,160.3223 Q481.7538,160.0525 481.1229,160.0525 Q479.7782,160.0525 479.0933,161.1192 Q478.4085,162.1858 478.4085,164.2859 Q478.4085,166.3777 479.0933,167.4444 Q479.7782,168.511 481.1229,168.511 Q481.7538,168.511 482.3473,168.2412 Q482.9408,167.9715 483.5716,167.3904 Z " fill="#000000"/><text fill="#000000" font-family="sans-serif" font-size="14" lengthAdjust="spacing" textLength="95.7236" x="501.4848" y="169.261">Planrelasjoner</text><line style="stroke:#181818;stroke-width:0.5;" x1="438.36" x2="627.9469" y1="179.97" y2="179.97"/><ellipse cx="448.36" cy="193.7141" fill="none" rx="3" ry="3" style="stroke:#038048;stroke-width:1;"/><text fill="#000000" font-family="sans-serif" font-size="14" lengthAdjust="spacing" textLength="165.5869" x="457.36" y="197.5052">planforhold: Planforhold</text><ellipse cx="448.36" cy="210.2024" fill="none" rx="3" ry="3" style="stroke:#038048;stroke-width:1;"/><text fill="#000000" font-family="sans-serif" font-size="14" lengthAdjust="spacing" textLength="135.4199" x="457.36" y="213.9934">arealplan: Arealplan</text><line style="stroke:#181818;stroke-width:0.5;" x1="438.36" x2="627.9469" y1="220.9466" y2="220.9466"/></g><!--class Planforhold--><g class="entity" data-entity="Planforhold" data-source-line="14" data-uid="ent0017" id="entity_Planforhold"><rect fill="#F1F1F1" height="89.5977" rx="2.5" ry="2.5" style="stroke:#181818;stroke-width:0.5;" width="183.5547" x="720.38" y="367.08"/><ellipse cx="768.9938" cy="387.3905" fill="#ADD1B2" rx="11" ry="11" style="stroke:#181818;stroke-width:1;"/><path d="M771.4669,393.5336 Q770.8859,393.8324 770.2467,393.9819 Q769.6075,394.1313 768.902,394.1313 Q766.3951,394.1313 765.0753,392.4794 Q763.7555,390.8276 763.7555,387.7065 Q763.7555,384.5771 765.0753,382.9252 Q766.3951,381.2734 768.902,381.2734 Q769.6075,381.2734 770.255,381.4228 Q770.9025,381.5722 771.4669,381.871 L771.4669,384.5937 Q770.8361,384.0126 770.2425,383.7428 Q769.649,383.4731 769.0182,383.4731 Q767.6735,383.4731 766.9886,384.5397 Q766.3038,385.6064 766.3038,387.7065 Q766.3038,389.7983 766.9886,390.8649 Q767.6735,391.9316 769.0182,391.9316 Q769.649,391.9316 770.2425,391.6618 Q770.8361,391.392 771.4669,390.811 Z " fill="#000000"/><text fill="#000000" font-family="sans-serif" font-size="12" font-style="italic" lengthAdjust="spacing" textLength="42.0176" x="807.3986" y="383.6816">&#171;Kode&#187;</text><text fill="#000000" font-family="sans-serif" font-size="14" lengthAdjust="spacing" textLength="77.8271" x="789.4938" y="399.748">Planforhold</text><line style="stroke:#181818;stroke-width:0.5;" x1="721.38" x2="902.9347" y1="407.7011" y2="407.7011"/><ellipse cx="731.38" cy="421.4452" fill="none" rx="3" ry="3" style="stroke:#038048;stroke-width:1;"/><text fill="#000000" font-family="sans-serif" font-size="14" lengthAdjust="spacing" textLength="115.4521" x="740.38" y="425.2363">kodeverdi: string</text><ellipse cx="731.38" cy="437.9335" fill="none" rx="3" ry="3" style="stroke:#038048;stroke-width:1;"/><text fill="#000000" font-family="sans-serif" font-size="14" lengthAdjust="spacing" textLength="157.5547" x="740.38" y="441.7245">kodebeskrivelse: string</text><line style="stroke:#181818;stroke-width:0.5;" x1="721.38" x2="902.9347" y1="448.6777" y2="448.6777"/></g><!--link NasjonalArealplanId to AdministrativEnhet--><g class="link" data-entity-1="NasjonalArealplanId" data-entity-2="AdministrativEnhet" data-source-line="6" data-uid="lnk4" id="link_NasjonalArealplanId_AdministrativEnhet"><path codeLine="6" d="M152.15,680.42 C152.15,699.89 152.15,723.47 152.15,743.95" fill="none" id="NasjonalArealplanId-AdministrativEnhet" style="stroke:#181818;stroke-width:1;"/></g><!--link Arealplan to NasjonalArealplanId--><g class="link" data-entity-1="Arealplan" data-entity-2="NasjonalArealplanId" data-source-line="19" data-uid="lnk6" id="link_Arealplan_NasjonalArealplanId"><path codeLine="19" d="M380.65,503.23 C324.72,536.36 264.24,572.2 219.56,598.67" fill="none" id="Arealplan-NasjonalArealplanId" style="stroke:#181818;stroke-width:1;"/></g><!--link Arealplan to Plantype--><g class="link" data-entity-1="Arealplan" data-entity-2="Plantype" data-source-line="20" data-uid="lnk8" id="link_Arealplan_Plantype"><path codeLine="20" d="M474.19,534.99 C463.9,556.29 453.83,577.14 445.45,594.49" fill="none" id="Arealplan-Plantype" style="stroke:#181818;stroke-width:1;"/></g><!--link Arealplan to Planstatus--><g class="link" data-entity-1="Arealplan" data-entity-2="Planstatus" data-source-line="21" data-uid="lnk10" id="link_Arealplan_Planstatus"><path codeLine="21" d="M592.66,534.99 C603.04,556.29 613.2,577.14 621.65,594.49" fill="none" id="Arealplan-Planstatus" style="stroke:#181818;stroke-width:1;"/></g><!--link Arealplan to Lovreferanse--><g class="link" data-entity-1="Arealplan" data-entity-2="Lovreferanse" data-source-line="22" data-uid="lnk12" id="link_Arealplan_Lovreferanse"><path codeLine="22" d="M685.84,522.87 C691.67,526.92 697.46,530.91 703.15,534.81 C732.4,554.83 765.12,576.33 793.24,594.55" fill="none" id="Arealplan-Lovreferanse" style="stroke:#181818;stroke-width:1;"/></g><!--link Arealplan to ForslagstillerType--><g class="link" data-entity-1="Arealplan" data-entity-2="ForslagstillerType" data-source-line="23" data-uid="lnk14" id="link_Arealplan_ForslagstillerType"><path codeLine="23" d="M685.77,526.41 C691.55,529.4 697.35,532.21 703.15,534.81 C814.54,584.71 854.53,558.78 971.15,594.81 C977.04,596.63 983.07,598.62 989.11,600.73" fill="none" id="Arealplan-ForslagstillerType" style="stroke:#181818;stroke-width:1;"/></g><!--link HentRelatertePlanerResultat to NasjonalArealplanId--><g class="link" data-entity-1="HentRelatertePlanerResultat" data-entity-2="NasjonalArealplanId" data-source-line="19" data-uid="lnk18" id="link_HentRelatertePlanerResultat_NasjonalArealplanId"><path codeLine="19" d="M380.7,88.12 C336.12,195.49 213.38,491.13 168.7,598.76" fill="none" id="HentRelatertePlanerResultat-NasjonalArealplanId" style="stroke:#181818;stroke-width:1;"/></g><!--link HentRelatertePlanerResultat to Planrelasjoner--><g class="link" data-entity-1="HentRelatertePlanerResultat" data-entity-2="Planrelasjoner" data-source-line="20" data-uid="lnk19" id="link_HentRelatertePlanerResultat_Planrelasjoner"><path codeLine="20" d="M436.12,88.31 C454.33,106.92 475.96,129.02 494.17,147.63" fill="none" id="HentRelatertePlanerResultat-Planrelasjoner" style="stroke:#181818;stroke-width:1;"/></g><!--link Planrelasjoner to Arealplan--><g class="link" data-entity-1="Planrelasjoner" data-entity-2="Arealplan" data-source-line="21" data-uid="lnk20" id="link_Planrelasjoner_Arealplan"><path codeLine="21" d="M533.15,229.3 C533.15,246.36 533.15,267.29 533.15,288.8" fill="none" id="Planrelasjoner-Arealplan" style="stroke:#181818;stroke-width:1;"/></g><!--link Planrelasjoner to Planforhold--><g class="link" data-entity-1="Planrelasjoner" data-entity-2="Planforhold" data-source-line="22" data-uid="lnk21" id="link_Planrelasjoner_Planforhold"><path codeLine="22" d="M612.66,229.22 C642.4,245.8 675.62,266.44 703.15,288.95 C731.07,311.77 758.11,341.96 778.28,366.59" fill="none" id="Planrelasjoner-Planforhold" style="stroke:#181818;stroke-width:1;"/></g><!--SRC=[ZL2nQWCn3Dtz5SeSeeEEHmXqQoc4aBLqS6DTwvwmW-Mx9VJVQtEnqsj2Mmz6Ua_l2Rs5TGSU304sY8tps0jsDdr7rWx7E-o8cGHr8CqPQsg5nq4j_YbtMZwyqrp5rZGti6of3gn5u85St1FhI27IBh4KzYG3HntXf22zPJ6uBmQFfeNjDJXDvpeamqnJQ64twvzVr6TPFMVAjgplV7ZtR2RnkPdOUaGBTVFSyJmEw_MJDxJP5Dy-TIC5OrkG6Anxky2l97sm8x5G9PFdRz6iLZSJ-4ColrZz220DN6wwvhvdyGK0]--></g></svg>