<svg xmlns="http://www.w3.org/2000/svg" xmlns:xlink="http://www.w3.org/1999/xlink" contentStyleType="text/css" height="385px" preserveAspectRatio="none" style="width:501px;height:385px;background:#FFFFFF;" version="1.1" viewBox="0 0 501 385" width="501px" zoomAndPan="magnify"><defs/><g><!--class Flate--><g id="elem_Flate"><rect codeLine="1" fill="#F1F1F1" height="97.4648" id="Flate" rx="2.5" ry="2.5" style="stroke:#181818;stroke-width:0.5;" width="263" x="75.5" y="131.49"/><ellipse cx="186.25" cy="147.49" fill="#ADD1B2" rx="11" ry="11" style="stroke:#181818;stroke-width:1.0;"/><path d="M188.7231,153.6331 Q188.1421,153.9319 187.5029,154.0813 Q186.8638,154.2307 186.1582,154.2307 Q183.6514,154.2307 182.3315,152.5789 Q181.0117,150.927 181.0117,147.8059 Q181.0117,144.6765 182.3315,143.0247 Q183.6514,141.3728 186.1582,141.3728 Q186.8638,141.3728 187.5112,141.5222 Q188.1587,141.6716 188.7231,141.9705 L188.7231,144.6931 Q188.0923,144.1121 187.4988,143.8423 Q186.9053,143.5725 186.2744,143.5725 Q184.9297,143.5725 184.2449,144.6392 Q183.5601,145.7058 183.5601,147.8059 Q183.5601,149.8977 184.2449,150.9644 Q184.9297,152.031 186.2744,152.031 Q186.9053,152.031 187.4988,151.7612 Q188.0923,151.4915 188.7231,150.9104 Z " fill="#000000"/><text fill="#000000" font-family="sans-serif" font-size="14" lengthAdjust="spacing" textLength="33" x="206.75" y="152.781">Flate</text><line style="stroke:#181818;stroke-width:0.5;" x1="76.5" x2="337.5" y1="163.49" y2="163.49"/><ellipse cx="86.5" cy="177.2341" fill="none" rx="3" ry="3" style="stroke:#038048;stroke-width:1.0;"/><text fill="#000000" font-family="sans-serif" font-size="14" lengthAdjust="spacing" textLength="103" x="95.5" y="181.0252">type: FlateType</text><ellipse cx="86.5" cy="193.7224" fill="none" rx="3" ry="3" style="stroke:#038048;stroke-width:1.0;"/><text fill="#000000" font-family="sans-serif" font-size="14" lengthAdjust="spacing" textLength="167" x="95.5" y="197.5134">koordinater: Koordinat[]</text><ellipse cx="86.5" cy="210.2107" fill="none" rx="3" ry="3" style="stroke:#038048;stroke-width:1.0;"/><text fill="#000000" font-family="sans-serif" font-size="14" lengthAdjust="spacing" textLength="237" x="95.5" y="214.0017">koordinatsystem: Koordinatsystem</text><line style="stroke:#181818;stroke-width:0.5;" x1="76.5" x2="337.5" y1="220.9548" y2="220.9548"/></g><!--class FlateType--><g id="elem_FlateType"><rect codeLine="11" fill="#F1F1F1" height="64.4883" id="FlateType" rx="2.5" ry="2.5" style="stroke:#181818;stroke-width:0.5;" width="98" x="7" y="301.51"/><ellipse cx="22" cy="317.51" fill="#EB937F" rx="11" ry="11" style="stroke:#181818;stroke-width:1.0;"/><path d="M25.6143,324.01 L17.8945,324.01 L17.8945,311.6169 L25.6143,311.6169 L25.6143,313.7751 L20.3433,313.7751 L20.3433,316.448 L25.1162,316.448 L25.1162,318.6062 L20.3433,318.6062 L20.3433,321.8518 L25.6143,321.8518 Z " fill="#000000"/><text fill="#000000" font-family="sans-serif" font-size="14" lengthAdjust="spacing" textLength="66" x="36" y="322.801">FlateType</text><line style="stroke:#181818;stroke-width:0.5;" x1="8" x2="104" y1="333.51" y2="333.51"/><text fill="#000000" font-family="sans-serif" font-size="14" lengthAdjust="spacing" textLength="55" x="13" y="351.0452">Polygon</text><line style="stroke:#181818;stroke-width:0.5;" x1="8" x2="104" y1="357.9983" y2="357.9983"/></g><!--class Koordinat--><g id="elem_Koordinat"><rect codeLine="15" fill="#F1F1F1" height="64.4883" id="Koordinat" rx="2.5" ry="2.5" style="stroke:#181818;stroke-width:0.5;" width="135" x="139.5" y="301.51"/><ellipse cx="170.25" cy="317.51" fill="#ADD1B2" rx="11" ry="11" style="stroke:#181818;stroke-width:1.0;"/><path d="M172.7231,323.6531 Q172.1421,323.9519 171.5029,324.1013 Q170.8638,324.2507 170.1582,324.2507 Q167.6514,324.2507 166.3315,322.5989 Q165.0117,320.947 165.0117,317.8259 Q165.0117,314.6965 166.3315,313.0447 Q167.6514,311.3928 170.1582,311.3928 Q170.8638,311.3928 171.5112,311.5422 Q172.1587,311.6916 172.7231,311.9905 L172.7231,314.7131 Q172.0923,314.1321 171.4988,313.8623 Q170.9053,313.5925 170.2744,313.5925 Q168.9297,313.5925 168.2449,314.6592 Q167.5601,315.7258 167.5601,317.8259 Q167.5601,319.9177 168.2449,320.9844 Q168.9297,322.051 170.2744,322.051 Q170.9053,322.051 171.4988,321.7812 Q172.0923,321.5115 172.7231,320.9304 Z " fill="#000000"/><text fill="#000000" font-family="sans-serif" font-size="14" lengthAdjust="spacing" textLength="68" x="187.75" y="322.801">Koordinat</text><line style="stroke:#181818;stroke-width:0.5;" x1="140.5" x2="273.5" y1="333.51" y2="333.51"/><ellipse cx="150.5" cy="347.2541" fill="none" rx="3" ry="3" style="stroke:#038048;stroke-width:1.0;"/><text fill="#000000" font-family="sans-serif" font-size="14" lengthAdjust="spacing" textLength="109" x="159.5" y="351.0452">items: number[]</text><line style="stroke:#181818;stroke-width:0.5;" x1="140.5" x2="273.5" y1="357.9983" y2="357.9983"/></g><!--class Koordinatsystem--><g id="elem_Koordinatsystem"><rect codeLine="19" fill="#F1F1F1" height="89.5977" id="Koordinatsystem" rx="2.5" ry="2.5" style="stroke:#181818;stroke-width:0.5;" width="184" x="310" y="288.95"/><ellipse cx="341.65" cy="309.2605" fill="#ADD1B2" rx="11" ry="11" style="stroke:#181818;stroke-width:1.0;"/><path d="M344.1231,315.4036 Q343.5421,315.7024 342.9029,315.8519 Q342.2638,316.0013 341.5582,316.0013 Q339.0514,316.0013 337.7315,314.3494 Q336.4117,312.6976 336.4117,309.5765 Q336.4117,306.4471 337.7315,304.7952 Q339.0514,303.1434 341.5582,303.1434 Q342.2638,303.1434 342.9112,303.2928 Q343.5587,303.4422 344.1231,303.741 L344.1231,306.4637 Q343.4923,305.8826 342.8988,305.6128 Q342.3053,305.3431 341.6744,305.3431 Q340.3297,305.3431 339.6449,306.4097 Q338.9601,307.4764 338.9601,309.5765 Q338.9601,311.6683 339.6449,312.7349 Q340.3297,313.8016 341.6744,313.8016 Q342.3053,313.8016 342.8988,313.5318 Q343.4923,313.262 344.1231,312.681 Z " fill="#000000"/><text fill="#000000" font-family="sans-serif" font-size="12" font-style="italic" lengthAdjust="spacing" textLength="42" x="395.85" y="305.5516">&#171;Kode&#187;</text><text fill="#000000" font-family="sans-serif" font-size="14" lengthAdjust="spacing" textLength="115" x="359.35" y="321.618">Koordinatsystem</text><line style="stroke:#181818;stroke-width:0.5;" x1="311" x2="493" y1="329.5711" y2="329.5711"/><ellipse cx="321" cy="343.3152" fill="none" rx="3" ry="3" style="stroke:#038048;stroke-width:1.0;"/><text fill="#000000" font-family="sans-serif" font-size="14" lengthAdjust="spacing" textLength="116" x="330" y="347.1063">kodeverdi: string</text><ellipse cx="321" cy="359.8035" fill="none" rx="3" ry="3" style="stroke:#038048;stroke-width:1.0;"/><text fill="#000000" font-family="sans-serif" font-size="14" lengthAdjust="spacing" textLength="158" x="330" y="363.5945">kodebeskrivelse: string</text><line style="stroke:#181818;stroke-width:0.5;" x1="311" x2="493" y1="370.5477" y2="370.5477"/></g><!--class FinnMidlertidigeForbudMottiltak--><g id="elem_FinnMidlertidigeForbudMottiltak"><rect codeLine="3" fill="#F1F1F1" height="64.4883" id="FinnMidlertidigeForbudMottiltak" rx="2.5" ry="2.5" style="stroke:#181818;stroke-width:0.5;" width="254" x="80" y="7"/><ellipse cx="95" cy="23" fill="#ADD1B2" rx="11" ry="11" style="stroke:#181818;stroke-width:1.0;"/><path d="M97.4731,29.1431 Q96.8921,29.4419 96.2529,29.5913 Q95.6138,29.7407 94.9082,29.7407 Q92.4014,29.7407 91.0815,28.0889 Q89.7617,26.437 89.7617,23.3159 Q89.7617,20.1865 91.0815,18.5347 Q92.4014,16.8828 94.9082,16.8828 Q95.6138,16.8828 96.2612,17.0322 Q96.9087,17.1816 97.4731,17.4805 L97.4731,20.2031 Q96.8423,19.6221 96.2488,19.3523 Q95.6553,19.0825 95.0244,19.0825 Q93.6797,19.0825 92.9949,20.1492 Q92.3101,21.2158 92.3101,23.3159 Q92.3101,25.4077 92.9949,26.4744 Q93.6797,27.541 95.0244,27.541 Q95.6553,27.541 96.2488,27.2712 Q96.8423,27.0015 97.4731,26.4204 Z " fill="#000000"/><text fill="#000000" font-family="sans-serif" font-size="14" lengthAdjust="spacing" textLength="222" x="109" y="28.291">FinnMidlertidigeForbudMottiltak</text><line style="stroke:#181818;stroke-width:0.5;" x1="81" x2="333" y1="39" y2="39"/><ellipse cx="91" cy="52.7441" fill="none" rx="3" ry="3" style="stroke:#038048;stroke-width:1.0;"/><text fill="#000000" font-family="sans-serif" font-size="14" lengthAdjust="spacing" textLength="71" x="100" y="56.5352">flate: Flate</text><line style="stroke:#181818;stroke-width:0.5;" x1="81" x2="333" y1="63.4883" y2="63.4883"/></g><!--link Flate to FlateType--><g id="link_Flate_FlateType"><path codeLine="7" d="M159.22,229.17 C135.72,252.75 108.06,280.51 87.29,301.35 " fill="none" id="Flate-FlateType" style="stroke:#181818;stroke-width:1.0;"/></g><!--link Flate to Koordinat--><g id="link_Flate_Koordinat"><path codeLine="8" d="M207,229.17 C207,252.75 207,280.51 207,301.35 " fill="none" id="Flate-Koordinat" style="stroke:#181818;stroke-width:1.0;"/></g><!--link Flate to Koordinatsystem--><g id="link_Flate_Koordinatsystem"><path codeLine="9" d="M268.97,229.37 C293.39,248.35 321.26,270.01 345.16,288.58 " fill="none" id="Flate-Koordinatsystem" style="stroke:#181818;stroke-width:1.0;"/></g><!--link FinnMidlertidigeForbudMottiltak to Flate--><g id="link_FinnMidlertidigeForbudMottiltak_Flate"><path codeLine="7" d="M207,71.78 C207,89.32 207,111.51 207,131.17 " fill="none" id="FinnMidlertidigeForbudMottiltak-Flate" style="stroke:#181818;stroke-width:1.0;"/></g><!--SRC=[XOin2iCm34LtdKATGsJec0Duoo7SM2aYGWwntANqxd53z_xXVVZyTnDRj6L62aJ12csLLkdODHczxhIoAlTDatEuI7i3M3JLYb7CPidAXqkM9yToF5gUYxkefmtVW3t3fKqOlmKVW7_QEFw-9m00]--></g></svg>