<?xml version="1.0" encoding="us-ascii" standalone="no"?><svg xmlns="http://www.w3.org/2000/svg" xmlns:xlink="http://www.w3.org/1999/xlink" contentStyleType="text/css" height="517px" preserveAspectRatio="none" style="width:902px;height:517px;background:#FFFFFF;" version="1.1" viewBox="0 0 902 517" width="902px" zoomAndPan="magnify"><defs/><g><!--class HentPlanomraaderResultat--><g id="elem_HentPlanomraaderResultat"><rect codeLine="2" fill="#F1F1F1" height="64.4883" id="HentPlanomraaderResultat" rx="2.5" ry="2.5" style="stroke:#181818;stroke-width:0.5;" width="237" x="114.5" y="7"/><ellipse cx="139.4" cy="23" fill="#ADD1B2" rx="11" ry="11" style="stroke:#181818;stroke-width:1.0;"/><path d="M141.8731,29.1431 Q141.2921,29.4419 140.6529,29.5913 Q140.0138,29.7407 139.3082,29.7407 Q136.8014,29.7407 135.4815,28.0889 Q134.1617,26.437 134.1617,23.3159 Q134.1617,20.1865 135.4815,18.5347 Q136.8014,16.8828 139.3082,16.8828 Q140.0138,16.8828 140.6612,17.0322 Q141.3087,17.1816 141.8731,17.4805 L141.8731,20.2031 Q141.2423,19.6221 140.6488,19.3523 Q140.0553,19.0825 139.4244,19.0825 Q138.0797,19.0825 137.3949,20.1492 Q136.7101,21.2158 136.7101,23.3159 Q136.7101,25.4077 137.3949,26.4744 Q138.0797,27.541 139.4244,27.541 Q140.0553,27.541 140.6488,27.2712 Q141.2423,27.0015 141.8731,26.4204 Z " fill="#000000"/><text fill="#000000" font-family="sans-serif" font-size="14" lengthAdjust="spacing" textLength="183" x="155.6" y="28.291">HentPlanomraaderResultat</text><line style="stroke:#181818;stroke-width:0.5;" x1="115.5" x2="350.5" y1="39" y2="39"/><ellipse cx="125.5" cy="52.7441" fill="none" rx="3" ry="3" style="stroke:#038048;stroke-width:1.0;"/><text fill="#000000" font-family="sans-serif" font-size="14" lengthAdjust="spacing" textLength="211" x="134.5" y="56.5352">planomraader: Planomraader[]</text><line style="stroke:#181818;stroke-width:0.5;" x1="115.5" x2="350.5" y1="63.4883" y2="63.4883"/></g><!--class Planomraader--><g id="elem_Planomraader"><rect codeLine="6" fill="#F1F1F1" height="80.9766" id="Planomraader" rx="2.5" ry="2.5" style="stroke:#181818;stroke-width:0.5;" width="208" x="129" y="131.49"/><ellipse cx="180.75" cy="147.49" fill="#ADD1B2" rx="11" ry="11" style="stroke:#181818;stroke-width:1.0;"/><path d="M183.2231,153.6331 Q182.6421,153.9319 182.0029,154.0813 Q181.3638,154.2307 180.6582,154.2307 Q178.1514,154.2307 176.8315,152.5789 Q175.5117,150.927 175.5117,147.8059 Q175.5117,144.6765 176.8315,143.0247 Q178.1514,141.3728 180.6582,141.3728 Q181.3638,141.3728 182.0112,141.5222 Q182.6587,141.6716 183.2231,141.9705 L183.2231,144.6931 Q182.5923,144.1121 181.9988,143.8423 Q181.4053,143.5725 180.7744,143.5725 Q179.4297,143.5725 178.7449,144.6392 Q178.0601,145.7058 178.0601,147.8059 Q178.0601,149.8977 178.7449,150.9644 Q179.4297,152.031 180.7744,152.031 Q181.4053,152.031 181.9988,151.7612 Q182.5923,151.4915 183.2231,150.9104 Z " fill="#000000"/><text fill="#000000" font-family="sans-serif" font-size="14" lengthAdjust="spacing" textLength="96" x="201.25" y="152.781">Planomraader</text><line style="stroke:#181818;stroke-width:0.5;" x1="130" x2="336" y1="163.49" y2="163.49"/><ellipse cx="140" cy="177.2341" fill="none" rx="3" ry="3" style="stroke:#038048;stroke-width:1.0;"/><text fill="#000000" font-family="sans-serif" font-size="14" lengthAdjust="spacing" textLength="132" x="149" y="181.0252">omraade: Omraade</text><ellipse cx="140" cy="193.7224" fill="none" rx="3" ry="3" style="stroke:#038048;stroke-width:1.0;"/><text fill="#000000" font-family="sans-serif" font-size="14" lengthAdjust="spacing" textLength="182" x="149" y="197.5134">vertikalnivaa: Vertikalnivaa</text><line style="stroke:#181818;stroke-width:0.5;" x1="130" x2="336" y1="204.4666" y2="204.4666"/></g><!--class Omraade--><g id="elem_Omraade"><rect codeLine="11" fill="#F1F1F1" height="80.9766" id="Omraade" rx="2.5" ry="2.5" style="stroke:#181818;stroke-width:0.5;" width="214" x="7" y="297.2"/><ellipse cx="78.25" cy="313.2" fill="#ADD1B2" rx="11" ry="11" style="stroke:#181818;stroke-width:1.0;"/><path d="M80.7231,319.3431 Q80.1421,319.6419 79.5029,319.7913 Q78.8638,319.9407 78.1582,319.9407 Q75.6514,319.9407 74.3315,318.2889 Q73.0117,316.637 73.0117,313.5159 Q73.0117,310.3865 74.3315,308.7347 Q75.6514,307.0828 78.1582,307.0828 Q78.8638,307.0828 79.5112,307.2322 Q80.1587,307.3816 80.7231,307.6805 L80.7231,310.4031 Q80.0923,309.8221 79.4988,309.5523 Q78.9053,309.2825 78.2744,309.2825 Q76.9297,309.2825 76.2449,310.3492 Q75.5601,311.4158 75.5601,313.5159 Q75.5601,315.6077 76.2449,316.6744 Q76.9297,317.741 78.2744,317.741 Q78.9053,317.741 79.4988,317.4712 Q80.0923,317.2015 80.7231,316.6204 Z " fill="#000000"/><text fill="#000000" font-family="sans-serif" font-size="14" lengthAdjust="spacing" textLength="63" x="98.75" y="318.491">Omraade</text><line style="stroke:#181818;stroke-width:0.5;" x1="8" x2="220" y1="329.2" y2="329.2"/><ellipse cx="18" cy="342.9441" fill="none" rx="3" ry="3" style="stroke:#038048;stroke-width:1.0;"/><text fill="#000000" font-family="sans-serif" font-size="14" lengthAdjust="spacing" textLength="154" x="27" y="346.7352">ytreAvgrensning: Flate</text><ellipse cx="18" cy="359.4324" fill="none" rx="3" ry="3" style="stroke:#038048;stroke-width:1.0;"/><text fill="#000000" font-family="sans-serif" font-size="14" lengthAdjust="spacing" textLength="188" x="27" y="363.2234">indreAvgrensninger: Flate[]</text><line style="stroke:#181818;stroke-width:0.5;" x1="8" x2="220" y1="370.1766" y2="370.1766"/></g><!--class Vertikalnivaa--><g id="elem_Vertikalnivaa"><rect codeLine="16" fill="#F1F1F1" height="130.4414" id="Vertikalnivaa" rx="2.5" ry="2.5" style="stroke:#181818;stroke-width:0.5;" width="191" x="256.5" y="272.47"/><ellipse cx="303.75" cy="288.47" fill="#EB937F" rx="11" ry="11" style="stroke:#181818;stroke-width:1.0;"/><path d="M307.3643,294.97 L299.6445,294.97 L299.6445,282.5769 L307.3643,282.5769 L307.3643,284.7351 L302.0933,284.7351 L302.0933,287.408 L306.8662,287.408 L306.8662,289.5662 L302.0933,289.5662 L302.0933,292.8118 L307.3643,292.8118 Z " fill="#000000"/><text fill="#000000" font-family="sans-serif" font-size="14" lengthAdjust="spacing" textLength="88" x="324.25" y="293.761">Vertikalnivaa</text><line style="stroke:#181818;stroke-width:0.5;" x1="257.5" x2="446.5" y1="304.47" y2="304.47"/><text fill="#000000" font-family="sans-serif" font-size="14" lengthAdjust="spacing" textLength="105" x="262.5" y="322.0052">Under grunnen</text><text fill="#000000" font-family="sans-serif" font-size="14" lengthAdjust="spacing" textLength="179" x="262.5" y="338.4934">P&#229; grunnen/vannoverflate</text><text fill="#000000" font-family="sans-serif" font-size="14" lengthAdjust="spacing" textLength="93" x="262.5" y="354.9817">I vannsoeylen</text><line style="stroke:#181818;stroke-width:0.5;" x1="257.5" x2="446.5" y1="361.9348" y2="361.9348"/><text fill="#000000" font-family="sans-serif" font-size="14" lengthAdjust="spacing" textLength="133" x="262.5" y="379.47">Over grunnen (bru)</text><text fill="#000000" font-family="sans-serif" font-size="14" lengthAdjust="spacing" textLength="155" x="262.5" y="395.9583">P&#229; bunnen (vann/sjoe)</text></g><!--class Flate--><g id="elem_Flate"><rect fill="#F1F1F1" height="48" id="Flate" rx="2.5" ry="2.5" style="stroke:#181818;stroke-width:0.5;" width="65" x="368.5" y="462.91"/><ellipse cx="383.5" cy="478.91" fill="#ADD1B2" rx="11" ry="11" style="stroke:#181818;stroke-width:1.0;"/><path d="M385.9731,485.0531 Q385.3921,485.3519 384.7529,485.5013 Q384.1138,485.6507 383.4082,485.6507 Q380.9014,485.6507 379.5815,483.9989 Q378.2617,482.347 378.2617,479.2259 Q378.2617,476.0965 379.5815,474.4447 Q380.9014,472.7928 383.4082,472.7928 Q384.1138,472.7928 384.7612,472.9422 Q385.4087,473.0916 385.9731,473.3905 L385.9731,476.1131 Q385.3423,475.5321 384.7488,475.2623 Q384.1553,474.9925 383.5244,474.9925 Q382.1797,474.9925 381.4949,476.0592 Q380.8101,477.1258 380.8101,479.2259 Q380.8101,481.3177 381.4949,482.3844 Q382.1797,483.451 383.5244,483.451 Q384.1553,483.451 384.7488,483.1812 Q385.3423,482.9115 385.9731,482.3304 Z " fill="#000000"/><text fill="#000000" font-family="sans-serif" font-size="14" lengthAdjust="spacing" textLength="33" x="397.5" y="484.201">Flate</text><line style="stroke:#181818;stroke-width:0.5;" x1="369.5" x2="432.5" y1="494.91" y2="494.91"/><line style="stroke:#181818;stroke-width:0.5;" x1="369.5" x2="432.5" y1="502.91" y2="502.91"/></g><g id="elem_GMN11"><path d="M482.5,325.03 L482.5,350.3405 A0,0 0 0 0 482.5,350.3405 L661.43,350.3405 L433.56,469.27 L669.43,350.3405 L895.5,350.3405 A0,0 0 0 0 895.5,350.3405 L895.5,335.03 L885.5,325.03 L482.5,325.03 A0,0 0 0 0 482.5,325.03 " fill="#FEFFDD" style="stroke:#181818;stroke-width:0.5;"/><path d="M885.5,325.03 L885.5,335.03 L895.5,335.03 L885.5,325.03 " fill="#FEFFDD" style="stroke:#181818;stroke-width:0.5;"/><text fill="#000000" font-family="sans-serif" font-size="13" lengthAdjust="spacing" textLength="392" x="488.5" y="342.5984">Se detaljer i diagram for skjema 'no.ks.fiks.plan.v2.felles.flate'</text></g><!--link HentPlanomraaderResultat to Planomraader--><g id="link_HentPlanomraaderResultat_Planomraader"><path codeLine="24" d="M233,71.89 C233,89.73 233,112.17 233,131.19 " fill="none" id="HentPlanomraaderResultat-Planomraader" style="stroke:#181818;stroke-width:1.0;"/></g><!--link Planomraader to Omraade--><g id="link_Planomraader_Omraade"><path codeLine="25" d="M204.19,212.61 C185.62,238.16 161.55,271.27 142.95,296.86 " fill="none" id="Planomraader-Omraade" style="stroke:#181818;stroke-width:1.0;"/></g><!--link Planomraader to Vertikalnivaa--><g id="link_Planomraader_Vertikalnivaa"><path codeLine="26" d="M261.81,212.61 C274.81,230.49 290.5,252.08 305.13,272.2 " fill="none" id="Planomraader-Vertikalnivaa" style="stroke:#181818;stroke-width:1.0;"/></g><!--link Omraade to Flate--><g id="link_Omraade_Flate"><path codeLine="27" d="M191.68,378.61 C207.34,386.66 223.7,395.06 239,402.91 C283.71,425.85 335.37,452.31 368.11,469.07 " fill="none" id="Omraade-Flate" style="stroke:#181818;stroke-width:1.0;"/></g><!--SRC=[TL51JiCm4Bpx5Nih23MLEER61S6fLH5S48TjiucSEElATYnLYEVm4Zw67JjjWeGFbdTcTtOqFYgq5fw8tKuXwzuWLcJsP0VbqC6dW73kJZEkX7dd-uVu4k8ugipnQJBN9MpJ8w6UZ9CTAfOUiOItUNdLooEJrDaPUl2D8ROikIdXKQ7BWfAh1HbjZdJoHppqoorPz9MZryOCpCGZillvdkgDHsOTlDQNHLj_ROURWnbkBqE73CQXZMqr9UeP8c0rdLNO4Bpyc_LwlKXGBE8Cv9JWNtoPtXHQ858-WhKZSFe4kauGbF12K953rGO92PN4nc0FjJPWkvPwX1NhehD5BSCLVx_mzqLDIb70eiPA_080]--></g></svg>