<svg xmlns="http://www.w3.org/2000/svg" xmlns:xlink="http://www.w3.org/1999/xlink" contentStyleType="text/css" data-diagram-type="CLASS" height="716px" preserveAspectRatio="none" style="width:541px;height:716px;background:#FFFFFF;" version="1.1" viewBox="0 0 541 716" width="541px" zoomAndPan="magnify"><defs/><g><!--class Flate--><g class="entity" data-entity="Flate" data-source-line="1" data-uid="ent0002" id="entity_Flate"><rect fill="#F1F1F1" height="97.4648" rx="2.5" ry="2.5" style="stroke:#181818;stroke-width:0.5;" width="262.4551" x="75.32" y="462.91"/><ellipse cx="186.1374" cy="478.91" fill="#ADD1B2" rx="11" ry="11" style="stroke:#181818;stroke-width:1;"/><path d="M188.6105,485.0531 Q188.0295,485.3519 187.3903,485.5013 Q186.7512,485.6507 186.0456,485.6507 Q183.5388,485.6507 182.2189,483.9989 Q180.8991,482.347 180.8991,479.2259 Q180.8991,476.0965 182.2189,474.4447 Q183.5388,472.7928 186.0456,472.7928 Q186.7512,472.7928 187.3986,472.9422 Q188.0461,473.0916 188.6105,473.3905 L188.6105,476.1131 Q187.9797,475.5321 187.3862,475.2623 Q186.7927,474.9925 186.1618,474.9925 Q184.8171,474.9925 184.1323,476.0592 Q183.4474,477.1258 183.4474,479.2259 Q183.4474,481.3177 184.1323,482.3844 Q184.8171,483.451 186.1618,483.451 Q186.7927,483.451 187.3862,483.1812 Q187.9797,482.9115 188.6105,482.3304 Z " fill="#000000"/><text fill="#000000" font-family="sans-serif" font-size="14" lengthAdjust="spacing" textLength="32.3203" x="206.6374" y="484.201">Flate</text><line style="stroke:#181818;stroke-width:0.5;" x1="76.32" x2="336.7751" y1="494.91" y2="494.91"/><ellipse cx="86.32" cy="508.6541" fill="none" rx="3" ry="3" style="stroke:#038048;stroke-width:1;"/><text fill="#000000" font-family="sans-serif" font-size="14" lengthAdjust="spacing" textLength="103.1201" x="95.32" y="512.4452">type: FlateType</text><ellipse cx="86.32" cy="525.1424" fill="none" rx="3" ry="3" style="stroke:#038048;stroke-width:1;"/><text fill="#000000" font-family="sans-serif" font-size="14" lengthAdjust="spacing" textLength="163.7002" x="95.32" y="528.9334">koordinater: Koordinat[]</text><ellipse cx="86.32" cy="541.6307" fill="none" rx="3" ry="3" style="stroke:#038048;stroke-width:1;"/><text fill="#000000" font-family="sans-serif" font-size="14" lengthAdjust="spacing" textLength="236.4551" x="95.32" y="545.4217">koordinatsystem: Koordinatsystem</text><line style="stroke:#181818;stroke-width:0.5;" x1="76.32" x2="336.7751" y1="552.3748" y2="552.3748"/></g><!--class FlateType--><g class="entity" data-entity="FlateType" data-source-line="7" data-uid="ent0003" id="entity_FlateType"><rect fill="#F1F1F1" height="64.4883" rx="2.5" ry="2.5" style="stroke:#181818;stroke-width:0.5;" width="97.0986" x="7" y="632.93"/><ellipse cx="22" cy="648.93" fill="#EB937F" rx="11" ry="11" style="stroke:#181818;stroke-width:1;"/><path d="M25.6143,655.43 L17.8945,655.43 L17.8945,643.0369 L25.6143,643.0369 L25.6143,645.1951 L20.3433,645.1951 L20.3433,647.868 L25.1162,647.868 L25.1162,650.0262 L20.3433,650.0262 L20.3433,653.2718 L25.6143,653.2718 Z " fill="#000000"/><text fill="#000000" font-family="sans-serif" font-size="14" lengthAdjust="spacing" textLength="65.0986" x="36" y="654.221">FlateType</text><line style="stroke:#181818;stroke-width:0.5;" x1="8" x2="103.0986" y1="664.93" y2="664.93"/><text fill="#000000" font-family="sans-serif" font-size="14" lengthAdjust="spacing" textLength="53.7168" x="13" y="682.4652">Polygon</text><line style="stroke:#181818;stroke-width:0.5;" x1="8" x2="103.0986" y1="689.4183" y2="689.4183"/></g><!--class Koordinat--><g class="entity" data-entity="Koordinat" data-source-line="8" data-uid="ent0005" id="entity_Koordinat"><rect fill="#F1F1F1" height="64.4883" rx="2.5" ry="2.5" style="stroke:#181818;stroke-width:0.5;" width="134.042" x="139.53" y="632.93"/><ellipse cx="170.487" cy="648.93" fill="#ADD1B2" rx="11" ry="11" style="stroke:#181818;stroke-width:1;"/><path d="M172.9601,655.0731 Q172.3791,655.3719 171.7399,655.5213 Q171.1008,655.6707 170.3952,655.6707 Q167.8883,655.6707 166.5685,654.0189 Q165.2487,652.367 165.2487,649.2459 Q165.2487,646.1165 166.5685,644.4647 Q167.8883,642.8128 170.3952,642.8128 Q171.1008,642.8128 171.7482,642.9622 Q172.3957,643.1116 172.9601,643.4105 L172.9601,646.1331 Q172.3293,645.5521 171.7358,645.2823 Q171.1423,645.0125 170.5114,645.0125 Q169.1667,645.0125 168.4819,646.0792 Q167.797,647.1458 167.797,649.2459 Q167.797,651.3377 168.4819,652.4044 Q169.1667,653.471 170.5114,653.471 Q171.1423,653.471 171.7358,653.2012 Q172.3293,652.9315 172.9601,652.3504 Z " fill="#000000"/><text fill="#000000" font-family="sans-serif" font-size="14" lengthAdjust="spacing" textLength="66.582" x="188.033" y="654.221">Koordinat</text><line style="stroke:#181818;stroke-width:0.5;" x1="140.53" x2="272.572" y1="664.93" y2="664.93"/><ellipse cx="150.53" cy="678.6741" fill="none" rx="3" ry="3" style="stroke:#038048;stroke-width:1;"/><text fill="#000000" font-family="sans-serif" font-size="14" lengthAdjust="spacing" textLength="108.042" x="159.53" y="682.4652">items: number[]</text><line style="stroke:#181818;stroke-width:0.5;" x1="140.53" x2="272.572" y1="689.4183" y2="689.4183"/></g><!--class Koordinatsystem--><g class="entity" data-entity="Koordinatsystem" data-source-line="9" data-uid="ent0007" id="entity_Koordinatsystem"><rect fill="#F1F1F1" height="89.5977" rx="2.5" ry="2.5" style="stroke:#181818;stroke-width:0.5;" width="183.5547" x="308.77" y="620.37"/><ellipse cx="340.5452" cy="640.6805" fill="#ADD1B2" rx="11" ry="11" style="stroke:#181818;stroke-width:1;"/><path d="M343.0184,646.8236 Q342.4373,647.1224 341.7982,647.2719 Q341.159,647.4213 340.4534,647.4213 Q337.9466,647.4213 336.6268,645.7694 Q335.307,644.1176 335.307,640.9965 Q335.307,637.8671 336.6268,636.2152 Q337.9466,634.5634 340.4534,634.5634 Q341.159,634.5634 341.8065,634.7128 Q342.4539,634.8622 343.0184,635.161 L343.0184,637.8837 Q342.3875,637.3026 341.794,637.0328 Q341.2005,636.7631 340.5697,636.7631 Q339.2249,636.7631 338.5401,637.8297 Q337.8553,638.8964 337.8553,640.9965 Q337.8553,643.0883 338.5401,644.1549 Q339.2249,645.2216 340.5697,645.2216 Q341.2005,645.2216 341.794,644.9518 Q342.3875,644.682 343.0184,644.101 Z " fill="#000000"/><text fill="#000000" font-family="sans-serif" font-size="12" font-style="italic" lengthAdjust="spacing" textLength="42.0176" x="394.4025" y="636.9716">&#171;Kode&#187;</text><text fill="#000000" font-family="sans-serif" font-size="14" lengthAdjust="spacing" textLength="114.2764" x="358.2731" y="653.038">Koordinatsystem</text><line style="stroke:#181818;stroke-width:0.5;" x1="309.77" x2="491.3247" y1="660.9911" y2="660.9911"/><ellipse cx="319.77" cy="674.7352" fill="none" rx="3" ry="3" style="stroke:#038048;stroke-width:1;"/><text fill="#000000" font-family="sans-serif" font-size="14" lengthAdjust="spacing" textLength="115.4521" x="328.77" y="678.5263">kodeverdi: string</text><ellipse cx="319.77" cy="691.2235" fill="none" rx="3" ry="3" style="stroke:#038048;stroke-width:1;"/><text fill="#000000" font-family="sans-serif" font-size="14" lengthAdjust="spacing" textLength="157.5547" x="328.77" y="695.0145">kodebeskrivelse: string</text><line style="stroke:#181818;stroke-width:0.5;" x1="309.77" x2="491.3247" y1="701.9677" y2="701.9677"/></g><!--class HentPlanomraaderResultat--><g class="entity" data-entity="HentPlanomraaderResultat" data-source-line="3" data-uid="ent0009" id="entity_HentPlanomraaderResultat"><rect fill="#F1F1F1" height="64.4883" rx="2.5" ry="2.5" style="stroke:#181818;stroke-width:0.5;" width="231.8506" x="207.62" y="7"/><ellipse cx="231.4864" cy="23" fill="#ADD1B2" rx="11" ry="11" style="stroke:#181818;stroke-width:1;"/><path d="M233.9596,29.1431 Q233.3785,29.4419 232.7393,29.5913 Q232.1002,29.7407 231.3946,29.7407 Q228.8878,29.7407 227.5679,28.0889 Q226.2481,26.437 226.2481,23.3159 Q226.2481,20.1865 227.5679,18.5347 Q228.8878,16.8828 231.3946,16.8828 Q232.1002,16.8828 232.7476,17.0322 Q233.3951,17.1816 233.9596,17.4805 L233.9596,20.2031 Q233.3287,19.6221 232.7352,19.3523 Q232.1417,19.0825 231.5108,19.0825 Q230.1661,19.0825 229.4813,20.1492 Q228.7965,21.2158 228.7965,23.3159 Q228.7965,25.4077 229.4813,26.4744 Q230.1661,27.541 231.5108,27.541 Q232.1417,27.541 232.7352,27.2712 Q233.3287,27.0015 233.9596,26.4204 Z " fill="#000000"/><text fill="#000000" font-family="sans-serif" font-size="14" lengthAdjust="spacing" textLength="180.1475" x="247.4567" y="28.291">HentPlanomraaderResultat</text><line style="stroke:#181818;stroke-width:0.5;" x1="208.62" x2="438.4706" y1="39" y2="39"/><ellipse cx="218.62" cy="52.7441" fill="none" rx="3" ry="3" style="stroke:#038048;stroke-width:1;"/><text fill="#000000" font-family="sans-serif" font-size="14" lengthAdjust="spacing" textLength="205.8506" x="227.62" y="56.5352">planomraader: Planomraader[]</text><line style="stroke:#181818;stroke-width:0.5;" x1="208.62" x2="438.4706" y1="63.4883" y2="63.4883"/></g><!--class Planomraader--><g class="entity" data-entity="Planomraader" data-source-line="7" data-uid="ent0010" id="entity_Planomraader"><rect fill="#F1F1F1" height="80.9766" rx="2.5" ry="2.5" style="stroke:#181818;stroke-width:0.5;" width="207.6924" x="219.7" y="131.49"/><ellipse cx="272.5931" cy="147.49" fill="#ADD1B2" rx="11" ry="11" style="stroke:#181818;stroke-width:1;"/><path d="M275.0662,153.6331 Q274.4852,153.9319 273.846,154.0813 Q273.2068,154.2307 272.5013,154.2307 Q269.9944,154.2307 268.6746,152.5789 Q267.3548,150.927 267.3548,147.8059 Q267.3548,144.6765 268.6746,143.0247 Q269.9944,141.3728 272.5013,141.3728 Q273.2068,141.3728 273.8543,141.5222 Q274.5018,141.6716 275.0662,141.9705 L275.0662,144.6931 Q274.4354,144.1121 273.8418,143.8423 Q273.2483,143.5725 272.6175,143.5725 Q271.2728,143.5725 270.5879,144.6392 Q269.9031,145.7058 269.9031,147.8059 Q269.9031,149.8977 270.5879,150.9644 Q271.2728,152.031 272.6175,152.031 Q273.2483,152.031 273.8418,151.7612 Q274.4354,151.4915 275.0662,150.9104 Z " fill="#000000"/><text fill="#000000" font-family="sans-serif" font-size="14" lengthAdjust="spacing" textLength="93.4063" x="293.0931" y="152.781">Planomraader</text><line style="stroke:#181818;stroke-width:0.5;" x1="220.7" x2="426.3924" y1="163.49" y2="163.49"/><ellipse cx="230.7" cy="177.2341" fill="none" rx="3" ry="3" style="stroke:#038048;stroke-width:1;"/><text fill="#000000" font-family="sans-serif" font-size="14" lengthAdjust="spacing" textLength="130.0811" x="239.7" y="181.0252">omraade: Omraade</text><ellipse cx="230.7" cy="193.7224" fill="none" rx="3" ry="3" style="stroke:#038048;stroke-width:1;"/><text fill="#000000" font-family="sans-serif" font-size="14" lengthAdjust="spacing" textLength="181.6924" x="239.7" y="197.5134">vertikalnivaa: Vertikalnivaa</text><line style="stroke:#181818;stroke-width:0.5;" x1="220.7" x2="426.3924" y1="204.4666" y2="204.4666"/></g><!--class Omraade--><g class="entity" data-entity="Omraade" data-source-line="12" data-uid="ent0011" id="entity_Omraade"><rect fill="#F1F1F1" height="80.9766" rx="2.5" ry="2.5" style="stroke:#181818;stroke-width:0.5;" width="210.0303" x="101.53" y="297.2"/><ellipse cx="171.4206" cy="313.2" fill="#ADD1B2" rx="11" ry="11" style="stroke:#181818;stroke-width:1;"/><path d="M173.8938,319.3431 Q173.3127,319.6419 172.6736,319.7913 Q172.0344,319.9407 171.3288,319.9407 Q168.822,319.9407 167.5022,318.2889 Q166.1823,316.637 166.1823,313.5159 Q166.1823,310.3865 167.5022,308.7347 Q168.822,307.0828 171.3288,307.0828 Q172.0344,307.0828 172.6819,307.2322 Q173.3293,307.3816 173.8938,307.6805 L173.8938,310.4031 Q173.2629,309.8221 172.6694,309.5523 Q172.0759,309.2825 171.445,309.2825 Q170.1003,309.2825 169.4155,310.3492 Q168.7307,311.4158 168.7307,313.5159 Q168.7307,315.6077 169.4155,316.6744 Q170.1003,317.741 171.445,317.741 Q172.0759,317.741 172.6694,317.4712 Q173.2629,317.2015 173.8938,316.6204 Z " fill="#000000"/><text fill="#000000" font-family="sans-serif" font-size="14" lengthAdjust="spacing" textLength="61.749" x="191.9206" y="318.491">Omraade</text><line style="stroke:#181818;stroke-width:0.5;" x1="102.53" x2="310.5603" y1="329.2" y2="329.2"/><ellipse cx="112.53" cy="342.9441" fill="none" rx="3" ry="3" style="stroke:#038048;stroke-width:1;"/><text fill="#000000" font-family="sans-serif" font-size="14" lengthAdjust="spacing" textLength="152.4004" x="121.53" y="346.7352">ytreAvgrensning: Flate</text><ellipse cx="112.53" cy="359.4324" fill="none" rx="3" ry="3" style="stroke:#038048;stroke-width:1;"/><text fill="#000000" font-family="sans-serif" font-size="14" lengthAdjust="spacing" textLength="184.0303" x="121.53" y="363.2234">indreAvgrensninger: Flate[]</text><line style="stroke:#181818;stroke-width:0.5;" x1="102.53" x2="310.5603" y1="370.1766" y2="370.1766"/></g><!--class Vertikalnivaa--><g class="entity" data-entity="Vertikalnivaa" data-source-line="17" data-uid="ent0012" id="entity_Vertikalnivaa"><rect fill="#F1F1F1" height="130.4414" rx="2.5" ry="2.5" style="stroke:#181818;stroke-width:0.5;" width="187.9434" x="346.58" y="272.47"/><ellipse cx="392.6166" cy="288.47" fill="#EB937F" rx="11" ry="11" style="stroke:#181818;stroke-width:1;"/><path d="M396.2309,294.97 L388.5112,294.97 L388.5112,282.5769 L396.2309,282.5769 L396.2309,284.7351 L390.9599,284.7351 L390.9599,287.408 L395.7328,287.408 L395.7328,289.5662 L390.9599,289.5662 L390.9599,292.8118 L396.2309,292.8118 Z " fill="#000000"/><text fill="#000000" font-family="sans-serif" font-size="14" lengthAdjust="spacing" textLength="87.3701" x="413.1166" y="293.761">Vertikalnivaa</text><line style="stroke:#181818;stroke-width:0.5;" x1="347.58" x2="533.5234" y1="304.47" y2="304.47"/><text fill="#000000" font-family="sans-serif" font-size="14" lengthAdjust="spacing" textLength="102.1699" x="352.58" y="322.0052">Under grunnen</text><text fill="#000000" font-family="sans-serif" font-size="14" lengthAdjust="spacing" textLength="175.9434" x="352.58" y="338.4934">P&#229; grunnen/vannoverflate</text><text fill="#000000" font-family="sans-serif" font-size="14" lengthAdjust="spacing" textLength="92.2031" x="352.58" y="354.9817">I vannsoeylen</text><line style="stroke:#181818;stroke-width:0.5;" x1="347.58" x2="533.5234" y1="361.9348" y2="361.9348"/><text fill="#000000" font-family="sans-serif" font-size="14" lengthAdjust="spacing" textLength="129.8555" x="352.58" y="379.47">Over grunnen (bru)</text><text fill="#000000" font-family="sans-serif" font-size="14" lengthAdjust="spacing" textLength="152.291" x="352.58" y="395.9583">P&#229; bunnen (vann/sjoe)</text></g><!--link Flate to FlateType--><g class="link" data-entity-1="Flate" data-entity-2="FlateType" data-source-line="7" data-uid="lnk4" id="link_Flate_FlateType"><path codeLine="7" d="M158.77,560.59 C135.27,584.17 107.61,611.93 86.84,632.77" fill="none" id="Flate-FlateType" style="stroke:#181818;stroke-width:1;"/></g><!--link Flate to Koordinat--><g class="link" data-entity-1="Flate" data-entity-2="Koordinat" data-source-line="8" data-uid="lnk6" id="link_Flate_Koordinat"><path codeLine="8" d="M206.55,560.59 C206.55,584.17 206.55,611.93 206.55,632.77" fill="none" id="Flate-Koordinat" style="stroke:#181818;stroke-width:1;"/></g><!--link Flate to Koordinatsystem--><g class="link" data-entity-1="Flate" data-entity-2="Koordinatsystem" data-source-line="9" data-uid="lnk8" id="link_Flate_Koordinatsystem"><path codeLine="9" d="M268.2,560.79 C292.5,579.77 320.22,601.43 344,620" fill="none" id="Flate-Koordinatsystem" style="stroke:#181818;stroke-width:1;"/></g><!--link HentPlanomraaderResultat to Planomraader--><g class="link" data-entity-1="HentPlanomraaderResultat" data-entity-2="Planomraader" data-source-line="25" data-uid="lnk13" id="link_HentPlanomraaderResultat_Planomraader"><path codeLine="25" d="M323.55,71.89 C323.55,89.73 323.55,112.17 323.55,131.19" fill="none" id="HentPlanomraaderResultat-Planomraader" style="stroke:#181818;stroke-width:1;"/></g><!--link Planomraader to Omraade--><g class="link" data-entity-1="Planomraader" data-entity-2="Omraade" data-source-line="26" data-uid="lnk14" id="link_Planomraader_Omraade"><path codeLine="26" d="M295.23,212.61 C276.97,238.16 253.3,271.27 235.02,296.85" fill="none" id="Planomraader-Omraade" style="stroke:#181818;stroke-width:1;"/></g><!--link Planomraader to Vertikalnivaa--><g class="link" data-entity-1="Planomraader" data-entity-2="Vertikalnivaa" data-source-line="27" data-uid="lnk15" id="link_Planomraader_Vertikalnivaa"><path codeLine="27" d="M351.87,212.61 C364.65,230.49 380.08,252.08 394.46,272.2" fill="none" id="Planomraader-Vertikalnivaa" style="stroke:#181818;stroke-width:1;"/></g><!--link Omraade to Flate--><g class="link" data-entity-1="Omraade" data-entity-2="Flate" data-source-line="28" data-uid="lnk16" id="link_Omraade_Flate"><path codeLine="28" d="M206.55,378.57 C206.55,403.67 206.55,436.21 206.55,462.71" fill="none" id="Omraade-Flate" style="stroke:#181818;stroke-width:1;"/></g><!--SRC=[TL2xJWCn4EplAvOk2CMMAA-ZGL0bGY8Ded1oUoSJPttoIueGdyENy6FOvtDoHiA5vPtPsHtFZQI3yXq2uunnqkneMI_ZDIf1BDop7fN2Y2dXa4yt6ttJ79Im5fwGt3OswfCHeaFpWjOh9nnyDX3FtRZWMbXslhqtNsNA4Y_AkMvXanyP3MYSF0f5CWZHmcvPNkVDaZBgx0m-XC4WMP8qjF2OVf4vILr59fiJdVqX-LEzPHxwIidhO3mHqeHiVxvBpOCWqj5hVrcq2TTsMEsDlxs8zZEOHDn-QCpKCoJ0QZohk25w-JVhzRfAiAdYZ6H9y2zUfrT2YqJEvnS0]--></g></svg>