<svg xmlns="http://www.w3.org/2000/svg" xmlns:xlink="http://www.w3.org/1999/xlink" contentStyleType="text/css" height="716px" preserveAspectRatio="none" style="width:547px;height:716px;background:#FFFFFF;" version="1.1" viewBox="0 0 547 716" width="547px" zoomAndPan="magnify"><defs/><g><!--class Flate--><g id="elem_Flate"><rect codeLine="1" fill="#F1F1F1" height="97.4648" id="Flate" rx="2.5" ry="2.5" style="stroke:#181818;stroke-width:0.5;" width="263" x="75.5" y="462.91"/><ellipse cx="186.25" cy="478.91" fill="#ADD1B2" rx="11" ry="11" style="stroke:#181818;stroke-width:1.0;"/><path d="M188.7231,485.0531 Q188.1421,485.3519 187.5029,485.5013 Q186.8638,485.6507 186.1582,485.6507 Q183.6514,485.6507 182.3315,483.9989 Q181.0117,482.347 181.0117,479.2259 Q181.0117,476.0965 182.3315,474.4447 Q183.6514,472.7928 186.1582,472.7928 Q186.8638,472.7928 187.5112,472.9422 Q188.1587,473.0916 188.7231,473.3905 L188.7231,476.1131 Q188.0923,475.5321 187.4988,475.2623 Q186.9053,474.9925 186.2744,474.9925 Q184.9297,474.9925 184.2449,476.0592 Q183.5601,477.1258 183.5601,479.2259 Q183.5601,481.3177 184.2449,482.3844 Q184.9297,483.451 186.2744,483.451 Q186.9053,483.451 187.4988,483.1812 Q188.0923,482.9115 188.7231,482.3304 Z " fill="#000000"/><text fill="#000000" font-family="sans-serif" font-size="14" lengthAdjust="spacing" textLength="33" x="206.75" y="484.201">Flate</text><line style="stroke:#181818;stroke-width:0.5;" x1="76.5" x2="337.5" y1="494.91" y2="494.91"/><ellipse cx="86.5" cy="508.6541" fill="none" rx="3" ry="3" style="stroke:#038048;stroke-width:1.0;"/><text fill="#000000" font-family="sans-serif" font-size="14" lengthAdjust="spacing" textLength="103" x="95.5" y="512.4452">type: FlateType</text><ellipse cx="86.5" cy="525.1424" fill="none" rx="3" ry="3" style="stroke:#038048;stroke-width:1.0;"/><text fill="#000000" font-family="sans-serif" font-size="14" lengthAdjust="spacing" textLength="167" x="95.5" y="528.9334">koordinater: Koordinat[]</text><ellipse cx="86.5" cy="541.6307" fill="none" rx="3" ry="3" style="stroke:#038048;stroke-width:1.0;"/><text fill="#000000" font-family="sans-serif" font-size="14" lengthAdjust="spacing" textLength="237" x="95.5" y="545.4217">koordinatsystem: Koordinatsystem</text><line style="stroke:#181818;stroke-width:0.5;" x1="76.5" x2="337.5" y1="552.3748" y2="552.3748"/></g><!--class FlateType--><g id="elem_FlateType"><rect codeLine="11" fill="#F1F1F1" height="64.4883" id="FlateType" rx="2.5" ry="2.5" style="stroke:#181818;stroke-width:0.5;" width="98" x="7" y="632.93"/><ellipse cx="22" cy="648.93" fill="#EB937F" rx="11" ry="11" style="stroke:#181818;stroke-width:1.0;"/><path d="M25.6143,655.43 L17.8945,655.43 L17.8945,643.0369 L25.6143,643.0369 L25.6143,645.1951 L20.3433,645.1951 L20.3433,647.868 L25.1162,647.868 L25.1162,650.0262 L20.3433,650.0262 L20.3433,653.2718 L25.6143,653.2718 Z " fill="#000000"/><text fill="#000000" font-family="sans-serif" font-size="14" lengthAdjust="spacing" textLength="66" x="36" y="654.221">FlateType</text><line style="stroke:#181818;stroke-width:0.5;" x1="8" x2="104" y1="664.93" y2="664.93"/><text fill="#000000" font-family="sans-serif" font-size="14" lengthAdjust="spacing" textLength="55" x="13" y="682.4652">Polygon</text><line style="stroke:#181818;stroke-width:0.5;" x1="8" x2="104" y1="689.4183" y2="689.4183"/></g><!--class Koordinat--><g id="elem_Koordinat"><rect codeLine="15" fill="#F1F1F1" height="64.4883" id="Koordinat" rx="2.5" ry="2.5" style="stroke:#181818;stroke-width:0.5;" width="135" x="139.5" y="632.93"/><ellipse cx="170.25" cy="648.93" fill="#ADD1B2" rx="11" ry="11" style="stroke:#181818;stroke-width:1.0;"/><path d="M172.7231,655.0731 Q172.1421,655.3719 171.5029,655.5213 Q170.8638,655.6707 170.1582,655.6707 Q167.6514,655.6707 166.3315,654.0189 Q165.0117,652.367 165.0117,649.2459 Q165.0117,646.1165 166.3315,644.4647 Q167.6514,642.8128 170.1582,642.8128 Q170.8638,642.8128 171.5112,642.9622 Q172.1587,643.1116 172.7231,643.4105 L172.7231,646.1331 Q172.0923,645.5521 171.4988,645.2823 Q170.9053,645.0125 170.2744,645.0125 Q168.9297,645.0125 168.2449,646.0792 Q167.5601,647.1458 167.5601,649.2459 Q167.5601,651.3377 168.2449,652.4044 Q168.9297,653.471 170.2744,653.471 Q170.9053,653.471 171.4988,653.2012 Q172.0923,652.9315 172.7231,652.3504 Z " fill="#000000"/><text fill="#000000" font-family="sans-serif" font-size="14" lengthAdjust="spacing" textLength="68" x="187.75" y="654.221">Koordinat</text><line style="stroke:#181818;stroke-width:0.5;" x1="140.5" x2="273.5" y1="664.93" y2="664.93"/><ellipse cx="150.5" cy="678.6741" fill="none" rx="3" ry="3" style="stroke:#038048;stroke-width:1.0;"/><text fill="#000000" font-family="sans-serif" font-size="14" lengthAdjust="spacing" textLength="109" x="159.5" y="682.4652">items: number[]</text><line style="stroke:#181818;stroke-width:0.5;" x1="140.5" x2="273.5" y1="689.4183" y2="689.4183"/></g><!--class Koordinatsystem--><g id="elem_Koordinatsystem"><rect codeLine="19" fill="#F1F1F1" height="89.5977" id="Koordinatsystem" rx="2.5" ry="2.5" style="stroke:#181818;stroke-width:0.5;" width="184" x="310" y="620.37"/><ellipse cx="341.65" cy="640.6805" fill="#ADD1B2" rx="11" ry="11" style="stroke:#181818;stroke-width:1.0;"/><path d="M344.1231,646.8236 Q343.5421,647.1224 342.9029,647.2719 Q342.2638,647.4213 341.5582,647.4213 Q339.0514,647.4213 337.7315,645.7694 Q336.4117,644.1176 336.4117,640.9965 Q336.4117,637.8671 337.7315,636.2152 Q339.0514,634.5634 341.5582,634.5634 Q342.2638,634.5634 342.9112,634.7128 Q343.5587,634.8622 344.1231,635.161 L344.1231,637.8837 Q343.4923,637.3026 342.8988,637.0328 Q342.3053,636.7631 341.6744,636.7631 Q340.3297,636.7631 339.6449,637.8297 Q338.9601,638.8964 338.9601,640.9965 Q338.9601,643.0883 339.6449,644.1549 Q340.3297,645.2216 341.6744,645.2216 Q342.3053,645.2216 342.8988,644.9518 Q343.4923,644.682 344.1231,644.101 Z " fill="#000000"/><text fill="#000000" font-family="sans-serif" font-size="12" font-style="italic" lengthAdjust="spacing" textLength="42" x="395.85" y="636.9716">&#171;Kode&#187;</text><text fill="#000000" font-family="sans-serif" font-size="14" lengthAdjust="spacing" textLength="115" x="359.35" y="653.038">Koordinatsystem</text><line style="stroke:#181818;stroke-width:0.5;" x1="311" x2="493" y1="660.9911" y2="660.9911"/><ellipse cx="321" cy="674.7352" fill="none" rx="3" ry="3" style="stroke:#038048;stroke-width:1.0;"/><text fill="#000000" font-family="sans-serif" font-size="14" lengthAdjust="spacing" textLength="116" x="330" y="678.5263">kodeverdi: string</text><ellipse cx="321" cy="691.2235" fill="none" rx="3" ry="3" style="stroke:#038048;stroke-width:1.0;"/><text fill="#000000" font-family="sans-serif" font-size="14" lengthAdjust="spacing" textLength="158" x="330" y="695.0145">kodebeskrivelse: string</text><line style="stroke:#181818;stroke-width:0.5;" x1="311" x2="493" y1="701.9677" y2="701.9677"/></g><!--class HentPlanomraaderResultat--><g id="elem_HentPlanomraaderResultat"><rect codeLine="3" fill="#F1F1F1" height="64.4883" id="HentPlanomraaderResultat" rx="2.5" ry="2.5" style="stroke:#181818;stroke-width:0.5;" width="237" x="207.5" y="7"/><ellipse cx="232.4" cy="23" fill="#ADD1B2" rx="11" ry="11" style="stroke:#181818;stroke-width:1.0;"/><path d="M234.8731,29.1431 Q234.2921,29.4419 233.6529,29.5913 Q233.0138,29.7407 232.3082,29.7407 Q229.8014,29.7407 228.4815,28.0889 Q227.1617,26.437 227.1617,23.3159 Q227.1617,20.1865 228.4815,18.5347 Q229.8014,16.8828 232.3082,16.8828 Q233.0138,16.8828 233.6612,17.0322 Q234.3087,17.1816 234.8731,17.4805 L234.8731,20.2031 Q234.2423,19.6221 233.6488,19.3523 Q233.0553,19.0825 232.4244,19.0825 Q231.0797,19.0825 230.3949,20.1492 Q229.7101,21.2158 229.7101,23.3159 Q229.7101,25.4077 230.3949,26.4744 Q231.0797,27.541 232.4244,27.541 Q233.0553,27.541 233.6488,27.2712 Q234.2423,27.0015 234.8731,26.4204 Z " fill="#000000"/><text fill="#000000" font-family="sans-serif" font-size="14" lengthAdjust="spacing" textLength="183" x="248.6" y="28.291">HentPlanomraaderResultat</text><line style="stroke:#181818;stroke-width:0.5;" x1="208.5" x2="443.5" y1="39" y2="39"/><ellipse cx="218.5" cy="52.7441" fill="none" rx="3" ry="3" style="stroke:#038048;stroke-width:1.0;"/><text fill="#000000" font-family="sans-serif" font-size="14" lengthAdjust="spacing" textLength="211" x="227.5" y="56.5352">planomraader: Planomraader[]</text><line style="stroke:#181818;stroke-width:0.5;" x1="208.5" x2="443.5" y1="63.4883" y2="63.4883"/></g><!--class Planomraader--><g id="elem_Planomraader"><rect codeLine="7" fill="#F1F1F1" height="80.9766" id="Planomraader" rx="2.5" ry="2.5" style="stroke:#181818;stroke-width:0.5;" width="208" x="222" y="131.49"/><ellipse cx="273.75" cy="147.49" fill="#ADD1B2" rx="11" ry="11" style="stroke:#181818;stroke-width:1.0;"/><path d="M276.2231,153.6331 Q275.6421,153.9319 275.0029,154.0813 Q274.3638,154.2307 273.6582,154.2307 Q271.1514,154.2307 269.8315,152.5789 Q268.5117,150.927 268.5117,147.8059 Q268.5117,144.6765 269.8315,143.0247 Q271.1514,141.3728 273.6582,141.3728 Q274.3638,141.3728 275.0112,141.5222 Q275.6587,141.6716 276.2231,141.9705 L276.2231,144.6931 Q275.5923,144.1121 274.9988,143.8423 Q274.4053,143.5725 273.7744,143.5725 Q272.4297,143.5725 271.7449,144.6392 Q271.0601,145.7058 271.0601,147.8059 Q271.0601,149.8977 271.7449,150.9644 Q272.4297,152.031 273.7744,152.031 Q274.4053,152.031 274.9988,151.7612 Q275.5923,151.4915 276.2231,150.9104 Z " fill="#000000"/><text fill="#000000" font-family="sans-serif" font-size="14" lengthAdjust="spacing" textLength="96" x="294.25" y="152.781">Planomraader</text><line style="stroke:#181818;stroke-width:0.5;" x1="223" x2="429" y1="163.49" y2="163.49"/><ellipse cx="233" cy="177.2341" fill="none" rx="3" ry="3" style="stroke:#038048;stroke-width:1.0;"/><text fill="#000000" font-family="sans-serif" font-size="14" lengthAdjust="spacing" textLength="132" x="242" y="181.0252">omraade: Omraade</text><ellipse cx="233" cy="193.7224" fill="none" rx="3" ry="3" style="stroke:#038048;stroke-width:1.0;"/><text fill="#000000" font-family="sans-serif" font-size="14" lengthAdjust="spacing" textLength="182" x="242" y="197.5134">vertikalnivaa: Vertikalnivaa</text><line style="stroke:#181818;stroke-width:0.5;" x1="223" x2="429" y1="204.4666" y2="204.4666"/></g><!--class Omraade--><g id="elem_Omraade"><rect codeLine="12" fill="#F1F1F1" height="80.9766" id="Omraade" rx="2.5" ry="2.5" style="stroke:#181818;stroke-width:0.5;" width="214" x="100" y="297.2"/><ellipse cx="171.25" cy="313.2" fill="#ADD1B2" rx="11" ry="11" style="stroke:#181818;stroke-width:1.0;"/><path d="M173.7231,319.3431 Q173.1421,319.6419 172.5029,319.7913 Q171.8638,319.9407 171.1582,319.9407 Q168.6514,319.9407 167.3315,318.2889 Q166.0117,316.637 166.0117,313.5159 Q166.0117,310.3865 167.3315,308.7347 Q168.6514,307.0828 171.1582,307.0828 Q171.8638,307.0828 172.5112,307.2322 Q173.1587,307.3816 173.7231,307.6805 L173.7231,310.4031 Q173.0923,309.8221 172.4988,309.5523 Q171.9053,309.2825 171.2744,309.2825 Q169.9297,309.2825 169.2449,310.3492 Q168.5601,311.4158 168.5601,313.5159 Q168.5601,315.6077 169.2449,316.6744 Q169.9297,317.741 171.2744,317.741 Q171.9053,317.741 172.4988,317.4712 Q173.0923,317.2015 173.7231,316.6204 Z " fill="#000000"/><text fill="#000000" font-family="sans-serif" font-size="14" lengthAdjust="spacing" textLength="63" x="191.75" y="318.491">Omraade</text><line style="stroke:#181818;stroke-width:0.5;" x1="101" x2="313" y1="329.2" y2="329.2"/><ellipse cx="111" cy="342.9441" fill="none" rx="3" ry="3" style="stroke:#038048;stroke-width:1.0;"/><text fill="#000000" font-family="sans-serif" font-size="14" lengthAdjust="spacing" textLength="154" x="120" y="346.7352">ytreAvgrensning: Flate</text><ellipse cx="111" cy="359.4324" fill="none" rx="3" ry="3" style="stroke:#038048;stroke-width:1.0;"/><text fill="#000000" font-family="sans-serif" font-size="14" lengthAdjust="spacing" textLength="188" x="120" y="363.2234">indreAvgrensninger: Flate[]</text><line style="stroke:#181818;stroke-width:0.5;" x1="101" x2="313" y1="370.1766" y2="370.1766"/></g><!--class Vertikalnivaa--><g id="elem_Vertikalnivaa"><rect codeLine="17" fill="#F1F1F1" height="130.4414" id="Vertikalnivaa" rx="2.5" ry="2.5" style="stroke:#181818;stroke-width:0.5;" width="191" x="349.5" y="272.47"/><ellipse cx="396.75" cy="288.47" fill="#EB937F" rx="11" ry="11" style="stroke:#181818;stroke-width:1.0;"/><path d="M400.3643,294.97 L392.6445,294.97 L392.6445,282.5769 L400.3643,282.5769 L400.3643,284.7351 L395.0933,284.7351 L395.0933,287.408 L399.8662,287.408 L399.8662,289.5662 L395.0933,289.5662 L395.0933,292.8118 L400.3643,292.8118 Z " fill="#000000"/><text fill="#000000" font-family="sans-serif" font-size="14" lengthAdjust="spacing" textLength="88" x="417.25" y="293.761">Vertikalnivaa</text><line style="stroke:#181818;stroke-width:0.5;" x1="350.5" x2="539.5" y1="304.47" y2="304.47"/><text fill="#000000" font-family="sans-serif" font-size="14" lengthAdjust="spacing" textLength="105" x="355.5" y="322.0052">Under grunnen</text><text fill="#000000" font-family="sans-serif" font-size="14" lengthAdjust="spacing" textLength="179" x="355.5" y="338.4934">P&#229; grunnen/vannoverflate</text><text fill="#000000" font-family="sans-serif" font-size="14" lengthAdjust="spacing" textLength="93" x="355.5" y="354.9817">I vannsoeylen</text><line style="stroke:#181818;stroke-width:0.5;" x1="350.5" x2="539.5" y1="361.9348" y2="361.9348"/><text fill="#000000" font-family="sans-serif" font-size="14" lengthAdjust="spacing" textLength="133" x="355.5" y="379.47">Over grunnen (bru)</text><text fill="#000000" font-family="sans-serif" font-size="14" lengthAdjust="spacing" textLength="155" x="355.5" y="395.9583">P&#229; bunnen (vann/sjoe)</text></g><!--link Flate to FlateType--><g id="link_Flate_FlateType"><path codeLine="7" d="M159.22,560.59 C135.72,584.17 108.06,611.93 87.29,632.77 " fill="none" id="Flate-FlateType" style="stroke:#181818;stroke-width:1.0;"/></g><!--link Flate to Koordinat--><g id="link_Flate_Koordinat"><path codeLine="8" d="M207,560.59 C207,584.17 207,611.93 207,632.77 " fill="none" id="Flate-Koordinat" style="stroke:#181818;stroke-width:1.0;"/></g><!--link Flate to Koordinatsystem--><g id="link_Flate_Koordinatsystem"><path codeLine="9" d="M268.97,560.79 C293.39,579.77 321.26,601.43 345.16,620 " fill="none" id="Flate-Koordinatsystem" style="stroke:#181818;stroke-width:1.0;"/></g><!--link HentPlanomraaderResultat to Planomraader--><g id="link_HentPlanomraaderResultat_Planomraader"><path codeLine="25" d="M326,71.89 C326,89.73 326,112.17 326,131.19 " fill="none" id="HentPlanomraaderResultat-Planomraader" style="stroke:#181818;stroke-width:1.0;"/></g><!--link Planomraader to Omraade--><g id="link_Planomraader_Omraade"><path codeLine="26" d="M297.19,212.61 C278.62,238.16 254.55,271.27 235.95,296.85 " fill="none" id="Planomraader-Omraade" style="stroke:#181818;stroke-width:1.0;"/></g><!--link Planomraader to Vertikalnivaa--><g id="link_Planomraader_Vertikalnivaa"><path codeLine="27" d="M354.81,212.61 C367.81,230.49 383.5,252.08 398.13,272.2 " fill="none" id="Planomraader-Vertikalnivaa" style="stroke:#181818;stroke-width:1.0;"/></g><!--link Omraade to Flate--><g id="link_Omraade_Flate"><path codeLine="28" d="M207,378.57 C207,403.67 207,436.21 207,462.71 " fill="none" id="Omraade-Flate" style="stroke:#181818;stroke-width:1.0;"/></g><!--SRC=[TL2xJWCn4EplAvOk2CMMAA-ZGL0bGY8Ded1oUoSJPttoIueGdyENy6FOvtDoHiA5vPtPsHtFZQI3yXq2uunnqkneMI_ZDIf1BDop7fN2Y2dXa4yt6ttJ79Im5fwGt3OswfCHeaFpWjOh9nnyDX3FtRZWMbXslhqtNsNA4Y_AkMvXanyP3MYSF0f5CWZHmcvPNkVDaZBgx0m-XC4WMP8qjF2OVf4vILr59fiJdVqX-LEzPHxwIidhO3mHqeHiVxvBpOCWqj5hVrcq2TTsMEsDlxs8zZEOHDn-QCpKCoJ0QZohk25w-JVhzRfAiAdYZ6H9y2zUfrT2YqJEvnS0]--></g></svg>