<?xml version="1.0" encoding="us-ascii" standalone="no"?><svg xmlns="http://www.w3.org/2000/svg" xmlns:xlink="http://www.w3.org/1999/xlink" contentStyleType="text/css" height="186px" preserveAspectRatio="none" style="width:803px;height:186px;background:#FFFFFF;" version="1.1" viewBox="0 0 803 186" width="803px" zoomAndPan="magnify"><defs/><g><!--class FinnPlanbehandlingerResultat--><g id="elem_FinnPlanbehandlingerResultat"><rect codeLine="2" fill="#F1F1F1" height="64.4883" id="FinnPlanbehandlingerResultat" rx="2.5" ry="2.5" style="stroke:#181818;stroke-width:0.5;" width="273" x="7" y="7"/><ellipse cx="37.75" cy="23" fill="#ADD1B2" rx="11" ry="11" style="stroke:#181818;stroke-width:1.0;"/><path d="M40.2231,29.1431 Q39.6421,29.4419 39.0029,29.5913 Q38.3638,29.7407 37.6582,29.7407 Q35.1514,29.7407 33.8315,28.0889 Q32.5117,26.437 32.5117,23.3159 Q32.5117,20.1865 33.8315,18.5347 Q35.1514,16.8828 37.6582,16.8828 Q38.3638,16.8828 39.0112,17.0322 Q39.6587,17.1816 40.2231,17.4805 L40.2231,20.2031 Q39.5923,19.6221 38.9988,19.3523 Q38.4053,19.0825 37.7744,19.0825 Q36.4297,19.0825 35.7449,20.1492 Q35.0601,21.2158 35.0601,23.3159 Q35.0601,25.4077 35.7449,26.4744 Q36.4297,27.541 37.7744,27.541 Q38.4053,27.541 38.9988,27.2712 Q39.5923,27.0015 40.2231,26.4204 Z " fill="#000000"/><text fill="#000000" font-family="sans-serif" font-size="14" lengthAdjust="spacing" textLength="206" x="55.25" y="28.291">FinnPlanbehandlingerResultat</text><line style="stroke:#181818;stroke-width:0.5;" x1="8" x2="279" y1="39" y2="39"/><ellipse cx="18" cy="52.7441" fill="none" rx="3" ry="3" style="stroke:#038048;stroke-width:1.0;"/><text fill="#000000" font-family="sans-serif" font-size="14" lengthAdjust="spacing" textLength="247" x="27" y="56.5352">planbehandlinger: Planbehandling[]</text><line style="stroke:#181818;stroke-width:0.5;" x1="8" x2="279" y1="63.4883" y2="63.4883"/></g><!--class Planbehandling--><g id="elem_Planbehandling"><rect fill="#F1F1F1" height="48" id="Planbehandling" rx="2.5" ry="2.5" style="stroke:#181818;stroke-width:0.5;" width="139" x="280" y="131.49"/><ellipse cx="295" cy="147.49" fill="#ADD1B2" rx="11" ry="11" style="stroke:#181818;stroke-width:1.0;"/><path d="M297.4731,153.6331 Q296.8921,153.9319 296.2529,154.0813 Q295.6138,154.2307 294.9082,154.2307 Q292.4014,154.2307 291.0815,152.5789 Q289.7617,150.927 289.7617,147.8059 Q289.7617,144.6765 291.0815,143.0247 Q292.4014,141.3728 294.9082,141.3728 Q295.6138,141.3728 296.2612,141.5222 Q296.9087,141.6716 297.4731,141.9705 L297.4731,144.6931 Q296.8423,144.1121 296.2488,143.8423 Q295.6553,143.5725 295.0244,143.5725 Q293.6797,143.5725 292.9949,144.6392 Q292.3101,145.7058 292.3101,147.8059 Q292.3101,149.8977 292.9949,150.9644 Q293.6797,152.031 295.0244,152.031 Q295.6553,152.031 296.2488,151.7612 Q296.8423,151.4915 297.4731,150.9104 Z " fill="#000000"/><text fill="#000000" font-family="sans-serif" font-size="14" lengthAdjust="spacing" textLength="107" x="309" y="152.781">Planbehandling</text><line style="stroke:#181818;stroke-width:0.5;" x1="281" x2="418" y1="163.49" y2="163.49"/><line style="stroke:#181818;stroke-width:0.5;" x1="281" x2="418" y1="171.49" y2="171.49"/></g><g id="elem_GMN5"><path d="M314.5,26.59 L314.5,51.9005 A0,0 0 0 0 314.5,51.9005 L529.84,51.9005 L391.87,130.99 L537.84,51.9005 L796.5,51.9005 A0,0 0 0 0 796.5,51.9005 L796.5,36.59 L786.5,26.59 L314.5,26.59 A0,0 0 0 0 314.5,26.59 " fill="#FEFFDD" style="stroke:#181818;stroke-width:0.5;"/><path d="M786.5,26.59 L786.5,36.59 L796.5,36.59 L786.5,26.59 " fill="#FEFFDD" style="stroke:#181818;stroke-width:0.5;"/><text fill="#000000" font-family="sans-serif" font-size="13" lengthAdjust="spacing" textLength="461" x="320.5" y="44.1584">Se detaljer i diagram for skjema 'no.ks.fiks.plan.v2.felles.planbehandling'</text></g><!--link FinnPlanbehandlingerResultat to Planbehandling--><g id="link_FinnPlanbehandlingerResultat_Planbehandling"><path codeLine="6" d="M200.61,71.92 C234.43,90.67 276.54,114.03 307.34,131.11 " fill="none" id="FinnPlanbehandlingerResultat-Planbehandling" style="stroke:#181818;stroke-width:1.0;"/></g><!--SRC=[VOwn3i8m44Ft-mfl7L0pCFO3c16CYE5ABoNjzL8bWGNnxnGn83hWmPBrPCiNvPon2sPxPMlbojPfi5xIGV9D2nSy28isyuet-6sSplGa-hjKrwiEaSKYA756z2k61aT19uLra8I0Bd2VU8AF2NaSP69K5jsOdG-BlV-v-zPvKPLF_8vLz080]--></g></svg>