<svg xmlns="http://www.w3.org/2000/svg" xmlns:xlink="http://www.w3.org/1999/xlink" contentStyleType="text/css" data-diagram-type="SEQUENCE" height="478px" preserveAspectRatio="none" style="width:489px;height:478px;background:#FFFFFF;" version="1.1" viewBox="0 0 489 478" width="489px" zoomAndPan="magnify"><defs/><g><rect fill="none" height="343.2383" style="stroke:#000000;stroke-width:1.5;" width="472.436" x="10" y="82.7988"/><g><title>Fagsystem</title><rect fill="#000000" fill-opacity="0.00000" height="63.6211" width="8" x="58.8306" y="36.4883"/><line style="stroke:#181818;stroke-width:0.5;stroke-dasharray:5.0,5.0;" x1="62" x2="62" y1="36.4883" y2="100.1094"/></g><line style="stroke:#A80036;stroke-width:1;stroke-dasharray:1.0,4.0;" x1="62" x2="62" y1="100.1094" y2="141.0645"/><g><title>Fagsystem</title><rect fill="#000000" fill-opacity="0.00000" height="44.2656" width="8" x="58.8306" y="141.0645"/><line style="stroke:#181818;stroke-width:0.5;stroke-dasharray:5.0,5.0;" x1="62" x2="62" y1="141.0645" y2="185.3301"/></g><line style="stroke:#A80036;stroke-width:1;stroke-dasharray:1.0,4.0;" x1="62" x2="62" y1="185.3301" y2="226.2852"/><g><title>Fagsystem</title><rect fill="#000000" fill-opacity="0.00000" height="44.2656" width="8" x="58.8306" y="226.2852"/><line style="stroke:#181818;stroke-width:0.5;stroke-dasharray:5.0,5.0;" x1="62" x2="62" y1="226.2852" y2="270.5508"/></g><line style="stroke:#A80036;stroke-width:1;stroke-dasharray:1.0,4.0;" x1="62" x2="62" y1="270.5508" y2="311.5059"/><g><title>Fagsystem</title><rect fill="#000000" fill-opacity="0.00000" height="44.2656" width="8" x="58.8306" y="311.5059"/><line style="stroke:#181818;stroke-width:0.5;stroke-dasharray:5.0,5.0;" x1="62" x2="62" y1="311.5059" y2="355.7715"/></g><line style="stroke:#A80036;stroke-width:1;stroke-dasharray:1.0,4.0;" x1="62" x2="62" y1="355.7715" y2="396.7266"/><g><title>Fagsystem</title><rect fill="#000000" fill-opacity="0.00000" height="46.3105" width="8" x="58.8306" y="396.7266"/><line style="stroke:#181818;stroke-width:0.5;stroke-dasharray:5.0,5.0;" x1="62" x2="62" y1="396.7266" y2="443.0371"/></g><g><title>Planregister</title><rect fill="#000000" fill-opacity="0.00000" height="63.6211" width="8" x="421.2305" y="36.4883"/><line style="stroke:#181818;stroke-width:0.5;stroke-dasharray:5.0,5.0;" x1="425.0249" x2="425.0249" y1="36.4883" y2="100.1094"/></g><line style="stroke:#A80036;stroke-width:1;stroke-dasharray:1.0,4.0;" x1="425.0249" x2="425.0249" y1="100.1094" y2="141.0645"/><g><title>Planregister</title><rect fill="#000000" fill-opacity="0.00000" height="44.2656" width="8" x="421.2305" y="141.0645"/><line style="stroke:#181818;stroke-width:0.5;stroke-dasharray:5.0,5.0;" x1="425.0249" x2="425.0249" y1="141.0645" y2="185.3301"/></g><line style="stroke:#A80036;stroke-width:1;stroke-dasharray:1.0,4.0;" x1="425.0249" x2="425.0249" y1="185.3301" y2="226.2852"/><g><title>Planregister</title><rect fill="#000000" fill-opacity="0.00000" height="44.2656" width="8" x="421.2305" y="226.2852"/><line style="stroke:#181818;stroke-width:0.5;stroke-dasharray:5.0,5.0;" x1="425.0249" x2="425.0249" y1="226.2852" y2="270.5508"/></g><line style="stroke:#A80036;stroke-width:1;stroke-dasharray:1.0,4.0;" x1="425.0249" x2="425.0249" y1="270.5508" y2="311.5059"/><g><title>Planregister</title><rect fill="#000000" fill-opacity="0.00000" height="44.2656" width="8" x="421.2305" y="311.5059"/><line style="stroke:#181818;stroke-width:0.5;stroke-dasharray:5.0,5.0;" x1="425.0249" x2="425.0249" y1="311.5059" y2="355.7715"/></g><line style="stroke:#A80036;stroke-width:1;stroke-dasharray:1.0,4.0;" x1="425.0249" x2="425.0249" y1="355.7715" y2="396.7266"/><g><title>Planregister</title><rect fill="#000000" fill-opacity="0.00000" height="46.3105" width="8" x="421.2305" y="396.7266"/><line style="stroke:#181818;stroke-width:0.5;stroke-dasharray:5.0,5.0;" x1="425.0249" x2="425.0249" y1="396.7266" y2="443.0371"/></g><g class="participant participant-head" data-participant="Fagsystem"><rect fill="#E2E2F0" height="30.4883" rx="2.5" ry="2.5" style="stroke:#181818;stroke-width:0.5;" width="85.6611" x="20" y="5"/><text fill="#000000" font-family="sans-serif" font-size="14" lengthAdjust="spacing" textLength="71.6611" x="27" y="25.5352">Fagsystem</text></g><g class="participant participant-tail" data-participant="Fagsystem"><rect fill="#E2E2F0" height="30.4883" rx="2.5" ry="2.5" style="stroke:#181818;stroke-width:0.5;" width="85.6611" x="20" y="442.0371"/><text fill="#000000" font-family="sans-serif" font-size="14" lengthAdjust="spacing" textLength="71.6611" x="27" y="462.5723">Fagsystem</text></g><g class="participant participant-head" data-participant="Planregister"><rect fill="#E2E2F0" height="30.4883" rx="2.5" ry="2.5" style="stroke:#181818;stroke-width:0.5;" width="94.4111" x="378.0249" y="5"/><text fill="#000000" font-family="sans-serif" font-size="14" lengthAdjust="spacing" textLength="80.4111" x="385.0249" y="25.5352">Planregister</text></g><g class="participant participant-tail" data-participant="Planregister"><rect fill="#E2E2F0" height="30.4883" rx="2.5" ry="2.5" style="stroke:#181818;stroke-width:0.5;" width="94.4111" x="378.0249" y="442.0371"/><text fill="#000000" font-family="sans-serif" font-size="14" lengthAdjust="spacing" textLength="80.4111" x="385.0249" y="462.5723">Planregister</text></g><g class="message" data-participant-1="Fagsystem" data-participant-2="Planregister"><polygon fill="#181818" points="413.2305,63.7988,423.2305,67.7988,413.2305,71.7988,417.2305,67.7988" style="stroke:#181818;stroke-width:1;"/><line style="stroke:#181818;stroke-width:1;" x1="62.8306" x2="419.2305" y1="67.7988" y2="67.7988"/><text fill="#000000" font-family="sans-serif" font-size="13" lengthAdjust="spacing" textLength="286.3682" x="69.8306" y="63.0566">no.ks.fiks.plan.v2.innsyn.relaterteplaner.hent</text></g><path d="M10,82.7988 L72.1387,82.7988 L72.1387,90.1094 L62.1387,100.1094 L10,100.1094 L10,82.7988" fill="#EEEEEE" style="stroke:#000000;stroke-width:1.5;"/><rect fill="none" height="343.2383" style="stroke:#000000;stroke-width:1.5;" width="472.436" x="10" y="82.7988"/><text fill="#000000" font-family="sans-serif" font-size="13" font-weight="bold" lengthAdjust="spacing" textLength="17.1387" x="25" y="96.3672">alt</text><text fill="#000000" font-family="sans-serif" font-size="11" font-weight="bold" lengthAdjust="spacing" textLength="140.4004" x="87.1387" y="95.4336">[Hent relaterteplaner ok]</text><text fill="#000000" font-family="sans-serif" font-size="11" lengthAdjust="spacing" textLength="161.0791" x="163.491" y="124.7441">resultat-melding med innhold</text><g class="message" data-participant-1="Planregister" data-participant-2="Fagsystem"><polygon fill="#181818" points="73.8306,158.375,63.8306,162.375,73.8306,166.375,69.8306,162.375" style="stroke:#181818;stroke-width:1;"/><line style="stroke:#181818;stroke-width:1;" x1="67.8306" x2="424.2305" y1="162.375" y2="162.375"/><text fill="#000000" font-family="sans-serif" font-size="13" lengthAdjust="spacing" textLength="338.3999" x="79.8306" y="157.6328">no.ks.fiks.plan.v2.innsyn.relaterteplaner.hent.resultat</text></g><line style="stroke:#000000;stroke-width:1;stroke-dasharray:2.0,2.0;" x1="10" x2="482.436" y1="171.375" y2="171.375"/><text fill="#000000" font-family="sans-serif" font-size="11" font-weight="bold" lengthAdjust="spacing" textLength="213.4688" x="15" y="182.0098">[Feil: planregister fant ikke noe p&#229; id]</text><text fill="#000000" font-family="sans-serif" font-size="11" lengthAdjust="spacing" textLength="137.0649" x="175.498" y="209.9648">feil-melding med innhold</text><g class="message" data-participant-1="Planregister" data-participant-2="Fagsystem"><polygon fill="#181818" points="73.8306,243.5957,63.8306,247.5957,73.8306,251.5957,69.8306,247.5957" style="stroke:#181818;stroke-width:1;"/><line style="stroke:#181818;stroke-width:1;" x1="67.8306" x2="424.2305" y1="247.5957" y2="247.5957"/><text fill="#000000" font-family="sans-serif" font-size="13" lengthAdjust="spacing" textLength="257.9307" x="79.8306" y="242.8535">no.ks.fiks.plan.v2.feilmelding.ikkefunnet</text></g><line style="stroke:#000000;stroke-width:1;stroke-dasharray:2.0,2.0;" x1="10" x2="482.436" y1="256.5957" y2="256.5957"/><text fill="#000000" font-family="sans-serif" font-size="11" font-weight="bold" lengthAdjust="spacing" textLength="221.1602" x="15" y="267.2305">[Feil: hent-meldingen var ikke korrekt]</text><text fill="#000000" font-family="sans-serif" font-size="11" lengthAdjust="spacing" textLength="137.0649" x="175.498" y="295.1855">feil-melding med innhold</text><g class="message" data-participant-1="Planregister" data-participant-2="Fagsystem"><polygon fill="#181818" points="73.8306,328.8164,63.8306,332.8164,73.8306,336.8164,69.8306,332.8164" style="stroke:#181818;stroke-width:1;"/><line style="stroke:#181818;stroke-width:1;" x1="67.8306" x2="424.2305" y1="332.8164" y2="332.8164"/><text fill="#000000" font-family="sans-serif" font-size="13" lengthAdjust="spacing" textLength="315.7261" x="79.8306" y="328.0742">no.ks.fiks.plan.v2.feilmelding.ugyldigforespoersel</text></g><line style="stroke:#000000;stroke-width:1;stroke-dasharray:2.0,2.0;" x1="10" x2="482.436" y1="341.8164" y2="341.8164"/><text fill="#000000" font-family="sans-serif" font-size="11" font-weight="bold" lengthAdjust="spacing" textLength="186.479" x="15" y="352.4512">[Feil: planregister fikk serverfeil]</text><text fill="#000000" font-family="sans-serif" font-size="11" lengthAdjust="spacing" textLength="137.0649" x="175.498" y="380.4063">feil-melding med innhold</text><g class="message" data-participant-1="Planregister" data-participant-2="Fagsystem"><polygon fill="#181818" points="73.8306,414.0371,63.8306,418.0371,73.8306,422.0371,69.8306,418.0371" style="stroke:#181818;stroke-width:1;"/><line style="stroke:#181818;stroke-width:1;" x1="67.8306" x2="424.2305" y1="418.0371" y2="418.0371"/><text fill="#000000" font-family="sans-serif" font-size="13" lengthAdjust="spacing" textLength="248.6631" x="79.8306" y="413.2949">no.ks.fiks.plan.v2.feilmelding.serverfeil</text></g><!--SRC=[jP0nRWGX34LxJk4B34NALPHob39NGEB38XWpCin8Sw2S91UBKNPNcnHfacsGmURz9yykjgDrB3Izq5jnB8X9xt8YhZOt6v8UgpRi_cGJSplO2ehJaOxn3h5dS3V6bKwlMj6FDjLihDLFRIlTzMb1yOaZBV2am7CjNjl6p3ULv-bFAhSeOr0QQ4Og9rhlY1ISUgQSeMZG-l5EoG_9eAF_93XG5v8TIM5ZndUb8NjD0zFkvCifLn7a_a2XBHvQn51rLMk5D9HVbgLIr20xP30Ug7KNOi3-4m00]--></g></svg>