<svg xmlns="http://www.w3.org/2000/svg" xmlns:xlink="http://www.w3.org/1999/xlink" contentStyleType="text/css" data-diagram-type="CLASS" height="558px" preserveAspectRatio="none" style="width:422px;height:558px;background:#FFFFFF;" version="1.1" viewBox="0 0 422 558" width="422px" zoomAndPan="magnify"><defs/><g><!--class FinnArealplaner--><g class="entity" data-entity="FinnArealplaner" data-source-line="2" data-uid="ent0002" id="entity_FinnArealplaner"><rect fill="#F1F1F1" height="64.4883" rx="2.5" ry="2.5" style="stroke:#181818;stroke-width:0.5;" width="231.5977" x="139.97" y="7"/><ellipse cx="198.1678" cy="23" fill="#ADD1B2" rx="11" ry="11" style="stroke:#181818;stroke-width:1;"/><path d="M200.6409,29.1431 Q200.0598,29.4419 199.4207,29.5913 Q198.7815,29.7407 198.076,29.7407 Q195.5691,29.7407 194.2493,28.0889 Q192.9295,26.437 192.9295,23.3159 Q192.9295,20.1865 194.2493,18.5347 Q195.5691,16.8828 198.076,16.8828 Q198.7815,16.8828 199.429,17.0322 Q200.0764,17.1816 200.6409,17.4805 L200.6409,20.2031 Q200.01,19.6221 199.4165,19.3523 Q198.823,19.0825 198.1922,19.0825 Q196.8474,19.0825 196.1626,20.1492 Q195.4778,21.2158 195.4778,23.3159 Q195.4778,25.4077 196.1626,26.4744 Q196.8474,27.541 198.1922,27.541 Q198.823,27.541 199.4165,27.2712 Q200.01,27.0015 200.6409,26.4204 Z " fill="#000000"/><text fill="#000000" font-family="sans-serif" font-size="14" lengthAdjust="spacing" textLength="106.7021" x="218.6678" y="28.291">FinnArealplaner</text><line style="stroke:#181818;stroke-width:0.5;" x1="140.97" x2="370.5677" y1="39" y2="39"/><ellipse cx="150.97" cy="52.7441" fill="none" rx="3" ry="3" style="stroke:#038048;stroke-width:1;"/><text fill="#000000" font-family="sans-serif" font-size="14" lengthAdjust="spacing" textLength="205.5977" x="159.97" y="56.5352">soekekriterier: soekekriterier[]</text><line style="stroke:#181818;stroke-width:0.5;" x1="140.97" x2="370.5677" y1="63.4883" y2="63.4883"/></g><!--class soekekriterier--><g class="entity" data-entity="soekekriterier" data-source-line="6" data-uid="ent0003" id="entity_soekekriterier"><rect fill="#F1F1F1" height="97.4648" rx="2.5" ry="2.5" style="stroke:#181818;stroke-width:0.5;" width="191.2246" x="160.16" y="131.49"/><ellipse cx="204.6141" cy="147.49" fill="#ADD1B2" rx="11" ry="11" style="stroke:#181818;stroke-width:1;"/><path d="M207.0872,153.6331 Q206.5062,153.9319 205.867,154.0813 Q205.2279,154.2307 204.5223,154.2307 Q202.0155,154.2307 200.6956,152.5789 Q199.3758,150.927 199.3758,147.8059 Q199.3758,144.6765 200.6956,143.0247 Q202.0155,141.3728 204.5223,141.3728 Q205.2279,141.3728 205.8753,141.5222 Q206.5228,141.6716 207.0872,141.9705 L207.0872,144.6931 Q206.4564,144.1121 205.8629,143.8423 Q205.2694,143.5725 204.6385,143.5725 Q203.2938,143.5725 202.609,144.6392 Q201.9242,145.7058 201.9242,147.8059 Q201.9242,149.8977 202.609,150.9644 Q203.2938,152.031 204.6385,152.031 Q205.2694,152.031 205.8629,151.7612 Q206.4564,151.4915 207.0872,150.9104 Z " fill="#000000"/><text fill="#000000" font-family="sans-serif" font-size="14" lengthAdjust="spacing" textLength="93.8164" x="225.1141" y="152.781">soekekriterier</text><line style="stroke:#181818;stroke-width:0.5;" x1="161.16" x2="350.3846" y1="163.49" y2="163.49"/><ellipse cx="171.16" cy="177.2341" fill="none" rx="3" ry="3" style="stroke:#038048;stroke-width:1;"/><text fill="#000000" font-family="sans-serif" font-size="14" lengthAdjust="spacing" textLength="55.6787" x="180.16" y="181.0252">felt: Felt</text><ellipse cx="171.16" cy="193.7224" fill="none" rx="3" ry="3" style="stroke:#038048;stroke-width:1;"/><text fill="#000000" font-family="sans-serif" font-size="14" lengthAdjust="spacing" textLength="127.6064" x="180.16" y="197.5134">operator: Operator</text><ellipse cx="171.16" cy="210.2107" fill="none" rx="3" ry="3" style="stroke:#038048;stroke-width:1;"/><text fill="#000000" font-family="sans-serif" font-size="14" lengthAdjust="spacing" textLength="165.2246" x="180.16" y="214.0017">parameterverdier: string</text><line style="stroke:#181818;stroke-width:0.5;" x1="161.16" x2="350.3846" y1="220.9548" y2="220.9548"/></g><!--class Felt--><g class="entity" data-entity="Felt" data-source-line="12" data-uid="ent0004" id="entity_Felt"><rect fill="#F1F1F1" height="262.3477" rx="2.5" ry="2.5" style="stroke:#181818;stroke-width:0.5;" width="275.5459" x="7" y="288.95"/><ellipse cx="128.2285" cy="304.95" fill="#EB937F" rx="11" ry="11" style="stroke:#181818;stroke-width:1;"/><path d="M131.8428,311.45 L124.123,311.45 L124.123,299.0569 L131.8428,299.0569 L131.8428,301.2151 L126.5718,301.2151 L126.5718,303.888 L131.3447,303.888 L131.3447,306.0462 L126.5718,306.0462 L126.5718,309.2918 L131.8428,309.2918 Z " fill="#000000"/><text fill="#000000" font-family="sans-serif" font-size="14" lengthAdjust="spacing" textLength="24.5889" x="148.7285" y="310.241">Felt</text><line style="stroke:#181818;stroke-width:0.5;" x1="8" x2="281.5459" y1="320.95" y2="320.95"/><text fill="#000000" font-family="sans-serif" font-size="14" lengthAdjust="spacing" textLength="263.5459" x="13" y="338.4852">nasjonalArealplanId.kommunenummer</text><text fill="#000000" font-family="sans-serif" font-size="14" lengthAdjust="spacing" textLength="235.0742" x="13" y="354.9734">nasjonalArealplanId.fylkesnummer</text><text fill="#000000" font-family="sans-serif" font-size="14" lengthAdjust="spacing" textLength="201.0723" x="13" y="371.4617">nasjonalArealplanId.landkode</text><text fill="#000000" font-family="sans-serif" font-size="14" lengthAdjust="spacing" textLength="260.1006" x="13" y="387.95">nasjonalArealplanId.planidentifikasjon</text><text fill="#000000" font-family="sans-serif" font-size="14" lengthAdjust="spacing" textLength="129.8965" x="13" y="404.4383">plantype.kodeverdi</text><text fill="#000000" font-family="sans-serif" font-size="14" lengthAdjust="spacing" textLength="61.6328" x="13" y="420.9266">plannavn</text><text fill="#000000" font-family="sans-serif" font-size="14" lengthAdjust="spacing" textLength="141.9004" x="13" y="437.4148">planstatus.kodeverdi</text><text fill="#000000" font-family="sans-serif" font-size="14" lengthAdjust="spacing" textLength="203.8135" x="13" y="453.9031">plandokumentasjonOppdatert</text><text fill="#000000" font-family="sans-serif" font-size="14" lengthAdjust="spacing" textLength="113.75" x="13" y="470.3914">ubehandletKlage</text><text fill="#000000" font-family="sans-serif" font-size="14" lengthAdjust="spacing" textLength="144.4092" x="13" y="486.8797">ubehandletInnsigelse</text><text fill="#000000" font-family="sans-serif" font-size="14" lengthAdjust="spacing" textLength="153.3027" x="13" y="503.368">vedtakEndeligPlandato</text><text fill="#000000" font-family="sans-serif" font-size="14" lengthAdjust="spacing" textLength="154.9092" x="13" y="519.8562">lovreferanse.kodeverdi</text><text fill="#000000" font-family="sans-serif" font-size="14" lengthAdjust="spacing" textLength="114.3242" x="13" y="536.3445">forslagstillertype</text><line style="stroke:#181818;stroke-width:0.5;" x1="8" x2="281.5459" y1="543.2977" y2="543.2977"/></g><!--class Operator--><g class="entity" data-entity="Operator" data-source-line="28" data-uid="ent0005" id="entity_Operator"><rect fill="#F1F1F1" height="179.9063" rx="2.5" ry="2.5" style="stroke:#181818;stroke-width:0.5;" width="97.832" x="317.86" y="330.17"/><ellipse cx="335.2541" cy="346.17" fill="#EB937F" rx="11" ry="11" style="stroke:#181818;stroke-width:1;"/><path d="M338.8684,352.67 L331.1487,352.67 L331.1487,340.2769 L338.8684,340.2769 L338.8684,342.4351 L333.5974,342.4351 L333.5974,345.108 L338.3704,345.108 L338.3704,347.2662 L333.5974,347.2662 L333.5974,350.5118 L338.8684,350.5118 Z " fill="#000000"/><text fill="#000000" font-family="sans-serif" font-size="14" lengthAdjust="spacing" textLength="60.5117" x="349.7862" y="351.461">Operator</text><line style="stroke:#181818;stroke-width:0.5;" x1="318.86" x2="414.692" y1="362.17" y2="362.17"/><text fill="#000000" font-family="sans-serif" font-size="14" lengthAdjust="spacing" textLength="37.0781" x="323.86" y="379.7052">equal</text><text fill="#000000" font-family="sans-serif" font-size="14" lengthAdjust="spacing" textLength="59.6025" x="323.86" y="396.1934">notequal</text><text fill="#000000" font-family="sans-serif" font-size="14" lengthAdjust="spacing" textLength="56.9229" x="323.86" y="412.6817">between</text><text fill="#000000" font-family="sans-serif" font-size="14" lengthAdjust="spacing" textLength="56.4648" x="323.86" y="429.17">lessthan</text><text fill="#000000" font-family="sans-serif" font-size="14" lengthAdjust="spacing" textLength="63.1982" x="323.86" y="445.6583">lessequal</text><text fill="#000000" font-family="sans-serif" font-size="14" lengthAdjust="spacing" textLength="79.0986" x="323.86" y="462.1466">greaterthan</text><text fill="#000000" font-family="sans-serif" font-size="14" lengthAdjust="spacing" textLength="85.832" x="323.86" y="478.6348">greaterequal</text><text fill="#000000" font-family="sans-serif" font-size="14" lengthAdjust="spacing" textLength="33.2021" x="323.86" y="495.1231">inlist</text><line style="stroke:#181818;stroke-width:0.5;" x1="318.86" x2="414.692" y1="502.0762" y2="502.0762"/></g><!--link FinnArealplaner to soekekriterier--><g class="link" data-entity-1="FinnArealplaner" data-entity-2="soekekriterier" data-source-line="39" data-uid="lnk6" id="link_FinnArealplaner_soekekriterier"><path codeLine="39" d="M255.77,71.78 C255.77,89.32 255.77,111.51 255.77,131.17" fill="none" id="FinnArealplaner-soekekriterier" style="stroke:#181818;stroke-width:1;"/></g><!--link soekekriterier to Felt--><g class="link" data-entity-1="soekekriterier" data-entity-2="Felt" data-source-line="40" data-uid="lnk7" id="link_soekekriterier_Felt"><path codeLine="40" d="M233.31,229.36 C225.14,246.88 215.46,267.61 205.56,288.84" fill="none" id="soekekriterier-Felt" style="stroke:#181818;stroke-width:1;"/></g><!--link soekekriterier to Operator--><g class="link" data-entity-1="soekekriterier" data-entity-2="Operator" data-source-line="41" data-uid="lnk8" id="link_soekekriterier_Operator"><path codeLine="41" d="M278.24,229.36 C291.73,258.28 309.32,295.98 325.26,330.15" fill="none" id="soekekriterier-Operator" style="stroke:#181818;stroke-width:1;"/></g><!--SRC=[XLB1JiCm3BttAtf7smVine594uTnHnoonIqXhbDYjsX2_3jEqhLQ0T536jlFp_QBpsYOwxqZkezWi4T34ElFgjRlZWDuyD49H0TnLz_Qpo_LLrMTCy5jv9hV0CgktkjPxD13D1AKwJZTYhytqNIWkID4Mof9TDGcVg2XonGJAHb-2sHmRlTWjpvqtK09sK7y4zLSq0F_0zBJ-c3XJq3wEGiahd4-npCqkUNImpObvp5cDvbnmR0O6VWNb0r-w9GsKnxxtXhLe-WsdE1L0GZoYAQ5bUz0nAu5v18OmOhn3sG1NVkKY5Nd7C4mHcXKT-9rcqs8hDGi3b6hwXopzDUNckI7zy5W4IV8Ofn0FW3Ac0ZCeitDnW9hLSWqrZKwsGl04JgML7ozaflDQicgrSuf86_QJ_UyRDy0]--></g></svg>