<svg xmlns="http://www.w3.org/2000/svg" xmlns:xlink="http://www.w3.org/1999/xlink" contentStyleType="text/css" height="558px" preserveAspectRatio="none" style="width:429px;height:558px;background:#FFFFFF;" version="1.1" viewBox="0 0 429 558" width="429px" zoomAndPan="magnify"><defs/><g><!--class FinnArealplaner--><g id="elem_FinnArealplaner"><rect codeLine="2" fill="#F1F1F1" height="64.4883" id="FinnArealplaner" rx="2.5" ry="2.5" style="stroke:#181818;stroke-width:0.5;" width="234" x="142" y="7"/><ellipse cx="199.75" cy="23" fill="#ADD1B2" rx="11" ry="11" style="stroke:#181818;stroke-width:1.0;"/><path d="M202.2231,29.1431 Q201.6421,29.4419 201.0029,29.5913 Q200.3638,29.7407 199.6582,29.7407 Q197.1514,29.7407 195.8315,28.0889 Q194.5117,26.437 194.5117,23.3159 Q194.5117,20.1865 195.8315,18.5347 Q197.1514,16.8828 199.6582,16.8828 Q200.3638,16.8828 201.0112,17.0322 Q201.6587,17.1816 202.2231,17.4805 L202.2231,20.2031 Q201.5923,19.6221 200.9988,19.3523 Q200.4053,19.0825 199.7744,19.0825 Q198.4297,19.0825 197.7449,20.1492 Q197.0601,21.2158 197.0601,23.3159 Q197.0601,25.4077 197.7449,26.4744 Q198.4297,27.541 199.7744,27.541 Q200.4053,27.541 200.9988,27.2712 Q201.5923,27.0015 202.2231,26.4204 Z " fill="#000000"/><text fill="#000000" font-family="sans-serif" font-size="14" lengthAdjust="spacing" textLength="110" x="220.25" y="28.291">FinnArealplaner</text><line style="stroke:#181818;stroke-width:0.5;" x1="143" x2="375" y1="39" y2="39"/><ellipse cx="153" cy="52.7441" fill="none" rx="3" ry="3" style="stroke:#038048;stroke-width:1.0;"/><text fill="#000000" font-family="sans-serif" font-size="14" lengthAdjust="spacing" textLength="208" x="162" y="56.5352">soekekriterier: soekekriterier[]</text><line style="stroke:#181818;stroke-width:0.5;" x1="143" x2="375" y1="63.4883" y2="63.4883"/></g><!--class soekekriterier--><g id="elem_soekekriterier"><rect codeLine="6" fill="#F1F1F1" height="97.4648" id="soekekriterier" rx="2.5" ry="2.5" style="stroke:#181818;stroke-width:0.5;" width="193" x="162.5" y="131.49"/><ellipse cx="207.25" cy="147.49" fill="#ADD1B2" rx="11" ry="11" style="stroke:#181818;stroke-width:1.0;"/><path d="M209.7231,153.6331 Q209.1421,153.9319 208.5029,154.0813 Q207.8638,154.2307 207.1582,154.2307 Q204.6514,154.2307 203.3315,152.5789 Q202.0117,150.927 202.0117,147.8059 Q202.0117,144.6765 203.3315,143.0247 Q204.6514,141.3728 207.1582,141.3728 Q207.8638,141.3728 208.5112,141.5222 Q209.1587,141.6716 209.7231,141.9705 L209.7231,144.6931 Q209.0923,144.1121 208.4988,143.8423 Q207.9053,143.5725 207.2744,143.5725 Q205.9297,143.5725 205.2449,144.6392 Q204.5601,145.7058 204.5601,147.8059 Q204.5601,149.8977 205.2449,150.9644 Q205.9297,152.031 207.2744,152.031 Q207.9053,152.031 208.4988,151.7612 Q209.0923,151.4915 209.7231,150.9104 Z " fill="#000000"/><text fill="#000000" font-family="sans-serif" font-size="14" lengthAdjust="spacing" textLength="95" x="227.75" y="152.781">soekekriterier</text><line style="stroke:#181818;stroke-width:0.5;" x1="163.5" x2="354.5" y1="163.49" y2="163.49"/><ellipse cx="173.5" cy="177.2341" fill="none" rx="3" ry="3" style="stroke:#038048;stroke-width:1.0;"/><text fill="#000000" font-family="sans-serif" font-size="14" lengthAdjust="spacing" textLength="55" x="182.5" y="181.0252">felt: Felt</text><ellipse cx="173.5" cy="193.7224" fill="none" rx="3" ry="3" style="stroke:#038048;stroke-width:1.0;"/><text fill="#000000" font-family="sans-serif" font-size="14" lengthAdjust="spacing" textLength="130" x="182.5" y="197.5134">operator: Operator</text><ellipse cx="173.5" cy="210.2107" fill="none" rx="3" ry="3" style="stroke:#038048;stroke-width:1.0;"/><text fill="#000000" font-family="sans-serif" font-size="14" lengthAdjust="spacing" textLength="167" x="182.5" y="214.0017">parameterverdier: string</text><line style="stroke:#181818;stroke-width:0.5;" x1="163.5" x2="354.5" y1="220.9548" y2="220.9548"/></g><!--class Felt--><g id="elem_Felt"><rect codeLine="12" fill="#F1F1F1" height="262.3477" id="Felt" rx="2.5" ry="2.5" style="stroke:#181818;stroke-width:0.5;" width="280" x="7" y="288.95"/><ellipse cx="130.25" cy="304.95" fill="#EB937F" rx="11" ry="11" style="stroke:#181818;stroke-width:1.0;"/><path d="M133.8643,311.45 L126.1445,311.45 L126.1445,299.0569 L133.8643,299.0569 L133.8643,301.2151 L128.5933,301.2151 L128.5933,303.888 L133.3662,303.888 L133.3662,306.0462 L128.5933,306.0462 L128.5933,309.2918 L133.8643,309.2918 Z " fill="#000000"/><text fill="#000000" font-family="sans-serif" font-size="14" lengthAdjust="spacing" textLength="25" x="150.75" y="310.241">Felt</text><line style="stroke:#181818;stroke-width:0.5;" x1="8" x2="286" y1="320.95" y2="320.95"/><text fill="#000000" font-family="sans-serif" font-size="14" lengthAdjust="spacing" textLength="268" x="13" y="338.4852">nasjonalArealplanId.kommunenummer</text><text fill="#000000" font-family="sans-serif" font-size="14" lengthAdjust="spacing" textLength="238" x="13" y="354.9734">nasjonalArealplanId.fylkesnummer</text><text fill="#000000" font-family="sans-serif" font-size="14" lengthAdjust="spacing" textLength="205" x="13" y="371.4617">nasjonalArealplanId.landkode</text><text fill="#000000" font-family="sans-serif" font-size="14" lengthAdjust="spacing" textLength="264" x="13" y="387.95">nasjonalArealplanId.planidentifikasjon</text><text fill="#000000" font-family="sans-serif" font-size="14" lengthAdjust="spacing" textLength="131" x="13" y="404.4383">plantype.kodeverdi</text><text fill="#000000" font-family="sans-serif" font-size="14" lengthAdjust="spacing" textLength="63" x="13" y="420.9266">plannavn</text><text fill="#000000" font-family="sans-serif" font-size="14" lengthAdjust="spacing" textLength="143" x="13" y="437.4148">planstatus.kodeverdi</text><text fill="#000000" font-family="sans-serif" font-size="14" lengthAdjust="spacing" textLength="207" x="13" y="453.9031">plandokumentasjonOppdatert</text><text fill="#000000" font-family="sans-serif" font-size="14" lengthAdjust="spacing" textLength="116" x="13" y="470.3914">ubehandletKlage</text><text fill="#000000" font-family="sans-serif" font-size="14" lengthAdjust="spacing" textLength="147" x="13" y="486.8797">ubehandletInnsigelse</text><text fill="#000000" font-family="sans-serif" font-size="14" lengthAdjust="spacing" textLength="156" x="13" y="503.368">vedtakEndeligPlandato</text><text fill="#000000" font-family="sans-serif" font-size="14" lengthAdjust="spacing" textLength="157" x="13" y="519.8562">lovreferanse.kodeverdi</text><text fill="#000000" font-family="sans-serif" font-size="14" lengthAdjust="spacing" textLength="115" x="13" y="536.3445">forslagstillertype</text><line style="stroke:#181818;stroke-width:0.5;" x1="8" x2="286" y1="543.2977" y2="543.2977"/></g><!--class Operator--><g id="elem_Operator"><rect codeLine="28" fill="#F1F1F1" height="179.9063" id="Operator" rx="2.5" ry="2.5" style="stroke:#181818;stroke-width:0.5;" width="100" x="322" y="330.17"/><ellipse cx="339.7" cy="346.17" fill="#EB937F" rx="11" ry="11" style="stroke:#181818;stroke-width:1.0;"/><path d="M343.3143,352.67 L335.5945,352.67 L335.5945,340.2769 L343.3143,340.2769 L343.3143,342.4351 L338.0433,342.4351 L338.0433,345.108 L342.8162,345.108 L342.8162,347.2662 L338.0433,347.2662 L338.0433,350.5118 L343.3143,350.5118 Z " fill="#000000"/><text fill="#000000" font-family="sans-serif" font-size="14" lengthAdjust="spacing" textLength="62" x="354.3" y="351.461">Operator</text><line style="stroke:#181818;stroke-width:0.5;" x1="323" x2="421" y1="362.17" y2="362.17"/><text fill="#000000" font-family="sans-serif" font-size="14" lengthAdjust="spacing" textLength="38" x="328" y="379.7052">equal</text><text fill="#000000" font-family="sans-serif" font-size="14" lengthAdjust="spacing" textLength="61" x="328" y="396.1934">notequal</text><text fill="#000000" font-family="sans-serif" font-size="14" lengthAdjust="spacing" textLength="58" x="328" y="412.6817">between</text><text fill="#000000" font-family="sans-serif" font-size="14" lengthAdjust="spacing" textLength="57" x="328" y="429.17">lessthan</text><text fill="#000000" font-family="sans-serif" font-size="14" lengthAdjust="spacing" textLength="64" x="328" y="445.6583">lessequal</text><text fill="#000000" font-family="sans-serif" font-size="14" lengthAdjust="spacing" textLength="81" x="328" y="462.1466">greaterthan</text><text fill="#000000" font-family="sans-serif" font-size="14" lengthAdjust="spacing" textLength="88" x="328" y="478.6348">greaterequal</text><text fill="#000000" font-family="sans-serif" font-size="14" lengthAdjust="spacing" textLength="33" x="328" y="495.1231">inlist</text><line style="stroke:#181818;stroke-width:0.5;" x1="323" x2="421" y1="502.0762" y2="502.0762"/></g><!--link FinnArealplaner to soekekriterier--><g id="link_FinnArealplaner_soekekriterier"><path codeLine="39" d="M259,71.78 C259,89.32 259,111.51 259,131.17 " fill="none" id="FinnArealplaner-soekekriterier" style="stroke:#181818;stroke-width:1.0;"/></g><!--link soekekriterier to Felt--><g id="link_soekekriterier_Felt"><path codeLine="40" d="M236.34,229.36 C228.09,246.88 218.33,267.61 208.34,288.84 " fill="none" id="soekekriterier-Felt" style="stroke:#181818;stroke-width:1.0;"/></g><!--link soekekriterier to Operator--><g id="link_soekekriterier_Operator"><path codeLine="41" d="M281.87,229.36 C295.6,258.28 313.51,295.98 329.74,330.15 " fill="none" id="soekekriterier-Operator" style="stroke:#181818;stroke-width:1.0;"/></g><!--SRC=[XLB1JiCm3BttAtf7smVine594uTnHnoonIqXhbDYjsX2_3jEqhLQ0T536jlFp_QBpsYOwxqZkezWi4T34ElFgjRlZWDuyD49H0TnLz_Qpo_LLrMTCy5jv9hV0CgktkjPxD13D1AKwJZTYhytqNIWkID4Mof9TDGcVg2XonGJAHb-2sHmRlTWjpvqtK09sK7y4zLSq0F_0zBJ-c3XJq3wEGiahd4-npCqkUNImpObvp5cDvbnmR0O6VWNb0r-w9GsKnxxtXhLe-WsdE1L0GZoYAQ5bUz0nAu5v18OmOhn3sG1NVkKY5Nd7C4mHcXKT-9rcqs8hDGi3b6hwXopzDUNckI7zy5W4IV8Ofn0FW3Ac0ZCeitDnW9hLSWqrZKwsGl04JgML7ozaflDQicgrSuf86_QJ_UyRDy0]--></g></svg>