<svg xmlns="http://www.w3.org/2000/svg" xmlns:xlink="http://www.w3.org/1999/xlink" contentStyleType="text/css" data-diagram-type="CLASS" height="592px" preserveAspectRatio="none" style="width:753px;height:592px;background:#FFFFFF;" version="1.1" viewBox="0 0 753 592" width="753px" zoomAndPan="magnify"><defs/><g><!--class Saksnummer--><g class="entity" data-entity="Saksnummer" data-source-line="2" data-uid="ent0002" id="entity_Saksnummer"><rect fill="#F1F1F1" height="80.9766" rx="2.5" ry="2.5" style="stroke:#181818;stroke-width:0.5;" width="224.1123" x="7" y="346.66"/><ellipse cx="70.9878" cy="362.66" fill="#ADD1B2" rx="11" ry="11" style="stroke:#181818;stroke-width:1;"/><path d="M73.4609,368.8031 Q72.8799,369.1019 72.2407,369.2513 Q71.6016,369.4007 70.896,369.4007 Q68.3892,369.4007 67.0693,367.7489 Q65.7495,366.097 65.7495,362.9759 Q65.7495,359.8465 67.0693,358.1947 Q68.3892,356.5428 70.896,356.5428 Q71.6016,356.5428 72.249,356.6922 Q72.8965,356.8416 73.4609,357.1405 L73.4609,359.8631 Q72.8301,359.2821 72.2366,359.0123 Q71.6431,358.7425 71.0122,358.7425 Q69.6675,358.7425 68.9827,359.8092 Q68.2979,360.8758 68.2979,362.9759 Q68.2979,365.0677 68.9827,366.1344 Q69.6675,367.201 71.0122,367.201 Q71.6431,367.201 72.2366,366.9312 Q72.8301,366.6615 73.4609,366.0804 Z " fill="#000000"/><text fill="#000000" font-family="sans-serif" font-size="14" lengthAdjust="spacing" textLength="87.6367" x="91.4878" y="367.951">Saksnummer</text><line style="stroke:#181818;stroke-width:0.5;" x1="8" x2="230.1123" y1="378.66" y2="378.66"/><ellipse cx="18" cy="392.4041" fill="none" rx="3" ry="3" style="stroke:#038048;stroke-width:1;"/><text fill="#000000" font-family="sans-serif" font-size="14" lengthAdjust="spacing" textLength="108.2676" x="27" y="396.1952">saksaar: integer</text><ellipse cx="18" cy="408.8924" fill="none" rx="3" ry="3" style="stroke:#038048;stroke-width:1;"/><text fill="#000000" font-family="sans-serif" font-size="14" lengthAdjust="spacing" textLength="198.1123" x="27" y="412.6834">sakssekvensnummer: integer</text><line style="stroke:#181818;stroke-width:0.5;" x1="8" x2="230.1123" y1="419.6366" y2="419.6366"/></g><!--class Flate--><g class="entity" data-entity="Flate" data-source-line="1" data-uid="ent0003" id="entity_Flate"><rect fill="#F1F1F1" height="97.4648" rx="2.5" ry="2.5" style="stroke:#181818;stroke-width:0.5;" width="262.4551" x="265.83" y="338.42"/><ellipse cx="376.6474" cy="354.42" fill="#ADD1B2" rx="11" ry="11" style="stroke:#181818;stroke-width:1;"/><path d="M379.1205,360.5631 Q378.5395,360.8619 377.9003,361.0113 Q377.2612,361.1607 376.5556,361.1607 Q374.0488,361.1607 372.7289,359.5089 Q371.4091,357.857 371.4091,354.7359 Q371.4091,351.6065 372.7289,349.9547 Q374.0488,348.3028 376.5556,348.3028 Q377.2612,348.3028 377.9086,348.4522 Q378.5561,348.6016 379.1205,348.9005 L379.1205,351.6231 Q378.4897,351.0421 377.8962,350.7723 Q377.3027,350.5025 376.6718,350.5025 Q375.3271,350.5025 374.6423,351.5692 Q373.9574,352.6358 373.9574,354.7359 Q373.9574,356.8277 374.6423,357.8944 Q375.3271,358.961 376.6718,358.961 Q377.3027,358.961 377.8962,358.6912 Q378.4897,358.4215 379.1205,357.8404 Z " fill="#000000"/><text fill="#000000" font-family="sans-serif" font-size="14" lengthAdjust="spacing" textLength="32.3203" x="397.1474" y="359.711">Flate</text><line style="stroke:#181818;stroke-width:0.5;" x1="266.83" x2="527.2851" y1="370.42" y2="370.42"/><ellipse cx="276.83" cy="384.1641" fill="none" rx="3" ry="3" style="stroke:#038048;stroke-width:1;"/><text fill="#000000" font-family="sans-serif" font-size="14" lengthAdjust="spacing" textLength="103.1201" x="285.83" y="387.9552">type: FlateType</text><ellipse cx="276.83" cy="400.6524" fill="none" rx="3" ry="3" style="stroke:#038048;stroke-width:1;"/><text fill="#000000" font-family="sans-serif" font-size="14" lengthAdjust="spacing" textLength="163.7002" x="285.83" y="404.4434">koordinater: Koordinat[]</text><ellipse cx="276.83" cy="417.1407" fill="none" rx="3" ry="3" style="stroke:#038048;stroke-width:1;"/><text fill="#000000" font-family="sans-serif" font-size="14" lengthAdjust="spacing" textLength="236.4551" x="285.83" y="420.9317">koordinatsystem: Koordinatsystem</text><line style="stroke:#181818;stroke-width:0.5;" x1="266.83" x2="527.2851" y1="427.8848" y2="427.8848"/></g><!--class FlateType--><g class="entity" data-entity="FlateType" data-source-line="7" data-uid="ent0004" id="entity_FlateType"><rect fill="#F1F1F1" height="64.4883" rx="2.5" ry="2.5" style="stroke:#181818;stroke-width:0.5;" width="97.0986" x="197.51" y="508.44"/><ellipse cx="212.51" cy="524.44" fill="#EB937F" rx="11" ry="11" style="stroke:#181818;stroke-width:1;"/><path d="M216.1243,530.94 L208.4045,530.94 L208.4045,518.5469 L216.1243,518.5469 L216.1243,520.7051 L210.8533,520.7051 L210.8533,523.378 L215.6262,523.378 L215.6262,525.5362 L210.8533,525.5362 L210.8533,528.7818 L216.1243,528.7818 Z " fill="#000000"/><text fill="#000000" font-family="sans-serif" font-size="14" lengthAdjust="spacing" textLength="65.0986" x="226.51" y="529.731">FlateType</text><line style="stroke:#181818;stroke-width:0.5;" x1="198.51" x2="293.6086" y1="540.44" y2="540.44"/><text fill="#000000" font-family="sans-serif" font-size="14" lengthAdjust="spacing" textLength="53.7168" x="203.51" y="557.9752">Polygon</text><line style="stroke:#181818;stroke-width:0.5;" x1="198.51" x2="293.6086" y1="564.9283" y2="564.9283"/></g><!--class Koordinat--><g class="entity" data-entity="Koordinat" data-source-line="8" data-uid="ent0006" id="entity_Koordinat"><rect fill="#F1F1F1" height="64.4883" rx="2.5" ry="2.5" style="stroke:#181818;stroke-width:0.5;" width="134.042" x="330.04" y="508.44"/><ellipse cx="360.997" cy="524.44" fill="#ADD1B2" rx="11" ry="11" style="stroke:#181818;stroke-width:1;"/><path d="M363.4701,530.5831 Q362.8891,530.8819 362.2499,531.0313 Q361.6108,531.1807 360.9052,531.1807 Q358.3983,531.1807 357.0785,529.5289 Q355.7587,527.877 355.7587,524.7559 Q355.7587,521.6265 357.0785,519.9747 Q358.3983,518.3228 360.9052,518.3228 Q361.6108,518.3228 362.2582,518.4722 Q362.9057,518.6216 363.4701,518.9205 L363.4701,521.6431 Q362.8393,521.0621 362.2458,520.7923 Q361.6523,520.5225 361.0214,520.5225 Q359.6767,520.5225 358.9919,521.5892 Q358.307,522.6558 358.307,524.7559 Q358.307,526.8477 358.9919,527.9144 Q359.6767,528.981 361.0214,528.981 Q361.6523,528.981 362.2458,528.7112 Q362.8393,528.4415 363.4701,527.8604 Z " fill="#000000"/><text fill="#000000" font-family="sans-serif" font-size="14" lengthAdjust="spacing" textLength="66.582" x="378.543" y="529.731">Koordinat</text><line style="stroke:#181818;stroke-width:0.5;" x1="331.04" x2="463.082" y1="540.44" y2="540.44"/><ellipse cx="341.04" cy="554.1841" fill="none" rx="3" ry="3" style="stroke:#038048;stroke-width:1;"/><text fill="#000000" font-family="sans-serif" font-size="14" lengthAdjust="spacing" textLength="108.042" x="350.04" y="557.9752">items: number[]</text><line style="stroke:#181818;stroke-width:0.5;" x1="331.04" x2="463.082" y1="564.9283" y2="564.9283"/></g><!--class Koordinatsystem--><g class="entity" data-entity="Koordinatsystem" data-source-line="9" data-uid="ent0008" id="entity_Koordinatsystem"><rect fill="#F1F1F1" height="89.5977" rx="2.5" ry="2.5" style="stroke:#181818;stroke-width:0.5;" width="183.5547" x="499.28" y="495.88"/><ellipse cx="531.0552" cy="516.1905" fill="#ADD1B2" rx="11" ry="11" style="stroke:#181818;stroke-width:1;"/><path d="M533.5284,522.3336 Q532.9473,522.6324 532.3082,522.7819 Q531.669,522.9313 530.9634,522.9313 Q528.4566,522.9313 527.1368,521.2794 Q525.817,519.6276 525.817,516.5065 Q525.817,513.3771 527.1368,511.7252 Q528.4566,510.0734 530.9634,510.0734 Q531.669,510.0734 532.3165,510.2228 Q532.9639,510.3722 533.5284,510.671 L533.5284,513.3937 Q532.8975,512.8126 532.304,512.5428 Q531.7105,512.2731 531.0797,512.2731 Q529.7349,512.2731 529.0501,513.3397 Q528.3653,514.4064 528.3653,516.5065 Q528.3653,518.5983 529.0501,519.6649 Q529.7349,520.7316 531.0797,520.7316 Q531.7105,520.7316 532.304,520.4618 Q532.8975,520.192 533.5284,519.611 Z " fill="#000000"/><text fill="#000000" font-family="sans-serif" font-size="12" font-style="italic" lengthAdjust="spacing" textLength="42.0176" x="584.9125" y="512.4816">&#171;Kode&#187;</text><text fill="#000000" font-family="sans-serif" font-size="14" lengthAdjust="spacing" textLength="114.2764" x="548.7831" y="528.548">Koordinatsystem</text><line style="stroke:#181818;stroke-width:0.5;" x1="500.28" x2="681.8347" y1="536.5011" y2="536.5011"/><ellipse cx="510.28" cy="550.2452" fill="none" rx="3" ry="3" style="stroke:#038048;stroke-width:1;"/><text fill="#000000" font-family="sans-serif" font-size="14" lengthAdjust="spacing" textLength="115.4521" x="519.28" y="554.0363">kodeverdi: string</text><ellipse cx="510.28" cy="566.7335" fill="none" rx="3" ry="3" style="stroke:#038048;stroke-width:1;"/><text fill="#000000" font-family="sans-serif" font-size="14" lengthAdjust="spacing" textLength="157.5547" x="519.28" y="570.5245">kodebeskrivelse: string</text><line style="stroke:#181818;stroke-width:0.5;" x1="500.28" x2="681.8347" y1="577.4777" y2="577.4777"/></g><!--class MidlertidigForbud--><g class="entity" data-entity="MidlertidigForbud" data-source-line="4" data-uid="ent0010" id="entity_MidlertidigForbud"><rect fill="#F1F1F1" height="146.9297" rx="2.5" ry="2.5" style="stroke:#181818;stroke-width:0.5;" width="307.9346" x="243.09" y="131.49"/><ellipse cx="332.0529" cy="147.49" fill="#ADD1B2" rx="11" ry="11" style="stroke:#181818;stroke-width:1;"/><path d="M334.526,153.6331 Q333.945,153.9319 333.3058,154.0813 Q332.6667,154.2307 331.9611,154.2307 Q329.4543,154.2307 328.1344,152.5789 Q326.8146,150.927 326.8146,147.8059 Q326.8146,144.6765 328.1344,143.0247 Q329.4543,141.3728 331.9611,141.3728 Q332.6667,141.3728 333.3141,141.5222 Q333.9616,141.6716 334.526,141.9705 L334.526,144.6931 Q333.8952,144.1121 333.3017,143.8423 Q332.7082,143.5725 332.0773,143.5725 Q330.7326,143.5725 330.0478,144.6392 Q329.3629,145.7058 329.3629,147.8059 Q329.3629,149.8977 330.0478,150.9644 Q330.7326,152.031 332.0773,152.031 Q332.7082,152.031 333.3017,151.7612 Q333.8952,151.4915 334.526,150.9104 Z " fill="#000000"/><text fill="#000000" font-family="sans-serif" font-size="14" lengthAdjust="spacing" textLength="121.5088" x="352.5529" y="152.781">MidlertidigForbud</text><line style="stroke:#181818;stroke-width:0.5;" x1="244.09" x2="550.0246" y1="163.49" y2="163.49"/><ellipse cx="254.09" cy="177.2341" fill="none" rx="3" ry="3" style="stroke:#038048;stroke-width:1;"/><text fill="#000000" font-family="sans-serif" font-size="14" lengthAdjust="spacing" textLength="100.6523" x="263.09" y="181.0252">omraade: Flate</text><ellipse cx="254.09" cy="193.7224" fill="none" rx="3" ry="3" style="stroke:#038048;stroke-width:1;"/><text fill="#000000" font-family="sans-serif" font-size="14" lengthAdjust="spacing" textLength="183.7295" x="263.09" y="197.5134">saksnummer: Saksnummer</text><ellipse cx="254.09" cy="210.2107" fill="none" rx="3" ry="3" style="stroke:#038048;stroke-width:1;"/><text fill="#000000" font-family="sans-serif" font-size="14" lengthAdjust="spacing" textLength="145.6943" x="263.09" y="214.0017">avgjoerelsedato: date</text><ellipse cx="254.09" cy="226.699" fill="none" rx="3" ry="3" style="stroke:#038048;stroke-width:1;"/><text fill="#000000" font-family="sans-serif" font-size="14" lengthAdjust="spacing" textLength="281.9346" x="263.09" y="230.49">pblTiltakForbudtype: PblTiltakForbudtype</text><ellipse cx="254.09" cy="243.1873" fill="none" rx="3" ry="3" style="stroke:#038048;stroke-width:1;"/><text fill="#000000" font-family="sans-serif" font-size="14" lengthAdjust="spacing" textLength="129.1172" x="263.09" y="246.9783">gyldigTilDato: date</text><ellipse cx="254.09" cy="259.6755" fill="none" rx="3" ry="3" style="stroke:#038048;stroke-width:1;"/><text fill="#000000" font-family="sans-serif" font-size="14" lengthAdjust="spacing" textLength="140.2529" x="263.09" y="263.4666">omraadenavn: string</text><line style="stroke:#181818;stroke-width:0.5;" x1="244.09" x2="550.0246" y1="270.4197" y2="270.4197"/></g><!--class PblTiltakForbudtype--><g class="entity" data-entity="PblTiltakForbudtype" data-source-line="15" data-uid="ent0013" id="entity_PblTiltakForbudtype"><rect fill="#F1F1F1" height="89.5977" rx="2.5" ry="2.5" style="stroke:#181818;stroke-width:0.5;" width="183.5547" x="563.28" y="342.35"/><ellipse cx="585.2792" cy="362.6605" fill="#ADD1B2" rx="11" ry="11" style="stroke:#181818;stroke-width:1;"/><path d="M587.7523,368.8036 Q587.1713,369.1024 586.5321,369.2519 Q585.8929,369.4013 585.1874,369.4013 Q582.6805,369.4013 581.3607,367.7494 Q580.0409,366.0976 580.0409,362.9765 Q580.0409,359.8471 581.3607,358.1952 Q582.6805,356.5434 585.1874,356.5434 Q585.8929,356.5434 586.5404,356.6928 Q587.1879,356.8422 587.7523,357.141 L587.7523,359.8637 Q587.1215,359.2826 586.5279,359.0128 Q585.9344,358.7431 585.3036,358.7431 Q583.9589,358.7431 583.274,359.8097 Q582.5892,360.8764 582.5892,362.9765 Q582.5892,365.0683 583.274,366.1349 Q583.9589,367.2016 585.3036,367.2016 Q585.9344,367.2016 586.5279,366.9318 Q587.1215,366.662 587.7523,366.081 Z " fill="#000000"/><text fill="#000000" font-family="sans-serif" font-size="12" font-style="italic" lengthAdjust="spacing" textLength="42.0176" x="647.8262" y="358.9516">&#171;Kode&#187;</text><text fill="#000000" font-family="sans-serif" font-size="14" lengthAdjust="spacing" textLength="136.001" x="600.8345" y="375.018">PblTiltakForbudtype</text><line style="stroke:#181818;stroke-width:0.5;" x1="564.28" x2="745.8347" y1="382.9711" y2="382.9711"/><ellipse cx="574.28" cy="396.7152" fill="none" rx="3" ry="3" style="stroke:#038048;stroke-width:1;"/><text fill="#000000" font-family="sans-serif" font-size="14" lengthAdjust="spacing" textLength="115.4521" x="583.28" y="400.5063">kodeverdi: string</text><ellipse cx="574.28" cy="413.2035" fill="none" rx="3" ry="3" style="stroke:#038048;stroke-width:1;"/><text fill="#000000" font-family="sans-serif" font-size="14" lengthAdjust="spacing" textLength="157.5547" x="583.28" y="416.9945">kodebeskrivelse: string</text><line style="stroke:#181818;stroke-width:0.5;" x1="564.28" x2="745.8347" y1="423.9477" y2="423.9477"/></g><!--class FinnMidlertidigeForbudMottiltakResultat--><g class="entity" data-entity="FinnMidlertidigeForbudMottiltakResultat" data-source-line="3" data-uid="ent0015" id="entity_FinnMidlertidigeForbudMottiltakResultat"><rect fill="#F1F1F1" height="64.4883" rx="2.5" ry="2.5" style="stroke:#181818;stroke-width:0.5;" width="305.3418" x="244.39" y="7"/><ellipse cx="259.39" cy="23" fill="#ADD1B2" rx="11" ry="11" style="stroke:#181818;stroke-width:1;"/><path d="M261.8631,29.1431 Q261.2821,29.4419 260.6429,29.5913 Q260.0038,29.7407 259.2982,29.7407 Q256.7914,29.7407 255.4715,28.0889 Q254.1517,26.437 254.1517,23.3159 Q254.1517,20.1865 255.4715,18.5347 Q256.7914,16.8828 259.2982,16.8828 Q260.0038,16.8828 260.6512,17.0322 Q261.2987,17.1816 261.8631,17.4805 L261.8631,20.2031 Q261.2323,19.6221 260.6388,19.3523 Q260.0453,19.0825 259.4144,19.0825 Q258.0697,19.0825 257.3849,20.1492 Q256.7001,21.2158 256.7001,23.3159 Q256.7001,25.4077 257.3849,26.4744 Q258.0697,27.541 259.4144,27.541 Q260.0453,27.541 260.6388,27.2712 Q261.2323,27.0015 261.8631,26.4204 Z " fill="#000000"/><text fill="#000000" font-family="sans-serif" font-size="14" lengthAdjust="spacing" textLength="273.3418" x="273.39" y="28.291">FinnMidlertidigeForbudMottiltakResultat</text><line style="stroke:#181818;stroke-width:0.5;" x1="245.39" x2="548.7318" y1="39" y2="39"/><ellipse cx="255.39" cy="52.7441" fill="none" rx="3" ry="3" style="stroke:#038048;stroke-width:1;"/><text fill="#000000" font-family="sans-serif" font-size="14" lengthAdjust="spacing" textLength="269.7939" x="264.39" y="56.5352">midlertidigeForbud: MidlertidigForbud[]</text><line style="stroke:#181818;stroke-width:0.5;" x1="245.39" x2="548.7318" y1="63.4883" y2="63.4883"/></g><!--link Flate to FlateType--><g class="link" data-entity-1="Flate" data-entity-2="FlateType" data-source-line="7" data-uid="lnk5" id="link_Flate_FlateType"><path codeLine="7" d="M349.28,436.1 C325.78,459.68 298.11,487.44 277.34,508.28" fill="none" id="Flate-FlateType" style="stroke:#181818;stroke-width:1;"/></g><!--link Flate to Koordinat--><g class="link" data-entity-1="Flate" data-entity-2="Koordinat" data-source-line="8" data-uid="lnk7" id="link_Flate_Koordinat"><path codeLine="8" d="M397.06,436.1 C397.06,459.68 397.06,487.44 397.06,508.28" fill="none" id="Flate-Koordinat" style="stroke:#181818;stroke-width:1;"/></g><!--link Flate to Koordinatsystem--><g class="link" data-entity-1="Flate" data-entity-2="Koordinatsystem" data-source-line="9" data-uid="lnk9" id="link_Flate_Koordinatsystem"><path codeLine="9" d="M458.71,436.3 C483,455.28 510.73,476.94 534.51,495.51" fill="none" id="Flate-Koordinatsystem" style="stroke:#181818;stroke-width:1;"/></g><!--link MidlertidigForbud to Flate--><g class="link" data-entity-1="MidlertidigForbud" data-entity-2="Flate" data-source-line="13" data-uid="lnk11" id="link_MidlertidigForbud_Flate"><path codeLine="13" d="M397.06,278.73 C397.06,298.65 397.06,319.75 397.06,337.93" fill="none" id="MidlertidigForbud-Flate" style="stroke:#181818;stroke-width:1;"/></g><!--link MidlertidigForbud to Saksnummer--><g class="link" data-entity-1="MidlertidigForbud" data-entity-2="Saksnummer" data-source-line="14" data-uid="lnk12" id="link_MidlertidigForbud_Saksnummer"><path codeLine="14" d="M284.78,278.73 C249.22,301.78 211.23,326.4 180.61,346.25" fill="none" id="MidlertidigForbud-Saksnummer" style="stroke:#181818;stroke-width:1;"/></g><!--link MidlertidigForbud to PblTiltakForbudtype--><g class="link" data-entity-1="MidlertidigForbud" data-entity-2="PblTiltakForbudtype" data-source-line="15" data-uid="lnk14" id="link_MidlertidigForbud_PblTiltakForbudtype"><path codeLine="15" d="M501.25,278.73 C531.88,300.12 564.45,322.86 591.69,341.89" fill="none" id="MidlertidigForbud-PblTiltakForbudtype" style="stroke:#181818;stroke-width:1;"/></g><!--link FinnMidlertidigeForbudMottiltakResultat to MidlertidigForbud--><g class="link" data-entity-1="FinnMidlertidigeForbudMottiltakResultat" data-entity-2="MidlertidigForbud" data-source-line="7" data-uid="lnk16" id="link_FinnMidlertidigeForbudMottiltakResultat_MidlertidigForbud"><path codeLine="7" d="M397.06,71.81 C397.06,88.72 397.06,110.3 397.06,131.1" fill="none" id="FinnMidlertidigeForbudMottiltakResultat-MidlertidigForbud" style="stroke:#181818;stroke-width:1;"/></g><!--SRC=[ZKox3i8m3Dpz5M56TQIEV42tBgo88JGEikecLPsm8Fwz4GmWPU66E-bU1uwJ54y6BQAD2MV5m9LMSH4VFGOI8SM5lT2MsVCzfErMl6qSN0l094xL31pZ-CrfU1V6b3DBTlEPj5JDvWccuhWqrPFvcN-ionLU0Fy-Trtx03i0]--></g></svg>