<svg xmlns="http://www.w3.org/2000/svg" xmlns:xlink="http://www.w3.org/1999/xlink" contentStyleType="text/css" height="592px" preserveAspectRatio="none" style="width:756px;height:592px;background:#FFFFFF;" version="1.1" viewBox="0 0 756 592" width="756px" zoomAndPan="magnify"><defs/><g><!--class Saksnummer--><g id="elem_Saksnummer"><rect codeLine="2" fill="#F1F1F1" height="80.9766" id="Saksnummer" rx="2.5" ry="2.5" style="stroke:#181818;stroke-width:0.5;" width="225" x="7" y="346.66"/><ellipse cx="70.75" cy="362.66" fill="#ADD1B2" rx="11" ry="11" style="stroke:#181818;stroke-width:1.0;"/><path d="M73.2231,368.8031 Q72.6421,369.1019 72.0029,369.2513 Q71.3638,369.4007 70.6582,369.4007 Q68.1514,369.4007 66.8315,367.7489 Q65.5117,366.097 65.5117,362.9759 Q65.5117,359.8465 66.8315,358.1947 Q68.1514,356.5428 70.6582,356.5428 Q71.3638,356.5428 72.0112,356.6922 Q72.6587,356.8416 73.2231,357.1405 L73.2231,359.8631 Q72.5923,359.2821 71.9988,359.0123 Q71.4053,358.7425 70.7744,358.7425 Q69.4297,358.7425 68.7449,359.8092 Q68.0601,360.8758 68.0601,362.9759 Q68.0601,365.0677 68.7449,366.1344 Q69.4297,367.201 70.7744,367.201 Q71.4053,367.201 71.9988,366.9312 Q72.5923,366.6615 73.2231,366.0804 Z " fill="#000000"/><text fill="#000000" font-family="sans-serif" font-size="14" lengthAdjust="spacing" textLength="89" x="91.25" y="367.951">Saksnummer</text><line style="stroke:#181818;stroke-width:0.5;" x1="8" x2="231" y1="378.66" y2="378.66"/><ellipse cx="18" cy="392.4041" fill="none" rx="3" ry="3" style="stroke:#038048;stroke-width:1.0;"/><text fill="#000000" font-family="sans-serif" font-size="14" lengthAdjust="spacing" textLength="109" x="27" y="396.1952">saksaar: integer</text><ellipse cx="18" cy="408.8924" fill="none" rx="3" ry="3" style="stroke:#038048;stroke-width:1.0;"/><text fill="#000000" font-family="sans-serif" font-size="14" lengthAdjust="spacing" textLength="199" x="27" y="412.6834">sakssekvensnummer: integer</text><line style="stroke:#181818;stroke-width:0.5;" x1="8" x2="231" y1="419.6366" y2="419.6366"/></g><!--class Flate--><g id="elem_Flate"><rect codeLine="1" fill="#F1F1F1" height="97.4648" id="Flate" rx="2.5" ry="2.5" style="stroke:#181818;stroke-width:0.5;" width="263" x="267" y="338.42"/><ellipse cx="377.75" cy="354.42" fill="#ADD1B2" rx="11" ry="11" style="stroke:#181818;stroke-width:1.0;"/><path d="M380.2231,360.5631 Q379.6421,360.8619 379.0029,361.0113 Q378.3638,361.1607 377.6582,361.1607 Q375.1514,361.1607 373.8315,359.5089 Q372.5117,357.857 372.5117,354.7359 Q372.5117,351.6065 373.8315,349.9547 Q375.1514,348.3028 377.6582,348.3028 Q378.3638,348.3028 379.0112,348.4522 Q379.6587,348.6016 380.2231,348.9005 L380.2231,351.6231 Q379.5923,351.0421 378.9988,350.7723 Q378.4053,350.5025 377.7744,350.5025 Q376.4297,350.5025 375.7449,351.5692 Q375.0601,352.6358 375.0601,354.7359 Q375.0601,356.8277 375.7449,357.8944 Q376.4297,358.961 377.7744,358.961 Q378.4053,358.961 378.9988,358.6912 Q379.5923,358.4215 380.2231,357.8404 Z " fill="#000000"/><text fill="#000000" font-family="sans-serif" font-size="14" lengthAdjust="spacing" textLength="33" x="398.25" y="359.711">Flate</text><line style="stroke:#181818;stroke-width:0.5;" x1="268" x2="529" y1="370.42" y2="370.42"/><ellipse cx="278" cy="384.1641" fill="none" rx="3" ry="3" style="stroke:#038048;stroke-width:1.0;"/><text fill="#000000" font-family="sans-serif" font-size="14" lengthAdjust="spacing" textLength="103" x="287" y="387.9552">type: FlateType</text><ellipse cx="278" cy="400.6524" fill="none" rx="3" ry="3" style="stroke:#038048;stroke-width:1.0;"/><text fill="#000000" font-family="sans-serif" font-size="14" lengthAdjust="spacing" textLength="167" x="287" y="404.4434">koordinater: Koordinat[]</text><ellipse cx="278" cy="417.1407" fill="none" rx="3" ry="3" style="stroke:#038048;stroke-width:1.0;"/><text fill="#000000" font-family="sans-serif" font-size="14" lengthAdjust="spacing" textLength="237" x="287" y="420.9317">koordinatsystem: Koordinatsystem</text><line style="stroke:#181818;stroke-width:0.5;" x1="268" x2="529" y1="427.8848" y2="427.8848"/></g><!--class FlateType--><g id="elem_FlateType"><rect codeLine="11" fill="#F1F1F1" height="64.4883" id="FlateType" rx="2.5" ry="2.5" style="stroke:#181818;stroke-width:0.5;" width="98" x="198.5" y="508.44"/><ellipse cx="213.5" cy="524.44" fill="#EB937F" rx="11" ry="11" style="stroke:#181818;stroke-width:1.0;"/><path d="M217.1143,530.94 L209.3945,530.94 L209.3945,518.5469 L217.1143,518.5469 L217.1143,520.7051 L211.8433,520.7051 L211.8433,523.378 L216.6162,523.378 L216.6162,525.5362 L211.8433,525.5362 L211.8433,528.7818 L217.1143,528.7818 Z " fill="#000000"/><text fill="#000000" font-family="sans-serif" font-size="14" lengthAdjust="spacing" textLength="66" x="227.5" y="529.731">FlateType</text><line style="stroke:#181818;stroke-width:0.5;" x1="199.5" x2="295.5" y1="540.44" y2="540.44"/><text fill="#000000" font-family="sans-serif" font-size="14" lengthAdjust="spacing" textLength="55" x="204.5" y="557.9752">Polygon</text><line style="stroke:#181818;stroke-width:0.5;" x1="199.5" x2="295.5" y1="564.9283" y2="564.9283"/></g><!--class Koordinat--><g id="elem_Koordinat"><rect codeLine="15" fill="#F1F1F1" height="64.4883" id="Koordinat" rx="2.5" ry="2.5" style="stroke:#181818;stroke-width:0.5;" width="135" x="331" y="508.44"/><ellipse cx="361.75" cy="524.44" fill="#ADD1B2" rx="11" ry="11" style="stroke:#181818;stroke-width:1.0;"/><path d="M364.2231,530.5831 Q363.6421,530.8819 363.0029,531.0313 Q362.3638,531.1807 361.6582,531.1807 Q359.1514,531.1807 357.8315,529.5289 Q356.5117,527.877 356.5117,524.7559 Q356.5117,521.6265 357.8315,519.9747 Q359.1514,518.3228 361.6582,518.3228 Q362.3638,518.3228 363.0112,518.4722 Q363.6587,518.6216 364.2231,518.9205 L364.2231,521.6431 Q363.5923,521.0621 362.9988,520.7923 Q362.4053,520.5225 361.7744,520.5225 Q360.4297,520.5225 359.7449,521.5892 Q359.0601,522.6558 359.0601,524.7559 Q359.0601,526.8477 359.7449,527.9144 Q360.4297,528.981 361.7744,528.981 Q362.4053,528.981 362.9988,528.7112 Q363.5923,528.4415 364.2231,527.8604 Z " fill="#000000"/><text fill="#000000" font-family="sans-serif" font-size="14" lengthAdjust="spacing" textLength="68" x="379.25" y="529.731">Koordinat</text><line style="stroke:#181818;stroke-width:0.5;" x1="332" x2="465" y1="540.44" y2="540.44"/><ellipse cx="342" cy="554.1841" fill="none" rx="3" ry="3" style="stroke:#038048;stroke-width:1.0;"/><text fill="#000000" font-family="sans-serif" font-size="14" lengthAdjust="spacing" textLength="109" x="351" y="557.9752">items: number[]</text><line style="stroke:#181818;stroke-width:0.5;" x1="332" x2="465" y1="564.9283" y2="564.9283"/></g><!--class Koordinatsystem--><g id="elem_Koordinatsystem"><rect codeLine="19" fill="#F1F1F1" height="89.5977" id="Koordinatsystem" rx="2.5" ry="2.5" style="stroke:#181818;stroke-width:0.5;" width="184" x="501.5" y="495.88"/><ellipse cx="533.15" cy="516.1905" fill="#ADD1B2" rx="11" ry="11" style="stroke:#181818;stroke-width:1.0;"/><path d="M535.6231,522.3336 Q535.0421,522.6324 534.4029,522.7819 Q533.7638,522.9313 533.0582,522.9313 Q530.5514,522.9313 529.2315,521.2794 Q527.9117,519.6276 527.9117,516.5065 Q527.9117,513.3771 529.2315,511.7252 Q530.5514,510.0734 533.0582,510.0734 Q533.7638,510.0734 534.4112,510.2228 Q535.0587,510.3722 535.6231,510.671 L535.6231,513.3937 Q534.9923,512.8126 534.3988,512.5428 Q533.8053,512.2731 533.1744,512.2731 Q531.8297,512.2731 531.1449,513.3397 Q530.4601,514.4064 530.4601,516.5065 Q530.4601,518.5983 531.1449,519.6649 Q531.8297,520.7316 533.1744,520.7316 Q533.8053,520.7316 534.3988,520.4618 Q534.9923,520.192 535.6231,519.611 Z " fill="#000000"/><text fill="#000000" font-family="sans-serif" font-size="12" font-style="italic" lengthAdjust="spacing" textLength="42" x="587.35" y="512.4816">&#171;Kode&#187;</text><text fill="#000000" font-family="sans-serif" font-size="14" lengthAdjust="spacing" textLength="115" x="550.85" y="528.548">Koordinatsystem</text><line style="stroke:#181818;stroke-width:0.5;" x1="502.5" x2="684.5" y1="536.5011" y2="536.5011"/><ellipse cx="512.5" cy="550.2452" fill="none" rx="3" ry="3" style="stroke:#038048;stroke-width:1.0;"/><text fill="#000000" font-family="sans-serif" font-size="14" lengthAdjust="spacing" textLength="116" x="521.5" y="554.0363">kodeverdi: string</text><ellipse cx="512.5" cy="566.7335" fill="none" rx="3" ry="3" style="stroke:#038048;stroke-width:1.0;"/><text fill="#000000" font-family="sans-serif" font-size="14" lengthAdjust="spacing" textLength="158" x="521.5" y="570.5245">kodebeskrivelse: string</text><line style="stroke:#181818;stroke-width:0.5;" x1="502.5" x2="684.5" y1="577.4777" y2="577.4777"/></g><!--class MidlertidigForbud--><g id="elem_MidlertidigForbud"><rect codeLine="4" fill="#F1F1F1" height="146.9297" id="MidlertidigForbud" rx="2.5" ry="2.5" style="stroke:#181818;stroke-width:0.5;" width="311" x="243" y="131.49"/><ellipse cx="332.25" cy="147.49" fill="#ADD1B2" rx="11" ry="11" style="stroke:#181818;stroke-width:1.0;"/><path d="M334.7231,153.6331 Q334.1421,153.9319 333.5029,154.0813 Q332.8638,154.2307 332.1582,154.2307 Q329.6514,154.2307 328.3315,152.5789 Q327.0117,150.927 327.0117,147.8059 Q327.0117,144.6765 328.3315,143.0247 Q329.6514,141.3728 332.1582,141.3728 Q332.8638,141.3728 333.5112,141.5222 Q334.1587,141.6716 334.7231,141.9705 L334.7231,144.6931 Q334.0923,144.1121 333.4988,143.8423 Q332.9053,143.5725 332.2744,143.5725 Q330.9297,143.5725 330.2449,144.6392 Q329.5601,145.7058 329.5601,147.8059 Q329.5601,149.8977 330.2449,150.9644 Q330.9297,152.031 332.2744,152.031 Q332.9053,152.031 333.4988,151.7612 Q334.0923,151.4915 334.7231,150.9104 Z " fill="#000000"/><text fill="#000000" font-family="sans-serif" font-size="14" lengthAdjust="spacing" textLength="124" x="352.75" y="152.781">MidlertidigForbud</text><line style="stroke:#181818;stroke-width:0.5;" x1="244" x2="553" y1="163.49" y2="163.49"/><ellipse cx="254" cy="177.2341" fill="none" rx="3" ry="3" style="stroke:#038048;stroke-width:1.0;"/><text fill="#000000" font-family="sans-serif" font-size="14" lengthAdjust="spacing" textLength="102" x="263" y="181.0252">omraade: Flate</text><ellipse cx="254" cy="193.7224" fill="none" rx="3" ry="3" style="stroke:#038048;stroke-width:1.0;"/><text fill="#000000" font-family="sans-serif" font-size="14" lengthAdjust="spacing" textLength="185" x="263" y="197.5134">saksnummer: Saksnummer</text><ellipse cx="254" cy="210.2107" fill="none" rx="3" ry="3" style="stroke:#038048;stroke-width:1.0;"/><text fill="#000000" font-family="sans-serif" font-size="14" lengthAdjust="spacing" textLength="147" x="263" y="214.0017">avgjoerelsedato: date</text><ellipse cx="254" cy="226.699" fill="none" rx="3" ry="3" style="stroke:#038048;stroke-width:1.0;"/><text fill="#000000" font-family="sans-serif" font-size="14" lengthAdjust="spacing" textLength="285" x="263" y="230.49">pblTiltakForbudtype: PblTiltakForbudtype</text><ellipse cx="254" cy="243.1873" fill="none" rx="3" ry="3" style="stroke:#038048;stroke-width:1.0;"/><text fill="#000000" font-family="sans-serif" font-size="14" lengthAdjust="spacing" textLength="129" x="263" y="246.9783">gyldigTilDato: date</text><ellipse cx="254" cy="259.6755" fill="none" rx="3" ry="3" style="stroke:#038048;stroke-width:1.0;"/><text fill="#000000" font-family="sans-serif" font-size="14" lengthAdjust="spacing" textLength="142" x="263" y="263.4666">omraadenavn: string</text><line style="stroke:#181818;stroke-width:0.5;" x1="244" x2="553" y1="270.4197" y2="270.4197"/></g><!--class PblTiltakForbudtype--><g id="elem_PblTiltakForbudtype"><rect codeLine="17" fill="#F1F1F1" height="89.5977" id="PblTiltakForbudtype" rx="2.5" ry="2.5" style="stroke:#181818;stroke-width:0.5;" width="184" x="565.5" y="342.35"/><ellipse cx="586.8" cy="362.6605" fill="#ADD1B2" rx="11" ry="11" style="stroke:#181818;stroke-width:1.0;"/><path d="M589.2731,368.8036 Q588.6921,369.1024 588.0529,369.2519 Q587.4138,369.4013 586.7082,369.4013 Q584.2014,369.4013 582.8815,367.7494 Q581.5617,366.0976 581.5617,362.9765 Q581.5617,359.8471 582.8815,358.1952 Q584.2014,356.5434 586.7082,356.5434 Q587.4138,356.5434 588.0612,356.6928 Q588.7087,356.8422 589.2731,357.141 L589.2731,359.8637 Q588.6423,359.2826 588.0488,359.0128 Q587.4553,358.7431 586.8244,358.7431 Q585.4797,358.7431 584.7949,359.8097 Q584.1101,360.8764 584.1101,362.9765 Q584.1101,365.0683 584.7949,366.1349 Q585.4797,367.2016 586.8244,367.2016 Q587.4553,367.2016 588.0488,366.9318 Q588.6423,366.662 589.2731,366.081 Z " fill="#000000"/><text fill="#000000" font-family="sans-serif" font-size="12" font-style="italic" lengthAdjust="spacing" textLength="42" x="650.2" y="358.9516">&#171;Kode&#187;</text><text fill="#000000" font-family="sans-serif" font-size="14" lengthAdjust="spacing" textLength="138" x="602.2" y="375.018">PblTiltakForbudtype</text><line style="stroke:#181818;stroke-width:0.5;" x1="566.5" x2="748.5" y1="382.9711" y2="382.9711"/><ellipse cx="576.5" cy="396.7152" fill="none" rx="3" ry="3" style="stroke:#038048;stroke-width:1.0;"/><text fill="#000000" font-family="sans-serif" font-size="14" lengthAdjust="spacing" textLength="116" x="585.5" y="400.5063">kodeverdi: string</text><ellipse cx="576.5" cy="413.2035" fill="none" rx="3" ry="3" style="stroke:#038048;stroke-width:1.0;"/><text fill="#000000" font-family="sans-serif" font-size="14" lengthAdjust="spacing" textLength="158" x="585.5" y="416.9945">kodebeskrivelse: string</text><line style="stroke:#181818;stroke-width:0.5;" x1="566.5" x2="748.5" y1="423.9477" y2="423.9477"/></g><!--class FinnMidlertidigeForbudMottiltakResultat--><g id="elem_FinnMidlertidigeForbudMottiltakResultat"><rect codeLine="3" fill="#F1F1F1" height="64.4883" id="FinnMidlertidigeForbudMottiltakResultat" rx="2.5" ry="2.5" style="stroke:#181818;stroke-width:0.5;" width="309" x="244" y="7"/><ellipse cx="259" cy="23" fill="#ADD1B2" rx="11" ry="11" style="stroke:#181818;stroke-width:1.0;"/><path d="M261.4731,29.1431 Q260.8921,29.4419 260.2529,29.5913 Q259.6138,29.7407 258.9082,29.7407 Q256.4014,29.7407 255.0815,28.0889 Q253.7617,26.437 253.7617,23.3159 Q253.7617,20.1865 255.0815,18.5347 Q256.4014,16.8828 258.9082,16.8828 Q259.6138,16.8828 260.2612,17.0322 Q260.9087,17.1816 261.4731,17.4805 L261.4731,20.2031 Q260.8423,19.6221 260.2488,19.3523 Q259.6553,19.0825 259.0244,19.0825 Q257.6797,19.0825 256.9949,20.1492 Q256.3101,21.2158 256.3101,23.3159 Q256.3101,25.4077 256.9949,26.4744 Q257.6797,27.541 259.0244,27.541 Q259.6553,27.541 260.2488,27.2712 Q260.8423,27.0015 261.4731,26.4204 Z " fill="#000000"/><text fill="#000000" font-family="sans-serif" font-size="14" lengthAdjust="spacing" textLength="277" x="273" y="28.291">FinnMidlertidigeForbudMottiltakResultat</text><line style="stroke:#181818;stroke-width:0.5;" x1="245" x2="552" y1="39" y2="39"/><ellipse cx="255" cy="52.7441" fill="none" rx="3" ry="3" style="stroke:#038048;stroke-width:1.0;"/><text fill="#000000" font-family="sans-serif" font-size="14" lengthAdjust="spacing" textLength="275" x="264" y="56.5352">midlertidigeForbud: MidlertidigForbud[]</text><line style="stroke:#181818;stroke-width:0.5;" x1="245" x2="552" y1="63.4883" y2="63.4883"/></g><!--link Flate to FlateType--><g id="link_Flate_FlateType"><path codeLine="7" d="M350.72,436.1 C327.22,459.68 299.56,487.44 278.79,508.28 " fill="none" id="Flate-FlateType" style="stroke:#181818;stroke-width:1.0;"/></g><!--link Flate to Koordinat--><g id="link_Flate_Koordinat"><path codeLine="8" d="M398.5,436.1 C398.5,459.68 398.5,487.44 398.5,508.28 " fill="none" id="Flate-Koordinat" style="stroke:#181818;stroke-width:1.0;"/></g><!--link Flate to Koordinatsystem--><g id="link_Flate_Koordinatsystem"><path codeLine="9" d="M460.47,436.3 C484.89,455.28 512.76,476.94 536.66,495.51 " fill="none" id="Flate-Koordinatsystem" style="stroke:#181818;stroke-width:1.0;"/></g><!--link MidlertidigForbud to Flate--><g id="link_MidlertidigForbud_Flate"><path codeLine="13" d="M398.5,278.73 C398.5,298.65 398.5,319.75 398.5,337.93 " fill="none" id="MidlertidigForbud-Flate" style="stroke:#181818;stroke-width:1.0;"/></g><!--link MidlertidigForbud to Saksnummer--><g id="link_MidlertidigForbud_Saksnummer"><path codeLine="14" d="M285.82,278.73 C250.13,301.78 212.01,326.4 181.27,346.25 " fill="none" id="MidlertidigForbud-Saksnummer" style="stroke:#181818;stroke-width:1.0;"/></g><!--link MidlertidigForbud to PblTiltakForbudtype--><g id="link_MidlertidigForbud_PblTiltakForbudtype"><path codeLine="15" d="M503.1,278.73 C533.85,300.12 566.54,322.86 593.89,341.89 " fill="none" id="MidlertidigForbud-PblTiltakForbudtype" style="stroke:#181818;stroke-width:1.0;"/></g><!--link FinnMidlertidigeForbudMottiltakResultat to MidlertidigForbud--><g id="link_FinnMidlertidigeForbudMottiltakResultat_MidlertidigForbud"><path codeLine="7" d="M398.5,71.81 C398.5,88.72 398.5,110.3 398.5,131.1 " fill="none" id="FinnMidlertidigeForbudMottiltakResultat-MidlertidigForbud" style="stroke:#181818;stroke-width:1.0;"/></g><!--SRC=[ZKox3i8m3Dpz5M56TQIEV42tBgo88JGEikecLPsm8Fwz4GmWPU66E-bU1uwJ54y6BQAD2MV5m9LMSH4VFGOI8SM5lT2MsVCzfErMl6qSN0l094xL31pZ-CrfU1V6b3DBTlEPj5JDvWccuhWqrPFvcN-ionLU0Fy-Trtx03i0]--></g></svg>