<svg xmlns="http://www.w3.org/2000/svg" xmlns:xlink="http://www.w3.org/1999/xlink" contentStyleType="text/css" data-diagram-type="CLASS" height="558px" preserveAspectRatio="none" style="width:1807px;height:558px;background:#FFFFFF;" version="1.1" viewBox="0 0 1807 558" width="1807px" zoomAndPan="magnify"><defs/><g><!--class Saksnummer--><g class="entity" data-entity="Saksnummer" data-source-line="2" data-uid="ent0002" id="entity_Saksnummer"><rect fill="#F1F1F1" height="80.9766" rx="2.5" ry="2.5" style="stroke:#181818;stroke-width:0.5;" width="224.1123" x="7" y="279.88"/><ellipse cx="70.9878" cy="295.88" fill="#ADD1B2" rx="11" ry="11" style="stroke:#181818;stroke-width:1;"/><path d="M73.4609,302.0231 Q72.8799,302.3219 72.2407,302.4713 Q71.6016,302.6207 70.896,302.6207 Q68.3892,302.6207 67.0693,300.9689 Q65.7495,299.317 65.7495,296.1959 Q65.7495,293.0665 67.0693,291.4147 Q68.3892,289.7628 70.896,289.7628 Q71.6016,289.7628 72.249,289.9122 Q72.8965,290.0616 73.4609,290.3605 L73.4609,293.0831 Q72.8301,292.5021 72.2366,292.2323 Q71.6431,291.9625 71.0122,291.9625 Q69.6675,291.9625 68.9827,293.0292 Q68.2979,294.0958 68.2979,296.1959 Q68.2979,298.2877 68.9827,299.3544 Q69.6675,300.421 71.0122,300.421 Q71.6431,300.421 72.2366,300.1512 Q72.8301,299.8815 73.4609,299.3004 Z " fill="#000000"/><text fill="#000000" font-family="sans-serif" font-size="14" lengthAdjust="spacing" textLength="87.6367" x="91.4878" y="301.171">Saksnummer</text><line style="stroke:#181818;stroke-width:0.5;" x1="8" x2="230.1123" y1="311.88" y2="311.88"/><ellipse cx="18" cy="325.6241" fill="none" rx="3" ry="3" style="stroke:#038048;stroke-width:1;"/><text fill="#000000" font-family="sans-serif" font-size="14" lengthAdjust="spacing" textLength="108.2676" x="27" y="329.4152">saksaar: integer</text><ellipse cx="18" cy="342.1124" fill="none" rx="3" ry="3" style="stroke:#038048;stroke-width:1;"/><text fill="#000000" font-family="sans-serif" font-size="14" lengthAdjust="spacing" textLength="198.1123" x="27" y="345.9034">sakssekvensnummer: integer</text><line style="stroke:#181818;stroke-width:0.5;" x1="8" x2="230.1123" y1="352.8566" y2="352.8566"/></g><!--class Dokument--><g class="entity" data-entity="Dokument" data-source-line="1" data-uid="ent0003" id="entity_Dokument"><rect fill="#F1F1F1" height="146.9297" rx="2.5" ry="2.5" style="stroke:#181818;stroke-width:0.5;" width="333.0908" x="266.51" y="246.91"/><ellipse cx="393.4294" cy="262.91" fill="#ADD1B2" rx="11" ry="11" style="stroke:#181818;stroke-width:1;"/><path d="M395.9026,269.0531 Q395.3215,269.3519 394.6824,269.5013 Q394.0432,269.6507 393.3376,269.6507 Q390.8308,269.6507 389.511,267.9989 Q388.1912,266.347 388.1912,263.2259 Q388.1912,260.0965 389.511,258.4447 Q390.8308,256.7928 393.3376,256.7928 Q394.0432,256.7928 394.6907,256.9422 Q395.3381,257.0916 395.9026,257.3905 L395.9026,260.1131 Q395.2717,259.5321 394.6782,259.2623 Q394.0847,258.9925 393.4538,258.9925 Q392.1091,258.9925 391.4243,260.0592 Q390.7395,261.1258 390.7395,263.2259 Q390.7395,265.3177 391.4243,266.3844 Q392.1091,267.451 393.4538,267.451 Q394.0847,267.451 394.6782,267.1812 Q395.2717,266.9115 395.9026,266.3304 Z " fill="#000000"/><text fill="#000000" font-family="sans-serif" font-size="14" lengthAdjust="spacing" textLength="70.752" x="413.9294" y="268.201">Dokument</text><line style="stroke:#181818;stroke-width:0.5;" x1="267.51" x2="598.6008" y1="278.91" y2="278.91"/><ellipse cx="277.51" cy="292.6541" fill="none" rx="3" ry="3" style="stroke:#038048;stroke-width:1;"/><text fill="#000000" font-family="sans-serif" font-size="14" lengthAdjust="spacing" textLength="80.0283" x="286.51" y="296.4452">tittel: string</text><ellipse cx="277.51" cy="309.1424" fill="none" rx="3" ry="3" style="stroke:#038048;stroke-width:1;"/><text fill="#000000" font-family="sans-serif" font-size="14" lengthAdjust="spacing" textLength="207.0127" x="286.51" y="312.9334">dokumenttype: Dokumenttype</text><ellipse cx="277.51" cy="325.6307" fill="none" rx="3" ry="3" style="stroke:#038048;stroke-width:1;"/><text fill="#000000" font-family="sans-serif" font-size="14" lengthAdjust="spacing" textLength="307.0908" x="286.51" y="329.4217">referanseDokumentfil: ReferanseDokumentfil</text><ellipse cx="277.51" cy="342.119" fill="none" rx="3" ry="3" style="stroke:#038048;stroke-width:1;"/><text fill="#000000" font-family="sans-serif" font-size="14" lengthAdjust="spacing" textLength="115.5752" x="286.51" y="345.91">mimetype: string</text><ellipse cx="277.51" cy="358.6073" fill="none" rx="3" ry="3" style="stroke:#038048;stroke-width:1;"/><text fill="#000000" font-family="sans-serif" font-size="14" lengthAdjust="spacing" textLength="145.0313" x="286.51" y="362.3983">dokumentsdato: date</text><ellipse cx="277.51" cy="375.0955" fill="none" rx="3" ry="3" style="stroke:#038048;stroke-width:1;"/><text fill="#000000" font-family="sans-serif" font-size="14" lengthAdjust="spacing" textLength="113.7158" x="286.51" y="378.8866">arkivnavn: string</text><line style="stroke:#181818;stroke-width:0.5;" x1="267.51" x2="598.6008" y1="385.8397" y2="385.8397"/></g><!--class Dokumenttype--><g class="entity" data-entity="Dokumenttype" data-source-line="10" data-uid="ent0004" id="entity_Dokumenttype"><rect fill="#F1F1F1" height="89.5977" rx="2.5" ry="2.5" style="stroke:#181818;stroke-width:0.5;" width="183.5547" x="193.28" y="457.77"/><ellipse cx="231.5183" cy="478.0805" fill="#ADD1B2" rx="11" ry="11" style="stroke:#181818;stroke-width:1;"/><path d="M233.9914,484.2236 Q233.4104,484.5224 232.7712,484.6719 Q232.1321,484.8213 231.4265,484.8213 Q228.9196,484.8213 227.5998,483.1694 Q226.28,481.5176 226.28,478.3965 Q226.28,475.2671 227.5998,473.6152 Q228.9196,471.9634 231.4265,471.9634 Q232.1321,471.9634 232.7795,472.1128 Q233.427,472.2622 233.9914,472.561 L233.9914,475.2837 Q233.3606,474.7026 232.7671,474.4328 Q232.1736,474.1631 231.5427,474.1631 Q230.198,474.1631 229.5132,475.2297 Q228.8283,476.2964 228.8283,478.3965 Q228.8283,480.4883 229.5132,481.5549 Q230.198,482.6216 231.5427,482.6216 Q232.1736,482.6216 232.7671,482.3518 Q233.3606,482.082 233.9914,481.501 Z " fill="#000000"/><text fill="#000000" font-family="sans-serif" font-size="12" font-style="italic" lengthAdjust="spacing" textLength="42.0176" x="279.6306" y="474.3716">&#171;Kode&#187;</text><text fill="#000000" font-family="sans-serif" font-size="14" lengthAdjust="spacing" textLength="99.9141" x="250.6823" y="490.438">Dokumenttype</text><line style="stroke:#181818;stroke-width:0.5;" x1="194.28" x2="375.8347" y1="498.3911" y2="498.3911"/><ellipse cx="204.28" cy="512.1352" fill="none" rx="3" ry="3" style="stroke:#038048;stroke-width:1;"/><text fill="#000000" font-family="sans-serif" font-size="14" lengthAdjust="spacing" textLength="115.4521" x="213.28" y="515.9263">kodeverdi: string</text><ellipse cx="204.28" cy="528.6235" fill="none" rx="3" ry="3" style="stroke:#038048;stroke-width:1;"/><text fill="#000000" font-family="sans-serif" font-size="14" lengthAdjust="spacing" textLength="157.5547" x="213.28" y="532.4145">kodebeskrivelse: string</text><line style="stroke:#181818;stroke-width:0.5;" x1="194.28" x2="375.8347" y1="539.3677" y2="539.3677"/></g><!--class ReferanseDokumentfil--><g class="entity" data-entity="ReferanseDokumentfil" data-source-line="11" data-uid="ent0006" id="entity_ReferanseDokumentfil"><rect fill="#F1F1F1" height="80.9766" rx="2.5" ry="2.5" style="stroke:#181818;stroke-width:0.5;" width="182.6777" x="411.72" y="462.08"/><ellipse cx="426.72" cy="478.08" fill="#ADD1B2" rx="11" ry="11" style="stroke:#181818;stroke-width:1;"/><path d="M429.1931,484.2231 Q428.6121,484.5219 427.9729,484.6713 Q427.3338,484.8207 426.6282,484.8207 Q424.1214,484.8207 422.8015,483.1689 Q421.4817,481.517 421.4817,478.3959 Q421.4817,475.2665 422.8015,473.6147 Q424.1214,471.9628 426.6282,471.9628 Q427.3338,471.9628 427.9812,472.1122 Q428.6287,472.2616 429.1931,472.5605 L429.1931,475.2831 Q428.5623,474.7021 427.9688,474.4323 Q427.3753,474.1625 426.7444,474.1625 Q425.3997,474.1625 424.7149,475.2292 Q424.0301,476.2958 424.0301,478.3959 Q424.0301,480.4877 424.7149,481.5544 Q425.3997,482.621 426.7444,482.621 Q427.3753,482.621 427.9688,482.3512 Q428.5623,482.0815 429.1931,481.5004 Z " fill="#000000"/><text fill="#000000" font-family="sans-serif" font-size="14" lengthAdjust="spacing" textLength="150.6777" x="440.72" y="483.371">ReferanseDokumentfil</text><line style="stroke:#181818;stroke-width:0.5;" x1="412.72" x2="593.3977" y1="494.08" y2="494.08"/><ellipse cx="422.72" cy="507.8241" fill="none" rx="3" ry="3" style="stroke:#038048;stroke-width:1;"/><text fill="#000000" font-family="sans-serif" font-size="14" lengthAdjust="spacing" textLength="61.2842" x="431.72" y="511.6152">id: string</text><ellipse cx="422.72" cy="524.3124" fill="none" rx="3" ry="3" style="stroke:#038048;stroke-width:1;"/><text fill="#000000" font-family="sans-serif" font-size="14" lengthAdjust="spacing" textLength="66.8896" x="431.72" y="528.1034">url: string</text><line style="stroke:#181818;stroke-width:0.5;" x1="412.72" x2="593.3977" y1="535.0566" y2="535.0566"/></g><!--class NasjonalArealplanId--><g class="entity" data-entity="NasjonalArealplanId" data-source-line="1" data-uid="ent0008" id="entity_NasjonalArealplanId"><rect fill="#F1F1F1" height="80.9766" rx="2.5" ry="2.5" style="stroke:#181818;stroke-width:0.5;" width="290.3047" x="634.9" y="279.88"/><ellipse cx="707.9898" cy="295.88" fill="#ADD1B2" rx="11" ry="11" style="stroke:#181818;stroke-width:1;"/><path d="M710.463,302.0231 Q709.8819,302.3219 709.2428,302.4713 Q708.6036,302.6207 707.898,302.6207 Q705.3912,302.6207 704.0714,300.9689 Q702.7516,299.317 702.7516,296.1959 Q702.7516,293.0665 704.0714,291.4147 Q705.3912,289.7628 707.898,289.7628 Q708.6036,289.7628 709.2511,289.9122 Q709.8985,290.0616 710.463,290.3605 L710.463,293.0831 Q709.8321,292.5021 709.2386,292.2323 Q708.6451,291.9625 708.0143,291.9625 Q706.6695,291.9625 705.9847,293.0292 Q705.2999,294.0958 705.2999,296.1959 Q705.2999,298.2877 705.9847,299.3544 Q706.6695,300.421 708.0143,300.421 Q708.6451,300.421 709.2386,300.1512 Q709.8321,299.8815 710.463,299.3004 Z " fill="#000000"/><text fill="#000000" font-family="sans-serif" font-size="14" lengthAdjust="spacing" textLength="135.625" x="728.4898" y="301.171">NasjonalArealplanId</text><line style="stroke:#181818;stroke-width:0.5;" x1="635.9" x2="924.2047" y1="311.88" y2="311.88"/><ellipse cx="645.9" cy="325.6241" fill="none" rx="3" ry="3" style="stroke:#038048;stroke-width:1;"/><text fill="#000000" font-family="sans-serif" font-size="14" lengthAdjust="spacing" textLength="264.3047" x="654.9" y="329.4152">administrativEnhet: AdministrativEnhet</text><ellipse cx="645.9" cy="342.1124" fill="none" rx="3" ry="3" style="stroke:#038048;stroke-width:1;"/><text fill="#000000" font-family="sans-serif" font-size="14" lengthAdjust="spacing" textLength="170.126" x="654.9" y="345.9034">planidentifikasjon: string</text><line style="stroke:#181818;stroke-width:0.5;" x1="635.9" x2="924.2047" y1="352.8566" y2="352.8566"/></g><!--class AdministrativEnhet--><g class="entity" data-entity="AdministrativEnhet" data-source-line="6" data-uid="ent0009" id="entity_AdministrativEnhet"><rect fill="#F1F1F1" height="97.4648" rx="2.5" ry="2.5" style="stroke:#181818;stroke-width:0.5;" width="160.6865" x="699.71" y="453.84"/><ellipse cx="714.71" cy="469.84" fill="#EB937F" rx="11" ry="11" style="stroke:#181818;stroke-width:1;"/><path d="M718.3243,476.34 L710.6045,476.34 L710.6045,463.9469 L718.3243,463.9469 L718.3243,466.1051 L713.0533,466.1051 L713.0533,468.778 L717.8262,468.778 L717.8262,470.9362 L713.0533,470.9362 L713.0533,474.1818 L718.3243,474.1818 Z " fill="#000000"/><text fill="#000000" font-family="sans-serif" font-size="14" lengthAdjust="spacing" textLength="128.6865" x="728.71" y="475.131">AdministrativEnhet</text><line style="stroke:#181818;stroke-width:0.5;" x1="700.71" x2="859.3965" y1="485.84" y2="485.84"/><text fill="#000000" font-family="sans-serif" font-size="14" lengthAdjust="spacing" textLength="125.1455" x="705.71" y="503.3752">kommunenummer</text><text fill="#000000" font-family="sans-serif" font-size="14" lengthAdjust="spacing" textLength="96.6738" x="705.71" y="519.8634">fylkesnummer</text><text fill="#000000" font-family="sans-serif" font-size="14" lengthAdjust="spacing" textLength="69.8086" x="705.71" y="536.3517">landskode</text><line style="stroke:#181818;stroke-width:0.5;" x1="700.71" x2="859.3965" y1="543.3048" y2="543.3048"/></g><!--class OppdaterArealplan--><g class="entity" data-entity="OppdaterArealplan" data-source-line="5" data-uid="ent0011" id="entity_OppdaterArealplan"><rect fill="#F1F1F1" height="179.9063" rx="2.5" ry="2.5" style="stroke:#181818;stroke-width:0.5;" width="304.4551" x="899.83" y="7"/><ellipse cx="983.7821" cy="23" fill="#ADD1B2" rx="11" ry="11" style="stroke:#181818;stroke-width:1;"/><path d="M986.2553,29.1431 Q985.6742,29.4419 985.0351,29.5913 Q984.3959,29.7407 983.6904,29.7407 Q981.1835,29.7407 979.8637,28.0889 Q978.5439,26.437 978.5439,23.3159 Q978.5439,20.1865 979.8637,18.5347 Q981.1835,16.8828 983.6904,16.8828 Q984.3959,16.8828 985.0434,17.0322 Q985.6908,17.1816 986.2553,17.4805 L986.2553,20.2031 Q985.6244,19.6221 985.0309,19.3523 Q984.4374,19.0825 983.8066,19.0825 Q982.4618,19.0825 981.777,20.1492 Q981.0922,21.2158 981.0922,23.3159 Q981.0922,25.4077 981.777,26.4744 Q982.4618,27.541 983.8066,27.541 Q984.4374,27.541 985.0309,27.2712 Q985.6244,27.0015 986.2553,26.4204 Z " fill="#000000"/><text fill="#000000" font-family="sans-serif" font-size="14" lengthAdjust="spacing" textLength="128.0508" x="1004.2821" y="28.291">OppdaterArealplan</text><line style="stroke:#181818;stroke-width:0.5;" x1="900.83" x2="1203.2851" y1="39" y2="39"/><ellipse cx="910.83" cy="52.7441" fill="none" rx="3" ry="3" style="stroke:#038048;stroke-width:1;"/><text fill="#000000" font-family="sans-serif" font-size="14" lengthAdjust="spacing" textLength="278.4551" x="919.83" y="56.5352">nasjonalArealplanId: NasjonalArealplanId</text><ellipse cx="910.83" cy="69.2324" fill="none" rx="3" ry="3" style="stroke:#038048;stroke-width:1;"/><text fill="#000000" font-family="sans-serif" font-size="14" lengthAdjust="spacing" textLength="110.0586" x="919.83" y="73.0234">plannavn: string</text><ellipse cx="910.83" cy="85.7207" fill="none" rx="3" ry="3" style="stroke:#038048;stroke-width:1;"/><text fill="#000000" font-family="sans-serif" font-size="14" lengthAdjust="spacing" textLength="124.667" x="919.83" y="89.5117">plantype: Plantype</text><ellipse cx="910.83" cy="102.209" fill="none" rx="3" ry="3" style="stroke:#038048;stroke-width:1;"/><text fill="#000000" font-family="sans-serif" font-size="14" lengthAdjust="spacing" textLength="148.6748" x="919.83" y="106">planstatus: Planstatus</text><ellipse cx="910.83" cy="118.6973" fill="none" rx="3" ry="3" style="stroke:#038048;stroke-width:1;"/><text fill="#000000" font-family="sans-serif" font-size="14" lengthAdjust="spacing" textLength="179.1836" x="919.83" y="122.4883">lovreferanse: Lovreferanse</text><ellipse cx="910.83" cy="135.1855" fill="none" rx="3" ry="3" style="stroke:#038048;stroke-width:1;"/><text fill="#000000" font-family="sans-serif" font-size="14" lengthAdjust="spacing" textLength="183.7295" x="919.83" y="138.9766">saksnummer: Saksnummer</text><ellipse cx="910.83" cy="151.6738" fill="none" rx="3" ry="3" style="stroke:#038048;stroke-width:1;"/><text fill="#000000" font-family="sans-serif" font-size="14" lengthAdjust="spacing" textLength="243.4824" x="919.83" y="155.4648">forslagstillertype: ForslagstillerType</text><ellipse cx="910.83" cy="168.1621" fill="none" rx="3" ry="3" style="stroke:#038048;stroke-width:1;"/><text fill="#000000" font-family="sans-serif" font-size="14" lengthAdjust="spacing" textLength="141.8799" x="919.83" y="171.9531">vedlegg: Dokument[]</text><line style="stroke:#181818;stroke-width:0.5;" x1="900.83" x2="1203.2851" y1="178.9063" y2="178.9063"/></g><!--class Plantype--><g class="entity" data-entity="Plantype" data-source-line="16" data-uid="ent0012" id="entity_Plantype"><rect fill="#F1F1F1" height="89.5977" rx="2.5" ry="2.5" style="stroke:#181818;stroke-width:0.5;" width="183.5547" x="960.28" y="275.57"/><ellipse cx="1019.1238" cy="295.8805" fill="#ADD1B2" rx="11" ry="11" style="stroke:#181818;stroke-width:1;"/><path d="M1021.5969,302.0236 Q1021.0158,302.3224 1020.3767,302.4719 Q1019.7375,302.6213 1019.032,302.6213 Q1016.5251,302.6213 1015.2053,300.9694 Q1013.8855,299.3176 1013.8855,296.1965 Q1013.8855,293.0671 1015.2053,291.4152 Q1016.5251,289.7634 1019.032,289.7634 Q1019.7375,289.7634 1020.385,289.9128 Q1021.0324,290.0622 1021.5969,290.361 L1021.5969,293.0837 Q1020.966,292.5026 1020.3725,292.2328 Q1019.779,291.9631 1019.1482,291.9631 Q1017.8034,291.9631 1017.1186,293.0297 Q1016.4338,294.0964 1016.4338,296.1965 Q1016.4338,298.2883 1017.1186,299.3549 Q1017.8034,300.4216 1019.1482,300.4216 Q1019.779,300.4216 1020.3725,300.1518 Q1020.966,299.882 1021.5969,299.301 Z " fill="#000000"/><text fill="#000000" font-family="sans-serif" font-size="12" font-style="italic" lengthAdjust="spacing" textLength="42.0176" x="1047.2986" y="292.1716">&#171;Kode&#187;</text><text fill="#000000" font-family="sans-serif" font-size="14" lengthAdjust="spacing" textLength="57.3672" x="1039.6238" y="308.238">Plantype</text><line style="stroke:#181818;stroke-width:0.5;" x1="961.28" x2="1142.8347" y1="316.1911" y2="316.1911"/><ellipse cx="971.28" cy="329.9352" fill="none" rx="3" ry="3" style="stroke:#038048;stroke-width:1;"/><text fill="#000000" font-family="sans-serif" font-size="14" lengthAdjust="spacing" textLength="115.4521" x="980.28" y="333.7262">kodeverdi: string</text><ellipse cx="971.28" cy="346.4235" fill="none" rx="3" ry="3" style="stroke:#038048;stroke-width:1;"/><text fill="#000000" font-family="sans-serif" font-size="14" lengthAdjust="spacing" textLength="157.5547" x="980.28" y="350.2145">kodebeskrivelse: string</text><line style="stroke:#181818;stroke-width:0.5;" x1="961.28" x2="1142.8347" y1="357.1677" y2="357.1677"/></g><!--class Planstatus--><g class="entity" data-entity="Planstatus" data-source-line="21" data-uid="ent0013" id="entity_Planstatus"><rect fill="#F1F1F1" height="89.5977" rx="2.5" ry="2.5" style="stroke:#181818;stroke-width:0.5;" width="183.5547" x="1179.28" y="275.57"/><ellipse cx="1232.1218" cy="295.8805" fill="#ADD1B2" rx="11" ry="11" style="stroke:#181818;stroke-width:1;"/><path d="M1234.5949,302.0236 Q1234.0139,302.3224 1233.3747,302.4719 Q1232.7356,302.6213 1232.03,302.6213 Q1229.5232,302.6213 1228.2033,300.9694 Q1226.8835,299.3176 1226.8835,296.1965 Q1226.8835,293.0671 1228.2033,291.4152 Q1229.5232,289.7634 1232.03,289.7634 Q1232.7356,289.7634 1233.383,289.9128 Q1234.0305,290.0622 1234.5949,290.361 L1234.5949,293.0837 Q1233.9641,292.5026 1233.3706,292.2328 Q1232.7771,291.9631 1232.1462,291.9631 Q1230.8015,291.9631 1230.1167,293.0297 Q1229.4319,294.0964 1229.4319,296.1965 Q1229.4319,298.2883 1230.1167,299.3549 Q1230.8015,300.4216 1232.1462,300.4216 Q1232.7771,300.4216 1233.3706,300.1518 Q1233.9641,299.882 1234.5949,299.301 Z " fill="#000000"/><text fill="#000000" font-family="sans-serif" font-size="12" font-style="italic" lengthAdjust="spacing" textLength="42.0176" x="1266.2986" y="292.1716">&#171;Kode&#187;</text><text fill="#000000" font-family="sans-serif" font-size="14" lengthAdjust="spacing" textLength="69.3711" x="1252.6218" y="308.238">Planstatus</text><line style="stroke:#181818;stroke-width:0.5;" x1="1180.28" x2="1361.8347" y1="316.1911" y2="316.1911"/><ellipse cx="1190.28" cy="329.9352" fill="none" rx="3" ry="3" style="stroke:#038048;stroke-width:1;"/><text fill="#000000" font-family="sans-serif" font-size="14" lengthAdjust="spacing" textLength="115.4521" x="1199.28" y="333.7262">kodeverdi: string</text><ellipse cx="1190.28" cy="346.4235" fill="none" rx="3" ry="3" style="stroke:#038048;stroke-width:1;"/><text fill="#000000" font-family="sans-serif" font-size="14" lengthAdjust="spacing" textLength="157.5547" x="1199.28" y="350.2145">kodebeskrivelse: string</text><line style="stroke:#181818;stroke-width:0.5;" x1="1180.28" x2="1361.8347" y1="357.1677" y2="357.1677"/></g><!--class Lovreferanse--><g class="entity" data-entity="Lovreferanse" data-source-line="26" data-uid="ent0014" id="entity_Lovreferanse"><rect fill="#F1F1F1" height="89.5977" rx="2.5" ry="2.5" style="stroke:#181818;stroke-width:0.5;" width="183.5547" x="1398.28" y="275.57"/><ellipse cx="1442.3876" cy="295.8805" fill="#ADD1B2" rx="11" ry="11" style="stroke:#181818;stroke-width:1;"/><path d="M1444.8608,302.0236 Q1444.2797,302.3224 1443.6405,302.4719 Q1443.0014,302.6213 1442.2958,302.6213 Q1439.789,302.6213 1438.4692,300.9694 Q1437.1493,299.3176 1437.1493,296.1965 Q1437.1493,293.0671 1438.4692,291.4152 Q1439.789,289.7634 1442.2958,289.7634 Q1443.0014,289.7634 1443.6488,289.9128 Q1444.2963,290.0622 1444.8608,290.361 L1444.8608,293.0837 Q1444.2299,292.5026 1443.6364,292.2328 Q1443.0429,291.9631 1442.412,291.9631 Q1441.0673,291.9631 1440.3825,293.0297 Q1439.6977,294.0964 1439.6977,296.1965 Q1439.6977,298.2883 1440.3825,299.3549 Q1441.0673,300.4216 1442.412,300.4216 Q1443.0429,300.4216 1443.6364,300.1518 Q1444.2299,299.882 1444.8608,299.301 Z " fill="#000000"/><text fill="#000000" font-family="sans-serif" font-size="12" font-style="italic" lengthAdjust="spacing" textLength="42.0176" x="1485.2827" y="292.1716">&#171;Kode&#187;</text><text fill="#000000" font-family="sans-serif" font-size="14" lengthAdjust="spacing" textLength="86.8711" x="1462.856" y="308.238">Lovreferanse</text><line style="stroke:#181818;stroke-width:0.5;" x1="1399.28" x2="1580.8347" y1="316.1911" y2="316.1911"/><ellipse cx="1409.28" cy="329.9352" fill="none" rx="3" ry="3" style="stroke:#038048;stroke-width:1;"/><text fill="#000000" font-family="sans-serif" font-size="14" lengthAdjust="spacing" textLength="115.4521" x="1418.28" y="333.7262">kodeverdi: string</text><ellipse cx="1409.28" cy="346.4235" fill="none" rx="3" ry="3" style="stroke:#038048;stroke-width:1;"/><text fill="#000000" font-family="sans-serif" font-size="14" lengthAdjust="spacing" textLength="157.5547" x="1418.28" y="350.2145">kodebeskrivelse: string</text><line style="stroke:#181818;stroke-width:0.5;" x1="1399.28" x2="1580.8347" y1="357.1677" y2="357.1677"/></g><!--class ForslagstillerType--><g class="entity" data-entity="ForslagstillerType" data-source-line="31" data-uid="ent0015" id="entity_ForslagstillerType"><rect fill="#F1F1F1" height="89.5977" rx="2.5" ry="2.5" style="stroke:#181818;stroke-width:0.5;" width="183.5547" x="1617.28" y="275.57"/><ellipse cx="1646.3451" cy="295.8805" fill="#ADD1B2" rx="11" ry="11" style="stroke:#181818;stroke-width:1;"/><path d="M1648.8183,302.0236 Q1648.2372,302.3224 1647.5981,302.4719 Q1646.9589,302.6213 1646.2533,302.6213 Q1643.7465,302.6213 1642.4267,300.9694 Q1641.1069,299.3176 1641.1069,296.1965 Q1641.1069,293.0671 1642.4267,291.4152 Q1643.7465,289.7634 1646.2533,289.7634 Q1646.9589,289.7634 1647.6064,289.9128 Q1648.2538,290.0622 1648.8183,290.361 L1648.8183,293.0837 Q1648.1874,292.5026 1647.5939,292.2328 Q1647.0004,291.9631 1646.3696,291.9631 Q1645.0248,291.9631 1644.34,293.0297 Q1643.6552,294.0964 1643.6552,296.1965 Q1643.6552,298.2883 1644.34,299.3549 Q1645.0248,300.4216 1646.3696,300.4216 Q1647.0004,300.4216 1647.5939,300.1518 Q1648.1874,299.882 1648.8183,299.301 Z " fill="#000000"/><text fill="#000000" font-family="sans-serif" font-size="12" font-style="italic" lengthAdjust="spacing" textLength="42.0176" x="1702.6113" y="292.1716">&#171;Kode&#187;</text><text fill="#000000" font-family="sans-serif" font-size="14" lengthAdjust="spacing" textLength="120.2988" x="1663.4707" y="308.238">ForslagstillerType</text><line style="stroke:#181818;stroke-width:0.5;" x1="1618.28" x2="1799.8347" y1="316.1911" y2="316.1911"/><ellipse cx="1628.28" cy="329.9352" fill="none" rx="3" ry="3" style="stroke:#038048;stroke-width:1;"/><text fill="#000000" font-family="sans-serif" font-size="14" lengthAdjust="spacing" textLength="115.4521" x="1637.28" y="333.7262">kodeverdi: string</text><ellipse cx="1628.28" cy="346.4235" fill="none" rx="3" ry="3" style="stroke:#038048;stroke-width:1;"/><text fill="#000000" font-family="sans-serif" font-size="14" lengthAdjust="spacing" textLength="157.5547" x="1637.28" y="350.2145">kodebeskrivelse: string</text><line style="stroke:#181818;stroke-width:0.5;" x1="1618.28" x2="1799.8347" y1="357.1677" y2="357.1677"/></g><!--link Dokument to Dokumenttype--><g class="link" data-entity-1="Dokument" data-entity-2="Dokumenttype" data-source-line="10" data-uid="lnk5" id="link_Dokument_Dokumenttype"><path codeLine="10" d="M373.29,394.14 C355.72,415.54 337.03,438.28 321.41,457.31" fill="none" id="Dokument-Dokumenttype" style="stroke:#181818;stroke-width:1;"/></g><!--link Dokument to ReferanseDokumentfil--><g class="link" data-entity-1="Dokument" data-entity-2="ReferanseDokumentfil" data-source-line="11" data-uid="lnk7" id="link_Dokument_ReferanseDokumentfil"><path codeLine="11" d="M461.33,394.14 C470.28,417.2 479.85,441.82 487.56,461.67" fill="none" id="Dokument-ReferanseDokumentfil" style="stroke:#181818;stroke-width:1;"/></g><!--link NasjonalArealplanId to AdministrativEnhet--><g class="link" data-entity-1="NasjonalArealplanId" data-entity-2="AdministrativEnhet" data-source-line="6" data-uid="lnk10" id="link_NasjonalArealplanId_AdministrativEnhet"><path codeLine="6" d="M780.06,360.92 C780.06,388.16 780.06,424.53 780.06,453.46" fill="none" id="NasjonalArealplanId-AdministrativEnhet" style="stroke:#181818;stroke-width:1;"/></g><!--link OppdaterArealplan to NasjonalArealplanId--><g class="link" data-entity-1="OppdaterArealplan" data-entity-2="NasjonalArealplanId" data-source-line="36" data-uid="lnk16" id="link_OppdaterArealplan_NasjonalArealplanId"><path codeLine="36" d="M942.21,187.37 C902.84,219.42 860.44,253.94 828.87,279.64" fill="none" id="OppdaterArealplan-NasjonalArealplanId" style="stroke:#181818;stroke-width:1;"/></g><!--link OppdaterArealplan to Plantype--><g class="link" data-entity-1="OppdaterArealplan" data-entity-2="Plantype" data-source-line="37" data-uid="lnk17" id="link_OppdaterArealplan_Plantype"><path codeLine="37" d="M1052.06,187.37 C1052.06,217.62 1052.06,250.07 1052.06,275.22" fill="none" id="OppdaterArealplan-Plantype" style="stroke:#181818;stroke-width:1;"/></g><!--link OppdaterArealplan to Planstatus--><g class="link" data-entity-1="OppdaterArealplan" data-entity-2="Planstatus" data-source-line="38" data-uid="lnk18" id="link_OppdaterArealplan_Planstatus"><path codeLine="38" d="M1140.5,187.37 C1170.42,217.62 1202.51,250.07 1227.39,275.22" fill="none" id="OppdaterArealplan-Planstatus" style="stroke:#181818;stroke-width:1;"/></g><!--link OppdaterArealplan to Lovreferanse--><g class="link" data-entity-1="OppdaterArealplan" data-entity-2="Lovreferanse" data-source-line="39" data-uid="lnk19" id="link_OppdaterArealplan_Lovreferanse"><path codeLine="39" d="M1204.71,161.34 C1260.79,186.17 1324.21,216.08 1380.06,246.91 C1395.47,255.42 1411.57,265.36 1426.54,275.11" fill="none" id="OppdaterArealplan-Lovreferanse" style="stroke:#181818;stroke-width:1;"/></g><!--link OppdaterArealplan to ForslagstillerType--><g class="link" data-entity-1="OppdaterArealplan" data-entity-2="ForslagstillerType" data-source-line="40" data-uid="lnk20" id="link_OppdaterArealplan_ForslagstillerType"><path codeLine="40" d="M1204.5,125.91 C1316.77,149.71 1471.46,189.28 1599.06,246.91 C1616.15,254.62 1633.57,264.83 1649.37,275.14" fill="none" id="OppdaterArealplan-ForslagstillerType" style="stroke:#181818;stroke-width:1;"/></g><!--link OppdaterArealplan to Saksnummer--><g class="link" data-entity-1="OppdaterArealplan" data-entity-2="Saksnummer" data-source-line="41" data-uid="lnk21" id="link_OppdaterArealplan_Saksnummer"><path codeLine="41" d="M899.48,111.37 C735.02,129.22 467.48,168.17 249.06,246.91 C225.84,255.27 201.86,267.48 180.91,279.5" fill="none" id="OppdaterArealplan-Saksnummer" style="stroke:#181818;stroke-width:1;"/></g><!--link OppdaterArealplan to Dokument--><g class="link" data-entity-1="OppdaterArealplan" data-entity-2="Dokument" data-source-line="42" data-uid="lnk22" id="link_OppdaterArealplan_Dokument"><path codeLine="42" d="M899.47,148.32 C815.76,176.42 710.33,212.59 617.06,246.91 C611.42,248.98 605.69,251.11 599.91,253.28" fill="none" id="OppdaterArealplan-Dokument" style="stroke:#181818;stroke-width:1;"/></g><!--SRC=[hL9DIyGm4BttLsJFowRWiImBWWYYk8BUn4FSJ4ksQL8oQK34_svAcdxG22hRGvcyD_CoURoDK2VPSI0qfpHNcjP8I-5_hMIAkYjQWfI055cDgciQCFbKqhRBDhyKuBhk6b0sZyLVXXN3irPCCWDCzfpWUGBh9REJP8ZasBQSMJ3NaIMV6V7VDewDn1qloECQ3DrzhPXJ1K5hXAecr7wqK92dePfmjCns69XG1qvgPw04ur4_zp0x1NvojI3FOnsuKXkKh48hl1ict7oxm5x67Hnm2LLLa9l1vzUtx2kw4jSb-_szvd0uH5TgVt9Wk5W-j8VV0MiZ7CX-xu5S28PNNanoRit5HDTkZTB_Lbv7RBTB9YdPE2RdHtP8Jv9Vv2VPaSX7ic-MjIGVOvHz0m00]--></g></svg>