<svg xmlns="http://www.w3.org/2000/svg" xmlns:xlink="http://www.w3.org/1999/xlink" contentStyleType="text/css" height="558px" preserveAspectRatio="none" style="width:1812px;height:558px;background:#FFFFFF;" version="1.1" viewBox="0 0 1812 558" width="1812px" zoomAndPan="magnify"><defs/><g><!--class Saksnummer--><g id="elem_Saksnummer"><rect codeLine="2" fill="#F1F1F1" height="80.9766" id="Saksnummer" rx="2.5" ry="2.5" style="stroke:#181818;stroke-width:0.5;" width="225" x="7" y="279.88"/><ellipse cx="70.75" cy="295.88" fill="#ADD1B2" rx="11" ry="11" style="stroke:#181818;stroke-width:1.0;"/><path d="M73.2231,302.0231 Q72.6421,302.3219 72.0029,302.4713 Q71.3638,302.6207 70.6582,302.6207 Q68.1514,302.6207 66.8315,300.9689 Q65.5117,299.317 65.5117,296.1959 Q65.5117,293.0665 66.8315,291.4147 Q68.1514,289.7628 70.6582,289.7628 Q71.3638,289.7628 72.0112,289.9122 Q72.6587,290.0616 73.2231,290.3605 L73.2231,293.0831 Q72.5923,292.5021 71.9988,292.2323 Q71.4053,291.9625 70.7744,291.9625 Q69.4297,291.9625 68.7449,293.0292 Q68.0601,294.0958 68.0601,296.1959 Q68.0601,298.2877 68.7449,299.3544 Q69.4297,300.421 70.7744,300.421 Q71.4053,300.421 71.9988,300.1512 Q72.5923,299.8815 73.2231,299.3004 Z " fill="#000000"/><text fill="#000000" font-family="sans-serif" font-size="14" lengthAdjust="spacing" textLength="89" x="91.25" y="301.171">Saksnummer</text><line style="stroke:#181818;stroke-width:0.5;" x1="8" x2="231" y1="311.88" y2="311.88"/><ellipse cx="18" cy="325.6241" fill="none" rx="3" ry="3" style="stroke:#038048;stroke-width:1.0;"/><text fill="#000000" font-family="sans-serif" font-size="14" lengthAdjust="spacing" textLength="109" x="27" y="329.4152">saksaar: integer</text><ellipse cx="18" cy="342.1124" fill="none" rx="3" ry="3" style="stroke:#038048;stroke-width:1.0;"/><text fill="#000000" font-family="sans-serif" font-size="14" lengthAdjust="spacing" textLength="199" x="27" y="345.9034">sakssekvensnummer: integer</text><line style="stroke:#181818;stroke-width:0.5;" x1="8" x2="231" y1="352.8566" y2="352.8566"/></g><!--class Dokument--><g id="elem_Dokument"><rect codeLine="1" fill="#F1F1F1" height="146.9297" id="Dokument" rx="2.5" ry="2.5" style="stroke:#181818;stroke-width:0.5;" width="335" x="267" y="246.91"/><ellipse cx="394.75" cy="262.91" fill="#ADD1B2" rx="11" ry="11" style="stroke:#181818;stroke-width:1.0;"/><path d="M397.2231,269.0531 Q396.6421,269.3519 396.0029,269.5013 Q395.3638,269.6507 394.6582,269.6507 Q392.1514,269.6507 390.8315,267.9989 Q389.5117,266.347 389.5117,263.2259 Q389.5117,260.0965 390.8315,258.4447 Q392.1514,256.7928 394.6582,256.7928 Q395.3638,256.7928 396.0112,256.9422 Q396.6587,257.0916 397.2231,257.3905 L397.2231,260.1131 Q396.5923,259.5321 395.9988,259.2623 Q395.4053,258.9925 394.7744,258.9925 Q393.4297,258.9925 392.7449,260.0592 Q392.0601,261.1258 392.0601,263.2259 Q392.0601,265.3177 392.7449,266.3844 Q393.4297,267.451 394.7744,267.451 Q395.4053,267.451 395.9988,267.1812 Q396.5923,266.9115 397.2231,266.3304 Z " fill="#000000"/><text fill="#000000" font-family="sans-serif" font-size="14" lengthAdjust="spacing" textLength="71" x="415.25" y="268.201">Dokument</text><line style="stroke:#181818;stroke-width:0.5;" x1="268" x2="601" y1="278.91" y2="278.91"/><ellipse cx="278" cy="292.6541" fill="none" rx="3" ry="3" style="stroke:#038048;stroke-width:1.0;"/><text fill="#000000" font-family="sans-serif" font-size="14" lengthAdjust="spacing" textLength="79" x="287" y="296.4452">tittel: string</text><ellipse cx="278" cy="309.1424" fill="none" rx="3" ry="3" style="stroke:#038048;stroke-width:1.0;"/><text fill="#000000" font-family="sans-serif" font-size="14" lengthAdjust="spacing" textLength="207" x="287" y="312.9334">dokumenttype: Dokumenttype</text><ellipse cx="278" cy="325.6307" fill="none" rx="3" ry="3" style="stroke:#038048;stroke-width:1.0;"/><text fill="#000000" font-family="sans-serif" font-size="14" lengthAdjust="spacing" textLength="309" x="287" y="329.4217">referanseDokumentfil: ReferanseDokumentfil</text><ellipse cx="278" cy="342.119" fill="none" rx="3" ry="3" style="stroke:#038048;stroke-width:1.0;"/><text fill="#000000" font-family="sans-serif" font-size="14" lengthAdjust="spacing" textLength="115" x="287" y="345.91">mimetype: string</text><ellipse cx="278" cy="358.6073" fill="none" rx="3" ry="3" style="stroke:#038048;stroke-width:1.0;"/><text fill="#000000" font-family="sans-serif" font-size="14" lengthAdjust="spacing" textLength="146" x="287" y="362.3983">dokumentsdato: date</text><ellipse cx="278" cy="375.0955" fill="none" rx="3" ry="3" style="stroke:#038048;stroke-width:1.0;"/><text fill="#000000" font-family="sans-serif" font-size="14" lengthAdjust="spacing" textLength="114" x="287" y="378.8866">arkivnavn: string</text><line style="stroke:#181818;stroke-width:0.5;" x1="268" x2="601" y1="385.8397" y2="385.8397"/></g><!--class Dokumenttype--><g id="elem_Dokumenttype"><rect codeLine="13" fill="#F1F1F1" height="89.5977" id="Dokumenttype" rx="2.5" ry="2.5" style="stroke:#181818;stroke-width:0.5;" width="184" x="193.5" y="457.77"/><ellipse cx="231.9" cy="478.0805" fill="#ADD1B2" rx="11" ry="11" style="stroke:#181818;stroke-width:1.0;"/><path d="M234.3731,484.2236 Q233.7921,484.5224 233.1529,484.6719 Q232.5138,484.8213 231.8082,484.8213 Q229.3014,484.8213 227.9815,483.1694 Q226.6617,481.5176 226.6617,478.3965 Q226.6617,475.2671 227.9815,473.6152 Q229.3014,471.9634 231.8082,471.9634 Q232.5138,471.9634 233.1612,472.1128 Q233.8087,472.2622 234.3731,472.561 L234.3731,475.2837 Q233.7423,474.7026 233.1488,474.4328 Q232.5553,474.1631 231.9244,474.1631 Q230.5797,474.1631 229.8949,475.2297 Q229.2101,476.2964 229.2101,478.3965 Q229.2101,480.4883 229.8949,481.5549 Q230.5797,482.6216 231.9244,482.6216 Q232.5553,482.6216 233.1488,482.3518 Q233.7423,482.082 234.3731,481.501 Z " fill="#000000"/><text fill="#000000" font-family="sans-serif" font-size="12" font-style="italic" lengthAdjust="spacing" textLength="42" x="280.1" y="474.3716">&#171;Kode&#187;</text><text fill="#000000" font-family="sans-serif" font-size="14" lengthAdjust="spacing" textLength="100" x="251.1" y="490.438">Dokumenttype</text><line style="stroke:#181818;stroke-width:0.5;" x1="194.5" x2="376.5" y1="498.3911" y2="498.3911"/><ellipse cx="204.5" cy="512.1352" fill="none" rx="3" ry="3" style="stroke:#038048;stroke-width:1.0;"/><text fill="#000000" font-family="sans-serif" font-size="14" lengthAdjust="spacing" textLength="116" x="213.5" y="515.9263">kodeverdi: string</text><ellipse cx="204.5" cy="528.6235" fill="none" rx="3" ry="3" style="stroke:#038048;stroke-width:1.0;"/><text fill="#000000" font-family="sans-serif" font-size="14" lengthAdjust="spacing" textLength="158" x="213.5" y="532.4145">kodebeskrivelse: string</text><line style="stroke:#181818;stroke-width:0.5;" x1="194.5" x2="376.5" y1="539.3677" y2="539.3677"/></g><!--class ReferanseDokumentfil--><g id="elem_ReferanseDokumentfil"><rect codeLine="18" fill="#F1F1F1" height="80.9766" id="ReferanseDokumentfil" rx="2.5" ry="2.5" style="stroke:#181818;stroke-width:0.5;" width="184" x="412.5" y="462.08"/><ellipse cx="427.5" cy="478.08" fill="#ADD1B2" rx="11" ry="11" style="stroke:#181818;stroke-width:1.0;"/><path d="M429.9731,484.2231 Q429.3921,484.5219 428.7529,484.6713 Q428.1138,484.8207 427.4082,484.8207 Q424.9014,484.8207 423.5815,483.1689 Q422.2617,481.517 422.2617,478.3959 Q422.2617,475.2665 423.5815,473.6147 Q424.9014,471.9628 427.4082,471.9628 Q428.1138,471.9628 428.7612,472.1122 Q429.4087,472.2616 429.9731,472.5605 L429.9731,475.2831 Q429.3423,474.7021 428.7488,474.4323 Q428.1553,474.1625 427.5244,474.1625 Q426.1797,474.1625 425.4949,475.2292 Q424.8101,476.2958 424.8101,478.3959 Q424.8101,480.4877 425.4949,481.5544 Q426.1797,482.621 427.5244,482.621 Q428.1553,482.621 428.7488,482.3512 Q429.3423,482.0815 429.9731,481.5004 Z " fill="#000000"/><text fill="#000000" font-family="sans-serif" font-size="14" lengthAdjust="spacing" textLength="152" x="441.5" y="483.371">ReferanseDokumentfil</text><line style="stroke:#181818;stroke-width:0.5;" x1="413.5" x2="595.5" y1="494.08" y2="494.08"/><ellipse cx="423.5" cy="507.8241" fill="none" rx="3" ry="3" style="stroke:#038048;stroke-width:1.0;"/><text fill="#000000" font-family="sans-serif" font-size="14" lengthAdjust="spacing" textLength="61" x="432.5" y="511.6152">id: string</text><ellipse cx="423.5" cy="524.3124" fill="none" rx="3" ry="3" style="stroke:#038048;stroke-width:1.0;"/><text fill="#000000" font-family="sans-serif" font-size="14" lengthAdjust="spacing" textLength="67" x="432.5" y="528.1034">url: string</text><line style="stroke:#181818;stroke-width:0.5;" x1="413.5" x2="595.5" y1="535.0566" y2="535.0566"/></g><!--class NasjonalArealplanId--><g id="elem_NasjonalArealplanId"><rect codeLine="1" fill="#F1F1F1" height="80.9766" id="NasjonalArealplanId" rx="2.5" ry="2.5" style="stroke:#181818;stroke-width:0.5;" width="292" x="637.5" y="279.88"/><ellipse cx="710.25" cy="295.88" fill="#ADD1B2" rx="11" ry="11" style="stroke:#181818;stroke-width:1.0;"/><path d="M712.7231,302.0231 Q712.1421,302.3219 711.5029,302.4713 Q710.8638,302.6207 710.1582,302.6207 Q707.6514,302.6207 706.3315,300.9689 Q705.0117,299.317 705.0117,296.1959 Q705.0117,293.0665 706.3315,291.4147 Q707.6514,289.7628 710.1582,289.7628 Q710.8638,289.7628 711.5112,289.9122 Q712.1587,290.0616 712.7231,290.3605 L712.7231,293.0831 Q712.0923,292.5021 711.4988,292.2323 Q710.9053,291.9625 710.2744,291.9625 Q708.9297,291.9625 708.2449,293.0292 Q707.5601,294.0958 707.5601,296.1959 Q707.5601,298.2877 708.2449,299.3544 Q708.9297,300.421 710.2744,300.421 Q710.9053,300.421 711.4988,300.1512 Q712.0923,299.8815 712.7231,299.3004 Z " fill="#000000"/><text fill="#000000" font-family="sans-serif" font-size="14" lengthAdjust="spacing" textLength="138" x="730.75" y="301.171">NasjonalArealplanId</text><line style="stroke:#181818;stroke-width:0.5;" x1="638.5" x2="928.5" y1="311.88" y2="311.88"/><ellipse cx="648.5" cy="325.6241" fill="none" rx="3" ry="3" style="stroke:#038048;stroke-width:1.0;"/><text fill="#000000" font-family="sans-serif" font-size="14" lengthAdjust="spacing" textLength="266" x="657.5" y="329.4152">administrativEnhet: AdministrativEnhet</text><ellipse cx="648.5" cy="342.1124" fill="none" rx="3" ry="3" style="stroke:#038048;stroke-width:1.0;"/><text fill="#000000" font-family="sans-serif" font-size="14" lengthAdjust="spacing" textLength="171" x="657.5" y="345.9034">planidentifikasjon: string</text><line style="stroke:#181818;stroke-width:0.5;" x1="638.5" x2="928.5" y1="352.8566" y2="352.8566"/></g><!--class AdministrativEnhet--><g id="elem_AdministrativEnhet"><rect codeLine="8" fill="#F1F1F1" height="97.4648" id="AdministrativEnhet" rx="2.5" ry="2.5" style="stroke:#181818;stroke-width:0.5;" width="162" x="702.5" y="453.84"/><ellipse cx="717.5" cy="469.84" fill="#EB937F" rx="11" ry="11" style="stroke:#181818;stroke-width:1.0;"/><path d="M721.1143,476.34 L713.3945,476.34 L713.3945,463.9469 L721.1143,463.9469 L721.1143,466.1051 L715.8433,466.1051 L715.8433,468.778 L720.6162,468.778 L720.6162,470.9362 L715.8433,470.9362 L715.8433,474.1818 L721.1143,474.1818 Z " fill="#000000"/><text fill="#000000" font-family="sans-serif" font-size="14" lengthAdjust="spacing" textLength="130" x="731.5" y="475.131">AdministrativEnhet</text><line style="stroke:#181818;stroke-width:0.5;" x1="703.5" x2="863.5" y1="485.84" y2="485.84"/><text fill="#000000" font-family="sans-serif" font-size="14" lengthAdjust="spacing" textLength="127" x="708.5" y="503.3752">kommunenummer</text><text fill="#000000" font-family="sans-serif" font-size="14" lengthAdjust="spacing" textLength="97" x="708.5" y="519.8634">fylkesnummer</text><text fill="#000000" font-family="sans-serif" font-size="14" lengthAdjust="spacing" textLength="71" x="708.5" y="536.3517">landskode</text><line style="stroke:#181818;stroke-width:0.5;" x1="703.5" x2="863.5" y1="543.3048" y2="543.3048"/></g><!--class OppdaterArealplan--><g id="elem_OppdaterArealplan"><rect codeLine="5" fill="#F1F1F1" height="179.9063" id="OppdaterArealplan" rx="2.5" ry="2.5" style="stroke:#181818;stroke-width:0.5;" width="309" x="902" y="7"/><ellipse cx="986.75" cy="23" fill="#ADD1B2" rx="11" ry="11" style="stroke:#181818;stroke-width:1.0;"/><path d="M989.2231,29.1431 Q988.6421,29.4419 988.0029,29.5913 Q987.3638,29.7407 986.6582,29.7407 Q984.1514,29.7407 982.8315,28.0889 Q981.5117,26.437 981.5117,23.3159 Q981.5117,20.1865 982.8315,18.5347 Q984.1514,16.8828 986.6582,16.8828 Q987.3638,16.8828 988.0112,17.0322 Q988.6587,17.1816 989.2231,17.4805 L989.2231,20.2031 Q988.5923,19.6221 987.9988,19.3523 Q987.4053,19.0825 986.7744,19.0825 Q985.4297,19.0825 984.7449,20.1492 Q984.0601,21.2158 984.0601,23.3159 Q984.0601,25.4077 984.7449,26.4744 Q985.4297,27.541 986.7744,27.541 Q987.4053,27.541 987.9988,27.2712 Q988.5923,27.0015 989.2231,26.4204 Z " fill="#000000"/><text fill="#000000" font-family="sans-serif" font-size="14" lengthAdjust="spacing" textLength="131" x="1007.25" y="28.291">OppdaterArealplan</text><line style="stroke:#181818;stroke-width:0.5;" x1="903" x2="1210" y1="39" y2="39"/><ellipse cx="913" cy="52.7441" fill="none" rx="3" ry="3" style="stroke:#038048;stroke-width:1.0;"/><text fill="#000000" font-family="sans-serif" font-size="14" lengthAdjust="spacing" textLength="283" x="922" y="56.5352">nasjonalArealplanId: NasjonalArealplanId</text><ellipse cx="913" cy="69.2324" fill="none" rx="3" ry="3" style="stroke:#038048;stroke-width:1.0;"/><text fill="#000000" font-family="sans-serif" font-size="14" lengthAdjust="spacing" textLength="111" x="922" y="73.0234">plannavn: string</text><ellipse cx="913" cy="85.7207" fill="none" rx="3" ry="3" style="stroke:#038048;stroke-width:1.0;"/><text fill="#000000" font-family="sans-serif" font-size="14" lengthAdjust="spacing" textLength="125" x="922" y="89.5117">plantype: Plantype</text><ellipse cx="913" cy="102.209" fill="none" rx="3" ry="3" style="stroke:#038048;stroke-width:1.0;"/><text fill="#000000" font-family="sans-serif" font-size="14" lengthAdjust="spacing" textLength="149" x="922" y="106">planstatus: Planstatus</text><ellipse cx="913" cy="118.6973" fill="none" rx="3" ry="3" style="stroke:#038048;stroke-width:1.0;"/><text fill="#000000" font-family="sans-serif" font-size="14" lengthAdjust="spacing" textLength="181" x="922" y="122.4883">lovreferanse: Lovreferanse</text><ellipse cx="913" cy="135.1855" fill="none" rx="3" ry="3" style="stroke:#038048;stroke-width:1.0;"/><text fill="#000000" font-family="sans-serif" font-size="14" lengthAdjust="spacing" textLength="185" x="922" y="138.9766">saksnummer: Saksnummer</text><ellipse cx="913" cy="151.6738" fill="none" rx="3" ry="3" style="stroke:#038048;stroke-width:1.0;"/><text fill="#000000" font-family="sans-serif" font-size="14" lengthAdjust="spacing" textLength="245" x="922" y="155.4648">forslagstillertype: ForslagstillerType</text><ellipse cx="913" cy="168.1621" fill="none" rx="3" ry="3" style="stroke:#038048;stroke-width:1.0;"/><text fill="#000000" font-family="sans-serif" font-size="14" lengthAdjust="spacing" textLength="143" x="922" y="171.9531">vedlegg: Dokument[]</text><line style="stroke:#181818;stroke-width:0.5;" x1="903" x2="1210" y1="178.9063" y2="178.9063"/></g><!--class Plantype--><g id="elem_Plantype"><rect codeLine="16" fill="#F1F1F1" height="89.5977" id="Plantype" rx="2.5" ry="2.5" style="stroke:#181818;stroke-width:0.5;" width="184" x="964.5" y="275.57"/><ellipse cx="1023.25" cy="295.8805" fill="#ADD1B2" rx="11" ry="11" style="stroke:#181818;stroke-width:1.0;"/><path d="M1025.7231,302.0236 Q1025.1421,302.3224 1024.5029,302.4719 Q1023.8638,302.6213 1023.1582,302.6213 Q1020.6514,302.6213 1019.3315,300.9694 Q1018.0117,299.3176 1018.0117,296.1965 Q1018.0117,293.0671 1019.3315,291.4152 Q1020.6514,289.7634 1023.1582,289.7634 Q1023.8638,289.7634 1024.5112,289.9128 Q1025.1587,290.0622 1025.7231,290.361 L1025.7231,293.0837 Q1025.0923,292.5026 1024.4988,292.2328 Q1023.9053,291.9631 1023.2744,291.9631 Q1021.9297,291.9631 1021.2449,293.0297 Q1020.5601,294.0964 1020.5601,296.1965 Q1020.5601,298.2883 1021.2449,299.3549 Q1021.9297,300.4216 1023.2744,300.4216 Q1023.9053,300.4216 1024.4988,300.1518 Q1025.0923,299.882 1025.7231,299.301 Z " fill="#000000"/><text fill="#000000" font-family="sans-serif" font-size="12" font-style="italic" lengthAdjust="spacing" textLength="42" x="1051.75" y="292.1716">&#171;Kode&#187;</text><text fill="#000000" font-family="sans-serif" font-size="14" lengthAdjust="spacing" textLength="58" x="1043.75" y="308.238">Plantype</text><line style="stroke:#181818;stroke-width:0.5;" x1="965.5" x2="1147.5" y1="316.1911" y2="316.1911"/><ellipse cx="975.5" cy="329.9352" fill="none" rx="3" ry="3" style="stroke:#038048;stroke-width:1.0;"/><text fill="#000000" font-family="sans-serif" font-size="14" lengthAdjust="spacing" textLength="116" x="984.5" y="333.7262">kodeverdi: string</text><ellipse cx="975.5" cy="346.4235" fill="none" rx="3" ry="3" style="stroke:#038048;stroke-width:1.0;"/><text fill="#000000" font-family="sans-serif" font-size="14" lengthAdjust="spacing" textLength="158" x="984.5" y="350.2145">kodebeskrivelse: string</text><line style="stroke:#181818;stroke-width:0.5;" x1="965.5" x2="1147.5" y1="357.1677" y2="357.1677"/></g><!--class Planstatus--><g id="elem_Planstatus"><rect codeLine="21" fill="#F1F1F1" height="89.5977" id="Planstatus" rx="2.5" ry="2.5" style="stroke:#181818;stroke-width:0.5;" width="184" x="1183.5" y="275.57"/><ellipse cx="1236.25" cy="295.8805" fill="#ADD1B2" rx="11" ry="11" style="stroke:#181818;stroke-width:1.0;"/><path d="M1238.7231,302.0236 Q1238.1421,302.3224 1237.5029,302.4719 Q1236.8638,302.6213 1236.1582,302.6213 Q1233.6514,302.6213 1232.3315,300.9694 Q1231.0117,299.3176 1231.0117,296.1965 Q1231.0117,293.0671 1232.3315,291.4152 Q1233.6514,289.7634 1236.1582,289.7634 Q1236.8638,289.7634 1237.5112,289.9128 Q1238.1587,290.0622 1238.7231,290.361 L1238.7231,293.0837 Q1238.0923,292.5026 1237.4988,292.2328 Q1236.9053,291.9631 1236.2744,291.9631 Q1234.9297,291.9631 1234.2449,293.0297 Q1233.5601,294.0964 1233.5601,296.1965 Q1233.5601,298.2883 1234.2449,299.3549 Q1234.9297,300.4216 1236.2744,300.4216 Q1236.9053,300.4216 1237.4988,300.1518 Q1238.0923,299.882 1238.7231,299.301 Z " fill="#000000"/><text fill="#000000" font-family="sans-serif" font-size="12" font-style="italic" lengthAdjust="spacing" textLength="42" x="1270.75" y="292.1716">&#171;Kode&#187;</text><text fill="#000000" font-family="sans-serif" font-size="14" lengthAdjust="spacing" textLength="70" x="1256.75" y="308.238">Planstatus</text><line style="stroke:#181818;stroke-width:0.5;" x1="1184.5" x2="1366.5" y1="316.1911" y2="316.1911"/><ellipse cx="1194.5" cy="329.9352" fill="none" rx="3" ry="3" style="stroke:#038048;stroke-width:1.0;"/><text fill="#000000" font-family="sans-serif" font-size="14" lengthAdjust="spacing" textLength="116" x="1203.5" y="333.7262">kodeverdi: string</text><ellipse cx="1194.5" cy="346.4235" fill="none" rx="3" ry="3" style="stroke:#038048;stroke-width:1.0;"/><text fill="#000000" font-family="sans-serif" font-size="14" lengthAdjust="spacing" textLength="158" x="1203.5" y="350.2145">kodebeskrivelse: string</text><line style="stroke:#181818;stroke-width:0.5;" x1="1184.5" x2="1366.5" y1="357.1677" y2="357.1677"/></g><!--class Lovreferanse--><g id="elem_Lovreferanse"><rect codeLine="26" fill="#F1F1F1" height="89.5977" id="Lovreferanse" rx="2.5" ry="2.5" style="stroke:#181818;stroke-width:0.5;" width="184" x="1402.5" y="275.57"/><ellipse cx="1446.3" cy="295.8805" fill="#ADD1B2" rx="11" ry="11" style="stroke:#181818;stroke-width:1.0;"/><path d="M1448.7731,302.0236 Q1448.1921,302.3224 1447.5529,302.4719 Q1446.9138,302.6213 1446.2082,302.6213 Q1443.7014,302.6213 1442.3815,300.9694 Q1441.0617,299.3176 1441.0617,296.1965 Q1441.0617,293.0671 1442.3815,291.4152 Q1443.7014,289.7634 1446.2082,289.7634 Q1446.9138,289.7634 1447.5612,289.9128 Q1448.2087,290.0622 1448.7731,290.361 L1448.7731,293.0837 Q1448.1423,292.5026 1447.5488,292.2328 Q1446.9553,291.9631 1446.3244,291.9631 Q1444.9797,291.9631 1444.2949,293.0297 Q1443.6101,294.0964 1443.6101,296.1965 Q1443.6101,298.2883 1444.2949,299.3549 Q1444.9797,300.4216 1446.3244,300.4216 Q1446.9553,300.4216 1447.5488,300.1518 Q1448.1423,299.882 1448.7731,299.301 Z " fill="#000000"/><text fill="#000000" font-family="sans-serif" font-size="12" font-style="italic" lengthAdjust="spacing" textLength="42" x="1489.7" y="292.1716">&#171;Kode&#187;</text><text fill="#000000" font-family="sans-serif" font-size="14" lengthAdjust="spacing" textLength="88" x="1466.7" y="308.238">Lovreferanse</text><line style="stroke:#181818;stroke-width:0.5;" x1="1403.5" x2="1585.5" y1="316.1911" y2="316.1911"/><ellipse cx="1413.5" cy="329.9352" fill="none" rx="3" ry="3" style="stroke:#038048;stroke-width:1.0;"/><text fill="#000000" font-family="sans-serif" font-size="14" lengthAdjust="spacing" textLength="116" x="1422.5" y="333.7262">kodeverdi: string</text><ellipse cx="1413.5" cy="346.4235" fill="none" rx="3" ry="3" style="stroke:#038048;stroke-width:1.0;"/><text fill="#000000" font-family="sans-serif" font-size="14" lengthAdjust="spacing" textLength="158" x="1422.5" y="350.2145">kodebeskrivelse: string</text><line style="stroke:#181818;stroke-width:0.5;" x1="1403.5" x2="1585.5" y1="357.1677" y2="357.1677"/></g><!--class ForslagstillerType--><g id="elem_ForslagstillerType"><rect codeLine="31" fill="#F1F1F1" height="89.5977" id="ForslagstillerType" rx="2.5" ry="2.5" style="stroke:#181818;stroke-width:0.5;" width="184" x="1621.5" y="275.57"/><ellipse cx="1650" cy="295.8805" fill="#ADD1B2" rx="11" ry="11" style="stroke:#181818;stroke-width:1.0;"/><path d="M1652.4731,302.0236 Q1651.8921,302.3224 1651.2529,302.4719 Q1650.6138,302.6213 1649.9082,302.6213 Q1647.4014,302.6213 1646.0815,300.9694 Q1644.7617,299.3176 1644.7617,296.1965 Q1644.7617,293.0671 1646.0815,291.4152 Q1647.4014,289.7634 1649.9082,289.7634 Q1650.6138,289.7634 1651.2612,289.9128 Q1651.9087,290.0622 1652.4731,290.361 L1652.4731,293.0837 Q1651.8423,292.5026 1651.2488,292.2328 Q1650.6553,291.9631 1650.0244,291.9631 Q1648.6797,291.9631 1647.9949,293.0297 Q1647.3101,294.0964 1647.3101,296.1965 Q1647.3101,298.2883 1647.9949,299.3549 Q1648.6797,300.4216 1650.0244,300.4216 Q1650.6553,300.4216 1651.2488,300.1518 Q1651.8423,299.882 1652.4731,299.301 Z " fill="#000000"/><text fill="#000000" font-family="sans-serif" font-size="12" font-style="italic" lengthAdjust="spacing" textLength="42" x="1707" y="292.1716">&#171;Kode&#187;</text><text fill="#000000" font-family="sans-serif" font-size="14" lengthAdjust="spacing" textLength="122" x="1667" y="308.238">ForslagstillerType</text><line style="stroke:#181818;stroke-width:0.5;" x1="1622.5" x2="1804.5" y1="316.1911" y2="316.1911"/><ellipse cx="1632.5" cy="329.9352" fill="none" rx="3" ry="3" style="stroke:#038048;stroke-width:1.0;"/><text fill="#000000" font-family="sans-serif" font-size="14" lengthAdjust="spacing" textLength="116" x="1641.5" y="333.7262">kodeverdi: string</text><ellipse cx="1632.5" cy="346.4235" fill="none" rx="3" ry="3" style="stroke:#038048;stroke-width:1.0;"/><text fill="#000000" font-family="sans-serif" font-size="14" lengthAdjust="spacing" textLength="158" x="1641.5" y="350.2145">kodebeskrivelse: string</text><line style="stroke:#181818;stroke-width:0.5;" x1="1622.5" x2="1804.5" y1="357.1677" y2="357.1677"/></g><!--link Dokument to Dokumenttype--><g id="link_Dokument_Dokumenttype"><path codeLine="10" d="M374.33,394.14 C356.64,415.54 337.83,438.28 322.1,457.31 " fill="none" id="Dokument-Dokumenttype" style="stroke:#181818;stroke-width:1.0;"/></g><!--link Dokument to ReferanseDokumentfil--><g id="link_Dokument_ReferanseDokumentfil"><path codeLine="11" d="M462.77,394.14 C471.72,417.2 481.29,441.82 489,461.67 " fill="none" id="Dokument-ReferanseDokumentfil" style="stroke:#181818;stroke-width:1.0;"/></g><!--link NasjonalArealplanId to AdministrativEnhet--><g id="link_NasjonalArealplanId_AdministrativEnhet"><path codeLine="6" d="M783.5,360.92 C783.5,388.16 783.5,424.53 783.5,453.46 " fill="none" id="NasjonalArealplanId-AdministrativEnhet" style="stroke:#181818;stroke-width:1.0;"/></g><!--link OppdaterArealplan to NasjonalArealplanId--><g id="link_OppdaterArealplan_NasjonalArealplanId"><path codeLine="36" d="M946.25,187.37 C906.74,219.42 864.18,253.94 832.49,279.64 " fill="none" id="OppdaterArealplan-NasjonalArealplanId" style="stroke:#181818;stroke-width:1.0;"/></g><!--link OppdaterArealplan to Plantype--><g id="link_OppdaterArealplan_Plantype"><path codeLine="37" d="M1056.5,187.37 C1056.5,217.62 1056.5,250.07 1056.5,275.22 " fill="none" id="OppdaterArealplan-Plantype" style="stroke:#181818;stroke-width:1.0;"/></g><!--link OppdaterArealplan to Planstatus--><g id="link_OppdaterArealplan_Planstatus"><path codeLine="38" d="M1144.94,187.37 C1174.86,217.62 1206.95,250.07 1231.84,275.22 " fill="none" id="OppdaterArealplan-Planstatus" style="stroke:#181818;stroke-width:1.0;"/></g><!--link OppdaterArealplan to Lovreferanse--><g id="link_OppdaterArealplan_Lovreferanse"><path codeLine="39" d="M1211.36,161.89 C1267.21,186.56 1330.11,216.22 1385.5,246.91 C1400.9,255.44 1416.97,265.45 1431.89,275.26 " fill="none" id="OppdaterArealplan-Lovreferanse" style="stroke:#181818;stroke-width:1.0;"/></g><!--link OppdaterArealplan to ForslagstillerType--><g id="link_OppdaterArealplan_ForslagstillerType"><path codeLine="40" d="M1211.37,126.15 C1323.71,149.89 1477.58,189.3 1604.5,246.91 C1621.47,254.61 1638.75,264.81 1654.4,275.12 " fill="none" id="OppdaterArealplan-ForslagstillerType" style="stroke:#181818;stroke-width:1.0;"/></g><!--link OppdaterArealplan to Saksnummer--><g id="link_OppdaterArealplan_Saksnummer"><path codeLine="41" d="M901.64,111.42 C736.24,129.25 468.34,168.13 249.5,246.91 C226.28,255.26 202.3,267.47 181.35,279.49 " fill="none" id="OppdaterArealplan-Saksnummer" style="stroke:#181818;stroke-width:1.0;"/></g><!--link OppdaterArealplan to Dokument--><g id="link_OppdaterArealplan_Dokument"><path codeLine="42" d="M901.7,148.84 C817.85,176.87 712.65,212.81 619.5,246.91 C613.83,248.98 608.07,251.11 602.26,253.28 " fill="none" id="OppdaterArealplan-Dokument" style="stroke:#181818;stroke-width:1.0;"/></g><!--SRC=[hL9DIyGm4BttLsJFowRWiImBWWYYk8BUn4FSJ4ksQL8oQK34_svAcdxG22hRGvcyD_CoURoDK2VPSI0qfpHNcjP8I-5_hMIAkYjQWfI055cDgciQCFbKqhRBDhyKuBhk6b0sZyLVXXN3irPCCWDCzfpWUGBh9REJP8ZasBQSMJ3NaIMV6V7VDewDn1qloECQ3DrzhPXJ1K5hXAecr7wqK92dePfmjCns69XG1qvgPw04ur4_zp0x1NvojI3FOnsuKXkKh48hl1ict7oxm5x67Hnm2LLLa9l1vzUtx2kw4jSb-_szvd0uH5TgVt9Wk5W-j8VV0MiZ7CX-xu5S28PNNanoRit5HDTkZTB_Lbv7RBTB9YdPE2RdHtP8Jv9Vv2VPaSX7ic-MjIGVOvHz0m00]--></g></svg>