<?xml version="1.0" encoding="us-ascii" standalone="no"?><svg xmlns="http://www.w3.org/2000/svg" xmlns:xlink="http://www.w3.org/1999/xlink" contentStyleType="text/css" height="343px" preserveAspectRatio="none" style="width:2222px;height:343px;background:#FFFFFF;" version="1.1" viewBox="0 0 2222 343" width="2222px" zoomAndPan="magnify"><defs/><g><!--class OppdaterArealplan--><g id="elem_OppdaterArealplan"><rect codeLine="2" fill="#F1F1F1" height="179.9063" id="OppdaterArealplan" rx="2.5" ry="2.5" style="stroke:#181818;stroke-width:0.5;" width="309" x="379.5" y="7"/><ellipse cx="464.25" cy="23" fill="#ADD1B2" rx="11" ry="11" style="stroke:#181818;stroke-width:1.0;"/><path d="M466.7231,29.1431 Q466.1421,29.4419 465.5029,29.5913 Q464.8638,29.7407 464.1582,29.7407 Q461.6514,29.7407 460.3315,28.0889 Q459.0117,26.437 459.0117,23.3159 Q459.0117,20.1865 460.3315,18.5347 Q461.6514,16.8828 464.1582,16.8828 Q464.8638,16.8828 465.5112,17.0322 Q466.1587,17.1816 466.7231,17.4805 L466.7231,20.2031 Q466.0923,19.6221 465.4988,19.3523 Q464.9053,19.0825 464.2744,19.0825 Q462.9297,19.0825 462.2449,20.1492 Q461.5601,21.2158 461.5601,23.3159 Q461.5601,25.4077 462.2449,26.4744 Q462.9297,27.541 464.2744,27.541 Q464.9053,27.541 465.4988,27.2712 Q466.0923,27.0015 466.7231,26.4204 Z " fill="#000000"/><text fill="#000000" font-family="sans-serif" font-size="14" lengthAdjust="spacing" textLength="131" x="484.75" y="28.291">OppdaterArealplan</text><line style="stroke:#181818;stroke-width:0.5;" x1="380.5" x2="687.5" y1="39" y2="39"/><ellipse cx="390.5" cy="52.7441" fill="none" rx="3" ry="3" style="stroke:#038048;stroke-width:1.0;"/><text fill="#000000" font-family="sans-serif" font-size="14" lengthAdjust="spacing" textLength="283" x="399.5" y="56.5352">nasjonalArealplanId: NasjonalArealplanId</text><ellipse cx="390.5" cy="69.2324" fill="none" rx="3" ry="3" style="stroke:#038048;stroke-width:1.0;"/><text fill="#000000" font-family="sans-serif" font-size="14" lengthAdjust="spacing" textLength="111" x="399.5" y="73.0234">plannavn: string</text><ellipse cx="390.5" cy="85.7207" fill="none" rx="3" ry="3" style="stroke:#038048;stroke-width:1.0;"/><text fill="#000000" font-family="sans-serif" font-size="14" lengthAdjust="spacing" textLength="125" x="399.5" y="89.5117">plantype: Plantype</text><ellipse cx="390.5" cy="102.209" fill="none" rx="3" ry="3" style="stroke:#038048;stroke-width:1.0;"/><text fill="#000000" font-family="sans-serif" font-size="14" lengthAdjust="spacing" textLength="149" x="399.5" y="106">planstatus: Planstatus</text><ellipse cx="390.5" cy="118.6973" fill="none" rx="3" ry="3" style="stroke:#038048;stroke-width:1.0;"/><text fill="#000000" font-family="sans-serif" font-size="14" lengthAdjust="spacing" textLength="181" x="399.5" y="122.4883">lovreferanse: Lovreferanse</text><ellipse cx="390.5" cy="135.1855" fill="none" rx="3" ry="3" style="stroke:#038048;stroke-width:1.0;"/><text fill="#000000" font-family="sans-serif" font-size="14" lengthAdjust="spacing" textLength="185" x="399.5" y="138.9766">saksnummer: Saksnummer</text><ellipse cx="390.5" cy="151.6738" fill="none" rx="3" ry="3" style="stroke:#038048;stroke-width:1.0;"/><text fill="#000000" font-family="sans-serif" font-size="14" lengthAdjust="spacing" textLength="245" x="399.5" y="155.4648">forslagstillertype: ForslagstillerType</text><ellipse cx="390.5" cy="168.1621" fill="none" rx="3" ry="3" style="stroke:#038048;stroke-width:1.0;"/><text fill="#000000" font-family="sans-serif" font-size="14" lengthAdjust="spacing" textLength="143" x="399.5" y="171.9531">vedlegg: Dokument[]</text><line style="stroke:#181818;stroke-width:0.5;" x1="380.5" x2="687.5" y1="178.9063" y2="178.9063"/></g><!--class Plantype--><g id="elem_Plantype"><rect codeLine="13" fill="#F1F1F1" height="89.5977" id="Plantype" rx="2.5" ry="2.5" style="stroke:#181818;stroke-width:0.5;" width="184" x="664" y="246.9"/><ellipse cx="722.75" cy="267.2105" fill="#ADD1B2" rx="11" ry="11" style="stroke:#181818;stroke-width:1.0;"/><path d="M725.2231,273.3536 Q724.6421,273.6524 724.0029,273.8019 Q723.3638,273.9513 722.6582,273.9513 Q720.1514,273.9513 718.8315,272.2994 Q717.5117,270.6476 717.5117,267.5265 Q717.5117,264.3971 718.8315,262.7452 Q720.1514,261.0934 722.6582,261.0934 Q723.3638,261.0934 724.0112,261.2428 Q724.6587,261.3922 725.2231,261.691 L725.2231,264.4137 Q724.5923,263.8326 723.9988,263.5628 Q723.4053,263.2931 722.7744,263.2931 Q721.4297,263.2931 720.7449,264.3597 Q720.0601,265.4264 720.0601,267.5265 Q720.0601,269.6183 720.7449,270.6849 Q721.4297,271.7516 722.7744,271.7516 Q723.4053,271.7516 723.9988,271.4818 Q724.5923,271.212 725.2231,270.631 Z " fill="#000000"/><text fill="#000000" font-family="sans-serif" font-size="12" font-style="italic" lengthAdjust="spacing" textLength="42" x="751.25" y="263.5016">&#171;Kode&#187;</text><text fill="#000000" font-family="sans-serif" font-size="14" lengthAdjust="spacing" textLength="58" x="743.25" y="279.568">Plantype</text><line style="stroke:#181818;stroke-width:0.5;" x1="665" x2="847" y1="287.5211" y2="287.5211"/><ellipse cx="675" cy="301.2652" fill="none" rx="3" ry="3" style="stroke:#038048;stroke-width:1.0;"/><text fill="#000000" font-family="sans-serif" font-size="14" lengthAdjust="spacing" textLength="116" x="684" y="305.0563">kodeverdi: string</text><ellipse cx="675" cy="317.7535" fill="none" rx="3" ry="3" style="stroke:#038048;stroke-width:1.0;"/><text fill="#000000" font-family="sans-serif" font-size="14" lengthAdjust="spacing" textLength="158" x="684" y="321.5445">kodebeskrivelse: string</text><line style="stroke:#181818;stroke-width:0.5;" x1="665" x2="847" y1="328.4977" y2="328.4977"/></g><!--class Planstatus--><g id="elem_Planstatus"><rect codeLine="18" fill="#F1F1F1" height="89.5977" id="Planstatus" rx="2.5" ry="2.5" style="stroke:#181818;stroke-width:0.5;" width="184" x="7" y="246.9"/><ellipse cx="59.75" cy="267.2105" fill="#ADD1B2" rx="11" ry="11" style="stroke:#181818;stroke-width:1.0;"/><path d="M62.2231,273.3536 Q61.6421,273.6524 61.0029,273.8019 Q60.3638,273.9513 59.6582,273.9513 Q57.1514,273.9513 55.8315,272.2994 Q54.5117,270.6476 54.5117,267.5265 Q54.5117,264.3971 55.8315,262.7452 Q57.1514,261.0934 59.6582,261.0934 Q60.3638,261.0934 61.0112,261.2428 Q61.6587,261.3922 62.2231,261.691 L62.2231,264.4137 Q61.5923,263.8326 60.9988,263.5628 Q60.4053,263.2931 59.7744,263.2931 Q58.4297,263.2931 57.7449,264.3597 Q57.0601,265.4264 57.0601,267.5265 Q57.0601,269.6183 57.7449,270.6849 Q58.4297,271.7516 59.7744,271.7516 Q60.4053,271.7516 60.9988,271.4818 Q61.5923,271.212 62.2231,270.631 Z " fill="#000000"/><text fill="#000000" font-family="sans-serif" font-size="12" font-style="italic" lengthAdjust="spacing" textLength="42" x="94.25" y="263.5016">&#171;Kode&#187;</text><text fill="#000000" font-family="sans-serif" font-size="14" lengthAdjust="spacing" textLength="70" x="80.25" y="279.568">Planstatus</text><line style="stroke:#181818;stroke-width:0.5;" x1="8" x2="190" y1="287.5211" y2="287.5211"/><ellipse cx="18" cy="301.2652" fill="none" rx="3" ry="3" style="stroke:#038048;stroke-width:1.0;"/><text fill="#000000" font-family="sans-serif" font-size="14" lengthAdjust="spacing" textLength="116" x="27" y="305.0563">kodeverdi: string</text><ellipse cx="18" cy="317.7535" fill="none" rx="3" ry="3" style="stroke:#038048;stroke-width:1.0;"/><text fill="#000000" font-family="sans-serif" font-size="14" lengthAdjust="spacing" textLength="158" x="27" y="321.5445">kodebeskrivelse: string</text><line style="stroke:#181818;stroke-width:0.5;" x1="8" x2="190" y1="328.4977" y2="328.4977"/></g><!--class Lovreferanse--><g id="elem_Lovreferanse"><rect codeLine="23" fill="#F1F1F1" height="89.5977" id="Lovreferanse" rx="2.5" ry="2.5" style="stroke:#181818;stroke-width:0.5;" width="184" x="226" y="246.9"/><ellipse cx="269.8" cy="267.2105" fill="#ADD1B2" rx="11" ry="11" style="stroke:#181818;stroke-width:1.0;"/><path d="M272.2731,273.3536 Q271.6921,273.6524 271.0529,273.8019 Q270.4138,273.9513 269.7082,273.9513 Q267.2014,273.9513 265.8815,272.2994 Q264.5617,270.6476 264.5617,267.5265 Q264.5617,264.3971 265.8815,262.7452 Q267.2014,261.0934 269.7082,261.0934 Q270.4138,261.0934 271.0612,261.2428 Q271.7087,261.3922 272.2731,261.691 L272.2731,264.4137 Q271.6423,263.8326 271.0488,263.5628 Q270.4553,263.2931 269.8244,263.2931 Q268.4797,263.2931 267.7949,264.3597 Q267.1101,265.4264 267.1101,267.5265 Q267.1101,269.6183 267.7949,270.6849 Q268.4797,271.7516 269.8244,271.7516 Q270.4553,271.7516 271.0488,271.4818 Q271.6423,271.212 272.2731,270.631 Z " fill="#000000"/><text fill="#000000" font-family="sans-serif" font-size="12" font-style="italic" lengthAdjust="spacing" textLength="42" x="313.2" y="263.5016">&#171;Kode&#187;</text><text fill="#000000" font-family="sans-serif" font-size="14" lengthAdjust="spacing" textLength="88" x="290.2" y="279.568">Lovreferanse</text><line style="stroke:#181818;stroke-width:0.5;" x1="227" x2="409" y1="287.5211" y2="287.5211"/><ellipse cx="237" cy="301.2652" fill="none" rx="3" ry="3" style="stroke:#038048;stroke-width:1.0;"/><text fill="#000000" font-family="sans-serif" font-size="14" lengthAdjust="spacing" textLength="116" x="246" y="305.0563">kodeverdi: string</text><ellipse cx="237" cy="317.7535" fill="none" rx="3" ry="3" style="stroke:#038048;stroke-width:1.0;"/><text fill="#000000" font-family="sans-serif" font-size="14" lengthAdjust="spacing" textLength="158" x="246" y="321.5445">kodebeskrivelse: string</text><line style="stroke:#181818;stroke-width:0.5;" x1="227" x2="409" y1="328.4977" y2="328.4977"/></g><!--class ForslagstillerType--><g id="elem_ForslagstillerType"><rect codeLine="28" fill="#F1F1F1" height="89.5977" id="ForslagstillerType" rx="2.5" ry="2.5" style="stroke:#181818;stroke-width:0.5;" width="184" x="445" y="246.9"/><ellipse cx="473.5" cy="267.2105" fill="#ADD1B2" rx="11" ry="11" style="stroke:#181818;stroke-width:1.0;"/><path d="M475.9731,273.3536 Q475.3921,273.6524 474.7529,273.8019 Q474.1138,273.9513 473.4082,273.9513 Q470.9014,273.9513 469.5815,272.2994 Q468.2617,270.6476 468.2617,267.5265 Q468.2617,264.3971 469.5815,262.7452 Q470.9014,261.0934 473.4082,261.0934 Q474.1138,261.0934 474.7612,261.2428 Q475.4087,261.3922 475.9731,261.691 L475.9731,264.4137 Q475.3423,263.8326 474.7488,263.5628 Q474.1553,263.2931 473.5244,263.2931 Q472.1797,263.2931 471.4949,264.3597 Q470.8101,265.4264 470.8101,267.5265 Q470.8101,269.6183 471.4949,270.6849 Q472.1797,271.7516 473.5244,271.7516 Q474.1553,271.7516 474.7488,271.4818 Q475.3423,271.212 475.9731,270.631 Z " fill="#000000"/><text fill="#000000" font-family="sans-serif" font-size="12" font-style="italic" lengthAdjust="spacing" textLength="42" x="530.5" y="263.5016">&#171;Kode&#187;</text><text fill="#000000" font-family="sans-serif" font-size="14" lengthAdjust="spacing" textLength="122" x="490.5" y="279.568">ForslagstillerType</text><line style="stroke:#181818;stroke-width:0.5;" x1="446" x2="628" y1="287.5211" y2="287.5211"/><ellipse cx="456" cy="301.2652" fill="none" rx="3" ry="3" style="stroke:#038048;stroke-width:1.0;"/><text fill="#000000" font-family="sans-serif" font-size="14" lengthAdjust="spacing" textLength="116" x="465" y="305.0563">kodeverdi: string</text><ellipse cx="456" cy="317.7535" fill="none" rx="3" ry="3" style="stroke:#038048;stroke-width:1.0;"/><text fill="#000000" font-family="sans-serif" font-size="14" lengthAdjust="spacing" textLength="158" x="465" y="321.5445">kodebeskrivelse: string</text><line style="stroke:#181818;stroke-width:0.5;" x1="446" x2="628" y1="328.4977" y2="328.4977"/></g><!--class NasjonalArealplanId--><g id="elem_NasjonalArealplanId"><rect fill="#F1F1F1" height="48" id="NasjonalArealplanId" rx="2.5" ry="2.5" style="stroke:#181818;stroke-width:0.5;" width="170" x="889" y="267.7"/><ellipse cx="904" cy="283.7" fill="#ADD1B2" rx="11" ry="11" style="stroke:#181818;stroke-width:1.0;"/><path d="M906.4731,289.8431 Q905.8921,290.1419 905.2529,290.2913 Q904.6138,290.4407 903.9082,290.4407 Q901.4014,290.4407 900.0815,288.7889 Q898.7617,287.137 898.7617,284.0159 Q898.7617,280.8865 900.0815,279.2347 Q901.4014,277.5828 903.9082,277.5828 Q904.6138,277.5828 905.2612,277.7322 Q905.9087,277.8816 906.4731,278.1805 L906.4731,280.9031 Q905.8423,280.3221 905.2488,280.0523 Q904.6553,279.7825 904.0244,279.7825 Q902.6797,279.7825 901.9949,280.8492 Q901.3101,281.9158 901.3101,284.0159 Q901.3101,286.1077 901.9949,287.1744 Q902.6797,288.241 904.0244,288.241 Q904.6553,288.241 905.2488,287.9712 Q905.8423,287.7015 906.4731,287.1204 Z " fill="#000000"/><text fill="#000000" font-family="sans-serif" font-size="14" lengthAdjust="spacing" textLength="138" x="918" y="288.991">NasjonalArealplanId</text><line style="stroke:#181818;stroke-width:0.5;" x1="890" x2="1058" y1="299.7" y2="299.7"/><line style="stroke:#181818;stroke-width:0.5;" x1="890" x2="1058" y1="307.7" y2="307.7"/></g><!--class Saksnummer--><g id="elem_Saksnummer"><rect fill="#F1F1F1" height="48" id="Saksnummer" rx="2.5" ry="2.5" style="stroke:#181818;stroke-width:0.5;" width="121" x="1266.5" y="267.7"/><ellipse cx="1281.5" cy="283.7" fill="#ADD1B2" rx="11" ry="11" style="stroke:#181818;stroke-width:1.0;"/><path d="M1283.9731,289.8431 Q1283.3921,290.1419 1282.7529,290.2913 Q1282.1138,290.4407 1281.4082,290.4407 Q1278.9014,290.4407 1277.5815,288.7889 Q1276.2617,287.137 1276.2617,284.0159 Q1276.2617,280.8865 1277.5815,279.2347 Q1278.9014,277.5828 1281.4082,277.5828 Q1282.1138,277.5828 1282.7612,277.7322 Q1283.4087,277.8816 1283.9731,278.1805 L1283.9731,280.9031 Q1283.3423,280.3221 1282.7488,280.0523 Q1282.1553,279.7825 1281.5244,279.7825 Q1280.1797,279.7825 1279.4949,280.8492 Q1278.8101,281.9158 1278.8101,284.0159 Q1278.8101,286.1077 1279.4949,287.1744 Q1280.1797,288.241 1281.5244,288.241 Q1282.1553,288.241 1282.7488,287.9712 Q1283.3423,287.7015 1283.9731,287.1204 Z " fill="#000000"/><text fill="#000000" font-family="sans-serif" font-size="14" lengthAdjust="spacing" textLength="89" x="1295.5" y="288.991">Saksnummer</text><line style="stroke:#181818;stroke-width:0.5;" x1="1267.5" x2="1386.5" y1="299.7" y2="299.7"/><line style="stroke:#181818;stroke-width:0.5;" x1="1267.5" x2="1386.5" y1="307.7" y2="307.7"/></g><!--class Dokument--><g id="elem_Dokument"><rect fill="#F1F1F1" height="48" id="Dokument" rx="2.5" ry="2.5" style="stroke:#181818;stroke-width:0.5;" width="103" x="1594.5" y="267.7"/><ellipse cx="1609.5" cy="283.7" fill="#ADD1B2" rx="11" ry="11" style="stroke:#181818;stroke-width:1.0;"/><path d="M1611.9731,289.8431 Q1611.3921,290.1419 1610.7529,290.2913 Q1610.1138,290.4407 1609.4082,290.4407 Q1606.9014,290.4407 1605.5815,288.7889 Q1604.2617,287.137 1604.2617,284.0159 Q1604.2617,280.8865 1605.5815,279.2347 Q1606.9014,277.5828 1609.4082,277.5828 Q1610.1138,277.5828 1610.7612,277.7322 Q1611.4087,277.8816 1611.9731,278.1805 L1611.9731,280.9031 Q1611.3423,280.3221 1610.7488,280.0523 Q1610.1553,279.7825 1609.5244,279.7825 Q1608.1797,279.7825 1607.4949,280.8492 Q1606.8101,281.9158 1606.8101,284.0159 Q1606.8101,286.1077 1607.4949,287.1744 Q1608.1797,288.241 1609.5244,288.241 Q1610.1553,288.241 1610.7488,287.9712 Q1611.3423,287.7015 1611.9731,287.1204 Z " fill="#000000"/><text fill="#000000" font-family="sans-serif" font-size="14" lengthAdjust="spacing" textLength="71" x="1623.5" y="288.991">Dokument</text><line style="stroke:#181818;stroke-width:0.5;" x1="1595.5" x2="1696.5" y1="299.7" y2="299.7"/><line style="stroke:#181818;stroke-width:0.5;" x1="1595.5" x2="1696.5" y1="307.7" y2="307.7"/></g><g id="elem_GMN17"><path d="M723.5,84.29 L723.5,109.6005 A0,0 0 0 0 723.5,109.6005 L972.81,109.6005 L974.36,267.43 L980.81,109.6005 L1230.5,109.6005 A0,0 0 0 0 1230.5,109.6005 L1230.5,94.29 L1220.5,84.29 L723.5,84.29 A0,0 0 0 0 723.5,84.29 " fill="#FEFFDD" style="stroke:#181818;stroke-width:0.5;"/><path d="M1220.5,84.29 L1220.5,94.29 L1230.5,94.29 L1220.5,84.29 " fill="#FEFFDD" style="stroke:#181818;stroke-width:0.5;"/><text fill="#000000" font-family="sans-serif" font-size="13" lengthAdjust="spacing" textLength="486" x="729.5" y="101.8584">Se detaljer i diagram for skjema 'no.ks.fiks.plan.v2.felles.nasjonalarealplanid'</text></g><g id="elem_GMN20"><path d="M1266,84.29 L1266,109.6005 A0,0 0 0 0 1266,109.6005 L1484.24,109.6005 L1347.76,267.43 L1492.24,109.6005 L1732,109.6005 A0,0 0 0 0 1732,109.6005 L1732,94.29 L1722,84.29 L1266,84.29 A0,0 0 0 0 1266,84.29 " fill="#FEFFDD" style="stroke:#181818;stroke-width:0.5;"/><path d="M1722,84.29 L1722,94.29 L1732,94.29 L1722,84.29 " fill="#FEFFDD" style="stroke:#181818;stroke-width:0.5;"/><text fill="#000000" font-family="sans-serif" font-size="13" lengthAdjust="spacing" textLength="445" x="1272" y="101.8584">Se detaljer i diagram for skjema 'no.ks.fiks.plan.v2.felles.saksnummer'</text></g><g id="elem_GMN23"><path d="M1766.5,84.29 L1766.5,109.6005 A0,0 0 0 0 1766.5,109.6005 L1965.42,109.6005 L1687.94,267.27 L1973.42,109.6005 L2215.5,109.6005 A0,0 0 0 0 2215.5,109.6005 L2215.5,94.29 L2205.5,84.29 L1766.5,84.29 A0,0 0 0 0 1766.5,84.29 " fill="#FEFFDD" style="stroke:#181818;stroke-width:0.5;"/><path d="M2205.5,84.29 L2205.5,94.29 L2215.5,94.29 L2205.5,84.29 " fill="#FEFFDD" style="stroke:#181818;stroke-width:0.5;"/><text fill="#000000" font-family="sans-serif" font-size="13" lengthAdjust="spacing" textLength="428" x="1772.5" y="101.8584">Se detaljer i diagram for skjema 'no.ks.fiks.plan.v2.felles.dokument'</text></g><!--link OppdaterArealplan to NasjonalArealplanId--><g id="link_OppdaterArealplan_NasjonalArealplanId"><path codeLine="33" d="M688.76,179.06 C694.56,181.75 700.32,184.38 706,186.9 C775.41,217.73 795.25,219.3 866,246.9 C882.59,253.37 900.53,260.57 916.94,267.23 " fill="none" id="OppdaterArealplan-NasjonalArealplanId" style="stroke:#181818;stroke-width:1.0;"/></g><!--link OppdaterArealplan to Plantype--><g id="link_OppdaterArealplan_Plantype"><path codeLine="34" d="M636.88,187.27 C660.58,207.85 684.78,228.87 705.13,246.53 " fill="none" id="OppdaterArealplan-Plantype" style="stroke:#181818;stroke-width:1.0;"/></g><!--link OppdaterArealplan to Planstatus--><g id="link_OppdaterArealplan_Planstatus"><path codeLine="35" d="M379.1,166.58 C316.25,194.44 245.77,225.67 191.23,249.83 " fill="none" id="OppdaterArealplan-Planstatus" style="stroke:#181818;stroke-width:1.0;"/></g><!--link OppdaterArealplan to Lovreferanse--><g id="link_OppdaterArealplan_Lovreferanse"><path codeLine="36" d="M433.9,187.27 C410.84,207.85 387.29,228.87 367.5,246.53 " fill="none" id="OppdaterArealplan-Lovreferanse" style="stroke:#181818;stroke-width:1.0;"/></g><!--link OppdaterArealplan to ForslagstillerType--><g id="link_OppdaterArealplan_ForslagstillerType"><path codeLine="37" d="M535.39,187.27 C535.71,207.85 536.04,228.87 536.31,246.53 " fill="none" id="OppdaterArealplan-ForslagstillerType" style="stroke:#181818;stroke-width:1.0;"/></g><!--link OppdaterArealplan to Saksnummer--><g id="link_OppdaterArealplan_Saksnummer"><path codeLine="38" d="M688.67,180.72 C694.47,182.93 700.25,185 706,186.9 C864.19,239.15 911.72,219.25 1076,246.9 C1141,257.84 1215.36,270.89 1266.17,279.88 " fill="none" id="OppdaterArealplan-Saksnummer" style="stroke:#181818;stroke-width:1.0;"/></g><!--link OppdaterArealplan to Dokument--><g id="link_OppdaterArealplan_Dokument"><path codeLine="39" d="M688.98,181.46 C694.67,183.44 700.35,185.27 706,186.9 C1005.54,273.51 1095.93,205.65 1405,246.9 C1470.55,255.65 1545.38,269.93 1594.04,279.8 " fill="none" id="OppdaterArealplan-Dokument" style="stroke:#181818;stroke-width:1.0;"/></g><!--SRC=[hLDDIyGm4BtdLynj3x8zU2pBWY22kAYWD_4mRgObRPgKJBOWudytDVtOil7YRWzbyjxapGSlUutCyDIs4Zsv6qUeMuq6lWI4xyeWLzQWdeXxcSFZAHYp-zXWPt9WxvGfPzH_jfJ3yn3DE7lq1uvCZ2EdRUUe81VGS6ztT8eyOytcq3JaSdYPuiWLrh76ahtIcboiVBV0NgSUEfAQoZA7MriV6ZB-xLry2x7_tShOBcms3rRITZjkfGwdZfnKoq5x-8EuTgeZtVSza0l1EEN598zNSp7HqsrDqlzMFhNOUfrqKZ9nSiwVxE2U9B_mJp8ZuOzatf7Nalne8o6CzGJUjc2Br9WGV4iWoQEko842gR1qs41mBt1TKOEmCZQhEIjK-FMtikuwAoWqoDduBd5KL7ArA3atUcQb-QKj2uoJdYal1vcL-040]--></g></svg>