<svg xmlns="http://www.w3.org/2000/svg" xmlns:xlink="http://www.w3.org/1999/xlink" contentStyleType="text/css" data-diagram-type="SEQUENCE" height="463px" preserveAspectRatio="none" style="width:556px;height:463px;background:#FFFFFF;" version="1.1" viewBox="0 0 556 463" width="556px" zoomAndPan="magnify"><defs/><g><rect fill="none" height="328.2832" style="stroke:#000000;stroke-width:1.5;" width="539.1245" x="10" y="82.7988"/><g><title>Fagsystem</title><rect fill="#000000" fill-opacity="0.00000" height="63.6211" width="8" x="58.8306" y="36.4883"/><line style="stroke:#181818;stroke-width:0.5;stroke-dasharray:5.0,5.0;" x1="62" x2="62" y1="36.4883" y2="100.1094"/></g><line style="stroke:#A80036;stroke-width:1;stroke-dasharray:1.0,4.0;" x1="62" x2="62" y1="100.1094" y2="141.0645"/><g><title>Fagsystem</title><rect fill="#000000" fill-opacity="0.00000" height="29.3105" width="8" x="58.8306" y="141.0645"/><line style="stroke:#181818;stroke-width:0.5;stroke-dasharray:5.0,5.0;" x1="62" x2="62" y1="141.0645" y2="170.375"/></g><line style="stroke:#A80036;stroke-width:1;stroke-dasharray:1.0,4.0;" x1="62" x2="62" y1="170.375" y2="211.3301"/><g><title>Fagsystem</title><rect fill="#000000" fill-opacity="0.00000" height="44.2656" width="8" x="58.8306" y="211.3301"/><line style="stroke:#181818;stroke-width:0.5;stroke-dasharray:5.0,5.0;" x1="62" x2="62" y1="211.3301" y2="255.5957"/></g><line style="stroke:#A80036;stroke-width:1;stroke-dasharray:1.0,4.0;" x1="62" x2="62" y1="255.5957" y2="296.5508"/><g><title>Fagsystem</title><rect fill="#000000" fill-opacity="0.00000" height="44.2656" width="8" x="58.8306" y="296.5508"/><line style="stroke:#181818;stroke-width:0.5;stroke-dasharray:5.0,5.0;" x1="62" x2="62" y1="296.5508" y2="340.8164"/></g><line style="stroke:#A80036;stroke-width:1;stroke-dasharray:1.0,4.0;" x1="62" x2="62" y1="340.8164" y2="381.7715"/><g><title>Fagsystem</title><rect fill="#000000" fill-opacity="0.00000" height="46.3105" width="8" x="58.8306" y="381.7715"/><line style="stroke:#181818;stroke-width:0.5;stroke-dasharray:5.0,5.0;" x1="62" x2="62" y1="381.7715" y2="428.082"/></g><g><title>Planregister</title><rect fill="#000000" fill-opacity="0.00000" height="63.6211" width="8" x="487.9189" y="36.4883"/><line style="stroke:#181818;stroke-width:0.5;stroke-dasharray:5.0,5.0;" x1="491.7134" x2="491.7134" y1="36.4883" y2="100.1094"/></g><line style="stroke:#A80036;stroke-width:1;stroke-dasharray:1.0,4.0;" x1="491.7134" x2="491.7134" y1="100.1094" y2="141.0645"/><g><title>Planregister</title><rect fill="#000000" fill-opacity="0.00000" height="29.3105" width="8" x="487.9189" y="141.0645"/><line style="stroke:#181818;stroke-width:0.5;stroke-dasharray:5.0,5.0;" x1="491.7134" x2="491.7134" y1="141.0645" y2="170.375"/></g><line style="stroke:#A80036;stroke-width:1;stroke-dasharray:1.0,4.0;" x1="491.7134" x2="491.7134" y1="170.375" y2="211.3301"/><g><title>Planregister</title><rect fill="#000000" fill-opacity="0.00000" height="44.2656" width="8" x="487.9189" y="211.3301"/><line style="stroke:#181818;stroke-width:0.5;stroke-dasharray:5.0,5.0;" x1="491.7134" x2="491.7134" y1="211.3301" y2="255.5957"/></g><line style="stroke:#A80036;stroke-width:1;stroke-dasharray:1.0,4.0;" x1="491.7134" x2="491.7134" y1="255.5957" y2="296.5508"/><g><title>Planregister</title><rect fill="#000000" fill-opacity="0.00000" height="44.2656" width="8" x="487.9189" y="296.5508"/><line style="stroke:#181818;stroke-width:0.5;stroke-dasharray:5.0,5.0;" x1="491.7134" x2="491.7134" y1="296.5508" y2="340.8164"/></g><line style="stroke:#A80036;stroke-width:1;stroke-dasharray:1.0,4.0;" x1="491.7134" x2="491.7134" y1="340.8164" y2="381.7715"/><g><title>Planregister</title><rect fill="#000000" fill-opacity="0.00000" height="46.3105" width="8" x="487.9189" y="381.7715"/><line style="stroke:#181818;stroke-width:0.5;stroke-dasharray:5.0,5.0;" x1="491.7134" x2="491.7134" y1="381.7715" y2="428.082"/></g><g class="participant participant-head" data-participant="Fagsystem"><rect fill="#E2E2F0" height="30.4883" rx="2.5" ry="2.5" style="stroke:#181818;stroke-width:0.5;" width="85.6611" x="20" y="5"/><text fill="#000000" font-family="sans-serif" font-size="14" lengthAdjust="spacing" textLength="71.6611" x="27" y="25.5352">Fagsystem</text></g><g class="participant participant-tail" data-participant="Fagsystem"><rect fill="#E2E2F0" height="30.4883" rx="2.5" ry="2.5" style="stroke:#181818;stroke-width:0.5;" width="85.6611" x="20" y="427.082"/><text fill="#000000" font-family="sans-serif" font-size="14" lengthAdjust="spacing" textLength="71.6611" x="27" y="447.6172">Fagsystem</text></g><g class="participant participant-head" data-participant="Planregister"><rect fill="#E2E2F0" height="30.4883" rx="2.5" ry="2.5" style="stroke:#181818;stroke-width:0.5;" width="94.4111" x="444.7134" y="5"/><text fill="#000000" font-family="sans-serif" font-size="14" lengthAdjust="spacing" textLength="80.4111" x="451.7134" y="25.5352">Planregister</text></g><g class="participant participant-tail" data-participant="Planregister"><rect fill="#E2E2F0" height="30.4883" rx="2.5" ry="2.5" style="stroke:#181818;stroke-width:0.5;" width="94.4111" x="444.7134" y="427.082"/><text fill="#000000" font-family="sans-serif" font-size="14" lengthAdjust="spacing" textLength="80.4111" x="451.7134" y="447.6172">Planregister</text></g><g class="message" data-participant-1="Fagsystem" data-participant-2="Planregister"><polygon fill="#181818" points="479.9189,63.7988,489.9189,67.7988,479.9189,71.7988,483.9189,67.7988" style="stroke:#181818;stroke-width:1;"/><line style="stroke:#181818;stroke-width:1;" x1="62.8306" x2="485.9189" y1="67.7988" y2="67.7988"/><text fill="#000000" font-family="sans-serif" font-size="13" lengthAdjust="spacing" textLength="340.6724" x="69.8306" y="63.0566">no.ks.fiks.plan.v2.oppdatering.dispensasjon.oppdater</text></g><path d="M10,82.7988 L72.1387,82.7988 L72.1387,90.1094 L62.1387,100.1094 L10,100.1094 L10,82.7988" fill="#EEEEEE" style="stroke:#000000;stroke-width:1.5;"/><rect fill="none" height="328.2832" style="stroke:#000000;stroke-width:1.5;" width="539.1245" x="10" y="82.7988"/><text fill="#000000" font-family="sans-serif" font-size="13" font-weight="bold" lengthAdjust="spacing" textLength="17.1387" x="25" y="96.3672">alt</text><text fill="#000000" font-family="sans-serif" font-size="11" font-weight="bold" lengthAdjust="spacing" textLength="97.1147" x="87.1387" y="95.4336">[Oppdatering ok]</text><text fill="#000000" font-family="sans-serif" font-size="11" lengthAdjust="spacing" textLength="113.9102" x="220.4197" y="124.7441">tom mottatt-melding</text><g class="message" data-participant-1="Planregister" data-participant-2="Fagsystem"><polygon fill="#181818" points="73.8306,158.375,63.8306,162.375,73.8306,166.375,69.8306,162.375" style="stroke:#181818;stroke-width:1;"/><line style="stroke:#181818;stroke-width:1;" x1="67.8306" x2="490.9189" y1="162.375" y2="162.375"/><text fill="#000000" font-family="sans-serif" font-size="13" lengthAdjust="spacing" textLength="391.5361" x="79.8306" y="157.6328">no.ks.fiks.plan.v2.oppdatering.dispensasjon.oppdater.mottatt</text></g><text fill="#000000" font-family="sans-serif" font-size="11" lengthAdjust="spacing" textLength="125.3774" x="214.686" y="195.0098">tom kvittering-melding</text><g class="message" data-participant-1="Planregister" data-participant-2="Fagsystem"><polygon fill="#181818" points="73.8306,228.6406,63.8306,232.6406,73.8306,236.6406,69.8306,232.6406" style="stroke:#181818;stroke-width:1;"/><line style="stroke:#181818;stroke-width:1;" x1="67.8306" x2="490.9189" y1="232.6406" y2="232.6406"/><text fill="#000000" font-family="sans-serif" font-size="13" lengthAdjust="spacing" textLength="405.0884" x="79.8306" y="227.8984">no.ks.fiks.plan.v2.oppdatering.dispensasjon.oppdater.kvittering</text></g><line style="stroke:#000000;stroke-width:1;stroke-dasharray:2.0,2.0;" x1="10" x2="549.1245" y1="241.6406" y2="241.6406"/><text fill="#000000" font-family="sans-serif" font-size="11" font-weight="bold" lengthAdjust="spacing" textLength="264.3223" x="15" y="252.2754">[Feil: oppdateringsmeldingen var ikke korrekt]</text><text fill="#000000" font-family="sans-serif" font-size="11" lengthAdjust="spacing" textLength="137.0649" x="208.8423" y="280.2305">feil-melding med innhold</text><g class="message" data-participant-1="Planregister" data-participant-2="Fagsystem"><polygon fill="#181818" points="73.8306,313.8613,63.8306,317.8613,73.8306,321.8613,69.8306,317.8613" style="stroke:#181818;stroke-width:1;"/><line style="stroke:#181818;stroke-width:1;" x1="67.8306" x2="490.9189" y1="317.8613" y2="317.8613"/><text fill="#000000" font-family="sans-serif" font-size="13" lengthAdjust="spacing" textLength="315.7261" x="79.8306" y="313.1191">no.ks.fiks.plan.v2.feilmelding.ugyldigforespoersel</text></g><line style="stroke:#000000;stroke-width:1;stroke-dasharray:2.0,2.0;" x1="10" x2="549.1245" y1="326.8613" y2="326.8613"/><text fill="#000000" font-family="sans-serif" font-size="11" font-weight="bold" lengthAdjust="spacing" textLength="186.479" x="15" y="337.4961">[Feil: planregister fikk serverfeil]</text><text fill="#000000" font-family="sans-serif" font-size="11" lengthAdjust="spacing" textLength="137.0649" x="208.8423" y="365.4512">feil-melding med innhold</text><g class="message" data-participant-1="Planregister" data-participant-2="Fagsystem"><polygon fill="#181818" points="73.8306,399.082,63.8306,403.082,73.8306,407.082,69.8306,403.082" style="stroke:#181818;stroke-width:1;"/><line style="stroke:#181818;stroke-width:1;" x1="67.8306" x2="490.9189" y1="403.082" y2="403.082"/><text fill="#000000" font-family="sans-serif" font-size="13" lengthAdjust="spacing" textLength="248.6631" x="79.8306" y="398.3398">no.ks.fiks.plan.v2.feilmelding.serverfeil</text></g><!--SRC=[jOynZWCX34LxJk4BZ8ijesZBQRDNGCB3ie2DC1afjmzeaycaZ9Gq2FJj_nwpzNhHHXccR_X9bYlvqD_r02mO5PVGZz83NBzGId6sXu4zkg25MAt-2M-1CJOrE3t6GA8nYDWaGvRMR6jJfkH60wAPD_nnUWCURuWD6TVG_XS-INrGZA6a13E5T83TejxenB3Q2Y56WYYrKcn3TUdpTq78v20m_qfoG_P5sr5r_-hPN_h5Br99Yr1LIa-2PLS6lIM2KbsfZeuFQkqWXjXT0G00]--></g></svg>