<svg xmlns="http://www.w3.org/2000/svg" xmlns:xlink="http://www.w3.org/1999/xlink" contentStyleType="text/css" height="463px" preserveAspectRatio="none" style="width:557px;height:463px;background:#FFFFFF;" version="1.1" viewBox="0 0 557 463" width="557px" zoomAndPan="magnify"><defs/><g><rect fill="none" height="328.2832" style="stroke:#000000;stroke-width:1.5;" width="540" x="10" y="82.7988"/><line style="stroke:#181818;stroke-width:0.5;stroke-dasharray:5.0,5.0;" x1="63" x2="63" y1="36.4883" y2="100.1094"/><line style="stroke:#A80036;stroke-width:1.0;stroke-dasharray:1.0,4.0;" x1="63" x2="63" y1="100.1094" y2="141.0645"/><line style="stroke:#181818;stroke-width:0.5;stroke-dasharray:5.0,5.0;" x1="63" x2="63" y1="141.0645" y2="170.375"/><line style="stroke:#A80036;stroke-width:1.0;stroke-dasharray:1.0,4.0;" x1="63" x2="63" y1="170.375" y2="211.3301"/><line style="stroke:#181818;stroke-width:0.5;stroke-dasharray:5.0,5.0;" x1="63" x2="63" y1="211.3301" y2="255.5957"/><line style="stroke:#A80036;stroke-width:1.0;stroke-dasharray:1.0,4.0;" x1="63" x2="63" y1="255.5957" y2="296.5508"/><line style="stroke:#181818;stroke-width:0.5;stroke-dasharray:5.0,5.0;" x1="63" x2="63" y1="296.5508" y2="340.8164"/><line style="stroke:#A80036;stroke-width:1.0;stroke-dasharray:1.0,4.0;" x1="63" x2="63" y1="340.8164" y2="381.7715"/><line style="stroke:#181818;stroke-width:0.5;stroke-dasharray:5.0,5.0;" x1="63" x2="63" y1="381.7715" y2="428.082"/><line style="stroke:#181818;stroke-width:0.5;stroke-dasharray:5.0,5.0;" x1="492" x2="492" y1="36.4883" y2="100.1094"/><line style="stroke:#A80036;stroke-width:1.0;stroke-dasharray:1.0,4.0;" x1="492" x2="492" y1="100.1094" y2="141.0645"/><line style="stroke:#181818;stroke-width:0.5;stroke-dasharray:5.0,5.0;" x1="492" x2="492" y1="141.0645" y2="170.375"/><line style="stroke:#A80036;stroke-width:1.0;stroke-dasharray:1.0,4.0;" x1="492" x2="492" y1="170.375" y2="211.3301"/><line style="stroke:#181818;stroke-width:0.5;stroke-dasharray:5.0,5.0;" x1="492" x2="492" y1="211.3301" y2="255.5957"/><line style="stroke:#A80036;stroke-width:1.0;stroke-dasharray:1.0,4.0;" x1="492" x2="492" y1="255.5957" y2="296.5508"/><line style="stroke:#181818;stroke-width:0.5;stroke-dasharray:5.0,5.0;" x1="492" x2="492" y1="296.5508" y2="340.8164"/><line style="stroke:#A80036;stroke-width:1.0;stroke-dasharray:1.0,4.0;" x1="492" x2="492" y1="340.8164" y2="381.7715"/><line style="stroke:#181818;stroke-width:0.5;stroke-dasharray:5.0,5.0;" x1="492" x2="492" y1="381.7715" y2="428.082"/><rect fill="#E2E2F0" height="30.4883" rx="2.5" ry="2.5" style="stroke:#181818;stroke-width:0.5;" width="86" x="20" y="5"/><text fill="#000000" font-family="sans-serif" font-size="14" lengthAdjust="spacing" textLength="72" x="27" y="25.5352">Fagsystem</text><rect fill="#E2E2F0" height="30.4883" rx="2.5" ry="2.5" style="stroke:#181818;stroke-width:0.5;" width="86" x="20" y="427.082"/><text fill="#000000" font-family="sans-serif" font-size="14" lengthAdjust="spacing" textLength="72" x="27" y="447.6172">Fagsystem</text><rect fill="#E2E2F0" height="30.4883" rx="2.5" ry="2.5" style="stroke:#181818;stroke-width:0.5;" width="96" x="444" y="5"/><text fill="#000000" font-family="sans-serif" font-size="14" lengthAdjust="spacing" textLength="82" x="451" y="25.5352">Planregister</text><rect fill="#E2E2F0" height="30.4883" rx="2.5" ry="2.5" style="stroke:#181818;stroke-width:0.5;" width="96" x="444" y="427.082"/><text fill="#000000" font-family="sans-serif" font-size="14" lengthAdjust="spacing" textLength="82" x="451" y="447.6172">Planregister</text><polygon fill="#181818" points="480,63.7988,490,67.7988,480,71.7988,484,67.7988" style="stroke:#181818;stroke-width:1.0;"/><line style="stroke:#181818;stroke-width:1.0;" x1="63" x2="486" y1="67.7988" y2="67.7988"/><text fill="#000000" font-family="sans-serif" font-size="13" lengthAdjust="spacing" textLength="340" x="70" y="63.0566">no.ks.fiks.plan.v2.oppdatering.dispensasjon.oppdater</text><path d="M10,82.7988 L72,82.7988 L72,90.1094 L62,100.1094 L10,100.1094 L10,82.7988 " fill="#EEEEEE" style="stroke:#000000;stroke-width:1.5;"/><rect fill="none" height="328.2832" style="stroke:#000000;stroke-width:1.5;" width="540" x="10" y="82.7988"/><text fill="#000000" font-family="sans-serif" font-size="13" font-weight="bold" lengthAdjust="spacing" textLength="17" x="25" y="96.3672">alt</text><text fill="#000000" font-family="sans-serif" font-size="11" font-weight="bold" lengthAdjust="spacing" textLength="95" x="87" y="95.4336">[Oppdatering ok]</text><text fill="#000000" font-family="sans-serif" font-size="11" lengthAdjust="spacing" textLength="112" x="221.5" y="124.7441">tom mottatt-melding</text><polygon fill="#181818" points="74,158.375,64,162.375,74,166.375,70,162.375" style="stroke:#181818;stroke-width:1.0;"/><line style="stroke:#181818;stroke-width:1.0;" x1="68" x2="491" y1="162.375" y2="162.375"/><text fill="#000000" font-family="sans-serif" font-size="13" lengthAdjust="spacing" textLength="391" x="80" y="157.6328">no.ks.fiks.plan.v2.oppdatering.dispensasjon.oppdater.mottatt</text><text fill="#000000" font-family="sans-serif" font-size="11" lengthAdjust="spacing" textLength="124" x="215.5" y="195.0098">tom kvittering-melding</text><polygon fill="#181818" points="74,228.6406,64,232.6406,74,236.6406,70,232.6406" style="stroke:#181818;stroke-width:1.0;"/><line style="stroke:#181818;stroke-width:1.0;" x1="68" x2="491" y1="232.6406" y2="232.6406"/><text fill="#000000" font-family="sans-serif" font-size="13" lengthAdjust="spacing" textLength="405" x="80" y="227.8984">no.ks.fiks.plan.v2.oppdatering.dispensasjon.oppdater.kvittering</text><line style="stroke:#000000;stroke-width:1.0;stroke-dasharray:2.0,2.0;" x1="10" x2="550" y1="241.6406" y2="241.6406"/><text fill="#000000" font-family="sans-serif" font-size="11" font-weight="bold" lengthAdjust="spacing" textLength="262" x="15" y="252.2754">[Feil: oppdateringsmeldingen var ikke korrekt]</text><text fill="#000000" font-family="sans-serif" font-size="11" lengthAdjust="spacing" textLength="135" x="210" y="280.2305">feil-melding med innhold</text><polygon fill="#181818" points="74,313.8613,64,317.8613,74,321.8613,70,317.8613" style="stroke:#181818;stroke-width:1.0;"/><line style="stroke:#181818;stroke-width:1.0;" x1="68" x2="491" y1="317.8613" y2="317.8613"/><text fill="#000000" font-family="sans-serif" font-size="13" lengthAdjust="spacing" textLength="317" x="80" y="313.1191">no.ks.fiks.plan.v2.feilmelding.ugyldigforespoersel</text><line style="stroke:#000000;stroke-width:1.0;stroke-dasharray:2.0,2.0;" x1="10" x2="550" y1="326.8613" y2="326.8613"/><text fill="#000000" font-family="sans-serif" font-size="11" font-weight="bold" lengthAdjust="spacing" textLength="187" x="15" y="337.4961">[Feil: planregister fikk serverfeil]</text><text fill="#000000" font-family="sans-serif" font-size="11" lengthAdjust="spacing" textLength="135" x="210" y="365.4512">feil-melding med innhold</text><polygon fill="#181818" points="74,399.082,64,403.082,74,407.082,70,403.082" style="stroke:#181818;stroke-width:1.0;"/><line style="stroke:#181818;stroke-width:1.0;" x1="68" x2="491" y1="403.082" y2="403.082"/><text fill="#000000" font-family="sans-serif" font-size="13" lengthAdjust="spacing" textLength="250" x="80" y="398.3398">no.ks.fiks.plan.v2.feilmelding.serverfeil</text><!--SRC=[jOynZWCX34LxJk4BZ8ijesZBQRDNGCB3ie2DC1afjmzeaycaZ9Gq2FJj_nwpzNhHHXccR_X9bYlvqD_r02mO5PVGZz83NBzGId6sXu4zkg25MAt-2M-1CJOrE3t6GA8nYDWaGvRMR6jJfkH60wAPD_nnUWCURuWD6TVG_XS-INrGZA6a13E5T83TejxenB3Q2Y56WYYrKcn3TUdpTq78v20m_qfoG_P5sr5r_-hPN_h5Br99Yr1LIa-2PLS6lIM2KbsfZeuFQkqWXjXT0G00]--></g></svg>