<svg xmlns="http://www.w3.org/2000/svg" xmlns:xlink="http://www.w3.org/1999/xlink" contentStyleType="text/css" data-diagram-type="CLASS" height="186px" preserveAspectRatio="none" style="width:206px;height:186px;background:#FFFFFF;" version="1.1" viewBox="0 0 206 186" width="206px" zoomAndPan="magnify"><defs/><g><!--class FinnArealplanerForFlate--><g class="entity" data-entity="FinnArealplanerForFlate" data-source-line="2" data-uid="ent0002" id="entity_FinnArealplanerForFlate"><rect fill="#F1F1F1" height="64.4883" rx="2.5" ry="2.5" style="stroke:#181818;stroke-width:0.5;" width="192.8564" x="7" y="7"/><ellipse cx="22" cy="23" fill="#ADD1B2" rx="11" ry="11" style="stroke:#181818;stroke-width:1;"/><path d="M24.4731,29.1431 Q23.8921,29.4419 23.2529,29.5913 Q22.6138,29.7407 21.9082,29.7407 Q19.4014,29.7407 18.0815,28.0889 Q16.7617,26.437 16.7617,23.3159 Q16.7617,20.1865 18.0815,18.5347 Q19.4014,16.8828 21.9082,16.8828 Q22.6138,16.8828 23.2612,17.0322 Q23.9087,17.1816 24.4731,17.4805 L24.4731,20.2031 Q23.8423,19.6221 23.2488,19.3523 Q22.6553,19.0825 22.0244,19.0825 Q20.6797,19.0825 19.9949,20.1492 Q19.3101,21.2158 19.3101,23.3159 Q19.3101,25.4077 19.9949,26.4744 Q20.6797,27.541 22.0244,27.541 Q22.6553,27.541 23.2488,27.2712 Q23.8423,27.0015 24.4731,26.4204 Z " fill="#000000"/><text fill="#000000" font-family="sans-serif" font-size="14" lengthAdjust="spacing" textLength="160.8564" x="36" y="28.291">FinnArealplanerForFlate</text><line style="stroke:#181818;stroke-width:0.5;" x1="8" x2="198.8564" y1="39" y2="39"/><ellipse cx="18" cy="52.7441" fill="none" rx="3" ry="3" style="stroke:#038048;stroke-width:1;"/><text fill="#000000" font-family="sans-serif" font-size="14" lengthAdjust="spacing" textLength="71.1416" x="27" y="56.5352">flate: Flate</text><line style="stroke:#181818;stroke-width:0.5;" x1="8" x2="198.8564" y1="63.4883" y2="63.4883"/></g><!--class Flate--><g class="entity" data-entity="Flate" data-source-line="6" data-uid="ent0003" id="entity_Flate"><rect fill="#F1F1F1" height="48" rx="2.5" ry="2.5" style="stroke:#181818;stroke-width:0.5;" width="64.3203" x="71.27" y="131.49"/><ellipse cx="86.27" cy="147.49" fill="#ADD1B2" rx="11" ry="11" style="stroke:#181818;stroke-width:1;"/><path d="M88.7431,153.6331 Q88.1621,153.9319 87.5229,154.0813 Q86.8838,154.2307 86.1782,154.2307 Q83.6714,154.2307 82.3515,152.5789 Q81.0317,150.927 81.0317,147.8059 Q81.0317,144.6765 82.3515,143.0247 Q83.6714,141.3728 86.1782,141.3728 Q86.8838,141.3728 87.5312,141.5222 Q88.1787,141.6716 88.7431,141.9705 L88.7431,144.6931 Q88.1123,144.1121 87.5188,143.8423 Q86.9253,143.5725 86.2944,143.5725 Q84.9497,143.5725 84.2649,144.6392 Q83.5801,145.7058 83.5801,147.8059 Q83.5801,149.8977 84.2649,150.9644 Q84.9497,152.031 86.2944,152.031 Q86.9253,152.031 87.5188,151.7612 Q88.1123,151.4915 88.7431,150.9104 Z " fill="#000000"/><text fill="#000000" font-family="sans-serif" font-size="14" lengthAdjust="spacing" textLength="32.3203" x="100.27" y="152.781">Flate</text><line style="stroke:#181818;stroke-width:0.5;" x1="72.27" x2="134.5903" y1="163.49" y2="163.49"/><line style="stroke:#181818;stroke-width:0.5;" x1="72.27" x2="134.5903" y1="171.49" y2="171.49"/></g><!--link FinnArealplanerForFlate to Flate--><g class="link" data-entity-1="FinnArealplanerForFlate" data-entity-2="Flate" data-source-line="6" data-uid="lnk4" id="link_FinnArealplanerForFlate_Flate"><path codeLine="6" d="M103.43,71.77 C103.43,90.52 103.43,113.92 103.43,131.05" fill="none" id="FinnArealplanerForFlate-Flate" style="stroke:#181818;stroke-width:1;"/></g><!--SRC=[Iyv9B2vMSClCotCiIatCASX9p4ijSiilSij9B4bLgEPI00BjD137IW4inbNBnOLBkQukL0q0]--></g></svg>