<svg xmlns="http://www.w3.org/2000/svg" xmlns:xlink="http://www.w3.org/1999/xlink" contentStyleType="text/css" height="186px" preserveAspectRatio="none" style="width:212px;height:186px;background:#FFFFFF;" version="1.1" viewBox="0 0 212 186" width="212px" zoomAndPan="magnify"><defs/><g><!--class FinnArealplanerForFlate--><g id="elem_FinnArealplanerForFlate"><rect codeLine="2" fill="#F1F1F1" height="64.4883" id="FinnArealplanerForFlate" rx="2.5" ry="2.5" style="stroke:#181818;stroke-width:0.5;" width="198" x="7" y="7"/><ellipse cx="22" cy="23" fill="#ADD1B2" rx="11" ry="11" style="stroke:#181818;stroke-width:1.0;"/><path d="M24.4731,29.1431 Q23.8921,29.4419 23.2529,29.5913 Q22.6138,29.7407 21.9082,29.7407 Q19.4014,29.7407 18.0815,28.0889 Q16.7617,26.437 16.7617,23.3159 Q16.7617,20.1865 18.0815,18.5347 Q19.4014,16.8828 21.9082,16.8828 Q22.6138,16.8828 23.2612,17.0322 Q23.9087,17.1816 24.4731,17.4805 L24.4731,20.2031 Q23.8423,19.6221 23.2488,19.3523 Q22.6553,19.0825 22.0244,19.0825 Q20.6797,19.0825 19.9949,20.1492 Q19.3101,21.2158 19.3101,23.3159 Q19.3101,25.4077 19.9949,26.4744 Q20.6797,27.541 22.0244,27.541 Q22.6553,27.541 23.2488,27.2712 Q23.8423,27.0015 24.4731,26.4204 Z " fill="#000000"/><text fill="#000000" font-family="sans-serif" font-size="14" lengthAdjust="spacing" textLength="166" x="36" y="28.291">FinnArealplanerForFlate</text><line style="stroke:#181818;stroke-width:0.5;" x1="8" x2="204" y1="39" y2="39"/><ellipse cx="18" cy="52.7441" fill="none" rx="3" ry="3" style="stroke:#038048;stroke-width:1.0;"/><text fill="#000000" font-family="sans-serif" font-size="14" lengthAdjust="spacing" textLength="71" x="27" y="56.5352">flate: Flate</text><line style="stroke:#181818;stroke-width:0.5;" x1="8" x2="204" y1="63.4883" y2="63.4883"/></g><!--class Flate--><g id="elem_Flate"><rect fill="#F1F1F1" height="48" id="Flate" rx="2.5" ry="2.5" style="stroke:#181818;stroke-width:0.5;" width="65" x="73.5" y="131.49"/><ellipse cx="88.5" cy="147.49" fill="#ADD1B2" rx="11" ry="11" style="stroke:#181818;stroke-width:1.0;"/><path d="M90.9731,153.6331 Q90.3921,153.9319 89.7529,154.0813 Q89.1138,154.2307 88.4082,154.2307 Q85.9014,154.2307 84.5815,152.5789 Q83.2617,150.927 83.2617,147.8059 Q83.2617,144.6765 84.5815,143.0247 Q85.9014,141.3728 88.4082,141.3728 Q89.1138,141.3728 89.7612,141.5222 Q90.4087,141.6716 90.9731,141.9705 L90.9731,144.6931 Q90.3423,144.1121 89.7488,143.8423 Q89.1553,143.5725 88.5244,143.5725 Q87.1797,143.5725 86.4949,144.6392 Q85.8101,145.7058 85.8101,147.8059 Q85.8101,149.8977 86.4949,150.9644 Q87.1797,152.031 88.5244,152.031 Q89.1553,152.031 89.7488,151.7612 Q90.3423,151.4915 90.9731,150.9104 Z " fill="#000000"/><text fill="#000000" font-family="sans-serif" font-size="14" lengthAdjust="spacing" textLength="33" x="102.5" y="152.781">Flate</text><line style="stroke:#181818;stroke-width:0.5;" x1="74.5" x2="137.5" y1="163.49" y2="163.49"/><line style="stroke:#181818;stroke-width:0.5;" x1="74.5" x2="137.5" y1="171.49" y2="171.49"/></g><!--link FinnArealplanerForFlate to Flate--><g id="link_FinnArealplanerForFlate_Flate"><path codeLine="6" d="M106,71.77 C106,90.52 106,113.92 106,131.05 " fill="none" id="FinnArealplanerForFlate-Flate" style="stroke:#181818;stroke-width:1.0;"/></g><!--SRC=[Iyv9B2vMSClCotCiIatCASX9p4ijSiilSij9B4bLgEPI00BjD137IW4inbNBnOLBkQukL0q0]--></g></svg>