<?xml version="1.0" encoding="us-ascii" standalone="no"?><svg xmlns="http://www.w3.org/2000/svg" xmlns:xlink="http://www.w3.org/1999/xlink" contentStyleType="text/css" height="186px" preserveAspectRatio="none" style="width:716px;height:186px;background:#FFFFFF;" version="1.1" viewBox="0 0 716 186" width="716px" zoomAndPan="magnify"><defs/><g><!--class FinnMidlertidigeForbudMottiltak--><g id="elem_FinnMidlertidigeForbudMottiltak"><rect codeLine="2" fill="#F1F1F1" height="64.4883" id="FinnMidlertidigeForbudMottiltak" rx="2.5" ry="2.5" style="stroke:#181818;stroke-width:0.5;" width="254" x="7" y="7"/><ellipse cx="22" cy="23" fill="#ADD1B2" rx="11" ry="11" style="stroke:#181818;stroke-width:1.0;"/><path d="M24.4731,29.1431 Q23.8921,29.4419 23.2529,29.5913 Q22.6138,29.7407 21.9082,29.7407 Q19.4014,29.7407 18.0815,28.0889 Q16.7617,26.437 16.7617,23.3159 Q16.7617,20.1865 18.0815,18.5347 Q19.4014,16.8828 21.9082,16.8828 Q22.6138,16.8828 23.2612,17.0322 Q23.9087,17.1816 24.4731,17.4805 L24.4731,20.2031 Q23.8423,19.6221 23.2488,19.3523 Q22.6553,19.0825 22.0244,19.0825 Q20.6797,19.0825 19.9949,20.1492 Q19.3101,21.2158 19.3101,23.3159 Q19.3101,25.4077 19.9949,26.4744 Q20.6797,27.541 22.0244,27.541 Q22.6553,27.541 23.2488,27.2712 Q23.8423,27.0015 24.4731,26.4204 Z " fill="#000000"/><text fill="#000000" font-family="sans-serif" font-size="14" lengthAdjust="spacing" textLength="222" x="36" y="28.291">FinnMidlertidigeForbudMottiltak</text><line style="stroke:#181818;stroke-width:0.5;" x1="8" x2="260" y1="39" y2="39"/><ellipse cx="18" cy="52.7441" fill="none" rx="3" ry="3" style="stroke:#038048;stroke-width:1.0;"/><text fill="#000000" font-family="sans-serif" font-size="14" lengthAdjust="spacing" textLength="71" x="27" y="56.5352">flate: Flate</text><line style="stroke:#181818;stroke-width:0.5;" x1="8" x2="260" y1="63.4883" y2="63.4883"/></g><!--class Flate--><g id="elem_Flate"><rect fill="#F1F1F1" height="48" id="Flate" rx="2.5" ry="2.5" style="stroke:#181818;stroke-width:0.5;" width="65" x="285.5" y="131.49"/><ellipse cx="300.5" cy="147.49" fill="#ADD1B2" rx="11" ry="11" style="stroke:#181818;stroke-width:1.0;"/><path d="M302.9731,153.6331 Q302.3921,153.9319 301.7529,154.0813 Q301.1138,154.2307 300.4082,154.2307 Q297.9014,154.2307 296.5815,152.5789 Q295.2617,150.927 295.2617,147.8059 Q295.2617,144.6765 296.5815,143.0247 Q297.9014,141.3728 300.4082,141.3728 Q301.1138,141.3728 301.7612,141.5222 Q302.4087,141.6716 302.9731,141.9705 L302.9731,144.6931 Q302.3423,144.1121 301.7488,143.8423 Q301.1553,143.5725 300.5244,143.5725 Q299.1797,143.5725 298.4949,144.6392 Q297.8101,145.7058 297.8101,147.8059 Q297.8101,149.8977 298.4949,150.9644 Q299.1797,152.031 300.5244,152.031 Q301.1553,152.031 301.7488,151.7612 Q302.3423,151.4915 302.9731,150.9104 Z " fill="#000000"/><text fill="#000000" font-family="sans-serif" font-size="14" lengthAdjust="spacing" textLength="33" x="314.5" y="152.781">Flate</text><line style="stroke:#181818;stroke-width:0.5;" x1="286.5" x2="349.5" y1="163.49" y2="163.49"/><line style="stroke:#181818;stroke-width:0.5;" x1="286.5" x2="349.5" y1="171.49" y2="171.49"/></g><g id="elem_GMN5"><path d="M296.5,26.59 L296.5,51.9005 A0,0 0 0 0 296.5,51.9005 L479.55,51.9005 L350.82,134.22 L487.55,51.9005 L709.5,51.9005 A0,0 0 0 0 709.5,51.9005 L709.5,36.59 L699.5,26.59 L296.5,26.59 A0,0 0 0 0 296.5,26.59 " fill="#FEFFDD" style="stroke:#181818;stroke-width:0.5;"/><path d="M699.5,26.59 L699.5,36.59 L709.5,36.59 L699.5,26.59 " fill="#FEFFDD" style="stroke:#181818;stroke-width:0.5;"/><text fill="#000000" font-family="sans-serif" font-size="13" lengthAdjust="spacing" textLength="392" x="302.5" y="44.1584">Se detaljer i diagram for skjema 'no.ks.fiks.plan.v2.felles.flate'</text></g><!--link FinnMidlertidigeForbudMottiltak to Flate--><g id="link_FinnMidlertidigeForbudMottiltak_Flate"><path codeLine="6" d="M184.77,71.77 C216.78,91.65 257.2,116.74 285.08,134.05 " fill="none" id="FinnMidlertidigeForbudMottiltak-Flate" style="stroke:#181818;stroke-width:1.0;"/></g><!--SRC=[XOon3i8m44FtV8Kt1jGCZFs0RftuWeDSgcklkIevM13_JYlOyM1BJxRlIgrXa596IShL9Sd4WzNR8utcBkgqu1MmwvoLd7iCHuHt2FzcNVVhXcBESDjW-OlGuyf8xAGpLmYIq5HfHRQAjioy4ax5uj9YbjqsfHAVbvXPbNTsV9p21m00]--></g></svg>