<svg xmlns="http://www.w3.org/2000/svg" xmlns:xlink="http://www.w3.org/1999/xlink" contentStyleType="text/css" data-diagram-type="CLASS" height="385px" preserveAspectRatio="none" style="width:499px;height:385px;background:#FFFFFF;" version="1.1" viewBox="0 0 499 385" width="499px" zoomAndPan="magnify"><defs/><g><!--class Flate--><g class="entity" data-entity="Flate" data-source-line="1" data-uid="ent0002" id="entity_Flate"><rect fill="#F1F1F1" height="97.4648" rx="2.5" ry="2.5" style="stroke:#181818;stroke-width:0.5;" width="262.4551" x="75.32" y="131.49"/><ellipse cx="186.1374" cy="147.49" fill="#ADD1B2" rx="11" ry="11" style="stroke:#181818;stroke-width:1;"/><path d="M188.6105,153.6331 Q188.0295,153.9319 187.3903,154.0813 Q186.7512,154.2307 186.0456,154.2307 Q183.5388,154.2307 182.2189,152.5789 Q180.8991,150.927 180.8991,147.8059 Q180.8991,144.6765 182.2189,143.0247 Q183.5388,141.3728 186.0456,141.3728 Q186.7512,141.3728 187.3986,141.5222 Q188.0461,141.6716 188.6105,141.9705 L188.6105,144.6931 Q187.9797,144.1121 187.3862,143.8423 Q186.7927,143.5725 186.1618,143.5725 Q184.8171,143.5725 184.1323,144.6392 Q183.4474,145.7058 183.4474,147.8059 Q183.4474,149.8977 184.1323,150.9644 Q184.8171,152.031 186.1618,152.031 Q186.7927,152.031 187.3862,151.7612 Q187.9797,151.4915 188.6105,150.9104 Z " fill="#000000"/><text fill="#000000" font-family="sans-serif" font-size="14" lengthAdjust="spacing" textLength="32.3203" x="206.6374" y="152.781">Flate</text><line style="stroke:#181818;stroke-width:0.5;" x1="76.32" x2="336.7751" y1="163.49" y2="163.49"/><ellipse cx="86.32" cy="177.2341" fill="none" rx="3" ry="3" style="stroke:#038048;stroke-width:1;"/><text fill="#000000" font-family="sans-serif" font-size="14" lengthAdjust="spacing" textLength="103.1201" x="95.32" y="181.0252">type: FlateType</text><ellipse cx="86.32" cy="193.7224" fill="none" rx="3" ry="3" style="stroke:#038048;stroke-width:1;"/><text fill="#000000" font-family="sans-serif" font-size="14" lengthAdjust="spacing" textLength="163.7002" x="95.32" y="197.5134">koordinater: Koordinat[]</text><ellipse cx="86.32" cy="210.2107" fill="none" rx="3" ry="3" style="stroke:#038048;stroke-width:1;"/><text fill="#000000" font-family="sans-serif" font-size="14" lengthAdjust="spacing" textLength="236.4551" x="95.32" y="214.0017">koordinatsystem: Koordinatsystem</text><line style="stroke:#181818;stroke-width:0.5;" x1="76.32" x2="336.7751" y1="220.9548" y2="220.9548"/></g><!--class FlateType--><g class="entity" data-entity="FlateType" data-source-line="7" data-uid="ent0003" id="entity_FlateType"><rect fill="#F1F1F1" height="64.4883" rx="2.5" ry="2.5" style="stroke:#181818;stroke-width:0.5;" width="97.0986" x="7" y="301.51"/><ellipse cx="22" cy="317.51" fill="#EB937F" rx="11" ry="11" style="stroke:#181818;stroke-width:1;"/><path d="M25.6143,324.01 L17.8945,324.01 L17.8945,311.6169 L25.6143,311.6169 L25.6143,313.7751 L20.3433,313.7751 L20.3433,316.448 L25.1162,316.448 L25.1162,318.6062 L20.3433,318.6062 L20.3433,321.8518 L25.6143,321.8518 Z " fill="#000000"/><text fill="#000000" font-family="sans-serif" font-size="14" lengthAdjust="spacing" textLength="65.0986" x="36" y="322.801">FlateType</text><line style="stroke:#181818;stroke-width:0.5;" x1="8" x2="103.0986" y1="333.51" y2="333.51"/><text fill="#000000" font-family="sans-serif" font-size="14" lengthAdjust="spacing" textLength="53.7168" x="13" y="351.0452">Polygon</text><line style="stroke:#181818;stroke-width:0.5;" x1="8" x2="103.0986" y1="357.9983" y2="357.9983"/></g><!--class Koordinat--><g class="entity" data-entity="Koordinat" data-source-line="8" data-uid="ent0005" id="entity_Koordinat"><rect fill="#F1F1F1" height="64.4883" rx="2.5" ry="2.5" style="stroke:#181818;stroke-width:0.5;" width="134.042" x="139.53" y="301.51"/><ellipse cx="170.487" cy="317.51" fill="#ADD1B2" rx="11" ry="11" style="stroke:#181818;stroke-width:1;"/><path d="M172.9601,323.6531 Q172.3791,323.9519 171.7399,324.1013 Q171.1008,324.2507 170.3952,324.2507 Q167.8883,324.2507 166.5685,322.5989 Q165.2487,320.947 165.2487,317.8259 Q165.2487,314.6965 166.5685,313.0447 Q167.8883,311.3928 170.3952,311.3928 Q171.1008,311.3928 171.7482,311.5422 Q172.3957,311.6916 172.9601,311.9905 L172.9601,314.7131 Q172.3293,314.1321 171.7358,313.8623 Q171.1423,313.5925 170.5114,313.5925 Q169.1667,313.5925 168.4819,314.6592 Q167.797,315.7258 167.797,317.8259 Q167.797,319.9177 168.4819,320.9844 Q169.1667,322.051 170.5114,322.051 Q171.1423,322.051 171.7358,321.7812 Q172.3293,321.5115 172.9601,320.9304 Z " fill="#000000"/><text fill="#000000" font-family="sans-serif" font-size="14" lengthAdjust="spacing" textLength="66.582" x="188.033" y="322.801">Koordinat</text><line style="stroke:#181818;stroke-width:0.5;" x1="140.53" x2="272.572" y1="333.51" y2="333.51"/><ellipse cx="150.53" cy="347.2541" fill="none" rx="3" ry="3" style="stroke:#038048;stroke-width:1;"/><text fill="#000000" font-family="sans-serif" font-size="14" lengthAdjust="spacing" textLength="108.042" x="159.53" y="351.0452">items: number[]</text><line style="stroke:#181818;stroke-width:0.5;" x1="140.53" x2="272.572" y1="357.9983" y2="357.9983"/></g><!--class Koordinatsystem--><g class="entity" data-entity="Koordinatsystem" data-source-line="9" data-uid="ent0007" id="entity_Koordinatsystem"><rect fill="#F1F1F1" height="89.5977" rx="2.5" ry="2.5" style="stroke:#181818;stroke-width:0.5;" width="183.5547" x="308.77" y="288.95"/><ellipse cx="340.5452" cy="309.2605" fill="#ADD1B2" rx="11" ry="11" style="stroke:#181818;stroke-width:1;"/><path d="M343.0184,315.4036 Q342.4373,315.7024 341.7982,315.8519 Q341.159,316.0013 340.4534,316.0013 Q337.9466,316.0013 336.6268,314.3494 Q335.307,312.6976 335.307,309.5765 Q335.307,306.4471 336.6268,304.7952 Q337.9466,303.1434 340.4534,303.1434 Q341.159,303.1434 341.8065,303.2928 Q342.4539,303.4422 343.0184,303.741 L343.0184,306.4637 Q342.3875,305.8826 341.794,305.6128 Q341.2005,305.3431 340.5697,305.3431 Q339.2249,305.3431 338.5401,306.4097 Q337.8553,307.4764 337.8553,309.5765 Q337.8553,311.6683 338.5401,312.7349 Q339.2249,313.8016 340.5697,313.8016 Q341.2005,313.8016 341.794,313.5318 Q342.3875,313.262 343.0184,312.681 Z " fill="#000000"/><text fill="#000000" font-family="sans-serif" font-size="12" font-style="italic" lengthAdjust="spacing" textLength="42.0176" x="394.4025" y="305.5516">&#171;Kode&#187;</text><text fill="#000000" font-family="sans-serif" font-size="14" lengthAdjust="spacing" textLength="114.2764" x="358.2731" y="321.618">Koordinatsystem</text><line style="stroke:#181818;stroke-width:0.5;" x1="309.77" x2="491.3247" y1="329.5711" y2="329.5711"/><ellipse cx="319.77" cy="343.3152" fill="none" rx="3" ry="3" style="stroke:#038048;stroke-width:1;"/><text fill="#000000" font-family="sans-serif" font-size="14" lengthAdjust="spacing" textLength="115.4521" x="328.77" y="347.1063">kodeverdi: string</text><ellipse cx="319.77" cy="359.8035" fill="none" rx="3" ry="3" style="stroke:#038048;stroke-width:1;"/><text fill="#000000" font-family="sans-serif" font-size="14" lengthAdjust="spacing" textLength="157.5547" x="328.77" y="363.5945">kodebeskrivelse: string</text><line style="stroke:#181818;stroke-width:0.5;" x1="309.77" x2="491.3247" y1="370.5477" y2="370.5477"/></g><!--class FinnMidlertidigeForbudMottiltak--><g class="entity" data-entity="FinnMidlertidigeForbudMottiltak" data-source-line="3" data-uid="ent0009" id="entity_FinnMidlertidigeForbudMottiltak"><rect fill="#F1F1F1" height="64.4883" rx="2.5" ry="2.5" style="stroke:#181818;stroke-width:0.5;" width="250.6133" x="81.24" y="7"/><ellipse cx="96.24" cy="23" fill="#ADD1B2" rx="11" ry="11" style="stroke:#181818;stroke-width:1;"/><path d="M98.7131,29.1431 Q98.1321,29.4419 97.4929,29.5913 Q96.8538,29.7407 96.1482,29.7407 Q93.6414,29.7407 92.3215,28.0889 Q91.0017,26.437 91.0017,23.3159 Q91.0017,20.1865 92.3215,18.5347 Q93.6414,16.8828 96.1482,16.8828 Q96.8538,16.8828 97.5012,17.0322 Q98.1487,17.1816 98.7131,17.4805 L98.7131,20.2031 Q98.0823,19.6221 97.4888,19.3523 Q96.8953,19.0825 96.2644,19.0825 Q94.9197,19.0825 94.2349,20.1492 Q93.5501,21.2158 93.5501,23.3159 Q93.5501,25.4077 94.2349,26.4744 Q94.9197,27.541 96.2644,27.541 Q96.8953,27.541 97.4888,27.2712 Q98.0823,27.0015 98.7131,26.4204 Z " fill="#000000"/><text fill="#000000" font-family="sans-serif" font-size="14" lengthAdjust="spacing" textLength="218.6133" x="110.24" y="28.291">FinnMidlertidigeForbudMottiltak</text><line style="stroke:#181818;stroke-width:0.5;" x1="82.24" x2="330.8533" y1="39" y2="39"/><ellipse cx="92.24" cy="52.7441" fill="none" rx="3" ry="3" style="stroke:#038048;stroke-width:1;"/><text fill="#000000" font-family="sans-serif" font-size="14" lengthAdjust="spacing" textLength="71.1416" x="101.24" y="56.5352">flate: Flate</text><line style="stroke:#181818;stroke-width:0.5;" x1="82.24" x2="330.8533" y1="63.4883" y2="63.4883"/></g><!--link Flate to FlateType--><g class="link" data-entity-1="Flate" data-entity-2="FlateType" data-source-line="7" data-uid="lnk4" id="link_Flate_FlateType"><path codeLine="7" d="M158.77,229.17 C135.27,252.75 107.61,280.51 86.84,301.35" fill="none" id="Flate-FlateType" style="stroke:#181818;stroke-width:1;"/></g><!--link Flate to Koordinat--><g class="link" data-entity-1="Flate" data-entity-2="Koordinat" data-source-line="8" data-uid="lnk6" id="link_Flate_Koordinat"><path codeLine="8" d="M206.55,229.17 C206.55,252.75 206.55,280.51 206.55,301.35" fill="none" id="Flate-Koordinat" style="stroke:#181818;stroke-width:1;"/></g><!--link Flate to Koordinatsystem--><g class="link" data-entity-1="Flate" data-entity-2="Koordinatsystem" data-source-line="9" data-uid="lnk8" id="link_Flate_Koordinatsystem"><path codeLine="9" d="M268.2,229.37 C292.5,248.35 320.22,270.01 344,288.58" fill="none" id="Flate-Koordinatsystem" style="stroke:#181818;stroke-width:1;"/></g><!--link FinnMidlertidigeForbudMottiltak to Flate--><g class="link" data-entity-1="FinnMidlertidigeForbudMottiltak" data-entity-2="Flate" data-source-line="7" data-uid="lnk10" id="link_FinnMidlertidigeForbudMottiltak_Flate"><path codeLine="7" d="M206.55,71.78 C206.55,89.32 206.55,111.51 206.55,131.17" fill="none" id="FinnMidlertidigeForbudMottiltak-Flate" style="stroke:#181818;stroke-width:1;"/></g><!--SRC=[XOin2iCm34LtdKATGsJec0Duoo7SM2aYGWwntANqxd53z_xXVVZyTnDRj6L62aJ12csLLkdODHczxhIoAlTDatEuI7i3M3JLYb7CPidAXqkM9yToF5gUYxkefmtVW3t3fKqOlmKVW7_QEFw-9m00]--></g></svg>