<?xml version="1.0" encoding="us-ascii" standalone="no"?><svg xmlns="http://www.w3.org/2000/svg" xmlns:xlink="http://www.w3.org/1999/xlink" contentStyleType="text/css" height="186px" preserveAspectRatio="none" style="width:865px;height:186px;background:#FFFFFF;" version="1.1" viewBox="0 0 865 186" width="865px" zoomAndPan="magnify"><defs/><g><!--class HentRelatertePlaner--><g id="elem_HentRelatertePlaner"><rect codeLine="2" fill="#F1F1F1" height="64.4883" id="HentRelatertePlaner" rx="2.5" ry="2.5" style="stroke:#181818;stroke-width:0.5;" width="309" x="7" y="7"/><ellipse cx="89.25" cy="23" fill="#ADD1B2" rx="11" ry="11" style="stroke:#181818;stroke-width:1.0;"/><path d="M91.7231,29.1431 Q91.1421,29.4419 90.5029,29.5913 Q89.8638,29.7407 89.1582,29.7407 Q86.6514,29.7407 85.3315,28.0889 Q84.0117,26.437 84.0117,23.3159 Q84.0117,20.1865 85.3315,18.5347 Q86.6514,16.8828 89.1582,16.8828 Q89.8638,16.8828 90.5112,17.0322 Q91.1587,17.1816 91.7231,17.4805 L91.7231,20.2031 Q91.0923,19.6221 90.4988,19.3523 Q89.9053,19.0825 89.2744,19.0825 Q87.9297,19.0825 87.2449,20.1492 Q86.5601,21.2158 86.5601,23.3159 Q86.5601,25.4077 87.2449,26.4744 Q87.9297,27.541 89.2744,27.541 Q89.9053,27.541 90.4988,27.2712 Q91.0923,27.0015 91.7231,26.4204 Z " fill="#000000"/><text fill="#000000" font-family="sans-serif" font-size="14" lengthAdjust="spacing" textLength="136" x="109.75" y="28.291">HentRelatertePlaner</text><line style="stroke:#181818;stroke-width:0.5;" x1="8" x2="315" y1="39" y2="39"/><ellipse cx="18" cy="52.7441" fill="none" rx="3" ry="3" style="stroke:#038048;stroke-width:1.0;"/><text fill="#000000" font-family="sans-serif" font-size="14" lengthAdjust="spacing" textLength="283" x="27" y="56.5352">nasjonalArealplanId: NasjonalArealplanId</text><line style="stroke:#181818;stroke-width:0.5;" x1="8" x2="315" y1="63.4883" y2="63.4883"/></g><!--class NasjonalArealplanId--><g id="elem_NasjonalArealplanId"><rect fill="#F1F1F1" height="48" id="NasjonalArealplanId" rx="2.5" ry="2.5" style="stroke:#181818;stroke-width:0.5;" width="170" x="297.5" y="131.49"/><ellipse cx="312.5" cy="147.49" fill="#ADD1B2" rx="11" ry="11" style="stroke:#181818;stroke-width:1.0;"/><path d="M314.9731,153.6331 Q314.3921,153.9319 313.7529,154.0813 Q313.1138,154.2307 312.4082,154.2307 Q309.9014,154.2307 308.5815,152.5789 Q307.2617,150.927 307.2617,147.8059 Q307.2617,144.6765 308.5815,143.0247 Q309.9014,141.3728 312.4082,141.3728 Q313.1138,141.3728 313.7612,141.5222 Q314.4087,141.6716 314.9731,141.9705 L314.9731,144.6931 Q314.3423,144.1121 313.7488,143.8423 Q313.1553,143.5725 312.5244,143.5725 Q311.1797,143.5725 310.4949,144.6392 Q309.8101,145.7058 309.8101,147.8059 Q309.8101,149.8977 310.4949,150.9644 Q311.1797,152.031 312.5244,152.031 Q313.1553,152.031 313.7488,151.7612 Q314.3423,151.4915 314.9731,150.9104 Z " fill="#000000"/><text fill="#000000" font-family="sans-serif" font-size="14" lengthAdjust="spacing" textLength="138" x="326.5" y="152.781">NasjonalArealplanId</text><line style="stroke:#181818;stroke-width:0.5;" x1="298.5" x2="466.5" y1="163.49" y2="163.49"/><line style="stroke:#181818;stroke-width:0.5;" x1="298.5" x2="466.5" y1="171.49" y2="171.49"/></g><g id="elem_GMN5"><path d="M351,26.59 L351,51.9005 A0,0 0 0 0 351,51.9005 L577.16,51.9005 L428.17,130.99 L585.16,51.9005 L858,51.9005 A0,0 0 0 0 858,51.9005 L858,36.59 L848,26.59 L351,26.59 A0,0 0 0 0 351,26.59 " fill="#FEFFDD" style="stroke:#181818;stroke-width:0.5;"/><path d="M848,26.59 L848,36.59 L858,36.59 L848,26.59 " fill="#FEFFDD" style="stroke:#181818;stroke-width:0.5;"/><text fill="#000000" font-family="sans-serif" font-size="13" lengthAdjust="spacing" textLength="486" x="357" y="44.1584">Se detaljer i diagram for skjema 'no.ks.fiks.plan.v2.felles.nasjonalarealplanid'</text></g><!--link HentRelatertePlaner to NasjonalArealplanId--><g id="link_HentRelatertePlaner_NasjonalArealplanId"><path codeLine="6" d="M222.77,71.92 C259.05,90.67 304.22,114.03 337.27,131.11 " fill="none" id="HentRelatertePlaner-NasjonalArealplanId" style="stroke:#181818;stroke-width:1.0;"/></g><!--SRC=[ROun3i8m34NtdE9l7L0pC7PZWmKXE85579JKTQeaweAuEs7eHFxWmNv- -a-XKd1chNSMgfmhtuIKCzu6BGUb4fEId3AJhErqSHEk_qlpCQQd6SSkRJHLHaqhaky1cF1WEAuaiLa2NA1NfWK-PPGvya8ODDcvM1_Q-7tPxMWzYt2nUslQZS4DvWi0]--></g></svg>