<svg xmlns="http://www.w3.org/2000/svg" xmlns:xlink="http://www.w3.org/1999/xlink" contentStyleType="text/css" height="467px" preserveAspectRatio="none" style="width:1006px;height:467px;background:#FFFFFF;" version="1.1" viewBox="0 0 1006 467" width="1006px" zoomAndPan="magnify"><defs/><g><!--class Saksnummer--><g id="elem_Saksnummer"><rect codeLine="2" fill="#F1F1F1" height="80.9766" id="Saksnummer" rx="2.5" ry="2.5" style="stroke:#181818;stroke-width:0.5;" width="225" x="7" y="222.17"/><ellipse cx="70.75" cy="238.17" fill="#ADD1B2" rx="11" ry="11" style="stroke:#181818;stroke-width:1.0;"/><path d="M73.2231,244.3131 Q72.6421,244.6119 72.0029,244.7613 Q71.3638,244.9107 70.6582,244.9107 Q68.1514,244.9107 66.8315,243.2589 Q65.5117,241.607 65.5117,238.4859 Q65.5117,235.3565 66.8315,233.7047 Q68.1514,232.0528 70.6582,232.0528 Q71.3638,232.0528 72.0112,232.2022 Q72.6587,232.3516 73.2231,232.6505 L73.2231,235.3731 Q72.5923,234.7921 71.9988,234.5223 Q71.4053,234.2525 70.7744,234.2525 Q69.4297,234.2525 68.7449,235.3192 Q68.0601,236.3858 68.0601,238.4859 Q68.0601,240.5777 68.7449,241.6444 Q69.4297,242.711 70.7744,242.711 Q71.4053,242.711 71.9988,242.4412 Q72.5923,242.1715 73.2231,241.5904 Z " fill="#000000"/><text fill="#000000" font-family="sans-serif" font-size="14" lengthAdjust="spacing" textLength="89" x="91.25" y="243.461">Saksnummer</text><line style="stroke:#181818;stroke-width:0.5;" x1="8" x2="231" y1="254.17" y2="254.17"/><ellipse cx="18" cy="267.9141" fill="none" rx="3" ry="3" style="stroke:#038048;stroke-width:1.0;"/><text fill="#000000" font-family="sans-serif" font-size="14" lengthAdjust="spacing" textLength="109" x="27" y="271.7052">saksaar: integer</text><ellipse cx="18" cy="284.4024" fill="none" rx="3" ry="3" style="stroke:#038048;stroke-width:1.0;"/><text fill="#000000" font-family="sans-serif" font-size="14" lengthAdjust="spacing" textLength="199" x="27" y="288.1934">sakssekvensnummer: integer</text><line style="stroke:#181818;stroke-width:0.5;" x1="8" x2="231" y1="295.1466" y2="295.1466"/></g><!--class Flate--><g id="elem_Flate"><rect codeLine="1" fill="#F1F1F1" height="97.4648" id="Flate" rx="2.5" ry="2.5" style="stroke:#181818;stroke-width:0.5;" width="263" x="267" y="213.93"/><ellipse cx="377.75" cy="229.93" fill="#ADD1B2" rx="11" ry="11" style="stroke:#181818;stroke-width:1.0;"/><path d="M380.2231,236.0731 Q379.6421,236.3719 379.0029,236.5213 Q378.3638,236.6707 377.6582,236.6707 Q375.1514,236.6707 373.8315,235.0189 Q372.5117,233.367 372.5117,230.2459 Q372.5117,227.1165 373.8315,225.4647 Q375.1514,223.8128 377.6582,223.8128 Q378.3638,223.8128 379.0112,223.9622 Q379.6587,224.1116 380.2231,224.4105 L380.2231,227.1331 Q379.5923,226.5521 378.9988,226.2823 Q378.4053,226.0125 377.7744,226.0125 Q376.4297,226.0125 375.7449,227.0792 Q375.0601,228.1458 375.0601,230.2459 Q375.0601,232.3377 375.7449,233.4044 Q376.4297,234.471 377.7744,234.471 Q378.4053,234.471 378.9988,234.2012 Q379.5923,233.9315 380.2231,233.3504 Z " fill="#000000"/><text fill="#000000" font-family="sans-serif" font-size="14" lengthAdjust="spacing" textLength="33" x="398.25" y="235.221">Flate</text><line style="stroke:#181818;stroke-width:0.5;" x1="268" x2="529" y1="245.93" y2="245.93"/><ellipse cx="278" cy="259.6741" fill="none" rx="3" ry="3" style="stroke:#038048;stroke-width:1.0;"/><text fill="#000000" font-family="sans-serif" font-size="14" lengthAdjust="spacing" textLength="103" x="287" y="263.4652">type: FlateType</text><ellipse cx="278" cy="276.1624" fill="none" rx="3" ry="3" style="stroke:#038048;stroke-width:1.0;"/><text fill="#000000" font-family="sans-serif" font-size="14" lengthAdjust="spacing" textLength="167" x="287" y="279.9534">koordinater: Koordinat[]</text><ellipse cx="278" cy="292.6507" fill="none" rx="3" ry="3" style="stroke:#038048;stroke-width:1.0;"/><text fill="#000000" font-family="sans-serif" font-size="14" lengthAdjust="spacing" textLength="237" x="287" y="296.4417">koordinatsystem: Koordinatsystem</text><line style="stroke:#181818;stroke-width:0.5;" x1="268" x2="529" y1="303.3948" y2="303.3948"/></g><!--class FlateType--><g id="elem_FlateType"><rect codeLine="11" fill="#F1F1F1" height="64.4883" id="FlateType" rx="2.5" ry="2.5" style="stroke:#181818;stroke-width:0.5;" width="98" x="198.5" y="383.95"/><ellipse cx="213.5" cy="399.95" fill="#EB937F" rx="11" ry="11" style="stroke:#181818;stroke-width:1.0;"/><path d="M217.1143,406.45 L209.3945,406.45 L209.3945,394.0569 L217.1143,394.0569 L217.1143,396.2151 L211.8433,396.2151 L211.8433,398.888 L216.6162,398.888 L216.6162,401.0462 L211.8433,401.0462 L211.8433,404.2918 L217.1143,404.2918 Z " fill="#000000"/><text fill="#000000" font-family="sans-serif" font-size="14" lengthAdjust="spacing" textLength="66" x="227.5" y="405.241">FlateType</text><line style="stroke:#181818;stroke-width:0.5;" x1="199.5" x2="295.5" y1="415.95" y2="415.95"/><text fill="#000000" font-family="sans-serif" font-size="14" lengthAdjust="spacing" textLength="55" x="204.5" y="433.4852">Polygon</text><line style="stroke:#181818;stroke-width:0.5;" x1="199.5" x2="295.5" y1="440.4383" y2="440.4383"/></g><!--class Koordinat--><g id="elem_Koordinat"><rect codeLine="15" fill="#F1F1F1" height="64.4883" id="Koordinat" rx="2.5" ry="2.5" style="stroke:#181818;stroke-width:0.5;" width="135" x="331" y="383.95"/><ellipse cx="361.75" cy="399.95" fill="#ADD1B2" rx="11" ry="11" style="stroke:#181818;stroke-width:1.0;"/><path d="M364.2231,406.0931 Q363.6421,406.3919 363.0029,406.5413 Q362.3638,406.6907 361.6582,406.6907 Q359.1514,406.6907 357.8315,405.0389 Q356.5117,403.387 356.5117,400.2659 Q356.5117,397.1365 357.8315,395.4847 Q359.1514,393.8328 361.6582,393.8328 Q362.3638,393.8328 363.0112,393.9822 Q363.6587,394.1316 364.2231,394.4305 L364.2231,397.1531 Q363.5923,396.5721 362.9988,396.3023 Q362.4053,396.0325 361.7744,396.0325 Q360.4297,396.0325 359.7449,397.0992 Q359.0601,398.1658 359.0601,400.2659 Q359.0601,402.3577 359.7449,403.4244 Q360.4297,404.491 361.7744,404.491 Q362.4053,404.491 362.9988,404.2212 Q363.5923,403.9515 364.2231,403.3704 Z " fill="#000000"/><text fill="#000000" font-family="sans-serif" font-size="14" lengthAdjust="spacing" textLength="68" x="379.25" y="405.241">Koordinat</text><line style="stroke:#181818;stroke-width:0.5;" x1="332" x2="465" y1="415.95" y2="415.95"/><ellipse cx="342" cy="429.6941" fill="none" rx="3" ry="3" style="stroke:#038048;stroke-width:1.0;"/><text fill="#000000" font-family="sans-serif" font-size="14" lengthAdjust="spacing" textLength="109" x="351" y="433.4852">items: number[]</text><line style="stroke:#181818;stroke-width:0.5;" x1="332" x2="465" y1="440.4383" y2="440.4383"/></g><!--class Koordinatsystem--><g id="elem_Koordinatsystem"><rect codeLine="19" fill="#F1F1F1" height="89.5977" id="Koordinatsystem" rx="2.5" ry="2.5" style="stroke:#181818;stroke-width:0.5;" width="184" x="501.5" y="371.39"/><ellipse cx="533.15" cy="391.7005" fill="#ADD1B2" rx="11" ry="11" style="stroke:#181818;stroke-width:1.0;"/><path d="M535.6231,397.8436 Q535.0421,398.1424 534.4029,398.2919 Q533.7638,398.4413 533.0582,398.4413 Q530.5514,398.4413 529.2315,396.7894 Q527.9117,395.1376 527.9117,392.0165 Q527.9117,388.8871 529.2315,387.2352 Q530.5514,385.5834 533.0582,385.5834 Q533.7638,385.5834 534.4112,385.7328 Q535.0587,385.8822 535.6231,386.181 L535.6231,388.9037 Q534.9923,388.3226 534.3988,388.0528 Q533.8053,387.7831 533.1744,387.7831 Q531.8297,387.7831 531.1449,388.8497 Q530.4601,389.9164 530.4601,392.0165 Q530.4601,394.1083 531.1449,395.1749 Q531.8297,396.2416 533.1744,396.2416 Q533.8053,396.2416 534.3988,395.9718 Q534.9923,395.702 535.6231,395.121 Z " fill="#000000"/><text fill="#000000" font-family="sans-serif" font-size="12" font-style="italic" lengthAdjust="spacing" textLength="42" x="587.35" y="387.9916">&#171;Kode&#187;</text><text fill="#000000" font-family="sans-serif" font-size="14" lengthAdjust="spacing" textLength="115" x="550.85" y="404.058">Koordinatsystem</text><line style="stroke:#181818;stroke-width:0.5;" x1="502.5" x2="684.5" y1="412.0111" y2="412.0111"/><ellipse cx="512.5" cy="425.7552" fill="none" rx="3" ry="3" style="stroke:#038048;stroke-width:1.0;"/><text fill="#000000" font-family="sans-serif" font-size="14" lengthAdjust="spacing" textLength="116" x="521.5" y="429.5463">kodeverdi: string</text><ellipse cx="512.5" cy="442.2435" fill="none" rx="3" ry="3" style="stroke:#038048;stroke-width:1.0;"/><text fill="#000000" font-family="sans-serif" font-size="14" lengthAdjust="spacing" textLength="158" x="521.5" y="446.0345">kodebeskrivelse: string</text><line style="stroke:#181818;stroke-width:0.5;" x1="502.5" x2="684.5" y1="452.9877" y2="452.9877"/></g><!--class MidlertidigForbud--><g id="elem_MidlertidigForbud"><rect codeLine="4" fill="#F1F1F1" height="146.9297" id="MidlertidigForbud" rx="2.5" ry="2.5" style="stroke:#181818;stroke-width:0.5;" width="311" x="243" y="7"/><ellipse cx="332.25" cy="23" fill="#ADD1B2" rx="11" ry="11" style="stroke:#181818;stroke-width:1.0;"/><path d="M334.7231,29.1431 Q334.1421,29.4419 333.5029,29.5913 Q332.8638,29.7407 332.1582,29.7407 Q329.6514,29.7407 328.3315,28.0889 Q327.0117,26.437 327.0117,23.3159 Q327.0117,20.1865 328.3315,18.5347 Q329.6514,16.8828 332.1582,16.8828 Q332.8638,16.8828 333.5112,17.0322 Q334.1587,17.1816 334.7231,17.4805 L334.7231,20.2031 Q334.0923,19.6221 333.4988,19.3523 Q332.9053,19.0825 332.2744,19.0825 Q330.9297,19.0825 330.2449,20.1492 Q329.5601,21.2158 329.5601,23.3159 Q329.5601,25.4077 330.2449,26.4744 Q330.9297,27.541 332.2744,27.541 Q332.9053,27.541 333.4988,27.2712 Q334.0923,27.0015 334.7231,26.4204 Z " fill="#000000"/><text fill="#000000" font-family="sans-serif" font-size="14" lengthAdjust="spacing" textLength="124" x="352.75" y="28.291">MidlertidigForbud</text><line style="stroke:#181818;stroke-width:0.5;" x1="244" x2="553" y1="39" y2="39"/><ellipse cx="254" cy="52.7441" fill="none" rx="3" ry="3" style="stroke:#038048;stroke-width:1.0;"/><text fill="#000000" font-family="sans-serif" font-size="14" lengthAdjust="spacing" textLength="102" x="263" y="56.5352">omraade: Flate</text><ellipse cx="254" cy="69.2324" fill="none" rx="3" ry="3" style="stroke:#038048;stroke-width:1.0;"/><text fill="#000000" font-family="sans-serif" font-size="14" lengthAdjust="spacing" textLength="185" x="263" y="73.0234">saksnummer: Saksnummer</text><ellipse cx="254" cy="85.7207" fill="none" rx="3" ry="3" style="stroke:#038048;stroke-width:1.0;"/><text fill="#000000" font-family="sans-serif" font-size="14" lengthAdjust="spacing" textLength="147" x="263" y="89.5117">avgjoerelsedato: date</text><ellipse cx="254" cy="102.209" fill="none" rx="3" ry="3" style="stroke:#038048;stroke-width:1.0;"/><text fill="#000000" font-family="sans-serif" font-size="14" lengthAdjust="spacing" textLength="285" x="263" y="106">pblTiltakForbudtype: PblTiltakForbudtype</text><ellipse cx="254" cy="118.6973" fill="none" rx="3" ry="3" style="stroke:#038048;stroke-width:1.0;"/><text fill="#000000" font-family="sans-serif" font-size="14" lengthAdjust="spacing" textLength="129" x="263" y="122.4883">gyldigTilDato: date</text><ellipse cx="254" cy="135.1855" fill="none" rx="3" ry="3" style="stroke:#038048;stroke-width:1.0;"/><text fill="#000000" font-family="sans-serif" font-size="14" lengthAdjust="spacing" textLength="142" x="263" y="138.9766">omraadenavn: string</text><line style="stroke:#181818;stroke-width:0.5;" x1="244" x2="553" y1="145.9297" y2="145.9297"/></g><!--class PblTiltakForbudtype--><g id="elem_PblTiltakForbudtype"><rect codeLine="17" fill="#F1F1F1" height="89.5977" id="PblTiltakForbudtype" rx="2.5" ry="2.5" style="stroke:#181818;stroke-width:0.5;" width="184" x="565.5" y="217.86"/><ellipse cx="586.8" cy="238.1705" fill="#ADD1B2" rx="11" ry="11" style="stroke:#181818;stroke-width:1.0;"/><path d="M589.2731,244.3136 Q588.6921,244.6124 588.0529,244.7619 Q587.4138,244.9113 586.7082,244.9113 Q584.2014,244.9113 582.8815,243.2594 Q581.5617,241.6076 581.5617,238.4865 Q581.5617,235.3571 582.8815,233.7052 Q584.2014,232.0534 586.7082,232.0534 Q587.4138,232.0534 588.0612,232.2028 Q588.7087,232.3522 589.2731,232.651 L589.2731,235.3737 Q588.6423,234.7926 588.0488,234.5228 Q587.4553,234.2531 586.8244,234.2531 Q585.4797,234.2531 584.7949,235.3197 Q584.1101,236.3864 584.1101,238.4865 Q584.1101,240.5783 584.7949,241.6449 Q585.4797,242.7116 586.8244,242.7116 Q587.4553,242.7116 588.0488,242.4418 Q588.6423,242.172 589.2731,241.591 Z " fill="#000000"/><text fill="#000000" font-family="sans-serif" font-size="12" font-style="italic" lengthAdjust="spacing" textLength="42" x="650.2" y="234.4616">&#171;Kode&#187;</text><text fill="#000000" font-family="sans-serif" font-size="14" lengthAdjust="spacing" textLength="138" x="602.2" y="250.528">PblTiltakForbudtype</text><line style="stroke:#181818;stroke-width:0.5;" x1="566.5" x2="748.5" y1="258.4811" y2="258.4811"/><ellipse cx="576.5" cy="272.2252" fill="none" rx="3" ry="3" style="stroke:#038048;stroke-width:1.0;"/><text fill="#000000" font-family="sans-serif" font-size="14" lengthAdjust="spacing" textLength="116" x="585.5" y="276.0163">kodeverdi: string</text><ellipse cx="576.5" cy="288.7135" fill="none" rx="3" ry="3" style="stroke:#038048;stroke-width:1.0;"/><text fill="#000000" font-family="sans-serif" font-size="14" lengthAdjust="spacing" textLength="158" x="585.5" y="292.5045">kodebeskrivelse: string</text><line style="stroke:#181818;stroke-width:0.5;" x1="566.5" x2="748.5" y1="299.4577" y2="299.4577"/></g><!--class RegistrerMidlertidigforbudmottiltak--><g id="elem_RegistrerMidlertidigforbudmottiltak"><rect codeLine="3" fill="#F1F1F1" height="64.4883" id="RegistrerMidlertidigforbudmottiltak" rx="2.5" ry="2.5" style="stroke:#181818;stroke-width:0.5;" width="276" x="723.5" y="48.22"/><ellipse cx="738.5" cy="64.22" fill="#ADD1B2" rx="11" ry="11" style="stroke:#181818;stroke-width:1.0;"/><path d="M740.9731,70.3631 Q740.3921,70.6619 739.7529,70.8113 Q739.1138,70.9607 738.4082,70.9607 Q735.9014,70.9607 734.5815,69.3089 Q733.2617,67.657 733.2617,64.5359 Q733.2617,61.4065 734.5815,59.7547 Q735.9014,58.1028 738.4082,58.1028 Q739.1138,58.1028 739.7612,58.2522 Q740.4087,58.4016 740.9731,58.7005 L740.9731,61.4231 Q740.3423,60.8421 739.7488,60.5723 Q739.1553,60.3025 738.5244,60.3025 Q737.1797,60.3025 736.4949,61.3692 Q735.8101,62.4358 735.8101,64.5359 Q735.8101,66.6277 736.4949,67.6944 Q737.1797,68.761 738.5244,68.761 Q739.1553,68.761 739.7488,68.4912 Q740.3423,68.2215 740.9731,67.6404 Z " fill="#000000"/><text fill="#000000" font-family="sans-serif" font-size="14" lengthAdjust="spacing" textLength="244" x="752.5" y="69.511">RegistrerMidlertidigforbudmottiltak</text><line style="stroke:#181818;stroke-width:0.5;" x1="724.5" x2="998.5" y1="80.22" y2="80.22"/><ellipse cx="734.5" cy="93.9641" fill="none" rx="3" ry="3" style="stroke:#038048;stroke-width:1.0;"/><text fill="#000000" font-family="sans-serif" font-size="14" lengthAdjust="spacing" textLength="239" x="743.5" y="97.7552">forbudOmraade: Midlertidigforbud</text><line style="stroke:#181818;stroke-width:0.5;" x1="724.5" x2="998.5" y1="104.7083" y2="104.7083"/></g><!--class Midlertidigforbud--><g id="elem_Midlertidigforbud"><rect fill="#F1F1F1" height="48" id="Midlertidigforbud" rx="2.5" ry="2.5" style="stroke:#181818;stroke-width:0.5;" width="153" x="785" y="238.66"/><ellipse cx="800" cy="254.66" fill="#ADD1B2" rx="11" ry="11" style="stroke:#181818;stroke-width:1.0;"/><path d="M802.4731,260.8031 Q801.8921,261.1019 801.2529,261.2513 Q800.6138,261.4007 799.9082,261.4007 Q797.4014,261.4007 796.0815,259.7489 Q794.7617,258.097 794.7617,254.9759 Q794.7617,251.8465 796.0815,250.1947 Q797.4014,248.5428 799.9082,248.5428 Q800.6138,248.5428 801.2612,248.6922 Q801.9087,248.8416 802.4731,249.1405 L802.4731,251.8631 Q801.8423,251.2821 801.2488,251.0123 Q800.6553,250.7425 800.0244,250.7425 Q798.6797,250.7425 797.9949,251.8092 Q797.3101,252.8758 797.3101,254.9759 Q797.3101,257.0677 797.9949,258.1344 Q798.6797,259.201 800.0244,259.201 Q800.6553,259.201 801.2488,258.9312 Q801.8423,258.6615 802.4731,258.0804 Z " fill="#000000"/><text fill="#000000" font-family="sans-serif" font-size="14" lengthAdjust="spacing" textLength="121" x="814" y="259.951">Midlertidigforbud</text><line style="stroke:#181818;stroke-width:0.5;" x1="786" x2="937" y1="270.66" y2="270.66"/><line style="stroke:#181818;stroke-width:0.5;" x1="786" x2="937" y1="278.66" y2="278.66"/></g><!--link Flate to FlateType--><g id="link_Flate_FlateType"><path codeLine="7" d="M350.72,311.61 C327.22,335.19 299.56,362.95 278.79,383.79 " fill="none" id="Flate-FlateType" style="stroke:#181818;stroke-width:1.0;"/></g><!--link Flate to Koordinat--><g id="link_Flate_Koordinat"><path codeLine="8" d="M398.5,311.61 C398.5,335.19 398.5,362.95 398.5,383.79 " fill="none" id="Flate-Koordinat" style="stroke:#181818;stroke-width:1.0;"/></g><!--link Flate to Koordinatsystem--><g id="link_Flate_Koordinatsystem"><path codeLine="9" d="M460.47,311.81 C484.89,330.79 512.76,352.45 536.66,371.02 " fill="none" id="Flate-Koordinatsystem" style="stroke:#181818;stroke-width:1.0;"/></g><!--link MidlertidigForbud to Flate--><g id="link_MidlertidigForbud_Flate"><path codeLine="13" d="M398.5,154.24 C398.5,174.16 398.5,195.26 398.5,213.44 " fill="none" id="MidlertidigForbud-Flate" style="stroke:#181818;stroke-width:1.0;"/></g><!--link MidlertidigForbud to Saksnummer--><g id="link_MidlertidigForbud_Saksnummer"><path codeLine="14" d="M285.82,154.24 C250.13,177.29 212.01,201.91 181.27,221.76 " fill="none" id="MidlertidigForbud-Saksnummer" style="stroke:#181818;stroke-width:1.0;"/></g><!--link MidlertidigForbud to PblTiltakForbudtype--><g id="link_MidlertidigForbud_PblTiltakForbudtype"><path codeLine="15" d="M503.1,154.24 C533.85,175.63 566.54,198.37 593.89,217.4 " fill="none" id="MidlertidigForbud-PblTiltakForbudtype" style="stroke:#181818;stroke-width:1.0;"/></g><!--link RegistrerMidlertidigforbudmottiltak to Midlertidigforbud--><g id="link_RegistrerMidlertidigforbudmottiltak_Midlertidigforbud"><path codeLine="7" d="M861.5,112.85 C861.5,148.65 861.5,206.34 861.5,238.36 " fill="none" id="RegistrerMidlertidigforbudmottiltak-Midlertidigforbud" style="stroke:#181818;stroke-width:1.0;"/></g><!--SRC=[ZOmn3i8m34LtdyBCg8x4o1qG4ZS8ZLDPTPBAILWGTwTIjvQ1F_pXwRz_aZng3upaY5mkD5UAijQYFjFhGf5LkLAIe6nDWaonsBC7To2qT81HVQtuu4bgCxRRVfHAQwBDp_W6N7FUy3sPzu6lU13W0_3FtJ3ySBy0]--></g></svg>