<?xml version="1.0" encoding="us-ascii" standalone="no"?><svg xmlns="http://www.w3.org/2000/svg" xmlns:xlink="http://www.w3.org/1999/xlink" contentStyleType="text/css" height="186px" preserveAspectRatio="none" style="width:821px;height:186px;background:#FFFFFF;" version="1.1" viewBox="0 0 821 186" width="821px" zoomAndPan="magnify"><defs/><g><!--class RegistrerMidlertidigforbudmottiltak--><g id="elem_RegistrerMidlertidigforbudmottiltak"><rect codeLine="2" fill="#F1F1F1" height="64.4883" id="RegistrerMidlertidigforbudmottiltak" rx="2.5" ry="2.5" style="stroke:#181818;stroke-width:0.5;" width="276" x="7" y="7"/><ellipse cx="22" cy="23" fill="#ADD1B2" rx="11" ry="11" style="stroke:#181818;stroke-width:1.0;"/><path d="M24.4731,29.1431 Q23.8921,29.4419 23.2529,29.5913 Q22.6138,29.7407 21.9082,29.7407 Q19.4014,29.7407 18.0815,28.0889 Q16.7617,26.437 16.7617,23.3159 Q16.7617,20.1865 18.0815,18.5347 Q19.4014,16.8828 21.9082,16.8828 Q22.6138,16.8828 23.2612,17.0322 Q23.9087,17.1816 24.4731,17.4805 L24.4731,20.2031 Q23.8423,19.6221 23.2488,19.3523 Q22.6553,19.0825 22.0244,19.0825 Q20.6797,19.0825 19.9949,20.1492 Q19.3101,21.2158 19.3101,23.3159 Q19.3101,25.4077 19.9949,26.4744 Q20.6797,27.541 22.0244,27.541 Q22.6553,27.541 23.2488,27.2712 Q23.8423,27.0015 24.4731,26.4204 Z " fill="#000000"/><text fill="#000000" font-family="sans-serif" font-size="14" lengthAdjust="spacing" textLength="244" x="36" y="28.291">RegistrerMidlertidigforbudmottiltak</text><line style="stroke:#181818;stroke-width:0.5;" x1="8" x2="282" y1="39" y2="39"/><ellipse cx="18" cy="52.7441" fill="none" rx="3" ry="3" style="stroke:#038048;stroke-width:1.0;"/><text fill="#000000" font-family="sans-serif" font-size="14" lengthAdjust="spacing" textLength="239" x="27" y="56.5352">forbudOmraade: Midlertidigforbud</text><line style="stroke:#181818;stroke-width:0.5;" x1="8" x2="282" y1="63.4883" y2="63.4883"/></g><!--class Midlertidigforbud--><g id="elem_Midlertidigforbud"><rect fill="#F1F1F1" height="48" id="Midlertidigforbud" rx="2.5" ry="2.5" style="stroke:#181818;stroke-width:0.5;" width="153" x="278.5" y="131.49"/><ellipse cx="293.5" cy="147.49" fill="#ADD1B2" rx="11" ry="11" style="stroke:#181818;stroke-width:1.0;"/><path d="M295.9731,153.6331 Q295.3921,153.9319 294.7529,154.0813 Q294.1138,154.2307 293.4082,154.2307 Q290.9014,154.2307 289.5815,152.5789 Q288.2617,150.927 288.2617,147.8059 Q288.2617,144.6765 289.5815,143.0247 Q290.9014,141.3728 293.4082,141.3728 Q294.1138,141.3728 294.7612,141.5222 Q295.4087,141.6716 295.9731,141.9705 L295.9731,144.6931 Q295.3423,144.1121 294.7488,143.8423 Q294.1553,143.5725 293.5244,143.5725 Q292.1797,143.5725 291.4949,144.6392 Q290.8101,145.7058 290.8101,147.8059 Q290.8101,149.8977 291.4949,150.9644 Q292.1797,152.031 293.5244,152.031 Q294.1553,152.031 294.7488,151.7612 Q295.3423,151.4915 295.9731,150.9104 Z " fill="#000000"/><text fill="#000000" font-family="sans-serif" font-size="14" lengthAdjust="spacing" textLength="121" x="307.5" y="152.781">Midlertidigforbud</text><line style="stroke:#181818;stroke-width:0.5;" x1="279.5" x2="430.5" y1="163.49" y2="163.49"/><line style="stroke:#181818;stroke-width:0.5;" x1="279.5" x2="430.5" y1="171.49" y2="171.49"/></g><g id="elem_GMN5"><path d="M318,26.59 L318,51.9005 A0,0 0 0 0 318,51.9005 L539.82,51.9005 L398.4,130.99 L547.82,51.9005 L814,51.9005 A0,0 0 0 0 814,51.9005 L814,36.59 L804,26.59 L318,26.59 A0,0 0 0 0 318,26.59 " fill="#FEFFDD" style="stroke:#181818;stroke-width:0.5;"/><path d="M804,26.59 L804,36.59 L814,36.59 L804,26.59 " fill="#FEFFDD" style="stroke:#181818;stroke-width:0.5;"/><text fill="#000000" font-family="sans-serif" font-size="13" lengthAdjust="spacing" textLength="475" x="324" y="44.1584">Se detaljer i diagram for skjema 'no.ks.fiks.plan.v2.felles.midlertidigforbud'</text></g><!--link RegistrerMidlertidigforbudmottiltak to Midlertidigforbud--><g id="link_RegistrerMidlertidigforbudmottiltak_Midlertidigforbud"><path codeLine="6" d="M203.22,71.92 C237.69,90.67 280.62,114.03 312.02,131.11 " fill="none" id="RegistrerMidlertidigforbudmottiltak-Midlertidigforbud" style="stroke:#181818;stroke-width:1.0;"/></g><!--SRC=[ZOmn3i8m40Hxls8x2XGNbFa3Ge8N7FWSNNAEe_D1W_WxaUW81LjiiQFPcr9hEFCWpOtjA4dPN98CkThrdafr5tMQy0nOi__Cfs94YNjiXF0AuP-xhllXXhawm-k2chSOFIwCn4uwia6GX0QZWXMZJICNmcwkSMenorgBqXmVXvXPbLiitt-xy0O0]--></g></svg>