<svg xmlns="http://www.w3.org/2000/svg" xmlns:xlink="http://www.w3.org/1999/xlink" contentStyleType="text/css" height="463px" preserveAspectRatio="none" style="width:508px;height:463px;background:#FFFFFF;" version="1.1" viewBox="0 0 508 463" width="508px" zoomAndPan="magnify"><defs/><g><rect fill="none" height="328.2832" style="stroke:#000000;stroke-width:1.5;" width="491" x="10" y="82.7988"/><line style="stroke:#181818;stroke-width:0.5;stroke-dasharray:5.0,5.0;" x1="63" x2="63" y1="36.4883" y2="100.1094"/><line style="stroke:#A80036;stroke-width:1.0;stroke-dasharray:1.0,4.0;" x1="63" x2="63" y1="100.1094" y2="141.0645"/><line style="stroke:#181818;stroke-width:0.5;stroke-dasharray:5.0,5.0;" x1="63" x2="63" y1="141.0645" y2="170.375"/><line style="stroke:#A80036;stroke-width:1.0;stroke-dasharray:1.0,4.0;" x1="63" x2="63" y1="170.375" y2="211.3301"/><line style="stroke:#181818;stroke-width:0.5;stroke-dasharray:5.0,5.0;" x1="63" x2="63" y1="211.3301" y2="255.5957"/><line style="stroke:#A80036;stroke-width:1.0;stroke-dasharray:1.0,4.0;" x1="63" x2="63" y1="255.5957" y2="296.5508"/><line style="stroke:#181818;stroke-width:0.5;stroke-dasharray:5.0,5.0;" x1="63" x2="63" y1="296.5508" y2="340.8164"/><line style="stroke:#A80036;stroke-width:1.0;stroke-dasharray:1.0,4.0;" x1="63" x2="63" y1="340.8164" y2="381.7715"/><line style="stroke:#181818;stroke-width:0.5;stroke-dasharray:5.0,5.0;" x1="63" x2="63" y1="381.7715" y2="428.082"/><line style="stroke:#181818;stroke-width:0.5;stroke-dasharray:5.0,5.0;" x1="443" x2="443" y1="36.4883" y2="100.1094"/><line style="stroke:#A80036;stroke-width:1.0;stroke-dasharray:1.0,4.0;" x1="443" x2="443" y1="100.1094" y2="141.0645"/><line style="stroke:#181818;stroke-width:0.5;stroke-dasharray:5.0,5.0;" x1="443" x2="443" y1="141.0645" y2="170.375"/><line style="stroke:#A80036;stroke-width:1.0;stroke-dasharray:1.0,4.0;" x1="443" x2="443" y1="170.375" y2="211.3301"/><line style="stroke:#181818;stroke-width:0.5;stroke-dasharray:5.0,5.0;" x1="443" x2="443" y1="211.3301" y2="255.5957"/><line style="stroke:#A80036;stroke-width:1.0;stroke-dasharray:1.0,4.0;" x1="443" x2="443" y1="255.5957" y2="296.5508"/><line style="stroke:#181818;stroke-width:0.5;stroke-dasharray:5.0,5.0;" x1="443" x2="443" y1="296.5508" y2="340.8164"/><line style="stroke:#A80036;stroke-width:1.0;stroke-dasharray:1.0,4.0;" x1="443" x2="443" y1="340.8164" y2="381.7715"/><line style="stroke:#181818;stroke-width:0.5;stroke-dasharray:5.0,5.0;" x1="443" x2="443" y1="381.7715" y2="428.082"/><rect fill="#E2E2F0" height="30.4883" rx="2.5" ry="2.5" style="stroke:#181818;stroke-width:0.5;" width="86" x="20" y="5"/><text fill="#000000" font-family="sans-serif" font-size="14" lengthAdjust="spacing" textLength="72" x="27" y="25.5352">Fagsystem</text><rect fill="#E2E2F0" height="30.4883" rx="2.5" ry="2.5" style="stroke:#181818;stroke-width:0.5;" width="86" x="20" y="427.082"/><text fill="#000000" font-family="sans-serif" font-size="14" lengthAdjust="spacing" textLength="72" x="27" y="447.6172">Fagsystem</text><rect fill="#E2E2F0" height="30.4883" rx="2.5" ry="2.5" style="stroke:#181818;stroke-width:0.5;" width="96" x="395" y="5"/><text fill="#000000" font-family="sans-serif" font-size="14" lengthAdjust="spacing" textLength="82" x="402" y="25.5352">Planregister</text><rect fill="#E2E2F0" height="30.4883" rx="2.5" ry="2.5" style="stroke:#181818;stroke-width:0.5;" width="96" x="395" y="427.082"/><text fill="#000000" font-family="sans-serif" font-size="14" lengthAdjust="spacing" textLength="82" x="402" y="447.6172">Planregister</text><polygon fill="#181818" points="431,63.7988,441,67.7988,431,71.7988,435,67.7988" style="stroke:#181818;stroke-width:1.0;"/><line style="stroke:#181818;stroke-width:1.0;" x1="63" x2="437" y1="67.7988" y2="67.7988"/><text fill="#000000" font-family="sans-serif" font-size="13" lengthAdjust="spacing" textLength="304" x="70" y="63.0566">no.ks.fiks.plan.v2.oppdatering.arealplan.opprett</text><path d="M10,82.7988 L72,82.7988 L72,90.1094 L62,100.1094 L10,100.1094 L10,82.7988 " fill="#EEEEEE" style="stroke:#000000;stroke-width:1.5;"/><rect fill="none" height="328.2832" style="stroke:#000000;stroke-width:1.5;" width="491" x="10" y="82.7988"/><text fill="#000000" font-family="sans-serif" font-size="13" font-weight="bold" lengthAdjust="spacing" textLength="17" x="25" y="96.3672">alt</text><text fill="#000000" font-family="sans-serif" font-size="11" font-weight="bold" lengthAdjust="spacing" textLength="68" x="87" y="95.4336">[Opprett ok]</text><text fill="#000000" font-family="sans-serif" font-size="11" lengthAdjust="spacing" textLength="112" x="197" y="124.7441">tom mottatt-melding</text><polygon fill="#181818" points="74,158.375,64,162.375,74,166.375,70,162.375" style="stroke:#181818;stroke-width:1.0;"/><line style="stroke:#181818;stroke-width:1.0;" x1="68" x2="442" y1="162.375" y2="162.375"/><text fill="#000000" font-family="sans-serif" font-size="13" lengthAdjust="spacing" textLength="355" x="80" y="157.6328">no.ks.fiks.plan.v2.oppdatering.arealplan.opprett.mottatt</text><text fill="#000000" font-family="sans-serif" font-size="11" lengthAdjust="spacing" textLength="160" x="173" y="195.0098">resultat-melding med innhold</text><polygon fill="#181818" points="74,228.6406,64,232.6406,74,236.6406,70,232.6406" style="stroke:#181818;stroke-width:1.0;"/><line style="stroke:#181818;stroke-width:1.0;" x1="68" x2="442" y1="232.6406" y2="232.6406"/><text fill="#000000" font-family="sans-serif" font-size="13" lengthAdjust="spacing" textLength="356" x="80" y="227.8984">no.ks.fiks.plan.v2.oppdatering.arealplan.opprett.resultat</text><line style="stroke:#000000;stroke-width:1.0;stroke-dasharray:2.0,2.0;" x1="10" x2="501" y1="241.6406" y2="241.6406"/><text fill="#000000" font-family="sans-serif" font-size="11" font-weight="bold" lengthAdjust="spacing" textLength="235" x="15" y="252.2754">[Feil: opprettsmeldingen var ikke korrekt]</text><text fill="#000000" font-family="sans-serif" font-size="11" lengthAdjust="spacing" textLength="135" x="185.5" y="280.2305">feil-melding med innhold</text><polygon fill="#181818" points="74,313.8613,64,317.8613,74,321.8613,70,317.8613" style="stroke:#181818;stroke-width:1.0;"/><line style="stroke:#181818;stroke-width:1.0;" x1="68" x2="442" y1="317.8613" y2="317.8613"/><text fill="#000000" font-family="sans-serif" font-size="13" lengthAdjust="spacing" textLength="317" x="80" y="313.1191">no.ks.fiks.plan.v2.feilmelding.ugyldigforespoersel</text><line style="stroke:#000000;stroke-width:1.0;stroke-dasharray:2.0,2.0;" x1="10" x2="501" y1="326.8613" y2="326.8613"/><text fill="#000000" font-family="sans-serif" font-size="11" font-weight="bold" lengthAdjust="spacing" textLength="187" x="15" y="337.4961">[Feil: planregister fikk serverfeil]</text><text fill="#000000" font-family="sans-serif" font-size="11" lengthAdjust="spacing" textLength="135" x="185.5" y="365.4512">feil-melding med innhold</text><polygon fill="#181818" points="74,399.082,64,403.082,74,407.082,70,403.082" style="stroke:#181818;stroke-width:1.0;"/><line style="stroke:#181818;stroke-width:1.0;" x1="68" x2="442" y1="403.082" y2="403.082"/><text fill="#000000" font-family="sans-serif" font-size="13" lengthAdjust="spacing" textLength="250" x="80" y="398.3398">no.ks.fiks.plan.v2.feilmelding.serverfeil</text><!--SRC=[jP0zRiCm34PtdO8NC8UEGT7HQti50Q9LGTGFACP0RbywiOjqo12qNGHHd_Iz1yq-ZijGAZ2zmGVxAXIJpNA2sZ0FN98jtG9SNx3r7ho5gKRqGfwlWPqAgJhdMU7zDa3B3X6r5IXDrQjEXJXi3n7T_4rzdNv9nRr-emcDCzjmeA1GW5JhP-FmrzY3vHpn89WfyGdsSEnygh1wWPGpGMuYbA-QYzrzfFYaurPr_EivNcmJbsPglP4CuXzo_QuCh2N385b9jev_rBg3EAhX2m00]--></g></svg>