<svg xmlns="http://www.w3.org/2000/svg" xmlns:xlink="http://www.w3.org/1999/xlink" contentStyleType="text/css" data-diagram-type="CLASS" height="376px" preserveAspectRatio="none" style="width:318px;height:376px;background:#FFFFFF;" version="1.1" viewBox="0 0 318 376" width="318px" zoomAndPan="magnify"><defs/><g><!--class NasjonalArealplanId--><g class="entity" data-entity="NasjonalArealplanId" data-source-line="1" data-uid="ent0002" id="entity_NasjonalArealplanId"><rect fill="#F1F1F1" height="80.9766" rx="2.5" ry="2.5" style="stroke:#181818;stroke-width:0.5;" width="290.3047" x="14.08" y="131.49"/><ellipse cx="87.1698" cy="147.49" fill="#ADD1B2" rx="11" ry="11" style="stroke:#181818;stroke-width:1;"/><path d="M89.643,153.6331 Q89.0619,153.9319 88.4228,154.0813 Q87.7836,154.2307 87.078,154.2307 Q84.5712,154.2307 83.2514,152.5789 Q81.9316,150.927 81.9316,147.8059 Q81.9316,144.6765 83.2514,143.0247 Q84.5712,141.3728 87.078,141.3728 Q87.7836,141.3728 88.4311,141.5222 Q89.0785,141.6716 89.643,141.9705 L89.643,144.6931 Q89.0121,144.1121 88.4186,143.8423 Q87.8251,143.5725 87.1943,143.5725 Q85.8495,143.5725 85.1647,144.6392 Q84.4799,145.7058 84.4799,147.8059 Q84.4799,149.8977 85.1647,150.9644 Q85.8495,152.031 87.1943,152.031 Q87.8251,152.031 88.4186,151.7612 Q89.0121,151.4915 89.643,150.9104 Z " fill="#000000"/><text fill="#000000" font-family="sans-serif" font-size="14" lengthAdjust="spacing" textLength="135.625" x="107.6698" y="152.781">NasjonalArealplanId</text><line style="stroke:#181818;stroke-width:0.5;" x1="15.08" x2="303.3847" y1="163.49" y2="163.49"/><ellipse cx="25.08" cy="177.2341" fill="none" rx="3" ry="3" style="stroke:#038048;stroke-width:1;"/><text fill="#000000" font-family="sans-serif" font-size="14" lengthAdjust="spacing" textLength="264.3047" x="34.08" y="181.0252">administrativEnhet: AdministrativEnhet</text><ellipse cx="25.08" cy="193.7224" fill="none" rx="3" ry="3" style="stroke:#038048;stroke-width:1;"/><text fill="#000000" font-family="sans-serif" font-size="14" lengthAdjust="spacing" textLength="170.126" x="34.08" y="197.5134">planidentifikasjon: string</text><line style="stroke:#181818;stroke-width:0.5;" x1="15.08" x2="303.3847" y1="204.4666" y2="204.4666"/></g><!--class AdministrativEnhet--><g class="entity" data-entity="AdministrativEnhet" data-source-line="6" data-uid="ent0003" id="entity_AdministrativEnhet"><rect fill="#F1F1F1" height="97.4648" rx="2.5" ry="2.5" style="stroke:#181818;stroke-width:0.5;" width="160.6865" x="78.88" y="272.47"/><ellipse cx="93.88" cy="288.47" fill="#EB937F" rx="11" ry="11" style="stroke:#181818;stroke-width:1;"/><path d="M97.4943,294.97 L89.7745,294.97 L89.7745,282.5769 L97.4943,282.5769 L97.4943,284.7351 L92.2233,284.7351 L92.2233,287.408 L96.9962,287.408 L96.9962,289.5662 L92.2233,289.5662 L92.2233,292.8118 L97.4943,292.8118 Z " fill="#000000"/><text fill="#000000" font-family="sans-serif" font-size="14" lengthAdjust="spacing" textLength="128.6865" x="107.88" y="293.761">AdministrativEnhet</text><line style="stroke:#181818;stroke-width:0.5;" x1="79.88" x2="238.5665" y1="304.47" y2="304.47"/><text fill="#000000" font-family="sans-serif" font-size="14" lengthAdjust="spacing" textLength="125.1455" x="84.88" y="322.0052">kommunenummer</text><text fill="#000000" font-family="sans-serif" font-size="14" lengthAdjust="spacing" textLength="96.6738" x="84.88" y="338.4934">fylkesnummer</text><text fill="#000000" font-family="sans-serif" font-size="14" lengthAdjust="spacing" textLength="69.8086" x="84.88" y="354.9817">landskode</text><line style="stroke:#181818;stroke-width:0.5;" x1="79.88" x2="238.5665" y1="361.9348" y2="361.9348"/></g><!--class HentRelatertePlaner--><g class="entity" data-entity="HentRelatertePlaner" data-source-line="3" data-uid="ent0005" id="entity_HentRelatertePlaner"><rect fill="#F1F1F1" height="64.4883" rx="2.5" ry="2.5" style="stroke:#181818;stroke-width:0.5;" width="304.4551" x="7" y="7"/><ellipse cx="87.9888" cy="23" fill="#ADD1B2" rx="11" ry="11" style="stroke:#181818;stroke-width:1;"/><path d="M90.4619,29.1431 Q89.8809,29.4419 89.2417,29.5913 Q88.6025,29.7407 87.897,29.7407 Q85.3901,29.7407 84.0703,28.0889 Q82.7505,26.437 82.7505,23.3159 Q82.7505,20.1865 84.0703,18.5347 Q85.3901,16.8828 87.897,16.8828 Q88.6025,16.8828 89.25,17.0322 Q89.8975,17.1816 90.4619,17.4805 L90.4619,20.2031 Q89.8311,19.6221 89.2375,19.3523 Q88.644,19.0825 88.0132,19.0825 Q86.6685,19.0825 85.9836,20.1492 Q85.2988,21.2158 85.2988,23.3159 Q85.2988,25.4077 85.9836,26.4744 Q86.6685,27.541 88.0132,27.541 Q88.644,27.541 89.2375,27.2712 Q89.8311,27.0015 90.4619,26.4204 Z " fill="#000000"/><text fill="#000000" font-family="sans-serif" font-size="14" lengthAdjust="spacing" textLength="133.9775" x="108.4888" y="28.291">HentRelatertePlaner</text><line style="stroke:#181818;stroke-width:0.5;" x1="8" x2="310.4551" y1="39" y2="39"/><ellipse cx="18" cy="52.7441" fill="none" rx="3" ry="3" style="stroke:#038048;stroke-width:1;"/><text fill="#000000" font-family="sans-serif" font-size="14" lengthAdjust="spacing" textLength="278.4551" x="27" y="56.5352">nasjonalArealplanId: NasjonalArealplanId</text><line style="stroke:#181818;stroke-width:0.5;" x1="8" x2="310.4551" y1="63.4883" y2="63.4883"/></g><!--link NasjonalArealplanId to AdministrativEnhet--><g class="link" data-entity-1="NasjonalArealplanId" data-entity-2="AdministrativEnhet" data-source-line="6" data-uid="lnk4" id="link_NasjonalArealplanId_AdministrativEnhet"><path codeLine="6" d="M159.23,212.82 C159.23,231.13 159.23,252.99 159.23,272.2" fill="none" id="NasjonalArealplanId-AdministrativEnhet" style="stroke:#181818;stroke-width:1;"/></g><!--link HentRelatertePlaner to NasjonalArealplanId--><g class="link" data-entity-1="HentRelatertePlaner" data-entity-2="NasjonalArealplanId" data-source-line="7" data-uid="lnk6" id="link_HentRelatertePlaner_NasjonalArealplanId"><path codeLine="7" d="M159.23,71.89 C159.23,89.73 159.23,112.17 159.23,131.19" fill="none" id="HentRelatertePlaner-NasjonalArealplanId" style="stroke:#181818;stroke-width:1;"/></g><!--SRC=[ROon3i8m34HtVuMPKHs9iHjRko347rYDAmKijufJ5iI_4uPEpGqttBkxKx99joX8WIZOGY-dELLRbOtU5vf5LPoC_RaOAsTX_RCKGoEZTGEObDrn42iFKIwIYzmhbOmVmAhpFhpkmp7sU3k6y0LetNHTi_q3]--></g></svg>