<svg xmlns="http://www.w3.org/2000/svg" xmlns:xlink="http://www.w3.org/1999/xlink" contentStyleType="text/css" data-diagram-type="CLASS" height="475px" preserveAspectRatio="none" style="width:1004px;height:475px;background:#FFFFFF;" version="1.1" viewBox="0 0 1004 475" width="1004px" zoomAndPan="magnify"><defs/><g><!--class Saksnummer--><g class="entity" data-entity="Saksnummer" data-source-line="2" data-uid="ent0002" id="entity_Saksnummer"><rect fill="#F1F1F1" height="80.9766" rx="2.5" ry="2.5" style="stroke:#181818;stroke-width:0.5;" width="224.1123" x="7" y="197.44"/><ellipse cx="70.9878" cy="213.44" fill="#ADD1B2" rx="11" ry="11" style="stroke:#181818;stroke-width:1;"/><path d="M73.4609,219.5831 Q72.8799,219.8819 72.2407,220.0313 Q71.6016,220.1807 70.896,220.1807 Q68.3892,220.1807 67.0693,218.5289 Q65.7495,216.877 65.7495,213.7559 Q65.7495,210.6265 67.0693,208.9747 Q68.3892,207.3228 70.896,207.3228 Q71.6016,207.3228 72.249,207.4722 Q72.8965,207.6216 73.4609,207.9205 L73.4609,210.6431 Q72.8301,210.0621 72.2366,209.7923 Q71.6431,209.5225 71.0122,209.5225 Q69.6675,209.5225 68.9827,210.5892 Q68.2979,211.6558 68.2979,213.7559 Q68.2979,215.8477 68.9827,216.9144 Q69.6675,217.981 71.0122,217.981 Q71.6431,217.981 72.2366,217.7112 Q72.8301,217.4415 73.4609,216.8604 Z " fill="#000000"/><text fill="#000000" font-family="sans-serif" font-size="14" lengthAdjust="spacing" textLength="87.6367" x="91.4878" y="218.731">Saksnummer</text><line style="stroke:#181818;stroke-width:0.5;" x1="8" x2="230.1123" y1="229.44" y2="229.44"/><ellipse cx="18" cy="243.1841" fill="none" rx="3" ry="3" style="stroke:#038048;stroke-width:1;"/><text fill="#000000" font-family="sans-serif" font-size="14" lengthAdjust="spacing" textLength="108.2676" x="27" y="246.9752">saksaar: integer</text><ellipse cx="18" cy="259.6724" fill="none" rx="3" ry="3" style="stroke:#038048;stroke-width:1;"/><text fill="#000000" font-family="sans-serif" font-size="14" lengthAdjust="spacing" textLength="198.1123" x="27" y="263.4634">sakssekvensnummer: integer</text><line style="stroke:#181818;stroke-width:0.5;" x1="8" x2="230.1123" y1="270.4166" y2="270.4166"/></g><!--class NasjonalArealplanId--><g class="entity" data-entity="NasjonalArealplanId" data-source-line="1" data-uid="ent0003" id="entity_NasjonalArealplanId"><rect fill="#F1F1F1" height="80.9766" rx="2.5" ry="2.5" style="stroke:#181818;stroke-width:0.5;" width="290.3047" x="265.9" y="197.44"/><ellipse cx="338.9898" cy="213.44" fill="#ADD1B2" rx="11" ry="11" style="stroke:#181818;stroke-width:1;"/><path d="M341.463,219.5831 Q340.8819,219.8819 340.2428,220.0313 Q339.6036,220.1807 338.898,220.1807 Q336.3912,220.1807 335.0714,218.5289 Q333.7516,216.877 333.7516,213.7559 Q333.7516,210.6265 335.0714,208.9747 Q336.3912,207.3228 338.898,207.3228 Q339.6036,207.3228 340.2511,207.4722 Q340.8985,207.6216 341.463,207.9205 L341.463,210.6431 Q340.8321,210.0621 340.2386,209.7923 Q339.6451,209.5225 339.0143,209.5225 Q337.6695,209.5225 336.9847,210.5892 Q336.2999,211.6558 336.2999,213.7559 Q336.2999,215.8477 336.9847,216.9144 Q337.6695,217.981 339.0143,217.981 Q339.6451,217.981 340.2386,217.7112 Q340.8321,217.4415 341.463,216.8604 Z " fill="#000000"/><text fill="#000000" font-family="sans-serif" font-size="14" lengthAdjust="spacing" textLength="135.625" x="359.4898" y="218.731">NasjonalArealplanId</text><line style="stroke:#181818;stroke-width:0.5;" x1="266.9" x2="555.2047" y1="229.44" y2="229.44"/><ellipse cx="276.9" cy="243.1841" fill="none" rx="3" ry="3" style="stroke:#038048;stroke-width:1;"/><text fill="#000000" font-family="sans-serif" font-size="14" lengthAdjust="spacing" textLength="264.3047" x="285.9" y="246.9752">administrativEnhet: AdministrativEnhet</text><ellipse cx="276.9" cy="259.6724" fill="none" rx="3" ry="3" style="stroke:#038048;stroke-width:1;"/><text fill="#000000" font-family="sans-serif" font-size="14" lengthAdjust="spacing" textLength="170.126" x="285.9" y="263.4634">planidentifikasjon: string</text><line style="stroke:#181818;stroke-width:0.5;" x1="266.9" x2="555.2047" y1="270.4166" y2="270.4166"/></g><!--class AdministrativEnhet--><g class="entity" data-entity="AdministrativEnhet" data-source-line="6" data-uid="ent0004" id="entity_AdministrativEnhet"><rect fill="#F1F1F1" height="97.4648" rx="2.5" ry="2.5" style="stroke:#181818;stroke-width:0.5;" width="160.6865" x="330.71" y="371.4"/><ellipse cx="345.71" cy="387.4" fill="#EB937F" rx="11" ry="11" style="stroke:#181818;stroke-width:1;"/><path d="M349.3243,393.9 L341.6045,393.9 L341.6045,381.5069 L349.3243,381.5069 L349.3243,383.6651 L344.0533,383.6651 L344.0533,386.338 L348.8262,386.338 L348.8262,388.4962 L344.0533,388.4962 L344.0533,391.7418 L349.3243,391.7418 Z " fill="#000000"/><text fill="#000000" font-family="sans-serif" font-size="14" lengthAdjust="spacing" textLength="128.6865" x="359.71" y="392.691">AdministrativEnhet</text><line style="stroke:#181818;stroke-width:0.5;" x1="331.71" x2="490.3965" y1="403.4" y2="403.4"/><text fill="#000000" font-family="sans-serif" font-size="14" lengthAdjust="spacing" textLength="125.1455" x="336.71" y="420.9352">kommunenummer</text><text fill="#000000" font-family="sans-serif" font-size="14" lengthAdjust="spacing" textLength="96.6738" x="336.71" y="437.4234">fylkesnummer</text><text fill="#000000" font-family="sans-serif" font-size="14" lengthAdjust="spacing" textLength="69.8086" x="336.71" y="453.9117">landskode</text><line style="stroke:#181818;stroke-width:0.5;" x1="331.71" x2="490.3965" y1="460.8648" y2="460.8648"/></g><!--class Dokument--><g class="entity" data-entity="Dokument" data-source-line="1" data-uid="ent0006" id="entity_Dokument"><rect fill="#F1F1F1" height="146.9297" rx="2.5" ry="2.5" style="stroke:#181818;stroke-width:0.5;" width="333.0908" x="591.51" y="164.47"/><ellipse cx="718.4294" cy="180.47" fill="#ADD1B2" rx="11" ry="11" style="stroke:#181818;stroke-width:1;"/><path d="M720.9026,186.6131 Q720.3215,186.9119 719.6824,187.0613 Q719.0432,187.2107 718.3376,187.2107 Q715.8308,187.2107 714.511,185.5589 Q713.1912,183.907 713.1912,180.7859 Q713.1912,177.6565 714.511,176.0047 Q715.8308,174.3528 718.3376,174.3528 Q719.0432,174.3528 719.6907,174.5022 Q720.3381,174.6516 720.9026,174.9505 L720.9026,177.6731 Q720.2717,177.0921 719.6782,176.8223 Q719.0847,176.5525 718.4538,176.5525 Q717.1091,176.5525 716.4243,177.6192 Q715.7395,178.6858 715.7395,180.7859 Q715.7395,182.8777 716.4243,183.9444 Q717.1091,185.011 718.4538,185.011 Q719.0847,185.011 719.6782,184.7412 Q720.2717,184.4715 720.9026,183.8904 Z " fill="#000000"/><text fill="#000000" font-family="sans-serif" font-size="14" lengthAdjust="spacing" textLength="70.752" x="738.9294" y="185.761">Dokument</text><line style="stroke:#181818;stroke-width:0.5;" x1="592.51" x2="923.6008" y1="196.47" y2="196.47"/><ellipse cx="602.51" cy="210.2141" fill="none" rx="3" ry="3" style="stroke:#038048;stroke-width:1;"/><text fill="#000000" font-family="sans-serif" font-size="14" lengthAdjust="spacing" textLength="80.0283" x="611.51" y="214.0052">tittel: string</text><ellipse cx="602.51" cy="226.7024" fill="none" rx="3" ry="3" style="stroke:#038048;stroke-width:1;"/><text fill="#000000" font-family="sans-serif" font-size="14" lengthAdjust="spacing" textLength="207.0127" x="611.51" y="230.4934">dokumenttype: Dokumenttype</text><ellipse cx="602.51" cy="243.1907" fill="none" rx="3" ry="3" style="stroke:#038048;stroke-width:1;"/><text fill="#000000" font-family="sans-serif" font-size="14" lengthAdjust="spacing" textLength="307.0908" x="611.51" y="246.9817">referanseDokumentfil: ReferanseDokumentfil</text><ellipse cx="602.51" cy="259.679" fill="none" rx="3" ry="3" style="stroke:#038048;stroke-width:1;"/><text fill="#000000" font-family="sans-serif" font-size="14" lengthAdjust="spacing" textLength="115.5752" x="611.51" y="263.47">mimetype: string</text><ellipse cx="602.51" cy="276.1673" fill="none" rx="3" ry="3" style="stroke:#038048;stroke-width:1;"/><text fill="#000000" font-family="sans-serif" font-size="14" lengthAdjust="spacing" textLength="145.0313" x="611.51" y="279.9583">dokumentsdato: date</text><ellipse cx="602.51" cy="292.6555" fill="none" rx="3" ry="3" style="stroke:#038048;stroke-width:1;"/><text fill="#000000" font-family="sans-serif" font-size="14" lengthAdjust="spacing" textLength="113.7158" x="611.51" y="296.4466">arkivnavn: string</text><line style="stroke:#181818;stroke-width:0.5;" x1="592.51" x2="923.6008" y1="303.3997" y2="303.3997"/></g><!--class Dokumenttype--><g class="entity" data-entity="Dokumenttype" data-source-line="10" data-uid="ent0007" id="entity_Dokumenttype"><rect fill="#F1F1F1" height="89.5977" rx="2.5" ry="2.5" style="stroke:#181818;stroke-width:0.5;" width="183.5547" x="596.28" y="375.33"/><ellipse cx="634.5183" cy="395.6405" fill="#ADD1B2" rx="11" ry="11" style="stroke:#181818;stroke-width:1;"/><path d="M636.9914,401.7836 Q636.4104,402.0824 635.7712,402.2319 Q635.1321,402.3813 634.4265,402.3813 Q631.9196,402.3813 630.5998,400.7294 Q629.28,399.0776 629.28,395.9565 Q629.28,392.8271 630.5998,391.1752 Q631.9196,389.5234 634.4265,389.5234 Q635.1321,389.5234 635.7795,389.6728 Q636.427,389.8222 636.9914,390.121 L636.9914,392.8437 Q636.3606,392.2626 635.7671,391.9928 Q635.1736,391.7231 634.5427,391.7231 Q633.198,391.7231 632.5132,392.7897 Q631.8283,393.8564 631.8283,395.9565 Q631.8283,398.0483 632.5132,399.1149 Q633.198,400.1816 634.5427,400.1816 Q635.1736,400.1816 635.7671,399.9118 Q636.3606,399.642 636.9914,399.061 Z " fill="#000000"/><text fill="#000000" font-family="sans-serif" font-size="12" font-style="italic" lengthAdjust="spacing" textLength="42.0176" x="682.6306" y="391.9316">&#171;Kode&#187;</text><text fill="#000000" font-family="sans-serif" font-size="14" lengthAdjust="spacing" textLength="99.9141" x="653.6823" y="407.998">Dokumenttype</text><line style="stroke:#181818;stroke-width:0.5;" x1="597.28" x2="778.8347" y1="415.9511" y2="415.9511"/><ellipse cx="607.28" cy="429.6952" fill="none" rx="3" ry="3" style="stroke:#038048;stroke-width:1;"/><text fill="#000000" font-family="sans-serif" font-size="14" lengthAdjust="spacing" textLength="115.4521" x="616.28" y="433.4863">kodeverdi: string</text><ellipse cx="607.28" cy="446.1835" fill="none" rx="3" ry="3" style="stroke:#038048;stroke-width:1;"/><text fill="#000000" font-family="sans-serif" font-size="14" lengthAdjust="spacing" textLength="157.5547" x="616.28" y="449.9745">kodebeskrivelse: string</text><line style="stroke:#181818;stroke-width:0.5;" x1="597.28" x2="778.8347" y1="456.9277" y2="456.9277"/></g><!--class ReferanseDokumentfil--><g class="entity" data-entity="ReferanseDokumentfil" data-source-line="11" data-uid="ent0009" id="entity_ReferanseDokumentfil"><rect fill="#F1F1F1" height="80.9766" rx="2.5" ry="2.5" style="stroke:#181818;stroke-width:0.5;" width="182.6777" x="814.72" y="379.64"/><ellipse cx="829.72" cy="395.64" fill="#ADD1B2" rx="11" ry="11" style="stroke:#181818;stroke-width:1;"/><path d="M832.1931,401.7831 Q831.6121,402.0819 830.9729,402.2313 Q830.3338,402.3807 829.6282,402.3807 Q827.1214,402.3807 825.8015,400.7289 Q824.4817,399.077 824.4817,395.9559 Q824.4817,392.8265 825.8015,391.1747 Q827.1214,389.5228 829.6282,389.5228 Q830.3338,389.5228 830.9812,389.6722 Q831.6287,389.8216 832.1931,390.1205 L832.1931,392.8431 Q831.5623,392.2621 830.9688,391.9923 Q830.3753,391.7225 829.7444,391.7225 Q828.3997,391.7225 827.7149,392.7892 Q827.0301,393.8558 827.0301,395.9559 Q827.0301,398.0477 827.7149,399.1144 Q828.3997,400.181 829.7444,400.181 Q830.3753,400.181 830.9688,399.9112 Q831.5623,399.6415 832.1931,399.0604 Z " fill="#000000"/><text fill="#000000" font-family="sans-serif" font-size="14" lengthAdjust="spacing" textLength="150.6777" x="843.72" y="400.931">ReferanseDokumentfil</text><line style="stroke:#181818;stroke-width:0.5;" x1="815.72" x2="996.3977" y1="411.64" y2="411.64"/><ellipse cx="825.72" cy="425.3841" fill="none" rx="3" ry="3" style="stroke:#038048;stroke-width:1;"/><text fill="#000000" font-family="sans-serif" font-size="14" lengthAdjust="spacing" textLength="61.2842" x="834.72" y="429.1752">id: string</text><ellipse cx="825.72" cy="441.8724" fill="none" rx="3" ry="3" style="stroke:#038048;stroke-width:1;"/><text fill="#000000" font-family="sans-serif" font-size="14" lengthAdjust="spacing" textLength="66.8896" x="834.72" y="445.6634">url: string</text><line style="stroke:#181818;stroke-width:0.5;" x1="815.72" x2="996.3977" y1="452.6166" y2="452.6166"/></g><!--class RegistrerPlanavgrensning--><g class="entity" data-entity="RegistrerPlanavgrensning" data-source-line="5" data-uid="ent0011" id="entity_RegistrerPlanavgrensning"><rect fill="#F1F1F1" height="97.4648" rx="2.5" ry="2.5" style="stroke:#181818;stroke-width:0.5;" width="304.4551" x="258.83" y="7"/><ellipse cx="320.5688" cy="23" fill="#ADD1B2" rx="11" ry="11" style="stroke:#181818;stroke-width:1;"/><path d="M323.0419,29.1431 Q322.4609,29.4419 321.8217,29.5913 Q321.1825,29.7407 320.477,29.7407 Q317.9701,29.7407 316.6503,28.0889 Q315.3305,26.437 315.3305,23.3159 Q315.3305,20.1865 316.6503,18.5347 Q317.9701,16.8828 320.477,16.8828 Q321.1825,16.8828 321.83,17.0322 Q322.4775,17.1816 323.0419,17.4805 L323.0419,20.2031 Q322.4111,19.6221 321.8175,19.3523 Q321.224,19.0825 320.5932,19.0825 Q319.2485,19.0825 318.5636,20.1492 Q317.8788,21.2158 317.8788,23.3159 Q317.8788,25.4077 318.5636,26.4744 Q319.2485,27.541 320.5932,27.541 Q321.224,27.541 321.8175,27.2712 Q322.4111,27.0015 323.0419,26.4204 Z " fill="#000000"/><text fill="#000000" font-family="sans-serif" font-size="14" lengthAdjust="spacing" textLength="172.4775" x="341.0688" y="28.291">RegistrerPlanavgrensning</text><line style="stroke:#181818;stroke-width:0.5;" x1="259.83" x2="562.2851" y1="39" y2="39"/><ellipse cx="269.83" cy="52.7441" fill="none" rx="3" ry="3" style="stroke:#038048;stroke-width:1;"/><text fill="#000000" font-family="sans-serif" font-size="14" lengthAdjust="spacing" textLength="278.4551" x="278.83" y="56.5352">nasjonalArealplanId: NasjonalArealplanId</text><ellipse cx="269.83" cy="69.2324" fill="none" rx="3" ry="3" style="stroke:#038048;stroke-width:1;"/><text fill="#000000" font-family="sans-serif" font-size="14" lengthAdjust="spacing" textLength="183.7295" x="278.83" y="73.0234">saksnummer: Saksnummer</text><ellipse cx="269.83" cy="85.7207" fill="none" rx="3" ry="3" style="stroke:#038048;stroke-width:1;"/><text fill="#000000" font-family="sans-serif" font-size="14" lengthAdjust="spacing" textLength="141.8799" x="278.83" y="89.5117">vedlegg: Dokument[]</text><line style="stroke:#181818;stroke-width:0.5;" x1="259.83" x2="562.2851" y1="96.4648" y2="96.4648"/></g><!--link NasjonalArealplanId to AdministrativEnhet--><g class="link" data-entity-1="NasjonalArealplanId" data-entity-2="AdministrativEnhet" data-source-line="6" data-uid="lnk5" id="link_NasjonalArealplanId_AdministrativEnhet"><path codeLine="6" d="M411.06,278.48 C411.06,305.72 411.06,342.09 411.06,371.02" fill="none" id="NasjonalArealplanId-AdministrativEnhet" style="stroke:#181818;stroke-width:1;"/></g><!--link Dokument to Dokumenttype--><g class="link" data-entity-1="Dokument" data-entity-2="Dokumenttype" data-source-line="10" data-uid="lnk8" id="link_Dokument_Dokumenttype"><path codeLine="10" d="M729.79,311.7 C721.48,333.1 712.64,355.84 705.25,374.87" fill="none" id="Dokument-Dokumenttype" style="stroke:#181818;stroke-width:1;"/></g><!--link Dokument to ReferanseDokumentfil--><g class="link" data-entity-1="Dokument" data-entity-2="ReferanseDokumentfil" data-source-line="11" data-uid="lnk10" id="link_Dokument_ReferanseDokumentfil"><path codeLine="11" d="M817.83,311.7 C836.76,334.76 856.98,359.38 873.29,379.23" fill="none" id="Dokument-ReferanseDokumentfil" style="stroke:#181818;stroke-width:1;"/></g><!--link RegistrerPlanavgrensning to NasjonalArealplanId--><g class="link" data-entity-1="RegistrerPlanavgrensning" data-entity-2="NasjonalArealplanId" data-source-line="11" data-uid="lnk12" id="link_RegistrerPlanavgrensning_NasjonalArealplanId"><path codeLine="11" d="M411.06,104.55 C411.06,133.43 411.06,169.81 411.06,197.12" fill="none" id="RegistrerPlanavgrensning-NasjonalArealplanId" style="stroke:#181818;stroke-width:1;"/></g><!--link RegistrerPlanavgrensning to Saksnummer--><g class="link" data-entity-1="RegistrerPlanavgrensning" data-entity-2="Saksnummer" data-source-line="12" data-uid="lnk13" id="link_RegistrerPlanavgrensning_Saksnummer"><path codeLine="12" d="M333.19,104.79 C286.39,133.67 227.55,169.98 183.4,197.22" fill="none" id="RegistrerPlanavgrensning-Saksnummer" style="stroke:#181818;stroke-width:1;"/></g><!--link RegistrerPlanavgrensning to Dokument--><g class="link" data-entity-1="RegistrerPlanavgrensning" data-entity-2="Dokument" data-source-line="13" data-uid="lnk14" id="link_RegistrerPlanavgrensning_Dokument"><path codeLine="13" d="M503.59,104.79 C538.62,122.98 579.34,144.12 617.79,164.09" fill="none" id="RegistrerPlanavgrensning-Dokument" style="stroke:#181818;stroke-width:1;"/></g><!--SRC=[bK-n3e903DtlAuxPq4iSsKnSN8pHqJXSk78vEGgv0elntuKWOY8IxT2yjA_llKQEKjyObA0059MGCsIkQvNN1EqQClGU6LZdJ4rHO50JXAeHqOy2fFbQalOweFRzpXarC_j7qfHvKo3LQWJziKYzPfP7j8xhWE7GtUZM1YGcHrRUXEngDLflHkkTIUJ-SpYmfvSJUNhXOTUYyMXj8hVF5EUBk0lnDK0Sp_eiyTyibsXZ0F40]--></g></svg>