<svg xmlns="http://www.w3.org/2000/svg" xmlns:xlink="http://www.w3.org/1999/xlink" contentStyleType="text/css" height="475px" preserveAspectRatio="none" style="width:1009px;height:475px;background:#FFFFFF;" version="1.1" viewBox="0 0 1009 475" width="1009px" zoomAndPan="magnify"><defs/><g><!--class Saksnummer--><g id="elem_Saksnummer"><rect codeLine="2" fill="#F1F1F1" height="80.9766" id="Saksnummer" rx="2.5" ry="2.5" style="stroke:#181818;stroke-width:0.5;" width="225" x="7" y="197.44"/><ellipse cx="70.75" cy="213.44" fill="#ADD1B2" rx="11" ry="11" style="stroke:#181818;stroke-width:1.0;"/><path d="M73.2231,219.5831 Q72.6421,219.8819 72.0029,220.0313 Q71.3638,220.1807 70.6582,220.1807 Q68.1514,220.1807 66.8315,218.5289 Q65.5117,216.877 65.5117,213.7559 Q65.5117,210.6265 66.8315,208.9747 Q68.1514,207.3228 70.6582,207.3228 Q71.3638,207.3228 72.0112,207.4722 Q72.6587,207.6216 73.2231,207.9205 L73.2231,210.6431 Q72.5923,210.0621 71.9988,209.7923 Q71.4053,209.5225 70.7744,209.5225 Q69.4297,209.5225 68.7449,210.5892 Q68.0601,211.6558 68.0601,213.7559 Q68.0601,215.8477 68.7449,216.9144 Q69.4297,217.981 70.7744,217.981 Q71.4053,217.981 71.9988,217.7112 Q72.5923,217.4415 73.2231,216.8604 Z " fill="#000000"/><text fill="#000000" font-family="sans-serif" font-size="14" lengthAdjust="spacing" textLength="89" x="91.25" y="218.731">Saksnummer</text><line style="stroke:#181818;stroke-width:0.5;" x1="8" x2="231" y1="229.44" y2="229.44"/><ellipse cx="18" cy="243.1841" fill="none" rx="3" ry="3" style="stroke:#038048;stroke-width:1.0;"/><text fill="#000000" font-family="sans-serif" font-size="14" lengthAdjust="spacing" textLength="109" x="27" y="246.9752">saksaar: integer</text><ellipse cx="18" cy="259.6724" fill="none" rx="3" ry="3" style="stroke:#038048;stroke-width:1.0;"/><text fill="#000000" font-family="sans-serif" font-size="14" lengthAdjust="spacing" textLength="199" x="27" y="263.4634">sakssekvensnummer: integer</text><line style="stroke:#181818;stroke-width:0.5;" x1="8" x2="231" y1="270.4166" y2="270.4166"/></g><!--class NasjonalArealplanId--><g id="elem_NasjonalArealplanId"><rect codeLine="1" fill="#F1F1F1" height="80.9766" id="NasjonalArealplanId" rx="2.5" ry="2.5" style="stroke:#181818;stroke-width:0.5;" width="292" x="267.5" y="197.44"/><ellipse cx="340.25" cy="213.44" fill="#ADD1B2" rx="11" ry="11" style="stroke:#181818;stroke-width:1.0;"/><path d="M342.7231,219.5831 Q342.1421,219.8819 341.5029,220.0313 Q340.8638,220.1807 340.1582,220.1807 Q337.6514,220.1807 336.3315,218.5289 Q335.0117,216.877 335.0117,213.7559 Q335.0117,210.6265 336.3315,208.9747 Q337.6514,207.3228 340.1582,207.3228 Q340.8638,207.3228 341.5112,207.4722 Q342.1587,207.6216 342.7231,207.9205 L342.7231,210.6431 Q342.0923,210.0621 341.4988,209.7923 Q340.9053,209.5225 340.2744,209.5225 Q338.9297,209.5225 338.2449,210.5892 Q337.5601,211.6558 337.5601,213.7559 Q337.5601,215.8477 338.2449,216.9144 Q338.9297,217.981 340.2744,217.981 Q340.9053,217.981 341.4988,217.7112 Q342.0923,217.4415 342.7231,216.8604 Z " fill="#000000"/><text fill="#000000" font-family="sans-serif" font-size="14" lengthAdjust="spacing" textLength="138" x="360.75" y="218.731">NasjonalArealplanId</text><line style="stroke:#181818;stroke-width:0.5;" x1="268.5" x2="558.5" y1="229.44" y2="229.44"/><ellipse cx="278.5" cy="243.1841" fill="none" rx="3" ry="3" style="stroke:#038048;stroke-width:1.0;"/><text fill="#000000" font-family="sans-serif" font-size="14" lengthAdjust="spacing" textLength="266" x="287.5" y="246.9752">administrativEnhet: AdministrativEnhet</text><ellipse cx="278.5" cy="259.6724" fill="none" rx="3" ry="3" style="stroke:#038048;stroke-width:1.0;"/><text fill="#000000" font-family="sans-serif" font-size="14" lengthAdjust="spacing" textLength="171" x="287.5" y="263.4634">planidentifikasjon: string</text><line style="stroke:#181818;stroke-width:0.5;" x1="268.5" x2="558.5" y1="270.4166" y2="270.4166"/></g><!--class AdministrativEnhet--><g id="elem_AdministrativEnhet"><rect codeLine="8" fill="#F1F1F1" height="97.4648" id="AdministrativEnhet" rx="2.5" ry="2.5" style="stroke:#181818;stroke-width:0.5;" width="162" x="332.5" y="371.4"/><ellipse cx="347.5" cy="387.4" fill="#EB937F" rx="11" ry="11" style="stroke:#181818;stroke-width:1.0;"/><path d="M351.1143,393.9 L343.3945,393.9 L343.3945,381.5069 L351.1143,381.5069 L351.1143,383.6651 L345.8433,383.6651 L345.8433,386.338 L350.6162,386.338 L350.6162,388.4962 L345.8433,388.4962 L345.8433,391.7418 L351.1143,391.7418 Z " fill="#000000"/><text fill="#000000" font-family="sans-serif" font-size="14" lengthAdjust="spacing" textLength="130" x="361.5" y="392.691">AdministrativEnhet</text><line style="stroke:#181818;stroke-width:0.5;" x1="333.5" x2="493.5" y1="403.4" y2="403.4"/><text fill="#000000" font-family="sans-serif" font-size="14" lengthAdjust="spacing" textLength="127" x="338.5" y="420.9352">kommunenummer</text><text fill="#000000" font-family="sans-serif" font-size="14" lengthAdjust="spacing" textLength="97" x="338.5" y="437.4234">fylkesnummer</text><text fill="#000000" font-family="sans-serif" font-size="14" lengthAdjust="spacing" textLength="71" x="338.5" y="453.9117">landskode</text><line style="stroke:#181818;stroke-width:0.5;" x1="333.5" x2="493.5" y1="460.8648" y2="460.8648"/></g><!--class Dokument--><g id="elem_Dokument"><rect codeLine="1" fill="#F1F1F1" height="146.9297" id="Dokument" rx="2.5" ry="2.5" style="stroke:#181818;stroke-width:0.5;" width="335" x="595" y="164.47"/><ellipse cx="722.75" cy="180.47" fill="#ADD1B2" rx="11" ry="11" style="stroke:#181818;stroke-width:1.0;"/><path d="M725.2231,186.6131 Q724.6421,186.9119 724.0029,187.0613 Q723.3638,187.2107 722.6582,187.2107 Q720.1514,187.2107 718.8315,185.5589 Q717.5117,183.907 717.5117,180.7859 Q717.5117,177.6565 718.8315,176.0047 Q720.1514,174.3528 722.6582,174.3528 Q723.3638,174.3528 724.0112,174.5022 Q724.6587,174.6516 725.2231,174.9505 L725.2231,177.6731 Q724.5923,177.0921 723.9988,176.8223 Q723.4053,176.5525 722.7744,176.5525 Q721.4297,176.5525 720.7449,177.6192 Q720.0601,178.6858 720.0601,180.7859 Q720.0601,182.8777 720.7449,183.9444 Q721.4297,185.011 722.7744,185.011 Q723.4053,185.011 723.9988,184.7412 Q724.5923,184.4715 725.2231,183.8904 Z " fill="#000000"/><text fill="#000000" font-family="sans-serif" font-size="14" lengthAdjust="spacing" textLength="71" x="743.25" y="185.761">Dokument</text><line style="stroke:#181818;stroke-width:0.5;" x1="596" x2="929" y1="196.47" y2="196.47"/><ellipse cx="606" cy="210.2141" fill="none" rx="3" ry="3" style="stroke:#038048;stroke-width:1.0;"/><text fill="#000000" font-family="sans-serif" font-size="14" lengthAdjust="spacing" textLength="79" x="615" y="214.0052">tittel: string</text><ellipse cx="606" cy="226.7024" fill="none" rx="3" ry="3" style="stroke:#038048;stroke-width:1.0;"/><text fill="#000000" font-family="sans-serif" font-size="14" lengthAdjust="spacing" textLength="207" x="615" y="230.4934">dokumenttype: Dokumenttype</text><ellipse cx="606" cy="243.1907" fill="none" rx="3" ry="3" style="stroke:#038048;stroke-width:1.0;"/><text fill="#000000" font-family="sans-serif" font-size="14" lengthAdjust="spacing" textLength="309" x="615" y="246.9817">referanseDokumentfil: ReferanseDokumentfil</text><ellipse cx="606" cy="259.679" fill="none" rx="3" ry="3" style="stroke:#038048;stroke-width:1.0;"/><text fill="#000000" font-family="sans-serif" font-size="14" lengthAdjust="spacing" textLength="115" x="615" y="263.47">mimetype: string</text><ellipse cx="606" cy="276.1673" fill="none" rx="3" ry="3" style="stroke:#038048;stroke-width:1.0;"/><text fill="#000000" font-family="sans-serif" font-size="14" lengthAdjust="spacing" textLength="146" x="615" y="279.9583">dokumentsdato: date</text><ellipse cx="606" cy="292.6555" fill="none" rx="3" ry="3" style="stroke:#038048;stroke-width:1.0;"/><text fill="#000000" font-family="sans-serif" font-size="14" lengthAdjust="spacing" textLength="114" x="615" y="296.4466">arkivnavn: string</text><line style="stroke:#181818;stroke-width:0.5;" x1="596" x2="929" y1="303.3997" y2="303.3997"/></g><!--class Dokumenttype--><g id="elem_Dokumenttype"><rect codeLine="13" fill="#F1F1F1" height="89.5977" id="Dokumenttype" rx="2.5" ry="2.5" style="stroke:#181818;stroke-width:0.5;" width="184" x="599.5" y="375.33"/><ellipse cx="637.9" cy="395.6405" fill="#ADD1B2" rx="11" ry="11" style="stroke:#181818;stroke-width:1.0;"/><path d="M640.3731,401.7836 Q639.7921,402.0824 639.1529,402.2319 Q638.5138,402.3813 637.8082,402.3813 Q635.3014,402.3813 633.9815,400.7294 Q632.6617,399.0776 632.6617,395.9565 Q632.6617,392.8271 633.9815,391.1752 Q635.3014,389.5234 637.8082,389.5234 Q638.5138,389.5234 639.1612,389.6728 Q639.8087,389.8222 640.3731,390.121 L640.3731,392.8437 Q639.7423,392.2626 639.1488,391.9928 Q638.5553,391.7231 637.9244,391.7231 Q636.5797,391.7231 635.8949,392.7897 Q635.2101,393.8564 635.2101,395.9565 Q635.2101,398.0483 635.8949,399.1149 Q636.5797,400.1816 637.9244,400.1816 Q638.5553,400.1816 639.1488,399.9118 Q639.7423,399.642 640.3731,399.061 Z " fill="#000000"/><text fill="#000000" font-family="sans-serif" font-size="12" font-style="italic" lengthAdjust="spacing" textLength="42" x="686.1" y="391.9316">&#171;Kode&#187;</text><text fill="#000000" font-family="sans-serif" font-size="14" lengthAdjust="spacing" textLength="100" x="657.1" y="407.998">Dokumenttype</text><line style="stroke:#181818;stroke-width:0.5;" x1="600.5" x2="782.5" y1="415.9511" y2="415.9511"/><ellipse cx="610.5" cy="429.6952" fill="none" rx="3" ry="3" style="stroke:#038048;stroke-width:1.0;"/><text fill="#000000" font-family="sans-serif" font-size="14" lengthAdjust="spacing" textLength="116" x="619.5" y="433.4863">kodeverdi: string</text><ellipse cx="610.5" cy="446.1835" fill="none" rx="3" ry="3" style="stroke:#038048;stroke-width:1.0;"/><text fill="#000000" font-family="sans-serif" font-size="14" lengthAdjust="spacing" textLength="158" x="619.5" y="449.9745">kodebeskrivelse: string</text><line style="stroke:#181818;stroke-width:0.5;" x1="600.5" x2="782.5" y1="456.9277" y2="456.9277"/></g><!--class ReferanseDokumentfil--><g id="elem_ReferanseDokumentfil"><rect codeLine="18" fill="#F1F1F1" height="80.9766" id="ReferanseDokumentfil" rx="2.5" ry="2.5" style="stroke:#181818;stroke-width:0.5;" width="184" x="818.5" y="379.64"/><ellipse cx="833.5" cy="395.64" fill="#ADD1B2" rx="11" ry="11" style="stroke:#181818;stroke-width:1.0;"/><path d="M835.9731,401.7831 Q835.3921,402.0819 834.7529,402.2313 Q834.1138,402.3807 833.4082,402.3807 Q830.9014,402.3807 829.5815,400.7289 Q828.2617,399.077 828.2617,395.9559 Q828.2617,392.8265 829.5815,391.1747 Q830.9014,389.5228 833.4082,389.5228 Q834.1138,389.5228 834.7612,389.6722 Q835.4087,389.8216 835.9731,390.1205 L835.9731,392.8431 Q835.3423,392.2621 834.7488,391.9923 Q834.1553,391.7225 833.5244,391.7225 Q832.1797,391.7225 831.4949,392.7892 Q830.8101,393.8558 830.8101,395.9559 Q830.8101,398.0477 831.4949,399.1144 Q832.1797,400.181 833.5244,400.181 Q834.1553,400.181 834.7488,399.9112 Q835.3423,399.6415 835.9731,399.0604 Z " fill="#000000"/><text fill="#000000" font-family="sans-serif" font-size="14" lengthAdjust="spacing" textLength="152" x="847.5" y="400.931">ReferanseDokumentfil</text><line style="stroke:#181818;stroke-width:0.5;" x1="819.5" x2="1001.5" y1="411.64" y2="411.64"/><ellipse cx="829.5" cy="425.3841" fill="none" rx="3" ry="3" style="stroke:#038048;stroke-width:1.0;"/><text fill="#000000" font-family="sans-serif" font-size="14" lengthAdjust="spacing" textLength="61" x="838.5" y="429.1752">id: string</text><ellipse cx="829.5" cy="441.8724" fill="none" rx="3" ry="3" style="stroke:#038048;stroke-width:1.0;"/><text fill="#000000" font-family="sans-serif" font-size="14" lengthAdjust="spacing" textLength="67" x="838.5" y="445.6634">url: string</text><line style="stroke:#181818;stroke-width:0.5;" x1="819.5" x2="1001.5" y1="452.6166" y2="452.6166"/></g><!--class RegistrerPlanavgrensning--><g id="elem_RegistrerPlanavgrensning"><rect codeLine="5" fill="#F1F1F1" height="97.4648" id="RegistrerPlanavgrensning" rx="2.5" ry="2.5" style="stroke:#181818;stroke-width:0.5;" width="309" x="259" y="7"/><ellipse cx="321.25" cy="23" fill="#ADD1B2" rx="11" ry="11" style="stroke:#181818;stroke-width:1.0;"/><path d="M323.7231,29.1431 Q323.1421,29.4419 322.5029,29.5913 Q321.8638,29.7407 321.1582,29.7407 Q318.6514,29.7407 317.3315,28.0889 Q316.0117,26.437 316.0117,23.3159 Q316.0117,20.1865 317.3315,18.5347 Q318.6514,16.8828 321.1582,16.8828 Q321.8638,16.8828 322.5112,17.0322 Q323.1587,17.1816 323.7231,17.4805 L323.7231,20.2031 Q323.0923,19.6221 322.4988,19.3523 Q321.9053,19.0825 321.2744,19.0825 Q319.9297,19.0825 319.2449,20.1492 Q318.5601,21.2158 318.5601,23.3159 Q318.5601,25.4077 319.2449,26.4744 Q319.9297,27.541 321.2744,27.541 Q321.9053,27.541 322.4988,27.2712 Q323.0923,27.0015 323.7231,26.4204 Z " fill="#000000"/><text fill="#000000" font-family="sans-serif" font-size="14" lengthAdjust="spacing" textLength="176" x="341.75" y="28.291">RegistrerPlanavgrensning</text><line style="stroke:#181818;stroke-width:0.5;" x1="260" x2="567" y1="39" y2="39"/><ellipse cx="270" cy="52.7441" fill="none" rx="3" ry="3" style="stroke:#038048;stroke-width:1.0;"/><text fill="#000000" font-family="sans-serif" font-size="14" lengthAdjust="spacing" textLength="283" x="279" y="56.5352">nasjonalArealplanId: NasjonalArealplanId</text><ellipse cx="270" cy="69.2324" fill="none" rx="3" ry="3" style="stroke:#038048;stroke-width:1.0;"/><text fill="#000000" font-family="sans-serif" font-size="14" lengthAdjust="spacing" textLength="185" x="279" y="73.0234">saksnummer: Saksnummer</text><ellipse cx="270" cy="85.7207" fill="none" rx="3" ry="3" style="stroke:#038048;stroke-width:1.0;"/><text fill="#000000" font-family="sans-serif" font-size="14" lengthAdjust="spacing" textLength="143" x="279" y="89.5117">vedlegg: Dokument[]</text><line style="stroke:#181818;stroke-width:0.5;" x1="260" x2="567" y1="96.4648" y2="96.4648"/></g><!--link NasjonalArealplanId to AdministrativEnhet--><g id="link_NasjonalArealplanId_AdministrativEnhet"><path codeLine="6" d="M413.5,278.48 C413.5,305.72 413.5,342.09 413.5,371.02 " fill="none" id="NasjonalArealplanId-AdministrativEnhet" style="stroke:#181818;stroke-width:1.0;"/></g><!--link Dokument to Dokumenttype--><g id="link_Dokument_Dokumenttype"><path codeLine="10" d="M733.83,311.7 C725.4,333.1 716.44,355.84 708.94,374.87 " fill="none" id="Dokument-Dokumenttype" style="stroke:#181818;stroke-width:1.0;"/></g><!--link Dokument to ReferanseDokumentfil--><g id="link_Dokument_ReferanseDokumentfil"><path codeLine="11" d="M822.27,311.7 C841.2,334.76 861.43,359.38 877.73,379.23 " fill="none" id="Dokument-ReferanseDokumentfil" style="stroke:#181818;stroke-width:1.0;"/></g><!--link RegistrerPlanavgrensning to NasjonalArealplanId--><g id="link_RegistrerPlanavgrensning_NasjonalArealplanId"><path codeLine="11" d="M413.5,104.55 C413.5,133.43 413.5,169.81 413.5,197.12 " fill="none" id="RegistrerPlanavgrensning-NasjonalArealplanId" style="stroke:#181818;stroke-width:1.0;"/></g><!--link RegistrerPlanavgrensning to Saksnummer--><g id="link_RegistrerPlanavgrensning_Saksnummer"><path codeLine="12" d="M335.1,104.79 C287.98,133.67 228.74,169.98 184.29,197.22 " fill="none" id="RegistrerPlanavgrensning-Saksnummer" style="stroke:#181818;stroke-width:1.0;"/></g><!--link RegistrerPlanavgrensning to Dokument--><g id="link_RegistrerPlanavgrensning_Dokument"><path codeLine="13" d="M506.57,104.79 C541.8,122.98 582.75,144.12 621.42,164.09 " fill="none" id="RegistrerPlanavgrensning-Dokument" style="stroke:#181818;stroke-width:1.0;"/></g><!--SRC=[bK-n3e903DtlAuxPq4iSsKnSN8pHqJXSk78vEGgv0elntuKWOY8IxT2yjA_llKQEKjyObA0059MGCsIkQvNN1EqQClGU6LZdJ4rHO50JXAeHqOy2fFbQalOweFRzpXarC_j7qfHvKo3LQWJziKYzPfP7j8xhWE7GtUZM1YGcHrRUXEngDLflHkkTIUJ-SpYmfvSJUNhXOTUYyMXj8hVF5EUBk0lnDK0Sp_eiyTyibsXZ0F40]--></g></svg>