<?xml version="1.0" encoding="us-ascii" standalone="no"?><svg xmlns="http://www.w3.org/2000/svg" xmlns:xlink="http://www.w3.org/1999/xlink" contentStyleType="text/css" height="202px" preserveAspectRatio="none" style="width:1365px;height:202px;background:#FFFFFF;" version="1.1" viewBox="0 0 1365 202" width="1365px" zoomAndPan="magnify"><defs/><g><!--class HentAktoerer--><g id="elem_HentAktoerer"><rect codeLine="2" fill="#F1F1F1" height="80.9766" id="HentAktoerer" rx="2.5" ry="2.5" style="stroke:#181818;stroke-width:0.5;" width="309" x="507.5" y="7"/><ellipse cx="611.75" cy="23" fill="#ADD1B2" rx="11" ry="11" style="stroke:#181818;stroke-width:1.0;"/><path d="M614.2231,29.1431 Q613.6421,29.4419 613.0029,29.5913 Q612.3638,29.7407 611.6582,29.7407 Q609.1514,29.7407 607.8315,28.0889 Q606.5117,26.437 606.5117,23.3159 Q606.5117,20.1865 607.8315,18.5347 Q609.1514,16.8828 611.6582,16.8828 Q612.3638,16.8828 613.0112,17.0322 Q613.6587,17.1816 614.2231,17.4805 L614.2231,20.2031 Q613.5923,19.6221 612.9988,19.3523 Q612.4053,19.0825 611.7744,19.0825 Q610.4297,19.0825 609.7449,20.1492 Q609.0601,21.2158 609.0601,23.3159 Q609.0601,25.4077 609.7449,26.4744 Q610.4297,27.541 611.7744,27.541 Q612.4053,27.541 612.9988,27.2712 Q613.5923,27.0015 614.2231,26.4204 Z " fill="#000000"/><text fill="#000000" font-family="sans-serif" font-size="14" lengthAdjust="spacing" textLength="92" x="632.25" y="28.291">HentAktoerer</text><line style="stroke:#181818;stroke-width:0.5;" x1="508.5" x2="815.5" y1="39" y2="39"/><ellipse cx="518.5" cy="52.7441" fill="none" rx="3" ry="3" style="stroke:#038048;stroke-width:1.0;"/><text fill="#000000" font-family="sans-serif" font-size="14" lengthAdjust="spacing" textLength="185" x="527.5" y="56.5352">saksnummer: Saksnummer</text><ellipse cx="518.5" cy="69.2324" fill="none" rx="3" ry="3" style="stroke:#038048;stroke-width:1.0;"/><text fill="#000000" font-family="sans-serif" font-size="14" lengthAdjust="spacing" textLength="283" x="527.5" y="73.0234">nasjonalArealplanId: NasjonalArealplanId</text><line style="stroke:#181818;stroke-width:0.5;" x1="508.5" x2="815.5" y1="79.9766" y2="79.9766"/></g><!--class Saksnummer--><g id="elem_Saksnummer"><rect fill="#F1F1F1" height="48" id="Saksnummer" rx="2.5" ry="2.5" style="stroke:#181818;stroke-width:0.5;" width="121" x="450.5" y="147.98"/><ellipse cx="465.5" cy="163.98" fill="#ADD1B2" rx="11" ry="11" style="stroke:#181818;stroke-width:1.0;"/><path d="M467.9731,170.1231 Q467.3921,170.4219 466.7529,170.5713 Q466.1138,170.7207 465.4082,170.7207 Q462.9014,170.7207 461.5815,169.0689 Q460.2617,167.417 460.2617,164.2959 Q460.2617,161.1665 461.5815,159.5147 Q462.9014,157.8628 465.4082,157.8628 Q466.1138,157.8628 466.7612,158.0122 Q467.4087,158.1616 467.9731,158.4605 L467.9731,161.1831 Q467.3423,160.6021 466.7488,160.3323 Q466.1553,160.0625 465.5244,160.0625 Q464.1797,160.0625 463.4949,161.1292 Q462.8101,162.1958 462.8101,164.2959 Q462.8101,166.3877 463.4949,167.4544 Q464.1797,168.521 465.5244,168.521 Q466.1553,168.521 466.7488,168.2512 Q467.3423,167.9815 467.9731,167.4004 Z " fill="#000000"/><text fill="#000000" font-family="sans-serif" font-size="14" lengthAdjust="spacing" textLength="89" x="479.5" y="169.271">Saksnummer</text><line style="stroke:#181818;stroke-width:0.5;" x1="451.5" x2="570.5" y1="179.98" y2="179.98"/><line style="stroke:#181818;stroke-width:0.5;" x1="451.5" x2="570.5" y1="187.98" y2="187.98"/></g><!--class NasjonalArealplanId--><g id="elem_NasjonalArealplanId"><rect fill="#F1F1F1" height="48" id="NasjonalArealplanId" rx="2.5" ry="2.5" style="stroke:#181818;stroke-width:0.5;" width="170" x="728" y="147.98"/><ellipse cx="743" cy="163.98" fill="#ADD1B2" rx="11" ry="11" style="stroke:#181818;stroke-width:1.0;"/><path d="M745.4731,170.1231 Q744.8921,170.4219 744.2529,170.5713 Q743.6138,170.7207 742.9082,170.7207 Q740.4014,170.7207 739.0815,169.0689 Q737.7617,167.417 737.7617,164.2959 Q737.7617,161.1665 739.0815,159.5147 Q740.4014,157.8628 742.9082,157.8628 Q743.6138,157.8628 744.2612,158.0122 Q744.9087,158.1616 745.4731,158.4605 L745.4731,161.1831 Q744.8423,160.6021 744.2488,160.3323 Q743.6553,160.0625 743.0244,160.0625 Q741.6797,160.0625 740.9949,161.1292 Q740.3101,162.1958 740.3101,164.2959 Q740.3101,166.3877 740.9949,167.4544 Q741.6797,168.521 743.0244,168.521 Q743.6553,168.521 744.2488,168.2512 Q744.8423,167.9815 745.4731,167.4004 Z " fill="#000000"/><text fill="#000000" font-family="sans-serif" font-size="14" lengthAdjust="spacing" textLength="138" x="757" y="169.271">NasjonalArealplanId</text><line style="stroke:#181818;stroke-width:0.5;" x1="729" x2="897" y1="179.98" y2="179.98"/><line style="stroke:#181818;stroke-width:0.5;" x1="729" x2="897" y1="187.98" y2="187.98"/></g><g id="elem_GMN7"><path d="M6,34.84 L6,60.1505 A0,0 0 0 0 6,60.1505 L261.58,60.1505 L458.82,147.48 L269.58,60.1505 L472,60.1505 A0,0 0 0 0 472,60.1505 L472,44.84 L462,34.84 L6,34.84 A0,0 0 0 0 6,34.84 " fill="#FEFFDD" style="stroke:#181818;stroke-width:0.5;"/><path d="M462,34.84 L462,44.84 L472,44.84 L462,34.84 " fill="#FEFFDD" style="stroke:#181818;stroke-width:0.5;"/><text fill="#000000" font-family="sans-serif" font-size="13" lengthAdjust="spacing" textLength="445" x="12" y="52.4084">Se detaljer i diagram for skjema 'no.ks.fiks.plan.v2.felles.saksnummer'</text></g><g id="elem_GMN10"><path d="M851.5,34.84 L851.5,60.1505 A0,0 0 0 0 851.5,60.1505 L1072.2,60.1505 L868.89,147.53 L1080.2,60.1505 L1358.5,60.1505 A0,0 0 0 0 1358.5,60.1505 L1358.5,44.84 L1348.5,34.84 L851.5,34.84 A0,0 0 0 0 851.5,34.84 " fill="#FEFFDD" style="stroke:#181818;stroke-width:0.5;"/><path d="M1348.5,34.84 L1348.5,44.84 L1358.5,44.84 L1348.5,34.84 " fill="#FEFFDD" style="stroke:#181818;stroke-width:0.5;"/><text fill="#000000" font-family="sans-serif" font-size="13" lengthAdjust="spacing" textLength="486" x="857.5" y="52.4084">Se detaljer i diagram for skjema 'no.ks.fiks.plan.v2.felles.nasjonalarealplanid'</text></g><!--link HentAktoerer to Saksnummer--><g id="link_HentAktoerer_Saksnummer"><path codeLine="7" d="M612.97,88.26 C588.69,107.96 560.22,131.05 539.54,147.83 " fill="none" id="HentAktoerer-Saksnummer" style="stroke:#181818;stroke-width:1.0;"/></g><!--link HentAktoerer to NasjonalArealplanId--><g id="link_HentAktoerer_NasjonalArealplanId"><path codeLine="8" d="M711.03,88.26 C735.31,107.96 763.78,131.05 784.46,147.83 " fill="none" id="HentAktoerer-NasjonalArealplanId" style="stroke:#181818;stroke-width:1.0;"/></g><!--SRC=[fP0x3i8m38RtdC9R1zGCZDswmSB22IpYe3HEKiM11N5tWb2XXMvuiFoGlz_sYL44TXHBxqkYJ1bk2gfj1Bt4ImYKEpY-urSleWmf8lUPa4V6k3ST77wBwgxKWjssSzPtQusWOYe49OsGx6mMwb84XWhoK3C7nk4vOm2RCeWVA20qCMalshhgdZHztMfBp2JwSrop45ZPu4-bwLKu4Prfr0C0]--></g></svg>