<svg xmlns="http://www.w3.org/2000/svg" xmlns:xlink="http://www.w3.org/1999/xlink" contentStyleType="text/css" height="393px" preserveAspectRatio="none" style="width:566px;height:393px;background:#FFFFFF;" version="1.1" viewBox="0 0 566 393" width="566px" zoomAndPan="magnify"><defs/><g><!--class Saksnummer--><g id="elem_Saksnummer"><rect codeLine="2" fill="#F1F1F1" height="80.9766" id="Saksnummer" rx="2.5" ry="2.5" style="stroke:#181818;stroke-width:0.5;" width="225" x="7" y="147.98"/><ellipse cx="70.75" cy="163.98" fill="#ADD1B2" rx="11" ry="11" style="stroke:#181818;stroke-width:1.0;"/><path d="M73.2231,170.1231 Q72.6421,170.4219 72.0029,170.5713 Q71.3638,170.7207 70.6582,170.7207 Q68.1514,170.7207 66.8315,169.0689 Q65.5117,167.417 65.5117,164.2959 Q65.5117,161.1665 66.8315,159.5147 Q68.1514,157.8628 70.6582,157.8628 Q71.3638,157.8628 72.0112,158.0122 Q72.6587,158.1616 73.2231,158.4605 L73.2231,161.1831 Q72.5923,160.6021 71.9988,160.3323 Q71.4053,160.0625 70.7744,160.0625 Q69.4297,160.0625 68.7449,161.1292 Q68.0601,162.1958 68.0601,164.2959 Q68.0601,166.3877 68.7449,167.4544 Q69.4297,168.521 70.7744,168.521 Q71.4053,168.521 71.9988,168.2512 Q72.5923,167.9815 73.2231,167.4004 Z " fill="#000000"/><text fill="#000000" font-family="sans-serif" font-size="14" lengthAdjust="spacing" textLength="89" x="91.25" y="169.271">Saksnummer</text><line style="stroke:#181818;stroke-width:0.5;" x1="8" x2="231" y1="179.98" y2="179.98"/><ellipse cx="18" cy="193.7241" fill="none" rx="3" ry="3" style="stroke:#038048;stroke-width:1.0;"/><text fill="#000000" font-family="sans-serif" font-size="14" lengthAdjust="spacing" textLength="109" x="27" y="197.5152">saksaar: integer</text><ellipse cx="18" cy="210.2124" fill="none" rx="3" ry="3" style="stroke:#038048;stroke-width:1.0;"/><text fill="#000000" font-family="sans-serif" font-size="14" lengthAdjust="spacing" textLength="199" x="27" y="214.0034">sakssekvensnummer: integer</text><line style="stroke:#181818;stroke-width:0.5;" x1="8" x2="231" y1="220.9566" y2="220.9566"/></g><!--class NasjonalArealplanId--><g id="elem_NasjonalArealplanId"><rect codeLine="1" fill="#F1F1F1" height="80.9766" id="NasjonalArealplanId" rx="2.5" ry="2.5" style="stroke:#181818;stroke-width:0.5;" width="292" x="267.5" y="147.98"/><ellipse cx="340.25" cy="163.98" fill="#ADD1B2" rx="11" ry="11" style="stroke:#181818;stroke-width:1.0;"/><path d="M342.7231,170.1231 Q342.1421,170.4219 341.5029,170.5713 Q340.8638,170.7207 340.1582,170.7207 Q337.6514,170.7207 336.3315,169.0689 Q335.0117,167.417 335.0117,164.2959 Q335.0117,161.1665 336.3315,159.5147 Q337.6514,157.8628 340.1582,157.8628 Q340.8638,157.8628 341.5112,158.0122 Q342.1587,158.1616 342.7231,158.4605 L342.7231,161.1831 Q342.0923,160.6021 341.4988,160.3323 Q340.9053,160.0625 340.2744,160.0625 Q338.9297,160.0625 338.2449,161.1292 Q337.5601,162.1958 337.5601,164.2959 Q337.5601,166.3877 338.2449,167.4544 Q338.9297,168.521 340.2744,168.521 Q340.9053,168.521 341.4988,168.2512 Q342.0923,167.9815 342.7231,167.4004 Z " fill="#000000"/><text fill="#000000" font-family="sans-serif" font-size="14" lengthAdjust="spacing" textLength="138" x="360.75" y="169.271">NasjonalArealplanId</text><line style="stroke:#181818;stroke-width:0.5;" x1="268.5" x2="558.5" y1="179.98" y2="179.98"/><ellipse cx="278.5" cy="193.7241" fill="none" rx="3" ry="3" style="stroke:#038048;stroke-width:1.0;"/><text fill="#000000" font-family="sans-serif" font-size="14" lengthAdjust="spacing" textLength="266" x="287.5" y="197.5152">administrativEnhet: AdministrativEnhet</text><ellipse cx="278.5" cy="210.2124" fill="none" rx="3" ry="3" style="stroke:#038048;stroke-width:1.0;"/><text fill="#000000" font-family="sans-serif" font-size="14" lengthAdjust="spacing" textLength="171" x="287.5" y="214.0034">planidentifikasjon: string</text><line style="stroke:#181818;stroke-width:0.5;" x1="268.5" x2="558.5" y1="220.9566" y2="220.9566"/></g><!--class AdministrativEnhet--><g id="elem_AdministrativEnhet"><rect codeLine="8" fill="#F1F1F1" height="97.4648" id="AdministrativEnhet" rx="2.5" ry="2.5" style="stroke:#181818;stroke-width:0.5;" width="162" x="332.5" y="288.96"/><ellipse cx="347.5" cy="304.96" fill="#EB937F" rx="11" ry="11" style="stroke:#181818;stroke-width:1.0;"/><path d="M351.1143,311.46 L343.3945,311.46 L343.3945,299.0669 L351.1143,299.0669 L351.1143,301.2251 L345.8433,301.2251 L345.8433,303.898 L350.6162,303.898 L350.6162,306.0562 L345.8433,306.0562 L345.8433,309.3018 L351.1143,309.3018 Z " fill="#000000"/><text fill="#000000" font-family="sans-serif" font-size="14" lengthAdjust="spacing" textLength="130" x="361.5" y="310.251">AdministrativEnhet</text><line style="stroke:#181818;stroke-width:0.5;" x1="333.5" x2="493.5" y1="320.96" y2="320.96"/><text fill="#000000" font-family="sans-serif" font-size="14" lengthAdjust="spacing" textLength="127" x="338.5" y="338.4952">kommunenummer</text><text fill="#000000" font-family="sans-serif" font-size="14" lengthAdjust="spacing" textLength="97" x="338.5" y="354.9834">fylkesnummer</text><text fill="#000000" font-family="sans-serif" font-size="14" lengthAdjust="spacing" textLength="71" x="338.5" y="371.4717">landskode</text><line style="stroke:#181818;stroke-width:0.5;" x1="333.5" x2="493.5" y1="378.4248" y2="378.4248"/></g><!--class HentAktoerer--><g id="elem_HentAktoerer"><rect codeLine="4" fill="#F1F1F1" height="80.9766" id="HentAktoerer" rx="2.5" ry="2.5" style="stroke:#181818;stroke-width:0.5;" width="309" x="112" y="7"/><ellipse cx="216.25" cy="23" fill="#ADD1B2" rx="11" ry="11" style="stroke:#181818;stroke-width:1.0;"/><path d="M218.7231,29.1431 Q218.1421,29.4419 217.5029,29.5913 Q216.8638,29.7407 216.1582,29.7407 Q213.6514,29.7407 212.3315,28.0889 Q211.0117,26.437 211.0117,23.3159 Q211.0117,20.1865 212.3315,18.5347 Q213.6514,16.8828 216.1582,16.8828 Q216.8638,16.8828 217.5112,17.0322 Q218.1587,17.1816 218.7231,17.4805 L218.7231,20.2031 Q218.0923,19.6221 217.4988,19.3523 Q216.9053,19.0825 216.2744,19.0825 Q214.9297,19.0825 214.2449,20.1492 Q213.5601,21.2158 213.5601,23.3159 Q213.5601,25.4077 214.2449,26.4744 Q214.9297,27.541 216.2744,27.541 Q216.9053,27.541 217.4988,27.2712 Q218.0923,27.0015 218.7231,26.4204 Z " fill="#000000"/><text fill="#000000" font-family="sans-serif" font-size="14" lengthAdjust="spacing" textLength="92" x="236.75" y="28.291">HentAktoerer</text><line style="stroke:#181818;stroke-width:0.5;" x1="113" x2="420" y1="39" y2="39"/><ellipse cx="123" cy="52.7441" fill="none" rx="3" ry="3" style="stroke:#038048;stroke-width:1.0;"/><text fill="#000000" font-family="sans-serif" font-size="14" lengthAdjust="spacing" textLength="185" x="132" y="56.5352">saksnummer: Saksnummer</text><ellipse cx="123" cy="69.2324" fill="none" rx="3" ry="3" style="stroke:#038048;stroke-width:1.0;"/><text fill="#000000" font-family="sans-serif" font-size="14" lengthAdjust="spacing" textLength="283" x="132" y="73.0234">nasjonalArealplanId: NasjonalArealplanId</text><line style="stroke:#181818;stroke-width:0.5;" x1="113" x2="420" y1="79.9766" y2="79.9766"/></g><!--link NasjonalArealplanId to AdministrativEnhet--><g id="link_NasjonalArealplanId_AdministrativEnhet"><path codeLine="6" d="M413.5,229.31 C413.5,247.62 413.5,269.48 413.5,288.69 " fill="none" id="NasjonalArealplanId-AdministrativEnhet" style="stroke:#181818;stroke-width:1.0;"/></g><!--link HentAktoerer to Saksnummer--><g id="link_HentAktoerer_Saksnummer"><path codeLine="9" d="M224.38,88.32 C204.69,106.92 181.31,129.03 161.63,147.64 " fill="none" id="HentAktoerer-Saksnummer" style="stroke:#181818;stroke-width:1.0;"/></g><!--link HentAktoerer to NasjonalArealplanId--><g id="link_HentAktoerer_NasjonalArealplanId"><path codeLine="10" d="M308.62,88.32 C328.31,106.92 351.69,129.03 371.37,147.64 " fill="none" id="HentAktoerer-NasjonalArealplanId" style="stroke:#181818;stroke-width:1.0;"/></g><!--SRC=[ZSqz3eCm30NWFQS8SuKZTMHZQvSkFO55Z9J6E2Y6BbNlNb15wGz3FLZMUzBd8aZ3eoSB3i19WgZGXcdrZ0BNFRJ4J0gAKMNiEifkFQ4VJV4d8AYN9CYO2NdkWdSRsKoQXb7L7aY6EWw9CcLxCtQQtVgxikVN_UmMhLwqew_iwJSqTsC-xB9yjxwhBU41]--></g></svg>