<?xml version="1.0" encoding="us-ascii" standalone="no"?><svg xmlns="http://www.w3.org/2000/svg" xmlns:xlink="http://www.w3.org/1999/xlink" contentStyleType="text/css" height="202px" preserveAspectRatio="none" style="width:1348px;height:202px;background:#FFFFFF;" version="1.1" viewBox="0 0 1348 202" width="1348px" zoomAndPan="magnify"><defs/><g><!--class RegistrerGjeldendePlandokumenter--><g id="elem_RegistrerGjeldendePlandokumenter"><rect codeLine="2" fill="#F1F1F1" height="80.9766" id="RegistrerGjeldendePlandokumenter" rx="2.5" ry="2.5" style="stroke:#181818;stroke-width:0.5;" width="309" x="548" y="7"/><ellipse cx="577.85" cy="23" fill="#ADD1B2" rx="11" ry="11" style="stroke:#181818;stroke-width:1.0;"/><path d="M580.3231,29.1431 Q579.7421,29.4419 579.1029,29.5913 Q578.4638,29.7407 577.7582,29.7407 Q575.2514,29.7407 573.9315,28.0889 Q572.6117,26.437 572.6117,23.3159 Q572.6117,20.1865 573.9315,18.5347 Q575.2514,16.8828 577.7582,16.8828 Q578.4638,16.8828 579.1112,17.0322 Q579.7587,17.1816 580.3231,17.4805 L580.3231,20.2031 Q579.6923,19.6221 579.0988,19.3523 Q578.5053,19.0825 577.8744,19.0825 Q576.5297,19.0825 575.8449,20.1492 Q575.1601,21.2158 575.1601,23.3159 Q575.1601,25.4077 575.8449,26.4744 Q576.5297,27.541 577.8744,27.541 Q578.5053,27.541 579.0988,27.2712 Q579.6923,27.0015 580.3231,26.4204 Z " fill="#000000"/><text fill="#000000" font-family="sans-serif" font-size="14" lengthAdjust="spacing" textLength="244" x="595.15" y="28.291">RegistrerGjeldendePlandokumenter</text><line style="stroke:#181818;stroke-width:0.5;" x1="549" x2="856" y1="39" y2="39"/><ellipse cx="559" cy="52.7441" fill="none" rx="3" ry="3" style="stroke:#038048;stroke-width:1.0;"/><text fill="#000000" font-family="sans-serif" font-size="14" lengthAdjust="spacing" textLength="283" x="568" y="56.5352">nasjonalArealplanId: NasjonalArealplanId</text><ellipse cx="559" cy="69.2324" fill="none" rx="3" ry="3" style="stroke:#038048;stroke-width:1.0;"/><text fill="#000000" font-family="sans-serif" font-size="14" lengthAdjust="spacing" textLength="203" x="568" y="73.0234">plandokumenter: Dokument[]</text><line style="stroke:#181818;stroke-width:0.5;" x1="549" x2="856" y1="79.9766" y2="79.9766"/></g><!--class NasjonalArealplanId--><g id="elem_NasjonalArealplanId"><rect fill="#F1F1F1" height="48" id="NasjonalArealplanId" rx="2.5" ry="2.5" style="stroke:#181818;stroke-width:0.5;" width="170" x="463.5" y="147.98"/><ellipse cx="478.5" cy="163.98" fill="#ADD1B2" rx="11" ry="11" style="stroke:#181818;stroke-width:1.0;"/><path d="M480.9731,170.1231 Q480.3921,170.4219 479.7529,170.5713 Q479.1138,170.7207 478.4082,170.7207 Q475.9014,170.7207 474.5815,169.0689 Q473.2617,167.417 473.2617,164.2959 Q473.2617,161.1665 474.5815,159.5147 Q475.9014,157.8628 478.4082,157.8628 Q479.1138,157.8628 479.7612,158.0122 Q480.4087,158.1616 480.9731,158.4605 L480.9731,161.1831 Q480.3423,160.6021 479.7488,160.3323 Q479.1553,160.0625 478.5244,160.0625 Q477.1797,160.0625 476.4949,161.1292 Q475.8101,162.1958 475.8101,164.2959 Q475.8101,166.3877 476.4949,167.4544 Q477.1797,168.521 478.5244,168.521 Q479.1553,168.521 479.7488,168.2512 Q480.3423,167.9815 480.9731,167.4004 Z " fill="#000000"/><text fill="#000000" font-family="sans-serif" font-size="14" lengthAdjust="spacing" textLength="138" x="492.5" y="169.271">NasjonalArealplanId</text><line style="stroke:#181818;stroke-width:0.5;" x1="464.5" x2="632.5" y1="179.98" y2="179.98"/><line style="stroke:#181818;stroke-width:0.5;" x1="464.5" x2="632.5" y1="187.98" y2="187.98"/></g><!--class Dokument--><g id="elem_Dokument"><rect fill="#F1F1F1" height="48" id="Dokument" rx="2.5" ry="2.5" style="stroke:#181818;stroke-width:0.5;" width="103" x="804" y="147.98"/><ellipse cx="819" cy="163.98" fill="#ADD1B2" rx="11" ry="11" style="stroke:#181818;stroke-width:1.0;"/><path d="M821.4731,170.1231 Q820.8921,170.4219 820.2529,170.5713 Q819.6138,170.7207 818.9082,170.7207 Q816.4014,170.7207 815.0815,169.0689 Q813.7617,167.417 813.7617,164.2959 Q813.7617,161.1665 815.0815,159.5147 Q816.4014,157.8628 818.9082,157.8628 Q819.6138,157.8628 820.2612,158.0122 Q820.9087,158.1616 821.4731,158.4605 L821.4731,161.1831 Q820.8423,160.6021 820.2488,160.3323 Q819.6553,160.0625 819.0244,160.0625 Q817.6797,160.0625 816.9949,161.1292 Q816.3101,162.1958 816.3101,164.2959 Q816.3101,166.3877 816.9949,167.4544 Q817.6797,168.521 819.0244,168.521 Q819.6553,168.521 820.2488,168.2512 Q820.8423,167.9815 821.4731,167.4004 Z " fill="#000000"/><text fill="#000000" font-family="sans-serif" font-size="14" lengthAdjust="spacing" textLength="71" x="833" y="169.271">Dokument</text><line style="stroke:#181818;stroke-width:0.5;" x1="805" x2="906" y1="179.98" y2="179.98"/><line style="stroke:#181818;stroke-width:0.5;" x1="805" x2="906" y1="187.98" y2="187.98"/></g><g id="elem_GMN7"><path d="M6,34.84 L6,60.1505 A0,0 0 0 0 6,60.1505 L284,60.1505 L493.18,147.53 L292,60.1505 L513,60.1505 A0,0 0 0 0 513,60.1505 L513,44.84 L503,34.84 L6,34.84 A0,0 0 0 0 6,34.84 " fill="#FEFFDD" style="stroke:#181818;stroke-width:0.5;"/><path d="M503,34.84 L503,44.84 L513,44.84 L503,34.84 " fill="#FEFFDD" style="stroke:#181818;stroke-width:0.5;"/><text fill="#000000" font-family="sans-serif" font-size="13" lengthAdjust="spacing" textLength="486" x="12" y="52.4084">Se detaljer i diagram for skjema 'no.ks.fiks.plan.v2.felles.nasjonalarealplanid'</text></g><g id="elem_GMN10"><path d="M892,34.84 L892,60.1505 A0,0 0 0 0 892,60.1505 L1087,60.1505 L905.57,147.48 L1095,60.1505 L1341,60.1505 A0,0 0 0 0 1341,60.1505 L1341,44.84 L1331,34.84 L892,34.84 A0,0 0 0 0 892,34.84 " fill="#FEFFDD" style="stroke:#181818;stroke-width:0.5;"/><path d="M1331,34.84 L1331,44.84 L1341,44.84 L1331,34.84 " fill="#FEFFDD" style="stroke:#181818;stroke-width:0.5;"/><text fill="#000000" font-family="sans-serif" font-size="13" lengthAdjust="spacing" textLength="428" x="898" y="52.4084">Se detaljer i diagram for skjema 'no.ks.fiks.plan.v2.felles.dokument'</text></g><!--link RegistrerGjeldendePlandokumenter to NasjonalArealplanId--><g id="link_RegistrerGjeldendePlandokumenter_NasjonalArealplanId"><path codeLine="7" d="M652.5,88.26 C627.73,107.96 598.7,131.05 577.61,147.83 " fill="none" id="RegistrerGjeldendePlandokumenter-NasjonalArealplanId" style="stroke:#181818;stroke-width:1.0;"/></g><!--link RegistrerGjeldendePlandokumenter to Dokument--><g id="link_RegistrerGjeldendePlandokumenter_Dokument"><path codeLine="8" d="M752.17,88.26 C776.78,107.96 805.63,131.05 826.58,147.83 " fill="none" id="RegistrerGjeldendePlandokumenter-Dokument" style="stroke:#181818;stroke-width:1.0;"/></g><!--SRC=[fP2n2W8n38RtFaMs6-GwEDuc2E8YuetY46nwj9ThZxQwYEzkHJiS7YYO8OIG__kJd1bZX0Dr9gP0OME95Jb5UqQdV7yPo2KAS1EGO-4mMk-GLu6GnpooLGtiFfklwN72Q63zheydSHVYgsTTpw9_qHKd8PnF1CcFuFKS3Hfe2HGbP9kb1fJ1Bk00sWU8lQK1eN9Uzb5gazDJ9QzBgOcPeYp_m48qgffObaN-z2dNLU81]--></g></svg>