<svg xmlns="http://www.w3.org/2000/svg" xmlns:xlink="http://www.w3.org/1999/xlink" contentStyleType="text/css" data-diagram-type="CLASS" height="459px" preserveAspectRatio="none" style="width:745px;height:459px;background:#FFFFFF;" version="1.1" viewBox="0 0 745 459" width="745px" zoomAndPan="magnify"><defs/><g><!--class Dokument--><g class="entity" data-entity="Dokument" data-source-line="1" data-uid="ent0002" id="entity_Dokument"><rect fill="#F1F1F1" height="146.9297" rx="2.5" ry="2.5" style="stroke:#181818;stroke-width:0.5;" width="333.0908" x="80.23" y="147.98"/><ellipse cx="207.1494" cy="163.98" fill="#ADD1B2" rx="11" ry="11" style="stroke:#181818;stroke-width:1;"/><path d="M209.6226,170.1231 Q209.0415,170.4219 208.4024,170.5713 Q207.7632,170.7207 207.0576,170.7207 Q204.5508,170.7207 203.231,169.0689 Q201.9112,167.417 201.9112,164.2959 Q201.9112,161.1665 203.231,159.5147 Q204.5508,157.8628 207.0576,157.8628 Q207.7632,157.8628 208.4107,158.0122 Q209.0581,158.1616 209.6226,158.4605 L209.6226,161.1831 Q208.9917,160.6021 208.3982,160.3323 Q207.8047,160.0625 207.1738,160.0625 Q205.8291,160.0625 205.1443,161.1292 Q204.4595,162.1958 204.4595,164.2959 Q204.4595,166.3877 205.1443,167.4544 Q205.8291,168.521 207.1738,168.521 Q207.8047,168.521 208.3982,168.2512 Q208.9917,167.9815 209.6226,167.4004 Z " fill="#000000"/><text fill="#000000" font-family="sans-serif" font-size="14" lengthAdjust="spacing" textLength="70.752" x="227.6494" y="169.271">Dokument</text><line style="stroke:#181818;stroke-width:0.5;" x1="81.23" x2="412.3208" y1="179.98" y2="179.98"/><ellipse cx="91.23" cy="193.7241" fill="none" rx="3" ry="3" style="stroke:#038048;stroke-width:1;"/><text fill="#000000" font-family="sans-serif" font-size="14" lengthAdjust="spacing" textLength="80.0283" x="100.23" y="197.5152">tittel: string</text><ellipse cx="91.23" cy="210.2124" fill="none" rx="3" ry="3" style="stroke:#038048;stroke-width:1;"/><text fill="#000000" font-family="sans-serif" font-size="14" lengthAdjust="spacing" textLength="207.0127" x="100.23" y="214.0034">dokumenttype: Dokumenttype</text><ellipse cx="91.23" cy="226.7007" fill="none" rx="3" ry="3" style="stroke:#038048;stroke-width:1;"/><text fill="#000000" font-family="sans-serif" font-size="14" lengthAdjust="spacing" textLength="307.0908" x="100.23" y="230.4917">referanseDokumentfil: ReferanseDokumentfil</text><ellipse cx="91.23" cy="243.189" fill="none" rx="3" ry="3" style="stroke:#038048;stroke-width:1;"/><text fill="#000000" font-family="sans-serif" font-size="14" lengthAdjust="spacing" textLength="115.5752" x="100.23" y="246.98">mimetype: string</text><ellipse cx="91.23" cy="259.6773" fill="none" rx="3" ry="3" style="stroke:#038048;stroke-width:1;"/><text fill="#000000" font-family="sans-serif" font-size="14" lengthAdjust="spacing" textLength="145.0313" x="100.23" y="263.4683">dokumentsdato: date</text><ellipse cx="91.23" cy="276.1655" fill="none" rx="3" ry="3" style="stroke:#038048;stroke-width:1;"/><text fill="#000000" font-family="sans-serif" font-size="14" lengthAdjust="spacing" textLength="113.7158" x="100.23" y="279.9566">arkivnavn: string</text><line style="stroke:#181818;stroke-width:0.5;" x1="81.23" x2="412.3208" y1="286.9097" y2="286.9097"/></g><!--class Dokumenttype--><g class="entity" data-entity="Dokumenttype" data-source-line="10" data-uid="ent0003" id="entity_Dokumenttype"><rect fill="#F1F1F1" height="89.5977" rx="2.5" ry="2.5" style="stroke:#181818;stroke-width:0.5;" width="183.5547" x="7" y="358.84"/><ellipse cx="45.2383" cy="379.1505" fill="#ADD1B2" rx="11" ry="11" style="stroke:#181818;stroke-width:1;"/><path d="M47.7114,385.2936 Q47.1304,385.5924 46.4912,385.7419 Q45.8521,385.8913 45.1465,385.8913 Q42.6396,385.8913 41.3198,384.2394 Q40,382.5876 40,379.4665 Q40,376.3371 41.3198,374.6852 Q42.6396,373.0334 45.1465,373.0334 Q45.8521,373.0334 46.4995,373.1828 Q47.147,373.3322 47.7114,373.631 L47.7114,376.3537 Q47.0806,375.7726 46.4871,375.5028 Q45.8936,375.2331 45.2627,375.2331 Q43.918,375.2331 43.2332,376.2997 Q42.5483,377.3664 42.5483,379.4665 Q42.5483,381.5583 43.2332,382.6249 Q43.918,383.6916 45.2627,383.6916 Q45.8936,383.6916 46.4871,383.4218 Q47.0806,383.152 47.7114,382.571 Z " fill="#000000"/><text fill="#000000" font-family="sans-serif" font-size="12" font-style="italic" lengthAdjust="spacing" textLength="42.0176" x="93.3506" y="375.4416">&#171;Kode&#187;</text><text fill="#000000" font-family="sans-serif" font-size="14" lengthAdjust="spacing" textLength="99.9141" x="64.4023" y="391.508">Dokumenttype</text><line style="stroke:#181818;stroke-width:0.5;" x1="8" x2="189.5547" y1="399.4611" y2="399.4611"/><ellipse cx="18" cy="413.2052" fill="none" rx="3" ry="3" style="stroke:#038048;stroke-width:1;"/><text fill="#000000" font-family="sans-serif" font-size="14" lengthAdjust="spacing" textLength="115.4521" x="27" y="416.9963">kodeverdi: string</text><ellipse cx="18" cy="429.6935" fill="none" rx="3" ry="3" style="stroke:#038048;stroke-width:1;"/><text fill="#000000" font-family="sans-serif" font-size="14" lengthAdjust="spacing" textLength="157.5547" x="27" y="433.4845">kodebeskrivelse: string</text><line style="stroke:#181818;stroke-width:0.5;" x1="8" x2="189.5547" y1="440.4377" y2="440.4377"/></g><!--class ReferanseDokumentfil--><g class="entity" data-entity="ReferanseDokumentfil" data-source-line="11" data-uid="ent0005" id="entity_ReferanseDokumentfil"><rect fill="#F1F1F1" height="80.9766" rx="2.5" ry="2.5" style="stroke:#181818;stroke-width:0.5;" width="182.6777" x="225.44" y="363.15"/><ellipse cx="240.44" cy="379.15" fill="#ADD1B2" rx="11" ry="11" style="stroke:#181818;stroke-width:1;"/><path d="M242.9131,385.2931 Q242.3321,385.5919 241.6929,385.7413 Q241.0538,385.8907 240.3482,385.8907 Q237.8414,385.8907 236.5215,384.2389 Q235.2017,382.587 235.2017,379.4659 Q235.2017,376.3365 236.5215,374.6847 Q237.8414,373.0328 240.3482,373.0328 Q241.0538,373.0328 241.7012,373.1822 Q242.3487,373.3316 242.9131,373.6305 L242.9131,376.3531 Q242.2823,375.7721 241.6888,375.5023 Q241.0953,375.2325 240.4644,375.2325 Q239.1197,375.2325 238.4349,376.2992 Q237.7501,377.3658 237.7501,379.4659 Q237.7501,381.5577 238.4349,382.6244 Q239.1197,383.691 240.4644,383.691 Q241.0953,383.691 241.6888,383.4212 Q242.2823,383.1515 242.9131,382.5704 Z " fill="#000000"/><text fill="#000000" font-family="sans-serif" font-size="14" lengthAdjust="spacing" textLength="150.6777" x="254.44" y="384.441">ReferanseDokumentfil</text><line style="stroke:#181818;stroke-width:0.5;" x1="226.44" x2="407.1177" y1="395.15" y2="395.15"/><ellipse cx="236.44" cy="408.8941" fill="none" rx="3" ry="3" style="stroke:#038048;stroke-width:1;"/><text fill="#000000" font-family="sans-serif" font-size="14" lengthAdjust="spacing" textLength="61.2842" x="245.44" y="412.6852">id: string</text><ellipse cx="236.44" cy="425.3824" fill="none" rx="3" ry="3" style="stroke:#038048;stroke-width:1;"/><text fill="#000000" font-family="sans-serif" font-size="14" lengthAdjust="spacing" textLength="66.8896" x="245.44" y="429.1734">url: string</text><line style="stroke:#181818;stroke-width:0.5;" x1="226.44" x2="407.1177" y1="436.1266" y2="436.1266"/></g><!--class NasjonalArealplanId--><g class="entity" data-entity="NasjonalArealplanId" data-source-line="1" data-uid="ent0007" id="entity_NasjonalArealplanId"><rect fill="#F1F1F1" height="80.9766" rx="2.5" ry="2.5" style="stroke:#181818;stroke-width:0.5;" width="290.3047" x="448.62" y="180.95"/><ellipse cx="521.7098" cy="196.95" fill="#ADD1B2" rx="11" ry="11" style="stroke:#181818;stroke-width:1;"/><path d="M524.183,203.0931 Q523.6019,203.3919 522.9628,203.5413 Q522.3236,203.6907 521.618,203.6907 Q519.1112,203.6907 517.7914,202.0389 Q516.4716,200.387 516.4716,197.2659 Q516.4716,194.1365 517.7914,192.4847 Q519.1112,190.8328 521.618,190.8328 Q522.3236,190.8328 522.9711,190.9822 Q523.6185,191.1316 524.183,191.4305 L524.183,194.1531 Q523.5521,193.5721 522.9586,193.3023 Q522.3651,193.0325 521.7343,193.0325 Q520.3895,193.0325 519.7047,194.0992 Q519.0199,195.1658 519.0199,197.2659 Q519.0199,199.3577 519.7047,200.4244 Q520.3895,201.491 521.7343,201.491 Q522.3651,201.491 522.9586,201.2212 Q523.5521,200.9515 524.183,200.3704 Z " fill="#000000"/><text fill="#000000" font-family="sans-serif" font-size="14" lengthAdjust="spacing" textLength="135.625" x="542.2098" y="202.241">NasjonalArealplanId</text><line style="stroke:#181818;stroke-width:0.5;" x1="449.62" x2="737.9247" y1="212.95" y2="212.95"/><ellipse cx="459.62" cy="226.6941" fill="none" rx="3" ry="3" style="stroke:#038048;stroke-width:1;"/><text fill="#000000" font-family="sans-serif" font-size="14" lengthAdjust="spacing" textLength="264.3047" x="468.62" y="230.4852">administrativEnhet: AdministrativEnhet</text><ellipse cx="459.62" cy="243.1824" fill="none" rx="3" ry="3" style="stroke:#038048;stroke-width:1;"/><text fill="#000000" font-family="sans-serif" font-size="14" lengthAdjust="spacing" textLength="170.126" x="468.62" y="246.9734">planidentifikasjon: string</text><line style="stroke:#181818;stroke-width:0.5;" x1="449.62" x2="737.9247" y1="253.9266" y2="253.9266"/></g><!--class AdministrativEnhet--><g class="entity" data-entity="AdministrativEnhet" data-source-line="6" data-uid="ent0008" id="entity_AdministrativEnhet"><rect fill="#F1F1F1" height="97.4648" rx="2.5" ry="2.5" style="stroke:#181818;stroke-width:0.5;" width="160.6865" x="513.43" y="354.91"/><ellipse cx="528.43" cy="370.91" fill="#EB937F" rx="11" ry="11" style="stroke:#181818;stroke-width:1;"/><path d="M532.0443,377.41 L524.3245,377.41 L524.3245,365.0169 L532.0443,365.0169 L532.0443,367.1751 L526.7733,367.1751 L526.7733,369.848 L531.5462,369.848 L531.5462,372.0062 L526.7733,372.0062 L526.7733,375.2518 L532.0443,375.2518 Z " fill="#000000"/><text fill="#000000" font-family="sans-serif" font-size="14" lengthAdjust="spacing" textLength="128.6865" x="542.43" y="376.201">AdministrativEnhet</text><line style="stroke:#181818;stroke-width:0.5;" x1="514.43" x2="673.1165" y1="386.91" y2="386.91"/><text fill="#000000" font-family="sans-serif" font-size="14" lengthAdjust="spacing" textLength="125.1455" x="519.43" y="404.4452">kommunenummer</text><text fill="#000000" font-family="sans-serif" font-size="14" lengthAdjust="spacing" textLength="96.6738" x="519.43" y="420.9334">fylkesnummer</text><text fill="#000000" font-family="sans-serif" font-size="14" lengthAdjust="spacing" textLength="69.8086" x="519.43" y="437.4217">landskode</text><line style="stroke:#181818;stroke-width:0.5;" x1="514.43" x2="673.1165" y1="444.3748" y2="444.3748"/></g><!--class RegistrerGjeldendePlandokumenter--><g class="entity" data-entity="RegistrerGjeldendePlandokumenter" data-source-line="4" data-uid="ent0010" id="entity_RegistrerGjeldendePlandokumenter"><rect fill="#F1F1F1" height="80.9766" rx="2.5" ry="2.5" style="stroke:#181818;stroke-width:0.5;" width="304.4551" x="267.55" y="7"/><ellipse cx="297.1535" cy="23" fill="#ADD1B2" rx="11" ry="11" style="stroke:#181818;stroke-width:1;"/><path d="M299.6266,29.1431 Q299.0456,29.4419 298.4064,29.5913 Q297.7672,29.7407 297.0617,29.7407 Q294.5548,29.7407 293.235,28.0889 Q291.9152,26.437 291.9152,23.3159 Q291.9152,20.1865 293.235,18.5347 Q294.5548,16.8828 297.0617,16.8828 Q297.7672,16.8828 298.4147,17.0322 Q299.0622,17.1816 299.6266,17.4805 L299.6266,20.2031 Q298.9958,19.6221 298.4022,19.3523 Q297.8087,19.0825 297.1779,19.0825 Q295.8332,19.0825 295.1483,20.1492 Q294.4635,21.2158 294.4635,23.3159 Q294.4635,25.4077 295.1483,26.4744 Q295.8332,27.541 297.1779,27.541 Q297.8087,27.541 298.4022,27.2712 Q298.9958,27.0015 299.6266,26.4204 Z " fill="#000000"/><text fill="#000000" font-family="sans-serif" font-size="14" lengthAdjust="spacing" textLength="240.0029" x="314.3987" y="28.291">RegistrerGjeldendePlandokumenter</text><line style="stroke:#181818;stroke-width:0.5;" x1="268.55" x2="571.0051" y1="39" y2="39"/><ellipse cx="278.55" cy="52.7441" fill="none" rx="3" ry="3" style="stroke:#038048;stroke-width:1;"/><text fill="#000000" font-family="sans-serif" font-size="14" lengthAdjust="spacing" textLength="278.4551" x="287.55" y="56.5352">nasjonalArealplanId: NasjonalArealplanId</text><ellipse cx="278.55" cy="69.2324" fill="none" rx="3" ry="3" style="stroke:#038048;stroke-width:1;"/><text fill="#000000" font-family="sans-serif" font-size="14" lengthAdjust="spacing" textLength="200.6006" x="287.55" y="73.0234">plandokumenter: Dokument[]</text><line style="stroke:#181818;stroke-width:0.5;" x1="268.55" x2="571.0051" y1="79.9766" y2="79.9766"/></g><!--link Dokument to Dokumenttype--><g class="link" data-entity-1="Dokument" data-entity-2="Dokumenttype" data-source-line="10" data-uid="lnk4" id="link_Dokument_Dokumenttype"><path codeLine="10" d="M187.01,295.21 C169.44,316.61 150.76,339.35 135.13,358.38" fill="none" id="Dokument-Dokumenttype" style="stroke:#181818;stroke-width:1;"/></g><!--link Dokument to ReferanseDokumentfil--><g class="link" data-entity-1="Dokument" data-entity-2="ReferanseDokumentfil" data-source-line="11" data-uid="lnk6" id="link_Dokument_ReferanseDokumentfil"><path codeLine="11" d="M275.05,295.21 C284,318.27 293.57,342.89 301.28,362.74" fill="none" id="Dokument-ReferanseDokumentfil" style="stroke:#181818;stroke-width:1;"/></g><!--link NasjonalArealplanId to AdministrativEnhet--><g class="link" data-entity-1="NasjonalArealplanId" data-entity-2="AdministrativEnhet" data-source-line="6" data-uid="lnk9" id="link_NasjonalArealplanId_AdministrativEnhet"><path codeLine="6" d="M593.78,261.99 C593.78,289.23 593.78,325.6 593.78,354.53" fill="none" id="NasjonalArealplanId-AdministrativEnhet" style="stroke:#181818;stroke-width:1;"/></g><!--link RegistrerGjeldendePlandokumenter to NasjonalArealplanId--><g class="link" data-entity-1="RegistrerGjeldendePlandokumenter" data-entity-2="NasjonalArealplanId" data-source-line="9" data-uid="lnk11" id="link_RegistrerGjeldendePlandokumenter_NasjonalArealplanId"><path codeLine="9" d="M460.13,88.37 C488.14,116.05 525.31,152.78 553.34,180.48" fill="none" id="RegistrerGjeldendePlandokumenter-NasjonalArealplanId" style="stroke:#181818;stroke-width:1;"/></g><!--link RegistrerGjeldendePlandokumenter to Dokument--><g class="link" data-entity-1="RegistrerGjeldendePlandokumenter" data-entity-2="Dokument" data-source-line="10" data-uid="lnk12" id="link_RegistrerGjeldendePlandokumenter_Dokument"><path codeLine="10" d="M379.65,88.37 C361.89,106.03 340.41,127.37 319.96,147.7" fill="none" id="RegistrerGjeldendePlandokumenter-Dokument" style="stroke:#181818;stroke-width:1;"/></g><!--SRC=[ZOqn2y8m48Nt-nNfBBs0OpT141SHLt48pLNIdfUID2xYVxT5CuW5UyDnl7llUuMJcfCbXHfHYySkOkF6rRCHlA-n8MQAQ7sNRYI3pWVs2Og5OJ6nzMBO138y_PpLCzg4X9fDZEf4LnU7G67N4biIIyVHahifg0UeSLQPiicKlQtKuLTyk_ilHgMsd_jyWIV0tywod4KloUKcU040]--></g></svg>