<?xml version="1.0" encoding="us-ascii" standalone="no"?><svg xmlns="http://www.w3.org/2000/svg" xmlns:xlink="http://www.w3.org/1999/xlink" contentStyleType="text/css" height="252px" preserveAspectRatio="none" style="width:1380px;height:252px;background:#FFFFFF;" version="1.1" viewBox="0 0 1380 252" width="1380px" zoomAndPan="magnify"><defs/><g><!--class RegistrerPlanbehandling--><g id="elem_RegistrerPlanbehandling"><rect codeLine="2" fill="#F1F1F1" height="97.4648" id="RegistrerPlanbehandling" rx="2.5" ry="2.5" style="stroke:#181818;stroke-width:0.5;" width="309" x="548" y="7"/><ellipse cx="613.75" cy="23" fill="#ADD1B2" rx="11" ry="11" style="stroke:#181818;stroke-width:1.0;"/><path d="M616.2231,29.1431 Q615.6421,29.4419 615.0029,29.5913 Q614.3638,29.7407 613.6582,29.7407 Q611.1514,29.7407 609.8315,28.0889 Q608.5117,26.437 608.5117,23.3159 Q608.5117,20.1865 609.8315,18.5347 Q611.1514,16.8828 613.6582,16.8828 Q614.3638,16.8828 615.0112,17.0322 Q615.6587,17.1816 616.2231,17.4805 L616.2231,20.2031 Q615.5923,19.6221 614.9988,19.3523 Q614.4053,19.0825 613.7744,19.0825 Q612.4297,19.0825 611.7449,20.1492 Q611.0601,21.2158 611.0601,23.3159 Q611.0601,25.4077 611.7449,26.4744 Q612.4297,27.541 613.7744,27.541 Q614.4053,27.541 614.9988,27.2712 Q615.5923,27.0015 616.2231,26.4204 Z " fill="#000000"/><text fill="#000000" font-family="sans-serif" font-size="14" lengthAdjust="spacing" textLength="169" x="634.25" y="28.291">RegistrerPlanbehandling</text><line style="stroke:#181818;stroke-width:0.5;" x1="549" x2="856" y1="39" y2="39"/><ellipse cx="559" cy="52.7441" fill="none" rx="3" ry="3" style="stroke:#038048;stroke-width:1.0;"/><text fill="#000000" font-family="sans-serif" font-size="14" lengthAdjust="spacing" textLength="283" x="568" y="56.5352">nasjonalArealplanId: NasjonalArealplanId</text><ellipse cx="559" cy="69.2324" fill="none" rx="3" ry="3" style="stroke:#038048;stroke-width:1.0;"/><text fill="#000000" font-family="sans-serif" font-size="14" lengthAdjust="spacing" textLength="114" x="568" y="73.0234">planstatus: Kode</text><ellipse cx="559" cy="85.7207" fill="none" rx="3" ry="3" style="stroke:#038048;stroke-width:1.0;"/><text fill="#000000" font-family="sans-serif" font-size="14" lengthAdjust="spacing" textLength="223" x="568" y="89.5117">planbehandling: Planbehandling</text><line style="stroke:#181818;stroke-width:0.5;" x1="549" x2="856" y1="96.4648" y2="96.4648"/></g><!--class Kode--><g id="elem_Kode"><rect codeLine="8" fill="#F1F1F1" height="80.9766" id="Kode" rx="2.5" ry="2.5" style="stroke:#181818;stroke-width:0.5;" width="184" x="610.5" y="164.46"/><ellipse cx="680.75" cy="180.46" fill="#ADD1B2" rx="11" ry="11" style="stroke:#181818;stroke-width:1.0;"/><path d="M683.2231,186.6031 Q682.6421,186.9019 682.0029,187.0513 Q681.3638,187.2007 680.6582,187.2007 Q678.1514,187.2007 676.8315,185.5489 Q675.5117,183.897 675.5117,180.7759 Q675.5117,177.6465 676.8315,175.9947 Q678.1514,174.3428 680.6582,174.3428 Q681.3638,174.3428 682.0112,174.4922 Q682.6587,174.6416 683.2231,174.9405 L683.2231,177.6631 Q682.5923,177.0821 681.9988,176.8123 Q681.4053,176.5425 680.7744,176.5425 Q679.4297,176.5425 678.7449,177.6092 Q678.0601,178.6758 678.0601,180.7759 Q678.0601,182.8677 678.7449,183.9344 Q679.4297,185.001 680.7744,185.001 Q681.4053,185.001 681.9988,184.7312 Q682.5923,184.4615 683.2231,183.8804 Z " fill="#000000"/><text fill="#000000" font-family="sans-serif" font-size="14" lengthAdjust="spacing" textLength="35" x="701.25" y="185.751">Kode</text><line style="stroke:#181818;stroke-width:0.5;" x1="611.5" x2="793.5" y1="196.46" y2="196.46"/><ellipse cx="621.5" cy="210.2041" fill="none" rx="3" ry="3" style="stroke:#038048;stroke-width:1.0;"/><text fill="#000000" font-family="sans-serif" font-size="14" lengthAdjust="spacing" textLength="116" x="630.5" y="213.9952">kodeverdi: string</text><ellipse cx="621.5" cy="226.6924" fill="none" rx="3" ry="3" style="stroke:#038048;stroke-width:1.0;"/><text fill="#000000" font-family="sans-serif" font-size="14" lengthAdjust="spacing" textLength="158" x="630.5" y="230.4834">kodebeskrivelse: string</text><line style="stroke:#181818;stroke-width:0.5;" x1="611.5" x2="793.5" y1="237.4366" y2="237.4366"/></g><!--class NasjonalArealplanId--><g id="elem_NasjonalArealplanId"><rect fill="#F1F1F1" height="48" id="NasjonalArealplanId" rx="2.5" ry="2.5" style="stroke:#181818;stroke-width:0.5;" width="170" x="290.5" y="180.95"/><ellipse cx="305.5" cy="196.95" fill="#ADD1B2" rx="11" ry="11" style="stroke:#181818;stroke-width:1.0;"/><path d="M307.9731,203.0931 Q307.3921,203.3919 306.7529,203.5413 Q306.1138,203.6907 305.4082,203.6907 Q302.9014,203.6907 301.5815,202.0389 Q300.2617,200.387 300.2617,197.2659 Q300.2617,194.1365 301.5815,192.4847 Q302.9014,190.8328 305.4082,190.8328 Q306.1138,190.8328 306.7612,190.9822 Q307.4087,191.1316 307.9731,191.4305 L307.9731,194.1531 Q307.3423,193.5721 306.7488,193.3023 Q306.1553,193.0325 305.5244,193.0325 Q304.1797,193.0325 303.4949,194.0992 Q302.8101,195.1658 302.8101,197.2659 Q302.8101,199.3577 303.4949,200.4244 Q304.1797,201.491 305.5244,201.491 Q306.1553,201.491 306.7488,201.2212 Q307.3423,200.9515 307.9731,200.3704 Z " fill="#000000"/><text fill="#000000" font-family="sans-serif" font-size="14" lengthAdjust="spacing" textLength="138" x="319.5" y="202.241">NasjonalArealplanId</text><line style="stroke:#181818;stroke-width:0.5;" x1="291.5" x2="459.5" y1="212.95" y2="212.95"/><line style="stroke:#181818;stroke-width:0.5;" x1="291.5" x2="459.5" y1="220.95" y2="220.95"/></g><!--class Planbehandling--><g id="elem_Planbehandling"><rect fill="#F1F1F1" height="48" id="Planbehandling" rx="2.5" ry="2.5" style="stroke:#181818;stroke-width:0.5;" width="139" x="946" y="180.95"/><ellipse cx="961" cy="196.95" fill="#ADD1B2" rx="11" ry="11" style="stroke:#181818;stroke-width:1.0;"/><path d="M963.4731,203.0931 Q962.8921,203.3919 962.2529,203.5413 Q961.6138,203.6907 960.9082,203.6907 Q958.4014,203.6907 957.0815,202.0389 Q955.7617,200.387 955.7617,197.2659 Q955.7617,194.1365 957.0815,192.4847 Q958.4014,190.8328 960.9082,190.8328 Q961.6138,190.8328 962.2612,190.9822 Q962.9087,191.1316 963.4731,191.4305 L963.4731,194.1531 Q962.8423,193.5721 962.2488,193.3023 Q961.6553,193.0325 961.0244,193.0325 Q959.6797,193.0325 958.9949,194.0992 Q958.3101,195.1658 958.3101,197.2659 Q958.3101,199.3577 958.9949,200.4244 Q959.6797,201.491 961.0244,201.491 Q961.6553,201.491 962.2488,201.2212 Q962.8423,200.9515 963.4731,200.3704 Z " fill="#000000"/><text fill="#000000" font-family="sans-serif" font-size="14" lengthAdjust="spacing" textLength="107" x="975" y="202.241">Planbehandling</text><line style="stroke:#181818;stroke-width:0.5;" x1="947" x2="1084" y1="212.95" y2="212.95"/><line style="stroke:#181818;stroke-width:0.5;" x1="947" x2="1084" y1="220.95" y2="220.95"/></g><g id="elem_GMN9"><path d="M6,43.08 L6,68.3905 A0,0 0 0 0 6,68.3905 L264.99,68.3905 L357.02,180.49 L272.99,68.3905 L513,68.3905 A0,0 0 0 0 513,68.3905 L513,53.08 L503,43.08 L6,43.08 A0,0 0 0 0 6,43.08 " fill="#FEFFDD" style="stroke:#181818;stroke-width:0.5;"/><path d="M503,43.08 L503,53.08 L513,53.08 L503,43.08 " fill="#FEFFDD" style="stroke:#181818;stroke-width:0.5;"/><text fill="#000000" font-family="sans-serif" font-size="13" lengthAdjust="spacing" textLength="486" x="12" y="60.6484">Se detaljer i diagram for skjema 'no.ks.fiks.plan.v2.felles.nasjonalarealplanid'</text></g><g id="elem_GMN12"><path d="M891.5,43.08 L891.5,68.3905 A0,0 0 0 0 891.5,68.3905 L1118.93,68.3905 L1034.14,180.49 L1126.93,68.3905 L1373.5,68.3905 A0,0 0 0 0 1373.5,68.3905 L1373.5,53.08 L1363.5,43.08 L891.5,43.08 A0,0 0 0 0 891.5,43.08 " fill="#FEFFDD" style="stroke:#181818;stroke-width:0.5;"/><path d="M1363.5,43.08 L1363.5,53.08 L1373.5,53.08 L1363.5,43.08 " fill="#FEFFDD" style="stroke:#181818;stroke-width:0.5;"/><text fill="#000000" font-family="sans-serif" font-size="13" lengthAdjust="spacing" textLength="461" x="897.5" y="60.6484">Se detaljer i diagram for skjema 'no.ks.fiks.plan.v2.felles.planbehandling'</text></g><!--link RegistrerPlanbehandling to NasjonalArealplanId--><g id="link_RegistrerPlanbehandling_NasjonalArealplanId"><path codeLine="13" d="M595.43,104.94 C538.99,130.35 472.33,160.36 427.31,180.63 " fill="none" id="RegistrerPlanbehandling-NasjonalArealplanId" style="stroke:#181818;stroke-width:1.0;"/></g><!--link RegistrerPlanbehandling to Kode--><g id="link_RegistrerPlanbehandling_Kode"><path codeLine="14" d="M702.5,104.94 C702.5,124.06 702.5,145.78 702.5,164 " fill="none" id="RegistrerPlanbehandling-Kode" style="stroke:#181818;stroke-width:1.0;"/></g><!--link RegistrerPlanbehandling to Planbehandling--><g id="link_RegistrerPlanbehandling_Planbehandling"><path codeLine="15" d="M804.99,104.94 C859.01,130.35 922.82,160.36 965.91,180.63 " fill="none" id="RegistrerPlanbehandling-Planbehandling" style="stroke:#181818;stroke-width:1.0;"/></g><!--SRC=[fL4nRiCm3DprYjiy5D7GKLl7e41Hj2zW8jgLpKY1g7efylV82Pp0QPgb6WJYUBmxWbiXLNnm5xHapkz2SSDV5Bs4sE77eBwdIDgdIFAIcMHVAMllyFORFBEdMWkLRtLuJPwlw5NPOUba3iPiJr6cYTbtgFN8sGU7ccwYNU0Dwv33oA9yQLQDlnPPhUxcVK0_9N_GlyblOYgCalP8xJqhE7moF1UIdZC2VA0kqmvjoj2XvnsXYSaEQjjGlsdAZi-sPH5MEr-0PiNWcuNbJS3_kIrlrPWZ]--></g></svg>