<svg xmlns="http://www.w3.org/2000/svg" xmlns:xlink="http://www.w3.org/1999/xlink" contentStyleType="text/css" height="947px" preserveAspectRatio="none" style="width:940px;height:947px;background:#FFFFFF;" version="1.1" viewBox="0 0 940 947" width="940px" zoomAndPan="magnify"><defs/><g><rect fill="#F1F1F1" height="81.9531" rx="5" ry="5" style="stroke:#F1F1F1;stroke-width:1.5;" width="253" x="10" y="400.5"/><text fill="#000000" font-family="sans-serif" font-size="14" font-weight="bold" lengthAdjust="spacing" textLength="101" x="15" y="416.0352">protokollnavn</text><text fill="#000000" font-family="sans-serif" font-size="14" lengthAdjust="spacing" textLength="99" x="126" y="416.0352">no.ks.fiks.plan</text><line style="stroke:#000000;stroke-width:1.0;" x1="121" x2="121" y1="400.5" y2="420.9883"/><line style="stroke:#000000;stroke-width:1.0;" x1="10" x2="263" y1="420.9883" y2="420.9883"/><text fill="#000000" font-family="sans-serif" font-size="14" font-weight="bold" lengthAdjust="spacing" textLength="34" x="15" y="436.5234">navn</text><text fill="#000000" font-family="sans-serif" font-size="14" lengthAdjust="spacing" textLength="132" x="126" y="436.5234">dispensasjonstyper</text><line style="stroke:#000000;stroke-width:1.0;" x1="121" x2="121" y1="420.9883" y2="441.4766"/><line style="stroke:#000000;stroke-width:1.0;" x1="10" x2="263" y1="441.4766" y2="441.4766"/><text fill="#000000" font-family="sans-serif" font-size="14" font-weight="bold" lengthAdjust="spacing" textLength="53" x="15" y="457.0117">versjon</text><text fill="#000000" font-family="sans-serif" font-size="14" lengthAdjust="spacing" textLength="16" x="126" y="457.0117">v2</text><line style="stroke:#000000;stroke-width:1.0;" x1="121" x2="121" y1="441.4766" y2="461.9648"/><line style="stroke:#000000;stroke-width:1.0;" x1="10" x2="263" y1="461.9648" y2="461.9648"/><text fill="#000000" font-family="sans-serif" font-size="14" font-weight="bold" lengthAdjust="spacing" textLength="67" x="15" y="477.5">kodeliste</text><text fill="#000000" font-family="sans-serif" font-size="14" lengthAdjust="spacing" textLength="12" x="126" y="477.5">&#160;&#160;&#160;</text><line style="stroke:#000000;stroke-width:1.0;" x1="121" x2="121" y1="461.9648" y2="482.4531"/><rect fill="none" height="81.9531" rx="5" ry="5" style="stroke:#000000;stroke-width:1.5;" width="253" x="10" y="400.5"/><rect fill="#F1F1F1" height="327.8125" rx="5" ry="5" style="stroke:#F1F1F1;stroke-width:1.5;" width="22" x="300" y="308.5"/><text fill="#000000" font-family="sans-serif" font-size="14" lengthAdjust="spacing" textLength="12" x="305" y="324.0352">&#160;&#160;&#160;</text><line style="stroke:#000000;stroke-width:1.0;" x1="300" x2="322" y1="328.9883" y2="328.9883"/><text fill="#000000" font-family="sans-serif" font-size="14" lengthAdjust="spacing" textLength="12" x="305" y="344.5234">&#160;&#160;&#160;</text><line style="stroke:#000000;stroke-width:1.0;" x1="300" x2="322" y1="349.4766" y2="349.4766"/><text fill="#000000" font-family="sans-serif" font-size="14" lengthAdjust="spacing" textLength="12" x="305" y="365.0117">&#160;&#160;&#160;</text><line style="stroke:#000000;stroke-width:1.0;" x1="300" x2="322" y1="369.9648" y2="369.9648"/><text fill="#000000" font-family="sans-serif" font-size="14" lengthAdjust="spacing" textLength="12" x="305" y="385.5">&#160;&#160;&#160;</text><line style="stroke:#000000;stroke-width:1.0;" x1="300" x2="322" y1="390.4531" y2="390.4531"/><text fill="#000000" font-family="sans-serif" font-size="14" lengthAdjust="spacing" textLength="12" x="305" y="405.9883">&#160;&#160;&#160;</text><line style="stroke:#000000;stroke-width:1.0;" x1="300" x2="322" y1="410.9414" y2="410.9414"/><text fill="#000000" font-family="sans-serif" font-size="14" lengthAdjust="spacing" textLength="12" x="305" y="426.4766">&#160;&#160;&#160;</text><line style="stroke:#000000;stroke-width:1.0;" x1="300" x2="322" y1="431.4297" y2="431.4297"/><text fill="#000000" font-family="sans-serif" font-size="14" lengthAdjust="spacing" textLength="12" x="305" y="446.9648">&#160;&#160;&#160;</text><line style="stroke:#000000;stroke-width:1.0;" x1="300" x2="322" y1="451.918" y2="451.918"/><text fill="#000000" font-family="sans-serif" font-size="14" lengthAdjust="spacing" textLength="12" x="305" y="467.4531">&#160;&#160;&#160;</text><line style="stroke:#000000;stroke-width:1.0;" x1="300" x2="322" y1="472.4063" y2="472.4063"/><text fill="#000000" font-family="sans-serif" font-size="14" lengthAdjust="spacing" textLength="12" x="305" y="487.9414">&#160;&#160;&#160;</text><line style="stroke:#000000;stroke-width:1.0;" x1="300" x2="322" y1="492.8945" y2="492.8945"/><text fill="#000000" font-family="sans-serif" font-size="14" lengthAdjust="spacing" textLength="12" x="305" y="508.4297">&#160;&#160;&#160;</text><line style="stroke:#000000;stroke-width:1.0;" x1="300" x2="322" y1="513.3828" y2="513.3828"/><text fill="#000000" font-family="sans-serif" font-size="14" lengthAdjust="spacing" textLength="12" x="305" y="528.918">&#160;&#160;&#160;</text><line style="stroke:#000000;stroke-width:1.0;" x1="300" x2="322" y1="533.8711" y2="533.8711"/><text fill="#000000" font-family="sans-serif" font-size="14" lengthAdjust="spacing" textLength="12" x="305" y="549.4063">&#160;&#160;&#160;</text><line style="stroke:#000000;stroke-width:1.0;" x1="300" x2="322" y1="554.3594" y2="554.3594"/><text fill="#000000" font-family="sans-serif" font-size="14" lengthAdjust="spacing" textLength="12" x="305" y="569.8945">&#160;&#160;&#160;</text><line style="stroke:#000000;stroke-width:1.0;" x1="300" x2="322" y1="574.8477" y2="574.8477"/><text fill="#000000" font-family="sans-serif" font-size="14" lengthAdjust="spacing" textLength="12" x="305" y="590.3828">&#160;&#160;&#160;</text><line style="stroke:#000000;stroke-width:1.0;" x1="300" x2="322" y1="595.3359" y2="595.3359"/><text fill="#000000" font-family="sans-serif" font-size="14" lengthAdjust="spacing" textLength="12" x="305" y="610.8711">&#160;&#160;&#160;</text><line style="stroke:#000000;stroke-width:1.0;" x1="300" x2="322" y1="615.8242" y2="615.8242"/><text fill="#000000" font-family="sans-serif" font-size="14" lengthAdjust="spacing" textLength="12" x="305" y="631.3594">&#160;&#160;&#160;</text><rect fill="none" height="327.8125" rx="5" ry="5" style="stroke:#000000;stroke-width:1.5;" width="22" x="300" y="308.5"/><rect fill="#F1F1F1" height="40.9766" rx="5" ry="5" style="stroke:#F1F1F1;stroke-width:1.5;" width="436" x="425.5" y="10"/><text fill="#000000" font-family="sans-serif" font-size="14" font-weight="bold" lengthAdjust="spacing" textLength="71" x="430.5" y="25.5352">kodeverdi</text><text fill="#000000" font-family="sans-serif" font-size="14" lengthAdjust="spacing" textLength="27" x="557.5" y="25.5352">111</text><line style="stroke:#000000;stroke-width:1.0;" x1="552.5" x2="552.5" y1="10" y2="30.4883"/><line style="stroke:#000000;stroke-width:1.0;" x1="425.5" x2="861.5" y1="30.4883" y2="30.4883"/><text fill="#000000" font-family="sans-serif" font-size="14" font-weight="bold" lengthAdjust="spacing" textLength="117" x="430.5" y="46.0234">kodebeskrivelse</text><text fill="#000000" font-family="sans-serif" font-size="14" lengthAdjust="spacing" textLength="299" x="557.5" y="46.0234">Forbud mot tiltak mv. langs sj&#248; og vassdrag</text><line style="stroke:#000000;stroke-width:1.0;" x1="552.5" x2="552.5" y1="30.4883" y2="50.9766"/><rect fill="none" height="40.9766" rx="5" ry="5" style="stroke:#000000;stroke-width:1.5;" width="436" x="425.5" y="10"/><rect fill="#F1F1F1" height="40.9766" rx="5" ry="5" style="stroke:#F1F1F1;stroke-width:1.5;" width="399" x="444" y="69"/><text fill="#000000" font-family="sans-serif" font-size="14" font-weight="bold" lengthAdjust="spacing" textLength="71" x="449" y="84.5352">kodeverdi</text><text fill="#000000" font-family="sans-serif" font-size="14" lengthAdjust="spacing" textLength="27" x="576" y="84.5352">140</text><line style="stroke:#000000;stroke-width:1.0;" x1="571" x2="571" y1="69" y2="89.4883"/><line style="stroke:#000000;stroke-width:1.0;" x1="444" x2="843" y1="89.4883" y2="89.4883"/><text fill="#000000" font-family="sans-serif" font-size="14" font-weight="bold" lengthAdjust="spacing" textLength="117" x="449" y="105.0234">kodebeskrivelse</text><text fill="#000000" font-family="sans-serif" font-size="14" lengthAdjust="spacing" textLength="262" x="576" y="105.0234">Arealbruk-/form&#229;l kommune(del)plan</text><line style="stroke:#000000;stroke-width:1.0;" x1="571" x2="571" y1="89.4883" y2="109.9766"/><rect fill="none" height="40.9766" rx="5" ry="5" style="stroke:#000000;stroke-width:1.5;" width="399" x="444" y="69"/><rect fill="#F1F1F1" height="40.9766" rx="5" ry="5" style="stroke:#F1F1F1;stroke-width:1.5;" width="421" x="433" y="128"/><text fill="#000000" font-family="sans-serif" font-size="14" font-weight="bold" lengthAdjust="spacing" textLength="71" x="438" y="143.5352">kodeverdi</text><text fill="#000000" font-family="sans-serif" font-size="14" lengthAdjust="spacing" textLength="27" x="565" y="143.5352">141</text><line style="stroke:#000000;stroke-width:1.0;" x1="560" x2="560" y1="128" y2="148.4883"/><line style="stroke:#000000;stroke-width:1.0;" x1="433" x2="854" y1="148.4883" y2="148.4883"/><text fill="#000000" font-family="sans-serif" font-size="14" font-weight="bold" lengthAdjust="spacing" textLength="117" x="438" y="164.0234">kodebeskrivelse</text><text fill="#000000" font-family="sans-serif" font-size="14" lengthAdjust="spacing" textLength="284" x="565" y="164.0234">KpArealform&#229;l gr&#248;nnstruktur &#167; 11-7 nr.3</text><line style="stroke:#000000;stroke-width:1.0;" x1="560" x2="560" y1="148.4883" y2="168.9766"/><rect fill="none" height="40.9766" rx="5" ry="5" style="stroke:#000000;stroke-width:1.5;" width="421" x="433" y="128"/><rect fill="#F1F1F1" height="40.9766" rx="5" ry="5" style="stroke:#F1F1F1;stroke-width:1.5;" width="358" x="464.5" y="187"/><text fill="#000000" font-family="sans-serif" font-size="14" font-weight="bold" lengthAdjust="spacing" textLength="71" x="469.5" y="202.5352">kodeverdi</text><text fill="#000000" font-family="sans-serif" font-size="14" lengthAdjust="spacing" textLength="27" x="596.5" y="202.5352">142</text><line style="stroke:#000000;stroke-width:1.0;" x1="591.5" x2="591.5" y1="187" y2="207.4883"/><line style="stroke:#000000;stroke-width:1.0;" x1="464.5" x2="822.5" y1="207.4883" y2="207.4883"/><text fill="#000000" font-family="sans-serif" font-size="14" font-weight="bold" lengthAdjust="spacing" textLength="117" x="469.5" y="223.0234">kodebeskrivelse</text><text fill="#000000" font-family="sans-serif" font-size="14" lengthAdjust="spacing" textLength="221" x="596.5" y="223.0234">KpArealform&#229;l LNFR &#167; 11-7 nr.5</text><line style="stroke:#000000;stroke-width:1.0;" x1="591.5" x2="591.5" y1="207.4883" y2="227.9766"/><rect fill="none" height="40.9766" rx="5" ry="5" style="stroke:#000000;stroke-width:1.5;" width="358" x="464.5" y="187"/><rect fill="#F1F1F1" height="40.9766" rx="5" ry="5" style="stroke:#F1F1F1;stroke-width:1.5;" width="552" x="367.5" y="246"/><text fill="#000000" font-family="sans-serif" font-size="14" font-weight="bold" lengthAdjust="spacing" textLength="71" x="372.5" y="261.5352">kodeverdi</text><text fill="#000000" font-family="sans-serif" font-size="14" lengthAdjust="spacing" textLength="27" x="499.5" y="261.5352">143</text><line style="stroke:#000000;stroke-width:1.0;" x1="494.5" x2="494.5" y1="246" y2="266.4883"/><line style="stroke:#000000;stroke-width:1.0;" x1="367.5" x2="919.5" y1="266.4883" y2="266.4883"/><text fill="#000000" font-family="sans-serif" font-size="14" font-weight="bold" lengthAdjust="spacing" textLength="117" x="372.5" y="282.0234">kodebeskrivelse</text><text fill="#000000" font-family="sans-serif" font-size="14" lengthAdjust="spacing" textLength="415" x="499.5" y="282.0234">KpArealform&#229;l bruk/vern sj&#248;/vassdr/strandsone &#167; 11-7 nr.6</text><line style="stroke:#000000;stroke-width:1.0;" x1="494.5" x2="494.5" y1="266.4883" y2="286.9766"/><rect fill="none" height="40.9766" rx="5" ry="5" style="stroke:#000000;stroke-width:1.5;" width="552" x="367.5" y="246"/><rect fill="#F1F1F1" height="40.9766" rx="5" ry="5" style="stroke:#F1F1F1;stroke-width:1.5;" width="366" x="460.5" y="305"/><text fill="#000000" font-family="sans-serif" font-size="14" font-weight="bold" lengthAdjust="spacing" textLength="71" x="465.5" y="320.5352">kodeverdi</text><text fill="#000000" font-family="sans-serif" font-size="14" lengthAdjust="spacing" textLength="27" x="592.5" y="320.5352">150</text><line style="stroke:#000000;stroke-width:1.0;" x1="587.5" x2="587.5" y1="305" y2="325.4883"/><line style="stroke:#000000;stroke-width:1.0;" x1="460.5" x2="826.5" y1="325.4883" y2="325.4883"/><text fill="#000000" font-family="sans-serif" font-size="14" font-weight="bold" lengthAdjust="spacing" textLength="117" x="465.5" y="341.0234">kodebeskrivelse</text><text fill="#000000" font-family="sans-serif" font-size="14" lengthAdjust="spacing" textLength="229" x="592.5" y="341.0234">Bestemmelser kommune(del)plan</text><line style="stroke:#000000;stroke-width:1.0;" x1="587.5" x2="587.5" y1="325.4883" y2="345.9766"/><rect fill="none" height="40.9766" rx="5" ry="5" style="stroke:#000000;stroke-width:1.5;" width="366" x="460.5" y="305"/><rect fill="#F1F1F1" height="40.9766" rx="5" ry="5" style="stroke:#F1F1F1;stroke-width:1.5;" width="478" x="404.5" y="364"/><text fill="#000000" font-family="sans-serif" font-size="14" font-weight="bold" lengthAdjust="spacing" textLength="71" x="409.5" y="379.5352">kodeverdi</text><text fill="#000000" font-family="sans-serif" font-size="14" lengthAdjust="spacing" textLength="27" x="536.5" y="379.5352">160</text><line style="stroke:#000000;stroke-width:1.0;" x1="531.5" x2="531.5" y1="364" y2="384.4883"/><line style="stroke:#000000;stroke-width:1.0;" x1="404.5" x2="882.5" y1="384.4883" y2="384.4883"/><text fill="#000000" font-family="sans-serif" font-size="14" font-weight="bold" lengthAdjust="spacing" textLength="117" x="409.5" y="400.0234">kodebeskrivelse</text><text fill="#000000" font-family="sans-serif" font-size="14" lengthAdjust="spacing" textLength="341" x="536.5" y="400.0234">Arealbruk-/form&#229;l regulerings-/bebyggelsesplan</text><line style="stroke:#000000;stroke-width:1.0;" x1="531.5" x2="531.5" y1="384.4883" y2="404.9766"/><rect fill="none" height="40.9766" rx="5" ry="5" style="stroke:#000000;stroke-width:1.5;" width="478" x="404.5" y="364"/><rect fill="#F1F1F1" height="40.9766" rx="5" ry="5" style="stroke:#F1F1F1;stroke-width:1.5;" width="421" x="433" y="423"/><text fill="#000000" font-family="sans-serif" font-size="14" font-weight="bold" lengthAdjust="spacing" textLength="71" x="438" y="438.5352">kodeverdi</text><text fill="#000000" font-family="sans-serif" font-size="14" lengthAdjust="spacing" textLength="27" x="565" y="438.5352">161</text><line style="stroke:#000000;stroke-width:1.0;" x1="560" x2="560" y1="423" y2="443.4883"/><line style="stroke:#000000;stroke-width:1.0;" x1="433" x2="854" y1="443.4883" y2="443.4883"/><text fill="#000000" font-family="sans-serif" font-size="14" font-weight="bold" lengthAdjust="spacing" textLength="117" x="438" y="459.0234">kodebeskrivelse</text><text fill="#000000" font-family="sans-serif" font-size="14" lengthAdjust="spacing" textLength="284" x="565" y="459.0234">RpArealform&#229;l gr&#248;nnstruktur &#167; 12-5 nr.3</text><line style="stroke:#000000;stroke-width:1.0;" x1="560" x2="560" y1="443.4883" y2="463.9766"/><rect fill="none" height="40.9766" rx="5" ry="5" style="stroke:#000000;stroke-width:1.5;" width="421" x="433" y="423"/><rect fill="#F1F1F1" height="40.9766" rx="5" ry="5" style="stroke:#F1F1F1;stroke-width:1.5;" width="358" x="464.5" y="482"/><text fill="#000000" font-family="sans-serif" font-size="14" font-weight="bold" lengthAdjust="spacing" textLength="71" x="469.5" y="497.5352">kodeverdi</text><text fill="#000000" font-family="sans-serif" font-size="14" lengthAdjust="spacing" textLength="27" x="596.5" y="497.5352">162</text><line style="stroke:#000000;stroke-width:1.0;" x1="591.5" x2="591.5" y1="482" y2="502.4883"/><line style="stroke:#000000;stroke-width:1.0;" x1="464.5" x2="822.5" y1="502.4883" y2="502.4883"/><text fill="#000000" font-family="sans-serif" font-size="14" font-weight="bold" lengthAdjust="spacing" textLength="117" x="469.5" y="518.0234">kodebeskrivelse</text><text fill="#000000" font-family="sans-serif" font-size="14" lengthAdjust="spacing" textLength="221" x="596.5" y="518.0234">RpArealform&#229;l LNFR &#167; 12-5 nr.5</text><line style="stroke:#000000;stroke-width:1.0;" x1="591.5" x2="591.5" y1="502.4883" y2="522.9766"/><rect fill="none" height="40.9766" rx="5" ry="5" style="stroke:#000000;stroke-width:1.5;" width="358" x="464.5" y="482"/><rect fill="#F1F1F1" height="40.9766" rx="5" ry="5" style="stroke:#F1F1F1;stroke-width:1.5;" width="569" x="359" y="541"/><text fill="#000000" font-family="sans-serif" font-size="14" font-weight="bold" lengthAdjust="spacing" textLength="71" x="364" y="556.5352">kodeverdi</text><text fill="#000000" font-family="sans-serif" font-size="14" lengthAdjust="spacing" textLength="27" x="491" y="556.5352">163</text><line style="stroke:#000000;stroke-width:1.0;" x1="486" x2="486" y1="541" y2="561.4883"/><line style="stroke:#000000;stroke-width:1.0;" x1="359" x2="928" y1="561.4883" y2="561.4883"/><text fill="#000000" font-family="sans-serif" font-size="14" font-weight="bold" lengthAdjust="spacing" textLength="117" x="364" y="577.0234">kodebeskrivelse</text><text fill="#000000" font-family="sans-serif" font-size="14" lengthAdjust="spacing" textLength="432" x="491" y="577.0234">RpArealform&#229;l bruk/vern sj&#248;/vassdrag/strandsone &#167; 12-5 nr.6</text><line style="stroke:#000000;stroke-width:1.0;" x1="486" x2="486" y1="561.4883" y2="581.9766"/><rect fill="none" height="40.9766" rx="5" ry="5" style="stroke:#000000;stroke-width:1.5;" width="569" x="359" y="541"/><rect fill="#F1F1F1" height="40.9766" rx="5" ry="5" style="stroke:#F1F1F1;stroke-width:1.5;" width="445" x="421" y="600"/><text fill="#000000" font-family="sans-serif" font-size="14" font-weight="bold" lengthAdjust="spacing" textLength="71" x="426" y="615.5352">kodeverdi</text><text fill="#000000" font-family="sans-serif" font-size="14" lengthAdjust="spacing" textLength="27" x="553" y="615.5352">165</text><line style="stroke:#000000;stroke-width:1.0;" x1="548" x2="548" y1="600" y2="620.4883"/><line style="stroke:#000000;stroke-width:1.0;" x1="421" x2="866" y1="620.4883" y2="620.4883"/><text fill="#000000" font-family="sans-serif" font-size="14" font-weight="bold" lengthAdjust="spacing" textLength="117" x="426" y="636.0234">kodebeskrivelse</text><text fill="#000000" font-family="sans-serif" font-size="14" lengthAdjust="spacing" textLength="308" x="553" y="636.0234">Bestemmelser regulerings-/bebyggelsesplan</text><line style="stroke:#000000;stroke-width:1.0;" x1="548" x2="548" y1="620.4883" y2="640.9766"/><rect fill="none" height="40.9766" rx="5" ry="5" style="stroke:#000000;stroke-width:1.5;" width="445" x="421" y="600"/><rect fill="#F1F1F1" height="40.9766" rx="5" ry="5" style="stroke:#F1F1F1;stroke-width:1.5;" width="227" x="530" y="659"/><text fill="#000000" font-family="sans-serif" font-size="14" font-weight="bold" lengthAdjust="spacing" textLength="71" x="535" y="674.5352">kodeverdi</text><text fill="#000000" font-family="sans-serif" font-size="14" lengthAdjust="spacing" textLength="27" x="662" y="674.5352">170</text><line style="stroke:#000000;stroke-width:1.0;" x1="657" x2="657" y1="659" y2="679.4883"/><line style="stroke:#000000;stroke-width:1.0;" x1="530" x2="757" y1="679.4883" y2="679.4883"/><text fill="#000000" font-family="sans-serif" font-size="14" font-weight="bold" lengthAdjust="spacing" textLength="117" x="535" y="695.0234">kodebeskrivelse</text><text fill="#000000" font-family="sans-serif" font-size="14" lengthAdjust="spacing" textLength="90" x="662" y="695.0234">Hensynssone</text><line style="stroke:#000000;stroke-width:1.0;" x1="657" x2="657" y1="679.4883" y2="699.9766"/><rect fill="none" height="40.9766" rx="5" ry="5" style="stroke:#000000;stroke-width:1.5;" width="227" x="530" y="659"/><rect fill="#F1F1F1" height="40.9766" rx="5" ry="5" style="stroke:#F1F1F1;stroke-width:1.5;" width="521" x="383" y="718"/><text fill="#000000" font-family="sans-serif" font-size="14" font-weight="bold" lengthAdjust="spacing" textLength="71" x="388" y="733.5352">kodeverdi</text><text fill="#000000" font-family="sans-serif" font-size="14" lengthAdjust="spacing" textLength="27" x="515" y="733.5352">171</text><line style="stroke:#000000;stroke-width:1.0;" x1="510" x2="510" y1="718" y2="738.4883"/><line style="stroke:#000000;stroke-width:1.0;" x1="383" x2="904" y1="738.4883" y2="738.4883"/><text fill="#000000" font-family="sans-serif" font-size="14" font-weight="bold" lengthAdjust="spacing" textLength="117" x="388" y="754.0234">kodebeskrivelse</text><text fill="#000000" font-family="sans-serif" font-size="14" lengthAdjust="spacing" textLength="384" x="515" y="754.0234">Sikrings, st&#248;y- og faresone &#167; 11-8 tredje ledd bokstav a</text><line style="stroke:#000000;stroke-width:1.0;" x1="510" x2="510" y1="738.4883" y2="758.9766"/><rect fill="none" height="40.9766" rx="5" ry="5" style="stroke:#000000;stroke-width:1.5;" width="521" x="383" y="718"/><rect fill="#F1F1F1" height="40.9766" rx="5" ry="5" style="stroke:#F1F1F1;stroke-width:1.5;" width="457" x="415" y="777"/><text fill="#000000" font-family="sans-serif" font-size="14" font-weight="bold" lengthAdjust="spacing" textLength="71" x="420" y="792.5352">kodeverdi</text><text fill="#000000" font-family="sans-serif" font-size="14" lengthAdjust="spacing" textLength="27" x="547" y="792.5352">172</text><line style="stroke:#000000;stroke-width:1.0;" x1="542" x2="542" y1="777" y2="797.4883"/><line style="stroke:#000000;stroke-width:1.0;" x1="415" x2="872" y1="797.4883" y2="797.4883"/><text fill="#000000" font-family="sans-serif" font-size="14" font-weight="bold" lengthAdjust="spacing" textLength="117" x="420" y="813.0234">kodebeskrivelse</text><text fill="#000000" font-family="sans-serif" font-size="14" lengthAdjust="spacing" textLength="320" x="547" y="813.0234">Infrastruktursone &#167; 11-8 tredje ledd bokstav b</text><line style="stroke:#000000;stroke-width:1.0;" x1="542" x2="542" y1="797.4883" y2="817.9766"/><rect fill="none" height="40.9766" rx="5" ry="5" style="stroke:#000000;stroke-width:1.5;" width="457" x="415" y="777"/><rect fill="#F1F1F1" height="40.9766" rx="5" ry="5" style="stroke:#F1F1F1;stroke-width:1.5;" width="546" x="370.5" y="836"/><text fill="#000000" font-family="sans-serif" font-size="14" font-weight="bold" lengthAdjust="spacing" textLength="71" x="375.5" y="851.5352">kodeverdi</text><text fill="#000000" font-family="sans-serif" font-size="14" lengthAdjust="spacing" textLength="27" x="502.5" y="851.5352">173</text><line style="stroke:#000000;stroke-width:1.0;" x1="497.5" x2="497.5" y1="836" y2="856.4883"/><line style="stroke:#000000;stroke-width:1.0;" x1="370.5" x2="916.5" y1="856.4883" y2="856.4883"/><text fill="#000000" font-family="sans-serif" font-size="14" font-weight="bold" lengthAdjust="spacing" textLength="117" x="375.5" y="872.0234">kodebeskrivelse</text><text fill="#000000" font-family="sans-serif" font-size="14" lengthAdjust="spacing" textLength="409" x="502.5" y="872.0234">Randsone rundt verneomr&#229;der &#167; 11-8 tredje ledd bokstav c</text><line style="stroke:#000000;stroke-width:1.0;" x1="497.5" x2="497.5" y1="856.4883" y2="876.9766"/><rect fill="none" height="40.9766" rx="5" ry="5" style="stroke:#000000;stroke-width:1.5;" width="546" x="370.5" y="836"/><rect fill="#F1F1F1" height="40.9766" rx="5" ry="5" style="stroke:#F1F1F1;stroke-width:1.5;" width="463" x="412" y="895"/><text fill="#000000" font-family="sans-serif" font-size="14" font-weight="bold" lengthAdjust="spacing" textLength="71" x="417" y="910.5352">kodeverdi</text><text fill="#000000" font-family="sans-serif" font-size="14" lengthAdjust="spacing" textLength="27" x="544" y="910.5352">174</text><line style="stroke:#000000;stroke-width:1.0;" x1="539" x2="539" y1="895" y2="915.4883"/><line style="stroke:#000000;stroke-width:1.0;" x1="412" x2="875" y1="915.4883" y2="915.4883"/><text fill="#000000" font-family="sans-serif" font-size="14" font-weight="bold" lengthAdjust="spacing" textLength="117" x="417" y="931.0234">kodebeskrivelse</text><text fill="#000000" font-family="sans-serif" font-size="14" lengthAdjust="spacing" textLength="326" x="544" y="931.0234">B&#229;ndleggingssone &#167; 11-8 tredje ledd bokstav d</text><line style="stroke:#000000;stroke-width:1.0;" x1="539" x2="539" y1="915.4883" y2="935.9766"/><rect fill="none" height="40.9766" rx="5" ry="5" style="stroke:#000000;stroke-width:1.5;" width="463" x="412" y="895"/><path d="M310,318.5 L323,318.5 C381.1089,318.5 317.1708,99.8356 359,59.5 C375.9816,43.1247 396.4665,31.8363 418.5648,24.3091 " fill="none" style="stroke:#000000;stroke-width:1.0;stroke-dasharray:3.0,3.0;"/><path d="M419.4902,27.2008 L420.7335,23.6151 L417.6395,21.4175 L425.7939,21.9957 L419.4902,27.2008 " fill="#000000" style="stroke:#000000;stroke-width:1.0;"/><ellipse cx="310" cy="318.5" fill="#000000" rx="3" ry="3" style="stroke:#000000;stroke-width:1.0;"/><path d="M310,339.5 L323,339.5 C372.7584,339.5 322.7807,152.6184 359,118.5 C380.7007,98.058 407.8833,85.6214 436.7735,78.5568 " fill="none" style="stroke:#000000;stroke-width:1.0;stroke-dasharray:3.0,3.0;"/><path d="M437.4462,81.5086 L438.9873,78.0522 L436.1007,75.605 L444.1529,76.8748 L437.4462,81.5086 " fill="#000000" style="stroke:#000000;stroke-width:1.0;"/><ellipse cx="310" cy="339.5" fill="#000000" rx="3" ry="3" style="stroke:#000000;stroke-width:1.0;"/><path d="M310,359.5 L323,359.5 C405.4561,359.5 298.033,233.0161 359,177.5 C378.0946,160.1125 401.182,148.6018 425.8456,141.2957 " fill="none" style="stroke:#000000;stroke-width:1.0;stroke-dasharray:3.0,3.0;"/><path d="M426.6626,144.2347 L428.0499,140.683 L425.0287,138.3567 L433.1932,139.2534 L426.6626,144.2347 " fill="#000000" style="stroke:#000000;stroke-width:1.0;"/><ellipse cx="310" cy="359.5" fill="#000000" rx="3" ry="3" style="stroke:#000000;stroke-width:1.0;"/><path d="M310,380.5 L323,380.5 C388.9697,380.5 309.1344,279.6905 359,236.5 C386.3683,212.7953 421.2438,200.258 457.1132,194.445 " fill="none" style="stroke:#000000;stroke-width:1.0;stroke-dasharray:3.0,3.0;"/><path d="M457.5692,197.5118 L459.4133,194.103 L456.6572,191.3782 L464.7801,193.305 L457.5692,197.5118 " fill="#000000" style="stroke:#000000;stroke-width:1.0;"/><ellipse cx="310" cy="380.5" fill="#000000" rx="3" ry="3" style="stroke:#000000;stroke-width:1.0;"/><path d="M310,400.5 L323,400.5 C372.3333,400.5 320.3661,326.179 359,295.5 C360.7739,294.0914 362.5749,292.7238 364.4016,291.3963 " fill="none" style="stroke:#000000;stroke-width:1.0;stroke-dasharray:3.0,3.0;"/><path d="M366.146,293.9192 L366.2938,290.088 L362.6573,288.8733 L370.709,287.0355 L366.146,293.9192 " fill="#000000" style="stroke:#000000;stroke-width:1.0;"/><ellipse cx="310" cy="400.5" fill="#000000" rx="3" ry="3" style="stroke:#000000;stroke-width:1.0;"/><path d="M310,421.5 L323,421.5 C356.4132,421.5 331.2049,374.0439 359,355.5 C386.8949,336.8895 419.8737,326.0187 453.3029,320.097 " fill="none" style="stroke:#000000;stroke-width:1.0;stroke-dasharray:3.0,3.0;"/><path d="M453.8069,323.1332 L455.5801,319.7191 L452.799,317.0608 L460.8934,318.8372 L453.8069,323.1332 " fill="#000000" style="stroke:#000000;stroke-width:1.0;"/><ellipse cx="310" cy="421.5" fill="#000000" rx="3" ry="3" style="stroke:#000000;stroke-width:1.0;"/><path d="M310,441.5 L323,441.5 C343,441.5 340.3853,421.8138 359,414.5 C371.362,409.6429 384.2468,405.4739 397.4095,401.902 " fill="none" style="stroke:#000000;stroke-width:1.0;stroke-dasharray:3.0,3.0;"/><path d="M398.1789,404.8379 L399.6114,401.325 L396.6401,398.9662 L404.7491,399.9786 L398.1789,404.8379 " fill="#000000" style="stroke:#000000;stroke-width:1.0;"/><ellipse cx="310" cy="441.5" fill="#000000" rx="3" ry="3" style="stroke:#000000;stroke-width:1.0;"/><path d="M310,462.5 L323,462.5 C356.1138,462.5 391.1212,461.4736 425.3532,459.898 " fill="none" style="stroke:#000000;stroke-width:1.0;stroke-dasharray:3.0,3.0;"/><path d="M425.4999,462.999 L427.6789,459.788 L425.2065,456.797 L433.1057,459.5313 L425.4999,462.999 " fill="#000000" style="stroke:#000000;stroke-width:1.0;"/><ellipse cx="310" cy="462.5" fill="#000000" rx="3" ry="3" style="stroke:#000000;stroke-width:1.0;"/><path d="M310,482.5 L323,482.5 C366.5429,482.5 413.3538,484.3674 457.37,486.961 " fill="none" style="stroke:#000000;stroke-width:1.0;stroke-dasharray:3.0,3.0;"/><path d="M457.1871,490.0049 L459.6529,487.0981 L457.5528,483.917 L464.9799,487.4182 L457.1871,490.0049 " fill="#000000" style="stroke:#000000;stroke-width:1.0;"/><ellipse cx="310" cy="482.5" fill="#000000" rx="3" ry="3" style="stroke:#000000;stroke-width:1.0;"/><path d="M310,503.5 L323,503.5 C343.5456,503.5 339.9967,524.6899 359,532.5 C364.1213,534.6048 369.3366,536.5811 374.6277,538.4362 " fill="none" style="stroke:#000000;stroke-width:1.0;stroke-dasharray:3.0,3.0;"/><path d="M373.6457,541.3404 L376.8059,539.1727 L375.6098,535.5319 L381.8883,540.8913 L373.6457,541.3404 " fill="#000000" style="stroke:#000000;stroke-width:1.0;"/><ellipse cx="310" cy="503.5" fill="#000000" rx="3" ry="3" style="stroke:#000000;stroke-width:1.0;"/><path d="M310,523.5 L323,523.5 C357.1962,523.5 330.6389,572.3942 359,591.5 C375.8402,602.8445 394.5638,611.3008 414.1368,617.5026 " fill="none" style="stroke:#000000;stroke-width:1.0;stroke-dasharray:3.0,3.0;"/><path d="M413.2632,620.4016 L416.3111,618.1578 L415.0105,614.6035 L421.3845,619.6867 L413.2632,620.4016 " fill="#000000" style="stroke:#000000;stroke-width:1.0;"/><ellipse cx="310" cy="523.5" fill="#000000" rx="3" ry="3" style="stroke:#000000;stroke-width:1.0;"/><path d="M310,544.5 L323,544.5 C372.754,544.5 320.0815,619.5031 359,650.5 C404.2652,686.5518 467.317,695.7506 522.5151,695.0916 " fill="none" style="stroke:#000000;stroke-width:1.0;stroke-dasharray:3.0,3.0;"/><path d="M522.5778,698.1851 L524.8353,695.0446 L522.4524,691.998 L530.249,694.9349 L522.5778,698.1851 " fill="#000000" style="stroke:#000000;stroke-width:1.0;"/><ellipse cx="310" cy="544.5" fill="#000000" rx="3" ry="3" style="stroke:#000000;stroke-width:1.0;"/><path d="M310,564.5 L323,564.5 C389.401,564.5 308.8437,665.9864 359,709.5 C364.5673,714.3299 370.4461,718.6966 376.5815,722.6375 " fill="none" style="stroke:#000000;stroke-width:1.0;stroke-dasharray:3.0,3.0;"/><path d="M374.9371,725.3397 L378.6081,723.8708 L378.2258,719.9352 L383.3371,726.7485 L374.9371,725.3397 " fill="#000000" style="stroke:#000000;stroke-width:1.0;"/><ellipse cx="310" cy="564.5" fill="#000000" rx="3" ry="3" style="stroke:#000000;stroke-width:1.0;"/><path d="M310,585.5 L323,585.5 C405.8922,585.5 297.7397,712.6584 359,768.5 C373.4702,781.6903 390.2377,791.5002 408.2488,798.6588 " fill="none" style="stroke:#000000;stroke-width:1.0;stroke-dasharray:3.0,3.0;"/><path d="M407.1639,801.5531 L410.4196,799.4725 L409.3338,795.7645 L415.4847,801.3712 L407.1639,801.5531 " fill="#000000" style="stroke:#000000;stroke-width:1.0;"/><ellipse cx="310" cy="585.5" fill="#000000" rx="3" ry="3" style="stroke:#000000;stroke-width:1.0;"/><path d="M310,605.5 L323,605.5 C372.9778,605.5 322.6333,793.2182 359,827.5 C360.8934,829.2848 362.8285,831.0086 364.8029,832.6732 " fill="none" style="stroke:#000000;stroke-width:1.0;stroke-dasharray:3.0,3.0;"/><path d="M362.8759,835.0886 L366.6145,834.1185 L366.73,830.2578 L370.8415,837.4908 L362.8759,835.0886 " fill="#000000" style="stroke:#000000;stroke-width:1.0;"/><ellipse cx="310" cy="605.5" fill="#000000" rx="3" ry="3" style="stroke:#000000;stroke-width:1.0;"/><path d="M310,626.5 L323,626.5 C381.329,626.5 317.023,846.0006 359,886.5 C372.42,899.4476 388.0299,909.2157 404.8961,916.4593 " fill="none" style="stroke:#000000;stroke-width:1.0;stroke-dasharray:3.0,3.0;"/><path d="M403.7154,919.3804 L407.0869,917.3448 L406.0768,913.5383 L412.1987,919.4111 L403.7154,919.3804 " fill="#000000" style="stroke:#000000;stroke-width:1.0;"/><ellipse cx="310" cy="626.5" fill="#000000" rx="3" ry="3" style="stroke:#000000;stroke-width:1.0;"/><path d="M251,472.5 L264,472.5 C273.4213,472.5 283.9164,472.5 292.5483,472.5 " fill="none" style="stroke:#000000;stroke-width:1.0;stroke-dasharray:3.0,3.0;"/><path d="M292.5483,475.5437 L294.8311,472.5 L292.5483,469.4563 L300.1575,472.5 L292.5483,475.5437 " fill="#000000" style="stroke:#000000;stroke-width:1.0;"/><ellipse cx="251" cy="472.5" fill="#000000" rx="3" ry="3" style="stroke:#000000;stroke-width:1.0;"/><!--SRC=[fPNDJjj0483lVefHJa722JQnGJbH_jf20eW0bwg7DJkn7DkxqUpQKeHu7DHNuDoyMCTEGb5LOQUzhEJzcMzcz_FkaR62xCnevJmv09qvQQjJdMLAbAepX8xIlTJqfWatyqoepcurQpCe4pD7POIPQMNiOewq6Y-HggvgIkclkb8jCKkCHUxynXq0JtMx7k8LCka0B_0yhrxnDXIXIIafCJDOJpZN51KISct19faLAUHb3pYts82PBLz1nr0AOoI9k5C7Ujxz43ZO-nZuYL1a4HMfsvzgofSl6QGwpmk5NQvffzwMLfo6mYxdDMd3Y6dvgdXR6MmBWfy_mFFS0r3Kss-7yxV2ZQxERzz3WdQG_QqWrIxsURcgJwg_EgO-roYKP0VnVG9XgmI2XiCxHdOkpwjl-hTZ2xVNWp0kCgI4bNJx4KQBEAwcc_RC1bLk6rNntQ2zAg6_5UvDbJMadIhX_bQGlweYuZzbMQVGJfOms4AM_px4WmPnll3LkL2cAgLTl0Of9abQPxiBnYvV5svr4Ku5uRiVwn0iePmXP2WbH3hbwxy4qGxV8CbNDIMnSR2H6RLZDZcpKO4A9IrKkg3EQVaYaJx4FxR33nfyMRuecM4SLzlUMB9SCxdzxZmxHwXa_V0wDsoKlH-FglnDeXLuFN_F7_I2xgHGC1OBy4CEE_I2ON089sUJEwZ6TvpkvviH65tG8mA_nPQIgB0SOCUv4AM0sqBP9CSXNFChVN5wkUc0CrKcf5MEoZeN3-FV4yA1UvnOc21nAl0mTavnAehCyef7BRdA8TpVdRk7peYVsqB471kLSw8vBYs6S7Nz2m00]--></g></svg>