<svg xmlns="http://www.w3.org/2000/svg" xmlns:xlink="http://www.w3.org/1999/xlink" contentStyleType="text/css" data-diagram-type="JSON" height="947px" preserveAspectRatio="none" style="width:937px;height:947px;background:#FFFFFF;" version="1.1" viewBox="0 0 937 947" width="937px" zoomAndPan="magnify"><defs/><g><rect fill="#F1F1F1" height="81.9531" rx="5" ry="5" style="stroke:#F1F1F1;stroke-width:1.5;" width="251.9023" x="10" y="400.5"/><text fill="#000000" font-family="sans-serif" font-size="14" font-weight="bold" lengthAdjust="spacing" textLength="101.0283" x="15" y="416.0352">protokollnavn</text><text fill="#000000" font-family="sans-serif" font-size="14" lengthAdjust="spacing" textLength="99.6885" x="126.0283" y="416.0352">no.ks.fiks.plan</text><line style="stroke:#000000;stroke-width:1;" x1="121.0283" x2="121.0283" y1="400.5" y2="420.9883"/><line style="stroke:#000000;stroke-width:1;" x1="10" x2="261.9023" y1="420.9883" y2="420.9883"/><text fill="#000000" font-family="sans-serif" font-size="14" font-weight="bold" lengthAdjust="spacing" textLength="34.9248" x="15" y="436.5234">navn</text><text fill="#000000" font-family="sans-serif" font-size="14" lengthAdjust="spacing" textLength="130.874" x="126.0283" y="436.5234">dispensasjonstyper</text><line style="stroke:#000000;stroke-width:1;" x1="121.0283" x2="121.0283" y1="420.9883" y2="441.4766"/><line style="stroke:#000000;stroke-width:1;" x1="10" x2="261.9023" y1="441.4766" y2="441.4766"/><text fill="#000000" font-family="sans-serif" font-size="14" font-weight="bold" lengthAdjust="spacing" textLength="53.5869" x="15" y="457.0117">versjon</text><text fill="#000000" font-family="sans-serif" font-size="14" lengthAdjust="spacing" textLength="16.0986" x="126.0283" y="457.0117">v2</text><line style="stroke:#000000;stroke-width:1;" x1="121.0283" x2="121.0283" y1="441.4766" y2="461.9648"/><line style="stroke:#000000;stroke-width:1;" x1="10" x2="261.9023" y1="461.9648" y2="461.9648"/><text fill="#000000" font-family="sans-serif" font-size="14" font-weight="bold" lengthAdjust="spacing" textLength="66.1787" x="15" y="477.5">kodeliste</text><text fill="#000000" font-family="sans-serif" font-size="14" lengthAdjust="spacing" textLength="13.2891" x="126.0283" y="477.5">&#160;&#160;&#160;</text><line style="stroke:#000000;stroke-width:1;" x1="121.0283" x2="121.0283" y1="461.9648" y2="482.4531"/><rect fill="none" height="81.9531" rx="5" ry="5" style="stroke:#000000;stroke-width:1.5;" width="251.9023" x="10" y="400.5"/><rect fill="#F1F1F1" height="327.8125" rx="5" ry="5" style="stroke:#F1F1F1;stroke-width:1.5;" width="23.2891" x="299" y="308.5"/><text fill="#000000" font-family="sans-serif" font-size="14" lengthAdjust="spacing" textLength="13.2891" x="304" y="324.0352">&#160;&#160;&#160;</text><line style="stroke:#000000;stroke-width:1;" x1="299" x2="322.2891" y1="328.9883" y2="328.9883"/><text fill="#000000" font-family="sans-serif" font-size="14" lengthAdjust="spacing" textLength="13.2891" x="304" y="344.5234">&#160;&#160;&#160;</text><line style="stroke:#000000;stroke-width:1;" x1="299" x2="322.2891" y1="349.4766" y2="349.4766"/><text fill="#000000" font-family="sans-serif" font-size="14" lengthAdjust="spacing" textLength="13.2891" x="304" y="365.0117">&#160;&#160;&#160;</text><line style="stroke:#000000;stroke-width:1;" x1="299" x2="322.2891" y1="369.9648" y2="369.9648"/><text fill="#000000" font-family="sans-serif" font-size="14" lengthAdjust="spacing" textLength="13.2891" x="304" y="385.5">&#160;&#160;&#160;</text><line style="stroke:#000000;stroke-width:1;" x1="299" x2="322.2891" y1="390.4531" y2="390.4531"/><text fill="#000000" font-family="sans-serif" font-size="14" lengthAdjust="spacing" textLength="13.2891" x="304" y="405.9883">&#160;&#160;&#160;</text><line style="stroke:#000000;stroke-width:1;" x1="299" x2="322.2891" y1="410.9414" y2="410.9414"/><text fill="#000000" font-family="sans-serif" font-size="14" lengthAdjust="spacing" textLength="13.2891" x="304" y="426.4766">&#160;&#160;&#160;</text><line style="stroke:#000000;stroke-width:1;" x1="299" x2="322.2891" y1="431.4297" y2="431.4297"/><text fill="#000000" font-family="sans-serif" font-size="14" lengthAdjust="spacing" textLength="13.2891" x="304" y="446.9648">&#160;&#160;&#160;</text><line style="stroke:#000000;stroke-width:1;" x1="299" x2="322.2891" y1="451.918" y2="451.918"/><text fill="#000000" font-family="sans-serif" font-size="14" lengthAdjust="spacing" textLength="13.2891" x="304" y="467.4531">&#160;&#160;&#160;</text><line style="stroke:#000000;stroke-width:1;" x1="299" x2="322.2891" y1="472.4063" y2="472.4063"/><text fill="#000000" font-family="sans-serif" font-size="14" lengthAdjust="spacing" textLength="13.2891" x="304" y="487.9414">&#160;&#160;&#160;</text><line style="stroke:#000000;stroke-width:1;" x1="299" x2="322.2891" y1="492.8945" y2="492.8945"/><text fill="#000000" font-family="sans-serif" font-size="14" lengthAdjust="spacing" textLength="13.2891" x="304" y="508.4297">&#160;&#160;&#160;</text><line style="stroke:#000000;stroke-width:1;" x1="299" x2="322.2891" y1="513.3828" y2="513.3828"/><text fill="#000000" font-family="sans-serif" font-size="14" lengthAdjust="spacing" textLength="13.2891" x="304" y="528.918">&#160;&#160;&#160;</text><line style="stroke:#000000;stroke-width:1;" x1="299" x2="322.2891" y1="533.8711" y2="533.8711"/><text fill="#000000" font-family="sans-serif" font-size="14" lengthAdjust="spacing" textLength="13.2891" x="304" y="549.4063">&#160;&#160;&#160;</text><line style="stroke:#000000;stroke-width:1;" x1="299" x2="322.2891" y1="554.3594" y2="554.3594"/><text fill="#000000" font-family="sans-serif" font-size="14" lengthAdjust="spacing" textLength="13.2891" x="304" y="569.8945">&#160;&#160;&#160;</text><line style="stroke:#000000;stroke-width:1;" x1="299" x2="322.2891" y1="574.8477" y2="574.8477"/><text fill="#000000" font-family="sans-serif" font-size="14" lengthAdjust="spacing" textLength="13.2891" x="304" y="590.3828">&#160;&#160;&#160;</text><line style="stroke:#000000;stroke-width:1;" x1="299" x2="322.2891" y1="595.3359" y2="595.3359"/><text fill="#000000" font-family="sans-serif" font-size="14" lengthAdjust="spacing" textLength="13.2891" x="304" y="610.8711">&#160;&#160;&#160;</text><line style="stroke:#000000;stroke-width:1;" x1="299" x2="322.2891" y1="615.8242" y2="615.8242"/><text fill="#000000" font-family="sans-serif" font-size="14" lengthAdjust="spacing" textLength="13.2891" x="304" y="631.3594">&#160;&#160;&#160;</text><rect fill="none" height="327.8125" rx="5" ry="5" style="stroke:#000000;stroke-width:1.5;" width="23.2891" x="299" y="308.5"/><rect fill="#F1F1F1" height="40.9766" rx="5" ry="5" style="stroke:#F1F1F1;stroke-width:1.5;" width="436.8281" x="424" y="10"/><text fill="#000000" font-family="sans-serif" font-size="14" font-weight="bold" lengthAdjust="spacing" textLength="71.9824" x="429" y="25.5352">kodeverdi</text><text fill="#000000" font-family="sans-serif" font-size="14" lengthAdjust="spacing" textLength="26.5576" x="556.6328" y="25.5352">111</text><line style="stroke:#000000;stroke-width:1;" x1="551.6328" x2="551.6328" y1="10" y2="30.4883"/><line style="stroke:#000000;stroke-width:1;" x1="424" x2="860.8281" y1="30.4883" y2="30.4883"/><text fill="#000000" font-family="sans-serif" font-size="14" font-weight="bold" lengthAdjust="spacing" textLength="117.6328" x="429" y="46.0234">kodebeskrivelse</text><text fill="#000000" font-family="sans-serif" font-size="14" lengthAdjust="spacing" textLength="299.1953" x="556.6328" y="46.0234">Forbud mot tiltak mv. langs sj&#248; og vassdrag</text><line style="stroke:#000000;stroke-width:1;" x1="551.6328" x2="551.6328" y1="30.4883" y2="50.9766"/><rect fill="none" height="40.9766" rx="5" ry="5" style="stroke:#000000;stroke-width:1.5;" width="436.8281" x="424" y="10"/><rect fill="#F1F1F1" height="40.9766" rx="5" ry="5" style="stroke:#F1F1F1;stroke-width:1.5;" width="395.3477" x="445" y="69"/><text fill="#000000" font-family="sans-serif" font-size="14" font-weight="bold" lengthAdjust="spacing" textLength="71.9824" x="450" y="84.5352">kodeverdi</text><text fill="#000000" font-family="sans-serif" font-size="14" lengthAdjust="spacing" textLength="26.5576" x="577.6328" y="84.5352">140</text><line style="stroke:#000000;stroke-width:1;" x1="572.6328" x2="572.6328" y1="69" y2="89.4883"/><line style="stroke:#000000;stroke-width:1;" x1="445" x2="840.3477" y1="89.4883" y2="89.4883"/><text fill="#000000" font-family="sans-serif" font-size="14" font-weight="bold" lengthAdjust="spacing" textLength="117.6328" x="450" y="105.0234">kodebeskrivelse</text><text fill="#000000" font-family="sans-serif" font-size="14" lengthAdjust="spacing" textLength="257.7148" x="577.6328" y="105.0234">Arealbruk-/form&#229;l kommune(del)plan</text><line style="stroke:#000000;stroke-width:1;" x1="572.6328" x2="572.6328" y1="89.4883" y2="109.9766"/><rect fill="none" height="40.9766" rx="5" ry="5" style="stroke:#000000;stroke-width:1.5;" width="395.3477" x="445" y="69"/><rect fill="#F1F1F1" height="40.9766" rx="5" ry="5" style="stroke:#F1F1F1;stroke-width:1.5;" width="418.8633" x="433" y="128"/><text fill="#000000" font-family="sans-serif" font-size="14" font-weight="bold" lengthAdjust="spacing" textLength="71.9824" x="438" y="143.5352">kodeverdi</text><text fill="#000000" font-family="sans-serif" font-size="14" lengthAdjust="spacing" textLength="26.5576" x="565.6328" y="143.5352">141</text><line style="stroke:#000000;stroke-width:1;" x1="560.6328" x2="560.6328" y1="128" y2="148.4883"/><line style="stroke:#000000;stroke-width:1;" x1="433" x2="851.8633" y1="148.4883" y2="148.4883"/><text fill="#000000" font-family="sans-serif" font-size="14" font-weight="bold" lengthAdjust="spacing" textLength="117.6328" x="438" y="164.0234">kodebeskrivelse</text><text fill="#000000" font-family="sans-serif" font-size="14" lengthAdjust="spacing" textLength="281.2305" x="565.6328" y="164.0234">KpArealform&#229;l gr&#248;nnstruktur &#167; 11-7 nr.3</text><line style="stroke:#000000;stroke-width:1;" x1="560.6328" x2="560.6328" y1="148.4883" y2="168.9766"/><rect fill="none" height="40.9766" rx="5" ry="5" style="stroke:#000000;stroke-width:1.5;" width="418.8633" x="433" y="128"/><rect fill="#F1F1F1" height="40.9766" rx="5" ry="5" style="stroke:#F1F1F1;stroke-width:1.5;" width="357.9688" x="463.5" y="187"/><text fill="#000000" font-family="sans-serif" font-size="14" font-weight="bold" lengthAdjust="spacing" textLength="71.9824" x="468.5" y="202.5352">kodeverdi</text><text fill="#000000" font-family="sans-serif" font-size="14" lengthAdjust="spacing" textLength="26.5576" x="596.1328" y="202.5352">142</text><line style="stroke:#000000;stroke-width:1;" x1="591.1328" x2="591.1328" y1="187" y2="207.4883"/><line style="stroke:#000000;stroke-width:1;" x1="463.5" x2="821.4688" y1="207.4883" y2="207.4883"/><text fill="#000000" font-family="sans-serif" font-size="14" font-weight="bold" lengthAdjust="spacing" textLength="117.6328" x="468.5" y="223.0234">kodebeskrivelse</text><text fill="#000000" font-family="sans-serif" font-size="14" lengthAdjust="spacing" textLength="220.3359" x="596.1328" y="223.0234">KpArealform&#229;l LNFR &#167; 11-7 nr.5</text><line style="stroke:#000000;stroke-width:1;" x1="591.1328" x2="591.1328" y1="207.4883" y2="227.9766"/><rect fill="none" height="40.9766" rx="5" ry="5" style="stroke:#000000;stroke-width:1.5;" width="357.9688" x="463.5" y="187"/><rect fill="#F1F1F1" height="40.9766" rx="5" ry="5" style="stroke:#F1F1F1;stroke-width:1.5;" width="550.4756" x="367.5" y="246"/><text fill="#000000" font-family="sans-serif" font-size="14" font-weight="bold" lengthAdjust="spacing" textLength="71.9824" x="372.5" y="261.5352">kodeverdi</text><text fill="#000000" font-family="sans-serif" font-size="14" lengthAdjust="spacing" textLength="26.5576" x="500.1328" y="261.5352">143</text><line style="stroke:#000000;stroke-width:1;" x1="495.1328" x2="495.1328" y1="246" y2="266.4883"/><line style="stroke:#000000;stroke-width:1;" x1="367.5" x2="917.9756" y1="266.4883" y2="266.4883"/><text fill="#000000" font-family="sans-serif" font-size="14" font-weight="bold" lengthAdjust="spacing" textLength="117.6328" x="372.5" y="282.0234">kodebeskrivelse</text><text fill="#000000" font-family="sans-serif" font-size="14" lengthAdjust="spacing" textLength="412.8428" x="500.1328" y="282.0234">KpArealform&#229;l bruk/vern sj&#248;/vassdr/strandsone &#167; 11-7 nr.6</text><line style="stroke:#000000;stroke-width:1;" x1="495.1328" x2="495.1328" y1="266.4883" y2="286.9766"/><rect fill="none" height="40.9766" rx="5" ry="5" style="stroke:#000000;stroke-width:1.5;" width="550.4756" x="367.5" y="246"/><rect fill="#F1F1F1" height="40.9766" rx="5" ry="5" style="stroke:#F1F1F1;stroke-width:1.5;" width="363.8818" x="460.5" y="305"/><text fill="#000000" font-family="sans-serif" font-size="14" font-weight="bold" lengthAdjust="spacing" textLength="71.9824" x="465.5" y="320.5352">kodeverdi</text><text fill="#000000" font-family="sans-serif" font-size="14" lengthAdjust="spacing" textLength="26.5576" x="593.1328" y="320.5352">150</text><line style="stroke:#000000;stroke-width:1;" x1="588.1328" x2="588.1328" y1="305" y2="325.4883"/><line style="stroke:#000000;stroke-width:1;" x1="460.5" x2="824.3818" y1="325.4883" y2="325.4883"/><text fill="#000000" font-family="sans-serif" font-size="14" font-weight="bold" lengthAdjust="spacing" textLength="117.6328" x="465.5" y="341.0234">kodebeskrivelse</text><text fill="#000000" font-family="sans-serif" font-size="14" lengthAdjust="spacing" textLength="226.249" x="593.1328" y="341.0234">Bestemmelser kommune(del)plan</text><line style="stroke:#000000;stroke-width:1;" x1="588.1328" x2="588.1328" y1="325.4883" y2="345.9766"/><rect fill="none" height="40.9766" rx="5" ry="5" style="stroke:#000000;stroke-width:1.5;" width="363.8818" x="460.5" y="305"/><rect fill="#F1F1F1" height="40.9766" rx="5" ry="5" style="stroke:#F1F1F1;stroke-width:1.5;" width="474.166" x="405.5" y="364"/><text fill="#000000" font-family="sans-serif" font-size="14" font-weight="bold" lengthAdjust="spacing" textLength="71.9824" x="410.5" y="379.5352">kodeverdi</text><text fill="#000000" font-family="sans-serif" font-size="14" lengthAdjust="spacing" textLength="26.5576" x="538.1328" y="379.5352">160</text><line style="stroke:#000000;stroke-width:1;" x1="533.1328" x2="533.1328" y1="364" y2="384.4883"/><line style="stroke:#000000;stroke-width:1;" x1="405.5" x2="879.666" y1="384.4883" y2="384.4883"/><text fill="#000000" font-family="sans-serif" font-size="14" font-weight="bold" lengthAdjust="spacing" textLength="117.6328" x="410.5" y="400.0234">kodebeskrivelse</text><text fill="#000000" font-family="sans-serif" font-size="14" lengthAdjust="spacing" textLength="336.5332" x="538.1328" y="400.0234">Arealbruk-/form&#229;l regulerings-/bebyggelsesplan</text><line style="stroke:#000000;stroke-width:1;" x1="533.1328" x2="533.1328" y1="384.4883" y2="404.9766"/><rect fill="none" height="40.9766" rx="5" ry="5" style="stroke:#000000;stroke-width:1.5;" width="474.166" x="405.5" y="364"/><rect fill="#F1F1F1" height="40.9766" rx="5" ry="5" style="stroke:#F1F1F1;stroke-width:1.5;" width="418.5762" x="433" y="423"/><text fill="#000000" font-family="sans-serif" font-size="14" font-weight="bold" lengthAdjust="spacing" textLength="71.9824" x="438" y="438.5352">kodeverdi</text><text fill="#000000" font-family="sans-serif" font-size="14" lengthAdjust="spacing" textLength="26.5576" x="565.6328" y="438.5352">161</text><line style="stroke:#000000;stroke-width:1;" x1="560.6328" x2="560.6328" y1="423" y2="443.4883"/><line style="stroke:#000000;stroke-width:1;" x1="433" x2="851.5762" y1="443.4883" y2="443.4883"/><text fill="#000000" font-family="sans-serif" font-size="14" font-weight="bold" lengthAdjust="spacing" textLength="117.6328" x="438" y="459.0234">kodebeskrivelse</text><text fill="#000000" font-family="sans-serif" font-size="14" lengthAdjust="spacing" textLength="280.9434" x="565.6328" y="459.0234">RpArealform&#229;l gr&#248;nnstruktur &#167; 12-5 nr.3</text><line style="stroke:#000000;stroke-width:1;" x1="560.6328" x2="560.6328" y1="443.4883" y2="463.9766"/><rect fill="none" height="40.9766" rx="5" ry="5" style="stroke:#000000;stroke-width:1.5;" width="418.5762" x="433" y="423"/><rect fill="#F1F1F1" height="40.9766" rx="5" ry="5" style="stroke:#F1F1F1;stroke-width:1.5;" width="357.6816" x="463.5" y="482"/><text fill="#000000" font-family="sans-serif" font-size="14" font-weight="bold" lengthAdjust="spacing" textLength="71.9824" x="468.5" y="497.5352">kodeverdi</text><text fill="#000000" font-family="sans-serif" font-size="14" lengthAdjust="spacing" textLength="26.5576" x="596.1328" y="497.5352">162</text><line style="stroke:#000000;stroke-width:1;" x1="591.1328" x2="591.1328" y1="482" y2="502.4883"/><line style="stroke:#000000;stroke-width:1;" x1="463.5" x2="821.1816" y1="502.4883" y2="502.4883"/><text fill="#000000" font-family="sans-serif" font-size="14" font-weight="bold" lengthAdjust="spacing" textLength="117.6328" x="468.5" y="518.0234">kodebeskrivelse</text><text fill="#000000" font-family="sans-serif" font-size="14" lengthAdjust="spacing" textLength="220.0488" x="596.1328" y="518.0234">RpArealform&#229;l LNFR &#167; 12-5 nr.5</text><line style="stroke:#000000;stroke-width:1;" x1="591.1328" x2="591.1328" y1="502.4883" y2="522.9766"/><rect fill="none" height="40.9766" rx="5" ry="5" style="stroke:#000000;stroke-width:1.5;" width="357.6816" x="463.5" y="482"/><rect fill="#F1F1F1" height="40.9766" rx="5" ry="5" style="stroke:#F1F1F1;stroke-width:1.5;" width="566.6494" x="359" y="541"/><text fill="#000000" font-family="sans-serif" font-size="14" font-weight="bold" lengthAdjust="spacing" textLength="71.9824" x="364" y="556.5352">kodeverdi</text><text fill="#000000" font-family="sans-serif" font-size="14" lengthAdjust="spacing" textLength="26.5576" x="491.6328" y="556.5352">163</text><line style="stroke:#000000;stroke-width:1;" x1="486.6328" x2="486.6328" y1="541" y2="561.4883"/><line style="stroke:#000000;stroke-width:1;" x1="359" x2="925.6494" y1="561.4883" y2="561.4883"/><text fill="#000000" font-family="sans-serif" font-size="14" font-weight="bold" lengthAdjust="spacing" textLength="117.6328" x="364" y="577.0234">kodebeskrivelse</text><text fill="#000000" font-family="sans-serif" font-size="14" lengthAdjust="spacing" textLength="429.0166" x="491.6328" y="577.0234">RpArealform&#229;l bruk/vern sj&#248;/vassdrag/strandsone &#167; 12-5 nr.6</text><line style="stroke:#000000;stroke-width:1;" x1="486.6328" x2="486.6328" y1="561.4883" y2="581.9766"/><rect fill="none" height="40.9766" rx="5" ry="5" style="stroke:#000000;stroke-width:1.5;" width="566.6494" x="359" y="541"/><rect fill="#F1F1F1" height="40.9766" rx="5" ry="5" style="stroke:#F1F1F1;stroke-width:1.5;" width="442.7002" x="421" y="600"/><text fill="#000000" font-family="sans-serif" font-size="14" font-weight="bold" lengthAdjust="spacing" textLength="71.9824" x="426" y="615.5352">kodeverdi</text><text fill="#000000" font-family="sans-serif" font-size="14" lengthAdjust="spacing" textLength="26.5576" x="553.6328" y="615.5352">165</text><line style="stroke:#000000;stroke-width:1;" x1="548.6328" x2="548.6328" y1="600" y2="620.4883"/><line style="stroke:#000000;stroke-width:1;" x1="421" x2="863.7002" y1="620.4883" y2="620.4883"/><text fill="#000000" font-family="sans-serif" font-size="14" font-weight="bold" lengthAdjust="spacing" textLength="117.6328" x="426" y="636.0234">kodebeskrivelse</text><text fill="#000000" font-family="sans-serif" font-size="14" lengthAdjust="spacing" textLength="305.0674" x="553.6328" y="636.0234">Bestemmelser regulerings-/bebyggelsesplan</text><line style="stroke:#000000;stroke-width:1;" x1="548.6328" x2="548.6328" y1="620.4883" y2="640.9766"/><rect fill="none" height="40.9766" rx="5" ry="5" style="stroke:#000000;stroke-width:1.5;" width="442.7002" x="421" y="600"/><rect fill="#F1F1F1" height="40.9766" rx="5" ry="5" style="stroke:#F1F1F1;stroke-width:1.5;" width="226.9102" x="529" y="659"/><text fill="#000000" font-family="sans-serif" font-size="14" font-weight="bold" lengthAdjust="spacing" textLength="71.9824" x="534" y="674.5352">kodeverdi</text><text fill="#000000" font-family="sans-serif" font-size="14" lengthAdjust="spacing" textLength="26.5576" x="661.6328" y="674.5352">170</text><line style="stroke:#000000;stroke-width:1;" x1="656.6328" x2="656.6328" y1="659" y2="679.4883"/><line style="stroke:#000000;stroke-width:1;" x1="529" x2="755.9102" y1="679.4883" y2="679.4883"/><text fill="#000000" font-family="sans-serif" font-size="14" font-weight="bold" lengthAdjust="spacing" textLength="117.6328" x="534" y="695.0234">kodebeskrivelse</text><text fill="#000000" font-family="sans-serif" font-size="14" lengthAdjust="spacing" textLength="89.2773" x="661.6328" y="695.0234">Hensynssone</text><line style="stroke:#000000;stroke-width:1;" x1="656.6328" x2="656.6328" y1="679.4883" y2="699.9766"/><rect fill="none" height="40.9766" rx="5" ry="5" style="stroke:#000000;stroke-width:1.5;" width="226.9102" x="529" y="659"/><rect fill="#F1F1F1" height="40.9766" rx="5" ry="5" style="stroke:#F1F1F1;stroke-width:1.5;" width="521.6689" x="381.5" y="718"/><text fill="#000000" font-family="sans-serif" font-size="14" font-weight="bold" lengthAdjust="spacing" textLength="71.9824" x="386.5" y="733.5352">kodeverdi</text><text fill="#000000" font-family="sans-serif" font-size="14" lengthAdjust="spacing" textLength="26.5576" x="514.1328" y="733.5352">171</text><line style="stroke:#000000;stroke-width:1;" x1="509.1328" x2="509.1328" y1="718" y2="738.4883"/><line style="stroke:#000000;stroke-width:1;" x1="381.5" x2="903.1689" y1="738.4883" y2="738.4883"/><text fill="#000000" font-family="sans-serif" font-size="14" font-weight="bold" lengthAdjust="spacing" textLength="117.6328" x="386.5" y="754.0234">kodebeskrivelse</text><text fill="#000000" font-family="sans-serif" font-size="14" lengthAdjust="spacing" textLength="384.0361" x="514.1328" y="754.0234">Sikrings, st&#248;y- og faresone &#167; 11-8 tredje ledd bokstav a</text><line style="stroke:#000000;stroke-width:1;" x1="509.1328" x2="509.1328" y1="738.4883" y2="758.9766"/><rect fill="none" height="40.9766" rx="5" ry="5" style="stroke:#000000;stroke-width:1.5;" width="521.6689" x="381.5" y="718"/><rect fill="#F1F1F1" height="40.9766" rx="5" ry="5" style="stroke:#F1F1F1;stroke-width:1.5;" width="456.7617" x="414" y="777"/><text fill="#000000" font-family="sans-serif" font-size="14" font-weight="bold" lengthAdjust="spacing" textLength="71.9824" x="419" y="792.5352">kodeverdi</text><text fill="#000000" font-family="sans-serif" font-size="14" lengthAdjust="spacing" textLength="26.5576" x="546.6328" y="792.5352">172</text><line style="stroke:#000000;stroke-width:1;" x1="541.6328" x2="541.6328" y1="777" y2="797.4883"/><line style="stroke:#000000;stroke-width:1;" x1="414" x2="870.7617" y1="797.4883" y2="797.4883"/><text fill="#000000" font-family="sans-serif" font-size="14" font-weight="bold" lengthAdjust="spacing" textLength="117.6328" x="419" y="813.0234">kodebeskrivelse</text><text fill="#000000" font-family="sans-serif" font-size="14" lengthAdjust="spacing" textLength="319.1289" x="546.6328" y="813.0234">Infrastruktursone &#167; 11-8 tredje ledd bokstav b</text><line style="stroke:#000000;stroke-width:1;" x1="541.6328" x2="541.6328" y1="797.4883" y2="817.9766"/><rect fill="none" height="40.9766" rx="5" ry="5" style="stroke:#000000;stroke-width:1.5;" width="456.7617" x="414" y="777"/><rect fill="#F1F1F1" height="40.9766" rx="5" ry="5" style="stroke:#F1F1F1;stroke-width:1.5;" width="543.9951" x="370.5" y="836"/><text fill="#000000" font-family="sans-serif" font-size="14" font-weight="bold" lengthAdjust="spacing" textLength="71.9824" x="375.5" y="851.5352">kodeverdi</text><text fill="#000000" font-family="sans-serif" font-size="14" lengthAdjust="spacing" textLength="26.5576" x="503.1328" y="851.5352">173</text><line style="stroke:#000000;stroke-width:1;" x1="498.1328" x2="498.1328" y1="836" y2="856.4883"/><line style="stroke:#000000;stroke-width:1;" x1="370.5" x2="914.4951" y1="856.4883" y2="856.4883"/><text fill="#000000" font-family="sans-serif" font-size="14" font-weight="bold" lengthAdjust="spacing" textLength="117.6328" x="375.5" y="872.0234">kodebeskrivelse</text><text fill="#000000" font-family="sans-serif" font-size="14" lengthAdjust="spacing" textLength="406.3623" x="503.1328" y="872.0234">Randsone rundt verneomr&#229;der &#167; 11-8 tredje ledd bokstav c</text><line style="stroke:#000000;stroke-width:1;" x1="498.1328" x2="498.1328" y1="856.4883" y2="876.9766"/><rect fill="none" height="40.9766" rx="5" ry="5" style="stroke:#000000;stroke-width:1.5;" width="543.9951" x="370.5" y="836"/><rect fill="#F1F1F1" height="40.9766" rx="5" ry="5" style="stroke:#F1F1F1;stroke-width:1.5;" width="461.998" x="411.5" y="895"/><text fill="#000000" font-family="sans-serif" font-size="14" font-weight="bold" lengthAdjust="spacing" textLength="71.9824" x="416.5" y="910.5352">kodeverdi</text><text fill="#000000" font-family="sans-serif" font-size="14" lengthAdjust="spacing" textLength="26.5576" x="544.1328" y="910.5352">174</text><line style="stroke:#000000;stroke-width:1;" x1="539.1328" x2="539.1328" y1="895" y2="915.4883"/><line style="stroke:#000000;stroke-width:1;" x1="411.5" x2="873.498" y1="915.4883" y2="915.4883"/><text fill="#000000" font-family="sans-serif" font-size="14" font-weight="bold" lengthAdjust="spacing" textLength="117.6328" x="416.5" y="931.0234">kodebeskrivelse</text><text fill="#000000" font-family="sans-serif" font-size="14" lengthAdjust="spacing" textLength="324.3652" x="544.1328" y="931.0234">B&#229;ndleggingssone &#167; 11-8 tredje ledd bokstav d</text><line style="stroke:#000000;stroke-width:1;" x1="539.1328" x2="539.1328" y1="915.4883" y2="935.9766"/><rect fill="none" height="40.9766" rx="5" ry="5" style="stroke:#000000;stroke-width:1.5;" width="461.998" x="411.5" y="895"/><path d="M310,318.5 L323,318.5 C381.1089,318.5 317.178,99.8431 359,59.5 C375.6068,43.4805 395.5774,32.3421 417.1311,24.8368" fill="none" style="stroke:#000000;stroke-width:1;stroke-dasharray:3.0,3.0;"/><path d="M418.0942,27.7838 L419.3413,24.1144 L416.1679,21.8897 L424.4987,22.429 L418.0942,27.7838" fill="#000000" style="stroke:#000000;stroke-width:1;"/><ellipse cx="310" cy="318.5" fill="#000000" rx="3" ry="3" style="stroke:#000000;stroke-width:1;"/><path d="M310,339.5 L323,339.5 C372.7584,339.5 322.7868,152.6249 359,118.5 C380.9528,97.8131 408.5383,85.3463 437.8194,78.3547" fill="none" style="stroke:#000000;stroke-width:1;stroke-dasharray:3.0,3.0;"/><path d="M438.4839,81.3461 L440.0629,77.8564 L437.1549,75.3633 L445.2979,76.6935 L438.4839,81.3461" fill="#000000" style="stroke:#000000;stroke-width:1;"/><ellipse cx="310" cy="339.5" fill="#000000" rx="3" ry="3" style="stroke:#000000;stroke-width:1;"/><path d="M310,359.5 L323,359.5 C405.4561,359.5 298.043,233.027 359,177.5 C378.1081,160.0941 401.2306,148.5927 425.9277,141.3093" fill="none" style="stroke:#000000;stroke-width:1;stroke-dasharray:3.0,3.0;"/><path d="M426.7418,144.2523 L428.135,140.6987 L425.1137,138.3663 L433.2852,139.2741 L426.7418,144.2523" fill="#000000" style="stroke:#000000;stroke-width:1;"/><ellipse cx="310" cy="359.5" fill="#000000" rx="3" ry="3" style="stroke:#000000;stroke-width:1;"/><path d="M310,380.5 L323,380.5 C388.9697,380.5 309.1421,279.6994 359,236.5 C386.0944,213.024 420.5762,200.5294 456.0778,194.6762" fill="none" style="stroke:#000000;stroke-width:1;stroke-dasharray:3.0,3.0;"/><path d="M456.5377,197.7117 L458.3544,194.3313 L455.6179,191.6407 L463.6666,193.5264 L456.5377,197.7117" fill="#000000" style="stroke:#000000;stroke-width:1;"/><ellipse cx="310" cy="380.5" fill="#000000" rx="3" ry="3" style="stroke:#000000;stroke-width:1;"/><path d="M310,400.5 L323,400.5 C372.3333,400.5 320.3716,326.1859 359,295.5 C360.7674,294.096 362.562,292.7328 364.3821,291.4096" fill="none" style="stroke:#000000;stroke-width:1;stroke-dasharray:3.0,3.0;"/><path d="M366.1208,293.9234 L366.2674,290.1055 L362.6433,288.8957 L370.6666,287.0627 L366.1208,293.9234" fill="#000000" style="stroke:#000000;stroke-width:1;"/><ellipse cx="310" cy="400.5" fill="#000000" rx="3" ry="3" style="stroke:#000000;stroke-width:1;"/><path d="M310,421.5 L323,421.5 C356.4132,421.5 331.2083,374.049 359,355.5 C386.8899,336.8854 419.8818,326.0321 453.3105,320.1332" fill="none" style="stroke:#000000;stroke-width:1;stroke-dasharray:3.0,3.0;"/><path d="M453.8123,323.1692 L455.5875,319.7568 L452.8087,317.0971 L460.9006,318.8786 L453.8123,323.1692" fill="#000000" style="stroke:#000000;stroke-width:1;"/><ellipse cx="310" cy="421.5" fill="#000000" rx="3" ry="3" style="stroke:#000000;stroke-width:1;"/><path d="M310,441.5 L323,441.5 C343,441.5 340.3866,421.8172 359,414.5 C371.6091,409.5432 384.764,405.3041 398.2032,401.6858" fill="none" style="stroke:#000000;stroke-width:1;stroke-dasharray:3.0,3.0;"/><path d="M398.9819,404.6833 L400.4513,401.1017 L397.4244,398.6882 L405.697,399.7388 L398.9819,404.6833" fill="#000000" style="stroke:#000000;stroke-width:1;"/><ellipse cx="310" cy="441.5" fill="#000000" rx="3" ry="3" style="stroke:#000000;stroke-width:1;"/><path d="M310,462.5 L323,462.5 C356.1396,462.5 391.1815,461.4656 425.4339,459.8795" fill="none" style="stroke:#000000;stroke-width:1;stroke-dasharray:3.0,3.0;"/><path d="M425.5815,462.9822 L427.7609,459.7687 L425.2862,456.7768 L433.1907,459.5103 L425.5815,462.9822" fill="#000000" style="stroke:#000000;stroke-width:1;"/><ellipse cx="310" cy="462.5" fill="#000000" rx="3" ry="3" style="stroke:#000000;stroke-width:1;"/><path d="M310,482.5 L323,482.5 C366.1451,482.5 412.5084,484.3449 456.1551,486.914" fill="none" style="stroke:#000000;stroke-width:1;stroke-dasharray:3.0,3.0;"/><path d="M455.974,489.9327 L458.4191,487.0499 L456.3363,483.8954 L463.7018,487.367 L455.974,489.9327" fill="#000000" style="stroke:#000000;stroke-width:1;"/><ellipse cx="310" cy="482.5" fill="#000000" rx="3" ry="3" style="stroke:#000000;stroke-width:1;"/><path d="M310,503.5 L323,503.5 C343.5456,503.5 339.9981,524.6865 359,532.5 C364.1816,534.6307 369.4597,536.6294 374.8156,538.5038" fill="none" style="stroke:#000000;stroke-width:1;stroke-dasharray:3.0,3.0;"/><path d="M373.8237,541.4437 L377.0205,539.2477 L375.8074,535.5639 L382.1654,540.9834 L373.8237,541.4437" fill="#000000" style="stroke:#000000;stroke-width:1;"/><ellipse cx="310" cy="503.5" fill="#000000" rx="3" ry="3" style="stroke:#000000;stroke-width:1;"/><path d="M310,523.5 L323,523.5 C357.1962,523.5 330.6423,572.3892 359,591.5 C375.7795,602.808 394.4362,611.2394 413.9397,617.4253" fill="none" style="stroke:#000000;stroke-width:1;stroke-dasharray:3.0,3.0;"/><path d="M413.0683,620.314 L416.1063,618.0788 L414.8111,614.5365 L421.1616,619.6038 L413.0683,620.314" fill="#000000" style="stroke:#000000;stroke-width:1;"/><ellipse cx="310" cy="523.5" fill="#000000" rx="3" ry="3" style="stroke:#000000;stroke-width:1;"/><path d="M310,544.5 L323,544.5 C372.754,544.5 320.0871,619.4961 359,650.5 C404.0088,686.3608 466.6735,695.585 521.5976,694.991" fill="none" style="stroke:#000000;stroke-width:1;stroke-dasharray:3.0,3.0;"/><path d="M521.6565,698.0694 L523.9064,694.9468 L521.5387,691.9126 L529.2936,694.8438 L521.6565,698.0694" fill="#000000" style="stroke:#000000;stroke-width:1;"/><ellipse cx="310" cy="544.5" fill="#000000" rx="3" ry="3" style="stroke:#000000;stroke-width:1;"/><path d="M310,564.5 L323,564.5 C389.401,564.5 308.8515,665.9775 359,709.5 C364.1609,713.979 369.5906,718.0586 375.2449,721.7688" fill="none" style="stroke:#000000;stroke-width:1;stroke-dasharray:3.0,3.0;"/><path d="M373.5699,724.4641 L377.2664,723.0251 L376.92,719.0735 L381.9832,725.9564 L373.5699,724.4641" fill="#000000" style="stroke:#000000;stroke-width:1;"/><ellipse cx="310" cy="564.5" fill="#000000" rx="3" ry="3" style="stroke:#000000;stroke-width:1;"/><path d="M310,585.5 L323,585.5 C405.8922,585.5 297.7497,712.6475 359,768.5 C373.1758,781.4266 389.5653,791.098 407.1702,798.2045" fill="none" style="stroke:#000000;stroke-width:1;stroke-dasharray:3.0,3.0;"/><path d="M406.0918,801.0336 L409.292,799.0134 L408.2487,795.3754 L414.243,800.9006 L406.0918,801.0336" fill="#000000" style="stroke:#000000;stroke-width:1;"/><ellipse cx="310" cy="585.5" fill="#000000" rx="3" ry="3" style="stroke:#000000;stroke-width:1;"/><path d="M310,605.5 L323,605.5 C372.9778,605.5 322.6395,793.2117 359,827.5 C360.8864,829.2789 362.8145,830.9971 364.7818,832.6563" fill="none" style="stroke:#000000;stroke-width:1;stroke-dasharray:3.0,3.0;"/><path d="M362.8609,835.0629 L366.5868,834.0969 L366.7026,830.2496 L370.7985,837.4584 L362.8609,835.0629" fill="#000000" style="stroke:#000000;stroke-width:1;"/><ellipse cx="310" cy="605.5" fill="#000000" rx="3" ry="3" style="stroke:#000000;stroke-width:1;"/><path d="M310,626.5 L323,626.5 C381.329,626.5 317.0302,845.9931 359,886.5 C372.2932,899.3298 387.7438,909.0295 404.4376,916.2398" fill="none" style="stroke:#000000;stroke-width:1;stroke-dasharray:3.0,3.0;"/><path d="M403.2617,919.131 L406.6059,917.1217 L405.6134,913.3486 L411.6655,919.1794 L403.2617,919.131" fill="#000000" style="stroke:#000000;stroke-width:1;"/><ellipse cx="310" cy="626.5" fill="#000000" rx="3" ry="3" style="stroke:#000000;stroke-width:1;"/><path d="M250,472.5 L263,472.5 C272.399,472.5 282.8552,472.5 291.5144,472.5" fill="none" style="stroke:#000000;stroke-width:1;stroke-dasharray:3.0,3.0;"/><path d="M291.5144,475.5633 L293.8119,472.5 L291.5144,469.4367 L299.1727,472.5 L291.5144,475.5633" fill="#000000" style="stroke:#000000;stroke-width:1;"/><ellipse cx="250" cy="472.5" fill="#000000" rx="3" ry="3" style="stroke:#000000;stroke-width:1;"/><!--SRC=[fPNDJkCm483lUOfHJo2HbgGqe9vO_dQtj83ukwpsuE1fv2Qngx4JgK8y3jfNuBnziPs4baMh5KbtBvPYU_pDs5_iG-i4kParsdlq03fpCiwa9ikqA7Ld21rjkgdjJXKtyqpepaurQpqebPsZjiBEZBPkCKTw7I-HggvgIXc-TgL6OgQiG-xynXq0ZtMx6k88gJh00K4Gr15lGp7Qb5I9cSLwmfcXk92G6mTEPKwaa9TTuDmI2tQsV06JG2cibIIIJhtGqyw7mBtTZu6V24KMKv7wlQcXVFcSGMholD2unJLjrzlIYjDGsFcy9gqP2IrVD6yhWrr1yFC7186_3vgw_NQuS2FS-EBi-Zraq0xItmXIxMAFmtLzKhtNO-fnZK9BTX3V9n2rIc3GS7X7oCxbUVLD_tPiqUPw42P5XgHOIRyNOxn8acgwRSziKEMwKPNG7xHN9GetmhsfieAqKoNgRmJvgoeY-LEMLGhjP8a66yZotuUuto3E5xuw5zfMfRHRhq6A6vNMsUw0TSkNXLzTX5D1-Ex7EW17A6S86Ke9iKdv-Yz1jCCtIF9LJqci7MnanksOJSwiLQ12ImULBcXoMZvBf0_n3-tmUms-B9-rp319gcrlB5ckcDn-zvwyGzIoVdYzApRAtKt6LVvM6Gr1DzmD1zrmwxP060aDk_iG70pxWs4_WkFJMwY6jxsjprTZiAQW1mH-YXsfk70Sl-sDH2dWkj1EvJY4ItwaHoVdwmuurQKYetFKpXlTJtvFYFRy8-NW1eapWVk9Tu9JKMIE8nwCv2A7S7TxvXzuOtvj2v7msgYzOyFhqc885vU_0000]--></g></svg>