<?xml version="1.0" encoding="us-ascii" standalone="no"?><svg xmlns="http://www.w3.org/2000/svg" xmlns:xlink="http://www.w3.org/1999/xlink" contentStyleType="text/css" height="947px" preserveAspectRatio="none" style="width:907px;height:947px;background:#FFFFFF;" version="1.1" viewBox="0 0 907 947" width="907px" zoomAndPan="magnify"><defs/><g><rect fill="#F1F1F1" height="61.4648" rx="5" ry="5" style="stroke:#F1F1F1;stroke-width:1.5;" width="220" x="10" y="421.7676"/><text fill="#000000" font-family="sans-serif" font-size="14" font-weight="bold" lengthAdjust="spacing" textLength="101" x="15" y="437.3027">protokollnavn</text><text fill="#000000" font-family="sans-serif" font-size="14" lengthAdjust="spacing" textLength="99" x="126" y="437.3027">no.ks.fiks.plan</text><line style="stroke:#000000;stroke-width:1.0;" x1="121" x2="121" y1="421.7676" y2="442.2559"/><line style="stroke:#000000;stroke-width:1.0;" x1="10" x2="230" y1="442.2559" y2="442.2559"/><text fill="#000000" font-family="sans-serif" font-size="14" font-weight="bold" lengthAdjust="spacing" textLength="53" x="15" y="457.791">versjon</text><text fill="#000000" font-family="sans-serif" font-size="14" lengthAdjust="spacing" textLength="16" x="126" y="457.791">v2</text><line style="stroke:#000000;stroke-width:1.0;" x1="121" x2="121" y1="442.2559" y2="462.7441"/><line style="stroke:#000000;stroke-width:1.0;" x1="10" x2="230" y1="462.7441" y2="462.7441"/><text fill="#000000" font-family="sans-serif" font-size="14" font-weight="bold" lengthAdjust="spacing" textLength="67" x="15" y="478.2793">kodeliste</text><text fill="#000000" font-family="sans-serif" font-size="14" lengthAdjust="spacing" textLength="12" x="126" y="478.2793">&#160;&#160;&#160;</text><line style="stroke:#000000;stroke-width:1.0;" x1="121" x2="121" y1="462.7441" y2="483.2324"/><rect fill="none" height="61.4648" rx="5" ry="5" style="stroke:#000000;stroke-width:1.5;" width="220" x="10" y="421.7676"/><rect fill="#F1F1F1" height="327.8125" rx="5" ry="5" style="stroke:#F1F1F1;stroke-width:1.5;" width="22" x="267" y="308.5"/><text fill="#000000" font-family="sans-serif" font-size="14" lengthAdjust="spacing" textLength="12" x="272" y="324.0352">&#160;&#160;&#160;</text><line style="stroke:#000000;stroke-width:1.0;" x1="267" x2="289" y1="328.9883" y2="328.9883"/><text fill="#000000" font-family="sans-serif" font-size="14" lengthAdjust="spacing" textLength="12" x="272" y="344.5234">&#160;&#160;&#160;</text><line style="stroke:#000000;stroke-width:1.0;" x1="267" x2="289" y1="349.4766" y2="349.4766"/><text fill="#000000" font-family="sans-serif" font-size="14" lengthAdjust="spacing" textLength="12" x="272" y="365.0117">&#160;&#160;&#160;</text><line style="stroke:#000000;stroke-width:1.0;" x1="267" x2="289" y1="369.9648" y2="369.9648"/><text fill="#000000" font-family="sans-serif" font-size="14" lengthAdjust="spacing" textLength="12" x="272" y="385.5">&#160;&#160;&#160;</text><line style="stroke:#000000;stroke-width:1.0;" x1="267" x2="289" y1="390.4531" y2="390.4531"/><text fill="#000000" font-family="sans-serif" font-size="14" lengthAdjust="spacing" textLength="12" x="272" y="405.9883">&#160;&#160;&#160;</text><line style="stroke:#000000;stroke-width:1.0;" x1="267" x2="289" y1="410.9414" y2="410.9414"/><text fill="#000000" font-family="sans-serif" font-size="14" lengthAdjust="spacing" textLength="12" x="272" y="426.4766">&#160;&#160;&#160;</text><line style="stroke:#000000;stroke-width:1.0;" x1="267" x2="289" y1="431.4297" y2="431.4297"/><text fill="#000000" font-family="sans-serif" font-size="14" lengthAdjust="spacing" textLength="12" x="272" y="446.9648">&#160;&#160;&#160;</text><line style="stroke:#000000;stroke-width:1.0;" x1="267" x2="289" y1="451.918" y2="451.918"/><text fill="#000000" font-family="sans-serif" font-size="14" lengthAdjust="spacing" textLength="12" x="272" y="467.4531">&#160;&#160;&#160;</text><line style="stroke:#000000;stroke-width:1.0;" x1="267" x2="289" y1="472.4063" y2="472.4063"/><text fill="#000000" font-family="sans-serif" font-size="14" lengthAdjust="spacing" textLength="12" x="272" y="487.9414">&#160;&#160;&#160;</text><line style="stroke:#000000;stroke-width:1.0;" x1="267" x2="289" y1="492.8945" y2="492.8945"/><text fill="#000000" font-family="sans-serif" font-size="14" lengthAdjust="spacing" textLength="12" x="272" y="508.4297">&#160;&#160;&#160;</text><line style="stroke:#000000;stroke-width:1.0;" x1="267" x2="289" y1="513.3828" y2="513.3828"/><text fill="#000000" font-family="sans-serif" font-size="14" lengthAdjust="spacing" textLength="12" x="272" y="528.918">&#160;&#160;&#160;</text><line style="stroke:#000000;stroke-width:1.0;" x1="267" x2="289" y1="533.8711" y2="533.8711"/><text fill="#000000" font-family="sans-serif" font-size="14" lengthAdjust="spacing" textLength="12" x="272" y="549.4063">&#160;&#160;&#160;</text><line style="stroke:#000000;stroke-width:1.0;" x1="267" x2="289" y1="554.3594" y2="554.3594"/><text fill="#000000" font-family="sans-serif" font-size="14" lengthAdjust="spacing" textLength="12" x="272" y="569.8945">&#160;&#160;&#160;</text><line style="stroke:#000000;stroke-width:1.0;" x1="267" x2="289" y1="574.8477" y2="574.8477"/><text fill="#000000" font-family="sans-serif" font-size="14" lengthAdjust="spacing" textLength="12" x="272" y="590.3828">&#160;&#160;&#160;</text><line style="stroke:#000000;stroke-width:1.0;" x1="267" x2="289" y1="595.3359" y2="595.3359"/><text fill="#000000" font-family="sans-serif" font-size="14" lengthAdjust="spacing" textLength="12" x="272" y="610.8711">&#160;&#160;&#160;</text><line style="stroke:#000000;stroke-width:1.0;" x1="267" x2="289" y1="615.8242" y2="615.8242"/><text fill="#000000" font-family="sans-serif" font-size="14" lengthAdjust="spacing" textLength="12" x="272" y="631.3594">&#160;&#160;&#160;</text><rect fill="none" height="327.8125" rx="5" ry="5" style="stroke:#000000;stroke-width:1.5;" width="22" x="267" y="308.5"/><rect fill="#F1F1F1" height="40.9766" rx="5" ry="5" style="stroke:#F1F1F1;stroke-width:1.5;" width="436" x="392.5" y="10"/><text fill="#000000" font-family="sans-serif" font-size="14" font-weight="bold" lengthAdjust="spacing" textLength="71" x="397.5" y="25.5352">kodeverdi</text><text fill="#000000" font-family="sans-serif" font-size="14" lengthAdjust="spacing" textLength="27" x="524.5" y="25.5352">111</text><line style="stroke:#000000;stroke-width:1.0;" x1="519.5" x2="519.5" y1="10" y2="30.4883"/><line style="stroke:#000000;stroke-width:1.0;" x1="392.5" x2="828.5" y1="30.4883" y2="30.4883"/><text fill="#000000" font-family="sans-serif" font-size="14" font-weight="bold" lengthAdjust="spacing" textLength="117" x="397.5" y="46.0234">kodebeskrivelse</text><text fill="#000000" font-family="sans-serif" font-size="14" lengthAdjust="spacing" textLength="299" x="524.5" y="46.0234">Forbud mot tiltak mv. langs sj&#248; og vassdrag</text><line style="stroke:#000000;stroke-width:1.0;" x1="519.5" x2="519.5" y1="30.4883" y2="50.9766"/><rect fill="none" height="40.9766" rx="5" ry="5" style="stroke:#000000;stroke-width:1.5;" width="436" x="392.5" y="10"/><rect fill="#F1F1F1" height="40.9766" rx="5" ry="5" style="stroke:#F1F1F1;stroke-width:1.5;" width="399" x="411" y="69"/><text fill="#000000" font-family="sans-serif" font-size="14" font-weight="bold" lengthAdjust="spacing" textLength="71" x="416" y="84.5352">kodeverdi</text><text fill="#000000" font-family="sans-serif" font-size="14" lengthAdjust="spacing" textLength="27" x="543" y="84.5352">140</text><line style="stroke:#000000;stroke-width:1.0;" x1="538" x2="538" y1="69" y2="89.4883"/><line style="stroke:#000000;stroke-width:1.0;" x1="411" x2="810" y1="89.4883" y2="89.4883"/><text fill="#000000" font-family="sans-serif" font-size="14" font-weight="bold" lengthAdjust="spacing" textLength="117" x="416" y="105.0234">kodebeskrivelse</text><text fill="#000000" font-family="sans-serif" font-size="14" lengthAdjust="spacing" textLength="262" x="543" y="105.0234">Arealbruk-/form&#229;l kommune(del)plan</text><line style="stroke:#000000;stroke-width:1.0;" x1="538" x2="538" y1="89.4883" y2="109.9766"/><rect fill="none" height="40.9766" rx="5" ry="5" style="stroke:#000000;stroke-width:1.5;" width="399" x="411" y="69"/><rect fill="#F1F1F1" height="40.9766" rx="5" ry="5" style="stroke:#F1F1F1;stroke-width:1.5;" width="421" x="400" y="128"/><text fill="#000000" font-family="sans-serif" font-size="14" font-weight="bold" lengthAdjust="spacing" textLength="71" x="405" y="143.5352">kodeverdi</text><text fill="#000000" font-family="sans-serif" font-size="14" lengthAdjust="spacing" textLength="27" x="532" y="143.5352">141</text><line style="stroke:#000000;stroke-width:1.0;" x1="527" x2="527" y1="128" y2="148.4883"/><line style="stroke:#000000;stroke-width:1.0;" x1="400" x2="821" y1="148.4883" y2="148.4883"/><text fill="#000000" font-family="sans-serif" font-size="14" font-weight="bold" lengthAdjust="spacing" textLength="117" x="405" y="164.0234">kodebeskrivelse</text><text fill="#000000" font-family="sans-serif" font-size="14" lengthAdjust="spacing" textLength="284" x="532" y="164.0234">KpArealform&#229;l gr&#248;nnstruktur &#167; 11-7 nr.3</text><line style="stroke:#000000;stroke-width:1.0;" x1="527" x2="527" y1="148.4883" y2="168.9766"/><rect fill="none" height="40.9766" rx="5" ry="5" style="stroke:#000000;stroke-width:1.5;" width="421" x="400" y="128"/><rect fill="#F1F1F1" height="40.9766" rx="5" ry="5" style="stroke:#F1F1F1;stroke-width:1.5;" width="358" x="431.5" y="187"/><text fill="#000000" font-family="sans-serif" font-size="14" font-weight="bold" lengthAdjust="spacing" textLength="71" x="436.5" y="202.5352">kodeverdi</text><text fill="#000000" font-family="sans-serif" font-size="14" lengthAdjust="spacing" textLength="27" x="563.5" y="202.5352">142</text><line style="stroke:#000000;stroke-width:1.0;" x1="558.5" x2="558.5" y1="187" y2="207.4883"/><line style="stroke:#000000;stroke-width:1.0;" x1="431.5" x2="789.5" y1="207.4883" y2="207.4883"/><text fill="#000000" font-family="sans-serif" font-size="14" font-weight="bold" lengthAdjust="spacing" textLength="117" x="436.5" y="223.0234">kodebeskrivelse</text><text fill="#000000" font-family="sans-serif" font-size="14" lengthAdjust="spacing" textLength="221" x="563.5" y="223.0234">KpArealform&#229;l LNFR &#167; 11-7 nr.5</text><line style="stroke:#000000;stroke-width:1.0;" x1="558.5" x2="558.5" y1="207.4883" y2="227.9766"/><rect fill="none" height="40.9766" rx="5" ry="5" style="stroke:#000000;stroke-width:1.5;" width="358" x="431.5" y="187"/><rect fill="#F1F1F1" height="40.9766" rx="5" ry="5" style="stroke:#F1F1F1;stroke-width:1.5;" width="552" x="334.5" y="246"/><text fill="#000000" font-family="sans-serif" font-size="14" font-weight="bold" lengthAdjust="spacing" textLength="71" x="339.5" y="261.5352">kodeverdi</text><text fill="#000000" font-family="sans-serif" font-size="14" lengthAdjust="spacing" textLength="27" x="466.5" y="261.5352">143</text><line style="stroke:#000000;stroke-width:1.0;" x1="461.5" x2="461.5" y1="246" y2="266.4883"/><line style="stroke:#000000;stroke-width:1.0;" x1="334.5" x2="886.5" y1="266.4883" y2="266.4883"/><text fill="#000000" font-family="sans-serif" font-size="14" font-weight="bold" lengthAdjust="spacing" textLength="117" x="339.5" y="282.0234">kodebeskrivelse</text><text fill="#000000" font-family="sans-serif" font-size="14" lengthAdjust="spacing" textLength="415" x="466.5" y="282.0234">KpArealform&#229;l bruk/vern sj&#248;/vassdr/strandsone &#167; 11-7 nr.6</text><line style="stroke:#000000;stroke-width:1.0;" x1="461.5" x2="461.5" y1="266.4883" y2="286.9766"/><rect fill="none" height="40.9766" rx="5" ry="5" style="stroke:#000000;stroke-width:1.5;" width="552" x="334.5" y="246"/><rect fill="#F1F1F1" height="40.9766" rx="5" ry="5" style="stroke:#F1F1F1;stroke-width:1.5;" width="366" x="427.5" y="305"/><text fill="#000000" font-family="sans-serif" font-size="14" font-weight="bold" lengthAdjust="spacing" textLength="71" x="432.5" y="320.5352">kodeverdi</text><text fill="#000000" font-family="sans-serif" font-size="14" lengthAdjust="spacing" textLength="27" x="559.5" y="320.5352">150</text><line style="stroke:#000000;stroke-width:1.0;" x1="554.5" x2="554.5" y1="305" y2="325.4883"/><line style="stroke:#000000;stroke-width:1.0;" x1="427.5" x2="793.5" y1="325.4883" y2="325.4883"/><text fill="#000000" font-family="sans-serif" font-size="14" font-weight="bold" lengthAdjust="spacing" textLength="117" x="432.5" y="341.0234">kodebeskrivelse</text><text fill="#000000" font-family="sans-serif" font-size="14" lengthAdjust="spacing" textLength="229" x="559.5" y="341.0234">Bestemmelser kommune(del)plan</text><line style="stroke:#000000;stroke-width:1.0;" x1="554.5" x2="554.5" y1="325.4883" y2="345.9766"/><rect fill="none" height="40.9766" rx="5" ry="5" style="stroke:#000000;stroke-width:1.5;" width="366" x="427.5" y="305"/><rect fill="#F1F1F1" height="40.9766" rx="5" ry="5" style="stroke:#F1F1F1;stroke-width:1.5;" width="478" x="371.5" y="364"/><text fill="#000000" font-family="sans-serif" font-size="14" font-weight="bold" lengthAdjust="spacing" textLength="71" x="376.5" y="379.5352">kodeverdi</text><text fill="#000000" font-family="sans-serif" font-size="14" lengthAdjust="spacing" textLength="27" x="503.5" y="379.5352">160</text><line style="stroke:#000000;stroke-width:1.0;" x1="498.5" x2="498.5" y1="364" y2="384.4883"/><line style="stroke:#000000;stroke-width:1.0;" x1="371.5" x2="849.5" y1="384.4883" y2="384.4883"/><text fill="#000000" font-family="sans-serif" font-size="14" font-weight="bold" lengthAdjust="spacing" textLength="117" x="376.5" y="400.0234">kodebeskrivelse</text><text fill="#000000" font-family="sans-serif" font-size="14" lengthAdjust="spacing" textLength="341" x="503.5" y="400.0234">Arealbruk-/form&#229;l regulerings-/bebyggelsesplan</text><line style="stroke:#000000;stroke-width:1.0;" x1="498.5" x2="498.5" y1="384.4883" y2="404.9766"/><rect fill="none" height="40.9766" rx="5" ry="5" style="stroke:#000000;stroke-width:1.5;" width="478" x="371.5" y="364"/><rect fill="#F1F1F1" height="40.9766" rx="5" ry="5" style="stroke:#F1F1F1;stroke-width:1.5;" width="421" x="400" y="423"/><text fill="#000000" font-family="sans-serif" font-size="14" font-weight="bold" lengthAdjust="spacing" textLength="71" x="405" y="438.5352">kodeverdi</text><text fill="#000000" font-family="sans-serif" font-size="14" lengthAdjust="spacing" textLength="27" x="532" y="438.5352">161</text><line style="stroke:#000000;stroke-width:1.0;" x1="527" x2="527" y1="423" y2="443.4883"/><line style="stroke:#000000;stroke-width:1.0;" x1="400" x2="821" y1="443.4883" y2="443.4883"/><text fill="#000000" font-family="sans-serif" font-size="14" font-weight="bold" lengthAdjust="spacing" textLength="117" x="405" y="459.0234">kodebeskrivelse</text><text fill="#000000" font-family="sans-serif" font-size="14" lengthAdjust="spacing" textLength="284" x="532" y="459.0234">RpArealform&#229;l gr&#248;nnstruktur &#167; 12-5 nr.3</text><line style="stroke:#000000;stroke-width:1.0;" x1="527" x2="527" y1="443.4883" y2="463.9766"/><rect fill="none" height="40.9766" rx="5" ry="5" style="stroke:#000000;stroke-width:1.5;" width="421" x="400" y="423"/><rect fill="#F1F1F1" height="40.9766" rx="5" ry="5" style="stroke:#F1F1F1;stroke-width:1.5;" width="358" x="431.5" y="482"/><text fill="#000000" font-family="sans-serif" font-size="14" font-weight="bold" lengthAdjust="spacing" textLength="71" x="436.5" y="497.5352">kodeverdi</text><text fill="#000000" font-family="sans-serif" font-size="14" lengthAdjust="spacing" textLength="27" x="563.5" y="497.5352">162</text><line style="stroke:#000000;stroke-width:1.0;" x1="558.5" x2="558.5" y1="482" y2="502.4883"/><line style="stroke:#000000;stroke-width:1.0;" x1="431.5" x2="789.5" y1="502.4883" y2="502.4883"/><text fill="#000000" font-family="sans-serif" font-size="14" font-weight="bold" lengthAdjust="spacing" textLength="117" x="436.5" y="518.0234">kodebeskrivelse</text><text fill="#000000" font-family="sans-serif" font-size="14" lengthAdjust="spacing" textLength="221" x="563.5" y="518.0234">RpArealform&#229;l LNFR &#167; 12-5 nr.5</text><line style="stroke:#000000;stroke-width:1.0;" x1="558.5" x2="558.5" y1="502.4883" y2="522.9766"/><rect fill="none" height="40.9766" rx="5" ry="5" style="stroke:#000000;stroke-width:1.5;" width="358" x="431.5" y="482"/><rect fill="#F1F1F1" height="40.9766" rx="5" ry="5" style="stroke:#F1F1F1;stroke-width:1.5;" width="569" x="326" y="541"/><text fill="#000000" font-family="sans-serif" font-size="14" font-weight="bold" lengthAdjust="spacing" textLength="71" x="331" y="556.5352">kodeverdi</text><text fill="#000000" font-family="sans-serif" font-size="14" lengthAdjust="spacing" textLength="27" x="458" y="556.5352">163</text><line style="stroke:#000000;stroke-width:1.0;" x1="453" x2="453" y1="541" y2="561.4883"/><line style="stroke:#000000;stroke-width:1.0;" x1="326" x2="895" y1="561.4883" y2="561.4883"/><text fill="#000000" font-family="sans-serif" font-size="14" font-weight="bold" lengthAdjust="spacing" textLength="117" x="331" y="577.0234">kodebeskrivelse</text><text fill="#000000" font-family="sans-serif" font-size="14" lengthAdjust="spacing" textLength="432" x="458" y="577.0234">RpArealform&#229;l bruk/vern sj&#248;/vassdrag/strandsone &#167; 12-5 nr.6</text><line style="stroke:#000000;stroke-width:1.0;" x1="453" x2="453" y1="561.4883" y2="581.9766"/><rect fill="none" height="40.9766" rx="5" ry="5" style="stroke:#000000;stroke-width:1.5;" width="569" x="326" y="541"/><rect fill="#F1F1F1" height="40.9766" rx="5" ry="5" style="stroke:#F1F1F1;stroke-width:1.5;" width="445" x="388" y="600"/><text fill="#000000" font-family="sans-serif" font-size="14" font-weight="bold" lengthAdjust="spacing" textLength="71" x="393" y="615.5352">kodeverdi</text><text fill="#000000" font-family="sans-serif" font-size="14" lengthAdjust="spacing" textLength="27" x="520" y="615.5352">165</text><line style="stroke:#000000;stroke-width:1.0;" x1="515" x2="515" y1="600" y2="620.4883"/><line style="stroke:#000000;stroke-width:1.0;" x1="388" x2="833" y1="620.4883" y2="620.4883"/><text fill="#000000" font-family="sans-serif" font-size="14" font-weight="bold" lengthAdjust="spacing" textLength="117" x="393" y="636.0234">kodebeskrivelse</text><text fill="#000000" font-family="sans-serif" font-size="14" lengthAdjust="spacing" textLength="308" x="520" y="636.0234">Bestemmelser regulerings-/bebyggelsesplan</text><line style="stroke:#000000;stroke-width:1.0;" x1="515" x2="515" y1="620.4883" y2="640.9766"/><rect fill="none" height="40.9766" rx="5" ry="5" style="stroke:#000000;stroke-width:1.5;" width="445" x="388" y="600"/><rect fill="#F1F1F1" height="40.9766" rx="5" ry="5" style="stroke:#F1F1F1;stroke-width:1.5;" width="227" x="497" y="659"/><text fill="#000000" font-family="sans-serif" font-size="14" font-weight="bold" lengthAdjust="spacing" textLength="71" x="502" y="674.5352">kodeverdi</text><text fill="#000000" font-family="sans-serif" font-size="14" lengthAdjust="spacing" textLength="27" x="629" y="674.5352">170</text><line style="stroke:#000000;stroke-width:1.0;" x1="624" x2="624" y1="659" y2="679.4883"/><line style="stroke:#000000;stroke-width:1.0;" x1="497" x2="724" y1="679.4883" y2="679.4883"/><text fill="#000000" font-family="sans-serif" font-size="14" font-weight="bold" lengthAdjust="spacing" textLength="117" x="502" y="695.0234">kodebeskrivelse</text><text fill="#000000" font-family="sans-serif" font-size="14" lengthAdjust="spacing" textLength="90" x="629" y="695.0234">Hensynssone</text><line style="stroke:#000000;stroke-width:1.0;" x1="624" x2="624" y1="679.4883" y2="699.9766"/><rect fill="none" height="40.9766" rx="5" ry="5" style="stroke:#000000;stroke-width:1.5;" width="227" x="497" y="659"/><rect fill="#F1F1F1" height="40.9766" rx="5" ry="5" style="stroke:#F1F1F1;stroke-width:1.5;" width="521" x="350" y="718"/><text fill="#000000" font-family="sans-serif" font-size="14" font-weight="bold" lengthAdjust="spacing" textLength="71" x="355" y="733.5352">kodeverdi</text><text fill="#000000" font-family="sans-serif" font-size="14" lengthAdjust="spacing" textLength="27" x="482" y="733.5352">171</text><line style="stroke:#000000;stroke-width:1.0;" x1="477" x2="477" y1="718" y2="738.4883"/><line style="stroke:#000000;stroke-width:1.0;" x1="350" x2="871" y1="738.4883" y2="738.4883"/><text fill="#000000" font-family="sans-serif" font-size="14" font-weight="bold" lengthAdjust="spacing" textLength="117" x="355" y="754.0234">kodebeskrivelse</text><text fill="#000000" font-family="sans-serif" font-size="14" lengthAdjust="spacing" textLength="384" x="482" y="754.0234">Sikrings, st&#248;y- og faresone &#167; 11-8 tredje ledd bokstav a</text><line style="stroke:#000000;stroke-width:1.0;" x1="477" x2="477" y1="738.4883" y2="758.9766"/><rect fill="none" height="40.9766" rx="5" ry="5" style="stroke:#000000;stroke-width:1.5;" width="521" x="350" y="718"/><rect fill="#F1F1F1" height="40.9766" rx="5" ry="5" style="stroke:#F1F1F1;stroke-width:1.5;" width="457" x="382" y="777"/><text fill="#000000" font-family="sans-serif" font-size="14" font-weight="bold" lengthAdjust="spacing" textLength="71" x="387" y="792.5352">kodeverdi</text><text fill="#000000" font-family="sans-serif" font-size="14" lengthAdjust="spacing" textLength="27" x="514" y="792.5352">172</text><line style="stroke:#000000;stroke-width:1.0;" x1="509" x2="509" y1="777" y2="797.4883"/><line style="stroke:#000000;stroke-width:1.0;" x1="382" x2="839" y1="797.4883" y2="797.4883"/><text fill="#000000" font-family="sans-serif" font-size="14" font-weight="bold" lengthAdjust="spacing" textLength="117" x="387" y="813.0234">kodebeskrivelse</text><text fill="#000000" font-family="sans-serif" font-size="14" lengthAdjust="spacing" textLength="320" x="514" y="813.0234">Infrastruktursone &#167; 11-8 tredje ledd bokstav b</text><line style="stroke:#000000;stroke-width:1.0;" x1="509" x2="509" y1="797.4883" y2="817.9766"/><rect fill="none" height="40.9766" rx="5" ry="5" style="stroke:#000000;stroke-width:1.5;" width="457" x="382" y="777"/><rect fill="#F1F1F1" height="40.9766" rx="5" ry="5" style="stroke:#F1F1F1;stroke-width:1.5;" width="546" x="337.5" y="836"/><text fill="#000000" font-family="sans-serif" font-size="14" font-weight="bold" lengthAdjust="spacing" textLength="71" x="342.5" y="851.5352">kodeverdi</text><text fill="#000000" font-family="sans-serif" font-size="14" lengthAdjust="spacing" textLength="27" x="469.5" y="851.5352">173</text><line style="stroke:#000000;stroke-width:1.0;" x1="464.5" x2="464.5" y1="836" y2="856.4883"/><line style="stroke:#000000;stroke-width:1.0;" x1="337.5" x2="883.5" y1="856.4883" y2="856.4883"/><text fill="#000000" font-family="sans-serif" font-size="14" font-weight="bold" lengthAdjust="spacing" textLength="117" x="342.5" y="872.0234">kodebeskrivelse</text><text fill="#000000" font-family="sans-serif" font-size="14" lengthAdjust="spacing" textLength="409" x="469.5" y="872.0234">Randsone rundt verneomr&#229;der &#167; 11-8 tredje ledd bokstav c</text><line style="stroke:#000000;stroke-width:1.0;" x1="464.5" x2="464.5" y1="856.4883" y2="876.9766"/><rect fill="none" height="40.9766" rx="5" ry="5" style="stroke:#000000;stroke-width:1.5;" width="546" x="337.5" y="836"/><rect fill="#F1F1F1" height="40.9766" rx="5" ry="5" style="stroke:#F1F1F1;stroke-width:1.5;" width="463" x="379" y="895"/><text fill="#000000" font-family="sans-serif" font-size="14" font-weight="bold" lengthAdjust="spacing" textLength="71" x="384" y="910.5352">kodeverdi</text><text fill="#000000" font-family="sans-serif" font-size="14" lengthAdjust="spacing" textLength="27" x="511" y="910.5352">174</text><line style="stroke:#000000;stroke-width:1.0;" x1="506" x2="506" y1="895" y2="915.4883"/><line style="stroke:#000000;stroke-width:1.0;" x1="379" x2="842" y1="915.4883" y2="915.4883"/><text fill="#000000" font-family="sans-serif" font-size="14" font-weight="bold" lengthAdjust="spacing" textLength="117" x="384" y="931.0234">kodebeskrivelse</text><text fill="#000000" font-family="sans-serif" font-size="14" lengthAdjust="spacing" textLength="326" x="511" y="931.0234">B&#229;ndleggingssone &#167; 11-8 tredje ledd bokstav d</text><line style="stroke:#000000;stroke-width:1.0;" x1="506" x2="506" y1="915.4883" y2="935.9766"/><rect fill="none" height="40.9766" rx="5" ry="5" style="stroke:#000000;stroke-width:1.5;" width="463" x="379" y="895"/><path d="M277,318.5 L290,318.5 C348.1089,318.5 284.1708,99.8356 326,59.5 C342.9816,43.1247 363.4665,31.8363 385.5648,24.3091 " fill="none" style="stroke:#000000;stroke-width:1.0;stroke-dasharray:3.0,3.0;"/><path d="M386.4902,27.2008 L387.7335,23.6151 L384.6395,21.4175 L392.7939,21.9957 L386.4902,27.2008 " fill="#000000" style="stroke:#000000;stroke-width:1.0;"/><ellipse cx="277" cy="318.5" fill="#000000" rx="3" ry="3" style="stroke:#000000;stroke-width:1.0;"/><path d="M277,339.5 L290,339.5 C339.7584,339.5 289.7807,152.6184 326,118.5 C347.7007,98.058 374.8833,85.6214 403.7735,78.5568 " fill="none" style="stroke:#000000;stroke-width:1.0;stroke-dasharray:3.0,3.0;"/><path d="M404.4462,81.5086 L405.9873,78.0522 L403.1007,75.605 L411.1529,76.8748 L404.4462,81.5086 " fill="#000000" style="stroke:#000000;stroke-width:1.0;"/><ellipse cx="277" cy="339.5" fill="#000000" rx="3" ry="3" style="stroke:#000000;stroke-width:1.0;"/><path d="M277,359.5 L290,359.5 C372.4561,359.5 265.033,233.0161 326,177.5 C345.0946,160.1125 368.182,148.6018 392.8456,141.2957 " fill="none" style="stroke:#000000;stroke-width:1.0;stroke-dasharray:3.0,3.0;"/><path d="M393.6626,144.2347 L395.0499,140.683 L392.0287,138.3567 L400.1932,139.2534 L393.6626,144.2347 " fill="#000000" style="stroke:#000000;stroke-width:1.0;"/><ellipse cx="277" cy="359.5" fill="#000000" rx="3" ry="3" style="stroke:#000000;stroke-width:1.0;"/><path d="M277,380.5 L290,380.5 C355.9697,380.5 276.1344,279.6905 326,236.5 C353.3683,212.7953 388.2438,200.258 424.1132,194.445 " fill="none" style="stroke:#000000;stroke-width:1.0;stroke-dasharray:3.0,3.0;"/><path d="M424.5692,197.5118 L426.4133,194.103 L423.6572,191.3782 L431.7801,193.305 L424.5692,197.5118 " fill="#000000" style="stroke:#000000;stroke-width:1.0;"/><ellipse cx="277" cy="380.5" fill="#000000" rx="3" ry="3" style="stroke:#000000;stroke-width:1.0;"/><path d="M277,400.5 L290,400.5 C339.3333,400.5 287.3661,326.179 326,295.5 C327.7739,294.0914 329.5749,292.7238 331.4016,291.3963 " fill="none" style="stroke:#000000;stroke-width:1.0;stroke-dasharray:3.0,3.0;"/><path d="M333.146,293.9192 L333.2938,290.088 L329.6573,288.8733 L337.709,287.0355 L333.146,293.9192 " fill="#000000" style="stroke:#000000;stroke-width:1.0;"/><ellipse cx="277" cy="400.5" fill="#000000" rx="3" ry="3" style="stroke:#000000;stroke-width:1.0;"/><path d="M277,421.5 L290,421.5 C323.4132,421.5 298.2049,374.0439 326,355.5 C353.8949,336.8895 386.8737,326.0187 420.3029,320.097 " fill="none" style="stroke:#000000;stroke-width:1.0;stroke-dasharray:3.0,3.0;"/><path d="M420.8069,323.1332 L422.5801,319.7191 L419.799,317.0608 L427.8934,318.8372 L420.8069,323.1332 " fill="#000000" style="stroke:#000000;stroke-width:1.0;"/><ellipse cx="277" cy="421.5" fill="#000000" rx="3" ry="3" style="stroke:#000000;stroke-width:1.0;"/><path d="M277,441.5 L290,441.5 C310,441.5 307.3853,421.8138 326,414.5 C338.362,409.6429 351.2468,405.4739 364.4095,401.902 " fill="none" style="stroke:#000000;stroke-width:1.0;stroke-dasharray:3.0,3.0;"/><path d="M365.1789,404.8379 L366.6114,401.325 L363.6401,398.9662 L371.7491,399.9786 L365.1789,404.8379 " fill="#000000" style="stroke:#000000;stroke-width:1.0;"/><ellipse cx="277" cy="441.5" fill="#000000" rx="3" ry="3" style="stroke:#000000;stroke-width:1.0;"/><path d="M277,462.5 L290,462.5 C323.1138,462.5 358.1212,461.4736 392.3532,459.898 " fill="none" style="stroke:#000000;stroke-width:1.0;stroke-dasharray:3.0,3.0;"/><path d="M392.4999,462.999 L394.6789,459.788 L392.2065,456.797 L400.1057,459.5313 L392.4999,462.999 " fill="#000000" style="stroke:#000000;stroke-width:1.0;"/><ellipse cx="277" cy="462.5" fill="#000000" rx="3" ry="3" style="stroke:#000000;stroke-width:1.0;"/><path d="M277,482.5 L290,482.5 C333.5429,482.5 380.3538,484.3674 424.37,486.961 " fill="none" style="stroke:#000000;stroke-width:1.0;stroke-dasharray:3.0,3.0;"/><path d="M424.1871,490.0049 L426.6529,487.0981 L424.5528,483.917 L431.9799,487.4182 L424.1871,490.0049 " fill="#000000" style="stroke:#000000;stroke-width:1.0;"/><ellipse cx="277" cy="482.5" fill="#000000" rx="3" ry="3" style="stroke:#000000;stroke-width:1.0;"/><path d="M277,503.5 L290,503.5 C310.5456,503.5 306.9967,524.6899 326,532.5 C331.1213,534.6048 336.3366,536.5811 341.6277,538.4362 " fill="none" style="stroke:#000000;stroke-width:1.0;stroke-dasharray:3.0,3.0;"/><path d="M340.6457,541.3404 L343.8059,539.1727 L342.6098,535.5319 L348.8883,540.8913 L340.6457,541.3404 " fill="#000000" style="stroke:#000000;stroke-width:1.0;"/><ellipse cx="277" cy="503.5" fill="#000000" rx="3" ry="3" style="stroke:#000000;stroke-width:1.0;"/><path d="M277,523.5 L290,523.5 C324.1962,523.5 297.6389,572.3942 326,591.5 C342.8402,602.8445 361.5638,611.3008 381.1368,617.5026 " fill="none" style="stroke:#000000;stroke-width:1.0;stroke-dasharray:3.0,3.0;"/><path d="M380.2632,620.4016 L383.3111,618.1578 L382.0105,614.6035 L388.3845,619.6867 L380.2632,620.4016 " fill="#000000" style="stroke:#000000;stroke-width:1.0;"/><ellipse cx="277" cy="523.5" fill="#000000" rx="3" ry="3" style="stroke:#000000;stroke-width:1.0;"/><path d="M277,544.5 L290,544.5 C339.754,544.5 287.0815,619.5031 326,650.5 C371.2652,686.5518 434.317,695.7506 489.5151,695.0916 " fill="none" style="stroke:#000000;stroke-width:1.0;stroke-dasharray:3.0,3.0;"/><path d="M489.5778,698.1851 L491.8353,695.0446 L489.4524,691.998 L497.249,694.9349 L489.5778,698.1851 " fill="#000000" style="stroke:#000000;stroke-width:1.0;"/><ellipse cx="277" cy="544.5" fill="#000000" rx="3" ry="3" style="stroke:#000000;stroke-width:1.0;"/><path d="M277,564.5 L290,564.5 C356.401,564.5 275.8437,665.9864 326,709.5 C331.5673,714.3299 337.4461,718.6966 343.5815,722.6375 " fill="none" style="stroke:#000000;stroke-width:1.0;stroke-dasharray:3.0,3.0;"/><path d="M341.9371,725.3397 L345.6081,723.8708 L345.2258,719.9352 L350.3371,726.7485 L341.9371,725.3397 " fill="#000000" style="stroke:#000000;stroke-width:1.0;"/><ellipse cx="277" cy="564.5" fill="#000000" rx="3" ry="3" style="stroke:#000000;stroke-width:1.0;"/><path d="M277,585.5 L290,585.5 C372.8922,585.5 264.7397,712.6584 326,768.5 C340.4702,781.6903 357.2377,791.5002 375.2488,798.6588 " fill="none" style="stroke:#000000;stroke-width:1.0;stroke-dasharray:3.0,3.0;"/><path d="M374.1639,801.5531 L377.4196,799.4725 L376.3338,795.7645 L382.4847,801.3712 L374.1639,801.5531 " fill="#000000" style="stroke:#000000;stroke-width:1.0;"/><ellipse cx="277" cy="585.5" fill="#000000" rx="3" ry="3" style="stroke:#000000;stroke-width:1.0;"/><path d="M277,605.5 L290,605.5 C339.9778,605.5 289.6333,793.2182 326,827.5 C327.8934,829.2848 329.8285,831.0086 331.8029,832.6732 " fill="none" style="stroke:#000000;stroke-width:1.0;stroke-dasharray:3.0,3.0;"/><path d="M329.8759,835.0886 L333.6145,834.1185 L333.73,830.2578 L337.8415,837.4908 L329.8759,835.0886 " fill="#000000" style="stroke:#000000;stroke-width:1.0;"/><ellipse cx="277" cy="605.5" fill="#000000" rx="3" ry="3" style="stroke:#000000;stroke-width:1.0;"/><path d="M277,626.5 L290,626.5 C348.329,626.5 284.023,846.0006 326,886.5 C339.42,899.4476 355.0299,909.2157 371.8961,916.4593 " fill="none" style="stroke:#000000;stroke-width:1.0;stroke-dasharray:3.0,3.0;"/><path d="M370.7154,919.3804 L374.0869,917.3448 L373.0768,913.5383 L379.1987,919.4111 L370.7154,919.3804 " fill="#000000" style="stroke:#000000;stroke-width:1.0;"/><ellipse cx="277" cy="626.5" fill="#000000" rx="3" ry="3" style="stroke:#000000;stroke-width:1.0;"/><path d="M218,472.5 L231,472.5 C240.4213,472.5 250.9164,472.5 259.5483,472.5 " fill="none" style="stroke:#000000;stroke-width:1.0;stroke-dasharray:3.0,3.0;"/><path d="M259.5483,475.5437 L261.8311,472.5 L259.5483,469.4563 L267.1575,472.5 L259.5483,475.5437 " fill="#000000" style="stroke:#000000;stroke-width:1.0;"/><ellipse cx="218" cy="472.5" fill="#000000" rx="3" ry="3" style="stroke:#000000;stroke-width:1.0;"/><!--SRC=[fPNDRjf0483lVeeHfo1Xm2OGn2dD3sqJIAAGv5Bri6O7ozYUHRDhIoZAuqHzXPpBYtNjG1fLLMpQoqhUtTblnlFPUwoDOBFKYfn71w2nOcLKh9A4H4wD4JH8jMFTNaHsM2M26grYLuwibwfSp_tNgLX9J29jq4v-inC0Z-MuNR8HCcg03V0yhunuMmfGnnpbc6WiDumL1vc4L1amKM9436dU1iiEDUZbvWLK2BdGMh886-L1JwqFWOVTZu6V64KIS1QxdONYTFESGApID2Cyi3Krox9hSIeAkroLf1qZvCqBaJOMR3A6dp_0yzmZ86xtwk7ylN2Jg_7jUqY_7gIt5wHuYnqRJcMdEgzjwjWQ1Kdh6BvFO50hWNv5yqxGEfUcnJF_Mzi6- -l166O9ScILT3i11kimBBRh-imALMuhLV7TVdrL1lvUk3TLjf1wgWnwUq7-gee8_vHbcq8zMGRzFMJvxoOULOZp1KclIHUbr3klGefP59VPja2RpSlQBNw42y7uxiCQWc6KIuG4fOH0nVRtdeEeXw-Gv2ijMEmSh6G6zPXLpknKu8oaWK8NL2bldYNoX_XvFVnXXI-RPv89Xc7nsYjBbbkc7RyxJyunaYmlLkV66cNkfvCYVnqf0g_jT_rUUtWmomYcOWs-1rvtr1kEkbquFP_TGR7UT0u-tqn0gupd2D9UhXm5cR47D9qBaGkupSX4AOxWUeLqSNQvcu1poYDMb28Pv-9X-dl3uD0zYGpCa6qgy31rpd0XiiJOYBcIjieHtD-DtQ4piTTj9a9xDf9pgkovl1x1rVKl]--></g></svg>