<?xml version="1.0" encoding="us-ascii" standalone="no"?><svg xmlns="http://www.w3.org/2000/svg" xmlns:xlink="http://www.w3.org/1999/xlink" contentStyleType="text/css" height="252px" preserveAspectRatio="none" style="width:306px;height:252px;background:#FFFFFF;" version="1.1" viewBox="0 0 306 252" width="306px" zoomAndPan="magnify"><defs/><g><!--class NasjonalArealplanId--><g id="elem_NasjonalArealplanId"><rect codeLine="1" fill="#F1F1F1" height="80.9766" id="NasjonalArealplanId" rx="2.5" ry="2.5" style="stroke:#181818;stroke-width:0.5;" width="292" x="7" y="7"/><ellipse cx="79.75" cy="23" fill="#ADD1B2" rx="11" ry="11" style="stroke:#181818;stroke-width:1.0;"/><path d="M82.2231,29.1431 Q81.6421,29.4419 81.0029,29.5913 Q80.3638,29.7407 79.6582,29.7407 Q77.1514,29.7407 75.8315,28.0889 Q74.5117,26.437 74.5117,23.3159 Q74.5117,20.1865 75.8315,18.5347 Q77.1514,16.8828 79.6582,16.8828 Q80.3638,16.8828 81.0112,17.0322 Q81.6587,17.1816 82.2231,17.4805 L82.2231,20.2031 Q81.5923,19.6221 80.9988,19.3523 Q80.4053,19.0825 79.7744,19.0825 Q78.4297,19.0825 77.7449,20.1492 Q77.0601,21.2158 77.0601,23.3159 Q77.0601,25.4077 77.7449,26.4744 Q78.4297,27.541 79.7744,27.541 Q80.4053,27.541 80.9988,27.2712 Q81.5923,27.0015 82.2231,26.4204 Z " fill="#000000"/><text fill="#000000" font-family="sans-serif" font-size="14" lengthAdjust="spacing" textLength="138" x="100.25" y="28.291">NasjonalArealplanId</text><line style="stroke:#181818;stroke-width:0.5;" x1="8" x2="298" y1="39" y2="39"/><ellipse cx="18" cy="52.7441" fill="none" rx="3" ry="3" style="stroke:#038048;stroke-width:1.0;"/><text fill="#000000" font-family="sans-serif" font-size="14" lengthAdjust="spacing" textLength="266" x="27" y="56.5352">administrativEnhet: AdministrativEnhet</text><ellipse cx="18" cy="69.2324" fill="none" rx="3" ry="3" style="stroke:#038048;stroke-width:1.0;"/><text fill="#000000" font-family="sans-serif" font-size="14" lengthAdjust="spacing" textLength="171" x="27" y="73.0234">planidentifikasjon: string</text><line style="stroke:#181818;stroke-width:0.5;" x1="8" x2="298" y1="79.9766" y2="79.9766"/></g><!--class AdministrativEnhet--><g id="elem_AdministrativEnhet"><rect codeLine="8" fill="#F1F1F1" height="97.4648" id="AdministrativEnhet" rx="2.5" ry="2.5" style="stroke:#181818;stroke-width:0.5;" width="162" x="72" y="147.98"/><ellipse cx="87" cy="163.98" fill="#EB937F" rx="11" ry="11" style="stroke:#181818;stroke-width:1.0;"/><path d="M90.6143,170.48 L82.8945,170.48 L82.8945,158.0869 L90.6143,158.0869 L90.6143,160.2451 L85.3433,160.2451 L85.3433,162.918 L90.1162,162.918 L90.1162,165.0762 L85.3433,165.0762 L85.3433,168.3218 L90.6143,168.3218 Z " fill="#000000"/><text fill="#000000" font-family="sans-serif" font-size="14" lengthAdjust="spacing" textLength="130" x="101" y="169.271">AdministrativEnhet</text><line style="stroke:#181818;stroke-width:0.5;" x1="73" x2="233" y1="179.98" y2="179.98"/><text fill="#000000" font-family="sans-serif" font-size="14" lengthAdjust="spacing" textLength="127" x="78" y="197.5152">kommunenummer</text><text fill="#000000" font-family="sans-serif" font-size="14" lengthAdjust="spacing" textLength="97" x="78" y="214.0034">fylkesnummer</text><text fill="#000000" font-family="sans-serif" font-size="14" lengthAdjust="spacing" textLength="71" x="78" y="230.4917">landskode</text><line style="stroke:#181818;stroke-width:0.5;" x1="73" x2="233" y1="237.4448" y2="237.4448"/></g><!--link NasjonalArealplanId to AdministrativEnhet--><g id="link_NasjonalArealplanId_AdministrativEnhet"><path codeLine="6" d="M153,88.33 C153,106.64 153,128.5 153,147.71 " fill="none" id="NasjonalArealplanId-AdministrativEnhet" style="stroke:#181818;stroke-width:1.0;"/></g><!--SRC=[ROun3i8m34NtdC8xwWMwTM1WuGuMTi4aTb2S8Y74tKaB0nBn-Fpylqy9tU68Vis6QIgCwPRG3WJF06rsI2ecNWjMkU_jmdM4wOzztFLIYAtAB76B7A5POkVm2g5NCWoziC2sQ6Vn_IbcrSLMHxbiP7waoFu3MZfvpCIj-0q0]--></g></svg>