<svg xmlns="http://www.w3.org/2000/svg" xmlns:xlink="http://www.w3.org/1999/xlink" contentStyleType="text/css" height="393px" preserveAspectRatio="none" style="width:323px;height:393px;background:#FFFFFF;" version="1.1" viewBox="0 0 323 393" width="323px" zoomAndPan="magnify"><defs/><g><!--class NasjonalArealplanId--><g id="elem_NasjonalArealplanId"><rect codeLine="1" fill="#F1F1F1" height="80.9766" id="NasjonalArealplanId" rx="2.5" ry="2.5" style="stroke:#181818;stroke-width:0.5;" width="292" x="15.5" y="147.98"/><ellipse cx="88.25" cy="163.98" fill="#ADD1B2" rx="11" ry="11" style="stroke:#181818;stroke-width:1.0;"/><path d="M90.7231,170.1231 Q90.1421,170.4219 89.5029,170.5713 Q88.8638,170.7207 88.1582,170.7207 Q85.6514,170.7207 84.3315,169.0689 Q83.0117,167.417 83.0117,164.2959 Q83.0117,161.1665 84.3315,159.5147 Q85.6514,157.8628 88.1582,157.8628 Q88.8638,157.8628 89.5112,158.0122 Q90.1587,158.1616 90.7231,158.4605 L90.7231,161.1831 Q90.0923,160.6021 89.4988,160.3323 Q88.9053,160.0625 88.2744,160.0625 Q86.9297,160.0625 86.2449,161.1292 Q85.5601,162.1958 85.5601,164.2959 Q85.5601,166.3877 86.2449,167.4544 Q86.9297,168.521 88.2744,168.521 Q88.9053,168.521 89.4988,168.2512 Q90.0923,167.9815 90.7231,167.4004 Z " fill="#000000"/><text fill="#000000" font-family="sans-serif" font-size="14" lengthAdjust="spacing" textLength="138" x="108.75" y="169.271">NasjonalArealplanId</text><line style="stroke:#181818;stroke-width:0.5;" x1="16.5" x2="306.5" y1="179.98" y2="179.98"/><ellipse cx="26.5" cy="193.7241" fill="none" rx="3" ry="3" style="stroke:#038048;stroke-width:1.0;"/><text fill="#000000" font-family="sans-serif" font-size="14" lengthAdjust="spacing" textLength="266" x="35.5" y="197.5152">administrativEnhet: AdministrativEnhet</text><ellipse cx="26.5" cy="210.2124" fill="none" rx="3" ry="3" style="stroke:#038048;stroke-width:1.0;"/><text fill="#000000" font-family="sans-serif" font-size="14" lengthAdjust="spacing" textLength="171" x="35.5" y="214.0034">planidentifikasjon: string</text><line style="stroke:#181818;stroke-width:0.5;" x1="16.5" x2="306.5" y1="220.9566" y2="220.9566"/></g><!--class AdministrativEnhet--><g id="elem_AdministrativEnhet"><rect codeLine="8" fill="#F1F1F1" height="97.4648" id="AdministrativEnhet" rx="2.5" ry="2.5" style="stroke:#181818;stroke-width:0.5;" width="162" x="80.5" y="288.96"/><ellipse cx="95.5" cy="304.96" fill="#EB937F" rx="11" ry="11" style="stroke:#181818;stroke-width:1.0;"/><path d="M99.1143,311.46 L91.3945,311.46 L91.3945,299.0669 L99.1143,299.0669 L99.1143,301.2251 L93.8433,301.2251 L93.8433,303.898 L98.6162,303.898 L98.6162,306.0562 L93.8433,306.0562 L93.8433,309.3018 L99.1143,309.3018 Z " fill="#000000"/><text fill="#000000" font-family="sans-serif" font-size="14" lengthAdjust="spacing" textLength="130" x="109.5" y="310.251">AdministrativEnhet</text><line style="stroke:#181818;stroke-width:0.5;" x1="81.5" x2="241.5" y1="320.96" y2="320.96"/><text fill="#000000" font-family="sans-serif" font-size="14" lengthAdjust="spacing" textLength="127" x="86.5" y="338.4952">kommunenummer</text><text fill="#000000" font-family="sans-serif" font-size="14" lengthAdjust="spacing" textLength="97" x="86.5" y="354.9834">fylkesnummer</text><text fill="#000000" font-family="sans-serif" font-size="14" lengthAdjust="spacing" textLength="71" x="86.5" y="371.4717">landskode</text><line style="stroke:#181818;stroke-width:0.5;" x1="81.5" x2="241.5" y1="378.4248" y2="378.4248"/></g><!--class HentArealplan--><g id="elem_HentArealplan"><rect codeLine="3" fill="#F1F1F1" height="80.9766" id="HentArealplan" rx="2.5" ry="2.5" style="stroke:#181818;stroke-width:0.5;" width="309" x="7" y="7"/><ellipse cx="108.25" cy="23" fill="#ADD1B2" rx="11" ry="11" style="stroke:#181818;stroke-width:1.0;"/><path d="M110.7231,29.1431 Q110.1421,29.4419 109.5029,29.5913 Q108.8638,29.7407 108.1582,29.7407 Q105.6514,29.7407 104.3315,28.0889 Q103.0117,26.437 103.0117,23.3159 Q103.0117,20.1865 104.3315,18.5347 Q105.6514,16.8828 108.1582,16.8828 Q108.8638,16.8828 109.5112,17.0322 Q110.1587,17.1816 110.7231,17.4805 L110.7231,20.2031 Q110.0923,19.6221 109.4988,19.3523 Q108.9053,19.0825 108.2744,19.0825 Q106.9297,19.0825 106.2449,20.1492 Q105.5601,21.2158 105.5601,23.3159 Q105.5601,25.4077 106.2449,26.4744 Q106.9297,27.541 108.2744,27.541 Q108.9053,27.541 109.4988,27.2712 Q110.0923,27.0015 110.7231,26.4204 Z " fill="#000000"/><text fill="#000000" font-family="sans-serif" font-size="14" lengthAdjust="spacing" textLength="98" x="128.75" y="28.291">HentArealplan</text><line style="stroke:#181818;stroke-width:0.5;" x1="8" x2="315" y1="39" y2="39"/><ellipse cx="18" cy="52.7441" fill="none" rx="3" ry="3" style="stroke:#038048;stroke-width:1.0;"/><text fill="#000000" font-family="sans-serif" font-size="14" lengthAdjust="spacing" textLength="283" x="27" y="56.5352">nasjonalArealplanId: NasjonalArealplanId</text><ellipse cx="18" cy="69.2324" fill="none" rx="3" ry="3" style="stroke:#038048;stroke-width:1.0;"/><text fill="#000000" font-family="sans-serif" font-size="14" lengthAdjust="spacing" textLength="242" x="27" y="73.0234">inkluderPlanbehandlinger: boolean</text><line style="stroke:#181818;stroke-width:0.5;" x1="8" x2="315" y1="79.9766" y2="79.9766"/></g><!--link NasjonalArealplanId to AdministrativEnhet--><g id="link_NasjonalArealplanId_AdministrativEnhet"><path codeLine="6" d="M161.5,229.31 C161.5,247.62 161.5,269.48 161.5,288.69 " fill="none" id="NasjonalArealplanId-AdministrativEnhet" style="stroke:#181818;stroke-width:1.0;"/></g><!--link HentArealplan to NasjonalArealplanId--><g id="link_HentArealplan_NasjonalArealplanId"><path codeLine="8" d="M161.5,88.32 C161.5,106.92 161.5,129.03 161.5,147.64 " fill="none" id="HentArealplan-NasjonalArealplanId" style="stroke:#181818;stroke-width:1.0;"/></g><!--SRC=[ROuz3i8m34PtdyBCLHs9iHiRB8Whk8qBePPJ9PG5SNTILKL2r8E7z_ppxO9rEdb1SaJE8WsP-b3Qg6pqt5ClgfB9ED-ZiN8Irja5xpOOZHD0fvmp7iKUXzNW2x1KjQvynSatUFw7otImOSwMBeMrScFp6kmggS4sHXKsU0Fy_gdhpNCV]--></g></svg>