<svg xmlns="http://www.w3.org/2000/svg" xmlns:xlink="http://www.w3.org/1999/xlink" contentStyleType="text/css" data-diagram-type="CLASS" height="393px" preserveAspectRatio="none" style="width:318px;height:393px;background:#FFFFFF;" version="1.1" viewBox="0 0 318 393" width="318px" zoomAndPan="magnify"><defs/><g><!--class NasjonalArealplanId--><g class="entity" data-entity="NasjonalArealplanId" data-source-line="1" data-uid="ent0002" id="entity_NasjonalArealplanId"><rect fill="#F1F1F1" height="80.9766" rx="2.5" ry="2.5" style="stroke:#181818;stroke-width:0.5;" width="290.3047" x="14.08" y="147.98"/><ellipse cx="87.1698" cy="163.98" fill="#ADD1B2" rx="11" ry="11" style="stroke:#181818;stroke-width:1;"/><path d="M89.643,170.1231 Q89.0619,170.4219 88.4228,170.5713 Q87.7836,170.7207 87.078,170.7207 Q84.5712,170.7207 83.2514,169.0689 Q81.9316,167.417 81.9316,164.2959 Q81.9316,161.1665 83.2514,159.5147 Q84.5712,157.8628 87.078,157.8628 Q87.7836,157.8628 88.4311,158.0122 Q89.0785,158.1616 89.643,158.4605 L89.643,161.1831 Q89.0121,160.6021 88.4186,160.3323 Q87.8251,160.0625 87.1943,160.0625 Q85.8495,160.0625 85.1647,161.1292 Q84.4799,162.1958 84.4799,164.2959 Q84.4799,166.3877 85.1647,167.4544 Q85.8495,168.521 87.1943,168.521 Q87.8251,168.521 88.4186,168.2512 Q89.0121,167.9815 89.643,167.4004 Z " fill="#000000"/><text fill="#000000" font-family="sans-serif" font-size="14" lengthAdjust="spacing" textLength="135.625" x="107.6698" y="169.271">NasjonalArealplanId</text><line style="stroke:#181818;stroke-width:0.5;" x1="15.08" x2="303.3847" y1="179.98" y2="179.98"/><ellipse cx="25.08" cy="193.7241" fill="none" rx="3" ry="3" style="stroke:#038048;stroke-width:1;"/><text fill="#000000" font-family="sans-serif" font-size="14" lengthAdjust="spacing" textLength="264.3047" x="34.08" y="197.5152">administrativEnhet: AdministrativEnhet</text><ellipse cx="25.08" cy="210.2124" fill="none" rx="3" ry="3" style="stroke:#038048;stroke-width:1;"/><text fill="#000000" font-family="sans-serif" font-size="14" lengthAdjust="spacing" textLength="170.126" x="34.08" y="214.0034">planidentifikasjon: string</text><line style="stroke:#181818;stroke-width:0.5;" x1="15.08" x2="303.3847" y1="220.9566" y2="220.9566"/></g><!--class AdministrativEnhet--><g class="entity" data-entity="AdministrativEnhet" data-source-line="6" data-uid="ent0003" id="entity_AdministrativEnhet"><rect fill="#F1F1F1" height="97.4648" rx="2.5" ry="2.5" style="stroke:#181818;stroke-width:0.5;" width="160.6865" x="78.88" y="288.96"/><ellipse cx="93.88" cy="304.96" fill="#EB937F" rx="11" ry="11" style="stroke:#181818;stroke-width:1;"/><path d="M97.4943,311.46 L89.7745,311.46 L89.7745,299.0669 L97.4943,299.0669 L97.4943,301.2251 L92.2233,301.2251 L92.2233,303.898 L96.9962,303.898 L96.9962,306.0562 L92.2233,306.0562 L92.2233,309.3018 L97.4943,309.3018 Z " fill="#000000"/><text fill="#000000" font-family="sans-serif" font-size="14" lengthAdjust="spacing" textLength="128.6865" x="107.88" y="310.251">AdministrativEnhet</text><line style="stroke:#181818;stroke-width:0.5;" x1="79.88" x2="238.5665" y1="320.96" y2="320.96"/><text fill="#000000" font-family="sans-serif" font-size="14" lengthAdjust="spacing" textLength="125.1455" x="84.88" y="338.4952">kommunenummer</text><text fill="#000000" font-family="sans-serif" font-size="14" lengthAdjust="spacing" textLength="96.6738" x="84.88" y="354.9834">fylkesnummer</text><text fill="#000000" font-family="sans-serif" font-size="14" lengthAdjust="spacing" textLength="69.8086" x="84.88" y="371.4717">landskode</text><line style="stroke:#181818;stroke-width:0.5;" x1="79.88" x2="238.5665" y1="378.4248" y2="378.4248"/></g><!--class HentArealplan--><g class="entity" data-entity="HentArealplan" data-source-line="3" data-uid="ent0005" id="entity_HentArealplan"><rect fill="#F1F1F1" height="80.9766" rx="2.5" ry="2.5" style="stroke:#181818;stroke-width:0.5;" width="304.4551" x="7" y="7"/><ellipse cx="106.8491" cy="23" fill="#ADD1B2" rx="11" ry="11" style="stroke:#181818;stroke-width:1;"/><path d="M109.3223,29.1431 Q108.7412,29.4419 108.1021,29.5913 Q107.4629,29.7407 106.7573,29.7407 Q104.2505,29.7407 102.9307,28.0889 Q101.6108,26.437 101.6108,23.3159 Q101.6108,20.1865 102.9307,18.5347 Q104.2505,16.8828 106.7573,16.8828 Q107.4629,16.8828 108.1104,17.0322 Q108.7578,17.1816 109.3223,17.4805 L109.3223,20.2031 Q108.6914,19.6221 108.0979,19.3523 Q107.5044,19.0825 106.8735,19.0825 Q105.5288,19.0825 104.844,20.1492 Q104.1592,21.2158 104.1592,23.3159 Q104.1592,25.4077 104.844,26.4744 Q105.5288,27.541 106.8735,27.541 Q107.5044,27.541 108.0979,27.2712 Q108.6914,27.0015 109.3223,26.4204 Z " fill="#000000"/><text fill="#000000" font-family="sans-serif" font-size="14" lengthAdjust="spacing" textLength="96.2568" x="127.3491" y="28.291">HentArealplan</text><line style="stroke:#181818;stroke-width:0.5;" x1="8" x2="310.4551" y1="39" y2="39"/><ellipse cx="18" cy="52.7441" fill="none" rx="3" ry="3" style="stroke:#038048;stroke-width:1;"/><text fill="#000000" font-family="sans-serif" font-size="14" lengthAdjust="spacing" textLength="278.4551" x="27" y="56.5352">nasjonalArealplanId: NasjonalArealplanId</text><ellipse cx="18" cy="69.2324" fill="none" rx="3" ry="3" style="stroke:#038048;stroke-width:1;"/><text fill="#000000" font-family="sans-serif" font-size="14" lengthAdjust="spacing" textLength="236.9063" x="27" y="73.0234">inkluderPlanbehandlinger: boolean</text><line style="stroke:#181818;stroke-width:0.5;" x1="8" x2="310.4551" y1="79.9766" y2="79.9766"/></g><!--link NasjonalArealplanId to AdministrativEnhet--><g class="link" data-entity-1="NasjonalArealplanId" data-entity-2="AdministrativEnhet" data-source-line="6" data-uid="lnk4" id="link_NasjonalArealplanId_AdministrativEnhet"><path codeLine="6" d="M159.23,229.31 C159.23,247.62 159.23,269.48 159.23,288.69" fill="none" id="NasjonalArealplanId-AdministrativEnhet" style="stroke:#181818;stroke-width:1;"/></g><!--link HentArealplan to NasjonalArealplanId--><g class="link" data-entity-1="HentArealplan" data-entity-2="NasjonalArealplanId" data-source-line="8" data-uid="lnk6" id="link_HentArealplan_NasjonalArealplanId"><path codeLine="8" d="M159.23,88.32 C159.23,106.92 159.23,129.03 159.23,147.64" fill="none" id="HentArealplan-NasjonalArealplanId" style="stroke:#181818;stroke-width:1;"/></g><!--SRC=[ROuz3i8m34PtdyBCLHs9iHiRB8Whk8qBePPJ9PG5SNTILKL2r8E7z_ppxO9rEdb1SaJE8WsP-b3Qg6pqt5ClgfB9ED-ZiN8Irja5xpOOZHD0fvmp7iKUXzNW2x1KjQvynSatUFw7otImOSwMBeMrScFp6kmggS4sHXKsU0Fy_gdhpNCV]--></g></svg>