<svg xmlns="http://www.w3.org/2000/svg" xmlns:xlink="http://www.w3.org/1999/xlink" contentStyleType="text/css" height="298px" preserveAspectRatio="none" style="width:654px;height:298px;background:#FFFFFF;" version="1.1" viewBox="0 0 654 298" width="654px" zoomAndPan="magnify"><defs/><g><rect fill="#F1F1F1" height="81.9531" rx="5" ry="5" style="stroke:#F1F1F1;stroke-width:1.5;" width="220" x="10" y="76.5"/><text fill="#000000" font-family="sans-serif" font-size="14" font-weight="bold" lengthAdjust="spacing" textLength="101" x="15" y="92.0352">protokollnavn</text><text fill="#000000" font-family="sans-serif" font-size="14" lengthAdjust="spacing" textLength="99" x="126" y="92.0352">no.ks.fiks.plan</text><line style="stroke:#000000;stroke-width:1.0;" x1="121" x2="121" y1="76.5" y2="96.9883"/><line style="stroke:#000000;stroke-width:1.0;" x1="10" x2="230" y1="96.9883" y2="96.9883"/><text fill="#000000" font-family="sans-serif" font-size="14" font-weight="bold" lengthAdjust="spacing" textLength="34" x="15" y="112.5234">navn</text><text fill="#000000" font-family="sans-serif" font-size="14" lengthAdjust="spacing" textLength="86" x="126" y="112.5234">vertikalnivaa</text><line style="stroke:#000000;stroke-width:1.0;" x1="121" x2="121" y1="96.9883" y2="117.4766"/><line style="stroke:#000000;stroke-width:1.0;" x1="10" x2="230" y1="117.4766" y2="117.4766"/><text fill="#000000" font-family="sans-serif" font-size="14" font-weight="bold" lengthAdjust="spacing" textLength="53" x="15" y="133.0117">versjon</text><text fill="#000000" font-family="sans-serif" font-size="14" lengthAdjust="spacing" textLength="16" x="126" y="133.0117">v2</text><line style="stroke:#000000;stroke-width:1.0;" x1="121" x2="121" y1="117.4766" y2="137.9648"/><line style="stroke:#000000;stroke-width:1.0;" x1="10" x2="230" y1="137.9648" y2="137.9648"/><text fill="#000000" font-family="sans-serif" font-size="14" font-weight="bold" lengthAdjust="spacing" textLength="67" x="15" y="153.5">kodeliste</text><text fill="#000000" font-family="sans-serif" font-size="14" lengthAdjust="spacing" textLength="12" x="126" y="153.5">&#160;&#160;&#160;</text><line style="stroke:#000000;stroke-width:1.0;" x1="121" x2="121" y1="137.9648" y2="158.4531"/><rect fill="none" height="81.9531" rx="5" ry="5" style="stroke:#000000;stroke-width:1.5;" width="220" x="10" y="76.5"/><rect fill="#F1F1F1" height="102.4414" rx="5" ry="5" style="stroke:#F1F1F1;stroke-width:1.5;" width="22" x="267" y="97.2793"/><text fill="#000000" font-family="sans-serif" font-size="14" lengthAdjust="spacing" textLength="12" x="272" y="112.8145">&#160;&#160;&#160;</text><line style="stroke:#000000;stroke-width:1.0;" x1="267" x2="289" y1="117.7676" y2="117.7676"/><text fill="#000000" font-family="sans-serif" font-size="14" lengthAdjust="spacing" textLength="12" x="272" y="133.3027">&#160;&#160;&#160;</text><line style="stroke:#000000;stroke-width:1.0;" x1="267" x2="289" y1="138.2559" y2="138.2559"/><text fill="#000000" font-family="sans-serif" font-size="14" lengthAdjust="spacing" textLength="12" x="272" y="153.791">&#160;&#160;&#160;</text><line style="stroke:#000000;stroke-width:1.0;" x1="267" x2="289" y1="158.7441" y2="158.7441"/><text fill="#000000" font-family="sans-serif" font-size="14" lengthAdjust="spacing" textLength="12" x="272" y="174.2793">&#160;&#160;&#160;</text><line style="stroke:#000000;stroke-width:1.0;" x1="267" x2="289" y1="179.2324" y2="179.2324"/><text fill="#000000" font-family="sans-serif" font-size="14" lengthAdjust="spacing" textLength="12" x="272" y="194.7676">&#160;&#160;&#160;</text><rect fill="none" height="102.4414" rx="5" ry="5" style="stroke:#000000;stroke-width:1.5;" width="22" x="267" y="97.2793"/><rect fill="#F1F1F1" height="40.9766" rx="5" ry="5" style="stroke:#F1F1F1;stroke-width:1.5;" width="300" x="334" y="10"/><text fill="#000000" font-family="sans-serif" font-size="14" font-weight="bold" lengthAdjust="spacing" textLength="71" x="339" y="25.5352">kodeverdi</text><text fill="#000000" font-family="sans-serif" font-size="14" lengthAdjust="spacing" textLength="9" x="466" y="25.5352">1</text><line style="stroke:#000000;stroke-width:1.0;" x1="461" x2="461" y1="10" y2="30.4883"/><line style="stroke:#000000;stroke-width:1.0;" x1="334" x2="634" y1="30.4883" y2="30.4883"/><text fill="#000000" font-family="sans-serif" font-size="14" font-weight="bold" lengthAdjust="spacing" textLength="117" x="339" y="46.0234">kodebeskrivelse</text><text fill="#000000" font-family="sans-serif" font-size="14" lengthAdjust="spacing" textLength="163" x="466" y="46.0234">Under grunnen (tunnel)</text><line style="stroke:#000000;stroke-width:1.0;" x1="461" x2="461" y1="30.4883" y2="50.9766"/><rect fill="none" height="40.9766" rx="5" ry="5" style="stroke:#000000;stroke-width:1.5;" width="300" x="334" y="10"/><rect fill="#F1F1F1" height="40.9766" rx="5" ry="5" style="stroke:#F1F1F1;stroke-width:1.5;" width="316" x="326" y="69"/><text fill="#000000" font-family="sans-serif" font-size="14" font-weight="bold" lengthAdjust="spacing" textLength="71" x="331" y="84.5352">kodeverdi</text><text fill="#000000" font-family="sans-serif" font-size="14" lengthAdjust="spacing" textLength="9" x="458" y="84.5352">2</text><line style="stroke:#000000;stroke-width:1.0;" x1="453" x2="453" y1="69" y2="89.4883"/><line style="stroke:#000000;stroke-width:1.0;" x1="326" x2="642" y1="89.4883" y2="89.4883"/><text fill="#000000" font-family="sans-serif" font-size="14" font-weight="bold" lengthAdjust="spacing" textLength="117" x="331" y="105.0234">kodebeskrivelse</text><text fill="#000000" font-family="sans-serif" font-size="14" lengthAdjust="spacing" textLength="179" x="458" y="105.0234">P&#229; grunnen/vannoverflate</text><line style="stroke:#000000;stroke-width:1.0;" x1="453" x2="453" y1="89.4883" y2="109.9766"/><rect fill="none" height="40.9766" rx="5" ry="5" style="stroke:#000000;stroke-width:1.5;" width="316" x="326" y="69"/><rect fill="#F1F1F1" height="40.9766" rx="5" ry="5" style="stroke:#F1F1F1;stroke-width:1.5;" width="270" x="349" y="128"/><text fill="#000000" font-family="sans-serif" font-size="14" font-weight="bold" lengthAdjust="spacing" textLength="71" x="354" y="143.5352">kodeverdi</text><text fill="#000000" font-family="sans-serif" font-size="14" lengthAdjust="spacing" textLength="9" x="481" y="143.5352">3</text><line style="stroke:#000000;stroke-width:1.0;" x1="476" x2="476" y1="128" y2="148.4883"/><line style="stroke:#000000;stroke-width:1.0;" x1="349" x2="619" y1="148.4883" y2="148.4883"/><text fill="#000000" font-family="sans-serif" font-size="14" font-weight="bold" lengthAdjust="spacing" textLength="117" x="354" y="164.0234">kodebeskrivelse</text><text fill="#000000" font-family="sans-serif" font-size="14" lengthAdjust="spacing" textLength="133" x="481" y="164.0234">Over grunnen (bru)</text><line style="stroke:#000000;stroke-width:1.0;" x1="476" x2="476" y1="148.4883" y2="168.9766"/><rect fill="none" height="40.9766" rx="5" ry="5" style="stroke:#000000;stroke-width:1.5;" width="270" x="349" y="128"/><rect fill="#F1F1F1" height="40.9766" rx="5" ry="5" style="stroke:#F1F1F1;stroke-width:1.5;" width="284" x="342" y="187"/><text fill="#000000" font-family="sans-serif" font-size="14" font-weight="bold" lengthAdjust="spacing" textLength="71" x="347" y="202.5352">kodeverdi</text><text fill="#000000" font-family="sans-serif" font-size="14" lengthAdjust="spacing" textLength="9" x="474" y="202.5352">4</text><line style="stroke:#000000;stroke-width:1.0;" x1="469" x2="469" y1="187" y2="207.4883"/><line style="stroke:#000000;stroke-width:1.0;" x1="342" x2="626" y1="207.4883" y2="207.4883"/><text fill="#000000" font-family="sans-serif" font-size="14" font-weight="bold" lengthAdjust="spacing" textLength="117" x="347" y="223.0234">kodebeskrivelse</text><text fill="#000000" font-family="sans-serif" font-size="14" lengthAdjust="spacing" textLength="147" x="474" y="223.0234">P&#229; bunnen (vann/sj&#248;)</text><line style="stroke:#000000;stroke-width:1.0;" x1="469" x2="469" y1="207.4883" y2="227.9766"/><rect fill="none" height="40.9766" rx="5" ry="5" style="stroke:#000000;stroke-width:1.5;" width="284" x="342" y="187"/><rect fill="#F1F1F1" height="40.9766" rx="5" ry="5" style="stroke:#F1F1F1;stroke-width:1.5;" width="222" x="373" y="246"/><text fill="#000000" font-family="sans-serif" font-size="14" font-weight="bold" lengthAdjust="spacing" textLength="71" x="378" y="261.5352">kodeverdi</text><text fill="#000000" font-family="sans-serif" font-size="14" lengthAdjust="spacing" textLength="9" x="505" y="261.5352">5</text><line style="stroke:#000000;stroke-width:1.0;" x1="500" x2="500" y1="246" y2="266.4883"/><line style="stroke:#000000;stroke-width:1.0;" x1="373" x2="595" y1="266.4883" y2="266.4883"/><text fill="#000000" font-family="sans-serif" font-size="14" font-weight="bold" lengthAdjust="spacing" textLength="117" x="378" y="282.0234">kodebeskrivelse</text><text fill="#000000" font-family="sans-serif" font-size="14" lengthAdjust="spacing" textLength="85" x="505" y="282.0234">I vanns&#248;ylen</text><line style="stroke:#000000;stroke-width:1.0;" x1="500" x2="500" y1="266.4883" y2="286.9766"/><rect fill="none" height="40.9766" rx="5" ry="5" style="stroke:#000000;stroke-width:1.5;" width="222" x="373" y="246"/><path d="M277,107.5 L290,107.5 C316.6667,107.5 303.3317,73.5448 326,59.5 C328.7918,57.7702 331.6614,56.1384 334.5955,54.599 " fill="none" style="stroke:#000000;stroke-width:1.0;stroke-dasharray:3.0,3.0;"/><path d="M335.966,57.3819 L336.6827,53.5711 L333.2249,51.8161 L341.5528,51.1726 L335.966,57.3819 " fill="#000000" style="stroke:#000000;stroke-width:1.0;"/><ellipse cx="277" cy="107.5" fill="#000000" rx="3" ry="3" style="stroke:#000000;stroke-width:1.0;"/><path d="M277,128.5 L290,128.5 C306.4924,128.5 309.8929,123.0444 326,119.5 C338.2715,116.7996 351.1123,114.1188 363.9402,111.5346 " fill="none" style="stroke:#000000;stroke-width:1.0;stroke-dasharray:3.0,3.0;"/><path d="M364.5441,114.5534 L366.2043,111.0817 L363.3363,108.5158 L371.4872,110.0248 L364.5441,114.5534 " fill="#000000" style="stroke:#000000;stroke-width:1.0;"/><ellipse cx="277" cy="128.5" fill="#000000" rx="3" ry="3" style="stroke:#000000;stroke-width:1.0;"/><path d="M277,148.5 L290,148.5 C306.6781,148.5 324.1648,148.5 341.5193,148.5 " fill="none" style="stroke:#000000;stroke-width:1.0;stroke-dasharray:3.0,3.0;"/><path d="M341.5193,151.6844 L343.9076,148.5 L341.5193,145.3156 L349.4802,148.5 L341.5193,151.6844 " fill="#000000" style="stroke:#000000;stroke-width:1.0;"/><ellipse cx="277" cy="148.5" fill="#000000" rx="3" ry="3" style="stroke:#000000;stroke-width:1.0;"/><path d="M277,168.5 L290,168.5 C306.6058,168.5 309.8184,174.7706 326,178.5 C336.3462,180.8845 347.1103,183.2029 357.9375,185.4219 " fill="none" style="stroke:#000000;stroke-width:1.0;stroke-dasharray:3.0,3.0;"/><path d="M357.3296,188.4225 L360.188,185.8779 L358.5455,182.4213 L365.439,186.9418 L357.3296,188.4225 " fill="#000000" style="stroke:#000000;stroke-width:1.0;"/><ellipse cx="277" cy="168.5" fill="#000000" rx="3" ry="3" style="stroke:#000000;stroke-width:1.0;"/><path d="M277,189.5 L290,189.5 C316.6667,189.5 303.3317,223.4552 326,237.5 C338.1765,245.0443 351.8308,250.7265 365.8751,254.9907 " fill="none" style="stroke:#000000;stroke-width:1.0;stroke-dasharray:3.0,3.0;"/><path d="M365.0339,257.9403 L368.0873,255.6216 L366.7163,252.0411 L373.2491,257.0936 L365.0339,257.9403 " fill="#000000" style="stroke:#000000;stroke-width:1.0;"/><ellipse cx="277" cy="189.5" fill="#000000" rx="3" ry="3" style="stroke:#000000;stroke-width:1.0;"/><path d="M218,148.5 L231,148.5 C240.4213,148.5 250.9164,148.5 259.5483,148.5 " fill="none" style="stroke:#000000;stroke-width:1.0;stroke-dasharray:3.0,3.0;"/><path d="M259.5483,151.5437 L261.8311,148.5 L259.5483,145.4563 L267.1575,148.5 L259.5483,151.5437 " fill="#000000" style="stroke:#000000;stroke-width:1.0;"/><ellipse cx="218" cy="148.5" fill="#000000" rx="3" ry="3" style="stroke:#000000;stroke-width:1.0;"/><!--SRC=[ZP9DRi8m48NtFiKeAv0eD2aWb1KgqAeK2Ye_cweBGmPaOiR8TY8Xn75w1_PSh4w0jYlAPYAzD-_JapDDOxcsAwE8xHY0jz7AgbX9IJmbBmIFL3asvOLmOoCvUQLiwsAcgAs8kIIHSdwod6HMwkG69obM4KfXB3hnmma0ktoUBPU8X0SkuEVxFyOCJQn5Yj9WRayeGWrBdH0XGS5cNrdqyiY-T0qSN0SFZryNR2NbHCeb5vAxmZUm7wwp1-dVpZETt5Iu-d_XsHcP5QwOrV5m4xXs7Vm26SuS3rk9TEQv-Sdsh8aKvNV2XkuExAJVW-nV2qNWbuFxe5gk5KO9GPzl8QY3xuT-BQmreDKPZI7pYwpmFEo1KOcU8qJk8BIO9TO1YgpBKmxl2LcnnX066wHk-_KYG8TIeHMjaIphJlk_2_NgtQEmC4ATlVAqpzguu8cqBZ5NaQ1b29Fnqrs3zJWj4xvqR2JMKewhjo6y3Ru1]--></g></svg>