<svg xmlns="http://www.w3.org/2000/svg" xmlns:xlink="http://www.w3.org/1999/xlink" contentStyleType="text/css" data-diagram-type="JSON" height="298px" preserveAspectRatio="none" style="width:653px;height:298px;background:#FFFFFF;" version="1.1" viewBox="0 0 653 298" width="653px" zoomAndPan="magnify"><defs/><g><rect fill="#F1F1F1" height="81.9531" rx="5" ry="5" style="stroke:#F1F1F1;stroke-width:1.5;" width="220.7168" x="10" y="76.5"/><text fill="#000000" font-family="sans-serif" font-size="14" font-weight="bold" lengthAdjust="spacing" textLength="101.0283" x="15" y="92.0352">protokollnavn</text><text fill="#000000" font-family="sans-serif" font-size="14" lengthAdjust="spacing" textLength="99.6885" x="126.0283" y="92.0352">no.ks.fiks.plan</text><line style="stroke:#000000;stroke-width:1;" x1="121.0283" x2="121.0283" y1="76.5" y2="96.9883"/><line style="stroke:#000000;stroke-width:1;" x1="10" x2="230.7168" y1="96.9883" y2="96.9883"/><text fill="#000000" font-family="sans-serif" font-size="14" font-weight="bold" lengthAdjust="spacing" textLength="34.9248" x="15" y="112.5234">navn</text><text fill="#000000" font-family="sans-serif" font-size="14" lengthAdjust="spacing" textLength="85.4629" x="126.0283" y="112.5234">vertikalnivaa</text><line style="stroke:#000000;stroke-width:1;" x1="121.0283" x2="121.0283" y1="96.9883" y2="117.4766"/><line style="stroke:#000000;stroke-width:1;" x1="10" x2="230.7168" y1="117.4766" y2="117.4766"/><text fill="#000000" font-family="sans-serif" font-size="14" font-weight="bold" lengthAdjust="spacing" textLength="53.5869" x="15" y="133.0117">versjon</text><text fill="#000000" font-family="sans-serif" font-size="14" lengthAdjust="spacing" textLength="16.0986" x="126.0283" y="133.0117">v2</text><line style="stroke:#000000;stroke-width:1;" x1="121.0283" x2="121.0283" y1="117.4766" y2="137.9648"/><line style="stroke:#000000;stroke-width:1;" x1="10" x2="230.7168" y1="137.9648" y2="137.9648"/><text fill="#000000" font-family="sans-serif" font-size="14" font-weight="bold" lengthAdjust="spacing" textLength="66.1787" x="15" y="153.5">kodeliste</text><text fill="#000000" font-family="sans-serif" font-size="14" lengthAdjust="spacing" textLength="13.2891" x="126.0283" y="153.5">&#160;&#160;&#160;</text><line style="stroke:#000000;stroke-width:1;" x1="121.0283" x2="121.0283" y1="137.9648" y2="158.4531"/><rect fill="none" height="81.9531" rx="5" ry="5" style="stroke:#000000;stroke-width:1.5;" width="220.7168" x="10" y="76.5"/><rect fill="#F1F1F1" height="102.4414" rx="5" ry="5" style="stroke:#F1F1F1;stroke-width:1.5;" width="23.2891" x="268" y="97.2793"/><text fill="#000000" font-family="sans-serif" font-size="14" lengthAdjust="spacing" textLength="13.2891" x="273" y="112.8145">&#160;&#160;&#160;</text><line style="stroke:#000000;stroke-width:1;" x1="268" x2="291.2891" y1="117.7676" y2="117.7676"/><text fill="#000000" font-family="sans-serif" font-size="14" lengthAdjust="spacing" textLength="13.2891" x="273" y="133.3027">&#160;&#160;&#160;</text><line style="stroke:#000000;stroke-width:1;" x1="268" x2="291.2891" y1="138.2559" y2="138.2559"/><text fill="#000000" font-family="sans-serif" font-size="14" lengthAdjust="spacing" textLength="13.2891" x="273" y="153.791">&#160;&#160;&#160;</text><line style="stroke:#000000;stroke-width:1;" x1="268" x2="291.2891" y1="158.7441" y2="158.7441"/><text fill="#000000" font-family="sans-serif" font-size="14" lengthAdjust="spacing" textLength="13.2891" x="273" y="174.2793">&#160;&#160;&#160;</text><line style="stroke:#000000;stroke-width:1;" x1="268" x2="291.2891" y1="179.2324" y2="179.2324"/><text fill="#000000" font-family="sans-serif" font-size="14" lengthAdjust="spacing" textLength="13.2891" x="273" y="194.7676">&#160;&#160;&#160;</text><rect fill="none" height="102.4414" rx="5" ry="5" style="stroke:#000000;stroke-width:1.5;" width="23.2891" x="268" y="97.2793"/><rect fill="#F1F1F1" height="40.9766" rx="5" ry="5" style="stroke:#F1F1F1;stroke-width:1.5;" width="296.4863" x="337" y="10"/><text fill="#000000" font-family="sans-serif" font-size="14" font-weight="bold" lengthAdjust="spacing" textLength="71.9824" x="342" y="25.5352">kodeverdi</text><text fill="#000000" font-family="sans-serif" font-size="14" lengthAdjust="spacing" textLength="8.8525" x="469.6328" y="25.5352">1</text><line style="stroke:#000000;stroke-width:1;" x1="464.6328" x2="464.6328" y1="10" y2="30.4883"/><line style="stroke:#000000;stroke-width:1;" x1="337" x2="633.4863" y1="30.4883" y2="30.4883"/><text fill="#000000" font-family="sans-serif" font-size="14" font-weight="bold" lengthAdjust="spacing" textLength="117.6328" x="342" y="46.0234">kodebeskrivelse</text><text fill="#000000" font-family="sans-serif" font-size="14" lengthAdjust="spacing" textLength="158.8535" x="469.6328" y="46.0234">Under grunnen (tunnel)</text><line style="stroke:#000000;stroke-width:1;" x1="464.6328" x2="464.6328" y1="30.4883" y2="50.9766"/><rect fill="none" height="40.9766" rx="5" ry="5" style="stroke:#000000;stroke-width:1.5;" width="296.4863" x="337" y="10"/><rect fill="#F1F1F1" height="40.9766" rx="5" ry="5" style="stroke:#F1F1F1;stroke-width:1.5;" width="313.5762" x="328" y="69"/><text fill="#000000" font-family="sans-serif" font-size="14" font-weight="bold" lengthAdjust="spacing" textLength="71.9824" x="333" y="84.5352">kodeverdi</text><text fill="#000000" font-family="sans-serif" font-size="14" lengthAdjust="spacing" textLength="8.8525" x="460.6328" y="84.5352">2</text><line style="stroke:#000000;stroke-width:1;" x1="455.6328" x2="455.6328" y1="69" y2="89.4883"/><line style="stroke:#000000;stroke-width:1;" x1="328" x2="641.5762" y1="89.4883" y2="89.4883"/><text fill="#000000" font-family="sans-serif" font-size="14" font-weight="bold" lengthAdjust="spacing" textLength="117.6328" x="333" y="105.0234">kodebeskrivelse</text><text fill="#000000" font-family="sans-serif" font-size="14" lengthAdjust="spacing" textLength="175.9434" x="460.6328" y="105.0234">P&#229; grunnen/vannoverflate</text><line style="stroke:#000000;stroke-width:1;" x1="455.6328" x2="455.6328" y1="89.4883" y2="109.9766"/><rect fill="none" height="40.9766" rx="5" ry="5" style="stroke:#000000;stroke-width:1.5;" width="313.5762" x="328" y="69"/><rect fill="#F1F1F1" height="40.9766" rx="5" ry="5" style="stroke:#F1F1F1;stroke-width:1.5;" width="267.4883" x="351.5" y="128"/><text fill="#000000" font-family="sans-serif" font-size="14" font-weight="bold" lengthAdjust="spacing" textLength="71.9824" x="356.5" y="143.5352">kodeverdi</text><text fill="#000000" font-family="sans-serif" font-size="14" lengthAdjust="spacing" textLength="8.8525" x="484.1328" y="143.5352">3</text><line style="stroke:#000000;stroke-width:1;" x1="479.1328" x2="479.1328" y1="128" y2="148.4883"/><line style="stroke:#000000;stroke-width:1;" x1="351.5" x2="618.9883" y1="148.4883" y2="148.4883"/><text fill="#000000" font-family="sans-serif" font-size="14" font-weight="bold" lengthAdjust="spacing" textLength="117.6328" x="356.5" y="164.0234">kodebeskrivelse</text><text fill="#000000" font-family="sans-serif" font-size="14" lengthAdjust="spacing" textLength="129.8555" x="484.1328" y="164.0234">Over grunnen (bru)</text><line style="stroke:#000000;stroke-width:1;" x1="479.1328" x2="479.1328" y1="148.4883" y2="168.9766"/><rect fill="none" height="40.9766" rx="5" ry="5" style="stroke:#000000;stroke-width:1.5;" width="267.4883" x="351.5" y="128"/><rect fill="#F1F1F1" height="40.9766" rx="5" ry="5" style="stroke:#F1F1F1;stroke-width:1.5;" width="282.124" x="344" y="187"/><text fill="#000000" font-family="sans-serif" font-size="14" font-weight="bold" lengthAdjust="spacing" textLength="71.9824" x="349" y="202.5352">kodeverdi</text><text fill="#000000" font-family="sans-serif" font-size="14" lengthAdjust="spacing" textLength="8.8525" x="476.6328" y="202.5352">4</text><line style="stroke:#000000;stroke-width:1;" x1="471.6328" x2="471.6328" y1="187" y2="207.4883"/><line style="stroke:#000000;stroke-width:1;" x1="344" x2="626.124" y1="207.4883" y2="207.4883"/><text fill="#000000" font-family="sans-serif" font-size="14" font-weight="bold" lengthAdjust="spacing" textLength="117.6328" x="349" y="223.0234">kodebeskrivelse</text><text fill="#000000" font-family="sans-serif" font-size="14" lengthAdjust="spacing" textLength="144.4912" x="476.6328" y="223.0234">P&#229; bunnen (vann/sj&#248;)</text><line style="stroke:#000000;stroke-width:1;" x1="471.6328" x2="471.6328" y1="207.4883" y2="227.9766"/><rect fill="none" height="40.9766" rx="5" ry="5" style="stroke:#000000;stroke-width:1.5;" width="282.124" x="344" y="187"/><rect fill="#F1F1F1" height="40.9766" rx="5" ry="5" style="stroke:#F1F1F1;stroke-width:1.5;" width="222.0361" x="374" y="246"/><text fill="#000000" font-family="sans-serif" font-size="14" font-weight="bold" lengthAdjust="spacing" textLength="71.9824" x="379" y="261.5352">kodeverdi</text><text fill="#000000" font-family="sans-serif" font-size="14" lengthAdjust="spacing" textLength="8.8525" x="506.6328" y="261.5352">5</text><line style="stroke:#000000;stroke-width:1;" x1="501.6328" x2="501.6328" y1="246" y2="266.4883"/><line style="stroke:#000000;stroke-width:1;" x1="374" x2="596.0361" y1="266.4883" y2="266.4883"/><text fill="#000000" font-family="sans-serif" font-size="14" font-weight="bold" lengthAdjust="spacing" textLength="117.6328" x="379" y="282.0234">kodebeskrivelse</text><text fill="#000000" font-family="sans-serif" font-size="14" lengthAdjust="spacing" textLength="84.4033" x="506.6328" y="282.0234">I vanns&#248;ylen</text><line style="stroke:#000000;stroke-width:1;" x1="501.6328" x2="501.6328" y1="266.4883" y2="286.9766"/><rect fill="none" height="40.9766" rx="5" ry="5" style="stroke:#000000;stroke-width:1.5;" width="222.0361" x="374" y="246"/><path d="M279,107.5 L292,107.5 C318.6667,107.5 305.3396,73.5577 328,59.5 C330.8398,57.7383 333.7605,56.0783 336.7482,54.5144" fill="none" style="stroke:#000000;stroke-width:1;stroke-dasharray:3.0,3.0;"/><path d="M338.1392,57.3489 L338.874,53.4712 L335.3572,51.6799 L343.8344,51.0369 L338.1392,57.3489" fill="#000000" style="stroke:#000000;stroke-width:1;"/><ellipse cx="279" cy="107.5" fill="#000000" rx="3" ry="3" style="stroke:#000000;stroke-width:1;"/><path d="M279,128.5 L292,128.5 C308.4924,128.5 311.895,123.0538 328,119.5 C340.1947,116.809 352.9548,114.1343 365.7017,111.5537" fill="none" style="stroke:#000000;stroke-width:1;stroke-dasharray:3.0,3.0;"/><path d="M366.3049,114.5534 L367.9515,111.1013 L365.0985,108.554 L373.201,110.0458 L366.3049,114.5534" fill="#000000" style="stroke:#000000;stroke-width:1;"/><ellipse cx="279" cy="128.5" fill="#000000" rx="3" ry="3" style="stroke:#000000;stroke-width:1;"/><path d="M279,148.5 L292,148.5 C308.9607,148.5 326.762,148.5 344.4041,148.5" fill="none" style="stroke:#000000;stroke-width:1;stroke-dasharray:3.0,3.0;"/><path d="M344.4041,151.5193 L346.6685,148.5 L344.4041,145.4807 L351.9523,148.5 L344.4041,151.5193" fill="#000000" style="stroke:#000000;stroke-width:1;"/><ellipse cx="279" cy="148.5" fill="#000000" rx="3" ry="3" style="stroke:#000000;stroke-width:1;"/><path d="M279,168.5 L292,168.5 C308.6058,168.5 311.8205,174.7614 328,178.5 C338.2813,180.8757 348.9777,183.188 359.7365,185.4028" fill="none" style="stroke:#000000;stroke-width:1;stroke-dasharray:3.0,3.0;"/><path d="M359.1296,188.3844 L361.9727,185.858 L360.3435,182.4212 L367.1906,186.9202 L359.1296,188.3844" fill="#000000" style="stroke:#000000;stroke-width:1;"/><ellipse cx="279" cy="168.5" fill="#000000" rx="3" ry="3" style="stroke:#000000;stroke-width:1;"/><path d="M279,189.5 L292,189.5 C318.6667,189.5 305.3396,223.4423 328,237.5 C339.7883,244.8131 352.9717,250.3731 366.5497,254.5865" fill="none" style="stroke:#000000;stroke-width:1;stroke-dasharray:3.0,3.0;"/><path d="M365.6678,257.6175 L368.823,255.2479 L367.4316,251.5555 L374.1272,256.7913 L365.6678,257.6175" fill="#000000" style="stroke:#000000;stroke-width:1;"/><ellipse cx="279" cy="189.5" fill="#000000" rx="3" ry="3" style="stroke:#000000;stroke-width:1;"/><path d="M219,148.5 L232,148.5 C241.399,148.5 251.8552,148.5 260.5144,148.5" fill="none" style="stroke:#000000;stroke-width:1;stroke-dasharray:3.0,3.0;"/><path d="M260.5144,151.5633 L262.8119,148.5 L260.5144,145.4367 L268.1727,148.5 L260.5144,151.5633" fill="#000000" style="stroke:#000000;stroke-width:1;"/><ellipse cx="219" cy="148.5" fill="#000000" rx="3" ry="3" style="stroke:#000000;stroke-width:1;"/><!--SRC=[ZP9DRi8m48NtFiKeAv3u3Jz5MQ42hKgXe1ROL5qOCY0JCqQs4mbL7ATtOC_5wWHekw9i9j9xypuzETCsbckxDehO9mFmjbfP5IafYIVa1U2HAaMcj1HkR2Kdhv1kNSm4jHKHboGIpa-MaynQdLp_94KgH2cCHIU-Em7WCvjdooL2uO4BLBFz7sEE9j8YGMamiwSKeeQLZecG86VJhynxMMHVk0RshuF7nwyBjfnm8kMIIybTuHlOjUliKVAtyrp7DnMk_rzuVaQcXSjcVJpS16vS1pz1YZF7mquYdNbkVh0zQoE5sPsmiRi3EnqE8FtNGX5KItx5RvJyt2H6w7E2oXrKMq6j4TIQqEbD8BNpBFSu7e1HiLuWXEuUj9Z7rkNphCyJ3gynMR7104PRf7xt-I90ZnAX5MsGBElFXhyBpNhnNbXuGvq-ycp8khZaiRGkiL2Xe5K0qyb3iSK6d5OnNpas4kienzMx05v6tm00]--></g></svg>