<svg xmlns="http://www.w3.org/2000/svg" xmlns:xlink="http://www.w3.org/1999/xlink" contentStyleType="text/css" height="85px" preserveAspectRatio="none" style="width:244px;height:85px;background:#FFFFFF;" version="1.1" viewBox="0 0 244 85" width="244px" zoomAndPan="magnify"><defs/><g><!--class HentDokumentfil--><g id="elem_HentDokumentfil"><rect codeLine="2" fill="#F1F1F1" height="64.4883" id="HentDokumentfil" rx="2.5" ry="2.5" style="stroke:#181818;stroke-width:0.5;" width="223" x="7" y="7"/><ellipse cx="56.25" cy="23" fill="#ADD1B2" rx="11" ry="11" style="stroke:#181818;stroke-width:1.0;"/><path d="M58.7231,29.1431 Q58.1421,29.4419 57.5029,29.5913 Q56.8638,29.7407 56.1582,29.7407 Q53.6514,29.7407 52.3315,28.0889 Q51.0117,26.437 51.0117,23.3159 Q51.0117,20.1865 52.3315,18.5347 Q53.6514,16.8828 56.1582,16.8828 Q56.8638,16.8828 57.5112,17.0322 Q58.1587,17.1816 58.7231,17.4805 L58.7231,20.2031 Q58.0923,19.6221 57.4988,19.3523 Q56.9053,19.0825 56.2744,19.0825 Q54.9297,19.0825 54.2449,20.1492 Q53.5601,21.2158 53.5601,23.3159 Q53.5601,25.4077 54.2449,26.4744 Q54.9297,27.541 56.2744,27.541 Q56.9053,27.541 57.4988,27.2712 Q58.0923,27.0015 58.7231,26.4204 Z " fill="#000000"/><text fill="#000000" font-family="sans-serif" font-size="14" lengthAdjust="spacing" textLength="116" x="76.75" y="28.291">HentDokumentfil</text><line style="stroke:#181818;stroke-width:0.5;" x1="8" x2="229" y1="39" y2="39"/><ellipse cx="18" cy="52.7441" fill="none" rx="3" ry="3" style="stroke:#038048;stroke-width:1.0;"/><text fill="#000000" font-family="sans-serif" font-size="14" lengthAdjust="spacing" textLength="197" x="27" y="56.5352">referanseDokumentfil: string</text><line style="stroke:#181818;stroke-width:0.5;" x1="8" x2="229" y1="63.4883" y2="63.4883"/></g><!--SRC=[Iyv9B2vMy4ZDAt79poxD1T9fcJaArLmAGA1Tb9gMMfIOLvoA96UbK5nIb9cNpbNB1G00]--></g></svg>