<svg xmlns="http://www.w3.org/2000/svg" xmlns:xlink="http://www.w3.org/1999/xlink" contentStyleType="text/css" data-diagram-type="CLASS" height="85px" preserveAspectRatio="none" style="width:242px;height:85px;background:#FFFFFF;" version="1.1" viewBox="0 0 242 85" width="242px" zoomAndPan="magnify"><defs/><g><!--class HentDokumentfil--><g class="entity" data-entity="HentDokumentfil" data-source-line="2" data-uid="ent0002" id="entity_HentDokumentfil"><rect fill="#F1F1F1" height="64.4883" rx="2.5" ry="2.5" style="stroke:#181818;stroke-width:0.5;" width="221.9795" x="7" y="7"/><ellipse cx="55.7368" cy="23" fill="#ADD1B2" rx="11" ry="11" style="stroke:#181818;stroke-width:1;"/><path d="M58.21,29.1431 Q57.6289,29.4419 56.9897,29.5913 Q56.3506,29.7407 55.645,29.7407 Q53.1382,29.7407 51.8184,28.0889 Q50.4985,26.437 50.4985,23.3159 Q50.4985,20.1865 51.8184,18.5347 Q53.1382,16.8828 55.645,16.8828 Q56.3506,16.8828 56.998,17.0322 Q57.6455,17.1816 58.21,17.4805 L58.21,20.2031 Q57.5791,19.6221 56.9856,19.3523 Q56.3921,19.0825 55.7612,19.0825 Q54.4165,19.0825 53.7317,20.1492 Q53.0469,21.2158 53.0469,23.3159 Q53.0469,25.4077 53.7317,26.4744 Q54.4165,27.541 55.7612,27.541 Q56.3921,27.541 56.9856,27.2712 Q57.5791,27.0015 58.21,26.4204 Z " fill="#000000"/><text fill="#000000" font-family="sans-serif" font-size="14" lengthAdjust="spacing" textLength="116.0059" x="76.2368" y="28.291">HentDokumentfil</text><line style="stroke:#181818;stroke-width:0.5;" x1="8" x2="227.9795" y1="39" y2="39"/><ellipse cx="18" cy="52.7441" fill="none" rx="3" ry="3" style="stroke:#038048;stroke-width:1;"/><text fill="#000000" font-family="sans-serif" font-size="14" lengthAdjust="spacing" textLength="195.9795" x="27" y="56.5352">referanseDokumentfil: string</text><line style="stroke:#181818;stroke-width:0.5;" x1="8" x2="227.9795" y1="63.4883" y2="63.4883"/></g><!--SRC=[Iyv9B2vMy4ZDAt79poxD1T9fcJaArLmAGA1Tb9gMMfIOLvoA96UbK5nIb9cNpbNB1G00]--></g></svg>