<?xml version="1.0" encoding="us-ascii" standalone="no"?><svg xmlns="http://www.w3.org/2000/svg" xmlns:xlink="http://www.w3.org/1999/xlink" contentStyleType="text/css" height="219px" preserveAspectRatio="none" style="width:1849px;height:219px;background:#FFFFFF;" version="1.1" viewBox="0 0 1849 219" width="1849px" zoomAndPan="magnify"><defs/><g><!--class RegistrerPlanavgrensning--><g id="elem_RegistrerPlanavgrensning"><rect codeLine="2" fill="#F1F1F1" height="97.4648" id="RegistrerPlanavgrensning" rx="2.5" ry="2.5" style="stroke:#181818;stroke-width:0.5;" width="309" x="548" y="7"/><ellipse cx="610.25" cy="23" fill="#ADD1B2" rx="11" ry="11" style="stroke:#181818;stroke-width:1.0;"/><path d="M612.7231,29.1431 Q612.1421,29.4419 611.5029,29.5913 Q610.8638,29.7407 610.1582,29.7407 Q607.6514,29.7407 606.3315,28.0889 Q605.0117,26.437 605.0117,23.3159 Q605.0117,20.1865 606.3315,18.5347 Q607.6514,16.8828 610.1582,16.8828 Q610.8638,16.8828 611.5112,17.0322 Q612.1587,17.1816 612.7231,17.4805 L612.7231,20.2031 Q612.0923,19.6221 611.4988,19.3523 Q610.9053,19.0825 610.2744,19.0825 Q608.9297,19.0825 608.2449,20.1492 Q607.5601,21.2158 607.5601,23.3159 Q607.5601,25.4077 608.2449,26.4744 Q608.9297,27.541 610.2744,27.541 Q610.9053,27.541 611.4988,27.2712 Q612.0923,27.0015 612.7231,26.4204 Z " fill="#000000"/><text fill="#000000" font-family="sans-serif" font-size="14" lengthAdjust="spacing" textLength="176" x="630.75" y="28.291">RegistrerPlanavgrensning</text><line style="stroke:#181818;stroke-width:0.5;" x1="549" x2="856" y1="39" y2="39"/><ellipse cx="559" cy="52.7441" fill="none" rx="3" ry="3" style="stroke:#038048;stroke-width:1.0;"/><text fill="#000000" font-family="sans-serif" font-size="14" lengthAdjust="spacing" textLength="283" x="568" y="56.5352">nasjonalArealplanId: NasjonalArealplanId</text><ellipse cx="559" cy="69.2324" fill="none" rx="3" ry="3" style="stroke:#038048;stroke-width:1.0;"/><text fill="#000000" font-family="sans-serif" font-size="14" lengthAdjust="spacing" textLength="185" x="568" y="73.0234">saksnummer: Saksnummer</text><ellipse cx="559" cy="85.7207" fill="none" rx="3" ry="3" style="stroke:#038048;stroke-width:1.0;"/><text fill="#000000" font-family="sans-serif" font-size="14" lengthAdjust="spacing" textLength="143" x="568" y="89.5117">vedlegg: Dokument[]</text><line style="stroke:#181818;stroke-width:0.5;" x1="549" x2="856" y1="96.4648" y2="96.4648"/></g><!--class NasjonalArealplanId--><g id="elem_NasjonalArealplanId"><rect fill="#F1F1F1" height="48" id="NasjonalArealplanId" rx="2.5" ry="2.5" style="stroke:#181818;stroke-width:0.5;" width="170" x="461.5" y="164.46"/><ellipse cx="476.5" cy="180.46" fill="#ADD1B2" rx="11" ry="11" style="stroke:#181818;stroke-width:1.0;"/><path d="M478.9731,186.6031 Q478.3921,186.9019 477.7529,187.0513 Q477.1138,187.2007 476.4082,187.2007 Q473.9014,187.2007 472.5815,185.5489 Q471.2617,183.897 471.2617,180.7759 Q471.2617,177.6465 472.5815,175.9947 Q473.9014,174.3428 476.4082,174.3428 Q477.1138,174.3428 477.7612,174.4922 Q478.4087,174.6416 478.9731,174.9405 L478.9731,177.6631 Q478.3423,177.0821 477.7488,176.8123 Q477.1553,176.5425 476.5244,176.5425 Q475.1797,176.5425 474.4949,177.6092 Q473.8101,178.6758 473.8101,180.7759 Q473.8101,182.8677 474.4949,183.9344 Q475.1797,185.001 476.5244,185.001 Q477.1553,185.001 477.7488,184.7312 Q478.3423,184.4615 478.9731,183.8804 Z " fill="#000000"/><text fill="#000000" font-family="sans-serif" font-size="14" lengthAdjust="spacing" textLength="138" x="490.5" y="185.751">NasjonalArealplanId</text><line style="stroke:#181818;stroke-width:0.5;" x1="462.5" x2="630.5" y1="196.46" y2="196.46"/><line style="stroke:#181818;stroke-width:0.5;" x1="462.5" x2="630.5" y1="204.46" y2="204.46"/></g><!--class Saksnummer--><g id="elem_Saksnummer"><rect fill="#F1F1F1" height="48" id="Saksnummer" rx="2.5" ry="2.5" style="stroke:#181818;stroke-width:0.5;" width="121" x="798" y="164.46"/><ellipse cx="813" cy="180.46" fill="#ADD1B2" rx="11" ry="11" style="stroke:#181818;stroke-width:1.0;"/><path d="M815.4731,186.6031 Q814.8921,186.9019 814.2529,187.0513 Q813.6138,187.2007 812.9082,187.2007 Q810.4014,187.2007 809.0815,185.5489 Q807.7617,183.897 807.7617,180.7759 Q807.7617,177.6465 809.0815,175.9947 Q810.4014,174.3428 812.9082,174.3428 Q813.6138,174.3428 814.2612,174.4922 Q814.9087,174.6416 815.4731,174.9405 L815.4731,177.6631 Q814.8423,177.0821 814.2488,176.8123 Q813.6553,176.5425 813.0244,176.5425 Q811.6797,176.5425 810.9949,177.6092 Q810.3101,178.6758 810.3101,180.7759 Q810.3101,182.8677 810.9949,183.9344 Q811.6797,185.001 813.0244,185.001 Q813.6553,185.001 814.2488,184.7312 Q814.8423,184.4615 815.4731,183.8804 Z " fill="#000000"/><text fill="#000000" font-family="sans-serif" font-size="14" lengthAdjust="spacing" textLength="89" x="827" y="185.751">Saksnummer</text><line style="stroke:#181818;stroke-width:0.5;" x1="799" x2="918" y1="196.46" y2="196.46"/><line style="stroke:#181818;stroke-width:0.5;" x1="799" x2="918" y1="204.46" y2="204.46"/></g><!--class Dokument--><g id="elem_Dokument"><rect fill="#F1F1F1" height="48" id="Dokument" rx="2.5" ry="2.5" style="stroke:#181818;stroke-width:0.5;" width="103" x="1338" y="164.46"/><ellipse cx="1353" cy="180.46" fill="#ADD1B2" rx="11" ry="11" style="stroke:#181818;stroke-width:1.0;"/><path d="M1355.4731,186.6031 Q1354.8921,186.9019 1354.2529,187.0513 Q1353.6138,187.2007 1352.9082,187.2007 Q1350.4014,187.2007 1349.0815,185.5489 Q1347.7617,183.897 1347.7617,180.7759 Q1347.7617,177.6465 1349.0815,175.9947 Q1350.4014,174.3428 1352.9082,174.3428 Q1353.6138,174.3428 1354.2612,174.4922 Q1354.9087,174.6416 1355.4731,174.9405 L1355.4731,177.6631 Q1354.8423,177.0821 1354.2488,176.8123 Q1353.6553,176.5425 1353.0244,176.5425 Q1351.6797,176.5425 1350.9949,177.6092 Q1350.3101,178.6758 1350.3101,180.7759 Q1350.3101,182.8677 1350.9949,183.9344 Q1351.6797,185.001 1353.0244,185.001 Q1353.6553,185.001 1354.2488,184.7312 Q1354.8423,184.4615 1355.4731,183.8804 Z " fill="#000000"/><text fill="#000000" font-family="sans-serif" font-size="14" lengthAdjust="spacing" textLength="71" x="1367" y="185.751">Dokument</text><line style="stroke:#181818;stroke-width:0.5;" x1="1339" x2="1440" y1="196.46" y2="196.46"/><line style="stroke:#181818;stroke-width:0.5;" x1="1339" x2="1440" y1="204.46" y2="204.46"/></g><g id="elem_GMN9"><path d="M6,43.07 L6,68.3805 A0,0 0 0 0 6,68.3805 L281.99,68.3805 L495.11,164.05 L289.99,68.3805 L513,68.3805 A0,0 0 0 0 513,68.3805 L513,53.07 L503,43.07 L6,43.07 A0,0 0 0 0 6,43.07 " fill="#FEFFDD" style="stroke:#181818;stroke-width:0.5;"/><path d="M503,43.07 L503,53.07 L513,53.07 L503,43.07 " fill="#FEFFDD" style="stroke:#181818;stroke-width:0.5;"/><text fill="#000000" font-family="sans-serif" font-size="13" lengthAdjust="spacing" textLength="486" x="12" y="60.6384">Se detaljer i diagram for skjema 'no.ks.fiks.plan.v2.felles.nasjonalarealplanid'</text></g><g id="elem_GMN12"><path d="M892.5,43.07 L892.5,68.3805 A0,0 0 0 0 892.5,68.3805 L1096.86,68.3805 L906.31,164.05 L1104.86,68.3805 L1358.5,68.3805 A0,0 0 0 0 1358.5,68.3805 L1358.5,53.07 L1348.5,43.07 L892.5,43.07 A0,0 0 0 0 892.5,43.07 " fill="#FEFFDD" style="stroke:#181818;stroke-width:0.5;"/><path d="M1348.5,43.07 L1348.5,53.07 L1358.5,53.07 L1348.5,43.07 " fill="#FEFFDD" style="stroke:#181818;stroke-width:0.5;"/><text fill="#000000" font-family="sans-serif" font-size="13" lengthAdjust="spacing" textLength="445" x="898.5" y="60.6384">Se detaljer i diagram for skjema 'no.ks.fiks.plan.v2.felles.saksnummer'</text></g><g id="elem_GMN15"><path d="M1393,43.07 L1393,68.3805 A0,0 0 0 0 1393,68.3805 L1592.46,68.3805 L1430.33,164.05 L1600.46,68.3805 L1842,68.3805 A0,0 0 0 0 1842,68.3805 L1842,53.07 L1832,43.07 L1393,43.07 A0,0 0 0 0 1393,43.07 " fill="#FEFFDD" style="stroke:#181818;stroke-width:0.5;"/><path d="M1832,43.07 L1832,53.07 L1842,53.07 L1832,43.07 " fill="#FEFFDD" style="stroke:#181818;stroke-width:0.5;"/><text fill="#000000" font-family="sans-serif" font-size="13" lengthAdjust="spacing" textLength="428" x="1399" y="60.6384">Se detaljer i diagram for skjema 'no.ks.fiks.plan.v2.felles.dokument'</text></g><!--link RegistrerPlanavgrensning to NasjonalArealplanId--><g id="link_RegistrerPlanavgrensning_NasjonalArealplanId"><path codeLine="8" d="M645.3,104.67 C621.12,124.92 594.07,147.59 574.4,164.08 " fill="none" id="RegistrerPlanavgrensning-NasjonalArealplanId" style="stroke:#181818;stroke-width:1.0;"/></g><!--link RegistrerPlanavgrensning to Saksnummer--><g id="link_RegistrerPlanavgrensning_Saksnummer"><path codeLine="9" d="M759.7,104.67 C783.88,124.92 810.93,147.59 830.6,164.08 " fill="none" id="RegistrerPlanavgrensning-Saksnummer" style="stroke:#181818;stroke-width:1.0;"/></g><!--link RegistrerPlanavgrensning to Dokument--><g id="link_RegistrerPlanavgrensning_Dokument"><path codeLine="10" d="M857.44,100.36 C863.53,101.79 869.56,103.17 875.5,104.46 C1043.08,141 1244.63,168.97 1337.72,181 " fill="none" id="RegistrerPlanavgrensning-Dokument" style="stroke:#181818;stroke-width:1.0;"/></g><!--SRC=[fP2n3i8m34JtV8Mt3eWCZDsGM5WGWX4nMCIDqYOEYaCNnBzJ10Kg2WiPh2Wvtplxu544DcITv4HfxP6njObOsB65iuBkJ1YbZen-dWZziTCiJGchpyUxMh0HFeL0gOJjytx_QybuihQ4HMnEWJZlzkgYrDS0q-aevvV-3VbBrWTGYcCcoF48iHg3GJS5WQ6ClgO43en3cp105HD8KrD0A3ZgHdJbkdBhqkrCL-GzYUvtXxsZCyK0-Shx9-crzo6Wd_HFU_EmATGL]--></g></svg>