<?xml version="1.0" encoding="us-ascii" standalone="no"?><svg xmlns="http://www.w3.org/2000/svg" xmlns:xlink="http://www.w3.org/1999/xlink" contentStyleType="text/css" height="541px" preserveAspectRatio="none" style="width:429px;height:541px;background:#FFFFFF;" version="1.1" viewBox="0 0 429 541" width="429px" zoomAndPan="magnify"><defs/><g><!--class FinnDispensasjoner--><g id="elem_FinnDispensasjoner"><rect codeLine="2" fill="#F1F1F1" height="64.4883" id="FinnDispensasjoner" rx="2.5" ry="2.5" style="stroke:#181818;stroke-width:0.5;" width="234" x="142" y="7"/><ellipse cx="187.25" cy="23" fill="#ADD1B2" rx="11" ry="11" style="stroke:#181818;stroke-width:1.0;"/><path d="M189.7231,29.1431 Q189.1421,29.4419 188.5029,29.5913 Q187.8638,29.7407 187.1582,29.7407 Q184.6514,29.7407 183.3315,28.0889 Q182.0117,26.437 182.0117,23.3159 Q182.0117,20.1865 183.3315,18.5347 Q184.6514,16.8828 187.1582,16.8828 Q187.8638,16.8828 188.5112,17.0322 Q189.1587,17.1816 189.7231,17.4805 L189.7231,20.2031 Q189.0923,19.6221 188.4988,19.3523 Q187.9053,19.0825 187.2744,19.0825 Q185.9297,19.0825 185.2449,20.1492 Q184.5601,21.2158 184.5601,23.3159 Q184.5601,25.4077 185.2449,26.4744 Q185.9297,27.541 187.2744,27.541 Q187.9053,27.541 188.4988,27.2712 Q189.0923,27.0015 189.7231,26.4204 Z " fill="#000000"/><text fill="#000000" font-family="sans-serif" font-size="14" lengthAdjust="spacing" textLength="135" x="207.75" y="28.291">FinnDispensasjoner</text><line style="stroke:#181818;stroke-width:0.5;" x1="143" x2="375" y1="39" y2="39"/><ellipse cx="153" cy="52.7441" fill="none" rx="3" ry="3" style="stroke:#038048;stroke-width:1.0;"/><text fill="#000000" font-family="sans-serif" font-size="14" lengthAdjust="spacing" textLength="208" x="162" y="56.5352">soekekriterier: soekekriterier[]</text><line style="stroke:#181818;stroke-width:0.5;" x1="143" x2="375" y1="63.4883" y2="63.4883"/></g><!--class soekekriterier--><g id="elem_soekekriterier"><rect codeLine="6" fill="#F1F1F1" height="97.4648" id="soekekriterier" rx="2.5" ry="2.5" style="stroke:#181818;stroke-width:0.5;" width="193" x="162.5" y="131.49"/><ellipse cx="207.25" cy="147.49" fill="#ADD1B2" rx="11" ry="11" style="stroke:#181818;stroke-width:1.0;"/><path d="M209.7231,153.6331 Q209.1421,153.9319 208.5029,154.0813 Q207.8638,154.2307 207.1582,154.2307 Q204.6514,154.2307 203.3315,152.5789 Q202.0117,150.927 202.0117,147.8059 Q202.0117,144.6765 203.3315,143.0247 Q204.6514,141.3728 207.1582,141.3728 Q207.8638,141.3728 208.5112,141.5222 Q209.1587,141.6716 209.7231,141.9705 L209.7231,144.6931 Q209.0923,144.1121 208.4988,143.8423 Q207.9053,143.5725 207.2744,143.5725 Q205.9297,143.5725 205.2449,144.6392 Q204.5601,145.7058 204.5601,147.8059 Q204.5601,149.8977 205.2449,150.9644 Q205.9297,152.031 207.2744,152.031 Q207.9053,152.031 208.4988,151.7612 Q209.0923,151.4915 209.7231,150.9104 Z " fill="#000000"/><text fill="#000000" font-family="sans-serif" font-size="14" lengthAdjust="spacing" textLength="95" x="227.75" y="152.781">soekekriterier</text><line style="stroke:#181818;stroke-width:0.5;" x1="163.5" x2="354.5" y1="163.49" y2="163.49"/><ellipse cx="173.5" cy="177.2341" fill="none" rx="3" ry="3" style="stroke:#038048;stroke-width:1.0;"/><text fill="#000000" font-family="sans-serif" font-size="14" lengthAdjust="spacing" textLength="55" x="182.5" y="181.0252">felt: Felt</text><ellipse cx="173.5" cy="193.7224" fill="none" rx="3" ry="3" style="stroke:#038048;stroke-width:1.0;"/><text fill="#000000" font-family="sans-serif" font-size="14" lengthAdjust="spacing" textLength="130" x="182.5" y="197.5134">operator: Operator</text><ellipse cx="173.5" cy="210.2107" fill="none" rx="3" ry="3" style="stroke:#038048;stroke-width:1.0;"/><text fill="#000000" font-family="sans-serif" font-size="14" lengthAdjust="spacing" textLength="167" x="182.5" y="214.0017">parameterverdier: string</text><line style="stroke:#181818;stroke-width:0.5;" x1="163.5" x2="354.5" y1="220.9548" y2="220.9548"/></g><!--class Felt--><g id="elem_Felt"><rect codeLine="12" fill="#F1F1F1" height="245.8594" id="Felt" rx="2.5" ry="2.5" style="stroke:#181818;stroke-width:0.5;" width="280" x="7" y="288.95"/><ellipse cx="130.25" cy="304.95" fill="#EB937F" rx="11" ry="11" style="stroke:#181818;stroke-width:1.0;"/><path d="M133.8643,311.45 L126.1445,311.45 L126.1445,299.0569 L133.8643,299.0569 L133.8643,301.2151 L128.5933,301.2151 L128.5933,303.888 L133.3662,303.888 L133.3662,306.0462 L128.5933,306.0462 L128.5933,309.2918 L133.8643,309.2918 Z " fill="#000000"/><text fill="#000000" font-family="sans-serif" font-size="14" lengthAdjust="spacing" textLength="25" x="150.75" y="310.241">Felt</text><line style="stroke:#181818;stroke-width:0.5;" x1="8" x2="286" y1="320.95" y2="320.95"/><text fill="#000000" font-family="sans-serif" font-size="14" lengthAdjust="spacing" textLength="93" x="13" y="338.4852">identifikasjon</text><text fill="#000000" font-family="sans-serif" font-size="14" lengthAdjust="spacing" textLength="162" x="13" y="354.9734">dispensasjon.kodeverdi</text><text fill="#000000" font-family="sans-serif" font-size="14" lengthAdjust="spacing" textLength="268" x="13" y="371.4617">nasjonalArealplanId.kommunenummer</text><text fill="#000000" font-family="sans-serif" font-size="14" lengthAdjust="spacing" textLength="238" x="13" y="387.95">nasjonalArealplanId.fylkesnummer</text><text fill="#000000" font-family="sans-serif" font-size="14" lengthAdjust="spacing" textLength="205" x="13" y="404.4383">nasjonalArealplanId.landkode</text><text fill="#000000" font-family="sans-serif" font-size="14" lengthAdjust="spacing" textLength="264" x="13" y="420.9266">nasjonalArealplanId.planidentifikasjon</text><text fill="#000000" font-family="sans-serif" font-size="14" lengthAdjust="spacing" textLength="86" x="13" y="437.4148">begrunnelse</text><text fill="#000000" font-family="sans-serif" font-size="14" lengthAdjust="spacing" textLength="83" x="13" y="453.9031">vedtaksdato</text><text fill="#000000" font-family="sans-serif" font-size="14" lengthAdjust="spacing" textLength="76" x="13" y="470.3914">beskrivelse</text><text fill="#000000" font-family="sans-serif" font-size="14" lengthAdjust="spacing" textLength="150" x="13" y="486.8797">innvilgetDispensasjon</text><text fill="#000000" font-family="sans-serif" font-size="14" lengthAdjust="spacing" textLength="144" x="13" y="503.368">saksnummer.saksaar</text><text fill="#000000" font-family="sans-serif" font-size="14" lengthAdjust="spacing" textLength="227" x="13" y="519.8562">saksnummer.saksekvensnummer</text><line style="stroke:#181818;stroke-width:0.5;" x1="8" x2="286" y1="526.8094" y2="526.8094"/></g><!--class Operator--><g id="elem_Operator"><rect codeLine="27" fill="#F1F1F1" height="179.9063" id="Operator" rx="2.5" ry="2.5" style="stroke:#181818;stroke-width:0.5;" width="100" x="322" y="321.93"/><ellipse cx="339.7" cy="337.93" fill="#EB937F" rx="11" ry="11" style="stroke:#181818;stroke-width:1.0;"/><path d="M343.3143,344.43 L335.5945,344.43 L335.5945,332.0369 L343.3143,332.0369 L343.3143,334.1951 L338.0433,334.1951 L338.0433,336.868 L342.8162,336.868 L342.8162,339.0262 L338.0433,339.0262 L338.0433,342.2718 L343.3143,342.2718 Z " fill="#000000"/><text fill="#000000" font-family="sans-serif" font-size="14" lengthAdjust="spacing" textLength="62" x="354.3" y="343.221">Operator</text><line style="stroke:#181818;stroke-width:0.5;" x1="323" x2="421" y1="353.93" y2="353.93"/><text fill="#000000" font-family="sans-serif" font-size="14" lengthAdjust="spacing" textLength="38" x="328" y="371.4652">equal</text><text fill="#000000" font-family="sans-serif" font-size="14" lengthAdjust="spacing" textLength="61" x="328" y="387.9534">notequal</text><text fill="#000000" font-family="sans-serif" font-size="14" lengthAdjust="spacing" textLength="58" x="328" y="404.4417">between</text><text fill="#000000" font-family="sans-serif" font-size="14" lengthAdjust="spacing" textLength="57" x="328" y="420.93">lessthan</text><text fill="#000000" font-family="sans-serif" font-size="14" lengthAdjust="spacing" textLength="64" x="328" y="437.4183">lessequal</text><text fill="#000000" font-family="sans-serif" font-size="14" lengthAdjust="spacing" textLength="81" x="328" y="453.9066">greaterthan</text><text fill="#000000" font-family="sans-serif" font-size="14" lengthAdjust="spacing" textLength="88" x="328" y="470.3948">greaterequal</text><text fill="#000000" font-family="sans-serif" font-size="14" lengthAdjust="spacing" textLength="33" x="328" y="486.8831">inlist</text><line style="stroke:#181818;stroke-width:0.5;" x1="323" x2="421" y1="493.8362" y2="493.8362"/></g><!--link FinnDispensasjoner to soekekriterier--><g id="link_FinnDispensasjoner_soekekriterier"><path codeLine="38" d="M259,71.78 C259,89.32 259,111.51 259,131.16 " fill="none" id="FinnDispensasjoner-soekekriterier" style="stroke:#181818;stroke-width:1.0;"/></g><!--link soekekriterier to Felt--><g id="link_soekekriterier_Felt"><path codeLine="39" d="M235.52,229.36 C226.99,246.86 216.92,267.51 206.68,288.5 " fill="none" id="soekekriterier-Felt" style="stroke:#181818;stroke-width:1.0;"/></g><!--link soekekriterier to Operator--><g id="link_soekekriterier_Operator"><path codeLine="40" d="M282.69,229.36 C295.83,256.06 312.59,290.13 328.03,321.52 " fill="none" id="soekekriterier-Operator" style="stroke:#181818;stroke-width:1.0;"/></g><!--SRC=[XL9DJyCm3BttL_IEjX-m6z8qYHC_077mbjSIahebJeiGuh_Z9ltOnYPwI6E_vsV7zicJI7cmp7ih7LX8tbj6AB-BKhy7QU7WWeq85c5NNjelhyLFKPoInYKonrVmSLSUzCnsso5GR5NfURfbVqU16cZiW61ofXWirwC-k6-In2Hg3JZQohfKQtAPi-AthZL8CWdYv2J_642-yyHFHXbDq_Eeso3SPLLVta7-8UbfneHt2UFlHiL7rA5dXfSSEi14ScAq9HCksinXmNL2W_KrulcS4Y8QbelSZbUYSCiDDsZKz9YvgVCCfiRYeoUV7zB6rJWYVW8vcOT8VAFLM6crFbe7kA2JlH8iUojnJ7vZtpQRgmqghXPA2McD_hgNJVe5]--></g></svg>