<svg xmlns="http://www.w3.org/2000/svg" xmlns:xlink="http://www.w3.org/1999/xlink" contentStyleType="text/css" data-diagram-type="CLASS" height="541px" preserveAspectRatio="none" style="width:422px;height:541px;background:#FFFFFF;" version="1.1" viewBox="0 0 422 541" width="422px" zoomAndPan="magnify"><defs/><g><!--class FinnDispensasjoner--><g class="entity" data-entity="FinnDispensasjoner" data-source-line="2" data-uid="ent0002" id="entity_FinnDispensasjoner"><rect fill="#F1F1F1" height="64.4883" rx="2.5" ry="2.5" style="stroke:#181818;stroke-width:0.5;" width="231.5977" x="139.97" y="7"/><ellipse cx="185.0291" cy="23" fill="#ADD1B2" rx="11" ry="11" style="stroke:#181818;stroke-width:1;"/><path d="M187.5022,29.1431 Q186.9212,29.4419 186.282,29.5913 Q185.6429,29.7407 184.9373,29.7407 Q182.4304,29.7407 181.1106,28.0889 Q179.7908,26.437 179.7908,23.3159 Q179.7908,20.1865 181.1106,18.5347 Q182.4304,16.8828 184.9373,16.8828 Q185.6429,16.8828 186.2903,17.0322 Q186.9378,17.1816 187.5022,17.4805 L187.5022,20.2031 Q186.8714,19.6221 186.2779,19.3523 Q185.6844,19.0825 185.0535,19.0825 Q183.7088,19.0825 183.024,20.1492 Q182.3391,21.2158 182.3391,23.3159 Q182.3391,25.4077 183.024,26.4744 Q183.7088,27.541 185.0535,27.541 Q185.6844,27.541 186.2779,27.2712 Q186.8714,27.0015 187.5022,26.4204 Z " fill="#000000"/><text fill="#000000" font-family="sans-serif" font-size="14" lengthAdjust="spacing" textLength="132.9795" x="205.5291" y="28.291">FinnDispensasjoner</text><line style="stroke:#181818;stroke-width:0.5;" x1="140.97" x2="370.5677" y1="39" y2="39"/><ellipse cx="150.97" cy="52.7441" fill="none" rx="3" ry="3" style="stroke:#038048;stroke-width:1;"/><text fill="#000000" font-family="sans-serif" font-size="14" lengthAdjust="spacing" textLength="205.5977" x="159.97" y="56.5352">soekekriterier: soekekriterier[]</text><line style="stroke:#181818;stroke-width:0.5;" x1="140.97" x2="370.5677" y1="63.4883" y2="63.4883"/></g><!--class soekekriterier--><g class="entity" data-entity="soekekriterier" data-source-line="6" data-uid="ent0003" id="entity_soekekriterier"><rect fill="#F1F1F1" height="97.4648" rx="2.5" ry="2.5" style="stroke:#181818;stroke-width:0.5;" width="191.2246" x="160.16" y="131.49"/><ellipse cx="204.6141" cy="147.49" fill="#ADD1B2" rx="11" ry="11" style="stroke:#181818;stroke-width:1;"/><path d="M207.0872,153.6331 Q206.5062,153.9319 205.867,154.0813 Q205.2279,154.2307 204.5223,154.2307 Q202.0155,154.2307 200.6956,152.5789 Q199.3758,150.927 199.3758,147.8059 Q199.3758,144.6765 200.6956,143.0247 Q202.0155,141.3728 204.5223,141.3728 Q205.2279,141.3728 205.8753,141.5222 Q206.5228,141.6716 207.0872,141.9705 L207.0872,144.6931 Q206.4564,144.1121 205.8629,143.8423 Q205.2694,143.5725 204.6385,143.5725 Q203.2938,143.5725 202.609,144.6392 Q201.9242,145.7058 201.9242,147.8059 Q201.9242,149.8977 202.609,150.9644 Q203.2938,152.031 204.6385,152.031 Q205.2694,152.031 205.8629,151.7612 Q206.4564,151.4915 207.0872,150.9104 Z " fill="#000000"/><text fill="#000000" font-family="sans-serif" font-size="14" lengthAdjust="spacing" textLength="93.8164" x="225.1141" y="152.781">soekekriterier</text><line style="stroke:#181818;stroke-width:0.5;" x1="161.16" x2="350.3846" y1="163.49" y2="163.49"/><ellipse cx="171.16" cy="177.2341" fill="none" rx="3" ry="3" style="stroke:#038048;stroke-width:1;"/><text fill="#000000" font-family="sans-serif" font-size="14" lengthAdjust="spacing" textLength="55.6787" x="180.16" y="181.0252">felt: Felt</text><ellipse cx="171.16" cy="193.7224" fill="none" rx="3" ry="3" style="stroke:#038048;stroke-width:1;"/><text fill="#000000" font-family="sans-serif" font-size="14" lengthAdjust="spacing" textLength="127.6064" x="180.16" y="197.5134">operator: Operator</text><ellipse cx="171.16" cy="210.2107" fill="none" rx="3" ry="3" style="stroke:#038048;stroke-width:1;"/><text fill="#000000" font-family="sans-serif" font-size="14" lengthAdjust="spacing" textLength="165.2246" x="180.16" y="214.0017">parameterverdier: string</text><line style="stroke:#181818;stroke-width:0.5;" x1="161.16" x2="350.3846" y1="220.9548" y2="220.9548"/></g><!--class Felt--><g class="entity" data-entity="Felt" data-source-line="12" data-uid="ent0004" id="entity_Felt"><rect fill="#F1F1F1" height="245.8594" rx="2.5" ry="2.5" style="stroke:#181818;stroke-width:0.5;" width="275.5459" x="7" y="288.95"/><ellipse cx="128.2285" cy="304.95" fill="#EB937F" rx="11" ry="11" style="stroke:#181818;stroke-width:1;"/><path d="M131.8428,311.45 L124.123,311.45 L124.123,299.0569 L131.8428,299.0569 L131.8428,301.2151 L126.5718,301.2151 L126.5718,303.888 L131.3447,303.888 L131.3447,306.0462 L126.5718,306.0462 L126.5718,309.2918 L131.8428,309.2918 Z " fill="#000000"/><text fill="#000000" font-family="sans-serif" font-size="14" lengthAdjust="spacing" textLength="24.5889" x="148.7285" y="310.241">Felt</text><line style="stroke:#181818;stroke-width:0.5;" x1="8" x2="281.5459" y1="320.95" y2="320.95"/><text fill="#000000" font-family="sans-serif" font-size="14" lengthAdjust="spacing" textLength="92.4219" x="13" y="338.4852">identifikasjon</text><text fill="#000000" font-family="sans-serif" font-size="14" lengthAdjust="spacing" textLength="160.3027" x="13" y="354.9734">dispensasjon.kodeverdi</text><text fill="#000000" font-family="sans-serif" font-size="14" lengthAdjust="spacing" textLength="263.5459" x="13" y="371.4617">nasjonalArealplanId.kommunenummer</text><text fill="#000000" font-family="sans-serif" font-size="14" lengthAdjust="spacing" textLength="235.0742" x="13" y="387.95">nasjonalArealplanId.fylkesnummer</text><text fill="#000000" font-family="sans-serif" font-size="14" lengthAdjust="spacing" textLength="201.0723" x="13" y="404.4383">nasjonalArealplanId.landkode</text><text fill="#000000" font-family="sans-serif" font-size="14" lengthAdjust="spacing" textLength="260.1006" x="13" y="420.9266">nasjonalArealplanId.planidentifikasjon</text><text fill="#000000" font-family="sans-serif" font-size="14" lengthAdjust="spacing" textLength="83.918" x="13" y="437.4148">begrunnelse</text><text fill="#000000" font-family="sans-serif" font-size="14" lengthAdjust="spacing" textLength="82.5234" x="13" y="453.9031">vedtaksdato</text><text fill="#000000" font-family="sans-serif" font-size="14" lengthAdjust="spacing" textLength="75.7354" x="13" y="470.3914">beskrivelse</text><text fill="#000000" font-family="sans-serif" font-size="14" lengthAdjust="spacing" textLength="149.0508" x="13" y="486.8797">innvilgetDispensasjon</text><text fill="#000000" font-family="sans-serif" font-size="14" lengthAdjust="spacing" textLength="143.042" x="13" y="503.368">saksnummer.saksaar</text><text fill="#000000" font-family="sans-serif" font-size="14" lengthAdjust="spacing" textLength="225.75" x="13" y="519.8562">saksnummer.saksekvensnummer</text><line style="stroke:#181818;stroke-width:0.5;" x1="8" x2="281.5459" y1="526.8094" y2="526.8094"/></g><!--class Operator--><g class="entity" data-entity="Operator" data-source-line="27" data-uid="ent0005" id="entity_Operator"><rect fill="#F1F1F1" height="179.9063" rx="2.5" ry="2.5" style="stroke:#181818;stroke-width:0.5;" width="97.832" x="317.86" y="321.93"/><ellipse cx="335.2541" cy="337.93" fill="#EB937F" rx="11" ry="11" style="stroke:#181818;stroke-width:1;"/><path d="M338.8684,344.43 L331.1487,344.43 L331.1487,332.0369 L338.8684,332.0369 L338.8684,334.1951 L333.5974,334.1951 L333.5974,336.868 L338.3704,336.868 L338.3704,339.0262 L333.5974,339.0262 L333.5974,342.2718 L338.8684,342.2718 Z " fill="#000000"/><text fill="#000000" font-family="sans-serif" font-size="14" lengthAdjust="spacing" textLength="60.5117" x="349.7862" y="343.221">Operator</text><line style="stroke:#181818;stroke-width:0.5;" x1="318.86" x2="414.692" y1="353.93" y2="353.93"/><text fill="#000000" font-family="sans-serif" font-size="14" lengthAdjust="spacing" textLength="37.0781" x="323.86" y="371.4652">equal</text><text fill="#000000" font-family="sans-serif" font-size="14" lengthAdjust="spacing" textLength="59.6025" x="323.86" y="387.9534">notequal</text><text fill="#000000" font-family="sans-serif" font-size="14" lengthAdjust="spacing" textLength="56.9229" x="323.86" y="404.4417">between</text><text fill="#000000" font-family="sans-serif" font-size="14" lengthAdjust="spacing" textLength="56.4648" x="323.86" y="420.93">lessthan</text><text fill="#000000" font-family="sans-serif" font-size="14" lengthAdjust="spacing" textLength="63.1982" x="323.86" y="437.4183">lessequal</text><text fill="#000000" font-family="sans-serif" font-size="14" lengthAdjust="spacing" textLength="79.0986" x="323.86" y="453.9066">greaterthan</text><text fill="#000000" font-family="sans-serif" font-size="14" lengthAdjust="spacing" textLength="85.832" x="323.86" y="470.3948">greaterequal</text><text fill="#000000" font-family="sans-serif" font-size="14" lengthAdjust="spacing" textLength="33.2021" x="323.86" y="486.8831">inlist</text><line style="stroke:#181818;stroke-width:0.5;" x1="318.86" x2="414.692" y1="493.8362" y2="493.8362"/></g><!--link FinnDispensasjoner to soekekriterier--><g class="link" data-entity-1="FinnDispensasjoner" data-entity-2="soekekriterier" data-source-line="38" data-uid="lnk6" id="link_FinnDispensasjoner_soekekriterier"><path codeLine="38" d="M255.77,71.78 C255.77,89.32 255.77,111.51 255.77,131.16" fill="none" id="FinnDispensasjoner-soekekriterier" style="stroke:#181818;stroke-width:1;"/></g><!--link soekekriterier to Felt--><g class="link" data-entity-1="soekekriterier" data-entity-2="Felt" data-source-line="39" data-uid="lnk7" id="link_soekekriterier_Felt"><path codeLine="39" d="M232.5,229.36 C224.05,246.86 214.07,267.51 203.92,288.5" fill="none" id="soekekriterier-Felt" style="stroke:#181818;stroke-width:1;"/></g><!--link soekekriterier to Operator--><g class="link" data-entity-1="soekekriterier" data-entity-2="Operator" data-source-line="40" data-uid="lnk8" id="link_soekekriterier_Operator"><path codeLine="40" d="M279.04,229.36 C291.95,256.06 308.41,290.13 323.58,321.52" fill="none" id="soekekriterier-Operator" style="stroke:#181818;stroke-width:1;"/></g><!--SRC=[XL9DJyCm3BttL_IEjX-m6z8qYHC_077mbjSIahebJeiGuh_Z9ltOnYPwI6E_vsV7zicJI7cmp7ih7LX8tbj6AB-BKhy7QU7WWeq85c5NNjelhyLFKPoInYKonrVmSLSUzCnsso5GR5NfURfbVqU16cZiW61ofXWirwC-k6-In2Hg3JZQohfKQtAPi-AthZL8CWdYv2J_642-yyHFHXbDq_Eeso3SPLLVta7-8UbfneHt2UFlHiL7rA5dXfSSEi14ScAq9HCksinXmNL2W_KrulcS4Y8QbelSZbUYSCiDDsZKz9YvgVCCfiRYeoUV7zB6rJWYVW8vcOT8VAFLM6crFbe7kA2JlH8iUojnJ7vZtpQRgmqghXPA2McD_hgNJVe5]--></g></svg>