<?xml version="1.0" encoding="us-ascii" standalone="no"?><svg xmlns="http://www.w3.org/2000/svg" xmlns:xlink="http://www.w3.org/1999/xlink" contentStyleType="text/css" height="534px" preserveAspectRatio="none" style="width:902px;height:534px;background:#FFFFFF;" version="1.1" viewBox="0 0 902 534" width="902px" zoomAndPan="magnify"><defs/><g><!--class RegistrerPlanomraade--><g id="elem_RegistrerPlanomraade"><rect codeLine="2" fill="#F1F1F1" height="80.9766" id="RegistrerPlanomraade" rx="2.5" ry="2.5" style="stroke:#181818;stroke-width:0.5;" width="309" x="78.5" y="7"/><ellipse cx="152.75" cy="23" fill="#ADD1B2" rx="11" ry="11" style="stroke:#181818;stroke-width:1.0;"/><path d="M155.2231,29.1431 Q154.6421,29.4419 154.0029,29.5913 Q153.3638,29.7407 152.6582,29.7407 Q150.1514,29.7407 148.8315,28.0889 Q147.5117,26.437 147.5117,23.3159 Q147.5117,20.1865 148.8315,18.5347 Q150.1514,16.8828 152.6582,16.8828 Q153.3638,16.8828 154.0112,17.0322 Q154.6587,17.1816 155.2231,17.4805 L155.2231,20.2031 Q154.5923,19.6221 153.9988,19.3523 Q153.4053,19.0825 152.7744,19.0825 Q151.4297,19.0825 150.7449,20.1492 Q150.0601,21.2158 150.0601,23.3159 Q150.0601,25.4077 150.7449,26.4744 Q151.4297,27.541 152.7744,27.541 Q153.4053,27.541 153.9988,27.2712 Q154.5923,27.0015 155.2231,26.4204 Z " fill="#000000"/><text fill="#000000" font-family="sans-serif" font-size="14" lengthAdjust="spacing" textLength="152" x="173.25" y="28.291">RegistrerPlanomraade</text><line style="stroke:#181818;stroke-width:0.5;" x1="79.5" x2="386.5" y1="39" y2="39"/><ellipse cx="89.5" cy="52.7441" fill="none" rx="3" ry="3" style="stroke:#038048;stroke-width:1.0;"/><text fill="#000000" font-family="sans-serif" font-size="14" lengthAdjust="spacing" textLength="283" x="98.5" y="56.5352">nasjonalArealplanId: NasjonalArealplanId</text><ellipse cx="89.5" cy="69.2324" fill="none" rx="3" ry="3" style="stroke:#038048;stroke-width:1.0;"/><text fill="#000000" font-family="sans-serif" font-size="14" lengthAdjust="spacing" textLength="189" x="98.5" y="73.0234">planomraade: Planomraade</text><line style="stroke:#181818;stroke-width:0.5;" x1="79.5" x2="386.5" y1="79.9766" y2="79.9766"/></g><!--class Planomraade--><g id="elem_Planomraade"><rect codeLine="7" fill="#F1F1F1" height="80.9766" id="Planomraade" rx="2.5" ry="2.5" style="stroke:#181818;stroke-width:0.5;" width="208" x="129" y="147.97"/><ellipse cx="183.75" cy="163.97" fill="#ADD1B2" rx="11" ry="11" style="stroke:#181818;stroke-width:1.0;"/><path d="M186.2231,170.1131 Q185.6421,170.4119 185.0029,170.5613 Q184.3638,170.7107 183.6582,170.7107 Q181.1514,170.7107 179.8315,169.0589 Q178.5117,167.407 178.5117,164.2859 Q178.5117,161.1565 179.8315,159.5047 Q181.1514,157.8528 183.6582,157.8528 Q184.3638,157.8528 185.0112,158.0022 Q185.6587,158.1516 186.2231,158.4505 L186.2231,161.1731 Q185.5923,160.5921 184.9988,160.3223 Q184.4053,160.0525 183.7744,160.0525 Q182.4297,160.0525 181.7449,161.1192 Q181.0601,162.1858 181.0601,164.2859 Q181.0601,166.3777 181.7449,167.4444 Q182.4297,168.511 183.7744,168.511 Q184.4053,168.511 184.9988,168.2412 Q185.5923,167.9715 186.2231,167.3904 Z " fill="#000000"/><text fill="#000000" font-family="sans-serif" font-size="14" lengthAdjust="spacing" textLength="90" x="204.25" y="169.261">Planomraade</text><line style="stroke:#181818;stroke-width:0.5;" x1="130" x2="336" y1="179.97" y2="179.97"/><ellipse cx="140" cy="193.7141" fill="none" rx="3" ry="3" style="stroke:#038048;stroke-width:1.0;"/><text fill="#000000" font-family="sans-serif" font-size="14" lengthAdjust="spacing" textLength="132" x="149" y="197.5052">omraade: Omraade</text><ellipse cx="140" cy="210.2024" fill="none" rx="3" ry="3" style="stroke:#038048;stroke-width:1.0;"/><text fill="#000000" font-family="sans-serif" font-size="14" lengthAdjust="spacing" textLength="182" x="149" y="213.9934">vertikalnivaa: Vertikalnivaa</text><line style="stroke:#181818;stroke-width:0.5;" x1="130" x2="336" y1="220.9466" y2="220.9466"/></g><!--class Omraade--><g id="elem_Omraade"><rect codeLine="12" fill="#F1F1F1" height="80.9766" id="Omraade" rx="2.5" ry="2.5" style="stroke:#181818;stroke-width:0.5;" width="214" x="7" y="313.68"/><ellipse cx="78.25" cy="329.68" fill="#ADD1B2" rx="11" ry="11" style="stroke:#181818;stroke-width:1.0;"/><path d="M80.7231,335.8231 Q80.1421,336.1219 79.5029,336.2713 Q78.8638,336.4207 78.1582,336.4207 Q75.6514,336.4207 74.3315,334.7689 Q73.0117,333.117 73.0117,329.9959 Q73.0117,326.8665 74.3315,325.2147 Q75.6514,323.5628 78.1582,323.5628 Q78.8638,323.5628 79.5112,323.7122 Q80.1587,323.8616 80.7231,324.1605 L80.7231,326.8831 Q80.0923,326.3021 79.4988,326.0323 Q78.9053,325.7625 78.2744,325.7625 Q76.9297,325.7625 76.2449,326.8292 Q75.5601,327.8958 75.5601,329.9959 Q75.5601,332.0877 76.2449,333.1544 Q76.9297,334.221 78.2744,334.221 Q78.9053,334.221 79.4988,333.9512 Q80.0923,333.6815 80.7231,333.1004 Z " fill="#000000"/><text fill="#000000" font-family="sans-serif" font-size="14" lengthAdjust="spacing" textLength="63" x="98.75" y="334.971">Omraade</text><line style="stroke:#181818;stroke-width:0.5;" x1="8" x2="220" y1="345.68" y2="345.68"/><ellipse cx="18" cy="359.4241" fill="none" rx="3" ry="3" style="stroke:#038048;stroke-width:1.0;"/><text fill="#000000" font-family="sans-serif" font-size="14" lengthAdjust="spacing" textLength="154" x="27" y="363.2152">ytreAvgrensning: Flate</text><ellipse cx="18" cy="375.9124" fill="none" rx="3" ry="3" style="stroke:#038048;stroke-width:1.0;"/><text fill="#000000" font-family="sans-serif" font-size="14" lengthAdjust="spacing" textLength="188" x="27" y="379.7034">indreAvgrensninger: Flate[]</text><line style="stroke:#181818;stroke-width:0.5;" x1="8" x2="220" y1="386.6566" y2="386.6566"/></g><!--class Vertikalnivaa--><g id="elem_Vertikalnivaa"><rect codeLine="17" fill="#F1F1F1" height="130.4414" id="Vertikalnivaa" rx="2.5" ry="2.5" style="stroke:#181818;stroke-width:0.5;" width="191" x="256.5" y="288.95"/><ellipse cx="303.75" cy="304.95" fill="#EB937F" rx="11" ry="11" style="stroke:#181818;stroke-width:1.0;"/><path d="M307.3643,311.45 L299.6445,311.45 L299.6445,299.0569 L307.3643,299.0569 L307.3643,301.2151 L302.0933,301.2151 L302.0933,303.888 L306.8662,303.888 L306.8662,306.0462 L302.0933,306.0462 L302.0933,309.2918 L307.3643,309.2918 Z " fill="#000000"/><text fill="#000000" font-family="sans-serif" font-size="14" lengthAdjust="spacing" textLength="88" x="324.25" y="310.241">Vertikalnivaa</text><line style="stroke:#181818;stroke-width:0.5;" x1="257.5" x2="446.5" y1="320.95" y2="320.95"/><text fill="#000000" font-family="sans-serif" font-size="14" lengthAdjust="spacing" textLength="105" x="262.5" y="338.4852">Under grunnen</text><text fill="#000000" font-family="sans-serif" font-size="14" lengthAdjust="spacing" textLength="179" x="262.5" y="354.9734">P&#229; grunnen/vannoverflate</text><text fill="#000000" font-family="sans-serif" font-size="14" lengthAdjust="spacing" textLength="93" x="262.5" y="371.4617">I vannsoeylen</text><line style="stroke:#181818;stroke-width:0.5;" x1="257.5" x2="446.5" y1="378.4148" y2="378.4148"/><text fill="#000000" font-family="sans-serif" font-size="14" lengthAdjust="spacing" textLength="133" x="262.5" y="395.95">Over grunnen (bru)</text><text fill="#000000" font-family="sans-serif" font-size="14" lengthAdjust="spacing" textLength="155" x="262.5" y="412.4383">P&#229; bunnen (vann/sjoe)</text></g><!--class Flate--><g id="elem_Flate"><rect fill="#F1F1F1" height="48" id="Flate" rx="2.5" ry="2.5" style="stroke:#181818;stroke-width:0.5;" width="65" x="368.5" y="479.39"/><ellipse cx="383.5" cy="495.39" fill="#ADD1B2" rx="11" ry="11" style="stroke:#181818;stroke-width:1.0;"/><path d="M385.9731,501.5331 Q385.3921,501.8319 384.7529,501.9813 Q384.1138,502.1307 383.4082,502.1307 Q380.9014,502.1307 379.5815,500.4789 Q378.2617,498.827 378.2617,495.7059 Q378.2617,492.5765 379.5815,490.9247 Q380.9014,489.2728 383.4082,489.2728 Q384.1138,489.2728 384.7612,489.4222 Q385.4087,489.5716 385.9731,489.8705 L385.9731,492.5931 Q385.3423,492.0121 384.7488,491.7423 Q384.1553,491.4725 383.5244,491.4725 Q382.1797,491.4725 381.4949,492.5392 Q380.8101,493.6058 380.8101,495.7059 Q380.8101,497.7977 381.4949,498.8644 Q382.1797,499.931 383.5244,499.931 Q384.1553,499.931 384.7488,499.6612 Q385.3423,499.3915 385.9731,498.8104 Z " fill="#000000"/><text fill="#000000" font-family="sans-serif" font-size="14" lengthAdjust="spacing" textLength="33" x="397.5" y="500.681">Flate</text><line style="stroke:#181818;stroke-width:0.5;" x1="369.5" x2="432.5" y1="511.39" y2="511.39"/><line style="stroke:#181818;stroke-width:0.5;" x1="369.5" x2="432.5" y1="519.39" y2="519.39"/></g><g id="elem_GMN11"><path d="M482.5,341.51 L482.5,366.8205 A0,0 0 0 0 482.5,366.8205 L661.43,366.8205 L433.56,485.75 L669.43,366.8205 L895.5,366.8205 A0,0 0 0 0 895.5,366.8205 L895.5,351.51 L885.5,341.51 L482.5,341.51 A0,0 0 0 0 482.5,341.51 " fill="#FEFFDD" style="stroke:#181818;stroke-width:0.5;"/><path d="M885.5,341.51 L885.5,351.51 L895.5,351.51 L885.5,341.51 " fill="#FEFFDD" style="stroke:#181818;stroke-width:0.5;"/><text fill="#000000" font-family="sans-serif" font-size="13" lengthAdjust="spacing" textLength="392" x="488.5" y="359.0784">Se detaljer i diagram for skjema 'no.ks.fiks.plan.v2.felles.flate'</text></g><!--link RegistrerPlanomraade to Planomraade--><g id="link_RegistrerPlanomraade_Planomraade"><path codeLine="25" d="M233,88.31 C233,106.92 233,129.02 233,147.63 " fill="none" id="RegistrerPlanomraade-Planomraade" style="stroke:#181818;stroke-width:1.0;"/></g><!--link Planomraade to Omraade--><g id="link_Planomraade_Omraade"><path codeLine="26" d="M204.19,229.09 C185.62,254.64 161.55,287.75 142.95,313.34 " fill="none" id="Planomraade-Omraade" style="stroke:#181818;stroke-width:1.0;"/></g><!--link Planomraade to Vertikalnivaa--><g id="link_Planomraade_Vertikalnivaa"><path codeLine="27" d="M261.81,229.09 C274.81,246.97 290.5,268.56 305.13,288.68 " fill="none" id="Planomraade-Vertikalnivaa" style="stroke:#181818;stroke-width:1.0;"/></g><!--link Omraade to Flate--><g id="link_Omraade_Flate"><path codeLine="28" d="M191.68,395.09 C207.34,403.14 223.7,411.54 239,419.39 C283.71,442.33 335.37,468.79 368.11,485.55 " fill="none" id="Omraade-Flate" style="stroke:#181818;stroke-width:1.0;"/></g><!--SRC=[RL7BJiCm4BpxA_PM46egSSoj5wHUI0M22-AmhJUH4sSTsOwb2l4vV0a_XlCWQI0-MDgPtPbzd3Kw1qzKAESjsQD6DhL5b0GV0kAxOtIbOTHxIwYRo1za2e__mI6xcGLIk58JdqASUwyLYwaW6vDxD93rgaBDAY2cy7eTpdBPKkeIfzY7mX8xLboayA3HZuAAvO8aEz9lxvqUSLilNKRH5vPaeR0jCt6F7B-_VkDTG6OJUyqdeopCwN1piktjL7GQmQve5rT80tM03d26BZewn5vM3xBTBZRwXyhMuUNQifaO5YFOU09l6Z3v044ApmIIFEeopg50AYmirf0R2wuggKROi4agb-GgVjt5at2VvAGrHQpJs8WV]--></g></svg>