<svg xmlns="http://www.w3.org/2000/svg" xmlns:xlink="http://www.w3.org/1999/xlink" contentStyleType="text/css" data-diagram-type="CLASS" height="435px" preserveAspectRatio="none" style="width:415px;height:435px;background:#FFFFFF;" version="1.1" viewBox="0 0 415 435" width="415px" zoomAndPan="magnify"><defs/><g><!--class Dokument--><g class="entity" data-entity="Dokument" data-source-line="1" data-uid="ent0002" id="entity_Dokument"><rect fill="#F1F1F1" height="146.9297" rx="2.5" ry="2.5" style="stroke:#181818;stroke-width:0.5;" width="333.0908" x="41.23" y="131.49"/><ellipse cx="168.1494" cy="147.49" fill="#ADD1B2" rx="11" ry="11" style="stroke:#181818;stroke-width:1;"/><path d="M170.6226,153.6331 Q170.0415,153.9319 169.4024,154.0813 Q168.7632,154.2307 168.0576,154.2307 Q165.5508,154.2307 164.231,152.5789 Q162.9112,150.927 162.9112,147.8059 Q162.9112,144.6765 164.231,143.0247 Q165.5508,141.3728 168.0576,141.3728 Q168.7632,141.3728 169.4107,141.5222 Q170.0581,141.6716 170.6226,141.9705 L170.6226,144.6931 Q169.9917,144.1121 169.3982,143.8423 Q168.8047,143.5725 168.1738,143.5725 Q166.8291,143.5725 166.1443,144.6392 Q165.4595,145.7058 165.4595,147.8059 Q165.4595,149.8977 166.1443,150.9644 Q166.8291,152.031 168.1738,152.031 Q168.8047,152.031 169.3982,151.7612 Q169.9917,151.4915 170.6226,150.9104 Z " fill="#000000"/><text fill="#000000" font-family="sans-serif" font-size="14" lengthAdjust="spacing" textLength="70.752" x="188.6494" y="152.781">Dokument</text><line style="stroke:#181818;stroke-width:0.5;" x1="42.23" x2="373.3208" y1="163.49" y2="163.49"/><ellipse cx="52.23" cy="177.2341" fill="none" rx="3" ry="3" style="stroke:#038048;stroke-width:1;"/><text fill="#000000" font-family="sans-serif" font-size="14" lengthAdjust="spacing" textLength="80.0283" x="61.23" y="181.0252">tittel: string</text><ellipse cx="52.23" cy="193.7224" fill="none" rx="3" ry="3" style="stroke:#038048;stroke-width:1;"/><text fill="#000000" font-family="sans-serif" font-size="14" lengthAdjust="spacing" textLength="207.0127" x="61.23" y="197.5134">dokumenttype: Dokumenttype</text><ellipse cx="52.23" cy="210.2107" fill="none" rx="3" ry="3" style="stroke:#038048;stroke-width:1;"/><text fill="#000000" font-family="sans-serif" font-size="14" lengthAdjust="spacing" textLength="307.0908" x="61.23" y="214.0017">referanseDokumentfil: ReferanseDokumentfil</text><ellipse cx="52.23" cy="226.699" fill="none" rx="3" ry="3" style="stroke:#038048;stroke-width:1;"/><text fill="#000000" font-family="sans-serif" font-size="14" lengthAdjust="spacing" textLength="115.5752" x="61.23" y="230.49">mimetype: string</text><ellipse cx="52.23" cy="243.1873" fill="none" rx="3" ry="3" style="stroke:#038048;stroke-width:1;"/><text fill="#000000" font-family="sans-serif" font-size="14" lengthAdjust="spacing" textLength="145.0313" x="61.23" y="246.9783">dokumentsdato: date</text><ellipse cx="52.23" cy="259.6755" fill="none" rx="3" ry="3" style="stroke:#038048;stroke-width:1;"/><text fill="#000000" font-family="sans-serif" font-size="14" lengthAdjust="spacing" textLength="113.7158" x="61.23" y="263.4666">arkivnavn: string</text><line style="stroke:#181818;stroke-width:0.5;" x1="42.23" x2="373.3208" y1="270.4197" y2="270.4197"/></g><!--class Dokumenttype--><g class="entity" data-entity="Dokumenttype" data-source-line="10" data-uid="ent0003" id="entity_Dokumenttype"><rect fill="#F1F1F1" height="89.5977" rx="2.5" ry="2.5" style="stroke:#181818;stroke-width:0.5;" width="183.5547" x="7" y="338.42"/><ellipse cx="45.2383" cy="358.7305" fill="#ADD1B2" rx="11" ry="11" style="stroke:#181818;stroke-width:1;"/><path d="M47.7114,364.8736 Q47.1304,365.1724 46.4912,365.3219 Q45.8521,365.4713 45.1465,365.4713 Q42.6396,365.4713 41.3198,363.8194 Q40,362.1676 40,359.0465 Q40,355.9171 41.3198,354.2652 Q42.6396,352.6134 45.1465,352.6134 Q45.8521,352.6134 46.4995,352.7628 Q47.147,352.9122 47.7114,353.211 L47.7114,355.9337 Q47.0806,355.3526 46.4871,355.0828 Q45.8936,354.8131 45.2627,354.8131 Q43.918,354.8131 43.2332,355.8797 Q42.5483,356.9464 42.5483,359.0465 Q42.5483,361.1383 43.2332,362.2049 Q43.918,363.2716 45.2627,363.2716 Q45.8936,363.2716 46.4871,363.0018 Q47.0806,362.732 47.7114,362.151 Z " fill="#000000"/><text fill="#000000" font-family="sans-serif" font-size="12" font-style="italic" lengthAdjust="spacing" textLength="42.0176" x="93.3506" y="355.0216">&#171;Kode&#187;</text><text fill="#000000" font-family="sans-serif" font-size="14" lengthAdjust="spacing" textLength="99.9141" x="64.4023" y="371.088">Dokumenttype</text><line style="stroke:#181818;stroke-width:0.5;" x1="8" x2="189.5547" y1="379.0411" y2="379.0411"/><ellipse cx="18" cy="392.7852" fill="none" rx="3" ry="3" style="stroke:#038048;stroke-width:1;"/><text fill="#000000" font-family="sans-serif" font-size="14" lengthAdjust="spacing" textLength="115.4521" x="27" y="396.5762">kodeverdi: string</text><ellipse cx="18" cy="409.2735" fill="none" rx="3" ry="3" style="stroke:#038048;stroke-width:1;"/><text fill="#000000" font-family="sans-serif" font-size="14" lengthAdjust="spacing" textLength="157.5547" x="27" y="413.0645">kodebeskrivelse: string</text><line style="stroke:#181818;stroke-width:0.5;" x1="8" x2="189.5547" y1="420.0177" y2="420.0177"/></g><!--class ReferanseDokumentfil--><g class="entity" data-entity="ReferanseDokumentfil" data-source-line="11" data-uid="ent0005" id="entity_ReferanseDokumentfil"><rect fill="#F1F1F1" height="80.9766" rx="2.5" ry="2.5" style="stroke:#181818;stroke-width:0.5;" width="182.6777" x="225.44" y="342.73"/><ellipse cx="240.44" cy="358.73" fill="#ADD1B2" rx="11" ry="11" style="stroke:#181818;stroke-width:1;"/><path d="M242.9131,364.8731 Q242.3321,365.1719 241.6929,365.3213 Q241.0538,365.4707 240.3482,365.4707 Q237.8414,365.4707 236.5215,363.8189 Q235.2017,362.167 235.2017,359.0459 Q235.2017,355.9165 236.5215,354.2647 Q237.8414,352.6128 240.3482,352.6128 Q241.0538,352.6128 241.7012,352.7622 Q242.3487,352.9116 242.9131,353.2105 L242.9131,355.9331 Q242.2823,355.3521 241.6888,355.0823 Q241.0953,354.8125 240.4644,354.8125 Q239.1197,354.8125 238.4349,355.8792 Q237.7501,356.9458 237.7501,359.0459 Q237.7501,361.1377 238.4349,362.2044 Q239.1197,363.271 240.4644,363.271 Q241.0953,363.271 241.6888,363.0012 Q242.2823,362.7315 242.9131,362.1504 Z " fill="#000000"/><text fill="#000000" font-family="sans-serif" font-size="14" lengthAdjust="spacing" textLength="150.6777" x="254.44" y="364.021">ReferanseDokumentfil</text><line style="stroke:#181818;stroke-width:0.5;" x1="226.44" x2="407.1177" y1="374.73" y2="374.73"/><ellipse cx="236.44" cy="388.4741" fill="none" rx="3" ry="3" style="stroke:#038048;stroke-width:1;"/><text fill="#000000" font-family="sans-serif" font-size="14" lengthAdjust="spacing" textLength="61.2842" x="245.44" y="392.2652">id: string</text><ellipse cx="236.44" cy="404.9624" fill="none" rx="3" ry="3" style="stroke:#038048;stroke-width:1;"/><text fill="#000000" font-family="sans-serif" font-size="14" lengthAdjust="spacing" textLength="66.8896" x="245.44" y="408.7534">url: string</text><line style="stroke:#181818;stroke-width:0.5;" x1="226.44" x2="407.1177" y1="415.7066" y2="415.7066"/></g><!--class HentPlanforslagResultat--><g class="entity" data-entity="HentPlanforslagResultat" data-source-line="3" data-uid="ent0007" id="entity_HentPlanforslagResultat"><rect fill="#F1F1F1" height="64.4883" rx="2.5" ry="2.5" style="stroke:#181818;stroke-width:0.5;" width="226.6006" x="94.48" y="7"/><ellipse cx="124.1204" cy="23" fill="#ADD1B2" rx="11" ry="11" style="stroke:#181818;stroke-width:1;"/><path d="M126.5935,29.1431 Q126.0125,29.4419 125.3733,29.5913 Q124.7342,29.7407 124.0286,29.7407 Q121.5217,29.7407 120.2019,28.0889 Q118.8821,26.437 118.8821,23.3159 Q118.8821,20.1865 120.2019,18.5347 Q121.5217,16.8828 124.0286,16.8828 Q124.7342,16.8828 125.3816,17.0322 Q126.0291,17.1816 126.5935,17.4805 L126.5935,20.2031 Q125.9627,19.6221 125.3692,19.3523 Q124.7757,19.0825 124.1448,19.0825 Q122.8001,19.0825 122.1153,20.1492 Q121.4304,21.2158 121.4304,23.3159 Q121.4304,25.4077 122.1153,26.4744 Q122.8001,27.541 124.1448,27.541 Q124.7757,27.541 125.3692,27.2712 Q125.9627,27.0015 126.5935,26.4204 Z " fill="#000000"/><text fill="#000000" font-family="sans-serif" font-size="14" lengthAdjust="spacing" textLength="162.0664" x="141.3738" y="28.291">HentPlanforslagResultat</text><line style="stroke:#181818;stroke-width:0.5;" x1="95.48" x2="320.0806" y1="39" y2="39"/><ellipse cx="105.48" cy="52.7441" fill="none" rx="3" ry="3" style="stroke:#038048;stroke-width:1;"/><text fill="#000000" font-family="sans-serif" font-size="14" lengthAdjust="spacing" textLength="200.6006" x="114.48" y="56.5352">plandokumenter: Dokument[]</text><line style="stroke:#181818;stroke-width:0.5;" x1="95.48" x2="320.0806" y1="63.4883" y2="63.4883"/></g><!--link Dokument to Dokumenttype--><g class="link" data-entity-1="Dokument" data-entity-2="Dokumenttype" data-source-line="10" data-uid="lnk4" id="link_Dokument_Dokumenttype"><path codeLine="10" d="M162.81,278.67 C150.38,298.77 137.27,319.98 126.16,337.93" fill="none" id="Dokument-Dokumenttype" style="stroke:#181818;stroke-width:1;"/></g><!--link Dokument to ReferanseDokumentfil--><g class="link" data-entity-1="Dokument" data-entity-2="ReferanseDokumentfil" data-source-line="11" data-uid="lnk6" id="link_Dokument_ReferanseDokumentfil"><path codeLine="11" d="M252.74,278.67 C266.23,300.48 280.52,323.59 292.17,342.43" fill="none" id="Dokument-ReferanseDokumentfil" style="stroke:#181818;stroke-width:1;"/></g><!--link HentPlanforslagResultat to Dokument--><g class="link" data-entity-1="HentPlanforslagResultat" data-entity-2="Dokument" data-source-line="7" data-uid="lnk8" id="link_HentPlanforslagResultat_Dokument"><path codeLine="7" d="M207.78,71.81 C207.78,88.72 207.78,110.31 207.78,131.11" fill="none" id="HentPlanforslagResultat-Dokument" style="stroke:#181818;stroke-width:1;"/></g><!--SRC=[KypCIyufJKbLqDFNqzFFozVBBjPBomGI1Jc9UNfbHdffgJavgSLwAVdPfRcfUINwC8PUGIaNLt9EOd6nWWUG6m1KdfPVL9oJc1wKMboQKv9Oeb3DfG04sY2JOBfIYwmKNA3iw5YkMYukN9frTU4AkG00]--></g></svg>