<svg xmlns="http://www.w3.org/2000/svg" xmlns:xlink="http://www.w3.org/1999/xlink" contentStyleType="text/css" data-diagram-type="CLASS" height="409px" preserveAspectRatio="none" style="width:790px;height:409px;background:#FFFFFF;" version="1.1" viewBox="0 0 790 409" width="790px" zoomAndPan="magnify"><defs/><g><!--class NasjonalArealplanId--><g class="entity" data-entity="NasjonalArealplanId" data-source-line="1" data-uid="ent0002" id="entity_NasjonalArealplanId"><rect fill="#F1F1F1" height="80.9766" rx="2.5" ry="2.5" style="stroke:#181818;stroke-width:0.5;" width="290.3047" x="14.08" y="156.22"/><ellipse cx="87.1698" cy="172.22" fill="#ADD1B2" rx="11" ry="11" style="stroke:#181818;stroke-width:1;"/><path d="M89.643,178.3631 Q89.0619,178.6619 88.4228,178.8113 Q87.7836,178.9607 87.078,178.9607 Q84.5712,178.9607 83.2514,177.3089 Q81.9316,175.657 81.9316,172.5359 Q81.9316,169.4065 83.2514,167.7547 Q84.5712,166.1028 87.078,166.1028 Q87.7836,166.1028 88.4311,166.2522 Q89.0785,166.4016 89.643,166.7005 L89.643,169.4231 Q89.0121,168.8421 88.4186,168.5723 Q87.8251,168.3025 87.1943,168.3025 Q85.8495,168.3025 85.1647,169.3692 Q84.4799,170.4358 84.4799,172.5359 Q84.4799,174.6277 85.1647,175.6944 Q85.8495,176.761 87.1943,176.761 Q87.8251,176.761 88.4186,176.4912 Q89.0121,176.2215 89.643,175.6404 Z " fill="#000000"/><text fill="#000000" font-family="sans-serif" font-size="14" lengthAdjust="spacing" textLength="135.625" x="107.6698" y="177.511">NasjonalArealplanId</text><line style="stroke:#181818;stroke-width:0.5;" x1="15.08" x2="303.3847" y1="188.22" y2="188.22"/><ellipse cx="25.08" cy="201.9641" fill="none" rx="3" ry="3" style="stroke:#038048;stroke-width:1;"/><text fill="#000000" font-family="sans-serif" font-size="14" lengthAdjust="spacing" textLength="264.3047" x="34.08" y="205.7552">administrativEnhet: AdministrativEnhet</text><ellipse cx="25.08" cy="218.4524" fill="none" rx="3" ry="3" style="stroke:#038048;stroke-width:1;"/><text fill="#000000" font-family="sans-serif" font-size="14" lengthAdjust="spacing" textLength="170.126" x="34.08" y="222.2434">planidentifikasjon: string</text><line style="stroke:#181818;stroke-width:0.5;" x1="15.08" x2="303.3847" y1="229.1966" y2="229.1966"/></g><!--class AdministrativEnhet--><g class="entity" data-entity="AdministrativEnhet" data-source-line="6" data-uid="ent0003" id="entity_AdministrativEnhet"><rect fill="#F1F1F1" height="97.4648" rx="2.5" ry="2.5" style="stroke:#181818;stroke-width:0.5;" width="160.6865" x="78.88" y="305.45"/><ellipse cx="93.88" cy="321.45" fill="#EB937F" rx="11" ry="11" style="stroke:#181818;stroke-width:1;"/><path d="M97.4943,327.95 L89.7745,327.95 L89.7745,315.5569 L97.4943,315.5569 L97.4943,317.7151 L92.2233,317.7151 L92.2233,320.388 L96.9962,320.388 L96.9962,322.5462 L92.2233,322.5462 L92.2233,325.7918 L97.4943,325.7918 Z " fill="#000000"/><text fill="#000000" font-family="sans-serif" font-size="14" lengthAdjust="spacing" textLength="128.6865" x="107.88" y="326.741">AdministrativEnhet</text><line style="stroke:#181818;stroke-width:0.5;" x1="79.88" x2="238.5665" y1="337.45" y2="337.45"/><text fill="#000000" font-family="sans-serif" font-size="14" lengthAdjust="spacing" textLength="125.1455" x="84.88" y="354.9852">kommunenummer</text><text fill="#000000" font-family="sans-serif" font-size="14" lengthAdjust="spacing" textLength="96.6738" x="84.88" y="371.4734">fylkesnummer</text><text fill="#000000" font-family="sans-serif" font-size="14" lengthAdjust="spacing" textLength="69.8086" x="84.88" y="387.9617">landskode</text><line style="stroke:#181818;stroke-width:0.5;" x1="79.88" x2="238.5665" y1="394.9148" y2="394.9148"/></g><!--class HentPlanforslag--><g class="entity" data-entity="HentPlanforslag" data-source-line="3" data-uid="ent0005" id="entity_HentPlanforslag"><rect fill="#F1F1F1" height="80.9766" rx="2.5" ry="2.5" style="stroke:#181818;stroke-width:0.5;" width="304.4551" x="7" y="7"/><ellipse cx="101.3086" cy="23" fill="#ADD1B2" rx="11" ry="11" style="stroke:#181818;stroke-width:1;"/><path d="M103.7817,29.1431 Q103.2007,29.4419 102.5615,29.5913 Q101.9224,29.7407 101.2168,29.7407 Q98.71,29.7407 97.3901,28.0889 Q96.0703,26.437 96.0703,23.3159 Q96.0703,20.1865 97.3901,18.5347 Q98.71,16.8828 101.2168,16.8828 Q101.9224,16.8828 102.5698,17.0322 Q103.2173,17.1816 103.7817,17.4805 L103.7817,20.2031 Q103.1509,19.6221 102.5574,19.3523 Q101.9639,19.0825 101.333,19.0825 Q99.9883,19.0825 99.3035,20.1492 Q98.6187,21.2158 98.6187,23.3159 Q98.6187,25.4077 99.3035,26.4744 Q99.9883,27.541 101.333,27.541 Q101.9639,27.541 102.5574,27.2712 Q103.1509,27.0015 103.7817,26.4204 Z " fill="#000000"/><text fill="#000000" font-family="sans-serif" font-size="14" lengthAdjust="spacing" textLength="107.3379" x="121.8086" y="28.291">HentPlanforslag</text><line style="stroke:#181818;stroke-width:0.5;" x1="8" x2="310.4551" y1="39" y2="39"/><ellipse cx="18" cy="52.7441" fill="none" rx="3" ry="3" style="stroke:#038048;stroke-width:1;"/><text fill="#000000" font-family="sans-serif" font-size="14" lengthAdjust="spacing" textLength="278.4551" x="27" y="56.5352">nasjonalArealplanId: NasjonalArealplanId</text><ellipse cx="18" cy="69.2324" fill="none" rx="3" ry="3" style="stroke:#038048;stroke-width:1;"/><text fill="#000000" font-family="sans-serif" font-size="14" lengthAdjust="spacing" textLength="137.7715" x="27" y="73.0234">alternativ: Alternativ</text><line style="stroke:#181818;stroke-width:0.5;" x1="8" x2="310.4551" y1="79.9766" y2="79.9766"/></g><!--class Alternativ--><g class="entity" data-entity="Alternativ" data-source-line="8" data-uid="ent0006" id="entity_Alternativ"><rect fill="#F1F1F1" height="97.4648" rx="2.5" ry="2.5" style="stroke:#181818;stroke-width:0.5;" width="97.4199" x="427.52" y="147.98"/><ellipse cx="442.52" cy="163.98" fill="#ADD1B2" rx="11" ry="11" style="stroke:#181818;stroke-width:1;"/><path d="M444.9931,170.1231 Q444.4121,170.4219 443.7729,170.5713 Q443.1338,170.7207 442.4282,170.7207 Q439.9214,170.7207 438.6015,169.0689 Q437.2817,167.417 437.2817,164.2959 Q437.2817,161.1665 438.6015,159.5147 Q439.9214,157.8628 442.4282,157.8628 Q443.1338,157.8628 443.7812,158.0122 Q444.4287,158.1616 444.9931,158.4605 L444.9931,161.1831 Q444.3623,160.6021 443.7688,160.3323 Q443.1753,160.0625 442.5444,160.0625 Q441.1997,160.0625 440.5149,161.1292 Q439.8301,162.1958 439.8301,164.2959 Q439.8301,166.3877 440.5149,167.4544 Q441.1997,168.521 442.5444,168.521 Q443.1753,168.521 443.7688,168.2512 Q444.3623,167.9815 444.9931,167.4004 Z " fill="#000000"/><text fill="#000000" font-family="sans-serif" font-size="14" lengthAdjust="spacing" textLength="65.4199" x="456.52" y="169.271">Alternativ</text><line style="stroke:#181818;stroke-width:0.5;" x1="428.52" x2="523.9399" y1="179.98" y2="179.98"/><text fill="#000000" font-family="sans-serif" font-size="14" lengthAdjust="spacing" textLength="80.7803" x="433.52" y="197.5152">navn: string</text><text fill="#000000" font-family="sans-serif" font-size="14" lengthAdjust="spacing" textLength="61.2842" x="433.52" y="214.0034">id: string</text><text fill="#000000" font-family="sans-serif" font-size="14" lengthAdjust="spacing" textLength="76.2891" x="433.52" y="230.4917">versjon: int</text><line style="stroke:#181818;stroke-width:0.5;" x1="428.52" x2="523.9399" y1="237.4448" y2="237.4448"/></g><g class="entity" data-entity="GMN7" data-source-line="15" data-uid="ent0008" id="entity_GMN7"><path d="M346.91,11.87 L346.91,83.1122 A0,0 0 0 0 346.91,83.1122 L540.14,83.1122 L505.25,147.71 L548.14,83.1122 L783.5545,83.1122 A0,0 0 0 0 783.5545,83.1122 L783.5545,21.87 L773.5545,11.87 L346.91,11.87 A0,0 0 0 0 346.91,11.87" fill="#FEFFDD" style="stroke:#181818;stroke-width:0.5;"/><path d="M773.5545,11.87 L773.5545,21.87 L783.5545,21.87 L773.5545,11.87" fill="#FEFFDD" style="stroke:#181818;stroke-width:0.5;"/><text fill="#000000" font-family="sans-serif" font-size="13" lengthAdjust="spacing" textLength="331.2651" x="352.91" y="29.4384">Vi har ikke Alternativ som noen entitet andre steder.</text><text fill="#000000" font-family="sans-serif" font-size="13" lengthAdjust="spacing" textLength="415.6445" x="352.91" y="44.7489">Bortsett fra "alternativFinnes" som boolean for Arealplan objektet.</text><text fill="#000000" font-family="sans-serif" font-size="13" lengthAdjust="spacing" textLength="365.9487" x="352.91" y="60.0595">Burde det v&#230;re noe man registrerer andre steder enn her?</text><text fill="#000000" font-family="sans-serif" font-size="13" lengthAdjust="spacing" textLength="336.1211" x="352.91" y="75.37">B&#248;r det ha en id som man f&#229;r tilbake fra Planregister?</text></g><!--link NasjonalArealplanId to AdministrativEnhet--><g class="link" data-entity-1="NasjonalArealplanId" data-entity-2="AdministrativEnhet" data-source-line="6" data-uid="lnk4" id="link_NasjonalArealplanId_AdministrativEnhet"><path codeLine="6" d="M159.23,237.35 C159.23,257.95 159.23,283.29 159.23,305.01" fill="none" id="NasjonalArealplanId-AdministrativEnhet" style="stroke:#181818;stroke-width:1;"/></g><!--link HentPlanforslag to Alternativ--><g class="link" data-entity-1="HentPlanforslag" data-entity-2="Alternativ" data-source-line="21" data-uid="lnk10" id="link_HentPlanforslag_Alternativ"><path codeLine="21" d="M245.01,88.33 C303.5,115.5 378.86,150.5 427.37,173.02" fill="none" id="HentPlanforslag-Alternativ" style="stroke:#181818;stroke-width:1;"/></g><!--link HentPlanforslag to NasjonalArealplanId--><g class="link" data-entity-1="HentPlanforslag" data-entity-2="NasjonalArealplanId" data-source-line="22" data-uid="lnk11" id="link_HentPlanforslag_NasjonalArealplanId"><path codeLine="22" d="M159.23,88.33 C159.23,109.28 159.23,134.89 159.23,155.84" fill="none" id="HentPlanforslag-NasjonalArealplanId" style="stroke:#181818;stroke-width:1;"/></g><!--SRC=[RL6xRiCm3Dpz5MpM8WhGqKkH3aMp59swCn6TA5QeW6Ay5FsSzXkwvyTAsNcsaG519dbt9Eyky2BkF86RE3VXvDhicc3NDYAxxi4r52DbnvZNYJ6Y4CQI2tvo8-QskwfQHCmPNeZrpO9DaXnn2HyLsBa_WgP7qCpNyFe_E5HZL1963LqDqzEx-ZoAd6C7ViQEQyWgWPTz8FYhtuwaIDKGM0iD9oNGj8NKN9BrjUy1LYWGsfOkSpbjW1Cns811IG7P2va8UH8tG9-IQ2PLQ0HXT9xYEJ1J7lKSyvGY8OCj24w3GvglgJLMD_3inBpn9jBjlqt4T65ZLKBBO5EHVLVorXF3YkJnqCR-Hthq2YrZk-Y52q6p_nBG4ETemvKcYrK3Quyczb1sKrL_VHoFBvsuaRrbvYy0]--></g></svg>