<svg xmlns="http://www.w3.org/2000/svg" xmlns:xlink="http://www.w3.org/1999/xlink" contentStyleType="text/css" data-diagram-type="CLASS" height="674px" preserveAspectRatio="none" style="width:1519px;height:674px;background:#FFFFFF;" version="1.1" viewBox="0 0 1519 674" width="1519px" zoomAndPan="magnify"><defs/><g><!--class Saksnummer--><g class="entity" data-entity="Saksnummer" data-source-line="2" data-uid="ent0002" id="entity_Saksnummer"><rect fill="#F1F1F1" height="80.9766" rx="2.5" ry="2.5" style="stroke:#181818;stroke-width:0.5;" width="224.1123" x="7" y="404.37"/><ellipse cx="70.9878" cy="420.37" fill="#ADD1B2" rx="11" ry="11" style="stroke:#181818;stroke-width:1;"/><path d="M73.4609,426.5131 Q72.8799,426.8119 72.2407,426.9613 Q71.6016,427.1107 70.896,427.1107 Q68.3892,427.1107 67.0693,425.4589 Q65.7495,423.807 65.7495,420.6859 Q65.7495,417.5565 67.0693,415.9047 Q68.3892,414.2528 70.896,414.2528 Q71.6016,414.2528 72.249,414.4022 Q72.8965,414.5516 73.4609,414.8505 L73.4609,417.5731 Q72.8301,416.9921 72.2366,416.7223 Q71.6431,416.4525 71.0122,416.4525 Q69.6675,416.4525 68.9827,417.5192 Q68.2979,418.5858 68.2979,420.6859 Q68.2979,422.7777 68.9827,423.8444 Q69.6675,424.911 71.0122,424.911 Q71.6431,424.911 72.2366,424.6412 Q72.8301,424.3715 73.4609,423.7904 Z " fill="#000000"/><text fill="#000000" font-family="sans-serif" font-size="14" lengthAdjust="spacing" textLength="87.6367" x="91.4878" y="425.661">Saksnummer</text><line style="stroke:#181818;stroke-width:0.5;" x1="8" x2="230.1123" y1="436.37" y2="436.37"/><ellipse cx="18" cy="450.1141" fill="none" rx="3" ry="3" style="stroke:#038048;stroke-width:1;"/><text fill="#000000" font-family="sans-serif" font-size="14" lengthAdjust="spacing" textLength="108.2676" x="27" y="453.9052">saksaar: integer</text><ellipse cx="18" cy="466.6024" fill="none" rx="3" ry="3" style="stroke:#038048;stroke-width:1;"/><text fill="#000000" font-family="sans-serif" font-size="14" lengthAdjust="spacing" textLength="198.1123" x="27" y="470.3934">sakssekvensnummer: integer</text><line style="stroke:#181818;stroke-width:0.5;" x1="8" x2="230.1123" y1="477.3466" y2="477.3466"/></g><!--class Posisjon--><g class="entity" data-entity="Posisjon" data-source-line="1" data-uid="ent0003" id="entity_Posisjon"><rect fill="#F1F1F1" height="97.4648" rx="2.5" ry="2.5" style="stroke:#181818;stroke-width:0.5;" width="262.4551" x="265.83" y="396.13"/><ellipse cx="364.705" cy="412.13" fill="#ADD1B2" rx="11" ry="11" style="stroke:#181818;stroke-width:1;"/><path d="M367.1781,418.2731 Q366.5971,418.5719 365.9579,418.7213 Q365.3188,418.8707 364.6132,418.8707 Q362.1064,418.8707 360.7865,417.2189 Q359.4667,415.567 359.4667,412.4459 Q359.4667,409.3165 360.7865,407.6647 Q362.1064,406.0128 364.6132,406.0128 Q365.3188,406.0128 365.9662,406.1622 Q366.6137,406.3116 367.1781,406.6105 L367.1781,409.3331 Q366.5473,408.7521 365.9538,408.4823 Q365.3603,408.2125 364.7294,408.2125 Q363.3847,408.2125 362.6999,409.2792 Q362.0151,410.3458 362.0151,412.4459 Q362.0151,414.5377 362.6999,415.6044 Q363.3847,416.671 364.7294,416.671 Q365.3603,416.671 365.9538,416.4012 Q366.5473,416.1315 367.1781,415.5504 Z " fill="#000000"/><text fill="#000000" font-family="sans-serif" font-size="14" lengthAdjust="spacing" textLength="56.2051" x="385.205" y="417.421">Posisjon</text><line style="stroke:#181818;stroke-width:0.5;" x1="266.83" x2="527.2851" y1="428.13" y2="428.13"/><ellipse cx="276.83" cy="441.8741" fill="none" rx="3" ry="3" style="stroke:#038048;stroke-width:1;"/><text fill="#000000" font-family="sans-serif" font-size="14" lengthAdjust="spacing" textLength="127.0049" x="285.83" y="445.6652">type: PosisjonType</text><ellipse cx="276.83" cy="458.3624" fill="none" rx="3" ry="3" style="stroke:#038048;stroke-width:1;"/><text fill="#000000" font-family="sans-serif" font-size="14" lengthAdjust="spacing" textLength="149.9053" x="285.83" y="462.1534">koordinater: number[]</text><ellipse cx="276.83" cy="474.8507" fill="none" rx="3" ry="3" style="stroke:#038048;stroke-width:1;"/><text fill="#000000" font-family="sans-serif" font-size="14" lengthAdjust="spacing" textLength="236.4551" x="285.83" y="478.6417">koordinatsystem: Koordinatsystem</text><line style="stroke:#181818;stroke-width:0.5;" x1="266.83" x2="527.2851" y1="485.5948" y2="485.5948"/></g><!--class Koordinatsystem--><g class="entity" data-entity="Koordinatsystem" data-source-line="7" data-uid="ent0004" id="entity_Koordinatsystem"><rect fill="#F1F1F1" height="89.5977" rx="2.5" ry="2.5" style="stroke:#181818;stroke-width:0.5;" width="183.5547" x="154.28" y="578.32"/><ellipse cx="186.0552" cy="598.6305" fill="#ADD1B2" rx="11" ry="11" style="stroke:#181818;stroke-width:1;"/><path d="M188.5284,604.7736 Q187.9473,605.0724 187.3082,605.2219 Q186.669,605.3713 185.9634,605.3713 Q183.4566,605.3713 182.1368,603.7194 Q180.817,602.0676 180.817,598.9465 Q180.817,595.8171 182.1368,594.1652 Q183.4566,592.5134 185.9634,592.5134 Q186.669,592.5134 187.3165,592.6628 Q187.9639,592.8122 188.5284,593.111 L188.5284,595.8337 Q187.8975,595.2526 187.304,594.9828 Q186.7105,594.7131 186.0797,594.7131 Q184.7349,594.7131 184.0501,595.7797 Q183.3653,596.8464 183.3653,598.9465 Q183.3653,601.0383 184.0501,602.1049 Q184.7349,603.1716 186.0797,603.1716 Q186.7105,603.1716 187.304,602.9018 Q187.8975,602.632 188.5284,602.051 Z " fill="#000000"/><text fill="#000000" font-family="sans-serif" font-size="12" font-style="italic" lengthAdjust="spacing" textLength="42.0176" x="239.9125" y="594.9216">&#171;Kode&#187;</text><text fill="#000000" font-family="sans-serif" font-size="14" lengthAdjust="spacing" textLength="114.2764" x="203.7831" y="610.988">Koordinatsystem</text><line style="stroke:#181818;stroke-width:0.5;" x1="155.28" x2="336.8347" y1="618.9411" y2="618.9411"/><ellipse cx="165.28" cy="632.6852" fill="none" rx="3" ry="3" style="stroke:#038048;stroke-width:1;"/><text fill="#000000" font-family="sans-serif" font-size="14" lengthAdjust="spacing" textLength="115.4521" x="174.28" y="636.4762">kodeverdi: string</text><ellipse cx="165.28" cy="649.1735" fill="none" rx="3" ry="3" style="stroke:#038048;stroke-width:1;"/><text fill="#000000" font-family="sans-serif" font-size="14" lengthAdjust="spacing" textLength="157.5547" x="174.28" y="652.9645">kodebeskrivelse: string</text><line style="stroke:#181818;stroke-width:0.5;" x1="155.28" x2="336.8347" y1="659.9177" y2="659.9177"/></g><!--class PosisjonType--><g class="entity" data-entity="PosisjonType" data-source-line="8" data-uid="ent0006" id="entity_PosisjonType"><rect fill="#F1F1F1" height="64.4883" rx="2.5" ry="2.5" style="stroke:#181818;stroke-width:0.5;" width="120.9834" x="372.56" y="590.88"/><ellipse cx="387.56" cy="606.88" fill="#EB937F" rx="11" ry="11" style="stroke:#181818;stroke-width:1;"/><path d="M391.1743,613.38 L383.4545,613.38 L383.4545,600.9869 L391.1743,600.9869 L391.1743,603.1451 L385.9033,603.1451 L385.9033,605.818 L390.6762,605.818 L390.6762,607.9762 L385.9033,607.9762 L385.9033,611.2218 L391.1743,611.2218 Z " fill="#000000"/><text fill="#000000" font-family="sans-serif" font-size="14" lengthAdjust="spacing" textLength="88.9834" x="401.56" y="612.171">PosisjonType</text><line style="stroke:#181818;stroke-width:0.5;" x1="373.56" x2="492.5434" y1="622.88" y2="622.88"/><text fill="#000000" font-family="sans-serif" font-size="14" lengthAdjust="spacing" textLength="34.3096" x="378.56" y="640.4152">Point</text><line style="stroke:#181818;stroke-width:0.5;" x1="373.56" x2="492.5434" y1="647.3683" y2="647.3683"/></g><!--class Dokument--><g class="entity" data-entity="Dokument" data-source-line="1" data-uid="ent0008" id="entity_Dokument"><rect fill="#F1F1F1" height="146.9297" rx="2.5" ry="2.5" style="stroke:#181818;stroke-width:0.5;" width="333.0908" x="563.51" y="371.39"/><ellipse cx="690.4294" cy="387.39" fill="#ADD1B2" rx="11" ry="11" style="stroke:#181818;stroke-width:1;"/><path d="M692.9026,393.5331 Q692.3215,393.8319 691.6824,393.9813 Q691.0432,394.1307 690.3376,394.1307 Q687.8308,394.1307 686.511,392.4789 Q685.1912,390.827 685.1912,387.7059 Q685.1912,384.5765 686.511,382.9247 Q687.8308,381.2728 690.3376,381.2728 Q691.0432,381.2728 691.6907,381.4222 Q692.3381,381.5716 692.9026,381.8705 L692.9026,384.5931 Q692.2717,384.0121 691.6782,383.7423 Q691.0847,383.4725 690.4538,383.4725 Q689.1091,383.4725 688.4243,384.5392 Q687.7395,385.6058 687.7395,387.7059 Q687.7395,389.7977 688.4243,390.8644 Q689.1091,391.931 690.4538,391.931 Q691.0847,391.931 691.6782,391.6612 Q692.2717,391.3915 692.9026,390.8104 Z " fill="#000000"/><text fill="#000000" font-family="sans-serif" font-size="14" lengthAdjust="spacing" textLength="70.752" x="710.9294" y="392.681">Dokument</text><line style="stroke:#181818;stroke-width:0.5;" x1="564.51" x2="895.6008" y1="403.39" y2="403.39"/><ellipse cx="574.51" cy="417.1341" fill="none" rx="3" ry="3" style="stroke:#038048;stroke-width:1;"/><text fill="#000000" font-family="sans-serif" font-size="14" lengthAdjust="spacing" textLength="80.0283" x="583.51" y="420.9252">tittel: string</text><ellipse cx="574.51" cy="433.6224" fill="none" rx="3" ry="3" style="stroke:#038048;stroke-width:1;"/><text fill="#000000" font-family="sans-serif" font-size="14" lengthAdjust="spacing" textLength="207.0127" x="583.51" y="437.4134">dokumenttype: Dokumenttype</text><ellipse cx="574.51" cy="450.1107" fill="none" rx="3" ry="3" style="stroke:#038048;stroke-width:1;"/><text fill="#000000" font-family="sans-serif" font-size="14" lengthAdjust="spacing" textLength="307.0908" x="583.51" y="453.9017">referanseDokumentfil: ReferanseDokumentfil</text><ellipse cx="574.51" cy="466.599" fill="none" rx="3" ry="3" style="stroke:#038048;stroke-width:1;"/><text fill="#000000" font-family="sans-serif" font-size="14" lengthAdjust="spacing" textLength="115.5752" x="583.51" y="470.39">mimetype: string</text><ellipse cx="574.51" cy="483.0873" fill="none" rx="3" ry="3" style="stroke:#038048;stroke-width:1;"/><text fill="#000000" font-family="sans-serif" font-size="14" lengthAdjust="spacing" textLength="145.0313" x="583.51" y="486.8783">dokumentsdato: date</text><ellipse cx="574.51" cy="499.5755" fill="none" rx="3" ry="3" style="stroke:#038048;stroke-width:1;"/><text fill="#000000" font-family="sans-serif" font-size="14" lengthAdjust="spacing" textLength="113.7158" x="583.51" y="503.3666">arkivnavn: string</text><line style="stroke:#181818;stroke-width:0.5;" x1="564.51" x2="895.6008" y1="510.3197" y2="510.3197"/></g><!--class Dokumenttype--><g class="entity" data-entity="Dokumenttype" data-source-line="10" data-uid="ent0009" id="entity_Dokumenttype"><rect fill="#F1F1F1" height="89.5977" rx="2.5" ry="2.5" style="stroke:#181818;stroke-width:0.5;" width="183.5547" x="601.28" y="578.32"/><ellipse cx="639.5183" cy="598.6305" fill="#ADD1B2" rx="11" ry="11" style="stroke:#181818;stroke-width:1;"/><path d="M641.9914,604.7736 Q641.4104,605.0724 640.7712,605.2219 Q640.1321,605.3713 639.4265,605.3713 Q636.9196,605.3713 635.5998,603.7194 Q634.28,602.0676 634.28,598.9465 Q634.28,595.8171 635.5998,594.1652 Q636.9196,592.5134 639.4265,592.5134 Q640.1321,592.5134 640.7795,592.6628 Q641.427,592.8122 641.9914,593.111 L641.9914,595.8337 Q641.3606,595.2526 640.7671,594.9828 Q640.1736,594.7131 639.5427,594.7131 Q638.198,594.7131 637.5132,595.7797 Q636.8283,596.8464 636.8283,598.9465 Q636.8283,601.0383 637.5132,602.1049 Q638.198,603.1716 639.5427,603.1716 Q640.1736,603.1716 640.7671,602.9018 Q641.3606,602.632 641.9914,602.051 Z " fill="#000000"/><text fill="#000000" font-family="sans-serif" font-size="12" font-style="italic" lengthAdjust="spacing" textLength="42.0176" x="687.6306" y="594.9216">&#171;Kode&#187;</text><text fill="#000000" font-family="sans-serif" font-size="14" lengthAdjust="spacing" textLength="99.9141" x="658.6823" y="610.988">Dokumenttype</text><line style="stroke:#181818;stroke-width:0.5;" x1="602.28" x2="783.8347" y1="618.9411" y2="618.9411"/><ellipse cx="612.28" cy="632.6852" fill="none" rx="3" ry="3" style="stroke:#038048;stroke-width:1;"/><text fill="#000000" font-family="sans-serif" font-size="14" lengthAdjust="spacing" textLength="115.4521" x="621.28" y="636.4762">kodeverdi: string</text><ellipse cx="612.28" cy="649.1735" fill="none" rx="3" ry="3" style="stroke:#038048;stroke-width:1;"/><text fill="#000000" font-family="sans-serif" font-size="14" lengthAdjust="spacing" textLength="157.5547" x="621.28" y="652.9645">kodebeskrivelse: string</text><line style="stroke:#181818;stroke-width:0.5;" x1="602.28" x2="783.8347" y1="659.9177" y2="659.9177"/></g><!--class ReferanseDokumentfil--><g class="entity" data-entity="ReferanseDokumentfil" data-source-line="11" data-uid="ent0011" id="entity_ReferanseDokumentfil"><rect fill="#F1F1F1" height="80.9766" rx="2.5" ry="2.5" style="stroke:#181818;stroke-width:0.5;" width="182.6777" x="819.72" y="582.63"/><ellipse cx="834.72" cy="598.63" fill="#ADD1B2" rx="11" ry="11" style="stroke:#181818;stroke-width:1;"/><path d="M837.1931,604.7731 Q836.6121,605.0719 835.9729,605.2213 Q835.3338,605.3707 834.6282,605.3707 Q832.1214,605.3707 830.8015,603.7189 Q829.4817,602.067 829.4817,598.9459 Q829.4817,595.8165 830.8015,594.1647 Q832.1214,592.5128 834.6282,592.5128 Q835.3338,592.5128 835.9812,592.6622 Q836.6287,592.8116 837.1931,593.1105 L837.1931,595.8331 Q836.5623,595.2521 835.9688,594.9823 Q835.3753,594.7125 834.7444,594.7125 Q833.3997,594.7125 832.7149,595.7792 Q832.0301,596.8458 832.0301,598.9459 Q832.0301,601.0377 832.7149,602.1044 Q833.3997,603.171 834.7444,603.171 Q835.3753,603.171 835.9688,602.9012 Q836.5623,602.6315 837.1931,602.0504 Z " fill="#000000"/><text fill="#000000" font-family="sans-serif" font-size="14" lengthAdjust="spacing" textLength="150.6777" x="848.72" y="603.921">ReferanseDokumentfil</text><line style="stroke:#181818;stroke-width:0.5;" x1="820.72" x2="1001.3977" y1="614.63" y2="614.63"/><ellipse cx="830.72" cy="628.3741" fill="none" rx="3" ry="3" style="stroke:#038048;stroke-width:1;"/><text fill="#000000" font-family="sans-serif" font-size="14" lengthAdjust="spacing" textLength="61.2842" x="839.72" y="632.1652">id: string</text><ellipse cx="830.72" cy="644.8624" fill="none" rx="3" ry="3" style="stroke:#038048;stroke-width:1;"/><text fill="#000000" font-family="sans-serif" font-size="14" lengthAdjust="spacing" textLength="66.8896" x="839.72" y="648.6534">url: string</text><line style="stroke:#181818;stroke-width:0.5;" x1="820.72" x2="1001.3977" y1="655.6066" y2="655.6066"/></g><!--class Planbehandling--><g class="entity" data-entity="Planbehandling" data-source-line="5" data-uid="ent0013" id="entity_Planbehandling"><rect fill="#F1F1F1" height="146.9297" rx="2.5" ry="2.5" style="stroke:#181818;stroke-width:0.5;" width="317.0264" x="571.54" y="164.46"/><ellipse cx="673.6792" cy="180.46" fill="#ADD1B2" rx="11" ry="11" style="stroke:#181818;stroke-width:1;"/><path d="M676.1523,186.6031 Q675.5713,186.9019 674.9321,187.0513 Q674.2929,187.2007 673.5874,187.2007 Q671.0805,187.2007 669.7607,185.5489 Q668.4409,183.897 668.4409,180.7759 Q668.4409,177.6465 669.7607,175.9947 Q671.0805,174.3428 673.5874,174.3428 Q674.2929,174.3428 674.9404,174.4922 Q675.5879,174.6416 676.1523,174.9405 L676.1523,177.6631 Q675.5214,177.0821 674.9279,176.8123 Q674.3344,176.5425 673.7036,176.5425 Q672.3588,176.5425 671.674,177.6092 Q670.9892,178.6758 670.9892,180.7759 Q670.9892,182.8677 671.674,183.9344 Q672.3588,185.001 673.7036,185.001 Q674.3344,185.001 674.9279,184.7312 Q675.5214,184.4615 676.1523,183.8804 Z " fill="#000000"/><text fill="#000000" font-family="sans-serif" font-size="14" lengthAdjust="spacing" textLength="104.248" x="694.1792" y="185.751">Planbehandling</text><line style="stroke:#181818;stroke-width:0.5;" x1="572.54" x2="887.5664" y1="196.46" y2="196.46"/><ellipse cx="582.54" cy="210.2041" fill="none" rx="3" ry="3" style="stroke:#038048;stroke-width:1;"/><text fill="#000000" font-family="sans-serif" font-size="14" lengthAdjust="spacing" textLength="122.3428" x="591.54" y="213.9952">posisjon: Posisjon</text><ellipse cx="582.54" cy="226.6924" fill="none" rx="3" ry="3" style="stroke:#038048;stroke-width:1;"/><text fill="#000000" font-family="sans-serif" font-size="14" lengthAdjust="spacing" textLength="68.8174" x="591.54" y="230.4834">dato: date</text><ellipse cx="582.54" cy="243.1807" fill="none" rx="3" ry="3" style="stroke:#038048;stroke-width:1;"/><text fill="#000000" font-family="sans-serif" font-size="14" lengthAdjust="spacing" textLength="183.7295" x="591.54" y="246.9717">saksnummer: Saksnummer</text><ellipse cx="582.54" cy="259.669" fill="none" rx="3" ry="3" style="stroke:#038048;stroke-width:1;"/><text fill="#000000" font-family="sans-serif" font-size="14" lengthAdjust="spacing" textLength="291.0264" x="591.54" y="263.46">planbehandlingstype: Planbehandlingstype</text><ellipse cx="582.54" cy="276.1573" fill="none" rx="3" ry="3" style="stroke:#038048;stroke-width:1;"/><text fill="#000000" font-family="sans-serif" font-size="14" lengthAdjust="spacing" textLength="80.7803" x="591.54" y="279.9483">navn: string</text><ellipse cx="582.54" cy="292.6455" fill="none" rx="3" ry="3" style="stroke:#038048;stroke-width:1;"/><text fill="#000000" font-family="sans-serif" font-size="14" lengthAdjust="spacing" textLength="200.6006" x="591.54" y="296.4366">plandokumenter: Dokument[]</text><line style="stroke:#181818;stroke-width:0.5;" x1="572.54" x2="887.5664" y1="303.3897" y2="303.3897"/></g><!--class Planbehandlingstype--><g class="entity" data-entity="Planbehandlingstype" data-source-line="16" data-uid="ent0016" id="entity_Planbehandlingstype"><rect fill="#F1F1F1" height="89.5977" rx="2.5" ry="2.5" style="stroke:#181818;stroke-width:0.5;" width="183.5547" x="931.28" y="400.06"/><ellipse cx="951.2335" cy="420.3705" fill="#ADD1B2" rx="11" ry="11" style="stroke:#181818;stroke-width:1;"/><path d="M953.7067,426.5136 Q953.1256,426.8124 952.4864,426.9619 Q951.8473,427.1113 951.1417,427.1113 Q948.6349,427.1113 947.3151,425.4594 Q945.9952,423.8076 945.9952,420.6865 Q945.9952,417.5571 947.3151,415.9052 Q948.6349,414.2534 951.1417,414.2534 Q951.8473,414.2534 952.4947,414.4028 Q953.1422,414.5522 953.7067,414.851 L953.7067,417.5737 Q953.0758,416.9926 952.4823,416.7228 Q951.8888,416.4531 951.2579,416.4531 Q949.9132,416.4531 949.2284,417.5197 Q948.5436,418.5864 948.5436,420.6865 Q948.5436,422.7783 949.2284,423.8449 Q949.9132,424.9116 951.2579,424.9116 Q951.8888,424.9116 952.4823,424.6418 Q953.0758,424.372 953.7067,423.791 Z " fill="#000000"/><text fill="#000000" font-family="sans-serif" font-size="12" font-style="italic" lengthAdjust="spacing" textLength="42.0176" x="1015.5989" y="416.6616">&#171;Kode&#187;</text><text fill="#000000" font-family="sans-serif" font-size="14" lengthAdjust="spacing" textLength="140.5469" x="966.3343" y="432.728">Planbehandlingstype</text><line style="stroke:#181818;stroke-width:0.5;" x1="932.28" x2="1113.8347" y1="440.6811" y2="440.6811"/><ellipse cx="942.28" cy="454.4252" fill="none" rx="3" ry="3" style="stroke:#038048;stroke-width:1;"/><text fill="#000000" font-family="sans-serif" font-size="14" lengthAdjust="spacing" textLength="115.4521" x="951.28" y="458.2162">kodeverdi: string</text><ellipse cx="942.28" cy="470.9135" fill="none" rx="3" ry="3" style="stroke:#038048;stroke-width:1;"/><text fill="#000000" font-family="sans-serif" font-size="14" lengthAdjust="spacing" textLength="157.5547" x="951.28" y="474.7045">kodebeskrivelse: string</text><line style="stroke:#181818;stroke-width:0.5;" x1="932.28" x2="1113.8347" y1="481.6577" y2="481.6577"/></g><!--class NasjonalArealplanId--><g class="entity" data-entity="NasjonalArealplanId" data-source-line="1" data-uid="ent0019" id="entity_NasjonalArealplanId"><rect fill="#F1F1F1" height="80.9766" rx="2.5" ry="2.5" style="stroke:#181818;stroke-width:0.5;" width="290.3047" x="1003.9" y="197.44"/><ellipse cx="1076.9898" cy="213.44" fill="#ADD1B2" rx="11" ry="11" style="stroke:#181818;stroke-width:1;"/><path d="M1079.463,219.5831 Q1078.8819,219.8819 1078.2428,220.0313 Q1077.6036,220.1807 1076.898,220.1807 Q1074.3912,220.1807 1073.0714,218.5289 Q1071.7516,216.877 1071.7516,213.7559 Q1071.7516,210.6265 1073.0714,208.9747 Q1074.3912,207.3228 1076.898,207.3228 Q1077.6036,207.3228 1078.2511,207.4722 Q1078.8985,207.6216 1079.463,207.9205 L1079.463,210.6431 Q1078.8321,210.0621 1078.2386,209.7923 Q1077.6451,209.5225 1077.0143,209.5225 Q1075.6695,209.5225 1074.9847,210.5892 Q1074.2999,211.6558 1074.2999,213.7559 Q1074.2999,215.8477 1074.9847,216.9144 Q1075.6695,217.981 1077.0143,217.981 Q1077.6451,217.981 1078.2386,217.7112 Q1078.8321,217.4415 1079.463,216.8604 Z " fill="#000000"/><text fill="#000000" font-family="sans-serif" font-size="14" lengthAdjust="spacing" textLength="135.625" x="1097.4898" y="218.731">NasjonalArealplanId</text><line style="stroke:#181818;stroke-width:0.5;" x1="1004.9" x2="1293.2047" y1="229.44" y2="229.44"/><ellipse cx="1014.9" cy="243.1841" fill="none" rx="3" ry="3" style="stroke:#038048;stroke-width:1;"/><text fill="#000000" font-family="sans-serif" font-size="14" lengthAdjust="spacing" textLength="264.3047" x="1023.9" y="246.9752">administrativEnhet: AdministrativEnhet</text><ellipse cx="1014.9" cy="259.6724" fill="none" rx="3" ry="3" style="stroke:#038048;stroke-width:1;"/><text fill="#000000" font-family="sans-serif" font-size="14" lengthAdjust="spacing" textLength="170.126" x="1023.9" y="263.4634">planidentifikasjon: string</text><line style="stroke:#181818;stroke-width:0.5;" x1="1004.9" x2="1293.2047" y1="270.4166" y2="270.4166"/></g><!--class AdministrativEnhet--><g class="entity" data-entity="AdministrativEnhet" data-source-line="6" data-uid="ent0020" id="entity_AdministrativEnhet"><rect fill="#F1F1F1" height="97.4648" rx="2.5" ry="2.5" style="stroke:#181818;stroke-width:0.5;" width="160.6865" x="1149.71" y="396.13"/><ellipse cx="1164.71" cy="412.13" fill="#EB937F" rx="11" ry="11" style="stroke:#181818;stroke-width:1;"/><path d="M1168.3243,418.63 L1160.6045,418.63 L1160.6045,406.2369 L1168.3243,406.2369 L1168.3243,408.3951 L1163.0533,408.3951 L1163.0533,411.068 L1167.8262,411.068 L1167.8262,413.2262 L1163.0533,413.2262 L1163.0533,416.4718 L1168.3243,416.4718 Z " fill="#000000"/><text fill="#000000" font-family="sans-serif" font-size="14" lengthAdjust="spacing" textLength="128.6865" x="1178.71" y="417.421">AdministrativEnhet</text><line style="stroke:#181818;stroke-width:0.5;" x1="1150.71" x2="1309.3965" y1="428.13" y2="428.13"/><text fill="#000000" font-family="sans-serif" font-size="14" lengthAdjust="spacing" textLength="125.1455" x="1155.71" y="445.6652">kommunenummer</text><text fill="#000000" font-family="sans-serif" font-size="14" lengthAdjust="spacing" textLength="96.6738" x="1155.71" y="462.1534">fylkesnummer</text><text fill="#000000" font-family="sans-serif" font-size="14" lengthAdjust="spacing" textLength="69.8086" x="1155.71" y="478.6417">landskode</text><line style="stroke:#181818;stroke-width:0.5;" x1="1150.71" x2="1309.3965" y1="485.5948" y2="485.5948"/></g><!--class RegistrerPlanbehandling--><g class="entity" data-entity="RegistrerPlanbehandling" data-source-line="4" data-uid="ent0022" id="entity_RegistrerPlanbehandling"><rect fill="#F1F1F1" height="97.4648" rx="2.5" ry="2.5" style="stroke:#181818;stroke-width:0.5;" width="304.4551" x="996.83" y="7"/><ellipse cx="1062.1542" cy="23" fill="#ADD1B2" rx="11" ry="11" style="stroke:#181818;stroke-width:1;"/><path d="M1064.6274,29.1431 Q1064.0463,29.4419 1063.4071,29.5913 Q1062.768,29.7407 1062.0624,29.7407 Q1059.5556,29.7407 1058.2358,28.0889 Q1056.9159,26.437 1056.9159,23.3159 Q1056.9159,20.1865 1058.2358,18.5347 Q1059.5556,16.8828 1062.0624,16.8828 Q1062.768,16.8828 1063.4154,17.0322 Q1064.0629,17.1816 1064.6274,17.4805 L1064.6274,20.2031 Q1063.9965,19.6221 1063.403,19.3523 Q1062.8095,19.0825 1062.1786,19.0825 Q1060.8339,19.0825 1060.1491,20.1492 Q1059.4643,21.2158 1059.4643,23.3159 Q1059.4643,25.4077 1060.1491,26.4744 Q1060.8339,27.541 1062.1786,27.541 Q1062.8095,27.541 1063.403,27.2712 Q1063.9965,27.0015 1064.6274,26.4204 Z " fill="#000000"/><text fill="#000000" font-family="sans-serif" font-size="14" lengthAdjust="spacing" textLength="165.3066" x="1082.6542" y="28.291">RegistrerPlanbehandling</text><line style="stroke:#181818;stroke-width:0.5;" x1="997.83" x2="1300.2851" y1="39" y2="39"/><ellipse cx="1007.83" cy="52.7441" fill="none" rx="3" ry="3" style="stroke:#038048;stroke-width:1;"/><text fill="#000000" font-family="sans-serif" font-size="14" lengthAdjust="spacing" textLength="278.4551" x="1016.83" y="56.5352">nasjonalArealplanId: NasjonalArealplanId</text><ellipse cx="1007.83" cy="69.2324" fill="none" rx="3" ry="3" style="stroke:#038048;stroke-width:1;"/><text fill="#000000" font-family="sans-serif" font-size="14" lengthAdjust="spacing" textLength="148.6748" x="1016.83" y="73.0234">planstatus: Planstatus</text><ellipse cx="1007.83" cy="85.7207" fill="none" rx="3" ry="3" style="stroke:#038048;stroke-width:1;"/><text fill="#000000" font-family="sans-serif" font-size="14" lengthAdjust="spacing" textLength="218.4287" x="1016.83" y="89.5117">planbehandling: Planbehandling</text><line style="stroke:#181818;stroke-width:0.5;" x1="997.83" x2="1300.2851" y1="96.4648" y2="96.4648"/></g><!--class Planstatus--><g class="entity" data-entity="Planstatus" data-source-line="10" data-uid="ent0023" id="entity_Planstatus"><rect fill="#F1F1F1" height="80.9766" rx="2.5" ry="2.5" style="stroke:#181818;stroke-width:0.5;" width="183.5547" x="1329.28" y="197.44"/><ellipse cx="1382.1218" cy="213.44" fill="#ADD1B2" rx="11" ry="11" style="stroke:#181818;stroke-width:1;"/><path d="M1384.5949,219.5831 Q1384.0139,219.8819 1383.3747,220.0313 Q1382.7356,220.1807 1382.03,220.1807 Q1379.5232,220.1807 1378.2033,218.5289 Q1376.8835,216.877 1376.8835,213.7559 Q1376.8835,210.6265 1378.2033,208.9747 Q1379.5232,207.3228 1382.03,207.3228 Q1382.7356,207.3228 1383.383,207.4722 Q1384.0305,207.6216 1384.5949,207.9205 L1384.5949,210.6431 Q1383.9641,210.0621 1383.3706,209.7923 Q1382.7771,209.5225 1382.1462,209.5225 Q1380.8015,209.5225 1380.1167,210.5892 Q1379.4319,211.6558 1379.4319,213.7559 Q1379.4319,215.8477 1380.1167,216.9144 Q1380.8015,217.981 1382.1462,217.981 Q1382.7771,217.981 1383.3706,217.7112 Q1383.9641,217.4415 1384.5949,216.8604 Z " fill="#000000"/><text fill="#000000" font-family="sans-serif" font-size="14" lengthAdjust="spacing" textLength="69.3711" x="1402.6218" y="218.731">Planstatus</text><line style="stroke:#181818;stroke-width:0.5;" x1="1330.28" x2="1511.8347" y1="229.44" y2="229.44"/><ellipse cx="1340.28" cy="243.1841" fill="none" rx="3" ry="3" style="stroke:#038048;stroke-width:1;"/><text fill="#000000" font-family="sans-serif" font-size="14" lengthAdjust="spacing" textLength="115.4521" x="1349.28" y="246.9752">kodeverdi: string</text><ellipse cx="1340.28" cy="259.6724" fill="none" rx="3" ry="3" style="stroke:#038048;stroke-width:1;"/><text fill="#000000" font-family="sans-serif" font-size="14" lengthAdjust="spacing" textLength="157.5547" x="1349.28" y="263.4634">kodebeskrivelse: string</text><line style="stroke:#181818;stroke-width:0.5;" x1="1330.28" x2="1511.8347" y1="270.4166" y2="270.4166"/></g><!--link Posisjon to Koordinatsystem--><g class="link" data-entity-1="Posisjon" data-entity-2="Koordinatsystem" data-source-line="7" data-uid="lnk5" id="link_Posisjon_Koordinatsystem"><path codeLine="7" d="M355.79,494.02 C333.35,520.22 305.79,552.39 283.9,577.94" fill="none" id="Posisjon-Koordinatsystem" style="stroke:#181818;stroke-width:1;"/></g><!--link Posisjon to PosisjonType--><g class="link" data-entity-1="Posisjon" data-entity-2="PosisjonType" data-source-line="8" data-uid="lnk7" id="link_Posisjon_PosisjonType"><path codeLine="8" d="M406.89,494.02 C413.16,524.7 421.1,563.58 426.58,590.42" fill="none" id="Posisjon-PosisjonType" style="stroke:#181818;stroke-width:1;"/></g><!--link Dokument to Dokumenttype--><g class="link" data-entity-1="Dokument" data-entity-2="Dokumenttype" data-source-line="10" data-uid="lnk10" id="link_Dokument_Dokumenttype"><path codeLine="10" d="M714.79,518.57 C710.57,538.67 706.12,559.88 702.35,577.83" fill="none" id="Dokument-Dokumenttype" style="stroke:#181818;stroke-width:1;"/></g><!--link Dokument to ReferanseDokumentfil--><g class="link" data-entity-1="Dokument" data-entity-2="ReferanseDokumentfil" data-source-line="11" data-uid="lnk12" id="link_Dokument_ReferanseDokumentfil"><path codeLine="11" d="M804.72,518.57 C827.12,540.38 850.85,563.49 870.2,582.33" fill="none" id="Dokument-ReferanseDokumentfil" style="stroke:#181818;stroke-width:1;"/></g><!--link Planbehandling to Posisjon--><g class="link" data-entity-1="Planbehandling" data-entity-2="Posisjon" data-source-line="14" data-uid="lnk14" id="link_Planbehandling_Posisjon"><path codeLine="14" d="M611.72,311.76 C566.38,339.65 515.84,370.76 475.19,395.78" fill="none" id="Planbehandling-Posisjon" style="stroke:#181818;stroke-width:1;"/></g><!--link Planbehandling to Saksnummer--><g class="link" data-entity-1="Planbehandling" data-entity-2="Saksnummer" data-source-line="15" data-uid="lnk15" id="link_Planbehandling_Saksnummer"><path codeLine="15" d="M571.09,272.31 C475.54,294.88 352.6,328.42 248.06,371.39 C226.08,380.43 203.14,392.39 182.81,403.99" fill="none" id="Planbehandling-Saksnummer" style="stroke:#181818;stroke-width:1;"/></g><!--link Planbehandling to Planbehandlingstype--><g class="link" data-entity-1="Planbehandling" data-entity-2="Planbehandlingstype" data-source-line="16" data-uid="lnk17" id="link_Planbehandling_Planbehandlingstype"><path codeLine="16" d="M834.18,311.76 C876.13,341.09 923.14,373.97 959.77,399.59" fill="none" id="Planbehandling-Planbehandlingstype" style="stroke:#181818;stroke-width:1;"/></g><!--link Planbehandling to Dokument--><g class="link" data-entity-1="Planbehandling" data-entity-2="Dokument" data-source-line="17" data-uid="lnk18" id="link_Planbehandling_Dokument"><path codeLine="17" d="M730.06,311.76 C730.06,330.97 730.06,351.7 730.06,370.92" fill="none" id="Planbehandling-Dokument" style="stroke:#181818;stroke-width:1;"/></g><!--link NasjonalArealplanId to AdministrativEnhet--><g class="link" data-entity-1="NasjonalArealplanId" data-entity-2="AdministrativEnhet" data-source-line="6" data-uid="lnk21" id="link_NasjonalArealplanId_AdministrativEnhet"><path codeLine="6" d="M1164.67,278.44 C1177.91,311.94 1196.95,360.09 1211.07,395.81" fill="none" id="NasjonalArealplanId-AdministrativEnhet" style="stroke:#181818;stroke-width:1;"/></g><!--link RegistrerPlanbehandling to NasjonalArealplanId--><g class="link" data-entity-1="RegistrerPlanbehandling" data-entity-2="NasjonalArealplanId" data-source-line="15" data-uid="lnk24" id="link_RegistrerPlanbehandling_NasjonalArealplanId"><path codeLine="15" d="M1149.06,104.55 C1149.06,133.43 1149.06,169.81 1149.06,197.12" fill="none" id="RegistrerPlanbehandling-NasjonalArealplanId" style="stroke:#181818;stroke-width:1;"/></g><!--link RegistrerPlanbehandling to Planstatus--><g class="link" data-entity-1="RegistrerPlanbehandling" data-entity-2="Planstatus" data-source-line="16" data-uid="lnk25" id="link_RegistrerPlanbehandling_Planstatus"><path codeLine="16" d="M1222.11,104.95 C1250.24,123.54 1282.65,144.97 1312.06,164.46 C1327.97,175.01 1345.17,186.44 1361.11,197.03" fill="none" id="RegistrerPlanbehandling-Planstatus" style="stroke:#181818;stroke-width:1;"/></g><!--link RegistrerPlanbehandling to Planbehandling--><g class="link" data-entity-1="RegistrerPlanbehandling" data-entity-2="Planbehandling" data-source-line="17" data-uid="lnk26" id="link_RegistrerPlanbehandling_Planbehandling"><path codeLine="17" d="M1037.05,104.9 C991.59,124.45 938.26,147.39 888.92,168.61" fill="none" id="RegistrerPlanbehandling-Planbehandling" style="stroke:#181818;stroke-width:1;"/></g><!--SRC=[ZKyx3eCm3DrpYZ1N9597jevTAjGR169eYXLG32nLxruY508g_MI8RB-FdnDZInmqS265aBOL3OdAJ5-7oehnA2f0XBajuAQiHcDhkMr5Dx3aJoEhwDvQXSg1GeyPBNTctfALg8Zu5Mf3lGENRvRo1-FJEmJnAOZFEkENz-7CzZNrgXyeu_bIHopwptZisJC4YhgGeMarZE2qoVYKr9ENSG7KE3C24YpWvFJfg3JTpVw5lhhY1sjromi0]--></g></svg>