<svg xmlns="http://www.w3.org/2000/svg" xmlns:xlink="http://www.w3.org/1999/xlink" contentStyleType="text/css" height="674px" preserveAspectRatio="none" style="width:1526px;height:674px;background:#FFFFFF;" version="1.1" viewBox="0 0 1526 674" width="1526px" zoomAndPan="magnify"><defs/><g><!--class Saksnummer--><g id="elem_Saksnummer"><rect codeLine="2" fill="#F1F1F1" height="80.9766" id="Saksnummer" rx="2.5" ry="2.5" style="stroke:#181818;stroke-width:0.5;" width="225" x="7" y="404.37"/><ellipse cx="70.75" cy="420.37" fill="#ADD1B2" rx="11" ry="11" style="stroke:#181818;stroke-width:1.0;"/><path d="M73.2231,426.5131 Q72.6421,426.8119 72.0029,426.9613 Q71.3638,427.1107 70.6582,427.1107 Q68.1514,427.1107 66.8315,425.4589 Q65.5117,423.807 65.5117,420.6859 Q65.5117,417.5565 66.8315,415.9047 Q68.1514,414.2528 70.6582,414.2528 Q71.3638,414.2528 72.0112,414.4022 Q72.6587,414.5516 73.2231,414.8505 L73.2231,417.5731 Q72.5923,416.9921 71.9988,416.7223 Q71.4053,416.4525 70.7744,416.4525 Q69.4297,416.4525 68.7449,417.5192 Q68.0601,418.5858 68.0601,420.6859 Q68.0601,422.7777 68.7449,423.8444 Q69.4297,424.911 70.7744,424.911 Q71.4053,424.911 71.9988,424.6412 Q72.5923,424.3715 73.2231,423.7904 Z " fill="#000000"/><text fill="#000000" font-family="sans-serif" font-size="14" lengthAdjust="spacing" textLength="89" x="91.25" y="425.661">Saksnummer</text><line style="stroke:#181818;stroke-width:0.5;" x1="8" x2="231" y1="436.37" y2="436.37"/><ellipse cx="18" cy="450.1141" fill="none" rx="3" ry="3" style="stroke:#038048;stroke-width:1.0;"/><text fill="#000000" font-family="sans-serif" font-size="14" lengthAdjust="spacing" textLength="109" x="27" y="453.9052">saksaar: integer</text><ellipse cx="18" cy="466.6024" fill="none" rx="3" ry="3" style="stroke:#038048;stroke-width:1.0;"/><text fill="#000000" font-family="sans-serif" font-size="14" lengthAdjust="spacing" textLength="199" x="27" y="470.3934">sakssekvensnummer: integer</text><line style="stroke:#181818;stroke-width:0.5;" x1="8" x2="231" y1="477.3466" y2="477.3466"/></g><!--class Posisjon--><g id="elem_Posisjon"><rect codeLine="1" fill="#F1F1F1" height="97.4648" id="Posisjon" rx="2.5" ry="2.5" style="stroke:#181818;stroke-width:0.5;" width="263" x="267" y="396.13"/><ellipse cx="365.75" cy="412.13" fill="#ADD1B2" rx="11" ry="11" style="stroke:#181818;stroke-width:1.0;"/><path d="M368.2231,418.2731 Q367.6421,418.5719 367.0029,418.7213 Q366.3638,418.8707 365.6582,418.8707 Q363.1514,418.8707 361.8315,417.2189 Q360.5117,415.567 360.5117,412.4459 Q360.5117,409.3165 361.8315,407.6647 Q363.1514,406.0128 365.6582,406.0128 Q366.3638,406.0128 367.0112,406.1622 Q367.6587,406.3116 368.2231,406.6105 L368.2231,409.3331 Q367.5923,408.7521 366.9988,408.4823 Q366.4053,408.2125 365.7744,408.2125 Q364.4297,408.2125 363.7449,409.2792 Q363.0601,410.3458 363.0601,412.4459 Q363.0601,414.5377 363.7449,415.6044 Q364.4297,416.671 365.7744,416.671 Q366.4053,416.671 366.9988,416.4012 Q367.5923,416.1315 368.2231,415.5504 Z " fill="#000000"/><text fill="#000000" font-family="sans-serif" font-size="14" lengthAdjust="spacing" textLength="57" x="386.25" y="417.421">Posisjon</text><line style="stroke:#181818;stroke-width:0.5;" x1="268" x2="529" y1="428.13" y2="428.13"/><ellipse cx="278" cy="441.8741" fill="none" rx="3" ry="3" style="stroke:#038048;stroke-width:1.0;"/><text fill="#000000" font-family="sans-serif" font-size="14" lengthAdjust="spacing" textLength="127" x="287" y="445.6652">type: PosisjonType</text><ellipse cx="278" cy="458.3624" fill="none" rx="3" ry="3" style="stroke:#038048;stroke-width:1.0;"/><text fill="#000000" font-family="sans-serif" font-size="14" lengthAdjust="spacing" textLength="153" x="287" y="462.1534">koordinater: number[]</text><ellipse cx="278" cy="474.8507" fill="none" rx="3" ry="3" style="stroke:#038048;stroke-width:1.0;"/><text fill="#000000" font-family="sans-serif" font-size="14" lengthAdjust="spacing" textLength="237" x="287" y="478.6417">koordinatsystem: Koordinatsystem</text><line style="stroke:#181818;stroke-width:0.5;" x1="268" x2="529" y1="485.5948" y2="485.5948"/></g><!--class Koordinatsystem--><g id="elem_Koordinatsystem"><rect codeLine="10" fill="#F1F1F1" height="89.5977" id="Koordinatsystem" rx="2.5" ry="2.5" style="stroke:#181818;stroke-width:0.5;" width="184" x="154.5" y="578.32"/><ellipse cx="186.15" cy="598.6305" fill="#ADD1B2" rx="11" ry="11" style="stroke:#181818;stroke-width:1.0;"/><path d="M188.6231,604.7736 Q188.0421,605.0724 187.4029,605.2219 Q186.7638,605.3713 186.0582,605.3713 Q183.5514,605.3713 182.2315,603.7194 Q180.9117,602.0676 180.9117,598.9465 Q180.9117,595.8171 182.2315,594.1652 Q183.5514,592.5134 186.0582,592.5134 Q186.7638,592.5134 187.4112,592.6628 Q188.0587,592.8122 188.6231,593.111 L188.6231,595.8337 Q187.9923,595.2526 187.3988,594.9828 Q186.8053,594.7131 186.1744,594.7131 Q184.8297,594.7131 184.1449,595.7797 Q183.4601,596.8464 183.4601,598.9465 Q183.4601,601.0383 184.1449,602.1049 Q184.8297,603.1716 186.1744,603.1716 Q186.8053,603.1716 187.3988,602.9018 Q187.9923,602.632 188.6231,602.051 Z " fill="#000000"/><text fill="#000000" font-family="sans-serif" font-size="12" font-style="italic" lengthAdjust="spacing" textLength="42" x="240.35" y="594.9216">&#171;Kode&#187;</text><text fill="#000000" font-family="sans-serif" font-size="14" lengthAdjust="spacing" textLength="115" x="203.85" y="610.988">Koordinatsystem</text><line style="stroke:#181818;stroke-width:0.5;" x1="155.5" x2="337.5" y1="618.9411" y2="618.9411"/><ellipse cx="165.5" cy="632.6852" fill="none" rx="3" ry="3" style="stroke:#038048;stroke-width:1.0;"/><text fill="#000000" font-family="sans-serif" font-size="14" lengthAdjust="spacing" textLength="116" x="174.5" y="636.4762">kodeverdi: string</text><ellipse cx="165.5" cy="649.1735" fill="none" rx="3" ry="3" style="stroke:#038048;stroke-width:1.0;"/><text fill="#000000" font-family="sans-serif" font-size="14" lengthAdjust="spacing" textLength="158" x="174.5" y="652.9645">kodebeskrivelse: string</text><line style="stroke:#181818;stroke-width:0.5;" x1="155.5" x2="337.5" y1="659.9177" y2="659.9177"/></g><!--class PosisjonType--><g id="elem_PosisjonType"><rect codeLine="15" fill="#F1F1F1" height="64.4883" id="PosisjonType" rx="2.5" ry="2.5" style="stroke:#181818;stroke-width:0.5;" width="122" x="373.5" y="590.88"/><ellipse cx="388.5" cy="606.88" fill="#EB937F" rx="11" ry="11" style="stroke:#181818;stroke-width:1.0;"/><path d="M392.1143,613.38 L384.3945,613.38 L384.3945,600.9869 L392.1143,600.9869 L392.1143,603.1451 L386.8433,603.1451 L386.8433,605.818 L391.6162,605.818 L391.6162,607.9762 L386.8433,607.9762 L386.8433,611.2218 L392.1143,611.2218 Z " fill="#000000"/><text fill="#000000" font-family="sans-serif" font-size="14" lengthAdjust="spacing" textLength="90" x="402.5" y="612.171">PosisjonType</text><line style="stroke:#181818;stroke-width:0.5;" x1="374.5" x2="494.5" y1="622.88" y2="622.88"/><text fill="#000000" font-family="sans-serif" font-size="14" lengthAdjust="spacing" textLength="35" x="379.5" y="640.4152">Point</text><line style="stroke:#181818;stroke-width:0.5;" x1="374.5" x2="494.5" y1="647.3683" y2="647.3683"/></g><!--class Dokument--><g id="elem_Dokument"><rect codeLine="1" fill="#F1F1F1" height="146.9297" id="Dokument" rx="2.5" ry="2.5" style="stroke:#181818;stroke-width:0.5;" width="335" x="565" y="371.39"/><ellipse cx="692.75" cy="387.39" fill="#ADD1B2" rx="11" ry="11" style="stroke:#181818;stroke-width:1.0;"/><path d="M695.2231,393.5331 Q694.6421,393.8319 694.0029,393.9813 Q693.3638,394.1307 692.6582,394.1307 Q690.1514,394.1307 688.8315,392.4789 Q687.5117,390.827 687.5117,387.7059 Q687.5117,384.5765 688.8315,382.9247 Q690.1514,381.2728 692.6582,381.2728 Q693.3638,381.2728 694.0112,381.4222 Q694.6587,381.5716 695.2231,381.8705 L695.2231,384.5931 Q694.5923,384.0121 693.9988,383.7423 Q693.4053,383.4725 692.7744,383.4725 Q691.4297,383.4725 690.7449,384.5392 Q690.0601,385.6058 690.0601,387.7059 Q690.0601,389.7977 690.7449,390.8644 Q691.4297,391.931 692.7744,391.931 Q693.4053,391.931 693.9988,391.6612 Q694.5923,391.3915 695.2231,390.8104 Z " fill="#000000"/><text fill="#000000" font-family="sans-serif" font-size="14" lengthAdjust="spacing" textLength="71" x="713.25" y="392.681">Dokument</text><line style="stroke:#181818;stroke-width:0.5;" x1="566" x2="899" y1="403.39" y2="403.39"/><ellipse cx="576" cy="417.1341" fill="none" rx="3" ry="3" style="stroke:#038048;stroke-width:1.0;"/><text fill="#000000" font-family="sans-serif" font-size="14" lengthAdjust="spacing" textLength="79" x="585" y="420.9252">tittel: string</text><ellipse cx="576" cy="433.6224" fill="none" rx="3" ry="3" style="stroke:#038048;stroke-width:1.0;"/><text fill="#000000" font-family="sans-serif" font-size="14" lengthAdjust="spacing" textLength="207" x="585" y="437.4134">dokumenttype: Dokumenttype</text><ellipse cx="576" cy="450.1107" fill="none" rx="3" ry="3" style="stroke:#038048;stroke-width:1.0;"/><text fill="#000000" font-family="sans-serif" font-size="14" lengthAdjust="spacing" textLength="309" x="585" y="453.9017">referanseDokumentfil: ReferanseDokumentfil</text><ellipse cx="576" cy="466.599" fill="none" rx="3" ry="3" style="stroke:#038048;stroke-width:1.0;"/><text fill="#000000" font-family="sans-serif" font-size="14" lengthAdjust="spacing" textLength="115" x="585" y="470.39">mimetype: string</text><ellipse cx="576" cy="483.0873" fill="none" rx="3" ry="3" style="stroke:#038048;stroke-width:1.0;"/><text fill="#000000" font-family="sans-serif" font-size="14" lengthAdjust="spacing" textLength="146" x="585" y="486.8783">dokumentsdato: date</text><ellipse cx="576" cy="499.5755" fill="none" rx="3" ry="3" style="stroke:#038048;stroke-width:1.0;"/><text fill="#000000" font-family="sans-serif" font-size="14" lengthAdjust="spacing" textLength="114" x="585" y="503.3666">arkivnavn: string</text><line style="stroke:#181818;stroke-width:0.5;" x1="566" x2="899" y1="510.3197" y2="510.3197"/></g><!--class Dokumenttype--><g id="elem_Dokumenttype"><rect codeLine="13" fill="#F1F1F1" height="89.5977" id="Dokumenttype" rx="2.5" ry="2.5" style="stroke:#181818;stroke-width:0.5;" width="184" x="603.5" y="578.32"/><ellipse cx="641.9" cy="598.6305" fill="#ADD1B2" rx="11" ry="11" style="stroke:#181818;stroke-width:1.0;"/><path d="M644.3731,604.7736 Q643.7921,605.0724 643.1529,605.2219 Q642.5138,605.3713 641.8082,605.3713 Q639.3014,605.3713 637.9815,603.7194 Q636.6617,602.0676 636.6617,598.9465 Q636.6617,595.8171 637.9815,594.1652 Q639.3014,592.5134 641.8082,592.5134 Q642.5138,592.5134 643.1612,592.6628 Q643.8087,592.8122 644.3731,593.111 L644.3731,595.8337 Q643.7423,595.2526 643.1488,594.9828 Q642.5553,594.7131 641.9244,594.7131 Q640.5797,594.7131 639.8949,595.7797 Q639.2101,596.8464 639.2101,598.9465 Q639.2101,601.0383 639.8949,602.1049 Q640.5797,603.1716 641.9244,603.1716 Q642.5553,603.1716 643.1488,602.9018 Q643.7423,602.632 644.3731,602.051 Z " fill="#000000"/><text fill="#000000" font-family="sans-serif" font-size="12" font-style="italic" lengthAdjust="spacing" textLength="42" x="690.1" y="594.9216">&#171;Kode&#187;</text><text fill="#000000" font-family="sans-serif" font-size="14" lengthAdjust="spacing" textLength="100" x="661.1" y="610.988">Dokumenttype</text><line style="stroke:#181818;stroke-width:0.5;" x1="604.5" x2="786.5" y1="618.9411" y2="618.9411"/><ellipse cx="614.5" cy="632.6852" fill="none" rx="3" ry="3" style="stroke:#038048;stroke-width:1.0;"/><text fill="#000000" font-family="sans-serif" font-size="14" lengthAdjust="spacing" textLength="116" x="623.5" y="636.4762">kodeverdi: string</text><ellipse cx="614.5" cy="649.1735" fill="none" rx="3" ry="3" style="stroke:#038048;stroke-width:1.0;"/><text fill="#000000" font-family="sans-serif" font-size="14" lengthAdjust="spacing" textLength="158" x="623.5" y="652.9645">kodebeskrivelse: string</text><line style="stroke:#181818;stroke-width:0.5;" x1="604.5" x2="786.5" y1="659.9177" y2="659.9177"/></g><!--class ReferanseDokumentfil--><g id="elem_ReferanseDokumentfil"><rect codeLine="18" fill="#F1F1F1" height="80.9766" id="ReferanseDokumentfil" rx="2.5" ry="2.5" style="stroke:#181818;stroke-width:0.5;" width="184" x="822.5" y="582.63"/><ellipse cx="837.5" cy="598.63" fill="#ADD1B2" rx="11" ry="11" style="stroke:#181818;stroke-width:1.0;"/><path d="M839.9731,604.7731 Q839.3921,605.0719 838.7529,605.2213 Q838.1138,605.3707 837.4082,605.3707 Q834.9014,605.3707 833.5815,603.7189 Q832.2617,602.067 832.2617,598.9459 Q832.2617,595.8165 833.5815,594.1647 Q834.9014,592.5128 837.4082,592.5128 Q838.1138,592.5128 838.7612,592.6622 Q839.4087,592.8116 839.9731,593.1105 L839.9731,595.8331 Q839.3423,595.2521 838.7488,594.9823 Q838.1553,594.7125 837.5244,594.7125 Q836.1797,594.7125 835.4949,595.7792 Q834.8101,596.8458 834.8101,598.9459 Q834.8101,601.0377 835.4949,602.1044 Q836.1797,603.171 837.5244,603.171 Q838.1553,603.171 838.7488,602.9012 Q839.3423,602.6315 839.9731,602.0504 Z " fill="#000000"/><text fill="#000000" font-family="sans-serif" font-size="14" lengthAdjust="spacing" textLength="152" x="851.5" y="603.921">ReferanseDokumentfil</text><line style="stroke:#181818;stroke-width:0.5;" x1="823.5" x2="1005.5" y1="614.63" y2="614.63"/><ellipse cx="833.5" cy="628.3741" fill="none" rx="3" ry="3" style="stroke:#038048;stroke-width:1.0;"/><text fill="#000000" font-family="sans-serif" font-size="14" lengthAdjust="spacing" textLength="61" x="842.5" y="632.1652">id: string</text><ellipse cx="833.5" cy="644.8624" fill="none" rx="3" ry="3" style="stroke:#038048;stroke-width:1.0;"/><text fill="#000000" font-family="sans-serif" font-size="14" lengthAdjust="spacing" textLength="67" x="842.5" y="648.6534">url: string</text><line style="stroke:#181818;stroke-width:0.5;" x1="823.5" x2="1005.5" y1="655.6066" y2="655.6066"/></g><!--class Planbehandling--><g id="elem_Planbehandling"><rect codeLine="5" fill="#F1F1F1" height="146.9297" id="Planbehandling" rx="2.5" ry="2.5" style="stroke:#181818;stroke-width:0.5;" width="321" x="572" y="164.46"/><ellipse cx="674.75" cy="180.46" fill="#ADD1B2" rx="11" ry="11" style="stroke:#181818;stroke-width:1.0;"/><path d="M677.2231,186.6031 Q676.6421,186.9019 676.0029,187.0513 Q675.3638,187.2007 674.6582,187.2007 Q672.1514,187.2007 670.8315,185.5489 Q669.5117,183.897 669.5117,180.7759 Q669.5117,177.6465 670.8315,175.9947 Q672.1514,174.3428 674.6582,174.3428 Q675.3638,174.3428 676.0112,174.4922 Q676.6587,174.6416 677.2231,174.9405 L677.2231,177.6631 Q676.5923,177.0821 675.9988,176.8123 Q675.4053,176.5425 674.7744,176.5425 Q673.4297,176.5425 672.7449,177.6092 Q672.0601,178.6758 672.0601,180.7759 Q672.0601,182.8677 672.7449,183.9344 Q673.4297,185.001 674.7744,185.001 Q675.4053,185.001 675.9988,184.7312 Q676.5923,184.4615 677.2231,183.8804 Z " fill="#000000"/><text fill="#000000" font-family="sans-serif" font-size="14" lengthAdjust="spacing" textLength="107" x="695.25" y="185.751">Planbehandling</text><line style="stroke:#181818;stroke-width:0.5;" x1="573" x2="892" y1="196.46" y2="196.46"/><ellipse cx="583" cy="210.2041" fill="none" rx="3" ry="3" style="stroke:#038048;stroke-width:1.0;"/><text fill="#000000" font-family="sans-serif" font-size="14" lengthAdjust="spacing" textLength="123" x="592" y="213.9952">posisjon: Posisjon</text><ellipse cx="583" cy="226.6924" fill="none" rx="3" ry="3" style="stroke:#038048;stroke-width:1.0;"/><text fill="#000000" font-family="sans-serif" font-size="14" lengthAdjust="spacing" textLength="69" x="592" y="230.4834">dato: date</text><ellipse cx="583" cy="243.1807" fill="none" rx="3" ry="3" style="stroke:#038048;stroke-width:1.0;"/><text fill="#000000" font-family="sans-serif" font-size="14" lengthAdjust="spacing" textLength="185" x="592" y="246.9717">saksnummer: Saksnummer</text><ellipse cx="583" cy="259.669" fill="none" rx="3" ry="3" style="stroke:#038048;stroke-width:1.0;"/><text fill="#000000" font-family="sans-serif" font-size="14" lengthAdjust="spacing" textLength="295" x="592" y="263.46">planbehandlingstype: Planbehandlingstype</text><ellipse cx="583" cy="276.1573" fill="none" rx="3" ry="3" style="stroke:#038048;stroke-width:1.0;"/><text fill="#000000" font-family="sans-serif" font-size="14" lengthAdjust="spacing" textLength="81" x="592" y="279.9483">navn: string</text><ellipse cx="583" cy="292.6455" fill="none" rx="3" ry="3" style="stroke:#038048;stroke-width:1.0;"/><text fill="#000000" font-family="sans-serif" font-size="14" lengthAdjust="spacing" textLength="203" x="592" y="296.4366">plandokumenter: Dokument[]</text><line style="stroke:#181818;stroke-width:0.5;" x1="573" x2="892" y1="303.3897" y2="303.3897"/></g><!--class Planbehandlingstype--><g id="elem_Planbehandlingstype"><rect codeLine="19" fill="#F1F1F1" height="89.5977" id="Planbehandlingstype" rx="2.5" ry="2.5" style="stroke:#181818;stroke-width:0.5;" width="184" x="935.5" y="400.06"/><ellipse cx="954.55" cy="420.3705" fill="#ADD1B2" rx="11" ry="11" style="stroke:#181818;stroke-width:1.0;"/><path d="M957.0231,426.5136 Q956.4421,426.8124 955.8029,426.9619 Q955.1638,427.1113 954.4582,427.1113 Q951.9514,427.1113 950.6315,425.4594 Q949.3117,423.8076 949.3117,420.6865 Q949.3117,417.5571 950.6315,415.9052 Q951.9514,414.2534 954.4582,414.2534 Q955.1638,414.2534 955.8112,414.4028 Q956.4587,414.5522 957.0231,414.851 L957.0231,417.5737 Q956.3923,416.9926 955.7988,416.7228 Q955.2053,416.4531 954.5744,416.4531 Q953.2297,416.4531 952.5449,417.5197 Q951.8601,418.5864 951.8601,420.6865 Q951.8601,422.7783 952.5449,423.8449 Q953.2297,424.9116 954.5744,424.9116 Q955.2053,424.9116 955.7988,424.6418 Q956.3923,424.372 957.0231,423.791 Z " fill="#000000"/><text fill="#000000" font-family="sans-serif" font-size="12" font-style="italic" lengthAdjust="spacing" textLength="42" x="1019.95" y="416.6616">&#171;Kode&#187;</text><text fill="#000000" font-family="sans-serif" font-size="14" lengthAdjust="spacing" textLength="143" x="969.45" y="432.728">Planbehandlingstype</text><line style="stroke:#181818;stroke-width:0.5;" x1="936.5" x2="1118.5" y1="440.6811" y2="440.6811"/><ellipse cx="946.5" cy="454.4252" fill="none" rx="3" ry="3" style="stroke:#038048;stroke-width:1.0;"/><text fill="#000000" font-family="sans-serif" font-size="14" lengthAdjust="spacing" textLength="116" x="955.5" y="458.2162">kodeverdi: string</text><ellipse cx="946.5" cy="470.9135" fill="none" rx="3" ry="3" style="stroke:#038048;stroke-width:1.0;"/><text fill="#000000" font-family="sans-serif" font-size="14" lengthAdjust="spacing" textLength="158" x="955.5" y="474.7045">kodebeskrivelse: string</text><line style="stroke:#181818;stroke-width:0.5;" x1="936.5" x2="1118.5" y1="481.6577" y2="481.6577"/></g><!--class NasjonalArealplanId--><g id="elem_NasjonalArealplanId"><rect codeLine="1" fill="#F1F1F1" height="80.9766" id="NasjonalArealplanId" rx="2.5" ry="2.5" style="stroke:#181818;stroke-width:0.5;" width="292" x="1008.5" y="197.44"/><ellipse cx="1081.25" cy="213.44" fill="#ADD1B2" rx="11" ry="11" style="stroke:#181818;stroke-width:1.0;"/><path d="M1083.7231,219.5831 Q1083.1421,219.8819 1082.5029,220.0313 Q1081.8638,220.1807 1081.1582,220.1807 Q1078.6514,220.1807 1077.3315,218.5289 Q1076.0117,216.877 1076.0117,213.7559 Q1076.0117,210.6265 1077.3315,208.9747 Q1078.6514,207.3228 1081.1582,207.3228 Q1081.8638,207.3228 1082.5112,207.4722 Q1083.1587,207.6216 1083.7231,207.9205 L1083.7231,210.6431 Q1083.0923,210.0621 1082.4988,209.7923 Q1081.9053,209.5225 1081.2744,209.5225 Q1079.9297,209.5225 1079.2449,210.5892 Q1078.5601,211.6558 1078.5601,213.7559 Q1078.5601,215.8477 1079.2449,216.9144 Q1079.9297,217.981 1081.2744,217.981 Q1081.9053,217.981 1082.4988,217.7112 Q1083.0923,217.4415 1083.7231,216.8604 Z " fill="#000000"/><text fill="#000000" font-family="sans-serif" font-size="14" lengthAdjust="spacing" textLength="138" x="1101.75" y="218.731">NasjonalArealplanId</text><line style="stroke:#181818;stroke-width:0.5;" x1="1009.5" x2="1299.5" y1="229.44" y2="229.44"/><ellipse cx="1019.5" cy="243.1841" fill="none" rx="3" ry="3" style="stroke:#038048;stroke-width:1.0;"/><text fill="#000000" font-family="sans-serif" font-size="14" lengthAdjust="spacing" textLength="266" x="1028.5" y="246.9752">administrativEnhet: AdministrativEnhet</text><ellipse cx="1019.5" cy="259.6724" fill="none" rx="3" ry="3" style="stroke:#038048;stroke-width:1.0;"/><text fill="#000000" font-family="sans-serif" font-size="14" lengthAdjust="spacing" textLength="171" x="1028.5" y="263.4634">planidentifikasjon: string</text><line style="stroke:#181818;stroke-width:0.5;" x1="1009.5" x2="1299.5" y1="270.4166" y2="270.4166"/></g><!--class AdministrativEnhet--><g id="elem_AdministrativEnhet"><rect codeLine="8" fill="#F1F1F1" height="97.4648" id="AdministrativEnhet" rx="2.5" ry="2.5" style="stroke:#181818;stroke-width:0.5;" width="162" x="1154.5" y="396.13"/><ellipse cx="1169.5" cy="412.13" fill="#EB937F" rx="11" ry="11" style="stroke:#181818;stroke-width:1.0;"/><path d="M1173.1143,418.63 L1165.3945,418.63 L1165.3945,406.2369 L1173.1143,406.2369 L1173.1143,408.3951 L1167.8433,408.3951 L1167.8433,411.068 L1172.6162,411.068 L1172.6162,413.2262 L1167.8433,413.2262 L1167.8433,416.4718 L1173.1143,416.4718 Z " fill="#000000"/><text fill="#000000" font-family="sans-serif" font-size="14" lengthAdjust="spacing" textLength="130" x="1183.5" y="417.421">AdministrativEnhet</text><line style="stroke:#181818;stroke-width:0.5;" x1="1155.5" x2="1315.5" y1="428.13" y2="428.13"/><text fill="#000000" font-family="sans-serif" font-size="14" lengthAdjust="spacing" textLength="127" x="1160.5" y="445.6652">kommunenummer</text><text fill="#000000" font-family="sans-serif" font-size="14" lengthAdjust="spacing" textLength="97" x="1160.5" y="462.1534">fylkesnummer</text><text fill="#000000" font-family="sans-serif" font-size="14" lengthAdjust="spacing" textLength="71" x="1160.5" y="478.6417">landskode</text><line style="stroke:#181818;stroke-width:0.5;" x1="1155.5" x2="1315.5" y1="485.5948" y2="485.5948"/></g><!--class RegistrerPlanbehandling--><g id="elem_RegistrerPlanbehandling"><rect codeLine="4" fill="#F1F1F1" height="97.4648" id="RegistrerPlanbehandling" rx="2.5" ry="2.5" style="stroke:#181818;stroke-width:0.5;" width="309" x="1000" y="7"/><ellipse cx="1065.75" cy="23" fill="#ADD1B2" rx="11" ry="11" style="stroke:#181818;stroke-width:1.0;"/><path d="M1068.2231,29.1431 Q1067.6421,29.4419 1067.0029,29.5913 Q1066.3638,29.7407 1065.6582,29.7407 Q1063.1514,29.7407 1061.8315,28.0889 Q1060.5117,26.437 1060.5117,23.3159 Q1060.5117,20.1865 1061.8315,18.5347 Q1063.1514,16.8828 1065.6582,16.8828 Q1066.3638,16.8828 1067.0112,17.0322 Q1067.6587,17.1816 1068.2231,17.4805 L1068.2231,20.2031 Q1067.5923,19.6221 1066.9988,19.3523 Q1066.4053,19.0825 1065.7744,19.0825 Q1064.4297,19.0825 1063.7449,20.1492 Q1063.0601,21.2158 1063.0601,23.3159 Q1063.0601,25.4077 1063.7449,26.4744 Q1064.4297,27.541 1065.7744,27.541 Q1066.4053,27.541 1066.9988,27.2712 Q1067.5923,27.0015 1068.2231,26.4204 Z " fill="#000000"/><text fill="#000000" font-family="sans-serif" font-size="14" lengthAdjust="spacing" textLength="169" x="1086.25" y="28.291">RegistrerPlanbehandling</text><line style="stroke:#181818;stroke-width:0.5;" x1="1001" x2="1308" y1="39" y2="39"/><ellipse cx="1011" cy="52.7441" fill="none" rx="3" ry="3" style="stroke:#038048;stroke-width:1.0;"/><text fill="#000000" font-family="sans-serif" font-size="14" lengthAdjust="spacing" textLength="283" x="1020" y="56.5352">nasjonalArealplanId: NasjonalArealplanId</text><ellipse cx="1011" cy="69.2324" fill="none" rx="3" ry="3" style="stroke:#038048;stroke-width:1.0;"/><text fill="#000000" font-family="sans-serif" font-size="14" lengthAdjust="spacing" textLength="149" x="1020" y="73.0234">planstatus: Planstatus</text><ellipse cx="1011" cy="85.7207" fill="none" rx="3" ry="3" style="stroke:#038048;stroke-width:1.0;"/><text fill="#000000" font-family="sans-serif" font-size="14" lengthAdjust="spacing" textLength="223" x="1020" y="89.5117">planbehandling: Planbehandling</text><line style="stroke:#181818;stroke-width:0.5;" x1="1001" x2="1308" y1="96.4648" y2="96.4648"/></g><!--class Planstatus--><g id="elem_Planstatus"><rect codeLine="10" fill="#F1F1F1" height="80.9766" id="Planstatus" rx="2.5" ry="2.5" style="stroke:#181818;stroke-width:0.5;" width="184" x="1335.5" y="197.44"/><ellipse cx="1388.25" cy="213.44" fill="#ADD1B2" rx="11" ry="11" style="stroke:#181818;stroke-width:1.0;"/><path d="M1390.7231,219.5831 Q1390.1421,219.8819 1389.5029,220.0313 Q1388.8638,220.1807 1388.1582,220.1807 Q1385.6514,220.1807 1384.3315,218.5289 Q1383.0117,216.877 1383.0117,213.7559 Q1383.0117,210.6265 1384.3315,208.9747 Q1385.6514,207.3228 1388.1582,207.3228 Q1388.8638,207.3228 1389.5112,207.4722 Q1390.1587,207.6216 1390.7231,207.9205 L1390.7231,210.6431 Q1390.0923,210.0621 1389.4988,209.7923 Q1388.9053,209.5225 1388.2744,209.5225 Q1386.9297,209.5225 1386.2449,210.5892 Q1385.5601,211.6558 1385.5601,213.7559 Q1385.5601,215.8477 1386.2449,216.9144 Q1386.9297,217.981 1388.2744,217.981 Q1388.9053,217.981 1389.4988,217.7112 Q1390.0923,217.4415 1390.7231,216.8604 Z " fill="#000000"/><text fill="#000000" font-family="sans-serif" font-size="14" lengthAdjust="spacing" textLength="70" x="1408.75" y="218.731">Planstatus</text><line style="stroke:#181818;stroke-width:0.5;" x1="1336.5" x2="1518.5" y1="229.44" y2="229.44"/><ellipse cx="1346.5" cy="243.1841" fill="none" rx="3" ry="3" style="stroke:#038048;stroke-width:1.0;"/><text fill="#000000" font-family="sans-serif" font-size="14" lengthAdjust="spacing" textLength="116" x="1355.5" y="246.9752">kodeverdi: string</text><ellipse cx="1346.5" cy="259.6724" fill="none" rx="3" ry="3" style="stroke:#038048;stroke-width:1.0;"/><text fill="#000000" font-family="sans-serif" font-size="14" lengthAdjust="spacing" textLength="158" x="1355.5" y="263.4634">kodebeskrivelse: string</text><line style="stroke:#181818;stroke-width:0.5;" x1="1336.5" x2="1518.5" y1="270.4166" y2="270.4166"/></g><!--link Posisjon to Koordinatsystem--><g id="link_Posisjon_Koordinatsystem"><path codeLine="7" d="M356.97,494.02 C334.38,520.22 306.63,552.39 284.6,577.94 " fill="none" id="Posisjon-Koordinatsystem" style="stroke:#181818;stroke-width:1.0;"/></g><!--link Posisjon to PosisjonType--><g id="link_Posisjon_PosisjonType"><path codeLine="8" d="M408.34,494.02 C414.6,524.7 422.54,563.58 428.02,590.42 " fill="none" id="Posisjon-PosisjonType" style="stroke:#181818;stroke-width:1.0;"/></g><!--link Dokument to Dokumenttype--><g id="link_Dokument_Dokumenttype"><path codeLine="10" d="M717.24,518.57 C713.02,538.67 708.56,559.88 704.8,577.83 " fill="none" id="Dokument-Dokumenttype" style="stroke:#181818;stroke-width:1.0;"/></g><!--link Dokument to ReferanseDokumentfil--><g id="link_Dokument_ReferanseDokumentfil"><path codeLine="11" d="M807.58,518.57 C830.1,540.38 853.96,563.49 873.42,582.33 " fill="none" id="Dokument-ReferanseDokumentfil" style="stroke:#181818;stroke-width:1.0;"/></g><!--link Planbehandling to Posisjon--><g id="link_Planbehandling_Posisjon"><path codeLine="14" d="M613.8,311.76 C568.33,339.65 517.64,370.76 476.87,395.78 " fill="none" id="Planbehandling-Posisjon" style="stroke:#181818;stroke-width:1.0;"/></g><!--link Planbehandling to Saksnummer--><g id="link_Planbehandling_Saksnummer"><path codeLine="15" d="M571.59,272.78 C476.1,295.38 353.73,328.78 249.5,371.39 C227.38,380.44 204.27,392.41 183.77,404.01 " fill="none" id="Planbehandling-Saksnummer" style="stroke:#181818;stroke-width:1.0;"/></g><!--link Planbehandling to Planbehandlingstype--><g id="link_Planbehandling_Planbehandlingstype"><path codeLine="16" d="M837.34,311.76 C879.57,341.09 926.9,373.97 963.78,399.59 " fill="none" id="Planbehandling-Planbehandlingstype" style="stroke:#181818;stroke-width:1.0;"/></g><!--link Planbehandling to Dokument--><g id="link_Planbehandling_Dokument"><path codeLine="17" d="M732.5,311.76 C732.5,330.97 732.5,351.7 732.5,370.92 " fill="none" id="Planbehandling-Dokument" style="stroke:#181818;stroke-width:1.0;"/></g><!--link NasjonalArealplanId to AdministrativEnhet--><g id="link_NasjonalArealplanId_AdministrativEnhet"><path codeLine="6" d="M1170.12,278.44 C1183.36,311.94 1202.39,360.09 1216.51,395.81 " fill="none" id="NasjonalArealplanId-AdministrativEnhet" style="stroke:#181818;stroke-width:1.0;"/></g><!--link RegistrerPlanbehandling to NasjonalArealplanId--><g id="link_RegistrerPlanbehandling_NasjonalArealplanId"><path codeLine="15" d="M1154.5,104.55 C1154.5,133.43 1154.5,169.81 1154.5,197.12 " fill="none" id="RegistrerPlanbehandling-NasjonalArealplanId" style="stroke:#181818;stroke-width:1.0;"/></g><!--link RegistrerPlanbehandling to Planstatus--><g id="link_RegistrerPlanbehandling_Planstatus"><path codeLine="16" d="M1228.03,104.91 C1256.33,123.49 1288.94,144.93 1318.5,164.46 C1334.42,174.99 1351.63,186.41 1367.57,197 " fill="none" id="RegistrerPlanbehandling-Planstatus" style="stroke:#181818;stroke-width:1.0;"/></g><!--link RegistrerPlanbehandling to Planbehandling--><g id="link_RegistrerPlanbehandling_Planbehandling"><path codeLine="17" d="M1041.69,104.9 C996.15,124.35 942.77,147.14 893.29,168.27 " fill="none" id="RegistrerPlanbehandling-Planbehandling" style="stroke:#181818;stroke-width:1.0;"/></g><!--SRC=[ZKyx3eCm3DrpYZ1N9597jevTAjGR169eYXLG32nLxruY508g_MI8RB-FdnDZInmqS265aBOL3OdAJ5-7oehnA2f0XBajuAQiHcDhkMr5Dx3aJoEhwDvQXSg1GeyPBNTctfALg8Zu5Mf3lGENRvRo1-FJEmJnAOZFEkENz-7CzZNrgXyeu_bIHopwptZisJC4YhgGeMarZE2qoVYKr9ENSG7KE3C24YpWvFJfg3JTpVw5lhhY1sjromi0]--></g></svg>