<svg xmlns="http://www.w3.org/2000/svg" xmlns:xlink="http://www.w3.org/1999/xlink" contentStyleType="text/css" data-diagram-type="CLASS" height="268px" preserveAspectRatio="none" style="width:228px;height:268px;background:#FFFFFF;" version="1.1" viewBox="0 0 228 268" width="228px" zoomAndPan="magnify"><defs/><g><!--class FinnArealplanerForAdresse--><g class="entity" data-entity="FinnArealplanerForAdresse" data-source-line="2" data-uid="ent0002" id="entity_FinnArealplanerForAdresse"><rect fill="#F1F1F1" height="64.4883" rx="2.5" ry="2.5" style="stroke:#181818;stroke-width:0.5;" width="214.6084" x="7" y="7"/><ellipse cx="22" cy="23" fill="#ADD1B2" rx="11" ry="11" style="stroke:#181818;stroke-width:1;"/><path d="M24.4731,29.1431 Q23.8921,29.4419 23.2529,29.5913 Q22.6138,29.7407 21.9082,29.7407 Q19.4014,29.7407 18.0815,28.0889 Q16.7617,26.437 16.7617,23.3159 Q16.7617,20.1865 18.0815,18.5347 Q19.4014,16.8828 21.9082,16.8828 Q22.6138,16.8828 23.2612,17.0322 Q23.9087,17.1816 24.4731,17.4805 L24.4731,20.2031 Q23.8423,19.6221 23.2488,19.3523 Q22.6553,19.0825 22.0244,19.0825 Q20.6797,19.0825 19.9949,20.1492 Q19.3101,21.2158 19.3101,23.3159 Q19.3101,25.4077 19.9949,26.4744 Q20.6797,27.541 22.0244,27.541 Q22.6553,27.541 23.2488,27.2712 Q23.8423,27.0015 24.4731,26.4204 Z " fill="#000000"/><text fill="#000000" font-family="sans-serif" font-size="14" lengthAdjust="spacing" textLength="182.6084" x="36" y="28.291">FinnArealplanerForAdresse</text><line style="stroke:#181818;stroke-width:0.5;" x1="8" x2="220.6084" y1="39" y2="39"/><ellipse cx="18" cy="52.7441" fill="none" rx="3" ry="3" style="stroke:#038048;stroke-width:1;"/><text fill="#000000" font-family="sans-serif" font-size="14" lengthAdjust="spacing" textLength="115.0762" x="27" y="56.5352">adresse: Adresse</text><line style="stroke:#181818;stroke-width:0.5;" x1="8" x2="220.6084" y1="63.4883" y2="63.4883"/></g><!--class Adresse--><g class="entity" data-entity="Adresse" data-source-line="6" data-uid="ent0003" id="entity_Adresse"><rect fill="#F1F1F1" height="130.4414" rx="2.5" ry="2.5" style="stroke:#181818;stroke-width:0.5;" width="198.874" x="14.87" y="131.49"/><ellipse cx="83.0209" cy="147.49" fill="#ADD1B2" rx="11" ry="11" style="stroke:#181818;stroke-width:1;"/><path d="M85.494,153.6331 Q84.913,153.9319 84.2738,154.0813 Q83.6346,154.2307 82.9291,154.2307 Q80.4222,154.2307 79.1024,152.5789 Q77.7826,150.927 77.7826,147.8059 Q77.7826,144.6765 79.1024,143.0247 Q80.4222,141.3728 82.9291,141.3728 Q83.6346,141.3728 84.2821,141.5222 Q84.9296,141.6716 85.494,141.9705 L85.494,144.6931 Q84.8632,144.1121 84.2697,143.8423 Q83.6762,143.5725 83.0453,143.5725 Q81.7006,143.5725 81.0158,144.6392 Q80.3309,145.7058 80.3309,147.8059 Q80.3309,149.8977 81.0158,150.9644 Q81.7006,152.031 83.0453,152.031 Q83.6762,152.031 84.2697,151.7612 Q84.8632,151.4915 85.494,150.9104 Z " fill="#000000"/><text fill="#000000" font-family="sans-serif" font-size="14" lengthAdjust="spacing" textLength="54.0723" x="103.5209" y="152.781">Adresse</text><line style="stroke:#181818;stroke-width:0.5;" x1="15.87" x2="212.744" y1="163.49" y2="163.49"/><ellipse cx="25.87" cy="177.2341" fill="none" rx="3" ry="3" style="stroke:#038048;stroke-width:1;"/><text fill="#000000" font-family="sans-serif" font-size="14" lengthAdjust="spacing" textLength="133.9639" x="34.87" y="181.0252">adressekode: string</text><ellipse cx="25.87" cy="193.7224" fill="none" rx="3" ry="3" style="stroke:#038048;stroke-width:1;"/><text fill="#000000" font-family="sans-serif" font-size="14" lengthAdjust="spacing" textLength="132.9248" x="34.87" y="197.5134">adressenavn: string</text><ellipse cx="25.87" cy="210.2107" fill="none" rx="3" ry="3" style="stroke:#038048;stroke-width:1;"/><text fill="#000000" font-family="sans-serif" font-size="14" lengthAdjust="spacing" textLength="166.0791" x="34.87" y="214.0017">adressenummer: integer</text><ellipse cx="25.87" cy="226.699" fill="none" rx="3" ry="3" style="stroke:#038048;stroke-width:1;"/><text fill="#000000" font-family="sans-serif" font-size="14" lengthAdjust="spacing" textLength="153.5146" x="34.87" y="230.49">adressebokstav: string</text><ellipse cx="25.87" cy="243.1873" fill="none" rx="3" ry="3" style="stroke:#038048;stroke-width:1;"/><text fill="#000000" font-family="sans-serif" font-size="14" lengthAdjust="spacing" textLength="172.874" x="34.87" y="246.9783">seksjonsnummer: integer</text><line style="stroke:#181818;stroke-width:0.5;" x1="15.87" x2="212.744" y1="253.9314" y2="253.9314"/></g><!--link FinnArealplanerForAdresse to Adresse--><g class="link" data-entity-1="FinnArealplanerForAdresse" data-entity-2="Adresse" data-source-line="14" data-uid="lnk4" id="link_FinnArealplanerForAdresse_Adresse"><path codeLine="14" d="M114.3,71.71 C114.3,88.83 114.3,110.66 114.3,131.22" fill="none" id="FinnArealplanerForAdresse-Adresse" style="stroke:#181818;stroke-width:1;"/></g><!--SRC=[TOyn3eL024HxJa5ll82TZVT09MPrPGsiDiQxk_7_cAnHEdWpOQRpP8QD4wcLoI-UXBK9MlVAPemxO9g2Vck5_piS0DrbVHTEeKzYY-fao83G9kzWdMVM2fr47bWpreR98csvBpsnCOWzZIdPTvsol1l02G00]--></g></svg>