<svg xmlns="http://www.w3.org/2000/svg" xmlns:xlink="http://www.w3.org/1999/xlink" contentStyleType="text/css" height="268px" preserveAspectRatio="none" style="width:234px;height:268px;background:#FFFFFF;" version="1.1" viewBox="0 0 234 268" width="234px" zoomAndPan="magnify"><defs/><g><!--class FinnArealplanerForAdresse--><g id="elem_FinnArealplanerForAdresse"><rect codeLine="2" fill="#F1F1F1" height="64.4883" id="FinnArealplanerForAdresse" rx="2.5" ry="2.5" style="stroke:#181818;stroke-width:0.5;" width="220" x="7" y="7"/><ellipse cx="22" cy="23" fill="#ADD1B2" rx="11" ry="11" style="stroke:#181818;stroke-width:1.0;"/><path d="M24.4731,29.1431 Q23.8921,29.4419 23.2529,29.5913 Q22.6138,29.7407 21.9082,29.7407 Q19.4014,29.7407 18.0815,28.0889 Q16.7617,26.437 16.7617,23.3159 Q16.7617,20.1865 18.0815,18.5347 Q19.4014,16.8828 21.9082,16.8828 Q22.6138,16.8828 23.2612,17.0322 Q23.9087,17.1816 24.4731,17.4805 L24.4731,20.2031 Q23.8423,19.6221 23.2488,19.3523 Q22.6553,19.0825 22.0244,19.0825 Q20.6797,19.0825 19.9949,20.1492 Q19.3101,21.2158 19.3101,23.3159 Q19.3101,25.4077 19.9949,26.4744 Q20.6797,27.541 22.0244,27.541 Q22.6553,27.541 23.2488,27.2712 Q23.8423,27.0015 24.4731,26.4204 Z " fill="#000000"/><text fill="#000000" font-family="sans-serif" font-size="14" lengthAdjust="spacing" textLength="188" x="36" y="28.291">FinnArealplanerForAdresse</text><line style="stroke:#181818;stroke-width:0.5;" x1="8" x2="226" y1="39" y2="39"/><ellipse cx="18" cy="52.7441" fill="none" rx="3" ry="3" style="stroke:#038048;stroke-width:1.0;"/><text fill="#000000" font-family="sans-serif" font-size="14" lengthAdjust="spacing" textLength="116" x="27" y="56.5352">adresse: Adresse</text><line style="stroke:#181818;stroke-width:0.5;" x1="8" x2="226" y1="63.4883" y2="63.4883"/></g><!--class Adresse--><g id="elem_Adresse"><rect codeLine="6" fill="#F1F1F1" height="130.4414" id="Adresse" rx="2.5" ry="2.5" style="stroke:#181818;stroke-width:0.5;" width="200" x="17" y="131.49"/><ellipse cx="85.25" cy="147.49" fill="#ADD1B2" rx="11" ry="11" style="stroke:#181818;stroke-width:1.0;"/><path d="M87.7231,153.6331 Q87.1421,153.9319 86.5029,154.0813 Q85.8638,154.2307 85.1582,154.2307 Q82.6514,154.2307 81.3315,152.5789 Q80.0117,150.927 80.0117,147.8059 Q80.0117,144.6765 81.3315,143.0247 Q82.6514,141.3728 85.1582,141.3728 Q85.8638,141.3728 86.5112,141.5222 Q87.1587,141.6716 87.7231,141.9705 L87.7231,144.6931 Q87.0923,144.1121 86.4988,143.8423 Q85.9053,143.5725 85.2744,143.5725 Q83.9297,143.5725 83.2449,144.6392 Q82.5601,145.7058 82.5601,147.8059 Q82.5601,149.8977 83.2449,150.9644 Q83.9297,152.031 85.2744,152.031 Q85.9053,152.031 86.4988,151.7612 Q87.0923,151.4915 87.7231,150.9104 Z " fill="#000000"/><text fill="#000000" font-family="sans-serif" font-size="14" lengthAdjust="spacing" textLength="55" x="105.75" y="152.781">Adresse</text><line style="stroke:#181818;stroke-width:0.5;" x1="18" x2="216" y1="163.49" y2="163.49"/><ellipse cx="28" cy="177.2341" fill="none" rx="3" ry="3" style="stroke:#038048;stroke-width:1.0;"/><text fill="#000000" font-family="sans-serif" font-size="14" lengthAdjust="spacing" textLength="135" x="37" y="181.0252">adressekode: string</text><ellipse cx="28" cy="193.7224" fill="none" rx="3" ry="3" style="stroke:#038048;stroke-width:1.0;"/><text fill="#000000" font-family="sans-serif" font-size="14" lengthAdjust="spacing" textLength="134" x="37" y="197.5134">adressenavn: string</text><ellipse cx="28" cy="210.2107" fill="none" rx="3" ry="3" style="stroke:#038048;stroke-width:1.0;"/><text fill="#000000" font-family="sans-serif" font-size="14" lengthAdjust="spacing" textLength="168" x="37" y="214.0017">adressenummer: integer</text><ellipse cx="28" cy="226.699" fill="none" rx="3" ry="3" style="stroke:#038048;stroke-width:1.0;"/><text fill="#000000" font-family="sans-serif" font-size="14" lengthAdjust="spacing" textLength="154" x="37" y="230.49">adressebokstav: string</text><ellipse cx="28" cy="243.1873" fill="none" rx="3" ry="3" style="stroke:#038048;stroke-width:1.0;"/><text fill="#000000" font-family="sans-serif" font-size="14" lengthAdjust="spacing" textLength="174" x="37" y="246.9783">seksjonsnummer: integer</text><line style="stroke:#181818;stroke-width:0.5;" x1="18" x2="216" y1="253.9314" y2="253.9314"/></g><!--link FinnArealplanerForAdresse to Adresse--><g id="link_FinnArealplanerForAdresse_Adresse"><path codeLine="14" d="M117,71.71 C117,88.83 117,110.66 117,131.22 " fill="none" id="FinnArealplanerForAdresse-Adresse" style="stroke:#181818;stroke-width:1.0;"/></g><!--SRC=[TOyn3eL024HxJa5ll82TZVT09MPrPGsiDiQxk_7_cAnHEdWpOQRpP8QD4wcLoI-UXBK9MlVAPemxO9g2Vck5_piS0DrbVHTEeKzYY-fao83G9kzWdMVM2fr47bWpreR98csvBpsnCOWzZIdPTvsol1l02G00]--></g></svg>