<svg xmlns="http://www.w3.org/2000/svg" xmlns:xlink="http://www.w3.org/1999/xlink" contentStyleType="text/css" data-diagram-type="JSON" height="298px" preserveAspectRatio="none" style="width:846px;height:298px;background:#FFFFFF;" version="1.1" viewBox="0 0 846 298" width="846px" zoomAndPan="magnify"><defs/><g><rect fill="#F1F1F1" height="81.9531" rx="5" ry="5" style="stroke:#F1F1F1;stroke-width:1.5;" width="237.3623" x="10" y="76.5"/><text fill="#000000" font-family="sans-serif" font-size="14" font-weight="bold" lengthAdjust="spacing" textLength="101.0283" x="15" y="92.0352">protokollnavn</text><text fill="#000000" font-family="sans-serif" font-size="14" lengthAdjust="spacing" textLength="99.6885" x="126.0283" y="92.0352">no.ks.fiks.plan</text><line style="stroke:#000000;stroke-width:1;" x1="121.0283" x2="121.0283" y1="76.5" y2="96.9883"/><line style="stroke:#000000;stroke-width:1;" x1="10" x2="247.3623" y1="96.9883" y2="96.9883"/><text fill="#000000" font-family="sans-serif" font-size="14" font-weight="bold" lengthAdjust="spacing" textLength="34.9248" x="15" y="112.5234">navn</text><text fill="#000000" font-family="sans-serif" font-size="14" lengthAdjust="spacing" textLength="116.334" x="126.0283" y="112.5234">PlanforholdTyper</text><line style="stroke:#000000;stroke-width:1;" x1="121.0283" x2="121.0283" y1="96.9883" y2="117.4766"/><line style="stroke:#000000;stroke-width:1;" x1="10" x2="247.3623" y1="117.4766" y2="117.4766"/><text fill="#000000" font-family="sans-serif" font-size="14" font-weight="bold" lengthAdjust="spacing" textLength="53.5869" x="15" y="133.0117">versjon</text><text fill="#000000" font-family="sans-serif" font-size="14" lengthAdjust="spacing" textLength="16.0986" x="126.0283" y="133.0117">v2</text><line style="stroke:#000000;stroke-width:1;" x1="121.0283" x2="121.0283" y1="117.4766" y2="137.9648"/><line style="stroke:#000000;stroke-width:1;" x1="10" x2="247.3623" y1="137.9648" y2="137.9648"/><text fill="#000000" font-family="sans-serif" font-size="14" font-weight="bold" lengthAdjust="spacing" textLength="66.1787" x="15" y="153.5">kodeliste</text><text fill="#000000" font-family="sans-serif" font-size="14" lengthAdjust="spacing" textLength="13.2891" x="126.0283" y="153.5">&#160;&#160;&#160;</text><line style="stroke:#000000;stroke-width:1;" x1="121.0283" x2="121.0283" y1="137.9648" y2="158.4531"/><rect fill="none" height="81.9531" rx="5" ry="5" style="stroke:#000000;stroke-width:1.5;" width="237.3623" x="10" y="76.5"/><rect fill="#F1F1F1" height="102.4414" rx="5" ry="5" style="stroke:#F1F1F1;stroke-width:1.5;" width="23.2891" x="284" y="97.2793"/><text fill="#000000" font-family="sans-serif" font-size="14" lengthAdjust="spacing" textLength="13.2891" x="289" y="112.8145">&#160;&#160;&#160;</text><line style="stroke:#000000;stroke-width:1;" x1="284" x2="307.2891" y1="117.7676" y2="117.7676"/><text fill="#000000" font-family="sans-serif" font-size="14" lengthAdjust="spacing" textLength="13.2891" x="289" y="133.3027">&#160;&#160;&#160;</text><line style="stroke:#000000;stroke-width:1;" x1="284" x2="307.2891" y1="138.2559" y2="138.2559"/><text fill="#000000" font-family="sans-serif" font-size="14" lengthAdjust="spacing" textLength="13.2891" x="289" y="153.791">&#160;&#160;&#160;</text><line style="stroke:#000000;stroke-width:1;" x1="284" x2="307.2891" y1="158.7441" y2="158.7441"/><text fill="#000000" font-family="sans-serif" font-size="14" lengthAdjust="spacing" textLength="13.2891" x="289" y="174.2793">&#160;&#160;&#160;</text><line style="stroke:#000000;stroke-width:1;" x1="284" x2="307.2891" y1="179.2324" y2="179.2324"/><text fill="#000000" font-family="sans-serif" font-size="14" lengthAdjust="spacing" textLength="13.2891" x="289" y="194.7676">&#160;&#160;&#160;</text><rect fill="none" height="102.4414" rx="5" ry="5" style="stroke:#000000;stroke-width:1.5;" width="23.2891" x="284" y="97.2793"/><rect fill="#F1F1F1" height="40.9766" rx="5" ry="5" style="stroke:#F1F1F1;stroke-width:1.5;" width="288.9258" x="445" y="10"/><text fill="#000000" font-family="sans-serif" font-size="14" font-weight="bold" lengthAdjust="spacing" textLength="71.9824" x="450" y="25.5352">kodeverdi</text><text fill="#000000" font-family="sans-serif" font-size="14" lengthAdjust="spacing" textLength="8.8525" x="577.6328" y="25.5352">1</text><line style="stroke:#000000;stroke-width:1;" x1="572.6328" x2="572.6328" y1="10" y2="30.4883"/><line style="stroke:#000000;stroke-width:1;" x1="445" x2="733.9258" y1="30.4883" y2="30.4883"/><text fill="#000000" font-family="sans-serif" font-size="14" font-weight="bold" lengthAdjust="spacing" textLength="117.6328" x="450" y="46.0234">kodebeskrivelse</text><text fill="#000000" font-family="sans-serif" font-size="14" lengthAdjust="spacing" textLength="151.293" x="577.6328" y="46.0234">endrer / blir endret av</text><line style="stroke:#000000;stroke-width:1;" x1="572.6328" x2="572.6328" y1="30.4883" y2="50.9766"/><rect fill="none" height="40.9766" rx="5" ry="5" style="stroke:#000000;stroke-width:1.5;" width="288.9258" x="445" y="10"/><rect fill="#F1F1F1" height="40.9766" rx="5" ry="5" style="stroke:#F1F1F1;stroke-width:1.5;" width="311.2861" x="434" y="69"/><text fill="#000000" font-family="sans-serif" font-size="14" font-weight="bold" lengthAdjust="spacing" textLength="71.9824" x="439" y="84.5352">kodeverdi</text><text fill="#000000" font-family="sans-serif" font-size="14" lengthAdjust="spacing" textLength="8.8525" x="566.6328" y="84.5352">2</text><line style="stroke:#000000;stroke-width:1;" x1="561.6328" x2="561.6328" y1="69" y2="89.4883"/><line style="stroke:#000000;stroke-width:1;" x1="434" x2="745.2861" y1="89.4883" y2="89.4883"/><text fill="#000000" font-family="sans-serif" font-size="14" font-weight="bold" lengthAdjust="spacing" textLength="117.6328" x="439" y="105.0234">kodebeskrivelse</text><text fill="#000000" font-family="sans-serif" font-size="14" lengthAdjust="spacing" textLength="173.6533" x="566.6328" y="105.0234">overstyrer / overstyres av</text><line style="stroke:#000000;stroke-width:1;" x1="561.6328" x2="561.6328" y1="89.4883" y2="109.9766"/><rect fill="none" height="40.9766" rx="5" ry="5" style="stroke:#000000;stroke-width:1.5;" width="311.2861" x="434" y="69"/><rect fill="#F1F1F1" height="40.9766" rx="5" ry="5" style="stroke:#F1F1F1;stroke-width:1.5;" width="490.9756" x="344" y="128"/><text fill="#000000" font-family="sans-serif" font-size="14" font-weight="bold" lengthAdjust="spacing" textLength="71.9824" x="349" y="143.5352">kodeverdi</text><text fill="#000000" font-family="sans-serif" font-size="14" lengthAdjust="spacing" textLength="8.8525" x="476.6328" y="143.5352">3</text><line style="stroke:#000000;stroke-width:1;" x1="471.6328" x2="471.6328" y1="128" y2="148.4883"/><line style="stroke:#000000;stroke-width:1;" x1="344" x2="834.9756" y1="148.4883" y2="148.4883"/><text fill="#000000" font-family="sans-serif" font-size="14" font-weight="bold" lengthAdjust="spacing" textLength="117.6328" x="349" y="164.0234">kodebeskrivelse</text><text fill="#000000" font-family="sans-serif" font-size="14" lengthAdjust="spacing" textLength="353.3428" x="476.6328" y="164.0234">arver bestemmelser fra / overf&#248;rer bestemmelser til</text><line style="stroke:#000000;stroke-width:1;" x1="471.6328" x2="471.6328" y1="148.4883" y2="168.9766"/><rect fill="none" height="40.9766" rx="5" ry="5" style="stroke:#000000;stroke-width:1.5;" width="490.9756" x="344" y="128"/><rect fill="#F1F1F1" height="40.9766" rx="5" ry="5" style="stroke:#F1F1F1;stroke-width:1.5;" width="315.0801" x="432" y="187"/><text fill="#000000" font-family="sans-serif" font-size="14" font-weight="bold" lengthAdjust="spacing" textLength="71.9824" x="437" y="202.5352">kodeverdi</text><text fill="#000000" font-family="sans-serif" font-size="14" lengthAdjust="spacing" textLength="8.8525" x="564.6328" y="202.5352">4</text><line style="stroke:#000000;stroke-width:1;" x1="559.6328" x2="559.6328" y1="187" y2="207.4883"/><line style="stroke:#000000;stroke-width:1;" x1="432" x2="747.0801" y1="207.4883" y2="207.4883"/><text fill="#000000" font-family="sans-serif" font-size="14" font-weight="bold" lengthAdjust="spacing" textLength="117.6328" x="437" y="223.0234">kodebeskrivelse</text><text fill="#000000" font-family="sans-serif" font-size="14" lengthAdjust="spacing" textLength="177.4473" x="564.6328" y="223.0234">erstatter / blir erstattet av</text><line style="stroke:#000000;stroke-width:1;" x1="559.6328" x2="559.6328" y1="207.4883" y2="227.9766"/><rect fill="none" height="40.9766" rx="5" ry="5" style="stroke:#000000;stroke-width:1.5;" width="315.0801" x="432" y="187"/><rect fill="#F1F1F1" height="40.9766" rx="5" ry="5" style="stroke:#F1F1F1;stroke-width:1.5;" width="402.1152" x="388.5" y="246"/><text fill="#000000" font-family="sans-serif" font-size="14" font-weight="bold" lengthAdjust="spacing" textLength="71.9824" x="393.5" y="261.5352">kodeverdi</text><text fill="#000000" font-family="sans-serif" font-size="14" lengthAdjust="spacing" textLength="8.8525" x="521.1328" y="261.5352">5</text><line style="stroke:#000000;stroke-width:1;" x1="516.1328" x2="516.1328" y1="246" y2="266.4883"/><line style="stroke:#000000;stroke-width:1;" x1="388.5" x2="790.6152" y1="266.4883" y2="266.4883"/><text fill="#000000" font-family="sans-serif" font-size="14" font-weight="bold" lengthAdjust="spacing" textLength="117.6328" x="393.5" y="282.0234">kodebeskrivelse</text><text fill="#000000" font-family="sans-serif" font-size="14" lengthAdjust="spacing" textLength="264.4824" x="521.1328" y="282.0234">erstatter delvis / blir delvis erstattet av</text><line style="stroke:#000000;stroke-width:1;" x1="516.1328" x2="516.1328" y1="266.4883" y2="286.9766"/><rect fill="none" height="40.9766" rx="5" ry="5" style="stroke:#000000;stroke-width:1.5;" width="402.1152" x="388.5" y="246"/><path d="M295,107.5 L308,107.5 C334.6667,107.5 320.8921,72.8093 344,59.5 C372.176,43.2717 405.1856,34.1179 437.6844,29.27" fill="none" style="stroke:#000000;stroke-width:1;stroke-dasharray:3.0,3.0;"/><path d="M438.1182,32.3914 L440.0255,28.9447 L437.2507,26.1486 L445.488,28.1856 L438.1182,32.3914" fill="#000000" style="stroke:#000000;stroke-width:1;"/><ellipse cx="295" cy="107.5" fill="#000000" rx="3" ry="3" style="stroke:#000000;stroke-width:1;"/><path d="M295,128.5 L308,128.5 C324.4924,128.5 327.7842,122.508 344,119.5 C370.5738,114.5707 398.9246,110.2493 426.5638,106.5355" fill="none" style="stroke:#000000;stroke-width:1;stroke-dasharray:3.0,3.0;"/><path d="M426.9764,109.6454 L428.8963,106.2261 L426.1513,103.4256 L434.3386,105.5041 L426.9764,109.6454" fill="#000000" style="stroke:#000000;stroke-width:1;"/><ellipse cx="295" cy="128.5" fill="#000000" rx="3" ry="3" style="stroke:#000000;stroke-width:1;"/><path d="M295,148.5 L308,148.5 C317.3348,148.5 326.8441,148.5 336.4496,148.5" fill="none" style="stroke:#000000;stroke-width:1;stroke-dasharray:3.0,3.0;"/><path d="M336.4496,151.589 L338.7664,148.5 L336.4496,145.411 L344.1721,148.5 L336.4496,151.589" fill="#000000" style="stroke:#000000;stroke-width:1;"/><ellipse cx="295" cy="148.5" fill="#000000" rx="3" ry="3" style="stroke:#000000;stroke-width:1;"/><path d="M295,168.5 L308,168.5 C324.6058,168.5 327.7069,175.2924 344,178.5 C369.9291,183.6046 397.5911,187.9332 424.6444,191.5633" fill="none" style="stroke:#000000;stroke-width:1;stroke-dasharray:3.0,3.0;"/><path d="M424.2423,194.6083 L426.9281,191.865 L425.0466,188.5184 L432.2568,192.5688 L424.2423,194.6083" fill="#000000" style="stroke:#000000;stroke-width:1;"/><ellipse cx="295" cy="168.5" fill="#000000" rx="3" ry="3" style="stroke:#000000;stroke-width:1;"/><path d="M295,189.5 L308,189.5 C334.6667,189.5 320.8921,224.1907 344,237.5 C355.8219,244.309 368.4947,249.8725 381.6237,254.3952" fill="none" style="stroke:#000000;stroke-width:1;stroke-dasharray:3.0,3.0;"/><path d="M380.661,257.3305 L383.8252,255.1172 L382.5864,251.4598 L388.962,256.8019 L380.661,257.3305" fill="#000000" style="stroke:#000000;stroke-width:1;"/><ellipse cx="295" cy="189.5" fill="#000000" rx="3" ry="3" style="stroke:#000000;stroke-width:1;"/><path d="M235,148.5 L248,148.5 C257.399,148.5 267.8552,148.5 276.5144,148.5" fill="none" style="stroke:#000000;stroke-width:1;stroke-dasharray:3.0,3.0;"/><path d="M276.5144,151.5633 L278.8119,148.5 L276.5144,145.4367 L284.1727,148.5 L276.5144,151.5633" fill="#000000" style="stroke:#000000;stroke-width:1;"/><ellipse cx="235" cy="148.5" fill="#000000" rx="3" ry="3" style="stroke:#000000;stroke-width:1;"/><!--SRC=[ZL9DJm913BtFhsZsf8aYB89aJqP04mGb2boCXu7jui0mGpgpcn33__Bk7xExV6YCGIvD-bxVwqpRQ-Sb-PcpHhmBW619rjkvrTh8p0GH1CQMvgwKA0vBBKrmbbVjo3uZYQKtg-F1QecqOJCaDxD5GHPkeBcDKIldaS4N1W3UYxYbM16h05XGAUhtn1ZTd5I6sc51eua92IvWh1L1aNcGML1ercU7dCF3pZP_jLzjtFU9EzAyUjXS4fS2enuNYnmbI4Xk6oMV7_IRzKeVq_Rodsdn9wJtFmQs1OwTMUrOVzvkfjokpJRxenl7Lx4MrxovukP4Va5-sEj2Fd5b3LHAOJcibSAJGOhGaGRALr1fHDLQLAr3ips0d3uL9tVzBZYRqWGXviCYDKuzwqz5HsOIdbBZrG8ZU5oYwRJkTm2qJQR8cWKQBpgZtdT1_VByHdbunc9LevveOI9JxLaniR4oqmY6WzlpXkXACqtbbBtHYAPbNrf5yF3u1G00]--></g></svg>