<svg xmlns="http://www.w3.org/2000/svg" xmlns:xlink="http://www.w3.org/1999/xlink" contentStyleType="text/css" height="298px" preserveAspectRatio="none" style="width:849px;height:298px;background:#FFFFFF;" version="1.1" viewBox="0 0 849 298" width="849px" zoomAndPan="magnify"><defs/><g><rect fill="#F1F1F1" height="81.9531" rx="5" ry="5" style="stroke:#F1F1F1;stroke-width:1.5;" width="240" x="10" y="76.5"/><text fill="#000000" font-family="sans-serif" font-size="14" font-weight="bold" lengthAdjust="spacing" textLength="101" x="15" y="92.0352">protokollnavn</text><text fill="#000000" font-family="sans-serif" font-size="14" lengthAdjust="spacing" textLength="99" x="126" y="92.0352">no.ks.fiks.plan</text><line style="stroke:#000000;stroke-width:1.0;" x1="121" x2="121" y1="76.5" y2="96.9883"/><line style="stroke:#000000;stroke-width:1.0;" x1="10" x2="250" y1="96.9883" y2="96.9883"/><text fill="#000000" font-family="sans-serif" font-size="14" font-weight="bold" lengthAdjust="spacing" textLength="34" x="15" y="112.5234">navn</text><text fill="#000000" font-family="sans-serif" font-size="14" lengthAdjust="spacing" textLength="119" x="126" y="112.5234">PlanforholdTyper</text><line style="stroke:#000000;stroke-width:1.0;" x1="121" x2="121" y1="96.9883" y2="117.4766"/><line style="stroke:#000000;stroke-width:1.0;" x1="10" x2="250" y1="117.4766" y2="117.4766"/><text fill="#000000" font-family="sans-serif" font-size="14" font-weight="bold" lengthAdjust="spacing" textLength="53" x="15" y="133.0117">versjon</text><text fill="#000000" font-family="sans-serif" font-size="14" lengthAdjust="spacing" textLength="16" x="126" y="133.0117">v2</text><line style="stroke:#000000;stroke-width:1.0;" x1="121" x2="121" y1="117.4766" y2="137.9648"/><line style="stroke:#000000;stroke-width:1.0;" x1="10" x2="250" y1="137.9648" y2="137.9648"/><text fill="#000000" font-family="sans-serif" font-size="14" font-weight="bold" lengthAdjust="spacing" textLength="67" x="15" y="153.5">kodeliste</text><text fill="#000000" font-family="sans-serif" font-size="14" lengthAdjust="spacing" textLength="12" x="126" y="153.5">&#160;&#160;&#160;</text><line style="stroke:#000000;stroke-width:1.0;" x1="121" x2="121" y1="137.9648" y2="158.4531"/><rect fill="none" height="81.9531" rx="5" ry="5" style="stroke:#000000;stroke-width:1.5;" width="240" x="10" y="76.5"/><rect fill="#F1F1F1" height="102.4414" rx="5" ry="5" style="stroke:#F1F1F1;stroke-width:1.5;" width="22" x="287" y="97.2793"/><text fill="#000000" font-family="sans-serif" font-size="14" lengthAdjust="spacing" textLength="12" x="292" y="112.8145">&#160;&#160;&#160;</text><line style="stroke:#000000;stroke-width:1.0;" x1="287" x2="309" y1="117.7676" y2="117.7676"/><text fill="#000000" font-family="sans-serif" font-size="14" lengthAdjust="spacing" textLength="12" x="292" y="133.3027">&#160;&#160;&#160;</text><line style="stroke:#000000;stroke-width:1.0;" x1="287" x2="309" y1="138.2559" y2="138.2559"/><text fill="#000000" font-family="sans-serif" font-size="14" lengthAdjust="spacing" textLength="12" x="292" y="153.791">&#160;&#160;&#160;</text><line style="stroke:#000000;stroke-width:1.0;" x1="287" x2="309" y1="158.7441" y2="158.7441"/><text fill="#000000" font-family="sans-serif" font-size="14" lengthAdjust="spacing" textLength="12" x="292" y="174.2793">&#160;&#160;&#160;</text><line style="stroke:#000000;stroke-width:1.0;" x1="287" x2="309" y1="179.2324" y2="179.2324"/><text fill="#000000" font-family="sans-serif" font-size="14" lengthAdjust="spacing" textLength="12" x="292" y="194.7676">&#160;&#160;&#160;</text><rect fill="none" height="102.4414" rx="5" ry="5" style="stroke:#000000;stroke-width:1.5;" width="22" x="287" y="97.2793"/><rect fill="#F1F1F1" height="40.9766" rx="5" ry="5" style="stroke:#F1F1F1;stroke-width:1.5;" width="289" x="447" y="10"/><text fill="#000000" font-family="sans-serif" font-size="14" font-weight="bold" lengthAdjust="spacing" textLength="71" x="452" y="25.5352">kodeverdi</text><text fill="#000000" font-family="sans-serif" font-size="14" lengthAdjust="spacing" textLength="9" x="579" y="25.5352">1</text><line style="stroke:#000000;stroke-width:1.0;" x1="574" x2="574" y1="10" y2="30.4883"/><line style="stroke:#000000;stroke-width:1.0;" x1="447" x2="736" y1="30.4883" y2="30.4883"/><text fill="#000000" font-family="sans-serif" font-size="14" font-weight="bold" lengthAdjust="spacing" textLength="117" x="452" y="46.0234">kodebeskrivelse</text><text fill="#000000" font-family="sans-serif" font-size="14" lengthAdjust="spacing" textLength="152" x="579" y="46.0234">endrer / blir endret av</text><line style="stroke:#000000;stroke-width:1.0;" x1="574" x2="574" y1="30.4883" y2="50.9766"/><rect fill="none" height="40.9766" rx="5" ry="5" style="stroke:#000000;stroke-width:1.5;" width="289" x="447" y="10"/><rect fill="#F1F1F1" height="40.9766" rx="5" ry="5" style="stroke:#F1F1F1;stroke-width:1.5;" width="310" x="436.5" y="69"/><text fill="#000000" font-family="sans-serif" font-size="14" font-weight="bold" lengthAdjust="spacing" textLength="71" x="441.5" y="84.5352">kodeverdi</text><text fill="#000000" font-family="sans-serif" font-size="14" lengthAdjust="spacing" textLength="9" x="568.5" y="84.5352">2</text><line style="stroke:#000000;stroke-width:1.0;" x1="563.5" x2="563.5" y1="69" y2="89.4883"/><line style="stroke:#000000;stroke-width:1.0;" x1="436.5" x2="746.5" y1="89.4883" y2="89.4883"/><text fill="#000000" font-family="sans-serif" font-size="14" font-weight="bold" lengthAdjust="spacing" textLength="117" x="441.5" y="105.0234">kodebeskrivelse</text><text fill="#000000" font-family="sans-serif" font-size="14" lengthAdjust="spacing" textLength="173" x="568.5" y="105.0234">overstyrer / overstyres av</text><line style="stroke:#000000;stroke-width:1.0;" x1="563.5" x2="563.5" y1="89.4883" y2="109.9766"/><rect fill="none" height="40.9766" rx="5" ry="5" style="stroke:#000000;stroke-width:1.5;" width="310" x="436.5" y="69"/><rect fill="#F1F1F1" height="40.9766" rx="5" ry="5" style="stroke:#F1F1F1;stroke-width:1.5;" width="491" x="346" y="128"/><text fill="#000000" font-family="sans-serif" font-size="14" font-weight="bold" lengthAdjust="spacing" textLength="71" x="351" y="143.5352">kodeverdi</text><text fill="#000000" font-family="sans-serif" font-size="14" lengthAdjust="spacing" textLength="9" x="478" y="143.5352">3</text><line style="stroke:#000000;stroke-width:1.0;" x1="473" x2="473" y1="128" y2="148.4883"/><line style="stroke:#000000;stroke-width:1.0;" x1="346" x2="837" y1="148.4883" y2="148.4883"/><text fill="#000000" font-family="sans-serif" font-size="14" font-weight="bold" lengthAdjust="spacing" textLength="117" x="351" y="164.0234">kodebeskrivelse</text><text fill="#000000" font-family="sans-serif" font-size="14" lengthAdjust="spacing" textLength="354" x="478" y="164.0234">arver bestemmelser fra / overf&#248;rer bestemmelser til</text><line style="stroke:#000000;stroke-width:1.0;" x1="473" x2="473" y1="148.4883" y2="168.9766"/><rect fill="none" height="40.9766" rx="5" ry="5" style="stroke:#000000;stroke-width:1.5;" width="491" x="346" y="128"/><rect fill="#F1F1F1" height="40.9766" rx="5" ry="5" style="stroke:#F1F1F1;stroke-width:1.5;" width="313" x="435" y="187"/><text fill="#000000" font-family="sans-serif" font-size="14" font-weight="bold" lengthAdjust="spacing" textLength="71" x="440" y="202.5352">kodeverdi</text><text fill="#000000" font-family="sans-serif" font-size="14" lengthAdjust="spacing" textLength="9" x="567" y="202.5352">4</text><line style="stroke:#000000;stroke-width:1.0;" x1="562" x2="562" y1="187" y2="207.4883"/><line style="stroke:#000000;stroke-width:1.0;" x1="435" x2="748" y1="207.4883" y2="207.4883"/><text fill="#000000" font-family="sans-serif" font-size="14" font-weight="bold" lengthAdjust="spacing" textLength="117" x="440" y="223.0234">kodebeskrivelse</text><text fill="#000000" font-family="sans-serif" font-size="14" lengthAdjust="spacing" textLength="176" x="567" y="223.0234">erstatter / blir erstattet av</text><line style="stroke:#000000;stroke-width:1.0;" x1="562" x2="562" y1="207.4883" y2="227.9766"/><rect fill="none" height="40.9766" rx="5" ry="5" style="stroke:#000000;stroke-width:1.5;" width="313" x="435" y="187"/><rect fill="#F1F1F1" height="40.9766" rx="5" ry="5" style="stroke:#F1F1F1;stroke-width:1.5;" width="399" x="392" y="246"/><text fill="#000000" font-family="sans-serif" font-size="14" font-weight="bold" lengthAdjust="spacing" textLength="71" x="397" y="261.5352">kodeverdi</text><text fill="#000000" font-family="sans-serif" font-size="14" lengthAdjust="spacing" textLength="9" x="524" y="261.5352">5</text><line style="stroke:#000000;stroke-width:1.0;" x1="519" x2="519" y1="246" y2="266.4883"/><line style="stroke:#000000;stroke-width:1.0;" x1="392" x2="791" y1="266.4883" y2="266.4883"/><text fill="#000000" font-family="sans-serif" font-size="14" font-weight="bold" lengthAdjust="spacing" textLength="117" x="397" y="282.0234">kodebeskrivelse</text><text fill="#000000" font-family="sans-serif" font-size="14" lengthAdjust="spacing" textLength="262" x="524" y="282.0234">erstatter delvis / blir delvis erstattet av</text><line style="stroke:#000000;stroke-width:1.0;" x1="519" x2="519" y1="266.4883" y2="286.9766"/><rect fill="none" height="40.9766" rx="5" ry="5" style="stroke:#000000;stroke-width:1.5;" width="399" x="392" y="246"/><path d="M297,107.5 L310,107.5 C336.6667,107.5 322.8921,72.8093 346,59.5 C374.176,43.2717 407.1856,34.1179 439.6844,29.27 " fill="none" style="stroke:#000000;stroke-width:1.0;stroke-dasharray:3.0,3.0;"/><path d="M440.1182,32.3914 L442.0255,28.9447 L439.2507,26.1486 L447.488,28.1856 L440.1182,32.3914 " fill="#000000" style="stroke:#000000;stroke-width:1.0;"/><ellipse cx="297" cy="107.5" fill="#000000" rx="3" ry="3" style="stroke:#000000;stroke-width:1.0;"/><path d="M297,128.5 L310,128.5 C326.4924,128.5 329.7842,122.508 346,119.5 C372.8808,114.5137 401.5798,110.1495 429.5213,106.407 " fill="none" style="stroke:#000000;stroke-width:1.0;stroke-dasharray:3.0,3.0;"/><path d="M429.9167,109.3953 L431.7625,106.1105 L429.1259,103.4188 L436.992,105.4186 L429.9167,109.3953 " fill="#000000" style="stroke:#000000;stroke-width:1.0;"/><ellipse cx="297" cy="128.5" fill="#000000" rx="3" ry="3" style="stroke:#000000;stroke-width:1.0;"/><path d="M297,148.5 L310,148.5 C319.3348,148.5 328.8441,148.5 338.4496,148.5 " fill="none" style="stroke:#000000;stroke-width:1.0;stroke-dasharray:3.0,3.0;"/><path d="M338.4496,151.589 L340.7664,148.5 L338.4496,145.411 L346.1721,148.5 L338.4496,151.589 " fill="#000000" style="stroke:#000000;stroke-width:1.0;"/><ellipse cx="297" cy="148.5" fill="#000000" rx="3" ry="3" style="stroke:#000000;stroke-width:1.0;"/><path d="M297,168.5 L310,168.5 C326.6058,168.5 329.7069,175.2924 346,178.5 C372.2172,183.6614 400.206,188.0293 427.546,191.6841 " fill="none" style="stroke:#000000;stroke-width:1.0;stroke-dasharray:3.0,3.0;"/><path d="M427.1412,194.7609 L429.8536,191.9877 L427.9508,188.6073 L435.2381,192.6961 L427.1412,194.7609 " fill="#000000" style="stroke:#000000;stroke-width:1.0;"/><ellipse cx="297" cy="168.5" fill="#000000" rx="3" ry="3" style="stroke:#000000;stroke-width:1.0;"/><path d="M297,189.5 L310,189.5 C336.6667,189.5 322.8921,224.1907 346,237.5 C358.2474,244.5541 371.4081,250.2714 385.0432,254.8795 " fill="none" style="stroke:#000000;stroke-width:1.0;stroke-dasharray:3.0,3.0;"/><path d="M384.1193,257.748 L387.1945,255.5724 L385.9671,252.011 L392.2144,257.1893 L384.1193,257.748 " fill="#000000" style="stroke:#000000;stroke-width:1.0;"/><ellipse cx="297" cy="189.5" fill="#000000" rx="3" ry="3" style="stroke:#000000;stroke-width:1.0;"/><path d="M238,148.5 L251,148.5 C260.4213,148.5 270.9164,148.5 279.5483,148.5 " fill="none" style="stroke:#000000;stroke-width:1.0;stroke-dasharray:3.0,3.0;"/><path d="M279.5483,151.5437 L281.8311,148.5 L279.5483,145.4563 L287.1575,148.5 L279.5483,151.5437 " fill="#000000" style="stroke:#000000;stroke-width:1.0;"/><ellipse cx="238" cy="148.5" fill="#000000" rx="3" ry="3" style="stroke:#000000;stroke-width:1.0;"/><!--SRC=[ZL9DJm913BtFhsZsX0cYku8nUoBYHuAWH3ukniF0Td5ac26TsKq8uNzvzu_PNJuqnY2N9dtlzNMcRTDvIVxTMIDM0Y1OaFLsPhKsCZT1386njPchfOh3GaiJL0lLZkmnabfwipePB1T86pP7Sk-s5EJH1fhP1BLo7XbyOG1WLSOjnHM92e0BmbA_9yRePgHor0vB6ar2I706Owq8oio3p8EoPbqzv1mTThR5g_rouxvFt97c5uVD9R4K6FKudnSeGKfosoZz_A3Vh5VwcBRrVwR5dv3U_nZO5ZXsPerZ_NcxkNAxDjliZsuSNyLQD7bpvSs9ueByiDk1OkBA6WXhqNbKhpKg_Sn0LouXkeGmZCD6tBY2rcr_00L_8YhtlGuucz448U7B8ZNEF1kSYBRC9Jndngivnl2qGDE-UTW1S6joHTRCqNZH7dM_1PVrqslbeO_bhaPTSOEfpBJdYebDb9d6C1pSdLw9ZZJJJ4xP6ureMVQbPGoFJry0]--></g></svg>