<?xml version="1.0" encoding="us-ascii" standalone="no"?><svg xmlns="http://www.w3.org/2000/svg" xmlns:xlink="http://www.w3.org/1999/xlink" contentStyleType="text/css" height="186px" preserveAspectRatio="none" style="width:854px;height:186px;background:#FFFFFF;" version="1.1" viewBox="0 0 854 186" width="854px" zoomAndPan="magnify"><defs/><g><!--class FinnMidlertidigeForbudMottiltakResultat--><g id="elem_FinnMidlertidigeForbudMottiltakResultat"><rect codeLine="2" fill="#F1F1F1" height="64.4883" id="FinnMidlertidigeForbudMottiltakResultat" rx="2.5" ry="2.5" style="stroke:#181818;stroke-width:0.5;" width="309" x="7" y="7"/><ellipse cx="22" cy="23" fill="#ADD1B2" rx="11" ry="11" style="stroke:#181818;stroke-width:1.0;"/><path d="M24.4731,29.1431 Q23.8921,29.4419 23.2529,29.5913 Q22.6138,29.7407 21.9082,29.7407 Q19.4014,29.7407 18.0815,28.0889 Q16.7617,26.437 16.7617,23.3159 Q16.7617,20.1865 18.0815,18.5347 Q19.4014,16.8828 21.9082,16.8828 Q22.6138,16.8828 23.2612,17.0322 Q23.9087,17.1816 24.4731,17.4805 L24.4731,20.2031 Q23.8423,19.6221 23.2488,19.3523 Q22.6553,19.0825 22.0244,19.0825 Q20.6797,19.0825 19.9949,20.1492 Q19.3101,21.2158 19.3101,23.3159 Q19.3101,25.4077 19.9949,26.4744 Q20.6797,27.541 22.0244,27.541 Q22.6553,27.541 23.2488,27.2712 Q23.8423,27.0015 24.4731,26.4204 Z " fill="#000000"/><text fill="#000000" font-family="sans-serif" font-size="14" lengthAdjust="spacing" textLength="277" x="36" y="28.291">FinnMidlertidigeForbudMottiltakResultat</text><line style="stroke:#181818;stroke-width:0.5;" x1="8" x2="315" y1="39" y2="39"/><ellipse cx="18" cy="52.7441" fill="none" rx="3" ry="3" style="stroke:#038048;stroke-width:1.0;"/><text fill="#000000" font-family="sans-serif" font-size="14" lengthAdjust="spacing" textLength="275" x="27" y="56.5352">midlertidigeForbud: MidlertidigForbud[]</text><line style="stroke:#181818;stroke-width:0.5;" x1="8" x2="315" y1="63.4883" y2="63.4883"/></g><!--class MidlertidigForbud--><g id="elem_MidlertidigForbud"><rect fill="#F1F1F1" height="48" id="MidlertidigForbud" rx="2.5" ry="2.5" style="stroke:#181818;stroke-width:0.5;" width="156" x="302.5" y="131.49"/><ellipse cx="317.5" cy="147.49" fill="#ADD1B2" rx="11" ry="11" style="stroke:#181818;stroke-width:1.0;"/><path d="M319.9731,153.6331 Q319.3921,153.9319 318.7529,154.0813 Q318.1138,154.2307 317.4082,154.2307 Q314.9014,154.2307 313.5815,152.5789 Q312.2617,150.927 312.2617,147.8059 Q312.2617,144.6765 313.5815,143.0247 Q314.9014,141.3728 317.4082,141.3728 Q318.1138,141.3728 318.7612,141.5222 Q319.4087,141.6716 319.9731,141.9705 L319.9731,144.6931 Q319.3423,144.1121 318.7488,143.8423 Q318.1553,143.5725 317.5244,143.5725 Q316.1797,143.5725 315.4949,144.6392 Q314.8101,145.7058 314.8101,147.8059 Q314.8101,149.8977 315.4949,150.9644 Q316.1797,152.031 317.5244,152.031 Q318.1553,152.031 318.7488,151.7612 Q319.3423,151.4915 319.9731,150.9104 Z " fill="#000000"/><text fill="#000000" font-family="sans-serif" font-size="14" lengthAdjust="spacing" textLength="124" x="331.5" y="152.781">MidlertidigForbud</text><line style="stroke:#181818;stroke-width:0.5;" x1="303.5" x2="457.5" y1="163.49" y2="163.49"/><line style="stroke:#181818;stroke-width:0.5;" x1="303.5" x2="457.5" y1="171.49" y2="171.49"/></g><g id="elem_GMN5"><path d="M351.5,26.59 L351.5,51.9005 A0,0 0 0 0 351.5,51.9005 L572.48,51.9005 L425.55,130.99 L580.48,51.9005 L847.5,51.9005 A0,0 0 0 0 847.5,51.9005 L847.5,36.59 L837.5,26.59 L351.5,26.59 A0,0 0 0 0 351.5,26.59 " fill="#FEFFDD" style="stroke:#181818;stroke-width:0.5;"/><path d="M837.5,26.59 L837.5,36.59 L847.5,36.59 L837.5,26.59 " fill="#FEFFDD" style="stroke:#181818;stroke-width:0.5;"/><text fill="#000000" font-family="sans-serif" font-size="13" lengthAdjust="spacing" textLength="475" x="357.5" y="44.1584">Se detaljer i diagram for skjema 'no.ks.fiks.plan.v2.felles.midlertidigforbud'</text></g><!--link FinnMidlertidigeForbudMottiltakResultat to MidlertidigForbud--><g id="link_FinnMidlertidigeForbudMottiltakResultat_MidlertidigForbud"><path codeLine="6" d="M222.21,71.92 C258.16,90.67 302.93,114.03 335.68,131.11 " fill="none" id="FinnMidlertidigeForbudMottiltakResultat-MidlertidigForbud" style="stroke:#181818;stroke-width:1.0;"/></g><!--SRC=[ZO-n3eCm34HtVuKtXeeC7Va0DfPsh3g4na464wF4TAdwxqNjWiHI3pxfplSaFyINWYsdr74GoiQ11serzsler8p5_7IXicvg-0BSvZGVJXlSrN_MxGvlW7_9TNqa02GrGjC5DHvZRF1A6CYyZ9IHCR0VifynQiOoZJHxh9AwgRZ8srh49_SykqWYLDpkYVZbLG0V]--></g></svg>