<?xml version="1.0" encoding="us-ascii" standalone="no"?><svg xmlns="http://www.w3.org/2000/svg" xmlns:xlink="http://www.w3.org/1999/xlink" contentStyleType="text/css" height="186px" preserveAspectRatio="none" style="width:865px;height:186px;background:#FFFFFF;" version="1.1" viewBox="0 0 865 186" width="865px" zoomAndPan="magnify"><defs/><g><!--class HentGjeldendePlandokumenter--><g id="elem_HentGjeldendePlandokumenter"><rect codeLine="2" fill="#F1F1F1" height="64.4883" id="HentGjeldendePlandokumenter" rx="2.5" ry="2.5" style="stroke:#181818;stroke-width:0.5;" width="309" x="7" y="7"/><ellipse cx="50.35" cy="23" fill="#ADD1B2" rx="11" ry="11" style="stroke:#181818;stroke-width:1.0;"/><path d="M52.8231,29.1431 Q52.2421,29.4419 51.6029,29.5913 Q50.9638,29.7407 50.2582,29.7407 Q47.7514,29.7407 46.4315,28.0889 Q45.1117,26.437 45.1117,23.3159 Q45.1117,20.1865 46.4315,18.5347 Q47.7514,16.8828 50.2582,16.8828 Q50.9638,16.8828 51.6112,17.0322 Q52.2587,17.1816 52.8231,17.4805 L52.8231,20.2031 Q52.1923,19.6221 51.5988,19.3523 Q51.0053,19.0825 50.3744,19.0825 Q49.0297,19.0825 48.3449,20.1492 Q47.6601,21.2158 47.6601,23.3159 Q47.6601,25.4077 48.3449,26.4744 Q49.0297,27.541 50.3744,27.541 Q51.0053,27.541 51.5988,27.2712 Q52.1923,27.0015 52.8231,26.4204 Z " fill="#000000"/><text fill="#000000" font-family="sans-serif" font-size="14" lengthAdjust="spacing" textLength="214" x="70.65" y="28.291">HentGjeldendePlandokumenter</text><line style="stroke:#181818;stroke-width:0.5;" x1="8" x2="315" y1="39" y2="39"/><ellipse cx="18" cy="52.7441" fill="none" rx="3" ry="3" style="stroke:#038048;stroke-width:1.0;"/><text fill="#000000" font-family="sans-serif" font-size="14" lengthAdjust="spacing" textLength="283" x="27" y="56.5352">nasjonalArealplanId: NasjonalArealplanId</text><line style="stroke:#181818;stroke-width:0.5;" x1="8" x2="315" y1="63.4883" y2="63.4883"/></g><!--class NasjonalArealplanId--><g id="elem_NasjonalArealplanId"><rect fill="#F1F1F1" height="48" id="NasjonalArealplanId" rx="2.5" ry="2.5" style="stroke:#181818;stroke-width:0.5;" width="170" x="297.5" y="131.49"/><ellipse cx="312.5" cy="147.49" fill="#ADD1B2" rx="11" ry="11" style="stroke:#181818;stroke-width:1.0;"/><path d="M314.9731,153.6331 Q314.3921,153.9319 313.7529,154.0813 Q313.1138,154.2307 312.4082,154.2307 Q309.9014,154.2307 308.5815,152.5789 Q307.2617,150.927 307.2617,147.8059 Q307.2617,144.6765 308.5815,143.0247 Q309.9014,141.3728 312.4082,141.3728 Q313.1138,141.3728 313.7612,141.5222 Q314.4087,141.6716 314.9731,141.9705 L314.9731,144.6931 Q314.3423,144.1121 313.7488,143.8423 Q313.1553,143.5725 312.5244,143.5725 Q311.1797,143.5725 310.4949,144.6392 Q309.8101,145.7058 309.8101,147.8059 Q309.8101,149.8977 310.4949,150.9644 Q311.1797,152.031 312.5244,152.031 Q313.1553,152.031 313.7488,151.7612 Q314.3423,151.4915 314.9731,150.9104 Z " fill="#000000"/><text fill="#000000" font-family="sans-serif" font-size="14" lengthAdjust="spacing" textLength="138" x="326.5" y="152.781">NasjonalArealplanId</text><line style="stroke:#181818;stroke-width:0.5;" x1="298.5" x2="466.5" y1="163.49" y2="163.49"/><line style="stroke:#181818;stroke-width:0.5;" x1="298.5" x2="466.5" y1="171.49" y2="171.49"/></g><g id="elem_GMN5"><path d="M351,26.59 L351,51.9005 A0,0 0 0 0 351,51.9005 L577.16,51.9005 L428.17,130.99 L585.16,51.9005 L858,51.9005 A0,0 0 0 0 858,51.9005 L858,36.59 L848,26.59 L351,26.59 A0,0 0 0 0 351,26.59 " fill="#FEFFDD" style="stroke:#181818;stroke-width:0.5;"/><path d="M848,26.59 L848,36.59 L858,36.59 L848,26.59 " fill="#FEFFDD" style="stroke:#181818;stroke-width:0.5;"/><text fill="#000000" font-family="sans-serif" font-size="13" lengthAdjust="spacing" textLength="486" x="357" y="44.1584">Se detaljer i diagram for skjema 'no.ks.fiks.plan.v2.felles.nasjonalarealplanid'</text></g><!--link HentGjeldendePlandokumenter to NasjonalArealplanId--><g id="link_HentGjeldendePlandokumenter_NasjonalArealplanId"><path codeLine="6" d="M222.77,71.92 C259.05,90.67 304.22,114.03 337.27,131.11 " fill="none" id="HentGjeldendePlandokumenter-NasjonalArealplanId" style="stroke:#181818;stroke-width:1.0;"/></g><!--SRC=[VOwn3i8m34JtV8Mt3gWP6Bin0Gj2uWiixA2ahbqbAGlYtmb39ofkkE5qztHtmLBWn5gFYOLOYQ-2IZOkKmivmyj1qqwn95EKGsQKkLNEDC3bDtHlv_xX-dvpvTGgGxKPB6mLO80R0t55IOqIWI8-CauGB4CP4qy8dPeVYm-nsNVbdtiVM8IBNz_ZIepKkGy0]--></g></svg>