<svg xmlns="http://www.w3.org/2000/svg" xmlns:xlink="http://www.w3.org/1999/xlink" contentStyleType="text/css" height="202px" preserveAspectRatio="none" style="width:193px;height:202px;background:#FFFFFF;" version="1.1" viewBox="0 0 193 202" width="193px" zoomAndPan="magnify"><defs/><g><!--class HentAktoererResultat--><g id="elem_HentAktoererResultat"><rect codeLine="2" fill="#F1F1F1" height="64.4883" id="HentAktoererResultat" rx="2.5" ry="2.5" style="stroke:#181818;stroke-width:0.5;" width="179" x="7" y="7"/><ellipse cx="22" cy="23" fill="#ADD1B2" rx="11" ry="11" style="stroke:#181818;stroke-width:1.0;"/><path d="M24.4731,29.1431 Q23.8921,29.4419 23.2529,29.5913 Q22.6138,29.7407 21.9082,29.7407 Q19.4014,29.7407 18.0815,28.0889 Q16.7617,26.437 16.7617,23.3159 Q16.7617,20.1865 18.0815,18.5347 Q19.4014,16.8828 21.9082,16.8828 Q22.6138,16.8828 23.2612,17.0322 Q23.9087,17.1816 24.4731,17.4805 L24.4731,20.2031 Q23.8423,19.6221 23.2488,19.3523 Q22.6553,19.0825 22.0244,19.0825 Q20.6797,19.0825 19.9949,20.1492 Q19.3101,21.2158 19.3101,23.3159 Q19.3101,25.4077 19.9949,26.4744 Q20.6797,27.541 22.0244,27.541 Q22.6553,27.541 23.2488,27.2712 Q23.8423,27.0015 24.4731,26.4204 Z " fill="#000000"/><text fill="#000000" font-family="sans-serif" font-size="14" lengthAdjust="spacing" textLength="147" x="36" y="28.291">HentAktoererResultat</text><line style="stroke:#181818;stroke-width:0.5;" x1="8" x2="185" y1="39" y2="39"/><ellipse cx="18" cy="52.7441" fill="none" rx="3" ry="3" style="stroke:#038048;stroke-width:1.0;"/><text fill="#000000" font-family="sans-serif" font-size="14" lengthAdjust="spacing" textLength="136" x="27" y="56.5352">aktoerer: Aktoerer[]</text><line style="stroke:#181818;stroke-width:0.5;" x1="8" x2="185" y1="63.4883" y2="63.4883"/></g><!--class Aktoerer--><g id="elem_Aktoerer"><rect codeLine="8" fill="#F1F1F1" height="64.4883" id="Aktoerer" rx="2.5" ry="2.5" style="stroke:#181818;stroke-width:0.5;" width="92" x="50.5" y="131.49"/><ellipse cx="65.5" cy="147.49" fill="#ADD1B2" rx="11" ry="11" style="stroke:#181818;stroke-width:1.0;"/><path d="M67.9731,153.6331 Q67.3921,153.9319 66.7529,154.0813 Q66.1138,154.2307 65.4082,154.2307 Q62.9014,154.2307 61.5815,152.5789 Q60.2617,150.927 60.2617,147.8059 Q60.2617,144.6765 61.5815,143.0247 Q62.9014,141.3728 65.4082,141.3728 Q66.1138,141.3728 66.7612,141.5222 Q67.4087,141.6716 67.9731,141.9705 L67.9731,144.6931 Q67.3423,144.1121 66.7488,143.8423 Q66.1553,143.5725 65.5244,143.5725 Q64.1797,143.5725 63.4949,144.6392 Q62.8101,145.7058 62.8101,147.8059 Q62.8101,149.8977 63.4949,150.9644 Q64.1797,152.031 65.5244,152.031 Q66.1553,152.031 66.7488,151.7612 Q67.3423,151.4915 67.9731,150.9104 Z " fill="#000000"/><text fill="#000000" font-family="sans-serif" font-size="14" lengthAdjust="spacing" textLength="60" x="79.5" y="152.781">Aktoerer</text><line style="stroke:#181818;stroke-width:0.5;" x1="51.5" x2="141.5" y1="163.49" y2="163.49"/><text fill="#000000" font-family="sans-serif" font-size="14" lengthAdjust="spacing" textLength="79" x="56.5" y="181.0252">rolle: string</text><line style="stroke:#181818;stroke-width:0.5;" x1="51.5" x2="141.5" y1="187.9783" y2="187.9783"/></g><!--link HentAktoererResultat to Aktoerer--><g id="link_HentAktoererResultat_Aktoerer"><path codeLine="6" d="M96.5,71.79 C96.5,90.08 96.5,113.03 96.5,131.3 " fill="none" id="HentAktoererResultat-Aktoerer" style="stroke:#181818;stroke-width:1.0;"/></g><!--SRC=[Iyv9B2vMy4ZDAt7CBibFBKej2aejBiqfIInHgEPI00BjHAYubG9CHNGiLoqN5rOzkhfmLLnSoM2pONoeUKNvEJcfLWh59KMPUUb0Sm00]--></g></svg>