<?xml version="1.0" encoding="us-ascii" standalone="no"?><svg xmlns="http://www.w3.org/2000/svg" xmlns:xlink="http://www.w3.org/1999/xlink" contentStyleType="text/css" height="400px" preserveAspectRatio="none" style="width:864px;height:400px;background:#FFFFFF;" version="1.1" viewBox="0 0 864 400" width="864px" zoomAndPan="magnify"><defs/><g><!--class Arealplan--><g id="elem_Arealplan"><rect codeLine="1" fill="#F1F1F1" height="245.8594" id="Arealplan" rx="2.5" ry="2.5" style="stroke:#181818;stroke-width:0.5;" width="309" x="548" y="7"/><ellipse cx="665.25" cy="23" fill="#ADD1B2" rx="11" ry="11" style="stroke:#181818;stroke-width:1.0;"/><path d="M667.7231,29.1431 Q667.1421,29.4419 666.5029,29.5913 Q665.8638,29.7407 665.1582,29.7407 Q662.6514,29.7407 661.3315,28.0889 Q660.0117,26.437 660.0117,23.3159 Q660.0117,20.1865 661.3315,18.5347 Q662.6514,16.8828 665.1582,16.8828 Q665.8638,16.8828 666.5112,17.0322 Q667.1587,17.1816 667.7231,17.4805 L667.7231,20.2031 Q667.0923,19.6221 666.4988,19.3523 Q665.9053,19.0825 665.2744,19.0825 Q663.9297,19.0825 663.2449,20.1492 Q662.5601,21.2158 662.5601,23.3159 Q662.5601,25.4077 663.2449,26.4744 Q663.9297,27.541 665.2744,27.541 Q665.9053,27.541 666.4988,27.2712 Q667.0923,27.0015 667.7231,26.4204 Z " fill="#000000"/><text fill="#000000" font-family="sans-serif" font-size="14" lengthAdjust="spacing" textLength="66" x="685.75" y="28.291">Arealplan</text><line style="stroke:#181818;stroke-width:0.5;" x1="549" x2="856" y1="39" y2="39"/><ellipse cx="559" cy="52.7441" fill="none" rx="3" ry="3" style="stroke:#038048;stroke-width:1.0;"/><text fill="#000000" font-family="sans-serif" font-size="14" lengthAdjust="spacing" textLength="283" x="568" y="56.5352">nasjonalArealplanId: NasjonalArealplanId</text><ellipse cx="559" cy="69.2324" fill="none" rx="3" ry="3" style="stroke:#038048;stroke-width:1.0;"/><text fill="#000000" font-family="sans-serif" font-size="14" lengthAdjust="spacing" textLength="102" x="568" y="73.0234">plantype: Kode</text><ellipse cx="559" cy="85.7207" fill="none" rx="3" ry="3" style="stroke:#038048;stroke-width:1.0;"/><text fill="#000000" font-family="sans-serif" font-size="14" lengthAdjust="spacing" textLength="111" x="568" y="89.5117">plannavn: string</text><ellipse cx="559" cy="102.209" fill="none" rx="3" ry="3" style="stroke:#038048;stroke-width:1.0;"/><text fill="#000000" font-family="sans-serif" font-size="14" lengthAdjust="spacing" textLength="114" x="568" y="106">planstatus: Kode</text><ellipse cx="559" cy="118.6973" fill="none" rx="3" ry="3" style="stroke:#038048;stroke-width:1.0;"/><text fill="#000000" font-family="sans-serif" font-size="14" lengthAdjust="spacing" textLength="271" x="568" y="122.4883">plandokumentasjonOppdatert: boolean</text><ellipse cx="559" cy="135.1855" fill="none" rx="3" ry="3" style="stroke:#038048;stroke-width:1.0;"/><text fill="#000000" font-family="sans-serif" font-size="14" lengthAdjust="spacing" textLength="180" x="568" y="138.9766">ubehandletKlage: boolean</text><ellipse cx="559" cy="151.6738" fill="none" rx="3" ry="3" style="stroke:#038048;stroke-width:1.0;"/><text fill="#000000" font-family="sans-serif" font-size="14" lengthAdjust="spacing" textLength="211" x="568" y="155.4648">ubehandletInnsigelse: boolean</text><ellipse cx="559" cy="168.1621" fill="none" rx="3" ry="3" style="stroke:#038048;stroke-width:1.0;"/><text fill="#000000" font-family="sans-serif" font-size="14" lengthAdjust="spacing" textLength="121" x="568" y="171.9531">vedtaksdato: date</text><ellipse cx="559" cy="184.6504" fill="none" rx="3" ry="3" style="stroke:#038048;stroke-width:1.0;"/><text fill="#000000" font-family="sans-serif" font-size="14" lengthAdjust="spacing" textLength="195" x="568" y="188.4414">vedtakEndeligPlanDato: date</text><ellipse cx="559" cy="201.1387" fill="none" rx="3" ry="3" style="stroke:#038048;stroke-width:1.0;"/><text fill="#000000" font-family="sans-serif" font-size="14" lengthAdjust="spacing" textLength="128" x="568" y="204.9297">lovreferanse: Kode</text><ellipse cx="559" cy="217.627" fill="none" rx="3" ry="3" style="stroke:#038048;stroke-width:1.0;"/><text fill="#000000" font-family="sans-serif" font-size="14" lengthAdjust="spacing" textLength="162" x="568" y="221.418">forslagstillerType: Kode</text><ellipse cx="559" cy="234.1152" fill="none" rx="3" ry="3" style="stroke:#038048;stroke-width:1.0;"/><text fill="#000000" font-family="sans-serif" font-size="14" lengthAdjust="spacing" textLength="173" x="568" y="237.9063">alternativFinnes: boolean</text><line style="stroke:#181818;stroke-width:0.5;" x1="549" x2="856" y1="244.8594" y2="244.8594"/></g><!--class NasjonalArealplanId--><g id="elem_NasjonalArealplanId"><rect fill="#F1F1F1" height="48" id="NasjonalArealplanId" rx="2.5" ry="2.5" style="stroke:#181818;stroke-width:0.5;" width="170" x="290.5" y="329.35"/><ellipse cx="305.5" cy="345.35" fill="#ADD1B2" rx="11" ry="11" style="stroke:#181818;stroke-width:1.0;"/><path d="M307.9731,351.4931 Q307.3921,351.7919 306.7529,351.9413 Q306.1138,352.0907 305.4082,352.0907 Q302.9014,352.0907 301.5815,350.4389 Q300.2617,348.787 300.2617,345.6659 Q300.2617,342.5365 301.5815,340.8847 Q302.9014,339.2328 305.4082,339.2328 Q306.1138,339.2328 306.7612,339.3822 Q307.4087,339.5316 307.9731,339.8305 L307.9731,342.5531 Q307.3423,341.9721 306.7488,341.7023 Q306.1553,341.4325 305.5244,341.4325 Q304.1797,341.4325 303.4949,342.4992 Q302.8101,343.5658 302.8101,345.6659 Q302.8101,347.7577 303.4949,348.8244 Q304.1797,349.891 305.5244,349.891 Q306.1553,349.891 306.7488,349.6212 Q307.3423,349.3515 307.9731,348.7704 Z " fill="#000000"/><text fill="#000000" font-family="sans-serif" font-size="14" lengthAdjust="spacing" textLength="138" x="319.5" y="350.641">NasjonalArealplanId</text><line style="stroke:#181818;stroke-width:0.5;" x1="291.5" x2="459.5" y1="361.35" y2="361.35"/><line style="stroke:#181818;stroke-width:0.5;" x1="291.5" x2="459.5" y1="369.35" y2="369.35"/></g><!--class Kode--><g id="elem_Kode"><rect codeLine="21" fill="#F1F1F1" height="80.9766" id="Kode" rx="2.5" ry="2.5" style="stroke:#181818;stroke-width:0.5;" width="184" x="610.5" y="312.86"/><ellipse cx="680.75" cy="328.86" fill="#ADD1B2" rx="11" ry="11" style="stroke:#181818;stroke-width:1.0;"/><path d="M683.2231,335.0031 Q682.6421,335.3019 682.0029,335.4513 Q681.3638,335.6007 680.6582,335.6007 Q678.1514,335.6007 676.8315,333.9489 Q675.5117,332.297 675.5117,329.1759 Q675.5117,326.0465 676.8315,324.3947 Q678.1514,322.7428 680.6582,322.7428 Q681.3638,322.7428 682.0112,322.8922 Q682.6587,323.0416 683.2231,323.3405 L683.2231,326.0631 Q682.5923,325.4821 681.9988,325.2123 Q681.4053,324.9425 680.7744,324.9425 Q679.4297,324.9425 678.7449,326.0092 Q678.0601,327.0758 678.0601,329.1759 Q678.0601,331.2677 678.7449,332.3344 Q679.4297,333.401 680.7744,333.401 Q681.4053,333.401 681.9988,333.1312 Q682.5923,332.8615 683.2231,332.2804 Z " fill="#000000"/><text fill="#000000" font-family="sans-serif" font-size="14" lengthAdjust="spacing" textLength="35" x="701.25" y="334.151">Kode</text><line style="stroke:#181818;stroke-width:0.5;" x1="611.5" x2="793.5" y1="344.86" y2="344.86"/><ellipse cx="621.5" cy="358.6041" fill="none" rx="3" ry="3" style="stroke:#038048;stroke-width:1.0;"/><text fill="#000000" font-family="sans-serif" font-size="14" lengthAdjust="spacing" textLength="116" x="630.5" y="362.3952">kodeverdi: string</text><ellipse cx="621.5" cy="375.0924" fill="none" rx="3" ry="3" style="stroke:#038048;stroke-width:1.0;"/><text fill="#000000" font-family="sans-serif" font-size="14" lengthAdjust="spacing" textLength="158" x="630.5" y="378.8834">kodebeskrivelse: string</text><line style="stroke:#181818;stroke-width:0.5;" x1="611.5" x2="793.5" y1="385.8366" y2="385.8366"/></g><g id="elem_GMN7"><path d="M6,117.28 L6,142.5905 A0,0 0 0 0 6,142.5905 L261.74,142.5905 L363.28,329.02 L269.74,142.5905 L513,142.5905 A0,0 0 0 0 513,142.5905 L513,127.28 L503,117.28 L6,117.28 A0,0 0 0 0 6,117.28 " fill="#FEFFDD" style="stroke:#181818;stroke-width:0.5;"/><path d="M503,117.28 L503,127.28 L513,127.28 L503,117.28 " fill="#FEFFDD" style="stroke:#181818;stroke-width:0.5;"/><text fill="#000000" font-family="sans-serif" font-size="13" lengthAdjust="spacing" textLength="486" x="12" y="134.8484">Se detaljer i diagram for skjema 'no.ks.fiks.plan.v2.felles.nasjonalarealplanid'</text></g><!--link Arealplan to NasjonalArealplanId--><g id="link_Arealplan_NasjonalArealplanId"><path codeLine="16" d="M547.56,241.26 C541.81,245.2 536.11,249.08 530.5,252.86 C490.87,279.6 444.67,309.04 413.08,328.91 " fill="none" id="Arealplan-NasjonalArealplanId" style="stroke:#181818;stroke-width:1.0;"/></g><!--link Arealplan to Kode--><g id="link_Arealplan_Kode"><path codeLine="17" d="M702.5,253.3 C702.5,274.7 702.5,295.52 702.5,312.5 " fill="none" id="Arealplan-Kode" style="stroke:#181818;stroke-width:1.0;"/></g><!--SRC=[TL9DJyCm3BtdL_Ys0reF77j30gHf4Y317_0MjsHrdIhs8Y6q_qwwCShAo26odf_jvuyjeohS9K8U60K-7PHt8wYxACW_ZfMluUalU6AFjdqCLCCwUfemmImrgAKWxOIgeUrrplMns_SaTgpnF0mUZPBLi8cH2UL4t6_elL2PRCtOqh_UbOY6bbZdb4pUiDEIFDOmblWDFuWd3krBKNC_8t3CYHfAHVr5bqrCMfIe1MPARxCP89SU12tano12EeavE3VDVBcyEjeBmZ6fasW45WU8pRKGgE6Lm9CXxoX101-mJTX3aGdQxQX7M4YiEgsQKBungigtLKD5lLRdfUCvO_0BvxR72ndhdu-ZAtQcvCFbRaTuGzgba4-J_tOUt1S0]--></g></svg>