<?xml version="1.0" encoding="us-ascii" standalone="no"?><svg xmlns="http://www.w3.org/2000/svg" xmlns:xlink="http://www.w3.org/1999/xlink" contentStyleType="text/css" height="409px" preserveAspectRatio="none" style="width:1236px;height:409px;background:#FFFFFF;" version="1.1" viewBox="0 0 1236 409" width="1236px" zoomAndPan="magnify"><defs/><g><!--class Arealplan--><g id="elem_Arealplan"><rect codeLine="1" fill="#F1F1F1" height="245.8594" id="Arealplan" rx="2.5" ry="2.5" style="stroke:#181818;stroke-width:0.5;" width="309" x="548" y="7"/><ellipse cx="665.25" cy="23" fill="#ADD1B2" rx="11" ry="11" style="stroke:#181818;stroke-width:1.0;"/><path d="M667.7231,29.1431 Q667.1421,29.4419 666.5029,29.5913 Q665.8638,29.7407 665.1582,29.7407 Q662.6514,29.7407 661.3315,28.0889 Q660.0117,26.437 660.0117,23.3159 Q660.0117,20.1865 661.3315,18.5347 Q662.6514,16.8828 665.1582,16.8828 Q665.8638,16.8828 666.5112,17.0322 Q667.1587,17.1816 667.7231,17.4805 L667.7231,20.2031 Q667.0923,19.6221 666.4988,19.3523 Q665.9053,19.0825 665.2744,19.0825 Q663.9297,19.0825 663.2449,20.1492 Q662.5601,21.2158 662.5601,23.3159 Q662.5601,25.4077 663.2449,26.4744 Q663.9297,27.541 665.2744,27.541 Q665.9053,27.541 666.4988,27.2712 Q667.0923,27.0015 667.7231,26.4204 Z " fill="#000000"/><text fill="#000000" font-family="sans-serif" font-size="14" lengthAdjust="spacing" textLength="66" x="685.75" y="28.291">Arealplan</text><line style="stroke:#181818;stroke-width:0.5;" x1="549" x2="856" y1="39" y2="39"/><ellipse cx="559" cy="52.7441" fill="none" rx="3" ry="3" style="stroke:#038048;stroke-width:1.0;"/><text fill="#000000" font-family="sans-serif" font-size="14" lengthAdjust="spacing" textLength="283" x="568" y="56.5352">nasjonalArealplanId: NasjonalArealplanId</text><ellipse cx="559" cy="69.2324" fill="none" rx="3" ry="3" style="stroke:#038048;stroke-width:1.0;"/><text fill="#000000" font-family="sans-serif" font-size="14" lengthAdjust="spacing" textLength="125" x="568" y="73.0234">plantype: Plantype</text><ellipse cx="559" cy="85.7207" fill="none" rx="3" ry="3" style="stroke:#038048;stroke-width:1.0;"/><text fill="#000000" font-family="sans-serif" font-size="14" lengthAdjust="spacing" textLength="111" x="568" y="89.5117">plannavn: string</text><ellipse cx="559" cy="102.209" fill="none" rx="3" ry="3" style="stroke:#038048;stroke-width:1.0;"/><text fill="#000000" font-family="sans-serif" font-size="14" lengthAdjust="spacing" textLength="149" x="568" y="106">planstatus: Planstatus</text><ellipse cx="559" cy="118.6973" fill="none" rx="3" ry="3" style="stroke:#038048;stroke-width:1.0;"/><text fill="#000000" font-family="sans-serif" font-size="14" lengthAdjust="spacing" textLength="271" x="568" y="122.4883">plandokumentasjonOppdatert: boolean</text><ellipse cx="559" cy="135.1855" fill="none" rx="3" ry="3" style="stroke:#038048;stroke-width:1.0;"/><text fill="#000000" font-family="sans-serif" font-size="14" lengthAdjust="spacing" textLength="180" x="568" y="138.9766">ubehandletKlage: boolean</text><ellipse cx="559" cy="151.6738" fill="none" rx="3" ry="3" style="stroke:#038048;stroke-width:1.0;"/><text fill="#000000" font-family="sans-serif" font-size="14" lengthAdjust="spacing" textLength="211" x="568" y="155.4648">ubehandletInnsigelse: boolean</text><ellipse cx="559" cy="168.1621" fill="none" rx="3" ry="3" style="stroke:#038048;stroke-width:1.0;"/><text fill="#000000" font-family="sans-serif" font-size="14" lengthAdjust="spacing" textLength="121" x="568" y="171.9531">vedtaksdato: date</text><ellipse cx="559" cy="184.6504" fill="none" rx="3" ry="3" style="stroke:#038048;stroke-width:1.0;"/><text fill="#000000" font-family="sans-serif" font-size="14" lengthAdjust="spacing" textLength="195" x="568" y="188.4414">vedtakEndeligPlanDato: date</text><ellipse cx="559" cy="201.1387" fill="none" rx="3" ry="3" style="stroke:#038048;stroke-width:1.0;"/><text fill="#000000" font-family="sans-serif" font-size="14" lengthAdjust="spacing" textLength="181" x="568" y="204.9297">lovreferanse: Lovreferanse</text><ellipse cx="559" cy="217.627" fill="none" rx="3" ry="3" style="stroke:#038048;stroke-width:1.0;"/><text fill="#000000" font-family="sans-serif" font-size="14" lengthAdjust="spacing" textLength="249" x="568" y="221.418">forslagstillerType: ForslagstillerType</text><ellipse cx="559" cy="234.1152" fill="none" rx="3" ry="3" style="stroke:#038048;stroke-width:1.0;"/><text fill="#000000" font-family="sans-serif" font-size="14" lengthAdjust="spacing" textLength="173" x="568" y="237.9063">alternativFinnes: boolean</text><line style="stroke:#181818;stroke-width:0.5;" x1="549" x2="856" y1="244.8594" y2="244.8594"/></g><!--class NasjonalArealplanId--><g id="elem_NasjonalArealplanId"><rect fill="#F1F1F1" height="48" id="NasjonalArealplanId" rx="2.5" ry="2.5" style="stroke:#181818;stroke-width:0.5;" width="170" x="180.5" y="333.66"/><ellipse cx="195.5" cy="349.66" fill="#ADD1B2" rx="11" ry="11" style="stroke:#181818;stroke-width:1.0;"/><path d="M197.9731,355.8031 Q197.3921,356.1019 196.7529,356.2513 Q196.1138,356.4007 195.4082,356.4007 Q192.9014,356.4007 191.5815,354.7489 Q190.2617,353.097 190.2617,349.9759 Q190.2617,346.8465 191.5815,345.1947 Q192.9014,343.5428 195.4082,343.5428 Q196.1138,343.5428 196.7612,343.6922 Q197.4087,343.8416 197.9731,344.1405 L197.9731,346.8631 Q197.3423,346.2821 196.7488,346.0123 Q196.1553,345.7425 195.5244,345.7425 Q194.1797,345.7425 193.4949,346.8092 Q192.8101,347.8758 192.8101,349.9759 Q192.8101,352.0677 193.4949,353.1344 Q194.1797,354.201 195.5244,354.201 Q196.1553,354.201 196.7488,353.9312 Q197.3423,353.6615 197.9731,353.0804 Z " fill="#000000"/><text fill="#000000" font-family="sans-serif" font-size="14" lengthAdjust="spacing" textLength="138" x="209.5" y="354.951">NasjonalArealplanId</text><line style="stroke:#181818;stroke-width:0.5;" x1="181.5" x2="349.5" y1="365.66" y2="365.66"/><line style="stroke:#181818;stroke-width:0.5;" x1="181.5" x2="349.5" y1="373.66" y2="373.66"/></g><!--class Plantype--><g id="elem_Plantype"><rect codeLine="24" fill="#F1F1F1" height="89.5977" id="Plantype" rx="2.5" ry="2.5" style="stroke:#181818;stroke-width:0.5;" width="184" x="388.5" y="312.86"/><ellipse cx="447.25" cy="333.1705" fill="#ADD1B2" rx="11" ry="11" style="stroke:#181818;stroke-width:1.0;"/><path d="M449.7231,339.3136 Q449.1421,339.6124 448.5029,339.7619 Q447.8638,339.9113 447.1582,339.9113 Q444.6514,339.9113 443.3315,338.2594 Q442.0117,336.6076 442.0117,333.4865 Q442.0117,330.3571 443.3315,328.7052 Q444.6514,327.0534 447.1582,327.0534 Q447.8638,327.0534 448.5112,327.2028 Q449.1587,327.3522 449.7231,327.651 L449.7231,330.3737 Q449.0923,329.7926 448.4988,329.5228 Q447.9053,329.2531 447.2744,329.2531 Q445.9297,329.2531 445.2449,330.3197 Q444.5601,331.3864 444.5601,333.4865 Q444.5601,335.5783 445.2449,336.6449 Q445.9297,337.7116 447.2744,337.7116 Q447.9053,337.7116 448.4988,337.4418 Q449.0923,337.172 449.7231,336.591 Z " fill="#000000"/><text fill="#000000" font-family="sans-serif" font-size="12" font-style="italic" lengthAdjust="spacing" textLength="42" x="475.75" y="329.4616">&#171;Kode&#187;</text><text fill="#000000" font-family="sans-serif" font-size="14" lengthAdjust="spacing" textLength="58" x="467.75" y="345.528">Plantype</text><line style="stroke:#181818;stroke-width:0.5;" x1="389.5" x2="571.5" y1="353.4811" y2="353.4811"/><ellipse cx="399.5" cy="367.2252" fill="none" rx="3" ry="3" style="stroke:#038048;stroke-width:1.0;"/><text fill="#000000" font-family="sans-serif" font-size="14" lengthAdjust="spacing" textLength="116" x="408.5" y="371.0162">kodeverdi: string</text><ellipse cx="399.5" cy="383.7135" fill="none" rx="3" ry="3" style="stroke:#038048;stroke-width:1.0;"/><text fill="#000000" font-family="sans-serif" font-size="14" lengthAdjust="spacing" textLength="158" x="408.5" y="387.5045">kodebeskrivelse: string</text><line style="stroke:#181818;stroke-width:0.5;" x1="389.5" x2="571.5" y1="394.4577" y2="394.4577"/></g><!--class Planstatus--><g id="elem_Planstatus"><rect codeLine="29" fill="#F1F1F1" height="89.5977" id="Planstatus" rx="2.5" ry="2.5" style="stroke:#181818;stroke-width:0.5;" width="184" x="607.5" y="312.86"/><ellipse cx="660.25" cy="333.1705" fill="#ADD1B2" rx="11" ry="11" style="stroke:#181818;stroke-width:1.0;"/><path d="M662.7231,339.3136 Q662.1421,339.6124 661.5029,339.7619 Q660.8638,339.9113 660.1582,339.9113 Q657.6514,339.9113 656.3315,338.2594 Q655.0117,336.6076 655.0117,333.4865 Q655.0117,330.3571 656.3315,328.7052 Q657.6514,327.0534 660.1582,327.0534 Q660.8638,327.0534 661.5112,327.2028 Q662.1587,327.3522 662.7231,327.651 L662.7231,330.3737 Q662.0923,329.7926 661.4988,329.5228 Q660.9053,329.2531 660.2744,329.2531 Q658.9297,329.2531 658.2449,330.3197 Q657.5601,331.3864 657.5601,333.4865 Q657.5601,335.5783 658.2449,336.6449 Q658.9297,337.7116 660.2744,337.7116 Q660.9053,337.7116 661.4988,337.4418 Q662.0923,337.172 662.7231,336.591 Z " fill="#000000"/><text fill="#000000" font-family="sans-serif" font-size="12" font-style="italic" lengthAdjust="spacing" textLength="42" x="694.75" y="329.4616">&#171;Kode&#187;</text><text fill="#000000" font-family="sans-serif" font-size="14" lengthAdjust="spacing" textLength="70" x="680.75" y="345.528">Planstatus</text><line style="stroke:#181818;stroke-width:0.5;" x1="608.5" x2="790.5" y1="353.4811" y2="353.4811"/><ellipse cx="618.5" cy="367.2252" fill="none" rx="3" ry="3" style="stroke:#038048;stroke-width:1.0;"/><text fill="#000000" font-family="sans-serif" font-size="14" lengthAdjust="spacing" textLength="116" x="627.5" y="371.0162">kodeverdi: string</text><ellipse cx="618.5" cy="383.7135" fill="none" rx="3" ry="3" style="stroke:#038048;stroke-width:1.0;"/><text fill="#000000" font-family="sans-serif" font-size="14" lengthAdjust="spacing" textLength="158" x="627.5" y="387.5045">kodebeskrivelse: string</text><line style="stroke:#181818;stroke-width:0.5;" x1="608.5" x2="790.5" y1="394.4577" y2="394.4577"/></g><!--class Lovreferanse--><g id="elem_Lovreferanse"><rect codeLine="34" fill="#F1F1F1" height="89.5977" id="Lovreferanse" rx="2.5" ry="2.5" style="stroke:#181818;stroke-width:0.5;" width="184" x="826.5" y="312.86"/><ellipse cx="870.3" cy="333.1705" fill="#ADD1B2" rx="11" ry="11" style="stroke:#181818;stroke-width:1.0;"/><path d="M872.7731,339.3136 Q872.1921,339.6124 871.5529,339.7619 Q870.9138,339.9113 870.2082,339.9113 Q867.7014,339.9113 866.3815,338.2594 Q865.0617,336.6076 865.0617,333.4865 Q865.0617,330.3571 866.3815,328.7052 Q867.7014,327.0534 870.2082,327.0534 Q870.9138,327.0534 871.5612,327.2028 Q872.2087,327.3522 872.7731,327.651 L872.7731,330.3737 Q872.1423,329.7926 871.5488,329.5228 Q870.9553,329.2531 870.3244,329.2531 Q868.9797,329.2531 868.2949,330.3197 Q867.6101,331.3864 867.6101,333.4865 Q867.6101,335.5783 868.2949,336.6449 Q868.9797,337.7116 870.3244,337.7116 Q870.9553,337.7116 871.5488,337.4418 Q872.1423,337.172 872.7731,336.591 Z " fill="#000000"/><text fill="#000000" font-family="sans-serif" font-size="12" font-style="italic" lengthAdjust="spacing" textLength="42" x="913.7" y="329.4616">&#171;Kode&#187;</text><text fill="#000000" font-family="sans-serif" font-size="14" lengthAdjust="spacing" textLength="88" x="890.7" y="345.528">Lovreferanse</text><line style="stroke:#181818;stroke-width:0.5;" x1="827.5" x2="1009.5" y1="353.4811" y2="353.4811"/><ellipse cx="837.5" cy="367.2252" fill="none" rx="3" ry="3" style="stroke:#038048;stroke-width:1.0;"/><text fill="#000000" font-family="sans-serif" font-size="14" lengthAdjust="spacing" textLength="116" x="846.5" y="371.0162">kodeverdi: string</text><ellipse cx="837.5" cy="383.7135" fill="none" rx="3" ry="3" style="stroke:#038048;stroke-width:1.0;"/><text fill="#000000" font-family="sans-serif" font-size="14" lengthAdjust="spacing" textLength="158" x="846.5" y="387.5045">kodebeskrivelse: string</text><line style="stroke:#181818;stroke-width:0.5;" x1="827.5" x2="1009.5" y1="394.4577" y2="394.4577"/></g><!--class ForslagstillerType--><g id="elem_ForslagstillerType"><rect codeLine="39" fill="#F1F1F1" height="89.5977" id="ForslagstillerType" rx="2.5" ry="2.5" style="stroke:#181818;stroke-width:0.5;" width="184" x="1045.5" y="312.86"/><ellipse cx="1074" cy="333.1705" fill="#ADD1B2" rx="11" ry="11" style="stroke:#181818;stroke-width:1.0;"/><path d="M1076.4731,339.3136 Q1075.8921,339.6124 1075.2529,339.7619 Q1074.6138,339.9113 1073.9082,339.9113 Q1071.4014,339.9113 1070.0815,338.2594 Q1068.7617,336.6076 1068.7617,333.4865 Q1068.7617,330.3571 1070.0815,328.7052 Q1071.4014,327.0534 1073.9082,327.0534 Q1074.6138,327.0534 1075.2612,327.2028 Q1075.9087,327.3522 1076.4731,327.651 L1076.4731,330.3737 Q1075.8423,329.7926 1075.2488,329.5228 Q1074.6553,329.2531 1074.0244,329.2531 Q1072.6797,329.2531 1071.9949,330.3197 Q1071.3101,331.3864 1071.3101,333.4865 Q1071.3101,335.5783 1071.9949,336.6449 Q1072.6797,337.7116 1074.0244,337.7116 Q1074.6553,337.7116 1075.2488,337.4418 Q1075.8423,337.172 1076.4731,336.591 Z " fill="#000000"/><text fill="#000000" font-family="sans-serif" font-size="12" font-style="italic" lengthAdjust="spacing" textLength="42" x="1131" y="329.4616">&#171;Kode&#187;</text><text fill="#000000" font-family="sans-serif" font-size="14" lengthAdjust="spacing" textLength="122" x="1091" y="345.528">ForslagstillerType</text><line style="stroke:#181818;stroke-width:0.5;" x1="1046.5" x2="1228.5" y1="353.4811" y2="353.4811"/><ellipse cx="1056.5" cy="367.2252" fill="none" rx="3" ry="3" style="stroke:#038048;stroke-width:1.0;"/><text fill="#000000" font-family="sans-serif" font-size="14" lengthAdjust="spacing" textLength="116" x="1065.5" y="371.0162">kodeverdi: string</text><ellipse cx="1056.5" cy="383.7135" fill="none" rx="3" ry="3" style="stroke:#038048;stroke-width:1.0;"/><text fill="#000000" font-family="sans-serif" font-size="14" lengthAdjust="spacing" textLength="158" x="1065.5" y="387.5045">kodebeskrivelse: string</text><line style="stroke:#181818;stroke-width:0.5;" x1="1046.5" x2="1228.5" y1="394.4577" y2="394.4577"/></g><g id="elem_GMN13"><path d="M6,117.28 L6,142.5905 A0,0 0 0 0 6,142.5905 L255.82,142.5905 L264.88,333.24 L263.82,142.5905 L513,142.5905 A0,0 0 0 0 513,142.5905 L513,127.28 L503,117.28 L6,117.28 A0,0 0 0 0 6,117.28 " fill="#FEFFDD" style="stroke:#181818;stroke-width:0.5;"/><path d="M503,117.28 L503,127.28 L513,127.28 L503,117.28 " fill="#FEFFDD" style="stroke:#181818;stroke-width:0.5;"/><text fill="#000000" font-family="sans-serif" font-size="13" lengthAdjust="spacing" textLength="486" x="12" y="134.8484">Se detaljer i diagram for skjema 'no.ks.fiks.plan.v2.felles.nasjonalarealplanid'</text></g><!--link Arealplan to NasjonalArealplanId--><g id="link_Arealplan_NasjonalArealplanId"><path codeLine="16" d="M547.54,243.41 C541.85,246.7 536.16,249.86 530.5,252.86 C463.41,288.45 441.11,284.91 370.5,312.86 C354.25,319.3 336.68,326.52 320.66,333.21 " fill="none" id="Arealplan-NasjonalArealplanId" style="stroke:#181818;stroke-width:1.0;"/></g><!--link Arealplan to Plantype--><g id="link_Arealplan_Plantype"><path codeLine="17" d="M582.4,253.05 C561.46,274.34 540.95,295.19 523.89,312.55 " fill="none" id="Arealplan-Plantype" style="stroke:#181818;stroke-width:1.0;"/></g><!--link Arealplan to Planstatus--><g id="link_Arealplan_Planstatus"><path codeLine="18" d="M700.88,253.05 C700.59,274.34 700.32,295.19 700.09,312.55 " fill="none" id="Arealplan-Planstatus" style="stroke:#181818;stroke-width:1.0;"/></g><!--link Arealplan to Lovreferanse--><g id="link_Arealplan_Lovreferanse"><path codeLine="19" d="M819.35,253.05 C839.73,274.34 859.68,295.19 876.29,312.55 " fill="none" id="Arealplan-Lovreferanse" style="stroke:#181818;stroke-width:1.0;"/></g><!--link Arealplan to ForslagstillerType--><g id="link_Arealplan_ForslagstillerType"><path codeLine="20" d="M857.4,211.31 C922.94,245.32 996.77,283.63 1052.17,312.38 " fill="none" id="Arealplan-ForslagstillerType" style="stroke:#181818;stroke-width:1.0;"/></g><!--SRC=[hL91QiCm4Bpx5NlBeSI77aq85Df0I6WBxGSsqTfLhAoCLZ6KahzNZkBOZjDBYGz6cXtDZaQxDIW2JuxGL0OPVX88tmEZx2oZkHIMAeFNCHZPpTf_LvJ1-tdLuOmrPo3UQIuwL3pwWqH-N7SrPSl3djYVkhrLbK9FpcUmiTOGSYGUDlGLg8Ryoc11VrQNpA8BCd9DgKbvB2M8smoQ5dtuXHKPNJJkdgy8njQESdB1Tv1SztQndbidmP5uRGovprCgYn4MkMZ2pHYzhXUQcQIpU4oIxascqvlH3mYNu4VeETu1Fh0zgDomch3r1DvMOFDRHY233m957isE76XG6Wk7UmXHW9GxsYDCsAQbfBaEl-PKMZ-cEOKMahQZXgsYLfCasPxcihqLp6OhgsW-R-Up3BkQdDB3qMhW3KdfT1sV_5myzWLZ87UJx6TvDz7nCroa_wly2m00]--></g></svg>