<svg xmlns="http://www.w3.org/2000/svg" xmlns:xlink="http://www.w3.org/1999/xlink" contentStyleType="text/css" data-diagram-type="CLASS" height="691px" preserveAspectRatio="none" style="width:1179px;height:691px;background:#FFFFFF;" version="1.1" viewBox="0 0 1179 691" width="1179px" zoomAndPan="magnify"><defs/><g><!--class NasjonalArealplanId--><g class="entity" data-entity="NasjonalArealplanId" data-source-line="1" data-uid="ent0002" id="entity_NasjonalArealplanId"><rect fill="#F1F1F1" height="80.9766" rx="2.5" ry="2.5" style="stroke:#181818;stroke-width:0.5;" width="290.3047" x="7" y="441.66"/><ellipse cx="80.0898" cy="457.66" fill="#ADD1B2" rx="11" ry="11" style="stroke:#181818;stroke-width:1;"/><path d="M82.563,463.8031 Q81.9819,464.1019 81.3428,464.2513 Q80.7036,464.4007 79.998,464.4007 Q77.4912,464.4007 76.1714,462.7489 Q74.8516,461.097 74.8516,457.9759 Q74.8516,454.8465 76.1714,453.1947 Q77.4912,451.5428 79.998,451.5428 Q80.7036,451.5428 81.3511,451.6922 Q81.9985,451.8416 82.563,452.1405 L82.563,454.8631 Q81.9321,454.2821 81.3386,454.0123 Q80.7451,453.7425 80.1143,453.7425 Q78.7695,453.7425 78.0847,454.8092 Q77.3999,455.8758 77.3999,457.9759 Q77.3999,460.0677 78.0847,461.1344 Q78.7695,462.201 80.1143,462.201 Q80.7451,462.201 81.3386,461.9312 Q81.9321,461.6615 82.563,461.0804 Z " fill="#000000"/><text fill="#000000" font-family="sans-serif" font-size="14" lengthAdjust="spacing" textLength="135.625" x="100.5898" y="462.951">NasjonalArealplanId</text><line style="stroke:#181818;stroke-width:0.5;" x1="8" x2="296.3047" y1="473.66" y2="473.66"/><ellipse cx="18" cy="487.4041" fill="none" rx="3" ry="3" style="stroke:#038048;stroke-width:1;"/><text fill="#000000" font-family="sans-serif" font-size="14" lengthAdjust="spacing" textLength="264.3047" x="27" y="491.1952">administrativEnhet: AdministrativEnhet</text><ellipse cx="18" cy="503.8924" fill="none" rx="3" ry="3" style="stroke:#038048;stroke-width:1;"/><text fill="#000000" font-family="sans-serif" font-size="14" lengthAdjust="spacing" textLength="170.126" x="27" y="507.6834">planidentifikasjon: string</text><line style="stroke:#181818;stroke-width:0.5;" x1="8" x2="296.3047" y1="514.6366" y2="514.6366"/></g><!--class AdministrativEnhet--><g class="entity" data-entity="AdministrativEnhet" data-source-line="6" data-uid="ent0003" id="entity_AdministrativEnhet"><rect fill="#F1F1F1" height="97.4648" rx="2.5" ry="2.5" style="stroke:#181818;stroke-width:0.5;" width="160.6865" x="71.81" y="586.95"/><ellipse cx="86.81" cy="602.95" fill="#EB937F" rx="11" ry="11" style="stroke:#181818;stroke-width:1;"/><path d="M90.4243,609.45 L82.7045,609.45 L82.7045,597.0569 L90.4243,597.0569 L90.4243,599.2151 L85.1533,599.2151 L85.1533,601.888 L89.9262,601.888 L89.9262,604.0462 L85.1533,604.0462 L85.1533,607.2918 L90.4243,607.2918 Z " fill="#000000"/><text fill="#000000" font-family="sans-serif" font-size="14" lengthAdjust="spacing" textLength="128.6865" x="100.81" y="608.241">AdministrativEnhet</text><line style="stroke:#181818;stroke-width:0.5;" x1="72.81" x2="231.4965" y1="618.95" y2="618.95"/><text fill="#000000" font-family="sans-serif" font-size="14" lengthAdjust="spacing" textLength="125.1455" x="77.81" y="636.4852">kommunenummer</text><text fill="#000000" font-family="sans-serif" font-size="14" lengthAdjust="spacing" textLength="96.6738" x="77.81" y="652.9734">fylkesnummer</text><text fill="#000000" font-family="sans-serif" font-size="14" lengthAdjust="spacing" textLength="69.8086" x="77.81" y="669.4617">landskode</text><line style="stroke:#181818;stroke-width:0.5;" x1="72.81" x2="231.4965" y1="676.4148" y2="676.4148"/></g><!--class Arealplan--><g class="entity" data-entity="Arealplan" data-source-line="4" data-uid="ent0005" id="entity_Arealplan"><rect fill="#F1F1F1" height="245.8594" rx="2.5" ry="2.5" style="stroke:#181818;stroke-width:0.5;" width="304.4551" x="490.92" y="131.49"/><ellipse cx="606.7755" cy="147.49" fill="#ADD1B2" rx="11" ry="11" style="stroke:#181818;stroke-width:1;"/><path d="M609.2486,153.6331 Q608.6676,153.9319 608.0284,154.0813 Q607.3892,154.2307 606.6837,154.2307 Q604.1768,154.2307 602.857,152.5789 Q601.5372,150.927 601.5372,147.8059 Q601.5372,144.6765 602.857,143.0247 Q604.1768,141.3728 606.6837,141.3728 Q607.3892,141.3728 608.0367,141.5222 Q608.6842,141.6716 609.2486,141.9705 L609.2486,144.6931 Q608.6178,144.1121 608.0242,143.8423 Q607.4307,143.5725 606.7999,143.5725 Q605.4552,143.5725 604.7703,144.6392 Q604.0855,145.7058 604.0855,147.8059 Q604.0855,149.8977 604.7703,150.9644 Q605.4552,152.031 606.7999,152.031 Q607.4307,152.031 608.0242,151.7612 Q608.6178,151.4915 609.2486,150.9104 Z " fill="#000000"/><text fill="#000000" font-family="sans-serif" font-size="14" lengthAdjust="spacing" textLength="64.2441" x="627.2755" y="152.781">Arealplan</text><line style="stroke:#181818;stroke-width:0.5;" x1="491.92" x2="794.3751" y1="163.49" y2="163.49"/><ellipse cx="501.92" cy="177.2341" fill="none" rx="3" ry="3" style="stroke:#038048;stroke-width:1;"/><text fill="#000000" font-family="sans-serif" font-size="14" lengthAdjust="spacing" textLength="278.4551" x="510.92" y="181.0252">nasjonalArealplanId: NasjonalArealplanId</text><ellipse cx="501.92" cy="193.7224" fill="none" rx="3" ry="3" style="stroke:#038048;stroke-width:1;"/><text fill="#000000" font-family="sans-serif" font-size="14" lengthAdjust="spacing" textLength="124.667" x="510.92" y="197.5134">plantype: Plantype</text><ellipse cx="501.92" cy="210.2107" fill="none" rx="3" ry="3" style="stroke:#038048;stroke-width:1;"/><text fill="#000000" font-family="sans-serif" font-size="14" lengthAdjust="spacing" textLength="110.0586" x="510.92" y="214.0017">plannavn: string</text><ellipse cx="501.92" cy="226.699" fill="none" rx="3" ry="3" style="stroke:#038048;stroke-width:1;"/><text fill="#000000" font-family="sans-serif" font-size="14" lengthAdjust="spacing" textLength="148.6748" x="510.92" y="230.49">planstatus: Planstatus</text><ellipse cx="501.92" cy="243.1873" fill="none" rx="3" ry="3" style="stroke:#038048;stroke-width:1;"/><text fill="#000000" font-family="sans-serif" font-size="14" lengthAdjust="spacing" textLength="266.9502" x="510.92" y="246.9783">plandokumentasjonOppdatert: boolean</text><ellipse cx="501.92" cy="259.6755" fill="none" rx="3" ry="3" style="stroke:#038048;stroke-width:1;"/><text fill="#000000" font-family="sans-serif" font-size="14" lengthAdjust="spacing" textLength="176.8867" x="510.92" y="263.4666">ubehandletKlage: boolean</text><ellipse cx="501.92" cy="276.1638" fill="none" rx="3" ry="3" style="stroke:#038048;stroke-width:1;"/><text fill="#000000" font-family="sans-serif" font-size="14" lengthAdjust="spacing" textLength="207.5459" x="510.92" y="279.9548">ubehandletInnsigelse: boolean</text><ellipse cx="501.92" cy="292.6521" fill="none" rx="3" ry="3" style="stroke:#038048;stroke-width:1;"/><text fill="#000000" font-family="sans-serif" font-size="14" lengthAdjust="spacing" textLength="120.9619" x="510.92" y="296.4431">vedtaksdato: date</text><ellipse cx="501.92" cy="309.1404" fill="none" rx="3" ry="3" style="stroke:#038048;stroke-width:1;"/><text fill="#000000" font-family="sans-serif" font-size="14" lengthAdjust="spacing" textLength="193.416" x="510.92" y="312.9314">vedtakEndeligPlanDato: date</text><ellipse cx="501.92" cy="325.6287" fill="none" rx="3" ry="3" style="stroke:#038048;stroke-width:1;"/><text fill="#000000" font-family="sans-serif" font-size="14" lengthAdjust="spacing" textLength="179.1836" x="510.92" y="329.4197">lovreferanse: Lovreferanse</text><ellipse cx="501.92" cy="342.117" fill="none" rx="3" ry="3" style="stroke:#038048;stroke-width:1;"/><text fill="#000000" font-family="sans-serif" font-size="14" lengthAdjust="spacing" textLength="247.0986" x="510.92" y="345.908">forslagstillerType: ForslagstillerType</text><ellipse cx="501.92" cy="358.6052" fill="none" rx="3" ry="3" style="stroke:#038048;stroke-width:1;"/><text fill="#000000" font-family="sans-serif" font-size="14" lengthAdjust="spacing" textLength="170.4951" x="510.92" y="362.3963">alternativFinnes: boolean</text><line style="stroke:#181818;stroke-width:0.5;" x1="491.92" x2="794.3751" y1="369.3494" y2="369.3494"/></g><!--class Plantype--><g class="entity" data-entity="Plantype" data-source-line="20" data-uid="ent0007" id="entity_Plantype"><rect fill="#F1F1F1" height="89.5977" rx="2.5" ry="2.5" style="stroke:#181818;stroke-width:0.5;" width="183.5547" x="332.38" y="437.35"/><ellipse cx="391.2238" cy="457.6605" fill="#ADD1B2" rx="11" ry="11" style="stroke:#181818;stroke-width:1;"/><path d="M393.6969,463.8036 Q393.1158,464.1024 392.4767,464.2519 Q391.8375,464.4013 391.132,464.4013 Q388.6251,464.4013 387.3053,462.7494 Q385.9855,461.0976 385.9855,457.9765 Q385.9855,454.8471 387.3053,453.1952 Q388.6251,451.5434 391.132,451.5434 Q391.8375,451.5434 392.485,451.6928 Q393.1324,451.8422 393.6969,452.141 L393.6969,454.8637 Q393.066,454.2826 392.4725,454.0128 Q391.879,453.7431 391.2482,453.7431 Q389.9034,453.7431 389.2186,454.8097 Q388.5338,455.8764 388.5338,457.9765 Q388.5338,460.0683 389.2186,461.1349 Q389.9034,462.2016 391.2482,462.2016 Q391.879,462.2016 392.4725,461.9318 Q393.066,461.662 393.6969,461.081 Z " fill="#000000"/><text fill="#000000" font-family="sans-serif" font-size="12" font-style="italic" lengthAdjust="spacing" textLength="42.0176" x="419.3986" y="453.9516">&#171;Kode&#187;</text><text fill="#000000" font-family="sans-serif" font-size="14" lengthAdjust="spacing" textLength="57.3672" x="411.7238" y="470.018">Plantype</text><line style="stroke:#181818;stroke-width:0.5;" x1="333.38" x2="514.9347" y1="477.9711" y2="477.9711"/><ellipse cx="343.38" cy="491.7152" fill="none" rx="3" ry="3" style="stroke:#038048;stroke-width:1;"/><text fill="#000000" font-family="sans-serif" font-size="14" lengthAdjust="spacing" textLength="115.4521" x="352.38" y="495.5062">kodeverdi: string</text><ellipse cx="343.38" cy="508.2035" fill="none" rx="3" ry="3" style="stroke:#038048;stroke-width:1;"/><text fill="#000000" font-family="sans-serif" font-size="14" lengthAdjust="spacing" textLength="157.5547" x="352.38" y="511.9945">kodebeskrivelse: string</text><line style="stroke:#181818;stroke-width:0.5;" x1="333.38" x2="514.9347" y1="518.9477" y2="518.9477"/></g><!--class Planstatus--><g class="entity" data-entity="Planstatus" data-source-line="21" data-uid="ent0009" id="entity_Planstatus"><rect fill="#F1F1F1" height="89.5977" rx="2.5" ry="2.5" style="stroke:#181818;stroke-width:0.5;" width="183.5547" x="551.38" y="437.35"/><ellipse cx="604.2218" cy="457.6605" fill="#ADD1B2" rx="11" ry="11" style="stroke:#181818;stroke-width:1;"/><path d="M606.6949,463.8036 Q606.1139,464.1024 605.4747,464.2519 Q604.8356,464.4013 604.13,464.4013 Q601.6232,464.4013 600.3033,462.7494 Q598.9835,461.0976 598.9835,457.9765 Q598.9835,454.8471 600.3033,453.1952 Q601.6232,451.5434 604.13,451.5434 Q604.8356,451.5434 605.483,451.6928 Q606.1305,451.8422 606.6949,452.141 L606.6949,454.8637 Q606.0641,454.2826 605.4706,454.0128 Q604.8771,453.7431 604.2462,453.7431 Q602.9015,453.7431 602.2167,454.8097 Q601.5319,455.8764 601.5319,457.9765 Q601.5319,460.0683 602.2167,461.1349 Q602.9015,462.2016 604.2462,462.2016 Q604.8771,462.2016 605.4706,461.9318 Q606.0641,461.662 606.6949,461.081 Z " fill="#000000"/><text fill="#000000" font-family="sans-serif" font-size="12" font-style="italic" lengthAdjust="spacing" textLength="42.0176" x="638.3986" y="453.9516">&#171;Kode&#187;</text><text fill="#000000" font-family="sans-serif" font-size="14" lengthAdjust="spacing" textLength="69.3711" x="624.7218" y="470.018">Planstatus</text><line style="stroke:#181818;stroke-width:0.5;" x1="552.38" x2="733.9347" y1="477.9711" y2="477.9711"/><ellipse cx="562.38" cy="491.7152" fill="none" rx="3" ry="3" style="stroke:#038048;stroke-width:1;"/><text fill="#000000" font-family="sans-serif" font-size="14" lengthAdjust="spacing" textLength="115.4521" x="571.38" y="495.5062">kodeverdi: string</text><ellipse cx="562.38" cy="508.2035" fill="none" rx="3" ry="3" style="stroke:#038048;stroke-width:1;"/><text fill="#000000" font-family="sans-serif" font-size="14" lengthAdjust="spacing" textLength="157.5547" x="571.38" y="511.9945">kodebeskrivelse: string</text><line style="stroke:#181818;stroke-width:0.5;" x1="552.38" x2="733.9347" y1="518.9477" y2="518.9477"/></g><!--class Lovreferanse--><g class="entity" data-entity="Lovreferanse" data-source-line="22" data-uid="ent0011" id="entity_Lovreferanse"><rect fill="#F1F1F1" height="89.5977" rx="2.5" ry="2.5" style="stroke:#181818;stroke-width:0.5;" width="183.5547" x="770.38" y="437.35"/><ellipse cx="814.4876" cy="457.6605" fill="#ADD1B2" rx="11" ry="11" style="stroke:#181818;stroke-width:1;"/><path d="M816.9608,463.8036 Q816.3797,464.1024 815.7405,464.2519 Q815.1014,464.4013 814.3958,464.4013 Q811.889,464.4013 810.5692,462.7494 Q809.2493,461.0976 809.2493,457.9765 Q809.2493,454.8471 810.5692,453.1952 Q811.889,451.5434 814.3958,451.5434 Q815.1014,451.5434 815.7488,451.6928 Q816.3963,451.8422 816.9608,452.141 L816.9608,454.8637 Q816.3299,454.2826 815.7364,454.0128 Q815.1429,453.7431 814.512,453.7431 Q813.1673,453.7431 812.4825,454.8097 Q811.7977,455.8764 811.7977,457.9765 Q811.7977,460.0683 812.4825,461.1349 Q813.1673,462.2016 814.512,462.2016 Q815.1429,462.2016 815.7364,461.9318 Q816.3299,461.662 816.9608,461.081 Z " fill="#000000"/><text fill="#000000" font-family="sans-serif" font-size="12" font-style="italic" lengthAdjust="spacing" textLength="42.0176" x="857.3827" y="453.9516">&#171;Kode&#187;</text><text fill="#000000" font-family="sans-serif" font-size="14" lengthAdjust="spacing" textLength="86.8711" x="834.956" y="470.018">Lovreferanse</text><line style="stroke:#181818;stroke-width:0.5;" x1="771.38" x2="952.9347" y1="477.9711" y2="477.9711"/><ellipse cx="781.38" cy="491.7152" fill="none" rx="3" ry="3" style="stroke:#038048;stroke-width:1;"/><text fill="#000000" font-family="sans-serif" font-size="14" lengthAdjust="spacing" textLength="115.4521" x="790.38" y="495.5062">kodeverdi: string</text><ellipse cx="781.38" cy="508.2035" fill="none" rx="3" ry="3" style="stroke:#038048;stroke-width:1;"/><text fill="#000000" font-family="sans-serif" font-size="14" lengthAdjust="spacing" textLength="157.5547" x="790.38" y="511.9945">kodebeskrivelse: string</text><line style="stroke:#181818;stroke-width:0.5;" x1="771.38" x2="952.9347" y1="518.9477" y2="518.9477"/></g><!--class ForslagstillerType--><g class="entity" data-entity="ForslagstillerType" data-source-line="23" data-uid="ent0013" id="entity_ForslagstillerType"><rect fill="#F1F1F1" height="89.5977" rx="2.5" ry="2.5" style="stroke:#181818;stroke-width:0.5;" width="183.5547" x="989.38" y="437.35"/><ellipse cx="1018.4451" cy="457.6605" fill="#ADD1B2" rx="11" ry="11" style="stroke:#181818;stroke-width:1;"/><path d="M1020.9183,463.8036 Q1020.3372,464.1024 1019.6981,464.2519 Q1019.0589,464.4013 1018.3533,464.4013 Q1015.8465,464.4013 1014.5267,462.7494 Q1013.2069,461.0976 1013.2069,457.9765 Q1013.2069,454.8471 1014.5267,453.1952 Q1015.8465,451.5434 1018.3533,451.5434 Q1019.0589,451.5434 1019.7064,451.6928 Q1020.3538,451.8422 1020.9183,452.141 L1020.9183,454.8637 Q1020.2874,454.2826 1019.6939,454.0128 Q1019.1004,453.7431 1018.4696,453.7431 Q1017.1248,453.7431 1016.44,454.8097 Q1015.7552,455.8764 1015.7552,457.9765 Q1015.7552,460.0683 1016.44,461.1349 Q1017.1248,462.2016 1018.4696,462.2016 Q1019.1004,462.2016 1019.6939,461.9318 Q1020.2874,461.662 1020.9183,461.081 Z " fill="#000000"/><text fill="#000000" font-family="sans-serif" font-size="12" font-style="italic" lengthAdjust="spacing" textLength="42.0176" x="1074.7113" y="453.9516">&#171;Kode&#187;</text><text fill="#000000" font-family="sans-serif" font-size="14" lengthAdjust="spacing" textLength="120.2988" x="1035.5707" y="470.018">ForslagstillerType</text><line style="stroke:#181818;stroke-width:0.5;" x1="990.38" x2="1171.9347" y1="477.9711" y2="477.9711"/><ellipse cx="1000.38" cy="491.7152" fill="none" rx="3" ry="3" style="stroke:#038048;stroke-width:1;"/><text fill="#000000" font-family="sans-serif" font-size="14" lengthAdjust="spacing" textLength="115.4521" x="1009.38" y="495.5062">kodeverdi: string</text><ellipse cx="1000.38" cy="508.2035" fill="none" rx="3" ry="3" style="stroke:#038048;stroke-width:1;"/><text fill="#000000" font-family="sans-serif" font-size="14" lengthAdjust="spacing" textLength="157.5547" x="1009.38" y="511.9945">kodebeskrivelse: string</text><line style="stroke:#181818;stroke-width:0.5;" x1="990.38" x2="1171.9347" y1="518.9477" y2="518.9477"/></g><!--class FinnArealplanerResultat--><g class="entity" data-entity="FinnArealplanerResultat" data-source-line="3" data-uid="ent0015" id="entity_FinnArealplanerResultat"><rect fill="#F1F1F1" height="64.4883" rx="2.5" ry="2.5" style="stroke:#181818;stroke-width:0.5;" width="193.4307" x="546.44" y="7"/><ellipse cx="561.44" cy="23" fill="#ADD1B2" rx="11" ry="11" style="stroke:#181818;stroke-width:1;"/><path d="M563.9131,29.1431 Q563.3321,29.4419 562.6929,29.5913 Q562.0538,29.7407 561.3482,29.7407 Q558.8414,29.7407 557.5215,28.0889 Q556.2017,26.437 556.2017,23.3159 Q556.2017,20.1865 557.5215,18.5347 Q558.8414,16.8828 561.3482,16.8828 Q562.0538,16.8828 562.7012,17.0322 Q563.3487,17.1816 563.9131,17.4805 L563.9131,20.2031 Q563.2823,19.6221 562.6888,19.3523 Q562.0953,19.0825 561.4644,19.0825 Q560.1197,19.0825 559.4349,20.1492 Q558.7501,21.2158 558.7501,23.3159 Q558.7501,25.4077 559.4349,26.4744 Q560.1197,27.541 561.4644,27.541 Q562.0953,27.541 562.6888,27.2712 Q563.2823,27.0015 563.9131,26.4204 Z " fill="#000000"/><text fill="#000000" font-family="sans-serif" font-size="14" lengthAdjust="spacing" textLength="161.4307" x="575.44" y="28.291">FinnArealplanerResultat</text><line style="stroke:#181818;stroke-width:0.5;" x1="547.44" x2="738.8707" y1="39" y2="39"/><ellipse cx="557.44" cy="52.7441" fill="none" rx="3" ry="3" style="stroke:#038048;stroke-width:1;"/><text fill="#000000" font-family="sans-serif" font-size="14" lengthAdjust="spacing" textLength="158.0537" x="566.44" y="56.5352">arealplaner: Arealplan[]</text><line style="stroke:#181818;stroke-width:0.5;" x1="547.44" x2="738.8707" y1="63.4883" y2="63.4883"/></g><!--link NasjonalArealplanId to AdministrativEnhet--><g class="link" data-entity-1="NasjonalArealplanId" data-entity-2="AdministrativEnhet" data-source-line="6" data-uid="lnk4" id="link_NasjonalArealplanId_AdministrativEnhet"><path codeLine="6" d="M152.15,522.96 C152.15,542.43 152.15,566.01 152.15,586.49" fill="none" id="NasjonalArealplanId-AdministrativEnhet" style="stroke:#181818;stroke-width:1;"/></g><!--link Arealplan to NasjonalArealplanId--><g class="link" data-entity-1="Arealplan" data-entity-2="NasjonalArealplanId" data-source-line="19" data-uid="lnk6" id="link_Arealplan_NasjonalArealplanId"><path codeLine="19" d="M490.49,325.6 C407.72,363.65 308.45,409.29 238.92,441.26" fill="none" id="Arealplan-NasjonalArealplanId" style="stroke:#181818;stroke-width:1;"/></g><!--link Arealplan to Plantype--><g class="link" data-entity-1="Arealplan" data-entity-2="Plantype" data-source-line="20" data-uid="lnk8" id="link_Arealplan_Plantype"><path codeLine="20" d="M524.68,377.53 C504.02,398.83 483.79,419.68 466.95,437.03" fill="none" id="Arealplan-Plantype" style="stroke:#181818;stroke-width:1;"/></g><!--link Arealplan to Planstatus--><g class="link" data-entity-1="Arealplan" data-entity-2="Planstatus" data-source-line="21" data-uid="lnk10" id="link_Arealplan_Planstatus"><path codeLine="21" d="M643.15,377.53 C643.15,398.83 643.15,419.68 643.15,437.03" fill="none" id="Arealplan-Planstatus" style="stroke:#181818;stroke-width:1;"/></g><!--link Arealplan to Lovreferanse--><g class="link" data-entity-1="Arealplan" data-entity-2="Lovreferanse" data-source-line="22" data-uid="lnk12" id="link_Arealplan_Lovreferanse"><path codeLine="22" d="M761.63,377.53 C782.29,398.83 802.52,419.68 819.35,437.03" fill="none" id="Arealplan-Lovreferanse" style="stroke:#181818;stroke-width:1;"/></g><!--link Arealplan to ForslagstillerType--><g class="link" data-entity-1="Arealplan" data-entity-2="ForslagstillerType" data-source-line="23" data-uid="lnk14" id="link_Arealplan_ForslagstillerType"><path codeLine="23" d="M795.73,334.05 C862.64,368.53 938.68,407.72 995.44,436.97" fill="none" id="Arealplan-ForslagstillerType" style="stroke:#181818;stroke-width:1;"/></g><!--link FinnArealplanerResultat to Arealplan--><g class="link" data-entity-1="FinnArealplanerResultat" data-entity-2="Arealplan" data-source-line="7" data-uid="lnk16" id="link_FinnArealplanerResultat_Arealplan"><path codeLine="7" d="M643.15,71.7 C643.15,88.03 643.15,109.15 643.15,131.18" fill="none" id="FinnArealplanerResultat-Arealplan" style="stroke:#181818;stroke-width:1;"/></g><!--SRC=[KypCIyufJKbLqDFNqzFFozVBBjPBomGI1Jc9UNfbHdffgJavgSLwYKMfYJaWCNquIw-Wb8ihEIUnk5Z1BJClpn4cdbeKb5fScbEIMA9GpQK01Dg922ah1RYww5YkMYukN5frTH4gkG00]--></g></svg>