<svg xmlns="http://www.w3.org/2000/svg" xmlns:xlink="http://www.w3.org/1999/xlink" contentStyleType="text/css" height="691px" preserveAspectRatio="none" style="width:1182px;height:691px;background:#FFFFFF;" version="1.1" viewBox="0 0 1182 691" width="1182px" zoomAndPan="magnify"><defs/><g><!--class NasjonalArealplanId--><g id="elem_NasjonalArealplanId"><rect codeLine="1" fill="#F1F1F1" height="80.9766" id="NasjonalArealplanId" rx="2.5" ry="2.5" style="stroke:#181818;stroke-width:0.5;" width="292" x="7" y="441.66"/><ellipse cx="79.75" cy="457.66" fill="#ADD1B2" rx="11" ry="11" style="stroke:#181818;stroke-width:1.0;"/><path d="M82.2231,463.8031 Q81.6421,464.1019 81.0029,464.2513 Q80.3638,464.4007 79.6582,464.4007 Q77.1514,464.4007 75.8315,462.7489 Q74.5117,461.097 74.5117,457.9759 Q74.5117,454.8465 75.8315,453.1947 Q77.1514,451.5428 79.6582,451.5428 Q80.3638,451.5428 81.0112,451.6922 Q81.6587,451.8416 82.2231,452.1405 L82.2231,454.8631 Q81.5923,454.2821 80.9988,454.0123 Q80.4053,453.7425 79.7744,453.7425 Q78.4297,453.7425 77.7449,454.8092 Q77.0601,455.8758 77.0601,457.9759 Q77.0601,460.0677 77.7449,461.1344 Q78.4297,462.201 79.7744,462.201 Q80.4053,462.201 80.9988,461.9312 Q81.5923,461.6615 82.2231,461.0804 Z " fill="#000000"/><text fill="#000000" font-family="sans-serif" font-size="14" lengthAdjust="spacing" textLength="138" x="100.25" y="462.951">NasjonalArealplanId</text><line style="stroke:#181818;stroke-width:0.5;" x1="8" x2="298" y1="473.66" y2="473.66"/><ellipse cx="18" cy="487.4041" fill="none" rx="3" ry="3" style="stroke:#038048;stroke-width:1.0;"/><text fill="#000000" font-family="sans-serif" font-size="14" lengthAdjust="spacing" textLength="266" x="27" y="491.1952">administrativEnhet: AdministrativEnhet</text><ellipse cx="18" cy="503.8924" fill="none" rx="3" ry="3" style="stroke:#038048;stroke-width:1.0;"/><text fill="#000000" font-family="sans-serif" font-size="14" lengthAdjust="spacing" textLength="171" x="27" y="507.6834">planidentifikasjon: string</text><line style="stroke:#181818;stroke-width:0.5;" x1="8" x2="298" y1="514.6366" y2="514.6366"/></g><!--class AdministrativEnhet--><g id="elem_AdministrativEnhet"><rect codeLine="8" fill="#F1F1F1" height="97.4648" id="AdministrativEnhet" rx="2.5" ry="2.5" style="stroke:#181818;stroke-width:0.5;" width="162" x="72" y="586.95"/><ellipse cx="87" cy="602.95" fill="#EB937F" rx="11" ry="11" style="stroke:#181818;stroke-width:1.0;"/><path d="M90.6143,609.45 L82.8945,609.45 L82.8945,597.0569 L90.6143,597.0569 L90.6143,599.2151 L85.3433,599.2151 L85.3433,601.888 L90.1162,601.888 L90.1162,604.0462 L85.3433,604.0462 L85.3433,607.2918 L90.6143,607.2918 Z " fill="#000000"/><text fill="#000000" font-family="sans-serif" font-size="14" lengthAdjust="spacing" textLength="130" x="101" y="608.241">AdministrativEnhet</text><line style="stroke:#181818;stroke-width:0.5;" x1="73" x2="233" y1="618.95" y2="618.95"/><text fill="#000000" font-family="sans-serif" font-size="14" lengthAdjust="spacing" textLength="127" x="78" y="636.4852">kommunenummer</text><text fill="#000000" font-family="sans-serif" font-size="14" lengthAdjust="spacing" textLength="97" x="78" y="652.9734">fylkesnummer</text><text fill="#000000" font-family="sans-serif" font-size="14" lengthAdjust="spacing" textLength="71" x="78" y="669.4617">landskode</text><line style="stroke:#181818;stroke-width:0.5;" x1="73" x2="233" y1="676.4148" y2="676.4148"/></g><!--class Arealplan--><g id="elem_Arealplan"><rect codeLine="4" fill="#F1F1F1" height="245.8594" id="Arealplan" rx="2.5" ry="2.5" style="stroke:#181818;stroke-width:0.5;" width="309" x="490.5" y="131.49"/><ellipse cx="607.75" cy="147.49" fill="#ADD1B2" rx="11" ry="11" style="stroke:#181818;stroke-width:1.0;"/><path d="M610.2231,153.6331 Q609.6421,153.9319 609.0029,154.0813 Q608.3638,154.2307 607.6582,154.2307 Q605.1514,154.2307 603.8315,152.5789 Q602.5117,150.927 602.5117,147.8059 Q602.5117,144.6765 603.8315,143.0247 Q605.1514,141.3728 607.6582,141.3728 Q608.3638,141.3728 609.0112,141.5222 Q609.6587,141.6716 610.2231,141.9705 L610.2231,144.6931 Q609.5923,144.1121 608.9988,143.8423 Q608.4053,143.5725 607.7744,143.5725 Q606.4297,143.5725 605.7449,144.6392 Q605.0601,145.7058 605.0601,147.8059 Q605.0601,149.8977 605.7449,150.9644 Q606.4297,152.031 607.7744,152.031 Q608.4053,152.031 608.9988,151.7612 Q609.5923,151.4915 610.2231,150.9104 Z " fill="#000000"/><text fill="#000000" font-family="sans-serif" font-size="14" lengthAdjust="spacing" textLength="66" x="628.25" y="152.781">Arealplan</text><line style="stroke:#181818;stroke-width:0.5;" x1="491.5" x2="798.5" y1="163.49" y2="163.49"/><ellipse cx="501.5" cy="177.2341" fill="none" rx="3" ry="3" style="stroke:#038048;stroke-width:1.0;"/><text fill="#000000" font-family="sans-serif" font-size="14" lengthAdjust="spacing" textLength="283" x="510.5" y="181.0252">nasjonalArealplanId: NasjonalArealplanId</text><ellipse cx="501.5" cy="193.7224" fill="none" rx="3" ry="3" style="stroke:#038048;stroke-width:1.0;"/><text fill="#000000" font-family="sans-serif" font-size="14" lengthAdjust="spacing" textLength="125" x="510.5" y="197.5134">plantype: Plantype</text><ellipse cx="501.5" cy="210.2107" fill="none" rx="3" ry="3" style="stroke:#038048;stroke-width:1.0;"/><text fill="#000000" font-family="sans-serif" font-size="14" lengthAdjust="spacing" textLength="111" x="510.5" y="214.0017">plannavn: string</text><ellipse cx="501.5" cy="226.699" fill="none" rx="3" ry="3" style="stroke:#038048;stroke-width:1.0;"/><text fill="#000000" font-family="sans-serif" font-size="14" lengthAdjust="spacing" textLength="149" x="510.5" y="230.49">planstatus: Planstatus</text><ellipse cx="501.5" cy="243.1873" fill="none" rx="3" ry="3" style="stroke:#038048;stroke-width:1.0;"/><text fill="#000000" font-family="sans-serif" font-size="14" lengthAdjust="spacing" textLength="271" x="510.5" y="246.9783">plandokumentasjonOppdatert: boolean</text><ellipse cx="501.5" cy="259.6755" fill="none" rx="3" ry="3" style="stroke:#038048;stroke-width:1.0;"/><text fill="#000000" font-family="sans-serif" font-size="14" lengthAdjust="spacing" textLength="180" x="510.5" y="263.4666">ubehandletKlage: boolean</text><ellipse cx="501.5" cy="276.1638" fill="none" rx="3" ry="3" style="stroke:#038048;stroke-width:1.0;"/><text fill="#000000" font-family="sans-serif" font-size="14" lengthAdjust="spacing" textLength="211" x="510.5" y="279.9548">ubehandletInnsigelse: boolean</text><ellipse cx="501.5" cy="292.6521" fill="none" rx="3" ry="3" style="stroke:#038048;stroke-width:1.0;"/><text fill="#000000" font-family="sans-serif" font-size="14" lengthAdjust="spacing" textLength="121" x="510.5" y="296.4431">vedtaksdato: date</text><ellipse cx="501.5" cy="309.1404" fill="none" rx="3" ry="3" style="stroke:#038048;stroke-width:1.0;"/><text fill="#000000" font-family="sans-serif" font-size="14" lengthAdjust="spacing" textLength="195" x="510.5" y="312.9314">vedtakEndeligPlanDato: date</text><ellipse cx="501.5" cy="325.6287" fill="none" rx="3" ry="3" style="stroke:#038048;stroke-width:1.0;"/><text fill="#000000" font-family="sans-serif" font-size="14" lengthAdjust="spacing" textLength="181" x="510.5" y="329.4197">lovreferanse: Lovreferanse</text><ellipse cx="501.5" cy="342.117" fill="none" rx="3" ry="3" style="stroke:#038048;stroke-width:1.0;"/><text fill="#000000" font-family="sans-serif" font-size="14" lengthAdjust="spacing" textLength="249" x="510.5" y="345.908">forslagstillerType: ForslagstillerType</text><ellipse cx="501.5" cy="358.6052" fill="none" rx="3" ry="3" style="stroke:#038048;stroke-width:1.0;"/><text fill="#000000" font-family="sans-serif" font-size="14" lengthAdjust="spacing" textLength="173" x="510.5" y="362.3963">alternativFinnes: boolean</text><line style="stroke:#181818;stroke-width:0.5;" x1="491.5" x2="798.5" y1="369.3494" y2="369.3494"/></g><!--class Plantype--><g id="elem_Plantype"><rect codeLine="25" fill="#F1F1F1" height="89.5977" id="Plantype" rx="2.5" ry="2.5" style="stroke:#181818;stroke-width:0.5;" width="184" x="334" y="437.35"/><ellipse cx="392.75" cy="457.6605" fill="#ADD1B2" rx="11" ry="11" style="stroke:#181818;stroke-width:1.0;"/><path d="M395.2231,463.8036 Q394.6421,464.1024 394.0029,464.2519 Q393.3638,464.4013 392.6582,464.4013 Q390.1514,464.4013 388.8315,462.7494 Q387.5117,461.0976 387.5117,457.9765 Q387.5117,454.8471 388.8315,453.1952 Q390.1514,451.5434 392.6582,451.5434 Q393.3638,451.5434 394.0112,451.6928 Q394.6587,451.8422 395.2231,452.141 L395.2231,454.8637 Q394.5923,454.2826 393.9988,454.0128 Q393.4053,453.7431 392.7744,453.7431 Q391.4297,453.7431 390.7449,454.8097 Q390.0601,455.8764 390.0601,457.9765 Q390.0601,460.0683 390.7449,461.1349 Q391.4297,462.2016 392.7744,462.2016 Q393.4053,462.2016 393.9988,461.9318 Q394.5923,461.662 395.2231,461.081 Z " fill="#000000"/><text fill="#000000" font-family="sans-serif" font-size="12" font-style="italic" lengthAdjust="spacing" textLength="42" x="421.25" y="453.9516">&#171;Kode&#187;</text><text fill="#000000" font-family="sans-serif" font-size="14" lengthAdjust="spacing" textLength="58" x="413.25" y="470.018">Plantype</text><line style="stroke:#181818;stroke-width:0.5;" x1="335" x2="517" y1="477.9711" y2="477.9711"/><ellipse cx="345" cy="491.7152" fill="none" rx="3" ry="3" style="stroke:#038048;stroke-width:1.0;"/><text fill="#000000" font-family="sans-serif" font-size="14" lengthAdjust="spacing" textLength="116" x="354" y="495.5062">kodeverdi: string</text><ellipse cx="345" cy="508.2035" fill="none" rx="3" ry="3" style="stroke:#038048;stroke-width:1.0;"/><text fill="#000000" font-family="sans-serif" font-size="14" lengthAdjust="spacing" textLength="158" x="354" y="511.9945">kodebeskrivelse: string</text><line style="stroke:#181818;stroke-width:0.5;" x1="335" x2="517" y1="518.9477" y2="518.9477"/></g><!--class Planstatus--><g id="elem_Planstatus"><rect codeLine="30" fill="#F1F1F1" height="89.5977" id="Planstatus" rx="2.5" ry="2.5" style="stroke:#181818;stroke-width:0.5;" width="184" x="553" y="437.35"/><ellipse cx="605.75" cy="457.6605" fill="#ADD1B2" rx="11" ry="11" style="stroke:#181818;stroke-width:1.0;"/><path d="M608.2231,463.8036 Q607.6421,464.1024 607.0029,464.2519 Q606.3638,464.4013 605.6582,464.4013 Q603.1514,464.4013 601.8315,462.7494 Q600.5117,461.0976 600.5117,457.9765 Q600.5117,454.8471 601.8315,453.1952 Q603.1514,451.5434 605.6582,451.5434 Q606.3638,451.5434 607.0112,451.6928 Q607.6587,451.8422 608.2231,452.141 L608.2231,454.8637 Q607.5923,454.2826 606.9988,454.0128 Q606.4053,453.7431 605.7744,453.7431 Q604.4297,453.7431 603.7449,454.8097 Q603.0601,455.8764 603.0601,457.9765 Q603.0601,460.0683 603.7449,461.1349 Q604.4297,462.2016 605.7744,462.2016 Q606.4053,462.2016 606.9988,461.9318 Q607.5923,461.662 608.2231,461.081 Z " fill="#000000"/><text fill="#000000" font-family="sans-serif" font-size="12" font-style="italic" lengthAdjust="spacing" textLength="42" x="640.25" y="453.9516">&#171;Kode&#187;</text><text fill="#000000" font-family="sans-serif" font-size="14" lengthAdjust="spacing" textLength="70" x="626.25" y="470.018">Planstatus</text><line style="stroke:#181818;stroke-width:0.5;" x1="554" x2="736" y1="477.9711" y2="477.9711"/><ellipse cx="564" cy="491.7152" fill="none" rx="3" ry="3" style="stroke:#038048;stroke-width:1.0;"/><text fill="#000000" font-family="sans-serif" font-size="14" lengthAdjust="spacing" textLength="116" x="573" y="495.5062">kodeverdi: string</text><ellipse cx="564" cy="508.2035" fill="none" rx="3" ry="3" style="stroke:#038048;stroke-width:1.0;"/><text fill="#000000" font-family="sans-serif" font-size="14" lengthAdjust="spacing" textLength="158" x="573" y="511.9945">kodebeskrivelse: string</text><line style="stroke:#181818;stroke-width:0.5;" x1="554" x2="736" y1="518.9477" y2="518.9477"/></g><!--class Lovreferanse--><g id="elem_Lovreferanse"><rect codeLine="35" fill="#F1F1F1" height="89.5977" id="Lovreferanse" rx="2.5" ry="2.5" style="stroke:#181818;stroke-width:0.5;" width="184" x="772" y="437.35"/><ellipse cx="815.8" cy="457.6605" fill="#ADD1B2" rx="11" ry="11" style="stroke:#181818;stroke-width:1.0;"/><path d="M818.2731,463.8036 Q817.6921,464.1024 817.0529,464.2519 Q816.4138,464.4013 815.7082,464.4013 Q813.2014,464.4013 811.8815,462.7494 Q810.5617,461.0976 810.5617,457.9765 Q810.5617,454.8471 811.8815,453.1952 Q813.2014,451.5434 815.7082,451.5434 Q816.4138,451.5434 817.0612,451.6928 Q817.7087,451.8422 818.2731,452.141 L818.2731,454.8637 Q817.6423,454.2826 817.0488,454.0128 Q816.4553,453.7431 815.8244,453.7431 Q814.4797,453.7431 813.7949,454.8097 Q813.1101,455.8764 813.1101,457.9765 Q813.1101,460.0683 813.7949,461.1349 Q814.4797,462.2016 815.8244,462.2016 Q816.4553,462.2016 817.0488,461.9318 Q817.6423,461.662 818.2731,461.081 Z " fill="#000000"/><text fill="#000000" font-family="sans-serif" font-size="12" font-style="italic" lengthAdjust="spacing" textLength="42" x="859.2" y="453.9516">&#171;Kode&#187;</text><text fill="#000000" font-family="sans-serif" font-size="14" lengthAdjust="spacing" textLength="88" x="836.2" y="470.018">Lovreferanse</text><line style="stroke:#181818;stroke-width:0.5;" x1="773" x2="955" y1="477.9711" y2="477.9711"/><ellipse cx="783" cy="491.7152" fill="none" rx="3" ry="3" style="stroke:#038048;stroke-width:1.0;"/><text fill="#000000" font-family="sans-serif" font-size="14" lengthAdjust="spacing" textLength="116" x="792" y="495.5062">kodeverdi: string</text><ellipse cx="783" cy="508.2035" fill="none" rx="3" ry="3" style="stroke:#038048;stroke-width:1.0;"/><text fill="#000000" font-family="sans-serif" font-size="14" lengthAdjust="spacing" textLength="158" x="792" y="511.9945">kodebeskrivelse: string</text><line style="stroke:#181818;stroke-width:0.5;" x1="773" x2="955" y1="518.9477" y2="518.9477"/></g><!--class ForslagstillerType--><g id="elem_ForslagstillerType"><rect codeLine="40" fill="#F1F1F1" height="89.5977" id="ForslagstillerType" rx="2.5" ry="2.5" style="stroke:#181818;stroke-width:0.5;" width="184" x="991" y="437.35"/><ellipse cx="1019.5" cy="457.6605" fill="#ADD1B2" rx="11" ry="11" style="stroke:#181818;stroke-width:1.0;"/><path d="M1021.9731,463.8036 Q1021.3921,464.1024 1020.7529,464.2519 Q1020.1138,464.4013 1019.4082,464.4013 Q1016.9014,464.4013 1015.5815,462.7494 Q1014.2617,461.0976 1014.2617,457.9765 Q1014.2617,454.8471 1015.5815,453.1952 Q1016.9014,451.5434 1019.4082,451.5434 Q1020.1138,451.5434 1020.7612,451.6928 Q1021.4087,451.8422 1021.9731,452.141 L1021.9731,454.8637 Q1021.3423,454.2826 1020.7488,454.0128 Q1020.1553,453.7431 1019.5244,453.7431 Q1018.1797,453.7431 1017.4949,454.8097 Q1016.8101,455.8764 1016.8101,457.9765 Q1016.8101,460.0683 1017.4949,461.1349 Q1018.1797,462.2016 1019.5244,462.2016 Q1020.1553,462.2016 1020.7488,461.9318 Q1021.3423,461.662 1021.9731,461.081 Z " fill="#000000"/><text fill="#000000" font-family="sans-serif" font-size="12" font-style="italic" lengthAdjust="spacing" textLength="42" x="1076.5" y="453.9516">&#171;Kode&#187;</text><text fill="#000000" font-family="sans-serif" font-size="14" lengthAdjust="spacing" textLength="122" x="1036.5" y="470.018">ForslagstillerType</text><line style="stroke:#181818;stroke-width:0.5;" x1="992" x2="1174" y1="477.9711" y2="477.9711"/><ellipse cx="1002" cy="491.7152" fill="none" rx="3" ry="3" style="stroke:#038048;stroke-width:1.0;"/><text fill="#000000" font-family="sans-serif" font-size="14" lengthAdjust="spacing" textLength="116" x="1011" y="495.5062">kodeverdi: string</text><ellipse cx="1002" cy="508.2035" fill="none" rx="3" ry="3" style="stroke:#038048;stroke-width:1.0;"/><text fill="#000000" font-family="sans-serif" font-size="14" lengthAdjust="spacing" textLength="158" x="1011" y="511.9945">kodebeskrivelse: string</text><line style="stroke:#181818;stroke-width:0.5;" x1="992" x2="1174" y1="518.9477" y2="518.9477"/></g><!--class FinnArealplanerResultat--><g id="elem_FinnArealplanerResultat"><rect codeLine="3" fill="#F1F1F1" height="64.4883" id="FinnArealplanerResultat" rx="2.5" ry="2.5" style="stroke:#181818;stroke-width:0.5;" width="197" x="546.5" y="7"/><ellipse cx="561.5" cy="23" fill="#ADD1B2" rx="11" ry="11" style="stroke:#181818;stroke-width:1.0;"/><path d="M563.9731,29.1431 Q563.3921,29.4419 562.7529,29.5913 Q562.1138,29.7407 561.4082,29.7407 Q558.9014,29.7407 557.5815,28.0889 Q556.2617,26.437 556.2617,23.3159 Q556.2617,20.1865 557.5815,18.5347 Q558.9014,16.8828 561.4082,16.8828 Q562.1138,16.8828 562.7612,17.0322 Q563.4087,17.1816 563.9731,17.4805 L563.9731,20.2031 Q563.3423,19.6221 562.7488,19.3523 Q562.1553,19.0825 561.5244,19.0825 Q560.1797,19.0825 559.4949,20.1492 Q558.8101,21.2158 558.8101,23.3159 Q558.8101,25.4077 559.4949,26.4744 Q560.1797,27.541 561.5244,27.541 Q562.1553,27.541 562.7488,27.2712 Q563.3423,27.0015 563.9731,26.4204 Z " fill="#000000"/><text fill="#000000" font-family="sans-serif" font-size="14" lengthAdjust="spacing" textLength="165" x="575.5" y="28.291">FinnArealplanerResultat</text><line style="stroke:#181818;stroke-width:0.5;" x1="547.5" x2="742.5" y1="39" y2="39"/><ellipse cx="557.5" cy="52.7441" fill="none" rx="3" ry="3" style="stroke:#038048;stroke-width:1.0;"/><text fill="#000000" font-family="sans-serif" font-size="14" lengthAdjust="spacing" textLength="162" x="566.5" y="56.5352">arealplaner: Arealplan[]</text><line style="stroke:#181818;stroke-width:0.5;" x1="547.5" x2="742.5" y1="63.4883" y2="63.4883"/></g><!--link NasjonalArealplanId to AdministrativEnhet--><g id="link_NasjonalArealplanId_AdministrativEnhet"><path codeLine="6" d="M153,522.96 C153,542.43 153,566.01 153,586.49 " fill="none" id="NasjonalArealplanId-AdministrativEnhet" style="stroke:#181818;stroke-width:1.0;"/></g><!--link Arealplan to NasjonalArealplanId--><g id="link_Arealplan_NasjonalArealplanId"><path codeLine="19" d="M490,326.53 C407.47,364.39 309.04,409.56 239.93,441.26 " fill="none" id="Arealplan-NasjonalArealplanId" style="stroke:#181818;stroke-width:1.0;"/></g><!--link Arealplan to Plantype--><g id="link_Arealplan_Plantype"><path codeLine="20" d="M526.53,377.53 C505.87,398.83 485.63,419.68 468.8,437.03 " fill="none" id="Arealplan-Plantype" style="stroke:#181818;stroke-width:1.0;"/></g><!--link Arealplan to Planstatus--><g id="link_Arealplan_Planstatus"><path codeLine="21" d="M645,377.53 C645,398.83 645,419.68 645,437.03 " fill="none" id="Arealplan-Planstatus" style="stroke:#181818;stroke-width:1.0;"/></g><!--link Arealplan to Lovreferanse--><g id="link_Arealplan_Lovreferanse"><path codeLine="22" d="M763.47,377.53 C784.13,398.83 804.37,419.68 821.2,437.03 " fill="none" id="Arealplan-Lovreferanse" style="stroke:#181818;stroke-width:1.0;"/></g><!--link Arealplan to ForslagstillerType--><g id="link_Arealplan_ForslagstillerType"><path codeLine="23" d="M799.73,335.16 C866.08,369.35 941.06,408 997.21,436.93 " fill="none" id="Arealplan-ForslagstillerType" style="stroke:#181818;stroke-width:1.0;"/></g><!--link FinnArealplanerResultat to Arealplan--><g id="link_FinnArealplanerResultat_Arealplan"><path codeLine="7" d="M645,71.7 C645,88.03 645,109.15 645,131.18 " fill="none" id="FinnArealplanerResultat-Arealplan" style="stroke:#181818;stroke-width:1.0;"/></g><!--SRC=[KypCIyufJKbLqDFNqzFFozVBBjPBomGI1Jc9UNfbHdffgJavgSLwYKMfYJaWCNquIw-Wb8ihEIUnk5Z1BJClpn4cdbeKb5fScbEIMA9GpQK01Dg922ah1RYww5YkMYukN5frTH4gkG00]--></g></svg>