<?xml version="1.0" encoding="us-ascii" standalone="no"?><svg xmlns="http://www.w3.org/2000/svg" xmlns:xlink="http://www.w3.org/1999/xlink" contentStyleType="text/css" height="186px" preserveAspectRatio="none" style="width:688px;height:186px;background:#FFFFFF;" version="1.1" viewBox="0 0 688 186" width="688px" zoomAndPan="magnify"><defs/><g><!--class FinnArealplanerResultat--><g id="elem_FinnArealplanerResultat"><rect codeLine="2" fill="#F1F1F1" height="64.4883" id="FinnArealplanerResultat" rx="2.5" ry="2.5" style="stroke:#181818;stroke-width:0.5;" width="197" x="7" y="7"/><ellipse cx="22" cy="23" fill="#ADD1B2" rx="11" ry="11" style="stroke:#181818;stroke-width:1.0;"/><path d="M24.4731,29.1431 Q23.8921,29.4419 23.2529,29.5913 Q22.6138,29.7407 21.9082,29.7407 Q19.4014,29.7407 18.0815,28.0889 Q16.7617,26.437 16.7617,23.3159 Q16.7617,20.1865 18.0815,18.5347 Q19.4014,16.8828 21.9082,16.8828 Q22.6138,16.8828 23.2612,17.0322 Q23.9087,17.1816 24.4731,17.4805 L24.4731,20.2031 Q23.8423,19.6221 23.2488,19.3523 Q22.6553,19.0825 22.0244,19.0825 Q20.6797,19.0825 19.9949,20.1492 Q19.3101,21.2158 19.3101,23.3159 Q19.3101,25.4077 19.9949,26.4744 Q20.6797,27.541 22.0244,27.541 Q22.6553,27.541 23.2488,27.2712 Q23.8423,27.0015 24.4731,26.4204 Z " fill="#000000"/><text fill="#000000" font-family="sans-serif" font-size="14" lengthAdjust="spacing" textLength="165" x="36" y="28.291">FinnArealplanerResultat</text><line style="stroke:#181818;stroke-width:0.5;" x1="8" x2="203" y1="39" y2="39"/><ellipse cx="18" cy="52.7441" fill="none" rx="3" ry="3" style="stroke:#038048;stroke-width:1.0;"/><text fill="#000000" font-family="sans-serif" font-size="14" lengthAdjust="spacing" textLength="162" x="27" y="56.5352">arealplaner: Arealplan[]</text><line style="stroke:#181818;stroke-width:0.5;" x1="8" x2="203" y1="63.4883" y2="63.4883"/></g><!--class Arealplan--><g id="elem_Arealplan"><rect fill="#F1F1F1" height="48" id="Arealplan" rx="2.5" ry="2.5" style="stroke:#181818;stroke-width:0.5;" width="98" x="233.5" y="131.49"/><ellipse cx="248.5" cy="147.49" fill="#ADD1B2" rx="11" ry="11" style="stroke:#181818;stroke-width:1.0;"/><path d="M250.9731,153.6331 Q250.3921,153.9319 249.7529,154.0813 Q249.1138,154.2307 248.4082,154.2307 Q245.9014,154.2307 244.5815,152.5789 Q243.2617,150.927 243.2617,147.8059 Q243.2617,144.6765 244.5815,143.0247 Q245.9014,141.3728 248.4082,141.3728 Q249.1138,141.3728 249.7612,141.5222 Q250.4087,141.6716 250.9731,141.9705 L250.9731,144.6931 Q250.3423,144.1121 249.7488,143.8423 Q249.1553,143.5725 248.5244,143.5725 Q247.1797,143.5725 246.4949,144.6392 Q245.8101,145.7058 245.8101,147.8059 Q245.8101,149.8977 246.4949,150.9644 Q247.1797,152.031 248.5244,152.031 Q249.1553,152.031 249.7488,151.7612 Q250.3423,151.4915 250.9731,150.9104 Z " fill="#000000"/><text fill="#000000" font-family="sans-serif" font-size="14" lengthAdjust="spacing" textLength="66" x="262.5" y="152.781">Arealplan</text><line style="stroke:#181818;stroke-width:0.5;" x1="234.5" x2="330.5" y1="163.49" y2="163.49"/><line style="stroke:#181818;stroke-width:0.5;" x1="234.5" x2="330.5" y1="171.49" y2="171.49"/></g><g id="elem_GMN5"><path d="M239.5,26.59 L239.5,51.9005 A0,0 0 0 0 239.5,51.9005 L437.79,51.9005 L319.11,130.99 L445.79,51.9005 L681.5,51.9005 A0,0 0 0 0 681.5,51.9005 L681.5,36.59 L671.5,26.59 L239.5,26.59 A0,0 0 0 0 239.5,26.59 " fill="#FEFFDD" style="stroke:#181818;stroke-width:0.5;"/><path d="M671.5,26.59 L671.5,36.59 L681.5,36.59 L671.5,26.59 " fill="#FEFFDD" style="stroke:#181818;stroke-width:0.5;"/><text fill="#000000" font-family="sans-serif" font-size="13" lengthAdjust="spacing" textLength="421" x="245.5" y="44.1584">Se detaljer i diagram for skjema 'no.ks.fiks.plan.v2.felles.arealplan'</text></g><!--link FinnArealplanerResultat to Arealplan--><g id="link_FinnArealplanerResultat_Arealplan"><path codeLine="6" d="M154.33,71.77 C183.4,90.52 219.65,113.92 246.18,131.05 " fill="none" id="FinnArealplanerResultat-Arealplan" style="stroke:#181818;stroke-width:1.0;"/></g><!--SRC=[TOwn3i8m44Ft-mfl7QfcOEpMXG-04J6Sw0MblIPLBcL1_3jbQIOyUB2V9J-KpN0ECGvPM5VbAFaYjcdXWZTXLykrwd5mjpjzYFvDkwwIH34LGKahagynUbm5enJMIJ82ni3Fp0jyoh1vaeNHnEHcSpxizjkurybvKHLpnwk6lW00]--></g></svg>