<svg xmlns="http://www.w3.org/2000/svg" xmlns:xlink="http://www.w3.org/1999/xlink" contentStyleType="text/css" height="357px" preserveAspectRatio="none" style="width:596px;height:357px;background:#FFFFFF;" version="1.1" viewBox="0 0 596 357" width="596px" zoomAndPan="magnify"><defs/><g><rect fill="#F1F1F1" height="81.9531" rx="5" ry="5" style="stroke:#F1F1F1;stroke-width:1.5;" width="220" x="10" y="105.5"/><text fill="#000000" font-family="sans-serif" font-size="14" font-weight="bold" lengthAdjust="spacing" textLength="101" x="15" y="121.0352">protokollnavn</text><text fill="#000000" font-family="sans-serif" font-size="14" lengthAdjust="spacing" textLength="99" x="126" y="121.0352">no.ks.fiks.plan</text><line style="stroke:#000000;stroke-width:1.0;" x1="121" x2="121" y1="105.5" y2="125.9883"/><line style="stroke:#000000;stroke-width:1.0;" x1="10" x2="230" y1="125.9883" y2="125.9883"/><text fill="#000000" font-family="sans-serif" font-size="14" font-weight="bold" lengthAdjust="spacing" textLength="34" x="15" y="141.5234">navn</text><text fill="#000000" font-family="sans-serif" font-size="14" lengthAdjust="spacing" textLength="91" x="126" y="141.5234">lovreferanser</text><line style="stroke:#000000;stroke-width:1.0;" x1="121" x2="121" y1="125.9883" y2="146.4766"/><line style="stroke:#000000;stroke-width:1.0;" x1="10" x2="230" y1="146.4766" y2="146.4766"/><text fill="#000000" font-family="sans-serif" font-size="14" font-weight="bold" lengthAdjust="spacing" textLength="53" x="15" y="162.0117">versjon</text><text fill="#000000" font-family="sans-serif" font-size="14" lengthAdjust="spacing" textLength="16" x="126" y="162.0117">v2</text><line style="stroke:#000000;stroke-width:1.0;" x1="121" x2="121" y1="146.4766" y2="166.9648"/><line style="stroke:#000000;stroke-width:1.0;" x1="10" x2="230" y1="166.9648" y2="166.9648"/><text fill="#000000" font-family="sans-serif" font-size="14" font-weight="bold" lengthAdjust="spacing" textLength="67" x="15" y="182.5">kodeliste</text><text fill="#000000" font-family="sans-serif" font-size="14" lengthAdjust="spacing" textLength="12" x="126" y="182.5">&#160;&#160;&#160;</text><line style="stroke:#000000;stroke-width:1.0;" x1="121" x2="121" y1="166.9648" y2="187.4531"/><rect fill="none" height="81.9531" rx="5" ry="5" style="stroke:#000000;stroke-width:1.5;" width="220" x="10" y="105.5"/><rect fill="#F1F1F1" height="122.9297" rx="5" ry="5" style="stroke:#F1F1F1;stroke-width:1.5;" width="22" x="267" y="116"/><text fill="#000000" font-family="sans-serif" font-size="14" lengthAdjust="spacing" textLength="12" x="272" y="131.5352">&#160;&#160;&#160;</text><line style="stroke:#000000;stroke-width:1.0;" x1="267" x2="289" y1="136.4883" y2="136.4883"/><text fill="#000000" font-family="sans-serif" font-size="14" lengthAdjust="spacing" textLength="12" x="272" y="152.0234">&#160;&#160;&#160;</text><line style="stroke:#000000;stroke-width:1.0;" x1="267" x2="289" y1="156.9766" y2="156.9766"/><text fill="#000000" font-family="sans-serif" font-size="14" lengthAdjust="spacing" textLength="12" x="272" y="172.5117">&#160;&#160;&#160;</text><line style="stroke:#000000;stroke-width:1.0;" x1="267" x2="289" y1="177.4648" y2="177.4648"/><text fill="#000000" font-family="sans-serif" font-size="14" lengthAdjust="spacing" textLength="12" x="272" y="193">&#160;&#160;&#160;</text><line style="stroke:#000000;stroke-width:1.0;" x1="267" x2="289" y1="197.9531" y2="197.9531"/><text fill="#000000" font-family="sans-serif" font-size="14" lengthAdjust="spacing" textLength="12" x="272" y="213.4883">&#160;&#160;&#160;</text><line style="stroke:#000000;stroke-width:1.0;" x1="267" x2="289" y1="218.4414" y2="218.4414"/><text fill="#000000" font-family="sans-serif" font-size="14" lengthAdjust="spacing" textLength="12" x="272" y="233.9766">&#160;&#160;&#160;</text><rect fill="none" height="122.9297" rx="5" ry="5" style="stroke:#000000;stroke-width:1.5;" width="22" x="267" y="116"/><rect fill="#F1F1F1" height="40.9766" rx="5" ry="5" style="stroke:#F1F1F1;stroke-width:1.5;" width="219" x="345.5" y="10"/><text fill="#000000" font-family="sans-serif" font-size="14" font-weight="bold" lengthAdjust="spacing" textLength="71" x="350.5" y="25.5352">kodeverdi</text><text fill="#000000" font-family="sans-serif" font-size="14" lengthAdjust="spacing" textLength="9" x="477.5" y="25.5352">1</text><line style="stroke:#000000;stroke-width:1.0;" x1="472.5" x2="472.5" y1="10" y2="30.4883"/><line style="stroke:#000000;stroke-width:1.0;" x1="345.5" x2="564.5" y1="30.4883" y2="30.4883"/><text fill="#000000" font-family="sans-serif" font-size="14" font-weight="bold" lengthAdjust="spacing" textLength="117" x="350.5" y="46.0234">kodebeskrivelse</text><text fill="#000000" font-family="sans-serif" font-size="14" lengthAdjust="spacing" textLength="82" x="477.5" y="46.0234">F&#248;r BL 1924</text><line style="stroke:#000000;stroke-width:1.0;" x1="472.5" x2="472.5" y1="30.4883" y2="50.9766"/><rect fill="none" height="40.9766" rx="5" ry="5" style="stroke:#000000;stroke-width:1.5;" width="219" x="345.5" y="10"/><rect fill="#F1F1F1" height="40.9766" rx="5" ry="5" style="stroke:#F1F1F1;stroke-width:1.5;" width="192" x="359" y="69"/><text fill="#000000" font-family="sans-serif" font-size="14" font-weight="bold" lengthAdjust="spacing" textLength="71" x="364" y="84.5352">kodeverdi</text><text fill="#000000" font-family="sans-serif" font-size="14" lengthAdjust="spacing" textLength="9" x="491" y="84.5352">2</text><line style="stroke:#000000;stroke-width:1.0;" x1="486" x2="486" y1="69" y2="89.4883"/><line style="stroke:#000000;stroke-width:1.0;" x1="359" x2="551" y1="89.4883" y2="89.4883"/><text fill="#000000" font-family="sans-serif" font-size="14" font-weight="bold" lengthAdjust="spacing" textLength="117" x="364" y="105.0234">kodebeskrivelse</text><text fill="#000000" font-family="sans-serif" font-size="14" lengthAdjust="spacing" textLength="55" x="491" y="105.0234">BL 1924</text><line style="stroke:#000000;stroke-width:1.0;" x1="486" x2="486" y1="89.4883" y2="109.9766"/><rect fill="none" height="40.9766" rx="5" ry="5" style="stroke:#000000;stroke-width:1.5;" width="192" x="359" y="69"/><rect fill="#F1F1F1" height="40.9766" rx="5" ry="5" style="stroke:#F1F1F1;stroke-width:1.5;" width="192" x="359" y="128"/><text fill="#000000" font-family="sans-serif" font-size="14" font-weight="bold" lengthAdjust="spacing" textLength="71" x="364" y="143.5352">kodeverdi</text><text fill="#000000" font-family="sans-serif" font-size="14" lengthAdjust="spacing" textLength="9" x="491" y="143.5352">3</text><line style="stroke:#000000;stroke-width:1.0;" x1="486" x2="486" y1="128" y2="148.4883"/><line style="stroke:#000000;stroke-width:1.0;" x1="359" x2="551" y1="148.4883" y2="148.4883"/><text fill="#000000" font-family="sans-serif" font-size="14" font-weight="bold" lengthAdjust="spacing" textLength="117" x="364" y="164.0234">kodebeskrivelse</text><text fill="#000000" font-family="sans-serif" font-size="14" lengthAdjust="spacing" textLength="55" x="491" y="164.0234">BL 1965</text><line style="stroke:#000000;stroke-width:1.0;" x1="486" x2="486" y1="148.4883" y2="168.9766"/><rect fill="none" height="40.9766" rx="5" ry="5" style="stroke:#000000;stroke-width:1.5;" width="192" x="359" y="128"/><rect fill="#F1F1F1" height="40.9766" rx="5" ry="5" style="stroke:#F1F1F1;stroke-width:1.5;" width="200" x="355" y="187"/><text fill="#000000" font-family="sans-serif" font-size="14" font-weight="bold" lengthAdjust="spacing" textLength="71" x="360" y="202.5352">kodeverdi</text><text fill="#000000" font-family="sans-serif" font-size="14" lengthAdjust="spacing" textLength="9" x="487" y="202.5352">4</text><line style="stroke:#000000;stroke-width:1.0;" x1="482" x2="482" y1="187" y2="207.4883"/><line style="stroke:#000000;stroke-width:1.0;" x1="355" x2="555" y1="207.4883" y2="207.4883"/><text fill="#000000" font-family="sans-serif" font-size="14" font-weight="bold" lengthAdjust="spacing" textLength="117" x="360" y="223.0234">kodebeskrivelse</text><text fill="#000000" font-family="sans-serif" font-size="14" lengthAdjust="spacing" textLength="63" x="487" y="223.0234">PBL 1985</text><line style="stroke:#000000;stroke-width:1.0;" x1="482" x2="482" y1="207.4883" y2="227.9766"/><rect fill="none" height="40.9766" rx="5" ry="5" style="stroke:#000000;stroke-width:1.5;" width="200" x="355" y="187"/><rect fill="#F1F1F1" height="40.9766" rx="5" ry="5" style="stroke:#F1F1F1;stroke-width:1.5;" width="258" x="326" y="246"/><text fill="#000000" font-family="sans-serif" font-size="14" font-weight="bold" lengthAdjust="spacing" textLength="71" x="331" y="261.5352">kodeverdi</text><text fill="#000000" font-family="sans-serif" font-size="14" lengthAdjust="spacing" textLength="9" x="458" y="261.5352">5</text><line style="stroke:#000000;stroke-width:1.0;" x1="453" x2="453" y1="246" y2="266.4883"/><line style="stroke:#000000;stroke-width:1.0;" x1="326" x2="584" y1="266.4883" y2="266.4883"/><text fill="#000000" font-family="sans-serif" font-size="14" font-weight="bold" lengthAdjust="spacing" textLength="117" x="331" y="282.0234">kodebeskrivelse</text><text fill="#000000" font-family="sans-serif" font-size="14" lengthAdjust="spacing" textLength="121" x="458" y="282.0234">PBL 1985 eller f&#248;r</text><line style="stroke:#000000;stroke-width:1.0;" x1="453" x2="453" y1="266.4883" y2="286.9766"/><rect fill="none" height="40.9766" rx="5" ry="5" style="stroke:#000000;stroke-width:1.5;" width="258" x="326" y="246"/><rect fill="#F1F1F1" height="40.9766" rx="5" ry="5" style="stroke:#F1F1F1;stroke-width:1.5;" width="200" x="355" y="305"/><text fill="#000000" font-family="sans-serif" font-size="14" font-weight="bold" lengthAdjust="spacing" textLength="71" x="360" y="320.5352">kodeverdi</text><text fill="#000000" font-family="sans-serif" font-size="14" lengthAdjust="spacing" textLength="9" x="487" y="320.5352">6</text><line style="stroke:#000000;stroke-width:1.0;" x1="482" x2="482" y1="305" y2="325.4883"/><line style="stroke:#000000;stroke-width:1.0;" x1="355" x2="555" y1="325.4883" y2="325.4883"/><text fill="#000000" font-family="sans-serif" font-size="14" font-weight="bold" lengthAdjust="spacing" textLength="117" x="360" y="341.0234">kodebeskrivelse</text><text fill="#000000" font-family="sans-serif" font-size="14" lengthAdjust="spacing" textLength="63" x="487" y="341.0234">PBL 2008</text><line style="stroke:#000000;stroke-width:1.0;" x1="482" x2="482" y1="325.4883" y2="345.9766"/><rect fill="none" height="40.9766" rx="5" ry="5" style="stroke:#000000;stroke-width:1.5;" width="200" x="355" y="305"/><path d="M277,126.5 L290,126.5 C323.8041,126.5 299.0861,79.9538 326,59.5 C330.0983,56.3854 334.4693,53.5942 339.0334,51.0938 " fill="none" style="stroke:#000000;stroke-width:1.0;stroke-dasharray:3.0,3.0;"/><path d="M340.4171,53.8201 L341.0781,50.0561 L337.6497,48.3675 L345.8491,47.6346 L340.4171,53.8201 " fill="#000000" style="stroke:#000000;stroke-width:1.0;"/><ellipse cx="277" cy="126.5" fill="#000000" rx="3" ry="3" style="stroke:#000000;stroke-width:1.0;"/><path d="M277,146.5 L290,146.5 C310.2698,146.5 307.6739,127.1613 326,118.5 C334.2393,114.6059 343.027,111.2215 351.9928,108.2824 " fill="none" style="stroke:#000000;stroke-width:1.0;stroke-dasharray:3.0,3.0;"/><path d="M352.8979,111.171 L354.1592,107.6036 L351.0876,105.3938 L359.2142,106.0196 L352.8979,111.171 " fill="#000000" style="stroke:#000000;stroke-width:1.0;"/><ellipse cx="277" cy="146.5" fill="#000000" rx="3" ry="3" style="stroke:#000000;stroke-width:1.0;"/><path d="M277,167.5 L290,167.5 C310.0995,167.5 331.4898,166.0829 351.9666,164.0227 " fill="none" style="stroke:#000000;stroke-width:1.0;stroke-dasharray:3.0,3.0;"/><path d="M352.2813,167.0222 L354.2163,163.7867 L351.652,161.0232 L359.4654,163.236 L352.2813,167.0222 " fill="#000000" style="stroke:#000000;stroke-width:1.0;"/><ellipse cx="277" cy="167.5" fill="#000000" rx="3" ry="3" style="stroke:#000000;stroke-width:1.0;"/><path d="M277,187.5 L290,187.5 C308.6675,187.5 328.44,188.7849 347.5581,190.7033 " fill="none" style="stroke:#000000;stroke-width:1.0;stroke-dasharray:3.0,3.0;"/><path d="M347.2398,193.7332 L349.8306,190.9421 L347.8765,187.6734 L355.1329,191.4992 L347.2398,193.7332 " fill="#000000" style="stroke:#000000;stroke-width:1.0;"/><ellipse cx="277" cy="187.5" fill="#000000" rx="3" ry="3" style="stroke:#000000;stroke-width:1.0;"/><path d="M277,208.5 L290,208.5 C310.5456,208.5 307.5001,228.5626 326,237.5 C330.2569,239.5566 334.6643,241.4701 339.1699,243.2502 " fill="none" style="stroke:#000000;stroke-width:1.0;stroke-dasharray:3.0,3.0;"/><path d="M338.0943,246.1118 L341.3161,244.0569 L340.2456,240.3887 L346.3238,245.9393 L338.0943,246.1118 " fill="#000000" style="stroke:#000000;stroke-width:1.0;"/><ellipse cx="277" cy="208.5" fill="#000000" rx="3" ry="3" style="stroke:#000000;stroke-width:1.0;"/><path d="M277,228.5 L290,228.5 C324.1962,228.5 298.8377,275.7252 326,296.5 C332.7455,301.6592 340.2377,305.9319 348.1181,309.4667 " fill="none" style="stroke:#000000;stroke-width:1.0;stroke-dasharray:3.0,3.0;"/><path d="M346.9009,312.401 L350.3189,310.3796 L349.3353,306.5323 L355.454,312.5097 L346.9009,312.401 " fill="#000000" style="stroke:#000000;stroke-width:1.0;"/><ellipse cx="277" cy="228.5" fill="#000000" rx="3" ry="3" style="stroke:#000000;stroke-width:1.0;"/><path d="M218,177.5 L231,177.5 C240.4213,177.5 250.9164,177.5 259.5483,177.5 " fill="none" style="stroke:#000000;stroke-width:1.0;stroke-dasharray:3.0,3.0;"/><path d="M259.5483,180.5437 L261.8311,177.5 L259.5483,174.4563 L267.1575,177.5 L259.5483,180.5437 " fill="#000000" style="stroke:#000000;stroke-width:1.0;"/><ellipse cx="218" cy="177.5" fill="#000000" rx="3" ry="3" style="stroke:#000000;stroke-width:1.0;"/><!--SRC=[bPAxRi8m58PtFyLH9f0W8Yb1D1FYLeb2YyfbgJeOSa06Suni9n92l5VtlbXDW7QZwNA6__B9ilwMiLpRZL74ZWp0ssjbrLP9IJmZBmQFbByr_aguivUSlCevTJEboZIkK7Cog2zMXjfiLEvcuKNQgWIbC1QT-Eu4W6D-hvPh9C83LmZo_8-nGBFL8aDfCBVxNvyQsaC87iEwbmTFbNkuy3xk7wI70gH6L8HKlqyQvwXc8LHK30Ke9MfOkSyhGctyJGrhjUOLvUu7Ex4MKf9lY8tTHkniD8Jp3eGY2Fom5jRzg3H92KRy0643WY0EeZXgGgStcSBPBxFIqtW8HgLwYP2uiMYnIAq3bDc0PnpUKh9YXp6yxf46tUUR03tAX5QqGx9iC1_z1XhrQbjOcA1sJu7vY7LnnLDfNMEf4a7h66RJVhN9XfpMALyxDXBhACVLXnXUNhy1]--></g></svg>