<svg xmlns="http://www.w3.org/2000/svg" xmlns:xlink="http://www.w3.org/1999/xlink" contentStyleType="text/css" data-diagram-type="JSON" height="357px" preserveAspectRatio="none" style="width:598px;height:357px;background:#FFFFFF;" version="1.1" viewBox="0 0 598 357" width="598px" zoomAndPan="magnify"><defs/><g><rect fill="#F1F1F1" height="81.9531" rx="5" ry="5" style="stroke:#F1F1F1;stroke-width:1.5;" width="220.7168" x="10" y="105.5"/><text fill="#000000" font-family="sans-serif" font-size="14" font-weight="bold" lengthAdjust="spacing" textLength="101.0283" x="15" y="121.0352">protokollnavn</text><text fill="#000000" font-family="sans-serif" font-size="14" lengthAdjust="spacing" textLength="99.6885" x="126.0283" y="121.0352">no.ks.fiks.plan</text><line style="stroke:#000000;stroke-width:1;" x1="121.0283" x2="121.0283" y1="105.5" y2="125.9883"/><line style="stroke:#000000;stroke-width:1;" x1="10" x2="230.7168" y1="125.9883" y2="125.9883"/><text fill="#000000" font-family="sans-serif" font-size="14" font-weight="bold" lengthAdjust="spacing" textLength="34.9248" x="15" y="141.5234">navn</text><text fill="#000000" font-family="sans-serif" font-size="14" lengthAdjust="spacing" textLength="89.1816" x="126.0283" y="141.5234">lovreferanser</text><line style="stroke:#000000;stroke-width:1;" x1="121.0283" x2="121.0283" y1="125.9883" y2="146.4766"/><line style="stroke:#000000;stroke-width:1;" x1="10" x2="230.7168" y1="146.4766" y2="146.4766"/><text fill="#000000" font-family="sans-serif" font-size="14" font-weight="bold" lengthAdjust="spacing" textLength="53.5869" x="15" y="162.0117">versjon</text><text fill="#000000" font-family="sans-serif" font-size="14" lengthAdjust="spacing" textLength="16.0986" x="126.0283" y="162.0117">v2</text><line style="stroke:#000000;stroke-width:1;" x1="121.0283" x2="121.0283" y1="146.4766" y2="166.9648"/><line style="stroke:#000000;stroke-width:1;" x1="10" x2="230.7168" y1="166.9648" y2="166.9648"/><text fill="#000000" font-family="sans-serif" font-size="14" font-weight="bold" lengthAdjust="spacing" textLength="66.1787" x="15" y="182.5">kodeliste</text><text fill="#000000" font-family="sans-serif" font-size="14" lengthAdjust="spacing" textLength="13.2891" x="126.0283" y="182.5">&#160;&#160;&#160;</text><line style="stroke:#000000;stroke-width:1;" x1="121.0283" x2="121.0283" y1="166.9648" y2="187.4531"/><rect fill="none" height="81.9531" rx="5" ry="5" style="stroke:#000000;stroke-width:1.5;" width="220.7168" x="10" y="105.5"/><rect fill="#F1F1F1" height="122.9297" rx="5" ry="5" style="stroke:#F1F1F1;stroke-width:1.5;" width="23.2891" x="268" y="116"/><text fill="#000000" font-family="sans-serif" font-size="14" lengthAdjust="spacing" textLength="13.2891" x="273" y="131.5352">&#160;&#160;&#160;</text><line style="stroke:#000000;stroke-width:1;" x1="268" x2="291.2891" y1="136.4883" y2="136.4883"/><text fill="#000000" font-family="sans-serif" font-size="14" lengthAdjust="spacing" textLength="13.2891" x="273" y="152.0234">&#160;&#160;&#160;</text><line style="stroke:#000000;stroke-width:1;" x1="268" x2="291.2891" y1="156.9766" y2="156.9766"/><text fill="#000000" font-family="sans-serif" font-size="14" lengthAdjust="spacing" textLength="13.2891" x="273" y="172.5117">&#160;&#160;&#160;</text><line style="stroke:#000000;stroke-width:1;" x1="268" x2="291.2891" y1="177.4648" y2="177.4648"/><text fill="#000000" font-family="sans-serif" font-size="14" lengthAdjust="spacing" textLength="13.2891" x="273" y="193">&#160;&#160;&#160;</text><line style="stroke:#000000;stroke-width:1;" x1="268" x2="291.2891" y1="197.9531" y2="197.9531"/><text fill="#000000" font-family="sans-serif" font-size="14" lengthAdjust="spacing" textLength="13.2891" x="273" y="213.4883">&#160;&#160;&#160;</text><line style="stroke:#000000;stroke-width:1;" x1="268" x2="291.2891" y1="218.4414" y2="218.4414"/><text fill="#000000" font-family="sans-serif" font-size="14" lengthAdjust="spacing" textLength="13.2891" x="273" y="233.9766">&#160;&#160;&#160;</text><rect fill="none" height="122.9297" rx="5" ry="5" style="stroke:#000000;stroke-width:1.5;" width="23.2891" x="268" y="116"/><rect fill="#F1F1F1" height="40.9766" rx="5" ry="5" style="stroke:#F1F1F1;stroke-width:1.5;" width="219.2539" x="347.5" y="10"/><text fill="#000000" font-family="sans-serif" font-size="14" font-weight="bold" lengthAdjust="spacing" textLength="71.9824" x="352.5" y="25.5352">kodeverdi</text><text fill="#000000" font-family="sans-serif" font-size="14" lengthAdjust="spacing" textLength="8.8525" x="480.1328" y="25.5352">1</text><line style="stroke:#000000;stroke-width:1;" x1="475.1328" x2="475.1328" y1="10" y2="30.4883"/><line style="stroke:#000000;stroke-width:1;" x1="347.5" x2="566.7539" y1="30.4883" y2="30.4883"/><text fill="#000000" font-family="sans-serif" font-size="14" font-weight="bold" lengthAdjust="spacing" textLength="117.6328" x="352.5" y="46.0234">kodebeskrivelse</text><text fill="#000000" font-family="sans-serif" font-size="14" lengthAdjust="spacing" textLength="81.6211" x="480.1328" y="46.0234">F&#248;r BL 1924</text><line style="stroke:#000000;stroke-width:1;" x1="475.1328" x2="475.1328" y1="30.4883" y2="50.9766"/><rect fill="none" height="40.9766" rx="5" ry="5" style="stroke:#000000;stroke-width:1.5;" width="219.2539" x="347.5" y="10"/><rect fill="#F1F1F1" height="40.9766" rx="5" ry="5" style="stroke:#F1F1F1;stroke-width:1.5;" width="192.9902" x="360.5" y="69"/><text fill="#000000" font-family="sans-serif" font-size="14" font-weight="bold" lengthAdjust="spacing" textLength="71.9824" x="365.5" y="84.5352">kodeverdi</text><text fill="#000000" font-family="sans-serif" font-size="14" lengthAdjust="spacing" textLength="8.8525" x="493.1328" y="84.5352">2</text><line style="stroke:#000000;stroke-width:1;" x1="488.1328" x2="488.1328" y1="69" y2="89.4883"/><line style="stroke:#000000;stroke-width:1;" x1="360.5" x2="553.4902" y1="89.4883" y2="89.4883"/><text fill="#000000" font-family="sans-serif" font-size="14" font-weight="bold" lengthAdjust="spacing" textLength="117.6328" x="365.5" y="105.0234">kodebeskrivelse</text><text fill="#000000" font-family="sans-serif" font-size="14" lengthAdjust="spacing" textLength="55.3574" x="493.1328" y="105.0234">BL 1924</text><line style="stroke:#000000;stroke-width:1;" x1="488.1328" x2="488.1328" y1="89.4883" y2="109.9766"/><rect fill="none" height="40.9766" rx="5" ry="5" style="stroke:#000000;stroke-width:1.5;" width="192.9902" x="360.5" y="69"/><rect fill="#F1F1F1" height="40.9766" rx="5" ry="5" style="stroke:#F1F1F1;stroke-width:1.5;" width="192.9902" x="360.5" y="128"/><text fill="#000000" font-family="sans-serif" font-size="14" font-weight="bold" lengthAdjust="spacing" textLength="71.9824" x="365.5" y="143.5352">kodeverdi</text><text fill="#000000" font-family="sans-serif" font-size="14" lengthAdjust="spacing" textLength="8.8525" x="493.1328" y="143.5352">3</text><line style="stroke:#000000;stroke-width:1;" x1="488.1328" x2="488.1328" y1="128" y2="148.4883"/><line style="stroke:#000000;stroke-width:1;" x1="360.5" x2="553.4902" y1="148.4883" y2="148.4883"/><text fill="#000000" font-family="sans-serif" font-size="14" font-weight="bold" lengthAdjust="spacing" textLength="117.6328" x="365.5" y="164.0234">kodebeskrivelse</text><text fill="#000000" font-family="sans-serif" font-size="14" lengthAdjust="spacing" textLength="55.3574" x="493.1328" y="164.0234">BL 1965</text><line style="stroke:#000000;stroke-width:1;" x1="488.1328" x2="488.1328" y1="148.4883" y2="168.9766"/><rect fill="none" height="40.9766" rx="5" ry="5" style="stroke:#000000;stroke-width:1.5;" width="192.9902" x="360.5" y="128"/><rect fill="#F1F1F1" height="40.9766" rx="5" ry="5" style="stroke:#F1F1F1;stroke-width:1.5;" width="200.7285" x="356.5" y="187"/><text fill="#000000" font-family="sans-serif" font-size="14" font-weight="bold" lengthAdjust="spacing" textLength="71.9824" x="361.5" y="202.5352">kodeverdi</text><text fill="#000000" font-family="sans-serif" font-size="14" lengthAdjust="spacing" textLength="8.8525" x="489.1328" y="202.5352">4</text><line style="stroke:#000000;stroke-width:1;" x1="484.1328" x2="484.1328" y1="187" y2="207.4883"/><line style="stroke:#000000;stroke-width:1;" x1="356.5" x2="557.2285" y1="207.4883" y2="207.4883"/><text fill="#000000" font-family="sans-serif" font-size="14" font-weight="bold" lengthAdjust="spacing" textLength="117.6328" x="361.5" y="223.0234">kodebeskrivelse</text><text fill="#000000" font-family="sans-serif" font-size="14" lengthAdjust="spacing" textLength="63.0957" x="489.1328" y="223.0234">PBL 1985</text><line style="stroke:#000000;stroke-width:1;" x1="484.1328" x2="484.1328" y1="207.4883" y2="227.9766"/><rect fill="none" height="40.9766" rx="5" ry="5" style="stroke:#000000;stroke-width:1.5;" width="200.7285" x="356.5" y="187"/><rect fill="#F1F1F1" height="40.9766" rx="5" ry="5" style="stroke:#F1F1F1;stroke-width:1.5;" width="258.4854" x="328" y="246"/><text fill="#000000" font-family="sans-serif" font-size="14" font-weight="bold" lengthAdjust="spacing" textLength="71.9824" x="333" y="261.5352">kodeverdi</text><text fill="#000000" font-family="sans-serif" font-size="14" lengthAdjust="spacing" textLength="8.8525" x="460.6328" y="261.5352">5</text><line style="stroke:#000000;stroke-width:1;" x1="455.6328" x2="455.6328" y1="246" y2="266.4883"/><line style="stroke:#000000;stroke-width:1;" x1="328" x2="586.4854" y1="266.4883" y2="266.4883"/><text fill="#000000" font-family="sans-serif" font-size="14" font-weight="bold" lengthAdjust="spacing" textLength="117.6328" x="333" y="282.0234">kodebeskrivelse</text><text fill="#000000" font-family="sans-serif" font-size="14" lengthAdjust="spacing" textLength="120.8525" x="460.6328" y="282.0234">PBL 1985 eller f&#248;r</text><line style="stroke:#000000;stroke-width:1;" x1="455.6328" x2="455.6328" y1="266.4883" y2="286.9766"/><rect fill="none" height="40.9766" rx="5" ry="5" style="stroke:#000000;stroke-width:1.5;" width="258.4854" x="328" y="246"/><rect fill="#F1F1F1" height="40.9766" rx="5" ry="5" style="stroke:#F1F1F1;stroke-width:1.5;" width="200.7285" x="356.5" y="305"/><text fill="#000000" font-family="sans-serif" font-size="14" font-weight="bold" lengthAdjust="spacing" textLength="71.9824" x="361.5" y="320.5352">kodeverdi</text><text fill="#000000" font-family="sans-serif" font-size="14" lengthAdjust="spacing" textLength="8.8525" x="489.1328" y="320.5352">6</text><line style="stroke:#000000;stroke-width:1;" x1="484.1328" x2="484.1328" y1="305" y2="325.4883"/><line style="stroke:#000000;stroke-width:1;" x1="356.5" x2="557.2285" y1="325.4883" y2="325.4883"/><text fill="#000000" font-family="sans-serif" font-size="14" font-weight="bold" lengthAdjust="spacing" textLength="117.6328" x="361.5" y="341.0234">kodebeskrivelse</text><text fill="#000000" font-family="sans-serif" font-size="14" lengthAdjust="spacing" textLength="63.0957" x="489.1328" y="341.0234">PBL 2008</text><line style="stroke:#000000;stroke-width:1;" x1="484.1328" x2="484.1328" y1="325.4883" y2="345.9766"/><rect fill="none" height="40.9766" rx="5" ry="5" style="stroke:#000000;stroke-width:1.5;" width="200.7285" x="356.5" y="305"/><path d="M279,126.5 L292,126.5 C325.8041,126.5 301.0861,79.9538 328,59.5 C332.0983,56.3854 336.4693,53.5942 341.0334,51.0938" fill="none" style="stroke:#000000;stroke-width:1;stroke-dasharray:3.0,3.0;"/><path d="M342.4171,53.8201 L343.0781,50.0561 L339.6497,48.3675 L347.8491,47.6346 L342.4171,53.8201" fill="#000000" style="stroke:#000000;stroke-width:1;"/><ellipse cx="279" cy="126.5" fill="#000000" rx="3" ry="3" style="stroke:#000000;stroke-width:1;"/><path d="M279,146.5 L292,146.5 C312.2698,146.5 309.6739,127.1613 328,118.5 C336.077,114.6827 344.681,111.3551 353.463,108.4567" fill="none" style="stroke:#000000;stroke-width:1;stroke-dasharray:3.0,3.0;"/><path d="M354.397,111.4211 L355.6864,107.7562 L352.529,105.4922 L360.8742,106.1216 L354.397,111.4211" fill="#000000" style="stroke:#000000;stroke-width:1;"/><ellipse cx="279" cy="146.5" fill="#000000" rx="3" ry="3" style="stroke:#000000;stroke-width:1;"/><path d="M279,167.5 L292,167.5 C311.7564,167.5 332.7599,166.1309 352.9173,164.1276" fill="none" style="stroke:#000000;stroke-width:1;stroke-dasharray:3.0,3.0;"/><path d="M353.2362,167.1995 L355.2212,163.8885 L352.5984,161.0557 L360.597,163.3304 L353.2362,167.1995" fill="#000000" style="stroke:#000000;stroke-width:1;"/><ellipse cx="279" cy="167.5" fill="#000000" rx="3" ry="3" style="stroke:#000000;stroke-width:1;"/><path d="M279,187.5 L292,187.5 C310.5405,187.5 330.171,188.7675 349.1679,190.6642" fill="none" style="stroke:#000000;stroke-width:1;stroke-dasharray:3.0,3.0;"/><path d="M348.853,193.6753 L351.4262,190.9004 L349.4827,187.6532 L356.6955,191.4514 L348.853,193.6753" fill="#000000" style="stroke:#000000;stroke-width:1;"/><ellipse cx="279" cy="187.5" fill="#000000" rx="3" ry="3" style="stroke:#000000;stroke-width:1;"/><path d="M279,208.5 L292,208.5 C312.5456,208.5 309.5001,228.5626 328,237.5 C332.2569,239.5566 336.6643,241.4701 341.1699,243.2502" fill="none" style="stroke:#000000;stroke-width:1;stroke-dasharray:3.0,3.0;"/><path d="M340.0943,246.1118 L343.3161,244.0569 L342.2456,240.3887 L348.3238,245.9393 L340.0943,246.1118" fill="#000000" style="stroke:#000000;stroke-width:1;"/><ellipse cx="279" cy="208.5" fill="#000000" rx="3" ry="3" style="stroke:#000000;stroke-width:1;"/><path d="M279,228.5 L292,228.5 C326.1962,228.5 300.8377,275.7252 328,296.5 C334.6064,301.5528 341.9291,305.7553 349.6311,309.2471" fill="none" style="stroke:#000000;stroke-width:1;stroke-dasharray:3.0,3.0;"/><path d="M348.4268,312.1152 L351.7822,310.1503 L350.8355,306.3789 L356.8015,312.258 L348.4268,312.1152" fill="#000000" style="stroke:#000000;stroke-width:1;"/><ellipse cx="279" cy="228.5" fill="#000000" rx="3" ry="3" style="stroke:#000000;stroke-width:1;"/><path d="M219,177.5 L232,177.5 C241.399,177.5 251.8552,177.5 260.5144,177.5" fill="none" style="stroke:#000000;stroke-width:1;stroke-dasharray:3.0,3.0;"/><path d="M260.5144,180.5633 L262.8119,177.5 L260.5144,174.4367 L268.1727,177.5 L260.5144,180.5633" fill="#000000" style="stroke:#000000;stroke-width:1;"/><ellipse cx="219" cy="177.5" fill="#000000" rx="3" ry="3" style="stroke:#000000;stroke-width:1;"/><!--SRC=[bPAxRi8m58PtFyLH9f0WWd1fcWbngqIXe1POgWw6d223EKQs4wb2VQ_kVR6Q0Er6q-KC_-MJPVqTOxcsMwE87Hc0Tz3AgfsIadX6NWGUANzd_4IuSv2SlCefTJMboZGcg3aPr6ShGsssAdUpu2pjL8nI68jEV7K2m36_5yirOk61AzJp_8-nGhFJ8aDfCBU7NvyQkcEetmTDBmz-L6xXWjkuVv0Q1KZjLX5IypPfbgF2GgXMCHIWbAWXSPzNXDh-cnhKQk45vUuR-s0Tf3ZV49kvZTZ5P0od7GX5KFU3Mj3oWz8yHHXnWjeTrCEeqOeQRUWDvd2oowpqC1k3KQbU8yHkArgiKklwPJRY6OVdbApOOmJJ0zAe_tWLO42Pq8hsI9QDbfFVGBjPxGeBBwZTIs0vONrCU2gjQwnLB6WJmM8-h8Pip6cJyerZ8x6USbpz7i7Jz1i0]--></g></svg>